<svg xmlns="http://www.w3.org/2000/svg" width="348" height="480" fill="none"><g clip-path="url(#a)"><path fill="#D8D8D8" d="M345.5 197.3h1.3c.6 0 1.2.6 1.2 1.3v74c0 .7-.6 1.2-1.2 1.2h-1.3v-76.5Zm-343 93H1.2c-.7 0-1.2-.6-1.2-1.3v-46c0-.7.6-1.3 1.2-1.3h1.3v48.6Zm0-61.7H1.2c-.7 0-1.2-.6-1.2-1.2v-46c0-.8.6-1.3 1.2-1.3h1.3v48.5Zm0-69.9H1.2c-.7 0-1.2-.6-1.2-1.2v-20.6c0-.7.6-1.2 1.2-1.2h1.3v23ZM2.5 74.8C2.5 55 2.5 45 5 37A53.5 53.5 0 0 1 39.4 2.6c8-2.6 18-2.6 38-2.6h193.3c19.9 0 29.8 0 37.9 2.6A53.5 53.5 0 0 1 342.9 37c2.6 8 2.6 18 2.6 38v555.8c0 19.9 0 29.8-2.6 37.9a53.5 53.5 0 0 1-34.3 34.3c-8 2.6-18 2.6-38 2.6H77.4c-19.9 0-29.8 0-37.9-2.6a53.5 53.5 0 0 1-34.3-34.3c-2.6-8-2.6-18-2.6-38V74.9Z"/><path fill="#D8D8D8" fill-rule="evenodd" d="M271 1.6H77c-19.7 0-29.3 0-37 2.6A51.8 51.8 0 0 0 6.5 37.4c-2.5 7.8-2.5 17.4-2.5 37.1V631c0 19.7 0 29.3 2.6 37a51.8 51.8 0 0 0 33.2 33.3c7.8 2.5 17.4 2.6 37.1 2.6h194c19.7 0 29.3 0 37-2.6a51.8 51.8 0 0 0 33.3-33.2c2.6-7.8 2.6-17.4 2.6-37V74.4c0-19.7 0-29.3-2.5-37A51.8 51.8 0 0 0 308 4.1c-7.8-2.6-17.4-2.6-37.1-2.6ZM5.9 37.2c-2.6 7.9-2.6 17.7-2.6 37.3V631c0 19.6 0 29.4 2.6 37.3a52.6 52.6 0 0 0 33.8 33.8c7.9 2.6 17.7 2.6 37.3 2.6h194c19.6 0 29.4 0 37.3-2.6a52.6 52.6 0 0 0 33.8-33.8c2.6-8 2.6-17.7 2.6-37.3V74.5c0-19.6 0-29.4-2.6-37.3a52.6 52.6 0 0 0-33.8-33.8C300.4.8 290.6.8 271 .8H77C57.4.8 47.6.8 39.7 3.4A52.6 52.6 0 0 0 5.9 37.2Z" clip-rule="evenodd"/><path fill="#F3F3F3" d="M6.6 73.2c0-18.4 0-27.6 2.4-35A49.4 49.4 0 0 1 40.7 6.5c7.4-2.4 16.6-2.4 35-2.4h196.6c18.4 0 27.6 0 35 2.4A49.4 49.4 0 0 1 339 38.2c2.4 7.4 2.4 16.6 2.4 35v559.1c0 18.4 0 27.6-2.4 35a49.3 49.3 0 0 1-31.7 31.7c-7.4 2.4-16.6 2.4-35 2.4H75.7c-18.4 0-27.6 0-35-2.4A49.4 49.4 0 0 1 9 667.3c-2.4-7.4-2.4-16.6-2.4-35V73.2Z"/><path fill="#D8D8D8" d="M272.3 0h5v4.1h-5V0Zm69.1 70.7h4.1v5h-4v-5Zm-339 0h4.2v5H2.5v-5Z"/><mask id="b" width="312" height="675" x="18" y="15" maskUnits="userSpaceOnUse" style="mask-type:alpha"><path fill="#fff" d="M97.9 24.1c0 8.5 7 15.4 15.6 15.4h121c8.5 0 15.6-7 15.6-15.4v-4.2a4.2 4.2 0 0 1 4.1-4.3h18.9c16.9 0 25.4 0 32 2.6a38.7 38.7 0 0 1 22.2 22.1c2.6 6.8 2.6 15.2 2.6 32.1v560.7c0 16.9 0 25.3-2.6 32a38.6 38.6 0 0 1-22.1 22.2c-6.7 2.6-15.2 2.6-32.1 2.6H74.9c-16.9 0-25.4 0-32-2.6a38.6 38.6 0 0 1-22.2-22.1c-2.6-6.8-2.6-15.2-2.6-32.1V72.4c0-16.9 0-25.3 2.6-32a38.7 38.7 0 0 1 22.1-22.2c6.8-2.6 15.2-2.6 32.1-2.6h18.9a4.2 4.2 0 0 1 4.1 4.3v4.2Z"/></mask><g mask="url(#b)"><g clip-path="url(#c)"><mask id="d" width="314" height="620" x="17" y="16" maskUnits="userSpaceOnUse" style="mask-type:luminance"><path fill="#fff" d="M330.5 16.3H17.9V636h312.6V16.3Z"/></mask><g mask="url(#d)"><path fill="#fff" d="M330.5 16.3H17.9V636h312.6V16.3Z"/><mask id="e" width="314" height="71" x="17" y="16" maskUnits="userSpaceOnUse" style="mask-type:luminance"><path fill="#fff" d="M330.5 16.3H17.9v70.4h312.6V16.3Z"/></mask><g mask="url(#e)"><path stroke="#888" stroke-linecap="round" stroke-width="1.5" d="m33.6 60.3 6.8-6.8m0 13.7-6.8-6.9"/><path fill="#67B279" d="M284.8 64.2v-9.6h3.2c2.9 0 4.6 1.8 4.6 4.8s-1.7 4.8-4.6 4.8h-3.2Zm1.2-1h2c2.1 0 3.3-1.4 3.3-3.8s-1.2-3.7-3.4-3.7h-2V63Zm10.8 1.1c-2 0-3.3-1.4-3.3-3.6s1.3-3.6 3.3-3.6c1.9 0 3.2 1.4 3.2 3.6 0 2.3-1.3 3.6-3.2 3.6Zm0-1c1.2 0 2-1 2-2.6s-.8-2.5-2-2.5-2 1-2 2.5c0 1.7.7 2.6 2 2.6Zm4.4 1v-7h1.1v1c.4-.7 1.1-1.2 2.2-1.2 1.5 0 2.4 1 2.4 2.6v4.5h-1.2V60c0-1.1-.5-1.7-1.6-1.7-1 0-1.8.8-1.8 2v4h-1.1Zm10 0c-2 0-3.2-1.4-3.2-3.5 0-2.2 1.2-3.7 3.1-3.7s3.1 1.4 3.1 3.5v.5h-5c0 1.4.8 2.2 2 2.2 1 0 1.6-.4 1.8-1h1.1c-.2 1.1-1.4 2-2.9 2Zm0-6.1c-1 0-1.9.6-2 2h3.8c0-1.4-.8-2-1.9-2Z" opacity=".9"/></g><mask id="f" width="314" height="71" x="17" y="93" maskUnits="userSpaceOnUse" style="mask-type:luminance"><path fill="#fff" d="M330.5 93.5H17.9V164h312.6V93.5Z"/></mask><g mask="url(#f)"><path fill="#fff" d="M330.5 93.5H17.9V164h312.6V93.5Z"/><path stroke="#F3F3F3" d="M18 163h312.5"/><path fill="#4D4D4D" d="M34.6 124.8v-11h4.2c1.9 0 3.2 1.1 3.2 2.8 0 1.1-.9 2.2-2 2.4 1.6.2 2.5 1.3 2.5 2.7 0 2-1.4 3.1-3.7 3.1h-4.2Zm3.9-9.8H36v3.5h2c1.7 0 2.6-.6 2.6-1.8 0-1-.8-1.7-2.1-1.7Zm0 4.7H36v3.9h2.6c1.6 0 2.5-.7 2.5-2 0-1.2-.9-1.9-2.6-1.9Zm5.4 5.1v-11h1.4v11H44Zm6.5.2c-2.2 0-3.7-1.6-3.7-4.2 0-2.5 1.5-4 3.6-4 2.3 0 3.7 1.5 3.7 4 0 2.6-1.4 4.2-3.6 4.2Zm0-1.2c1.4 0 2.3-1 2.3-3 0-1.8-1-2.9-2.4-2.9-1.3 0-2.2 1-2.2 3 0 1.8.9 2.9 2.3 2.9Zm8.3 1.2c-2.3 0-3.7-1.6-3.7-4.2 0-2.5 1.4-4 3.6-4 2 0 3.2 1.2 3.4 2.6h-1.3c-.3-.8-.9-1.5-2-1.5-1.4 0-2.4 1.1-2.4 3 0 1.8 1 2.9 2.4 2.9 1 0 1.7-.6 2-1.5H62c-.2 1.5-1.5 2.7-3.3 2.7Zm4.6-.2v-11h1.3v6.6l3.6-3.5h1.6l-3.5 3.4 3.6 4.5h-1.6l-3-3.7-.7.7v3h-1.3Zm10 .2c-1.9 0-3-1-3.2-2.4h1.4c.1.8.7 1.3 1.8 1.3 1 0 1.7-.5 1.7-1.2 0-.6-.3-1-1.2-1.1l-1.2-.3c-1.5-.4-2.3-1-2.3-2.2 0-1.4 1.2-2.4 3-2.4 1.7 0 2.8 1 3 2.4h-1.4c0-.8-.7-1.3-1.6-1.3-1 0-1.6.5-1.6 1.2 0 .5.4 1 1.2 1.1l1.3.3c1.6.4 2.2 1 2.2 2.2 0 1.4-1.3 2.4-3.1 2.4Zm10 0c-1.6 0-2.7-1-2.7-2.4s1.1-2.2 3-2.3l2.2-.2v-.6c0-1-.6-1.6-1.7-1.6-1 0-1.7.5-1.9 1.2H81c.2-1.3 1.3-2.4 3.2-2.4 1.9 0 3 1 3 2.6v5.5h-1.3v-1.3a2.8 2.8 0 0 1-2.5 1.5Zm-1.3-2.4c0 .7.6 1.2 1.6 1.2 1.2 0 2.2-.8 2.2-2v-.7l-2.1.2c-1 0-1.7.5-1.7 1.3Zm9.8 2.4c-2 0-3.4-1.7-3.4-4.2s1.4-4 3.4-4c1 0 2 .5 2.5 1.4v-4.4h1.4v11h-1.4v-1.3c-.5.9-1.4 1.5-2.5 1.5Zm.2-1.2c1.4 0 2.3-1.2 2.3-3 0-1.7-1-2.9-2.3-2.9-1.4 0-2.2 1.1-2.2 3 0 1.8.8 2.9 2.2 2.9Zm8.3 1.2c-1.9 0-3-1-3.2-2.4h1.3c.2.8.8 1.3 1.9 1.3 1 0 1.7-.5 1.7-1.2 0-.6-.3-1-1.2-1.1l-1.3-.3c-1.5-.4-2.2-1-2.2-2.2 0-1.4 1.2-2.4 3-2.4 1.7 0 2.8 1 2.9 2.4h-1.3c0-.8-.7-1.3-1.7-1.3s-1.5.5-1.5 1.2c0 .5.3 1 1.2 1.1l1.3.3c1.6.4 2.2 1 2.2 2.2 0 1.4-1.3 2.4-3.1 2.4Zm11 0c-2.3 0-3.7-1.6-3.7-4.2 0-2.5 1.4-4 3.6-4s3.7 1.5 3.7 4c0 2.6-1.5 4.2-3.7 4.2Zm0-1.2c1.3 0 2.2-1 2.2-3 0-1.8-.9-2.9-2.3-2.9s-2.3 1-2.3 3c0 1.8 1 2.9 2.3 2.9Zm5 1v-8h1.3v1.2c.4-.8 1.2-1.3 2.4-1.3 1.8 0 2.8 1.1 2.8 3v5.1h-1.3v-5c0-1.2-.6-2-1.9-2-1.2 0-2 1-2 2.3v4.7h-1.3Zm14 .2c-1.5 0-2.2-.7-2.2-2.2V118h-1.2v-1.1h1.2v-2.2h1.4v2.2h1.5v1h-1.5v4.9c0 .8.3 1 1 1h.5v1.1h-.7Zm2.2-.2v-11h1.3v4.3c.5-.8 1.3-1.4 2.5-1.4 1.7 0 2.8 1.3 2.8 3.2v5h-1.3v-4.7c0-1.4-.7-2.3-2-2.3-1.2 0-2 1-2 2.3v4.6h-1.3Zm9-9.3a.8.8 0 0 1-.8-.8c0-.5.4-.8.9-.8.4 0 .8.3.8.8s-.4.8-.8.8Zm-.6 9.3v-8h1.3v8H141Zm6 .2c-1.9 0-3-1-3.2-2.4h1.3c.2.8.8 1.3 1.9 1.3s1.7-.5 1.7-1.2c0-.6-.3-1-1.2-1.1l-1.3-.3c-1.5-.4-2.2-1-2.2-2.2 0-1.4 1.2-2.4 3-2.4 1.7 0 2.8 1 2.9 2.4h-1.3c0-.8-.7-1.3-1.7-1.3s-1.5.5-1.5 1.2c0 .5.3 1 1.2 1.1l1.3.3c1.6.4 2.2 1 2.2 2.2 0 1.4-1.4 2.4-3.1 2.4Zm10.5 0c-2 0-3-1-3.2-2.4h1.3c.2.8.8 1.3 1.9 1.3s1.7-.5 1.7-1.2c0-.6-.3-1-1.2-1.1l-1.3-.3c-1.5-.4-2.2-1-2.2-2.2 0-1.4 1.2-2.4 3-2.4 1.7 0 2.8 1 2.9 2.4H159c-.1-.8-.7-1.3-1.7-1.3s-1.5.5-1.5 1.2c0 .5.3 1 1.2 1.1l1.3.3c1.6.4 2.1 1 2.1 2.2 0 1.4-1.3 2.4-3 2.4Zm5.2-9.5a.8.8 0 0 1 0-1.6c.4 0 .8.3.8.8s-.4.8-.8.8Zm-.7 9.3v-8h1.3v8H162Zm5.7.2c-1.4 0-2.2-.7-2.2-2.2V118h-1.1v-1.1h1.1v-2.2h1.4v2.2h1.5v1h-1.5v4.9c0 .8.4 1 1.1 1h.4v1.1h-.7Zm5.2 0c-2.3 0-3.7-1.6-3.7-4.1 0-2.5 1.4-4.2 3.6-4.2s3.5 1.6 3.5 4v.5h-5.7c0 1.6 1 2.6 2.3 2.6 1 0 1.7-.5 2-1.2h1.3c-.3 1.3-1.6 2.4-3.3 2.4Zm-.1-7.1c-1.2 0-2 .8-2.2 2.3h4.3c0-1.6-1-2.3-2.1-2.3Z"/><path fill="#888" d="m35.7 143.4-2-7H35l1.4 5.7 1.6-5.7H39l1.6 5.7 1.4-5.7h1.2l-2 7H40l-1.5-5.4-1.6 5.4h-1.2Zm9.8 0-2-7h1.2l1.4 5.7 1.6-5.7h1.1l1.6 5.7 1.4-5.7H53l-1.9 7h-1.2l-1.5-5.4-1.6 5.4h-1.2Zm9.8 0-2-7h1.2l1.4 5.7 1.6-5.7h1.1l1.6 5.7 1.4-5.7h1.1l-1.9 7h-1.2L58 138l-1.5 5.4h-1.2Zm8.3 0a.8.8 0 0 1-.8-.7c0-.4.4-.7.8-.7s.8.3.8.7-.4.8-.8.8Zm4.8 2.5c-1.8 0-2.8-.8-3-1.9h1.1c.2.5.9.8 1.8.8 1.3 0 2-.6 2-1.7v-1a2.4 2.4 0 0 1-2.3 1.4c-1.7 0-3-1.5-3-3.6 0-2.2 1.3-3.6 3-3.6 1 0 1.8.5 2.2 1.3v-1.2h1.2v6.8c0 1.6-1.2 2.7-3 2.7Zm-.1-3.5c1.2 0 2-1 2-2.5 0-1.6-.8-2.6-2-2.6s-2 1-2 2.6c0 1.5.8 2.5 2 2.5Zm7.5 1.1c-2 0-3.2-1.4-3.2-3.6s1.3-3.6 3.2-3.6c2 0 3.2 1.4 3.2 3.6s-1.3 3.6-3.2 3.6Zm0-1c1.2 0 2-1 2-2.6s-.8-2.6-2-2.6-2 1-2 2.6.8 2.6 2 2.6Zm7.3 1c-2 0-3.2-1.4-3.2-3.6s1.3-3.6 3.2-3.6c1.9 0 3.2 1.4 3.2 3.6s-1.3 3.6-3.2 3.6Zm0-1c1.2 0 2-1 2-2.6s-.8-2.6-2-2.6-2 1-2 2.6.8 2.6 2 2.6Zm7.3 3.4c-1.7 0-2.8-.8-3-1.9h1.1c.3.5 1 .8 1.9.8 1.2 0 1.9-.6 1.9-1.7v-1a2.4 2.4 0 0 1-2.2 1.4c-1.8 0-3-1.5-3-3.6 0-2.2 1.2-3.6 3-3.6 1 0 1.8.5 2.2 1.3v-1.2h1.2v6.8c0 1.6-1.2 2.7-3.1 2.7Zm0-3.5c1.1 0 1.9-1 1.9-2.5 0-1.6-.8-2.6-2-2.6s-2 1-2 2.6c0 1.5.8 2.5 2 2.5Zm4.6 1v-9.7h1.2v9.7H95Zm5.6.1c-2 0-3.2-1.4-3.2-3.6 0-2.1 1.2-3.6 3.1-3.6 2 0 3 1.4 3 3.5v.4h-5c.1 1.5 1 2.3 2.1 2.3 1 0 1.5-.5 1.7-1v-.1h1.2c-.2 1.2-1.4 2.1-2.9 2.1Zm0-6.2c-1 0-1.9.7-2 2h3.8c-.1-1.3-.9-2-1.9-2Zm4.9 6.2a.8.8 0 0 1-.8-.8c0-.4.4-.7.8-.7s.7.3.7.7-.3.8-.7.8Zm4.7 0c-2 0-3.2-1.4-3.2-3.6s1.2-3.6 3.2-3.6c1.7 0 2.7 1.2 2.9 2.3v.1h-1.2c-.1-.8-.7-1.4-1.7-1.4-1.2 0-2 1-2 2.6s.8 2.6 2 2.6c1 0 1.5-.5 1.7-1.3h1.2c-.2 1.3-1.3 2.3-3 2.3Zm6.8 0c-1.9 0-3.2-1.4-3.2-3.6s1.3-3.6 3.2-3.6c2 0 3.2 1.4 3.2 3.6s-1.3 3.6-3.2 3.6Zm0-1c1.3 0 2-1 2-2.6s-.7-2.6-2-2.6c-1.2 0-2 1-2 2.6s.8 2.6 2 2.6Zm4.4.9v-7h1.2v1c.3-.6 1-1 2-1 .9 0 1.6.4 1.9 1.2a2.3 2.3 0 0 1 2.2-1.3c1.3 0 2.2 1 2.2 2.3v4.8h-1.1v-4.5c0-1-.6-1.6-1.5-1.6s-1.5.7-1.5 1.7v4.4h-1.2v-4.7c0-.8-.6-1.4-1.4-1.4-1 0-1.6.8-1.6 1.7v4.4h-1.2Z"/><path fill="#67B279" fill-rule="evenodd" d="M281.7 115a13.7 13.7 0 0 0 0 27.4h19.5a13.7 13.7 0 0 0 0-27.4h-19.5Z" clip-rule="evenodd"/><path fill="#fff" d="M301.2 141.4a12.7 12.7 0 1 0 0-25.4 12.7 12.7 0 0 0 0 25.4Z"/></g><path fill="#fff" d="M330.5 164H17.9v129.4h312.6V163.9Z"/><path stroke="#F3F3F3" d="M18 315.6h312.5"/><path stroke="#888" stroke-linecap="round" stroke-linejoin="round" stroke-width="1.5" d="m288.5 205 5.9-5.9-6-5.9"/><path stroke="#67B279" stroke-linecap="round" stroke-linejoin="round" d="m42.4 198.1 2.9 3 3.9-5"/><path stroke="#67B279" stroke-linecap="round" stroke-linejoin="round" d="M45.3 190.3c-2.8 0-6 .6-8.8 2 0 3 0 10.5 8.8 15.6 8.8-5.1 8.8-12.6 8.8-15.6a20.2 20.2 0 0 0-8.8-2Z" clip-rule="evenodd"/><path fill="#4D4D4D" d="M73.7 195.2v-11H78c1.9 0 3.1 1 3.1 2.7 0 1.2-.8 2.3-2 2.4 1.6.2 2.6 1.3 2.6 2.8 0 2-1.4 3-3.7 3h-4.2Zm3.9-9.8H75v3.5h2c1.7 0 2.6-.6 2.6-1.8 0-1.1-.8-1.7-2.1-1.7Zm0 4.7H75v3.9h2.6c1.6 0 2.5-.7 2.5-2 0-1.2-1-1.9-2.7-1.9Zm5.4 5v-11h1.3v11H83Zm6.4.2c-2.2 0-3.7-1.6-3.7-4v-.1c0-2.5 1.5-4.1 3.7-4.1s3.7 1.6 3.7 4.1c0 2.6-1.5 4.1-3.7 4.1Zm0-1.1c1.4 0 2.3-1.1 2.3-3s-.9-3-2.3-3-2.3 1.2-2.3 3c0 1.9 1 3 2.3 3Zm8.3 1.1c-2.2 0-3.7-1.6-3.7-4 0-2.6 1.5-4.2 3.7-4.2 2 0 3.2 1.3 3.3 2.7h-1.3a2 2 0 0 0-2-1.5c-1.4 0-2.3 1.1-2.3 3 0 1.8 1 2.9 2.3 2.9 1.1 0 1.8-.6 2-1.5h1.3c-.2 1.5-1.5 2.6-3.3 2.6Zm4.7-.1v-11h1.3v6.5l3.5-3.4h1.6l-3.4 3.4 3.5 4.5h-1.5l-3-3.7-.7.7v3h-1.3Zm14 .1c-2.4 0-3.7-1.6-3.7-4 0-2.5 1.4-4.2 3.5-4.2s3.5 1.6 3.5 4v.5H114c0 1.6 1 2.6 2.4 2.6 1 0 1.7-.5 1.9-1.2h1.3c-.2 1.3-1.5 2.3-3.3 2.3Zm-.2-7c-1.1 0-2 .8-2.2 2.2h4.4c-.2-1.5-1-2.2-2.2-2.2Zm5 6.9v-11h1.3v11H121Zm6.3.1c-2.3 0-3.6-1.6-3.6-4 0-2.5 1.4-4.2 3.5-4.2s3.5 1.6 3.5 4v.5h-5.7c0 1.6 1 2.6 2.4 2.6 1 0 1.7-.5 1.9-1.2h1.3c-.2 1.3-1.5 2.3-3.3 2.3Zm0-7c-1.2 0-2.1.8-2.3 2.2h4.4c-.2-1.5-1-2.2-2.2-2.2Zm4.8 6.9v-8h1.3v1.2a2.3 2.3 0 0 1 2.2-1.3c1 0 1.9.6 2.2 1.5a2.7 2.7 0 0 1 2.5-1.5c1.6 0 2.6 1 2.6 2.6v5.5h-1.3V190c0-1-.6-1.7-1.6-1.7s-1.8.8-1.8 1.8v5H137V190c0-1-.6-1.6-1.6-1.6s-1.8.8-1.8 2v4.9h-1.3Zm15.8.1c-2.3 0-3.6-1.6-3.6-4 0-2.5 1.3-4.2 3.5-4.2s3.5 1.6 3.5 4v.5h-5.7c0 1.6 1 2.6 2.3 2.6 1 0 1.7-.5 2-1.2h1.3c-.3 1.3-1.6 2.3-3.3 2.3Zm-.1-7c-1.1 0-2 .8-2.2 2.2h4.3c0-1.5-1-2.2-2-2.2Zm4.8 6.9v-8h1.4v1.2c.4-.8 1.2-1.3 2.5-1.3 1.7 0 2.7 1.1 2.7 3v5H158v-4.8c0-1.3-.6-2-1.9-2-1.2 0-2 .9-2 2.2v4.7h-1.3Zm10.9.1c-1.5 0-2.2-.6-2.2-2.1v-4.8h-1.2v-1.1h1.2V185h1.4v2.2h1.5v1h-1.5v4.9c0 .8.3 1 1 1h.5v1l-.7.1Zm8.6 0c-2.2 0-3.7-1.6-3.7-4v-.1c0-2.5 1.5-4.1 3.7-4.1s3.7 1.6 3.7 4.1c0 2.6-1.5 4.1-3.7 4.1Zm0-1.1c1.4 0 2.3-1.1 2.3-3s-.9-3-2.3-3-2.3 1.2-2.3 3c0 1.9.9 3 2.3 3Zm5 1v-8h1.3v1.2c.5-.8 1.3-1.3 2.5-1.3 1.7 0 2.8 1.1 2.8 3v5h-1.4v-4.8c0-1.3-.6-2-1.8-2-1.3 0-2 .9-2 2.2v4.7h-1.4Zm14 .1c-1.4 0-2.1-.6-2.1-2.1v-4.8H188v-1.1h1.2V185h1.3v2.2h1.5v1h-1.5v4.9c0 .8.4 1 1.1 1h.4v1a6 6 0 0 1-.7.1Zm2.2-.1v-11h1.4v4.3c.4-.9 1.3-1.4 2.5-1.4 1.7 0 2.8 1.3 2.8 3.2v4.9H199v-4.6c0-1.5-.8-2.3-2-2.3s-2 .9-2 2.3v4.6h-1.4Zm9.1-9.3a.8.8 0 0 1-.8-.8c0-.5.4-.9.8-.9a.8.8 0 1 1 0 1.7Zm-.6 9.3v-8h1.3v8H202Zm6 .1c-2 0-3-1-3.2-2.3v-.1h1.3c.2.9.8 1.3 1.8 1.3s1.8-.4 1.8-1.1c0-.6-.3-1-1.2-1.2l-1.3-.3c-1.5-.3-2.2-1-2.2-2.2 0-1.3 1.2-2.3 2.9-2.3s2.8 1 3 2.3v.1h-1.3c-.1-.8-.7-1.3-1.7-1.3s-1.6.5-1.6 1.2c0 .5.4.9 1.3 1.1l1.2.3c1.6.4 2.2 1 2.2 2.2 0 1.4-1.3 2.3-3 2.3Zm7.6 2.6v-10.6h1.3v1.3c.6-1 1.4-1.5 2.6-1.5 2 0 3.3 1.6 3.3 4.1 0 2.5-1.3 4.1-3.3 4.1a2.8 2.8 0 0 1-2.5-1.4v4h-1.4Zm3.6-3.7c1.4 0 2.3-1.2 2.3-3s-.9-3-2.3-3c-1.3 0-2.3 1.2-2.3 3s1 3 2.3 3Zm7.3 1.1c-1.6 0-2.6-1-2.6-2.4 0-1.3 1-2.2 2.8-2.3l2.3-.1v-.7c0-1-.6-1.5-1.7-1.5-1 0-1.7.5-1.8 1.2h-1.3c0-1.3 1.2-2.4 3.1-2.4 1.9 0 3 1 3 2.6v5.5H229v-1.3a2.8 2.8 0 0 1-2.5 1.4Zm-1.3-2.4c0 .8.7 1.3 1.6 1.3 1.3 0 2.2-.9 2.2-2v-.7l-2.1.2c-1 0-1.7.5-1.7 1.2Zm10.2 5.1c-2 0-3.2-1-3.5-2v-.1h1.4c.2.6 1 1 2 1 1.5 0 2.3-.8 2.3-2v-1a2.8 2.8 0 0 1-2.6 1.4c-2 0-3.4-1.6-3.4-4.1 0-2.5 1.4-4.1 3.4-4.1 1.2 0 2 .6 2.5 1.5v-1.3h1.4v7.7c0 1.8-1.4 3-3.5 3Zm-.1-4c1.3 0 2.3-1 2.3-2.8 0-1.8-1-3-2.3-3-1.4 0-2.3 1.2-2.3 3s.9 2.9 2.3 2.9Zm8.6 1.3c-2.3 0-3.7-1.6-3.7-4 0-2.5 1.4-4.2 3.6-4.2s3.5 1.6 3.5 4v.5h-5.7c0 1.6.9 2.6 2.3 2.6 1 0 1.7-.5 2-1.2h1.3c-.3 1.3-1.6 2.3-3.3 2.3Zm-.1-7c-1.2 0-2 .8-2.2 2.2h4.3c-.1-1.5-1-2.2-2.1-2.2Z"/><path fill="#888" d="M76 213.8v-8.6h-3v-1h7.3v1h-3v8.6H76Zm5.6 0c-1.4 0-2.3-.7-2.3-2 0-1.2.9-2 2.5-2l2-.1v-.6c0-.9-.6-1.4-1.6-1.4-.9 0-1.4.4-1.6 1v.1h-1c0-1.2 1-2.1 2.7-2.1 1.6 0 2.6.9 2.6 2.3v4.8h-1.1v-1.2a2.5 2.5 0 0 1-2.2 1.3Zm-1.1-2c0 .7.5 1 1.3 1 1.1 0 2-.7 2-1.7v-.6l-1.9.2c-1 0-1.5.4-1.5 1v.1Zm5.9 4.3v-9.3h1.2v1.2c.4-.8 1.2-1.3 2.2-1.3 1.8 0 3 1.4 3 3.6s-1.2 3.6-3 3.6c-1 0-1.8-.5-2.2-1.3v3.5h-1.2Zm3.2-3.2c1.2 0 2-1 2-2.6s-.8-2.6-2-2.6-2 1-2 2.6c0 1.5.8 2.6 2 2.6Zm7.2.9V204H98v3.8c.3-.8 1.1-1.2 2.1-1.2 1.5 0 2.5 1.1 2.5 2.8v4.3h-1.1v-4c0-1.4-.7-2-1.8-2s-1.8.7-1.8 2v4h-1.1Zm10.2 0c-2 0-3.2-1.3-3.2-3.5s1.2-3.6 3-3.6 3.1 1.4 3.1 3.5v.4h-5c0 1.4.8 2.3 2 2.3 1 0 1.6-.5 1.8-1v-.1h1.1c-.2 1.2-1.3 2-2.9 2Zm-.1-6c-1 0-1.8.6-2 1.9h3.8c0-1.4-.8-2-1.8-2Zm4.2 6v-7h1.2v1.2c.2-.8.8-1.3 1.6-1.3h.5v1.2l-.6-.1c-1 0-1.5.6-1.5 1.7v4.3H111Zm6.8 0c-2 0-3.3-1.3-3.3-3.5s1.3-3.6 3.2-3.6 3 1.4 3 3.5v.4h-5c0 1.4.8 2.3 2 2.3 1 0 1.6-.5 1.8-1v-.1h1.1c-.2 1.2-1.3 2-2.9 2Zm-.1-6c-1 0-1.8.6-2 1.9h3.8c0-1.4-.8-2-1.8-2Zm9.3 6c-1.3 0-2-.5-2-1.8v-4.2h-1v-1h1V205h1.3v2h1.3v.9h-1.3v4.2c0 .7.3 1 1 1l.3-.1v1h-.6Zm4.5 0c-2 0-3.2-1.3-3.2-3.5s1.3-3.6 3.2-3.6c2 0 3.2 1.3 3.2 3.6 0 2.2-1.3 3.6-3.2 3.6Zm0-1c1.2 0 2-.9 2-2.5 0-1.7-.8-2.6-2-2.6s-2 1-2 2.6.8 2.6 2 2.6Zm9.6 1c-1.6 0-2.4-.9-2.4-2.5v-4.5h1.1v4.3c0 1.1.6 1.8 1.6 1.8 1.1 0 1.8-.8 1.8-2v-4h1.2v6.9h-1.2v-1c-.4.6-1 1-2.1 1Zm7.3 0c-1.7 0-2.7-.7-2.8-2h1.2c.1.7.6 1.1 1.6 1.1s1.5-.4 1.5-1c0-.5-.3-.8-1-1l-1.2-.3c-1.3-.3-2-.9-2-1.9 0-1.2 1.1-2 2.6-2 1.6 0 2.5.9 2.6 2v.1h-1c-.2-.7-.7-1.2-1.6-1.2-.8 0-1.3.4-1.3 1 0 .5.3.9 1 1l1.2.3c1.4.4 1.9 1 1.9 2 0 1.1-1.2 2-2.7 2Zm6.7 0c-2 0-3.2-1.3-3.2-3.5s1.3-3.6 3.2-3.6 3 1.4 3 3.5v.4h-5c0 1.4.8 2.3 2 2.3 1 0 1.6-.5 1.8-1v-.1h1.1c-.2 1.2-1.3 2-2.9 2Zm0-6c-1 0-1.8.6-2 1.9h3.8c0-1.4-.8-2-1.8-2Zm9.3 6c-1.3 0-2-.5-2-1.8v-4.2h-1v-1h1V205h1.2v2h1.4v.9h-1.4v4.2c0 .7.4 1 1 1l.4-.1v1h-.7Zm1.9 0V204h1.1v3.8c.4-.8 1.2-1.2 2.2-1.2 1.5 0 2.5 1.1 2.5 2.8v4.3h-1.1v-4c0-1.4-.7-2-1.8-2s-1.8.7-1.8 2v4h-1.1Zm10.1 0c-2 0-3.2-1.3-3.2-3.5s1.3-3.6 3.2-3.6 3 1.4 3 3.5v.4h-5c0 1.4.8 2.3 2 2.3 1 0 1.6-.5 1.8-1v-.1h1.1c-.2 1.2-1.3 2-2.8 2Zm0-6c-1 0-1.8.6-2 1.9h3.8c0-1.4-.8-2-1.8-2Zm9.3 6c-1.3 0-2-.5-2-1.8v-4.2h-1v-1h1V205h1.3v2h1.3v.9H185v4.2c0 .7.3 1 1 1l.3-.1v1h-.6Zm4.5 0c-2 0-3.2-1.3-3.2-3.5s1.3-3.6 3.2-3.6c2 0 3.2 1.3 3.2 3.6 0 2.2-1.3 3.6-3.2 3.6Zm0-1c1.2 0 2-.9 2-2.5 0-1.7-.8-2.6-2-2.6s-2 1-2 2.6.8 2.6 2 2.6Zm7.3 1c-2 0-3.2-1.3-3.2-3.5s1.3-3.6 3.2-3.6c1.9 0 3.2 1.3 3.2 3.6 0 2.2-1.3 3.6-3.2 3.6Zm0-1c1.2 0 2-.9 2-2.5 0-1.7-.8-2.6-2-2.6s-2 1-2 2.6.7 2.6 2 2.6Zm4.4 1V204h1.2v9.7H202Zm6 0v-6h-1v-1h1v-.8c0-1.4.5-2 1.8-2h.7v1a3.8 3.8 0 0 0-.5 0c-.6 0-1 .3-1 1v.8h1.5v1h-1.4v6h-1.2Zm6 0c-2 0-3.3-1.3-3.3-3.5s1.3-3.6 3.2-3.6c2 0 3.2 1.3 3.2 3.6 0 2.2-1.3 3.6-3.2 3.6Zm0-1c1.1 0 2-.9 2-2.5 0-1.7-.9-2.6-2-2.6-1.3 0-2.1 1-2.1 2.6s.8 2.6 2 2.6Zm4.3 1v-7h1.2v1.2c.2-.8.8-1.3 1.6-1.3h.5v1.2l-.6-.1c-1 0-1.5.6-1.5 1.7v4.3h-1.2ZM73.4 230.4v-7h1.2v1.2c.2-.8.8-1.3 1.6-1.3h.5v1.2l-.7-.1c-.9 0-1.5.6-1.5 1.7v4.3h-1.1Zm6.7.1c-2 0-3.2-1.4-3.2-3.6 0-2.1 1.3-3.6 3.2-3.6s3 1.4 3 3.5v.4h-5c0 1.5.8 2.3 2 2.3 1 0 1.6-.5 1.8-1v-.1H83c-.2 1.2-1.3 2.1-2.9 2.1Zm0-6.2c-1 0-1.8.7-2 2H82c0-1.3-.8-2-1.8-2Zm4.2 6v-6.9h1.2v1a2 2 0 0 1 1.9-1.1c1 0 1.6.5 2 1.3a2.3 2.3 0 0 1 2.1-1.3c1.4 0 2.3.9 2.3 2.3v4.8h-1.2v-4.6c0-1-.5-1.5-1.4-1.5-1 0-1.6.7-1.6 1.7v4.4h-1.1v-4.7c0-.8-.6-1.4-1.5-1.4s-1.5.7-1.5 1.7v4.4h-1.2Zm13.9.2c-2 0-3.3-1.4-3.3-3.6s1.3-3.6 3.3-3.6c1.9 0 3.2 1.4 3.2 3.6s-1.3 3.6-3.2 3.6Zm0-1c1.2 0 2-1 2-2.6s-.8-2.6-2-2.6-2 1-2 2.6.7 2.6 2 2.6Zm6 .9-2.5-7h1.2l2 5.7 1.9-5.7h1.2l-2.6 7h-1.2Zm5.3-8.2a.7.7 0 0 1 0-1.4c.5 0 .8.3.8.7 0 .4-.3.7-.8.7Zm-.5 8.2v-7h1.1v7H109Zm2.7 0v-7h1.2v1c.4-.6 1-1.1 2.1-1.1 1.6 0 2.4 1 2.4 2.6v4.5h-1.1V226c0-1.2-.5-1.8-1.6-1.8s-1.8.8-1.8 2v4h-1.2Zm10.2 2.4c-1.8 0-2.8-.8-3-1.8h1.1c.2.5.9.8 1.8.8 1.3 0 2-.7 2-1.7v-1a2.4 2.4 0 0 1-2.3 1.3c-1.7 0-3-1.4-3-3.5 0-2.2 1.3-3.6 3-3.6 1 0 1.8.5 2.2 1.3v-1.2h1.2v6.8c0 1.6-1.2 2.7-3 2.7Zm-.1-3.4c1.2 0 2-1 2-2.5 0-1.6-.8-2.6-2-2.6-1.3 0-2 1-2 2.5 0 1.6.7 2.6 2 2.6ZM73.4 247v-7h1.2v1c.3-.6 1-1 1.9-1 1 0 1.6.4 2 1.3a2.3 2.3 0 0 1 2.1-1.4c1.4 0 2.3 1 2.3 2.3v4.8h-1.2v-4.5c0-1-.5-1.5-1.4-1.5-1 0-1.6.6-1.6 1.6v4.4h-1.1v-4.7c0-.8-.6-1.4-1.4-1.4-1 0-1.6.8-1.6 1.7v4.4h-1.2Zm11.6-8.1a.7.7 0 0 1 0-1.5c.4 0 .8.3.8.7 0 .4-.3.8-.8.8Zm-.5 8.1v-7h1.1v7h-1.1Zm5.2.1c-1.7 0-2.7-.8-2.8-2v-.1h1.2c.1.8.6 1.2 1.6 1.2s1.5-.4 1.5-1-.3-.8-1-1l-1.2-.3c-1.3-.3-2-1-2-2 0-1.1 1.1-2 2.6-2 1.6 0 2.5 1 2.6 2v.2h-1v-.1c-.2-.7-.7-1.1-1.6-1.1-.8 0-1.3.4-1.3 1 0 .5.3.8 1 1l1.1.3c1.4.3 2 .9 2 1.9 0 1.2-1.2 2-2.7 2Zm6.3 0c-1.6 0-2.6-.8-2.7-2v-.1h1.1c.2.8.7 1.2 1.6 1.2 1 0 1.5-.4 1.5-1s-.2-.8-1-1l-1.1-.3c-1.3-.3-2-1-2-2 0-1.1 1.1-2 2.6-2s2.5 1 2.6 2v.2h-1.1v-.1c-.1-.7-.6-1.1-1.5-1.1-.8 0-1.4.4-1.4 1 0 .5.4.8 1.1 1l1.1.3c1.4.3 2 .9 2 1.9 0 1.2-1.2 2-2.8 2Zm6.8 0c-2 0-3.2-1.4-3.2-3.6 0-2.1 1.2-3.6 3.1-3.6s3 1.4 3 3.5v.4h-5c.1 1.5.9 2.3 2.1 2.3 1 0 1.5-.4 1.7-1h1.2c-.3 1.1-1.4 2-2.9 2Zm0-6.2c-1 0-1.9.7-2 2h3.8c-.1-1.3-.9-2-1.9-2Zm6.8 6.2c-1.8 0-3-1.4-3-3.6s1.2-3.6 3-3.6c1 0 1.7.5 2.2 1.3v-3.8h1.2v9.6h-1.2v-1.2c-.5.8-1.2 1.3-2.2 1.3Zm.2-1c1.2 0 2-1 2-2.6 0-1.5-.8-2.6-2-2.6s-2 1-2 2.6.8 2.6 2 2.6Zm9.6 1c-1.4 0-2.3-.8-2.3-2v-.1c0-1.2.9-2 2.5-2l2-.1v-.6c0-.9-.6-1.4-1.6-1.4-.9 0-1.4.5-1.6 1v.1h-1c0-1.2 1-2.1 2.6-2.1 1.7 0 2.7.9 2.7 2.3v4.8h-1.1v-1.2a2.5 2.5 0 0 1-2.2 1.3Zm-1.2-2c0 .6.6 1 1.4 1 1.1 0 2-.7 2-1.7v-.6l-1.9.1c-1 0-1.5.5-1.5 1.1Zm8.6 2c-1.8 0-3-1.4-3-3.6s1.3-3.6 3-3.6c1 0 1.8.5 2.2 1.3v-3.8h1.2v9.6H129v-1.2c-.4.8-1.2 1.3-2.2 1.3Zm.2-1c1.2 0 2-1 2-2.6 0-1.5-.8-2.6-2-2.6s-2 1-2 2.6.8 2.6 2 2.6Zm7.2 1c-1.6 0-2.6-.8-2.7-2v-.1h1.1c.2.8.7 1.2 1.6 1.2 1 0 1.5-.4 1.5-1s-.2-.8-1-1l-1.1-.3c-1.3-.3-2-1-2-2 0-1.1 1-2 2.6-2 1.5 0 2.5 1 2.6 2v.2h-1.1v-.1c-.1-.7-.6-1.1-1.5-1.1-.8 0-1.4.4-1.4 1 0 .5.4.8 1.1 1l1.1.3c1.4.3 2 .9 2 1.9 0 1.2-1.2 2-2.8 2Zm9.6 0c-2 0-3.2-1.4-3.2-3.6s1.3-3.6 3.2-3.6c2 0 3.2 1.4 3.2 3.6s-1.3 3.6-3.2 3.6Zm0-1c1.2 0 2-1 2-2.6s-.8-2.6-2-2.6-2 1-2 2.6c0 1.7.8 2.6 2 2.6Zm4.4 1v-7h1.2v1.1c.2-.8.8-1.3 1.6-1.3h.5v1.2h-.6c-1 0-1.5.6-1.5 1.6v4.3h-1.2Zm10 2.4c-1.7 0-2.8-.8-3-1.9h1.1c.2.5.9.8 1.9.8 1.2 0 1.9-.6 1.9-1.7v-.9a2.4 2.4 0 0 1-2.3 1.3c-1.7 0-3-1.4-3-3.6s1.3-3.6 3-3.6c1 0 1.8.5 2.2 1.3v-1.1h1.2v6.7c0 1.6-1.1 2.7-3 2.7Zm-.1-3.5c1.2 0 2-1 2-2.5 0-1.6-.8-2.6-2-2.6s-2 1-2 2.6.8 2.5 2 2.5Zm7.5 1.1c-2 0-3.2-1.4-3.2-3.6 0-2.1 1.2-3.6 3.1-3.6s3 1.4 3 3.5v.4h-5c0 1.5.9 2.3 2.1 2.3.9 0 1.5-.4 1.7-1h1.2c-.3 1.1-1.4 2-3 2Zm0-6.2c-1 0-1.9.7-2 2h3.8c-.1-1.3-.9-2-1.9-2Zm4.1 6.1v-7h1.2v1c.4-.6 1.1-1 2.2-1 1.5 0 2.4 1 2.4 2.5v4.5h-1.2v-4.3c0-1.1-.5-1.8-1.6-1.8-1 0-1.8.8-1.8 2v4.1h-1.2Zm10.1.1c-2 0-3.2-1.4-3.2-3.6 0-2.1 1.2-3.6 3.1-3.6s3 1.4 3 3.5v.4h-5c.1 1.5.9 2.3 2.1 2.3 1 0 1.5-.4 1.7-1h1.2c-.2 1.1-1.4 2-2.9 2Zm0-6.2c-1 0-1.9.7-2 2h3.8c-.1-1.3-.8-2-1.9-2Zm4.2 6.1v-7h1.1v1.2c.3-.8.9-1.3 1.7-1.3h.4v1.2h-.6c-.9 0-1.5.6-1.5 1.6v4.3H184Zm6 .1c-1.3 0-2.2-.8-2.2-2v-.1c0-1.2.9-2 2.5-2l2-.1v-.6c0-.9-.6-1.4-1.6-1.4-.8 0-1.4.5-1.5 1v.1H188c.1-1.2 1.1-2.1 2.8-2.1 1.6 0 2.6.9 2.6 2.3v4.8h-1.1v-1.2a2.5 2.5 0 0 1-2.2 1.3Zm-1-2c0 .6.5 1 1.3 1 1.1 0 2-.7 2-1.7v-.6l-1.9.1c-1 0-1.4.5-1.4 1.1Zm6 1.9v-9.6h1.1v9.6H195Zm2.8 0v-9.6h1.1v9.6h-1.1Zm3.4 2.3a5 5 0 0 1-.7 0v-1h.4c.7 0 1.2-.1 1.4-.9l.2-.4-2.6-7h1.2l2 5.8 2-5.8h1.1l-2.7 7.4c-.5 1.4-1 2-2.3 2Zm10.8-2.2c-1.4 0-2.3-.8-2.3-2v-.1c0-1.2.9-2 2.5-2l2-.1v-.6c0-.9-.6-1.4-1.5-1.4-1 0-1.5.5-1.6 1v.1h-1.2c.1-1.2 1.1-2.1 2.8-2.1 1.6 0 2.6.9 2.6 2.3v4.8h-1.1v-1.2a2.5 2.5 0 0 1-2.2 1.3Zm-1.1-2c0 .6.5 1 1.3 1 1.1 0 2-.7 2-1.7v-.6l-1.9.1c-1 0-1.4.5-1.4 1.1Zm6 1.9v-7h1v1h.1c.4-.6 1-1 2.1-1 1.6 0 2.4 1 2.4 2.5v4.5h-1.1v-4.3c0-1.1-.6-1.8-1.6-1.8-1.1 0-1.8.8-1.8 2v4.1h-1.2Zm7.8 2.3h-.6v-1h.3c.8 0 1.2-.1 1.5-.9l.1-.4-2.6-7h1.3l1.9 5.8 2-5.7h1.2l-2.8 7.3c-.5 1.4-1 2-2.3 2ZM76.3 263.7c-2 0-3.2-1.4-3.2-3.5 0-2.2 1.2-3.7 3-3.7s3.1 1.4 3.1 3.5v.5h-5c0 1.4.8 2.2 2 2.2 1 0 1.6-.4 1.8-1h1.1c-.2 1.1-1.3 2-2.8 2Zm-.1-6.1c-1 0-1.8.6-2 2H78c0-1.4-.8-2-1.8-2Zm4.3 6V254h1.1v9.6h-1.1Zm5.6.1c-2 0-3.2-1.4-3.2-3.5 0-2.2 1.2-3.7 3-3.7 2 0 3.1 1.4 3.1 3.5v.5h-5c0 1.4.9 2.2 2 2.2 1 0 1.6-.4 1.8-1H89c-.3 1.1-1.4 2-3 2Zm-.1-6.1c-1 0-1.8.6-2 2h3.8c0-1.4-.8-2-1.8-2Zm4.2 6v-7h1.2v1a2 2 0 0 1 1.9-1c1 0 1.7.4 2 1.3a2.3 2.3 0 0 1 2.2-1.4c1.3 0 2.2 1 2.2 2.3v4.8h-1.1v-4.5c0-1-.6-1.5-1.5-1.5-1 0-1.6.6-1.6 1.6v4.4h-1.1V259c0-.9-.6-1.4-1.4-1.4-1 0-1.6.7-1.6 1.7v4.3h-1.2Zm13.9.1c-2 0-3.2-1.4-3.2-3.5 0-2.2 1.2-3.7 3-3.7 2 0 3.1 1.4 3.1 3.5v.5h-5c0 1.4.9 2.2 2 2.2 1 0 1.6-.4 1.8-1h1.2c-.3 1.1-1.4 2-3 2Zm-.1-6.1c-1 0-1.8.6-2 2h3.8c0-1.4-.8-2-1.8-2Zm4.2 6v-7h1.2v1c.4-.6 1-1 2.1-1 1.6 0 2.4 1 2.4 2.5v4.5h-1.1v-4.3c0-1.1-.5-1.8-1.6-1.8s-1.8.8-1.8 2v4.1h-1.2Zm9.5.1c-1.3 0-2-.5-2-1.9v-4.2h-1v-1h1v-1.8h1.3v1.9h1.3v1H117v4.1c0 .8.3 1 1 1h.3v.9a5 5 0 0 1-.6 0ZM74 282.6h-.7v-1h.4c.7 0 1.2-.2 1.4-1l.2-.4-2.6-7H74l2 5.9 2-5.8H79l-2.7 7.4c-.5 1.3-1 1.9-2.3 1.9Zm8.6-2.2c-2 0-3.3-1.4-3.3-3.6 0-2.3 1.3-3.7 3.2-3.7 2 0 3.3 1.4 3.3 3.6 0 2.3-1.3 3.7-3.2 3.7Zm0-1c1.2 0 2-1 2-2.6 0-1.7-.8-2.6-2-2.6-1.3 0-2 1-2 2.5 0 1.7.7 2.6 2 2.6Zm6.7 1c-1.5 0-2.4-1-2.4-2.6v-4.5h1.2v4.3c0 1.1.5 1.7 1.6 1.7 1 0 1.8-.7 1.8-2v-4h1.1v7h-1.1v-1c-.4.6-1.1 1-2.2 1Zm10.3 0c-1.8 0-3-1.5-3-3.6 0-2.3 1.2-3.7 3-3.7 1 0 1.7.5 2.2 1.3v-3.8h1.2v9.6h-1.2V279c-.5.8-1.2 1.3-2.2 1.3Zm.2-1c1.2 0 2-1 2-2.6s-.8-2.6-2-2.6-2 1-2 2.5c0 1.6.8 2.6 2 2.6Zm7.6 1c-2 0-3.2-1.4-3.2-3.6 0-2.3 1.3-3.7 3.2-3.7 2 0 3.2 1.4 3.2 3.6 0 2.3-1.3 3.7-3.2 3.7Zm0-1c1.2 0 2-1 2-2.6 0-1.7-.8-2.6-2-2.6s-2 1-2 2.5c0 1.7.8 2.6 2 2.6Zm4.4.8v-7h1.2v1c.4-.6 1-1 2.1-1 1.5 0 2.4 1 2.4 2.5v4.5h-1.1V276c0-1.1-.6-1.7-1.6-1.7-1.1 0-1.8.8-1.8 2v4h-1.2Zm7.5-6.2-.1-3.4h1v3.4h-.9Zm5.2 6.4c-1.3 0-2-.6-2-2v-4.2h-1v-1h1v-1.8h1.3v1.9h1.3v1h-1.3v4.1c0 .8.3 1 1 1h.3v1a5 5 0 0 1-.6 0Zm6-.2-2-7h1.2l1.4 5.7 1.6-5.6h1.1l1.6 5.6 1.4-5.6h1.2l-2 7H135l-1.6-5.5-1.6 5.4h-1.2Zm10.3.2c-1.4 0-2.3-.9-2.3-2.1 0-1.2 1-2 2.5-2l2-.2v-.6c0-.8-.5-1.3-1.5-1.3-.9 0-1.5.4-1.6 1h-1.1c0-1.1 1-2 2.7-2 1.6 0 2.7.8 2.7 2.2v4.8H143v-1.1a2.5 2.5 0 0 1-2.2 1.3Zm-1.1-2.1c0 .6.6 1 1.4 1 1 0 2-.7 2-1.7v-.6l-2 .1c-.9 0-1.4.5-1.4 1.1Zm6 2v-7h1.1v1c.4-.7 1.1-1.2 2.2-1.2 1.5 0 2.4 1 2.4 2.6v4.5h-1.2V276c0-1.1-.5-1.7-1.6-1.7-1 0-1.8.7-1.8 2v4h-1.1Zm9.4 0c-1.2 0-1.9-.5-1.9-1.8v-4.3h-1v-1h1v-1.8h1.2v1.9h1.3v1h-1.3v4.1c0 .8.4 1 1 1h.3v1a5 5 0 0 1-.6 0Zm7 0c-1.3 0-2-.5-2-1.8v-4.3h-1v-1h1v-1.8h1.3v1.9h1.3v1h-1.3v4.1c0 .8.3 1 .9 1h.4v1a5 5 0 0 1-.6 0Zm4.5 0c-2 0-3.2-1.3-3.2-3.6 0-2.2 1.3-3.6 3.2-3.6 2 0 3.2 1.4 3.2 3.6 0 2.3-1.3 3.7-3.2 3.7Zm0-1c1.2 0 2-1 2-2.6s-.8-2.5-2-2.5-2 1-2 2.5c0 1.7.8 2.6 2 2.6Zm9.7 1c-1.7 0-2.7-.8-2.8-2h1.2c.1.7.6 1 1.6 1s1.5-.3 1.5-1c0-.4-.3-.7-1-1l-1.2-.2c-1.3-.3-2-1-2-2 0-1.1 1.1-2 2.6-2s2.5 1 2.6 2v.2h-1.1c-.1-.7-.6-1.2-1.5-1.2-.8 0-1.3.4-1.3 1 0 .5.3.8 1 1l1.1.3c1.4.3 2 .9 2 1.9 0 1.2-1.2 2-2.7 2Zm6.7 0c-2 0-3.2-1.3-3.2-3.5s1.3-3.7 3.2-3.7 3 1.4 3 3.5v.5h-5c0 1.4.8 2.2 2 2.2 1 0 1.6-.4 1.8-1h1.1c-.2 1.1-1.4 2-2.9 2Zm0-6.1c-1 0-1.9.7-2 2h3.8c0-1.4-.8-2-1.9-2Zm7 6.2c-2 0-3.2-1.4-3.2-3.6s1.3-3.7 3.2-3.7c1.9 0 3 1.4 3 3.5v.5h-5c0 1.4.8 2.2 2 2.2 1 0 1.6-.4 1.8-1h1.1c-.2 1.1-1.3 2-2.9 2Zm0-6.2c-1 0-1.9.7-2 2h3.8c0-1.4-.8-2-1.8-2Zm9.9 6.2c-2 0-3.3-1.4-3.3-3.7 0-2.2 1.3-3.6 3.3-3.6 1.9 0 3.2 1.4 3.2 3.6 0 2.3-1.3 3.7-3.2 3.7Zm0-1c1.2 0 2-1 2-2.6 0-1.7-.8-2.6-2-2.6s-2 1-2 2.5c0 1.7.7 2.6 2 2.6Zm4.3.8v-7h1.2v1c.4-.6 1.1-1 2.2-1 1.5 0 2.4 1 2.4 2.5v4.5h-1.2V276c0-1.1-.5-1.7-1.6-1.7-1 0-1.8.7-1.8 2v4h-1.2Zm12.3.2c-1.3 0-1.9-.6-1.9-2v-4.2h-1v-1h1v-1.8h1.2v1.9h1.3v1H216v4.1c0 .8.3 1 1 1h.3v1a5 5 0 0 1-.6 0Zm2-.2v-9.6h1.1v3.8c.4-.8 1.2-1.3 2.2-1.3 1.5 0 2.5 1.2 2.5 2.9v4.2h-1.2v-4c0-1.3-.6-2-1.7-2s-1.8.8-1.8 2v4h-1.1Zm10.1.2c-2 0-3.2-1.4-3.2-3.6s1.2-3.7 3.1-3.7 3.1 1.4 3.1 3.5v.5h-5c0 1.4.8 2.2 2 2.2 1 0 1.6-.4 1.8-1h1.1c-.2 1.1-1.4 2-2.9 2Zm0-6.2c-1 0-1.9.7-2 2h3.8c0-1.4-.8-2-1.9-2Zm-155.3 25v-9.3h1.2v1.2c.4-.8 1.2-1.3 2.2-1.3 1.8 0 3 1.4 3 3.6s-1.3 3.6-3 3.6c-1 0-1.8-.5-2.2-1.3v3.5h-1.2Zm3.2-3.3c1.2 0 2-1 2-2.5 0-1.6-.8-2.6-2-2.6s-2 1-2 2.6c0 1.5.8 2.5 2 2.5Zm6.3 1c-1.3 0-2.3-.8-2.3-2s1-2 2.5-2l2-.2v-.6c0-.8-.5-1.3-1.5-1.3-.9 0-1.4.4-1.6 1H81c.1-1.1 1.1-2 2.7-2 1.7 0 2.7.8 2.7 2.2v4.8h-1.2v-1A2.5 2.5 0 0 1 83 297Zm-1-2c0 .6.5 1 1.3 1 1.1 0 2-.7 2-1.7v-.6l-2 .1c-.8.1-1.4.5-1.4 1.2Zm8.8 4.4c-1.7 0-2.8-.8-3-1.8h1.1c.3.5 1 .8 1.9.8 1.2 0 2-.7 2-1.8v-.9h-.1a2.4 2.4 0 0 1-2.2 1.3c-1.8 0-3-1.4-3-3.6 0-2.1 1.2-3.5 3-3.5 1 0 1.8.5 2.2 1.3v-1.2h1.2v6.7c0 1.6-1.2 2.7-3 2.7Zm0-3.4c1.1 0 2-1 2-2.6 0-1.5-.9-2.5-2-2.5-1.3 0-2 1-2 2.5 0 1.6.7 2.6 2 2.6Zm7.4 1c-2 0-3.2-1.3-3.2-3.5s1.3-3.6 3.2-3.6 3 1.4 3 3.5v.4h-5c0 1.4.8 2.2 2 2.2 1 0 1.6-.4 1.8-1h1.1c-.2 1.2-1.3 2-2.9 2Zm0-6.1c-1 0-1.8.7-2 2h3.8c0-1.4-.8-2-1.8-2Z"/><path fill="#fff" d="M330.5 317.4H17.9v70.3h312.6v-70.3Z"/><path stroke="#888" stroke-linecap="round" stroke-linejoin="round" stroke-width="1.5" d="m288.5 358.4 5.9-5.8-6-6"/><path stroke="#67B279" stroke-linecap="round" stroke-linejoin="round" d="M38.3 345h14c1 0 1.8.7 1.8 1.6v9.4c0 1-.8 1.7-1.8 1.7h-9l-2.5 2.6a.9.9 0 0 1-1.3 0 .8.8 0 0 1-.3-.6v-2h-1c-1 0-1.7-.8-1.7-1.7v-9.4c0-.9.8-1.7 1.7-1.7Z" clip-rule="evenodd"/><path stroke="#67B279" stroke-linecap="round" stroke-linejoin="round" d="M39.4 348.6h5.9m3 0h1.9m-10.8 4h5.9m3 0h1.9"/><path fill="#4D4D4D" d="M73.7 348.6v-11h4.1c2.2 0 3.5 1.3 3.5 3.3 0 1.6-.8 2.7-2.2 3.2l2.6 4.5H80l-2.4-4.3h-2.6v4.3h-1.4Zm1.4-5.5h2.6c1.4 0 2.2-.8 2.2-2.2 0-1.3-.8-2-2.2-2H75v4.2Zm11 5.7c-2.2 0-3.6-1.6-3.6-4.1 0-2.5 1.4-4.1 3.6-4.1 2.1 0 3.4 1.6 3.4 4v.4h-5.7c0 1.7 1 2.6 2.4 2.6 1 0 1.7-.5 2-1.2h1.2c-.2 1.4-1.5 2.4-3.3 2.4Zm0-7c-1.2 0-2.1.7-2.2 2.2h4.3c-.1-1.5-1-2.3-2.1-2.3Zm4.8 9.5v-10.6h1.3v1.3c.5-.9 1.4-1.5 2.6-1.5 2 0 3.3 1.7 3.3 4.2s-1.3 4-3.3 4a2.8 2.8 0 0 1-2.5-1.4v4h-1.4Zm3.6-3.7c1.4 0 2.3-1.1 2.3-3 0-1.7-.9-2.9-2.3-2.9-1.3 0-2.3 1.2-2.3 3s1 3 2.3 3Zm8.3 1.2c-2.2 0-3.7-1.6-3.7-4.1 0-2.6 1.5-4.1 3.7-4.1s3.6 1.5 3.6 4c0 2.6-1.4 4.2-3.6 4.2Zm0-1.2c1.4 0 2.3-1 2.3-3 0-1.8-1-2.9-2.3-2.9-1.4 0-2.3 1.1-2.3 3 0 1.8.9 3 2.3 3Zm5 1v-7.9h1.3v1.3c.3-.9 1-1.5 1.9-1.5l.5.1v1.3h-.7c-1 0-1.7.6-1.7 1.8v5h-1.3Zm7.8.2c-1.5 0-2.2-.7-2.2-2.2v-4.8h-1.2v-1.1h1.2v-2.1h1.4v2.1h1.5v1.1h-1.5v4.8c0 .9.3 1 1 1h.5v1.1h-.7Zm7.6 0c-1.6 0-2.6-1-2.6-2.4s1-2.2 2.9-2.3l2.2-.1v-.7c0-1-.6-1.6-1.7-1.6-1 0-1.7.5-1.8 1.2h-1.3c.1-1.3 1.2-2.3 3.1-2.3 1.9 0 3 1 3 2.5v5.6h-1.3v-1.3a2.8 2.8 0 0 1-2.5 1.4Zm-1.3-2.4c0 .8.7 1.2 1.6 1.2 1.3 0 2.2-.8 2.2-2v-.6l-2 .1c-1.2 0-1.8.5-1.8 1.3Zm6.8 2.2v-7.9h1.4v1.1c.4-.7 1.2-1.2 2.5-1.2 1.7 0 2.7 1 2.7 2.9v5.1H134v-4.9c0-1.3-.6-2-1.9-2-1.2 0-2 1-2 2.3v4.6h-1.3Zm12.3-9.2a.8.8 0 0 1 0-1.7c.4 0 .8.4.8.8 0 .5-.4.9-.9.9Zm-.7 9.2v-7.9h1.3v8h-1.3Zm6 .2c-2 0-3-1-3.2-2.4h1.3c.2.8.8 1.3 1.8 1.3 1.1 0 1.8-.5 1.8-1.2 0-.6-.3-.9-1.2-1.1l-1.3-.3c-1.5-.4-2.2-1-2.2-2.2 0-1.4 1.2-2.3 2.9-2.3s2.8 1 3 2.3h-1.3c-.1-.7-.7-1.2-1.7-1.2s-1.6.4-1.6 1.1c0 .6.4 1 1.3 1.2l1.2.3c1.6.4 2.2 1 2.2 2.1 0 1.4-1.3 2.4-3 2.4Zm7.2 0c-1.9 0-3-1-3.2-2.4h1.4c.2.8.7 1.3 1.8 1.3 1 0 1.7-.5 1.7-1.2 0-.6-.3-.9-1.2-1.1l-1.2-.3c-1.5-.4-2.2-1-2.2-2.2 0-1.4 1.2-2.3 2.9-2.3s2.8 1 3 2.3h-1.3c-.2-.7-.7-1.2-1.7-1.2s-1.6.4-1.6 1.1c0 .6.4 1 1.3 1.2l1.2.3c1.6.4 2.2 1 2.2 2.1 0 1.4-1.3 2.4-3 2.4Zm7.2 0c-1.8 0-2.8-1.1-2.8-3v-5.1h1.4v5c0 1.2.6 2 1.8 2 1.2 0 2-1 2-2.3v-4.7h1.4v8h-1.3v-1.2c-.5.8-1.3 1.3-2.5 1.3Zm8.8 0c-2.3 0-3.7-1.6-3.7-4.1 0-2.5 1.4-4.1 3.6-4.1s3.5 1.6 3.5 4v.4h-5.7c0 1.7.9 2.6 2.3 2.6 1 0 1.7-.5 2-1.2h1.3c-.3 1.4-1.6 2.4-3.3 2.4Zm-.1-7c-1.2 0-2 .7-2.2 2.2h4.3c-.1-1.5-1-2.3-2.1-2.3Zm11.3 7c-2.2 0-3.7-1.6-3.7-4.1 0-2.6 1.5-4.1 3.7-4.1s3.7 1.5 3.7 4c0 2.6-1.5 4.2-3.7 4.2Zm0-1.2c1.4 0 2.3-1 2.3-3 0-1.8-.9-2.9-2.3-2.9s-2.3 1.1-2.3 3c0 1.8 1 3 2.3 3Zm5 1v-7.9h1.4v1.1c.4-.7 1.2-1.3 2.4-1.3 1.8 0 2.8 1.2 2.8 3v5.1h-1.4v-4.9c0-1.3-.6-2-1.8-2-1.2 0-2 1-2 2.3v4.6h-1.4Zm14 .2c-1.4 0-2.1-.7-2.1-2.2v-4.8h-1.2v-1.1h1.2v-2.1h1.4v2.1h1.5v1.1H199v4.8c0 .9.3 1 1 1h.5v1.1h-.7Zm2.3-.2v-11h1.3v4.4c.5-1 1.3-1.4 2.5-1.4 1.7 0 2.8 1.2 2.8 3.2v4.8h-1.3V344c0-1.4-.7-2.3-2-2.3s-2 1-2 2.3v4.6H202Zm9-9.2a.8.8 0 0 1-.8-.9.8.8 0 1 1 1.7 0c0 .5-.4.9-.8.9Zm-.6 9.2v-7.9h1.3v8h-1.3Zm6 .2c-2 0-3-1-3.2-2.4h1.3c.2.8.8 1.3 1.9 1.3s1.7-.5 1.7-1.2c0-.6-.3-.9-1.2-1.1l-1.3-.3c-1.5-.4-2.2-1-2.2-2.2 0-1.4 1.2-2.4 3-2.4 1.7 0 2.8 1 2.9 2.4H218c-.1-.7-.7-1.3-1.7-1.3s-1.5.5-1.5 1.2c0 .6.3 1 1.2 1.2l1.3.3c1.6.4 2.1 1 2.1 2.1 0 1.4-1.3 2.4-3 2.4Zm7.6 2.5v-10.6h1.4v1.3c.5-.9 1.4-1.5 2.5-1.5 2 0 3.4 1.7 3.4 4.2s-1.4 4-3.4 4a2.8 2.8 0 0 1-2.5-1.4v4H224Zm3.6-3.7c1.4 0 2.3-1.1 2.3-3 0-1.8-.8-2.9-2.3-2.9-1.3 0-2.3 1.2-2.3 3 0 1.7 1 3 2.3 3Zm7.3 1.2c-1.5 0-2.6-1-2.6-2.4s1-2.2 2.9-2.3l2.3-.2v-.6c0-1-.7-1.6-1.8-1.6-1 0-1.7.5-1.8 1.2h-1.3c.1-1.3 1.3-2.4 3.1-2.4 1.9 0 3 1 3 2.6v5.5h-1.2v-1.3a2.8 2.8 0 0 1-2.6 1.5Zm-1.2-2.4c0 .8.6 1.2 1.5 1.2 1.3 0 2.3-.8 2.3-2v-.6l-2.2.1c-1 0-1.6.5-1.6 1.3Zm10.1 5c-2 0-3.2-.9-3.4-2v-.1h1.3c.3.6 1 1 2.1 1 1.4 0 2.2-.8 2.2-2v-1a2.8 2.8 0 0 1-2.6 1.4c-2 0-3.3-1.6-3.3-4 0-2.6 1.4-4.2 3.4-4.2 1 0 2 .6 2.5 1.5v-1.3h1.3v7.7c0 1.9-1.3 3-3.5 3Zm0-3.9c1.3 0 2.2-1.1 2.2-2.9 0-1.7-1-2.9-2.3-2.9-1.4 0-2.3 1.1-2.3 3 0 1.7 1 2.8 2.3 2.8Zm8.5 1.3c-2.3 0-3.6-1.6-3.6-4.1 0-2.5 1.4-4.2 3.5-4.2s3.5 1.7 3.5 4v.5H250c0 1.7 1 2.6 2.3 2.6 1 0 1.8-.5 2-1.2h1.3c-.3 1.4-1.6 2.4-3.3 2.4Zm0-7c-1.2 0-2.1.7-2.3 2.2h4.4c-.2-1.6-1-2.3-2.2-2.3Z"/><path fill="#888" d="M77.6 367.4c-2.7 0-4.4-2-4.4-5s1.7-5 4.4-5c2 0 3.6 1.2 4 3v.1h-1.3v-.1c-.4-1.2-1.3-1.9-2.7-1.9-2 0-3.2 1.5-3.2 3.9 0 2.3 1.3 3.9 3.2 3.9 1.4 0 2.3-.7 2.7-2h1.2c-.3 1.9-1.9 3-3.9 3Zm8 0c-1.9 0-3.2-1.4-3.2-3.7 0-2.2 1.3-3.6 3.3-3.6 1.9 0 3.2 1.4 3.2 3.6 0 2.3-1.3 3.7-3.2 3.7Zm0-1c1.3 0 2-1 2-2.7 0-1.6-.7-2.5-2-2.5-1.1 0-2 .9-2 2.5 0 1.7.8 2.6 2 2.6Zm4.5.8v-7h1.1v1c.4-.6 1.1-1 2.2-1 1.5 0 2.4 1 2.4 2.5v4.5h-1.2V363c0-1.1-.5-1.7-1.6-1.7-1 0-1.8.7-1.8 2v4H90Zm9.4.2c-1.3 0-1.9-.6-1.9-2v-4.2h-1v-1h1v-1.8h1.2v1.9h1.3v1h-1.3v4.1c0 .8.3 1 1 1h.3v.9a5 5 0 0 1-.6 0Zm3.8 0c-1.4 0-2.3-.9-2.3-2.1 0-1.3.9-2 2.5-2l2-.2v-.6c0-.8-.6-1.3-1.5-1.3-1 0-1.5.4-1.6 1h-1.2c.1-1.1 1.1-2 2.8-2 1.6 0 2.6.8 2.6 2.2v4.8h-1.1v-1.1a2.5 2.5 0 0 1-2.2 1.3Zm-1.1-2.1c0 .6.5 1 1.3 1 1.1 0 2-.7 2-1.7v-.6l-1.9.1c-1 0-1.4.5-1.4 1.1Zm8.8 2c-2 0-3.2-1.3-3.2-3.6 0-2.2 1.3-3.6 3.2-3.6 1.7 0 2.7 1.2 2.9 2.4h-1.1c-.2-.7-.8-1.3-1.8-1.3-1.2 0-2 1-2 2.5 0 1.7.8 2.6 2 2.6 1 0 1.6-.5 1.7-1.3h1.2a2.8 2.8 0 0 1-2.9 2.3Zm6.2 0c-1.3 0-1.9-.5-1.9-1.8v-4.3h-1v-1h1v-1.8h1.2v1.9h1.3v1h-1.3v4.1c0 .8.3 1 1 1h.3v.9h-.6Zm7.2 0c-1.7 0-2.7-.8-2.8-2h1.1c.2.7.7 1 1.7 1s1.5-.3 1.5-1c0-.4-.3-.7-1-1l-1.2-.2c-1.3-.3-2-1-2-2 0-1.1 1.1-2 2.6-2s2.5 1 2.6 2v.2h-1.1c-.1-.7-.6-1.2-1.5-1.2-.8 0-1.3.4-1.3 1 0 .5.3.8 1 1l1.1.3c1.4.3 2 .9 2 1.9 0 1.2-1.2 2-2.7 2Zm6.2 0c-1.5 0-2.4-1-2.4-2.5v-4.5h1.2v4.3c0 1.1.5 1.7 1.6 1.7 1 0 1.8-.8 1.8-2v-4h1.2v7h-1.2v-1c-.4.6-1.1 1-2.2 1Zm4.9 2.3v-9.3h1.1v1.1c.5-.8 1.3-1.3 2.3-1.3 1.7 0 3 1.4 3 3.6s-1.3 3.6-3 3.6c-1 0-1.8-.4-2.2-1.2v3.4h-1.2Zm3.1-3.3c1.3 0 2-1 2-2.6s-.7-2.5-2-2.5c-1.1 0-2 1-2 2.5s.9 2.6 2 2.6Zm4.4 3.2v-9.2h1.2v1.1c.4-.8 1.2-1.3 2.2-1.3 1.8 0 3 1.4 3 3.6s-1.3 3.6-3 3.6c-1 0-1.8-.4-2.2-1.2v3.4H143Zm3.2-3.2c1.2 0 2-1 2-2.6s-.8-2.5-2-2.5-2 1-2 2.5.8 2.6 2 2.6Zm7.2 1c-2 0-3.2-1.4-3.2-3.6s1.3-3.6 3.2-3.6c1.9 0 3.2 1.4 3.2 3.6 0 2.3-1.3 3.6-3.2 3.6Zm0-1c1.2 0 2-1 2-2.6s-.8-2.5-2-2.5-2 .9-2 2.5c0 1.7.8 2.6 2 2.6Zm4.4 1v-7h1.1v1.1c.3-.8.9-1.3 1.7-1.3h.4v1.2a2 2 0 0 0-.6 0c-.9 0-1.5.6-1.5 1.6v4.3h-1.1Zm6.8 0c-1.3 0-2-.5-2-1.9v-4.2h-1v-1h1v-1.8h1.3v1.9h1.3v1H164v4.1c0 .8.3 1 1 1h.3v.9a5 5 0 0 1-.6 0Z"/><path fill="#4D4D4D" d="m137.8 67.2 5.1-13.8h1.7l5.1 13.8H148l-1.4-4H141l-1.4 4h-1.8Zm6-11.8-2.3 6.3h4.5l-2.2-6.3Zm10.8 12c-2.5 0-4.2-2-4.2-5.2 0-3.1 1.7-5.2 4.2-5.2 1.4 0 2.5.7 3.1 1.9v-5.5h1.7v13.8h-1.6v-1.7a3.5 3.5 0 0 1-3.2 1.8Zm.3-1.5c1.7 0 2.9-1.5 2.9-3.7s-1.2-3.7-2.9-3.7-2.8 1.4-2.8 3.7c0 2.3 1 3.7 2.8 3.7Zm12.8 1.5c-3.8 0-6.3-2.8-6.3-7.2 0-4.3 2.5-7 6.3-7 3.2 0 5 1.8 5.7 4.2v.2h-1.7v-.1a4 4 0 0 0-4-2.8c-2.8 0-4.5 2-4.5 5.5s1.7 5.6 4.5 5.6c2.5 0 4.1-1.6 4.1-3.9v-.2H168v-1.5h5.6v1.3c0 3.7-2.1 5.9-5.8 5.9Zm11.2 0c-2.2 0-3.5-1.5-3.5-3.7v-6.5h1.7v6.2c0 1.6.8 2.5 2.3 2.5 1.5 0 2.6-1.2 2.6-2.8v-5.9h1.6v10H182v-1.5c-.6 1-1.6 1.6-3.1 1.6Zm9.8 0c-2 0-3.3-1.3-3.3-3 0-1.8 1.3-2.8 3.6-3l2.8-.1v-.8c0-1.3-.8-2-2.2-2-1.2 0-2 .6-2.2 1.5h-1.6c.1-1.6 1.5-3 3.9-3 2.3 0 3.8 1.3 3.8 3.3v6.9h-1.7v-1.7a3.5 3.5 0 0 1-3.1 1.8Zm-1.6-3c0 .9.8 1.5 2 1.5 1.5 0 2.7-1 2.7-2.5v-.8l-2.6.1c-1.3.1-2.1.7-2.1 1.6Zm8.5 2.7v-9.9h1.7V59c.3-1.1 1.2-1.9 2.3-1.9l.7.1v1.6h-1c-1.2 0-2 .8-2 2.3v6.2h-1.7Zm9.3.3c-2.6 0-4.2-2-4.2-5.2 0-3.1 1.7-5.2 4.2-5.2 1.3 0 2.5.7 3.1 1.9v-5.5h1.7v13.8h-1.6v-1.7a3.5 3.5 0 0 1-3.2 1.8Zm.3-1.5c1.7 0 2.9-1.5 2.9-3.7s-1.2-3.7-2.9-3.7c-1.8 0-2.8 1.4-2.8 3.7 0 2.3 1 3.7 2.8 3.7Z" opacity=".9"/></g></g><path fill="#fff" d="M30.1 36.5a9.6 9.6 0 0 1 9.7-8.8l271 1.5a8.9 8.9 0 0 1 0 17.7H39.6a9.6 9.6 0 0 1-9.6-10.4Z"/><path fill="#D8D8D8" fill-rule="evenodd" d="M205.7 30.4a5.8 5.8 0 1 0 0-11.5 5.8 5.8 0 0 0 0 11.5Z" clip-rule="evenodd"/><path fill="#D8D8D8" fill-rule="evenodd" d="M205.7 28.3a3.6 3.6 0 1 0 0-7.2 3.6 3.6 0 0 0 0 7.2Z" clip-rule="evenodd"/><path fill="#D8D8D8" fill-rule="evenodd" d="M205.7 24a.7.7 0 1 0 0-1.5.7.7 0 0 0 0 1.4Z" clip-rule="evenodd" opacity=".4"/><path fill="#D8D8D8" fill-rule="evenodd" d="M156.3 24.7c0-1.4 1.1-2.5 2.5-2.5h30.4a2.5 2.5 0 1 1 0 5h-30.4a2.5 2.5 0 0 1-2.5-2.5Z" clip-rule="evenodd"/></g></g><defs><clipPath id="a"><path fill="#fff" d="M0 0h348v480H0z"/></clipPath><clipPath id="c"><rect width="312.6" height="619.7" x="17.9" y="16.3" fill="#fff" rx="20"/></clipPath></defs></svg>