<svg xmlns="http://www.w3.org/2000/svg" width="348" height="480" fill="none"><g clip-path="url(#a)"><path fill="#D8D8D8" d="M345.5 197.3h1.3c.6 0 1.2.6 1.2 1.3v74c0 .7-.6 1.2-1.2 1.2h-1.3v-76.5Zm-343 93H1.2c-.7 0-1.2-.6-1.2-1.3v-46c0-.7.6-1.3 1.2-1.3h1.3v48.6Zm0-61.7H1.2c-.7 0-1.2-.6-1.2-1.2v-46c0-.8.6-1.3 1.2-1.3h1.3v48.5Zm0-69.9H1.2c-.7 0-1.2-.6-1.2-1.2v-20.6c0-.7.6-1.2 1.2-1.2h1.3v23ZM2.5 74.8C2.5 55 2.5 45 5 37A53.5 53.5 0 0 1 39.4 2.6c8-2.6 18-2.6 38-2.6h193.3c19.9 0 29.8 0 37.9 2.6A53.5 53.5 0 0 1 342.9 37c2.6 8 2.6 18 2.6 38v555.8c0 19.9 0 29.8-2.6 37.9a53.5 53.5 0 0 1-34.3 34.3c-8 2.6-18 2.6-38 2.6H77.4c-19.9 0-29.8 0-37.9-2.6a53.5 53.5 0 0 1-34.3-34.3c-2.6-8-2.6-18-2.6-38V74.9Z"/><path fill="#D8D8D8" fill-rule="evenodd" d="M271 1.6H77c-19.7 0-29.3 0-37 2.6A51.8 51.8 0 0 0 6.5 37.4c-2.5 7.8-2.5 17.4-2.5 37.1V631c0 19.7 0 29.3 2.6 37a51.8 51.8 0 0 0 33.2 33.3c7.8 2.5 17.4 2.6 37.1 2.6h194c19.7 0 29.3 0 37-2.6a51.8 51.8 0 0 0 33.3-33.2c2.6-7.8 2.6-17.4 2.6-37V74.4c0-19.7 0-29.3-2.5-37A51.8 51.8 0 0 0 308 4.1c-7.8-2.6-17.4-2.6-37.1-2.6ZM5.9 37.2c-2.6 7.9-2.6 17.7-2.6 37.3V631c0 19.6 0 29.4 2.6 37.3a52.6 52.6 0 0 0 33.8 33.8c7.9 2.6 17.7 2.6 37.3 2.6h194c19.6 0 29.4 0 37.3-2.6a52.6 52.6 0 0 0 33.8-33.8c2.6-8 2.6-17.7 2.6-37.3V74.5c0-19.6 0-29.4-2.6-37.3a52.6 52.6 0 0 0-33.8-33.8C300.4.8 290.6.8 271 .8H77C57.4.8 47.6.8 39.7 3.4A52.6 52.6 0 0 0 5.9 37.2Z" clip-rule="evenodd"/><path fill="#F3F3F3" d="M6.6 73.2c0-18.4 0-27.6 2.4-35A49.4 49.4 0 0 1 40.7 6.5c7.4-2.4 16.6-2.4 35-2.4h196.6c18.4 0 27.6 0 35 2.4A49.4 49.4 0 0 1 339 38.2c2.4 7.4 2.4 16.6 2.4 35v559.1c0 18.4 0 27.6-2.4 35a49.3 49.3 0 0 1-31.7 31.7c-7.4 2.4-16.6 2.4-35 2.4H75.7c-18.4 0-27.6 0-35-2.4A49.4 49.4 0 0 1 9 667.3c-2.4-7.4-2.4-16.6-2.4-35V73.2Z"/><path fill="#D8D8D8" d="M272.3 0h5v4.1h-5V0Zm69.1 70.7h4.1v5h-4v-5Zm-339 0h4.2v5H2.5v-5Z"/><mask id="b" width="312" height="675" x="18" y="15" maskUnits="userSpaceOnUse" style="mask-type:alpha"><path fill="#fff" d="M97.9 24.1c0 8.5 7 15.4 15.6 15.4h121c8.5 0 15.6-7 15.6-15.4v-4.2a4.2 4.2 0 0 1 4.1-4.3h18.9c16.9 0 25.4 0 32 2.6a38.7 38.7 0 0 1 22.2 22.1c2.6 6.8 2.6 15.2 2.6 32.1v560.7c0 16.9 0 25.3-2.6 32a38.6 38.6 0 0 1-22.1 22.2c-6.7 2.6-15.2 2.6-32.1 2.6H74.9c-16.9 0-25.4 0-32-2.6a38.6 38.6 0 0 1-22.2-22.1c-2.6-6.8-2.6-15.2-2.6-32.1V72.4c0-16.9 0-25.3 2.6-32a38.7 38.7 0 0 1 22.1-22.2c6.8-2.6 15.2-2.6 32.1-2.6h18.9a4.2 4.2 0 0 1 4.1 4.3v4.2Z"/></mask><g mask="url(#b)"><g clip-path="url(#c)"><mask id="d" width="314" height="556" x="17" y="16" maskUnits="userSpaceOnUse" style="mask-type:luminance"><path fill="#fff" d="M330.5 16.3H17.9v555.2h312.6V16.3Z"/></mask><g mask="url(#d)"><path fill="#fff" d="M330.5 16.3H17.9v555.2h312.6V16.3Z"/><path fill="#4D4D4D" d="M63.6 179.6V163h6.7c3.4 0 5.8 2.3 5.8 5.7 0 3.4-2.4 5.6-5.8 5.6H67v5.3h-3.5Zm5.8-13.8h-2.3v5.8h2.3c2 0 3.1-1 3.1-2.9s-1.1-3-3.1-3Zm8.4 13.8v-12.3h3.4v2.1c.4-1.5 1.4-2.4 2.8-2.4.4 0 .7 0 1 .2v2.9a3.5 3.5 0 0 0-1.2-.2c-1.7 0-2.6 1-2.6 2.8v6.9h-3.4Zm13.8.2c-3.8 0-6.1-2.4-6.1-6.4s2.4-6.4 6-6.4c3.7 0 6.2 2.4 6.2 6.4s-2.4 6.4-6.1 6.4Zm0-2.6c1.6 0 2.7-1.4 2.7-3.8s-1.1-3.8-2.7-3.8-2.7 1.4-2.7 3.8 1 3.8 2.7 3.8Zm12.7 2.6c-2.8 0-4-1-4-3.7v-6.3h-1.7v-2.5h1.7v-3h3.3v3h2.3v2.5h-2.3v6c0 1 .5 1.5 1.5 1.5h.8v2.4l-1.6.1Zm8.8 0c-3.7 0-6-2.4-6-6.4 0-3.9 2.3-6.4 5.9-6.4 3.6 0 5.8 2.5 5.8 6.2v1h-8.4c0 2 1 3.1 2.8 3.1 1.4 0 2.2-.8 2.4-1.4v-.1h3.1v.1c-.4 1.8-2 3.9-5.6 3.9Zm0-10.3c-1.4 0-2.5 1-2.7 2.6h5.2c-.2-1.7-1.2-2.6-2.6-2.6Zm13 10.3c-3.7 0-6-2.4-6-6.4s2.4-6.4 6-6.4c3.4 0 5.5 2 5.6 4.7v.1h-3.1c-.2-1.3-1-2.2-2.4-2.2-1.7 0-2.7 1.5-2.7 3.8 0 2.4 1 3.8 2.7 3.8 1.3 0 2.2-.8 2.4-2v-.2h3.1c-.1 2.8-2.3 4.8-5.5 4.8Zm12.1 0c-2.7 0-4-1-4-3.7v-6.3h-1.7v-2.5h1.7v-3h3.4v3h2.2v2.5h-2.2v6c0 1 .5 1.5 1.5 1.5h.7v2.4l-1.6.1Zm5.2-14.1c-1 0-1.8-.8-1.8-1.7s.8-1.8 1.8-1.8 1.8.8 1.8 1.8c0 .9-.8 1.7-1.8 1.7Zm-1.7 13.9v-12.3h3.4v12.3h-3.4Zm11.2.2c-3.7 0-6-2.4-6-6.4s2.4-6.4 6-6.4c3.7 0 6.1 2.4 6.1 6.4s-2.3 6.4-6 6.4Zm0-2.6c1.7 0 2.7-1.4 2.7-3.8s-1-3.8-2.7-3.8c-1.6 0-2.6 1.4-2.6 3.8s1 3.8 2.7 3.8Zm7.8 2.4v-12.3h3.4v2c.7-1.4 2-2.3 3.8-2.3 2.7 0 4.2 1.8 4.2 4.6v8h-3.3v-7.3c0-1.6-.8-2.5-2.3-2.5-1.5 0-2.4 1-2.4 2.7v7h-3.3Zm20-14c-1 0-1.8-.7-1.8-1.6a1.8 1.8 0 0 1 3.5 0c0 .9-.7 1.7-1.8 1.7Zm-1.7 14v-12.3h3.3v12.3H179Zm10.6.2c-3.4 0-5.3-1.6-5.5-3.9v-.1h3.2v.1c.2 1 1 1.5 2.3 1.5 1.3 0 2-.5 2-1.2s-.4-1-1.6-1.4l-2-.4c-2.5-.5-3.7-1.7-3.7-3.5 0-2.4 2-3.9 5.2-3.9s5 1.8 5.1 3.9v.1h-3c-.2-1-.9-1.6-2.1-1.6-1.2 0-1.9.5-1.9 1.3 0 .6.4 1 1.7 1.3l2 .5c2.6.5 3.7 1.5 3.7 3.3 0 2.4-2.2 4-5.4 4Zm17.3 0c-3.8 0-6-2.4-6-6.4 0-3.9 2.2-6.4 5.8-6.4 3.6 0 5.9 2.5 5.9 6.2v1H204c0 2 1.1 3.1 2.8 3.1 1.4 0 2.2-.7 2.5-1.4v-.1h3v.1c-.3 1.8-2 3.9-5.5 3.9Zm-.1-10.3c-1.4 0-2.4 1-2.7 2.6h5.3c-.2-1.7-1.2-2.6-2.6-2.6Zm7.5 10v-12.2h3.3v2h.1c.6-1.4 1.9-2.3 3.8-2.3 2.6 0 4.2 1.8 4.2 4.6v8h-3.4v-7.3c0-1.6-.7-2.5-2.2-2.5-1.5 0-2.5 1-2.5 2.7v7h-3.3Zm17.1.3c-2.4 0-4-1.6-4-3.8 0-2.2 1.7-3.5 4.7-3.7l3-.2v-.8c0-1-.7-1.7-2-1.7-1.2 0-2 .6-2.1 1.4h-3.1c.2-2.3 2.1-4 5.4-4 3.1 0 5.2 1.7 5.2 4.1v8.5H235v-1.9a4 4 0 0 1-3.7 2Zm-.8-4c0 1 .8 1.5 2 1.5 1.4 0 2.5-1 2.5-2.2v-1l-2.5.2c-1.3.1-2 .7-2 1.5Zm17.3 4a4 4 0 0 1-3.8-2.3v2h-3.4V163h3.4v6.4a4 4 0 0 1 3.8-2.4c3.1 0 5 2.4 5 6.4s-1.9 6.4-5 6.4Zm-1.1-2.8c1.7 0 2.7-1.3 2.7-3.6 0-2.2-1-3.6-2.7-3.6-1.6 0-2.7 1.4-2.7 3.6s1 3.6 2.7 3.6Zm7.9 2.6V163h3.4v16.6h-3.4Zm11.2.2c-3.8 0-6-2.4-6-6.4 0-3.9 2.3-6.4 5.9-6.4 3.5 0 5.8 2.5 5.8 6.2v1h-8.5c0 2 1.1 3.1 2.8 3.1 1.4 0 2.3-.7 2.5-1.4v-.1h3.1v.1c-.4 1.8-2.1 3.9-5.6 3.9Zm0-10.3c-1.5 0-2.5 1-2.7 2.6h5.2c-.2-1.7-1.2-2.6-2.6-2.6Zm12 10.3c-3.1 0-5-2.4-5-6.4s1.9-6.4 5-6.4a4 4 0 0 1 3.8 2.4V163h3.4v16.6h-3.4v-2.1a4 4 0 0 1-3.8 2.3Zm1.1-2.8c1.6 0 2.7-1.4 2.7-3.6s-1-3.6-2.7-3.6c-1.7 0-2.7 1.4-2.7 3.6 0 2.3 1 3.6 2.7 3.6Z" opacity=".9"/><path fill="#888" d="M104.5 207c-2 0-3.4-1-3.6-2.6h1.2c.2 1 1.1 1.6 2.5 1.6s2.3-.7 2.3-1.6c0-1-.6-1.4-1.9-1.7l-1-.2c-2-.4-2.8-1.3-2.8-2.7 0-1.6 1.4-2.7 3.4-2.7 1.8 0 3.2 1.1 3.3 2.7h-1.2c-.1-1-1-1.6-2.2-1.6-1.3 0-2.1.7-2.1 1.6 0 .8.6 1.3 1.8 1.5l1.1.3c2 .4 2.8 1.2 2.8 2.7 0 1.7-1.3 2.8-3.6 2.8Zm6.9 0c-1.4 0-2.3-.8-2.3-2s.9-2 2.5-2l2-.2v-.6c0-.8-.6-1.3-1.6-1.3-.9 0-1.4.4-1.6 1h-1c0-1.1 1-2 2.6-2 1.7 0 2.7.8 2.7 2.2v4.8h-1.1v-1.1a2.5 2.5 0 0 1-2.2 1.2Zm-1.2-2c0 .6.6 1 1.4 1 1.1 0 2-.7 2-1.7v-.6l-1.9.1c-1 0-1.5.5-1.5 1.1Zm6.4 2v-6h-1v-1h1v-.9c0-1.3.6-2 1.9-2h.7v1a3.6 3.6 0 0 0-.5 0c-.7 0-1 .3-1 1v.9h1.4v1h-1.4v6h-1.1Zm5.4 0c-1.4 0-2.3-.8-2.3-2s.9-2 2.5-2l2-.2v-.6c0-.8-.6-1.3-1.5-1.3-1 0-1.5.4-1.6 1h-1.2c.1-1.1 1.1-2 2.8-2 1.6 0 2.6.8 2.6 2.2v4.8h-1.1v-1.1a2.5 2.5 0 0 1-2.2 1.2Zm-1.1-2c0 .6.5 1 1.3 1 1.1 0 2-.7 2-1.7v-.6l-1.9.1c-1 0-1.4.5-1.4 1.1Zm6 2v-7h1v1.2h.1c.2-.8.8-1.4 1.6-1.4h.5v1.2h-.6c-1 0-1.5.6-1.5 1.6v4.3h-1.2Zm4.8-8.2a.7.7 0 0 1 0-1.5.7.7 0 1 1 0 1.5Zm-.6 8.1v-7h1.2v7H131Zm7.6.2c-1.4 0-2.3-.9-2.3-2.1 0-1.2.9-2 2.5-2l2-.2v-.6c0-.8-.6-1.3-1.5-1.3-1 0-1.5.4-1.6 1h-1.2c.1-1.1 1.1-2 2.8-2 1.6 0 2.6.8 2.6 2.2v4.8H141v-1.1a2.5 2.5 0 0 1-2.2 1.2Zm-1.1-2.1c0 .6.5 1 1.3 1 1.1 0 2-.7 2-1.7v-.6l-1.9.1c-1 0-1.4.5-1.4 1.1Zm6 2v-7h1v1h.1c.4-.7 1-1.2 2.1-1.2 1.6 0 2.4 1 2.4 2.6v4.5h-1.1v-4.3c0-1.1-.6-1.7-1.6-1.7-1.1 0-1.8.7-1.8 2v4h-1.2Zm9.7 0c-1.7 0-3-1.4-3-3.5 0-2.3 1.3-3.7 3-3.7 1 0 1.8.5 2.2 1.3v-3.8h1.2v9.6h-1.1v-1.2c-.5.9-1.3 1.4-2.3 1.4Zm.3-1c1.1 0 2-1 2-2.6 0-1.5-.9-2.5-2-2.5-1.3 0-2 1-2 2.5 0 1.6.7 2.6 2 2.6Zm7.7 1v-9.7h3.2c2.9 0 4.6 1.8 4.6 4.8s-1.7 4.8-4.6 4.8h-3.2Zm1.2-1.2h2c2.1 0 3.3-1.3 3.3-3.7 0-2.4-1.2-3.7-3.4-3.7h-2v7.4Zm8 1.1v-9.6h1.2l5.3 7.6v-7.6h1.3v9.6H177l-5.3-7.6v7.6h-1.2Zm12.8.2c-2.1 0-3.5-1-3.6-2.7h1.2c.1 1 1 1.6 2.4 1.6s2.3-.7 2.3-1.6c0-1-.6-1.4-1.9-1.7l-1-.2c-2-.4-2.8-1.3-2.8-2.7 0-1.6 1.4-2.7 3.4-2.7 1.9 0 3.2 1.1 3.3 2.7h-1.2c-.1-1-1-1.6-2.2-1.6-1.2 0-2 .7-2 1.6 0 .8.5 1.3 1.8 1.5l1 .3c2 .4 2.8 1.2 2.8 2.7 0 1.7-1.3 2.8-3.5 2.8Zm7.6 2.2V200h1.1v1.2c.5-.9 1.3-1.4 2.3-1.4 1.7 0 3 1.5 3 3.6 0 2.3-1.3 3.7-3 3.7-1 0-1.8-.5-2.3-1.3v3.4H191Zm3.1-3.3c1.3 0 2-1 2-2.5 0-1.6-.7-2.6-2-2.6-1.1 0-2 1-2 2.5 0 1.6.9 2.6 2 2.6Zm4.4 1v-7h1.1v1.2c.3-.8 1-1.4 1.7-1.4h.5v1.2h-.7c-.9 0-1.4.6-1.4 1.6v4.3h-1.2Zm6.7 0c-1.9 0-3.2-1.3-3.2-3.5 0-2.3 1.3-3.7 3.2-3.7 2 0 3.3 1.4 3.3 3.6 0 2.3-1.3 3.6-3.2 3.6Zm0-1c1.3 0 2-1 2-2.6s-.7-2.5-2-2.5c-1.2 0-2 1-2 2.5 0 1.7.8 2.6 2 2.6Zm6.7 1c-1.3 0-2-.5-2-1.8v-4.3h-1v-1h1v-1.8h1.3v1.9h1.3v1h-1.3v4.1c0 .8.3 1 1 1h.3v1h-.6Zm4.5 0c-2 0-3.2-1.3-3.2-3.5s1.3-3.7 3.1-3.7c2 0 3 1.4 3 3.5v.5h-5c.1 1.4 1 2.2 2.1 2.2 1 0 1.5-.4 1.7-1h1.2c-.2 1.1-1.4 2-2.9 2Zm0-6.1c-1 0-1.9.6-2 2h3.8c-.1-1.4-.9-2-1.9-2Zm7 6.1c-2 0-3.2-1.3-3.2-3.6 0-2.2 1.3-3.6 3.2-3.6 1.8 0 2.8 1.2 3 2.4H225c-.2-.7-.7-1.3-1.8-1.3-1.2 0-2 1-2 2.5 0 1.7.8 2.6 2 2.6 1 0 1.6-.5 1.8-1.3h1.1c-.2 1.3-1.3 2.3-2.9 2.3Zm6.3 0c-1.3 0-2-.5-2-1.8v-4.3h-1v-1h1v-1.8h1.3v1.9h1.3v1h-1.3v4.1c0 .8.3 1 1 1h.3v1h-.6Zm2.5-8.2a.7.7 0 0 1 0-1.5.7.7 0 1 1 0 1.5Zm-.6 8.1v-7h1.2v7h-1.2Zm5.6.2c-1.9 0-3.2-1.4-3.2-3.6 0-2.3 1.3-3.7 3.2-3.7 2 0 3.2 1.4 3.2 3.6 0 2.3-1.3 3.6-3.2 3.6Zm0-1c1.3 0 2-1 2-2.7 0-1.6-.7-2.5-2-2.5-1.2 0-2 1-2 2.5 0 1.7.8 2.6 2 2.6Zm4.4.8v-7h1.2v1c.4-.6 1.1-1 2.1-1 1.6 0 2.4 1 2.4 2.5v4.5h-1.1v-4.3c0-1.1-.5-1.7-1.6-1.7s-1.8.7-1.8 2v4h-1.2Z"/><path fill="#4D4D4D" d="m138.3 66.2 5.1-13.8h1.7l5.1 13.8h-1.8l-1.4-4h-5.5l-1.4 4h-1.8Zm6-11.7-2.3 6.3h4.5l-2.2-6.3ZM155 66.4c-2.6 0-4.2-2-4.2-5.2 0-3.1 1.7-5.1 4.1-5.1 1.4 0 2.6.7 3.2 1.8v-5.5h1.7v13.8h-1.6v-1.7a3.5 3.5 0 0 1-3.2 1.9Zm.3-1.5c1.7 0 2.9-1.5 2.9-3.7s-1.2-3.7-2.9-3.7c-1.8 0-2.8 1.4-2.8 3.7 0 2.3 1 3.7 2.8 3.7Zm12.8 1.5c-3.9 0-6.3-2.8-6.3-7.2 0-4.3 2.4-7 6.3-7 3.2 0 5 1.8 5.7 4.2v.2h-1.8a4 4 0 0 0-3.9-2.8c-2.8 0-4.6 2-4.6 5.4 0 3.5 1.8 5.6 4.6 5.6 2.4 0 4.1-1.6 4.1-3.9v-.2h-3.9v-1.5h5.6v1.3c0 3.7-2.1 5.9-5.8 5.9Zm11.2 0c-2.2 0-3.5-1.4-3.5-3.7v-6.5h1.7v6.2c0 1.6.7 2.5 2.3 2.5 1.5 0 2.5-1.1 2.5-2.8v-5.8h1.7v9.9h-1.7v-1.4c-.5.9-1.5 1.6-3 1.6Zm9.8 0c-2 0-3.3-1.2-3.3-3 0-1.7 1.3-2.8 3.6-3l2.8-.1v-.8c0-1.2-.8-2-2.2-2-1.2 0-2 .6-2.2 1.5v.1h-1.7c.2-1.7 1.6-3 4-3 2.3 0 3.8 1.2 3.8 3.2v6.9h-1.7v-1.6a3.5 3.5 0 0 1-3.1 1.8Zm-1.6-3c0 1 .8 1.5 2 1.5 1.5 0 2.7-1 2.7-2.5v-.8l-2.6.1c-1.4.1-2.1.7-2.1 1.6Zm8.5 2.8v-10h1.6V58c.4-1.1 1.3-1.8 2.4-1.8h.7v1.6h-1c-1.2 0-2 .8-2 2.3v6.2H196Zm9.3.2c-2.6 0-4.3-2-4.3-5.2 0-3.1 1.7-5.1 4.2-5.1 1.4 0 2.6.7 3.2 1.8v-5.5h1.7v13.8h-1.7v-1.7a3.5 3.5 0 0 1-3.1 1.9Zm.3-1.5c1.7 0 2.9-1.5 2.9-3.7s-1.2-3.7-3-3.7c-1.7 0-2.7 1.4-2.7 3.7 0 2.3 1 3.7 2.8 3.7Z"/><path stroke="#67B279" stroke-linecap="round" d="M296.3 55.4c3.5-5 13.2-3.4 13.7 5v1.4m-2 3.4c-3.5 5-13.2 3.4-13.6-4.9v-1"/><path stroke="#67B279" stroke-linecap="round" stroke-linejoin="round" d="m312 60.3-2 2-2-2m-15.6 0 2-2 2 2"/><path fill="#888" d="M137.4 428.8v-.8l3.4-3.6c1.3-1.3 1.6-1.9 1.6-2.7 0-1-.8-1.7-1.8-1.7-1.2 0-2.1.9-2.1 1.9h-1.2c0-1.7 1.5-3 3.3-3 1.7 0 3 1.3 3 2.8 0 1-.5 1.8-2.3 3.6l-2.3 2.4h4.8v1h-6.4Zm12 0v-2h-4.8v-1.1l4.2-6.5h1.7v6.5h1.4v1h-1.3v2h-1.2Zm-3.7-3h3.7v-5.6l-3.7 5.5Zm10.2 3v-9.6h1.2v3.8c.4-.8 1.1-1.3 2.2-1.3 1.4 0 2.4 1.2 2.4 2.8v4.3h-1.1v-4c0-1.3-.6-2-1.7-2s-1.8.8-1.8 2v4h-1.2Zm10.2.1c-2 0-3.2-1.4-3.2-3.6s1.3-3.6 3.2-3.6c2 0 3.2 1.4 3.2 3.6s-1.3 3.6-3.2 3.6Zm0-1c1.2 0 2-1 2-2.6s-.8-2.6-2-2.6-2 1-2 2.6c0 1.7.8 2.6 2 2.6Zm6.8 1c-1.6 0-2.4-1-2.4-2.5v-4.6h1.1v4.3c0 1.2.5 1.8 1.6 1.8s1.8-.8 1.8-2v-4h1.2v6.9H175v-1c-.4.7-1 1.1-2.1 1.1Zm4.8-.1v-7h1.2v1.2c.2-.8.8-1.3 1.6-1.3h.5v1.2h-.7c-.9 0-1.4.5-1.4 1.6v4.3h-1.2Zm6.7.1c-1.7 0-2.6-.8-2.8-2v-.1h1.2c.1.8.6 1.2 1.6 1.2s1.5-.4 1.5-1-.3-.9-1-1l-1.2-.3c-1.3-.3-1.9-1-1.9-2 0-1.1 1-2 2.5-2 1.6 0 2.5.9 2.6 2v.1h-1c-.2-.7-.7-1.1-1.5-1.1-.9 0-1.4.4-1.4 1 0 .5.3.8 1 1l1.2.3c1.4.3 1.9.9 1.9 1.8 0 1.3-1.2 2.1-2.7 2.1Z"/><path stroke="#888" stroke-linecap="round" stroke-linejoin="round" d="m196.2 422.9 3.9 4 4-4"/><mask id="e" width="58" height="43" x="42" y="451" maskUnits="userSpaceOnUse" style="mask-type:luminance"><path fill="#fff" d="M99 451.3H42.4v42H99v-42Z"/></mask><g mask="url(#e)"><path fill="#4D4D4D" d="M46 469.8h3l5.8-11.4V456h-9.9v2.3h7L46 469.8Zm19.4.3c3.6 0 5.8-2.7 5.8-7.3 0-5-2.7-7-5.8-7-3 0-5.3 2-5.3 4.8a4.4 4.4 0 0 0 4.6 4.5c1.8 0 3.2-.9 3.7-2.2 0 3-.9 5-3 5-1.1 0-2-.6-2.3-1.5h-2.8c.4 2.2 2.4 3.7 5.1 3.7Zm0-7.1a2.4 2.4 0 0 1-2.5-2.5c0-1.4 1.2-2.5 2.6-2.5a2.5 2.5 0 0 1 2.5 2.6c0 1.4-1.1 2.4-2.6 2.4Zm10.9.8h1.6c1.6 0 2.6.7 2.6 2 0 1.2-1 2-2.4 2-1.5 0-2.5-.7-2.6-1.9h-2.8c.1 2.6 2.3 4.2 5.4 4.2 3.2 0 5.3-1.6 5.3-4.1 0-2-1.3-3.1-3.3-3.3 1.6-.4 2.8-1.5 2.8-3.3 0-2.2-2-3.6-4.9-3.6-2.8 0-4.8 1.6-5 4h2.7c0-1.1 1-1.8 2.3-1.8 1.4 0 2.2.7 2.2 1.8s-1 2-2.4 2h-1.5v2Zm14.3 6.3c3.5 0 5.7-2.7 5.7-7.2 0-4.4-2.2-7.2-5.6-7.2-3.5 0-5.7 2.8-5.7 7.2 0 4.5 2.2 7.2 5.6 7.2Zm0-2.3c-1.7 0-2.6-1.7-2.6-4.9 0-3.1 1-4.8 2.7-4.8 1.6 0 2.6 1.7 2.6 4.8 0 3.2-1 5-2.7 5Z"/></g><mask id="f" width="59" height="43" x="138" y="451" maskUnits="userSpaceOnUse" style="mask-type:luminance"><path fill="#fff" d="M196.7 451.3H138v42h58.6v-42Z"/></mask><g mask="url(#f)"><path fill="#4D4D4D" d="M144 469.8v-2l4.8-4.5c1.8-1.7 2.2-2.3 2.2-3.3 0-1.1-1-2-2.1-2-1.4 0-2.4 1-2.4 2.2v.1h-2.7c0-2.7 2.1-4.5 5-4.5 3 0 5 1.7 5 4 0 1.7-.8 2.8-3.2 5l-2.9 2.6v.1h6.3v2.3h-10Zm16.3 0 6-11.4h-7V456h9.8v2.3l-5.8 11.4h-3Zm15.9.3c-3.3 0-5.8-2.4-5.8-7s2.2-7.3 5.8-7.3c2.7 0 4.7 1.6 5 3.7h.1-2.8c-.4-.8-1.2-1.4-2.3-1.4-2 0-2.9 2-3 4.4v.5c.6-1.3 2-2.2 3.8-2.2a4.3 4.3 0 0 1 4.5 4.4c0 2.9-2.3 4.9-5.3 4.9Zm-2.6-4.8c0 1.4 1.1 2.5 2.6 2.5 1.4 0 2.5-1 2.5-2.4 0-1.5-1-2.5-2.5-2.5s-2.6 1-2.6 2.4Zm13.2 4.5v-11l-3.5 2.3v-2.6l3.5-2.4h2.9v13.7h-2.9Z" opacity=".5"/></g><mask id="g" width="72" height="43" x="235" y="451" maskUnits="userSpaceOnUse" style="mask-type:luminance"><path fill="#fff" d="M306 451.3h-70.3v42h70.4v-42Z"/></mask><g mask="url(#g)"><path fill="#4D4D4D" d="M244.9 469.8h2.9v-13.7h-2.9l-3.6 2.4v2.6l3.5-2.4h.1v11.1Zm5.8-9.5h2.7c0-1.4 1-2.3 2.4-2.3 1.2 0 2 .8 2 2 0 .9-.3 1.6-2 3.2l-5 4.7v2h10v-2.4h-6.2l3-2.8c2.2-2.2 3-3.2 3-5 0-2.2-1.9-4-4.8-4-3 0-5.1 1.9-5.1 4.6ZM268 470c3.5 0 5.6-2.7 5.6-7.2 0-4.4-2.1-7.2-5.6-7.2-3.5 0-5.6 2.8-5.6 7.2 0 4.5 2.1 7.2 5.6 7.2Zm0-2.3c-1.7 0-2.7-1.7-2.7-4.9 0-3.1 1-4.8 2.7-4.8 1.7 0 2.7 1.7 2.7 4.8 0 3.2-1 5-2.7 5Zm7.3 2h2.8v-6.1c0-1.2.7-2 1.8-2 1 0 1.6.7 1.6 1.8v6.3h2.7v-6.2c0-1.1.7-1.9 1.8-1.9 1 0 1.6.7 1.6 1.8v6.3h2.8v-7c0-2-1.3-3.4-3.3-3.4-1.5 0-2.7.8-3.2 2.1-.4-1.3-1.4-2-2.9-2a3 3 0 0 0-3 2v-1.9h-2.7v10.2Zm16.7-7.2c0 1.5 1 2.5 3 3l1.7.3c1 .2 1.4.6 1.4 1.1 0 .7-.7 1.1-1.7 1.1-1.1 0-1.7-.5-2-1.4h-2.6c.2 2 1.8 3.4 4.6 3.4 2.6 0 4.5-1.4 4.5-3.4 0-1.5-.9-2.3-3-2.8l-1.8-.3c-1-.3-1.4-.6-1.4-1.1 0-.7.6-1.2 1.6-1.2s1.7.6 1.7 1.4h2.6c0-2-1.7-3.3-4.3-3.3-2.6 0-4.3 1.3-4.3 3.2Z"/></g><path stroke="#67B279" stroke-linecap="round" stroke-linejoin="round" d="M127.3 130.7a8.8 8.8 0 1 0 0-17.6 8.8 8.8 0 0 0 0 17.6Z"/><path stroke="#67B279" stroke-linecap="round" d="m124.4 124.8 5.9-5.9"/><path stroke="#67B279" stroke-linecap="round" stroke-width="1.5" d="m126.4 120.9 2 2"/><path stroke="#67B279" stroke-linecap="round" d="m127.8 120.4 1 1m-3 1 1 1"/><path stroke="#67B279" stroke-linecap="round" stroke-linejoin="round" d="m171.3 120.9 3 3 3.8-5"/><path stroke="#67B279" stroke-linecap="round" stroke-linejoin="round" d="M174.2 113c-2.7 0-6 .7-8.8 2.1 0 3 0 10.5 8.8 15.6 8.9-5.1 8.8-12.6 8.8-15.6a20.2 20.2 0 0 0-8.8-2Z" clip-rule="evenodd"/><path stroke="#67B279" stroke-linecap="round" stroke-linejoin="round" d="M221.1 131.7a9.8 9.8 0 1 0 0-19.6 9.8 9.8 0 0 0 0 19.6Z"/><path stroke="#67B279" stroke-linecap="round" stroke-linejoin="round" d="M221 118c2.1 0 4.2.4 6.1 1.6a3.6 3.6 0 0 1 1.8 3.1c0 2.2-1.5 3.3-3.4 3a19 19 0 0 1-2.5-.5 8.5 8.5 0 0 0-4.3 0c-.6.3-1.3.5-2 .6-1.3.1-2.7-.4-3.2-1.7a3.8 3.8 0 0 1 1.5-4.5c1.8-1.2 3.9-1.5 6-1.6Z" clip-rule="evenodd"/><path stroke="#67B279" stroke-linecap="round" stroke-linejoin="round" d="M225 122.9v-1m-7.8 1v-1"/><g filter="url(#h)"><circle cx="195.4" cy="285.5" r="27.5" fill="#D2D0D0" fill-opacity=".5"/></g><path fill="#67B279" fill-rule="evenodd" d="M135.2 281.2c0-8.1 6.5-14.7 14.6-14.7h48.8c8 0 14.5 6.4 14.7 14.4v.3c0 8.1-6.6 14.7-14.7 14.7h-48.8c-8 0-14.5-6.4-14.7-14.4v-.3Z" clip-rule="evenodd"/><path fill="#fff" d="M192.8 305.6a24.4 24.4 0 1 0 0-48.8 24.4 24.4 0 0 0 0 48.8Z"/><path stroke="#67B279" stroke-linecap="round" stroke-linejoin="round" stroke-width="1.5" d="m185.6 282.1 5.5 5.8 10.1-11.7"/></g></g><path fill="#fff" d="M30.1 36.5a9.6 9.6 0 0 1 9.7-8.8l271 1.5a8.9 8.9 0 0 1 0 17.7H39.6a9.6 9.6 0 0 1-9.6-10.4Z"/></g></g><defs><clipPath id="a"><path fill="#fff" d="M0 0h348v480H0z"/></clipPath><clipPath id="c"><rect width="312.6" height="555.2" x="17.9" y="16.3" fill="#fff" rx="20"/></clipPath><filter id="h" width="95" height="95" x="147.9" y="238" color-interpolation-filters="sRGB" filterUnits="userSpaceOnUse"><feFlood flood-opacity="0" result="BackgroundImageFix"/><feBlend in="SourceGraphic" in2="BackgroundImageFix" result="shape"/><feGaussianBlur result="effect1_foregroundBlur_6403_17799" stdDeviation="10"/></filter></defs></svg>