<svg xmlns="http://www.w3.org/2000/svg" width="348" height="480" fill="none"><g clip-path="url(#a)"><path fill="#D8D8D8" d="M345.5 197.3h1.3c.6 0 1.2.6 1.2 1.3v74c0 .7-.6 1.2-1.2 1.2h-1.3v-76.5Zm-343 93H1.2c-.7 0-1.2-.6-1.2-1.3v-46c0-.7.6-1.3 1.2-1.3h1.3v48.6Zm0-61.7H1.2c-.7 0-1.2-.6-1.2-1.2v-46c0-.8.6-1.3 1.2-1.3h1.3v48.5Zm0-69.9H1.2c-.7 0-1.2-.6-1.2-1.2v-20.6c0-.7.6-1.2 1.2-1.2h1.3v23ZM2.5 74.8C2.5 55 2.5 45 5 37A53.5 53.5 0 0 1 39.4 2.6c8-2.6 18-2.6 38-2.6h193.3c19.9 0 29.8 0 37.9 2.6A53.5 53.5 0 0 1 342.9 37c2.6 8 2.6 18 2.6 38v555.8c0 19.9 0 29.8-2.6 37.9a53.5 53.5 0 0 1-34.3 34.3c-8 2.6-18 2.6-38 2.6H77.4c-19.9 0-29.8 0-37.9-2.6a53.5 53.5 0 0 1-34.3-34.3c-2.6-8-2.6-18-2.6-38V74.9Z"/><path fill="#D8D8D8" fill-rule="evenodd" d="M271 1.6H77c-19.7 0-29.3 0-37 2.6A51.8 51.8 0 0 0 6.5 37.4c-2.5 7.8-2.5 17.4-2.5 37.1V631c0 19.7 0 29.3 2.6 37a51.8 51.8 0 0 0 33.2 33.3c7.8 2.5 17.4 2.6 37.1 2.6h194c19.7 0 29.3 0 37-2.6a51.8 51.8 0 0 0 33.3-33.2c2.6-7.8 2.6-17.4 2.6-37V74.4c0-19.7 0-29.3-2.5-37A51.8 51.8 0 0 0 308 4.1c-7.8-2.6-17.4-2.6-37.1-2.6ZM5.9 37.2c-2.6 7.9-2.6 17.7-2.6 37.3V631c0 19.6 0 29.4 2.6 37.3a52.6 52.6 0 0 0 33.8 33.8c7.9 2.6 17.7 2.6 37.3 2.6h194c19.6 0 29.4 0 37.3-2.6a52.6 52.6 0 0 0 33.8-33.8c2.6-8 2.6-17.7 2.6-37.3V74.5c0-19.6 0-29.4-2.6-37.3a52.6 52.6 0 0 0-33.8-33.8C300.4.8 290.6.8 271 .8H77C57.4.8 47.6.8 39.7 3.4A52.6 52.6 0 0 0 5.9 37.2Z" clip-rule="evenodd"/><path fill="#F3F3F3" d="M6.6 73.2c0-18.4 0-27.6 2.4-35A49.4 49.4 0 0 1 40.7 6.5c7.4-2.4 16.6-2.4 35-2.4h196.6c18.4 0 27.6 0 35 2.4A49.4 49.4 0 0 1 339 38.2c2.4 7.4 2.4 16.6 2.4 35v559.1c0 18.4 0 27.6-2.4 35a49.3 49.3 0 0 1-31.7 31.7c-7.4 2.4-16.6 2.4-35 2.4H75.7c-18.4 0-27.6 0-35-2.4A49.4 49.4 0 0 1 9 667.3c-2.4-7.4-2.4-16.6-2.4-35V73.2Z"/><path fill="#D8D8D8" d="M272.3 0h5v4.1h-5V0Zm69.1 70.7h4.1v5h-4v-5Zm-339 0h4.2v5H2.5v-5Z"/><mask id="b" width="312" height="675" x="18" y="15" maskUnits="userSpaceOnUse" style="mask-type:alpha"><path fill="#fff" d="M97.9 24.1c0 8.5 7 15.4 15.6 15.4h121c8.5 0 15.6-7 15.6-15.4v-4.2a4.2 4.2 0 0 1 4.1-4.3h18.9c16.9 0 25.4 0 32 2.6a38.7 38.7 0 0 1 22.2 22.1c2.6 6.8 2.6 15.2 2.6 32.1v560.7c0 16.9 0 25.3-2.6 32a38.6 38.6 0 0 1-22.1 22.2c-6.7 2.6-15.2 2.6-32.1 2.6H74.9c-16.9 0-25.4 0-32-2.6a38.6 38.6 0 0 1-22.2-22.1c-2.6-6.8-2.6-15.2-2.6-32.1V72.4c0-16.9 0-25.3 2.6-32a38.7 38.7 0 0 1 22.1-22.2c6.8-2.6 15.2-2.6 32.1-2.6h18.9a4.2 4.2 0 0 1 4.1 4.3v4.2Z"/></mask><g mask="url(#b)"><g clip-path="url(#c)"><mask id="d" width="314" height="620" x="17" y="16" maskUnits="userSpaceOnUse" style="mask-type:luminance"><path fill="#fff" d="M330.5 16.3H17.9V636h312.6V16.3Z"/></mask><g mask="url(#d)"><path fill="#fff" d="M330.5 16.3H17.9V636h312.6V16.3Z"/><mask id="e" width="314" height="71" x="17" y="16" maskUnits="userSpaceOnUse" style="mask-type:luminance"><path fill="#fff" d="M330.5 16.3H17.9v70.4h312.6V16.3Z"/></mask><g stroke="#888" stroke-linecap="round" mask="url(#e)"><path d="m33.6 60.3 6.8-6.8m0 13.7-6.8-6.9"/></g><mask id="f" width="314" height="71" x="16" y="141" maskUnits="userSpaceOnUse" style="mask-type:luminance"><path fill="#fff" d="M329.5 141.4H17v70.4h312.5v-70.4Z"/></mask><g mask="url(#f)"><path fill="#fff" d="M329.5 141.4H17v70.4h312.5v-70.4Z"/><path stroke="#F3F3F3" d="M17 210.8h312.5"/><path stroke="#67B279" d="M36.3 169.8c0-.7.5-1.2 1.2-1.2h6.8a1.2 1.2 0 0 1 0 2.4h-6.8c-.7 0-1.2-.6-1.2-1.2Zm6.8 12.7c0-.7.5-1.2 1.2-1.2h6.9c.6 0 1.2.5 1.2 1.2v1c0 .6-.6 1.2-1.3 1.2h-6.8c-.7 0-1.2-.6-1.2-1.2v-1Zm8-8H37.6c-.7 0-1.2.5-1.2 1.1v1c0 .7.5 1.2 1.2 1.2h13.7c.6 0 1.2-.5 1.2-1.2v-1c0-.6-.6-1.2-1.2-1.2Zm-2.1-4.7c0-.7.5-1.2 1.2-1.2h1a1.2 1.2 0 0 1 0 2.4h-1c-.7 0-1.2-.6-1.2-1.2Zm-12.7 12.7c0-.7.5-1.2 1.2-1.2h1c.6 0 1.2.5 1.2 1.2v1c0 .6-.6 1.2-1.2 1.2h-1c-.7 0-1.2-.6-1.2-1.2v-1Z"/><path fill="#4D4D4D" d="m71.9 172.7 4-11h1.4l4.1 11H80l-1.2-3.1h-4.4l-1.1 3.1h-1.4Zm4.7-9.4-1.8 5h3.6l-1.8-5Zm8.7 9.6c-2 0-3.4-1.7-3.4-4.2s1.4-4 3.4-4c1 0 2 .5 2.5 1.4v-4.4h1.4v11h-1.4v-1.3c-.5.9-1.4 1.5-2.5 1.5Zm.3-1.2c1.3 0 2.3-1.2 2.3-3 0-1.7-1-3-2.3-3-1.4 0-2.3 1.2-2.3 3 0 1.9.9 3 2.3 3Zm8.2 1.2c-1.9 0-3-1-3.2-2.4H92c.2.8.8 1.3 1.9 1.3 1 0 1.7-.5 1.7-1.2 0-.6-.3-1-1.2-1.1l-1.3-.3c-1.5-.4-2.2-1-2.2-2.2 0-1.4 1.2-2.4 3-2.4 1.7 0 2.8 1 2.9 2.4h-1.3c0-.8-.7-1.3-1.7-1.3s-1.5.5-1.5 1.2c0 .5.3 1 1.2 1.1l1.3.3c1.6.4 2.2 1 2.2 2.2 0 1.4-1.4 2.4-3.1 2.4Z"/><path fill="#888" d="M72.6 191.3v-9.7h6v1.1h-4.8v3.1h4.5v1h-4.5v3.4h4.8v1h-6Zm7.4 0v-7H81v1c.4-.6 1.1-1.1 2.2-1.1 1.5 0 2.4 1 2.4 2.6v4.5h-1.2V187c0-1.2-.5-1.8-1.6-1.8-1 0-1.8.8-1.8 2v4H80Zm9.2.1c-1.4 0-2.3-.8-2.3-2 0-1.3 1-2 2.5-2.1l2-.1v-.6c0-.9-.5-1.4-1.5-1.4s-1.5.5-1.6 1v.1h-1.1c0-1.2 1-2.1 2.7-2.1 1.6 0 2.7.9 2.7 2.3v4.8h-1.2V190a2.5 2.5 0 0 1-2.2 1.3Zm-1.1-2c0 .6.5 1 1.4 1 1 0 2-.8 2-1.8v-.5h-2c-.9.1-1.4.6-1.4 1.2Zm9.4 2c-1 0-1.8-.5-2.2-1.3v1.2H94v-9.7h1.2v3.9c.4-.8 1.2-1.3 2.2-1.3 1.8 0 3 1.4 3 3.6s-1.2 3.6-3 3.6Zm-.2-1c1.2 0 2-1 2-2.6s-.8-2.6-2-2.6-2 1-2 2.6.8 2.6 2 2.6Zm4.4.9v-9.7h1.1v9.7h-1.1Zm5.6.1c-2 0-3.2-1.4-3.2-3.6 0-2.1 1.2-3.6 3.1-3.6 1.9 0 3 1.4 3 3.5v.4h-5c0 1.4.9 2.3 2.1 2.3.9 0 1.5-.5 1.7-1v-.1h1.2c-.3 1.2-1.4 2.1-3 2.1Zm-.1-6.2c-1 0-1.8.7-2 2h3.9c-.1-1.3-.9-2-2-2Zm6.8 6.2c-1.7 0-3-1.4-3-3.6s1.3-3.6 3-3.6c1 0 1.8.5 2.2 1.3v-3.9h1.2v9.7h-1.1V190c-.5.8-1.3 1.3-2.3 1.3Zm.3-1c1.1 0 2-1 2-2.6s-.9-2.6-2-2.6c-1.3 0-2 1-2 2.6s.7 2.6 2 2.6Zm7.9.9v-6h-1v-1h1v-.8c0-1.4.6-2 1.9-2h.7v1a3.6 3.6 0 0 0-.5 0c-.7 0-1 .3-1 1v.8h1.4v1h-1.4v6h-1.1Zm4.4-8.1a.7.7 0 0 1 0-1.5c.4 0 .7.3.7.7 0 .4-.3.8-.7.8Zm-.6 8v-6.9h1.2v7H126Zm2.8 0v-9.6h1.2v9.7h-1.2Zm5 .2c-1.3 0-1.9-.6-1.9-1.9v-4.2h-1v-1h1v-1.9h1.2v2h1.3v.9h-1.3v4.2c0 .8.3 1 1 1h.3v.9h-.6Zm4.5 0c-2 0-3.2-1.4-3.2-3.6 0-2.1 1.3-3.6 3.2-3.6 1.9 0 3 1.4 3 3.5v.4h-5c0 1.4.8 2.3 2 2.3 1 0 1.6-.5 1.8-1v-.1h1.1c-.2 1.2-1.3 2.1-2.8 2.1Zm0-6.2c-1 0-1.8.7-2 2h3.8c0-1.3-.8-2-1.8-2Zm4.2 6v-6.9h1.2v1.2c.2-.8.8-1.3 1.6-1.3h.5v1.2h-.7c-.9 0-1.4.5-1.4 1.6v4.3h-1.2Zm6.7.2c-1.7 0-2.6-.8-2.8-2v-.1h1.2c.1.7.6 1.1 1.6 1.1s1.5-.4 1.5-1c0-.5-.3-.8-1-1l-1.2-.2c-1.3-.3-1.9-1-1.9-2 0-1.1 1-2 2.5-2 1.6 0 2.5.9 2.6 2v.1h-1c-.2-.7-.7-1.1-1.5-1.1-.9 0-1.4.4-1.4 1 0 .5.3.8 1 1l1.2.3c1.4.3 1.9.8 1.9 1.8 0 1.3-1.2 2.1-2.7 2.1Zm4.6-5.2a.8.8 0 0 1-.8-.8c0-.4.4-.7.8-.7s.8.3.8.7-.4.8-.8.8Zm0 5.2a.8.8 0 0 1-.8-.8c0-.4.4-.7.8-.7s.8.3.8.7c0 .4-.4.8-.8.8Zm7.5-.1v-8.4l-2.6 1.8v-1.2l2.6-1.9h1.2v9.7h-1.2Zm6.7-9.7-2.8 12h-1l2.7-12h1Zm5.3 9.7v-2h-4.8v-1.1l4.2-6.6h1.8v6.6h1.3v1h-1.3v2h-1.2Zm-3.6-3h3.6v-5.6l-3.6 5.5Z"/><path fill="#67B279" fill-rule="evenodd" d="M280.7 163a13.7 13.7 0 0 0 0 27.3h19.5a13.7 13.7 0 0 0 0-27.4h-19.5Z" clip-rule="evenodd"/><path fill="#fff" d="M300.2 189.3a12.7 12.7 0 1 0 0-25.4 12.7 12.7 0 0 0 0 25.4Z"/></g><mask id="g" width="314" height="72" x="16" y="211" maskUnits="userSpaceOnUse" style="mask-type:luminance"><path fill="#fff" d="M329.5 211.8H17v70.4h312.5v-70.4Z"/></mask><g mask="url(#g)"><path fill="#fff" d="M329.5 211.8H17v70.4h312.5v-70.4Z"/><path stroke="#F3F3F3" d="M17 281.2h312.5"/><path fill="#67B279" fill-rule="evenodd" d="M280.7 233.3a13.7 13.7 0 0 0 0 27.4h19.5a13.7 13.7 0 0 0 0-27.4h-19.5Z" clip-rule="evenodd"/><path fill="#fff" d="M300.2 259.7a12.7 12.7 0 1 0 0-25.4 12.7 12.7 0 0 0 0 25.4Z"/><path stroke="#67B279" stroke-linecap="round" stroke-linejoin="round" d="M49.6 244.2c.8.7 1.7 1.6 2.5 2.6-2.6 3.2-5.2 4.9-7.8 4.9-.4 0-.8 0-1.3-.2m-2.4-1a25.9 25.9 0 0 1-4.1-3.7c2.6-3.1 5.2-4.7 7.8-4.7 1 0 2.1.3 3.2.8m-11 12.9 15.6-17.6M43 248.4a2 2 0 0 1 2.6-3l-2.6 3Z"/><path fill="#4D4D4D" d="M72.7 232v11h1.4v-3.8h2.6a3.4 3.4 0 0 0 3.5-3.6 3.4 3.4 0 0 0-3.5-3.5h-4Zm1.4 1.3h2.2c1.6 0 2.5.8 2.5 2.3 0 1.5-1 2.3-2.5 2.3h-2.2v-4.6Zm7.5 9.8h1.3v-5c0-1 .7-1.8 1.7-1.8h.7V235h-.5a2 2 0 0 0-2 1.4v-1.3h-1.2v8Zm5.5-9.4c.5 0 .9-.3.9-.8a.8.8 0 0 0-.9-.8.8.8 0 0 0 0 1.6Zm-.6 9.4h1.3v-8h-1.3v8Zm9.6-8h-1.4l-2.2 6.6-2.2-6.6h-1.4l3 8h1.3l2.9-8Zm3.2 8.1a2.9 2.9 0 0 0 2.5-1.5v1.4h1.3v-5.5c0-1.6-1.1-2.6-3-2.6s-3 1-3.1 2.4h1.2c.2-.7.8-1.2 1.9-1.2 1 0 1.7.6 1.7 1.5v.7l-2.3.1c-1.8.1-2.8 1-2.8 2.3 0 1.5 1 2.4 2.6 2.4Zm.3-1.1c-1 0-1.6-.5-1.6-1.3s.6-1.2 1.7-1.3h2.1v.6c0 1.1-1 2-2.2 2Zm11.8-4.3c-.2-1.5-1.3-2.8-3.3-2.8-2.2 0-3.7 1.6-3.7 4.1 0 2.6 1.5 4.1 3.7 4.1 1.8 0 3.1-1.1 3.3-2.7h-1.3c-.2 1-1 1.6-2 1.6-1.4 0-2.3-1.1-2.3-3 0-1.8 1-3 2.3-3 1.2 0 1.8.8 2 1.7h1.3Zm2 8.3c1.3 0 2-.6 2.7-2.5l3.1-8.5h-1.4l-2.2 6.7-2.2-6.6H112l2.9 7.9-.2.6c-.3.9-.7 1.2-1.4 1.2h-.6v1.1h.6Z"/><path fill="#888" d="M72.6 261.6V252h6v1h-4.8v3.2h4.5v1h-4.5v3.4h4.8v1h-6Zm7.4 0v-6.9H81v1c.4-.7 1.1-1.1 2.2-1.1 1.5 0 2.4 1 2.4 2.5v4.5h-1.2v-4.3c0-1-.5-1.7-1.6-1.7-1 0-1.8.8-1.8 2v4H80Zm9.2.2c-1.4 0-2.3-.9-2.3-2.1 0-1.2 1-2 2.5-2l2-.2v-.5c0-.9-.5-1.4-1.5-1.4s-1.5.4-1.6 1v.1h-1.1c0-1.2 1-2.1 2.7-2.1 1.6 0 2.7.9 2.7 2.2v4.8h-1.2v-1a2.5 2.5 0 0 1-2.2 1.2Zm-1.1-2.1c0 .7.5 1 1.4 1 1 0 2-.7 2-1.7v-.6l-2 .1c-.9.1-1.4.5-1.4 1.2Zm9.4 2c-1 0-1.8-.4-2.2-1.2v1.1H94V252h1.2v3.9c.4-.8 1.2-1.3 2.2-1.3 1.8 0 3 1.4 3 3.6s-1.2 3.6-3 3.6Zm-.2-1c1.2 0 2-1 2-2.5 0-1.6-.8-2.6-2-2.6s-2 1-2 2.6c0 1.5.8 2.6 2 2.6Zm4.4 1V252h1.1v9.6h-1.1Zm5.6 0c-2 0-3.2-1.3-3.2-3.5 0-2.1 1.2-3.6 3.1-3.6 1.9 0 3 1.4 3 3.5v.4h-5c0 1.4.9 2.3 2.1 2.3.9 0 1.5-.5 1.7-1v-.1h1.2c-.3 1.2-1.4 2-3 2Zm-.1-6.1c-1 0-1.8.7-2 2h3.9c-.1-1.4-.9-2-2-2Zm6.8 6.2c-1.7 0-3-1.4-3-3.6s1.3-3.6 3-3.6c1 0 1.8.5 2.2 1.3V252h1.2v9.6h-1.1v-1.1c-.5.8-1.3 1.3-2.3 1.3Zm.3-1c1.1 0 2-1 2-2.6s-.9-2.6-2-2.6c-1.3 0-2 1-2 2.6s.7 2.6 2 2.6Zm7.9.9v-6h-1v-1h1v-.9c0-1.3.6-2 1.9-2l.7.1v1a3.8 3.8 0 0 0-.5 0c-.7 0-1 .3-1 1v.8h1.4v1h-1.4v6h-1.1Zm4.4-8.2a.7.7 0 0 1 0-1.4c.4 0 .7.3.7.7 0 .4-.3.7-.7.7Zm-.6 8.1v-6.9h1.2v7H126Zm2.8 0V252h1.2v9.6h-1.2Zm5 .2c-1.3 0-1.9-.6-1.9-2v-4.1h-1v-1h1v-1.9h1.2v2h1.3v.9h-1.3v4.2c0 .7.3 1 1 1l.3-.1v1a5 5 0 0 1-.6 0Zm4.5 0c-2 0-3.2-1.4-3.2-3.6 0-2.1 1.3-3.6 3.2-3.6 1.9 0 3 1.4 3 3.5v.4h-5c0 1.4.8 2.3 2 2.3 1 0 1.6-.5 1.8-1v-.1h1.1c-.2 1.2-1.3 2-2.8 2Zm0-6.2c-1 0-1.8.7-2 2h3.8c0-1.4-.8-2-1.8-2Zm4.2 6v-6.9h1.2v1.2c.2-.8.8-1.3 1.6-1.3h.5v1.1a2 2 0 0 0-.7 0c-.9 0-1.4.6-1.4 1.7v4.3h-1.2Zm6.7.2c-1.7 0-2.6-.9-2.8-2v-.2h1.2v.1c.1.7.6 1.1 1.6 1.1s1.5-.4 1.5-1c0-.5-.3-.8-1-1l-1.2-.3c-1.3-.3-1.9-.9-1.9-1.9 0-1.2 1-2 2.5-2 1.6 0 2.5.9 2.6 2v.1h-1c-.2-.7-.7-1.2-1.5-1.2-.9 0-1.4.4-1.4 1 0 .5.3.9 1 1l1.2.3c1.4.4 1.9 1 1.9 2 0 1.1-1.2 2-2.7 2Zm4.6-5.2a.8.8 0 0 1-.8-.8.8.8 0 1 1 1.6 0c0 .4-.4.8-.8.8Zm0 5.1a.8.8 0 0 1-.8-.7.8.8 0 1 1 1.6 0c0 .4-.4.7-.8.7Zm7.5 0v-8.4l-2.6 1.8v-1.3l2.6-1.8h1.2v9.6h-1.2Zm6.7-9.7-2.8 12h-1l2.7-12h1Zm5.3 9.6v-2h-4.8v-1l4.2-6.6h1.8v6.6h1.3v1h-1.3v2h-1.2Zm-3.6-3h3.6V253l-3.6 5.6Z"/></g><path fill="#fff" d="M329.5 282.2H17v70.4h312.5v-70.4Z"/><path fill="#67B279" fill-rule="evenodd" d="M280.7 303.7a13.7 13.7 0 0 0 0 27.4h19.5a13.7 13.7 0 0 0 0-27.4h-19.5Z" clip-rule="evenodd"/><path fill="#fff" d="M300.2 330a12.7 12.7 0 1 0 0-25.3 12.7 12.7 0 0 0 0 25.4Z"/><path fill="#888" fill-rule="evenodd" d="M280.7 303.7a13.7 13.7 0 0 0 0 27.4h19.5a13.7 13.7 0 0 0 0-27.4h-19.5Z" clip-rule="evenodd"/><path fill="#fff" d="M280.7 330a12.7 12.7 0 1 0 0-25.3 12.7 12.7 0 0 0 0 25.4Z"/><path stroke="#67B279" stroke-linecap="round" stroke-linejoin="round" d="m45.8 313.5.4.5c.5.5 1 .8 1.7 1a3.4 3.4 0 0 0 4.1-2.3 3.3 3.3 0 0 0-2.4-4 3.4 3.4 0 0 0-4.1 2.3c-.2.7-.2 1.4 0 2l.3.5Zm0 0-3.9 2.4m0 0 .2.4a3.9 3.9 0 0 1-.3 2.8m.1-3.2-.4-.6a3.5 3.5 0 0 0-3.5-1 3.3 3.3 0 0 0-2.4 4 3.4 3.4 0 0 0 4.2 2.2 3.4 3.4 0 0 0 1.6-1l.4-.4m0 0 4 2.2m0 0 .3-.5a3.4 3.4 0 0 1 1.8-1A3.4 3.4 0 0 1 52 322a3.3 3.3 0 0 1-2.4 4 3.4 3.4 0 0 1-4.1-2.3 3.2 3.2 0 0 1 0-1.8l.2-.6Z"/><path fill="#4D4D4D" d="M76.3 313.6c-2.3 0-4-1.1-4-3l-.1-.1h1.4c.2 1.2 1.2 1.9 2.8 1.9 1.6 0 2.6-.7 2.6-1.9 0-1-.6-1.5-2.1-1.8l-1.3-.3c-2.1-.5-3.1-1.4-3.1-3 0-1.9 1.6-3.2 3.8-3.2 2.2 0 3.8 1.3 3.9 3.1v.1h-1.4c-.2-1.2-1-1.9-2.5-1.9s-2.4.7-2.4 1.8c0 .9.6 1.5 2 1.8l1.3.2c2.3.5 3.2 1.4 3.2 3.1 0 2-1.6 3.2-4 3.2Zm8.8 0c-2.2 0-3.7-1.6-3.7-4.1 0-2.6 1.5-4.1 3.7-4.1s3.7 1.5 3.7 4c0 2.6-1.5 4.2-3.7 4.2Zm0-1.2c1.4 0 2.3-1 2.3-3 0-1.8-.9-2.9-2.3-2.9s-2.3 1.1-2.3 3 .9 3 2.3 3Zm8.3 1.2c-2.3 0-3.7-1.6-3.7-4.1 0-2.5 1.5-4.1 3.7-4.1 2 0 3.1 1.3 3.3 2.6v.1h-1.3a2 2 0 0 0-2-1.6c-1.4 0-2.3 1.2-2.3 3s1 3 2.3 3c1 0 1.8-.7 2-1.6h1.3c-.2 1.5-1.5 2.7-3.3 2.7Zm5.3-9.4a.8.8 0 0 1-.8-.9c0-.4.3-.8.8-.8s.8.4.8.8c0 .5-.3.9-.8.9Zm-.7 9.3v-8h1.4v8H98Zm5.5.1c-1.6 0-2.7-1-2.7-2.4s1-2.2 3-2.3l2.2-.1v-.7c0-1-.6-1.6-1.7-1.6-1 0-1.7.5-1.9 1.2v.1h-1.3c.2-1.4 1.3-2.4 3.2-2.4 1.8 0 3 1 3 2.6v5.5H106v-1.3a2.8 2.8 0 0 1-2.5 1.4Zm-1.3-2.4c0 .8.6 1.3 1.6 1.3 1.2 0 2.2-1 2.2-2v-.7l-2.1.1c-1 0-1.7.6-1.7 1.3Zm6.9 2.3v-11h1.3v11h-1.3Zm7.9 0-2.2-8h1.3l1.6 6.5 1.8-6.5h1.3l1.8 6.5 1.6-6.5h1.3l-2.2 8h-1.4l-1.8-6.2-1.8 6.2H117Zm10.3-9.3a.8.8 0 0 1 0-1.7c.5 0 .9.4.9.8 0 .5-.4.9-.9.9Zm-.6 9.3v-8h1.3v8h-1.3Zm6 .1c-2 0-3.3-1.6-3.3-4.1 0-2.5 1.4-4.1 3.4-4.1 1 0 2 .5 2.5 1.4v-4.4h1.4v11h-1.4v-1.3c-.5 1-1.4 1.5-2.5 1.5Zm.4-1.2c1.3 0 2.3-1.1 2.3-3 0-1.7-1-2.9-2.3-2.9-1.4 0-2.3 1.2-2.3 3s.8 3 2.2 3Zm8.7 3.9c-2 0-3.2-1-3.4-2.1h1.3c.3.6 1 1 2.1 1 1.4 0 2.2-.9 2.2-2V312a2.8 2.8 0 0 1-2.6 1.4c-2 0-3.3-1.6-3.3-4 0-2.5 1.3-4.1 3.4-4.1 1 0 2 .6 2.5 1.5v-1.4h1.3v7.7c0 1.9-1.3 3-3.5 3Zm0-4c1.3 0 2.2-1.1 2.2-2.9s-1-2.9-2.3-2.9c-1.4 0-2.3 1.2-2.3 3 0 1.7 1 2.9 2.3 2.9Zm8.5 1.3c-2.3 0-3.7-1.6-3.7-4 0-2.6 1.4-4.2 3.6-4.2s3.5 1.6 3.5 4v.4H148c0 1.7 1 2.6 2.3 2.6 1 0 1.8-.5 2-1.2h1.3c-.3 1.4-1.6 2.4-3.3 2.4Zm-.1-7c-1.1 0-2 .7-2.2 2.2h4.4c-.2-1.5-1-2.3-2.2-2.3Zm7.4 7c-1.4 0-2.1-.7-2.1-2.2v-4.8h-1.2v-1h1.2v-2.2h1.3v2.1h1.5v1.1h-1.5v4.8c0 .9.4 1.1 1.1 1.1h.4v1l-.7.1Zm5 0c-1.9 0-3-1-3.2-2.4h1.3c.2.8.8 1.3 1.9 1.3s1.7-.5 1.7-1.2c0-.6-.3-.9-1.2-1l-1.3-.4c-1.5-.4-2.2-1-2.2-2.2 0-1.4 1.2-2.3 3-2.3 1.7 0 2.8 1 2.9 2.3v.1h-1.3c0-.8-.7-1.3-1.7-1.3s-1.5.4-1.5 1.1c0 .6.3 1 1.2 1.2l1.3.3c1.6.4 2.2 1 2.2 2.1 0 1.4-1.3 2.4-3.1 2.4Z"/><path fill="#888" d="M72.6 332v-9.6h6v1h-4.8v3.2h4.5v1h-4.5v3.3h4.8v1.1h-6Zm7.4 0v-7H81v1c.4-.6 1.1-1 2.2-1 1.5 0 2.4 1 2.4 2.5v4.5h-1.2v-4.3c0-1.1-.5-1.7-1.6-1.7-1 0-1.8.7-1.8 2v4H80Zm9.2.2c-1.4 0-2.3-.9-2.3-2.1 0-1.2 1-2 2.5-2l2-.2v-.6c0-.8-.5-1.3-1.5-1.3s-1.5.4-1.6 1h-1.1c0-1.1 1-2 2.7-2 1.6 0 2.7.8 2.7 2.2v4.8h-1.2V331a2.5 2.5 0 0 1-2.2 1.3Zm-1.1-2.1c0 .6.5 1 1.4 1 1 0 2-.7 2-1.7v-.6l-2 .1c-.9 0-1.4.5-1.4 1.1Zm9.4 2c-1 0-1.8-.4-2.2-1.3v1.2H94v-9.6h1.2v3.8c.4-.8 1.2-1.3 2.2-1.3 1.8 0 3 1.5 3 3.6 0 2.3-1.2 3.7-3 3.7Zm-.2-1c1.2 0 2-1 2-2.6 0-1.5-.8-2.5-2-2.5s-2 1-2 2.5c0 1.6.8 2.6 2 2.6Zm4.4 1v-9.7h1.1v9.6h-1.1Zm5.6 0c-2 0-3.2-1.3-3.2-3.5s1.2-3.7 3.1-3.7c1.9 0 3 1.5 3 3.5v.5h-5c0 1.4.9 2.2 2.1 2.2.9 0 1.5-.4 1.7-1h1.2c-.3 1.1-1.4 2-3 2Zm-.1-6.1c-1 0-1.8.7-2 2h3.9c-.1-1.4-.9-2-2-2Zm6.8 6.2c-1.7 0-3-1.5-3-3.6 0-2.3 1.3-3.7 3-3.7 1 0 1.8.5 2.2 1.3v-3.8h1.2v9.6h-1.1v-1.2c-.5.8-1.3 1.4-2.3 1.4Zm.3-1c1.1 0 2-1 2-2.6s-.9-2.6-2-2.6c-1.3 0-2 1-2 2.5 0 1.7.7 2.6 2 2.6Zm7.9.8v-6h-1v-1h1v-.8c0-1.3.6-2 1.9-2l.7.1v1a3.8 3.8 0 0 0-.5 0c-.7 0-1 .2-1 1v.8h1.4v1h-1.4v6h-1.1Zm4.4-8.1a.7.7 0 0 1 0-1.4.7.7 0 1 1 0 1.4Zm-.6 8.1v-7h1.2v7H126Zm2.8 0v-9.6h1.2v9.6h-1.2Zm5 .2c-1.3 0-1.9-.6-1.9-2V326h-1v-1h1v-1.8h1.2v1.9h1.3v1h-1.3v4.1c0 .8.3 1 1 1h.3v1a5 5 0 0 1-.6 0Zm4.5 0c-2 0-3.2-1.4-3.2-3.6s1.3-3.7 3.2-3.7c1.9 0 3 1.5 3 3.5v.5h-5c0 1.4.8 2.2 2 2.2 1 0 1.6-.4 1.8-1h1.1c-.2 1.1-1.3 2-2.8 2Zm0-6.2c-1 0-1.8.7-2 2h3.8c0-1.4-.8-2-1.8-2Zm4.2 6v-7h1.2v1.2c.2-.7.8-1.2 1.6-1.2h.5v1.1h-.7c-.9 0-1.4.6-1.4 1.6v4.3h-1.2Zm6.7.2c-1.7 0-2.6-.9-2.8-2.1h1.2c.1.7.6 1 1.6 1s1.5-.3 1.5-1c0-.4-.3-.7-1-1l-1.2-.2c-1.3-.3-1.9-.9-1.9-2s1-2 2.5-2c1.6 0 2.5 1 2.6 2.1h-1c-.2-.6-.7-1-1.5-1-.9 0-1.4.3-1.4 1 0 .4.3.7 1 1l1.2.2c1.4.3 1.9.9 1.9 1.9 0 1.2-1.2 2-2.7 2Zm4.6-5.3a.8.8 0 0 1-.8-.7c0-.4.4-.8.8-.8s.8.4.8.8-.4.8-.8.8Zm0 5.2a.8.8 0 0 1-.8-.7c0-.5.4-.8.8-.8s.8.3.8.8-.4.7-.8.7Zm8.4 0c-2.2 0-3.5-1.8-3.5-4.9 0-3 1.3-5 3.5-5s3.6 2 3.6 5-1.4 5-3.6 5Zm0-1c1.5 0 2.3-1.5 2.3-3.9s-.8-4-2.3-4c-1.5 0-2.3 1.6-2.3 4s.8 4 2.3 4Zm8-8.7-2.7 12h-1.1l2.7-12h1Zm5.3 9.6v-2h-4.8v-1l4.2-6.6h1.8v6.6h1.4v1h-1.4v2h-1.2Zm-3.6-3h3.6v-5.6L172 329Z"/><path stroke="#F3F3F3" d="M17 352.6h312.5"/><path fill="#fff" d="M329.5 353.5H17V424h312.5v-70.4Z"/><path stroke="#F3F3F3" d="M17 424.9h312.5"/><path stroke="#D8D8D8" stroke-linecap="round" stroke-linejoin="round" d="m41.4 387.7 3 3 3.8-5"/><path stroke="#D8D8D8" stroke-linecap="round" stroke-linejoin="round" d="M44.3 380c-2.7 0-6 .6-8.8 2 0 3 0 10.4 8.8 15.5 8.8-5 8.8-12.6 8.8-15.6a20.2 20.2 0 0 0-8.8-2Z" clip-rule="evenodd"/><path fill="#4D4D4D" d="M72.2 381.9c.1 1.9 1.7 3 4.1 3 2.5 0 4.1-1.2 4.1-3.2 0-1.6-.9-2.5-3.2-3l-1.2-.3c-1.5-.3-2.1-.9-2.1-1.8 0-1 1-1.8 2.4-1.8 1.5 0 2.4.8 2.5 2h1.4c0-1.9-1.6-3.2-3.8-3.2-2.3 0-4 1.3-4 3.1 0 1.6 1 2.6 3.2 3l1.3.3c1.5.3 2 1 2 1.9 0 1-1 1.9-2.5 1.9-1.6 0-2.7-.8-2.8-2h-1.4Zm14.9.6c-.2.8-1 1.3-2 1.3-1.4 0-2.3-1-2.3-2.5v-.1h5.7v-.5c0-2.4-1.3-4-3.5-4s-3.6 1.7-3.6 4.2 1.4 4 3.7 4c1.7 0 3-1 3.3-2.4H87ZM85 378c1.3 0 2 1 2.1 2.3h-4.3c0-1.4 1-2.3 2.2-2.3Zm11.4 1.6c-.2-1.5-1.3-2.8-3.3-2.8-2.2 0-3.7 1.6-3.7 4.1 0 2.6 1.5 4.1 3.7 4.1 1.8 0 3.1-1 3.3-2.7h-1.3c-.2 1-1 1.6-2 1.6-1.4 0-2.3-1.1-2.3-3 0-1.8 1-3 2.3-3a2 2 0 0 1 2 1.7h1.3Zm7.8-2.6h-1.3v4.6c0 1.4-.8 2.3-2.1 2.3-1.2 0-1.8-.7-1.8-2v-5h-1.4v5.2c0 1.8 1 3 2.8 3 1.2 0 2-.6 2.5-1.5v1.3h1.3v-8Zm1.7 8h1.3v-5c0-1.2.7-2 1.7-2 .4 0 .6.1.7.2v-1.3h-.5a2 2 0 0 0-2 1.4v-1.3H106v7.9Zm5.5-9.5c.5 0 .9-.3.9-.8a.8.8 0 0 0-.8-.8.8.8 0 0 0-.9.8c0 .5.4.8.9.8Zm-.6 9.4h1.3v-8h-1.3v8Zm3.5-9.9v2h-1.1v1h1.1v4.8c0 1.6.6 2.2 2 2.2h.9v-1.2h-.6c-.6 0-1-.3-1-1V378h1.6v-1.1h-1.5v-2h-1.4Zm5 12.9c1.4 0 2-.6 2.8-2.4l3-8.5h-1.3l-2.2 6.6-2.2-6.6h-1.5l3 8-.2.5c-.3.9-.7 1.2-1.5 1.2h-.5v1.1h.6Z"/><path fill="#888" d="M76.7 403.5c-2.8 0-4.5-1.9-4.5-5 0-3 1.7-5 4.5-5 2.7 0 4.4 2 4.4 5 0 3.1-1.7 5-4.4 5Zm0-1c2 0 3.2-1.6 3.2-4 0-2.3-1.3-3.8-3.2-3.8-2 0-3.2 1.5-3.2 3.9 0 2.3 1.2 3.8 3.2 3.8Zm5.7.9v-7h1.2v1c.4-.6 1-1.1 2.2-1.1 1.5 0 2.4 1 2.4 2.6v4.5H87V399c0-1.2-.5-1.8-1.6-1.8s-1.8.8-1.8 2v4h-1.2Zm7.3 0v-9.7h1.2v9.7h-1.2Zm3.4 2.3h-.6v-1h.3c.8 0 1.2-.1 1.5-1l.1-.3-2.6-7h1.3l1.9 5.8 2-5.8h1.2l-2.8 7.4c-.5 1.3-1 1.9-2.3 1.9Zm9.2-2.3v-6h-1v-1h1v-.8c0-1.4.6-2 1.9-2h.7v1a3.6 3.6 0 0 0-.5 0c-.7 0-1 .3-1 1v.8h1.4v1h-1.4v6h-1.1Zm6 .1c-2 0-3.3-1.4-3.3-3.6s1.3-3.6 3.2-3.6c2 0 3.2 1.4 3.2 3.6s-1.3 3.6-3.2 3.6Zm0-1c1.2 0 2-1 2-2.6s-.8-2.6-2-2.6c-1.3 0-2 1-2 2.6s.7 2.6 2 2.6Zm4.3.9v-7h1.2v1.2c.2-.8.8-1.3 1.6-1.3h.5v1.2l-.6-.1c-1 0-1.5.6-1.5 1.7v4.3h-1.2Zm7 2.3v-9.3h1.2v1.2c.5-.8 1.2-1.3 2.2-1.3 1.8 0 3 1.4 3 3.6s-1.2 3.6-3 3.6c-1 0-1.7-.5-2.2-1.3v3.5h-1.2Zm3.2-3.2c1.2 0 2-1 2-2.6s-.8-2.6-2-2.6-2 1-2 2.6.8 2.6 2 2.6Zm4.4.9v-7h1.1v1.2c.3-.8.9-1.3 1.7-1.3h.4v1.2l-.6-.1c-.9 0-1.5.6-1.5 1.7v4.3h-1.1Zm6.7.1c-2 0-3.2-1.4-3.2-3.6 0-2.1 1.2-3.6 3.1-3.6s3 1.4 3 3.5v.4h-5c.1 1.4 1 2.3 2.1 2.3 1 0 1.5-.5 1.7-1v-.1h1.2c-.2 1.2-1.4 2.1-2.9 2.1Zm0-6.2c-1 0-1.9.7-2 2h3.8c-.1-1.3-.8-2-1.9-2Zm4.2 6v-6.9h1.1v1c.4-.7 1-1.1 2-1.1s1.6.5 2 1.3a2.3 2.3 0 0 1 2.1-1.3c1.4 0 2.3.9 2.3 2.3v4.8h-1.2v-4.5c0-1-.5-1.6-1.4-1.6-1 0-1.6.7-1.6 1.7v4.4h-1.2v-4.7c0-.8-.5-1.4-1.4-1.4-.9 0-1.6.8-1.6 1.7v4.4h-1.1Zm11.6-8a.7.7 0 0 1 0-1.5c.4 0 .7.3.7.7 0 .4-.3.7-.7.7Zm-.6 8v-6.9h1.2v7H149Zm5.1.2c-1.5 0-2.4-1-2.4-2.6v-4.5h1.2v4.3c0 1.2.5 1.8 1.6 1.8s1.8-.8 1.8-2v-4h1.2v6.9h-1.2v-1c-.4.6-1.1 1.1-2.2 1.1Zm4.9-.1v-7h1.1v1a2 2 0 0 1 2-1.1c1 0 1.6.5 2 1.3a2.3 2.3 0 0 1 2.1-1.3c1.4 0 2.3.9 2.3 2.3v4.8h-1.2v-4.5c0-1-.5-1.6-1.4-1.6-1 0-1.6.7-1.6 1.7v4.4h-1.1v-4.7c0-.8-.6-1.4-1.5-1.4s-1.6.8-1.6 1.7v4.4h-1.1Zm16.1.1c-1.5 0-2.3-1-2.3-2.6v-4.5h1.1v4.3c0 1.2.5 1.8 1.6 1.8 1 0 1.8-.8 1.8-2v-4h1.2v6.9h-1.2v-1c-.4.6-1.1 1.1-2.2 1.1Zm7.4 0c-1.7 0-2.7-.8-2.8-2v-.1h1.2c.1.7.6 1.1 1.6 1.1.9 0 1.5-.4 1.5-1 0-.5-.3-.8-1-1l-1.2-.2c-1.3-.3-2-1-2-2 0-1.2 1.1-2 2.6-2s2.5.9 2.6 2v.1H184c-.1-.7-.6-1.1-1.5-1.1-.8 0-1.3.4-1.3 1 0 .5.3.8 1 1l1.1.2c1.4.4 2 1 2 2 0 1.1-1.2 2-2.8 2Zm6.7 0c-2 0-3.2-1.4-3.2-3.6 0-2.1 1.3-3.6 3.1-3.6 2 0 3 1.4 3 3.5v.4h-5c.1 1.4 1 2.3 2.1 2.3 1 0 1.5-.5 1.7-1v-.1h1.2c-.2 1.2-1.4 2.1-2.9 2.1Zm0-6.2c-1 0-1.9.7-2 2h3.8c-.1-1.3-.8-2-1.9-2Zm4.2 6v-6.9h1.1v1.2c.3-.8.9-1.3 1.7-1.3h.4v1.2l-.6-.1c-.9 0-1.5.6-1.5 1.7v4.3h-1.1Zm6.6.2c-1.6 0-2.6-.8-2.7-2v-.1h1.1c.2.7.7 1.1 1.7 1.1.9 0 1.5-.4 1.5-1 0-.5-.3-.8-1-1l-1.2-.2c-1.3-.3-2-1-2-2 0-1.2 1.1-2 2.6-2s2.5.9 2.6 2v.1h-1.1c-.1-.7-.6-1.1-1.5-1.1-.8 0-1.3.4-1.3 1 0 .5.3.8 1 1l1.1.2c1.4.4 2 1 2 2 0 1.1-1.2 2-2.7 2Z"/><mask id="h" width="314" height="72" x="16" y="425" maskUnits="userSpaceOnUse" style="mask-type:luminance"><path fill="#fff" d="M329.5 425.9H17v70.3h312.5V426Z"/></mask><g mask="url(#h)"><path fill="#fff" d="M329.5 425.9H17v70.3h312.5V426Z"/><path stroke="#67B279" stroke-linecap="round" stroke-linejoin="round" d="m45.8 457.2.4.5c.5.5 1 .8 1.7 1a3.4 3.4 0 0 0 4.1-2.3 3.3 3.3 0 0 0-2.4-4 3.4 3.4 0 0 0-4.1 2.3c-.2.7-.2 1.4 0 2l.3.5Zm0 0-3.9 2.4m0 0 .2.4a3.9 3.9 0 0 1-.3 2.8m.1-3.2-.4-.7a3.5 3.5 0 0 0-3.5-1 3.3 3.3 0 0 0-2.4 4 3.4 3.4 0 0 0 4.2 2.3 3.4 3.4 0 0 0 1.6-1l.4-.4m0 0 4 2.2m0 0 .3-.5a3.4 3.4 0 0 1 1.8-1.1 3.4 3.4 0 0 1 4.1 2.3 3.3 3.3 0 0 1-2.4 4 3.4 3.4 0 0 1-4.1-2.3 3.2 3.2 0 0 1 0-1.9l.2-.5Z"/><path fill="#67B279" fill-rule="evenodd" d="M280.7 447.4a13.7 13.7 0 0 0 0 27.3h19.5a13.7 13.7 0 0 0 0-27.3h-19.5Z" clip-rule="evenodd"/><path fill="#fff" d="M300.2 473.8a12.7 12.7 0 1 0 0-25.5 12.7 12.7 0 0 0 0 25.5Z"/><path fill="#4D4D4D" d="M79.9 457.1h1.4l-4-11h-1.4l-4 11h1.4l1.1-3.1h4.4l1 3.1Zm-3.3-9.3 1.8 5h-3.6l1.8-5Zm5.8 9.3h1.3v-4.6c0-1.4.8-2.3 2-2.3 1.3 0 2 .7 2 2v5h1.2V452c0-1.8-1-3-2.7-3-1.2 0-2 .6-2.5 1.5v-1.3h-1.3v8Zm8.2 0H92v-4.6c0-1.4.8-2.3 2-2.3s1.9.7 1.9 2v5h1.3V452c0-1.8-1-3-2.8-3-1.2 0-2 .6-2.5 1.5v-1.3h-1.3v8Zm11.6.2c2.2 0 3.6-1.6 3.6-4.1 0-2.6-1.4-4.2-3.6-4.2s-3.7 1.6-3.7 4.2c0 2.5 1.5 4 3.7 4Zm0-1.2c-1.4 0-2.4-1-2.4-3 0-1.8 1-2.9 2.4-2.9s2.3 1 2.3 3c0 1.8-1 2.9-2.3 2.9Zm5.4 4c1.4 0 2.1-.6 2.8-2.4l3.1-8.5h-1.4l-2.2 6.6-2.2-6.6h-1.4l2.9 8-.2.5c-.3 1-.7 1.3-1.4 1.3h-.6v1l.6.1Zm9.1-2.8a2.9 2.9 0 0 0 2.6-1.5v1.3h1.3v-5.5c0-1.5-1.2-2.6-3-2.6-2 0-3.1 1.1-3.2 2.5h1.2c.2-.8.9-1.3 1.9-1.3 1 0 1.7.6 1.7 1.6v.6l-2.3.2c-1.8 0-2.8 1-2.8 2.3 0 1.4 1 2.4 2.6 2.4Zm.3-1.2c-1 0-1.6-.5-1.6-1.2s.6-1.2 1.7-1.3l2.1-.1v.6c0 1.2-1 2-2.2 2Zm5.2 1h1.4v-4.6c0-1.4.8-2.3 2-2.3 1.3 0 1.9.7 1.9 2v5h1.3V452c0-1.8-1-3-2.8-3-1.2 0-2 .6-2.5 1.5v-1.3h-1.3v8Zm14.9-5.3c-.2-1.4-1.4-2.8-3.4-2.8-2.2 0-3.6 1.7-3.6 4.2s1.5 4 3.7 4c1.7 0 3-1 3.3-2.6h-1.3c-.3 1-1 1.5-2 1.5-1.4 0-2.4-1-2.4-3 0-1.7 1-2.9 2.3-2.9 1.2 0 1.9.7 2 1.6h1.4Zm6.5 3c-.3.8-1 1.3-2 1.3-1.4 0-2.3-1-2.3-2.5h5.7v-.6c0-2.4-1.4-4-3.5-4-2.2 0-3.6 1.7-3.6 4.2s1.4 4 3.7 4c1.7 0 3-1 3.3-2.3h-1.3Zm-2.1-4.6c1.2 0 2 1 2 2.3h-4.2c0-1.3 1-2.3 2.2-2.3Zm4.7 1.2c0 1.1.7 1.8 2.2 2.2l1.3.3c.9.2 1.2.5 1.2 1.1 0 .7-.7 1.2-1.8 1.2s-1.7-.4-1.8-1.4H146c.1 1.5 1.3 2.5 3.1 2.5s3.1-1 3.1-2.4c0-1.1-.6-1.7-2.2-2.1l-1.2-.3c-1-.3-1.3-.6-1.3-1.2 0-.7.6-1.2 1.6-1.2s1.6.5 1.7 1.4h1.2c0-1.4-1.2-2.4-3-2.4-1.6 0-2.8 1-2.8 2.3Z"/><path fill="#888" d="M72.6 475.7v-9.6h6v1h-4.8v3.1h4.5v1.1h-4.5v3.3h4.8v1.1h-6Zm7.4 0v-7H81v1c.4-.6 1.1-1 2.2-1 1.5 0 2.4 1 2.4 2.5v4.5h-1.2v-4.3c0-1.1-.5-1.8-1.6-1.8-1 0-1.8.8-1.8 2v4.1H80Zm9.2.1c-1.4 0-2.3-.8-2.3-2 0-1.3 1-2 2.5-2l2-.2v-.6c0-.8-.5-1.4-1.5-1.4s-1.5.5-1.6 1.1h-1.1c0-1.2 1-2 2.7-2 1.6 0 2.7.8 2.7 2.2v4.8h-1.2v-1.1a2.5 2.5 0 0 1-2.2 1.2Zm-1.1-2c0 .6.5 1 1.4 1 1 0 2-.7 2-1.7v-.6l-2 .1c-.9 0-1.4.5-1.4 1.1Zm9.4 2c-1 0-1.8-.5-2.2-1.3v1.2H94v-9.6h1.2v3.8c.4-.8 1.2-1.3 2.2-1.3 1.8 0 3 1.4 3 3.6s-1.2 3.6-3 3.6Zm-.2-1c1.2 0 2-1 2-2.6s-.8-2.5-2-2.5-2 1-2 2.5c0 1.6.8 2.6 2 2.6Zm4.4 1V466h1.1v9.6h-1.1Zm5.6 0c-2 0-3.2-1.4-3.2-3.5 0-2.2 1.2-3.7 3.1-3.7 1.9 0 3 1.4 3 3.5v.4h-5c0 1.5.9 2.3 2.1 2.3.9 0 1.5-.4 1.7-1h1.2c-.3 1.1-1.4 2-3 2Zm-.1-6.2c-1 0-1.8.7-2 2h3.9c-.1-1.3-.9-2-2-2Zm6.8 6.2c-1.7 0-3-1.4-3-3.6s1.3-3.6 3-3.6c1 0 1.8.5 2.2 1.3v-3.8h1.2v9.6h-1.1v-1.2c-.5.8-1.3 1.3-2.3 1.3Zm.3-1c1.1 0 2-1 2-2.6s-.9-2.5-2-2.5c-1.3 0-2 1-2 2.5 0 1.6.7 2.6 2 2.6Zm7.9 1v-6h-1v-1h1v-.9c0-1.3.6-2 1.9-2h.7v1a3.6 3.6 0 0 0-.5 0c-.7 0-1 .3-1 1v.8h1.4v1h-1.4v6h-1.1Zm4.4-8.2a.7.7 0 0 1 0-1.5c.4 0 .7.3.7.7 0 .5-.3.8-.7.8Zm-.6 8.1v-7h1.2v7H126Zm2.8 0v-9.6h1.2v9.6h-1.2Zm5 .1c-1.3 0-1.9-.5-1.9-1.9v-4.2h-1v-1h1V467h1.2v1.8h1.3v1h-1.3v4.2c0 .8.3 1 1 1h.3v.9a5 5 0 0 1-.6 0Zm4.5 0c-2 0-3.2-1.4-3.2-3.5 0-2.2 1.3-3.7 3.2-3.7 1.9 0 3 1.4 3 3.5v.4h-5c0 1.5.8 2.3 2 2.3 1 0 1.6-.4 1.8-1h1.1c-.2 1.1-1.3 2-2.8 2Zm0-6.2c-1 0-1.8.7-2 2h3.8c0-1.3-.8-2-1.8-2Zm4.2 6.1v-7h1.2v1.2c.2-.8.8-1.3 1.6-1.3h.5v1.2a2 2 0 0 0-.7 0c-.9 0-1.4.6-1.4 1.6v4.3h-1.2Zm6.7.1c-1.7 0-2.6-.8-2.8-2v-.1h1.2c.1.8.6 1.2 1.6 1.2s1.5-.4 1.5-1-.3-.8-1-1l-1.2-.3c-1.3-.3-1.9-1-1.9-2 0-1.1 1-2 2.5-2 1.6 0 2.5 1 2.6 2v.2h-1c-.2-.8-.7-1.2-1.5-1.2-.9 0-1.4.4-1.4 1 0 .5.3.8 1 1l1.2.3c1.4.3 1.9.9 1.9 1.9 0 1.2-1.2 2-2.7 2Zm4.6-5.2a.8.8 0 0 1-.8-.7.8.8 0 1 1 1.6 0c0 .4-.4.7-.8.7Zm0 5.2a.8.8 0 0 1-.8-.8.8.8 0 1 1 1.6 0c0 .5-.4.8-.8.8Zm7.5-.1v-8.4l-2.6 1.8V468l2.6-1.8h1.2v9.6h-1.2Zm6.7-9.6-2.8 12h-1l2.7-12h1Zm5.3 9.6v-2h-4.8v-1.1l4.2-6.5h1.8v6.5h1.3v1.1h-1.3v2h-1.2Zm-3.6-3h3.6V467l-3.6 5.5Z"/></g><path fill="#67B279" d="M244 392.8c-2.4 0-3.9-1.7-3.9-4.4 0-2.5 1.5-4.2 3.8-4.2 2 0 3 1.1 3.4 2.6h-1a2.3 2.3 0 0 0-2.4-1.6c-1.7 0-2.7 1.2-2.7 3.2 0 2.1 1 3.4 2.7 3.4 1.5 0 2.5-1 2.5-2.3v-.2h-2.3v-.9h3.3v.8c0 2.2-1.3 3.6-3.5 3.6Zm7 0c-1.7 0-2.7-1.3-2.7-3.1 0-1.9 1-3.1 2.7-3.1 1.6 0 2.6 1.2 2.6 3v.3h-4.3c0 1.2.7 2 1.8 2 .7 0 1.2-.4 1.4-1h1c-.2 1-1.2 1.8-2.5 1.8Zm0-5.4c-.9 0-1.6.6-1.7 1.7h3.3c-.1-1.1-.8-1.7-1.6-1.7Zm5.5 5.3c-1 0-1.6-.5-1.6-1.6v-3.6h-.9v-.8h1V385h1v1.6h1v.8h-1v3.6c0 .6.2.8.7.8h.4v.8h-.6Zm4 2v-8h1v1a2 2 0 0 1 2-1.1c1.5 0 2.5 1.2 2.5 3 0 2-1 3.1-2.5 3.1a2.1 2.1 0 0 1-2-1v3h-1Zm2.8-2.8c1 0 1.7-.9 1.7-2.2 0-1.4-.7-2.3-1.7-2.3s-1.8 1-1.8 2.2c0 1.4.7 2.3 1.8 2.3Zm3.7.7v-6h1v1c.2-.6.7-1 1.4-1h.4v1l-.5-.1c-.8 0-1.3.5-1.3 1.5v3.6h-1Zm5.8.1c-1.7 0-2.8-1.2-2.8-3 0-1.9 1-3.1 2.7-3.1 1.6 0 2.6 1.2 2.6 3v.3H271c0 1.2.7 2 1.8 2 .7 0 1.3-.4 1.4-1h1c-.2 1-1.1 1.8-2.4 1.8Zm-.1-5.3c-.9 0-1.5.6-1.6 1.7h3.2c0-1.1-.7-1.7-1.6-1.7Zm3.6 5.2v-6h1v1c.3-.7 1-1 1.7-1 .8 0 1.4.4 1.6 1.1a2 2 0 0 1 2-1.1c1.1 0 1.9.7 1.9 2v4h-1v-3.9c0-.8-.5-1.3-1.3-1.3s-1.3.6-1.3 1.4v3.8h-1v-4c0-.7-.5-1.2-1.2-1.2-.8 0-1.4.7-1.4 1.5v3.7h-1Zm10-7a.6.6 0 1 1 0-1.2.6.6 0 0 1 0 1.3Zm-.5 7v-6h1v6h-1Zm4.4.1c-1.3 0-2-.8-2-2.2v-3.8h1v3.7c0 1 .4 1.5 1.3 1.5 1 0 1.6-.7 1.6-1.7v-3.5h1v6h-1v-1c-.4.6-1 1-2 1Zm4.1 0v-6h1v.8c.3-.6 1-1 1.7-1 .8 0 1.4.5 1.7 1.2a2 2 0 0 1 1.8-1.1c1.2 0 2 .7 2 2v4h-1v-3.9c0-.8-.5-1.3-1.2-1.3-.8 0-1.4.6-1.4 1.4v3.8h-1v-4c0-.7-.5-1.2-1.2-1.2-.8 0-1.4.7-1.4 1.5v3.7h-1Z"/><path stroke="#67B279" d="M300.2 376.5h-57.6a12.2 12.2 0 0 0 0 24.4h57.6a12.2 12.2 0 0 0 0-24.4Z"/><path fill="#888" d="M84.6 114v-9.5l-3 2v-1.4l3-2H86v11h-1.4Zm7 0v-9.5l-3 2v-1.4l3-2h1.3v11h-1.3Zm7.3 0v-.9l3.9-4c1.4-1.6 1.8-2.2 1.8-3v-.1c0-1.1-.9-2-2-2-1.4 0-2.5 1-2.5 2.2h-1.3c0-2 1.7-3.3 3.7-3.3s3.5 1.3 3.5 3c0 1.2-.6 2.2-2.6 4.2l-2.6 2.7h5.3v1.3H99Zm12.5.2c-2.2 0-3.7-1.2-3.9-3h1.4c0 1.1 1 1.9 2.5 1.9s2.5-.8 2.5-2c0-1.4-1-2.1-2.5-2.1H110v-1.2h1.3c1.3 0 2.2-.8 2.2-2 0-1-.7-1.7-2-1.7-1.4 0-2.3.6-2.4 1.8h-1.3c.2-1.8 1.6-3 3.6-3 2.1 0 3.5 1.1 3.5 2.8 0 1.4-1 2.3-2.3 2.6 1.6.2 2.7 1.2 2.7 2.7 0 1.9-1.6 3.3-3.9 3.3Zm9.4 0c-2.1 0-3.6-1.3-3.8-3v-.1h1.3c.2 1.1 1.2 2 2.5 2 1.5 0 2.5-1.1 2.5-2.6a2.4 2.4 0 0 0-2.5-2.5c-.7 0-1.4.2-1.9.7a3 3 0 0 0-.5.6h-1.2l.6-6.2h6.3v1.2h-5.2l-.4 3.7c.6-.8 1.5-1.2 2.6-1.2a3.5 3.5 0 0 1 3.6 3.7c0 2.2-1.6 3.8-4 3.8Zm11.8 0c-2.3 0-3.7-1.6-3.7-4 0-2.5 1.4-4.2 3.6-4.2s3.5 1.6 3.5 4v.4h-5.8c0 1.7 1 2.6 2.4 2.6 1 0 1.7-.5 2-1.2h1.3c-.3 1.4-1.6 2.4-3.3 2.4Zm-.1-7c-1.2 0-2 .7-2.2 2.2h4.3c-.1-1.5-1-2.3-2.1-2.3Zm4.8 6.9v-8h1.3v1.2c.5-.8 1.3-1.3 2.5-1.3 1.8 0 2.8 1.1 2.8 3v5h-1.4v-4.9c0-1.3-.6-2-1.8-2-1.2 0-2 1-2 2.3v4.7h-1.4Zm10.6.1c-1.6 0-2.7-1-2.7-2.4 0-1.3 1-2.2 3-2.3l2.2-.1v-.7c0-1-.6-1.5-1.8-1.5-1 0-1.6.4-1.8 1.2h-1.3c.2-1.4 1.3-2.4 3.2-2.4 1.8 0 3 1 3 2.6v5.5h-1.3v-1.3a2.8 2.8 0 0 1-2.5 1.4Zm-1.3-2.4c0 .8.6 1.3 1.6 1.3 1.2 0 2.2-.9 2.2-2v-.7l-2.1.1c-1.1 0-1.7.6-1.7 1.3Zm10.7 2.4a2.8 2.8 0 0 1-2.5-1.5v1.4h-1.3v-11h1.3v4.4a2.8 2.8 0 0 1 2.6-1.5c2 0 3.3 1.6 3.3 4s-1.3 4.2-3.4 4.2Zm-.2-1.2c1.4 0 2.3-1 2.3-3 0-1.7-1-2.8-2.3-2.8-1.3 0-2.3 1.1-2.3 2.9 0 1.8 1 3 2.3 3Zm5 1v-11h1.4v11H162Zm6.4.2c-2.3 0-3.6-1.6-3.6-4 0-2.5 1.3-4.2 3.5-4.2s3.5 1.6 3.5 4v.5h-5.7c0 1.6 1 2.6 2.3 2.6 1 0 1.7-.6 2-1.2v-.1h1.3c-.3 1.4-1.6 2.4-3.3 2.4Zm0-7c-1.2 0-2.1.7-2.3 2.2h4.4c-.2-1.5-1-2.3-2.2-2.3Zm7.7 7c-2 0-3.3-1.6-3.3-4.1 0-2.5 1.3-4.1 3.3-4.1 1.1 0 2 .5 2.6 1.4V103h1.3v11h-1.3v-1.3c-.6 1-1.4 1.5-2.6 1.5Zm.3-1.2c1.3 0 2.3-1.1 2.3-3 0-1.7-1-2.9-2.3-2.9-1.4 0-2.3 1.2-2.3 3s.9 3 2.3 3Zm9 1v-6.8h-1v-1h1v-1c0-1.6.8-2.3 2.2-2.3h.8v1.1a4.3 4.3 0 0 0-.5 0c-.8 0-1.1.4-1.1 1.2v1h1.6v1h-1.6v6.9h-1.4Zm5.1-9.2a.8.8 0 0 1 0-1.7c.5 0 .8.4.8.9 0 .4-.3.8-.8.8Zm-.7 9.3v-8h1.4v8h-1.4Zm3.2 0v-11h1.4v11h-1.3Zm5.7.1c-1.4 0-2.1-.6-2.1-2.2v-4.8h-1.2v-1h1.2V104h1.3v2.1h1.6v1.1H198v4.8c0 .9.4 1.1 1.1 1.1h.5v1l-.8.1Zm5.2 0c-2.3 0-3.6-1.6-3.6-4 0-2.5 1.4-4.2 3.5-4.2s3.5 1.6 3.5 4v.4h-5.7c0 1.7 1 2.6 2.4 2.6 1 0 1.7-.5 1.9-1.2h1.3c-.2 1.4-1.5 2.4-3.3 2.4Zm0-7c-1.2 0-2.1.7-2.3 2.2h4.4c-.2-1.5-1-2.3-2.2-2.3Zm4.8 6.9v-8h1.3v1.4c.3-1 1-1.5 1.9-1.5h.5v1.3h-.7c-1 0-1.7.7-1.7 1.9v4.9h-1.3Zm5.5-9.3a.8.8 0 0 1 0-1.7c.5 0 .9.4.9.9 0 .4-.4.8-.9.8Zm-.6 9.3v-8h1.3v8h-1.3Zm3.1 0v-8h1.3v1.2c.5-.8 1.3-1.3 2.5-1.3 1.7 0 2.7 1.1 2.7 3v5H222v-4.9c0-1.3-.6-2-1.8-2-1.3 0-2 1-2 2.3v4.7h-1.4Zm11.6 2.8c-2 0-3.2-1-3.5-2.1h1.4c.2.6 1 1 2 1 1.5 0 2.3-.9 2.3-2v-1.1a2.8 2.8 0 0 1-2.6 1.4c-2 0-3.3-1.6-3.3-4 0-2.5 1.3-4.1 3.4-4.1 1 0 2 .6 2.4 1.5V106h1.4v7.8c0 1.8-1.3 3-3.5 3Zm0-4c1.3 0 2.2-1 2.2-2.9s-1-2.9-2.3-2.9c-1.4 0-2.3 1.2-2.3 3 0 1.7 1 2.9 2.3 2.9Zm8.4 1.2v-8h1.4v1.4c.3-1 1-1.5 1.8-1.5h.6v1.3a2.7 2.7 0 0 0-.7 0c-1 0-1.7.7-1.7 1.9v4.9h-1.4Zm7.6.1c-1.8 0-2.8-1.1-2.8-3v-5h1.3v4.8c0 1.3.6 2 1.9 2 1.2 0 2-.9 2-2.2v-4.7h1.4v8h-1.4v-1.2c-.4.8-1.2 1.3-2.4 1.3Zm5.6-.1v-11h1.3v11H250Zm6.4.1c-2.3 0-3.7-1.6-3.7-4 0-2.5 1.4-4.2 3.6-4.2s3.5 1.6 3.5 4v.4H254c0 1.7 1 2.6 2.4 2.6 1 0 1.7-.5 2-1.2h1.3c-.3 1.4-1.6 2.4-3.4 2.4Zm-.1-7c-1.2 0-2 .7-2.3 2.2h4.4c-.1-1.5-1-2.3-2.1-2.3Zm7.6 7c-1.9 0-3-1-3.1-2.4h1.3c.1.8.7 1.3 1.8 1.3 1 0 1.7-.4 1.7-1.2 0-.5-.3-.9-1.2-1l-1.2-.4c-1.5-.3-2.2-1-2.2-2.2 0-1.4 1.2-2.3 2.9-2.3s2.8 1 3 2.3v.1h-1.3c-.2-.8-.7-1.3-1.7-1.3s-1.6.4-1.6 1.1c0 .6.4 1 1.2 1.2l1.3.3c1.6.4 2.2 1 2.2 2.1 0 1.4-1.3 2.4-3 2.4Z"/><path fill="#4D4D4D" d="M151 67.2V53.4h8.4v1.5h-6.7v4.8h6.1v1.5h-6v6H151Zm11-11.6a1 1 0 0 1 0-2.1c.6 0 1 .4 1 1s-.4 1-1 1Zm-.8 11.6v-10h1.6v10h-1.6Zm4 0V53.4h1.6v13.8h-1.6Zm7.1.2c-1.8 0-2.7-.9-2.7-2.8v-6H168v-1.4h1.5v-2.7h1.7v2.7h1.9v1.4h-1.9v6c0 1 .5 1.4 1.4 1.4h.5v1.3h-.9Zm6.5 0c-2.9 0-4.6-2-4.6-5.2 0-3 1.8-5.2 4.5-5.2s4.3 2 4.3 5v.6H176c0 2 1.1 3.3 3 3.3 1.2 0 2-.7 2.3-1.5h1.7c-.3 1.6-2 3-4.1 3Zm-.1-8.9c-1.5 0-2.6 1-2.8 2.8h5.4c-.1-1.9-1.2-2.8-2.6-2.8Zm6 8.7v-10h1.7V59c.3-1.1 1.2-1.9 2.3-1.9l.7.1v1.6h-1c-1.2 0-2 .8-2 2.3v6.2h-1.7Zm9.6.2c-2.4 0-3.8-1.2-4-3v-.1h1.7c.2 1 1 1.7 2.3 1.7 1.3 0 2.1-.6 2.1-1.5 0-.7-.4-1.1-1.5-1.4l-1.6-.4c-1.8-.4-2.7-1.3-2.7-2.7 0-1.8 1.5-3 3.6-3 2.2 0 3.6 1.3 3.7 3h-1.6c-.1-1-.9-1.6-2-1.6-1.3 0-2 .6-2 1.5 0 .7.4 1.1 1.5 1.4l1.6.4c2 .5 2.7 1.3 2.7 2.7 0 1.7-1.6 3-3.8 3Z" opacity=".9"/></g></g><path fill="#fff" d="M30.1 36.5a9.6 9.6 0 0 1 9.7-8.8l271 1.5a8.9 8.9 0 0 1 0 17.7H39.6a9.6 9.6 0 0 1-9.6-10.4Z"/></g></g><defs><clipPath id="a"><path fill="#fff" d="M0 0h348v480H0z"/></clipPath><clipPath id="c"><rect width="312.6" height="619.7" x="17.9" y="16.3" fill="#fff" rx="20"/></clipPath></defs></svg>