<svg xmlns="http://www.w3.org/2000/svg" width="360" height="480" fill="none"><g clip-path="url(#a)"><mask id="b" width="360" height="480" x="0" y="0" maskUnits="userSpaceOnUse" style="mask-type:luminance"><path fill="#fff" d="M360 0H0v480h360V0Z"/></mask><g mask="url(#b)"><path fill="#D8D8D8" d="M1.6 80c0-35.7 0-53.5 10-65.3a42 42 0 0 1 4.7-4.6C28 0 45.7 0 81.1 0h193.8c35.4 0 53 0 64.8 10 1.7 1.5 3.2 3 4.7 4.7 10 11.8 10 29.6 10 65.2v624.7c0 35.6 0 53.4-10 65.2a42 42 0 0 1-4.7 4.7c-11.7 10-29.4 10-64.8 10H81.1c-35.4 0-53 0-64.8-10-1.7-1.5-3.2-3-4.6-4.7-10-11.8-10-29.6-10-65.2V80Z"/><mask id="c" width="360" height="786" x="0" y="0" maskUnits="userSpaceOnUse" style="mask-type:luminance"><path fill="#fff" d="M360 0H0v785.3h360V0Z"/></mask><g mask="url(#c)"><path fill="#D8D8D8" d="M315.8 0H41C18.8 0 .9 18.1.9 40.4V745c0 22.3 17.9 40.4 40 40.4h275c22 0 40-18 40-40.4V40.4C356 18.1 338 0 316 0Z"/><path fill="#F3F3F3" d="M313.1 3.3H43.6C22 3.3 4.3 21.3 4.3 43.5V745a39.8 39.8 0 0 0 39.3 40.3h269.5c21.7 0 39.3-18 39.3-40.3V43.5A39.8 39.8 0 0 0 313 3.3Z"/><path fill="#D8D8D8" d="M355.6 256.3h1.7c1 0 1.6.6 1.6 1.2V332c0 .6-.7 1.2-1.6 1.2h-1.7v-76.8Zm0-50.6h1.7c1 0 1.6-.5 1.6-1.2V184c0-.6-.7-1.1-1.6-1.1h-1.7v22.8Z" opacity=".5"/><path fill="#D8D8D8" d="M255.6 29.4H101.1c-1.5 0-2.8 1.5-2.8 3.3 0 1.7 1.3 3.2 2.8 3.2h154.5c1.5 0 2.8-1.4 2.8-3.2 0-1.9-1.3-3.3-2.8-3.3Z" opacity=".8"/><path fill="#fff" d="M325.2 63.7H32.4a16 16 0 0 0-16 16v609.7a16 16 0 0 0 16 16h292.8a16 16 0 0 0 16-16V79.7a16 16 0 0 0-16-16Z"/><path stroke="#67B279" stroke-linecap="round" d="M272.1 170.9h25.1v24.8m0 186.5v24.9h-25M83.7 170.9h-25v24.8m0 186.5v24.9h25"/><mask id="d" width="326" height="577" x="16" y="63" maskUnits="userSpaceOnUse" style="mask-type:luminance"><path fill="#fff" d="M325.2 63.7H32.4a16 16 0 0 0-16 16v544.1a16 16 0 0 0 16 16h292.8a16 16 0 0 0 16-16V79.7a16 16 0 0 0-16-16Z"/></mask><g mask="url(#d)"><mask id="e" width="326" height="577" x="16" y="39" maskUnits="userSpaceOnUse" style="mask-type:luminance"><path fill="#fff" d="M341.2 39.2H16.4v576.1h324.8V39.2Z"/></mask><g mask="url(#e)"><path fill="#fff" d="M341.2 39.2H16.4v576.1h324.8V39.2Z"/><path fill="#4CB050" fill-rule="evenodd" d="M341.2 39.2H16.4v72h324.8v-72Z" clip-rule="evenodd"/><path fill="url(#f)" d="M341.2 111.2H16.4v3.6h324.8v-3.6Z" opacity=".1"/><path fill="#fff" d="m73.2 83-3.8 11.1H67L72 81.3h1.4l-.1 1.7Zm3.2 11.1L72.6 83l-.2-1.7h1.5l4.8 12.8h-2.3Zm-.2-4.8v1.8h-7v-1.8h7Zm7.7 4.8h-2.7v-1.8h2.7c.8 0 1.4-.1 2-.5s1-.8 1.2-1.5c.3-.6.4-1.4.4-2.3v-.7c0-.6 0-1.3-.2-1.8a3.6 3.6 0 0 0-.7-1.3c-.3-.4-.7-.7-1.1-.9a3.8 3.8 0 0 0-1.5-.2h-3v-1.8h3a6 6 0 0 1 2.3.4 5.2 5.2 0 0 1 3 3.2c.3.7.4 1.5.4 2.5v.6c0 1-.1 1.8-.4 2.5a5.3 5.3 0 0 1-3 3.2c-.7.3-1.5.4-2.4.4Zm-1.5-12.8v12.8h-2.2V81.3h2.2Zm19.4 6.3v4.9l-.8.7-1.6.8a8 8 0 0 1-4.5-.1 4.8 4.8 0 0 1-1.8-1.2 5.5 5.5 0 0 1-1.1-2 8 8 0 0 1-.4-2.6v-.9c0-1 .1-1.8.4-2.5.2-.8.6-1.4 1-2a4.4 4.4 0 0 1 1.7-1.2 5.6 5.6 0 0 1 2.2-.4 5.7 5.7 0 0 1 2.6.5c.7.4 1.2.9 1.6 1.5.4.6.6 1.3.7 2h-2.2a3.4 3.4 0 0 0-.4-1.1 2.1 2.1 0 0 0-.8-.8 3 3 0 0 0-1.5-.3c-.5 0-1 0-1.3.2-.4.2-.7.5-1 .9-.3.4-.4.8-.6 1.4l-.2 1.8v1l.3 1.8c.1.5.3 1 .6 1.4.3.4.7.6 1 .8l1.5.3 1.2-.1a2.4 2.4 0 0 0 1.2-.7v-2.5H97v-1.6h5Zm9.7-6.3h2.2v8.6a4 4 0 0 1-2.4 3.9 5.8 5.8 0 0 1-2.4.5 5.9 5.9 0 0 1-2.5-.5 4 4 0 0 1-1.7-1.5 4.5 4.5 0 0 1-.6-2.5v-8.5h2.2v8.6c0 .6 0 1 .3 1.5.2.4.5.7.9.8.4.2.8.3 1.4.3.5 0 1 0 1.3-.3.4-.1.7-.4 1-.8.1-.4.3-1 .3-1.6v-8.5Zm9.4 1.7L117 94.1h-2.3l4.8-12.8h1.5L121 83Zm3.2 11.1L120.2 83l-.1-1.7h1.5l4.8 12.8h-2.3Zm-.2-4.8v1.8h-7v-1.8h7Zm4-8h4.5c1 0 1.8.1 2.5.4.6.3 1.2.8 1.5 1.3.4.6.6 1.3.6 2.1 0 .7-.1 1.2-.4 1.7-.2.5-.5 1-1 1.3a4.8 4.8 0 0 1-1.5.7l-.7.4h-4v-1.8h3c.5 0 1 0 1.3-.3.4-.2.6-.4.8-.7.2-.4.3-.7.3-1.1 0-.5-.1-.9-.3-1.2a1.7 1.7 0 0 0-.8-.8 3 3 0 0 0-1.3-.2H130v11h-2.2V81.3Zm7.3 12.8-3-5.8h2.3l3 5.7v.1h-2.3Zm7.7 0h-2.7v-1.8h2.7c.8 0 1.5-.1 2-.5s1-.8 1.2-1.5c.3-.6.4-1.4.4-2.3v-.7c0-.6 0-1.3-.2-1.8a3.6 3.6 0 0 0-.7-1.3c-.3-.4-.6-.7-1-.9a3.8 3.8 0 0 0-1.6-.2h-2.9v-1.8h2.9c.8 0 1.6.1 2.3.4a5.5 5.5 0 0 1 3 3.1c.3.8.5 1.6.5 2.6v.6c0 1-.2 1.8-.4 2.5a5.3 5.3 0 0 1-3 3.2c-.8.3-1.6.4-2.5.4Zm-1.5-12.8v12.8h-2.2V81.3h2.2Z"/><path stroke="#fff" stroke-linecap="round" d="M310.5 81.5c3.3-4.7 12.2-3.2 12.6 4.5v1.4m-1.8 3.1c-3.2 4.7-12.2 3.1-12.6-4.5v-.9"/><path stroke="#fff" stroke-linecap="round" stroke-linejoin="round" d="m325 86-1.9 1.8-1.8-1.8M307 86l1.8-1.8 1.8 1.8"/><path stroke="#fff" stroke-linecap="round" d="M34.4 86h14.4m-14.4-4.5h14.4m-14.4 9h14.4"/><path fill="#4D4D4D" d="M35.5 130.4v9.6h-1.3v-9.6h1.3Zm3 0v1h-7.4v-1h7.5Zm2.5-.5V140h-1.2V130H41Zm-.3 6.3h-.5c0-.5.1-1 .3-1.4 0-.4.3-.8.6-1a2.7 2.7 0 0 1 2-1h1l.7.5.5.8.1 1.2v4.7h-1.2v-4.7c0-.4 0-.7-.2-.9a1 1 0 0 0-.4-.5l-.8-.1a1.8 1.8 0 0 0-1.5.7 2.6 2.6 0 0 0-.6 1.7Zm7.9-3.3v7.1h-1.2v-7.1h1.2Zm-1.3-2c0-.1 0-.3.2-.4 0-.2.3-.2.5-.2s.4 0 .5.2c.2.1.2.3.2.5l-.2.5-.5.2-.5-.2a.7.7 0 0 1-.2-.5Zm7.4 7.2-.1-.5a1 1 0 0 0-.5-.4 3.8 3.8 0 0 0-1-.3 7 7 0 0 1-1.1-.3 3.3 3.3 0 0 1-.8-.4 1.6 1.6 0 0 1-.7-1.4c0-.3 0-.5.2-.8l.5-.6c.3-.2.5-.4.9-.5a3.4 3.4 0 0 1 1-.2c.6 0 1.1.1 1.5.3.4.2.7.5 1 .9a2 2 0 0 1 .3 1h-1.3l-.1-.5a1.3 1.3 0 0 0-.5-.5l-.9-.2-.8.2a1 1 0 0 0-.5 1.3l.2.2.5.3.9.2a6.7 6.7 0 0 1 1.4.5c.4.1.7.4.9.6.2.3.2.7.2 1a1.9 1.9 0 0 1-.7 1.6 2.8 2.8 0 0 1-.9.4 4 4 0 0 1-1.1.1c-.6 0-1.2 0-1.6-.3a2.5 2.5 0 0 1-1-.9 2 2 0 0 1-.3-1h1.2c0 .2 0 .5.3.7.1.2.4.3.6.4a2.6 2.6 0 0 0 1.6 0c.2 0 .4-.2.5-.4a.8.8 0 0 0 .2-.5Zm10.4.7V135l-.1-.7a1.1 1.1 0 0 0-.5-.5l-.9-.2a2 2 0 0 0-.8.2c-.2 0-.4.2-.5.4a1 1 0 0 0-.2.5h-1.3l.2-.7.6-.7 1-.5a3.9 3.9 0 0 1 2.5.1c.4.2.7.4.9.8.2.4.3.8.3 1.3v3.4l.1.7.2.7v.1h-1.3a4.5 4.5 0 0 1-.2-1.2Zm.2-3.1v.8h-1.2l-1 .1a2 2 0 0 0-.6.3 1.1 1.1 0 0 0-.6 1c0 .2 0 .4.2.6 0 .2.2.3.4.4l.8.2a2 2 0 0 0 1.7-.9l.2-.6.6.6-.3.6a3 3 0 0 1-1.4 1.1c-.3.2-.6.2-1 .2-.5 0-.9 0-1.3-.2a2 2 0 0 1-1.1-1.9c0-.4 0-.7.2-1l.7-.7a3 3 0 0 1 1-.5l1.3-.1h1.4Zm4.2-1.5v8.5h-1.2V133h1l.2 1.3Zm4.8 2.2v.1c0 .5 0 1-.2 1.5l-.5 1.1c-.3.3-.5.6-.9.8a3 3 0 0 1-2.4 0 2.4 2.4 0 0 1-.9-.6 3.4 3.4 0 0 1-.5-1l-.3-1.4v-.8c0-.5.1-1 .3-1.4l.5-1c.3-.3.6-.6 1-.7.3-.2.7-.3 1.1-.3.5 0 .9.1 1.2.3l.9.7.5 1.2.2 1.5Zm-1.2.1v-.1l-.1-1-.4-.9a1.7 1.7 0 0 0-1.4-.7 1.7 1.7 0 0 0-1.4.6c-.2.1-.3.3-.4.6l-.2.7v1.7c0 .3.2.6.3.8l.7.7c.2.2.6.2 1 .2.3 0 .6 0 .8-.2.3-.1.5-.3.6-.5l.4-.9v-1Zm4-2.3v8.5h-1.2V133h1l.2 1.3Zm4.8 2.2v.1c0 .5 0 1-.2 1.5l-.5 1.1-.9.8a3 3 0 0 1-2.4 0 2.4 2.4 0 0 1-.9-.6 3.3 3.3 0 0 1-.5-1l-.3-1.4v-.8c0-.5.1-1 .3-1.4l.5-1c.3-.3.6-.6 1-.7.3-.2.7-.3 1.1-.3.5 0 .9.1 1.2.3l.9.7c.3.3.4.7.5 1.2l.2 1.5Zm-1.2.1v-.1l-.1-1-.4-.9a1.7 1.7 0 0 0-1.4-.7 1.7 1.7 0 0 0-1.4.6c-.2.1-.3.3-.4.6l-.2.7v1.7c0 .3.2.6.3.8l.7.7c.2.2.6.2 1 .2.3 0 .6 0 .8-.2.3-.1.5-.3.6-.5l.4-.9v-1Zm8 2.2 1.8-5.8h.8L91 134l-1.9 6h-.7l.1-1.3Zm-1.3-5.8 1.6 6v1.1h-.8l-2-7.1h1.2Zm5.6 5.9 1.5-6h1.2l-2 7.2h-.9l.2-1.2Zm-1.5-6 1.8 5.8.2 1.4h-.8l-2-6-.1-1.1h.9Zm5.2 3.7v-.1c0-.6 0-1 .2-1.5.1-.4.4-.8.7-1.1a2.9 2.9 0 0 1 1-.8 3.3 3.3 0 0 1 2.7 0l1 .8.7 1.1.2 1.5v.1c0 .5 0 1-.2 1.4-.2.5-.4.9-.7 1.2a3 3 0 0 1-2.4 1 3 3 0 0 1-3-2.2 4.4 4.4 0 0 1-.2-1.4Zm1.2-.1v.1l.1 1 .4.9c.2.3.4.4.6.5.3.2.6.2 1 .2.3 0 .6 0 .8-.2l.6-.5.4-.9.2-1v-.1c0-.4 0-.7-.2-1 0-.3-.2-.6-.4-.9a1.8 1.8 0 0 0-1.5-.8l-.9.3a1.9 1.9 0 0 0-.6.5l-.4.9-.1 1Zm8-2.4v6h-1.2v-7.1h1.2v1.1Zm2.3-1.2v1.2h-.6a2 2 0 0 0-.8 0l-.5.4-.4.6-.2.7-.3.2.1-1.2.4-1 .7-.7a2 2 0 0 1 1.6-.2Zm2.3-3V140h-1.2V130h1.2Zm4.4 3-3.1 3.4-1.8 1.8v-1.3l1.2-1.5 2.2-2.3h1.5Zm-1.1 7.2-2.6-3.4.7-1 3.3 4.4h-1.4Zm6.5-1.9v-.5a1 1 0 0 0-.6-.4 3.8 3.8 0 0 0-1-.3 7 7 0 0 1-1.1-.3 3.3 3.3 0 0 1-.8-.4 1.6 1.6 0 0 1-.7-1.4c0-.3 0-.5.2-.8l.5-.6c.3-.2.5-.4.9-.5l1-.2c.6 0 1.1.1 1.5.3.4.2.7.5 1 .9.2.3.3.7.3 1h-1.3l-.1-.5a1.3 1.3 0 0 0-.5-.5l-.9-.2a2 2 0 0 0-.8.2 1 1 0 0 0-.5 1.2l.2.3.6.3.8.2a6.7 6.7 0 0 1 1.4.5c.4.1.7.4.9.6.2.3.2.6.2 1a1.9 1.9 0 0 1-.7 1.5 2.8 2.8 0 0 1-.9.5 4 4 0 0 1-1.1.1c-.7 0-1.2 0-1.6-.3a2.5 2.5 0 0 1-1-.9 2 2 0 0 1-.3-1h1.2c0 .2.1.5.3.7l.6.4a2.6 2.6 0 0 0 1.6 0c.3 0 .4-.2.6-.4a.8.8 0 0 0 .1-.5Zm7.5-5.2v7.1h-1.2V133h1.2Zm-1.3-2c0-.1 0-.3.2-.4.1-.2.3-.2.5-.2.3 0 .4 0 .6.2s.2.3.2.5l-.2.5-.6.2-.5-.2a.7.7 0 0 1-.2-.5Zm4.5 3.5v5.6h-1.2v-7.1h1.2v1.5Zm-.3 1.8h-.5l.2-1.4.6-1a2.6 2.6 0 0 1 2.1-1h1l.7.5.5.8.1 1.2v4.7h-1.2v-4.7c0-.4 0-.7-.2-.9a1 1 0 0 0-.4-.5l-.8-.1a1.8 1.8 0 0 0-1.5.7 2.6 2.6 0 0 0-.6 1.7Zm15.3 1.4-.1-.6a1.1 1.1 0 0 0-.4-.5 3 3 0 0 0-.7-.4 9.9 9.9 0 0 0-1.1-.4l-1.3-.5a4.5 4.5 0 0 1-1-.6 2.2 2.2 0 0 1-.9-1.7 2.3 2.3 0 0 1 1-1.9l1-.5c.4-.2.8-.2 1.3-.2.7 0 1.4.1 1.9.4.5.3.9.6 1.1 1 .3.5.4 1 .4 1.5H146c0-.4 0-.7-.2-1a1.6 1.6 0 0 0-.7-.6c-.3-.2-.7-.3-1.2-.3-.4 0-.8 0-1.1.2l-.7.6-.2.8c0 .2 0 .4.2.5 0 .2.2.3.4.5l.7.4 1 .3 1.4.5 1 .7.5.8c.2.3.2.6.2 1a2.3 2.3 0 0 1-.9 1.8c-.3.3-.6.4-1 .6a5 5 0 0 1-2.7 0 4 4 0 0 1-1.2-.6 2.5 2.5 0 0 1-1.2-2.2h1.3a1.7 1.7 0 0 0 .7 1.5l.8.3a3.7 3.7 0 0 0 2 0l.7-.6c.2-.2.3-.5.3-.8Zm6.9 1.2V135c0-.3 0-.5-.2-.7a1.1 1.1 0 0 0-.5-.5l-.8-.2a2 2 0 0 0-.8.2c-.3 0-.4.2-.6.4a.9.9 0 0 0-.2.5h-1.2c0-.2 0-.5.2-.7.1-.3.3-.5.6-.7.2-.2.5-.4.9-.5a4 4 0 0 1 1.2-.2c.5 0 1 .1 1.3.3.4.2.7.4 1 .8.2.4.3.8.3 1.3v4.1l.3.7v.1H153a4.4 4.4 0 0 1-.2-1.2Zm.2-3.1v.8H152l-1 .1-.6.3c-.2 0-.4.2-.5.4a1.3 1.3 0 0 0 0 1.2l.5.4.8.2a2 2 0 0 0 1.6-.8l.3-.7.5.6c0 .2 0 .4-.2.6a3 3 0 0 1-1.4 1.1c-.3.2-.6.2-1 .2-.5 0-1 0-1.3-.2a2 2 0 0 1-1.1-1.9 2 2 0 0 1 .8-1.7 3 3 0 0 1 1-.5l1.4-.1h1.4Zm4.2-1.4v5.7H156V133h1.2v1.4Zm-.3 1.9h-.6l.2-1.4c.2-.4.3-.8.6-1 .2-.4.5-.6.9-.8a3 3 0 0 1 2.2-.1 1.9 1.9 0 0 1 1.2 1.2l.2 1.1v4.8h-1.3v-4.7c0-.4 0-.7-.2-.9a1.1 1.1 0 0 0-.5-.5 2 2 0 0 0-.8-.1c-.4 0-.7 0-.9.2-.3 0-.4.3-.6.5l-.3.8-.1.9Zm4.6-.7-.8.2a3.3 3.3 0 0 1 .8-2c.2-.3.5-.5.9-.7a3.1 3.1 0 0 1 2.2-.1 1.9 1.9 0 0 1 1.2 1.3l.2 1.1v4.7h-1.3v-4.7c0-.4 0-.7-.2-1a1 1 0 0 0-.5-.4 2.1 2.1 0 0 0-1.5 0l-.5.4-.4.5v.7Zm10.5 2.6-.1-.5a1 1 0 0 0-.5-.4 3.8 3.8 0 0 0-1-.3l-1.1-.3a3.2 3.2 0 0 1-.9-.4 1.7 1.7 0 0 1-.5-.6 1.8 1.8 0 0 1 0-1.6l.6-.6.8-.5a3.4 3.4 0 0 1 1.1-.2c.6 0 1 .1 1.5.3.4.2.7.5.9.9a2 2 0 0 1 .3 1H172c0-.1 0-.3-.2-.5a1.3 1.3 0 0 0-.5-.5l-.8-.2a2 2 0 0 0-.8.2 1 1 0 0 0-.6 1.2l.3.3.5.3.8.2 1.5.5.8.6c.2.3.3.6.3 1a1.9 1.9 0 0 1-.8 1.5 2.8 2.8 0 0 1-.8.5 4 4 0 0 1-1.2.1c-.6 0-1.1 0-1.6-.3a2.5 2.5 0 0 1-1-.9 2 2 0 0 1-.3-1h1.2c0 .2.1.5.3.7l.7.4a2.6 2.6 0 0 0 1.6 0c.2 0 .4-.2.5-.4a.8.8 0 0 0 .2-.5Zm7.2.3v-5.5h1.2v7.1h-1.2v-1.6Zm.2-1.5h.5l-.1 1.3-.5 1c-.2.3-.5.5-.9.7-.3.2-.8.2-1.3.2a2.9 2.9 0 0 1-1-.1 2 2 0 0 1-1.2-1.3 4 4 0 0 1-.1-1.2v-4.6h1.2V138.3l.4.5.4.2a2.2 2.2 0 0 0 1.7-.2c.3-.2.6-.5.7-.8l.2-1.1Zm4-2.5v5.6h-1.1v-7.1h1.1v1.5Zm-.2 1.8h-.5c0-.5 0-1 .2-1.4.1-.4.3-.8.6-1a2.6 2.6 0 0 1 2-1h1l.8.5.4.8.2 1.2v4.7h-1.2v-4.7c0-.4 0-.7-.2-.9a1 1 0 0 0-.5-.5l-.8-.1a1.8 1.8 0 0 0-1.4.7 2.6 2.6 0 0 0-.6 1.7Zm11.2-3.3h1v7a3 3 0 0 1-.3 1.6 2.5 2.5 0 0 1-1 1 3.4 3.4 0 0 1-2.5.2c-.3 0-.7-.2-1-.4a2.5 2.5 0 0 1-.8-.7l.6-.7 1 .7 1 .2c.4 0 .7 0 1-.2l.6-.6c.2-.3.3-.7.3-1v-7.1Zm-5 3.6v-.1c0-.6.1-1 .3-1.5 0-.5.3-.8.5-1.2a2.5 2.5 0 0 1 2-1c.5 0 1 .1 1.2.3.4.1.7.4 1 .7l.5 1 .3 1.4v.6c0 .6-.2 1-.3 1.5l-.6 1c-.2.3-.5.5-.9.7a2.9 2.9 0 0 1-2.3 0 2.7 2.7 0 0 1-.9-.8 3.6 3.6 0 0 1-.6-1.1 5 5 0 0 1-.1-1.5Zm1.3-.1v1.1l.4.8.6.6.9.2c.4 0 .7 0 1-.3l.6-.6.4-1v-1.5a3.2 3.2 0 0 0-.6-1.3 1.6 1.6 0 0 0-.6-.5 2 2 0 0 0-1.7 0l-.6.6-.3.9-.1 1Zm14.2 2.4V135l-.1-.7a1.1 1.1 0 0 0-.5-.5l-.9-.2a2 2 0 0 0-.8.2c-.2 0-.4.2-.5.4a.9.9 0 0 0-.2.5h-1.3l.2-.7.6-.7 1-.5a3.9 3.9 0 0 1 2.5.1c.4.2.7.4.9.8.2.4.3.8.3 1.3v3.3l.1.8.2.7v.1h-1.3a4.5 4.5 0 0 1-.2-1.2Zm.2-3.1v.8H204l-1 .1a2 2 0 0 0-.6.3 1 1 0 0 0-.4.4 1.3 1.3 0 0 0 0 1.2c0 .2.2.3.4.4l.8.2a2 2 0 0 0 1.7-.9l.2-.6.6.6-.3.6a3 3 0 0 1-1.3 1.1c-.3.2-.7.2-1 .2-.6 0-1 0-1.4-.2a2 2 0 0 1-1.1-1.9c0-.4 0-.7.2-1l.7-.7a3 3 0 0 1 1-.5l1.3-.1h1.4Zm4.2-1.3v5.6h-1.2v-7.1h1.1v1.5Zm-.3 1.8h-.5a3.9 3.9 0 0 1 .8-2.5 2.7 2.7 0 0 1 2.1-1c.3 0 .7 0 1 .2l.7.4.4.8.2 1.2v4.7h-1.2v-4.7l-.2-.9a1 1 0 0 0-.5-.5l-.8-.1a1.8 1.8 0 0 0-1.4.7 2.6 2.6 0 0 0-.6 1.7Zm11 2.4V130h1.3V140h-1.1l-.1-1.4Zm-4.7-2v-.2l.1-1.5.6-1.2a2.5 2.5 0 0 1 2-1c.5 0 1 .1 1.2.3.4.1.7.4.9.7l.6 1 .2 1.5v.5c0 .6 0 1-.2 1.5l-.6 1-.8.7a2.9 2.9 0 0 1-2.4 0 2.7 2.7 0 0 1-.9-.8 3.7 3.7 0 0 1-.6-1.1 5 5 0 0 1-.2-1.5Zm1.2-.2v1.1l.4.8.6.6.9.2c.4 0 .7 0 1-.3l.6-.6.4-1v-1.5a3.5 3.5 0 0 0-.3-.7c0-.3-.2-.5-.3-.6a1.7 1.7 0 0 0-.6-.5 2 2 0 0 0-.8-.1 1.7 1.7 0 0 0-1.5.7l-.3.9-.1 1Zm10.7-6 2.5 4.8 2.5-4.8h1.4l-3.3 6v3.6h-1.3v-3.6l-3.3-6h1.5Zm11.2 8.4V135c0-.3 0-.5-.2-.7a1.1 1.1 0 0 0-.5-.5l-.8-.2a2 2 0 0 0-.8.2c-.3 0-.4.2-.6.4a1 1 0 0 0-.2.5h-1.2c0-.2 0-.5.2-.7.1-.3.3-.5.6-.7.2-.2.5-.4.9-.5a3.9 3.9 0 0 1 2.5.1c.4.2.7.4 1 .8.2.4.3.8.3 1.3v4.1l.3.7v.1h-1.3a4.5 4.5 0 0 1-.2-1.2Zm.2-3.1v.8h-1.2l-1 .1a2 2 0 0 0-.6.3 1.1 1.1 0 0 0-.6 1l.1.6.5.4.8.2a2 2 0 0 0 1.6-.8l.3-.7.5.6c0 .2 0 .4-.2.6a3 3 0 0 1-1.4 1.1c-.3.2-.6.2-1 .2-.5 0-1 0-1.3-.2a2 2 0 0 1-1.1-1.9c0-.4 0-.7.2-1 .1-.3.4-.5.6-.7a3 3 0 0 1 1-.5l1.4-.1h1.4Zm4.2-1.3v5.6h-1.3V133h1.2v1.5Zm-.3 1.8h-.5c0-.5 0-1 .2-1.4.1-.4.3-.8.6-1a2.7 2.7 0 0 1 2-1h1l.7.5.5.8.2 1.2v4.7H246v-4.7l-.1-.9a1 1 0 0 0-.5-.5l-.8-.1a1.8 1.8 0 0 0-1.5.7 2.7 2.7 0 0 0-.5 1.7Zm11 2.4V130h1.3V140h-1.2v-1.4Zm-4.8-2v-.2c0-.6 0-1 .2-1.5.1-.5.3-.8.6-1.2a2.5 2.5 0 0 1 2-1c.5 0 .9.1 1.2.3.4.1.6.4.9.7l.5 1 .3 1.5v.5c0 .6-.1 1-.3 1.5 0 .4-.3.7-.5 1l-.9.7a2.9 2.9 0 0 1-2.3 0 2.8 2.8 0 0 1-1-.8l-.5-1.1a5 5 0 0 1-.2-1.5Zm1.2-.2v.1l.1 1 .4.8c.1.3.3.5.6.6l.8.2c.4 0 .8 0 1-.3l.7-.6.3-1v-1.5a3.5 3.5 0 0 0-.2-.7c0-.3-.2-.5-.4-.6a1.6 1.6 0 0 0-.6-.5 2 2 0 0 0-.8-.1 1.7 1.7 0 0 0-1.4.7l-.4.9v1Zm9.7 3.7c-.5 0-1 0-1.3-.2a3 3 0 0 1-1.7-1.8 4 4 0 0 1-.3-1.4v-.3c0-.6.1-1 .3-1.5.2-.5.4-.9.7-1.2a3 3 0 0 1 3.5-.7l1 .7.4 1.2c.2.4.2.8.2 1.3v.6h-5.3v-1h4v-.1a3 3 0 0 0-.1-1l-.5-.7c-.3-.2-.6-.3-1-.3a1.7 1.7 0 0 0-1.4.7l-.4.9-.1 1.1v.3l.1 1 .4.7a2 2 0 0 0 1.6.7 2.2 2.2 0 0 0 1.9-1l.7.7-.6.6a2.8 2.8 0 0 1-.9.5c-.3.2-.7.2-1.2.2Zm5-7.2 1.6 2.6 1.6-2.6h1.4l-2.3 3.5 2.4 3.6H268l-1.6-2.7-1.7 2.7h-1.4l2.4-3.6-2.3-3.5h1.4ZM31.8 146H33v10.1h-1.2v-10.1Zm6 6.5v.1l-.1 1.5-.5 1.1-1 .8a2.9 2.9 0 0 1-2.3 0 2.3 2.3 0 0 1-.9-.7 3.5 3.5 0 0 1-.5-1 6.7 6.7 0 0 1-.3-1.4v-.7c0-.5.1-1 .3-1.4l.5-1c.3-.3.6-.6 1-.7.2-.2.6-.3 1-.3.5 0 1 .1 1.3.3l.9.7c.3.3.4.7.5 1.2l.2 1.5Zm-1.1.1v-.1l-.1-1-.4-.9a1.6 1.6 0 0 0-1.4-.7 2 2 0 0 0-.8.1c-.3.1-.4.3-.6.5a3 3 0 0 0-.4.6l-.2.7v1.6c0 .3.2.6.3.8a1.8 1.8 0 0 0 1.7 1c.3 0 .6 0 .8-.2.3-.1.5-.3.6-.6.2-.2.3-.5.3-.8l.1-1Zm4-2.5v6h-1.3v-7.1h1.2v1.1Zm2.2-1.2v1.2h-.6a1.7 1.7 0 0 0-1.3.5c-.2 0-.3.3-.4.5l-.1.7-.4.2.1-1.2.4-1a2 2 0 0 1 2.3-.9Zm.7 3.7v-.1c0-.5 0-1 .2-1.5.1-.4.3-.8.6-1.1a2.9 2.9 0 0 1 1-.8l1.4-.3c.5 0 1 .1 1.4.3l1 .8c.3.3.5.7.6 1.1l.3 1.5v.1l-.3 1.5c-.1.4-.3.8-.6 1.1a3 3 0 0 1-2.4 1 3 3 0 0 1-3-2.2 4.4 4.4 0 0 1-.2-1.4Zm1.2-.1v.1l.1 1c0 .3.2.6.4.9l.6.5c.3.2.6.2 1 .2.2 0 .5 0 .8-.2l.6-.5.4-.9.1-1v-1.1l-.5-.9a1.8 1.8 0 0 0-1.5-.8l-.9.3a1.9 1.9 0 0 0-.6.5l-.4.9-.1 1Zm8.6 2.3 1.8-5.8h.8l-.1 1.1-1.9 6h-.8l.2-1.3Zm-1.2-5.8 1.5 6 .1 1.1H53l-2-7.1H52Zm5.6 5.9 1.5-6h1.2l-2 7.2h-.9l.2-1.2Zm-1.6-6 1.8 5.8.2 1.4h-.7l-2-6-.1-1.1h.8Zm9.7 5.3v-.5a1 1 0 0 0-.5-.4 3.8 3.8 0 0 0-1.1-.3 8.2 8.2 0 0 1-1-.3 3.3 3.3 0 0 1-.9-.4 1.6 1.6 0 0 1-.7-1.4c0-.3 0-.5.2-.8l.5-.6.9-.5a3.4 3.4 0 0 1 1-.2c.6 0 1.1.1 1.5.3.4.2.7.5 1 .9a2 2 0 0 1 .3 1h-1.2c0-.1 0-.3-.2-.5a1.3 1.3 0 0 0-.5-.5l-.8-.2-.9.2a1 1 0 0 0-.4.4 1 1 0 0 0 0 .8c0 .1 0 .2.2.3l.5.3.8.2a6.7 6.7 0 0 1 1.4.5l.9.6c.2.3.3.6.3 1a1.9 1.9 0 0 1-.8 1.6 2.8 2.8 0 0 1-.9.4l-1.1.1c-.6 0-1.2 0-1.6-.3a2.5 2.5 0 0 1-1-.9 2 2 0 0 1-.3-1h1.2c0 .2.1.5.3.7l.6.4a2.6 2.6 0 0 0 1.6 0c.3 0 .4-.2.6-.4a.8.8 0 0 0 .1-.5Zm5.8 2c-.5 0-1 0-1.3-.2a3 3 0 0 1-1.7-1.8 4 4 0 0 1-.2-1.4v-.3c0-.6 0-1 .2-1.5s.4-.9.7-1.2a3 3 0 0 1 2.2-1c.5 0 1 .1 1.3.3l1 .7.4 1.1c.2.5.2 1 .2 1.4v.6h-5.3v-1h4.1v-.1a3 3 0 0 0-.2-1l-.5-.7c-.3-.2-.6-.3-1-.3a1.7 1.7 0 0 0-1.4.7l-.4.9-.1 1.1v.3l.1 1 .4.7a2 2 0 0 0 1.6.7c.4 0 .8 0 1.1-.2l.8-.7.7.6A3.3 3.3 0 0 1 73 156c-.4.2-.8.2-1.3.2Zm5.5-6.1v6h-1.3v-7.1H77v1.1Zm2.2-1.2v1.2H78l-.6.4-.4.6-.1.7-.4.2c0-.4 0-.8.2-1.2 0-.4.2-.7.4-1 .1-.3.4-.5.7-.7a2 2 0 0 1 1.5-.2Zm5.3 5.3-.1-.5a1 1 0 0 0-.5-.4 3.8 3.8 0 0 0-1-.3 8.2 8.2 0 0 1-1.1-.3 3.3 3.3 0 0 1-.8-.4 1.6 1.6 0 0 1-.7-1.4c0-.3 0-.5.2-.8 0-.2.3-.4.5-.6l.8-.5a3.4 3.4 0 0 1 1.1-.2c.6 0 1 .1 1.5.3.4.2.7.5 1 .9a2 2 0 0 1 .2 1h-1.2c0-.1 0-.3-.2-.5a1.3 1.3 0 0 0-.5-.5l-.8-.2-.8.2-.5.4a1 1 0 0 0 0 .8l.2.3.5.3.8.2a6.7 6.7 0 0 1 1.5.5l.8.6c.2.3.3.6.3 1a1.9 1.9 0 0 1-.7 1.6 2.8 2.8 0 0 1-1 .4 4 4 0 0 1-2.6-.2 2.5 2.5 0 0 1-1-.9 2 2 0 0 1-.4-1h1.3c0 .2 0 .5.3.7.1.2.3.3.6.4a2.6 2.6 0 0 0 1.6 0c.2 0 .4-.2.5-.4a.8.8 0 0 0 .2-.5Zm5.9-1.6v-.1c0-.5 0-1 .2-1.5.1-.4.3-.8.6-1.1a2.9 2.9 0 0 1 1-.8l1.4-.3c.5 0 1 .1 1.4.3l1 .8c.3.3.5.7.6 1.1l.3 1.5v.1l-.3 1.5c-.1.4-.3.8-.6 1.1a3 3 0 0 1-2.4 1 3 3 0 0 1-3-2.2 4.4 4.4 0 0 1-.2-1.4Zm1.2-.1v.1l.1 1c0 .3.2.6.4.9l.6.5c.3.2.6.2 1 .2.2 0 .5 0 .8-.2l.6-.5.4-.9.1-1v-1.1l-.5-.9a1.8 1.8 0 0 0-1.5-.8l-.9.3a1.9 1.9 0 0 0-.6.5l-.4.9-.1 1Zm8-2v5.6h-1.2v-7.1h1.2v1.5Zm-.3 1.8H99l.2-1.4.6-1a2.7 2.7 0 0 1 2.1-1h1a1.8 1.8 0 0 1 1.2 1.3l.1 1.2v4.7H103v-4.7c0-.4 0-.7-.2-.9a1 1 0 0 0-.5-.5l-.7-.1a1.8 1.8 0 0 0-1.5.7 2.6 2.6 0 0 0-.6 1.7Zm8-6.3v10.1H106v-10.1h1.2Zm3.9 9.4 2-6.4h1.3l-2.9 8.2a4.7 4.7 0 0 1-.7 1.2 1.9 1.9 0 0 1-1.8.6 3.6 3.6 0 0 1-.3-.1v-1a2.6 2.6 0 0 0 1 0l.5-.5c.2-.1.3-.4.4-.6l.5-1.4Zm-1.5-6.4 1.9 5.5.3 1.3-.9.4-2.6-7.2h1.3Zm5.2 6.5c0-.2 0-.4.2-.6l.5-.2.6.2.2.6c0 .2 0 .3-.2.5l-.6.2c-.2 0-.4 0-.5-.2a.7.7 0 0 1-.2-.5Zm14.5-9v9.6h-1.3l-4.8-7.4v7.4H122v-9.6h1.3l4.8 7.4v-7.4h1.3Zm1.7 6.1v-.1l.3-1.5c.1-.4.3-.8.6-1.1l1-.8c.4-.2.9-.3 1.4-.3.5 0 1 .1 1.3.3a3 3 0 0 1 1.7 2c.2.4.2.9.2 1.4v.1c0 .5 0 1-.2 1.5-.1.4-.4.8-.6 1.1a3 3 0 0 1-2.4 1 3 3 0 0 1-3-2.2 4.4 4.4 0 0 1-.3-1.4Zm1.3-.1v1.1l.5.9c.2.3.3.4.6.5.3.2.5.2.9.2a1.7 1.7 0 0 0 1.5-.7l.4-.9.1-1v-.1l-.1-1-.4-.9a1.8 1.8 0 0 0-1.5-.8c-.4 0-.7.1-1 .3a1.9 1.9 0 0 0-.5.5l-.4.9-.1 1Zm9.8-3.5v1h-3.9v-1h3.9Zm-2.6-1.8h1.2v7.1l.1.6.3.2.4.1h.6v1h-.4a3 3 0 0 1-.5 0l-.9-.1a1.3 1.3 0 0 1-.6-.6 2.5 2.5 0 0 1-.2-1.2v-7Zm11.9 11.6v-9.8h1.2v9.9h-1.2Zm-4.8-6.2v-.1l.1-1.5.6-1.2a2.5 2.5 0 0 1 2.1-1c.5 0 .8.1 1.2.3.3.1.6.4.9.7l.5 1c.2.4.3 1 .3 1.4v.6c0 .6-.1 1-.3 1.5l-.5 1c-.3.3-.6.6-1 .7a2.9 2.9 0 0 1-1.1.2c-.5 0-.8 0-1.2-.2a2.6 2.6 0 0 1-.9-.8l-.6-1.1a5.2 5.2 0 0 1-.2-1.5Zm1.2-.1v.1l.1 1 .3.9.6.5c.3.2.6.2.9.2a1.8 1.8 0 0 0 1.7-1c.1-.2.3-.5.3-.8v-1.6a3.1 3.1 0 0 0-.6-1.4 1.9 1.9 0 0 0-1.4-.6l-.9.3-.6.5-.3.9-.1 1Zm11.1 2V149h1.3v7.1h-1.2v-1.6Zm.3-1.5h.5c0 .4 0 .9-.2 1.3a3 3 0 0 1-.5 1l-.8.7c-.4.2-.8.2-1.3.2a2.9 2.9 0 0 1-1-.1 1.9 1.9 0 0 1-.7-.5 2 2 0 0 1-.5-.8 4 4 0 0 1-.2-1.2V149h1.2v4.6l.1.8.3.5.5.2.5.1c.5 0 .9 0 1.2-.3l.7-.8.2-1.1Zm4.1-4v7.1h-1.2v-7.1h1.2Zm-1.3-2c0-.1 0-.3.2-.4.1-.2.3-.2.5-.2.3 0 .5 0 .6.2l.2.5a.7.7 0 0 1-.2.5l-.6.2c-.2 0-.4 0-.5-.2a.7.7 0 0 1-.2-.5Zm6.3 2v1h-3.9v-1h4Zm-2.6-1.8h1.3V155l.4.2.4.1h.5v1h-.3a3 3 0 0 1-.6 0l-.8-.1a1.3 1.3 0 0 1-.6-.6 2.5 2.5 0 0 1-.3-1.2v-7Zm7 9c-.5 0-1 0-1.4-.2a3 3 0 0 1-1.7-1.8 4 4 0 0 1-.2-1.4v-.3c0-.6.1-1 .3-1.5.1-.5.4-.9.7-1.2a3 3 0 0 1 2.1-1c.6 0 1 .1 1.4.3l.9.7.5 1.1.2 1.4v.6h-5.4v-1h4.2v-.1a3 3 0 0 0-.2-1l-.6-.7c-.2-.2-.5-.3-1-.3a1.7 1.7 0 0 0-1.3.7l-.4.9a4 4 0 0 0-.2 1.1v.3l.2 1 .4.7a2 2 0 0 0 1.6.7 2.2 2.2 0 0 0 1.9-1l.7.7a3.3 3.3 0 0 1-1.5 1.1c-.3.2-.7.2-1.2.2Zm9.4-1.4 1.8-5.8h.8l-.1 1.1-1.9 6h-.8l.2-1.3Zm-1.3-5.8 1.6 6 .1 1.1h-.8l-2-7.1h1.1Zm5.7 5.9 1.5-6h1.2l-2 7.2h-.9l.2-1.2Zm-1.6-6 1.8 5.8.2 1.4h-.8l-1.9-6-.2-1.1h1Zm6.8-3v10.2h-1.3v-10.1h1.3Zm-.3 6.4h-.5c0-.5 0-1 .2-1.4.1-.4.3-.8.6-1a2.7 2.7 0 0 1 2-1h1c.3.2.6.3.7.5l.5.8.2 1.2v4.7H195v-4.7l-.1-.9a1 1 0 0 0-.5-.5l-.8-.1a1.8 1.8 0 0 0-1.5.7 2.6 2.6 0 0 0-.5 1.7Zm10.7 2.6v-3.7c0-.3 0-.5-.2-.7a1.1 1.1 0 0 0-.5-.5l-.8-.2c-.3 0-.6 0-.8.2-.2 0-.4.2-.5.4a1 1 0 0 0-.2.6H198l.2-.8.6-.7 1-.5 1-.2c.6 0 1 .1 1.5.3.4.2.7.4.9.8.2.4.3.8.3 1.3v3.4l.1.7.2.7v.1h-1.3a4.5 4.5 0 0 1-.2-1.2Zm.2-3.1v.8h-1.2l-1 .1-.6.3c-.2 0-.3.2-.4.4a1.3 1.3 0 0 0 0 1.2c0 .2.2.3.4.4l.8.2a2 2 0 0 0 1.7-.8l.2-.7.6.6-.3.6a3 3 0 0 1-1.3 1.1c-.4.2-.7.2-1 .2-.6 0-1 0-1.4-.2a2 2 0 0 1-1.1-1.9 2 2 0 0 1 .9-1.7 3 3 0 0 1 1-.5l1.3-.1h1.4Zm6-2.8v1h-3.9v-1h3.9Zm-2.6-1.8h1.2v7.1l.1.6.3.2.4.1h.6v1h-.4a3 3 0 0 1-.6 0l-.8-.1a1.3 1.3 0 0 1-.6-.6 2.5 2.5 0 0 1-.2-1.2v-7Zm9.4 8.2 2-6.4h1.3l-3 8.2a4.5 4.5 0 0 1-.6 1.2l-.6.4a1.9 1.9 0 0 1-1.2.2 3.7 3.7 0 0 1-.3-.1v-1a2.6 2.6 0 0 0 1 0l.5-.5.3-.6.6-1.4Zm-1.5-6.4 1.9 5.5.3 1.3-.9.4-2.6-7.2h1.3Zm5.4 3.6v-.1l.3-1.5a3.2 3.2 0 0 1 1.6-1.9c.4-.2.9-.3 1.4-.3.5 0 1 .1 1.3.3.4.2.8.5 1 .8.3.3.6.7.7 1.1.2.5.2 1 .2 1.5v.1c0 .5 0 1-.2 1.5-.1.4-.4.8-.6 1.1a3 3 0 0 1-2.4 1 3 3 0 0 1-3-2.2 4.4 4.4 0 0 1-.3-1.4Zm1.3-.1v1.1l.5.9c.2.3.3.4.6.5.2.2.5.2.9.2a1.7 1.7 0 0 0 1.5-.7l.4-.9.1-1v-.1l-.1-1-.4-.9a1.8 1.8 0 0 0-1.5-.8c-.4 0-.7.1-1 .3a1.9 1.9 0 0 0-.5.5l-.4.9-.1 1Zm11.1 2V149h1.3v7.1h-1.2v-1.6Zm.3-1.5h.5c0 .4 0 .9-.2 1.3a3 3 0 0 1-.4 1l-.9.7c-.4.2-.8.2-1.3.2a2.9 2.9 0 0 1-1-.1 1.9 1.9 0 0 1-1.2-1.3 4 4 0 0 1-.2-1.2V149h1.3V154.5l.4.5.4.2.5.1c.5 0 1 0 1.2-.3l.7-.8.2-1.1Zm7.4-2.5v5.6h-1.2v-7.1h1.2v1.5Zm-.3 1.8h-.5l.2-1.4.6-1a2.6 2.6 0 0 1 2.1-1h1l.7.5.5.8.1 1.2v4.7h-1.2v-4.7c0-.4 0-.7-.2-.9a1 1 0 0 0-.5-.5l-.7-.1a1.8 1.8 0 0 0-1.5.7 2.6 2.6 0 0 0-.6 1.7Zm9.5 4c-.5 0-.9-.1-1.3-.3a3 3 0 0 1-1.7-1.8 4 4 0 0 1-.2-1.4v-.3c0-.6 0-1 .2-1.5s.4-.9.7-1.2a3 3 0 0 1 2.2-1c.5 0 1 .1 1.3.3l1 .7.5 1.1.1 1.4v.6H246v-1h4.1v-.1a3 3 0 0 0-.2-1c0-.2-.3-.5-.5-.7-.2-.2-.6-.3-1-.3a1.7 1.7 0 0 0-1.4.7l-.4.9a4 4 0 0 0-.1 1.1v.3l.1 1 .5.7.6.6 1 .1a2.2 2.2 0 0 0 1.8-1l.7.7a3.4 3.4 0 0 1-.5.6 3 3 0 0 1-2.1.7Zm7.2 0c-.5 0-1-.1-1.3-.3a3 3 0 0 1-1.7-1.8 4 4 0 0 1-.3-1.4v-.3c0-.6.1-1 .3-1.5.2-.5.4-.9.7-1.2a3 3 0 0 1 2.2-1c.5 0 1 .1 1.3.3l1 .7.4 1.1.2 1.4v.6h-5.3v-1h4v-.1a3 3 0 0 0-.1-1l-.5-.7c-.3-.2-.6-.3-1-.3a1.7 1.7 0 0 0-1.4.7l-.4.9-.1 1.1v.3l.1 1 .4.7a2 2 0 0 0 1.6.7c.4 0 .8 0 1-.2l.9-.7.7.6-.6.6c-.2.2-.5.4-.9.5-.3.2-.7.2-1.2.2Zm8.7-1.6v-8.7h1.3v10.1h-1.2v-1.4Zm-4.8-2v-.2l.2-1.5.6-1.2a2.5 2.5 0 0 1 2-1c.5 0 .9.1 1.2.3.4.1.7.4.9.7l.6 1 .2 1.4v.6l-.2 1.5a3.3 3.3 0 0 1-.6 1c-.2.3-.5.6-.9.7a2.9 2.9 0 0 1-2.3 0 2.7 2.7 0 0 1-.9-.8 3.7 3.7 0 0 1-.6-1.1l-.2-1.5Zm1.3-.2v1.1l.4.8.6.6.8.2c.5 0 .8 0 1-.3l.7-.6.4-1V152a3.6 3.6 0 0 0-.3-.7c0-.3-.2-.5-.4-.6a1.7 1.7 0 0 0-.5-.5 2 2 0 0 0-.8-.1c-.4 0-.7 0-.9.2l-.6.5a3 3 0 0 0-.3.9l-.1 1Zm9.3 1H269l.1-1.1c0-.3.2-.6.4-.8l.6-.7.6-.6.4-.6.2-.8c0-.3 0-.5-.2-.8a1 1 0 0 0-.5-.5l-.7-.2c-.3 0-.5 0-.8.2-.2 0-.4.2-.5.4-.2.2-.2.4-.2.8H267a2.2 2.2 0 0 1 1.4-2.1c.4-.2.8-.3 1.4-.3.5 0 1 0 1.4.3.4.2.7.5.9.9.2.3.3.8.3 1.3 0 .4 0 .7-.2 1a4.2 4.2 0 0 1-.7 1 11 11 0 0 1-.8.8c-.2.3-.4.5-.4.8l-.2 1Zm-1.3 2 .2-.5.6-.2c.2 0 .4 0 .5.2l.2.5a.7.7 0 0 1-.2.5l-.5.2c-.3 0-.4 0-.6-.2a.7.7 0 0 1-.2-.5Zm14.4-2.4h1.3c0 .6-.3 1.1-.5 1.6s-.7.8-1.2 1.1a4 4 0 0 1-2 .4 3.4 3.4 0 0 1-2.7-1.2c-.3-.4-.6-.8-.8-1.4a6 6 0 0 1-.2-1.8v-1c0-.6 0-1.2.3-1.8a3.3 3.3 0 0 1 2-2.3 4 4 0 0 1 1.5-.3c.8 0 1.4.1 1.9.4.5.3.9.6 1.2 1.1.3.5.4 1 .5 1.7h-1.3a3.5 3.5 0 0 0-.3-1.2l-.7-.7c-.3-.2-.7-.3-1.2-.3a2.3 2.3 0 0 0-2 1l-.5 1a6 6 0 0 0-.1 1.4v1l.1 1.3.5 1.1c.2.3.4.6.7.7.3.2.7.3 1.1.3.6 0 1 0 1.3-.3.4-.1.6-.4.8-.7.1-.3.3-.7.3-1.1Zm4-7.1v10.1h-1.2v-10.1h1.3Zm-.2 6.3h-.5a4 4 0 0 1 .8-2.5 2.7 2.7 0 0 1 2-1l1 .2a1.8 1.8 0 0 1 1.2 1.2l.2 1.2v4.7h-1.3v-4.7l-.1-.9a1 1 0 0 0-.5-.5l-.8-.1a1.8 1.8 0 0 0-1.5.7 2.6 2.6 0 0 0-.5 1.7Zm9.5 4c-.5 0-1-.1-1.4-.3a3 3 0 0 1-1.7-1.8 4 4 0 0 1-.2-1.4v-.3c0-.6 0-1 .2-1.5s.4-.9.7-1.2a3 3 0 0 1 2.2-1c.5 0 1 .1 1.3.3l1 .7.5 1.1.1 1.4v.6H294v-1h4.1v-.1a3 3 0 0 0-.2-1c0-.2-.3-.5-.5-.7-.3-.2-.6-.3-1-.3a1.7 1.7 0 0 0-1.4.7l-.4.9-.1 1.1v.3l.1 1a2.3 2.3 0 0 0 1.1 1.3l1 .1c.4 0 .7 0 1-.2l.8-.7.8.6a3.4 3.4 0 0 1-.6.6l-1 .5c-.3.2-.7.2-1.1.2Zm7-1 .8-.2.7-.5.2-.7h1.2c0 .4-.2.8-.4 1.1a3 3 0 0 1-2.5 1.2c-.5 0-1 0-1.4-.2a2.8 2.8 0 0 1-1-.8l-.6-1.2a4.8 4.8 0 0 1-.2-1.3v-.3c0-.5.1-1 .3-1.4 0-.4.3-.8.5-1 .3-.4.6-.7 1-.9.4-.2.9-.3 1.4-.3.6 0 1 .2 1.5.4.4.2.7.5 1 1s.4.7.4 1.2h-1.2c0-.3 0-.5-.2-.8a1.6 1.6 0 0 0-1.5-.8 1.7 1.7 0 0 0-1.5.9 3 3 0 0 0-.3.8l-.1 1v.2a4 4 0 0 0 .4 1.7c.1.3.3.5.6.6.2.2.6.2 1 .2Zm5.5-9.3v10.1h-1.2v-10.1h1.2Zm4.4 3-3.2 3.3-1.7 1.8-.1-1.3 1.2-1.5 2.3-2.3h1.5Zm-1.2 7.1-2.5-3.4.6-1 3.4 4.4h-1.5ZM31.4 169v-.1c0-.5 0-1 .2-1.5l.7-1.1a2.9 2.9 0 0 1 1-.8c.4-.2.9-.2 1.4-.2.5 0 1 0 1.3.2.4.2.8.5 1 .8l.7 1.2.2 1.4v.1c0 .5 0 1-.2 1.5l-.7 1.1a3 3 0 0 1-2.3 1 3 3 0 0 1-3-2.1 4.4 4.4 0 0 1-.3-1.5Zm1.2-.1v.1a3.6 3.6 0 0 0 .5 1.9l.7.5c.2.2.5.2.9.2a1.7 1.7 0 0 0 1.5-.7l.4-.9v-2.1l-.4-.9a1.8 1.8 0 0 0-1.5-.8 2 2 0 0 0-1 .3 1.9 1.9 0 0 0-.6.5l-.3.9-.2 1Zm11.2 2v-5.5h1.3v7.1h-1.2v-1.6Zm.3-1.5h.5c0 .4 0 .9-.2 1.3 0 .4-.2.7-.5 1l-.8.7c-.4.2-.8.2-1.3.2a2.9 2.9 0 0 1-1-.1 1.9 1.9 0 0 1-1.2-1.3 4 4 0 0 1-.2-1.2v-4.6h1.3V170.7l.4.5.4.2.5.1c.5 0 .9 0 1.2-.3l.7-.8.2-1.1Zm5.8-4v1h-3.8v-1h3.8Zm-2.5-1.8h1.2v7.7l.4.2.4.1h.5v1a3 3 0 0 1-1 0l-.7-.1a1.3 1.3 0 0 1-.6-.6 2.5 2.5 0 0 1-.2-1.2v-7Zm7 5.4v-.1c0-.5 0-1 .2-1.5l.7-1.1a2.9 2.9 0 0 1 1-.8 3 3 0 0 1 1.3-.2c.5 0 1 0 1.4.2l1 .8c.3.3.5.7.7 1.2l.2 1.4v.1c0 .5 0 1-.2 1.5l-.7 1.1a3 3 0 0 1-2.4 1 3 3 0 0 1-3-2.1 4.4 4.4 0 0 1-.2-1.5Zm1.2-.1v.1a3.6 3.6 0 0 0 .5 1.9l.6.5c.3.2.6.2 1 .2.3 0 .6 0 .8-.2l.7-.5.3-.9.2-1v-.1c0-.4 0-.7-.2-1 0-.3-.2-.6-.4-.9a1.8 1.8 0 0 0-1.5-.8 2 2 0 0 0-.9.3 1.9 1.9 0 0 0-.6.5l-.4.9-.1 1Zm9.8-3.5v1h-3.8v-1h3.8Zm-2.5-1.8H64v7.7l.4.2.4.1h.5v1a3 3 0 0 1-.9 0l-.8-.1a1.3 1.3 0 0 1-.6-.6 2.5 2.5 0 0 1-.2-1.2v-7Zm5.2-1.2v10.1h-1.2v-10.1H68Zm-.3 6.3h-.5c0-.5 0-1 .2-1.4.1-.4.3-.8.6-1a2.7 2.7 0 0 1 2-1l1 .1a1.8 1.8 0 0 1 1.2 1.2l.2 1.2v4.7h-1.3v-4.7l-.1-.9a1 1 0 0 0-.5-.5l-.8-.1a1.8 1.8 0 0 0-1.5.7 2.6 2.6 0 0 0-.5 1.7Zm9.5 4c-.5 0-1-.1-1.4-.3a3 3 0 0 1-1.7-1.8 4 4 0 0 1-.2-1.4v-.3c0-.6 0-1 .2-1.5s.4-.9.7-1.2a3 3 0 0 1 2.2-1c.5 0 1 .1 1.3.3l1 .7.5 1.2.1 1.4v.5h-5.3v-1h4.1v-.1a3 3 0 0 0-.2-1c0-.2-.2-.5-.5-.7-.2-.2-.6-.3-1-.3a1.7 1.7 0 0 0-1.4.8l-.4.8V170l.5.7a2 2 0 0 0 1.5.7c.5 0 .8 0 1.1-.2l.8-.7.8.6a3 3 0 0 1-1.5 1.2l-1.2.2Zm5.4-6.2v6h-1.2v-7.1h1.2v1.1Zm2.2-1.2v1.2H83.6l-.6.4-.3.6-.2.7-.3.2.1-1.2c0-.4.2-.7.4-1l.7-.7a2 2 0 0 1 1.5-.2Zm8.3-1.5-3.2 8.7h-1.3l3.6-9.6h.9v.9Zm2.6 8.7-3.2-8.7v-.9h.9l3.6 9.6h-1.3Zm-.1-3.5v1h-5.4v-1h5.4Zm7 2.1v-8.7h1.3v10.1h-1.1l-.1-1.4Zm-4.8-2v-.2l.2-1.5.6-1.1a2.5 2.5 0 0 1 2-1c.5 0 1 0 1.2.2.4.1.7.4 1 .7l.5 1 .3 1.5v.6c0 .5-.2 1-.3 1.4l-.6 1c-.2.3-.5.6-.9.7a2.9 2.9 0 0 1-2.3 0 2.7 2.7 0 0 1-.9-.8l-.6-1.1-.2-1.5Zm1.3-.2v1.1l.4.9.6.5.9.2c.4 0 .7 0 1-.2l.6-.7.4-1v-1.5a3.6 3.6 0 0 0-.3-.7c0-.3-.2-.5-.4-.6a1.6 1.6 0 0 0-.5-.5 2 2 0 0 0-1.7 0l-.6.7-.3.8-.1 1Zm14-1.2v3.6a3.1 3.1 0 0 1-1.7 1.1 5.5 5.5 0 0 1-3.3 0 3.8 3.8 0 0 1-2.1-2.4c-.2-.6-.3-1.2-.3-2v-.7c0-.7 0-1.3.2-1.9a4 4 0 0 1 .8-1.4c.3-.4.7-.7 1.2-1l1.6-.2a4 4 0 0 1 1.9.4c.5.2.9.6 1.1 1 .3.4.5 1 .6 1.5h-1.3a2.7 2.7 0 0 0-.3-1l-.7-.6a2.5 2.5 0 0 0-1.3-.3c-.4 0-.8.1-1.1.3a2 2 0 0 0-.8.7 3 3 0 0 0-.5 1l-.1 1.5v.8l.1 1.5.6 1a2.4 2.4 0 0 0 2 1h1l.8-.4.3-.3v-2.1h-2.2v-1h3.5Zm6.3 3.2v-5.5h1.2v7.1h-1.2v-1.6Zm.2-1.5h.5l-.1 1.3-.5 1c-.2.3-.5.5-.9.7-.3.2-.8.2-1.3.2a2.9 2.9 0 0 1-1-.1 2 2 0 0 1-1.1-1.3 4 4 0 0 1-.2-1.2v-4.6h1.2v4.6l.1.8c0 .2.2.4.3.5l.4.2.5.1c.6 0 1 0 1.3-.3.3-.2.5-.5.6-.8.2-.3.2-.7.2-1.1Zm7.1 1.9v-3.7c0-.3 0-.5-.2-.7a1.1 1.1 0 0 0-.5-.5l-.8-.2a2 2 0 0 0-.8.2c-.3 0-.4.2-.6.4a1 1 0 0 0-.2.6h-1.2c0-.3 0-.5.2-.8l.6-.7.9-.5 1.2-.1c.5 0 1 0 1.3.2.4.2.8.5 1 .8.2.4.3.8.3 1.3v4.1l.3.7v.1H127a4.4 4.4 0 0 1-.2-1.2Zm.2-3.1v.9h-2.2a2 2 0 0 0-.6.3 1.1 1.1 0 0 0-.6 1l.1.6.5.4.8.2a2 2 0 0 0 1.6-.8l.3-.7.5.6c0 .2 0 .4-.2.6a3 3 0 0 1-1.4 1.2l-1 .2c-.5 0-1-.1-1.3-.3a2 2 0 0 1-1.1-1.9 2 2 0 0 1 .9-1.7l1-.5 1.3-.1h1.4Zm4.2-1.7v6h-1.3v-7.1h1.2v1.1Zm2.2-1.2v1.2h-.6a2 2 0 0 0-.8 0l-.5.4-.4.6-.1.7-.4.2c0-.4 0-.8.2-1.2 0-.4.2-.7.4-1 .1-.3.4-.5.7-.7a2 2 0 0 1 1.5-.2Zm5.5 5.8v-8.7h1.2v10.1H139l-.1-1.4Zm-4.8-2v-.2c0-.5 0-1 .2-1.5.1-.4.3-.8.6-1.1a2.5 2.5 0 0 1 2-1c.5 0 .9 0 1.2.2.3.1.6.4.9.7l.5 1 .3 1.5v.6c0 .5-.1 1-.3 1.4l-.5 1c-.3.3-.6.6-.9.7a2.9 2.9 0 0 1-2.3 0 2.7 2.7 0 0 1-1-.8l-.5-1.1a5 5 0 0 1-.2-1.5Zm1.2-.2v.1l.1 1 .4.9c.1.2.3.4.6.5.2.2.5.2.8.2a2 2 0 0 0 1-.2c.3-.2.5-.4.6-.7l.4-1v-1.5a3.5 3.5 0 0 0-.2-.7c-.1-.2-.2-.5-.4-.6a1.7 1.7 0 0 0-.6-.5 2 2 0 0 0-1.6 0c-.3.2-.5.4-.6.7l-.4.8v1Zm11.3-2.1v8.5h-1.2v-10h1.1l.1 1.5Zm4.8 2v.2c0 .6 0 1-.2 1.5 0 .4-.3.8-.5 1.1a2.5 2.5 0 0 1-2 1 3 3 0 0 1-1.2-.2 2.4 2.4 0 0 1-1-.6 3.3 3.3 0 0 1-.5-1l-.3-1.4v-.7c0-.6.1-1 .3-1.5.1-.4.3-.7.6-1 .2-.3.5-.6.8-.7.4-.2.8-.2 1.2-.2.5 0 .9 0 1.2.2.4.2.7.4 1 .8s.3.7.4 1.1c.2.5.2 1 .2 1.5Zm-1.2.2v-.1l-.1-1c0-.3-.2-.6-.4-.8a1.7 1.7 0 0 0-1.4-.8 1.7 1.7 0 0 0-1.4.6 2.8 2.8 0 0 0-.6 1.3v1.7c0 .3.2.6.4.9l.6.6c.3.2.6.3 1 .3l.8-.2.6-.6.4-.9.1-1Zm4-2.5v6H153v-7.1h1.2v1.1Zm2.2-1.2v1.2h-.6a2 2 0 0 0-.7 0l-.5.4-.4.6-.2.7-.3.2.1-1.2.4-1 .7-.7a2 2 0 0 1 1.5-.2Zm.7 3.7v-.1l.2-1.4c.2-.5.4-.9.7-1.2l1-.8c.4-.2.9-.2 1.4-.2.5 0 1 0 1.3.2.4.2.8.5 1 .8l.7 1.2c.2.4.2.9.2 1.4v.1c0 .5 0 1-.2 1.5-.1.4-.4.8-.6 1.1a3 3 0 0 1-2.4 1 3 3 0 0 1-3-2.1 4.4 4.4 0 0 1-.3-1.5Zm1.2-.1v.1a3.6 3.6 0 0 0 .5 1.9l.7.5c.2.2.5.2.9.2a1.7 1.7 0 0 0 1.5-.7l.4-.9.1-1v-.1l-.1-1-.4-.9a1.8 1.8 0 0 0-1.5-.8 2 2 0 0 0-1 .3 2 2 0 0 0-.6.5 3 3 0 0 0-.3.9l-.2 1Zm11.4 2.2v-8.7h1.2v10.1h-1.1l-.1-1.4Zm-4.8-2v-.2c0-.5 0-1 .2-1.5l.5-1.1a2.5 2.5 0 0 1 2.1-1c.4 0 .8 0 1.2.2.3.1.6.4.8.7.3.3.4.6.6 1l.3 1.5v.6c0 .5-.2 1-.3 1.4-.2.4-.3.8-.6 1-.2.3-.5.6-.8.7a2.9 2.9 0 0 1-2.4 0 2.7 2.7 0 0 1-.9-.8l-.5-1.1a5 5 0 0 1-.2-1.5Zm1.2-.2v.1l.1 1 .3.9.6.5c.3.2.5.2.9.2s.7 0 1-.2c.2-.2.5-.4.6-.7l.4-1v-1.5a3.5 3.5 0 0 0-.3-.7l-.3-.6a1.7 1.7 0 0 0-.6-.5 2 2 0 0 0-1.7 0l-.6.7-.3.8-.1 1Zm11 2v-5.5h1.3v7.1h-1.2v-1.6Zm.3-1.5h.5l-.1 1.3-.5 1c-.2.3-.5.5-.9.7-.3.2-.8.2-1.3.2a2.9 2.9 0 0 1-1-.1 1.9 1.9 0 0 1-1.2-1.3 4 4 0 0 1-.1-1.2v-4.6h1.2v4.6l.1.8c0 .2.2.4.3.5l.4.2.5.1c.5 0 1 0 1.3-.3.3-.2.5-.5.6-.8.2-.3.2-.7.2-1.1Zm5.7 2.3a1.8 1.8 0 0 0 1.4-.7c.2-.2.3-.5.3-.7h1.2c0 .4-.2.8-.4 1.1a3 3 0 0 1-2.5 1.2c-.5 0-1 0-1.4-.2a3 3 0 0 1-1-.8l-.5-1.1a4.8 4.8 0 0 1-.2-1.4v-.3c0-.5 0-1 .2-1.3 0-.5.3-.9.6-1.2.2-.3.5-.6 1-.8l1.3-.2c.6 0 1.1 0 1.5.3a2.7 2.7 0 0 1 1.4 2.2h-1.2c0-.3 0-.5-.2-.8a1.6 1.6 0 0 0-1.4-.7c-.4 0-.7 0-1 .2l-.6.6a2.8 2.8 0 0 0-.3.8l-.1 1v.2a4 4 0 0 0 .4 1.7c.2.3.3.5.6.6.3.2.6.2 1 .2Zm7.2-6.3v1h-3.8v-1h3.8Zm-2.5-1.7h1.2v7l.1.6.3.2.4.1h.6v1a3 3 0 0 1-1 0l-.8-.1a1.3 1.3 0 0 1-.6-.6 2.5 2.5 0 0 1-.2-1.2v-7Zm8.1 7v-.6l-.5-.4a3.8 3.8 0 0 0-1-.3 8.3 8.3 0 0 1-1.2-.3 3.3 3.3 0 0 1-.8-.4 1.6 1.6 0 0 1-.7-1.4c0-.2 0-.5.2-.8l.5-.6.9-.5a3.4 3.4 0 0 1 1-.1c.6 0 1.1 0 1.5.3.4.2.8.4 1 .8.2.3.3.7.3 1h-1.2c0-.1 0-.3-.2-.5a1.3 1.3 0 0 0-.5-.5 1.6 1.6 0 0 0-.8-.1 2 2 0 0 0-.9.1 1 1 0 0 0-.5 1.3l.3.2.5.3.8.2c.6.1 1 .3 1.4.5.4.2.7.4.9.7.2.2.3.6.3 1a1.9 1.9 0 0 1-.8 1.5c-.2.2-.5.3-.9.4a4 4 0 0 1-1 .2c-.7 0-1.3-.2-1.7-.4a2.5 2.5 0 0 1-1-.9 2 2 0 0 1-.3-1h1.2c0 .3.1.5.3.7.2.2.4.4.6.4a2.6 2.6 0 0 0 1.6 0c.3 0 .4-.2.6-.3a.8.8 0 0 0 .1-.6Zm6-1.7v-.1l.1-1.4c.2-.5.4-.9.7-1.2a2.9 2.9 0 0 1 1-.8c.4-.2.9-.2 1.4-.2.5 0 1 0 1.3.2.4.2.8.5 1 .8.3.3.5.7.7 1.2l.2 1.4v.1c0 .5 0 1-.2 1.5a3.4 3.4 0 0 1-.7 1.1 3 3 0 0 1-2.3 1 3 3 0 0 1-3-2.1 4.4 4.4 0 0 1-.3-1.5Zm1.1-.1v.1c0 .4 0 .7.2 1 0 .4.2.6.3.9s.4.4.7.5c.2.2.5.2.9.2a1.7 1.7 0 0 0 1.5-.7l.4-.9v-2.1l-.4-.9a1.8 1.8 0 0 0-1.5-.8 2 2 0 0 0-1 .3 2 2 0 0 0-.6.5l-.3.9-.2 1Zm8-2v5.6H210v-7.1h1.1v1.5Zm-.2 1.8h-.5c0-.5 0-1 .2-1.4.1-.4.3-.8.6-1a2.7 2.7 0 0 1 2-1l1 .1c.3 0 .6.2.8.4l.4.8.2 1.2v4.7h-1.3v-4.7l-.1-.9a1 1 0 0 0-.5-.5l-.8-.1a1.8 1.8 0 0 0-1.5.7 2.6 2.6 0 0 0-.5 1.7Zm9.6.3v-.1c0-.5 0-1 .2-1.4.1-.5.4-.9.6-1.2a2.9 2.9 0 0 1 1-.8 3 3 0 0 1 1.4-.2c.5 0 1 0 1.4.2l1 .8c.3.3.5.7.6 1.2.2.4.3.9.3 1.4v.1l-.3 1.5c-.1.4-.3.8-.6 1.1a3 3 0 0 1-2.4 1 3 3 0 0 1-3-2.1 4.4 4.4 0 0 1-.2-1.5Zm1.2-.1v.1a3.6 3.6 0 0 0 .5 1.9l.6.5c.3.2.6.2 1 .2.3 0 .6 0 .8-.2l.6-.5.4-.9.1-1v-1.1l-.5-.9a1.8 1.8 0 0 0-1.5-.8 2 2 0 0 0-.9.3l-.6.5-.4.9-.1 1Zm11.2 2v-5.5h1.2v7.1h-1.2v-1.6Zm.2-1.5h.5l-.1 1.3-.5 1c-.2.3-.5.5-.9.7-.3.2-.8.3-1.3.3a2.9 2.9 0 0 1-1-.2 1.9 1.9 0 0 1-.7-.5l-.5-.8a4 4 0 0 1-.1-1.2v-4.6h1.2v4.6l.1.8c0 .2.2.4.3.5l.4.2.5.1c.5 0 1 0 1.3-.3.3-.2.5-.5.6-.8l.2-1.1Zm4.1-2.9v6h-1.2v-7.1h1.2v1.1Zm2.2-1.2v1.2H238l-.6.4a1.8 1.8 0 0 0-.3.6l-.2.7-.3.2.1-1.2c0-.4.2-.7.4-1l.7-.7a2 2 0 0 1 1.5-.2Zm6.3 6 1.9-6h.8l-.2 1.3-1.9 6h-.7l.1-1.3Zm-1.2-6 1.6 6v1.2h-.8l-2-7.1h1.2Zm5.6 6 1.5-6h1.2l-2 7.2h-.9l.2-1.2Zm-1.5-6 1.8 5.9.2 1.3h-.8l-2-6-.1-1.1h.9Zm8.5 7.4c-.5 0-1-.1-1.4-.3a3 3 0 0 1-1.7-1.8 4 4 0 0 1-.2-1.4v-.3c0-.6 0-1 .2-1.5s.4-.9.7-1.2a3 3 0 0 1 2.2-1c.5 0 1 .1 1.3.3.4.2.7.4 1 .8l.5 1 .1 1.5v.5h-5.3v-1h4.1v-.1a3 3 0 0 0-.2-1c0-.2-.3-.5-.5-.7l-1-.2a1.7 1.7 0 0 0-1.4.7l-.4.8a4 4 0 0 0 0 1.1v1.3l.5.7c.1.3.4.4.6.6l1 .2c.4 0 .7-.1 1-.3l.8-.7.8.6a3.1 3.1 0 0 1-2.7 1.4Zm4.2-10.3h1.2v8.7l-.1 1.4h-1.1v-10.1Zm6 6.5v.1c0 .6 0 1-.2 1.5 0 .4-.3.8-.5 1.1a2.4 2.4 0 0 1-2 1 2.9 2.9 0 0 1-1.3-.2 2.3 2.3 0 0 1-.8-.7 3.5 3.5 0 0 1-.6-1 6.7 6.7 0 0 1-.3-1.4v-.6l.3-1.5.6-1c.2-.3.5-.6.8-.7.4-.2.8-.2 1.2-.2.5 0 .9 0 1.2.2.4.2.7.4.9.8l.5 1.1c.2.5.2 1 .2 1.5Zm-1.2.1v-.1l-.1-1a2.6 2.6 0 0 0-.3-.8 1.6 1.6 0 0 0-1.5-.8 1.7 1.7 0 0 0-1.4.6l-.3.6-.3.7v1.6l.4.9.6.7 1 .2c.4 0 .7 0 .9-.2l.6-.5.3-.9.1-1Zm7 1.6-.2-.5a1 1 0 0 0-.5-.4 3.8 3.8 0 0 0-1-.3 8.4 8.4 0 0 1-1-.3 3.3 3.3 0 0 1-.9-.4 1.6 1.6 0 0 1-.7-1.4c0-.2 0-.5.2-.8l.5-.6c.3-.2.5-.4.9-.5a3.4 3.4 0 0 1 1-.1c.6 0 1.1 0 1.5.3.4.2.7.4 1 .8.2.3.3.7.3 1h-1.2c0-.1 0-.3-.2-.5a1.3 1.3 0 0 0-.5-.5l-.8-.1a2 2 0 0 0-.9.1 1 1 0 0 0-.5 1.3s.1.2.3.2l.5.3.8.2a6.7 6.7 0 0 1 1.4.5c.4.2.7.4.9.7.2.2.3.6.3 1a1.9 1.9 0 0 1-.8 1.5c-.2.2-.5.3-.9.4a4 4 0 0 1-1.1.2c-.6 0-1.2-.2-1.6-.4a2.5 2.5 0 0 1-1-.9 2 2 0 0 1-.3-1h1.2c0 .3.1.5.3.7.2.2.4.4.6.4a2.6 2.6 0 0 0 1.6 0c.3 0 .4-.2.6-.3a.8.8 0 0 0 .1-.6Zm4.1-5.2v7.1h-1.2v-7.1h1.2Zm-1.3-2 .1-.4.6-.2c.2 0 .4 0 .5.2l.2.5c0 .2 0 .3-.2.5l-.5.2c-.2 0-.4 0-.6-.2a.7.7 0 0 1-.1-.5Zm6.2 2v1h-3.8v-1h3.8Zm-2.5-1.7h1.2v7l.1.6.3.2.4.1h.6v1a3 3 0 0 1-1 0l-.8-.1a1.3 1.3 0 0 1-.6-.6 2.5 2.5 0 0 1-.2-1.2v-7Zm7 9a3 3 0 0 1-3.1-2.1 4 4 0 0 1-.2-1.4v-.3c0-.6 0-1 .2-1.5s.4-.9.7-1.2a3 3 0 0 1 2.2-1c.5 0 1 .1 1.3.3.4.2.7.4 1 .8l.5 1 .1 1.5v.5H284v-1h4.1v-.1a3 3 0 0 0-.2-1l-.5-.7-1-.2a1.7 1.7 0 0 0-1.4.7l-.4.8-.1 1.1v.3l.1 1 .4.7a2 2 0 0 0 1.6.8c.4 0 .8-.1 1.1-.3l.8-.7.7.6a2.8 2.8 0 0 1-1.4 1.2l-1.3.2Z"/><mask id="g" width="282" height="52" x="38" y="197" maskUnits="userSpaceOnUse" style="mask-type:luminance"><path fill="#fff" d="M319.5 197.6H38V248h281.5v-50.4Z"/></mask><g mask="url(#g)"><path fill="#4CB050" d="M305.1 197.6H52.4A14.4 14.4 0 0 0 38 212v21.6c0 8 6.5 14.4 14.4 14.4h252.7c8 0 14.4-6.4 14.4-14.4V212c0-8-6.4-14.4-14.4-14.4Z"/><path fill="#fff" d="M129.6 222.6v3.5a3.1 3.1 0 0 1-1.6 1.1 5.5 5.5 0 0 1-3.4 0c-.5-.2-1-.5-1.3-1s-.6-.8-.8-1.4c-.2-.5-.3-1.2-.3-1.9v-.8c0-.7 0-1.3.2-1.9a4 4 0 0 1 .8-1.4c.3-.4.7-.7 1.2-.9.5-.2 1-.3 1.6-.3a4 4 0 0 1 1.9.4c.5.2.9.6 1.2 1l.5 1.5h-1.3a2.7 2.7 0 0 0-.3-1 2 2 0 0 0-.7-.6 2.5 2.5 0 0 0-1.2-.3c-.5 0-.9.1-1.2.3a2 2 0 0 0-.8.7l-.5 1-.1 1.5v.8c0 .5 0 1 .2 1.5 0 .4.3.8.5 1.1a2.4 2.4 0 0 0 2 1l1.1-.2a2 2 0 0 0 1-.6v-2.1h-2.2v-1h3.5Zm9.9-.4v.6c0 .8 0 1.4-.3 2a4.2 4.2 0 0 1-.7 1.4l-1.3 1a4 4 0 0 1-1.6.3 3.5 3.5 0 0 1-2.8-1.3l-.8-1.4a6.2 6.2 0 0 1-.2-2v-.6c0-.7 0-1.3.2-1.9.2-.6.5-1 .9-1.5.3-.4.7-.7 1.2-.9l1.5-.3c.6 0 1.2.1 1.6.3.5.2 1 .5 1.2 1 .4.3.7.8.8 1.4.2.6.3 1.2.3 2Zm-1.3.6v-.6l-.1-1.5-.5-1.1a2.2 2.2 0 0 0-.9-.7 2.5 2.5 0 0 0-1-.2 2.3 2.3 0 0 0-2 .9l-.5 1.1a5.6 5.6 0 0 0-.2 1.5v.6c0 .6 0 1.1.2 1.6.1.4.3.8.6 1a2.4 2.4 0 0 0 1.8 1 2.2 2.2 0 0 0 2-1l.5-1 .1-1.6Zm10.6-5v9.5h-1.2v-9.6h1.2Zm3.1 0v1h-7.4v-1h7.4Zm9 4.4v.6c0 .8 0 1.4-.2 2a4.2 4.2 0 0 1-.8 1.4 3.5 3.5 0 0 1-2.8 1.3 3.5 3.5 0 0 1-2.8-1.3l-.8-1.4a6.1 6.1 0 0 1-.3-2v-.6c0-.7.1-1.3.3-1.9.2-.6.5-1 .8-1.5.3-.4.8-.7 1.2-.9.5-.2 1-.3 1.6-.3.6 0 1.1.1 1.6.3.5.2.9.5 1.2 1 .3.3.6.8.8 1.4.2.6.3 1.2.3 2Zm-1.2.6v-.6c0-.6 0-1-.2-1.5 0-.4-.2-.8-.5-1.1a2.2 2.2 0 0 0-.8-.7 2.5 2.5 0 0 0-1.1-.2 2.3 2.3 0 0 0-2 .9l-.4 1.1a5.6 5.6 0 0 0-.2 1.5v.6c0 .6 0 1.1.2 1.6l.5 1a2.4 2.4 0 0 0 2 1c.3 0 .7 0 1-.2l.8-.7c.3-.3.4-.7.5-1.1.2-.5.2-1 .2-1.6Zm10.9.8H168v-1h2.6c.5 0 .9-.1 1.2-.3.3-.2.5-.4.6-.7.2-.2.3-.6.3-1l-.3-.9a1.6 1.6 0 0 0-.6-.7l-1.2-.2h-2.3v8.5H167v-9.6h3.5c.8 0 1.4.2 1.9.4s.9.6 1.1 1c.3.5.4 1 .4 1.6a3 3 0 0 1-.4 1.5c-.2.5-.6.8-1.1 1-.5.3-1.1.4-1.8.4Zm5.3-5.9h3.2c.7 0 1.4.1 1.9.4.5.2.8.5 1.1 1 .3.4.4.9.4 1.5a2.7 2.7 0 0 1-1 2.1 3.4 3.4 0 0 1-1.2.6l-.4.1h-3v-1h2.3c.4 0 .8 0 1.1-.2l.7-.7a2 2 0 0 0 0-1.9 1.5 1.5 0 0 0-.7-.6c-.3-.2-.7-.2-1.2-.2h-1.9v8.5H176v-9.6Zm5.7 9.6-2.4-4.3h1.4l2.3 4.3h-1.3Zm10.5-5v.5c0 .8-.1 1.4-.3 2a4.2 4.2 0 0 1-.8 1.4 3.5 3.5 0 0 1-2.8 1.3 3.5 3.5 0 0 1-2.8-1.3l-.8-1.4a6.2 6.2 0 0 1-.3-2v-.6c0-.7.1-1.3.3-1.9.2-.6.5-1 .8-1.5.3-.4.8-.7 1.2-.9.5-.2 1-.3 1.6-.3.6 0 1.1.1 1.6.3.5.2.9.5 1.2 1 .3.3.6.8.8 1.4.2.6.3 1.2.3 2Zm-1.3.5v-.6c0-.6 0-1-.2-1.5 0-.4-.2-.8-.5-1.1l-.8-.7a2.5 2.5 0 0 0-1.1-.2 2.3 2.3 0 0 0-2 .9l-.4 1.1a5.6 5.6 0 0 0-.2 1.5v.6c0 .6 0 1.1.2 1.6l.5 1a2.4 2.4 0 0 0 2 1c.3 0 .7 0 1-.2l.8-.7c.3-.3.4-.7.5-1.1.2-.5.2-1 .2-1.6Zm6.2 4.5h-2v-1h2c.7 0 1.2-.1 1.7-.4.5-.3.8-.7 1-1.3.3-.5.4-1 .4-1.8v-.6l-.2-1.4a3 3 0 0 0-.6-1.1l-1-.7a3.2 3.2 0 0 0-1.2-.2h-2.2v-1h2.2c.6 0 1.2 0 1.7.2a4 4 0 0 1 2.2 2.4c.2.5.3 1.1.3 1.8v.6c0 .7 0 1.3-.3 1.9a4 4 0 0 1-2.2 2.3 5 5 0 0 1-1.8.3Zm-1.4-9.6v9.6h-1.2v-9.6h1.2Zm13.5 0h1.3v6.5c0 .8-.2 1.4-.5 1.8a3 3 0 0 1-1.3 1.1c-.5.2-1 .4-1.7.4-.6 0-1.2-.2-1.7-.4a2.9 2.9 0 0 1-1.7-2.9v-6.5h1.2v6.5c0 .5.1 1 .3 1.3.2.3.4.5.8.7.3.2.7.2 1.1.2.5 0 .9 0 1.2-.2l.8-.7c.2-.4.2-.8.2-1.3v-6.5Zm9.5 6.6h1.3c0 .6-.3 1.1-.6 1.6s-.6.9-1.2 1.2a4 4 0 0 1-1.9.4 3.4 3.4 0 0 1-2.7-1.2 4 4 0 0 1-.8-1.5 6 6 0 0 1-.2-1.8v-1c0-.6 0-1.2.2-1.8l.8-1.4c.3-.4.8-.7 1.2-.9a4 4 0 0 1 1.6-.3 4 4 0 0 1 1.9.4c.5.3.9.7 1.1 1.1.3.5.5 1 .6 1.7h-1.3a3.5 3.5 0 0 0-.3-1.1c-.2-.4-.4-.6-.8-.8-.3-.2-.7-.3-1.2-.3a2.3 2.3 0 0 0-1.9 1l-.5 1a6 6 0 0 0-.2 1.4v1c0 .5 0 1 .2 1.3 0 .4.2.8.4 1.1l.8.8 1.1.2c.6 0 1 0 1.3-.2.3-.2.6-.5.7-.8l.4-1.1Zm6.8-6.6v9.6H224v-9.6h1.3Zm3 0v1H221v-1h7.4Zm6.9 7.2-.1-.6a1.1 1.1 0 0 0-.4-.5l-.7-.4c-.3 0-.6-.2-1.1-.4-.5 0-.9-.3-1.3-.4a4.5 4.5 0 0 1-1-.6 2.2 2.2 0 0 1-.8-1.8 2.3 2.3 0 0 1 .9-1.8c.3-.3.6-.5 1-.6a4 4 0 0 1 1.3-.2c.8 0 1.4.1 1.9.4.5.3.9.6 1.2 1 .2.5.4 1 .4 1.5h-1.3c0-.4-.1-.7-.3-1a1.6 1.6 0 0 0-.7-.6 2.6 2.6 0 0 0-1.1-.3l-1.2.2-.6.6a1.5 1.5 0 0 0-.1 1.3c0 .2.2.4.4.5l.7.4 1 .3 1.4.5c.4.2.8.4 1 .7a2.3 2.3 0 0 1 .8 1.8 2.3 2.3 0 0 1-1 1.9l-1 .5a5 5 0 0 1-3.9-.6 2.5 2.5 0 0 1-1.1-2.2h1.3l.1.9.6.6.7.3a3.7 3.7 0 0 0 2 0l.7-.6c.2-.2.3-.5.3-.8Z"/></g><mask id="h" width="140" height="25" x="33" y="356" maskUnits="userSpaceOnUse" style="mask-type:luminance"><path fill="#fff" d="M172.5 357h-139v23.4h139V357Z"/></mask><g mask="url(#h)"><path fill="#fff" d="M172.5 357h-139v23.4h139V357Z"/><path fill="#4D4D4D" d="M39.7 364v8.3H38v-8.4h1.7Zm8.4 0v8.3h-1.7l-3.4-5.6v5.6h-1.7v-8.4H43l3.4 5.6V364H48Zm5.8 6v-.3a.8.8 0 0 0-.3-.3l-.5-.3-.8-.4c-.4 0-.8-.2-1-.4a4.4 4.4 0 0 1-1-.5c-.2-.2-.5-.4-.6-.7a2 2 0 0 1-.2-1c0-.3 0-.6.2-.9l.7-.7 1-.5a4.4 4.4 0 0 1 2.8.2c.4.2.8.5 1 .9.3.4.4.8.4 1.3H54l-.1-.7a1 1 0 0 0-.5-.4l-.8-.2-.7.2a1 1 0 0 0-.5.3.9.9 0 0 0 0 .5v.4l.3.4.5.2.8.3 1.2.5.8.5a2.1 2.1 0 0 1 .7 1.7c0 .3 0 .7-.2 1a2 2 0 0 1-.6.7c-.2.2-.6.3-1 .4a4.6 4.6 0 0 1-3.5-.5 2.4 2.4 0 0 1-1-2h1.6c0 .2 0 .4.2.6 0 .2.2.3.3.4l.5.3h1.4a.9.9 0 0 0 .6-1Zm6.6-6v8.3h-1.7v-8.4h1.7Zm2.6 0v1.3h-6.8v-1.4h6.8Zm3.7 1.4-2.2 6.9h-1.8l3-8.4H67l-.2 1.5Zm2 6.9-2.3-7-.2-1.4h1.1l3.2 8.4h-1.9Zm-.2-3.1v1.3h-4.4v-1.3h4.4Zm8.1 1.7v1.4h-4.2v-1.4h4.2Zm-3.6-7v8.4h-1.8v-8.4h1.8Zm10 7v1.4h-4.2v-1.4H83Zm-3.7-7v8.4h-1.7v-8.4h1.7Z"/></g></g><g filter="url(#i)"><path fill="#fff" d="M332 273H26a4 4 0 0 0-4 4v108a4 4 0 0 0 4 4h306a4 4 0 0 0 4-4V277a4 4 0 0 0-4-4Z"/><path fill="#4D4D4D" d="m39.7 290.3 2.8 5.4 2.8-5.4h1.6l-3.7 6.7v4h-1.4v-4l-3.7-6.7h1.6Zm12.5 9.3v-4c0-.4 0-.6-.2-.9-.1-.2-.3-.4-.6-.5a2 2 0 0 0-.9-.2c-.3 0-.6 0-.9.2-.3.1-.5.3-.6.5a1 1 0 0 0-.2.6h-1.4l.3-.9.6-.7 1-.6a4 4 0 0 1 2.8.1c.4.2.8.5 1 1 .3.3.4.8.4 1.4v4.5l.3.8v.1h-1.4a5 5 0 0 1-.2-1.4Zm.2-3.4v1H50l-.7.3a1.2 1.2 0 0 0-.7 1.1 1.3 1.3 0 0 0 .7 1.2l.8.2a2.2 2.2 0 0 0 1.9-1c.2-.2.3-.4.3-.7l.6.7-.3.7a3.3 3.3 0 0 1-1.5 1.2 3 3 0 0 1-1.2.3 3 3 0 0 1-1.4-.4 2.2 2.2 0 0 1-1.2-2c0-.4 0-.8.2-1.1l.7-.8a3.4 3.4 0 0 1 1.2-.5l1.4-.2h1.6Zm4.6-1.4v6.2h-1.3v-8h1.2l.1 1.8Zm-.3 2H56c0-.6.1-1.1.3-1.6l.6-1.2a3 3 0 0 1 2.3-1h1.1l.8.6c.2.2.4.5.5.9l.2 1.3v5.2h-1.4v-5.2c0-.4 0-.8-.2-1 0-.3-.3-.4-.5-.6a2 2 0 0 0-.9-.1 2 2 0 0 0-1.6.8 3 3 0 0 0-.6 1.8Zm12.2 2.7v-9.7h1.4V301h-1.2l-.2-1.5Zm-5.3-2.4v-.1c0-.6 0-1.2.2-1.7l.7-1.3a2.8 2.8 0 0 1 2.2-1c.5 0 1 0 1.3.2.4.2.7.4 1 .8.3.3.5.7.6 1.1.2.5.3 1 .3 1.6v.7a6.9 6.9 0 0 1-.3 1.6 3.7 3.7 0 0 1-.6 1.1 2.6 2.6 0 0 1-1 .8 3.2 3.2 0 0 1-2.6 0 3 3 0 0 1-1-.9 4.1 4.1 0 0 1-.6-1.3 5.6 5.6 0 0 1-.2-1.6Zm1.4-.1V298.2l.5 1 .6.6 1 .2a2 2 0 0 0 1.8-1l.4-1v-1.8a4 4 0 0 0-.3-.8c0-.3-.2-.5-.4-.7l-.6-.4a2 2 0 0 0-1-.2 1.9 1.9 0 0 0-1.5.8 3 3 0 0 0-.4 1l-.1 1Zm10.7 4.2a4 4 0 0 1-1.5-.3 3.4 3.4 0 0 1-1.9-2 4.5 4.5 0 0 1-.2-1.6v-.3a4.6 4.6 0 0 1 1-3 3.3 3.3 0 0 1 2.4-1c.6 0 1 0 1.5.2l1 .8c.3.4.5.8.6 1.3l.2 1.5v.6h-6v-1.1h4.6v-.1c0-.3 0-.7-.2-1-.1-.4-.3-.6-.6-.8a1.7 1.7 0 0 0-1-.4 1.8 1.8 0 0 0-1.6.8l-.4 1-.2 1.2v.3c0 .4 0 .7.2 1 0 .4.2.7.4 1a2.2 2.2 0 0 0 1.8.7c.5 0 .9 0 1.2-.3l.9-.7.8.6-.7.8-1 .5c-.3.2-.8.2-1.3.2Zm5.6-8.1L83 296l1.8-3h1.6l-2.6 4 2.7 4h-1.6l-1.8-3-1.9 3h-1.5l2.6-4-2.6-4h1.6Zm14.2 2.9h-2.7v-1.1h2.5l1-.2a1.6 1.6 0 0 0 1-1.5c0-.4 0-.8-.2-1a1.3 1.3 0 0 0-.7-.5c-.3-.2-.7-.2-1.2-.2h-2v9.5h-1.5v-10.7h3.5c.6 0 1 0 1.5.2l1 .5c.4.2.6.5.8.9l.2 1.3-.3 1.2a2.6 2.6 0 0 1-1 .8c-.4.3-.8.4-1.4.5l-.5.3Zm0 5h-3.2l.8-1.2h2.4c.4 0 .8 0 1.1-.2.3-.2.6-.4.7-.7a2 2 0 0 0 .3-1c0-.4 0-.7-.2-1a1.5 1.5 0 0 0-.7-.7l-1.2-.2h-2v-1.1h2.8l.3.4a2.6 2.6 0 0 1 2.1 1.3c.2.4.3.8.3 1.3a2.8 2.8 0 0 1-1.7 2.7c-.5.3-1.1.4-1.8.4Zm6.7-6.7v6.7H101v-8h1.3v1.3Zm2.5-1.3v1.3a3.3 3.3 0 0 0-.6 0 2 2 0 0 0-.9 0l-.6.5-.4.6-.2.8-.3.2v-1.3l.5-1.1a2.1 2.1 0 0 1 2.5-1Zm.8 4.1v-.2c0-.5 0-1 .2-1.5s.4-1 .7-1.3c.3-.4.7-.7 1.2-.9.4-.2.9-.3 1.5-.3l1.5.3a3.9 3.9 0 0 1 1.9 2.1l.2 1.6v.2c0 .6-.1 1.1-.3 1.6-.1.5-.4 1-.7 1.3a3.3 3.3 0 0 1-2.6 1.1 3.4 3.4 0 0 1-3.4-2.4 4.9 4.9 0 0 1-.2-1.6Zm1.3-.2v.2c0 .4 0 .8.2 1.1 0 .4.2.7.4 1l.7.6 1 .2a2 2 0 0 0 1-.2l.6-.6.5-1 .1-1v-.2a3.8 3.8 0 0 0-.6-2 2 2 0 0 0-1.6-1 2 2 0 0 0-1 .3 2.1 2.1 0 0 0-.7.6c-.2.3-.4.6-.4 1a4 4 0 0 0-.2 1Zm9.6 2.7 2-6.5h1l-.3 1.3-2 6.6h-1l.3-1.4ZM115 293l1.7 6.6.2 1.3h-1l-2.2-8h1.3Zm6.3 6.5 1.6-6.5h1.4L122 301h-1l.3-1.4Zm-1.8-6.5 2 6.4.2 1.5h-.8l-2.2-6.6-.1-1.3h.9Zm10.8 5.8c0-.2 0-.4-.2-.5a1.1 1.1 0 0 0-.5-.5 4.3 4.3 0 0 0-1.2-.4l-1.2-.3a3.6 3.6 0 0 1-.9-.5 1.8 1.8 0 0 1-.7-1.5c0-.3 0-.6.2-.9a2.5 2.5 0 0 1 1.5-1.2l1.2-.2c.7 0 1.2.1 1.7.4.4.2.7.5 1 .9.2.3.3.7.3 1.2h-1.3c0-.2 0-.4-.2-.6a1.5 1.5 0 0 0-.6-.6l-.9-.2a2 2 0 0 0-.9.2l-.5.4a1.1 1.1 0 0 0 0 1c0 .1 0 .2.2.3l.6.3.9.2c.6.2 1.1.3 1.6.6.4.1.7.4 1 .7l.2 1a2 2 0 0 1-.8 1.8l-1 .5-1.2.1c-.7 0-1.3 0-1.8-.3a2.7 2.7 0 0 1-1.1-1c-.3-.4-.4-.8-.4-1.3h1.4c0 .4.1.7.3 1l.7.4a2.8 2.8 0 0 0 1.8 0l.6-.4.2-.6Zm6.4 2.2a3.4 3.4 0 0 1-3.4-2.3 4.5 4.5 0 0 1-.2-1.5v-.3c0-.7 0-1.2.2-1.7l.8-1.3a3.3 3.3 0 0 1 3.9-.8l1 .8c.3.4.5.8.6 1.3l.2 1.5v.6h-6v-1.1h4.6v-.1c0-.3 0-.7-.2-1-.1-.4-.3-.6-.6-.8a1.7 1.7 0 0 0-1-.4 1.8 1.8 0 0 0-1.6.8l-.4 1-.2 1.2v.3c0 .4 0 .7.2 1 0 .4.2.7.4 1a2.2 2.2 0 0 0 1.8.7c.4 0 .8 0 1.2-.3l.9-.7.8.6-.7.8a3.5 3.5 0 0 1-2.3.7Zm6-6.8v6.7h-1.3v-8h1.3v1.3Zm2.5-1.3v1.3a3.4 3.4 0 0 0-.7 0 2 2 0 0 0-.8 0 1.7 1.7 0 0 0-1 1.1 3 3 0 0 0-.2.8l-.4.2c0-.5 0-1 .2-1.3 0-.5.2-.8.4-1.1.2-.4.5-.6.8-.8a2.1 2.1 0 0 1 1.7-.2Z"/><path fill="#888" d="m39.5 310.8 2.4 4.6 2.4-4.6h1.4l-3.2 5.7v3.5h-1.2v-3.5l-3.2-5.7h1.4Zm10.8 8v-3.5c0-.3 0-.5-.2-.7a1 1 0 0 0-.5-.5 1.8 1.8 0 0 0-.8-.2 2 2 0 0 0-.7.2l-.6.4a.9.9 0 0 0-.1.5h-1.2c0-.2 0-.5.2-.7 0-.2.3-.5.5-.7l.9-.4 1.1-.2c.5 0 1 0 1.3.3.4.1.7.4 1 .7.1.4.3.8.3 1.3V319.2l.2.7v.1h-1.2a4.3 4.3 0 0 1-.2-1.2Zm.2-3v.9h-1.2a5 5 0 0 0-.9 0c-.3 0-.5.2-.7.3a1 1 0 0 0-.5 1l.1.5.5.4c.2.2.4.2.7.2a2 2 0 0 0 1.6-.8l.3-.6.5.5a1.7 1.7 0 0 1-.2.6 2.8 2.8 0 0 1-1.4 1.1c-.2.2-.6.2-1 .2s-.8 0-1.2-.3a2 2 0 0 1-1-1.7 2 2 0 0 1 .8-1.7c.2-.2.6-.3 1-.4a5 5 0 0 1 1.2-.2h1.4Zm4-1.2v5.4h-1.2v-6.9h1.1v1.5Zm-.3 1.7h-.5a3.9 3.9 0 0 1 .8-2.4 2.5 2.5 0 0 1 2-.9l1 .1a1.8 1.8 0 0 1 1 1.2l.2 1.2v4.5h-1.2v-4.5l-.1-.9a1 1 0 0 0-.5-.5l-.8-.1a1.7 1.7 0 0 0-1.4.7 2.5 2.5 0 0 0-.5 1.6Zm10.6 2.4v-8.5H66v9.8h-1l-.2-1.3Zm-4.6-2v-.2a5 5 0 0 1 .2-1.4c.1-.5.3-.8.5-1.1a2.4 2.4 0 0 1 2-1c.5 0 .8 0 1.1.2l.9.7.5 1 .3 1.4v.6c0 .5-.2 1-.3 1.3l-.5 1-.9.7a2.7 2.7 0 0 1-2.2 0 2.6 2.6 0 0 1-.9-.8 3.6 3.6 0 0 1-.5-1l-.2-1.5Zm1.2-.2v1.1l.4.8.6.5c.2.2.5.2.8.2.4 0 .7 0 1-.2l.6-.7.3-.8v-1.6a3.4 3.4 0 0 0-.2-.7 2 2 0 0 0-.4-.5 1.6 1.6 0 0 0-.5-.4 1.8 1.8 0 0 0-.8-.2c-.3 0-.6 0-.8.2-.3.1-.4.3-.6.5-.1.3-.3.5-.3.8l-.1 1Zm9.3 3.6a3 3 0 0 1-3-2l-.2-1.3v-.3l.3-1.5c.1-.4.4-.8.6-1a2.9 2.9 0 0 1 2.1-1c.5 0 1 0 1.3.3l.9.7.5 1 .2 1.4v.5h-5.2v-1h4l-.2-1a1.6 1.6 0 0 0-.5-.7 1.5 1.5 0 0 0-1-.2 1.6 1.6 0 0 0-1.3.6 2.5 2.5 0 0 0-.4.8 4.1 4.1 0 0 0-.1 1.1v.3l.1 1 .4.7.7.5.8.2a2 2 0 0 0 1.9-1l.7.6-.6.6-.8.5a3.3 3.3 0 0 1-1.2.2Zm4.8-7 1.5 2.5 1.5-2.5H80l-2.2 3.4L80 320h-1.4l-1.5-2.6-1.6 2.6H74l2.3-3.5-2.2-3.4h1.3Z"/><path fill="#4D4D4D" d="M43.5 336.3v1.1h-5.2v-.8l3-4.7h1l-1.1 2-1.5 2.4h3.8Zm-.8-4.4v7.1h-1.4v-7.1h1.4Zm3 6v.9c0 .3-.2.7-.4 1-.1.4-.4.7-.6 1l-.8-.4.3-.5a2.2 2.2 0 0 0 .2-1v-1h1.2Zm2.3-2.1-1.1-.3.4-3.6h4v1.1h-2.8l-.2 1.6a2.3 2.3 0 0 1 1-.3c.4 0 .7 0 1 .2l.7.5.4.7a3.2 3.2 0 0 1 0 2 2 2 0 0 1-1.2 1.2 3 3 0 0 1-2 0 2.2 2.2 0 0 1-1.3-1 2 2 0 0 1-.2-.9h1.4c0 .2 0 .4.2.6l.3.3.5.1.5-.1a.8.8 0 0 0 .3-.3l.2-.4a2.4 2.4 0 0 0 0-1l-.3-.5a1 1 0 0 0-.3-.2l-.5-.1h-.6l-.4.4Z"/><path fill="#4D4D4D" fill-rule="evenodd" d="m61 338-3 2 1.1-3.4-2.9-2.2h3.6L61 331l1.2 3.4h3.6l-2.9 2.2 1 3.4-2.9-2Z" clip-rule="evenodd"/><path fill="#40B8BA" stroke="#fff" d="m90.7 321.3 5.6-5.6-5.6-5.7-5.7 5.7 5.7 5.6Z"/><path fill="#40B8BA" stroke="#fff" d="m90.7 317 3.5-3.5-3.5-3.5-3.6 3.5 3.6 3.6Z"/><path fill="url(#j)" fill-rule="evenodd" d="M316 312a20 20 0 1 1-40 0 20 20 0 0 1 40 0Z" clip-rule="evenodd"/><path fill="#fff" fill-rule="evenodd" d="M315.1 312a19.1 19.1 0 1 1-38.2 0 19.1 19.1 0 0 1 38.2 0Z" clip-rule="evenodd"/><path fill="#EC1C24" fill-rule="evenodd" d="m308.7 303.3-10.6 10.6V327c0 .2-1 .4-2.1.4s-2.1-.2-2.1-.4v-13.1l-10.6-10.6c-.2-.2.4-1 1.2-1.9.8-.8 1.6-1.4 1.8-1.2l9.7 9.7 9.7-9.7c.1-.2 1 .4 1.8 1.2.8.9 1.4 1.7 1.2 1.9Z" clip-rule="evenodd"/><path fill="#4D4D4D" d="M40.4 360.8v9.2h-1.2v-9.2h1.2Zm9.3 0v9.2h-1.2l-4.7-7.1v7.1h-1.2v-9.2H44l4.6 7.1v-7.1h1.2Zm7.1 6.9v-.6a1 1 0 0 0-.4-.5 2.6 2.6 0 0 0-.7-.4 9.3 9.3 0 0 0-1-.3 9.9 9.9 0 0 1-1.3-.5 4.3 4.3 0 0 1-1-.5 2.1 2.1 0 0 1-.8-1.7 2.3 2.3 0 0 1 .9-1.8 3 3 0 0 1 1-.6 4.1 4.1 0 0 1 1.3-.2c.7 0 1.2.2 1.7.4.5.3.9.6 1.1 1 .3.5.4 1 .4 1.4h-1.2c0-.3 0-.6-.2-.9a1.5 1.5 0 0 0-.7-.6 2.6 2.6 0 0 0-2.2 0 1.3 1.3 0 0 0-.9 1.2c0 .2 0 .4.2.6l.4.4.6.4 1 .3 1.4.5 1 .6.5.8.1 1a2.2 2.2 0 0 1-.8 1.7c-.3.3-.7.4-1 .6a4.7 4.7 0 0 1-2.7 0l-1-.6a2.4 2.4 0 0 1-1.2-2h1.2l.2.7c.1.3.3.4.5.6.2.1.5.3.8.3a3.6 3.6 0 0 0 1.9 0l.7-.6.2-.7Zm6.2-7v9.3h-1.2v-9.2H63Zm3 0v1h-7.1v-1H66Zm4.3.9-3 8.4H66l3.5-9.2h.8v.8Zm2.6 8.4-3.1-8.4v-.8h.8L74 370H73Zm-.2-3.4v1h-5.2v-1h5.2Zm8.2 2.4v1h-4.6v-1H81Zm-4.3-8.2v9.2h-1.3v-9.2h1.3ZM88 369v1h-4.7v-1H88Zm-4.4-8.2v9.2h-1.2v-9.2h1.2Z"/></g></g></g><g filter="url(#k)"><path fill="#fff" d="M332 396H26a4 4 0 0 0-4 4v113a4 4 0 0 0 4 4h306a4 4 0 0 0 4-4V400a4 4 0 0 0-4-4Z"/><path fill="#4D4D4D" d="m45 422.3-.2-.7-.4-.5-.8-.4-1.2-.5-1.4-.5-1.1-.6a2.4 2.4 0 0 1-1-2 2.6 2.6 0 0 1 1-2c.3-.3.7-.5 1.2-.7l1.5-.2a4 4 0 0 1 2 .5c.6.3 1 .7 1.3 1.2a3 3 0 0 1 .4 1.5H45c0-.4 0-.7-.2-1a1.8 1.8 0 0 0-.8-.8 2.8 2.8 0 0 0-1.3-.3c-.5 0-1 .1-1.3.3-.3.1-.6.3-.7.6a1.6 1.6 0 0 0-.1 1.5c0 .2.2.3.4.5l.8.4 1.1.4 1.6.6c.5.2.8.4 1 .7.4.3.6.6.7.9.2.3.2.7.2 1a2.6 2.6 0 0 1-1 2.2l-1.1.6a5.5 5.5 0 0 1-3 0c-.5-.2-1-.4-1.3-.7a2.8 2.8 0 0 1-1.3-2.4H40c0 .4 0 .7.2 1l.6.6.8.4a4 4 0 0 0 2.3-.1c.3-.2.6-.3.8-.6l.2-.9Zm7.6 1.3v-4c0-.4 0-.6-.2-.9l-.5-.5a2 2 0 0 0-1-.2c-.3 0-.6 0-.9.2l-.6.5a1 1 0 0 0-.2.6H48c0-.3 0-.6.2-.9l.6-.7 1-.6a4 4 0 0 1 2.8.1c.5.2.8.5 1 1 .3.3.5.8.5 1.4v4.5c0 .3.2.6.3.8v.1h-1.5a5 5 0 0 1-.2-1.4Zm.3-3.4v1h-2.4l-.8.3a1.2 1.2 0 0 0-.6 1.1 1.3 1.3 0 0 0 .6 1.2l.9.2a2.2 2.2 0 0 0 1.9-1l.3-.7.5.7c0 .2 0 .4-.2.7a3.3 3.3 0 0 1-1.6 1.2 3 3 0 0 1-1.1.3 3 3 0 0 1-1.4-.4 2.2 2.2 0 0 1-1.3-2c0-.4.1-.8.3-1.1.1-.3.4-.6.7-.8a3.4 3.4 0 0 1 1.1-.5l1.5-.2h1.6Zm4.6-1.6v6.4H56v-8h1.3v1.6Zm-.3 2.1h-.7l.2-1.5.6-1.2 1-.8 1.5-.3c.3 0 .7 0 1 .2a2 2 0 0 1 1.3 1.4c.2.3.2.7.2 1.2v5.3H61v-5.2l-.2-1a1.2 1.2 0 0 0-.6-.5 2.1 2.1 0 0 0-1-.2c-.3 0-.7 0-1 .2a1.7 1.7 0 0 0-.6.6c-.1.2-.3.5-.3.8l-.1 1Zm5.1-.7-.9.3a3.4 3.4 0 0 1 .8-2.4l1-.7a3.5 3.5 0 0 1 2.5-.1l.8.5c.2.2.4.5.5.9l.2 1.3v5.2h-1.4v-5.2c0-.5 0-.8-.2-1a1.1 1.1 0 0 0-.6-.6 2.4 2.4 0 0 0-1.6 0l-.6.4-.4.6-.1.8Zm11.6 2.9c0-.2 0-.4-.2-.5a1.1 1.1 0 0 0-.5-.5 4.3 4.3 0 0 0-1.2-.4l-1.2-.3a3.6 3.6 0 0 1-.9-.5 1.8 1.8 0 0 1-.7-1.5c0-.3 0-.6.2-.8.1-.3.3-.6.6-.8.2-.2.5-.4 1-.5l1.1-.2c.7 0 1.2.1 1.6.4a2.4 2.4 0 0 1 1.4 2.1h-1.3c0-.2 0-.4-.2-.6a1.5 1.5 0 0 0-.6-.6l-.9-.1a2 2 0 0 0-.9.1 1 1 0 0 0-.5.5 1 1 0 0 0 0 .9c0 .1 0 .2.2.3l.6.3.9.2a7.4 7.4 0 0 1 1.6.6l1 .7.2 1.1a2 2 0 0 1-.8 1.7l-1 .5-1.2.1c-.7 0-1.3 0-1.8-.3a2.7 2.7 0 0 1-1.1-1c-.3-.4-.4-.8-.4-1.3h1.4c0 .4.1.7.3 1l.7.4a2.8 2.8 0 0 0 1.8 0l.6-.4.2-.6Zm8 .3V417h1.3v7.9H82v-1.8Zm.2-1.7h.6c0 .5 0 1-.2 1.4a3 3 0 0 1-.5 1.2l-1 .8c-.4.2-.9.2-1.4.2l-1-.1a2.1 2.1 0 0 1-1.4-1.5 4.4 4.4 0 0 1-.2-1.3V417h1.3v5.1l.1.9.4.5c.1.2.3.3.4.3a2.5 2.5 0 0 0 2-.2l.7-1 .2-1.2Zm4.5-2.7v6.2h-1.3v-8h1.3v1.8Zm-.3 2h-.5c0-.6 0-1.1.2-1.6.1-.5.4-.9.7-1.2a3 3 0 0 1 2.3-1h1l.8.6c.2.2.4.5.5.9l.2 1.3v5.2h-1.4v-5.2l-.1-1-.6-.6a2 2 0 0 0-.8-.1 2 2 0 0 0-1.7.8 3 3 0 0 0-.6 1.8Zm12.4-3.7h1.2v7.7c0 .7-.1 1.3-.4 1.8-.3.5-.7.9-1.2 1.1a3.8 3.8 0 0 1-2.7.3 3.9 3.9 0 0 1-1-.4 2.7 2.7 0 0 1-1-.9l.8-.8c.3.4.6.7 1 .9a2.7 2.7 0 0 0 2.2 0l.7-.7c.2-.4.3-.7.3-1.2v-6l.1-1.8Zm-5.4 4v-.1c0-.6 0-1.2.2-1.7.1-.5.3-.9.6-1.3a2.8 2.8 0 0 1 2.3-1c.5 0 1 0 1.3.2s.7.4 1 .7l.6 1.2.3 1.6v.7a6.9 6.9 0 0 1-.3 1.5 3.7 3.7 0 0 1-.7 1.2 2.6 2.6 0 0 1-1 .8 3.2 3.2 0 0 1-2.5 0 3 3 0 0 1-1-.9 4 4 0 0 1-.6-1.3 5.8 5.8 0 0 1-.2-1.6Zm1.3-.1v.1l.1 1.1.4 1 .6.6 1 .2a2 2 0 0 0 1.1-.3l.7-.7.4-1v-1.8a3.6 3.6 0 0 0-.2-.8 2.2 2.2 0 0 0-1.1-1.2 2.1 2.1 0 0 0-.9-.1 1.9 1.9 0 0 0-1.6.8l-.4 1-.1 1Zm12.8-6.7V425H106v-10.7h1.4Zm3.8 4.5v6.2h-1.4v-8h1.3v1.8Zm-.4 2h-.5c0-.6 0-1.1.2-1.6s.4-.9.7-1.2a3 3 0 0 1 2.3-1h1l.9.6.5.9.1 1.3v5.2h-1.3v-5.2c0-.4 0-.8-.2-1-.1-.3-.3-.4-.5-.6a2 2 0 0 0-1-.1 2 2 0 0 0-1.5.8 3 3 0 0 0-.7 1.8Zm10.6-3.7v1h-4.3v-1h4.3Zm-2.8-2h1.3v8c0 .2 0 .4.2.5 0 .2.2.3.3.3h.4a2.3 2.3 0 0 0 .6 0v1.1a3.3 3.3 0 0 1-1 .1 2.1 2.1 0 0 1-1-.2c-.2 0-.4-.3-.6-.6a2.8 2.8 0 0 1-.2-1.3v-7.9Zm7.7 10a4 4 0 0 1-1.5-.2 3.4 3.4 0 0 1-1.9-2 4.5 4.5 0 0 1-.2-1.6v-.3c0-.7 0-1.2.2-1.7l.8-1.3a3.3 3.3 0 0 1 2.4-1c.6 0 1 0 1.5.2l1 .8c.3.4.5.8.6 1.3l.2 1.5v.6h-6v-1.1h4.6v-.1c0-.3 0-.7-.2-1-.1-.4-.3-.6-.6-.8a1.7 1.7 0 0 0-1-.4 1.8 1.8 0 0 0-1.6.8 2.9 2.9 0 0 0-.4 1l-.2 1.2v.3c0 .4 0 .7.2 1 0 .4.2.7.4 1a2.2 2.2 0 0 0 1.8.7c.4 0 .8 0 1.2-.3l.9-.7.8.6-.7.8a3.1 3.1 0 0 1-1 .5c-.3.2-.8.2-1.3.2Zm6-6.8v6.7H131v-8h1.3v1.3Zm2.5-1.3v1.3a3.4 3.4 0 0 0-.7 0 2 2 0 0 0-.8 0l-.6.5-.4.6a3 3 0 0 0-.2.8l-.4.2c0-.5 0-.9.2-1.3 0-.4.2-.8.4-1.1.2-.4.5-.6.8-.8a2.1 2.1 0 0 1 1.7-.2Zm2.6 1.8v6.2H136v-8h1.3v1.8Zm-.3 2h-.6a4.5 4.5 0 0 1 .9-2.8 3 3 0 0 1 2.3-1h1l.9.6c.2.2.4.5.5.9l.2 1.3v5.2h-1.4v-5.2c0-.4 0-.8-.2-1a1 1 0 0 0-.5-.6 2 2 0 0 0-.9-.1 2 2 0 0 0-1.6.8 3 3 0 0 0-.6 1.8Zm10.5 4.3a3.4 3.4 0 0 1-3.4-2.3 4.5 4.5 0 0 1-.2-1.5v-.3c0-.7 0-1.2.3-1.7.2-.5.4-1 .7-1.3a3.3 3.3 0 0 1 2.4-1c.6 0 1 0 1.5.2.4.2.8.5 1 .8.3.4.5.8.6 1.3l.2 1.5v.6h-6v-1.1h4.6v-.1c0-.3 0-.7-.2-1-.1-.4-.3-.6-.6-.8a1.7 1.7 0 0 0-1-.4 1.8 1.8 0 0 0-1.6.8 2.9 2.9 0 0 0-.4 1l-.2 1.2v.3c0 .4 0 .7.2 1 0 .4.3.7.5 1a2.2 2.2 0 0 0 1.7.7c.5 0 .9 0 1.2-.3l.9-.7.8.6a4 4 0 0 1-.7.8 3.1 3.1 0 0 1-1 .5 4 4 0 0 1-1.3.2Zm8-8v1h-4.3v-1h4.3Zm-2.8-2h1.3v8l.1.5a.6.6 0 0 0 .4.3h.4a2.3 2.3 0 0 0 .6 0v1.1a3.2 3.2 0 0 1-1 .1 2 2 0 0 1-1-.2c-.2 0-.4-.3-.6-.6a2.8 2.8 0 0 1-.2-1.3v-7.9Zm8.1-1.4h1.4v9.8l-.1 1.5h-1.3v-11.3Zm6.7 7.3v.1c0 .6 0 1.1-.2 1.6a4 4 0 0 1-.6 1.3 2.8 2.8 0 0 1-1 .8 3.2 3.2 0 0 1-2.6 0c-.4 0-.7-.3-1-.7a4 4 0 0 1-.6-1.2 7.4 7.4 0 0 1-.3-1.5v-.7c0-.6.2-1.1.3-1.6l.7-1.2c.2-.3.5-.5 1-.7.3-.2.7-.3 1.2-.3a2.8 2.8 0 0 1 2.3 1.1c.3.4.5.8.6 1.3.2.5.2 1 .2 1.7Zm-1.3.1v-.1l-.1-1.1a2.9 2.9 0 0 0-.4-1 1.8 1.8 0 0 0-1.6-.8 2 2 0 0 0-1.5.6l-.5.7a4 4 0 0 0-.2.8v1.7c0 .4.2.7.4 1a2 2 0 0 0 1.8 1.1c.4 0 .7 0 1-.2l.6-.7c.1-.2.3-.5.3-.9l.2-1Zm4.4-2.8v6.7h-1.4v-8h1.4v1.3Zm2.5-1.3v1.3a3.4 3.4 0 0 0-.7 0 2 2 0 0 0-.8 0l-.6.5-.4.6-.2.8-.4.2.1-1.3.5-1.1c.2-.4.4-.6.7-.8a2.1 2.1 0 0 1 1.8-.2Zm.7 4.1v-.1c0-.6 0-1.1.3-1.6a3.5 3.5 0 0 1 1.8-2.2l1.5-.3c.6 0 1 .1 1.5.3.5.2.8.5 1.2.9.3.3.5.8.7 1.3l.2 1.6v.1c0 .6 0 1.1-.2 1.6s-.4 1-.8 1.3a3.3 3.3 0 0 1-2.6 1.1 3.4 3.4 0 0 1-3.3-2.4 4.9 4.9 0 0 1-.3-1.6Zm1.4-.1v.1l.1 1.1.4 1 .7.6c.3.2.6.2 1 .2a2 2 0 0 0 1-.2l.7-.6.4-1 .2-1v-.2a3.8 3.8 0 0 0-.6-2 2 2 0 0 0-1.7-1 2 2 0 0 0-1 .3 2.1 2.1 0 0 0-.7.6 3 3 0 0 0-.4 1l-.1 1Zm9.5 2.6 2-6.5h1l-.2 1.3-2 6.6h-1l.2-1.4Zm-1.3-6.5 1.7 6.6.1 1.3h-.9l-2.3-8h1.4Zm6.2 6.5 1.7-6.5h1.3l-2.3 7.9h-.9l.2-1.4Zm-1.7-6.5 2 6.4.2 1.5h-.9l-2.1-6.6-.2-1.3h1Zm10.7 5.8-.1-.5a1.1 1.1 0 0 0-.5-.5 4.3 4.3 0 0 0-1.2-.4l-1.2-.3a3.6 3.6 0 0 1-1-.5 1.8 1.8 0 0 1-.7-1.5 2 2 0 0 1 .2-.8l.6-.8 1-.5 1.2-.2c.6 0 1.2.1 1.6.4a2.4 2.4 0 0 1 1.4 2.1h-1.4c0-.2 0-.4-.2-.6a1.5 1.5 0 0 0-.5-.6l-1-.2a2 2 0 0 0-.8.2 1 1 0 0 0-.5.4 1.1 1.1 0 0 0-.1 1l.3.3.5.3 1 .2a7.4 7.4 0 0 1 1.5.6c.5.2.8.4 1 .7.2.3.3.7.3 1.1a2 2 0 0 1-.9 1.7l-1 .5-1.2.1c-.7 0-1.3 0-1.8-.3a2.7 2.7 0 0 1-1-1c-.3-.4-.4-.8-.4-1.3h1.3c0 .4.2.7.4 1l.7.4a2.8 2.8 0 0 0 1.7 0l.6-.4c.2-.2.2-.4.2-.6Zm6.4 2.2a3.4 3.4 0 0 1-3.3-2.3 4.5 4.5 0 0 1-.3-1.5v-.3c0-.7.1-1.2.3-1.7.2-.5.4-1 .8-1.3a3.3 3.3 0 0 1 2.4-1c.5 0 1 0 1.4.2.4.2.8.5 1 .8.3.4.5.8.6 1.3.2.4.2 1 .2 1.5v.6h-5.9v-1.1h4.6v-.1l-.2-1a2 2 0 0 0-.6-.8 1.7 1.7 0 0 0-1.1-.4 1.8 1.8 0 0 0-1.5.8l-.5 1-.1 1.2v.3l.1 1 .5 1a2.2 2.2 0 0 0 1.7.7c.5 0 .9 0 1.2-.3.4-.2.7-.4.9-.7l.8.6-.6.8a3.5 3.5 0 0 1-2.4.7Zm6-6.8v6.7h-1.3v-8h1.3v1.3Zm2.5-1.3v1.3a3.3 3.3 0 0 0-.6 0h-.9a1.7 1.7 0 0 0-1 1.1 3 3 0 0 0-.1.8l-.4.2.1-1.3.5-1.1c.2-.4.4-.6.7-.8a2.1 2.1 0 0 1 1.7-.2Z"/><path fill="#888" d="m39.5 434.8 2.4 4.6 2.4-4.6h1.4l-3.2 5.7v3.5h-1.2v-3.5l-3.2-5.7h1.4Zm10.8 8v-3.5c0-.3 0-.5-.2-.7a1 1 0 0 0-.5-.5 1.8 1.8 0 0 0-.8-.2 2 2 0 0 0-.7.2l-.6.4a.9.9 0 0 0-.1.5h-1.2c0-.2 0-.5.2-.7 0-.2.3-.5.5-.7l.9-.4 1.1-.2c.5 0 1 0 1.3.3.4.1.7.4 1 .7.1.4.3.8.3 1.3V443.2l.2.7v.1h-1.2a4.3 4.3 0 0 1-.2-1.2Zm.2-3v.9h-1.2a5 5 0 0 0-.9 0c-.3 0-.5.2-.7.3a1 1 0 0 0-.5 1l.1.5.5.4c.2.2.4.2.7.2a2 2 0 0 0 1.6-.8l.3-.6.5.5a1.7 1.7 0 0 1-.2.6 2.8 2.8 0 0 1-1.4 1.1c-.2.2-.6.2-1 .2s-.8 0-1.2-.3a2 2 0 0 1-1-1.7 2 2 0 0 1 .8-1.7c.2-.2.6-.3 1-.4a5 5 0 0 1 1.2-.2h1.4Zm4-1.2v5.4h-1.2v-6.9h1.1v1.5Zm-.3 1.7h-.5a3.9 3.9 0 0 1 .8-2.4 2.5 2.5 0 0 1 2-.9l1 .1a1.8 1.8 0 0 1 1 1.2l.2 1.2v4.5h-1.2v-4.5l-.1-.9a1 1 0 0 0-.5-.5l-.8-.1a1.7 1.7 0 0 0-1.4.7 2.5 2.5 0 0 0-.5 1.6Zm10.6 2.4v-8.5H66v9.8h-1l-.2-1.3Zm-4.6-2v-.2a5 5 0 0 1 .2-1.4c.1-.5.3-.8.5-1.1a2.4 2.4 0 0 1 2-1c.5 0 .8 0 1.1.2l.9.7.5 1 .3 1.4v.6c0 .5-.2 1-.3 1.3l-.5 1-.9.7a2.7 2.7 0 0 1-2.2 0 2.6 2.6 0 0 1-.9-.8 3.6 3.6 0 0 1-.5-1l-.2-1.5Zm1.2-.2v1.1l.4.8.6.5c.2.2.5.2.8.2.4 0 .7 0 1-.2l.6-.7.3-.8v-1.6a3.4 3.4 0 0 0-.2-.7 2 2 0 0 0-.4-.5 1.6 1.6 0 0 0-.5-.4 1.8 1.8 0 0 0-.8-.2c-.3 0-.6 0-.8.2-.3.1-.4.3-.6.5-.1.3-.3.5-.3.8l-.1 1Zm9.3 3.6a3 3 0 0 1-3-2l-.2-1.3v-.3l.3-1.5c.1-.4.4-.8.6-1a2.9 2.9 0 0 1 2.1-1c.5 0 1 0 1.3.3l.9.7.5 1 .2 1.4v.5h-5.2v-1h4l-.2-1a1.6 1.6 0 0 0-.5-.7 1.5 1.5 0 0 0-1-.2 1.6 1.6 0 0 0-1.3.6 2.5 2.5 0 0 0-.4.8 4.1 4.1 0 0 0-.1 1.1v.3l.1 1 .4.7.7.5.8.2a2 2 0 0 0 1.9-1l.7.6-.6.6-.8.5a3.3 3.3 0 0 1-1.2.2Zm4.8-7 1.5 2.5 1.5-2.5H80l-2.2 3.4L80 444h-1.4l-1.5-2.6-1.6 2.6H74l2.3-3.5-2.2-3.4h1.3Z"/><path fill="#4D4D4D" d="M43.5 460.3v1.1h-5.2v-.8l3-4.7h1l-1.1 2-1.5 2.4h3.8Zm-.8-4.4v7.1h-1.4v-7.1h1.4Zm3 6v.9c0 .3-.2.7-.4 1-.1.4-.4.7-.6 1l-.8-.4.3-.5a2.2 2.2 0 0 0 .2-1v-1h1.2Zm2.3-2.1-1.1-.3.4-3.6h4v1.1h-2.8l-.2 1.6a2.3 2.3 0 0 1 1-.3c.4 0 .7 0 1 .2l.7.5.4.7a3.2 3.2 0 0 1 0 2 2 2 0 0 1-1.2 1.2 3 3 0 0 1-2 0 2.2 2.2 0 0 1-1.3-1 2 2 0 0 1-.2-.9h1.4c0 .2 0 .4.2.6l.3.3.5.1.5-.1a.8.8 0 0 0 .3-.3l.2-.4a2.4 2.4 0 0 0 0-1l-.3-.5a1 1 0 0 0-.3-.2l-.5-.1h-.6l-.4.4Z"/><path fill="#4D4D4D" fill-rule="evenodd" d="m61 462-3 2 1.1-3.4-2.9-2.2h3.6L61 455l1.2 3.4h3.6l-2.9 2.2 1 3.4-2.9-2Z" clip-rule="evenodd"/><path fill="#40B8BA" stroke="#fff" d="m90.7 445.3 5.6-5.6-5.6-5.7-5.7 5.7 5.7 5.6Z"/><path fill="#40B8BA" stroke="#fff" d="m90.7 441 3.5-3.5-3.5-3.5-3.6 3.5 3.6 3.6Z"/><path fill="#7882FF" d="M315.6 430a17 17 0 0 0-4-9.5 17 17 0 0 0-9.6-4.1c-3.6-.5-6-.4-6-.4s-2.4-.1-6 .4a17 17 0 0 0-9.5 4 17 17 0 0 0-4.1 9.6c-.5 3.6-.4 6-.4 6s-.1 2.4.4 6a17 17 0 0 0 4 9.5 17 17 0 0 0 9.6 4.2c3.6.4 6 .3 6 .3s2.4.1 6-.3c3.7-.5 7-1.8 9.5-4.2a17 17 0 0 0 4.1-9.5c.5-3.6.4-6 .4-6s.1-2.4-.4-6Z"/><path fill="#fff" d="M306.3 433a10.7 10.7 0 1 1-20.6 5.8 10.7 10.7 0 0 1 20.6-5.8Z"/><path fill="#fff" d="M306.3 433a10.7 10.7 0 0 1-.4 6.8"/><path fill="#fff" d="M306 433c.5 1.5.6 3 .3 4.5l-.2-4.5Z"/><path fill="#4D5CC1" d="M303.1 443.4c-2.7 0-6-.7-9.3-2a27.1 27.1 0 0 1-8.2-4.6c-3.3-3-3-5.2-2.6-6.3.4-1 1.7-2.9 6.1-2.9 2.7 0 6 .7 9.3 2a27.1 27.1 0 0 1 8.2 4.6c3.3 3 3 5.2 2.6 6.3-.4 1-1.7 3-6.1 3Zm-14-12.4c-2 0-2.9.5-3 .7 0 .2.3 1.2 1.8 2.5 1.7 1.6 4.3 3 7.1 4.1a24.1 24.1 0 0 0 8.1 1.7c2 0 3-.5 3-.7 0-.2-.2-1.2-1.7-2.5a24 24 0 0 0-7.2-4.1 24.3 24.3 0 0 0-8-1.7Z"/><path fill="#fff" d="m286.1 431.8 20 7.5a10.7 10.7 0 0 0-20-7.6Z"/></g></g></g><defs><linearGradient id="f" x1="341.2" x2="341.2" y1="114.8" y2="111.2" gradientUnits="userSpaceOnUse"><stop stop-opacity="0"/><stop offset="1"/></linearGradient><linearGradient id="j" x1="276" x2="276" y1="292" y2="332" gradientUnits="userSpaceOnUse"><stop offset="0" stop-color="#F5F5F6"/><stop offset="1" stop-color="#EDEDEE"/></linearGradient><filter id="i" width="330" height="132" x="18" y="269" color-interpolation-filters="sRGB" filterUnits="userSpaceOnUse"><feFlood flood-opacity="0" result="BackgroundImageFix"/><feColorMatrix in="SourceAlpha" result="hardAlpha" values="0 0 0 0 0 0 0 0 0 0 0 0 0 0 0 0 0 0 127 0"/><feOffset dx="4" dy="4"/><feGaussianBlur stdDeviation="4"/><feComposite in2="hardAlpha" operator="out"/><feColorMatrix values="0 0 0 0 0 0 0 0 0 0 0 0 0 0 0 0 0 0 0.1 0"/><feBlend in2="BackgroundImageFix" result="effect1_dropShadow_5005_134087"/><feBlend in="SourceGraphic" in2="effect1_dropShadow_5005_134087" result="shape"/></filter><filter id="k" width="330" height="137" x="18" y="392" color-interpolation-filters="sRGB" filterUnits="userSpaceOnUse"><feFlood flood-opacity="0" result="BackgroundImageFix"/><feColorMatrix in="SourceAlpha" result="hardAlpha" values="0 0 0 0 0 0 0 0 0 0 0 0 0 0 0 0 0 0 127 0"/><feOffset dx="4" dy="4"/><feGaussianBlur stdDeviation="4"/><feComposite in2="hardAlpha" operator="out"/><feColorMatrix values="0 0 0 0 0 0 0 0 0 0 0 0 0 0 0 0 0 0 0.1 0"/><feBlend in2="BackgroundImageFix" result="effect1_dropShadow_5005_134087"/><feBlend in="SourceGraphic" in2="effect1_dropShadow_5005_134087" result="shape"/></filter><clipPath id="a"><path fill="#fff" d="M0 0h360v480H0z"/></clipPath></defs></svg>