<svg xmlns="http://www.w3.org/2000/svg" width="445" height="450" fill="none"><path fill="#2B6B40" d="M342.8 234.2H33.5C25.4 294.2 17 354 8.3 414c86.1 36 212.8 38.6 295.4 21.7 17.5-3.6 33.3-8.3 46-13.5-3.6-58.5 6-127.7-6.8-187.9Z"/><path fill="#245B34" d="M38.2 200.6c-9.5 69.4-19.7 141.9-30 213.3 90.3 38.5 196.5 41.5 299.3 20.9-7-59.7-3.6-117.2 12.5-161.1 2-5.7 2.4-42.1-3.6-73.1H38.2Z"/><path fill="#3B754B" d="M359.2 418.5c-.2.1-5 2-7.5 2.8l5-45.5 1.9 24.1.6 18.6Z"/><path fill="#3E8E5B" d="M350.6 274.8h-30.8c4 51.7 4.5 104.4 6 155.3 0 0 14.7-3.9 33.4-11.6-.8-25.2-1.9-50.3-3.4-75.5-1.3-22.8-3-45.6-5.2-68.3Z"/><path fill="#3B754B" d="M350.2 270.2h-31c2.2 30.6 3.4 61.5 4.8 90.8 11.9 5 20.4 25.5 25.4 61.2l9.8-3.7c-.8-25.2-1.9-50.3-3.4-75.5-1.4-24.3-3.3-48.6-5.6-72.8Z" opacity=".7"/><path fill="#3B754B" d="M68 433.8a407.8 407.8 0 0 1-59.8-19.9 32911.4 32911.4 0 0 0 30.2-214.8c22.4 4.6 42.1 8.6 43 9 1.6.7-4.4 109.2-13.4 225.7Z"/><path fill="#3E8E5B" d="M16.5 417.3a324 324 0 0 1-9-3.7c19.1-140 58.3-366.5 9 3.7Zm33.6-19.2c-1.4 7.1-2.9 17.3-4.4 29.5l-5.2-1.6 6.4-45.7s10-16.8 3.2 17.8Z"/><path fill="#D4D4D4" d="M258 149.2c-7.7-15.6-17.4-37.8-17.1-54-2.2 0-8.5 7.7-10.6 7.6l9-53.7c6.2-18.6-13.7-37.3-14.4-37.8-4.8-3.4-3.3-6.7-7.5-7.9-25.4-6.9-50.1-3.6-60.6 12-8.2 11-12.7 26-16.1 38.8-11.5 43.5-29.5 69-45.4 95H258Z"/><path fill="#A09F9E" d="m104.6 159 153.3-9.9c-13.7-25.3-20.4-56.6-19.5-64-28.2.9-87.4-17.5-90-17.8-2.1 21.9-20.2 40.2-25.3 58.4 1.7-1.4 6.7-4.4 9-4.9.2 0 5 16.5-27.5 38.1Z" opacity=".3"/><path fill="#ABABAB" d="M178.3 149.8c3.4-28.5 2.6-57.4-6.1-85.2-6.4-.5-15.4 0-19.8 3.6 1.5 8-15.9 32.2-15.3 48.3-.3 7.8 5.6 21.8-14.5 32-4 2-4.8 3.9-5.8 6.1l61.5-4.8Zm70.7-20.7c-16-4.6.5 12.6 4.4 23.8-5.7-1.4-42.1-7.4-44.2-12.5-7-16.5 32-29.8 31.5-45.8A93.2 93.2 0 0 0 249 129Z"/><path fill="#B4B296" d="M154.4 128.6s-7.2-1.3-7.2 7.6c.1 8.4 9.1 10 9.6 10 .4 0-2-16.5-2.4-17.6Z"/><path fill="#E8D4BA" d="M138 152.8c-.6.4-4.4 6.9-4.2 7.5.2 1 1 1.4 1.9 1.7 44 19 127.6 39 97.5 1.4-16.3-20.3-23.7-27.5-19.4-70.8.2-2.5-29-13.3-32.4-14.7-6.4-2.6-23-12.6-29-6.4 0 0 5.3 72-10.6 81l-3.8.3Z"/><path fill="#CEB79B" d="M233.2 163.4c-16.3-20.3-23.6-27.5-19.4-70.8.2-2.5-29-13.3-32.3-14.7-6.5-2.6-23-12.6-29-6.4-.1 0 3.1 19.5 1.3 39.5.9 1.3-1.1 2.6-.4 4a60 60 0 0 1 3.6 9.5 58.6 58.6 0 0 1 1.4 5.6c.2 1.2.4 2.4.3 3.5-.2 1.9-1.3 3.2-3.3 3.1-2.6-.1-5-1.7-6.8-3.4-.2-.3 2.4 6.2 2.1 5.9-2.1 9.9-8.1 11-12.7 13.6-.6.3-4.4 6.8-4.3 7.5.2.9 1.1 1.4 2 1.7 44 19 127.6 39 97.5 1.4Z" opacity=".4"/><path fill="#CEB79B" d="M135.7 162c-.8-.3-1.7-.8-2-1.6 0-.7 3.7-7.2 4.3-7.6 4.3-2.3 9.2-3 11.3-11.9 1.3 1.4.8-3.5 2.4-2.4 2.4 1.6 5.2 2.7 8 2.2 3.8-.6 4-4.6 3.6-7.6-.1-1.4-.4-2.8-.7-4.2a71.6 71.6 0 0 0-2.8-8.3l-1.7-4.3-2.3-6.6a39 39 0 0 0-2.4-5v-.3l-.2-1.4v-.8l-.1-.6-.2-1.5-.4-3-.2-1.6-.1-.7-.2-1a395.8 395.8 0 0 0 .4-20.1v-2.2c6-6.2 22.6 3.8 29 6.4 3.1 1.2 29.1 10.9 32 14.1.3.2.4.4.4.6a221.4 221.4 0 0 0-1.2 19.6v.3c0 12.3 1.5 20.5 4.5 27.5 3.5 8 9 14.5 16.1 23.4 3.7 4.6 5.6 8.3 6.2 11.2 4.3 21.6-65 4.1-103.7-12.6Z" opacity=".4"/><path fill="#CEB79B" d="M239.4 174.7c-1.6 7.5-16.3 8-35.2 4.8-.2-8-24-7.4-26.1-15a236.8 236.8 0 0 0-11-30.7c-4-9.5-8.7-19.3-13.9-30.8v-.8l-.1-.6-.2-1.6c0-1-.2-1.9-.3-2.9l-.3-1.6v-.7l-.2-1v-.3a4.1 4.1 0 0 0-.2-.4 339.3 339.3 0 0 0 .5-19.5v-5.5c6-6.1 22.6 4 29 6.5 3.3 1.3 32.6 12.2 32.4 14.7l-.3 2.7a191 191 0 0 0-.9 20.2v.3a61.2 61.2 0 0 0 4.9 25c3.5 7.6 8.8 14 15.7 22.6 5.2 6.4 7 11.2 6.3 14.6Z" opacity=".4"/><path fill="#C5CAB9" d="M342.1 226.6c2.8 13.9 6.3 28 12.7 40.7 2 4.4 13 24 16.2 28.6 6.2 9.6-27.5 34.2-45.3 37.6-4 .8-7.3.5-9-1.4a4.6 4.6 0 0 1-.7-1c-6.4-10-23.2-44.5-30.6-58.6-14.6-27.8-34.7-68.1-35.6-73.3-1.2-6.4 57.6-34.4 67-23.2 17.3 20.7 23 38.6 25.3 50.6Z"/><path fill="#C2C2AC" d="M306.9 270.5c11.2 13.5 36.5 18 55.3 11 .1 0 15.3 19.6-5.6 35-31.5 23-39.6 16.2-40 15.6-7-10.1-26-48.9-31.2-59.5-10-20.7-11-49-11-49 1.8-2.3 36.4-24.7 54.2-32 4 4.7 8.4 16.9 10.1 22.1-33 14.2-39.8 44.6-31.8 56.9Z" opacity=".4"/><path fill="#BBBBA5" d="M336 206.7c-30.7 14-52 44.8-42.8 72.5 2.2 8.7 10.7 18.7 20.2 18.6 9.6 0 24.7-16 34-.8 3.7 4.1-4.4 53.6-46 50.8-30.3-7.4-38.4-46.2-40-48.4-2.3-3-10.3-92.3-11.6-100.2-1.2-6.6 51.2-42.8 67.4-22.5 0 0 10.4 12 14 18.4 3.2 5.5 4.6 10.8 4.8 11.6Z"/><path fill="#C6C7B3" d="m107.8 368.3 157.8-1.5c.2-3 .7-6.2 1.7-9.4 1.4-7 16.7-51.7 20-58.8 13-29 9.6-106.1 9-112-.8-7.9-136.2-21-147.2-51.9 0 0-5.2 10.7-22 15-.3 9.2-35.5 32-35.5 98.4 0 11.7-9.5 25.5-2 35.6 2.7 3.5 7.8 56.3 18.3 84.6Z"/><path fill="#C2C2AC" d="M123.1 180.3c7.1 6.3 16.4 11.7 26.1 11.5 19.8-1.5 41.4-12 45.7-33-22.8 16.5-42.4 11.7-51-17.8 0 0-7 6.1-16.3 8.2-1 .2-2.3 30.2-4.5 31Z"/><path fill="#BBB99D" d="M137.4 145.4a50.6 50.6 0 0 1-9.9 3.8c-.7.2-2.3 30.2-4.4 31.1 1 1 5.6 11.4 21.8 11.6.3-15.5-3.3-40.1-7.4-46.5Z"/><path fill="#949984" d="M300 257.7c-8.3 20.5 1.7 30.8-13 50.5-3.1 4.2-5 10.5-4.4 14.8-.2-.7-7.2-13.7-7.4-14.7 2-16.5 20.3-66.8 20.3-65.7 8.7-14.9 7 10 4.6 15.1Z"/><path fill="#C2C2AC" d="M123.4 366.7h142.5c2.2-11.4 14.4-40.1 14.6-49.1 0-4 5.5-16.3 6.7-19 15.4-28 8-91.8 9.2-116-.6-3.4-102 .2-96.5 11 42.2 90.4-31.5 142.3-111.4 120 1 2.9 17.6 39.7 18.8 53.1 1.8.3 14.3-.2 16 0Z"/><path fill="#BBB99D" d="M252.5 190.5c42.7 96.3-22.4 136.8-59.5 159 23.8 7 49 9 73.8 10.2 1-5 2.6-10 3-14.8 1-9.7 10.5-17.4 10.6-27.4.2-4 5.6-16.2 6.8-19a128 128 0 0 0 10.1-51.4c-.9-10.8-.9-64.2-.9-64.5-.6-3.4-44.3 5.6-43.9 7.9Z" opacity=".7"/><path fill="#BBB99D" d="M136.1 224.8c5.4-7.7 16.5-30.4 17-33.2-5 .9-66.1-16.7-67.5-15.2C97 200.6 84 264.7 95.7 283c0 0 44.4-7.7 38.5-7.2-18.4 3.3-22.2-23-22.2-27.2.2-10.2 5.2-18.3 20-11 8.7 4.2 14 12 12.2 24 5.6-3.7 24-16.8-8.1-37Z"/><path fill="#CCD1C0" d="M186.4 283.4c-3-14-20.4-14.6-24.8-15.8-8-3-13.7 7.5-16.5 15-4 8-13 13.9-12 24 .8 8.2 7 15 36.8-.4 13.4-7 18-15.8 16.5-22.9Z"/><path fill="#BBB99D" d="M127.9 366.7a80 80 0 0 1-10-1.5l.3 1.5h9.7Z"/><path fill="#ADAC92" d="M128.1 184.7a39 39 0 0 1-4.3-3.4c8.5 31.6 84.7 57.5 142.3 30.5 9-4.2 25.2-6.8 30.7 28.9-.3-5 29.5-20.4 34-28.4 12.1-21.7-23.7-31-34.4-29.6-3.5.4-159.8 7.9-168.3 2Z"/><path fill="#BBB99D" d="M193.6 222c-7.5 3.1-4.5 15.9-9.6 18.5 7.7-.3 17.2-8.9 17.2-17.1 0 0-7.9-2.5-7.6-1.3Z"/><path fill="#CCD1C0" d="M150.4 129.2c-2.3.6-3.5 3.3-4 9.6a19.2 19.2 0 0 0 6.1 15.2c19.2 19.2 38.8-.4 38.8-3-1-.4-28.2-1.6-36.6-10-5-5-6.5-11-4.3-11.8Z"/><path fill="#BBB99D" d="m146 245 67.7 45.4s3.1 14.2 16.6 11.8c0 0 9.3 7.3 13 19.6 0 0 12.3 2.8 15.3 5.6 6.2 5.5 7.4 20.9 7.4 20.9l13-25.9L160.7 226l-14.8 19Z"/><path fill="#ADAC92" d="M114.2 225 151 246l3.8-7-36-21.5-4.6 7.7Z"/><path fill="#D58500" d="M158 245c-5-4.5-3.4-14.6-3.8-14.2A462.8 462.8 0 0 1 107 278h35.8a566 566 0 0 0 30-30.8c.2-.3-10.7 1.5-14.7-2.1Z"/><path fill="#A05A07" d="M119.7 281.3h19.6a588.3 588.3 0 0 0 33.4-34.2c-13.9 1.8-19.2-2.6-18.4-16.3a458.8 458.8 0 0 1-11.8 13c6 7.7-8.7 26.4-22.8 37.5Z" opacity=".3"/><path fill="#A05A07" d="M154.2 230.8a439.4 439.4 0 0 1-10.5 11.7c10.2 10.2-1.6 19.6-8.8 27-1.7 1.5-5.7 5.7-10.5 10.4h4.7c10-9.1 20.6-23.3 34-22.2l9.6-10.6c-13.9 1.8-19.2-2.6-18.5-16.3Z" opacity=".3"/><path fill="#A05A07" d="M145.5 240.4c4 4.3 5.1 12 12.2 12.7 2.3.6 8.6 1.4 6.6 3 16.5-13.5-16.7-17.2-18.8-15.7Z" opacity=".3"/><path fill="#D58500" d="M245 278.5c-35.1-27.8-73-52-108.3-75.4-2.9-1.3-22.4 16.2-20.9 16.5A2199 2199 0 0 1 245 307.5v-29Zm-82.7-41.2c-4 1.1-4.7-5.6-.9-6.7 5-1 5.8 6 .9 6.7Zm26.6 19.7c-1.8-1.8-1.5-5.9.8-6.1 2.2-.6 5.2.8 5.2 3.6s-4 5-6 2.5Z"/><path fill="#C77500" d="M146 209.3c-6.1-4-16.4-10.6-18-10.6-.6 0-13.8 20.5-12.2 21 3 .7 11.8 7.1 18.9 11.9.1-.5-3-10.2 11.3-22.3Zm72.3 49c-6.3 1.3-18.7 3.4-25.2-.9-1.3.9-3.1 1-4.2-.4-1.8-1.8-1.6-5.8.8-6.1-.3-5.2 2.5-10.6 2.5-10.6-13-9-24.8-16.7-32.7-22 3 11.2-14.5 14.3-21.7 15.1 1.8 1.2 14.8 9.5 19.7 12.9 10.2-.5 23.7 11.4 25.5 17 6.9 4.5 34.4 24.4 39 27.3 0 0 12.3-15 15-18.6l-18.7-13.6Zm-52.8-23.6c-1 3.4-7.5 4.1-6.6-1.1.5-4.7 8.1-3.5 6.6 1Z"/><path fill="#A05A07" d="M162.3 237.3c-2 .3-3.9-.6-3.4-3.7.2-1.3 1.2-2.6 2.5-3 0 0-3.3 5 .9 6.7Zm30.8 20.1c-1.3 1-3.1 1-4.2-.4a4.9 4.9 0 0 1-1-2c-.6-2.5.4-3.7 1.8-4.1 0 0-2.2 6.3 3.5 6.5Z"/><path fill="#9EA58E" d="m33.9 229-20.4 8.4-3.8 6.6s14.7 24.7 24.6 15.8c9.8-8.8-.4-30.6-.4-30.6v-.2Z"/><path fill="#676D54" d="M34.4 228.3 14 236.7l-3.8 6.6S25 267.9 34.8 259c9.8-8.8-.4-30.7-.4-30.7v-.1Z"/><path fill="#9EA58E" d="M22 214 2.4 226.9s22.2 16.2 31.1 7.5c9-8.6-11.4-20.3-11.4-20.3v-.1Z"/><path fill="#676D54" d="M22.6 213.2 3 226.2s22 16.1 31 7.5c9-8.7-11.4-20.3-11.4-20.3v-.2Z"/><path fill="#9EA58E" d="M21.8 181.5c-.8.4-19.8 6-19.8 6s10.8 39.9 33 32.5c22-7.5-13.1-38.3-13.1-38.3v-.2Z"/><path fill="#676D54" d="M22.9 181 3 186.9s10.8 40 32.9 32.6C58.1 212 23 181 23 181h-.1Z"/><path fill="#9EA58E" d="M35.2 158.6 13.7 165s-2.2 9.4-.9 20.1l19.6-4.1 7.1 33.3-1.1.3c25.4 2.7-3.4-55.8-3.4-55.8l.1-.2Z"/><path fill="#676D54" d="M36.4 158.3 15 164.8s-9.3 40.8 21.5 48.7c30.8 8 0-55.2 0-55.2Z"/><path fill="#C6C7B3" d="M68 172S37 184.6 20 231.1c-17.1 46.4-6 42.3-17.4 71.2-11.5 28.8 19 43 62 33.3 43-9.7 50.1-22.2 36.5-35.8-13.5-13.5-22.3-12.1-22.3-12.1s10.2-9.8 20.3-31l24.8-52.9L68 172Z"/><path fill="#C2C2AC" d="M101 300c13.6 13.5 6.5 26-36.5 35.7-43 9.8-73.5-4.5-62-33.3L3 301c12.3 2.1 51-24.5 7.7-39.3 1.4-7 4-16.5 9.2-30.5C37.1 184.7 68.1 172 68.1 172l55.7 32L99 256.8c-10 21.2-20.3 31-20.3 31s8.8-1.4 22.3 12.2Z"/><path fill="#BBB99D" d="M101 300c13.6 13.5 6.5 26-36.5 35.7-39.6 9-68.8-2.5-64-27 23.4-1.3 44.2-31 41.7-41.6-2.8-11.8-13.1-18.2-27.4-21 1.3-4.3 3-9.2 5-14.9C37 184.7 68.2 172 68.2 172l55.7 32L99 256.8c-10 21.2-20.3 31-20.3 31s8.7-1.4 22.3 12.2Z" opacity=".7"/><path fill="#ADAC92" d="M99 234.9c-5.8-.9-11-2.6-11-2.6l-13.2 12-7.8-4.7-10.6 14.2-37-21.4 48.7-60.5 55.7 32s-9.6 33-24.7 31Z"/><path fill="#3C8454" d="M117.8 163s43.4 30.6 77.3 1.8l21.3-23.8s53.2 4.4 79.1 18.1c26 13.7 37.7 40.2 37.7 40.2s-19-20.3-43-11.8c-13.9 4.9-32.3 39.6-85 36-49.6-3.3-92.6-52.6-92.6-52.6l5.2-7.8Z"/><path fill="#3B754B" d="M143 198c-18.5-13.5-30.4-27.2-30.4-27.2l5.2-7.7s10.9 7.7 26 11.7c.1.5 2.7 11.4-.8 23.2Zm122.4-49.3c-27.2 7.8-35.2 76.6-74.9 39.6-9.8-9 19.6-23.9 31-27.8 7.9-2.8 11-10.3 16.7-17.5a456 456 0 0 1 27.2 5.7Z"/><path fill="#3B754B" d="M333.2 199.3c-.6-.2-10.3-13.2-35.3-8.2-18.6 3.7-43 35.8-92.7 32.5-30.1-2-57.9-21-75-35.7l4.7-7s15.6 23.5 47.6 29.3c18.7 3.5 23.6-1.3 39.1 1.9 29.4 6 42.7-12.4 53.7-20.5 14.1-10.3 41-14 50.8-4l1 1a77 77 0 0 1 6.1 10.7Z"/><path fill="#3E8E5B" d="M251.7 194c-7.7-9.3 13.8-12 11-21.2-3.6-13.7-36.8 15.4-25.5 30.1 6.9 5.9 28.3 1.6 14.5-8.8Zm-90.8-3.4a12 12 0 0 1-3.7-.3 8.8 8.8 0 0 1-3.4-1.5c-1-.8-2-2-3.4-2.2-.7-.1-1.6 0-2 .5-.2.5-.2 1 0 1.4a5.7 5.7 0 0 0 2 2.8c1 1 2.3 1.6 3.6 2.4l3.1 2c1 .6 2.2 1.1 3.4 1.4 1.2.2 2.6.3 3.7-.4 2.4-1.5 1.3-6.4-3.3-6.1Z"/><path fill="#3B754B" d="M315.2 173.9a40.4 40.4 0 0 0-23.8.4c-6.2 2-24.7 9.4-23.7-1.1 1.6-9.6 9-13.5 16.4-19a86 86 0 0 1 11.4 4.9 80.7 80.7 0 0 1 19.7 14.8Z"/><path fill="#18512F" d="M220.6 188.1c2.3 3.9 0 10.2-5.2 11.5 4.2 6 3.2 12-2.3 14.8 0 0 3.6 5.5-3 9l-12.4-1.6c-8.1-2-6.9-7-7-9.7 3.3-5.6 34.2-69.1 37.6-69.9 3.8-1.3 14.3 1.4 18.1 1.9-6.8 39.2-21.4 43.2-25.8 44Z" opacity=".6"/><path fill="#9EA58E" d="M65.2 227.9a90.4 90.4 0 0 1-4.2 10.6l-10.2 14.3h-.3c-13-5.4-35.4-14-40.4-8.4.3-5 2-18.5 5.1-29.3 2.3-7.7 5.3-14.1 8.9-15l41.1 27.8Z"/><path fill="#9EA58E" d="M51.2 252.5A51.7 51.7 0 0 0 58 244a60.2 60.2 0 0 0 5.4-10.6 33.7 33.7 0 0 0 2-5.7l-41.8-28.2c-8.8 2.2-13.4 35.6-14 44.4 5-5.8 28.4 3.2 41.2 8.8l.3-.2h.1Z"/><path fill="#B1B7A5" d="M21.7 234.9c-5-2-8.8 3-8.9 7.3 3-.6 7.5 0 12.3 1.2 1-5-1-7.6-3.3-8.6h-.1Z"/><path fill="#949984" d="m65.2 227.7-41.7-28.2c-4 .9-7 8-9.3 16.3 16.3 2.8 28.4 17 25.3 32.3 4.1 1.4 8 3.1 11.3 4.5l.2-.2a51.6 51.6 0 0 0 6.9-8.5 60.2 60.2 0 0 0 5.3-10.6 33.7 33.7 0 0 0 2-5.7v.1Z" opacity=".4"/><path fill="#949984" d="M65.2 227.7v.2c-.4 1.8-1.2 3.7-2 5.5a44 44 0 0 1-2.2 5 39.3 39.3 0 0 1-3.8 6.5 54.3 54.3 0 0 0-3-3.7c-9.3-10.5-23.8-23-39-26l-.7-.1c2.3-7.9 5.2-14.5 9-15.4l41.7 28.2v-.2Z"/><path fill="#9EA58E" d="m71.4 222 14.3-2.4L46 175.3c-1.4-.1-35.5 18.5-42.8 52 23-9.4 57.9.4 70.7 9.3l-2.4-14.4v-.2Z"/><path fill="#9EA58E" d="M74 236.7c.9-.8 6-6.8 6.9-7.6l1.5-1.6a45.9 45.9 0 0 0 4.6-6.3l-41.6-46.4c-1.4-.2-35.5 18.5-42.8 52 23.6-9.7 59.8.9 71.6 10l-.2-.2Z"/><path fill="#B1B7A5" d="M26.4 208c-6.8-.1-16.8 7.2-19.5 15.6l-.6 1.9a67 67 0 0 1 25.7-2.2c1.1-6.3 1.3-15-5.4-15.3h-.1Z"/><path fill="#949984" d="M45.2 174.7c-1-.1-19.2 9.6-31.9 27.8l.4-.1c12.9-.7 28.4 4.5 44.2 26.2 7 2.5 12.7 5.2 16.1 8 .9-.7 6-6.7 6.9-7.5l1.5-1.6a45.8 45.8 0 0 0 4.6-6.3l-41.6-46.4-.2-.2v.1Z" opacity=".4"/><path fill="#949984" d="M82.2 227.6a45.9 45.9 0 0 0 4.6-6.3l-41.6-46.4a82 82 0 0 0-26.1 20.4c23.2 3.4 47 17.7 61.8 33.8.4-.4 1-1 1.3-1.5Z"/><path fill="#9EA58E" d="M89.2 227c.2-.6 1-1 1.5-1.4l2.3-1.2c2.3-1.5 4.8-3 7.2-4.2l3.6-1.7c1-.6 2-1 3-1.3 1-.2 2-.5 3-.4 1.9-1.8 3.3-3.6 4.7-5.5-7-17.8-50.3-58.8-50.3-58.8-26.2 4.9-51.5 18.7-61.8 35.8 35.5-4.9 67.1 16.2 85.2 39.5.4 0 1-.5 1.4-1l.2.2Z"/><path fill="#9EA58E" d="M109.5 216c1.8-1.8 3.2-3.7 4.7-5.6-7.1-17.8-50.4-58.8-50.4-58.8-26.1 5-51.5 18.8-61.8 35.8 36-5 68.1 16.8 86 40.5a46.2 46.2 0 0 0 21.5-12Z"/><path fill="#B1B7A5" d="M30.6 176.8c-7-1.3-19.3 5-23 10.1a81.5 81.5 0 0 1 29.2 3.7c2.5-6.3.3-12.6-6.2-13.8Z"/><path fill="#949984" d="M63.8 151.6a116.8 116.8 0 0 0-44.5 18.2c18.5 2.2 41 13.8 45.4 35.1A112.5 112.5 0 0 1 88 228a46.2 46.2 0 0 0 21.4-12c1.8-1.7 3.2-3.6 4.7-5.4-7-17.8-50.4-58.9-50.4-58.9Z" opacity=".4"/><path fill="#949984" d="M63.8 151.6c-14.6 2.8-29 8.4-40.7 15.7 18.4-3.1 63.8 30.7 76 55.9l.1.4a44.3 44.3 0 0 0 10.3-7.6c1.8-1.8 3.2-3.7 4.6-5.5-7-17.8-50.3-58.9-50.3-58.9Z"/><path fill="#9EA58E" d="M14.8 164.8c-.7.5-.1 1-.9 1.3 37-6.7 75.6 16.2 92.4 58.1h.2l17.4-3.7-17.7-83.4c-22.8.8-64.3 13-91.4 27.7Z"/><path fill="#9EA58E" d="M127.4 221.3c6.3-19.5 10.5-65-6.1-82-10.1-10.3-72 5.8-107.6 25.8 37.3-6.8 76.3 16.4 92.8 59 9-.4 15.4-1.3 20.9-2.8Z"/><path fill="#B1B7A5" d="M63.6 165.5c-2.3-1.3-5-1.5-7.4-1.5-2.2 0-4.6.4-6.6 0a6.7 6.7 0 0 1-5-3.3 9.8 9.8 0 0 0-4.4-4.4c-1.8-.7-4-.4-5.8 0-2.6.5-5 1.6-7.4 2.6a58.2 58.2 0 0 0-10.3 5.7c17.4-2.4 35 1.7 50.4 11l.5-1.7c.6-3.4-.7-7-4-8.6v.2Z"/><path fill="#949984" d="M121.3 139.3c-5-5.2-23.3-3.7-44.8 1.6.7 1.8 1.2 3.6 1.6 5.4a48.3 48.3 0 0 1 1.2 9.6c0 5.5-.8 11.1-3.4 16.2a45 45 0 0 1-4 6.5c14.7 10.4 27 26 34.6 45.6 9-.5 15.4-1.4 20.9-2.9 6.3-19.5 10.6-65-6.1-82Z" opacity=".4"/><path fill="#949984" d="M119.6 195.7a68.8 68.8 0 0 1-6.4 28.1 98.6 98.6 0 0 0 14.2-2.3c6.3-19.6 10.6-65-6-82-2.6-2.5-8.1-3.5-15.6-3.2l3.4 8.3a169.8 169.8 0 0 1 8.4 29 102 102 0 0 1 2 22.2v-.1Z"/><path fill="#E8D4BA" d="M161.3 61c.4 15-1 31.2 9.2 44 15.1 20.9 56 30.6 62.5-2.5 1.8-6.8 3-14.5 5-19.8 1-2.8 2.6-6.4 2.7-9.7-.6-10.7 1.9-22-.8-32.4-5.4-13.9-10.9-12.8-22.6-13.2-13 .4-29.1-7.2-39.5-5-14.6 3-20.5 18.8-21.8 29.1-1.8 4.8 4.6 4.8 5.4 9.5Z"/><path fill="#B8A38A" d="M225.8 44.4c-4.5 0-9.6-1.2-15-3.7-9.4-4.1-24.7 0-24.9 0a.9.9 0 0 1-1-.5.9.9 0 0 1 .6-1.1c.6-.2 16-4.4 26 0 8.8 4 17 4.5 22 1.6a.9.9 0 0 1 1.2.3.9.9 0 0 1-.3 1.3 16.9 16.9 0 0 1-8.7 2Z" opacity=".4"/><path fill="#B8A38A" d="M221.1 41c-3.2 0-6.9-1.1-10.8-3.2-5.9-3-16-1-16-1a.9.9 0 0 1-1.1-.6.9.9 0 0 1 .6-1c.5-.2 11-2.3 17.3 1 5.6 3 11 3.7 14.2 2a.9.9 0 0 1 1.2.4c.2.5 0 1-.4 1.2-1.4.8-3.1 1.1-5 1.1Z" opacity=".4"/><path fill="#CEB79B" d="M197 47.5c3.6 2.4 6.6 6.7 7 11 0 2.1-.6 5-2.8 5.9-2.1 1-4.5-1.2-6.2-2.2-10.8-6.4-19.6-7.1-20-8.4-.4-1.4 12.3-3.4 13-4.7.1-.4.4-.9.7-1.3.7-.6 1.6-1 2.5-1.5.2 0 .4 0 .7.2.1 0 .2-.2 0-.3h-.2l1.3-.5c1.4.3 2.8 1 4 1.7Z" opacity=".4"/><path fill="#CEB79B" d="m221.7 105 4.1.4a54.2 54.2 0 0 1-3.8 5.1c-6.5 7.7-16 14.5-26.8 11.6-5.2-1.4-10-4.3-14.4-7.3a42.1 42.1 0 0 1-10.3-9.8c-5.6-7.8-8.6-17.1-9.1-26.5-.3-6 .6-11.7 1-17.6.3-6-8.2-4.5-6.4-9.4 3.2-20.8 12.6-26.9 23.2-29.4 1.6-.7 5.8 0 7.5 1.8-.3 1-12 5.6-15.8 21.8-2.5 12-1.5 82.5 41.3 45.7 4.5-3.8 3.6 13 9.5 13.6Z" opacity=".4"/><path fill="#CEB79B" d="M202.2 94.6c-.2 2.3 11.2 17.1 16.7 19.3 6.1-8.5 13.6-9.8 14.1-11.4 2-6 3.3-15.5 5-19.8.9-2.8 2.7-6.4 2.7-9.8-.3-6.1.4-12.3 0-18.5-5 .3-22-1.3-21.4 2.7.5-.2.3.4 0 .4 0 .2-4 1.3-4.2 1.2-3.1 2-1.8 6.6-1.6 9.7-.2 4.4-1.8 8.8-.2 13.1.8 2.2 1.2 4.3 2.5 5.5.3.2.3.3-.2 1.5-.9 2.6-4.2 2.6-5.8 4.5-.7 1-6.9.4-7.6 1.6Z" opacity=".4"/><path fill="#CEB79B" d="M170.5 105c-13.1-17.7-8.3-32.8-4-52 3 21 8.8 42 28.6 28.4-6.2 11.2 5.6 4.7 9.8 12.4-4.5 1.3-.3 2.2 3.1 3.8a32 32 0 0 0 17 1c-.3 1-37.9 27.3-54.6 6.4Z" opacity=".4"/><path stroke="#B8A38A" stroke-linecap="round" stroke-miterlimit="10" d="M192.2 84.1s-6.9 3.2-7.5 11.5" opacity=".4"/><path fill="#CEB79B" d="M198.4 98.8c2 2.2 30.8 14.5 33 7.7 5.5-17.7 8.6-32.2 9.5-49.7-.4-.1-14 0-21.4.3-6.7-.2-7.2 6.4-6 11.3-1.4 6.7-.7 10 1.9 16.2 1.4 4.1-1.2 6.2-4 8-2 3-5.9 1.1-9-2-2.3-2.4-7.4-2.9-7.7-2.7-.7.6 1.5 8.4 3.7 10.9Zm38-29.4c.3 3.3-1.2 6.5-2.5 9.4-3 4.3-2.5 12-8.6 12.9 4.1-8.4-9.8-14-9.4-22.5-1-8.8 20.2-7.6 20.5.2Z" opacity=".4"/><path stroke="#B8A38A" stroke-linecap="round" stroke-miterlimit="10" d="M217.1 85.6s6 4.6 4.8 12.8" opacity=".4"/><path fill="#B89D7D" d="M240.3 59.1c-.2 5.6-3.3 11-3.7 16.6-.6 10.3-7.2 24.7-17.1 19.1-1 0-.3 2.3-.6 3.1-5 1.7-10.5 1.1-15.7 1.6 5 2.7 26.4 17.7 29.5 12.4 5.4-14.1 7.6-38.8 8.1-52.8h-.5Z" opacity=".4"/><path fill="#B89D7D" d="M162.4 60.9c2.8 9.3-4.1 17.3 1.3 30.4 1.4-.3 2.9-.4 4.3-.4-1.4-15.1 7.4-30.9 9.8-32 3.2-1.5 4.6 2 7 .7 9.8-5 21.3-2.3 15.5 3.6 7.2 2.3 5.5-13.6 17-2 2.2 1.9 4.6.3 9.5-.3s12.7 6 12.3 9.4c5.2-38.5 1.2-44.1-24.5-50 10.4 3.2 6.3 11.7 9.1 15.2 5.8 7 1.1 18-9.1 14.7-10.2-3.3-11.9 1-11.9 1-6.6-4.8-23.5-5.3-23.5-5.3-.8 1.9-16.9 10-20.8-3.9-2.8 13.5-5.6 9.6 4 18.9Z" opacity=".4"/><path fill="#CEB79B" d="M186 107.2c-3-2.1-18.5 10-17.3-12.8h1.2c1.5 0 1-3.1 1.6-1.8 5.4 10.4 13.5 13 14.5 14.6Z" opacity=".4"/><path fill="#E8D4BA" d="M178.3 44.7c-.2-1.5 2.8-2.2 5.2-2 3.3.3 4.9 2.1 2 3.5a7.7 7.7 0 0 1-4 .6c-1.8-.2-3-1.1-3.2-2Z"/><path fill="#948E88" d="M177.8 22.5c-4.2 0-11.6 5-14.5 9-5 6.9-7.6 18.7-8.4 22-1.8 4.7 5.7 2.8 6.4 7.5l.3 3.9a12 12 0 0 1 4.5 2c-2.5-18.4 3.4-28.3 11.7-44.4Z" opacity=".3"/><path fill="#C77500" d="M196.6 99.2c2-.6 4.2-.4 6.2-.2a62 62 0 0 1 13.1 2.7c-1.8 1.7-4.8 1.9-7.1 1.8a27 27 0 0 1-3.8-.5l-2.7-.7-5.8-.7-2.9-.7c-.5-.2-1.2-.5-1.4-1h1.2c1.1-.1 2.1-.5 3.2-.7Zm7.1 8.8c.3 0 2.5 0 2.5.3 0 .9-.4 1.7-1 2.3-1.1 1.5-3.2 1.6-4.8.7-1.4-.9-1.6-2.5-1.4-4 1.4.8 3 .8 4.7.8Z" opacity=".3"/><path fill="#CEB79B" d="M155.2 83.6c6.7-3.5 9-13.2 7.9-21.4l-.1-.6a22.9 22.9 0 0 0-2-6.6l-1-1.6c2.7 11.7-3.4 28.6-8.3 31.3 1.3-.2 2.4-.6 3.5-1.1Z" opacity=".4"/><path fill="#CEB79B" d="M196.9 89.8c.6.5-.2 1.5-.8 1-1.6-1.4-2.9-3.4-2.7-5.5 0-1.5.4-3.4 2-4.2.7-.4 1.3.8.5 1.2-1 .5-1.2 2.2-1.2 3.1a5.7 5.7 0 0 0 2.2 4.3Z"/><path fill="#CEB79B" d="M216 84.7c.1 1.5 1.9 5.5-.4 6.3-6.7 2.3-3.7 5.5-10.6 3.4-.7-.2-2.2-5-7.5-4.6-.8 0-1-1.3-.2-1.4 5.1-.3 7.1 3.3 8.5 4.7 3.9 1.1 5.5-.6 6.3-5a14 14 0 0 0-.2-6.5c-.2-.8 1-1.4 1.3-.6.8 3 .6 6.1-.2 9.1 3.3-2.5 2.5 2.6 1.6-5.2 0-.9 1.3-1.2 1.4-.2ZM213.8 71c-.3 1.9-.7 3.8-.6 5.7 0 .2 0 .4-.2.5a.8.8 0 0 1-.6.2c-.4 0-.6-.2-.6-.5 0-1.8.3-3.5.6-5.2l.5-3.6a10 10 0 0 0-.2-2.3 8.8 8.8 0 0 1-.2-2.4c0-1 .4-2.1.9-3.4.1-.3.4-.5.7-.5a.7.7 0 0 1 .6.4v.6a8.1 8.1 0 0 0-.6 4.9c.2 1.2.3 2.4 0 3.6l-.3 2Z"/><path fill="#E8D4BA" d="M154.3 85.8C139 94 138 60.3 144.5 51.4c20.7-16.4 24 27 9.9 34.4Z"/><path fill="#CEB79B" d="M151 72c.3-1.6 3-5.3 4.4-6 .2-1.4.6-2.6.1-4.2-1.4-4.3-3.1-5.5-6.7-7.1-2-.9-4 4.1-3.7 6.8.3 3.5 4.7-2.3 6.3-1.6 2.8 1.5-2 7.6-2.8 9.4-1 2 .2 4.4 1 6.4.4 1.4 1.8 1.6 2.8.6l.8-1.2c-.6-1.3-2.5-1.5-2.2-3.2Z"/><path fill="#CEB79B" d="M154.3 85.8a7.7 7.7 0 0 1-11.7-5c4.3-5.3 9-6.9 11.2-13.3 2.1-6.1 2.6-17-4.7-18.6 18.4-6.8 16.9 31.5 5.2 37Z" opacity=".4"/><path fill="#CEB79B" d="M154.3 85.8c-1 .6-2 1-3.3 1.2 4.7-2.9 11.3-21.4 9.4-34.5 4.9 10 2.9 28.2-6 33.3Z" opacity=".4"/><path fill="#CEB79B" d="M162.9 62.9c-5.6-5.9-9.2-14-18.4-11.5 10-8.1 18.2-1.6 18.4 11.5Z"/><path fill="#798182" d="M149.5 86.8c-.5 1.4-2.5 6-4.2 4.3-2.1-2 6.2-8.5 6.2-8.5s-1.5-7-8.3-.2c-9 8.9-.6 17.2 3.9 12.9 2.2-2.2 4.2-6.4 5-8.3l-2.6-.2Z"/><path fill="#515F6E" d="M149.5 86.8c-.5 1.4-2.5 6-4.2 4.3-2.1-2 6.2-8.5 6.2-8.5l-.5-1.2a43.6 43.6 0 0 1-3.4 3.2c-1.5 1.3-3 2.8-4.6 3.5-1.1.5-2.5.6-3.4-.4-2.2 6.5 4 11 7.5 7.6a29 29 0 0 0 5-8.3l-2.6-.2Z" opacity=".4"/><path fill="#4F5F66" d="M149.5 86.8c-.5 1.4-2.5 6-4.2 4.3-2.1-2 6.2-8.5 6.2-8.5l-.2-.6c-1.2.3-2.3 1.6-3.3 2.5a15.3 15.3 0 0 0-3.5 4.7c-.8 1.7-1.5 3.9-1.1 5.8 0 .4.2 1 .4 1.4a3.9 3.9 0 0 0 3.2-1.1 29 29 0 0 0 5-8.3 8.7 8.7 0 0 1-2.5-.2Z"/><path fill="#849399" d="M142.7 85.7a6.6 6.6 0 0 0 4.3-1.4 11.8 11.8 0 0 0 3.4-3.8c-1-1.3-3.3-2-7.3 2-.9.8-1.6 1.6-2.1 2.4.4.5 1 .7 1.7.7Z" opacity=".7"/><path fill="#D4D4D4" d="M192.8 30s31 11.7 41.4 1.1c10.4-10.6-26-21-26-21S165.2 16 192.8 30Z"/><path fill="#C1BFBD" d="M152.5 35.7c-2.9 2.2-1 12.1-1 12.1.6 0 3.7 1.3 4.7 1.8 1.9-13.3 11.6-26.4 23-27.5 7 4 13.4 8.8 21.6 10.7l3.8.9c-5.5-1.3-16.4-10-23-15.5-4.4-4-10.3-1.4-14.4 1.6 0 0-3.2-4.2-4.3-3.5-8.3 5.5-5.3 19.6-5.3 19.6s-3-1.8-5.1-.2Z"/><path fill="#D4D4D4" d="M151 89c2.9 9.8-24.7 54.9.3 72.2 0 0-1.7 8 3.8 15a17.7 17.7 0 0 0 11.3 6.2c2.4 15 10.6 18 10.6 18 7.3 10.4 20.3 9 30.3 3.8 7.1-4.7 7.5-14 8-17.2 2-.4 12.7-5 15-11.6C242 163.2 243 116.5 242 98.8c-.5-10-1.9-27.7-1-39.8.8-6.3 1.4-13.9-1-19.5 0 8.4 2.6 17.6-1.6 25.5 1 1 1.5 2.4 2.1 3.7l-2.3-2c0 1.2-.2 2.3-.3 3.4.4.4.8 2 .9 2.5l-1.1-1c-1.8 7.4.2 18.3-6 23.5.6 4.1-2 8.8-4.6 12 1.6-2.7.6-11.3-3.4-12.6 1 .6-.6 3-.6 3-.3-.5-1.8-4.2-3-4a64.8 64.8 0 0 1-26.5-1l-4.2 2a3.8 3.8 0 0 1 2.1-2.3c-11.2-3.6-16 7-17.4 10.5-1.2-3.9-3.7-6.6-2.5-10-10.1-2.7-4.6-21-4.4-26.2l-3 1.5c1.5-1.4 3.6-4.2 3.3-6.6l-2 1c1.1-1.3 2.3-2.2 2.2-4.2l-8.8-6.5c6.7 9.9 3.4 28-7.6 33.6a16 16 0 0 0-.3 3.7Z"/><path fill="#DEDEDE" d="M212.3 127s-.2 25-12 32c0 0 13.1-3.3 15.6-15.8 0 0 2.6 1.5 4.4 7.6 0 0 11-12.6 4.1-26.5 0 0 0 9.9-4.8 13 0 0 0-4.9-7.3-10.2Z"/><path fill="#A09F9E" d="M230.3 175.4c-2.3 6.6-13 11.2-15 11.6-.5 3.1-1 12.5-8 17.2-10 5.2-23 6.6-30.3-3.8 0 0-2.9-1-5.7-5 17.7-1.4 35.2-13 44.7-44.6l2.4 13c8.4-6.2 11.8-22.8 10.3-40 0 0 6.1 14.3 7 18a80 80 0 0 0-1.6-49.5c3.3-5.7 2-14.4 3.6-20.6l1 .9c0-.5-.4-2-.8-2.4l.4-3.4 1 .9.4.3a10.2 10.2 0 0 0 .6.5l.2.2c-.7-1.3-1.1-2.8-2.1-3.7 4.1-8 1.6-17 1.5-25.5v.1c1.9 4.8 2 10 1.6 15.4v.1l-.7 8.1a82.2 82.2 0 0 0-.3 5.5c0 1.5 0 2.9.2 4.3l.1 1.7c.2 9 .9 18 1.2 24.1 1 17.8 0 64.5-11.7 76.7Z" opacity=".3"/><path fill="#DEDEDE" d="m165.8 56.7-6.9-5a19.1 19.1 0 0 1 3 10.2c.2 8.2-2.8 20-10.7 23.4-.7 6-1.4 10.7-1.6 14 10.5-7 13-28.1 16.2-42.6Zm10.8 49.8c-6.3-1.6-4.3-8-4.3-8 .6 1.3 1.3 2.7 1.8 4.3a22.7 22.7 0 0 1 4-7c-2 3-1.5 10.7-1.5 10.7Z"/><path fill="#A09F9E" d="M223.6 110.2c4.1-4 2.9-12.8 2.9-12.8 1.6 3.1 1.7 7.8.5 9.8 2.6-3.3 5.2-8 4.7-12 3.1 13-8.1 15-8.1 15Z" opacity=".3"/><path fill="#706F6F" d="M156.8 178.1c-.6-.5-1.2-1.1-1.7-1.8-5.5-7.2-3.8-15.1-3.8-15.1-5.7-4-8.7-9.3-9.9-15.4 0 0 7.9 11.4 19.7 7-.5.5-12.5 10.5-4.3 25.3Z" opacity=".3"/><path fill="#DEDEDE" d="M217.1 94c-1.3 7-10.3 6-10.3 6 .4-3-2-4.2-2-4.2 0 .1.3 6-12.3 7.7-12.7 1.7-13.1-9-13.1-9 2.7-2.4 6.7-4 12.1-2.3a3.9 3.9 0 0 0-2 2.4l4.1-2.2a63.1 63.1 0 0 0 23.5 1.5Zm-32.4 80.6a35 35 0 0 1-17.2 12.7 39.3 39.3 0 0 1-1.1-4.9s-3.2-.3-6.6-2.1c-1-8.7-1.2-22 5-29 0 0-12.8 0-17.6-9-2.5-4.7-5.3-18.5 10.5-32 0 0-5.4 13.2 3.4 19.7 0 0 1.2-5.7 6.7-7.4 0 0 .1 21.2 12.4 23.6 4.2.8 12.4-2 12.7-7.2 0 0 2 21.9-8.2 35.6Z"/><path fill="#D4D4D4" d="M176.8 229c-.4 2 .2 3.9 1 5.6.2 5.8.8 11.3 4.4 15.7 1.7 3.1 3.7 2.6 6.8 3 3.4.7 7.2-2.5 9.2-5.2a14.3 14.3 0 0 0 2.8-7.2c0-1.2 0-2.5-.2-3.8l.6-.2.4-.2c3.5-2.7 3.9-9 1.3-12.6 3.1-3.8 4-9.6 1.6-14 1-1.3 2.3-2.3 3-3l-27.3-2.8a8 8 0 0 0 0 5l-.3.4v.2l-.2.1c-2.2 3.6-2 8.9-.4 13a13 13 0 0 0-2.8 6Z"/><path fill="#A09F9E" d="M178.6 224.4c-3.1 4.2-1.5 7.7-.6 11.9-.8 10.4 7.3 22.8 17.7 14.4.9-.7 1.7-1.6 2.4-2.5l.6-.9c.6-.9 1-1.9 1.4-2.9v-.1c.9-2.3 1-4.8.7-7.2h.2l.4-.3h.2a7 7 0 0 0 2-2.3c1.1-2.3 1.4-5.1.7-7.6v-.5a9.2 9.2 0 0 0-1.2-2.3 13 13 0 0 0 2.8-6.7v-2.5a12 12 0 0 0-.7-3.4 7 7 0 0 0-.6-1.3l.4-.5 2.6-2.5-27.3-2.8c-.7 1.6-.4 3.4 0 5 0 .2-.2.3-.3.4v.2l-.2.1-.2.5v.1c-1.1 2-1.4 4.2-1.4 6.4 0 2 .5 4.1 1.2 6l-.8 1.3Zm15.2 21.3s1.3-6.4 4.8-3.6c2.8 2.2-4.3 7-4.8 3.6Zm8.6-24.8c-4.7 3.2-5.9.1-5.5-1.4 1.7-6.5 11.4-2.6 5.5 1.4Zm-19-7.6c3.7-.5 7.1 3 6.9 6.8-1.1 5.1-13-5.3-7-6.8Zm11.6 19.6c0-3.3 7.6-9.4 8.3-3.5 1 6.1-7.8 7.1-8.3 3.5Zm-14.7 6c6.7-.9 11.2 11.4 3.7 8-2.2-1-5.4-7.8-3.7-8Zm-.4-9.4c-.3-2.4 2.6-4 4.7-2.8 9.7 5.4-1.5 9.9-4.7 2.8Z" opacity=".3"/><path fill="#A8A7A5" d="M196.1 240.1c-4.2 1.3-2.4 6.9-4.9 11.4.2 1-1.5 2-1.7.9 2-3.7 1.6-6.3.7-9.3 0 0-1-5.5-4.6-5.5-1 .1-1.3-1.4-.2-1.6 3.9.3 5.6 3.9 6 5.7 1.2-1.1 1.3-2 2.6-2.5 1-.5 3.8-.3 2.1 1Z"/><path fill="#A8A7A5" d="M197.6 226c1-.3 2.8.1 2 .8-.4.3-2.4.4-3.6 1.6-2 2.2-2.4 5-2.6 7.7-.1 1-1.7 3-1.4-.2 1.2-3.9-2.3-11.3-4.2-11.3-1.1 0-.9-1.6.2-1.6 2.3 0 4.4 3.8 5.3 5.9 1.6-1.8 2.3-2.4 4.3-2.9Z"/><path fill="#948E88" d="M176.8 229c-.5 2.3.5 4.4 1.2 6.5-1.2 13.1 9.6 25.4 20.2 12.6l.5-.8v-.1c1.3-1.9 2-4 2.3-6.3a15 15 0 0 0-.2-3.8l1-.4c3.6-2.9 4-9 1.3-12.6a13 13 0 0 0 2.1-12.8 8.5 8.5 0 0 0-.5-1.2l.2-.4h.1c-7.9-2.7-16.7-2.9-25-2.3 0 .6.2 1.3.4 2l-.1.1-.2.2v.2l-.2.1-.2.5a12.5 12.5 0 0 0-1.3 6.5c0 .9 0 1.8.2 2.6.2 1.2.5 2.4.9 3.5a2.2 2.2 0 0 1-.2.2 12.6 12.6 0 0 0-2.6 5.7Zm2.2 9.1c6-3.8 16 8.2 9.1 12-5 1.6-10.8-9.3-9-12Zm11.3-5c-1.1 4.5-9.6 1.3-10.5-2.7-3-11.8 11.7-3.6 10.5 2.8Zm10.9-9c-1 .3-5.3.3-7.4-.4-1.5-14.6 20.7-10.2 7.4.3Zm-1.2 12.4c-2.2.8-5.5-.3-7.3-1.2 1.2-16 20.7-8.8 7.2 1.2Zm-7.6 11.7h-.2c.3-3.3 2.1-8.3 2.1-8.3 10.1-4 7.4 10.2-1.9 8.3Zm-12.7-32c-.3-13.3 17.5.2 10.8 6.6-2-.1-11.4-.2-10.8-6.6Z" opacity=".3"/><path fill="#A8A7A5" d="M199.3 214.2c-1.3 1.2-2.4 2.5-3.6 3.9-1.3 1.5-1 3.8-1.2 5.7-.1 1-2.1 1.1-2-1.4.3-2 .8-4 .6-5.1-.9-1.9-2.5-6-4.6-5.7-1 0-1.2-1.6-.1-1.7 2.5-.2 4.8 4.6 6 6.8a16.2 16.2 0 0 1 4.4-3.5c2.2-1.1 1.3.3.5 1Z"/><path fill="#D4D4D4" d="M188.6 277.4a5.4 5.4 0 0 0-.4 2.2v.2c0 .4 0 .8.2 1.1a22 22 0 0 1-2.3-2v-.1c-4.8-4.9-8-12.8-5.8-18.5a9.4 9.4 0 0 1 1.9-3l.2-.3c.4-.2.6-.5.7-.8.2-.9-.2-2 1-2 1 0 2 .2 3 .6 2.4.9 4.8 2.4 6.6 3.8 1.8 1.5 1.7 4.2.8 7-1.5 5-5.3 10.3-5.9 11.8Z"/><path fill="#A09F9E" d="M188.6 277.4a5.4 5.4 0 0 0-.4 2.4c0 .4 0 .8.2 1.1a22.3 22.3 0 0 1-2.3-2v-.1c2.3-3.2 4.5-6.5 3.9-10.7-.7-4.5-5.3-7.2-9.7-7.8a9.4 9.4 0 0 1 1.9-3c0-.1 9.7-.1 11.5 1.3 1.8 1.5 1.7 4.2.8 7-1.5 5-5.3 10.3-6 11.8h.1Z" opacity=".3"/><path fill="#948E88" d="m194.5 265.7-.7-1.3c-2.7-4-7-6.3-11.6-7.1l.2-.3c.4-.2 9.5.2 11.3 1.6 1.8 1.5 1.7 4.2.8 7Z" opacity=".3"/><path fill="#A8A7A5" d="M182.6 263.3c-.5 3-.1 6 1.1 9 .4 1 2 .3 1.6-.6a14.7 14.7 0 0 1-1-8c.2-1.6.5-4.2 2.4-4.7 1-.3.3-1.8-.7-1.5-2.4.6-3 3.6-3.4 5.7Zm8 2.3c.7.8 2 0 1.4-.9-1.4-1.8-3.7-4-2.2-6.3.6-.8-.6-2-1.3-1-2 3 .1 5.7 2.1 8.2Z"/><path fill="#00C55E" d="m193.9 258.6-1.7-.2-10.5-.8c-.9-1-.5-5.3.2-7.8l2.6.2c5.5.3 3.3 0 11.3.8.2 2.5-.8 6.8-1.9 7.8Z"/><path fill="#06B253" d="m193.9 258.6-1.7-.2c1.7-5.8-7.7-8.4-7.7-8.4 5.5.3 3.3 0 11.3.8.2 2.5-.8 6.9-1.9 7.8Z"/><path fill="#A8A7A5" d="M179.4 190.4c.2-1 1.8-.8 1.7.2a8.6 8.6 0 0 0 2 6.7c1.2 1.5 3.1 2.4 5 3.3a10.2 10.2 0 0 1-2.5-7.7c0-1 1.7-.9 1.6.2-.3 3 1 5.1 3 7.3.5.7-.3 1.5-1 1.2 0 .6-.6 1-1.2.8-2.4-1.2-4.9-2.3-6.6-4.4a9.9 9.9 0 0 1-2-7.6Zm15.8 11c2.3.3 4.8-2.8 5.2-4.8.1-1 1.6-.8 1.4.1a8.4 8.4 0 0 1-4.5 5.7c.9-.2 1.8-.2 2.6-.6a11 11 0 0 0 3.4-2c1.9-1.8 3.8-4.3 3.8-6.9 0-.9 1.4-1.1 1.4-.2.1 2.9-1.6 5.4-3.6 7.5a14.5 14.5 0 0 1-3.3 2.4c-.6.4-1.3.7-2 .8l-1.9.4c-.8.2-1.4-.8-.8-1.2-.6.2-1.2.2-1.8.1-1 0-.8-1.5.1-1.4Zm7.8-99c-4-.7-8-1.5-11.8-2.6-1-.2-1.6 1-.6 1.5a83.5 83.5 0 0 0 13 2.9c1.9.4 10 .9 11.7 0 1-.3.6-1.6-.6-1.4-3.7.6-9.7-.1-11.7-.3Zm-2 5.5c-.9-.4-1.8.3-1 1 .6 1 6 1.1 7.4.5.9-.3.6-2-.3-1.6-1 .3-4.7.7-6 0Z"/><path fill="#D4D4D4" d="M179.2 22v.2a94 94 0 0 1 6.3 3.7 49.6 49.6 0 0 0 15.3 6.9c10.6 2.7 26.2 5.1 33.5-1.3V31s0 .2.2.2c2.4 2.5 3.2 4.5 3.3 4.6a6.3 6.3 0 0 0 3-4.1 35.6 35.6 0 0 0-5.5-14.3l-.8-.9c1.3 2.3-.6 5.4-3.8 8.2-4.3 3.9-10.9 7.1-14.7 7-6.6 0-25.4-16.8-35.2-16.3-20.3 1-1.6 6.6-1.6 6.6Z"/><path fill="#C1BFBD" d="M179.2 22v.2a94 94 0 0 1 6.3 3.7 49.6 49.6 0 0 0 15.3 6.9c10.6 2.7 26.2 5.1 33.5-1.3V31s0 .2.2.2c2.4 2.5 3.2 4.5 3.3 4.6a6.3 6.3 0 0 0 3-4.1 35.6 35.6 0 0 0-5.5-14.3l-.8-.9c1.3 2.3-.6 5.4-3.8 8.2-4.3 3.9-10.9 7.1-14.7 7-6.6 0-25.4-16.8-35.2-16.3-20.3 1-1.6 6.6-1.6 6.6Z"/><path fill="#C1BFBD" d="M201.3 32.9c10.5 2.8 24.3 5.7 33.4-2.2.4 1.5 2.5 3.5 3 5 2 2.8 4.2 10.5 4 13.2 2.1-23.4-8.2-42.6-29.3-46.7l9.1 7.5s-8.3-.4-7.4 1.2c5.7 10.3-.3 21.1-12.8 22Z"/><path fill="#ABABAB" d="M223.7 35.4c1.5-.2 3.3-.6 5-1.2 2.4-.8 4.6-2 6-3.5a5.2 5.2 0 0 0 1.6-3 20 20 0 0 0-.4-9.1 37.6 37.6 0 0 0-3.7-5A25.8 25.8 0 0 1 230 23c-1.7 4.1-4.3 8.9-6.3 12.3Zm-9.8 0c2.5.3 5 .4 7.5.2 4.7-4.4 6.1-14.4 6.1-19.7a15 15 0 0 0-2-8.3 45 45 0 0 0-1.5-1c.3 2.2.8 5.6.5 8.2-.5 4-3.1 15.9-10.7 20.7Z"/><path fill="#00C55E" d="m207 210.5-3-.2-26.4-1.5c-2.3-1.2-2-5.9-.6-8.4l6 .3c13.7.7 7 .3 26 1.6 1 2.7.6 7.3-2 8.2Z"/><path fill="#06B253" d="m207 210.5-3-.2c4-7.5-19.7-9.5-21-9.6 13.7.7 7 .3 26 1.6 1 2.7.6 7.3-2 8.2Z"/><path fill="#3E875B" d="M221.6 66a1 1 0 0 0-.3.4l-.2.5V67.5a2.6 2.6 0 0 0 .8 1.6 4.8 4.8 0 0 0 2.2 1.2c.9.2 1.9.2 2.7-.2a4.2 4.2 0 0 0 2.1-2 2 2 0 0 0 .2-1.2 1.5 1.5 0 0 0-.2-.5l-.2-.2c-2.6.3-5.2.1-7.1-.1Z"/><path fill="#3B754B" d="M229 68.1a4.1 4.1 0 0 1-5 2.2 5.3 5.3 0 0 1-.8-.3c.8-.2 2-.5 2-1.3a1 1 0 0 0-.2-.5c-.4-.9-2.4-.8-3.9-.7v-.7c0-.3.2-.6.5-.8 1.8.3 4.4.5 7 .2l.2.1v.1l.3.5c0 .4 0 .8-.2 1.2Z"/><path fill="#676D54" d="M236.2 65.9a17.3 17.3 0 0 1-7.3 2.2 30.8 30.8 0 0 1-5.5 0 36.2 36.2 0 0 1-2.9-.3l-2.8-.5a1 1 0 0 1-.7-1.1 1 1 0 0 1 1.1-.7s1.1.3 2.8.5c2 .2 4.9.5 7.7.2a16 16 0 0 0 6.6-2c.5-.2 1 0 1.3.4a1 1 0 0 1-.4 1.3Z"/><path fill="#3E875B" d="m195.8 62.5.1.4v1l-.1.2-.2.4a3 3 0 0 1-1.2 1 5.6 5.6 0 0 1-2.8.6 5.1 5.1 0 0 1-2.9-1 4.3 4.3 0 0 1-1.5-2.8v-.6a1.8 1.8 0 0 1 .6-1l.1-.2a.5.5 0 0 1 .2 0 32.7 32.7 0 0 0 7.6 2Z"/><path fill="#3B754B" d="M187.2 62.3c0 1 .7 2 1.5 2.7a5 5 0 0 0 3 1h1-.1c-.8-.4-1.8-1-1.6-2l.3-.4c.8-.8 3 0 4.5.6l.2-.8c0-.3 0-.6-.2-1-2.1-.2-5-.8-7.7-2l-.1.1a.3.3 0 0 0-.2.1l-.3.4a2 2 0 0 0-.3 1.3Z"/><path fill="#676D54" d="M179.8 57.6c2 2 4.6 3.5 7.4 4.6 1.5.7 3.1 1.2 4.6 1.6l1.5.3a53 53 0 0 0 6.8 1c.6.1 1.1-.3 1.2-.9 0-.5-.5-1-1-1l-3.4-.9c-2.3-.4-5.7-.7-8.8-2-2.5-.9-5-2.2-6.7-4a1.1 1.1 0 0 0-1.5-.1 1 1 0 0 0 0 1.4Z"/><path fill="#A09F9E" d="M200 108.9s.5 5.7 3.2 5.7 4.2-5.2 4.2-5.2l-7.5-.5Z" opacity=".3"/><path fill="#D4D4D4" d="M205.6 47c1 1.6 3 3.2 3 4.9.1 1.4-2.4 5.3-3 4.9-8.4-6.6-15.7-8.8-25.4-3.3.8-2 2.2-3.6 3.5-5.2-2 1.7-5 3-7.2 4.4-2.8.3-.4-5 0-5.2 9.4-5.6 19.7-7.6 27.8-1.2l-.7 2.4 1.9-1.7c.3-.2 0 0 0 0Z"/><path fill="#DEDEDE" d="M208.6 52c0 1.7-2.6 5.2-3.1 4.8-8.1-6.6-15.7-8.7-25.2-3.3.7-2 2-3.5 3.3-5.1-2.2 2-4.8 2.8-7 4.3-2.9.3-.5-4.9 0-5.2 4.6-3.1 8.9-4.2 14-5l-4.5 6.4a15.7 15.7 0 0 1 10-.6c3 .9 4.8 2 6.7 4 1.7-2 3.2-4.6 5.3-2 0 .2.6 1.6.5 1.7Z"/><path fill="#D4D4D4" d="M240.1 56.2c2 .9-1 8-1.5 8.7-6-11-12.9-9.1-19.8-7.5-1.3.3-2-.4-2.2-3.6 0-3.6.8-4 3.5-4.6l.2 4.2 1.9-4.2c10.2-1.8 15 2.4 18 7Z"/><path fill="#DEDEDE" d="M224.4 49.7a5 5 0 0 1-7.8 4c0-3.5.9-3.8 3.5-4.6l.2 4.2 1.9-4.1a38 38 0 0 1 2.1-.3v.8Z"/><path fill="#948E88" d="M238.6 64.9c-5.5-10-11.7-9.3-18-7.9 0 0 2-3.6 7.5-3.2 5.4.5 9.2 4.4 9.2 4.4s2-.4 1-4.4a20.5 20.5 0 0 1 1.9 2.4c2 .9-1 8-1.6 8.7Z" opacity=".5"/><path fill="#DEDEDE" d="M211.8 7.4c-3.3-.3-10.5-1.8-10.5-1.8s14.1 18.5.2 9.9C182 3.2 163 8.8 163 8.8c10.7-8.5 27.7-10.6 45.9-7.3 4.5 3.2 5.9 6 3 5.9Z"/><path fill="#C8CBB8" d="M82.7 437.1c62.7 18 142 15.9 205.6 1.4a365 365 0 0 0-17.2-36.1c-6.4-12.2-5.8-28.6-8.4-42.6-46.5 5.4-104.8 13-152-3.8.2 27.8-28 81-28 81v.1Z"/><path fill="#CCD1C0" d="M82.7 437.1c33.2 11.6 99 13.5 121.3 12.5-13.9-13-39.5-17-56.3-17-24.9-1.7-46.3-32.5-47.9-33.2A8911.5 8911.5 0 0 1 82.7 437Z"/><path fill="#BBB99D" d="M101.6 394.7c38.9 43.9 104.8-34.5 172.6 46.6 4.6-.8 9.6-1.8 14-2.8-10.2-30.5-23-34-25.5-78.7-46.5 5.4-104.8 13-152-3.8.1 13.4-4.5 26.7-9.1 38.7Z"/><path fill="#3E8E5B" d="M104.8 369.5c3.4 9.7-7.8 15.8-7.7 27-.6 7.3 7.2 2.6 10.4 5 2.5.6 4.8.1 7.3 0 5.5-.5 10.2 1.9 15.4 3 21.4 4.2 6.5-1.7 36 2.2 5.2.7 10.5 2.6 16 2.5 5.2 0 10.3-1.8 15.6-2 16.3 2 37.4.2 50.9-1.5 11.8-.1 11.8-11.5 23.8-5.5 5-4.2-2.4-5.2-3.1-9 .5-5.7-4.2-10-4-15.4 1.2-7.2 7.6-13 6.4-20.8 0-3.9-178.5-16.4-175.4-8.5 9.6 14.6 4.3 8.2 8.4 23Z"/><path fill="#3B754B" d="M101.3 383.4c2.8-4 5.6-8.8 3.5-14-2.2-4.6-1-9.6-3-14.3-12.2-16.8-4.7-15.4 12.8-11 2.7 10.1 15 13.3 13.3 0 5-.5 13.3.4 16.5.4 9.5 31.7 48.2 21.3 71.5 23.7 5.8.7 5 5.9 25.3 1.2 37-8.6 26.8-3.5 26.8-3.5l1.6-.5c-5.2 8.9-5 11.7-.4 20.9.5 4-.2 6.7 3.5 9-27.4-3.4-53.5 7.8-79.2 12.3-5.5-9.4-17.1-9.2-22.8-.1-26.6-5-21.7.9-40.6-3.1-5.2-1-9.9-3.4-15.4-3-3.7.7-7 .3-10.6-.8-2.2-.1-7.7 1.8-7-4a31 31 0 0 1 4.2-13.2Z"/><path fill="#D58500" d="M269.4 388.7c-25.3 7.5-151.8 2-167.4-14.5-1.5-1.6-1.5-4.6-.8-6.3-1.8-1.7-3.1-5.1 0-6.2 6.1-1.4 8.8 3.5 15.2 4.7 24.4 8.6 101.8 12.1 151.1 11.5.9.9 1 2.3.7 3.5 0 .1-.7.8-.4 1 4.3 2.5 2.2 3.2 1.3 3.9 1.2.4 1.7 2 .3 2.4Z"/><path fill="#A05A07" d="M269.1 386.3c.9-.7 3-1.4-1.3-3.9-.3-.2.3-.8.4-1 .2-1.1.2-2.6-.7-3.4-35.4-.6-85.2.2-119-5.6-20 8-43.5 1.7-47.2.9 5.4 9.5 95 20 142.9 18.6 4.8-6.4 16.5-9 22-2.2 1.8-.3 6-1.5 3-3.4Z" opacity=".3"/><path fill="#A05A07" d="M269.8 388.5c.8-.6.3-1.9-.7-2.2.9-.7 3-1.4-1.3-3.9-.3-.2.3-.8.4-1 .2-1.1.2-2.6-.7-3.4-25-1.5-58 1.3-86.6-2.2a180.6 180.6 0 0 1-51 6.8c30.3 5.6 77.8 9.9 109.8 9.4 6-6.7 22.9-11 30.1-3.5Z" opacity=".3"/><path fill="#A05A07" d="M226.8 378c-7.2 5.4-31.8 12.8-31.9 13.3 10.4.7 27.6.6 36.7.7 12-4.1 25.2-6.8 35.9-14-.3-.2-1.3-3.4-1.7-3.3 0 0-25.4 3.4-39 3.2Z"/><path fill="#D58500" d="M104.8 374.8c-4-1-4.8 4.2-5.5 7.2-.5 1.8.7 3.8 2.4 4.9C139.2 401 269.1 392.4 269 369c0-1.4 2.2-2.2 2-3.6 0-1-1.3-1.5-2.3-1.5-24.1 12.5-107.8 26.4-163.9 11v-.1Z"/><path fill="#D58500" d="M269 369c0-1.4 2.1-2.2 2-3.6-.1-1-1.3-1.5-2.4-1.5-1.1 0-2 .6-3 1-8.4 4.7-27.2 9.6-50.2 12.9a70.6 70.6 0 0 1-3.6 4.7 39.7 39.7 0 0 1-7.7 7 87 87 0 0 1-4 2.5c26.3-2.7 49.4-8.2 63.8-14.8 3-1.4 6.3-3.7 5.4-6.6-.1-.5-.4-1-.4-1.6Z"/><path fill="#A05A07" d="M269 369c0-1.4 2.1-2.2 2-3.6-.1-1-1.3-1.6-2.4-1.5-5.6 1.9-9.4 4.5-17.3 6.5-1.4 8-7 4.9-7.4 8.1-.5 3.2-3.4 2.2-3.5-.5-.1-1.6-.2-4-2-4.4a320.6 320.6 0 0 1-40.3 6.3c-23.2 13-78.3 17-93-5-1.3-.4-2.7 0-3.6 1-1.5 2.6-3.5 7.7-.8 10.2 8.5 6.5 83.6 14 141-1-1.1-2.7 2-2.6 2.3.4 5.7-2.3 29.2-8 24.9-16.5Z" opacity=".3"/><path fill="#A05A07" d="M239.6 383c-2.5-2.6-.5-3.1-1.2-5.3-1-1.2-.8-2.7 0-4l-3.2.7c-3 3.7-.3 9.9 3.7 11.4l5.1-1.4c-1.6 0-3.3-.2-4.4-1.4Zm29.3-14c0-1.4 2.2-2.2 2-3.6 0-1-1.2-1.5-2.3-1.5-5 1.5-8 4-14.7 5.8 2.2 2.4 0 5.5.4 8.3 0 1 .2 3 0 4 4.9-2.5 17.6-5.2 14.7-13ZM99.7 384.5c.1-1.9 1.7-2.5 3.1-3.3 3.2-1.5 2.6-6.3.2-6.3-2.2 0-4.4 7.7-3.3 9.8v-.2Z" opacity=".3"/><path fill="#A05A07" d="M239.5 377.6c-.7-.8-2-1-3-.6a2 2 0 0 0-1.3 1.7c-.2.8.1 1.7.8 2.4.9.9 2.5 1.2 3.5.4 1.3-1 1-2.8 0-4v.1Z" opacity=".3"/><path fill="#A05A07" d="M239.2 378c-.6-.7-1.6-.8-2.4-.5-.6.2-1 .8-1 1.3-.2.7 0 1.4.5 2 .8.6 2 1 3 .3.9-.8.6-2.3-.1-3.1Z"/><path fill="#CCD1C0" d="M241.8 384.7v.3c-5.2 1.7-10.8-8.2-3.8-11.5l.1.2 2.7-.6c-.5-1.4-1.2-2.6-2.2-2.4-13 3.7-4 21 5.2 16 1-.5 1-1.2.5-2.6l-2.6.6Z"/><path fill="#C2C2AC" d="M238.6 370.7a11 11 0 0 0-3.5 1.6c.9.3 1.5 1 1.9 1.8l1-.6.1.2 2.7-.6c-.5-1.4-1.2-2.6-2.2-2.4Zm-3.8 14.3a4.2 4.2 0 0 1 2-1.7 7.3 7.3 0 0 1-2-5.6c-1 .2-2-.2-2.6-.8-.5 2.8.6 6 2.7 8Zm9.5-1-2.6.8.1.2a4 4 0 0 1-2.2 0c.2 1 .2 1.7-.1 2.6 1.8.2 6.3-.1 4.8-3.6Z"/><path fill="#BBB99D" d="m238.3 373.7 2.5-.6c-.5-1.4-1.2-2.6-2.2-2.4a8.9 8.9 0 0 0-1.3.5 3.6 3.6 0 0 1 1 2.5Z"/><path fill="#C2C2AC" d="M238.6 370.8c-10.2 3.2-3 21.7 5.9 13.8l-.2-.5-2.5.6v.3c-5.2 1.7-10.8-8.2-3.8-11.5l.1.2 2.7-.6c-.5-1.4-1.2-2.6-2.2-2.4Z" opacity=".3"/><path fill="#BBB99D" d="M235.8 382a7.4 7.4 0 0 1-.8-1.9l-2.6.6 1 2.4c.5-.6 1.5-1 2.4-1Zm8.5 2-2.6.8c.4.8.7 1.7.7 2.6 1.5-.4 2.8-1.1 1.9-3.3Z"/><path fill="#CCD1C0" d="M239.8 379.9c0-.8-.3-1.8-1-2.2-2.3.6-6.2 1-8.1 2-1.2.6-.5 1.9.5 2 .4.1 5.1-.8 8.6-1.8Z"/><path fill="#C2C2AC" d="m239.2 378-.4-.3-2.4.5c-1.1 2.4-4 3.2-6.2 2.7 1.3 2 5-.1 9.6-1a2.8 2.8 0 0 0-.7-2v.1Z"/><path fill="#BBB99D" d="m239.2 378-.4-.3-1 .2c0 1.2-1 2.3-1.8 3l3.8-1a2.8 2.8 0 0 0-.7-2v.1Z"/><path fill="#A05A07" d="M250.4 373.8c-1.2-.4-2.7.7-2.8 2-.1 1 .7 2.2 1.8 2.7.8.3 1.5.1 2-.2 1.8-1 1-3.8-1-4.5Z" opacity=".3"/><path fill="#A05A07" d="M250.3 374.4c-2.2-.5-2.9 2.8-.7 3.5 2.3.8 3-2.6.7-3.5Z"/><path fill="#A05A07" d="M263.6 370.5c-2.2-3.9-7.1 1.2-3.4 3.4 2 1.4 4.6-1 3.4-3.4Z" opacity=".3"/><path fill="#A05A07" d="M263 370.8c-1.6-2.8-5.2.9-2.5 2.5 1.5 1 3.4-.8 2.4-2.5Z"/><path fill="#A05A07" d="M224.3 380.3a3.1 3.1 0 0 0-2.8-.3c-1.1.4-1.5 1.5-1.3 2.5.5 2.4 4 3 5 .6.5-1 0-2.1-1-2.8Z" opacity=".3"/><path fill="#A05A07" d="M223.9 380.8c-1.2-1-3.6-.2-3.2 1.6.7 3.4 6 .8 3.2-1.6Z"/><path fill="#A05A07" d="M207.3 382.4c-4.9-1.5-4.5 6 0 5.3 3-.4 2.8-5 0-5.2Z" opacity=".3"/><path fill="#A05A07" d="M207.1 383.1c-3.5-1.1-3.3 4.4 0 4 2.2-.4 2-3.7 0-4Z"/><path fill="#A05A07" d="M103.2 366c2 3.3-2.3 5.6-2.3 5.6-.6-2 .4-2.4.3-3.7-1.8-1.7-3.1-5.1 0-6.1 3-1 6.2.5 8.7 2 1.4 1 3.6 1.8 6.5 2.6-.6-.1-15-3.7-13.2-.4Z" opacity=".3"/><path fill="#4D575C" d="m158.2 50 21.1 10.6 3-4.2-20.8-7.1-5.1-1.6a4.7 4.7 0 0 0-3 .2s4 1.8 4.8 2.2Z"/><path fill="#D2C392" d="M205.6 68.4a15.8 15.8 0 0 1-6.1 8 17.4 17.4 0 0 1-9.8 3.2c-1 0-1.8-.1-2.7-.3a13 13 0 0 1-9.2-6 12.4 12.4 0 0 1-1.1-10.3 16.9 16.9 0 0 1 18.6-11c4 .7 7.2 2.9 9.2 6a12.3 12.3 0 0 1 1 10.4Z" opacity=".3"/><path fill="#fff" d="M205.6 68.4a15.8 15.8 0 0 1-6.1 8 17.4 17.4 0 0 1-9.8 3.2 15 15 0 0 1-5.3-1l-3-4 22.4-17.4.6.9a12.3 12.3 0 0 1 1.2 10.3Z" opacity=".4"/><path fill="#D2C392" d="M242.7 73a16.9 16.9 0 0 1-18.5 11c-4-.8-7.3-2.9-9.2-6a12.3 12.3 0 0 1-1.2-10.4 16.9 16.9 0 0 1 18.6-11c4 .7 7.2 2.9 9.2 6a12.4 12.4 0 0 1 1.1 10.3Z" opacity=".3"/><path fill="#fff" d="M241.6 72.2a15.8 15.8 0 0 1-6 8 17.4 17.4 0 0 1-9.9 3.2 15 15 0 0 1-5.3-1l-3-4L240 61.2a12.3 12.3 0 0 1 1.7 11.1Zm-8-15-2.8 2.2L216 71.1l-2.7 2c-.1-1.6.1-3.4.6-5.1a16.7 16.7 0 0 1 19.7-10.8Zm-35.9-4.4-2.8 2.3L180 66.8l-2.6 2c-.2-1.6 0-3.4.6-5.1a16.8 16.8 0 0 1 19.7-10.8Z" opacity=".4"/><path fill="#4D575C" d="M189.7 79.6c-1 0-1.8-.1-2.7-.3-4-.7-7.2-2.8-9.2-6a12.4 12.4 0 0 1-1.1-10.3 16.9 16.9 0 0 1 18.6-11c4 .7 7.2 2.9 9.2 6a12.3 12.3 0 0 1 1 10.4c-2 6.5-8.8 11.2-15.8 11.2Zm2.9-25c-6 0-11.6 3.7-13.4 9.2a9.7 9.7 0 0 0 .9 8.1 10.5 10.5 0 0 0 7.4 4.8c6.6 1.2 13.6-3 15.5-9.1a9.7 9.7 0 0 0-.8-8.1 10.5 10.5 0 0 0-7.4-4.8 14 14 0 0 0-2.2-.2Z"/><path fill="#668291" d="M184.4 78.5a11 11 0 0 1-5.8-5 13.3 13.3 0 0 1-1-9.7c2.5-9.8 14-12 14-12-6.7.5-13 5-14.9 11.2a12.4 12.4 0 0 0 1.1 10.3 12.7 12.7 0 0 0 6.6 5.3v-.1Z"/><path fill="#4D575C" d="M226.8 84.1c-.9 0-1.7 0-2.6-.2-4-.7-7.3-2.8-9.2-6a12.4 12.4 0 0 1-1.2-10.3 16.9 16.9 0 0 1 18.6-11c4 .7 7.3 2.8 9.2 6a12.4 12.4 0 0 1 1.1 10.3c-2 6.6-8.8 11.2-15.9 11.2Zm2.9-25a14 14 0 0 0-13.3 9.3 9.7 9.7 0 0 0 .9 8.1 10.5 10.5 0 0 0 7.3 4.8c6.7 1.2 13.7-3 15.6-9.2a9.7 9.7 0 0 0-.9-8 10.5 10.5 0 0 0-7.4-4.8 13.6 13.6 0 0 0-2.2-.2Z"/><path fill="#4D575C" d="m205 69.6-1.7-2c.6-.6 6-4.9 9.7-3.4 1.8.7 2.8 2.4 3 5l-2.6.3c-.1-1.6-.6-2.5-1.4-2.8-1.8-.7-5.5 1.6-7 2.9Z"/><path fill="#668291" d="m213.2 64.3-.4.7c-.8.7-5.2 1.2-5.5 0 1.8-.9 4-1.5 5.8-.8v.1Zm-31.4-8-2.2 2.2s-.8-2.1-6.1-2.3C168 56 166 51 166 51h.1l15.6 5.4Zm57 3.2-3-1a18.2 18.2 0 0 0-19.4 4.3 17.1 17.1 0 0 1 16-6.2 14 14 0 0 1 6.4 3Z"/><path fill="#151916" d="M182.7 361.9s-24.8 52.3-24.3 54.4c.5 2.1 21.5-2.6 29.8 5.2s23.3 24 56.5 24.6c0 0 34.7-4.8 43.6-7.6 8.9-2.8 34.4-12 47-30.9 12.8-18.9 23-17.2 23-17.2l-1.4-26.5-174.2-2ZM201.8 333.6s-23 20.2-34 18.5c-30.6-4.6-66.4 29.7-66.4 29.7-37.1 28.4-88.7-7.1-87.7-11.8 0 0 7-49.3 8.5-54.6 39.9-1.9 135-56.6 175.9-58.6 0 0 13.6 74 3.7 76.8Z" opacity=".3"/><path fill="#3C8454" d="M105.1 11.5s5.5 3 4 12.3c-1.4 9.4-4.9-4.5-4.9-4.5s-9.1-13.4 1-7.8Z"/><path fill="#4BA669" d="M108.8 16.6a4.4 4.4 0 0 1-1.9-1.4 40.5 40.5 0 0 1-2.7-4.2l1 .5s2.4 1.3 3.6 5Z"/><path fill="#31573B" d="M102 10.7c2.8 1.8 6 5.7 5.3 10.2-.6 4-14.7-9.5-14.7-9.5s6.7-2.6 9.5-.7Z"/><path fill="#484944" d="M58.4 141.8c.1-.8-3-2-3.7-1.6-.7.4-5.2 1.1-3.7 5.2.6 1.3 6.3-3 7.4-3.6Z"/><path fill="#383834" d="M51.4 143.3c-.5.5-.5 1.6-.2 2.2.7 1.3 7.4-3.8 7.3-4-1.4-.2-3.5-1.4-7.2 1.8Z"/><path fill="#484944" d="M94.6 136c-.7-3.5-10.2 1.7-5.6 3 .3.1 6.3.4 5.6-3Z"/><path fill="#383834" d="M94.2 137.1c-2.5-3.5-9.3.5-5.2 2 .3 0 5.4-1.7 5.1-2Z"/><path fill="#34352F" d="M28.2 138.1a34.3 34.3 0 0 1 33-28.5c-6.2 10.5-12.7 21.4-23 27.8-8.7 5.4-14.3 2.2-10 .8Z"/><path fill="#34352F" d="M61.9 122c-4.4 5.4-17 11.3-13.2 2.7a42 42 0 0 1 6.8-10.5c8.2-6.8 33-14.3 35-14a75.4 75.4 0 0 1-23.6 23c-7.4 4.6-5-1.3-5-1.3ZM42.4 98.5c-10.8.7-48 50.2-40 52.7 7.5 2.4 29.5-15.8 34.2-19.8 12.4-10.7 20.3-34 5.8-33Z"/><path fill="#5E624F" d="M66.3 147c-22.4 4.8-22.3 10-21.4 10.3 8.5 2.3 16-5.4 49.2-6.5 4-.1 11.6.5 15.4-.9.4-1.8-5.1-3.8-7-4.4-8.6-2.8-27.2-.3-36.2 1.5Z" opacity=".3"/><path fill="#5E624F" d="M54.5 151c-2.9-1.6-11.5 4-10.7 5.5 2 3.4 19.4-.7 10.7-5.6Zm50.9-3.5c-1.4-4-14.2-4.5-15-.4-.2 5.2 19.7 5.7 15 .4Z" opacity=".7"/><path fill="#676D54" d="M42.8 152.7c-.4 1.3-.3 2.8.7 3.8 1.6 1.7 4.5 1.1 6.3-.2 23.5-18.1 48.6-13 51.5-7.6.2.4.4 1 .7 1.3.6.7 1.8.9 2.7.6.9-.4 1.6-1.1 2-2 .7-1.7-.1-3.6-1.3-5.2-9.3-12.6-57.8-6.7-62.6 9.2Z"/><path fill="#484944" d="M105.4 143.5c-2.6-3.5-8.2-5.6-15.1-6.4-1 5.3-16.3 5.3-17.3.2a64 64 0 0 0-21 6.1c6.7 3.7-4.8 14.8-9 8.6-2 4.5 3 7.3 6.7 4.2 23.6-18 48.7-12.9 51.5-7.5 3 5.7 8.2-1.4 4.2-5.3Z" opacity=".3"/><path fill="#4B4C45" d="M55 152.6a59.5 59.5 0 0 1 15.4-6.9s.7-4.7-2.7-7.6a62 62 0 0 0-12.3 3.6c.8.7 1 1.8 1.1 2.8.1 1.7-1.1 7-1.5 8Zm38.2-8.1c3.3.7 5.8 1.9 7.2 3.1 1.8-1.5 3.3-3.3 3.9-5.4-2.3-2.2-6-3.7-10.4-4.6a8 8 0 0 1 .4 3.8 6.9 6.9 0 0 1-1.2 3.1Z" opacity=".7"/><path fill="#484944" d="M68.6 137.3c-6.6-2.1-20-2.4-3.4 3 .8.3 1.8.8 2 1.8 0 1.2.9 2.5.1 3.6-1 1.2-3.1 3.9-3.1 4.2.4 3.4 5.5-1.9 6.7-3.2 1-1.5-1-9.2-2.3-9.4Z"/><path fill="#383834" d="M69.3 138c.2 1.5-1.3 2.8-2.6 3.2 2.6 4.4-1.2 6-2.6 8.7.5 3.5 5.6-1.9 6.7-3.2 1-1.2-.3-6.7-1.5-8.6Z"/><path fill="#484944" d="M67 142a25 25 0 0 0-7.2-5.4c-.2-.6-1.3-1-4.3.2-4.8 2.1-13-8.4-15-10.1-1.5 1-5.8 5.6-4.2 7 .9-1.6 18 13.2 23.2 6.4 1.2 1.4 4 2 3.7 4.2-.5 1.2 0 4.1-1.3 4.3a53.4 53.4 0 0 0-5.6 3c2.6 0 7 1.4 8 .3 1.9-1.7 2.9-8.4 2.7-10Z"/><path fill="#383834" d="M67 142c0-.2-.5-.7-1.1-1.2-.7 1.7-3 1.6-4.3.9.9.6 2 1.3 1.7 2.6-.6 1.2-.1 4.1-1.4 4.3a53.2 53.2 0 0 0-5.6 3c2.6 0 7 1.4 8.1.3 1.8-1.7 2.8-8.4 2.6-10Z"/><path fill="#484944" d="M58.3 143.2c1 2.5-.9 4.4-2 8-.8 1.4-2.7 1.8-3.9 2.9 4.5-.1 5.3 2.3 8.3-5 .8-1.6 1.8-2.7 2-4.3.2-3.4-9.5-11.4-4.4-1.6Z"/><path fill="#383834" d="M61.7 142.2c-.1 1.4-2 2.5-3.1 1.6.4 2.1-1.2 4.1-2.3 7.4-.8 1.4-2.7 1.8-3.9 2.9 4.5-.1 5.3 2.3 8.3-5 1.3-2.3 3-4.3 1-6.9Z"/><path fill="#484944" d="M87.6 121.5c-1.2-.5-6.4 1.2-6.3 2 0 0 8.3 10 13.6 13.5 0 0 3.3-.2 4-1.4-9-7.8-9-11.5-11.3-14.1Z"/><path fill="#484944" d="M97.5 134.5c-1.5-.4-2.3 2-.8 2.3.4.1 6 4 5.4 5.2l-1.1 1.5-3.8 4.6c-.2.6.1 1.3.8 1.5 3.2 1 6.5-6.2 6.9-7.7.7-3.3-5.7-7-7.4-7.4Z"/><path fill="#383834" d="m102.9 137.8-.3 1.2a4.7 4.7 0 0 1-1.3 1.3c.6.7 1 1.3.8 1.6a7.5 7.5 0 0 1-1.1 1.6l-3.8 4.6c-.2.6.2 1.3.8 1.5 3.3 1 6.6-6.2 6.9-7.7.3-1.4-.7-2.9-2-4.1Z"/><path fill="#484944" d="M97 134.8c-1.4-1.1-2.9 1.1-1.3 2 0 2 2 3 2.8 4.7-.4 1.5-1.2 2.7-1.7 4.1-.6-.5-1.4 0-1.9.4-1.4 1.5 2.2 3.2 2.7 3.2 2 0 4.2-6.7 4.2-8.4 0-.2-2-3.8-4.7-6Z"/><path fill="#383834" d="M101.3 140.6c-.8.7-2 .8-3 .6l.2.4c-.4 1.4-1.1 2.7-1.6 4-.6-.4-1.4 0-2 .4-1.4 1.5 2.2 3.2 2.8 3.2 1.8 0 4.7-7.2 3.9-9l-.3.4Z"/><path fill="#484944" d="M97.2 135.8c-.4-1-1.7-1-2.2-.3-1-1.4-3 .4-1.8 1.6l1.2 1.5c1.2 1.9-.3 6.3-.3 6.2a30 30 0 0 0-4.7-1c1.2 2.4 4 5.8 5.8 5.1 1.3-.5 4.2-6.1 2-13Z"/><path fill="#383834" d="M97.8 140.4c-1 .8-2 .5-3 0l-.7 4.4a28.5 28.5 0 0 0-4.7-1c1.2 2.4 4 5.8 5.8 5.1 1-.4 3-3.9 2.7-8.6l-.2.1Z"/><path fill="#353531" d="M46.8 139c-5.3-2.6-10-6.1-10.5-5.3-1.6-1.4 2.7-6 4.3-7 1 .9 4 4.4 7 7.1-3.3 1.1-1 5.1-.8 5.3Zm47-8.3c-3.4-2.7-6.2-.2-6.2-.2-3.4-3.5-6.3-7-6.3-7-.2-.8 5-2.5 6.3-2 1.6 2 2 4.6 6.2 9.2Z" opacity=".5"/><path fill="#6D6D68" d="M111.6 29.2a37.5 37.5 0 0 1-8.9 18.6l.8 1c6.5 8.4 13.1 22.8-1.6 37.8-.2.2-.4.3-.7.3-4.6 11.7-13.3 24-11.6 29.7.8 2.8 2.1 5.7-.8 7.8-6.9 5-15.8-4.7-16.9-13.2-11.5 6-18 4.3-25.1 3.4l-1 2.4c-1.4 3.3-4.1 9.4-8.6 8.6-4-.8-5-7.4-5.7-10.7-3.2 2.6-22.3 23-21.9 15.6-.2-1.1.5-2.4 1-3.2a24.1 24.1 0 0 1-2.4 3c-1.6 1.9-3.4 1-3.2-2.3 1.1-13.6 15.1-50 23-61.7A51.3 51.3 0 0 1 49.3 47h3.1c.8-2.6 6.3-18.9 19.5-28.2 7.5-5.3 17.1-12 30.7-4.8 5.6 3 9.6 11.1 9.1 15.1Z"/><path fill="#62625D" d="M102.4 14.1C89 7 79.3 13.6 71.8 19A58.3 58.3 0 0 0 52.3 47l-3.1.1A39.4 39.4 0 0 0 38.6 54c3.1 2.9 5 6.8 3 12.2-5.2 14.2-22.1 16.5-22.1 16.5C12.7 98.2 5.8 118.6 5 128c-.2 3.3 1.7 4.2 3.2 2.4.9-1 1.6-2 2.3-3.1-.4.8-1 2.1-.9 3.2-.4 7.4 18.6-13 22-15.6.5 3.3 1.6 10 5.6 10.7 4.5.8 7.3-5.3 8.6-8.6l1-2.4c7 1 13.6 2.7 25.1-3.3 1.1 8.4 10 18.2 17 13.2 2.8-2.2 1.5-5 .7-7.9-1.7-5.7 7-18 11.6-29.7.2 0 .5-.1.7-.3 14.7-15 8.1-29.4 1.6-37.8l-.8-1a37.5 37.5 0 0 0 9-18.6c.3-4-3.7-12.1-9.3-15Z"/><path fill="#5A5B56" d="M111.6 29.2a37.5 37.5 0 0 1-8.9 18.6l.8 1c4.1 5.3 8.3 13 7 21.7a31.1 31.1 0 0 1-8.6 16 1 1 0 0 1-.6.3l-.2.4a43.1 43.1 0 0 1-2 4.8l-.6 1.2c-2.3 4.6-5.3 10.1-7.2 14.8v.1a17 17 0 0 0-1.8 7.8l.1.6.8 2.8.1.5c.3 1.8 0 3.4-1.7 4.6-4.5 3.3-10 .1-13.5-5a16.1 16.1 0 0 1-.8-1.1 22.2 22.2 0 0 1-1.8-3.8l-.2-.7-.3-1.2v-.3l-.2-.5v-.6c-11.6 6-18 4.2-25.2 3.3a33.6 33.6 0 0 1-4 8.3 6.9 6.9 0 0 1-4 2.7H37a4.5 4.5 0 0 1-1.6-1c-2.5-2.1-3.3-7-3.7-9.6l-2 1.3c-2.6 1.9-18.9 20-20 14.3v-.8a6 6 0 0 1 .9-2.3v-.2l-1 1.5-.1.3-.5.6a7.3 7.3 0 0 1-1.4 1.4c-1.8.5-2.4-.9-2.4-3.4a93 93 0 0 1 5.4-21.3l.5-1.4.4-1.3.7-2 1.7-4.6.4-1 .3-.9.5-1.1.7-2c12.1 6.6 24.3 1 32.4-10.8 4.3-6.2 8.6-10.2 10.6-9 8 4.6 15.9-4.2 17.6-19 .3-2.8.7-7.5.5-11.4 0 0-9 8.6-8.2-3.4.4-6.6.2-12.1-.4-16.6a42.1 42.1 0 0 1 3.7-3c7.5-5.3 17-11.9 30.6-4.7 5.6 3 9.6 11 9.2 15v.1Z"/><path fill="#50514A" d="M55.2 39.7S63.4 63.1 99 60.1l.9-4.1-43.8-18.8-1 2.5Z"/><path fill="#50514A" d="M82.6 37.6c3 12.8 18.6 14.8 18.6 14.8L100 56s-16 1.1-23.3-8.2a14.9 14.9 0 0 1-2.2-4.1 20.3 20.3 0 0 1-1.2-8.5A33 33 0 0 1 81.5 13a22.8 22.8 0 0 1 23 2.4s-6.3-3.5-11.3-1.7c-5 1.8-13.7 11-10.6 23.8Z"/><path fill="#4B4C45" d="M111.6 29.2c-.6 6-3.8 12.1-8.3 17.8-3.4 1.1-7.8 2.3-13-2-1.8-1.7-2.7-5.3-1.7-7.6C91 32.7 96.5 30 111 25.1c.5 1.6.7 3 .6 4.1Z" opacity=".7"/><path fill="#50514A" d="M91 121.8c.4 1.1.5 1.2 2.2 4 .1.2-.1.4-.4.4-2.5.2-4-1.3-4-1.3.2.7.4 1.6.4 2.5 0 .5-.2 1-.7 1-1.6-.2-2.4-2.2-3-2.5 0 .9.7 2.5.5 4-.3 1.3-1.3 1-1.8.4-1.4-1.8-3.6-5-5.3-6.8.2-.4 7.8-9.3 11.7-3.5l.4 1.8Z"/><path fill="#50514A" d="M107.8 78.8a33.5 33.5 0 0 1-6.5 8l-1.1 2.9-2.9 5.8c-4 7.7-8.9 16.8-7.7 21 .5 1.6 1 3.2 1 4.7a4 4 0 0 1-1.5 3l-.3.2c-.9.6-1.8 1-2.7 1.2h-.2c-6.2 1.2-12-6.3-13.6-12.8l-.2-.6a.6.6 0 0 0 0-.2l-.2-.8-1.6 1c-8 4-15.4 4.3-23.5 2.4-3.5-.9-2.6 7.2-5.7 9.9-.7.5-1.3.8-2 1a3.6 3.6 0 0 1-3.5-.7c-1.1-.9-2-2.4-2.6-4a24 24 0 0 1-1.4-5.8c-1 .7-3 2.7-5.3 5l-.3.2a96.6 96.6 0 0 1-13.4 11.4c-.9.5-1.8 1-2.6.4 4.4-3 31-31.6 31.1-31.8 9.6 3 19.6-17.6 24.1-22.1 0 0 2.4 6.3 5.3 8.6C73.5 89 99 90.9 100 56c-.4-4.6 2.4-8.7 3-7.9a47 47 0 0 1 3.2 4.5 25.2 25.2 0 0 1 1.7 26.2Z"/><path fill="#353531" d="M103.8 78.8c-3.5 14.1-7.8 18.8-12.9 30-2.7 7.1-.9 6.7-.3 12.4-4-5.6-10.7-7.9-17.7-6.1-.2 0-1-3.2-1-3.9-19.9 11.1-26.8-3-28.5 8.8a43 43 0 0 1-11.1-1c-2.2-4.7 0-9.4 2.2-11.9 1.3.5 13.6-6 22.9-5.3 9.3.7.8 6.8.8 6.8C87 105.5 96.3 91 103.8 78.8Z" opacity=".5"/><path fill="#484944" d="M50.4 53.4c-8.6 8.4-8-1.8-5.2-4.4 2.2-1.2 8.2-5.1 8.2-5.1s.4 6.1-3 9.5Z"/><path fill="#383834" d="M109.7 74.2c-1.2 4-4.2 11-8.5 12.7 0 0 1.9-3.9 3.3-11.2 1.4-7.3 1.2-13.9 1.2-13.9s3.3 6 4 12.4Z"/><path fill="#43433E" d="M54.6 78.9s-15.8 35.5-49.2 45.6c0 0-.7 3.4-.3 5.4.5 2 2 3 5.3-2.6l-.8 2c-.3 1.6 0 3.5 2 2.8 2-.7 5.4-3.8 10.8-8.4 10.6-9 27.7-30 32.2-44.8Z"/><path fill="#50514A" d="M76.5 72.2s5.1-6.1 4.3-10.6c0 0 2.2 9 8.7 3.3 0 0-1 9-11.2 14 0 0 4.8-4.5 3.5-7.4-1.2-2.8-5.3.7-5.3.7Z"/><path fill="#3C8454" d="M105.1 11.5s-4-2.8-10-4c-19.3-3.7-27.6 2.6-34.5 10.7-9 10.6-6.4 20.3.8 28.6 10.2 12 40.2 11.3 40.2 11.3s0-1-2.4-3.3c-6.4-6-23-12.4-18.3-28.9 6.2-21.3 24.2-14.4 24.2-14.4Z"/><path fill="#4BA669" d="M99.2 54.8c-3.5 0-15.8-10.1-18-14.1-1.4-2.5-.4-7.5-2-9.5-.9-1.2-3.3-6.4 1.2-9.4 3.7-2.5 2.7-2.3 5.2-6.5C89.3 9 98 10 98 10v.3c-5.7.2-13.4 3-17 15.5-4.8 16.5 11.9 22.9 18.3 29Z"/><g opacity=".6"><path fill="#68B471" d="m77.9 7.2-.6 3.2h-3.2l.4-2.4 2.6-.8h.8Zm3.4-.6-.1.6h-3.3V7l3.4-.4Z"/><path fill="#68B471" d="M80.1 13.5h-3.3l.5-3.1h3.4l-.6 3.1Zm3.9-3.2h-3.4l.6-3.2h3.3l-.5 3.2Z"/><path fill="#7AD485" d="M80.6 10.3h-3.3l.6-3.1h3.3l-.6 3.1Z"/><path fill="#68B471" d="m98.3 8.3-.4 1.8h-3.4l.5-2.6h.2l3 .8Z"/><path fill="#68B471" d="m101.4 10-.1.6c-1-.2-2.2-.3-3.4-.2V10h3.5Zm1.2 0h-1.2v-.5l1.2.5Z"/><path fill="#7AD485" d="m101.5 9.5-.1.5h-3.5l.3-1.7 3.2 1.2Z"/><path fill="#68B471" d="m57.2 32-.6 3.1h-1.4c-.2-1-.3-2-.3-3.1h2.3Zm-1 6.2v.2l-.1-.2Z"/><path fill="#68B471" d="M59.4 38.3H56l.5-3.2h3.2l-.4 3.2Z"/><path fill="#7AD485" d="m56.6 35.1-.5 3.1-1-3.1h1.5Z"/><path fill="#68B471" d="M72.7 38.4h-3.3l.5-3.2h3.3l-.5 3.2Z"/><path fill="#68B471" d="M76.5 35.3h-3.3l.5-3.2H77l-.5 3.2Zm-1 6.3h-3.3l.5-3.2H76l-.6 3.2ZM79.3 38.5H76l.5-3.2h3.3l-.5 3.2Z"/><path fill="#7AD485" d="M76 38.4h-3.3l.5-3.1h3.3l-.5 3.1Z"/><path fill="#68B471" d="M64.4 24.4h-3.2l.5-3.1h3.2l-.5 3.1ZM68.2 21.3h-3.3l.5-3.1h3.3l-.5 3Zm-1 6.3h-3.3l.5-3.2h3.3l-.6 3.2Z"/><path fill="#68B471" d="M70.9 24.4h-3.3l.6-3.1h3.2l-.5 3.1Z"/><path fill="#7AD485" d="M67.6 24.4h-3.2l.5-3.1h3.3l-.6 3.1Z"/><path fill="#68B471" d="m64 46.8-.4 2.2c-.8-.7-1.6-1.4-2.2-2.2H64Zm2.7 3.2-.2 1-1.6-1h1.8Zm13 3.5-3.4-.1.6-3.2 3.3.1-.5 3.2ZM83.5 50.4h-3.3l.5-3.3 3.4.1-.6 3.2Zm-.5 3.1-.5 3-3.2-.7.3-2.3H83Z"/><path fill="#68B471" d="M86.3 53.6H83l.5-3.2H87l-.6 3.2Z"/><path fill="#7AD485" d="M83 53.5h-3.4l.6-3.2h3.3l-.5 3.3Z"/></g><path fill="#243828" d="M101.6 58.1s-30 .6-40.2-11.3c-3.4-3.9-5.7-8-6.3-12.5a7.3 7.3 0 0 0 4.2 4c6.4 2-.8 4.8 10.8 12 8.4 5.4 18.6 3.3 23.5 1.8l1.5-.5a37.8 37.8 0 0 1 4 3.2c2.4 2.2 2.5 3.3 2.5 3.3Z" opacity=".3"/><path fill="#AED588" d="M89.7 6.7c-8.9 0-11.4 2.6-15.7 12.2-4.3 9.7-17.5 5.7-17.5 5.7a26.6 26.6 0 0 1 4-6.4C66.9 11 74.2 5.1 89.8 6.7Z" opacity=".3"/><path fill="#3C8454" d="M104 60.9s4.3-3.4 4.8-12c.5-8.7 0-10.6 0-10.6s-4 6.8-6 9.5c0 0 1.7 10 1.2 13.1Z"/><path fill="#3C8454" d="M108.8 48v.8c0 1-.2 1.7-.3 2.5-1 6.9-4.5 9.6-4.5 9.6.5-3-1.3-13-1.3-13 2.2-2.8 6.1-9.5 6.1-9.5s.4 1.6 0 9.6Z"/><path fill="#68B471" d="M108.8 48v.8c0 1-.2 1.7-.3 2.5H104L106 48h3Z"/><path fill="#31573B" d="M103.7 54.7s4.5-6.5 3.3-13.3c0 0-2.4 3.9-4.3 6.4l1 6.9Z"/><path fill="#3C8454" d="M98.8 55.1c7.5 3 11 10.3 7.4 17.8a37.6 37.6 0 0 1-7.4 9.7c-3.3 3.4-5.4 7.9-4.9 12.1.5 4.2 3.1 7.9 7.7 10l-.3 1.7c-10.3.2-15-11.6-10.8-20 1.6-3.9 4.8-6.8 7.7-9.7 6.7-6.4 9-14.4-.1-20l.7-1.6Z"/><path fill="#4BA669" d="M106.2 72.9a23.4 23.4 0 0 1-2.6 4.2c-1-4.4 3.6-13 3.6-13a13 13 0 0 1-1 8.8Zm-4.6 31.8-.2.7c-4.7-.8-11.3-6.5-11-13.5.1-7 9.4-10.3 9.4-10.3l-1 1c-3.3 3.5-5.4 7.9-4.9 12.1.4 4.2 3.1 7.9 7.7 10Z"/><path fill="#3C8454" d="M105.9 54.6c2.1 11.4-7 21-17.4 23.8-9.3 2.7-16 9.6-18.2 19l-1.7.1c-1-5.5 1-11 4.7-15.2 3.9-4 8.9-6.7 14-8 9.2-2.2 17.2-9.6 16.9-19.5l1.7-.2Z"/><path fill="#347349" d="M97.6 73.9c4.3-4.4 3.7-9 3.7-9a17.6 17.6 0 0 0 2.8-8.1l2-.5c.7 7.1-3 13.4-8.5 17.6Z"/><path fill="#4BA669" d="M93.7 71.8c-1 3.2-5 5.7-12.6 7.7S68.6 91.8 68.6 91.8a19.8 19.8 0 0 1 4.7-9.5 29.9 29.9 0 0 1 14-8 25.2 25.2 0 0 0 6.4-2.5Z"/><path fill="#3C8454" d="M103.3 52.3h-1a4.3 4.3 0 0 0-4.3 4.3v.7a4.3 4.3 0 0 0 4.3 4.3h1a4.3 4.3 0 0 0 4.3-4.3v-.8a4.3 4.3 0 0 0-4.3-4.3Z"/><path fill="#4BA669" d="M107.6 56.3v1.3a4.1 4.1 0 0 1-1 2.6H105a3.7 3.7 0 0 1-3.8-3.7v-1c0-1.4.8-2.6 1.9-3.2h.6a4 4 0 0 1 4 4Z"/><path fill="#6D6D68" d="M89 32.6c.9 0 2-.2 2.3-.9.4-1-1-2.7-2-3.2-1.3-.8-4.2-.9-4.7.9-.6 2 2.7 3.2 4.5 3.2Z"/><path fill="#383834" d="M89.9 26.6s-6.5 1.2-3.9-2.3c2-2.5 5-3.4 8.4-3.2 3 .2 4.1 1.6 3.4 3.6-1.8 2.4-8 1.9-8 1.9Z"/><path fill="#6D6D68" d="M93.3 27.3c2.2 0 4.8-.8 4.5-3 0 0-8.2-1.2-8.8.2 0 2.2 1 2.5 4.3 2.8Z"/><path fill="#232321" d="M97.8 24.3c.2 1.5-.5 2-1.2 2.3-.8.6-2 1-2.8.3-.9-.6-.8-2.1 0-3 .2 0 3.3 0 4 .4Z"/><path fill="#F2F5F9" d="M93.7 25.8a.6.6 0 0 0 .4-.9c-.3-.5-2-.5-1.4.5.2.4.6.6 1 .4Z"/><path fill="#5A5B56" d="M38.9 132a10 10 0 0 1-.6 4.4c-.4.8-1.1.6-1.4 0-4.8-8-5-13.6-5.5-21.4 3.5-6 13.7-7.4 20.8-7a54.6 54.6 0 0 1-6.8 17.5c-.3.5-.6 1.1-.5 1.7.1.3 1.6 3 2.2 4.9.5 1.8-.4 1.2-1 1.1a5.8 5.8 0 0 1-3.7-2.6c.3 2.3.2 4.3-.4 6a.6.6 0 0 1-1 .2 8.7 8.7 0 0 1-2.2-4.8Z"/><path fill="#50514A" d="M45.5 125.5c-.3.5-.7 1.1-.5 1.7 0 .3 1.5 3 2.1 4.8.2.7-.4 1.3-1 1.2a5.8 5.8 0 0 1-3.7-2.6c.3 2.3.2 4.3-.4 6a.6.6 0 0 1-.9.2c-.3-.3-.8-.9-1.2-1.7.6-1.9 1.2-4.1.5-4.4-1.1-.5-5.6-4.3 1-6.1 4.2-1.2 7.2-9.4 7.2-11.3.2-6-8 3.4-9.1 4 .8-.5.7-3.1-.6-2.7-4.2 1.2-7 7.3-7 7.3-.3-2.1-.4-4.4-.6-6.8 3.5-6 13.4-7.4 20.5-7h.4a54.5 54.5 0 0 1-6.7 17.4Zm3.1-12.3Zm-7.1-1Z"/><path fill="#484944" d="m106.7 18.2 5.7.8c3.2.5 24 5.4 26.8 19.8 0 0 .2 1.4-2-.6 0 0-6.8-2.1-10.8-1.5-4 .6-24.8 2.2-24.8 2.2s-8.3-3.8 5-20.7Z"/><path fill="#34352F" d="m101.6 39 17-1.5a6 6 0 0 1-2.7-5.6c-4.1-1.3-8.3-4.9-5.2-13.1l-4-.6C93.2 35.1 101.5 39 101.5 39Z" opacity=".5"/><path fill="#6D6D68" d="M120.5 27.4c6.2 2.4 9.1.8 10.8-.5a47 47 0 0 0-19-7.8l-.7-.2c-.2 2.1.6 6 8.8 8.6Z" opacity=".5"/><path fill="#2D2D2A" d="M101.5 31.2c-.2-1.4 0-6.2 3.2-1 2.7 2 10.8 1.5 15 2.2 4.2.8 15.6 3 17.4 5.8l-2.4-.6s-2.6-1.6-6.3-2.3c-3.9-.8-6-1.7-13.3-2.2-3.2-.3-6.7.3-11.2-1.2 0 0-2.3.8-2.5-.7Z"/><path fill="#9EA58E" d="M352.1 272.1c12.4 4.7 26 5.5 29 .2s-5.7-14.8-18-19.5c-12.5-4.7-22.9-6.8-26-1.5-4.3 7.2 2.6 16.1 15 20.8Z"/><path fill="#474C2F" d="M352.6 271.8c11 4.1 23.7 6.1 26.7.8s-4.7-16-15.8-20.2c-11.1-4.2-22.3-5.1-25.3.2-3 5.4 3.3 15 14.4 19.2Z"/><path fill="#E8D4BA" d="M381.3 250.1c-3 8.5-4.6 9.7-12.6 22.5-6.6 10.7-50-10.5-44.2-49.1 5.8-38.7 55.7-9 60.1 5.5 1.6 5.3-1.7 16.1-3.4 21.1Z"/><path fill="#E8D4BA" d="m338.6 259.8 1.2 53.4s18.3 4.5 23.9 2.3c19.3-7.8 11.7-56.9 11.7-56.9l-36.7 1.2Z"/><path fill="#DEC8AE" d="M375.8 261.6s-5.8 8.7-20.2 8.3l.7 9.7 20.3-8.1-.8-10Z"/><path fill="#E8D4BA" d="M340 264.7c4.3 1 9-.4 12.6-5.2 5.7-7.6-3.1-40.5-12.5-45.9-5.6-3.2-11.8 5.1-15.9 12.3a45 45 0 0 0 15.7 38.8Z"/><path fill="#CEB79B" d="M329 218.3s28.8 24.2 23.6 41.2c0 0 11.3-21.8-5.6-35.7-16.8-13.9-18-5.5-18-5.5Z"/><path fill="#E8D4BA" d="M333.3 222c-3-7.6-7.1-12-16.8-18a10.7 10.7 0 0 0-8.4-1c-1.2.5-4 1.2-3.2 2.8 5.5 4.9 11.6 9.7 14 15.7 0 0 6.3 23 8.5 26.1l5.9-25.6Z"/><path fill="#DEC8AE" d="M329.9 215.5c6.2 13.7 2 30.2-2.4 32.1-2.2-2.8-7.2-21-7.2-21s5.5-.2 1.5-12.2c-4-12.1-16.6-9.9-16.6-9.9 4-3.3 10-2.1 13.9 1 4 2.8 8 5.9 10.8 10Z"/><path fill="#CEB79B" d="M306.2 205.9c-1.1-.5 6.3-.8 7.6 2.6 1.4 3.3-2 3.2-1.8 2.6.3-.6 1.6-.8 1-2-.4-1.2-4.4-2.2-6.7-3.2Zm75.9 41.7-13.2-4.4s-6.9 17.1-4.8 29.5l-12-.6 16.8-35.9 13.7 9.7-.5 1.7Z"/><path fill="#9EA58E" d="M297.1 302.5s-22 33.5 31.6 66.3c0 0 31-19.4 42-52.8 9.5-28.9 11-45.4 11-45.4s-12 4.6-35-6.8c-13.8-6.8-9-13.7-9-13.7l-40.6 52.4Z"/><path fill="#B1B7A5" d="M345.5 265.7c-13-6.8-8.3-14.9-7.8-15.6l-18.8 24.3c9.2 15.7 26.6-8.7 26.6-8.7Z"/><path fill="#949984" d="M328.7 368.8s31-19.4 42-52.8c9.5-28.9 10.6-43.3 10.6-43.3s-6.5 2.5-19-.8c0 0-24.6 41.7-50.2 35.4-6-1.4-10.3-3.8-13.6-6.6l-1.4 1.8s-22 33.5 31.6 66.3Z"/><path fill="#474C2F" d="M328.7 368.8s25.5-16 38.5-44c0 0-45.9 32.5-70.6 12 4.7 10 14.1 21 32.1 32Z" opacity=".1"/><path fill="#474C2F" d="m326 367.2 2.7 1.6s31-19.4 42-52.8a205.6 205.6 0 0 0 10.5-43.3l-2.3.5c-.1.7-3.8 23.4-11.1 43.4a103 103 0 0 1-28.7 40.7 72 72 0 0 1-13 9.9Z" opacity=".1"/><path fill="#5A9665" d="m274.4 237.3-1.6-3.2a39 39 0 0 0 21-34.5l3.7-.1c0 .3.3 26.3-23.1 37.8Z"/><path fill="#4D8056" d="M295.3 212.4c0-3-2.3-4.8-2.3-4.8 1-4.5.9-7.7.9-8l3.5-.1c0 .1.1 5.7-2.1 12.9Z"/><path fill="#C2963E" d="m440 269.6-2.2 4.4-163.6-83.1-5.4-4.4c-1-.7-.2-2.2 1-1.8l6.6 1.9 163.6 83Z"/><path fill="#9E7A32" d="m432.9 269-.7 2.1-158-80.2-5.4-4.4 164 82.5Z"/><path fill="#9E7A32" d="M437.6 278.5a7.4 7.4 0 1 0 0-14.8 7.4 7.4 0 0 0 0 14.8Z"/><path fill="#C2963E" d="M444.6 268.5a7.4 7.4 0 0 1-6.2 4.8 7.4 7.4 0 0 1-7.7-4.8 7.4 7.4 0 0 1 13.9 0Z"/><path fill="#D9AB50" d="M437 270.3a3 3 0 1 0 0-6 3 3 0 0 0 0 6Z"/><path fill="#C2963E" d="m144.3 364.6-4.5-3 110-168.5 5.4-5.5c.9-.9 2.4.1 1.9 1.3l-2.9 7-109.9 168.7Z"/><path fill="#9E7A32" d="m257.2 188.3-.1.6-2.9 7-106.5 163.4-.4-4.3 109.9-166.7Z"/><path fill="#9E7A32" d="M143 370a8.1 8.1 0 1 0 0-16.2 8.1 8.1 0 0 0 0 16.2Z"/><path fill="#C2963E" d="M149.3 360.4a8.4 8.4 0 0 1-11.2 8 8.1 8.1 0 0 1 9.2-13.4 8.4 8.4 0 0 1 2 5.4Z"/><path fill="#D9AB50" d="M141.4 364.3a4.5 4.5 0 1 0 0-9 4.5 4.5 0 0 0 0 9Z"/><path fill="#68B471" d="m293.5 230.5-3-2c6-8.7 12.9-30.5 10.4-32.3-1.2 0-2.1 1.2-2.3 1.7l-3.2-1.7c.7-1.3 2.7-3.6 5.4-3.6 1.4 0 2.6.7 3.3 2 1.5 2.8.7 8.8-2.4 17.8-2.4 7-5.8 14.5-8.2 18.1Z"/><path fill="#4D8056" d="M301.2 200.6c.3-2.4.3-4-.3-4.4-1.2 0-2 1.2-2.3 1.7l-2.7-1.4c.9-1.1 2.9-3.4 5-2.4 2.5 1.4.3 6.5.3 6.5Z"/><path fill="#DAE0CA" d="M379.2 367.4a3.6 3.6 0 0 1-4.8 3.4c-9-3.3-30.1-6-53.4 25.3-18.9 25.5-83.5 56.8-117.2 20a65.9 65.9 0 0 0-16.7-13.7 32.7 32.7 0 0 0-34 .2 3.5 3.5 0 0 1-5.2-4l19.6-69.6s-6.6-1.7-6.2-5c.1-.7 3.5-6.2 8.7-14.4 18.5-29.1 59.5-91 60.6-91.3 1.3-.4 4.1 1.2 4.1 1.2s52.5 37.1 70.2-13.7c0 0 1.8-6.2 3.4-6.3 1.8 0 62.5 32.5 64.7 33.7 2.1 1.1-14.9 13.1-10.8 48.3 1.8 15.1 17.2 56.9 17 86Z"/><path fill="#C2C1B3" d="M365.6 247.6s.6-9-4-12.3l4-6c4.2 2.1 7 3.6 7.4 3.9 1.2.6-3.7 4.7-7.4 14.4Z"/><path fill="#CBD1BD" d="M294.2 418.4c-27.7 15.8-66.7 23.6-90.4-2.3a92.9 92.9 0 0 0-1.8-2l4.4-16.5 82.9 7.6 4.9 13.2Z"/><path fill="#F5F5F5" d="M187.1 402.4a32.6 32.6 0 0 0-34 .2 3.5 3.5 0 0 1-5.2-4l19.6-69.6s-6.6-1.7-6.2-5c.1-.7 3.5-6.2 8.7-14.4 11.7-3.8 23.5-3.2 33.4 5.8 20.7 19 2 58.3-16.3 87Z" opacity=".4"/><path fill="#CBD1BD" d="M379.2 367.4a3.6 3.6 0 0 1-4.8 3.4c-7.4-2.7-23.2-5-41.6 12a87.4 87.4 0 0 1-14.7-3.4c-74-23.6-76.6-122.7-33-134 43.5-11.3 67.5 14.1 67.5 14.1l9 8.1a86.8 86.8 0 0 0 .6 14c1.8 15 17.2 56.8 17 85.8Z"/><path fill="#68B471" d="M367.9 353.6a5 5 0 0 1-5.6 5c-9.3-1.1-29.5.4-49.1 27-16.4 22-72.5 49.2-101.7 17.2-17.6-19.3-31.8-20.3-40.3-18.2a5 5 0 0 1-6-6l13.5-55.9s-8.8-3.3-13-6.2c15-24.3 63.7-97.8 64.9-98.2 1.3-.4 4.1 1.2 4.1 1.2s52.5 37.1 70.2-13.7c0 0 1.8-6.2 3.4-6.3 1.4 0 40.6 20.8 57.3 29.7-3.7 6.4-17.8 26.4-11.5 57.4 2.6 12.7 13.7 42.7 13.8 67Z"/><path fill="#65A871" d="M289.3 405.2c-24 13.4-57.4 20-77.8-2.4a95 95 0 0 0-5-5.2c5.3-15.1 8.6-50 31.3-59 22.5-9 42.9 41.5 51.5 66.6Zm78.6-51.6a5 5 0 0 1-5.6 5c-8.5-1-26.2.2-44.2 20.8-74-23.6-76.6-122.7-33-134 43.5-11.3 67.5 14.1 67.5 14.1l.7.7a73.9 73.9 0 0 0 .8 26.4c2.6 12.7 13.7 42.7 13.8 67Z"/><path fill="#AED588" d="M195.2 389a31.2 31.2 0 0 0-24-4.4 5 5 0 0 1-6-6l13.5-55.9s-8.8-3.3-13-6.2l2.4-4 1.4-2 .5-.9c11.7-3.8 23.5-3.2 33.4 5.8 17.6 16.1 6.7 47.1-8.2 73.7Z" opacity=".3"/><path fill="#5A9665" d="M177 298.5s23.7-2.1 32.2-22.6c0 0 21 .2 21.6-8.3 0 0 5.7 0 5.7-6.7s-.4-5.1-.4-5.1 4 0 4.6-3.3c.5-3.4-4.5-6.8-3.8-11.2l1.3-7.7s11 1.8 11-6.2c0 0-11.7-4.9-14-6.5-2.3-1.6-18.2 13-18.2 13l-40 64.6Zm135.5-97s-5.5 14.2 1.8 15c7.4.7 13.2-5 13.2-5s-8.3 12-5.6 18.5c2.7 6.5 11.4 0 11.4 0s1 6.5 5.4 6.2c4.3-.2 11.3-8 11.3-8s-.1 5.3 4.4 5.4c4.4 0 9.7-5.2 9.7-5.2l-51.6-27Z"/><path fill="#fff" d="M329.1 259.3s-23 38.1-33.5 60.1c-3.7 8-9.6 19.1-9.6 19.1s-13-13.2-27.5-25.3c-11-9.2-22.8-17.9-30-19.4 0 0 8.5-8 20.3-4.5 2.3.7 5 2 7.7 3.7 11.6 7.3 25 21.3 25 21.3s20-39 29.3-49.3c4.9-5.5 14.2-8.7 18.3-5.7Z"/><path fill="#E8E8E8" d="M329.1 259.3s-23 38.1-33.5 60.1c-3.7 8-9.6 19.1-9.6 19.1s-13-13.2-27.5-25.3a88.4 88.4 0 0 1-2-20.1c11.6 7.2 25 21.2 25 21.2s20-39 29.3-49.3c4.9-5.5 14.2-8.6 18.3-5.7Z"/><path fill="#676D54" d="M168 262.8c2.1 12.2.4 41.2-5.6 42.1 0 0-24.8-32.3-4.2-48 3.3-2.5 9 .6 9.8 5.8Z"/><path fill="#474C2F" d="M167 263.1c2.2 12.3-.4 40.8-4.7 41.4l-.5-.4s-22.7-30.8-2-46.4c3.2-2.6 6.4 1.8 7.1 5.5Z"/><path fill="#E8D4BA" d="m180 228.8 32.7-8.7s14.4 9 15.7 9c3.1-.6 21.2 3.6 17-6.7-10.7-.1-18.8-7.6-26.2-13.8 0-3.5-5.2-5.9-8-3.3-2 .3-15.4 9.7-20.3 12.8-2.8 2-6.7 1.9-9 4.2-1.6 1.3-2 6.5-1.9 6.5Z"/><path fill="#CEB79B" d="M192.3 225.6s34.8 3.5 36.1 3.4c1.4 0 10.9.9 15-.2 4-1.1 2-6.4 2-6.4s-4 4.7-7.4 2.1a8.9 8.9 0 0 1-3.3-5l-2.5-1.3c-.2 0-6 5.3-12.6-4.2-1.2-1.6-.7-3.7-.4-5.4 0-3.3-4.6-5.9-8-3.3-.8.1-3.3 1.6-6.4 3.6 0 .2-6 9.7-12.5 16.7Z" opacity=".4"/><path fill="#CEB79B" d="M189.1 223.9s18.1-5.4 20.6-7.6c2.6-2.2 8 .8 8 .8l-28.6 6.8Zm55 1.2s-7.1 2.4-6.7-3c0 0-1.6 7.3 6.8 3Z"/><path fill="#EDDAC5" d="M181 223.6c1.2.8 3.6.5 6-.7 2.5-1.4 4.1-3.4 4-4.8l-1.5.8c-2.5 1.2-5.8 1.5-7.6 3.4-.4.4-.6.8-.9 1.3Z"/><path fill="#E8D4BA" d="m139 301.3 12.2-3.9c6.5-2 14.4-4.3 20.2-5.6l.8-.1-2.4-22.6-1.3-12.7-6.5.8-3.3.4a200 200 0 0 1-20 1.3s-12 30.9.3 42.4Z"/><path fill="#E8D4BA" d="M171.4 291.8c13.7-2.3 16.6-4.9 24.2-14.7 3.4-3.9 6.7-7.2 10-11 2.5-3.1 6-7.2 3.7-11.3-2.8-5.9-20-34.3-25.7-31-2 .5-3 1.5-4.2 4.4-5 9-13 26.6-22.9 34.4 0 0 1.5 31.5 14.9 29.3Zm47.8-63.7s4.7 3.6-4.8 7.8c-9.5 4.3-15.8-1-13.6-3s18.4-4.8 18.4-4.8Z"/><path fill="#CEB79B" d="M219.2 228.1s4.7 3.6-4.8 7.8c-9.5 4.3-15.8-1-13.6-3s18.4-4.8 18.4-4.8Z" opacity=".4"/><path fill="#AD9A82" d="M222.2 228.9s4.7 3.6-4.8 7.8c-9.5 4.3-18.8-1.8-16.6-3.8 2.3-2 21.4-4 21.4-4Z"/><path fill="#E8D4BA" d="M191.4 233c2.6 1.2 6.3 3 9.1 2a126 126 0 0 1 20.2-4c.7 0 9.2 8.3 9.2 8.3.6 2.6 2 8.5 3.5 10.2 2 2 4.6 1.2 4.5.4 0-1 .3-5.1.6-6.1.7-2.5 2.4-6.5 2.1-8.8-2.4-2.5-12-15.7-12-15.7-1.2-5.2-5.1-4.6-7.3-4.4-8 1.4-32.9 7.9-35.7 8.6-3.1 3.3 1 7.1 5.8 9.5Z"/><path fill="#CEB79B" d="M191.4 233c2.8 1.2 6.4 3.2 9.4 1.8 4.3-1.6 19.1-3.7 19.9-3.7.8 0 9.3 8.2 9.3 8.2 0 .3 1.6 9.4 4.2 10.9-1.2-9.6 5.4-9.8 5.4-9.8 1.4-4.8 1.9-4.7-1.3-8.3-12.3 3.6-14-12.7-9.7-12.8-1.2-6.3-5.2-5.4-13.3-3.1-1.3 1.6-14 17.1-24 16.9Z" opacity=".4"/><path fill="#CEB79B" d="m196.8 233.6 3.7 1.3.3-.1c4.3-1.6 19.1-3.8 19.9-3.8.8 0 9.3 8.3 9.3 8.3l.3 1.5c1.8-2.3 4.6-4.8 4.6-4.8-9.2 1.3-14-14.6-14-14.6a52.8 52.8 0 0 1-24 12.2Z" opacity=".4"/><path fill="#E8D4BA" d="M196.2 248.8c.7 3.2 26.7 1.9 26.7 1.9s1.5 12.4 3.2 12.5c1.7.1 7.3-3.1 7.4-4.1.1-1-1-16.8-1.1-18.6-.1-1.8-2-3.6-3-4.3-1.8-.7-27.5-1.6-27-1.6-18.1-1.5-9.5 8.2-6.2 14.2Z"/><path fill="#CEB79B" d="M223 250.7c.2 0 .7 10.6 3 12.5.9 0 2.6-.7 4.2-1.5 2.4-1.5 3.5-1.8 3.3-3.7-4.2-1.5-5.2-13-1-14.5 0-3.7-.5-5.5-3-7.3l-4.4-.5c-2.5 5-16.4 10.5-24.7 11 6.3 4.2 22.5 4 22.5 4Z" opacity=".4"/><path fill="#CEB79B" d="M207.5 247s12 2.1 18.4-3.6c0 0-2.7 7.5.8 12.8l-19.2-9.2Z"/><path fill="#CEB79B" d="M223.8 247.9s-22.8.8-24.7-1.4c-2.7-3.1 1.9-.7 3.2-.2 1.2.5 16.9 1.8 21.5 1.6Zm1.6 14.6c.6 1.6 3 0 4.8-.8l-1.3-9.7-3.5 10.5Z"/><path fill="#E8D4BA" d="M202 247.4c2.8 1.4 17 .2 22.5.5 1.4 0 2.7.7 3.5 1.8a5 5 0 0 1 1 3c0 2.8.4 10-1.4 11.3a47.6 47.6 0 0 1-17 4.5c-1.7-.9-2.6-6-.2-6.4l-6.3.3-2.1-15Z"/><path fill="#CEB79B" d="M210 267.9v.1c2.2-7.4 14.3-6.3 14.3-6.3-3.3-1.2-1.2-5.8-1.1-6-4 5-13.4 2.7-13.4 2.7s-.3 1.1-2.3 2.6c-.7.6-.5 1.6-.1 2.7l1-1.5 2-.1c-2.1.3-1.7 4.1-.5 5.8Z" opacity=".4"/><path fill="#CEB79B" d="M139 301.3c5.8-2 26.4-8.5 34.2-9.8 9.9-2.2 12.4-2.8 17.8-8.8 2.5-3 6.2-7.5 9.2-10.5 3-3.2 5.9-6.4 8.3-10h2c-2.2.2-1.8 4-.5 5.7 1.6 2.5 15.6-2.7 17.6-3.9 2.1-2.6 1.3-8.6 1.3-11.3a4.9 4.9 0 0 0-1-3c-.7-1-2-1.8-4.1-1.8-3.6 0-12.9 11.2-19.7 0l-4.6-1c4.4 17.4-7.5 26.9-14.1 27.8-5.6.5-10.2-2-15.6-5.5-3.8-2.6-6.7-8-9.2-11.8-6.8.7-15.3 1.5-21.8 1.5 0 0-12 30.9.2 42.4Z" opacity=".4"/><path fill="#CEB79B" d="M210.4 262.1s5.4-1.6 6.7-.7c1.4.9 1 2.7 2.1 2.7 1.3 0 1.5-.8.3-2.1-1.3-1.4-.1-1.4 2.3-2 2.5-.7-.4-1.8-2-.7s-10.7 2.9-10.7 2.9h1.3v-.1Zm-8-27.5s-11 0-10.8-1.1c.3-1.2 2-2.2 4.1-1.4 2.1.8 2.3 2.8 6.7 2.5Zm35.8 8.4s-6-.5-3.7 6.2c0 0-.8-5.1 3.7-6.2Z"/><path fill="#CEB79B" d="M139 301.3c5.2-1.8 25.8-8.3 33.2-9.6 9.3-2.3 12.5-2 17.8-8-15.9-4.8-25.5-15.5-14.8-47.4-3.6 6.5-8.8 15.2-13.2 21a224 224 0 0 1-23.3 1.6s-12 30.9.3 42.4Z" opacity=".4"/><path fill="#CEB79B" d="M151.2 297.4c6.6-2 14.4-4.3 20.2-5.6l.8-.1a47.9 47.9 0 0 1-13-31.2l.3-3c-30.1 0-9 33-8.3 39.9Zm53.3-30a50.2 50.2 0 0 0 4-5.2s2-3.8 1.3-3.8c-3.8.1-5 6.4-5.3 9ZM186.3 287c1.6-1.1 3-2.5 4.7-4.4-2.8-3.4-7.5-10-8.8-14.8a42.6 42.6 0 0 0 4.1 19.2Z"/><path fill="#EDDAC5" d="M238.1 246.8a19.6 19.6 0 0 1 .5-3.1h-.2c-1.7.1-3 1-3 1.8.1.8 1.3 1.3 2.7 1.3Zm-52.4-23.3c.8 2.1 7.4 4.7 15.5 1.3 5-2.1 6.6-4.9 7-7-10 2.4-21.1 5.3-22.5 5.7Zm19.3 16.3c6.9 1.7 13.6-4.5 13.6-4.5-11.5-.5-14.8-.7-20-.8.1 1 1 4 6.4 5.3Z"/><path fill="#676D54" d="M161 256c-12 11.7-3.3 35 2.2 48.5-3 1.2-6.3 1.6-9.3 2.3-4.3-14.5-10.9-32-15.2-46.4 7-.4 15-4.7 22.4-4.4Z"/><path fill="#9EA58E" d="M158.7 255.7c-11.5 14.4-2.7 34.7 3.6 49.1-36.3 10-62.8 40.1-98.8 50v.1c-15.2 4.3-39.3-2.9-57.6-19.8-1.3-1.2.1-5 3.3-10.2 15.5-22.3 33.4-48 59.2-59.6 30.3-9.3 58.7-2.7 90.3-9.6Z"/><path fill="#B1B7A5" d="m158.7 255.7-.2.3a15.8 15.8 0 0 0-3.6 6 40 40 0 0 0 .2 23c-25.2 2.5-46.6-10.1-49.9-25 16.5.1 35.3-1 53.5-4.3Z"/><g opacity=".4"><path fill="#474C2F" d="M158.6 255.7c-1.6 1.9-4 7-4.1 7.3 0 0-7-2.7-10.3-1.2-4.8 4-16.6 8.5-23.3 4-4.4-3-19.3 4.2-24 2-2.8-.5-8.5 2.6-10.9 3.7-5 2.3-7 1.4-11.8-1-4.5-2-4 3.6-16.3 6.2-1.7.3-6.8-.4-8.4.4 31.1-26.9 71.4-12.2 109.1-21.4Z" opacity=".1"/></g><path fill="#949984" d="M147.5 310.4c-29.5 12-52.8 36.3-84 44.5-15.2 4.3-39.4-2.9-57.6-19.8-4.1-7.7 37.6-55.2 46.6-60.4 9.2 18.3 50.4 51.8 95 35.7Z"/><path fill="#474C2F" d="M63.5 354.8c-3.5.7-7 1.5-10.6 1.2-27-2.7-40.7-15.9-41.7-16.7 1.4-.1 15 8.9 20.7 10.3 36.5 9 86.5-25.4 102.9-35.8a121.8 121.8 0 0 1 18.3-9.5c2.1-.9 7.2-2.7 7.7-2.8l1.5 3.3c-.3 0-20 5.2-63.4 33.6-10.7 7-22.7 13.8-35.4 16.5Z" opacity=".1"/><path fill="#474C2F" d="M90.6 343.3c-8.2 5-17.4 9.7-27.1 11.6-15.2 4.2-39.4-2.9-57.6-19.8-2.4-4.1 7.4-16.2 10.8-21.2 0 0 13.9 34 73.9 29.4Z" opacity=".1"/><g opacity=".1"><path fill="#474C2F" d="M142.3 268.2c-1.2-.8-1-2.6 0-3.8.6-.4 5.3 2.2 4 3.4-1.1 1.3-3 1-4 .4Z" opacity=".6"/></g><path fill="#676D54" d="M147.9 264.7c-.6 4.8-5.4 3.7-6 1.5-1-3 6.5-5.5 6-1.5Z"/><path fill="#474C2F" d="M147.9 264.7a4.2 4.2 0 0 1-1.1 2.5l.4-1.5c.4-3-3.6-2.4-5.3-.7.9-2.4 6.4-3.8 6-.3Z"/><path fill="#676D54" d="M122.3 269.3c.6 2-3.5 3.6-5 3.4a2 2 0 0 1-1.6-1c-2.4-3 5.1-7 6.6-2.4Z"/><path fill="#474C2F" d="M115.6 269.3c1.2-2 5.6-3.3 6.7 0 .2.8-.3 1.6-1 2.1.1-.3.2-.7 0-1-.8-2.8-4-2.4-5.7-1Z"/><g opacity=".6"><path fill="#474C2F" d="M115.5 269.5s7.4-.6 6.7 1.2c-.9 2.1-4 3.1-5.7 2.9-1.7-.3-1.7-2.7-1-4.1Z" opacity=".1"/></g><g opacity=".6"><path fill="#474C2F" d="M92.6 270.1c.1 0 7.4.2 6.2 2.8-2.4 4.1-11.5 2.7-6.2-2.8Z" opacity=".1"/></g><path fill="#676D54" d="M91.6 271.3c1.6-3 5.6-2.9 7.1-1.2.7.8.4 2-.3 2.6-1.8 1.7-5.3 2-6.5.5a1.9 1.9 0 0 1-.3-2Z"/><path fill="#474C2F" d="M98.7 270.2c.7.8.4 1.9-.3 2.5l-.3.2c.3-.5.2-1.2-.2-1.7-1.3-1.5-4.4-1.7-6.2 0 1.5-2.8 5.5-2.8 7-1Z"/><g opacity=".1"><path fill="#474C2F" d="M69.6 273.7c1.7-.4 6.5-.6 6.5.2.9 5.7-10 4.8-6.5-.2Z" opacity=".6"/></g><path fill="#676D54" d="M70 273c1.6-1.4 4.3-2.6 5.8-.5 2.6 5-9.3 6.5-5.8.5Z"/><path fill="#474C2F" d="M70 273c2.4-2.9 8-1.6 5.5 2.4.7-3.8-4.3-3.6-6-1.2 0-.4.2-.8.5-1.2Z"/><g opacity=".6"><path fill="#474C2F" d="M53 281c-.6 6.2-9.4 6.5-8.2 1 .4-1.8 8.3-2.3 8.2-1Z" opacity=".1"/></g><path fill="#676D54" d="M45.5 280.8c2.4-2.6 5.4-2.7 6.9-1.8 2 1.3-.2 6.7-5.8 5-1.6-.4-2.6-1.6-1-3.2Z"/><path fill="#474C2F" d="M45.5 280.8c3.2-3.7 9.6-3 7 1.6.8-4.1-5-3.6-7.7-.2 0-.4.3-.9.7-1.4Z"/><path fill="#E8D4BA" d="M327.3 185c3.2-3.7 8.4.3 9 .4 3.6 2 11.6 2.5 13.7 5.3-1.5 2.4-10 5-12.5 6-3.1-.2-4.6.8-6.7 2.5-3.5 3-12.2 15.1-15.9 9.3-2.8-4.4 5.7-14.4 10-19.4a22.3 22.3 0 0 0 2.4-4Z"/><path fill="#DEC8AE" d="M335.3 203c-3.2-.2-6.2-2-6.2-2-3.5 2.9-10.5 13.3-14.2 7.5 10-1 17.3-14.1 17.3-14.1 8-1.2 5.7-8.3 5.7-8.3 4.2 1.2 10.4 2.4 12 4.7a74.7 74.7 0 0 1-14.6 12.2Z"/><path fill="#CEB79B" d="M349 191s-12.2-2.4-20.2 10.2l5.1 2.3 15.2-12.6Z"/><path fill="#E8D4BA" d="M330.2 202.6c-.2-3.7 2-4.8 3.3-5.9a45 45 0 0 1 19.1-6.4c2-.4 8.8 7.6 7.2 8a98 98 0 0 0-13.2 7.5c-6.7 5.2-9 14.7-16 19.5-2.1 1.5-5 2.4-7.3 1.3-6-3.8 6-21.2 7-24Z"/><path fill="#DEC8AE" d="M330.6 225.4c-2.1 1.4-5 2.4-7.3 1.2a3.1 3.1 0 0 1-.6-.5c11.1-2.9 15-23.1 15-23.1s7.5-2.9 8.2-6.7c1-5.5-7.9-1.9-8-1.9 3.7-1.8 8.7-3 14.7-4.1 2-.4 8.8 7.6 7.2 8.1-2.2.7-11.9 6.3-13.2 7.4-6.8 5.2-9 14.7-16 19.6Z"/><path fill="#CEB79B" d="m330.6 225.3-1.2.8c1-1.3 1.8-2.6 2.6-4 .9-1.4 1.9-2.8 2.7-4.3a41.5 41.5 0 0 0 2.7-5.5c.8-1.9 1.4-3.2 2-5.1.2-.8 10.7-8.3 12.4-8.6 0 0-14.2 21.9-21.2 26.7Z"/><path fill="#E8D4BA" d="M356 214.4c-4.5 2.5-7.7 7-10.7 10.9-9.3 12-15.9 5.2-15.2 3.2 2.3-4.4 8-13.4 12.3-19.8 1.8-2.6 4.4-5.2 4.9-6.2 2.4-5.7 4.7-5.4 7.9-5.5a45.7 45.7 0 0 1 14.5 3.3c2.6 1 5 2.8 5.8 5.1.9 2.5.4 5.5 1.2 6.4.8.9-17.1.9-20.7 2.6Z"/><path fill="#DEC8AE" d="M356.2 214.3c-.4-.7 0-1.6 1.2-2.7 9-7.5 0-14.3-.2-14.5a67.8 67.8 0 0 1 12.5 3.2c2.6 1 5 2.8 5.8 5 .9 2.6.4 5.6 1.2 6.5.8.9-16.5.9-20.5 2.5Z"/><path fill="#CEB79B" d="M373.7 208.6c.8.3 4.6 4-.8 4.3-3.5.4-24.1 10.5-25.3 12.2l.7-2.3a26 26 0 0 1 5.8-10.2 15.7 15.7 0 0 1 11.5-4.6c2.6 0 5.7-.4 8.1.6Z"/><path fill="#E8D4BA" d="M364.4 209c3.6-.7 9.4 2 12.3 2.8 4.7 2.5 5.9 7 6.6 9.5-5.3-.2-13.2.7-16.3 1-2.8.3-7.6 3.2-10.2 4.5-2.7 1.3-10.2 4.9-10.3-2.7 0-3.3 8-6.6 11.8-11.2 3.5-4 6.1-4 6.1-4Z"/><path fill="#DEC8AE" d="M383.3 221.3c-5.3-.2-13.2.7-16.3 1-2.8.3-7.6 3.2-10.2 4.5-2.7 1.3-10.2 4.9-10.3-2.7 0 0 11.2 1.6 17.8-2.4 6.5-4 4-8.2 1.5-10.2-2.3-1.8-6-.1-6.8.6 3-3.2 5.4-3.1 5.4-3.1 3.6-.7 9.4 2 12.3 2.8 4.7 2.4 5.9 7 6.6 9.5Z"/><path fill="#DEC8AE" d="M383.3 221.3s1.2 6 1.5 8.5l-15.9-7.7c.7-3.5 14.4-.8 14.4-.8Z"/><path fill="#CEB79B" d="M337.2 219.7s5.9 5-2.8 9.8c0 0 4.7-5.1 2.8-9.8Zm-8.4-4.8s5.8 5-2.6 9.7c0 0 5.2-3.8 2.6-9.7Zm-7.3-15.4s3.5 6.4-5.3 7.7c0 0 5.8-1.6 5.4-7.7Zm35 20s.4 7.2-7.8 4.9c0 0 5.7.8 7.8-4.9Z"/><path fill="#EDDCC8" d="M325.6 219.7c-.8-.6-1-1.8-.3-2.8.6-1 1.8-1.4 2.6-.9.8.5 1 1.8.3 2.8-.6 1-1.8 1.4-2.6.9Zm-7.8-16.4c-.8-.6-1-1.8-.3-2.8.6-1 1.8-1.4 2.6-.9.8.5 1 1.8.3 2.8-.6 1-1.8 1.4-2.6.9Zm16.7 21.2c-.6-.3-.6-1.5 0-2.5.7-1 1.7-1.5 2.3-1.1.6.3.5 1.5-.1 2.5s-1.6 1.5-2.2 1.1Zm16.9-2c-.6-.4-.6-1.6 0-2.6.7-1 1.7-1.5 2.3-1.1.6.3.6 1.5-.1 2.5-.6 1-1.6 1.5-2.2 1.1Z"/><path fill="#CEB79B" d="M368.9 222.1s-6.3-.2-10 3.6l13.2 7s-10.9-6-3.2-6 7.2 6.9 9.7 6.8c2.4 0 5.9-2 2.1-5.7-3.7-3.7-11.8-5.7-11.8-5.7Z"/></svg>