<svg xmlns="http://www.w3.org/2000/svg" width="402" height="384" fill="none"><path fill="#9EA58E" d="M61 189.6 41.3 192l-5 5s6.3 26.1 17 20.6c10.8-5.4 7.5-27.9 7.5-27.9Z"/><path fill="#676D54" d="M61.7 189.2 42 191.5l-5 5s6.3 26 17 20.6c10.8-5.5 7.6-28 7.6-28Z"/><path fill="#9EA58E" d="m44.4 170.2-12 8.6s17.5 26 30.6 15.7c13.2-10.2-18.6-24.4-18.6-24.4Z"/><path fill="#676D54" d="m53 171-20 6.8S48.2 198 58 192.5C67.7 186.8 53 171 53 171Z"/><path fill="#9EA58E" d="M58.2 144.4c-.8.2-18.4 1.6-18.4 1.6s2 39 22.7 36.5c20.6-2.6-4.3-38-4.3-38Z"/><path fill="#676D54" d="M59.2 144.2c-.8.2-18.3 1.5-18.3 1.5s2 39 22.6 36.5c20.7-2.6-4.3-38-4.3-38Z"/><path fill="#9EA58E" d="m71 125-19.6 3.5s-2.8 8.6-2.8 18.7l17.8-1.6 3 32h-1C90.6 183.3 71 125 71 125Z"/><path fill="#676D54" d="m72.3 124.9-19.7 3.5s-12.3 37.2 14.2 48.2 5.5-51.7 5.5-51.7Z"/><path fill="#2B6B40" d="M330 360.4a476 476 0 0 1-291.2 0c14.6-99.7 28.9-203.7 33-233a25.1 25.1 0 0 1 13.4-7.8l203.9 4.3 7.5.1c50.6 66 26.5 159.5 33.5 236.4Z"/><path fill="#245B34" d="M296.8 370a479.8 479.8 0 0 1-258-9.5 27726 27726 0 0 0 33-233.1 25.1 25.1 0 0 1 13.4-7.8l203.7 4c17.2 19.4 23 47 24.9 73.4-23.5 42-27.3 106.9-17 173Z"/><path fill="#3B754B" d="m339.6 357-1.5.6a364 364 0 0 1-8 2.8l-1 .3.1-1.7 6.3-56.3 4.1 54.4Z"/><path fill="#3E8E5B" d="M338 357.6a405.2 405.2 0 0 1-27 8.7c-1.4-66.9-3.6-155.4-14.8-216l25.8-3.7c10 72.3 14.7 140.6 16 211Z"/><path fill="#3B754B" d="m338 357.6-6.5 2.3c-4-38.7-10.9-69.9-22.9-75-1.7-44.6-6-102.8-12.4-134.6l25.8-3.7c10 72.3 14.7 140.6 16 211Z" opacity=".7"/><path fill="#3B754B" d="M334.8 275.4a143.4 143.4 0 0 0-28.2-29.8c-2.3-37.4-5.6-71-10.4-95.3l25.8-3.7a1689.3 1689.3 0 0 1 12.8 128.8Z" opacity=".7"/><path fill="#3B754B" d="M90.5 374a427.4 427.4 0 0 1-51.7-13.6 26183.5 26183.5 0 0 0 29.1-205.6c18.9 3.8 35.4 7.2 36.1 7.5 1.5.6-5.1 106-13.5 211.8Z"/><path fill="#3E8E5B" d="M71.8 164.3c-.6 8.9-13.3 105.3-25.8 198.5a381.3 381.3 0 0 1-7.2-2.4 25537 25537 0 0 0 27-189.7c3.7-6.2 6.2-9.6 6-6.4Zm6 157.1c-2 10.2-4.2 27.7-6.4 48.4l-5.7-1.4 6.1-47s11.7-29 6 0Z"/><path fill="#151916" d="M270.4 208.8s43.2-4.3 56-27.3l-3.2-25.8-50.2 20.1-2.5 33ZM63.8 258.3s51.7.7 68.6-29.2c17-30-11.1-45-11.1-45l-69.2 64.4 11.7 9.8Zm-19.3 61.3s17 48.6 75.1 37.6l8.7-21.7-81.5-28.3-2.3 12.4Z" opacity=".3"/><path fill="#CEB79B" d="M208 80.7c-1-1.1-7.5-2.5-12.7-10.4-.6-1 0 1.5-1 1.6l-1 .2c1.5 18.4 12 7.2 14.6 8.6Z" opacity=".4"/><path fill="#CE8000" d="M242 84.3c-20-33 .3-72.2-39.9-82-26.8-6.6-54.5 8.4-51.2 37.3l-.6 11.8c.6 8.2.5 16.5 0 24.6-1.7 14.8-7.5 23-4.6 37.4 2.6-9.2 116.8 2.4 116.8 2.4-7.7-5.7-11.1-16.2-20.4-31.5Z"/><path fill="#C07500" d="M254.5 122.6a24.6 24.6 0 0 1-10.8-18.8c2.4-.1 7.4.8 9.8 2-1-14.3-28.5-21.6-18.6-37.7-.9-3.5-2.4-11.7-2.4-11.7l-71.5 7a116 116 0 0 1 1.1 20.7c-7 13-8 26.7-1.6 38.5h94Z"/><path fill="#A05A07" d="M229.3 109c-.4-10.8 4.7-14.1.5-31.1a45.3 45.3 0 0 1-1.6-19.9c-3-3-7.2-6-11.7-5.5-5.4 20-4.5 36.4-15.7 56.5h28.5Z" opacity=".6"/><path fill="#A05A07" d="m234.5 65.7-1.9 2.6s-5.3 9.2-9 8.3c-.7-.5-1.6-5.4-2-10.8-.5-7-.5-22 9.4-15 2 4.6 2 10 3.5 15Zm-84 6.9c-1 6.3-1 16.7 6.6 14 7.7-2.6-.9-15.3-.9-15.3l-5.7 1.3Z" opacity=".3"/><path fill="#BDBCA2" d="M399.8 108.4a31.2 31.2 0 0 1-.6 6.2c-.6 3.6-2.6 6.5-5.2 8.8-5.4 5-12.6 7.3-18.1 12a174 174 0 0 1-50.5 31.3c-31 13.5-57-27-88.2-40.2 12.2-12.8 51.2-19.7 54.8-19.8 8.2-.4 16.3-.4 24.3-.7a191 191 0 0 0 16-1.2c-23.7-46.7 69-42.1 67.5 3.6Z"/><path fill="#C2C2AC" d="M344.3 136.3c-10.1.7-9.8 14-41.7 9-31.9-4.9-31.2-36.3-31.2-36.3 17.3-3.6 39.3-2.3 54-3.5 5 12.2 18.5 10.7 29.8 16 11.4 5.4-.8 14.2-11 14.8Z"/><path fill="#C8CBB8" d="M313 131.3c-22.8-.7-21-24.7-21-24.7 13.8-.7 21-.4 29.6-.9 3.6 9.5 7.8 26.1-8.6 25.6Z"/><path fill="#CCD1C0" d="M299.6 106.3s-2 11.7 8.6 13.4C319 121.4 316 106 316 106l-16.3.3Z"/><path fill="#3E8E5B" d="M289 371.8a478 478 0 0 1-104.6 11.4c-23.5 0-46.4-1.7-68.4-4.8 1.4-7.6 4.3-15.8 6-23.3 1.7-7.5 8.9-11.4 13.2-18 2.2-3.6-2.2-9.8-.1-13.4a22.6 22.6 0 0 0 2.4-5.7l1-3 118.7-8.2.3 1.4a5 5 0 0 1-.2 2c4 19.3 27.3 35.8 29 53.8.2 2.4 1.5 5.2 2.7 7.8Z"/><path fill="#BBB99D" d="M334.7 162.7a58 58 0 0 1-20-9.6c-19.9-.3-43.7-9.8-45.7-29a1880.8 1880.8 0 0 0-29.2 38c3.8 11.5 24 27.2 29.4 36 4.9 7.7-5.4 63.5.4 70.6 32-122.7-10.1-72 65-106Z"/><path fill="#C6C7B3" d="M261 316.4c-4-10-.1-19.4 1.5-29.4.8-8 8.5-14.2 8.7-22.3-1.2-2.5 8-58.8 11-90.2-5.2-2.4-55.6-48.2-55.6-48.2-41.3 11.1-59.7-5.6-61.3-10-1.6-4.4 0 5-16 10.5l-34.1 56c5.2 18-3.1 38.6 4.8 53.1 8.6 8 6.5 18.2 6.7 28.8.4 2.4 3 6 3 8.2 2 16.2 15.4 32.4 6.4 48.8-3.5 11.8-11.2 25.3-17.3 37.2-1.4 6.6.8 13.3 1 20a492 492 0 0 0 162.3-5.6c.4-5.6 1-11.2 2.7-16.5-3.3-9.2-23.2-34.9-23.8-40.5Z"/><path fill="#C2C2AC" d="M259.8 164.6a133 133 0 0 0-16.3-6.4 30.6 30.6 0 0 1-8.5 10c34 73.6-43.4 115.7-108 97.6.7 2.3 2.7 5.2 2.8 7 .6 11 8 20.4 9 31.4a569 569 0 0 0 120.2 3c0-6.7 2.9-13.8 3.5-20.2.8-8 8.5-14.2 8.7-22.3 0-2.5 7.3-61.6 10.8-90.3l-22.2-9.8Z"/><path fill="#BBB99D" d="M251 146.2c-4.1 0 3.1 18.8-1 18.8 31.5 75.7-20.5 107.9-50.2 125.6 19.5 5.7 40 7.4 60.2 8.3 1-4 2.2-8.1 2.5-12 .8-8 8.5-14.1 8.6-22.3.1-2.6 11.8-72.2 11.9-99.8l-32-18.6Z" opacity=".7"/><path fill="#BBB99D" d="m120 236 3.1 3.9c3.4-6.7 17.5-8.8 12.7-8.4-6.4.6-9.6-25-9.3-28l16.5-1.7a104 104 0 0 0 4.8-5.4c5.8 5.3 16.1 8 15.9 17.5-8.8 15.3-26.8 23.6-37 38.2.4 4.4-.7 8.9.2 13.3 3.2 6 2.9 11.8 5.2 17.8 4 10.6 10 23 5.6 34.2h123.6c-.7-2-.5-4.6-1.7-6-2-8.4 2.5-17.5 3.2-25.8.8-4 3-7.3 4.9-10.7-4.1-10.9-14.4-16.2-22.4-23.8-9.7-8.9-23-12.2-34-19.1-13.2-6.7-23-19-36.5-25-7.2-5.5-17.7-26.6-21.4-17.8 4-9.4 11.1-17.6 16.2-26.6-9.1 1.7-20.3-3.6-27-9.5-12.6 5-21 14.3-29.4 24.3 9 18.6-2 40.8 6.8 58.6Zm54.2-21.3c-.4-.1 0-.4.2-.1 0-.3.4-.1.1 0 .2.1 35.8 22.6 48.1 27.8.5-1.1 1-1 .2 0 .5.2.4.5 0 .2-2.3 5 5.5 11.1 13.5 9.1 9.9 4.6 10.4 17.2 10 16.4 5.1 1 19.7 10.7 3.1 13.9-20.6 2.7-41.7.2-62.5.1-8.5-1-17.2-.2-25.7-1.7-13.5-2.9-14.5 3.8-24.2-13-7.3-12.6 10.7-28.8 37.2-52.8v.1Z"/><path fill="#CCD1C0" d="M189.8 236.3c-10.4-13.4-19.7-19.8-28 0-7 9.2-19 21-3.1 28.9 4.7 2 9.5 0 14.1-1 4.9-1 10.1 1.3 14.8-1 9.5-5.4 9.8-19.6 2.2-26.9Zm-52.5-31.5c-2.4-.1-5.6-1.7-7 1-.6.5-.4 3 .2 4.7-.3 4.8 1.2 10.8 6.9 6.5 1.1-2.2 3.5-3.2 4.8-5.2 1.2-3.3-1.6-6.8-5-7ZM224 381.6a531.4 531.4 0 0 1-108-3.2c-1.3-16.6 4.4-22.4 14.4-42 17.3 6.8 17.9 20.2 39.8 21 24-2.6 45.4 3.3 53.8 24.2Zm6.6-193.2c-8-3.2-17-.6-25.4-2.2-6.2-1.8-15.6 1-20-4.2-8-6-10 1.6-2.3 5 7.6 2.6 12.4 9.3 19.3 13 8.4 3.1 14.8 10.3 23.3 12.5 11.4.4 15.2-19.5 5-24.1Z"/><path fill="#BBB99D" d="M264.9 324.4H135.3c-.8 1.7-2 3.8-2.2 5.3 10.7-1.7 14.7 12.2 25.6 10.6 65.7-8.3 74-12 123.5 31 .4-5 1-9.8 2.6-14.5-2.4-6.7-13.8-22.4-20-32.4Zm-75-171c-12.1 9.7-30.5 12.5-43 3.1a33.8 33.8 0 0 1-3.5-2.7c6.9 25.7 77.3 41.6 108.5 13.7a154.6 154.6 0 0 0 35.3-51.7c.1-2.8-97.3 37.6-97.3 37.6Z"/><path fill="#C2C2AC" d="M152.4 127c3.2 6.6 4.2 22.6 2.6 23.8 21.5 13.9 53.5-5.6 53.3-30.5-14 17.2-35.2 19.8-46.4-1.7-.7 2.2-18.6 2.8-17.7 5.1l8.2 3.2Z" opacity=".4"/><path fill="#BBB99D" d="M147.9 121.3c-2.2 1 1.5 5.5-1.8 6.4-.6.1-.9.6-.8 1v.6c1.5 7-.7 14.4 2.4 21.2l.2.4a84.5 84.5 0 0 0-5.4 2.2 25 25 0 0 0 2.8 2.4 48.8 48.8 0 0 0 9.7 5.4 20 20 0 0 0 10.4 1.5 110 110 0 0 0-11.4-41.1H148Zm59.6 55.1a6 6 0 0 0-.1-.6H197c-.7 5.4 3.4 12 7.5 15.1a4 4 0 0 1-.3-2.8c.3-1.4 3.5-7.7 3.2-11.7Z"/><path fill="#D8C0A4" d="M98 314.7s16.3 2.8 25 3.7c2 .2 3.6.3 4.4.2 4.2-.3 5.2-3.8 8.7-7 .3-.3-1.6-7.7-1.6-7.7s-4.5 3-9.3 4.7c-4.3 1.6-9.5 1-12.2 2-4.2 1.3-15 4-15 4Z"/><path fill="#CEB79B" d="M123 318.4c2 .2 3.6.3 4.4.2 4.2-.3 5.2-3.8 8.7-7-.4-2.3 1.7-11.2-10.9-3 0 0 1.1 6-6 5.6-1.5-.1.7 2 3.7 4.1Z"/><path fill="#C5CAB9" d="M51 182.2c-10 17.9-24.5 36-40.5 49.6a26 26 0 0 0-8.1 19.6h57.2a24.7 24.7 0 0 1 6.4-4.8c10.3-3 17-10.6 24.3-17.8 18.5-13.6 42.6-27.6 54.4-46.6H51Z"/><path fill="#C2C2AC" d="M75 191.6c2.4 10.3 2.5 21.4-5.6 29-13.1 9.8-33 8-46-1.4C8 234.4.7 238.4 2.5 257.8h52c3-4.5 6.5-8.7 11.5-11.2 10.3-3 17-10.6 24.3-17.9 7.9-7 18-11.4 26-18 7.3-6.8 15.2-12.6 21.4-19H75Z" opacity=".4"/><path fill="#BBBBA5" d="M82.4 184.4c5.7 15 5 31.7-4.6 45.9-4.4 7.2-13.7 6.8-19.4 12-6.7-4-18.3-17.2-29.4-5.6-7.5 5.4-14.6 11-21 17.6h49c2.5-3.1 5.4-5.9 9-7.7 13.6-3.7 20.5-16.5 32-23.7 16.8-10.6 33.5-22.3 45.9-38.5H82.4Z"/><path fill="#BBB99D" d="M137.4 192c-9.2 10-20 18.2-31.2 25.6s2.6-13-13.7-23.7c-5.3-3.4-3-6.7 2.5-9.5l42.4 7.7Zm-89.8 55.6c-2.2-6.4-6.7-19-15.2-12.6-6 3.8-12 7.8-17.3 12.6h32.5Z"/><path fill="#CCD1C0" d="M31.9 209.7c59.6-10 22.3-33.2 22.3-33.2-4.4 7.8-8.4 15.8-14.1 23.1a330 330 0 0 1-8.2 10.1Z"/><path fill="#3E8E5B" d="M267.7 323c-4-19-10.2-7.6-4.4-32.5 12.3-18.4-4.3-5.4-15.7-7-6.1-1.8-12.2 1.5-18.4.9-9-1.4-17.9 3.6-26.5.5-15.4-2.5-31.5.3-47-1-4.3-1-7.5-4.6-12-5.2-4.7 0-8 4.2-12.6.4-1.5-1-5.4 1.3-1.5 9.4 2.5 4.2.7 9.2 3.3 13.4 4.4 7.4 4.6 8.7 1.1 16.5.6 8-7 7-2.6 11 8.7-5 9.6 4 18.6 3.8 7.5.1 16.2 2 26.8 1.4 8.4-1.5 16.6-1 25 0 4.2 0 8.3-1.6 12.4-2.2 22.8-3.7 11.3 1.2 27.9-2.5 6.5-3 13.4-1.9 20.1-3.5 1.8-.2 6.1 1.3 5.5-3.4Z"/><path fill="#3B754B" d="M264.1 312.8c-2.3-3.2-4.4-6.9-2.9-11 1.6-3.6.6-7.6 2-11.2 8.9-13 3.9-11-10.4-6.9-2 8.2-13.6 9.8-12.5-.5-3.3.6-6.6 1.4-10 1.2-4.6 21-31.7 18.5-48.4 18.2-12.6-1.2-6.2 5.8-26.7 2-29-6-21-2.3-21-2.3l-1.2-.3c4 6 4.3 10 1 16.4-.2 2.8-.3 5.4-3 7 11.8-1.9 23.9 1 35.6 2.3 9.1 1.1 17.2 6 26.3 6a10 10 0 0 1 17.7-.6c20.6-4.5 16.8.3 31.5-3.2a48 48 0 0 1 17.6-2.8c2.6-2 8.4 1.8 8-4.1-.5-3.7-1.5-7-3.6-10.2Z"/><path fill="#D58500" d="M264.3 312.8c.6-.6 2.2-1.2-1.3-3-.2-.1.3-.7.3-.8.3-1.4-.4-3.5-2-3.5-44 6.1-111.6 2.7-121.6-3-3.3-2.7-11.9-1.6-6.6 3.6-10.8 14 121.4 19.6 131.2 6.7Z"/><path fill="#A05A07" d="M133 306.1s-1 1-.2 2.8c0-.1 4.4-2.2 3.7-3-1.3-1.3-3.5-1.3-4.5-3l-.3-.6c-.7 1.2.3 3 1.4 3.8Zm131.3 6.7c.6-.6 2.2-1.2-1.3-3-.2-.1.3-.7.3-.8.3-1.4-.4-3.5-2-3.5-32.1 6.3-71.4-.5-101.4 4.5-8.7 1.7-17 1.2-25.8 0 4.5 7.1 73.9 11.7 111 8.3 3.3-5.1 12.5-7.8 17-2.7 1.4-.4 4.6-1.5 2.1-2.8Z" opacity=".3"/><path fill="#A05A07" d="M264.9 314.5c.6-.6.1-1.5-.6-1.7.6-.6 2.2-1.2-1.3-3-.2-.1.3-.7.3-.8v-1.7a1.8 1.8 0 0 0-.7-1c-.1-.5-.7-1-1.4-.8-19.6 2.8-44 3.6-65.9 3.2-4.3 1.5-8.7 2.6-13.1 3.7a114 114 0 0 1-26.1 4c23.7 3 60.7 4 85.5 2.2 4.5-5.5 17.3-9.6 23.3-4.1Z" opacity=".3"/><path fill="#A05A07" d="M261.2 305.5a338 338 0 0 1-30.2 2.7c-5.3 4.6-11.8 8-18.5 10-.1.4-3.8 1.3-3.8 1.8 8 0 19.5.3 26.6-.1 9.2-3.8 18.9-8.1 26.8-14.3-.3 0-.6-.2-.9-.1Z"/><path fill="#D58500" d="M136.2 311.4s-1.4-.2-2 .5c-21.4 24 141.5 5.2 129.2-12.7.5-1.7 3.2-3.7-.5-4-18.1 11-82.5 25.8-126.7 16.2Z"/><path fill="#A05A07" d="M263.4 299.2c.5-1.7 3.2-3.7-.5-4-4.3 1.8-7 4-13.1 6-.7 6-5.1 4.1-5.5 6.7-.2 2.5-2.5 1.8-2.7-.3-.2-1.2-.2-3-1.7-3.4-10.1 3-20.6 5.1-31.1 6.8-17.5 11.4-60.1 17-72.4.5-1-.3-2.1.1-2.8 1-1 2.2-2.5 6.3 0 8.1 6.7 4.4 65.6 7 109.3-7.5-1-2 1.8-3.1 2-.7 5.1-2.6 21.6-6.1 18.5-13.2Z" opacity=".3"/><path fill="#A05A07" d="M241.1 311.6c-.5-.5-1-1.3-1-2-.1-.2-.1-.5 0-.8.3-.3 0-1-.1-1.3a2.4 2.4 0 0 1-.5-2.3l.3-.9-2.4.7-.6 1.2c-.5 1.6 0 3.3.7 4.7a5.7 5.7 0 0 0 3.1 2.8h.2l3.9-1.2c-1.3 0-2.6 0-3.5-.9Zm22.3-12.4c0-1 1.6-1.8 1.4-2.9 0-.8-1-1.2-2-1-.7 0-1.5.5-2.2 1a53.2 53.2 0 0 1-8.9 4.1c.4.5.7 1.1.9 1.8.1.7 0 1.4-.1 2.1a6.3 6.3 0 0 0-.2 2.7c.2.7.3 1.5.2 2.3a97.5 97.5 0 0 0 7.3-3.4c2.3-1.2 4.8-3.2 4-5.5-.2-.4-.4-.8-.4-1.2Zm-130.8 20c.9-4 6-2 2.2-7.6-2.3.9-3 5.8-2.2 7.8v-.1Z" opacity=".3"/><path fill="#A05A07" d="M240.9 307.4c-.6-.6-1.6-.7-2.3-.4-.6.3-1 .8-1 1.4-.1.7.2 1.4.7 1.8.7.7 2 1 2.8.2 1-.8.6-2.2-.2-3Z" opacity=".3"/><path fill="#A05A07" d="M240.6 307.7c-.4-.5-1.2-.6-1.8-.3-.5.2-.8.6-.8 1-.1.6.1 1.2.5 1.6.6.5 1.6.7 2.3 0 .7-.6.4-1.7-.2-2.3Z"/><path fill="#CCD1C0" d="M243 312.8v.2c-4 1.6-8.8-5.9-3.4-8.8v.2l2-.6c-.3-1.1-1-2-1.7-1.8-10 3.5-2.2 16.6 4.7 12.3.8-.4.7-1 .3-2.1l-2 .7Z"/><path fill="#C2C2AC" d="M239.9 302a8.3 8.3 0 0 0-2.6 1.4c.6.2 1.2.7 1.5 1.3l.8-.5v.2l2-.6c-.3-1.1-1-2-1.7-1.8Zm-2.3 11.4c.3-.7.8-1.2 1.4-1.4a5.7 5.7 0 0 1-1.8-4.3h-.7a2.5 2.5 0 0 1-1.3-.6 7.7 7.7 0 0 0 2.4 6.3Zm7.3-1.2-2 .6v.2c-.5.3-1 .3-1.6.2a3.5 3.5 0 0 1 0 2c1 0 2.2-.2 3.3-.9.8-.5.7-1 .3-2.2Z"/><path fill="#BBB99D" d="m239.8 304.3 1.9-.5c-.4-1.1-1-2-1.8-1.8l-1 .4c.5.5.9 1.2 1 2Z"/><path fill="#C2C2AC" d="m239.9 302-.7.3-.6.6a7.8 7.8 0 0 0-2 2.4c-.8 2-.3 4.5.8 6.4 1 1.7 2.6 2.8 4.6 2.6a4 4 0 0 0 2.5-1.2l.5-.5-.1-.4-2 .7v.2c-4 1.5-8.7-6-3.3-9v.3l2-.6c-.3-1.1-1-2-1.7-1.8Z" opacity=".3"/><path fill="#BBB99D" d="M238.2 311a5.8 5.8 0 0 1-.7-1.5l-2 .6.9 1.8c.4-.5 1-.8 1.8-1v.1Zm6.7 1.2-2 .6v.2a3.7 3.7 0 0 1 .6 1.9l1.1-.6c.8-.4.7-1 .3-2.1Z"/><path fill="#CCD1C0" d="M241.2 309.1c0-.5-.2-1-.6-1.4l-.3-.3c-1.7.6-4.7 1.2-6.2 2-.8.5-.3 1.5.5 1.6.3 0 3.9-1 6.6-1.9Z"/><path fill="#C2C2AC" d="m240.6 307.7-.3-.3-1.8.6a3.5 3.5 0 0 1-1.6 1.8c-1 .5-2 .8-3.1.6.1.3.4.5.8.6.3 0 3.9-1 6.6-1.9a2.2 2.2 0 0 0-.6-1.4Z"/><path fill="#BBB99D" d="m240.6 307.7-.3-.3-.8.3c.2.6-.3 1.4-.7 1.9l-.5.4c1-.2 2-.6 2.9-.9a2.2 2.2 0 0 0-.6-1.4Z"/><path fill="#A05A07" d="M249.2 303.8c-1-.3-2.1.8-2.1 1.7 0 .9.6 1.8 1.5 2 .6.3 1.2.1 1.6-.2 1.3-.9.6-3-1-3.5Z" opacity=".3"/><path fill="#A05A07" d="M249.2 304.4c-.8-.3-1.6.5-1.6 1.2 0 .6.5 1.3 1.1 1.5.4.1.9 0 1.2-.2 1-.7.4-2.2-.7-2.6Z"/><path fill="#A05A07" d="M259.3 300.6c-.3-.5-.9-1-1.7-1-2.3.1-2.5 3.1-.8 3.9l.5.2c1.6.3 2.9-1.5 2-3Z" opacity=".3"/><path fill="#A05A07" d="M258.8 301c-.2-.5-.6-.8-1.2-.8-1.6 0-1.8 2.2-.6 2.8l.4.1c1.2.3 2-1 1.4-2.2Z"/><path fill="#A05A07" d="M229.2 310.2c-.7-.4-1.5-.4-2.2-.1-.9.3-1.1 1.2-1 2 .6 1.9 3.2 2.1 4 .2.3-.8-.1-1.6-.9-2.1Z" opacity=".3"/><path fill="#A05A07" d="M228.9 310.6a1.9 1.9 0 0 0-1.7-.1c-.6.2-.8 1-.7 1.5.4 1.5 2.4 1.6 3 .2.3-.6 0-1.3-.6-1.6Z"/><path fill="#A05A07" d="M216 312.6c-.8-.2-1.7 0-2.3.6l-.2.8c-.3 1 .2 2 1 2.5a2.5 2.5 0 0 0 1.8.3c.7-.1 1.2-.7 1.4-1.3.7-1.4-.5-2.7-1.6-2.9Z" opacity=".3"/><path fill="#A05A07" d="M216 313.2c-.7-.2-1.4-.1-1.7.4a1 1 0 0 0-.2.6c-.2.7 0 1.4.7 1.8.4.3.9.3 1.3.2.6 0 1-.5 1.1-.9.5-1-.4-2-1.2-2.1Z"/><path fill="#D58500" d="M180.6 203.5c-16.4 2.4-14.4-12.4-14.9-12a377 377 0 0 1-43 42.2c-5.6 6-8.2 16.2-1 22 1.4 3 .8 8.2 5 9-6.1-9.7 25.4-23.2 54-61.2Z"/><path fill="#A05A07" d="M168.1 202.1s-.6-10.7-.9-10.6c-2.6-.8-8.5 8.7-11.1 10.6 8.6 10.9-8.4 20.3-14.4 27.9-4.7 4.7-18.3 19.9-21.3 6.7-4 5.9-4.7 14.2 1.3 19 1.4 3 .8 8.2 5 9-6.1-9.7 25.4-23.2 54-61.2L168 202Z" opacity=".3"/><path fill="#A05A07" d="M180.6 203.5c-.8-.7-12.5-1.4-12.5-1.4s-.6-10.7-.9-10.6c-2.5-.8-7.6 7.7-10.1 9.5 8.3 7.8-1.3 16.4-7.1 22.1-5.2 4-29.5 33.3-30.3 14.9-3.4 5.7-3.6 13.2 2 17.6 1.4 3 .8 8.3 5 9.1-.7-4.5 0-6.9 3-10.1-4.6-9.3 30-43.5 43.9-42 1.6-2.7 8-6.1 7-9.2Z" opacity=".3"/><path fill="#A05A07" d="M180.6 203.5c-.8-.7-12.5-1.4-12.5-1.4s-.6-10.7-.9-10.6c-2.4-.8-6.4 6.3-8.6 8 8.5 12.7 3 6.4 15.4 12.7 1.5-2.5 7.7-5.8 6.6-8.7Z" opacity=".3"/><path fill="#A05A07" d="M128 256.8c-2.9-3-.6-7.2-1.7-10.7-2.7-.1-6 4-9 2.5.1 3.1 2.7 4.8 4.4 7 1.4 3 .8 8.3 5 9.1-.5-3.4-.3-5.6 1.2-7.9Z" opacity=".6"/><path fill="#A05A07" d="m235.8 226-1.2-1.1s-1-.5-1.8.1c-.9.6-11.2 15-11.3 16.3-.1 1.3 1 2.7 1 2.7l4.2-.6 9.5-7.3-.4-10Z"/><path fill="#D58500" d="M260.6 267.6h12c-1-3.3-2-6.4-3.9-9.3-13.8-22.7-94.3-72.1-103.5-79.6a121.9 121.9 0 0 0-18.4-10.7c-.5 0-11.2 16.6-10 17a155 155 0 0 1 24 15c27 22 87.4 51.5 99.8 72v-4.4Zm-83.2-70.3c-.7 2.6-6 3.4-5.4-1 .2-1 1-2 2-2.4 1.4-.3 3 .4 3.4 1.7.2.6.2 1.2 0 1.7Zm19 18.1a4 4 0 0 1-.8-1.7c-1.1-4.9 5.8-4 5.8-.3 0 2.2-3.4 4-5 2Zm22.8 16.4c-1.4-1.7-.3-4.5 2-4.8 1.2-.2 3 .4 3.6 1.6 1.5 3.6-3.6 5.8-5.6 3.2Z"/><path fill="#C77500" d="M160.9 175.8c-5-3.2-12.8-7.8-14.2-7.8-.4 0-11.1 16.6-9.8 17 2.3.6 9.1 4.8 15 8.7 0-.4 8.9-17.7 9-17.9Z"/><path fill="#D58500" d="M263 277.3h7.8c.7-1.7 1.4-3.3 1.8-5 1-4.6-1.7-10-3.8-14a114.8 114.8 0 0 0-24.1-23.7c-3 5-6.7 9.5-9 14.9 14 10.3 23 16.5 27.4 27.8Z"/><path fill="#C77500" d="M271.2 274.2c-3 1-5-1.3-6.1-3.8-2.3-5.5-1.2-11.6-.2-17.2-5-5.9-12.8-12.8-22-20-.7 6-2.8 12-5.7 17.4a84.9 84.9 0 0 1 23.7 22c2.2 4 1 7.1 1.8 11.7.8 5-.2 8.8-.7 11.1.4-.1 1.4-.2 2 0 1.8-2.2 1.5-3.7 2-6.2.4-1.3 1.2-2.5 1.8-3.8l4.5-11.7-1.1.5Z"/><path fill="#D58500" d="M262.4 254.6c-.1-1.6-8-15-22.1-23.6l-10.6 14.5a28.9 28.9 0 0 1 15.5 19.7c4.2-.3 8.1 1.1 11.4 3.7 5.1-8 5.8-13.7 5.7-14.3Zm-16-3.1h-.1c-3.2.3-3.7-3.5-2.3-5.3a2.8 2.8 0 0 1 3.7-.3 3 3 0 0 1-1.2 5.6Z"/><path fill="#C77500" d="M237.2 245.8c1.8-4.3 4.5-8.4 8-11.5a58.4 58.4 0 0 0-5-3.4l-10.5 14.6c2.3 1.1 4.4 2.5 6.3 4.2a27.5 27.5 0 0 1 1.2-4Z"/><path fill="#D58500" d="M243 230.6c-1.2-.9-7.1-8.2-10.2-5.5 6.5.5-10.8 18.5-10.6 17.7-.6-.2-.7-1-.7-1.5-1.3 3.5 6.2 8 7.4 7.9 3.4-.3 15.2-14 14-18.6Z"/><path fill="#C77500" d="M243 230.6c-1.2-.9-7.1-8.2-10.2-5.5 1.7-.5 1.8 1.4 1 3 7.7 1.3-2.4 17.6-7 10-3 3-5 6.6-5.3 3.2-1.3 3.5 6.2 8 7.4 7.9 3.4-.3 15.2-14 14-18.6Z" opacity=".3"/><path fill="#C77500" d="M243 230.6c-1.2-.9-7.1-8.2-10.2-5.5.7-.4 1.5.3 1.5 1 5.1 0 6.6 6.4 4.7 10.2-1.5 3-4.4 7-7.7 8-1.2.3-2.4-.6-3.6 0-1.9 1-4-.4-4.5-2.3l-1 .8c-.6-.2-.7-1-.7-1.5-1.3 3.5 6.2 8 7.4 7.9 3.4-.4 15.2-14 14-18.6Z" opacity=".3"/><path fill="#474C2F" d="m72.7 323.8.8 9.1s31.6-18.5 25.7-25.7c-6-7.3-26.5 16.6-26.5 16.6Z"/><path fill="#676D54" d="m73.4 331.6.1 1.3s31.6-18.5 25.7-25.7l-1-.9c5.4 6.6-19.9 22.3-24.8 25.3Z"/><path fill="#8D9280" d="M109.7 364Zm54.7-11.4-9.6-3.2s18 16.3 0 11c-17.9-5.1-12-1.5-12-1.5s10.2 8.7 4.1 12c-5.4 3-19.2-11.2-27.3-13.7 1.3-5 3.8-9.7 4.8-14.4 1.6-7 8.1-10.9 12.4-16.9 8.4-.7 15.1-.4 15.1-.4s20.3 10 18.3 11.6c-2 1.6-11 1.6-11 1.6s22.8 19.7 5.2 13.8Z" opacity=".4" style="mix-blend-mode:multiply"/><path fill="#E8D4BA" d="M68 319.6c5.7 9.4 19.2 14.3 25 23.1 4.4 5.7 11.3 7.7 18.2 8.4 5.6-.3 13.2 4.6 17.7.3 1-3-2.8-4.5 1.1-8 1-2.7 3-2.6 3.4-6 .7-4.5.3-17.3 0-19.8a98.8 98.8 0 0 0-33.8-4.1l-13.3-13.2S67.2 315.6 68 319.6Z"/><path fill="#CEB79B" d="M68 319.6c5.1 7.7 13.5 12.3 20.4 17.8 3.7 4.6 7.9 10 13.7 11.8l6.3-7.9c18.2-23.4 14.3-26.4 14.3-26.4-8.7-2.3-15-.7-23-1.4l-13.4-13.2S67.2 315.7 68 319.6Z" opacity=".4"/><path fill="#CEB79B" d="M68 319.6c5.7 9.4 19.2 14.3 25 23.1 6 8 16.7 8 25.8 9.5l-1.6-6c-17.5-7-24-21.5-13.6-32.5-1.3 0-2.6 0-4-.2l-13.3-13.2S67.2 315.7 68 319.6Z" opacity=".4"/><path fill="#CEB79B" d="M68 319.6c.6 2.4 11.3 11 17.8 16a37.4 37.4 0 0 1 10.5-25.4l-3.1-3.1-6.9-6.8S67.2 315.6 68 319.6Z" opacity=".4"/><path fill="#CEB79B" d="M68 319.6c.5 2 6.4 7 12.1 11.6C82 316.7 95 308.9 95 308.9l-1.7-1.8-6.9-6.8S67.2 315.6 68 319.6Z"/><path fill="#949984" d="m139.8 327.1 1.1 2.2c1.2-.5 3.8-10.3 2.7-10.6-2.5-.6-3.8 8.4-3.8 8.4Z"/><path fill="#E8D4BA" d="M129.2 326.9c1.7 2.2 1.8 3.3 5 2.5 4.5-.8 13 0 16 .4 5.4 1.2 8.8 6.2 14.7 6.9 6.3 1.4 6.6-1.7 5.5-3.6-4.6-4.6-10.7-8.3-17.1-12.8-6.5-1.6-16.9-1.7-22.8-3.3-4.6 2.8-3.1 7-1.3 9.9Z"/><path fill="#CEB79B" d="M131.2 324c3.4 3.3 2.6 5 3.2 5.6 3.7-1.2 13.4 0 16 .3 5.3 1.4 8.6 6.1 14.5 6.8 6.2 1.4 6.5-1.7 5.6-3.4-.7-1.3-4-3.6-6-5 .5 7.6-16.6-4.1-8.6-6.3a11.3 11.3 0 0 0-6.8-2.6s-6 8.6-17.9 4.6Z" opacity=".4"/><path fill="#CEB79B" d="M169.7 335.4c-1.9.4-4.3-1.2-4.7-1.5-1.9-1.4.2-3 1.1-4.3-2.4 1.8-3.1 3.6-2.3 4.3 1.3 1 4.9 2.4 6 1.5Zm-35.2-8.4 4 2 .2.1c4.1 0 9.7.5 11.7.8h.5c1.2.3 2.4 1 3.6 1.8 0 0-1.3-3-2.6-3-4.3 0-17.4-1.7-17.4-1.7Z"/><path fill="#9EA58E" d="M133.4 327.5c5 1.5 5.6 1.5 7.5 1.8-.5-4.4 1.1-9.8 2.8-10.6-2.3-.5-4.6-1.3-6.7-2.3-3 1.3-4.4 5.8-3.6 11.1Z"/><path fill="#949984" d="m133.8 320.2.6.1a7.4 7.4 0 0 1 3.7 2c1 1 2 2.6 1.5 4.2-.4 1-1.4 1.5-2.4 1.7l-1 .1c2.5.7 3.2.7 4.7 1-.4-4.4 1.1-9.8 2.8-10.5-2.3-.6-4.5-1.3-6.7-2.4-1.4.7-2.5 2-3.1 3.9Z"/><path fill="#676D54" d="M137.2 319.5c0 .3.4.6.6.8l.7.5c1 .8 1.9 1.8 2.8 2.7.3-1.7.9-3.1 1.5-4l-.3-.1c-1.2-.5-2.8-1.5-4.1-1 .1.4.5.7.8 1 .1 0 0 .2 0 .1-.4 0-2-.6-2 0Zm-2 0c.5-.3 1.4-.8 1.2-1.5-.1-.3-.3-.6-.6-.8a6.6 6.6 0 0 0-1.8 2.5 3 3 0 0 0 1.1-.2Z"/><path fill="#E8D4BA" d="M125.7 330.8c.2 2.2 1.2 4.2 2.6 4.7 3.3 1.1 15 6 19.3 7.3 3.5.4 29.4 18.6 25 4.6-6.1-5.6-13.8-9.8-21.7-14.3-7.4-1.6-25.6-14.5-25.2-2.3Z"/><path fill="#CEB79B" d="M125.5 330.7c.1 2.1 1.3 4.3 2.8 4.8 3.3 1.1 15 6 19.3 7.3 3.5.4 29.4 18.6 25 4.6-1.5-1.8-4.1-3.6-6.6-5.3-1.9 5.3-14-2.4-14.7-4.2-.3-1.2.3-4 2.4-3.6-2-1.2-2.5-1-4.5-1.5a30 30 0 0 1-23.7-2Z" opacity=".4"/><path fill="#CEB79B" d="M171.7 350.7c-2 .4-4.6-1.3-5.1-1.6-2-1.5.3-3.2 1.2-4.6-2.5 2-3.3 3.9-2.4 4.6 1.3 1.1 5.1 2.6 6.2 1.6ZM127 332.9l1.3 2.6c5.7 2.5 19.2 6.8 25 10 0-.1-3-4.3-4.5-4.6-6.3-1-21.5-7.9-21.8-8Z"/><path fill="#E8D4BA" d="M119.7 341.1c1 5.4 6.5 3.3 12.4 5.9 4.6 1 37.2 24 31.6 9.2-8.8-7.2-21.8-15-30.6-19.4-18.2-13.4-15.5-1.4-13.4 4.4Z"/><path fill="#CEB79B" d="M120.5 341.2c-.8 5.3 6.3 3.2 11.6 5.8 4 1.6 9.2 4.7 11.2 5.7 2.4 2 25.4 15.3 20.4 3.5-1.8-1.8-4.2-3.3-6.3-4.8 0 0-.6 3.8-3.3 3.1-4.4-1.6-14.9-5.4-7.4-10.1a48.8 48.8 0 0 0-5.2-3.2c-2.2 1.1-9.9 4-21-2.1v2.1Z" opacity=".4"/><path fill="#CEB79B" d="M162.9 359.8c-1.9.4-4.3-1.1-4.8-1.4-1.8-1.3.3-2.9 1.2-4.3-2.4 1.9-3 3.7-2.3 4.3 1.3 1 4.9 2.4 5.9 1.4Zm-43.2-18.7a30.5 30.5 0 0 0 1.1 2.6c.8 1.4 7.4 1.6 11.3 3.2 4 1.7 9 5.1 11 6.1.9.4 2.2 1 3.9 2-.1-.1-2.8-4.7-3.8-5a47.4 47.4 0 0 1-6.7-2.6c-1-.6-12.2-5.4-12.2-5.4l-4.6-.9Z"/><path fill="#E8D4BA" d="M117 349.1c.1 1.1.8 2.2 2 2.4 2.8.6 6 2.9 8.4 4.6 3.7 2.4 20 19.3 22.5 11.4.3-3.1-3.4-5-5.3-7-5.4-4.6-8.8-8-14-12.8-9.4-8-12.7-14-13.7 1.4Z"/><path fill="#CEB79B" d="M116.9 349c.6 3 2.6 3.4 5 3.8 5.7 2.3 9.2 6.8 13.7 10.4 2.4 1.7 6.1 4 8.9 5.6 4 2.5 6.7-.7 5-3.6-1.4-1.8-3.2-3.2-5-4.7 0 0-2.1 2.1-3.6 1-2.4-1.9-8.9-6.1-3.7-7.8L134 351c-.2.5-11.6-1-16.8-4.7-.2.8-.5 1.9-.4 2.7Z" opacity=".4"/><path fill="#CEB79B" d="M148.1 368.1c-1.7 0-3.5-1.7-3.8-2-1.3-1.5.7-2.5 1.7-3.5-2.3 1.1-3.3 2.6-2.7 3.3 1 1 3.7 2.9 4.8 2.2Zm-20.7-12c2 1.5 3.8 3 4.9 4a15 15 0 0 1-2.2-5.1c0-1.6-2.7.1-2.6 1.1Zm-8.6-4.7v.7a51.1 51.1 0 0 1 3.9.9l1.1.7s-5-7.8-5-2.3Z"/><path fill="#C4AD94" d="m94.4 344.3 2.6 2.2c1 .9 2.2 1.6 3.6 2.2 0 0-5-10.2 0-20a19 19 0 0 0-6.1 15.6Zm0-25.3c0 1.2 6.4-4 8-5.3a48.2 48.2 0 0 1-2.8-.2l-1-1c-3.5 1.3-4.2 5.1-4.2 6.5Z"/><path fill="#676D54" d="M69.9 327.6A33 33 0 0 1 75 332c5-10.3 14-25.7 24.8-23.8a212.8 212.8 0 0 1-9.2-13.4l-20.7 33Z"/><path fill="#979E87" d="M10.8 289.5c17.4 19.1 45.2 24.2 62.8 43.4l.8-1.6c3.1-6 6.6-12 11-17.1 3.5-3.9 8.3-8 13.8-7-15.4-18.8-20.8-39.7-37.4-57-13.2-11.3-38.8-12.4-54-11.9-7.7.3-6.8 3-7.1 8.2-1.5 21.4 3.2 34.3 10.1 43Z"/><path fill="#AAB09E" d="M10.9 289.5c10 14.7 33.2 7.8 27.5-16a55 55 0 0 0-30.5-35.2c-7.8.3-6.8 3-7.2 8.2-1.4 21.4 3.3 34.3 10.1 43Z" opacity=".5"/><path fill="#8D9280" d="M60 287c1.4 11.2 1 22.6-1.6 33.6a97.3 97.3 0 0 1 15.2 12.3c4.8-9.1 13.5-27 25.7-25.7-10.4-13.4-17-28-26.1-42.4-7.3-12-17.5-21.8-33.2-24.2A81.8 81.8 0 0 1 60 287Z"/><path fill="#474C2F" d="m73.3 332.6.3.3c5-10.2 15-27.6 25.7-25.7-9.1-12.4-13.8-20.9-18-28.5 0 .2-7.5 52.1-8 53.9Z" opacity=".1"/><path fill="#474C2F" d="M49.3 243.5c-.2.3-.2.7.2 1.6a22.3 22.3 0 0 0 6.6 7.7c1.7 1.2 3.6 2.3 4.6 4 2.2 5.4.9 6 6 10 8.1 9.3 12.4 21.5 21 30.5 2 2.2 4.2 4.5 4.7 7.4.1 1.5 5.2 2.4 6.6 2.2-5-7.1-9.9-14.2-14.2-21.7-8-13.9-14.5-29.8-28.5-38.8-1.5-.9-5.5-3.6-7-2.9Zm-38.4 46c7 9.5 18.4 14 28.4 19.8A142.2 142.2 0 0 1 73.6 333l.8-1.6.5-1c-19.2-19.1-50.3-23.2-66.3-46-.7-1-4.4-9.7-6.1-18.8-1-4.8-1.2-18.1-1.8-19-1.5 21.4 3.2 34.3 10.1 43Z" opacity=".1"/><path fill="#474C2F" d="M86.6 302c0 1 .5 2.3 1.6 2.5 1.1.3 3-.2 2.4-1.4-.2-.5-1.5-2.7-2-3a1.9 1.9 0 0 0-2 1.8Zm-39-54.7c.8-.6.8-1.3.6-2.3 0-.6-2.9-3.4-4-2.8-3.5 1.8-.2 7.6 3.4 5Zm12.2 12.3c.4-.4-1.4-3.5-2.2-4.5-4 0-.6 7.8 2.2 4.5Zm8 9.5c-.5-.3-1.6-.1-2 .2-2.5 1.6 1 5.9 2.6 5.3.4 0 1.1-.3 1.2-1 0-.6-1.8-4.5-1.8-4.5Zm8.5 15.2c-1 .2-2.4 1.4-1.9 2.6.4 1.3 2.1 3 3.6 2.6 1.3-.4-.8-5-1.4-5l-.3-.2Z" opacity=".1"/><path fill="#676D54" d="M87.5 300.7c-1 1.4.2 5.2 3 3.4 2.3-1.6-1.7-5.5-3-3.4Z"/><path fill="#474C2F" d="M88.1 300.2c1.6.3 3.3 2.8 1.6 4a3 3 0 0 1-1 .4c.5 0 1 0 1.8-.5 2-1.4-.7-4.4-2.4-4Z"/><path fill="#676D54" d="M75.2 285.5c-.2.5-.2 1 0 1.6.4 1.1 2.7 3.1 3.6 1.8 2-3.2-3-6.4-3.6-3.4Z"/><path fill="#474C2F" d="M76.4 284.3c1.4.6 2.7 2.5 1.5 4.4a.9.9 0 0 1-.7.4c.6.3 1.2.3 1.6-.2 1.4-2.4-.8-4.7-2.4-4.6Z"/><path fill="#676D54" d="M66.8 269c-.5 0-.9.5-1 1-.3 1.5 1 3.8 2.6 4.2.6.2 1.3-.1 1.5-1 .4-1.8-1-4.6-3.1-4.3Z"/><path fill="#474C2F" d="M66.8 269c1.6.4 2.6 2.6 2.3 4.2-.2.5-.5.9-.9 1h.2c.6.2 1.3-.1 1.5-1 .4-1.8-1-4.5-3-4.2h-.1Z"/><path fill="#676D54" d="M58.1 255c-1.3-.2-2.2 1.7-1.7 2.8.3 1 1.7 2.1 2.5 2.2.5 0 1-.4 1.4-1l.2-.3c.3-1.2-.1-2.4-1-3a3.5 3.5 0 0 0-1.4-.6Z"/><path fill="#474C2F" d="M58.1 255c-.3 0-.6 0-.8.2a3.5 3.5 0 0 1 1.4.7c.9.5 1.3 1.7 1 3a.9.9 0 0 1-.2.3 1.8 1.8 0 0 1-.8.7h.2c.5 0 1-.3 1.4-.8l.2-.4c.3-1.3-.2-2.4-1-3a3.5 3.5 0 0 0-1.4-.6Z"/><path fill="#676D54" d="M45 242c-1.3-.1-1.6 1-1.3 2.3 1 4.7 4.8 3.6 4.8 1.6a4.1 4.1 0 0 0-3.4-3.8Z"/><path fill="#474C2F" d="M45 242a1.4 1.4 0 0 0-1 .2 4.1 4.1 0 0 1 3.8 3.8c0 .8-.5 1.3-1.1 1.6 1 0 1.8-.8 1.8-1.7a4.1 4.1 0 0 0-3.4-3.8Z"/><path fill="#9EA58E" d="M346.7 42.5s-2.1-4.2-6.1-3.4c-4.2.9 1.2 10 1.2 10l5-6.6Z"/><path fill="#3B754B" d="m337.1 101.5 4.5-.2c1.1-.1 1-1.6 0-1.4H337c-1 0-1 1.6 0 1.5Z"/><path fill="#2B6B40" d="m340 100.5.1-.6h-3c-1.2 0-1.1 1.6 0 1.5h3.2c-.2-.3-.3-.5-.3-1Z"/><path fill="#474C2F" d="M344.3 40.7s-2.5-1.6-6.8-.8c-4.3.7-19.2 11.4-18.7 17.6.5 6.3 5.4 14.2 12.6 12.6 7.2-1.6 19.7-15.8 17.2-22.3-2-5.6-4.3-7-4.3-7Z"/><path fill="#E8D4BA" d="M279.2 42.5c-1 .5-2.3.8-3.8 1-3.1.3-7-.4-9.7-3.1a6.4 6.4 0 0 1-.5-.6c-1.2-1.5-2-4-.9-5.6a6.8 6.8 0 0 1 3.4-2.6l.4-.2c1.1-.4 2.3-.7 3.7-.8 0 0 10.7 10.5 7.4 12Z"/><path fill="#CEB79B" d="M279.2 42.5c-1 .5-2.3.8-3.8 1-3.1.3-7-.4-9.7-3.1a6.4 6.4 0 0 1-.5-.6c-1.2-1.5-2-4-.9-5.6a6.8 6.8 0 0 1 3.4-2.6l.4-.2c1.1-.4 2.3-.7 3.7-.8 0 0 10.7 10.5 7.4 12Z" opacity=".4"/><path fill="#E8D4BA" d="M352.7 58.7 326 73c-.4-.6-5.6-14.7-8.5-18.2a24.3 24.3 0 0 0-3.7-3.2 42.9 42.9 0 0 0-3-2c-5.4 4-18 2.5-25.3-3-6.5-5.3-20.2-12.5-1.2-8.6-9.3-10.4-6-21.7 2.8-29.6 5-6.2 16.2 3.2 28.2 8.5 4.2 2.3 8.2 4.2 9.8 5.7 1.5 1.3 4 3.6 6.4 6 10.6 8.2 13.9 18.9 21.3 30.2Z"/><path fill="#CEB79B" d="m351.3 56.5-1.4 3.7-.2.5-.1-.3c-1.7-3.3-14.2-31.5-21.4-30.2-7.7 1.3-13-13.4-13-13.4h.2l.9.5.2.1a88 88 0 0 1 7.6 4.3l.9.8c1.5 1.3 4 3.6 6.4 6l7.5 7.2a55 55 0 0 1 6 9.8c2 3.5 4.1 7.5 6.4 11Z" opacity=".2"/><path fill="#CEB79B" d="m352.7 58.7-24.3 13-2.5 1.2-3.2-7.5c-1.5-3.5-3.1-7.2-4.1-9a9 9 0 0 0-1.3-1.7s23 0 27.7-9.2l1 2c2 3.7 4.4 7.8 6.7 11.2Z" opacity=".4"/><path fill="#CEB79B" d="m361.8 71.2-27.6 13.5-2.4 1.3-9-20.6c14.7-.7 23.2-18 23.2-18 2.1 3.8 13.4 20.4 15.8 23.8Z"/><path fill="#CEB79B" d="M279.2 42.5c-1 .5-2.3.8-3.8 1a24.5 24.5 0 0 0-7.7-12l.4-.1c1.1-.4 2.3-.7 3.7-.8 0 0 10.6 10.5 7.4 12Z" opacity=".4"/><path fill="#CEB79B" d="m328.4 71.6-2.5 1.3s-5.2-12.8-7.3-16.5a18 18 0 0 0-4.9-4.9 40.5 40.5 0 0 0-3-2c-.5.4-1.4.8-2.5 1.2a22.6 22.6 0 0 1-12.2.5 33 33 0 0 1-10.6-4.7l-4.8-3.6a67.7 67.7 0 0 1-5-3.9 114.7 114.7 0 0 1 7.8-2 96.6 96.6 0 0 1 22.7-3.7c3 1 4.9 6.9 6.8 11.2 3 6.5 16.2-.6 16.2-.6l-.7 27.7Z" opacity=".4"/><path fill="#CEB79B" d="M307.7 36.4c-.3 2.5-3 4.6-5.7 4.8-2.7.2-7.1-1.3-7 1.3.2 2.7-.7 2.3-3 .8-1.5-1-3-.7-4.3 1-2 2.4-2-.5-.6-1.6 1.4-1-2.3-1.5-4.4-.8-.9.3-1.6.7-2.1 1l-1.6-1.2c-2.7-1.5-4.9-4.2-4.9-4.2l26.2-2s7.6-1.5 7.3 1Z"/><path fill="#CEB79B" d="M329 43.9s-11 4.3-15.8-1.9c-4.8-6.1-7.3-12-7.3-12s0 11 6.9 15.7c6.8 4.6 16.3-1.8 16.3-1.8Z"/><path fill="#E8D4BA" d="M287.7 39.6h-6.4c-1.5 0-4 .8-4 .8-4.3-1.2-8.7-9-10.5-13.4-1.9-5.4 5.7-8.8 10.8-13.9 3.3-2.2 7-5.3 11-3.6l-1 30.1Z"/><path fill="#CEB79B" d="M284.8 41.5c-1.4 0-2.6-.2-3.6-.7-.4-.2-.8-.5-1.2-1-.3.3-.7.5-1.2.6a25 25 0 0 1-6.9-10.1l-.5-1.4a5.2 5.2 0 0 1 1-5.2L284 10.6l.3 3.3 3-4.6-1.8 22.8-.8 9.4Z"/><path fill="#E8D4BA" d="M291.4 32c-.3 2.8-1.5 8.7-1.1 8.5-10.5 3.2-14-4.6-17.6-11.9-1-2.6.2-5.7 3.4-8.2 3.8-3 7.5-8.8 10.9-12.2.4-.1 5.2-2.2 6.4 0 .8 6.6-1.3 17-2 23.9Z"/><path fill="#CEB79B" d="M289.5 12 281 23a6.2 6.2 0 0 0-1 6.3c1.6 3.9 6 12.1 9.8 12.1l4-32.5-3.1 3.4-1.2-.2Z"/><path fill="#E8D4BA" d="M297.5 39.2c-9.2 6.8-11.8-2-15.4-8.4-2.1-3.9-2.1-4.8 1-8.7l10.3-14c0 .1 5.4.3 6 2.7.9 2.4-1.3 23.5-2 28.4Z"/><path fill="#CEB79B" d="M288.8 24a6.5 6.5 0 0 0-.3 7.3c2.4 3.7 5.3 10 10.4 8.1l1.4-24.9L298 13l-9.2 11Z"/><path fill="#E8D4BA" d="M306.6 36c-.6 2.5-4.3 3.6-7.4 4-1.7.3-3.4-.3-4.7-1.5-2.6-2.7-4.9-7.6-6.1-10.1-.4-2.5 2.6-5.3 4.5-8.3l7-10s5.1 1.8 6.3 3.7c1 1.8.6 16.1.4 22.2Z"/><path fill="#CEB79B" d="M315.2 16.8a22.8 22.8 0 0 0-15.6-2 22.7 22.7 0 0 0-4.4 1.6c-.1-2.1-.8-3.2-1.6-3.6-1.4-.6-3.3.4-4.5 1.2l-.7.5-.5.4c1.5-6.3-2.5-3.9-5-1.9l-2 1.7c.8-3.5-3-1.7-3.3-1.6a18 18 0 0 1 2.7-2c1.5-.6 4-2 6-2.2l.2-.2v-.1l.4-.3c1.6-1.5 3-2.4 4.2-2.5 2.1-.1 15 6.2 24.1 11Z" opacity=".2"/><path fill="#CEB79B" d="M306.6 35.6s.4-2.8-2.6-4c-3-1-4.3.8-4.3.8s-3-1.7-.4-2.4c2.4-.6 3.7.7 3-2.3-.6-3 1.1-5.1 1.4-2.9.3 2.2-.8 6.2 1 4.4 1.8-1.8 1.2-6.3 3.8-6.4 2.6 0-1.8 12.8-1.8 12.8Zm-17.3-22.4s2.6-2.3 1.5-3.6c-1.1-1.3-1.5 1.5-2 2.6-.8 2.1-3.5 5.6-3.5 5.6l4-4.6Zm-5.3-1.6s1.2-1 .7-1.6c-.5-.6-.7.7-1 1.2-.3 1-1.8 2.4-1.8 2.4l2-2Zm12.2 3.7s3-2.1 2-3.5c-1.1-1.4-1.7 1.4-2.1 2.5-1 2.1-3.8 5.5-3.8 5.5l4-4.5Z"/><path fill="#CEB79B" d="M299.7 32.5s2.4.3 2.1 1.7c0 0 1.9-2-1.4-2.4 0 0-.3-1.1-.7.6Z"/><path fill="#CEB79B" d="M306.6 36c-.5 2.9-7.4 4.8-10.2 4-1.9 1.5-5.6 3.4-7.7 1-2.5.6-6.6 1.1-8.7-1.1-5.1 3.3-11.5-8.6-13.2-12.8.3.5 3.7 4.8 5.9 2.8 1.7 1.5 5.6 4 7.3-.7 0 0 .9.9 2.1 1.6 2 1.4 5.2 2.2 6.7-.4 2.4 2 6.4 4 9.5 1.2 4-2 9.8-2.2 8.3 4.4Z" opacity=".4"/><path fill="#CEB79B" d="M306.6 36c-.5 2.9-7.4 4.8-10.2 4-1.9 1.5-5.6 3.4-7.7 1-2.5.6-6.6 1.1-8.7-1.1-2.5 2-6.8-1.5-9.1-5.4.4.5 5.4 6.1 5.8 2.3 0 0 5.5 3.2 8.5.3 0 0 4.6 4.3 7.6-.1 0 0 6.9 2.5 7.8-4.3-2.9-2.4 8-4.9 6 3.2Z" opacity=".4"/><path fill="#CEB79B" d="M331.4 34.3c.6-4.8-6-11.4-6.4-11.8 1.5 1.3 4 3.6 6.4 6 1.4 3 0 5.7 0 5.7Z"/><path fill="#E8D4BA" d="M268.2 35.5c-.3 2.1-1.5 3.8-3 4.3-1.1-1.5-2-4-.9-5.6.7-1 1.7-1.9 3-2.5.7 1 1 2.4.9 3.8Z"/><path fill="#CEB79B" d="m312.4 50.5-1.6-1c-.6.4-1.5.8-2.6 1.2s.2-5 2.2-3.1a7.2 7.2 0 0 1 2 3Z"/><path fill="#2B6B40" d="m334.1 101.9 1.7 1-1.2-1.9-.5.9Zm9.4-1.9h-2s0 1.3 2.2 1.4l-.1-1.4Zm-11.4-12.2c.5.3 3.4 1.5 5.1 2.8.7.5.8-.8.2-1.2a42.7 42.7 0 0 0-4.7-2.7c-.8-.3-1.4.8-.6 1.1Z"/><path fill="#2B6B40" d="M338.2 85.3c-2.1 3-4.5 6.2-6 9.7l-.4-.9-.2-.8a62.5 62.5 0 0 1 4.8-7.8l.7-.8v-.2l1.1.8Z"/><path fill="#3B754B" d="m335.7 88.8 1.5-2.1a2.2 2.2 0 0 1-1-.9l-1.2 1.8c0 .5.3 1 .7 1.2Z"/><path fill="#2B6B40" d="M336.3 85.7a2 2 0 0 0 1 .8c.5-.6.7-1 1-1.2l-.7-.4-.6-.4v.2l-.6.7-.1.3Zm-8.3-3.2c.2.9 2.3 3.6 2.3 3.6l.3-2.2-1.3-1.7-1.3.3Zm10-1.4c.2 1 .5 2.2-.4 2.7-.9.6-.6-1.9-.6-1.9l1-.8Z"/><path fill="#3B754B" d="M328.5 74.9c1 0 3.4-.4 4.3-.6.8-.2.5-1.3-.3-1.1l-4 .5c-.8 0-.8 1.2 0 1.2Z"/><path fill="#2B6B40" d="M330.7 73.8v-.3l-2.2.2c-.8 0-.8 1.2 0 1.2l2.5-.3a1.4 1.4 0 0 1-.3-.8Z"/><path fill="#2B6B40" d="m327 74 1-.5s.4 2-.4 1.5l-.5-1Z"/><path fill="#BBB99D" d="M322.6 69.9s7.8 5 22.1-2c3.6-1.7-5.3 18.3-5.3 18.3l-12.5.5-4.3-16.8Z"/><path fill="#9EA58E" d="M338.6 107c-2.6-9.2-9-36-10.6-37.6l-1.7-2.2c-5.7-1.4-7.3-8.6-7.5-9.6l.1 1.6c1.3 7.5 3.9 16 3.6 24.4.6 14.9 2.7 16.2 16 24.3l.1-1Zm-11.2-31.5c-1 1.2-2.2-1-1.4-1.8 1-.9 2 1 1.4 1.8Zm2 7.5c-.4 1.9-2.5-.6-1.4-1.3.7-.8 1.5.6 1.3 1.3Zm3 10.8c0 .7-1 1-1.3.1-.7-1 .7-2.4 1.2-1 .2.3.3.6.2 1Zm2.1 7.7c-.8 2.2-2.6-1.7-.6-1.5.5.3.7 1 .6 1.5Z"/><path fill="#2B6B40" d="m340 92-2.4-1.1s1.3-1 2.8.2l-.4 1Z"/><path fill="#949984" d="M338.6 107c-1.6-8.6-4.9-18.2-7-27-1.8-5.5-2-9.6-5.3-12.8-5.7-1.4-7.3-8.6-7.5-9.5l.1 1.5c.2 2.1 1 5.7 1.8 9 4.4 4 7 18.3 2.8 24.6 1.5 7.8 6 9.1 15 15.1l.1-1Zm-11.2-31.5-.1.1c-1.5 1.1-2.3-2.3-.6-2.1l.5.2c.4.5.6 1.3.2 1.8Zm2 7.5-.3.6-.1.1c-1.3 0-1.8-2-.6-2.3a.8.8 0 0 1 .6.4l.1.1v.2l.2.5v.4Zm3.1 10.8c-.6 1.8-2.4-.7-1-1.4.4-.3.7.2.9.6v.8h.1Zm2 7.7v.2c-.9 1.4-2.1-.9-1.1-1.6.5-.4.9.1 1 .6l.1.2v.6Z" opacity=".3"/><path fill="#9EA58E" d="M395.3 91c-6.4-12.8-22-27.2-34.5-37.5a325.7 325.7 0 0 0-16.5-12.8c4 5 5.3 18.2-12.3 26.8-1.1 1.5-.6 2.7 0 4.7 3 11.7 8.5 32.2 13.8 39.1a70.8 70.8 0 0 0 25.5 5.5c22.6.5 23.7 5.7 27.6 6 3.8.2 4.5-15.4-3.6-31.8ZM334 73.6c.3-1.7 2.8-1.2 2.4.5-.3 1.5-2.6.9-2.4-.5Zm4.6 8c-1.6 3-4-3-.6-1.8.5.4.7 1.2.6 1.8Zm3.2 11c-.2 1.5-2.8.9-2.4-.6.5-1.5 2.6-1 2.4.5Zm3.2 8.5c-.9 1.8-3.4-.3-2.1-1.6 1-1.2 2.7.3 2 1.6Z"/><path fill="#949984" d="M395.3 91c-6.4-12.8-22-27.2-34.4-37.5a346.3 346.3 0 0 0-16.6-12.8c2 2.3 5.5 12.5-3 20.5a27.2 27.2 0 0 1-7.5 5h-.1c-.3.1-1 .6-1.7 1.4a3 3 0 0 0-.6 2.5l.5 2.1V72.6l.1.1s4.8-6.9 9.9-4.4c5 2.5 9.4 21.2 2 40.3.6 1.1 1.2 2.1 1.8 2.8a70 70 0 0 0 25.6 5.5c22.5.5 23.7 5.7 27.5 6 3.9.2 4.5-15.4-3.6-31.8Z" opacity=".3"/><path fill="#676D54" d="m338.6 107.9-.3-.2c-2.7-9.8-7-25.6-8.4-29l-.1-.6-.7-2.1c-1-3.8-1.2-6.5-4.1-7.8-4.8-2.3-6-8.6-6-9l-.2-1.6c.2 1 1.8 8.2 7.5 9.6a11.3 11.3 0 0 1 2.8 4.2l1.6 5.3.7 2.9c2.4 8.3 5.5 20.2 6.7 24.3.4 1.2.5 2.2.6 3l-.1 1ZM332 72.4v.2a.9.9 0 0 1 0-.3v.1Z" opacity=".2"/><path fill="#676D54" d="M328.2 74.6a2.5 2.5 0 0 0-.8-1.3c-1.7-1.5-2.7.7-1.6 2.3 1 1.5 2.7.7 2.4-1Zm-1.6 1.2c-1-.3-1.2-2.5.1-2.4.6 0 1 .6 1.1 1 .2.5 0 1.1-.3 1.3a1 1 0 0 1-.9.1Z"/><path fill="#949984" d="m328 74.9-.1-.5c-.3-1.3-2.7-2.7-2.9-.3 0 2 2.8 3.4 3 .8Zm-1.6-1.5c.3 0 .6.1.8.3.5.5.7 1.4 0 2-1.2 1-2.5-1.6-1.2-2.2a.8.8 0 0 1 .4-.1Z"/><path fill="#676D54" d="M336.8 99.2c-.7.5-1.4 1.8-2 2.2 0 0 0-1-.2-1.2l1.8-2.4.4 1.4Zm-3.6-5.3c-.1-.7-.5-1.7-1.3-2-1.3-.4-1.5 1.4-1 2.3.4 1.2 2.4 1.1 2.3-.3Zm-1.7.5c-.6-.4-.8-1.6 0-2 1.3-.5 1.8 2.8 0 2Z"/><path fill="#949984" d="M333 93.8c0-1.3-1.8-3.2-2.5-1.2-.5 2.5 2.3 3.2 2.5 1.2Zm-1.5.6c-1-.3-1.1-2.2.1-2.2 1 .2 1.3 2.5 0 2.2Z"/><path fill="#676D54" d="M331.5 80c-.2 0-.3.1-.5.3l-.6.8-.5 1-.2.7a.7.7 0 0 0-.3 0v-.3a1.4 1.4 0 0 0-.1-.2V82l-.1-.1-.1-.2h-.1v-.4l.6-1.4a4 4 0 0 1 1.5-1.7l.5 1.6Zm3.7 21.6c0-1-.7-2.3-1.8-2-1.1.4-.8 2.3 0 2.9.7.5 2 0 1.8-.9Zm-1.6.5a1 1 0 0 1-.4-.5c-.3-.5-.3-1.1.2-1.5h.1a.8.8 0 0 1 .4-.1c.3 0 .6.4.7.7l.1.4v.7a.4.4 0 0 1-.2.2.8.8 0 0 1-.9 0v.1Z"/><path fill="#949984" d="M335 101.5c0-.8-.5-1.9-1.4-2-1.2-.2-1.3 1.4-.9 2.3.4 1.2 2.4 1 2.3-.3Zm-1.4.6c-1-.3-1.1-2.2 0-2.2 1.1.2 1.4 2.4 0 2.2Z"/><path fill="#676D54" d="M329.4 81.3c-1-.8-2.5-.2-2.2 1.3.3 1.8 2.8 2.6 3 .3a2.3 2.3 0 0 0-.8-1.7Zm-1.2 2.1c-.9-.7-.6-1.7.2-2 1.8-.2 1.6 3.5-.2 2Z"/><path fill="#949984" d="M329.3 81.5c-2-1.8-3.4 1-1.4 2.6 1.8 1.1 2.5-1.5 1.4-2.6Zm-.4 2.2c-1 .4-2-1.6-1-2.2 1.2-.5 2 1.6 1 2.2Z"/><path fill="#676D54" d="m334 96 1.6.7.7.4a383 383 0 0 1-.2-1.6 5 5 0 0 0-.5-.2l-1.2-.3-1.2-.4-.3-.3a.9.9 0 0 0-.5 0c.1.2.2.5.1.8l1.5.8Zm-2.6-16.4-1.4-1-3.4-2.8.5-1c.2.2.4.2.5 0 .4.5.8.8 1.3 1l.2.2 1.5.8.8 2.8Zm7.3.2c-1.7-1.4-3.2 1-2.1 2.5 2 2.4 3.7-1 2-2.5Zm-2.1 2c-.9-1.4.6-3 1.8-1.8 1.5 1.6-.4 3.9-1.8 1.7Z"/><path fill="#949984" d="M338.7 79.8c-2-1.9-3.6 1-2.1 2.5 2 1.9 3.3-.9 2-2.5Zm-1.7 2.4-.2-.2c-.4-.5-.6-1.2-.4-1.8l.1-.1a.9.9 0 0 1 .3-.3l.3-.2c.4 0 .7 0 1 .2 1.2.9.5 3.5-1.1 2.4Z"/><path fill="#676D54" d="m336.6 81.7-2.4-1L333 76c.4-.5.8-1 1-1.6l.6.1c0 .2.2.3.3.3l.2.1a45 45 0 0 1-1.4 3.5c.3.5 1.8 1.5 2.7 2.5v.2l.1.2.1.3Zm8.5 17.2c-.9-.6-2.4 0-2.7 1-.1 1 .5 2 1.3 2.3 2 .7 2.7-2.2 1.4-3.3Zm-1.5 2.8h-.1l-.2-.2c-.2 0-.2-.1-.3-.2l-.1-.1a1 1 0 0 1-.1-.2l-.1-.2v-.1a1.1 1.1 0 0 1 0-.5V100l.1-.1.2-.3.2-.2a.6.6 0 0 1 .3-.1.7.7 0 0 1 .3-.1H344.5v.1a.3.3 0 0 0 .2 0l.4.3c.7.7.4 2.3-.6 2.4h-.5l-.3-.2Z"/><path fill="#949984" d="M345 99c-.4-.6-1.5-.5-2.1 0-1.2.8-.5 2.7.7 3.2 2.1.5 2.3-2.3 1.5-3.2Zm-.1 2.4c-1.7 1.5-3.3-1.8-1.2-2.3 1.3-.2 2 1.4 1.2 2.3Z"/><path fill="#676D54" d="M342.2 91.6c-.8-1.9-3.7-.4-2.8 1.3.7 2 3.8 1.2 2.8-1.3Zm-2 1.8c-1.7-1 0-3.2 1.4-2 1.1 1 0 2.9-1.4 2Z"/><path fill="#949984" d="M342 91.5c-1.3-2.5-4.6.7-1.8 2.4 1.2.5 2.5-.6 1.8-2.4Zm-1 2c-.6.1-1.3-.4-1.5-.9a1 1 0 0 1 .3-1.2c1-.8 2.2-.1 2 1.1 0 .4-.3.9-.8 1Z"/><path fill="#676D54" d="M336.3 72.4c-1.8-1-3.1 1.6-1.6 2.7 1.8 1.5 3.5-1.6 1.6-2.7Zm-1.8 2.2c-1.2-1.2.9-3 2-1.6 1 1.4-.8 2.9-2 1.6Z"/><path fill="#949984" d="M336.3 72.4c-1.9-1.3-3.5 1.7-1.6 2.7 1.7 1 3-1.5 1.6-2.7Zm-1.5 2.4c-.2 0-.6-.6-.6-.7l-.1-.5.1-.5c.6-.9 2-.6 2.3.4.2.6-.3 1.5-1 1.5 0 0-.5 0-.7-.2Z"/><path fill="#3E8E5B" d="m344.6 100.2-.3.7-.3.3-.3.2c-.3-.3-.4-.7-.4-1.1.1-1.4-4.8-3.3-6.5-3.9-1.8-.6-5.2-.5-5.1-3 .5-.2 1.1.2 1.4.7.6.6 1.6.6 2.4.8 1.2.2 2.3.6 3.4 1 1.6.7 5.7 2.3 5.7 4.2Z"/><path fill="#3B754B" d="m344.6 100.2-.3.7-.3.3-.3.2c-.3-.3-.4-.7-.4-1.1v-.5c.2-1.4-2.5-3.5-3.6-2.3a28.6 28.6 0 0 0-2.3-.9c.6-1.7-2.2-1.4-3.2-1.7-.8 0-1.5-1-2.4-.8a2.3 2.3 0 0 1-.1-.7c.5-.2 1.1.2 1.4.7.7.7 1.8.7 2.6.8 3.1 1 6.4 2 8.7 4.4.2.2.3.5.3.9Z"/><path fill="#2B6B40" d="m332.1 94 1 .2a.3.3 0 0 1 0-.1l-.1-.1c-.3-.5-.8-.8-1.4-.6l.1.6h.4Zm12.5 6.2c0 .2-.1.5-.3.7l-.3.3-.3.2c-.3-.3-.4-.7-.4-1.1v-.3c.7.2 1 0 1.2-.6.1.2.2.5.1.8Zm-5.9-3-.5-.3-.6-.2.3-1v-.1h.2l.8.4.4.1c-.6.1-.7.6-.6 1Z"/><path fill="#3E8E5B" d="M334 101.9h.1a1 1 0 0 0 .4-.4l.1-.5c1.3-2 3.6-5.4 5.7-7 .4-.4 1-.9.9-1.8 0-.5-.4-1-.9-1l-.2.3v.7c-.2.8 0 .4-1.2 1.5-.1 0-6.6 6.6-4.8 8.2Z"/><path fill="#3B754B" d="M340.3 91.2c-.2.2-.3.7-.2 1v.3c.6 1.6-1.4 2-2.2 2.8-1.2.8-3 5.9-4 5-.2.7-.2 1.3.2 1.6a34.3 34.3 0 0 1 6.2-8c.5-.3 1-.8.9-1.7 0-.4-.4-1-.8-1Z"/><path fill="#2B6B40" d="M341 91.7c-.1-.3-.4-.5-.7-.5a.8.8 0 0 0-.2.3v.6c.2-.3.5-.4 1-.4Zm-6.3 9.2a1.5 1.5 0 0 1-1 0c0 .4.1.7.4 1a1 1 0 0 0 .4-.4l.1-.5v-.1Zm2.7-3.9v.1a25.6 25.6 0 0 1 .8-1.1c-.4.2-.7.6-.8 1Z"/><path fill="#3E8E5B" d="M328.7 83.3c.5-.3.6-.8.6-1.1-.3-1 4.4-6 5.2-6.9.7-.8 2-1.8 1-2.4a.6.6 0 0 0 0-.1h-.2a1.4 1.4 0 0 0-1 0 .8.8 0 0 0-.2.3l.1.7-3.3 3.7c-1.4 1.7-4.2 5-2.2 5.8Z"/><path fill="#3B754B" d="M335.6 72.9h-.2l-.1-.1c-.8-.4-1.5.3-1 1 .8 1.2-.8 2.3-2 2l-2 2.5c.5 1.2-.7 2.9-2 3-.4.9-.5 1.6.4 2 .5-.3.6-.8.6-1.1-.3-1 4.5-6 5.2-6.9.7-.8 2-1.8 1-2.4Z"/><path fill="#2B6B40" d="M329.4 81.8c-.4.2-1 .3-1.4.2 0 .6 0 1 .7 1.3.7-.4.5-1 .7-1.5Zm2.9-4 1.3-1.4c-.5.2-1.3.3-1.6 0l-.7.6 1 .8Zm3.3-4.3.2.2c.2-.3 0-.7-.4-.9-.7-.3-1.5 0-1.3.8.5-.3 1-.4 1.5-.1Z"/><path fill="#3B754B" d="M336.6 82c.4.3.9.4 1.1.1.4-.6.4-1-.2-1.5-1.8-1.5-6.7-3.4-10-5.6.1-.4 0-.8-.4-1l-.4.2c-3.2 2 2 1.7 10 7.8Z"/><path fill="#2B6B40" d="M330 76.6h.4l-1.7-.9c0 .3.1.6.4.8l1 .2Zm7.5 4c-.4-.4-1-.7-1.7-1.1.4.7.5 1.3.3 2.1.4.3 1.2 1 1.6.5.4-.5.4-1-.2-1.5Zm-11-6 1 .4c.1-.4 0-.8-.4-1l-.4.2c-.2 0-.4.2-.5.3h.2l.2.1Z"/><path fill="#3E8E5B" d="M327.6 75.5a2.6 2.6 0 0 0-1.6-.8c-.7.7.1 1.2 2 2a1.5 1.5 0 0 0-.4-1.2Zm1.6 1.7h-.4l3 1.5a2 2 0 0 0-1.2-1.3l-1.4-.3Z"/><path fill="#949984" d="M398.9 122.8c-13-7.8-31.1-3.5-49.4-10 1.6-15.1 5.4-42.8-8.2-51.6 6.4-4.5 6.4-17.5 3-20.5a322.1 322.1 0 0 1 16.5 12.8c12.4 10.3 28 24.7 34.4 37.5 8.1 16.4 7.5 32 3.6 31.8Z" opacity=".4"/><path fill="#949984" d="M398.9 122.8c-4.3-1.6-13-6.5-30.7-6a108 108 0 0 0-22.5-62 15.4 15.4 0 0 0-1.4-14 322.1 322.1 0 0 1 16.6 12.7c12.4 10.3 28 24.7 34.4 37.5 8 16.4 7.4 32 3.5 31.8Z"/><path fill="#676D54" d="M398.9 122.8a5.4 5.4 0 0 1-2.1-.6 79.4 79.4 0 0 0-10.9-39.9c-8.6-16.1-38.2-36.8-38.2-36.8a42 42 0 0 1-1.6-1 10.5 10.5 0 0 0-1.8-3.8 354.1 354.1 0 0 1 16.6 12.8c12.4 10.3 28 24.7 34.4 37.5 8 16.4 7.4 32 3.6 31.8Z" opacity=".2"/><path fill="#9EA58E" d="M345.4 58.4c-2.6 5.6-9 7.4-11.7 9.6-2 1.7-2 3.4-1.8 4.2l-.5-2a3 3 0 0 1 .6-2.6 6 6 0 0 1 1.8-1.5c17.6-8 13-22.5 10.5-25.4l2.4 1.8c2.3 3 1.2 10.5-1.3 16Z"/><path fill="#CCD1C0" d="M324.8 80.5c-.2 1.3-.3 2.5-2.3 3.1l-.5-9s3.4 1.6 2.8 6Z" opacity=".4"/><path fill="#3E8E5B" d="M126.7 137.4c-16.6-6.3-22-14.6-22-14.6s4.3-4 12-8.1a73.6 73.6 0 0 1 33.6-9c3.4 0 6.8.2 10.4.7 33.8 4.3-17.4 37.2-34 31Z"/><path fill="#3B754B" d="M126.7 137.4c-16.6-6.3-22-14.6-22-14.6s4.3-4 12-8.1a73.6 73.6 0 0 1 33.6-9c3.4 0 6.8.2 10.4.7 33.8 4.3-17.4 37.2-34 31Z" opacity=".4"/><path fill="#459562" d="M150.4 105.8c-4.4 1-10.6 4-19 9-8.7 5.3-13.4 1.3-14.7-.1a73.7 73.7 0 0 1 33.7-9Z"/><path fill="#2B6B40" d="M197 129.5c-18.8-6.5-25-15-25-15s4.7-3.9 13.3-7.9a89 89 0 0 1 37.7-8.3c5 2.4 10.5 5.1 14.5 4.1 81-20-21.8 33.7-40.6 27.2Z"/><path fill="#BBB99D" d="M168.6 125.6c-.2 0-2.2-.6-4-2a7.3 7.3 0 0 1-3-5.2v-.9l.6-3.2a5.5 5.5 0 0 1 2.6-2.8 7.2 7.2 0 0 1 3.4-.8s.8 15 .4 14.9Zm47.2 0c.2 0 2.2-.6 4-2a7.3 7.3 0 0 0 3-5.2v-.9l-.6-3.2a5.5 5.5 0 0 0-2.6-2.8 7.2 7.2 0 0 0-3.4-.8s-.8 15-.4 14.9Z"/><path fill="#E8D4BA" d="M155.4 136.1c-.6-.3-1.4-.6-1.5-1.3-.1-.6 3-5.8 3.5-6 7.4-4.2 10.2-25.5 11.3-42.7.6-9.2.6-17.3.6-20.8v-2c5-4.9 18.3 3.3 23.5 5.4 2.4 1 23.5 8.9 25.8 11.5a182.4 182.4 0 0 0-.8 16.1c-.3 21.4 5.6 27.7 16.4 41.3 3 3.7 4.6 6.7 5 9.1 3.3 17.3-52.5 3-83.8-10.6Z"/><path fill="#CEB79B" d="M234.3 137.6c-13.1-16.4-19-22.2-15.5-57 .3-2-23.4-10.8-26-12-5.2-2-18.6-10.2-23.5-5.2 0 0 .2 15.6-1.3 31.6l2 3.4a50.6 50.6 0 0 1 2.8 7.6l1.1 4.6c.2.9.3 1.9.2 2.8-.1 1.5-1 2.6-2.6 2.5-2-.2-4-1.4-5.5-2.8l-.6-.7c-1.8 8-4.3 14.3-8 16.3a25 25 0 0 0-3.5 6c.1.8.9 1.2 1.5 1.4 35.6 15.5 103 31.9 78.9 1.5Z" opacity=".4"/><path fill="#CEB79B" d="M234.3 137.6c-13.1-16.4-19-22.2-15.5-57 .3-2-23.4-10.8-26-12-5.2-2-18.6-10.2-23.5-5.2 0 0 .2 11.3-.7 24.5l.7 1a29.8 29.8 0 0 1 2.6 5.2l1.9 5.3 1.3 3.5c1.2 3.2 2.4 6.6 2.8 10 .3 2.5 0 5.7-3 6.2-2.2.3-4.5-.6-6.4-1.9a20.6 20.6 0 0 1-3.5-3c-1.7 7-4.2 12.6-7.6 14.5a25 25 0 0 0-3.5 6c.1.8.9 1.1 1.5 1.4 35.6 15.5 103 32 78.9 1.5Z" opacity=".4"/><path fill="#CEB79B" d="M239.3 146.7c-1.5 6-13.3 6.4-28.6 3.7 0-6.3-19.3-6-21-12.2-5-18.3-12-31.8-21-52.1l-.1-.3c.5-8.3.7-16 .7-20.5V60.7c5-5 18.3 3.2 23.5 5.3 2.6 1.1 26.3 10 26 12l-.2 2.2a156 156 0 0 0-.8 16.1c-.3 21.4 5.6 27.8 16.5 41.3 2.9 3.7 4.5 6.8 5 9.1Z" opacity=".4"/><path fill="#CCD1C0" d="M155 150.8c21.5 13.9 53.5-5.6 53.3-30.5-14 17.2-35.2 19.8-46.4-1.6-.7 2-21 4-20.2 6.3 0 0 14.9 24.6 13.4 25.8Z"/><path fill="#C2C2AC" d="M142.5 153c17.7 18.5 53.2 6.8 58.7-17.5-17.8 13.5-38.6 8.9-45-14.8 0 0-8.6.8-13 2-1 .3 1 29.6-.7 30.4Z"/><path fill="#CCD1C0" d="M221.2 126c-4.6 10.7-18.2 12.6-27.1 6-23.1 20-40.8-11.6-29.3-20.6-4.8 5.4 10.8 11.8 23.9 16.2l-.2-.1c20.4-6.2 27.6-9.7 32.7-15.3 2.9 5 3.5 8.6 0 13.7Z"/><path fill="#3D8455" d="M298.6 106c-38.5 30-39.5 67.7-94.6 72.6-14.5 2.4-31.1-6.1-45.6-10.6-6-.7-4.4-8-5.5-12.2 8.3 12.8 58.8-31.2 68.8-38 11.3-8.5 30.2-20.8 45-19a55.3 55.3 0 0 0 22.1 3.6c5.4.1 7 1.6 9.9 3.7Z"/><path fill="#3B754B" d="M298.6 106c-3.6 1.3-5.4 5.3-14 13-18.9 4.7 2.6-10.5-28.5-11.6-17.4-1.8-49.5 34.3-54.4 37.6-5.4 3.5-35.7 17.2-48.2 15.6-.2-1.7-.2-3.4-.6-4.8 8.2 12.8 58.8-31.2 68.8-38 2.5-1.4 10.9-8 13-9.2 6.4-3.3 22.7-12.1 32.4-9.7 7.7 4.9 23.8.7 31.5 7.2Z" opacity=".4"/><path fill="#3B754B" d="M298.6 106c-32.6 23.5-40 64.2-82.3 70.2a60.6 60.6 0 0 1-41.5-2.5s34.7 9.6 68.5-21.7c12-11.1 39.4-57.3 55.3-46Z"/><path fill="#2B6B40" d="M166.4 164.5c.6 2-.2 4-.6 6l-7.4-2.6c-6-.6-4.4-7.7-5.5-12.1 1.2 4 6.6 3.2 14-.2 0 1.7.2 3.4-.4 5-.3.9-.7 1.7-.6 2.5 0 .5.3 1 .5 1.4Z"/><path fill="#3E8E5B" d="M247 131c-.8-.4-1.6-1-1.8-2-1.3-5 7-9 3.9-14-5.2-8-19 18-8.9 24.8 2.9 1.3 6.3-.2 8.8-1.8 4.2-2.8 2.7-5-2-7Zm-65.6 30c-1.8 1.3-4 2.1-6.2 1.8-1-.2-2.4-.6-3.5-.2-1.2.4-1.7 1.6-.7 2.5 1.7 1.6 4.3 1.4 6.5 1.5 13.7 2 9.8-9 4-5.6Z"/><path fill="#3B754B" d="M288.7 102.4a59.2 59.2 0 0 0-11.6 6c-5.7 3.3-10.6 8.2-16.9 10.4-3.2 1.1-6.3-1.1-6.1-4.6-.2-6.2 5.2-10.4 7.7-15.7 2.1-.2 3.8-.2 5.3.4 5.2 2.4 14 3.6 21.6 3.5Z"/><path fill="#2B6B40" d="M285.7 102.3c-7.5 4.3-16.2 8.1-18.6-3.4a52.4 52.4 0 0 0 18.6 3.4Z"/><path fill="#245B34" d="M232.3 119.6c0 3.7-3 7.3-5 8.6 1.3 3.7-2.7 10.1-6 8.9.8 3.2-.3 7.2-2.7 9.7 2.6 6-2.3 9.7-2.3 9.7s6.1 6.1-.4 10c0 0 2.6 4-2 6 0 0 1.3 1.3 2.4 3.7A321.3 321.3 0 0 1 202 179s-6.4-46.4.7-46.5c3.4.4 3-4.5 2.2-6.4 3.2-2.6 4.9-6.5 5.4-10.6.5-1.9 2.6-2.3 3.8-3.7 2.2-1.8 2.8-4.6 4-7l.9 6.4a5.3 5.3 0 0 1 2 1.3l.2-.3c.3.3 1.7 3 2 4.5l8.3-6c.8 2.2.8 5.8.8 8.9Z" opacity=".4"/><path fill="#E8D4BA" d="M223.8 56.2c-.4 2.2-.6 22.7-1.8 27-1 3.9-11.8 20.3-28.3 21.9-16.4-.8-30.8-14.7-32.2-22.2-1-9.3-2.4-20.6-2.4-30.5 1-26.2 4-37.9 34.9-32.4 11.6 1.7 19.2-6.8 25.6 8.7a251 251 0 0 1 4.2 27.6Z"/><path fill="#CEB79B" d="M223 41.8c-1.4 13.8 0 27.9-2.8 41.4-.5 3.9-10 1.8-11.3 1.1-7.7-2.9-17-3.2-22.8-9.9-3.2-3.2-4.5-10 2.2-6 3.2 3 7.6.7 9.7-2.5.5-1.4-.8-2.8-1.5-4.1-1.3-2.5-.4-5.5-.8-8.3-.3-2.3-1.6-4.7-.7-6.9 3-4.9 11.4-5.5 12.7-11.6.3-3.2-3.5-5.5-4-8.7 2.3-1.9 11.2-7.5 13.3-4.2 2 6.5 5.4 12.8 6 19.7Z" opacity=".4"/><path fill="#CEB79B" d="M164.8 46.4c.6 0 7.1.1 16 4.3 3 2.1 6.8 2 6.6-2.5 3.5-4 7.6-2.4 10.4 1 2.6-1.4 21.5-11 16.5 1.4 4.7 3.6 5.7 19.7-2.4 27-3.7 3.4-12.8-5.6-12.8-5.6 1.4-1.4 1.1-3.5-2.5-1.8-2.2 1-1.8 2.5-4.5 2.7-2.6 0-3.8-3-5.6-3-1.8 0-1.7 2.5-1.7 2.5l5.1 10h32.2c0-1.9 0-6.2-1-8.9 2.6-11.7 2-28.2 2.2-28.1-.6-23.1-9-28.1-26.4-25.3-10.4 1.4-22.9-3.8-29.8-.7-5 3-9.4 25.8-7.6 28.4 3.5 7.3-3.9 18 2.3 28.4 1.2-.3 11 12.3 12 6.4-12-15-11.9-36.1-9-36.2Z" opacity=".4"/><path fill="#CEB79B" d="M168.8 41.6s2.5 6.2 6.6 7.1c4.2.9 8.5 4.5 10.5 3.2 3.5-2.6-.7-6.2 5.3-7.2 2.1 0 2.8-9-4.8-7-6.6 2.7-17-4-17.6 4Z" opacity=".4"/><path fill="#E8D4BA" d="M160.1 68.8a9.1 9.1 0 0 1-1.2 2.6l-.4.6c-.4.4-.9.8-1.4 1a2.5 2.5 0 0 1-3-.4l-.5-.5a6 6 0 0 1-.3-.4c-1.1-1.4-3-8-3.3-9.7-.6-3.1-1.3-7.9-.2-11.7 9-13 12.8 13 10.3 18.5Z"/><path fill="#CEB79B" d="M158.6 71.8c-2.5 3.4-6 .3-6.7-2.9.9.5 4.4 2 4.8 1.3 2.2-6.3 3.3-20-5-22.2 9.4-6.9 11.1 21 7 23.8Z" opacity=".4"/><path fill="#CEB79B" d="M156.8 58.5c0-.9 0-1.8-.4-2.8-1.2-2.6-2.2-3.2-4.1-3.8-1.1-.3-1.4 3.3-1 5 .6 2.3 2-2.1 2.8-1.8 1.6.5 0 5.3-.2 6.6-.2 1.4.6 2.8 1.2 4 .4.9 1 .8 1.4 0 .2-.2.2-.5.3-.9-.4-.7-1.7-1-1.5-2.2 0-1.2 1-3.4 1.5-4Z"/><path fill="#676D54" d="M155.3 73.4c0 1.1-.6 4.8-2.2 4-2-1 2.8-7.4 2.8-7.4s-2.6-4.5-6.3 1.8c-4.8 8.1 3.3 12 5.7 8 1.2-2 1.8-5.3 2-6.8l-2 .4Z"/><path fill="#474C2F" d="M155.3 73.4c0 1.1-.6 4.8-2.3 4-2-1 3-7.4 3-7.4l-.7-.7a34.8 34.8 0 0 1-1.9 3c-.8 1.2-1.6 2.6-2.7 3.5-.7.6-1.7 1-2.6.4-.3 5 5.2 6.8 7.2 3.6 1.2-2 1.8-5.3 2-6.8l-2 .4Z" opacity=".4"/><path fill="#474C2F" d="M155.3 73.4c0 1.1-.6 4.8-2.3 4-2-1 3-7.4 3-7.4l-.4-.3c-.8.5-1.4 1.6-1.9 2.4a11.1 11.1 0 0 0-1.6 4c-.3 1.5-.3 3.1.4 4.4l.6.9a3.1 3.1 0 0 0 2.2-1.6c1.2-2 1.8-5.3 2-6.8l-2 .4Z"/><path fill="#949984" d="M150 74.1a5.4 5.4 0 0 0 3-2 8.8 8.8 0 0 0 1.7-3.3c-1.1-.7-3-.7-5 3-.5.7-.9 1.4-1.1 2.2.4.2 1 .2 1.4.1Z" opacity=".7"/><path fill="#CEB79B" d="M156.8 58.6c-.7-.6-2.3 5.8-2.8 4.5-.6-1.8-2.6-2-4-1.1-.6-3.1-1.3-7.9-.2-11.7 4-2.7 8.2 5.7 7 8.3Z" opacity=".4"/><path fill="#CE8000" d="M211.8 19c-7.2 14-34 6.6-45 .4-2.4-1-5-2-7.1-3 8.2-15.4 40-2 52.1 2.5Z"/><path fill="#3E875B" d="M178.6 49.1c-1.9-.2-4.3-.8-6 .2-.8 1.3.4 3.2 1.5 3.9 2.5 2 7.8-2 4.5-4.1Z"/><path fill="#3B754B" d="M176 52.5c1 0 2-.9 2-2s-1-2-2-2-1.9.9-1.9 2 .9 2 2 2Z"/><path fill="#3E875B" d="M204.3 48.4c-3.5 2.2 2 6.2 4.5 4.2 1.2-.7 2.4-2.6 1.5-3.9-1.6-1-4.1-.5-6-.3Z"/><path fill="#3B754B" d="M206.8 52a2 2 0 1 0 0-4 2 2 0 0 0 0 4Z"/><path fill="#676D54" d="M199 52c.3 0 8.3-6.2 16.3-1.4.7.4 1.4-.7.7-1.1-9.1-5.5-16.6 1-17.3 1.2-.8.2-.5 1.6.3 1.3Zm-15.6.6c-.3 0-7.8-6.4-15.5-1.6-.7.4-1.3-.8-.7-1.2 8.8-5.3 15.9 1.3 16.5 1.5.8.2.5 1.5-.3 1.3Z"/><path fill="#F7F7F7" d="M172.5 51.2c.7 0 1.3-.4 1.2-.8 0-.4-.6-.7-1.2-.6-.7 0-1.3.4-1.2.8 0 .4.6.7 1.2.6Zm30.8.6c.7 0 1.2-.3 1.2-.7 0-.4-.5-.8-1.2-.8s-1.3.4-1.3.8.6.7 1.3.7Z"/><path fill="#C77500" d="M215.6 21.6c-9 8.8-35 5.1-45.4-.4-22.8 9.6-8.1-18 11-6.3 6 3.4 12.2 8.2 20.7 6.6 1.5-.3 15-7.6 15.1-5.6 0 2.3.5 3.7-1.4 5.7Z" opacity=".3"/><path fill="#C77500" d="M230.6 64.9c-4 0-2.8 7-6.5 7.8-2-16 .6-35.5-7.6-49.9a8.8 8.8 0 0 0-1-1.2l-.2.3c-4.5 5-14.1 4.6-20 4.6 2.3-2 10.3-10.5 6.8-15.2l2.2-1.2-6.5-3c7.2.5.2-4.3-3.5-6 18 .2 33.9 13.7 35 31.4.4 6.2.2 14.2 2.7 15.3.5 1.4-1 15.6-1.4 17Z"/><path fill="#E8D4BA" d="M233.1 53c.4 4.4-1 9-2.1 13.1-.4 1.8-.7 3.5-2 4.8-1 1-2.3 1.4-3.6.8-5.4-3.3-4.5-11.4-3.8-16.8.2-1.2.4-2.4.8-3.6v-.1l.1-.3.6-1.7c.9-2 2.9-5.3 5.5-3.7 1.4.9 3.2 1.2 3.7 3 .5 1.5.7 3 .8 4.5Z"/><path fill="#CEB79B" d="m229.2 68.2 1.4-.7a6.3 6.3 0 0 1-1.7 3.4c-.8 1-2.2 1.4-3.4.8-6.3-1.8-5.5-22.6.2-26.2 1.6-1 2.8-.4 4.5.8-3.5.4-5.7 6.6-5.7 10 0 3 0 10.1 1.3 12.6.3.5 2-.1 3.4-.7Z"/><path fill="#CEB79B" d="M232.7 49.7c-6.8 2-6.4 15.4-2.5 19.4a8 8 0 0 1-1.3 1.8c-.3.3-.7.7-1.2.9-7.8-2.8-7-13.6-4.8-20.1v-.1c1-2.5 2.8-5.7 5.1-6.4l.6.2c1.4 1 3.2 1.3 3.7 3.1l.4 1.2Z" opacity=".4"/><path fill="#CEB79B" d="M227 61.2c.2 1.1-1 1.5-1.5 2.3l.3.9c.4.8 1.1.8 1.5-.1.6-1.2 1.4-2.7 1.1-4.2-.2-1.2-2-6-.5-6.6 1-.3 2.6 4 3.1 1.8.4-1.8 0-5.4-1.2-5-2 .7-3 1.3-4.2 4-.4 1-.3 1.9-.4 2.9.7.5 1.7 2.8 1.8 4Z"/><path fill="#CEB79B" d="M233.1 53c0 2.9 0 5.4-.8 8.2-.9-1.6-3.5-.6-3.9.4-.2.4-.4 0-.8-.5-.7-1.4-1.8-4.4-2.4-4-1.2-1.9 2.2-11.2 7.1-8.6.6 1.4.7 3 .8 4.5Z" opacity=".4"/><path fill="#CEB79B" d="M226 65.5s-.2 1.6 1.6 2c1.7.4 1.8-2 1.8-2h-3.3Z"/><path fill="#676D54" d="M229.6 66a2 2 0 0 1-.8 1l-.5.1c-1 .2-2-.5-2.2-1.6a2 2 0 0 1 1-2c0-.2.3-.2.4-.3 1-.2 2 .6 2.2 1.6.1.5 0 1-.1 1.3Z"/><path fill="#474C2F" d="m228.8 67-.5.1c-1 .2-2-.5-2.2-1.6a2 2 0 0 1 1-2s-1.1 3.2 1.7 3.5Z" opacity=".4"/><path fill="#949984" d="M229.6 66c-3.3-.4-2-2.8-2-2.8 1-.2 1.9.5 2.1 1.6l-.1 1.3Z"/><path fill="#A05A07" d="M216 18.4c0 1 0 2.2-.5 3.3a13.2 13.2 0 0 1-7.4 4c3.8-5.4 5.3-14.4.4-21.6 1.7.9 3.4 1.5 5 2.6.8 2.3 2.6 8.3 2.5 11.7Z" opacity=".3"/><path fill="#A05A07" d="M206.5 26a53.8 53.8 0 0 1-5.5.4c1-1.8 5.6-9.6 5.3-14.4a31 31 0 0 0-1.5-9.2l1.6.5c2.2 3 2.5 6.3 2.9 8.6.7 4.7-1.4 11.6-2.8 14Z" opacity=".3"/><path fill="#CEB79B" d="M186.3 72c-1-.6-2.5-1-2.7-2.2-.1-.7.5-2.5 1.2-3 .5-.3 0-1.1-.6-.8-1 .7-1.7 2.7-1.6 3.8 0 1.5 1.8 2.2 3.2 3 .5.4 1-.4.5-.7Zm11-.2c-.5.4 0 1.2.6.8 1.3-.9 3-1.7 3-3.2.1-1.1-.6-3-1.8-3.7-.5-.3-1 .5-.5.8.8.4 1.4 2.2 1.4 2.9-.1 1.2-1.6 1.7-2.6 2.4Zm-1.1-16.1V54c0-1 0-1.9-.4-2.8a6.9 6.9 0 0 1 0-4 .5.5 0 0 0-.1-.5.6.6 0 0 0-.5-.2.5.5 0 0 0-.5.4 9.5 9.5 0 0 0-.3 2.8c0 .7.2 1.3.4 2l.3 1.8v2.9l.1 4.2c0 .3.3.4.5.4l.5-.2.1-.5c-.3-1.5-.2-3-.1-4.6Z"/><path fill="#CEB79B" d="M191.8 73.5c-1 0-2.3-1-3.1-2-1.3-1.3-2.5-1-2.6-1a.6.6 0 0 1-.4-1c0-.1 2-.8 3.9 1.2 1.1 1.2 2 1.6 2.5 1.5.6 0 1.5-.5 2-1 .7-1 2.2-2 3.5-2 .4 0 .7.2.7.5 0 .4-.3.6-.6.6-.8 0-2 .7-2.7 1.7a5 5 0 0 1-2.8 1.5h-.4Z"/><path fill="#CE8000" d="M225.9 71.8v1.7c-1 10.7 0 22.6-7.5 31.2-1.3 3.5-3 7-6.5 9-1.1 1-1.2 2.5-1.4 3.8a16 16 0 0 1-2.4 5.8c-3.6 6.1-10.7 6.3-17 5.8-9.1.6-14.2-5.6-16.5-13.8-3.4 1-5.4-4.7-6.9-7.2-8.1 4-10.5-27.1-11-32.4l.2-2.6c1.4-10 1.3-19.7 2.7-29.7.3-2.1-.7-6.4-1-8.5l.5-.5c1.1-1.4 1.7-3.4 2.5-4.9-.6 6.7-3.3 13.5-.7 20-.6.5-1.2 1.7-1.8 2.7v.2a.6.6 0 0 0 0-.1l1.8-1.4v2.8c-.3.3-.7 1.5-.8 1.9l1-.6c.8 5.8 0 19.8 7.3 21.3-.5 2.8.1 4 2.5 6.4.3-4.4 2.9-8.7 11-8.5-.7.5-1.7 1.8-1.1 3 .4-.6 3.5-4 5.3-2.9 6.4 2.3 15.4-3.4 17.6 2.3.6-.6 1.3-2 0-2.9 4-.1 9.8 1 9.7 7.4 4-2.1 5.2-4.5 4.5-7.7 4.9-.4 2.8-15.8 3.1-19.8l.9.6a4.7 4.7 0 0 0-1-1.9v-2.7l1.4 1 .6.3c-.6-1-1.4-2.3-2-2.7 2.3-7-.7-13.2-1.6-20 .9 1.5 1.5 3.4 2.7 4.8l.4.4c-.3 3.4-.1 7.3.7 10.6 1.7 8.7 1 17.6 2.7 26.3v1.5Z"/><path fill="#C77500" d="m226 72.2-.2 1.3c-.8 7.7-.4 15.8-2.5 23.3-1.5 3-3.4 5.8-5.4 8.6a11.2 11.2 0 0 1-2 4.7 14.6 14.6 0 0 1-4 3.7c-1.6 1.2-1.1 3.5-1.8 5.2a14.8 14.8 0 0 1-4.4 7.1 12.5 12.5 0 0 1-10.7 3c-4-.4-8.5.6-12.1-1.3l-1.6-1c-3.4-3-5.3-7.5-6.7-11.6-3.2 2-6.5-6.8-6.8-7.1-8.4 3.2-10.5-26.7-11-32.4V73c1.4-10 1.4-19.7 2.7-29.7.4-1.5-.5-6-.7-7.5.8-1.9 1.7-3.3 2.1-4.7.6 2.5-.5 5-.8 7.5-1 3.5 0 7.6.8 10.8-.6.5-1.2 1.7-1.8 2.7v.2a.6.6 0 0 0 0-.1l1.8-1.4v2.8c-.3.3-.7 1.5-.8 2l.9-.7c.4 6 .9 13.8 3.8 19.2a27.8 27.8 0 0 0 .7 21 46.7 46.7 0 0 0 5.5 8.7c.5-1 0-3.4.3-5 11.9 13.7 27.2 17.1 28.3-5.5 3.9 4.4 7.5 2 9.1-2.8 4.2 2.7 4-10 4.1-12.5.3.8.5 1.8.5 3 4.1-2 5.3-4.4 4.6-7.7 0 .2 1.6-.5 2-1l.5-1.3c.7-2.7.7-5.6.7-8.5v-9l.8.6a4.7 4.7 0 0 0-.9-1.8v-2.8l1.3 1 .6.4-.1-.2-.4-.6a6.6 6.6 0 0 0-1.5-2c2.3-6.8-.6-13.1-1.6-19.8 0 0 0-.2 0 0 .7 1.1 1.2 2.5 2 3.6l.7 1 .4.5-.6 6.6c0 2.8.8 5.6 1.2 8.4.5 3 .9 5.9.9 9 0 5 2 9.7 2 14.7Z" opacity=".3"/><path fill="#A05A07" d="M225.9 71.8c-.3 7.8-.4 12.6-1.6 20.1-1.3 7.7-4.1 10.1-6.4 13.4-.6 3.6-3 6.6-6 8.5-1.2.8-1.1 2.4-1.4 3.7a16 16 0 0 1-2.3 5.9 13 13 0 0 1-2.5 2.7c-3.3 2.9-6.4 3.5-10.6 3-4-.4-8.5.6-12.2-1.2a11.2 11.2 0 0 1-1.6-1.1c12-5 21.2-16 23-29 1.4 6.3-1.3 13.3-3 18.6 6.3-8.5 13.2-17.6 13.7-28.7 1.9 2.7.5 7 1.2 9.3a174 174 0 0 0 5-43.4l.8.6a5 5 0 0 0-1-1.9v-2.7a148.2 148.2 0 0 0 2 1.3l-.5-.8a7 7 0 0 0-1.5-2c2.1-6.9-.7-13.1-1.7-19.8 1 1.4 1.5 3.3 2.7 4.7l.5.4c-.3 3.5-.2 7.3.7 10.6 1.6 8.7.9 17.6 2.6 26.3l.1 1.5Z" opacity=".3"/><path fill="#995A07" d="M202.9 119.6c0-.8-1.3-.8-1.3 0a7.1 7.1 0 0 1-2 5.2c-1 1.1-2.6 1.7-4 2.2a8.2 8.2 0 0 0 2.4-5.9c0-.8-1.3-.8-1.3 0 0 2.4-1 4-2.7 5.7-.5.5 0 1.2.6 1 0 .4.3.9.8.7 2-.8 4-1.5 5.4-3.1a8.1 8.1 0 0 0 2.1-5.8Zm-11.1 6.7c-2 .1-4-2.8-4-4.6-.1-.9-1.4-.8-1.3 0a7.4 7.4 0 0 0 3.4 5.4c-.7-.2-1.5-.3-2.2-.7a9.4 9.4 0 0 1-2.7-2.1c-1.5-1.7-3-4-2.7-6.4.1-.8-1.1-1.1-1.3-.3-.3 2.6 1 5 2.5 7 .8 1 1.6 1.7 2.6 2.4l1.7.9 1.6.4c.7.3 1.3-.6.8-1 .5.2 1 .3 1.6.3.8 0 .8-1.4 0-1.3Z"/><path fill="#BA6F04" d="M205.2 147.8c.3 1.7-.5 3.4-1 5 .1 5-1.6 9.6-5 13-1.2 1-2 0-3.5.6-2.6.4-5.3-2-6.8-4.1a10.4 10.4 0 0 1-1.8-5.6c0-1 0-1.9.2-3-.1 0-.3 0-.4-.2-2.9-2-3-7.1-1-9.9a10.3 10.3 0 0 1-.8-10.8c-.7-1-1.6-1.8-2.3-2.4l20.3-1.7c.5 1.3.2 2.5-.2 3.9l.3.4c1.7 2.8 1.3 7 0 10.2 1.1 1.4 2 3.3 2 4.7Z"/><path fill="#C57802" d="M196.9 136c-1.4 1.7-3 5-1.7 6.3 1.4 1.2 5.3-.5 6.6-2 1.3-1.6 1.4-3.8 0-5-1.5-1.3-3.6-1-4.9.7Zm-7.8 1.5c1.3 1 3.2 3.6 2.3 4.7-.8 1-4.1.3-5.5-.8-1.4-1.2-1.6-2.8-.7-3.9.9-1.1 2.6-1.1 4 0Zm1.8 9.4c1.2 1 2.9 4.3 2 5.5-1 1.2-5.3 0-6.5-1-1.3-1-1.6-3-.6-4.2 1-1.2 3.7-1.4 5-.3Zm6.4-1c-1.4 1.7-3 5.1-1.7 6.3 1.4 1.2 5.3-.5 6.6-2 1.3-1.6.8-3-.6-4.2-1.3-1.2-3-1.7-4.3 0Zm-5 11.3c.8 1.6 2.3 5.5 0 6-1.1.4-3-2.4-4-4-.8-1.6-.4-2.7.7-3.2s2.4-.4 3.2 1.2Zm5-.8c-1.4 1.6-3 6.2-1.2 6.6 1.4.4 4-1.6 5.4-3.3 1.4-1.7 1.4-3.2.1-4.3-1.3-1-3-.6-4.3 1Z"/><path fill="#995A07" d="M189.9 136c1 1 1.8 2 2.6 3 1 1.3.7 3 .8 4.5 0 .8 1.5 1 1.4-1.1 0-1.5-.5-3-.2-4 .7-1.3 2-4.4 3.4-4.2.9.1.9-1.1.2-1.3-2-.2-3.7 3.5-4.7 5.1-1-1.1-1.9-2-3.1-2.8-1.5-.8-1 .4-.4.9Z"/><path fill="#995A07" d="M190.9 145.2c-.7-.2-2 0-1.5.6.3.2 1.7.3 2.5 1.3 1.5 1.6 1.7 3.9 1.9 5.9 0 .8 1.1 2.3 1-.2-.8-3 2-8.6 3.4-8.6.8 0 .7-1.2-.1-1.2-1.7 0-3.4 2.9-4.1 4.4-1-1.3-1.6-1.8-3.1-2.2Z"/><path fill="#995A07" d="M191.7 156c3 1.1 1.6 5.4 3.4 8.8-.2.9 1 1.6 1.2.7-1.4-2.8-1-4.8-.4-7.1 0 0 1-4.2 3.5-4.2.8.2 1-1 .3-1.2-3 .2-4.3 3-4.6 4.3-.8-.9-.8-1.5-1.8-1.9-.8-.4-2.8-.3-1.6.7Z"/><path fill="#D58500" d="M199.3 140.4c-2.2 1-3.3.3-3-.7.4-1 1.6-3.5 3-3.6 1.5-.2 3.7 2.5 0 4.3Zm.1 10.8c-2.6 1.3-4 .4-3.5-.8.5-1.2 2-4.2 3.7-4.4 1.7 0 4.3 3.2-.2 5.2Zm-1 10.2c-2 .9-2.8-.2-2.2-1.3.5-1.2 1.9-4 3-3.8 1.3.1 2.5 3.7-.8 5Zm-8.3-.7c1.5.8 2.2 0 1.8-1-.3-1-1.2-3.2-2.2-3.1-1 .1-2 2.8.4 4Zm-1.3-9c2.7 1 3.8-.1 3.3-1.2-.6-1.2-2.4-3.8-4-3.7-1.6 0-3.8 3.4.7 4.9Zm-1.3-10.3c2.2.8 3.2 0 2.7-1-.5-.8-2-3-3.4-3s-3 2.7.7 4Zm13.2 44.2c-.2 1 0 2 .5 2.8-5.4-2.7-10.4-8.7-9.4-15 0-.5.2-.9.4-1.3l.6-1.2.2-.4c0-.6-.6-1.6.4-1.8 13-1.4 9.3 10.2 7.3 17Z"/><path fill="#A05A07" d="M200.7 185.6c-.2 1 0 2 .5 2.8a16.2 16.2 0 0 1-3.3-2c3.5-5.5 1.6-14-6.1-12.8v-.3l.4-1.2c1.3-2.4 6-4.7 8.5-3.8v1.4l.3.4c4.3 3 0 13.2-.3 15.5Z" opacity=".3"/><path fill="#A05A07" d="M202.8 176.5a8.7 8.7 0 0 0-2-2.5 8.8 8.8 0 0 0-2-1.3 10.8 10.8 0 0 0-3-1.1c-1-.2-2.1-.3-3.2-.3h-.2l.2-.2.2-.1a20.7 20.7 0 0 1 3.6-2.1l.3-.2a8.8 8.8 0 0 1 3.5-.6H200.5v.1l.1.1v1.1a1 1 0 0 0 .1.1V169.9l.1.1c0 .1 0 .2.2.3l.2.1.3.3.4.5.1.3.2.3.2.3v.3l.1.2c.3 1.1.3 2.5.2 4Z" opacity=".3"/><path fill="#995A07" d="M201 175.3c-.2-1.7-.6-4.1-2.4-4.8-.8-.2-1.4 1-.6 1.2 1.4.5 1.6 2.6 1.8 3.9.2 2.2-.2 4.2-1 6.2-.4.7.7 1.3 1 .5a13.3 13.3 0 0 0 1.2-7Zm-4.4-5c-.5-.7-1.4.1-1 .8 1.1 1.9-.7 3.6-1.9 4.9-.5.6.5 1.4 1 .8 1.7-2 3.4-4 1.9-6.5Z"/><path fill="#00C55E" d="M206.2 130.4c-.3 1.4-1 2-2.4 1.9l-19 .4c-3.5.8-3.5-4-2.6-6.3l23.5-.5v.2a7.7 7.7 0 0 1 .5 4.3Z"/><path fill="#06B253" d="M206.2 130.4c-.3 1.4-1 2-2.5 1.9l-20.4.4c-.7-.2-1.1-1-1.4-1.6 3.4.4 6.9-.3 9.8-2a6.2 6.2 0 0 0 2.4-3l11.6-.2v.2c.6 1.3.8 3 .5 4.3Z"/><path fill="#00C55E" d="M202.1 169.2c0 .5 0 1-.4 1.5l-9.3.6c-1.2-1.6-1.5-4.3-1.3-6.2 4-.4 6.7-.4 10.6-.6a16 16 0 0 1 .4 4.7Z"/><path fill="#06B253" d="M202.1 169.2c0 .5 0 1-.4 1.5l-9.3.6a3.9 3.9 0 0 1-.8-1.5c1.6-.5 5.3-4.2 5.8-5.1l4.3-.2c.4 1.5.5 3.3.4 4.7Z"/><path fill="#A05A07" d="M183.8 82.9s2.1-2.1 7.5-3.4c2.5-.5 9.6-.3 9.6.4 0 .6-11.1 2.3-17.1 3Zm12.1 4.4s1.1 1.2-.9 2.2c-.8.4-1.8.4-2.6.2-.8-.3-2-1-2.1-1.4-.1-.5 4 .8 5.6-1Z" opacity=".3"/><path fill="#995A07" d="M195.5 86.8c-.4.6-1.8.5-2.3.5-.8 0-1.7 0-2.5-.3-.8-.2-1 1-.2 1.3 1 .3 2.2.3 3.3.2.8 0 2.1-.1 2.7-.9.4-.6-.5-1.4-1-.8Zm7.2-8.5c-1.6 3.8-23.6 2.1-19.9 4.6 1.9 0 20.9-.6 19.9-4.6Z"/><path fill="#C77500" d="M191.4 26.4c-7.5.3-14.3-2.6-21.3-5.2-8.8 2.7-10 20.3-11.6 29.4 0 0-3-13-3.6-14.7l4 1s-2.4-6-1.3-6.3c5.8-1.1.5-10 .5-10l4 1.7c.1-3.6 5.7-6.6 9.3-4.5a67.4 67.4 0 0 0 20 8.6Z"/><path fill="#CE8000" d="M215.4 39.7c-4.5-.8-12.5 1-17.2 2.4l.1 2-1.3-1.5c-2.2.8-2.2 1.6-1 3.3 2 3.4 1.8 3.1 2.8 3 6.5-3 14-4.6 17.8-4.5.4-.5.6-4.4-1.2-4.7Z"/><path fill="#A05A07" d="M215.4 39.7a20 20 0 0 0-4.1-.2v1.1a9 9 0 0 1-1.4 4.6c2.6-.6 5-.8 6.7-.8.4-.5.6-4.4-1.1-4.7Z" opacity=".6"/><path fill="#C77500" d="M215.4 39.6a22 22 0 0 0-5.8 0c-.5 1.2-4.5 6.4-4.9 2.7-.7 1.7-5.9 5.7-6.9 6.5.3.2.5 0 1 0 6.5-2.9 13.9-4.5 17.8-4.4.4-.5.6-4.4-1.2-4.7Z" opacity=".5"/><path fill="#CE8000" d="m183.8 42.6-1 1.3.1-1.6a39.6 39.6 0 0 0-17.1-1.2c-.3 0-.9 4.6.5 4.5h.2l.8-.5c1.9-.8 3.7-.6 3.7-.6l-1.3 1.4c4.8.7 12.3 2.6 14.4 3.3 1.3.4 2.5-1.6 2.9-3.5.5-2.4.2-2-3.2-3Z"/><path fill="#C77500" d="m183.8 42.6-1 1.3.1-1.6-.7-.2a21 21 0 0 1-12.1 3.3l-.4.5c4.7.7 12.3 2.6 14.4 3.3 1.3.4 2.4-1.6 2.8-3.5.6-2.4.3-2-3-3Z" opacity=".5"/><path fill="#A05A07" d="M185.3 43a8 8 0 0 1-2.7 4l-1.6 1.3 3.1.9c1.3.4 2.4-1.6 2.8-3.5.5-2 .3-2-1.6-2.7Z" opacity=".6"/><path fill="#9EA58E" d="M88.5 197.3 60 160.8c-8.1-.3-20.6 28.9-23.3 36.6 5.7-3.8 22.8 9.7 32.5 18h.4l6.4-10.7 2.3 1.4 1.4-2.3 2.2 1.4s6.3-8.4 7.2-10l-.6 2Z"/><path fill="#9EA58E" d="M69.9 215.4a53.9 53.9 0 0 0 18.3-18.8l-28.5-36.3c-8.1-.3-20.6 28.8-23.3 36.6 5.8-4 23.6 10.3 33.2 18.6l.3-.1Z"/><path fill="#B1B7A5" d="M53 187.3c-5.8-5.6-12.4-.8-11.5 3.5.5 2.5 3.2 4 5.5 4.5 8.2 1.7 9.3-4.7 6-8Z"/><path fill="#949984" d="m88.2 196.6-28.5-36.3c-3.6-.2-12.2 13-16.3 20 16 3.6 24.2 15 17.8 28.2a234.4 234.4 0 0 1 8.4 7c7.8-4.4 14-11.3 18.6-19v.1Z" opacity=".4"/><path fill="#949984" d="m88.2 196.6-28.5-36.3c-3.5-.2-11.1 12.1-15 18.7 17.1 3.7 27.6 18.7 32.4 31a59 59 0 0 0 11-13.4Z"/><path fill="#9EA58E" d="m92.7 192 12.8 1.4-23-50.4A75 75 0 0 0 33 179.4c22-2.7 49.5 15 58.2 26.3l1.5-13.7Z"/><path fill="#9EA58E" d="M91.3 206c4.7-3.2 10.8-6.9 14.8-10.8L82 142.4a75 75 0 0 0-49.5 36.4c22.7-2.8 51 16 59 27.2Z"/><path fill="#B1B7A5" d="M57.7 167.8c-6.4-2.1-17.6 3-21.7 10.7 7.4-.2 15.2 1.6 22.6 4.5 2.5-5.5 4.8-13.3-1-15.2Z"/><path fill="#949984" d="M81.9 142.3c-.8-.3-18.8 4-34.1 17.2 11.4 2.6 23.4 11.2 31.7 35.1 5.3 4 9.5 8 11.8 11.4 4.7-3.2 10.8-6.9 14.8-10.8L82 142.4Z" opacity=".4"/><path fill="#949984" d="m106.1 195.2-24.2-52.8c-.7-.4-14 2.7-27.5 12 19.8 9.5 34.8 27 44.7 46.2 0 0 7.3-4.8 7-5.4Z"/><path fill="#9EA58E" d="M128.4 194.4s3.6-2.7 5.2-4.3c-2.9-17.8-33.1-64.1-33.1-64.1-23.7-.6-48.4 7.2-60.5 21 32 2.4 55.7 28 67 53.2.6 0 20.6-6.2 21.4-5.8Z"/><path fill="#9EA58E" d="M133.4 189.1c-2.9-17.8-33.1-64.1-33.1-64.1-23.7-.6-48.4 7.2-60.5 21 32.3 2.4 56.3 28.8 67.5 54.2 14 0 24.5-9.5 26-11Z"/><path fill="#B1B7A5" d="M66.8 141.8c-6-2.5-17.8.9-22 4.8a68 68 0 0 1 24.8 9.1c3.3-5.3 2.5-11.6-2.8-13.9Z"/><path fill="#949984" d="M100.3 125a98.4 98.4 0 0 0-42.2 8c15.7 5.7 33.2 20.8 33 41.4a107.3 107.3 0 0 1 16.2 25.8c9.7-.3 19.2-4.2 26-11-2.8-18-33-64.3-33-64.3Z" opacity=".4"/><path fill="#949984" d="M100.3 125c-13.3-.4-27 2-38.5 6.5 16.8.7 50.2 41.1 56.1 66.9a37.2 37.2 0 0 0 15.4-9.3c-2.8-17.8-33-64.1-33-64.1Z"/><path fill="#9EA58E" d="M52.4 128.4c-.6.3-.2.8-.9 1.1 33.5-2 65.4 24 76 65.1h.2l15.8-1.4-7.2-80c-20.4-2-58.3 4.6-83.9 15.2Z"/><path fill="#9EA58E" d="M146.5 194.4c7.6-17.6 16-59.6 2.9-77.5-8-10.8-64.4-3-98 11.6 33.8-2 66 24.3 76.3 66.2 8 .6 13.8.4 18.8-.3Z"/><path fill="#B1B7A5" d="M95.6 134.7c-1.9-1.4-4.1-2-6.4-2.2-2-.2-4-.2-6-.8a6.3 6.3 0 0 1-4-3.7c-.7-1.8-1.7-3.7-3.5-4.6a8.3 8.3 0 0 0-5-.7c-2.4.3-4.6 1-6.8 1.7a54 54 0 0 0-9.7 4 66.3 66.3 0 0 1 43.5 16.2l.6-1.4c1-3.2 0-6.5-2.7-8.5Z"/><path fill="#949984" d="M149.4 116.9c-4-5.5-20.4-6.2-39.9-3.6 2.8 11.9 1 25.8-8 34.8a95.5 95.5 0 0 1 26.1 46.6c8.1.6 13.9.4 18.9-.3 7.6-17.6 16-59.6 2.9-77.5Z" opacity=".4"/><path fill="#949984" d="M142.3 169.4c-1.3 9-4 18-8.7 25.6 5.1.2 9.2 0 12.9-.6 7-17.8 23.3-80.8-10.6-82.2a144 144 0 0 1 6.3 57.3Z"/></svg>