<svg xmlns="http://www.w3.org/2000/svg" width="200" height="200" fill="none"><path fill="#ce8000" d="M67.4 74h66.2c.2-.3-1-3.8-2.2-4.7a45.2 45.2 0 0 1-12.2-21.6S115 26 115 24a16 16 0 0 0-5.6-10.2c-4.4-4-11.4-3.4-16.9-2.4-8.5 1-15 9.6-14.4 18.8C79 46 72 62.7 67.4 74z"/><path fill="#c77500" d="M108.7 20.3zm0 0zm0 0zm0 0zm1.2-1.1zm0 0zm-1.2 1.1zm0 0zm1.2-1.1zm0 0zm-1.2 1.1zm0 0zm0 0zM131.4 69.3c-18.7-16.1-11.5-46-22.1-55.5-7.4-6.6-23.3-3.4-28.4 5.5 0 5.9.2 28.4-2.5 33.3.9-1 1.8-2.5 2.7-3 1 11.9-11.5 21.9-13 22.8l-.7 1.6h66.2c.2-.3-1.1-3.8-2.2-4.7z" opacity=".3"/><path fill="#c07500" d="M131.4 69.3c-9.9-8.7-12.7-22-14.8-35.1H85c-4.3 3-1.8 14.2-1.7 17 .2 7-4.3 10-4 15.5.7-.9 1.6-1.6 2.6-2 .1 1.7 0 7.3-1.3 9.2h53.1c.2-.2-1.1-3.7-2.2-4.6z"/><path fill="#a05a07" d="M80.4 75.3c4.8-5.2 4.4-11.1 4.2-12-.6-3.2 2.6-4.7-1.4-13.8-1.3-3 .2-7.8 3.3-9.2 11.2-4.9 12.8 21 13.9 33.6zM126 74h-10c-9.2-9.1-4.2-26 3.2-26.7.5 2.6 3.3 11.5 5.8 14-2 4.3-.6 9 1 12.7z" opacity=".6"/><path fill="#bbb99d" d="M89.4 72s-1-.2-2-1l.3 1.4c0 .2-1.8-.9-1.7-3.9v-.4c0-.6.2-1.1.3-1.5.2-.8.6-1.4 1-1.6 1-.4 1.9-.3 1.9-.3s.4 7.4.2 7.4z"/><path fill="#e8d4ba" d="M121.2 77.2c-6-7.5-8.7-10.8-7-27.4.1-1-22-11-24.4-8.5 0 0 .4 28.8-6 32.4 0 0 34.3 4 37.4 3.5z"/><path fill="#ceb79b" d="M121.2 77.2c-3 .5-36.7-3.4-37.3-3.5 1.8-1 3-4.2 4-8.1 7.3 6.2 3.3-5.8 1.2-8.6.4-4.4.7-12 .7-15.7 2.4-2.4 8.4 1.3 11.5 2.6 1 .4 7 2.7 10.5 4.3 1.4.7 2.4 1.3 2.4 1.6-1.3 11.6-.7 19 7 27.4z" opacity=".4"/><path fill="#ceb79b" d="M121.2 77.2a509.4 509.4 0 0 1-37.3-3.6c1.6-.9 2.8-3.4 3.6-6.7l1.8 1c1 .7 2.1 1.1 3.2 1 1.5-.2 1.6-1.8 1.5-3-.2-1.8-.8-3.4-1.4-5l-.7-1.8-.5-1.6-.4-1-.7-1.2-1-1.6v-.5c.5-6.5.4-12 .4-12 2.5-2.4 24.6 7.6 24.5 8.6-1.7 16.6 1 19.9 7 27.4z" opacity=".4"/><path fill="#255d36" d="M170.9 180.7a93.6 93.6 0 0 1-25.4 8.8c-34 6.1-90.6 8.5-117.4-15.7.3-4.4.8-8.8 1-13.2 2.2-24 4.2-48.2 6.1-72.3 14-.5 113-1.2 119.9-1.5 1.7 1.7 8 34.7 10.6 51l5.2 42.9z"/><path fill="#3e8e5b" d="M177 176.5c-4 3.4-9.3 6-14.4 8-.7-9.1-1.5-18-2.4-27-1.3-12-2.5-23.9-5-35.6l11.1-12.8a732 732 0 0 1 10.6 67.4z"/><path fill="#3b754b" d="M177 176.5c-1.7 1.5-4 3-6.4 4.3-1.6-5.2-3.5-19.4-10-18.7-1.3-12.6-2.5-25.3-5-37.8l-.5-2.4 4.2-7 2.7-4.3 3.5-5.8a811 811 0 0 1 11.4 71.7z" opacity=".7"/><path fill="#3b754b" d="M175.2 161.9c-7-21.3-16-16.2-16.3-16.4-1-8-2-15.9-3.8-23.6l11.2-12.9c3.6 17.5 6.6 35.4 9 52.9z" opacity=".7"/><path fill="#3e8e5b" d="M52.2 187c-10-2.9-20.5-8.2-24.2-13.3l5.7-67.7 18.7 2.6c.8 7.9.2 60.4-.2 78.4z"/><path fill="#3b754b" d="M52.2 187c-4.6-1.4-9.3-3.1-13.4-5.2a72 72 0 0 0-8.2-38.8l3.1-37c6.2.9 12.6 1.7 18.7 2.7.8 7.8.2 60.3-.2 78.3z" opacity=".7"/><path fill="#949984" d="M167.4 149.9c-1.7 16.7-4.6 26.1-28.1 18.6l-4.6-4.3 20.9-40.2 7.3-14.1 3.7.3 2.5 13.2c.2 3.8-1.1 21.4-1.7 26.5z" opacity=".6"/><path fill="#255d36" d="M166.2 89.7s1.4 4 .4 5.8-4-7.5-4-7.5z"/><path fill="#c5cab9" d="m169.2 104.3-.9 9.6c-.8 8.1-2 16.2-4.9 23.7v.1c-10.7 29-32.6 22.6-45.2 5.7-1.4-5 20.8-7.5 20.3-15-.8-5.1-7.5-27.7-6.8-34 4.5-19.7 30.6-17.2 36.3 1.6.6 2 1.3 5.8 1.2 8.3z"/><path fill="#c2c2ac" d="m169.2 104.3-.9 9.6c-9.7.2-17.5 16.7-17.5 16.7s7 1.1 12.6 7.1c-10.6 28.9-32.6 22.6-45.2 5.6-1.3-5 20.9-7.4 20.4-15-.9-5-7.5-27.7-6.8-34 4.5-19.6 30.5-17.1 36.2 1.7.6 2 1.3 5.8 1.2 8.3z" opacity=".4"/><path fill="#c2c2ac" d="M169.2 104.3c0 1.2 0 2.5-.3 3.8-12-5.1-23 13.7-23 13.7-5.3-8.2-21.6-48.4 13.8-37.4 6 4 9.6 12 9.5 19.9z"/><path fill="#c5cab9" d="M169.2 104.3c-6.5 1.3-26.7-12.7-5-15.8.4.5 3.2 5 4.4 9.6.4 2.1.6 4.1.6 6.2z"/><path fill="#c2c2ac" d="M142.2 123.7c3.2 5.4 4.1 3.3 6.3 7 2.3 3.9 5.2 8 6.2 4.4 1-3.6-4.7-8.5-6.7-9-2-.6-5.8-2.4-5.8-2.4z"/><path fill="#bbbba5" d="M143.2 124.1c2.4 4 5.7 3.6 7.5 6.4 1.8 2.7 3.2 6 3 3.2 0-3-2-6.2-4.3-7.2-1.5-.7-6.2-2.4-6.2-2.4z"/><path fill="#ccd1c0" d="M168 116.8c-.5 4.9-1.2 9.5-2.3 13.8-1.5-1.8-3.8-5.3-3.3-9.1.8-5.6 5.5-4.8 5.5-4.8zM169 100.4s-7.1-1.3-7.6-4.4c-.5-3.2 5.2-2.9 5.2-2.9.7 1.3 2 4 2.4 7.3z"/><path fill="#c6c7b3" d="M64.7 189.7c2.6-8.5 11.7-22.7 10-31-.9-2.8-10.1-32.4-11-36.7-1-5.3 1.1-34.5 7-37.6-8-12 8-8.9 15.8-15.7 1-1 11.6 15.2 23.3 4.9 2.8-2.6 35.1 13.8 35.7 14.5 3.7 18.3 0 38.3-6.3 55.8-11.6 25.8.3 24.7 8 45.2-18.8 5.4-55.4 6-82.5.6z"/><path fill="#c2c2ac" d="M87.1 90.3c8-.3 16.7-4.8 18.5-13.3-9.2 6.7-18.7 5.9-22.2-6-1.2.7-2.8 1.5-5 2.1-.5.1-2.2 17.6 8.7 17.2zM139.2 144c-4.8 10.7-5.6 16.8-4.3 21.6-20 1.7-40.4 1-60.4-1.3.4-2 .5-4 .1-5.6l-4.3-14.3c33.8 6.4 70.6-16.3 53-54.1-.4-2.5 22-2.5 22.2-2.3 3.8 18.4 0 38.4-6.3 56z"/><path fill="#bbb99d" d="M146.6 107.4c-1.6 8.4-5.7 27.5-5.8 27.2 0 0 4-25.8 4-29.8-.2-10.5-7-7.2-10.5-6.4-21 5-48.8-.4-57.5-12.3-.2-.3 1.2-12.9 1.5-13 1.6-.4 2.9-1 4-1.5a45.9 45.9 0 0 1 5.5 18.7c-.3 0 9.8-.3 31-18.1.2-.2 20.5 10.6 22.4 10.3 9 5 6.6 18.5 5.4 24.9z"/><path fill="#bbb99d" d="M127.5 134.6c-15.6-9.7-32-18.4-45.5-31.1 1.3-1.8 2.3-3.7 3.4-5.6 6.2-11.2-5.5-9.7-7.3-10.9-1.1-.9-18.2 9-15.3 13.8 3 8.9-2.5 20 3.8 27.9 1.8-2 4.2-3.3 6.8-3.8-6.6-.8-6.4-9.1-4.7-14 3.7.2 7.6-1 10.4-3.4 2.6 2.4 7.5 3.4 7.6 7.5-2 8.6-15.5 12.7-18 21-1.8 10.6 8.2 20.7 5.5 31.3H135c-4.2-20.5 12.9-17.8-7.5-32.7z"/><path fill="#c6c7b3" d="M117.4 149.5c-7.5.1-35.8 9.9-42.6-1.4-7.1-11.9 19-31.7 19.2-31.6 0 0 11.7 9.1 17.3 11.5.2-.6-.5 15 6 21.5z"/><path fill="#ccd1c0" d="M113 193.3c-16.3.8-30 1-48.8-3A42.2 42.2 0 0 1 71 177c5 1.7 8 6.8 12.8 8.8 9.6 3.4 21.4-2.2 29.1 7.4z"/><path fill="#bbb99d" d="M135.3 185.3c-16.1-10-32.7-8.1-49.8-7a12 12 0 0 1-6.3-1c-2.4-1.4-4.3-4.7-7.4-4 2-3.8 3-8.2 2.7-12.6 18.1 5 40.1 4.6 58.6.8 1.3.3 1.5 2.8 1.8 3.9 1.9 8.7 10.2 14.7 12.2 23.3-.2.2-7.5-.8-11.8-3.4z"/><path fill="#c5cab9" d="M82.7 129.4c-2.5 2.7-8.9 8.3-3.5 13.1s24.4 7.6 27.2 2.7c2.8-4.8 4-12.6-.5-15.9-6.6-4.8-8.7-10.8-13.6-10-4.2.6-6.3 6.5-9.6 10z"/><path fill="#ccd1c0" d="M73.8 111.4c-2.4-.5-4-.5-3.4 2.9.3 1.6 0 4.5 2.6 3.8.7-.3 2.9-2.4 3.2-3.2.6-1.6-.8-3.4-2.4-3.5zM92.3 135.7c2 1.5 3.4 2 4.2-1.3.3-1.7 1.8-4.2-1-4.5-.7 0-3.6 1-4.1 1.7-1.2 1.3-.6 3.4.9 4.1zM120 103.2c-4-1.5-20.7-1.1-22.5-3.1-3.3-3.7-5 1-1 2.4 3.6 1.5 6.2 4.5 9.5 6.6 16 10 19-3.6 14-5.9z"/><path fill="#ccd1c0" d="M95.7 124.8c1.2-4.4-5.8-5.4-7.9-1.4-1.4 2.8-2.9 5.6-5.2 7.9-3 3.3-2.7 8.4 1.8 10.1 2.3 1 4.3.5 5.6-1.5 2.3-3.8-3.8-5.3-1.2-9 .6-.8 6.5-5.2 6.9-6.1zM103.1 74.2c0 .1-1.6 2.7-6 4.1-2.4.7-5 0-6-.6-4.8-3.1-5-7.1-5.1-8.8-.2-2.8 1.2-4.4 2.2-4.2-1 .3-1.1.9-.5 2.1 1.3 2.9 6.2 4.9 15.4 7.4z"/><path fill="#3d8455" d="M166.2 89.7c-.2 0-8.5-2.7-15-1.1-7.1 1.8-13.5 5.5-20.6 7.4-12 3.6-24.9 1-36.8-1.8-3.6-1.1-7.6-1.7-11.2-3.3-.7-1.6-.6-3.5-1-5.2 1.3 8 35-18 35-18.1 9.2 6 17 2.5 25.6 6 1.7.8 3.2 2 5 2.6 2 .8 4.2 1 6 1.8 3.4 1.4 6.6 3.2 9.2 5.5 1.9 1.7 3.8 4.8 3.8 6.2z"/><path fill="#3b754b" d="M118.9 68.8c-5 6.3-13.2 9.7-20.1 13.3-4.7 2.2-10.5 4.9-10 10.8-2-.5-4.1-1.1-6.2-2-.6-1.6-.6-3.4-1-5 2 7.2 35-18.2 35-18.3l2.3 1.2z" opacity=".4"/><path fill="#3e8e5b" d="M129.8 86.8c-4.2-2.2 3.1-6.2.6-9.1-3.4-4.3-10.8 10.8-4.5 14.3 3.4 1 10.5-3.5 3.9-5.2zM97.5 89.9c-3 1.3-5.6-1.8-6.7-.2-.3 2 5.5 3.3 7.2 3.4 3 .2 3-4-.5-3.2z"/><path fill="#3b754b" d="M159.4 81.2c-8.5-.5-16.3 4.4-24.7 5.2-4.8-.1-3.7-5.7-1.1-8.1 1.8-2 4-3.4 6-5.2l.3-.4c2.7.6 4.8 2.5 7.3 3.5 4.3 1.2 8.6 2.4 12.2 5zM114.9 77c-3.8 1.5-12.7 6-10 9.7 6 8.8 26.7-15 26.7-15a27 27 0 0 1-9.5-1.6c0 3.6-3.8 5.6-7.2 7zM166.2 89.7c-24.4-7.4-30.9 16-69 5.2 3.2 0 6.3-1 9.6-.8 7.4.5 14.1 2.3 21.4-.2 11.6-3.4 22.1-11.8 35-9.6 1.5 1.6 3 4.2 3 5.4z"/><path fill="#2b6b40" d="M143.5 74.3c-2.8 7.4 8.6 1.9 14.2 5.8-4.7-3.3-9.8-2.7-14.2-5.8zM87.5 92.4c.3-1 .7-2 .2-3.1.1-1.1.5-2.1.3-3.2-1.9.5-5.6 2.4-6.3-.4 1 5.6-.5 5.2 5.8 6.7z"/><path fill="#3e8e5b" d="M102.3 88.8c0-.5-.7-1-1.6-1.1-.9-.1-1.6.2-1.7.8 0 .5.6 1 1.5 1.1 1 .1 1.7-.3 1.8-.8zM138.3 170.2c0-4.4-4.4-6.7-3.1-10.5.8-1.8.3-3.8 1-5.6 4-6 2.6-5.9-4.9-3.5-2 .5-3.8-.4-5.8-.3-2.1.3-4.1.9-6.3.7-3.3-.3-6.6.4-10 .9-3.2-.6-37.6-2.8-38.5-3.5-.8-.5 2.3 13.2 2.6 15.3.2 2.1-1.6 3.9-1.4 6.1-.2 1.5-3 2-1.1 3.6 4.6-2.5 4.6 2 9.2 1.8 3.7.1 8 1 13.3.7 2-.1 4.1-.6 6.3-.5 2 0 4 .6 6 .6 2.1 0 4.1-.9 6.2-1.2 11.3-1.8 5.6.6 13.8-1.2 2-.5 3.8-1.5 6-1.3.9 0 1.8.2 2.7 0 1.4-1 4.3.7 4-2.1z"/><path fill="#3b754b" d="M136.6 165c-1.1-1.5-2.2-3.4-1.4-5.3.8-1.8.3-3.8 1-5.6 4.3-6.5 1.9-5.5-5.2-3.5-1 4.1-6.7 5-6.1-.2-1.7.3-3.3.7-5 .6-.1 2.1-1.5 4-3.2 5.4-6.6 5.8-26.1 6.2-34 4.6-14.3-3-10.5 9.5-12 10.4 5.9-1 26.2 4 30.7 4 2-3.7 6.5-3.8 8.7-.3 10.3-2.2 8.4.2 15.6-1.5 2-.5 3.8-1.5 6-1.4a8 8 0 0 0 4-.4c.9 0 3 .7 2.7-1.7-.3-1.8-.8-3.4-1.8-5z"/><path fill="#d58500" d="M136.7 165c.3-.2 1-.5-.6-1.4-.2 0 0-.4 0-.5.2-.7-.1-1.7-1-1.7-25.2 3.7-54.6.7-63.6-2-1.1.4-.5 1.7.2 2.3-3 8 54.6 8.1 65.1 4.3.6-.2.3-.8-.1-1z"/><path fill="#a05a07" d="M137 166c.3-.4 0-.8-.3-1 .3-.2 1-.5-.6-1.4-.2 0 0-.4 0-.5.2-.7-.1-1.7-1-1.7-9.7 1.4-21.8 1.8-32.6 1.6-6.3 2-12.8 3.7-19.5 3.8 11.8 1.5 30.1 2 42.4 1.1 2.3-2.7 8.6-4.7 11.6-2z" opacity=".3"/><path fill="#a05a07" d="M135.2 161.5c-4.6.6-9.7 1-15 1.3-.1.1-9.2 5.4-9.2 5.6 4 0 7.9 0 11.4-.2a168.7 168.7 0 0 0 13.2-6.7h-.4z"/><path fill="#d58500" d="M73.2 164.4c-.4 0-1 .2-1.2.5-.5.5-.5 1.7-.7 2.4-.2.7.3 1.5 1 1.9.7.4 1.6.5 2.4.6 21.8 3.1 48.3-2 59.8-8.2 1.1-.6 2.3-1.5 2-2.6l-.3-.6c0-.5.8-1 .7-1.5 0-.4-.5-.6-.9-.5-.4 0-.7.2-1.1.5-8 5-40.8 12.2-61.7 7.5z"/><path fill="#a05a07" d="M136.2 158.3c0-.5.8-.9.7-1.4 0-.4-.5-.6-.9-.6-2.1.9-3.5 2-6.5 3-.4 3.1-4 4.2-4 3.1-.1-.5-.2-1.5-.9-1.6a122 122 0 0 1-15.4 3.4c-8.7 5.6-29.8 8.4-35.8.2-.5-.1-1 .1-1.4.5-.5 1-1.2 3 0 4 3.3 2.4 32.3 3.5 54.1-3.7-.5-1 .9-1.5 1-.3 2.3-1.1 11-3.4 9.1-6.6z" opacity=".3"/><path fill="#949984" d="M134.6 155.4c.6.7.8 4.4-1 5.5-.7 1.1 1.8 4-1.9 5.7-3.7 1.7 1.8 4.1-9 6.2-13.7 3.3-21-5-29.5-1 0 0-2 1-6-.1-4-1-15.7 7.5-22 6.9-27-2.7-26-43.4-26.4-60.8 4.9 4.8 6.6 14 14 21.5 6 5.8 11.5 11.5 15.3 15.3 18.3-2 42.6-3.4 63.6-8 2.4.7 4.8 3.8 2.7 7.8-.2.4-.2.4.2 1z" opacity=".6"/><path fill="#9ea58e" d="m33 93.5-10 2.4s6.4 10.7 11.5 8.4c5.1-2.4-1.4-10.8-1.4-10.8z"/><path fill="#676d54" d="m33.5 93.3-10.2 2.4s6.5 10.7 11.6 8.3c5-2.3-1.4-10.7-1.4-10.7z"/><path fill="#9ea58e" d="m34.6 81.4-9 .8s1 19.4 11.1 18.1c10.3-1.2-2-18.9-2-18.9z"/><path fill="#676d54" d="m35.1 81.3-9 .8s1 19.4 11.2 18.1C47.5 98.9 35 81.3 35 81.3z"/><path fill="#9ea58e" d="m42.5 72.2-9.9.9s-1.8 4.1-2.2 9.1l8.9 16h-.5c10.7 3.7 3.7-26 3.7-26z"/><path fill="#676d54" d="m43 72.2-9.8.9S25.5 91 38.1 97.6c12.6 6.6 5-25.4 5-25.4z"/><path fill="#9ea58e" d="m37.4 103.8-8.5 4.8-1.3 3.2s7.7 10.8 11.6 6.3c4-4.6-1.8-14.3-1.8-14.3z"/><path fill="#676d54" d="m37.6 103.5-8.5 4.8-1.3 3.2s7.8 10.8 11.7 6.3c3.8-4.6-1.9-14.3-1.9-14.3z"/><path fill="#d58500" d="M84.6 108.4c-4.4 5-9 9.8-14 14-3.4 2.5-7 5.7-6.7 10.3 0 1.7 1.2 2.8 2.2 4 .7 1.5.4 4 2.5 4.5-2.2-4.6 6.8-8 25-27.7 0 0-7.5-4-9-5z"/><path fill="#a05a07" d="M93.5 113.5a261.7 261.7 0 0 1-19.7 19.2c-3.5 3.3-6 4.3-5.3 8.5-2-.5-1.8-3-2.4-4.5-6.3-6 2-12.7 6.7-16.3-1 4.4 1.2 5.4 3.2 3.5 2.9-3.7 11.4-8.6 7.1-13.8l1.5-1.7c2.6 1.8 6.3 3.6 9 5z" opacity=".3"/><path fill="#a05a07" d="M93.5 113.5c-.6.5-1.2 1.1-1.7 1.8-6.3-1-11 7.3-15.6 10.7-2.1 2.2-4.5 5-4 8.3-3.3 3.1-4.6 4.9-3.6 7-2.1-.5-1.8-3.1-2.5-4.6-1-1.2-2.3-2.2-2.2-4-.2-4.5 3.2-7.7 6.5-10.2-.4 11.6 7.5 0 9.7-2 3-3 7.7-6.8 3.5-10.9l1-1h.2l.2.2.3.2.4.2a734.6 734.6 0 0 0 3.3 1.9h.2c.3.3.7.4 1 .6l.2.1.2.1.2.2.5.2 2 1v.1h.2z" opacity=".3"/><path fill="#a05a07" d="M93.5 113.5 92 115c-.7-.7-1.8-1-2.7-1.2-2.9-.3-3.3-3.4-5-5.2.2 0 .3-.2.4-.3 1.4 1.2 8.8 5 8.8 5z" opacity=".3"/><path fill="#d58500" d="M140.1 140.7a36 36 0 0 0-12.3-13.7 576.9 576.9 0 0 0-42.3-29.8l-4.7-3c-1.6-1-2.5-1.5-3.6.4-1.2 1.9-3.8 6.3-3.6 6.5l7 5.2C99 119 119.2 130 135 144.8c-.6-.5 5.4-3.5 5.1-4.1zm-47.8-32c-1.5.4-1.9-2.2-.3-2.7 2-.4 2.4 2.4.3 2.7zm10.8 8c-.7-.8-.6-2.4.3-2.5.8-.2 2.1.3 2.1 1.5s-1.6 2-2.4 1zm11.3 8.2c-.7-.9-.2-2.3 1-2.4 3.6-.1 1.3 4.6-1 2.4z"/><path fill="#c77500" d="m85.5 97.2-5 9-7-5c0-.3 2.5-4.7 3.6-6.6 1.1-1.9 2-1.4 3.6-.4l4.8 3zM115 117.3c-2.6.5-7.6 1.3-10.1-.4-.6.4-1.3.4-1.8-.2-.7-.8-.6-2.4.3-2.5 0-2 1-4.3 1-4.3L91.4 101c1.1 4.6-6.8 5.8-9.7 6.1.7.5 6.7 4.3 8.6 5.7 4.2-.2 9.7 4.4 10.4 6.8 2.8 1.7 16.8 11.2 16.8 11.2 1-1.4 4-6.6 5.2-8l-7.6-5.5zm-24-10c.2-2 3.3-1.5 2.7.4-.4 1.4-3 1.6-2.7-.5zm24.3 15.2c3.7-.1 1.4 4.6-1 2.4-.6-.9 0-2.3 1-2.4z"/><path fill="#a05a07" d="M92.3 108.7c-.8.2-1.5-.3-1.3-1.5 0-.5.5-1 1-1.2 0 0-1.3 2 .3 2.7zM104.8 116.8c-.6.4-1.3.5-1.7-.1l-.4-.8c-.3-1 .1-1.5.7-1.7 0 0-.8 2.5 1.4 2.6z"/><path fill="#ccd1c0" d="M71.5 140c.2 2.1 2.4 22.5-4.1 24.8-5.3 1.6-14.3 5.9-19.1 2-10-7.5-10.3-21.3-11.3-32.7-1.2-13-10.4-28.7-6.3-40.9 6.5-13.5 29.3-11.6 34.1 2.4 2.5 7.6 2.8 15.8 3.7 23.8.7 7 2.5 13.7 3 20.7z"/><path fill="#c2c2ac" d="M67.4 164.7c-11.2 4.2-19.2 6.8-25.5-5.6 6.4.9 16.8-12.2 17.2-13.6 6.5-16.3-11.1-22.6-24.2-21.9-3-10.3-7.2-21.3-4.2-30.4 6.5-13.5 29.3-11.7 34.1 2.4 2.5 7.6 2.8 15.8 3.7 23.7.6 10.4 8.9 37.2-1.1 45.4z" opacity=".4"/><path fill="#bbb99d" d="M69.5 115.2c.1 3.5.4 10.9-4.7 9.5-.1-4.3-2.9-21-.2-20.7 5 .8 4.7 2.6 5 11.2z"/><path fill="#c2c2ac" d="M67.4 164.7c-2.7.8-6.3 2.3-9.8 3-.2-4.4-.3-8.8.1-9 5.6-1.6 13.4 2.1 11.5-4.3-2.5-5.5 1.5-11.1-1.2-16.6-5.5-11.9-21-18.6-34.2-17.6-2.8-9.3-5.9-19-3.2-27 6.5-13.6 29.3-11.7 34.2 2.3 2.4 7.7 2.7 15.9 3.6 23.8.8 7 2.6 13.7 3.1 20.7.2 2.1 2.4 22.5-4.1 24.7z"/><path fill="#bbb99d" d="M69.2 120.7c-4 7.2-1.2 13.7 2.5 19.4-.2-6.8-3-12.9-2.3-19.8l-.2.4zM67.8 105.5c.2 2.8-2.4 3.2-2.4 3.2-2.4.6-6.8 1.6-6.8 1.3l-.2-1.5c-1.5.8-3 2.2-8 4.4 0 0-2.2-3.5-2.5-3.7l-2 5c.2-.2-11.7-1.2-14-.3l-1.3-5.6c.2-2.4 7.5-19.3 10.5-25 11.3.1 26 11 26.7 22.2z"/><path fill="#9ea58e" d="M51.2 102 46 114.1c-6-2-16.4-5-18.3-2.2 0-.1 2.1-20.6 3.7-21.2z"/><path fill="#9ea58e" d="M51.2 101.8a27 27 0 0 1-5 12.3c-4.2-1.2-15.4-5.6-18.7-2.3 0-2.7-.6-18.8 3.8-21.2z"/><path fill="#b1b7a5" d="M32.4 107c-2.3-.6-3.7 2-3.5 4a13 13 0 0 1 5.4 0c.1-2.5-.9-3.6-2-4z"/><path fill="#949984" d="m51.2 101.8-20-11.2c-1.6.6-2.6 4-3.1 8 7.3.6 13.4 6.6 13 13.9l5.1 1.6c2.8-3.5 4.3-7.9 5-12.3z" opacity=".4"/><path fill="#949984" d="M51.2 101.8c-.5 2.9-1.3 5.7-2.6 8.3-5.1-5.3-12.6-11.1-20.5-12 .3-1.9.7-3.8 1.4-5.5.4-.8.9-1.7 1.7-2l20 11.2z"/><path fill="#9ea58e" d="m58.3 106.4-9-26c-.6-.2-17.7 2.3-26.1 15.8 11-.4 23.8 9.7 27.5 15.7z"/><path fill="#9ea58e" d="M58.5 107.3a47.4 47.4 0 0 1-7.8 4.7C47.4 106.1 34.3 95.5 23 96A37.1 37.1 0 0 1 49 80l.2.5z"/><path fill="#b1b7a5" d="M35.9 91.6c-3-1.3-8.8.8-11.2 4.3 3.7.3 7.4 1.5 11 3.3 1.4-2.7 3-6.4.2-7.6z"/><path fill="#949984" d="M58.5 107.3c-2.1 1.8-5.3 3.3-7.8 4.7a28 28 0 0 0-5.3-6.1c-3-12.3-8.5-17-14-18.9A37.7 37.7 0 0 1 49 80l9.5 27.3z" opacity=".4"/><path fill="#949984" d="M58.5 107.3 49 80.1c-.3-.2-7 .7-14 4.7 8.9 5.3 16.3 15.4 19.8 25 .3-.1 2.8-1.7 3.7-2.5z"/><path fill="#9ea58e" d="M71.5 103.6c-1.4-8.8-16-31.3-16-31.3C44 72 31.7 75.8 25.7 82.7c15.8 1.2 27.6 14 33.3 26.4.2 0 11.8-4.7 12.6-5.5z"/><path fill="#9ea58e" d="m69.4 105.7 2.5-2c-1.4-9-16.4-32-16.4-32-11.7-.2-24 3.6-30 10.5 16 1.2 28 14.3 33.4 26.9 3.8 0 7.4-1.3 10.5-3.4z"/><path fill="#b1b7a5" d="M38.9 80.1c-3-1.2-8.8.5-10.9 2.4 4.5.7 8.6 2.3 12.3 4.6 1.6-2.7 1.3-5.8-1.4-7z"/><path fill="#949984" d="M71.9 103.6c-.8.8-5.3 5.2-13 5.5-1.8-4.4-4.5-8.9-8-12.8.2-10.3-8.5-17.8-16.3-20.6 4.9-2.2 15.1-4.7 20.9-4 .2.4 15 23.1 16.4 32z" opacity=".4"/><path fill="#949984" d="M55.5 71.7a50 50 0 0 0-19 3.3c8.2.3 23.3 16.2 27.7 33.2 1.9-.6 5.2-2 7.7-4.6-1.5-8.8-16.4-31.9-16.4-31.9z"/><path fill="#9ea58e" d="M33.1 73c-.3.2-.1.5-.5.6 16.6.4 31.2 14.7 34.6 35.6h8v-40c-10-1.8-29-.2-42 3.9z"/><path fill="#9ea58e" d="M76.6 109.9c4.5-8.3 10.5-28.8 4.8-38.2-3.4-5.7-31.6-4.3-48.8 1.4 16.8.5 31.4 15 34.6 36.1 4 .7 6.8.9 9.4.7z"/><path fill="#b1b7a5" d="M54.1 78.1c-1.6-1.5-4-1.2-6-2-2-.7-1.6-3.4-3.3-4.4-3.3-1.5-7.5.4-10.8 1.5 7.7.6 15 4.1 20.7 10 1-1.7 1-3.8-.6-5z"/><path fill="#949984" d="M81.4 71.7c-1.7-2.9-9.7-4-19.5-3.6.8 6-.7 12.8-5.4 17a47.3 47.3 0 0 1 10.7 24.1c4 .7 6.8.9 9.3.7 4.6-8.3 10.6-28.7 5-38.2z" opacity=".4"/><path fill="#949984" d="M75.6 97.4c-1 4.4-2.7 8.7-5.4 12.3 2.5.3 4.5.3 6.4.2 4.2-8.3 15-39.2-1.6-41.2a72 72 0 0 1 .6 28.7z"/><path fill="#e8d4ba" d="M116.7 32.9c.4 1.8 2.4 17.3-1.2 21.4C103.3 65 84.3 50 82.8 36.6c-.8-1.7-1.9-17.4 20.6-19.2 10.2-.9 11.8 8.6 13.3 15.5z"/><path fill="#ceb79b" d="M95.2 30.5c-7.1 5.2-5 2 4 4.3 5.3 2 3-4.9-1-5.9 0 0-3 .2-3 1.6z" opacity=".4"/><path fill="#dbc6a9" d="M90.8 33s6.1 1.2 10.2.5c1.5-.3 1.5-2 .3-5-.5-1.7-10.8 4-10.5 4.5z"/><path fill="#ceb79b" d="M113.8 48.5c-2.3.3-3.8-6.2-5-4.3C97 62.8 89.4 35.7 89 30.8c0-.4-.8-5.6-1.7-5.8-3.8-1-4.9 1.4-3.8 9.7-.1 2 2.9.6 3.4 3 1 6 3 12.2 7.9 16 8.6 6.2 18.9-5.2 18.9-5.2z" opacity=".4"/><path fill="#ceb79b" d="M115.2 27c-.5.4-8.4 3.3-9 4.3-.7 1.3 0 2.8.5 4 .4 1.7.3 3.5 1.3 5 .5.6 1.7 1.5 1.7 2.4-.1 1.6-4.4 3.3-4.3 3.8.2 1 11.2 3.8 12.1 1.3.4-3.8-.6-9-.1-12.8-.4-2-1.5-6-2.2-8z" opacity=".4"/><path fill="#ceb79b" d="M107.5 50.5c-.2-1.2-2.7-3.4-.2-5-3-2.6-6.8 1.7-6-3.4-5.7 7.3-10.2-.2-13.6-8 .6 8 .4 14 7.2 19.6 8.7 6.2 13.3.5 12.6-3.2z" opacity=".4"/><path fill="#ceb79b" d="M116.4 32.5c-.4-1.7-.5-3.8-1.2-5.4-1.2.2-5.1 1.4-6 2-3.5 2.7-4 2.3-2.5 6.2.4 5.3 2.3 3.9 3 7.5-.3.7-1.2 1.1-1.3 1.9-2 1.8-4.1-1.6-6.4 0-.4.8 3 3 3.6 3.3 3.3 1.3 11.8 2.5 11.8.8.2-2.8-.4-12.9-1-16.3zm-8.7 2.8c-1.4-3 5.1-4.3 6.8-3 2 2 .5 5.1.5 7.5-.4 1.4.3 2.4-1.4 3.1.7-3.5-5.2-4.3-6-7.6z" opacity=".4"/><path fill="#ceb79b" d="M114.7 27.2c-1.6 0 .7 5.7 1.3 8.5.8 3.8.2 10-4.2 9-.3 0 .2 1.3.1 1.3-1.7 1.2-3.7 1.5-5.6 2.2 3 .5 13.3 1 13.2-.3 0 0-4-21-4.8-20.7z" opacity=".4"/><path fill="#ceb79b" d="M89 21c-6.3 3.8-5.7 8-5.3 13.7-.2 2 2.3 1.8 3.4 3 2.1 3.1 0 6.1 3.8 11.5l1.5-.6C90.3 43 89.2 34.7 90 34a26 26 0 0 1 10.7-.6c1.2.2 2-3.7 6.7-1.2 1 .5 3.3-2.3 8.6-2.2l-.7-3.8C112.7 14 91.6 19.3 88.9 21zM101 52.1c-1.3-.4-4 .2-7-3.2-.4-.5-.8 1-1 1 2.2 8.9 8 2.2 8 2.2z" opacity=".4"/><path fill="#d58500" d="M89 39.5c-.6-.2-1.3-.3-1.8-.2l-.6-1.5c-.8-1.7-3.1-1-3-3 0-1.4-.6-5.3.5-8.5.6-1.8 2.9-4.1 4.4-5-1.3 7-2.4 11.5.6 18.2z" opacity=".3"/><path fill="#cd7b00" d="M98 22.9c4.9 0 12-1 12.8-5.5 0 0-20-5.7-27 1.7-1 .8 4.5 1.6 7.9 2.7 2 .7 4.2 1.2 6.4 1.1z"/><path fill="#e8d4ba" d="M87 47c-1 1-2.3 1.5-3.5 1-2.2-.8-2.4-2.8-2.5-3.2 0-.3 1-1.4.3-1.7-.8-.5-1.3.7-1.8-.8-.5-1.4-1.2-3.9-.4-5.8.4-1.1 1.7-1.4 2.7-2 5-2.6 8.9 9.5 5.1 12.6z"/><path fill="#ceb79b" d="M84 42.8c0-.6.6-2.2 1-2.6-.1-2-2-3-3.9-3-.8 0-1 1.9-.6 2.8.6 1.1 1.5-1.4 2.2-1.3 1.3.1.2 2.8 0 3.5 0 1 2 3.6 2.6 1.4-.5-.4-1.2-.2-1.3-.8z"/><path fill="#ceb79b" d="M87 47c-1.4 1.6-4 1.6-5.2-.2a25 25 0 0 0 2-6.2c.3-1.1-.3-5.8-3.2-5.5 6.2-4.5 10.2 8.7 6.3 12z" opacity=".4"/><path fill="#ceb79b" d="M87 47c-.4.4-.8.7-1.3.9 1.5-1.6 2-8.6-.4-12.9l.5.6c.6.6 1.1 1.4 1.5 2.3l.1.1c1.4 3 1.6 7-.5 9z" opacity=".4"/><path fill="#ceb79b" d="M87.5 38.3c-.5-.3-1.3-.5-1.7-.9a7.1 7.1 0 0 0-4-1.6c-.6 0-1.7.1-2.7.7l.3-.6c.2-.3.6-.5 1-.7h.2l1.2-.7A3 3 0 0 1 83 34c.8 0 1.6.3 2.4.9l.5.5 1.5 2.3v.2l.1.3z"/><path fill="#676d54" d="M85.2 48c0 .5-.3 2.3-1.1 2-1-.5 1.4-3.7 1.4-3.7s-1.4-2.2-3.3 1c-2.4 4 1.9 5.9 3 3.9a9 9 0 0 0 1-3.5l-1 .3z"/><path fill="#474c2f" d="M85.2 48c0 .5-.3 2.3-1.1 2-1-.5 1.4-3.7 1.4-3.7l-.4-.4c-.3.5-2.6 4-3.6 3.5-.1 2.5 2.8 3.4 3.7 1.8a9 9 0 0 0 1-3.5 3 3 0 0 1-1 .3z" opacity=".4"/><path fill="#474c2f" d="M85.2 48c0 .5-.3 2.3-1.1 2-1-.5 1.4-3.7 1.4-3.7l-.2-.2c-.4.3-1.6 2.4-1.9 3.4-.4 1.6.6 2.3.7 2.4.5 0 .9-.3 1.2-.8a9 9 0 0 0 1-3.4l-1.1.3z"/><path fill="#949984" d="M83.6 47.7a4 4 0 0 0 1.2-2c-.6-.3-1.5-.3-2.6 1.6a4 4 0 0 0-.5 1.1c.2 0 1.6-.3 2-.7z" opacity=".7"/><path fill="#ce8000" d="m120.5 53.7-.8-11c-.3-2.3-1.8-4.9-2.2-7.7-.4-2.6-1.5-4.6-2.2-7.5.3 1.2.4 2.5.2 3.9.4.2.7.6 1.2 1.2l-1.1-.5.2 1.4c.2 0 .5.6.6.8l-.4-.2c0 2.1 2 8.2.4 9.6.6 1.5.2 3.5-.4 5 .3-1.1-1.6-3.4-3.2-3.5.4 0 .5.9.5 1-.1-.3-1-1.4-1.5-1.4a22.6 22.6 0 0 1-9.8 1.8l-1.3 1.2c0-.5.2-.8.5-1-4.5-.2-5 4.2-5.2 5.8-1.5-1.2-2-2.2-2-3.6-4 0-4-7.6-4.5-9.6l-1 .8c.4-.6.9-2 .5-2.8l-.6.6.5-1.2-.2-.6-4-1.6c3.8 3 3.8 9 2 12.7-.4.8-1.2 1-1.2 1 1 2.5 3.8 18.3 8.6 16.5 0 .1 2.8 4.3 3.8 3 2.6 5.7 5.9 6.6 11.8 5.2 4.1-.4 6.5-4.6 5.8-8.4.6-.4 2.7-2 2.8-4.9 1.3-2.7 2.2-5 2.2-6z"/><path fill="#c77500" d="M118.3 59.6c0 2.9-2.2 4.5-2.8 5 .6 3.7-1.7 8-5.8 8.3-6 1.5-9.2.5-11.8-5.2-1 1.3-3.8-2.9-3.8-3-4.8 1.8-7.7-14-8.6-16.6 0 0 .5 0 .9-.5 1.7 3.5 3 13.4 8.5 14.8.2-.6-.4-1.8-.3-2.5 7.3 5.8 15 6.5 14-5 2.4 2 3.9.4 4.4-2 2.2 1 1.5-5 1-7.3 1.2.8 2.2 2.3 2 3.2.6-1.5 1-3.6.3-5 1.7-1.4-.3-7.5-.4-9.7l.5.2-.6-.8-.3-1.4 1.1.6-1.2-1.3c.3-1.4.1-2.7-.2-3.9h.1c.7 2.9 1.8 5 2.2 7.6.3 2.8 2 5.3 2.2 7.7l.8 11c0 1-.9 3.2-2.2 5.8z" opacity=".3"/><path fill="#a05a07" d="M88.5 45.4c-.2 3.3-.1 5.3-1.8 7l-1.2-4.3s.8-.1 1.2-1c1.8-3.6 1.8-9.6-2-12.6l3 1.2c.4 3.7 1 7.6.8 9.7zM118.3 59.6c0 2.9-2.2 4.5-2.8 5 .6 3.7-1.7 8-5.8 8.3-3.2.8-5.6.9-7.6-.1 5.5-3.4 9-9.4 9-15.9 1.1 3 .4 6.6-.1 9.4 2.4-4.7 5-9.7 4.5-15.1 1.2 1.1 1.4 3.2 1.3 4.4.5-4.3.3-7.1-.2-9.4.1-.8 0-1.8-.2-2.5 1.6-1.4-.3-7.5-.4-9.6l.4.2c0-.2-.4-.8-.6-.8l-.2-1.4 1 .5c-.4-.6-.8-1-1.1-1.2.2-1.4 0-2.7-.2-4 .7 3 1.8 5 2.2 7.6.4 2.8 2 5.4 2.2 7.8l.8 10.9c0 1-.9 3.3-2.2 6z" opacity=".3"/><g fill="#c77500" opacity=".5"><path d="M102.4 49.5c1 .8 7.8-.2 8.9-1.7-2.5 0-8.4 1.6-9 1.7zM107.5 51.5c-.6.2-1.2.4-1.8.2 0 1.4 2 2 2.7.6.2-1 .1-1.2-.9-.8z" opacity=".3"/></g><path fill="#995a07" d="M111.1 47.8c-2.5 1.5-6.1 1.6-9.1 1.8-.4 0-.5.6 0 .6 3.1-.2 6.7-.3 9.5-2 .3-.2 0-.7-.4-.4zM108 51c-.1.4-.8.4-1 .4h-1.3c-.4 0-.4.6 0 .6.5.1 1 0 1.6 0 .4 0 1-.2 1.2-.6.2-.3-.2-.7-.5-.3z"/><path fill="#ceb79b" d="M102.8 45.1c-.5-.3-1-.8-1.2-1.4-.1-.4-.2-1 .1-1.3.2-.3 0-.7-.3-.4-.5.5-.4 1.2-.3 1.8.2.9.8 1.5 1.6 1.8.3.2.4-.3.1-.5z"/><path fill="#ceb79b" d="M109.3 41.2c-.1-.3-.6-.1-.5.2 1.1 2.6.9.8 0 2 0-1.2-.3-2.3-.9-3.2-.2-.3-.6 0-.4.3.4.7.6 1.4.7 2.2.2 1.6-.3 2.4-1.8 2.4-.7-.4-1.7-1.5-3.6-.9-.3.1-.1.6.2.5 2-.6 3 .8 3.3.8 2.7 0 1.3-.7 3.6-2.1.7-.5-.4-1.7-.6-2.2zM107.1 36.3c.1-1.5-1-2.6-.7-4.2 0-.3-.6-.4-.6 0-.2 1.7 1 3 .9 4.6.1.5 0 2.7.8 2 0-.7-.4-1.6-.4-2.4z"/><path fill="#3e875b" d="M98.8 34.2c-.9 0-2.1-.2-2.8.4-.3.7.3 1.6 1 1.9 1.3.7 3.5-1.5 1.8-2.3z"/><path fill="#3b754b" d="M98.8 34.2c-.8 0-3.3-.3-2.8 1.1.7 0 2.2-.8 2.5.3 0 .5-.6.8-1 1 1.3.2 2.8-1.8 1.3-2.4z"/><path fill="#3e875b" d="M110.6 33.6c1 1 3-.3 2.3-1.7-.4-.3-1-.1-1.4 0-1.2 0-2 .8-1 1.7z"/><path fill="#3b754b" d="M113 32c-.5-.4-1-.2-1.5-.1-.7 0-1.7.2-1.4 1.1 1.2-.5 2.4.2 1 1 1.2.3 2.4-1 1.8-2z"/><path fill="#676d54" d="M114.6 32.4c-.1.2-.2.2-.4.1-2.1-1.6-5 .8-6.2 2-1.2-.3 3.4-4.5 6.5-2.4.1 0 .2.2.1.3zM101 35.6c-.6.3-1.2-1.3-4-1.2-2.2.2-3.8 1.4-3.8 1.4-.3.3-.7-.1-.4-.4 0 0 1.7-1.4 4.2-1.5 2.7-.1 4.5 1.2 4 1.7z"/><path fill="#bbb99d" d="M93 6.9s-2.2.3-4 1.2c-1.4.6-1.4 2.8-1.4 2.8z"/><path fill="#979e87" d="M94.4 8.1C89.3 7.4 75.2 9.7 76 31.6c0 0 40.8-5 40.7-5.4-6.2-22.8-22.2-18-22.4-18z"/><path fill="#c5cab9" d="M85 12c-2.2.2-6 4.6-4.5 6.7.5.6 1.3.6 2 .5 3.2-.7 5.3-5 4-6.4-.3-.4-1-.7-1.6-.7z" opacity=".4"/><path fill="#949984" d="M116.7 25.6c-4.5-15-12.7-20-28-17 8 6.6-6.3 22.8-11.8 13.5-.7 3.1-1 6.4-.8 9.6l2.6-.4c12.5-1.5 25-3.1 37.4-4.9.6-.1.8-.1.6-.8zm-9-13.3c1.3 2 0 6-1.6 3.5-.8-1.2-.7-2.8-1.8-4.2-.8-1 1.9-2 3.5.7zM94 18.7c.5.4.3 1.1 0 1.5-.4.6-1.7 1.3-1.8 0 .1-.8.9-2 1.8-1.5z"/><path fill="#676d54" d="M102.6 23.3c4.5-2.6 1.7-11.1-1.6-15.3a20 20 0 0 0-3.6-.3 31.5 31.5 0 0 1 5.2 15.6zM77 31.5c3.3-.4 15-1.8 25-3.2-1.3-.7-2.3-1.2-5.5-2-5.3-1.1-14 .1-19.5 5.2zM108.5 11.6c1.2 5.7.7 9.8-5.4 16.6 7.6-1 13.4-1.8 13.4-2-2-7.4-4.8-12-8-14.6z" opacity=".4"/><path fill="#bbb99d" d="M102.9 14.4c-2.8-7.8-6-8.9-10.4-7.6-2.6.8-3.9 1.5-4.2 1.9.4-.2 1.8-.6 2.2-.4a10 10 0 0 1 3.7 3c4.3 5.1 4 9.3 5.2 11 .6.9 2 1.5 2.9 1.1 1.3-.5 2.6-3.4.6-9z"/><path fill="#676d54" d="M88.7 8.6c.5-.1 1.4-.3 1.8-.2-1.3-.5-1.8.2-1.8.2z"/><path fill="#c2c2ac" d="M103.3 14.3c2 5.7.6 8.5-.7 9-1 .4-2.1-.2-2.7-1-1.2-1.8-1-6-5.3-11C93.2 9.4 91 7.5 89.1 8c6.5-2.9 10.7-3.5 14.2 6.2z"/><path fill="#c5cab9" d="M93.9 10.4c4 0 4.3-2.4 4.4-3.5-2.5-1.3-5.5-.4-9.2 1.2 1.5-.4 3.3.9 4.8 2.3z"/><path fill="#bbb99d" d="M97.7 15.7c1.4 3 1.4 5.2 2.2 6.5.6.8 1.7 1.5 2.7 1.2 1.2-.5 2.6-3.2 1-8.4-2 1.6-4 1.8-5.9.7z"/><path fill="#979e87" d="M102.4 17.4c-.5-.6-1.4-.3-1.7.2-.6.9.3 2.6 1.5 2 .6-.4.8-1.7.2-2.2z"/><path fill="#949984" d="M102.4 17.4a.9.9 0 0 0-.8-.3c1.2.3 1 2.4-.2 2.5 1.2.4 1.8-1.4 1-2.2z"/><path fill="#979e87" d="M99.1 10.8a1 1 0 0 0-1 .3c-1 1.4 2 2.9 2.2 1 0-.7-.6-1.2-1.2-1.3z"/><path fill="#949984" d="M99 10.7c.6.4 1 .7.9 1.2 0 .8-.6 1-1.1.9.6.3 1.4.2 1.5-.8 0-1.1-1.2-1.3-1.2-1.3z"/><path fill="#979e87" d="M95.9 7c-.4-.3-2-.4-1.8.7.2 1.2 1.5 1 2 .6.6-.6 0-1-.2-1.2z"/><path fill="#949984" d="M95.9 7c-.3-.2-1.2-.4-1.6 0 1-.5 2.2.6 1.3 1.5.7-.2 1-.9.3-1.4z"/><path fill="#c2c2ac" d="M76.6 35.3c-.6-.3-1.2-2.3-1.2-3.7 4.5-2.3 41.2-6.2 41.5-6 .4.3.7 2.6.7 3.2-5.3.6-41 6.5-41 6.5z"/><path fill="#bbb99d" d="M116.9 25.6c-.2 0-5.7.4-12.7 1.3a7 7 0 0 1-.1 4c6.3-1 11.7-1.9 13.5-2 0-.7-.2-3-.7-3.3z"/><path fill="#c5cab9" d="M83.7 32.7c4-.5 7.4-2 10-4.5a112 112 0 0 0-18 3.2c2.3 1.5 5.4 1.6 8 1.3z"/><path fill="#979e87" d="M79.8 32c-.3-1-2.3-.5-2 .7.4 1.8 2.6.4 2-.7z"/><path fill="#676d54" d="M78.3 32.7c0-.5.2-1.2.6-1.3-1.7 0-1.2 2.7.3 2-.4 0-1-.3-1-.7z" opacity=".4"/><path fill="#979e87" d="M88.6 30.2c-.6-.4-1.6.4-1.7 1 0 .4 0 .7.3.9.6.5 1.8.2 2-.9a1 1 0 0 0-.6-1z"/><path fill="#676d54" d="M87 31.3c.2-.5.8-1 1.3-1.2-.6 0-1.3.6-1.4 1.2 0 .3.1.6.3.8.3.2.6.3 1 .2-.3 0-1.3-.1-1.1-1z" opacity=".4"/><path fill="#979e87" d="M96.2 29.3c-.7 1 .6 2.7 1.8 1.3 1-1.2-1-2.4-1.8-1.3z"/><path fill="#676d54" d="M96 30.1c.1 1.1 1.8 1.4 2.2 0H96z" opacity=".4"/><path fill="#676d54" d="M96.4 29.3c.3-.3.6-.4 1-.4-.5 0-1 0-1.2.4-.5.7.2 1.9 1 1.8-.8 0-1.4-1.2-.8-1.8z" opacity=".4"/><path fill="#979e87" d="M106.5 27.8c-1.5 0-1.7 2.3 0 2 .5 0 .8-.4.8-1.2a1 1 0 0 0-.8-.8z"/><path fill="#676d54" d="M106 28c1.3-.4 1.3 1.7.4 1.8 1 0 1.3-1.9 0-2l-.4.1z" opacity=".4"/><path fill="#979e87" d="M115.2 26.5c-1.7.2-.6 3 .8 1.8 1-.5.1-1.9-.8-1.8z"/><path fill="#676d54" d="M115.2 26.5h-.4c.8.1 1.8 1.2.5 2 .2 0 .4 0 .7-.2 1.1-.8 0-1.9-.8-1.8z" opacity=".4"/><path fill="#ce8000" d="M113.9 27.4c-2-.2-5.2 1-7 1.9l.2 1-.7-.7c-.8.5-.8.9-.2 1.6 1.1 1.6 1 1.5 1.4 1.4 2.5-1.7 5.5-2.8 7.1-3 .1-.2 0-2.1-.8-2.2z"/><path fill="#c77500" d="M113.8 27.4c-.7 0-1.5 0-2.4.2-.1.6-1.4 3.2-1.8 1.5-.5 1.4-1.7 2.2-2.4 3.4.1.1.2 0 .4 0 2.5-1.7 5.5-2.8 7.1-2.9.1-.3 0-2.2-.9-2.2z" opacity=".3"/><path fill="#a05a07" d="M113.9 27.4h-1.7c.2 1 .1 2-.2 3 1-.5 2-.7 2.7-.8.1-.3 0-2.1-.8-2.2z" opacity=".6"/><path fill="#c77500" d="M113 28.7c.2 1 1.1-.8 1.2-1.2-.4-.3-1-.1-1.5-.1 0 .4.3.8.4 1.3z" opacity=".3"/><path fill="#ce8000" d="m100.3 28.7-.4.8-.1-.9c-2.4 0-7.1.5-9 1.7 0 .1.3 2.7 1 2.2.5-.7 2.3-1.3 2.2-1.2l-.5.9c2.5-.3 6.7-.3 7.8-.2.7 0 1-1.2 1-2.2 0-1.3-.2-1-2-1.1z"/><path fill="#c77500" d="m100.3 28.7-.4.8-.1-.9h-.4c-1.7 2.4-4.7 3.1-5.7 3.4l-.2.2c2.5-.2 6.7-.3 7.8-.2.7 0 1-1.1 1-2.2 0-1.3-.2-1-2-1.1z" opacity=".3"/><path fill="#a05a07" d="M101.1 28.7c0 1.2-.7 2.3-1.5 3.3 2 0 2.8.2 2.7-2.2 0-1-.2-1-1.2-1.1z" opacity=".6"/><path fill="#c77500" d="M91.7 32.6h.1c0-.2.2-.3.3-.4h-.9c.2.3.3.4.5.4z" opacity=".3"/><path fill="#474c2f" d="M109.4 151.4a42.3 42.3 0 0 1-5.9 16l-6.9-2s6-17.3 10.8-17.2c1.7.1 2.1 1.7 2 3.2z"/><path fill="#676d54" d="m103.5 167.4-.5-.2c3.3-4.1 7.6-18.6 4.5-18.6l-.7-.5c2.1-.2 2.8 1.8 2.7 3.3a42.8 42.8 0 0 1-6 16z"/><path fill="#e8d4ba" d="M133 154.8c0 .8-.4 1.8-1 2.5.4 1.5.2 3.6-1 4.7.6 2-.5 4-2.5 4.6 0 0-.2 0-.4-.3-8.6 2.8-17.7-3.3-26.6-.8-.1-4.4-.3-11.2.2-15.6 6.8-1 7.7-.7 12.7-6 1.2-1.4 2.9-2.6 3.9-4.2.7-1 5.5-4.7 6.2-5.7.7-1 .6-4.6 2.6-3.6 3.6 4.2-.1 9.2-3.2 12.3 3.3 1.8 8.5 3.4 7.7 8.2a6.8 6.8 0 0 1 1.3 3.9z"/><path fill="#e8d4ba" d="M132 157.3c.4 1.4.3 3.2-.7 4.3l-.4.4v.2c.6 2-.5 3.8-2.4 4.4 0 0-.2 0-.4-.4-8.6 2.9-17.7-3.2-26.6-.8-.1-4.4-.3-11.1.2-15.6 2.7-.3 4.5-.5 6-1 2.2-.6 3.7-1.7 6.7-5 1.2-1.4 2.9-2.5 3.9-4.1.7-1 5.5-4.8 6.2-5.8.7-1 .6-4.5 2.6-3.5 3.6 4.2-.1 9.1-3.2 12.2 2.5 1.4 6 2.6 7.3 5.1.3.7.5 1.5.4 2.4v.8l.1.2c.7 1 1.1 2.4 1.1 3.7.2.8-.2 1.8-.7 2.5z"/><path fill="#ceb79b" d="M132 157.3c.4 1.5.3 3.6-1 4.7.6 2-.4 4-2.4 4.6 0 0-.2 0-.4-.3-8.7 2.8-17.7-3.3-26.6-.8-.2-4.4-.3-11.2.1-15.6 3.8-.6 5.8-.7 7.7-1.7-1 4.9.8 11.6 6.3 14.7 4.5 1.6 16.2 3.7 14-4 1.8-3.1.4-3.3-.4-4.7 1-1.7 1.7-5-.4-6.2.6-.7.7-1.5.5-2.3 1.6 1.2 2.8 2.8 2.3 5.2a7.1 7.1 0 0 1 1.3 3.9c0 .8-.4 1.8-1 2.5z" opacity=".4"/><path fill="#ceb79b" d="M131 162.2c.5 2-.5 3.8-2.4 4.4 0 0-.2 0-.4-.4-8.7 2.9-17.7-3.2-26.6-.8-.2-4.4-.3-11.1.1-15.6 2.7-.3 4.5-.5 6-1-2 6.2-2 19.3 5 14.5 1-.2 1.9.5 2.8.7 2.7.8 5.4 1.6 8.1 1.4 2.5 0 6.2-1 7.4-3.2zM132 157.3c.4 1.4.3 3.2-.7 4.3a4 4 0 0 0-.1-2.5 3 3 0 0 0 .9-1.8z" opacity=".6"/><path fill="#ceb79b" d="M129.8 158.9c1 1 .5 1.6.3 2.2l.9.9.6-.8c0-.3-1.5-2-1.8-2.3z"/><path fill="#eddac5" d="M130 157c.2-1.5-2-2.1-2-.1-.1 1.5 1.9 1.7 2 0zM115 148.5c1.8-2.4.4-5-1.9-1.6-1.9 2.5 0 4.5 2 1.6zM129.2 161.5c.2-.6.2-1.2-.5-1.3-2.7-.1-.7 4.4.5 1.3z"/><path fill="#ceb79b" d="M121.4 144s-4.2.1-6.1-1l.8-.8.1-.1a6 6 0 0 0 1-1c.8 1 2.1 2 4.2 3z" opacity=".4"/><path fill="#ceb79b" d="M115.2 166s2-3 1.8-7.3c0 0 2 7 .8 7.9l-2.6-.5zM107.4 148.9s-1 1.4-1.5 3c-1 2.7-1.9 7.1 0 13l-4.4.6s0-13.7.2-15.5l5.7-1.1z"/><path fill="#474c2f" d="m127.2 88.4.7 4S110 96 108.2 92c-.6-1.4.6-2.5 2-3.2 0 0 14.5-.7 17-.5z"/><path fill="#676d54" d="M127.2 88.2v.4c-4-.2-19.2-.9-19 3.6-.6-1.4.4-2.7 2-3.1a74.7 74.7 0 0 1 17-1zM107.8 148.4s-1.2.6-2.2 1.9c-3.3 4.3-2.6 11.6-2 16.8-1.3.1-2.6.2-3.9.1l-.2-20.2c2.4.4 5 .9 7.4 1l.9.4z"/><path fill="#9ea58e" d="M106.8 148c-5.4 4.8-4.7 12.8-3.7 19.2-22.6.6-46.9 22.2-61.5-5.7 0-.7 10.4-11.6 19.6-16.2 12.9-6.3 30.4 1.3 45.6 2.7z"/><path fill="#9ea58e" d="M106.8 148c-.7.6-1.3 1.3-1.8 2-3.4 4.9-2.8 11.6-2 17.2-22.5.6-46.8 22.2-61.4-5.7a68.2 68.2 0 0 1 21.5-17c12.7-4.8 29.3 2.2 43.7 3.5z"/><path fill="#b1b7a5" d="M102.4 160.5c-13.1-1.4-17-10.2-18.4-16.6 7.6 1.3 15.5 3.4 22.8 4-3.6 3.3-4.5 8-4.4 12.6z"/><path fill="#949984" d="M93.2 168.6c-19.6 4.4-39 16.8-51.6-7.1-.2-.8 14.5-15.6 23.5-17.7a37 37 0 0 0 28 24.8z"/><path fill="#474c2f" d="M103 167.2c-20.2.5-41.8 18-56.6 1.4l.7.6c8 5.4 10.6 5.3 17.8 5.1 13.2-2 22-7.6 38-8.5l.2 1.4zM99.5 151c-.4-.4-.1-1 .4-1.4.3 0 1.8 1.4 1.2 1.7-.6.4-1.3 0-1.6-.2zM64.8 146.4c-2.1 4-5.7-1.5-1.1-1 .3 0 1.3.5 1.1 1zM71.8 145.3c.7 0 2.5.5 2.5.7-.4 2.4-4.4.8-2.5-.7zM80.8 146.4s2 .7 2.2 1c.2.2 0 .6-.2.8-.6.8-3.5.7-2.9-.9.1-.3.6-.8.9-.9z" opacity=".1"/><path fill="#676d54" d="M102 150.3c-.8 1.8-2.4.8-2.5 0 0-1.4 3-1.5 2.4 0z"/><path fill="#474c2f" d="M89.3 148.7h.2c.3-.4 2.7.5 2.2 1.2s-1.8.7-2.4.5c-.6-.4-.3-1.3 0-1.7z" opacity=".1"/><path fill="#474c2f" d="M102 150.3c-.2.4-.5.7-.7.8l.3-.5c.5-1-1-1.3-1.9-.9.6-.8 2.8-.7 2.2.6z"/><path fill="#676d54" d="M92 149.3c0 .9-1.8 1-2.3.8a.8.8 0 0 1-.5-.5c-.6-1.5 2.7-2.2 2.7-.3z"/><path fill="#474c2f" d="M89.4 148.6c.7-.6 2.4-.7 2.5.7 0 .3-.3.6-.6.7l.1-.4c0-1.2-1.2-1.4-2-1z"/><path fill="#676d54" d="M80.3 146.7c.8-.9 2.3-.5 2.7.4.2.3 0 .8-.4 1-.8.4-2.2 0-2.4-.6-.1-.2-.1-.5 0-.8z"/><path fill="#474c2f" d="M83 147.1c.2.4 0 .8-.4 1v-.7c-.3-.7-1.4-1.1-2.3-.7.9-.9 2.3-.4 2.7.4z"/><path fill="#474c2f" d="M71 174.7c-11.4 2.5-21.8 1.5-29.4-13.2 0-.3 2.2-2.9 5.6-6 1 3.9 5.6 14.5 23.8 19.2z" opacity=".1"/><path fill="#676d54" d="M72 145.1c1.1-.8 3.1.1 1.9 1.5-1 .8-3.3-.1-1.9-1.5z"/><path fill="#474c2f" d="M72 145.1c1.2-.9 3.2.2 1.8 1.5.6-1.4-1.2-1.8-2.2-1.1l.4-.4z"/><path fill="#676d54" d="M62 145.5c1.3-.8 2.4-.5 2.8 0 .7.8-.7 2.6-2.7 1.3-.5-.3-.8-.9 0-1.3z"/><path fill="#474c2f" d="M62 145.5c1.7-1.1 4-.2 2.5 1.3.8-1.5-1.5-1.9-2.8-.9 0-.1.1-.3.4-.4z"/><path fill="#474c2f" d="M106.8 148c-.7.6-1.3 1.3-1.8 2-.8-.4-2-1.6-4-1.6-4.4 0-8 1.4-9.2-.9-.7-1.5-7-.5-8.4-1.5-3-2-6.2 1.4-9.1-1.6-1.4-1.4-9 1-11.2 0 12.7-4.7 29.3 2.3 43.7 3.6z" opacity=".1"/><path fill="#e8d4ba" d="M127.2 91.6c-2 2.5-14.7 4.7-16.3 5.8-1.2-1.8-.9-4.1-1.6-6.1-.5-1.6-4.7-3.9-6.2-5.3-3-2.2-5.7-5-7.1-8.2-2.2-1 0-4 1-5v-.2c.8-1.6 1.2-2.8 2.8-3.7.6-2.8 2.9-3.1 5-4.2-2.1-1.7-4.7-3.3-6.8-5.1-1.6-1.3-7-6.1-2.5-6.7 5.6 4 11.8 6.8 17.6 10.4l2.5 1.7c0-3.6 0-6.6 3.6-10 .8-.8 1.7-1.4 2.8-1.4.5 0 1.6-.2 1.6.6-.9 2.9-2.2 5-2.3 7.8 0 0 .8 6 .4 7.7-.8 7.6-1.2 11.3 3.2 18l2.3 3.9z"/><path fill="#eddac5" d="M121.7 58.7s1.5-3.4 1.7-4.4c-1.6-.5-2.8 3.7-1.7 4.4z"/><g fill="#ceb79b"><path d="M122.6 54.1c-.5.4-2.4 2.6-1.4 4.4-1.2-1.5-.5-3.4 1.4-4.4z"/><path d="M123.3 53.7a6.4 6.4 0 0 0-4.8 3.7 17 17 0 0 0-.7 8.3V66.5l-.8-.5-1.5-1.2v-.2c0-1.2 0-3 .5-4.9.1-.8 1.3-3.2 3.1-5l1-.6.2-.2h.2c.4-.3.8-.4 1.3-.4h.7l.8.2z" opacity=".4"/><path d="M121 59.6h.6a15 15 0 0 0-.3 2.2c-.4-.3-3.3-3.1-3.3 2.2 0 1.4.1 2.8-.1 2.8-.7-.8-1.6-1-2.4-2 0-3.6 0-6.6 3.6-10 .8-.7 1.7-1.3 2.8-1.3-.6.3-1 .8-1.4 1.3-1.1 1.7-1 4.3.6 4.8zM127.4 91.7c-4 2.6-15.1 4.7-16.6 5.8-1.5-2.2-.3-5.8-2.5-7.5-4.2-3.2-9.4-6.3-12-11.4-.3-.8-1.3-1.1-1.2-2.2 0-1.6 1-2.5 2-3.7.5-1.4 1.2-3.1 2.7-3.8 0-.4.3-1 .5-1.4 1.1-1.7 3.6-3 5.5-2.2-1.4.1-7.8 1.9-2.3 3.5-2-.3-6.3.6-3.3 2.8 0 0-1.7 1-1.8 1.4-7.9 3 7 10.7 10 13.2 3.6 6.7 14.3 3.2 16.4 1.2l2.6 4.3z" opacity=".4"/><path d="M118.4 67.6c-2.1-1.1-10.5-9.4-10.1-2.7 0 .8-1.9 0-3.8-.1l.2-.2c-1.1-1.2-15.4-9.9-9.5-11.7-2.9 1.7 3.4 4.5 4.8 3 1 .5 2.1 1 3.2 1.7-2.8 3 4 6.4 5.4 3l4.4 2.6a30 30 0 0 1 5.4 4.4z" opacity=".4"/><path d="M107.2 64.8c.3.2.5.5 0 .3h-1.3L104 65l.7-.5s2 0 2.5.3zM103.8 68.9c-1.1-.5-2.8.3-4 0l.3-.9 1.5-.1 2.2 1zM98.4 73c-.5-.2-.9-.2-1.4-.2l.4-1 2.8-.2-1.8 1.3z"/></g><path fill="#eddac5" d="M102.5 71c-.8 1-2.6-.3-1.7-1.4.8-.6 3 .2 1.7 1.3zM98.5 74c.7-1.4 2-.3 1.3.8-.9.9-2.1.6-1.3-.9zM106.8 67c-.4.6-1.2 1.2-2 1.4-1 .1-1.8-1.3-1.3-1.8 1.6-1.5 3.6-.2 3.3.4z"/><path fill="#ceb79b" d="m107.6 65.2-2.9-.6c-.5-.7-11.7-7.4-11-10.7.1-.5.7-.8 1.5-1-5.2 1.2 12 11.5 12.7 11.8.5.2.2.4-.3.5z" opacity=".4"/><path fill="#ceb79b" d="M96.7 77.7c0 .6-.1 1-.2 1-.2-.4-1-1.1-1.2-1.3 0 0 1.4-.5 1.4.3z"/><path fill="#ceb79b" d="M127.2 91.6c-2 2.5-14.7 4.7-16.4 5.8-1.5-2.2-.3-5.7-2.5-7.5.2-.1 8.4 4.5 17.7-.6l1.2 2.3z" opacity=".4"/><path fill="#ceb79b" d="M118 67.2c-.3-.5-2.7-2.4-2.5-2.3v-.2c.9.9 2.2 1.6 3 2.5.4.4-.3.6-.5 0z"/><path fill="#ceb79b" d="m100.6 59-1 1.8-1.7-1.3s1.2 0 1.7-.8c.4-.9 1.4-.2 1 .4zM122.9 84c-2.4 2.2-8.1-2.6-4.8-3 2.8-.2 3-3.8 3-3.8s0 3.5 1.8 6.7z" opacity=".4"/><path fill="#ceb79b" d="M94.6 53.8c0 .7 1 1.5 1.1 1.7.7.5 1.1-.4 1.5-1-.4 1.2-1 1.7-1.4 1.4-.5-.4-1.4-1.6-1.2-2.1zM109.4 83.4c-.1.7-2 4.2-3.1 5.1l-2.2-1.7c2-.6 4.3-1.6 5.3-3.4z"/><path fill="#c4c7b4" d="M121.1 148.1s7.1 9.3 18.5 9.7c24.4 1 6-21.5 6-21.5z"/><path fill="#676d54" d="m108.2 92.2-.2-.8s2 2 6.6 1.2c4.9-.7 12.6-4.4 12.6-4.4l.7 1.7s-8.9 5.4-14.7 5c-4.3-.2-5-2.7-5-2.7z"/><path fill="#9ea58e" d="M147.2 130.2c.2 12.1-4.9 26.2-12.8 29.2-26.2-9-22.2-45.6-26.2-67.1 4.7 3.9 14.6-1.6 19.2-3.4 5.5 11.7 20.1 27.2 19.8 41.3z"/><path fill="#b1b7a5" d="M140.7 110.7c-6.6 2-20-5.3-23.6-17.8 4-1 7.9-3 10.3-4 3 6.4 8.8 14 13.3 21.8z"/><path fill="#949984" d="M134.4 159.3c-22-7.5-22.7-34.5-24.8-55.7 9.4 18.7 25.1 18.7 37 21.3 2.5 12.3-3 31-12.2 34.4z"/><path fill="#474c2f" d="M142 152.1a16 16 0 0 1-7.5 7.3c-14.5-5-19.8-18.4-22.3-33 10.5 19.3 22.5 24.5 29.8 25.7z" opacity=".1"/><path fill="#474c2f" d="M113.4 124c1.1 9 4.7 20.4 10.2 28.6-14.2-14.2-12-42.5-15.4-60.4.7.6 1.5 1 2.5 1.2.4 5.6 1.7 23 2.7 30.6zM125.8 96.1c.6.2 1.2-.4 1.4-1-.1-.4-.5-.6-.7-.9-.1-.2-.2-.7-.4-.9-.5-.6-1.1.6-1.3 1.3-.1.8.5 1.4 1 1.5zM142.9 124.9c-2 1.8.3 4.6 1.8 2.9.5-.7-1.4-3.4-1.8-3zM141.3 118.5c-.4-.7-1.5-2.2-1.7-2-2.1 1.2 1 4.4 1.7 2zM136.9 110.8s-2.3-1.3-2.4-1.1c-.5.8.8 3.4 2 2.2.2-.2.4-.8.4-1z" opacity=".1"/><path fill="#676d54" d="M125.5 93.3c-1.6 1.5.2 2.9 1 2.5 1.4-.6.2-3.9-1-2.5z"/><path fill="#474c2f" d="M131.5 103.9v-.2c.1-.4-.4-1-.6-1-.3-.4-1-1.2-1.4-.5-.4.8 0 2 .6 2.4.4.4 1.2-.2 1.4-.7z" opacity=".1"/><path fill="#474c2f" d="M125.5 93.3a2 2 0 0 0-.6 1l.4-.5c1-1 1.8.5 1.7 1.6.6-1-.5-3.3-1.5-2.1z"/><path fill="#676d54" d="M130 101.8c-.8.3-.4 2 0 2.3.2.2.5.3.8.2 1.5 0 .9-3.2-.9-2.5z"/><path fill="#474c2f" d="M131.6 103.8c.3-1-.4-2.6-1.7-2-.3 0-.4.4-.4.8 0-.2.1-.2.3-.3 1.1-.4 1.8.6 1.8 1.5z"/><path fill="#676d54" d="M136.8 111.4c.5-1.2-.5-2.3-1.4-2.4-.4 0-.7.3-.7.7-.1 1 .7 2 1.4 2 .2.1.6 0 .7-.3z"/><path fill="#474c2f" d="M135.4 109c-.4 0-.7.3-.7.7v.2c.1-.2.3-.4.6-.4.8 0 1.6 1 1.5 1.9.5-1.2-.5-2.4-1.4-2.4z"/><path fill="#676d54" d="M141.3 118.2c.4-1.4-1.4-2.9-2.1-1.2-.3 1.4 1.4 3.1 2.1 1.2z"/><path fill="#474c2f" d="M141.3 118.2c.4-1.5-1.5-3-2.1-1 1-1.3 2.2.3 2 1.5l.1-.5z"/><path fill="#676d54" d="M145 127.2c.1-1.5-.6-2.4-1.3-2.7-1-.3-2.2 1.9-.2 3.2.6.4 1.3.4 1.4-.5z"/><path fill="#474c2f" d="M145 127.2c.3-2-1.6-3.8-2.4-1.8 1.1-1.3 2.5.7 2 2.4l.3-.6z"/><path fill="#474c2f" d="M147.2 130c-1-3-3.2-6.4-4.4-8.9-1.4-2.9-.4-5.5-2.2-6-4-2.2-2.3-6.5-5.3-8.5-2.8-2-2.8-3-3.2-5.9-.4-2.5-2.7-3-4-5.2-1.9-2.6 1.7-4.3-2.5-5.9l1.8-.7c5.5 11.7 20 27 19.8 41z" opacity=".1"/></svg>