<svg xmlns="http://www.w3.org/2000/svg" width="371" height="383" fill="none"><path fill="#2b6b40" d="M343.3 350.8c-82.1 43-220.2 37-308 5.2 12.4-62.7 23-139 33.3-199.7 71.4-1 217-1 217.5-.5l24.2-1.3c12.2 41.6 20.4 153.3 33 196.3z"/><path fill="#245b34" d="M327.9 358c-81.5 33.3-179.1 29.5-263.7 7.2 1.5-34.6 3.7-94.6 5.4-122 1.6-25 11.3 106.3 18 101.9 6.8-4.5 3.3-74 8.5-85.7 5-11.7 163.4 9.9 163.4 9.9 3.1 100.5 26.2 88.6 29 7.3l28.9 8.5 10.5 73z"/><path fill="#151916" d="M70.6 289.3v77.6c-2.1-.5-4.2-1-6.4-1.7l-1.5-.4c1.2-24 3.6-67.5 4.2-81.4l3.7 5.9z" opacity=".3"/><path fill="#151916" d="M45.7 298.3s48.5 39.8 76.2 15l1.7-33.3-75 1.2z" opacity=".3"/><path fill="#9ea58e" d="M19.7 243.2c6.6 14.4 46.5 65.6 75.8 59.4 28.3-6 51.8-31.4 51.8-31.4z"/><path fill="#474c2f" d="M100.8 301.2s-10.3 4.2-19.8-.1c14.4-2.2 30.2-39 30.2-39l12.5 28.7s-14.7 8.7-22.9 10.4z" opacity=".1"/><path fill="#ce8000" d="M255 118.2c-10.6-15.2-29.7-53.4-32.3-83.8C221.5 15.7 206-.1 188.5 0c-5.8 0-15.6-.5-21.2 1.7A31 31 0 0 0 145 35c.7 8.4 1 14.6-.8 29.9-2 15.8-13.9 43.7-23.2 59l134.2-5.6z"/><path fill="#c07500" d="M136.7 123.1A98.6 98.6 0 0 0 144 65v-.2l.3-2.9c.6-4.3 1.6-11.8 1.5-12.2 4.8 1.3 67.9.8 68.1 3.8 1.3 7.3 2.8 24.7 5.4 31.8 3.7 7.6 11.9 13.1 13 22-1.3-1.3-1.9 9 .9 12l-96.6 4z"/><path fill="#c07500" d="m152.6 122.5-25.6 1c7.6-10.5 17.1-27 18.5-44 0 0 9.9 20.2 7.1 43z"/><path fill="#a05a07" d="m230.8 119.2-35.2 1.5c-2-22.8-.9-46 5.4-68.2 4.5-.4 8.6 2.6 11.8 5.6-1.1 6.7 0 13.6 1.9 20.1 4 14.1 9 16.3 9 23.1 0 1.6-1.6 10.1 7 18z" opacity=".6"/><path fill="#a05a07" d="m169.2 121.8-28.5 1.1c4-13.9 5.2-25 4.7-42-.2-5.7-.4-12.6-1.3-16v-.2l10.8 1.8a76 76 0 0 1 14.3 55.2z"/><path fill="#b4b296" d="M213 120c.3-1-3-18.8-3-18.5l4.3-.3c1 0 2 .6 2.4 2 3.8 10.7-2.2 16.2-3.6 16.7"/><path fill="#e8d4ba" d="m155.9 130.5 66.2-2.7c-12.7-18.1-8.4-42.3-12.9-62.7-3.7-5.2-47 19.2-46.6 21.2a135 135 0 0 1-6.7 44.2"/><path fill="#ceb79b" d="M155.9 130.5c2.3-3 7.8-32 6.6-44.2-.3-2 43-26.4 46.7-21.2 2 9.4 2.2 19.5 3 29.5 0 .6 0 1.2.2 1.7v.4c-4 5.7-11 29.5 3 17 1.4 5 3.6 9.7 6.6 14l-66.1 2.8z" opacity=".4"/><path fill="#ceb79b" d="M155.9 130.5c2.3-3 7.8-32 6.6-44.2-.3-2 43-26.4 46.7-21.2 1.6 7.6 2 15.7 2.6 23.9-5 7.4-8 20-8.5 25.5-1.2 9.5 9.3 5.7 12.7.8 1.3 4.4 3.4 8.6 6 12.5l-66.1 2.7z" opacity=".4"/><path fill="#c2c2ac" d="M272.5 225.4c-3.3 12-8.3 71.2-24.2 71.2-49.5 0-75 4.2-124.2.6-9-14-7.7-32.4-11.7-48.2-12.2-47.9-28.9-91.7 17.2-128.7 7.8-6.7 182.2-22.2 185.3 53.9 1.5 36.3-39.8 32.7-42.4 51.2z"/><path fill="#c6c7b3" d="M150.8 152.7c40.4-12.7 74 20.7 76.2 43.5 2.5 25.4 0 69.3-66 79.5-49.2 7.6-51-70-47.5-86.4 3.5-16.3 14-29.3 37.3-36.6z"/><path fill="#bbb99d" d="M272.5 225.4c-3.3 12-8.3 71.2-24.2 71.2-49.5 0-75 4.2-124.2.6-9-14-7.7-32.5-11.7-48.2C100.2 201 70.6 117 163 115.7c1.8 12.2 5.6 36.9 11.7 38-16.9-2.1-31.8-13.2-31.8-13.2-18.3 21-4 30.4-9 42.3a158 158 0 0 0-26 15c-1.9 15.8 4.8 49.5 11.8 67 1.5 13.4 49.5 30.8 75.8 13 9-6 27.6-19.3 33.6-28a68.2 68.2 0 0 0 4-74c-8-15.4-34.2-19.2-49.3-27.2 2.6-1.7 79-25.8 104.4-4.2 13.9 11.8-14.7 54-15.6 81z" opacity=".7"/><path fill="#ccd1c0" d="M205.3 190.9c-12.6-4.8-25 1-38.3-1.6-7.6-2-23.2-19.2-25.6-15.4-7 11 8.3 29.2 19.1 34.9 6.6 3.5 27.9 14.6 39.9 15.5 18 1.6 20.9-26.4 5-33.4"/><path fill="#bbb99d" d="M260 283.3c-.7-26-112.7-77.3-129-135-1.1-3.5-15.1 20-13.1 23.3 13.1 28 38.9 45.9 62.7 66.2 17.2 14.5 58.3 41.3 71.2 59.7-.6-2 9.3-11.3 8.2-14.2"/><path fill="#a8a586" d="m159.2 139.6-.2.4H180a11 11 0 0 1-.3-.4v-.3h2.4c2-1 2-5 .9-7.3-11.1.1-24.9-16.4-24.9-16.4l-4 13c-.9 6.3 4.6 11 5.2 11z" opacity=".6"/><path fill="#ccd1c0" d="M366.2 263.9c0 6-7.1 12.6-11.5 16.5-32 28-58.1-11.5-61-16.1-6.2-12.7-21.6-40.6-21.6-40.6-5-7.2-23.4-24.5-21.3-50.4 2.3-27.8 25.7-31.1 40-37.3 9.4-4.9 15.9 5 19.4 12.3 8.6 16.3 17 34.8 25 51.6 10 24 29.7 39.6 31 64z"/><path fill="#c2c2ac" d="M366.2 263.9c0 6-7.1 12.6-11.5 16.5-32 28-58.1-11.5-61-16.1-6.2-12.7-21.6-40.6-21.6-40.6-5-7.2-23.3-24.5-21.3-50.4 2.2-27.8 25.7-31.1 40-37.3 11.3-5.5 17.3 8.3 21.5 16.3-43 2.8-28.6 31.3 8.4 17l14.6 30.6c-22.8 16.3-45.3 44.1-14.4 63.4 11.5 3 34 7 45-3.5l.4 4z" opacity=".4"/><path fill="#c2c2ac" d="M349.6 284.5c-29 15.9-53.2-16-55.9-20.2-6.2-12.8-21.6-40.6-21.6-40.6-5-7.2-23.3-24.6-21.3-50.4 2.2-27.8 25.7-31.2 40-37.3 9.3-4.8 15.6 4.7 19.2 11.9-61.8-5.4-25.2 49.6 13.7 27.7l6.9 14.6c-24.6 15.8-65.8 54.5 19 94.3"/><path fill="#bbb99d" d="M331 250.3c-36 22-50.6-10.9-50.5-11 4.7-6 9-5.7 16-3.2 3 1 10.7-.3 12.7-.3 8.8 0 24 11.4 21.7 14.5z"/><path fill="#bbb99d" d="m297.3 237.4-15.1 4.8a2452 2452 0 0 0-10.1-18.5c-4.6-6.5-20.2-21.5-21.4-43.7 4.5 9.5 11.8 19.8 23.5 20.3 20.3.6 23.3 7.1 18.3 14-4.7 6.6-6.2 22.4 4.8 23.1z" opacity=".7"/><path fill="#a8a586" d="M260.1 207.7s1.6 21 11 23.8l1.4-7.3z" opacity=".7"/><path fill="#bbb99d" d="M308.9 145.4c-32.8-21.7-55.8 17.8-84.2 31.2a65.4 65.4 0 0 1-90.7-40c-1.2-3.8 6-13 7.7-11 11.5 22.3 37.7 21 57 9.3 11-5.7 22.6-16 21-29.5 3.1 2.7 34.3 8.5 45.6 11.5 16.4 4 43.5 28.2 43.6 28.5"/><path fill="#3d8455" d="M271.6 115.6c-18.3-5-36.8-10.2-55.8-11 7.4 9.5-2.8 20.5-11.2 25.7-19.8 12.3-53.7 17.4-62.4-9.1-1-.2-3.8-1.3-4.5-.7-1 3.6.2 8 .5 11.8a59.7 59.7 0 0 0 26.2 39.4c67.9 40 94.1-61 144.5-26.3-.4-.3 1-10-8-17.6-7.6-6.3-22.6-10-29.3-12.2z"/><path fill="#3b754b" d="M308.9 145.4c-50.4-34.8-76.6 66.3-144.5 26.3a59.7 59.7 0 0 1-26.2-39.4c-.3-3.8-1.5-8.2-.5-11.8.2-.2.7-.2 1.3-.1 2.7 14.7 9 33.8 24.2 46a52.3 52.3 0 0 0 43.5 8.7c28.7-6.2 48-33.7 75.2-45.2 5.5-2.3 11.7-4 17.5-3.2l1.4 1c9 7.6 7.7 17.4 8 17.7z"/><path fill="#3b754b" d="M288.5 121.1c-18.4.5-34 13.1-50.8 18-8.2 3.3-20 .9-16.5-10 2.6-9.5 11.5-14.6 17.7-21.6 17 3.6 32.9 7.7 49.6 13.6z"/><path fill="#2b6b40" d="M281.7 118.7c-8.4 3.6-17 3.2-26.2 4.7-9 1.6-10.5-7-7.2-13.9 11.8 2.9 21.4 5.4 33.4 9.2"/><path fill="#3b754b" d="M213.4 129.6c-16 10-37.2 15.3-55.6 9.2a27.8 27.8 0 0 1-13.7-10.9l-3.2-7c.6 0 1 .2 1.3.3 1 2.8 2.1 5.3 3.6 7.4 12.1 18 41.1 12.7 58.8 1.7 8.4-5.2 18.6-16.2 11.2-25.7 3 .1 6.2.4 9.3.7l.1.3c5 9.6-4.3 19.1-11.8 24z"/><path fill="#3e8e5b" d="M214.4 154c21.7-2.3-.9 13.6-9.2 13.6-19.8-.6-6.3-37.4 7.3-32 8.7 3.5-11.6 18.3 2 18.4zm18.2-5c1 2.5 4.8 1.7 6.8.9 2-.9 5.3-3 4.3-5.6-1-2.6-4.8-1.8-6.9-1s-5.3 3-4.2 5.6"/><path fill="#bbb99d" d="m165.4 172.5.5 5c.2 1.2.8 1 1.5 1.4-3.1 6.5-.1 12.4 6.2 15.4l2.4 1c-1.3-2.7-1.6-3.8.7-6.5 2.2-2.7.1-10.4-1.4-13.5l-10-2.8z"/><path fill="#2b6b40" d="M173.8 175.8c-.5 1.1-7-2.8-8.4-3.3l-.4-1.8c-3.8-2.2-3.6-7-2.4-10.4-5.6-1.8-6-7-4.1-11.9-3.3-2.7-2.3-6.8-.4-10 3 1.2 6.2 1.9 9.4 2.2 2.2 11.5 5 23.6 6.3 35.2m-28-47.2c-2.4 4-3.8 9-4.7 14a49.3 49.3 0 0 1-3.4-22.1c.7-.6 3.6.5 4.5.7 1 2.8 2.1 5.3 3.6 7.4"/><path fill="#a05a07" d="m226.3 224.2-1.5-1.4s-1.1-.6-2 .1c-1 .7-13.7 17.2-13.9 18.7-.2 1.5 1 3.2 1 3.2l16.4-20.6z"/><path fill="#d58500" d="M247 244.1c-36.4-32.6-77.1-60.3-114.8-87-2.7-1.3-21.9 14.8-20.5 15.1 4.4 1.8 131.7 91.6 141.9 107l14.1-4.8c-.3-1.5-20.7-30.3-20.7-30.3zm-91.3-53.5c-3.9 1-4.4-5.5-.7-6.5 5-.8 5.4 6 .7 6.5m24.8 19.6c-1.6-1.8-1.3-5.6 1-5.8 2-.5 5 1 4.8 3.6 0 2.6-4 4.6-5.8 2.2z"/><path fill="#d58500" d="M209 224.8c8.6 0 2.9 11-2.5 5.5-1.5-2 0-5.3 2.5-5.5z"/><path fill="#c77500" d="M208.7 212.4c-6.2 1-18.1 2.6-24.1-1.7-1.4.8-3.1 1-4.1-.5-1.6-1.8-1.3-5.6 1-5.8-.2-5 2.7-10.1 2.7-10.1-12.3-9-23.3-16.7-30.6-22 2.4 10.8-14.3 13.2-21.3 13.8 1.7 1.2 13.9 9.5 18.5 13 9.8-.2 22.4 11.5 23.9 17 6.4 4.5 32.2 24.4 36.5 27.3 0 0 12.2-14 14.8-17.4l-17.3-13.6zm-49.9-24.2c-1 3.2-7.3 3.7-6.2-1.3.5-4.5 7.8-3 6.2 1.3m47.7 42.1c-1.5-2 0-5.3 2.5-5.5 8.7 0 3 11-2.5 5.5z"/><path fill="#d58500" d="M263.7 263.4a134.5 134.5 0 0 0-27.4-28.8c-.6.8-10 14.7-11 17.2 13.5 10.2 24.2 19.8 28.6 28 2.5 4.8 2.5 24 1 26.4h2c.5-.4.8-1 1.1-1.5.5-.9 1-4.4 1.3-5 .6-1.7 1.5-3 2.2-4.6.9-1.7 6.9-14 6.7-18.7s-2.2-9-4.5-13z"/><path fill="#c77500" d="M267.2 281.6c-2.6 6-4.9 12.2-8 18-.5 2.5-.6 5.2-2.6 7.2a4 4 0 0 0-2.2 0c.7-2.7 1.9-7.1 1.2-13.1-.7-5.4.8-9-1.7-13.9-6.5-10.9-15-17.3-27-26.7 3.7-6.2 6.4-13 7.4-20.2a196.4 196.4 0 0 1 25.1 24.3c-2 6.6-4.5 28.8 7.8 24.4z"/><path fill="#a05a07" d="m256.2 259.8-2.8 19s-3.4-4.3-6.9-6.8l9.7-12.3z"/><path fill="#d58500" d="M256.3 258.7c0-1-3.3-7.5-9.3-14.6a79 79 0 0 0-12.6-11.8l-3-2.2a11940 11940 0 0 0-13 16.8c1 .6 14.2 15.3 15.8 24.2 4.9-.3 11.1 1.1 15 4.2.2-.4 7-13.1 7.1-16.6zm-17.4-4.4-1.1.2c-4 .7-5-5.6-1.6-7 4.2-1.7 7 5.2 2.7 6.8z"/><path fill="#c77500" d="M237 234.3a69 69 0 0 0-5.7-4.1l-14.2 18.4a32.6 32.6 0 0 1 7.2 5.2c.5-1.6 8.4-16 12.7-19.5z"/><path fill="#d58500" d="M234.5 229.8c-.2-.3-6-6.3-8-7.1-1.2-.5-2.7-.5-3.8.2.5-.2 1.3 0 1.6.6 2.2 3.9-14 20-14.7 19.9-.6-.3-.7-1.1-.7-1.8-.6 1.7.4 3.5 1.5 4.9 2.6 3 6 4.6 6.8 4.7 4 .2 16.4-15 17.4-19.6.2-.6.2-1.3-.1-1.8z"/><path fill="#c77500" d="M234.5 229.8c-1.3-1-8-9.9-11.8-6.9 2-.4 2 1.8 1.2 3.6 9 2.3-3.6 20.5-8.6 11.5-3.8 3.5-6 7.7-6.4 3.6-1.6 4.1 7 9.7 8.4 9.6 4-.3 18.3-15.9 17.2-21.4z" opacity=".3"/><path fill="#c77500" d="M234.5 229.8c-1.3-1-8-9.9-11.8-6.9.9-.4 1.8.5 1.8 1.4 13 1.4 2.9 19.4-6 22.7-3.2 1.2-6 .1-7.7-4.5-1.4 1.6-1.9.5-2-1-1.5 4.2 7 9.8 8.4 9.7 4.1-.3 18.4-16 17.3-21.4" opacity=".3"/><path fill="#a05a07" d="M237.8 254.5a1 1 0 0 1-.2 0c-3.8.2-4.2-4.3-2.5-6.2.3-.4.7-.6 1-.8 0 0-3.4 5.6 2.8 6.8a2.7 2.7 0 0 1-1.2.2zm-82.1-64c-1.9.3-3.7-.7-3.1-3.6.2-1.2 1.1-2.5 2.4-2.8 0 0-3.3 4.6.7 6.5zm28.9 20.2c-1.4.8-3.1.9-4.1-.5-.5-.6-.8-1.3-1-2-.4-2.3.6-3.5 2-3.8 0 0-2.3 6 3 6.3zm25.6 21c-1.4.2-2.8-.2-3.7-1.4-1.5-2 0-5.3 2.5-5.5 0 0-4.1 4.2 1.2 7z"/><path fill="#898e78" d="M87.4 138.4c-11.4 13.9-5.4 33 5.3 47A75 75 0 0 1 86 194c-10.9-3-23.5-10.4-26.4-22 .8-13.7 14.6-27.3 27.9-33.6"/><path fill="#676d54" d="M110.1 183.3c-9-26.2-4.8-49.7 17.3-60.6-29 .8-57.2 19.3-58.5 27.9-2.5 16.4 15.5 33 26.8 39.8 0 0 9.6-4 14.4-7.1"/><path fill="#9ea58e" d="M108.8 182.4c-4.9 3.2-14.5 7.1-14.5 7.1-4-2.4-8.9-6-13.4-10.5-8-8-15-18.8-13.3-29.3.5-3.1 4.4-7.5 10.6-11.8a92.5 92.5 0 0 1 47.8-16c-22 10.8-26.3 34.3-17.2 60.5z"/><path fill="#949984" d="M126 121.9c-5.7 2.8-23 43.7-17.2 60.5-3.2 2.2-12 6.2-14.5 7.1-3.4-2-7.5-5-11.4-8.6-12.7-12.3-25.2-31-4.7-43a92.3 92.3 0 0 1 47.8-16z" opacity=".4"/><path fill="#949984" d="M126 121.9c-22.6 11.3-26 34.6-17.2 60.5-2.5 1.9-14 7.6-14.5 7.1-31.1-31.5-13.4-53-12.8-53.8a92.6 92.6 0 0 1 44.5-13.8z"/><path fill="#676d54" d="M126 121.9c-5.7 2.8-23 43.7-17.2 60.5-2 1.2-6 4.6-6.5 4.3-17.2-9.7-25.2-35.6-20-51.5 11-6.9 28.4-13 43.7-13.3" opacity=".2"/><path fill="#676d54" d="M128.7 181c-.1-35.8 15-63.8 46.7-69.9-36-8.9-78.3 4.6-83.5 15-10 19.6 5 46.7 16 59 0 0 13.5-1.7 20.8-4z"/><path fill="#9ea58e" d="M174 110.2c-32.7 5.3-47.6 38.8-46.6 69.9-6 1.8-16.2 8-20.8 4-12.4-10.8-22.9-35.6-18-54.1 4.8-20.8 60.8-26.8 85.5-19.8z"/><path fill="#b1b7a5" d="M143.6 127.4c-11 12.8-16.3 31.4-16.3 52.7-3.3 1-8 2-12 2.7-3.6-2.2-3.5-10-1.1-13.4 2.3-3.3 6.9-9 5.7-15.1-8-21.4 11.1-28.4 23.7-26.9"/><path fill="#949984" d="M174 110.2c-6.9 1.3-13.4 3.7-19.3 7.5-28.4-5.3-62 10.4-55.4 56.8-3.8-6-7-12.4-9.3-19.2a44.5 44.5 0 0 1-1.9-23.5c3.5-23 60.5-28.4 86-21.6z" opacity=".4"/><path fill="#949984" d="M174 110.2a61 61 0 0 0-8.4 2.2s-1.2-.2-3.2-.5c-16.7-3-48.5-1.6-64 14a46.8 46.8 0 0 0-11 15.5c-.2-4 .2-7.7 1.3-11.4 4.7-20.8 60.7-26.8 85.4-19.8z"/><path fill="#ccd1c0" d="M216.5 120.4c-9.9 13.6-23.2 14.6-34.9 8a59.2 59.2 0 0 1-3-6.8c6.6-1.8 12.2-3.5 16.8-5 11-3.5 17.3-6.5 19.6-11 .8-1.9 1.2-2.9 1.8-1.8 1 1.7 1.4 3.8 1.7 6 .6 3.3-1.2 9.5-2 10.6"/><path fill="#c2c2ac" d="M216.5 120.4c-9.9 13.6-23.2 14.6-34.9 8a59.2 59.2 0 0 1-3-6.8c6.6-1.8 12.2-3.5 16.8-5 4.2 1 22.9 5.2 23-6.8.7 3.3-1 9.5-1.9 10.7z" opacity=".4"/><path fill="#c8cbb8" d="M286.3 371.6a451.4 451.4 0 0 1-181.1 2.9c4.1-9.4 7-24.7 10.3-29.9 5.7-9.5 5.2-22.4 7.6-33.4 42.2 4.3 95 10.2 137.9-3-.2 22 15.8 44.2 25.3 63.4z"/><path fill="#ccd1c0" d="M286.2 371.6c-30.2 9-86 11.7-105.1 10 12.5-10.2 31-13.3 46.3-13.3C250 367 269.6 345 271 344.4c3.8 7.6 10.8 20 15 27.2z"/><path fill="#bbb99d" d="M268.5 337.7c-35.3 34.4-95-25.7-156.5 38a437 437 0 0 1-12.3-2.2c9.3-24 21.1-27.2 23.4-62.3 42.2 4.3 95 10.2 137.9-3 0 10.5 3.4 20.1 7.6 29.5z"/><path fill="#3e8e5b" d="M261 312.4c-3 7.6 6.7 12.4 6.6 21.2.5 5.7-6.2 2-8.9 3.9-2.1.5-4.1.1-6.2 0-4.7-.4-8.8 1.5-13.2 2.3-18.3 3.3-5.5-1.3-30.7 1.7-4.5.6-9 2-13.6 2s-8.9-1.4-13.4-1.5a209 209 0 0 1-43.5-1.3c-10.1 0-10-9-20.3-4.3-4.3-3.2 2-4 2.6-7-.4-4.5 3.6-7.8 3.4-12.1-1-5.7-6.4-10.1-5.5-16.3 0-3-2.1-6-2.9-8.7-1.5-5.4 1.9-7 3.2-6 6.7 5 12.3-3.7 19.8 2.2 2.2 1.3 4.6 2.6 7.2 3.3 17 1.6 34.6-.7 51.5 2.1 9.1 3.3 18.5-1.3 28 .1 5 .6 10-.4 15-1 4.4-.2 8.5 1.9 12.8.9 8-1.5 18-5.7 15.3.5-8.2 11.4-3.7 6.4-7.2 18z"/><path fill="#3b754b" d="M264 323.3c-2.4-3.2-4.8-7-3-11 1.8-3.6.9-7.6 2.6-11.2 10.3-13.2 3.5-10.5-11.5-7-2.2 7.9-15 9.5-13.6-1-3.7.6-7.3 1.3-11.1 1-.3 4.4-3.5 8-7.2 10.7-15.6 11.5-36.3 4.9-54.1 6.5-5 .6-4.3 4.7-21.6 1-31.7-6.7-23-2.7-23-2.7a19 19 0 0 1-1.3-.4c4.4 7 4.7 9.2.7 16.4-.4 3.1-.2 5.2-3.4 7 13-1.7 26.2 1.5 39 3 10 1.4 18.8 6.5 28.7 6.7a11.5 11.5 0 0 1 19.5-.1c22.7-4 18.5.7 34.6-2.5 4.5-.8 8.5-2.7 13.2-2.3 3.1.6 6 .2 9-.6 2-.2 6.7 1.4 6.1-3.2-.4-3.7-1.4-7.1-3.6-10.4z"/><path fill="#d58500" d="M264.4 325.2c-21.4 6.5-129.6 5.6-143.4-6.9-1.3-1.2-1.4-3.5-.8-5-1.6-1.2-2.8-3.8-.2-4.7 5.2-1.4 7.6 2.4 13.2 3.2 21 6 87.2 6.8 129.2 5 .8.6 1 1.8.7 2.7 0 0-.5.6-.3.8 3.8 1.8 2 2.4 1.3 3 1 .3 1.4 1.5.3 1.9z"/><path fill="#a05a07" d="M264 323.3c.8-.6 2.6-1.1-1.2-3-.3-.1.3-.7.3-.8.2-1 .1-2-.7-2.7-30.2.4-72.7 2.5-101.8-1.2-16.7 6.8-37 2.5-40.2 2 4.8 7.3 81.6 13.2 122.5 10.8 4-5.2 13.8-7.5 18.7-2.4 1.5-.2 5.1-1.3 2.4-2.7z" opacity=".3"/><path fill="#a05a07" d="M264.7 325c.7-.5.2-1.5-.6-1.7.7-.6 2.5-1.1-1.3-3-.2-.1.3-.7.3-.8.2-1 .1-2-.7-2.7-21.4-.5-49.5 2.6-74 .6-14 3.8-28.6 6.7-43.2 6.7 26 3.6 66.5 5.6 93.9 4.4 5-5.4 19.2-9.1 25.6-3.5z" opacity=".3"/><path fill="#a05a07" d="M227.7 317.9c-6 4.5-26.8 10.9-26.8 11.3 8.8.3 23.5-.2 31.3-.4 10.1-3.6 21.3-6 30.3-12-.3-.1-1.2-2.6-1.6-2.5 0 0-21.6 3.3-33.2 3.6z"/><path fill="#d58500" d="M123.4 318.7c-3.4-.6-4 3.4-4.4 5.7-.5 1.5.6 3 2.1 3.9 32.4 10 143.1-.2 142.3-18.5 0-1.1 1.8-1.8 1.7-2.9-.1-.7-1.2-1.2-2.1-1.1-20.2 10.4-91.3 23.6-139.6 13z"/><path fill="#d58500" d="M263.4 309.7c0-1 1.8-1.7 1.7-2.8-.1-.8-1.2-1.2-2.1-1.2-1 .1-1.7.6-2.5 1-7 3.8-23 8.2-42.5 11.4l-3 3.7c-1.8 2.2-4 4-6.4 5.7l-3.3 2.1c22.4-2.8 42-7.8 54.1-13.3 2.5-1.2 5.3-3.1 4.4-5.3-.1-.4-.4-.8-.4-1.3z"/><path fill="#a05a07" d="M263.4 309.7c0-1 1.8-1.7 1.7-2.8-.1-.8-1.2-1.2-2.1-1.2-4.7 1.7-7.9 3.9-14.6 5.6-1 6.3-5.8 4-6 6.6-.4 2.5-2.9 1.8-3-.4-.2-1.2-.3-3-1.8-3.3a296.2 296.2 0 0 1-34.4 6c-19.4 10.8-66.3 15.3-79.5-1.4-1.1-.4-2.3 0-3 .8-1.3 2.1-2.9 6.2-.5 8 7.4 5 71.8 8.7 120.5-4.6-1.1-2 1.6-2 1.9.3 4.8-2 24.7-7 20.8-13.6z" opacity=".3"/><path fill="#a05a07" d="M238.7 321.5c-2.1-2-.4-2.4-1.1-4.1-.9-1-.7-2.1-.2-3.2l-2.6.6c-2.4 3 0 7.8 3.5 8.9l4.3-1.2c-1.4 0-2.9 0-3.9-1zm24.7-11.8c0-1 1.8-1.7 1.7-2.8-.1-.8-1.2-1.2-2-1.2-4.3 1.4-6.9 3.4-12.5 5 2 1.8.2 4.3.5 6.5.2.8.4 2.3.2 3.1 4-2 15-4.6 12.1-10.6zm-144 16.7c0-1.5 1.3-2 2.5-2.6 2.7-1.3 2-5 0-5s-3.6 6.2-2.5 7.8v-.1z" opacity=".3"/><path fill="#a05a07" d="M238.6 317.3c-.6-.6-1.8-.7-2.6-.4-.6.3-1 .8-1 1.3-.3.7 0 1.4.6 1.9.8.7 2.2 1 3 .2 1.1-.8.7-2.2 0-3" opacity=".3"/><path fill="#a05a07" d="M238.3 317.6c-.5-.5-1.4-.6-2-.3-.6.2-.9.6-1 1 0 .6.2 1.2.6 1.5.6.6 1.8.8 2.5.2.8-.6.5-1.7-.1-2.4z"/><path fill="#ccd1c0" d="m240.6 322.8.1.2c-4.4 1.5-9.5-6.1-3.5-9v.3l2.3-.6c-.4-1-1-2-1.9-1.8-11 3.2-2.8 16.5 4.9 12.4.8-.4.7-1 .3-2.1l-2.1.6z"/><path fill="#c2c2ac" d="M237.6 312c-1.2.3-2.1.7-3 1.3.8.2 1.4.7 1.7 1.3.2-.2.5-.4.9-.5v.2l2.3-.6c-.4-1-1-2-1.9-1.8zm-2.8 11.2c.4-.6 1-1.1 1.6-1.4a5.4 5.4 0 0 1-2-4.3c-.7.1-1.5-.1-2-.6-.4 2.3.6 4.7 2.4 6.3zm8-1-2.2.6.1.2c-.6.2-1.3.2-1.9.1a3 3 0 0 1 0 2c1.5.1 5.4-.3 4-3z"/><path fill="#bbb99d" d="m237.4 314.2 2.1-.5c-.4-1-1-2-1.9-1.8a8.5 8.5 0 0 0-1.1.4c.5.5.9 1.2 1 2"/><path fill="#c2c2ac" d="M237.6 312c-8.6 2.8-2 17 5.4 10.6l-.2-.4-2.2.6.1.2c-4.4 1.5-9.5-6-3.5-9v.3l2.3-.6c-.4-1-1-2-1.9-1.8" opacity=".3"/><path fill="#bbb99d" d="M235.5 320.9a5.9 5.9 0 0 1-.8-1.5l-2.1.5.9 1.8c.4-.5 1.2-.8 2-.8m7.3 1.3-2.2.6c.4.6.7 1.3.6 2 1.4-.3 2.5-.9 1.6-2.6"/><path fill="#ccd1c0" d="M238.9 319c0-.6-.4-1.3-1-1.6-1.8.5-5.3 1-6.8 1.8-1 .4-.4 1.4.5 1.6.3 0 4.3-.8 7.3-1.8z"/><path fill="#c2c2ac" d="M238.3 317.6a1.3 1.3 0 0 0-.4-.2 35 35 0 0 1-2 .4c-.9 2-3.3 2.7-5.2 2.3 1.2 1.6 4.3-.2 8.2-1 0-.6-.3-1.1-.6-1.5z"/><path fill="#bbb99d" d="M238.3 317.6a1.3 1.3 0 0 0-.4-.2l-.8.2c.1.9-.7 1.8-1.4 2.3 1-.3 2.2-.5 3.2-.9 0-.5-.3-1-.7-1.4z"/><path fill="#a05a07" d="M247.8 314c-1.1-.3-2.4.7-2.4 1.6 0 1 .6 1.8 1.6 2.1a2 2 0 0 0 1.8-.2c1.5-.9.7-3-1-3.5z" opacity=".3"/><path fill="#a05a07" d="M247.7 314.5c-2-.3-2.4 2.2-.5 2.7 2 .6 2.5-2.1.5-2.7"/><path fill="#a05a07" d="M258.9 311c-2-3-6 1.2-2.8 2.8 1.8 1 4-1 2.8-2.7" opacity=".3"/><path fill="#a05a07" d="M258.4 311.3c-1.4-2.1-4.4.9-2 2 1.3.8 2.8-.7 2-2z"/><path fill="#a05a07" d="M225.6 319.8c-.7-.4-1.6-.4-2.4-.1-1 .3-1.2 1.2-1 2 .5 1.9 3.4 2.2 4.3.3.3-.8-.1-1.7-1-2.1z" opacity=".3"/><path fill="#a05a07" d="M225.3 320.2c-1-.7-3 0-2.7 1.4.7 2.6 5.2.4 2.7-1.4z"/><path fill="#a05a07" d="M211.2 322c-4.2-1.1-3.7 4.7.1 4 2.6-.3 2.2-3.9-.1-4z" opacity=".3"/><path fill="#a05a07" d="M211 322.5c-3-.8-2.7 3.5.1 3 2-.3 1.7-2.9 0-3z"/><path fill="#a05a07" d="M121.9 311.8c1.7 2.6-2 4.5-2 4.5-.4-1.5.4-2 .3-3-1.6-1.2-2.8-3.8-.2-4.8 2.5-.9 5.3.3 7.5 1.5 1.2.6 3.1 1.2 5.6 1.8-.5 0-13-2.5-11.2 0" opacity=".3"/><path fill="#3b754b" d="M118.5 305c.2-4.7-1.3-8.6-3-12.7 9.2 4.8 11.5 5.2 3 12.6M225 294.1c-9.9 20-54.9 2.7-68.7.3-11.3-3.8-34.4 6.7-37.7-8 6.7 5 12.2-3.8 19.8 2.1 2.2 1.3 4.6 2.6 7.2 3.3 6 1.5 12.3-.2 18.5.5 10.9.8 22.2-.5 33 1.6 9 3.3 18.5-1.3 28 .2"/><path fill="#151916" d="M333.8 301.9c-.2 3.4-47.5 12-68.4-16.1 0 0-3.6-4.7-11.5-6-10.8-1.7-26-5.3-31-5-8.3.2-12-2-12-2-4.5-3.6-13.7-1.3-24.5-4L66.7 292c-5.8 1-12.8-6.1-14.4-12.7L214 226.9c28.9 11.1 80.8 17 109 27.7 0 4 10.8 47.3 10.8 47.3z" opacity=".3"/><path fill="#e8d4ba" d="M191.7 98c-9.2 6.4-25.8 6-35.4-1.7-9-7-11.2-35-11.6-37.4-.1-4.4 2-29.9 2.6-34.2 3.5-23 47.8-25.1 60.3 2.6 2.9 6.1 16.7 47.5-16 70.6z"/><path fill="#ceb79b" d="M180.4 38.5c-7.6 3.8-7.8 18.6-3 14.7 6.3-5.3 19.4-7.4 19.7-8.4.4-1.2-7.4-8.7-16.7-6.3z" opacity=".4"/><path fill="#ceb79b" d="M157.5 84c-1 0 12.7 24.5 40 2.6 6-4.8 9-30.6 9.1-35.5 0-4.8 6.7-3.2 5.6-7.3-1.2-17.1-6.9-22.6-13.8-26.3-1.1-.6-7 .9-8.4 2.1.3.9 9 5.2 11 18.7 1.2 9.8-4 67.1-35.2 34.9-3.3-3.2-3.6 10.5-8.3 10.7z" opacity=".4"/><path fill="#ceb79b" d="M173.2 76.6c.2 1.8-19.7 10.5-22.6 8.7-1.7-1.5-4.5-18.3-5.3-24.4-.3-2.5.3-20 2.4-19.2 2.3 1 16.3 0 14.4 3.7 3.3.5 5.7 2.7 4.5 6.1-.9 5.2 1 11.3-2 16-4.2 4.5 3.5 7.8 7.3 8.3.5.1 1.2.3 1.3.7z" opacity=".4"/><path fill="#ceb79b" d="M197.5 86.6c11.4-14 8.4-26 6.5-42.1-3.7 16.8-9.6 33.8-24.2 21.6 3.8 9.8-6 2.7-10.7 9.3 5.6 1.9-1.8 3.7-4.2 4-3.3.5 17.8 23.3 32.6 7.1z" opacity=".4"/><path fill="#ceb79b" d="M179.7 71.6c-4.8-2.8-8.4 5.2-12.8 2.4-2-2.2-4.7-2.8-3.2-6.7 1.3-2.7 3-5.3 2.7-8.4-.3-4 1.4-8.7-.6-12.2-1.1-1.2-2.9-1.5-4.5-1.6-4-.8-7.6-2.5-11.6-3.1-1.4 0-4.4-1-4.1 1.4-.4 11.3.4 22.6 2.6 33.6 1 3.4 1 7.5 2.8 10.5 1 .5 16.2-4.3 22-7.5 1.6-3.4 5.2-5.2 6.7-8.4zm-15.5-16.5c-.2 6.8-11.5 10.7-8.8 17.7-1.5-.4-2.5-.8-2.6-1.2-1.1-3.2-2-6.5-3.3-9.7-2.3-5.2-2.6-12 4.8-12.2 3.8.1 10.9 0 9.9 5.4z" opacity=".4"/><path fill="#ceb79b" d="M150.4 86c.8 3.4 17.8-3.6 22-5.6-4-.6-8.3-.6-12.2-2-.2-.7.5-2.6-.3-2.6-8.5 3.9-12.2-8.3-12.2-16.4 0-5.8-1.6-16.4-2.1-15.6-.6 11 1.2 29.8 4.8 42.3z" opacity=".4"/><path fill="#ceb79b" d="M206.6 51.2c-2.5 4.1.3 9.6-.4 14.3a44 44 0 0 1-2.6 10.3 33 33 0 0 0-3.3-.5c2-12.2.8-29.2-1-30.2-2.5-1.4-18.6-1-21.4.2-.6.3-.4 2.3-.3 3-2.1 1.1-3.1-.7-4.2-1.6-4.2-3.3-4.7-1.9-9.7 2-1.8 1.3-3.6-.1-7.4-.9-2.8-.5-10.2-.2-10.7 0 0 0-.9-12.5-.7-12.9.2-.6 4-19.8 15.3-19.7 7.4.1 34.7-3.8 43 3.8 9.9 9.2 8.6 22.1 9 25 1.1 3.9-4 4.5-5.6 7.2zm-21.4 36.4c2.5-1.5 13.7 9.1 14.3-9.5-.2 0-1.5-2.7-2.1-1.6-4.8 8.2-11.3 10-12.2 11" opacity=".4"/><path fill="#d58500" d="M195.5 17.7c3.2 1 11 4.6 12.9 8 3.5 5.9 3.3 14.3 3.7 17 1.2 4-7.6 15-9 15.9a51 51 0 0 0-7.6-40.9" opacity=".3"/><path fill="#e8d4ba" d="M223.2 53.6c-.2 4.5-1.7 9-2.8 13.6-2.3 7-10.3 5.2-12.8-.6-3.2-6.6-2.6-21.6 4.9-25 1.3-.3 2.6 0 4 .3 5.9.6 6.8 6.7 6.7 11.7"/><path fill="#ceb79b" d="M220.8 66.1c0 .1-.4 1.8-1 2.7-.3.5-1.7 3.4-6 3-10.3-1.2-9.7-19.6-5.2-26.8.4-.6 2.3-4.4 6.6-3.7 1 .1 2.1.7 3.2 1-5.1 1-7.7 7.6-7.5 12.2.3 3.4 1.1 11 3.3 13.4.5.4 6.1-1.4 6.6-1.8z"/><path fill="#ceb79b" d="M214.7 51.3c-.3 2.7 1.7 16.6 5.6 16.5a8.2 8.2 0 0 1-3.4 3.5c-8.7-.7-11.8-10.4-10.2-18 .2-1.3 1.4-11 8-12 1.1-.1 2.3.7 3.3 1-4.4.7-6.9 6.1-7.4 10 .4-4.1 7.8-11.6 11.3-6.6a9.2 9.2 0 0 0-5.7 5c-.7-.1-1.2.1-1.5.6z" opacity=".4"/><path fill="#ceb79b" d="M220 52.3c-.5 2.2-2.5-.7-4-1.4-3.6-.6.3 6.1.8 7.3.7 2.1-2.2 8.5-4.1 4.3.5-1 2.4-1.7 2-2.9a9.9 9.9 0 0 0-3-4.3c-.7-4.1 2.4-7.4 6-8.4 2.2-.3 2.6 3.7 2.4 5.4z"/><path fill="#ceb79b" d="M223.2 53.6c0 1.7 0 2.9-.4 4.8-1.9-2.5-5.9-8.4-7.7-7.4-1.5.8 1.1 9 .6 8.4-1.3-1.5-3.2-4.6-4-4-3.2-8 12.6-19.8 11.5-1.8" opacity=".4"/><path fill="#676d54" d="M217 68c-1.5 3.7-6-.3-3-2.7 1.6-1 3.8 1 3 2.8"/><path fill="#474c2f" d="m216.3 69.2-.6.2c-1.2.4-2.3-.3-2.7-1.5-.3-1 .2-2 1-2.5 0 0-1 3.7 2.2 3.8z" opacity=".4"/><path fill="#949984" d="M217 68c-3.6-.1-2.5-2.8-2.5-2.8 1-.4 2.2.4 2.6 1.5.1.5.2 1 0 1.4z"/><path fill="#3e875b" d="M160.6 50.7c-1.8-.2-4-.5-5.5.5-.7 1.2.5 2.9 1.5 3.5 2.5 1.7 7.2-1.9 4-4M185 49c-3 2.4 2.5 5.6 4.6 3.5 1-.8 2-2.7 1.1-3.9-1.6-.8-4 0-5.7.4"/><path fill="#3b754b" d="M185.1 49c-2.7 2 1.4 5 3.7 4-.9-.2-2.3-.4-2.5-1.4 0-2.2 3.3-1.3 4.8-1.6.2-2.9-4.4-1.3-6-1z"/><path fill="#676d54" d="M178.7 53.1c.3 0 7.6-6.7 16-3.1.8.3 1.4-.8.6-1.2-9.7-4.1-16.3 2.9-17 3.1-.8.4-.3 1.5.4 1.2z"/><path fill="#3b754b" d="M156.7 54.7c1 .6 2.1.5 3 .1-3.3-1-.9-3 2-2.2.3-2.2-2-2.1-3.6-2-3.7-.5-4.4 2.1-1.4 4.1z"/><path fill="#676d54" d="M165 53.7c-.3-.1-7.8-5.6-15-.6-.7.4-1.4-.6-.7-1 8-5.6 15.1.2 15.8.3.8.2.5 1.5-.1 1.3z"/><path fill="#ceb79b" d="M177.9 72.8c-.6.4 0 1.4.5 1 1.3-1 2.4-2.6 2.5-4.3 0-1.2-.1-2.8-1.3-3.6-.6-.3-1 .6-.6 1 .8.4.9 1.8.8 2.5 0 1.3-1 2.6-2 3.4z"/><path fill="#ceb79b" d="M163.3 67.4c-.3 1.1-1.9 4-.2 4.6 5.1 2 2.5 4.2 8 3 .7-.1 2.1-3.5 6.2-3 .7 0 1-1 .3-1-4-.5-5.9 2-7 3-5 1.5-5.2-5.3-4-8.7.2-.6-.6-1-.9-.5a12 12 0 0 0-.5 6.7c-2.3-2-2 1.7-.9-3.9.1-.7-.8-.9-1-.2zm2.5-10.7c.2 1.5.4 3.1.1 4.7-.1.3.3.6.6.6 1.6-1.2-.6-7.2.5-9.5.3-1 .6-5-.7-5.1-.8.3-.6.5-.6.6 1 3-.6 5.7.1 8.7z"/><path fill="#ce8000" d="M213.7 74.7c-2.6 7.2.6 34.3-10 33.5-.4 1-3.6 9.4-6.5 7.5-1 3.5-2.2 7-4.3 10-4.7 6.8-16.3 6.7-23 5.6-9.2-.8-11.3-12.2-11-17-1.4-.3-4.7-1-6.2-6.5-8.3-10.6-9.1-20-9.3-33.6-.1-7.4 1.8-18.9 2-28.7-.2-4 .5-9.6.6-7.6.2 4.8-1 8 1 12.6-.8.7-1.3 1.8-1.9 3l2-1.5v2.8c-.3.2-.7 1.5-.8 1.9l1-.7c.8 6-1.5 14.8 3.1 19.3-.6 3.3 1 7.3 3 10.1-1.2-2.3 1.7-7.8 4.9-8.5-.8.4-.8 2-.8 2.1.3-.4 1.6-3.3 2.6-3.1 6 1.5 13.7.8 20.2-.7l3 2c-.2-1-.6-1.6-1.4-2 9-2.3 12.1 6.5 13 9.5 1.2-3.1 3.3-5.2 2.5-8.1 8.1-1.7 5-16.7 5-21l2.3 1.3c-1.1-1.2-2.6-3.6-2.1-5.5l1.5 1c-.4-.4-1.2-1.8-1.5-2.2V49l7.2-4.9c-5.7 7.6-4.6 22.3 3.8 27.8.2 1 .2 1.9.1 2.9z"/><path fill="#a05a07" d="m152.3 91-.1-1.5c.1.5.2 1 0 1.6" opacity=".3"/><path fill="#a05a07" d="M159 114.4c0-.3-4.7-1-6.2-6.6C137.7 92 145.4 59 145.9 38c.2 4.8-.8 8 1 12.6-.8.7-1.3 1.8-1.9 3l2-1.5v2.8c-.3.2-.7 1.5-.8 1.9l1-.7c.8 6-1.5 14.8 3.1 19.3-1.1 7.5-.8 16 .7 22.9a23 23 0 0 0 1.2-7.1c.8 14.3 9.7 21.3 17.4 30.6-2.3-6.5-5.6-15-4-22.7 2 12.9 9.8 24.1 20.6 30.9-5.5 9.2-27.7 5.1-27.3-15.5z" opacity=".3"/><g opacity=".5"><path fill="#c77500" d="M166.6 80.8c4.7-2 10.2-.9 15.3-.2-2.6 2.9-15.6 2.3-18.4 2.4 1-.1.4-1 3-2.2m4.8 6.6c-2.2-.2-2.4.3-1.3 2 2 2.5 5.7.3 5-2.7-1 .8-2.5.7-3.7.7" opacity=".3"/></g><path fill="#a05a07" d="m213.7 74.7-.8 3.7a13.6 13.6 0 0 1-2.2-2.6 33 33 0 0 1-3.8-9c-1.2-3.9-2-12-2.7-19.1l5.7-3.8c-5.7 7.6-4.6 22.3 3.8 27.8v3z" opacity=".3"/><path fill="#995a07" d="M182 80.3c.7-.6 1.5.5.8 1-1.2.9-3 1.1-4.4 1.5l-4.8.7c-3.6.2-7.1.5-10.7.1-1 0-.7-1.3.2-1.2 3.2.2 6.5.2 9.8-.1 1.6-.2 3.1-.3 4.6-.6 1.5-.2 3.5-.5 4.6-1.4zm-7.7 6.5c-.4.5-1.8.3-2.4.3-.9 0-1.7 0-2.5-.4-.8-.2-1 1-.3 1.3 1 .3 2.3.4 3.3.4.8 0 2.1 0 2.7-.8.6-.6-.4-1.5-.8-.8z"/><path fill="#ba6f04" d="M187.5 152.3c.2 1.8-.7 3.6-1.5 5.1 0 5.5-2 10.2-5.8 13.7-1.4.9-2.2-.2-3.8.3-2.8.4-5.5-2.4-7-4.6a11 11 0 0 1-1.6-6c0-1 .2-2 .4-3.2-.1 0-.3 0-.4-.2-3-2.2-2.8-7.7-.5-10.5a11 11 0 0 1-.4-11.5c-.6-1-1.6-2-2.2-2.7l21.5-.7c.5 1.4.1 2.6-.4 4l.3.5c1.6 3.1 1 7.4-.4 10.8 1 1.6 1.8 3.6 1.8 5z"/><path fill="#d58500" d="M179.8 193.7c-6.4-3.6-11.8-13-6.8-19.2 0-.7-.5-1.6.6-1.7 5.7.1 8.2 1.8 9 4.2 1.4 3.8-1.3 9.3-3 13.8a3.8 3.8 0 0 0 .2 2.9z"/><path fill="#a05a07" d="M179.6 190.8c-.3 1-.2 2 .3 2.9-6.4-3.7-11.9-13-6.9-19.2.1-.8-.4-1.6.6-1.8 5.7.2 8.3 1.9 9.1 4.3-.4.1-9.7 6.3-3.1 13.8z" opacity=".3"/><path fill="#995a07" d="M173.4 180.2c0 2.5.6 4.9 2 7.1.4.8 1.5 0 1-.7-1-2-1.6-4-1.6-6.2 0-1.4 0-3.5 1.4-4.1.7-.3 0-1.4-.7-1.1-1.9.7-2.1 3.3-2 5zm6.4.9c.6.5 1.6-.3 1-1-1.3-1.3-3.4-2.7-2.4-4.7.4-.8-.7-1.5-1-.7-1.3 2.7.7 4.5 2.4 6.4zm6.6-59.1c0-.9-1.4-.8-1.3 0 .2 2-.7 3.9-2 5.3a11 11 0 0 1-4.1 2.5 8.3 8.3 0 0 0 2.4-6c0-1-1.4-.9-1.4 0 0 2.5-1 4-2.7 5.8-.6.5.2 1.2.7 1 0 .6.3 1 .8.7 2-.8 4-1.6 5.4-3.3 1.5-1.6 2.4-4 2.2-6zm-13 7.3c-1.8.2-3.6-2.5-3.7-4 0-.8-1.2-.8-1.1 0a7 7 0 0 0 3.2 4.9c-.6-.3-1.3-.3-2-.7a8 8 0 0 1-2.5-1.9c-1.4-1.5-2.7-3.6-2.5-5.7 0-.8-1-1-1.1-.2-.3 2.4 1 4.5 2.3 6.2a11.4 11.4 0 0 0 2.4 2.2c.5.4 1 .6 1.6.8l1.4.4c.7.3 1.1-.6.7-1 .5.2 1 .4 1.4.2.7 0 .7-1.2 0-1.1z"/><path fill="#00c55e" d="M165 135.7h23c2-.7 2-4.5 1-6.7-12.7-.1-9.1-.2-25 0-.9 2-.9 5.8 1 6.7"/><path fill="#06b253" d="M165 135.7h2.4c-2.7-6.3 16-6.7 17-6.7L164 129c-1 2-1 5.9.8 6.8z"/><path fill="#c57802" d="M179.2 139.4c-1.5 1.7-3.4 5.2-2 6.5 1.3 1.4 5.6-.2 7-1.8 1.5-1.5 1.7-4 .2-5.3-1.5-1.3-3.7-1-5.2.6zm-8.3 1.2c1.3 1.1 3.2 3.9 2.3 5-1 1-4.5.2-5.9-1.1-1.4-1.3-1.5-3-.6-4.1 1-1.2 2.9-1 4.2.2zm1.4 10c1.3 1.2 2.9 4.7 1.8 6-1 1.2-5.5-.3-6.8-1.5-1.2-1.2-1.5-3.2-.4-4.4 1.1-1.2 4-1.4 5.4-.1m6.8-.7c-1.5 1.7-3.4 5.2-2 6.6 1.3 1.3 5.6-.3 7-1.9s1-3.1-.3-4.4c-1.4-1.3-3.1-2-4.7-.3zm-5.9 11.7c.8 1.7 2.3 6-.2 6.4-1.2.3-3-2.7-4-4.5-.8-1.7-.3-2.8.8-3.3 1.3-.5 2.6-.4 3.4 1.4m5.4-.7c-1.5 1.7-3.4 6.5-1.6 7 1.5.5 4.4-1.5 6-3.2 1.5-1.7 1.6-3.3.2-4.6-1.3-1.2-3.1-.7-4.6.8"/><path fill="#995a07" d="M170.8 139c1 1 1.8 2.2 2.6 3.4 1 1.3.6 3 .6 4.7 0 .9 1.5 1 1.6-1.1 0-1.6-.4-3.2-.1-4.2.8-1.4 2.3-4.6 3.9-4.3.9.2 1-1.2.2-1.4-2-.3-4 3.5-5.2 5.2-1-1.2-1.9-2.3-3.2-3.1-1.5-1-1 .3-.4.8"/><path fill="#995a07" d="M171.4 148.7c-.8-.2-2.2-.1-1.6.6.3.2 1.8.5 2.6 1.5 1.5 1.8 1.6 4.2 1.6 6.4 0 .8 1.1 2.5 1.1-.2-.7-3.2 2.5-9 4-8.9 1 0 .9-1.3 0-1.3-1.8-.2-3.7 2.9-4.6 4.4-1-1.5-1.6-2-3.1-2.5z"/><path fill="#995a07" d="M171.6 160.3c3.2 1.3 1.5 5.7 3.2 9.5-.2.8 1.1 1.7 1.3.8-1.4-3.1-.8-5.2 0-7.6 0 0 1.1-4.4 3.8-4.2 1 .2 1.1-1.1.4-1.3-3 0-4.7 2.9-5 4.3-.9-1-.9-1.6-2-2.1-.7-.5-2.8-.5-1.7.6z"/><path fill="#00c55e" d="m172.3 175.4 9.6-.1c.7-.8.8-4.3.3-6.4l-11 .1c-.4 2 .3 5.7 1 6.4"/><path fill="#06b253" d="M172.3 175.4h1.3c-1-4.8 6.5-6.5 6.5-6.5h-8.9c-.4 2.2.3 5.8 1 6.5z"/><path fill="#d58500" d="M181.6 144.1c-2.4 1-3.6.2-3.1-.9.4-1 1.8-3.6 3.4-3.6 1.5-.1 3.7 2.9-.3 4.5m-.5 11.5c-2.8 1.2-4.2.2-3.6-1s2.3-4.4 4-4.5c2 0 4.5 3.5-.4 5.5zm-1.5 10.7c-2.1.9-3-.3-2.4-1.5.7-1.2 2.3-4 3.5-3.8 1.3.1 2.5 4-1.1 5.3m-8.8-1.1c1.6.9 2.3 0 2-1-.3-1-1.2-3.5-2.3-3.4-1 0-2.3 2.9.3 4.4zm-1-9.6c2.8 1 4 0 3.6-1.2-.5-1.2-2.3-4-4-4-1.7-.1-4.2 3.3.4 5.2zm-.8-11c2.3 1 3.4.1 2.9-.8-.4-1-1.9-3.5-3.4-3.5s-3.4 2.8.5 4.3"/><path fill="#ce8000" d="M184.8 24.4s-25 7.9-32.5-1.2c-7.4-9 21.5-19.7 21.5-19.7s17.3 1.8 22.8 5.6c5.9 4-.2 10.3-11.8 15.3z"/><path fill="#c77500" d="m215.5 29.3.4 12.2a4.9 4.9 0 0 0-3.8.2c-.7-10.9-7.3-21.4-16.1-23-5.8 3-11 6.5-17.5 7.6-1 .3-2 .4-3 .5a72 72 0 0 0 19-11.3c3.6-3 8.1-.6 11.2 2l3.5-2.6s-3.2 9.9 2.7 9.7c1.2 0 .2 6.5.2 6.5z"/><path fill="#c77500" d="M178 26.3c-8.4 1.7-19.4 3.3-26-3.6 0 .3-2.5 3.4-3.9 7.5-1.6 5.2-2.4 11.5-2.5 11.7-5.5-21.5 6.8-36.1 21.7-40.3.7 1 3.6.2 3.8 0l-7.4 4.8 3 1.2c-3.2 7.4 0 19.5 11.3 18.7z"/><path fill="#c77500" d="M147.8 42.6c-1.5.7-.5 4.5 0 4.9 3.3-1 10-1 16.2.5.5 0 .7.1.9-.2-2.3-1.8-5.4-2.5-7.3-4.8.3 3.5-4-.5-4.8-1.6-2 .3-3.7.6-5 1.2z" opacity=".3"/><path fill="#ce8000" d="M147.7 42.8c-1.5.6-.5 4.4 0 4.8 3.4-1 10-1 16.3.5 1 0 .7.4 2-3.3.6-2 .4-2.7-1.6-3l-.9 1.7-.3-2c-4.4-.5-11.6-.5-15.5 1.3z"/><path fill="#a05a07" d="M147.7 42.8c-1.5.6-.5 4.4 0 4.8 1.4-.5 3.5-.6 6-.6a8.8 8.8 0 0 1-2.4-5.2 10 10 0 0 0-3.6 1z" opacity=".6"/><path fill="#c77500" d="m150.4 44.6-.2-2.7c-1.1.4-2.4.4-3 1.4.4.6 3.6 3.2 3.2 1.3" opacity=".3"/><path fill="#ce8000" d="M178 39.4c-3.7.9-4 .6-3.5 3.2.3 2 1.4 4.3 2.8 3.9 2.3-.6 10.6-2 15.8-2.5l-1.3-1.5c-.2-.1 3.7.2 4.7 1.5 1.8.8 1.4-4.5 1.1-4.7-4-1.7-13.9-1-18.5 0l.1 1.7-1.2-1.6z"/><path fill="#c77500" d="M178 39.4c-3.7.9-4 .6-3.5 3.2.3 2 1.4 4.3 2.8 3.9 2.3-.6 10.6-2 15.8-2.5l-.4-.5c-4.5-.3-9.2-1.6-12.9-4.5l-.7.1.1 1.8-1.2-1.5z" opacity=".3"/><path fill="#a05a07" d="M176.4 39.7c-2.2.5-2.4.6-2 2.8.3 2 1.4 4.3 2.8 4l3.5-.8a13.5 13.5 0 0 1-1.6-1.5 7.4 7.4 0 0 1-2.7-4.5z" opacity=".6"/><path fill="#fff" d="M190.2 52.5c.6 0 1.2-.3 1.2-.7 0-.4-.6-.7-1.2-.7s-1.2.3-1.2.7.5.7 1.2.7m-29 2c.6 0 1.1-.3 1.1-.6 0-.4-.5-.7-1.2-.7-.6 0-1.2.3-1.2.7 0 .4.6.7 1.2.7"/><path fill="#e8d4ba" d="M30.3 199.3s8.1-6.1 5-14.2-6.1-7.8-7.1-10.3-1.7-7.7-3.7-8c-2.1-.4-6.2 3.7-5.8 8 .6 6.8 2.9 7.5 6.8 11.5 0 0 1 7.6 4.8 13z"/><path fill="#dec8ae" d="M28.8 184c6.8.2 1.9-6.4 1.9-6.4 1.3 1.3 2.9 3.2 4.5 7.5 3.2 8-5 14.2-5 14.2-3.7-5.4-4.7-13-4.7-13-4-4-6.2-4.7-6.8-11.5 0 0 3.2 9 10 9.2z"/><path fill="#ceb79b" d="M26.6 176.2s-3-.4-4-4.2c-1-3.8 2-4.2 2-4.2s-2.2 2-1.2 4.4 3.2 4 3.2 4z"/><path fill="#eddac5" d="M24.1 171.5c.2-1 1-1.7 1.8-1.6.8.1 1.3 1 1.1 2-.1 1-1 1.8-1.7 1.7-.8-.2-1.4-1-1.2-2.1"/><path fill="#676d54" d="M21.4 246.6c7.5 6.6 28 17.9 31 14.3 0 0-12-30.3-31-23.3-3 1.1-3.3 6.1 0 9"/><path fill="#474c2f" d="M22 246c7.5 6.8 28 17.2 30.1 14.7v-.5s-11.8-28.3-30.8-21.3c-3.1 1.1-1.4 5.1.8 7.1z"/><path fill="#f9c273" d="M161.8 147.9 24 175.6a7.1 7.1 0 0 0-5.5 8.3l18 95.3a7.2 7.2 0 0 0 8.2 5.7l139-25.2c4.1-.7 6.7-4.5 6-8.5l-19.3-97.7c-.8-3.9-4.6-6.4-8.6-5.6z"/><path fill="#dd8e37" fill-rule="evenodd" d="m44.7 285 139-25.3c4.1-.7 6.8-4.6 6-8.5l-19.3-97.7c-.3-1.6-1.2-3-2.4-4.1-87.7 92.6-34.3 85.4-149.2 30.5a7.2 7.2 0 0 0-.3 4l18 95.2c.7 4 4.4 6.5 8.2 5.8z" clip-rule="evenodd" opacity=".3"/><path fill="#dd8e37" fill-rule="evenodd" d="m18.5 184 18 95.2a7.2 7.2 0 0 0 8.3 5.7l139-25.2c4-.7 6.6-4.5 5.9-8.5l-7.2-36.2c-39.9 12.4-81.1-15-80.4-55l-78 15.6a7.1 7.1 0 0 0-5.6 8.3z" clip-rule="evenodd" opacity=".3"/><path fill="#dd8e37" fill-rule="evenodd" d="M136.2 268.4c-47.6-7-96.7-45.1-96-96-6 2-23.9 1-21.7 11.5l18 95.4a7.2 7.2 0 0 0 8.3 5.7l91.4-16.6z" clip-rule="evenodd" opacity=".3"/><path fill="#dd8e37" d="M18.4 182.3 97 223.5a7.9 7.9 0 0 0 9.5-1.7l63.2-70.1a7.3 7.3 0 0 0-1.8-2.3l-60.9 69.9a7.3 7.3 0 0 1-8.8 1.6L19 180a7.6 7.6 0 0 0-.5 2.4z"/><path fill="#dd8e37" d="M91 202.8a3 3 0 0 1 4.4-1.5l.8.5a3 3 0 0 0 3.5-.2l.7-.6a3 3 0 0 1 4.6.9l.4.8a3 3 0 0 0 3.1 1.5l1-.1a3 3 0 0 1 3.5 3v1a3 3 0 0 0 1.9 2.8l.9.4a3 3 0 0 1 1.5 4.3l-.5.8a3 3 0 0 0 .2 3.5l.6.7a3 3 0 0 1-.9 4.6l-.8.4a3 3 0 0 0-1.5 3.1l.1 1a3 3 0 0 1-3 3.4h-1a3 3 0 0 0-2.8 2l-.4.8a3 3 0 0 1-4.3 1.6l-.8-.5a3 3 0 0 0-3.5.2l-.7.6a3 3 0 0 1-4.6-.9l-.4-.8a3 3 0 0 0-3.1-1.5l-1 .1a3 3 0 0 1-3.4-3v-1a3 3 0 0 0-2-2.8l-.8-.4a3 3 0 0 1-1.5-4.3l.4-.8a3 3 0 0 0-.2-3.5l-.6-.7a3 3 0 0 1 .9-4.6l.8-.4A3 3 0 0 0 84 210l-.1-1a3 3 0 0 1 3-3.5h1a3 3 0 0 0 2.8-1.9z"/><path fill="#68b471" d="M92.2 200.6a3 3 0 0 1 4.4-1.5l.8.5a3 3 0 0 0 3.4-.2l.8-.6a3 3 0 0 1 4.5.9l.4.8a3 3 0 0 0 3.2 1.5l.9-.1a3 3 0 0 1 3.5 3v1a3 3 0 0 0 2 2.8l.8.4a3 3 0 0 1 1.5 4.3l-.5.8a3 3 0 0 0 .2 3.5l.6.7a3 3 0 0 1-.8 4.6l-.9.4a3 3 0 0 0-1.5 3.1l.2 1a3 3 0 0 1-3 3.4h-1a3 3 0 0 0-2.9 2l-.3.8a3 3 0 0 1-4.4 1.5l-.8-.4a3 3 0 0 0-3.5.2l-.7.6a3 3 0 0 1-4.5-.9l-.5-.8a3 3 0 0 0-3.1-1.5l-1 .1a3 3 0 0 1-3.4-3v-1a3 3 0 0 0-2-2.8l-.8-.4a3 3 0 0 1-1.5-4.3l.5-.8a3 3 0 0 0-.3-3.5l-.6-.7a3 3 0 0 1 1-4.6l.7-.4a3 3 0 0 0 1.6-3.1l-.2-1a3 3 0 0 1 3-3.5h1a3 3 0 0 0 2.9-1.9z"/><path fill="#fff" fill-rule="evenodd" d="M109.2 208.5c1.2 1 1.5 2.7.7 4l-6.3 9.7c-2 3.6-3.7 3.8-7 1.1l-5.6-4.5a3.1 3.1 0 0 1-.7-4 2.4 2.4 0 0 1 3.6-.6l5.5 4.4 6.2-9.6a2.4 2.4 0 0 1 3.6-.5z" clip-rule="evenodd"/><path fill="#dd8e37" d="M26.4 231s10.4 1.2 10.3-4c0 0 7.3 1.1 8-2.7s.1-5.4.1-5.4L29.1 205s-4.2-3.6 1.1-7.2 2-11.2 2-11.2l-10.4 6 4.7 38.3zm164.8-25.2c-5.2-1-13.8-4.3-20.3-5.4-6.9-.3-10.2 20.7-23.2 25.4-.1 6.6 4.9 5 9.3 3.2-.8 2.6-1.5 5-2.1 6.4.4 2.1 2.8 5.2 4 7.1.5.8 2 4.3 2.1 5.2.2 1 3.4 0 3.7-2.4 1 4.2 2 8.7 2.3 9.2.2.6 2.9 1.3 5 1.5 1.3 2.7 12.7.7 14.2-.4l-3.2-16.4c2.7-1.3 10.5-33 8.2-33.3z"/><path fill="#dec8ae" d="M1 181s.6 8.7 4.3 12.5l16.6 4.3-1.2-7.2L1 181z"/><path fill="#e8d4ba" d="M38.5 216.6c-3.2-1.4-35.4-13-35.4-13s-4.7-2.6-.4-10c3-5.3 10.3-1.2 10.3-1.2l10.7 6.3 17.1 10c2.2 1.2.9 9.2-2.3 7.9z"/><path fill="#ceb79b" d="M41 215.2c-.5 1.2-1.4 1.9-2.5 1.4l-10.6-4a5865 5865 0 0 0-24.8-9s-2.8-1.5-2-5.7c.2-1.2.7-2.6 1.7-4.3 1.8-3.2 5.3-3 7.7-2.2 0 0-5.7 3.4-4 8 1.7 4.7 12.2 6.9 15 5.4a7 7 0 0 0 4-5.1l9.5 5.5s-11 8.1 6 10" opacity=".4"/><path fill="#ceb79b" d="M38.9 214.5s-8-1.3-4.9-6.2c0 0-5.1 6.2 4.9 6.2"/><path fill="#ceb79b" d="M27 206.7s1 6 5.7 8c-10.5-3.7-29.6-11-29.6-11s-2.8-1.6-2-5.8c0 .1.2 4.8 2.8 3.2 0 0 13.9 9.6 23 5.6" opacity=".4"/><path fill="#eddac5" d="M34.2 208.7c.5-1.2 1.4-2 2.1-1.7s1 1.4.6 2.6-1.3 1.9-2 1.6-1-1.4-.7-2.5m-10.5-10c-.2 1-.7 2.1-1.7 3.2-2.6 2.7-9.4.8-12-2.7s3-6.8 3-6.8l10.7 6.3"/><path fill="#e8d4ba" d="M31.2 247.5S7.8 238.7 2 229.6c-4.7-7.5.7-17.9.7-17.9l31 11.8s1.6 4.5-4.6 4.6h-1.5l3.6 19.4z"/><path fill="#ceb79b" d="M32.8 227c-.6.5-1.5.9-2.8 1h-1c-6 .2-9.7-.5-9.8-.5l.5 2 4.2 15s-17.2-7.4-22-14.9c-1.5-2.5-2-5.3-1.8-8v-.4c.3-5 2.6-9.5 2.6-9.5l4 1.5c-.6 2.8-.8 9.1 9 9.7 5.9.3 7.3-1.5 7.1-3.5l4.2 1.5h-2s-3.9 7 7.5 6.2h.3z" opacity=".4"/><path fill="#ceb79b" d="M31.6 226.4s-7.3-1.2-5.4-4.4c0 0-3.5 4 5.4 4.4"/><path fill="#ceb79b" d="M30 228c-5.2.3-2.8 0-2.4 0l3.6 19.5c-8-3.8-33-12.1-31.1-26-.2 1.4 1.4 8.8 6 1 0 0 10.3 6.9 15 2.4-.1 0 6.3 3.1 8.9 3.1" opacity=".4"/><path fill="#ceb79b" d="M11.8 230.7c-1.1.7-2.5-1.7-3.2-2.4-.7-.6-.5 4.4-2.9.9-.3-.6 0-1.1.4-1.6a3.7 3.7 0 0 1 3.2-1.3l18.3 1.8.5 2.5c-2.3-.3-17.4-3-18.3-3-1.6-.1 4.8 1.5 2 3.1z"/><path fill="#ceb79b" d="m17.7 228.6 10.4 2 3.1 16.9S19 242 15.4 240.2c4.7-1.7 2.3-11.6 2.3-11.6"/><path fill="#eddac5" d="M26.5 222.8c.2-.6.8-1 1.2-.9.5.2.6.8.4 1.4-.2.6-.7 1-1.2.9-.4-.2-.6-.8-.4-1.4"/><path fill="#e8d4ba" d="M39 224.5c-1.5-.2-37.7-9.5-37.7-9.5s-3.9-9 4-12.7a908.7 908.7 0 0 0 18.6 7.4c8.9 3.6 17.8 7.4 18.5 8.4 1.6 2-1 6.7-3.3 6.4z"/><path fill="#ceb79b" d="M41.2 223.6a3 3 0 0 1-1.7.9 129.6 129.6 0 0 1-6.6-1.5c-10.8-2.6-31.6-8-31.6-8s-1-2.6-1-5.5a8 8 0 0 1 5-7.2l1 .3c-1 1.4-3.5 5.6-1.4 8.3 2.5 3.2 14 6.6 17.7 5.5 2.7-.9 2.8-4.3 2.6-6.3a385 385 0 0 1 9 3.8s-5.2 8.4 7 9.7z" opacity=".4"/><path fill="#ceb79b" d="M40.4 222.7s-7.7-1.3-4.7-6c0 0-5 6 4.7 6"/><path fill="#ceb79b" d="M32.9 223c-10.8-2.6-31.6-8-31.6-8s-1.1-2.5-1-5.4c.2 1.4 1 4.5 3.3 4.1 0 0 19.7 8.5 24.2 3.8 0 0 1.5 3.5 5 5.5" opacity=".4"/><path fill="#eddac5" d="M35.5 217.8c.3-1 1.2-1.6 2-1.3.6.2 1 1.2.6 2.2-.3 1-1.2 1.6-2 1.4-.7-.3-1-1.3-.6-2.3M17.8 214c-17.4-1.8-9-10.2-9-10.3 3.6 1.4 9.3 3.6 15 6 .2 1.7-1.2 4.8-6 4.3"/><path fill="#e8d4ba" d="M31.8 193.8c-2.2 2.3-19.6-2.7-19.6-2.7s-10-2.8-11-8.4c-1.5-7.9 4.5-6.6 8-5.4l1.8.7c2.6 1 6.7 1.8 10.5 3.9l1.7 1c6.6 4.5 15.6 3.8 8.6 11"/><path fill="#ceb79b" d="m32.4 193.2-.5.6c-.8.8-3.1.7-6 .3-5.8-.8-13.7-3-13.7-3s-1.9-.6-4-1.6a23 23 0 0 1-2.6-1.4c-2-1.3-4-3.1-4.4-5.4v-.3c-1.2-6.5 3-6.5 6.5-5.5 0 0-5.2 4.6 2 8.1 6.2 3.1 12.5-.8 14-1.7l2.8 1.5s-5.7 8.4 6 8.4z" opacity=".4"/><path fill="#ceb79b" d="M31.8 192.3S24 190.9 27 186c0 0-5.1 6.1 4.8 6.2"/><path fill="#ceb79b" d="M12.2 191s-1.9-.5-4-1.5l.5 2-1.2-.6-1.9-2.8-3.3-5s2 1.4 4.8 2.9c4 2 10 4 14.3 1 0 0-1.1 5.7 4.5 7.1-5.8-.8-13.7-3-13.7-3z" opacity=".4"/><path fill="#eddac5" d="M26.7 187.2c.3-1 1.2-1.5 2-1.3.8.3 1.1 1.3.8 2.3-.4 1-1.3 1.5-2 1.2-.8-.2-1.1-1.2-.8-2.2m-5.2-5.3a4.6 4.6 0 0 1-1 .6c-3 1.5-10.2 1.6-12-.9-1.7-2.4.7-4.3.8-4.3l1.7.6c2.7 1.1 6.7 2 10.5 4z"/><path fill="#ceb79b" d="M8.7 191.4s-10.3-4.2-.6-2 13.1 4 13.1 4l.6 4-13.1-6z"/><path fill="#676d54" d="M227.4 239c.4 10.6 6.8 34.4 11.8 34.1 0 0 14.4-31.3-5-40.7-3-1.5-7 2-6.8 6.6z"/><path fill="#474c2f" d="M228.3 239c.3 10.7 7.3 34 10.9 33.7l.3-.4s13-29.7-6.3-39.1c-3.1-1.5-5 2.7-4.9 5.9"/><path fill="#e8d4ba" d="m263.2 271.6-12-1.1c-6.4-.6-14.2-1-19.7-1h-.7l-2.5-21.2-1.4-12 6.1-.6 3.1-.3a187 187 0 0 0 18.6-3c0 .1 17.4 26 8.5 39.1z"/><path fill="#e8d4ba" d="M231.5 269.5c-13 .7-16.2-1-25.3-8.5-4-3-7.6-5.3-11.5-8.2-2.9-2.3-6.9-5.3-5.7-9.5 1.4-6 11.4-35.7 17.3-33.8 2 0 3 .7 4.8 3.2 6.3 7.2 17.4 21.7 28 26.9 0 0 5.2 29.2-7.6 29.9z"/><path fill="#ceb79b" d="M263.2 271.6c-5.2-.6-25.4-2.4-32.4-2-9.1-.2-12 .6-18-3.7-6.2-20.9-2.2-44.4 3.8-46.7a170 170 0 0 0 16.4 16.6 209 209 0 0 0 21.7-3.3s17.4 26 8.5 39z" opacity=".4"/><path fill="#ceb79b" d="M251.2 270.5a254 254 0 0 0-19.7-1h-.7c8.1-13.7 6.3-27 5.5-31.3a15 15 0 0 0-.3-1.4c10-1.3 14.4 27.1 15.2 33.7z"/><path fill="#e8d4ba" d="m209.4 211.2-31.8.3s-10.8 11.8-12 12.1c-3 .3-18.3 8.7-17.1-1.7 9.7-2.8 16.5-13.7 21.6-21.1a6.6 6.6 0 0 1 5-3c2-.3 16.5 4.8 21.7 6.4 3 1 6.5 0 9.3 1.5 1.7.8 3.4 5.5 3.3 5.5z"/><path fill="#ceb79b" d="m197.5 211.3-20 .2s-10.7 11.8-12 12.1c-1.2.3-9.6 3.6-13.6 3.6s-3.5-5.3-3.5-5.3 5 3.3 7.3.1a8.6 8.6 0 0 0 1.8-5.4 62 62 0 0 0 2-1.8s6.7 3.3 10.3-7c.6-1.8-.3-3.6-1-5l1.3-2a6.6 6.6 0 0 1 5-3c.8-.1 3.5.6 6.8 1.6 0 .1 7.8 7.2 15.6 12z" opacity=".4"/><path fill="#ceb79b" d="M204 209.8s-21.9-1-24.7-2.5c-2.9-1.3-7.1 2.8-7.1 2.8z"/><path fill="#eddac5" d="M154.8 222.2c-1.4.6-1.8-2-1.8-2.3l1.7-1.1c.3.3.5.7.7 1.2.3 1 0 2-.6 2.2zm52.4-15.5c-1 1-3.2 1.3-5.6.8-2.6-.5-4.6-2-4.8-3.3l1.5.4c2.5.4 5.7-.1 7.8 1.2.4.2.7.5 1 1z"/><path fill="#ceb79b" d="M150.3 223.3s7.2.4 5.4-4.4c0 0 3.3 6.3-5.4 4.4"/><path fill="#e8d4ba" d="M174.5 220.8s-3.6 4.3 6 6.2c9.5 2 14.3-4.2 11.8-5.6-2.5-1.3-17.8-.6-17.8-.6z"/><path fill="#ceb79b" d="M174.5 220.8s-3.6 4.3 6 6.2c9.5 2 14.3-4.2 11.8-5.6-2.5-1.3-17.8-.6-17.8-.6z" opacity=".4"/><path fill="#ceb79b" d="M174.5 220.8s-3.6 4.3 6 6.2c9.5 2 14.3-4.2 11.8-5.6-2.5-1.3-17.8-.6-17.8-.6z"/><path fill="#e8d4ba" d="M201 219.6c-2.1 1.6-5.1 4-8 3.6-4.2-.7-18.5.4-19.3.6-.7.1-6.8 9.5-6.8 9.5 0 2.5 0 8.2-1.1 10-1.3 2.3-4 2-4 1.4-.1-1-1.4-4.7-1.9-5.6-1-2-3.4-5.4-3.7-7.6 3-4.9 9-21.7 13.6-22.5 7.6-.3 31.8.6 34.6.6 3.5 2.4.5 6.8-3.4 10z"/><path fill="#ceb79b" d="M201 219.6c-2.3 1.7-5.2 4.2-8.3 3.6-4.2-.7-18.3.4-19 .6-.7.2-6.8 9.5-6.8 9.5 0 .2.5 9-1.7 10.8-.8-9-7-7.8-7-7.8-2.2-4.2-2.6-4-.5-8 12.1.8 10.2-13 6.2-12.3 3.7-6.7 3.8-7.4 11.6-7 1.6 1.2 16.4 12.9 25.5 10.6z" opacity=".4"/><path fill="#ceb79b" d="m196.2 221.2-3.2 2h-.3c-4.2-.7-18.3.4-19 .6-.7.1-6.8 9.5-6.8 9.5v1.4a56.8 56.8 0 0 0-5.3-3.5c8.8-.6 9.8-16.3 9.8-16.3 11 6.8 24.7 6.3 24.7 6.3z" opacity=".4"/><path fill="#ceb79b" d="M191.3 223.3s10-2.2 9.6-3.3c-.4-1-2.2-1.5-4-.4-1.8 1.2-1.6 3-5.6 3.7m-31.2 15s5.4-1.6 4.6 5c0 0-.2-4.9-4.6-5"/><path fill="#eddac5" d="M161 241.9c-.4-1.1-.8-2.3-1.1-2.7v-.1h.1c1.6-.3 3 .2 3.1 1 .1.7-.8 1.5-2.1 1.8zm43.3-32.3c-.3 2.2-5.9 6-14 4.4-5-1-7-3-7.8-5l21.7.6h.1"/><path fill="#e8d4ba" d="M199.9 235c0 3.1-24.2 7.3-24.2 7.3s1.2 11.7-.3 12.1c-1.5.5-7.4-1.3-7.7-2.2-.3-1-2.5-15.6-2.8-17.3-.3-1.7 1-3.7 1.8-4.5 1.6-1.1 25-7.3 24.5-7.1 16.4-5.1 10.4 5.6 8.7 11.7z"/><path fill="#ceb79b" d="M175.7 242.3c-.2.1 1.5 9.9-.3 12.1-.8.3-2.5 0-4.1-.5-2.5-1-3.7-1-3.8-2.7 3.6-2.2 2.1-13-2.2-13.5-.7-3.4-.6-5.1 1.4-7.3.2-.2 1.7-.8 3.9-1.4 3.3 4 17.2 6.3 25 5-5 5.2-20 8.3-20 8.3z" opacity=".4"/><path fill="#ceb79b" d="M189.1 235.7s-10.6 4.5-17.6.5c0 0 4 6.4 1.9 12l15.7-12.4z"/><path fill="#ceb79b" d="M174.4 240s21-4 22.3-6.4c1.9-3.5-1.9-.3-3 .5-1 .7-15 5-19.4 5.8zm1.5 13.6c-.3 1.7-2.8.7-4.6.3l-.8-9.2z"/><path fill="#eddac5" d="M189.9 228.6c-6 3-13.4-1.3-13.4-1.3l18.2-5c.1 1.2-.1 4-4.8 6.3"/><path fill="#e8d4ba" d="M194.3 235c-2.3 1.8-15.7 3.7-20.6 5a4.5 4.5 0 0 0-2.8 2.4c-.4.7-.6 1.6-.3 3 .5 2.5 1.7 9.2 3.5 10.1 1.9.9 15.2 1.8 16.6.7 1.3-1.2 1.2-6.2-1.2-6l5.9-1-1.1-14.2z"/><path fill="#ceb79b" d="M191.1 255.4v.2c-3.5-6.4-14.4-2.9-14.4-2.9 2.8-1.7-.1-5.6-.2-5.6 4.7 3.6 12.8-.4 12.8-.4s.5 1 2.7 2c.7.3.8 1.3.6 2.4l-1.2-1.2-1.9.3c2-.2 2.4 3.5 1.7 5.2z" opacity=".4"/><path fill="#ceb79b" d="M263.2 271.6c-5.7-.7-26-2.4-33.5-2-9.5 0-11.9 0-18-4.5-3-2.2-7.3-5.6-10.7-7.8a70.1 70.1 0 0 1-9.7-7.4l-1.8.3c2-.2 2.4 3.5 1.6 5.2-1 2.6-14.9.8-17 .1-2.4-2-2.9-7.7-3.5-10.2-.3-1.3 0-2.2.2-2.9.6-1 1.6-2 3.5-2.5 3.3-.7 14.2 7.7 18-4l4.1-2c-.4 17 12.5 23.2 18.7 22.8 5.3-.7 9-4 13.2-8.4 3-3 4.5-8.6 6-12.7 6.4-.7 14.4-1.7 20.4-3 0 0 17.4 25.8 8.5 39z" opacity=".4"/><path fill="#ceb79b" d="M189.5 250.2s-5.2-.4-6.3.8c-1 1-.2 2.6-1.4 2.9-1.1.2-1.5-.4-.6-2 .8-1.4-.2-1.2-2.6-1.3-2.4 0 0-1.7 1.7-1s10.4.4 10.4.4l-1.2.2zm6.5 3.6a48.3 48.3 0 0 1-4.7-3.9s-2.6-3-2-3.2c3.5-.7 5.9 4.8 6.7 7.1m20.8 14.4c-1.7-.7-3.3-1.7-5.2-3a47.3 47.3 0 0 0 5-15.5c1 3.3 2 14 .2 18.5z"/><path fill="#676d54" d="M231.2 232.5c12 7.3 9.3 28.3 7.5 40.5 2.5.4 5.3 0 7.9.1.7-12.8 2.6-28.6 3.3-41.4-5.6 1-12.8-1-18.7.8"/><path fill="#9ea58e" d="M233 231.8c12 9.6 8.8 28.1 6.5 41.3 30.9 1.2 57.8 20.9 88.6 22v.1c13 .5 31-10 42.4-27.7.8-1.2-1-4-4.5-7.7-16.7-15.4-36-33.2-58.8-37.8-26-1.7-47.5 9.3-74.1 9.8"/><path fill="#b1b7a5" d="m233 231.8.3.1c1.6 1 3 2.7 4 4.3a35.1 35.1 0 0 1 4.2 19.1c20.6-3 35.4-17.5 35.2-30.5-13.1 3.4-28.5 6-43.6 7"/><g opacity=".4"><path fill="#474c2f" d="M233.1 231.8c1.7 1.2 4.5 4.9 4.7 5.2 0 0 5.1-3.7 8-3 4.6 2.3 15 3.7 19.4-1.3 3-3.3 16.3-.3 19.7-3 2.1-1 7.3.4 9.4.9 4.4.9 5.8-.2 9.3-3.1 3.2-2.7 4 2.2 14.2 1.9 1.4 0 5.4-1.7 6.8-1.3-30-16.2-59.5 3.9-91.5 3.7z" opacity=".1"/></g><path fill="#949984" d="M252.3 274.8c26 4.1 49.3 19.7 75.8 20.4 13 .5 31-10 42.4-27.7 1.8-7.1-40.6-38.2-48.7-40.8-4 17-30.6 52.7-69.4 48.1z"/><path fill="#474c2f" d="M328.1 295.1c3 0 5.9-.1 8.7-1.1 21.1-7.4 29.6-21 30.3-22-1.2.2-10.4 10.3-14.7 12.6-27.5 14.6-74.1-4-89.2-9.5a100 100 0 0 0-23.2-5l-.5 3c.2 0 17 .3 57 15.3a85 85 0 0 0 31.6 6.7z" opacity=".1"/><path fill="#474c2f" d="M304.2 291a68.7 68.7 0 0 0 23.9 4.2c13 .5 31-10 42.4-27.7 1.1-3.8-9-11.9-12.7-15.3 0 0-4.7 30.8-53.6 38.7z" opacity=".1"/><g opacity=".1"><path fill="#474c2f" d="M248.6 238.9c.8-.8.3-2.4-.7-3.1-.7-.3-3.9 2.8-2.7 3.6 1.2.8 2.7.2 3.3-.5z" opacity=".6"/></g><path fill="#676d54" d="M243.4 237c1.4 3.9 5 2 5.2.2.2-2.7-6.3-3.3-5.2-.1"/><path fill="#474c2f" d="M243.4 237.1c.4 1 .8 1.5 1.4 1.9a5 5 0 0 1-.7-1.2c-.8-2.4 2.5-2.6 4.2-1.6-1.2-1.8-5.9-1.9-4.9.9z"/><path fill="#676d54" d="M264.8 235.9c-.1 1.8 3.4 2.3 4.6 1.8.6-.2 1-.6 1.1-1.1 1.4-3-5.4-4.8-5.7-.7"/><path fill="#474c2f" d="M270.2 234.6c-1.4-1.5-5.2-1.7-5.4 1.3 0 .7.5 1.2 1.2 1.5a1.1 1.1 0 0 1-.2-.8c.1-2.5 2.7-2.8 4.4-2z"/><g opacity=".6"><path fill="#474c2f" d="M270.3 234.7s-6.1 1-5.2 2.3c1.1 1.6 3.9 1.8 5.2 1.2 1.2-.5.8-2.5 0-3.5z" opacity=".1"/></g><g opacity=".6"><path fill="#474c2f" d="M288.7 230.8s-5.8 1.6-4.4 3.5c2.7 3 9.7 0 4.4-3.5z" opacity=".1"/></g><path fill="#676d54" d="M289.7 231.5c-1.8-2-5-1.3-5.8.5-.4.8 0 1.6.7 2 1.8 1 4.6.6 5.3-.8.3-.5.2-1.2-.2-1.7"/><path fill="#474c2f" d="M283.8 232c-.3.8 0 1.6.8 2l.2.2a1.4 1.4 0 0 1-.1-1.5c.7-1.5 3.2-2.3 5-1.2-1.8-2-5-1.3-5.9.5"/><g opacity=".1"><path fill="#474c2f" d="M307.8 229.2c-1.4 0-5.2.8-5.2 1.4.4 4.9 9 2 5.2-1.4" opacity=".6"/></g><path fill="#676d54" d="M307.4 228.8c-1.5-1-4-1.4-4.7.6-1.2 4.6 8.6 3.6 4.7-.6"/><path fill="#474c2f" d="M307.4 228.8c-2.5-2-6.7.2-4 3-1.2-3 2.8-3.8 4.7-2.2a1.9 1.9 0 0 0-.7-.8z"/><g opacity=".6"><path fill="#474c2f" d="M322.5 232c1.7 5 8.8 3.5 6.8-.7-.7-1.5-7.1-.3-6.8.7z" opacity=".1"/></g><path fill="#676d54" d="M328.5 230.4c-2.4-1.7-4.9-1.2-5.8-.2-1.4 1.6 1.4 5.6 5.6 3 1.2-.6 1.7-1.7.2-2.8z"/><path fill="#474c2f" d="M328.5 230.4c-3.3-2.4-8.2-.6-5.3 2.7-1.4-3.3 3.4-4 6.1-1.7-.1-.4-.4-.7-.8-1"/></svg>