<svg xmlns="http://www.w3.org/2000/svg" width="297" height="384" fill="none"><path fill="#9EA58E" d="M19 154.9c-.7.3-17.2 4-17.2 4s7.3 36.7 26.5 31.4C47.6 185.1 19 155 19 155Z"/><path fill="#676D54" d="M20 154.4c-.8.3-17.2 4-17.2 4S10 195.3 29.3 190c19.2-5.3-9.4-35.4-9.4-35.4Z"/><path fill="#9EA58E" d="m38.3 132.8-19 1.3s-3.7 7.8-4.8 17.5l16.4 31H30c20.6 7.7 8.3-49.8 8.3-49.8Z"/><path fill="#676D54" d="M39.5 132.9 20.4 134s-15.8 34.1 8.3 47.4C52.7 195 39.5 133 39.5 133Z"/><path fill="#CEB79B" d="M170.6 82.7c-.8-1.2-7-3-11.5-11.3-.6-1-.1 1.4-1.2 1.5l-1 .1c0 18.3 11.3 8.1 13.7 9.7Z" opacity=".4"/><path fill="#CE8000" d="m222.3 131.3-128.6-2S109 91 113 81.5l2-13c1.9-11.2.6-23 2.5-34.2 3.2-28.7 21.8-35.8 47-33 18.7 2.4 30 22.3 30.6 40 .7 5 .8 20 .8 20.2a504.4 504.4 0 0 0 26.4 69.8Z"/><path fill="#C07500" d="M214.8 130.7a76.2 76.2 0 0 1-11-22.5c1.7.5 3.4 1.3 4.4 2.7-9.4-14.1-15.7-50.3-18.3-52.7-4.1 6-53.7 8.3-53.7 8.3l-17.9-3.6c1.7 19.5 1 43.4-15.3 60.6-1.7 1.5 0 7.3-.7 9.7l112.5-2.4Z"/><path fill="#A05A07" d="M122.1 89.1c.2 9.2-1.2 51.5-16.1 64.7 16 1.4 99.7 9.2 115.8 8.5.3-3.6-8-31.6-12.7-35-13.1-9.6-10-20.4-9.9-22.2.5-6.6-4.2-9.2-6.8-23.3a44.8 44.8 0 0 1 0-19.8c-2.8-3.2-70.3 27.1-70.3 27.1Z" opacity=".6"/><path fill="#2B6B40" d="M282.2 201.2H23.1C16 251.8 9 302.4 1.8 352.9c87.5 37 198.4 39.4 287.9 7.8-3.1-49.4 3.2-108.7-7.5-159.6Z"/><path fill="#245B34" d="M27 172.7C19 231.3 8.7 298 0 358.3c75 27 176.2 32 256 12.4-5.8-50.3-6.5-99.2 7-136.2 1.7-4.8 2-35.6-3-61.8H27Z"/><path fill="#3B754B" d="m296.6 356.6-.6.2-6.3 2.4 4.2-38.5 1.6 20.4 1.1 15.5Z"/><path fill="#3E8E5B" d="M296.6 358.4c-8.9 3.4-18.5 6.2-27.8 9-1.8-65.9-2.9-136.1-14-200.4 7.5-1.1 20 11.2 27.5 10 6 43.3 8.3 72.5 10.9 116 1.2 21.3 2.8 44.1 3.4 65.4Z"/><path fill="#3B754B" d="m296.6 358.4-8.7 3s-10-31.5-20-35.8c-2.2-45.8-5-113.8-13.2-158.6 7.6-1.1 20 11.2 27.6 10 6 43.3 8.3 72.6 10.8 116 1.3 21.3 2.8 44.1 3.5 65.4Z" opacity=".7"/><path fill="#3B754B" d="M293.2 293.1c-6.7-10.8-26-29.8-28.1-30a805.1 805.1 0 0 0-10.4-96.1l27.6 10c6 43 8.6 76.7 11 116.1Z" opacity=".7"/><path fill="#3B754B" d="M53.3 372.8C34.4 369.4.1 358.3.1 358.3c9-62.8 18.8-126.8 27-186.8 18.8 3.9 35.3 7.3 36 7.6 1.4.6-2.3 95.3-9.8 193.7Z"/><path fill="#3E8E5B" d="M9.4 361.4c-2.5-1-6.8-2-9.3-3.1 16-118.3 50.6-309.7 9.3 3Zm27.5 7.7-18.8-5s11.5-92.8 18-92.8c5.9 0 2 87.5.8 97.8Z"/><path fill="#151916" d="M235 326.8s40.1-1 51.2-37c5-16.4 6.6-37.4-10.5-67.5C258.5 192 235 326.8 235 326.8Z" opacity=".3"/><path fill="#C5C7B2" d="M93.2 332.8s.1.1 0 .2c-1.1 2.8-2.3 5.5-3.6 8.2a244.4 244.4 0 0 1-12.8 24.7L74 371l-.5 2c24 5 52 8.8 78.4 9.4a407.7 407.7 0 0 0 94.7-9c-2.6-7.8-16.1-27-21.5-37.3l-132-3.4Z"/><path fill="#CCD1C0" d="M168.9 382.7c-31.5 2-73.8-1.6-97.8-6.5.1-.7 11.5-20.3 15.5-28 17.9 7.4 18 21.4 40.9 22.8 18.1-1.2 30.7 2.3 41.4 11.7Z"/><path fill="#BBB99D" d="M92 335.5c-.9 1.8-1.7 3.8-2.4 5.7 13.3-.9 12 12 26.3 11.7l6.6-.1c59.8-8 71.9-6.3 107.3 23.7 5.7-.9 11.3-2 16.8-3-2.4-7.2-14-24-20-34.6L92 335.6Z"/><path fill="#C6C7B3" d="M82.2 245.4c8.7 8 6.5 18.5 6.8 29.3.3 2.5 3 6 3.1 8.3 1.8 15 13.2 30 8.5 45H226l-.1-.7c-4.1-10.1-.1-19.7 1.6-30 .8-8 8.6-14.4 8.8-22.7-1.2-2.4 8-59.9 11.2-91.9-5.3-2.4-56.7-49-56.7-49-42 11.2-60.8-5.8-62.5-10.2-1.6-4.5 0 5-16.2 10.6v57.1H77.3c5.3 18.5-3.2 39.3 4.9 54.2Z"/><path fill="#C2C2AC" d="M224.7 172.6c-5.5-2.4-11-4.8-16.6-6.4-2.4 4-49.4 14.3-53 16.8 34.5 75 0 111.2-65.8 92.9.8 2.3 2.7 5.2 2.8 7.1.6 11.2 8.1 20.8 9.1 32 40.6 5 82 6.6 122.7 3-.2-6.9 2.9-14 3.5-20.6.8-8.1 8.7-14.5 8.8-22.7 0-2.6 7.5-62.8 11.1-92.1-7.6-3.2-15-6.6-22.6-10Z"/><path fill="#BBB99D" d="M215.7 154c-4.2 0 3.2 19-1 19 32 77.2-20.9 110-51.2 128.1a265 265 0 0 0 61.4 8.5c.9-4.2 2.2-8.3 2.5-12.3.8-8 8.7-14.4 8.8-22.7 0-2.7 12-73.6 12-101.7l-32.5-19Z" opacity=".7"/><path fill="#BBB99D" d="m82.1 245.4 3.2 4c3.4-6.8 17.8-9 13-8.5-2.8.2-19.4-28.9 7.3-30.4 2.2-.1 3.2-3.5 4.9-5.5 6 5.5 16.4 8.2 16.2 17.8-9 15.6-27.3 24.2-37.7 39 .4 4.5 15.6 55.1 11.2 66.6h126a271 271 0 0 1 6.5-43.4c-4.2-11-46.2-36.6-57.5-43.7-13.5-6.8-55.3-52.6-59-43.6 4-9.5 11.3-18 16.5-27-9.3 1.6-20.8-3.8-27.5-9.8-13 5.1-21.5 14.6-30 24.8 9.2 19-2 41.6 7 59.7Zm55.3-21.7c-.4-.1 0-.3.2-.1 0-.2.4 0 .2 0 .2.2 36.4 23.1 49 28.4.5-1.2 1-1.1.2 0 .5.2.3.5-.1.2-2.3 5 5.7 11.3 13.8 9.2 10 4.8 10.6 17.6 10.3 16.7 42.3 21.8-50.2 14.1-60.6 14.3-8.7-.9-17.6-.1-26.2-1.7-13.8-3-14.8 3.9-24.8-13.2-7.4-12.9 11-29.4 38-53.8Z"/><path fill="#CCD1C0" d="M153.2 245.7c-10.5-13.6-20-20.2-28.5 0-7 9.4-19.4 21.4-3.1 29.5 4.7 2 9.6 0 14.4-1 5-1 10.3 1.3 15-1 9.8-5.6 10-20 2.3-27.5ZM195 197c-8.2-3.2-17.3-.6-25.9-2.3-6.3-1.8-15.9 1-20.5-4.2-8-6-10 1.6-2.2 5 7.7 2.8 12.6 9.6 19.7 13.4 8.5 3 15 10.4 23.7 12.6 11.7.5 15.5-19.8 5.2-24.5Z"/><path fill="#BBB99D" d="M153.4 161.2c-12.3 10-31 12.8-43.8 3.2a32.8 32.8 0 0 1-3.6-2.8c7 26.2 78 41.6 110.7 14l.5-14.4h-63.8Z"/><path fill="#C2C2AC" d="M115.1 134.3c3.3 6.7 4.3 23 2.8 24.3 21.8 14.1 54.4-5.7 54.2-31-14.2 17.4-35.9 20-47.2-1.8-.8 2.2-19 2.8-18 5.2l8.2 3.3Z" opacity=".4"/><path fill="#BBB99D" d="M110.6 128.5c-2.2 1.1 1.5 5.6-1.8 6.5-.7.2-1 .7-.9 1.1v.5c1.6 7.1-.7 14.7 2.5 21.6l.2.5-5.5 2.2a26 26 0 0 0 2.9 2.4 49 49 0 0 0 9.8 5.5 20.4 20.4 0 0 0 10.7 1.5c.2-12.9-8.2-36.6-11.7-41.8h-6.2Z"/><path fill="#D58500" d="M136.1 215c-5 8.8-52 51.7-43.5 56.2-3 .2-4-3.4-4.7-5.7-1-2.8-3.1-5-4.8-7.4-5.6-8.8 1-18.7 7.8-24.6 10.3-10.2 20-21 29-32.4a293.8 293.8 0 0 0 16.2 14Z"/><path fill="#A05A07" d="m120 201.2-.8.8c9.6 8.9-29.1 53.5-35.5 39.9-5 8-2.4 15.2 3.5 21.7 1.2 2.6 1.5 7.4 5.3 7.6-5-5.4 12.9-20.9 16.4-25.6a820.6 820.6 0 0 0 27.2-30.6 341.7 341.7 0 0 1-16.1-13.8Z" opacity=".3"/><path fill="#A05A07" d="M133 212.5c-10.7 3.2-18.7 17-26.4 25-5.7 5.9-14.8 11.3-9.1 20.9-1.8 2.1-7.8 12.5-5 12.9-4.2-.6-13-21.3-9.5-28 1.5 18.7 23.9-10.4 30.3-17.3 5.4-6.4 14.7-14.8 9-22.7 1.7 1.5 8.8 7.7 10.7 9.2Z" opacity=".3"/><path fill="#A05A07" d="M115.3 206.8s6.4 8.8 15.7 14.6l4.3-5.2-17.4-12.4-2.6 3Z" opacity=".3"/><path fill="#D58500" d="M237.6 277.6c-8.1-31-96.3-81.3-109.3-90.6-1.7-1.2-17.7-12.5-19.8-10.4-.5 0-10.5 16.5-9.2 16.8 4.1 1.2 21.2 12.7 24.4 15.4 27.5 22.4 89 52.4 101.7 73.4l12.2-4.6Zm-97-71.7c-.6 2.7-6.2 3.6-5.4-.9.5-4 6.6-3 5.5 1Zm19.5 18.5c-4-5.3 4.3-7.5 5-2 0 2.3-3.4 4-5 2Zm23.1 16.7c-2.5-4 3.4-7 5.8-3.2 1.5 3.6-3.6 5.9-5.7 3.2Z"/><path fill="#C77500" d="M123.8 184c-5.6-3-13.5-9.2-15.3-7.4-.5 0-10.5 16.5-9.2 16.8 2.5.7 9.4 5 15.3 8.9.1-.4 5.4-13 9.2-18.2ZM230 263A177.1 177.1 0 0 0 207 241c-9.4-9.4-39.9-29.1-39.9-29.1 2 9 8.9 29 8 30.8 11.3 8 46.8 33.2 50.6 39.9 2.4 4 4.2-19.6 4.2-19.7Z"/><path fill="#3E8E5B" d="M224.2 318.7c-2.7 7.2 6.4 11.8 6.3 20.2.5 5.4-5.8 2-8.4 3.7-2 .5-3.8.1-5.9 0-4.4-.4-8.2 1.4-12.4 2.2-17.3 3.2-5.2-1.1-29 1.8-4.3.6-8.5 2-12.9 2-4.3 0-8.4-1.4-12.7-1.5-13.1 1.6-30.2.3-41-1-9.6 0-9.6-8.5-19.3-4-4-3 2-4 2.5-6.7-.4-4.3 3.4-7.5 3.1-11.5-1-5.4-6-9.6-5.2-15.5 0-2.9-2-5.6-2.7-8.2-1.5-5.2 1.7-6.6 3-5.7 6.3 4.7 11.5-3.6 18.6 2a32 32 0 0 0 6.9 3.1c16 1.5 32.7-.8 48.6 1.8 8.7 3.2 17.6-1.3 26.5 0 4.8.6 9.5-.4 14.2-1 4.1-.2 8 1.8 12.1.8 7.6-1.4 17-5.5 14.4.4-7.7 10.9-3.4 6.1-6.7 17.1Z"/><path fill="#3B754B" d="M227 329c-2.2-3-2-17.5-.4-21 9.8-12.6-39-5.9-42.5-3.3-14.6 11-91.7 11.8-91.7 11.8l-1.3-.3c4.2 6.6 4.5 8.7.8 15.6-.4 3-.2 4.9-3.2 6.6 12.2-1.6 24.7 1.3 36.8 2.8 9.5 1.3 17.8 6 27.2 6.2 4.5-7 13.8-7 18.4-.2 21.5-3.8 17.5.6 32.8-2.4 4.2-.8 8-2.6 12.4-2.3 3 .5 5.7.2 8.5-.6 1.9-.1 6.3 1.3 5.8-3-.5-3.6-1.4-6.8-3.5-9.8Z"/><path fill="#D58500" d="M227.5 330.9c-20.3 6.3-122.5 5.8-135.6-6-1.3-1.2-1.3-3.4-.8-4.8-1.5-1.1-2.7-3.7-.2-4.5 5-1.3 7.2 2.3 12.5 3 19.9 5.7 82.4 6.2 122.2 4.3.8.6.8 1.7.7 2.6 0 0-.6.6-.3.7 3.6 1.8 1.9 2.3 1.2 2.9 1 .2 1.4 1.4.3 1.8Z"/><path fill="#A05A07" d="M227.2 329.1c.6-.6 2.3-1.1-1.2-2.9-.3 0 .2-.6.2-.7.2-.9.1-2-.6-2.6-28.6.6-65.5 2.2-96.2-.7 0 0-13.1 0-27.8-3.9-16-4.1-10.3 5.8-10.3 5.8 4.7 7 77.3 12.3 115.9 9.9 3.7-5 13-7.2 17.6-2.3 1.5-.3 5-1.3 2.4-2.6Z" opacity=".3"/><path fill="#A05A07" d="M227.8 330.7c.6-.5.2-1.4-.6-1.6.7-.6 2.4-1.1-1.2-2.9-.3-.1.2-.6.2-.8.2-.8.1-1.9-.6-2.5-20.3-.4-46.8 2.7-70 .9-13.2 3.6-27 6.5-40.8 6.5a573 573 0 0 0 88.8 3.9c4.7-5.2 18.1-8.8 24.2-3.5Z" opacity=".3"/><path fill="#A05A07" d="M192.8 324c-5.7 4.4-25.3 10.5-25.4 11 8.4.1 22.3-.4 29.7-.6 9.5-3.4 20-5.8 28.5-11.5-.2-.1-1-2.4-1.4-2.4 0 0-20.4 3.3-31.4 3.5Z"/><path fill="#D58500" d="M94.2 325.2c-3.2-.6-3.7 3.3-4.2 5.5-.4 1.4.7 2.8 2 3.6 30.8 9.5 135.3-.7 134.5-18 0-1.1 1.7-1.8 1.6-2.8-.1-.7-1.1-1.1-2-1-19 10-86.2 22.7-131.9 12.7Z"/><path fill="#D58500" d="M226.5 316.2c0-1 1.7-1.7 1.6-2.7-.1-.7-1.1-1.2-2-1.1a152.7 152.7 0 0 1-42.5 11.9 65.4 65.4 0 0 1-2.8 3.6 31 31 0 0 1-6 5.4l-3.1 2c21-2.8 39.6-7.5 51-12.9 2.4-1 5-2.9 4.2-5-.1-.4-.4-.8-.4-1.2Z"/><path fill="#A05A07" d="M226.5 316.2c0-1 1.7-1.7 1.6-2.7-.1-.7-1.1-1.2-2-1.1-4.4 1.6-7.4 3.6-13.8 5.4-.9 5.9-5.5 3.8-5.7 6.2-.3 2.4-2.7 1.7-2.8-.3-.2-1.1-.3-3-1.7-3.2a279.3 279.3 0 0 1-32.5 5.8c-18.3 10.4-62.6 14.9-75.1-1a3 3 0 0 0-3 .8c-1 2-2.6 5.8-.3 7.6 7 4.6 67.9 8 113.8-4.8-1-2 1.6-2 1.9.3 4.5-2 23.3-6.8 19.6-13Z" opacity=".3"/><path fill="#A05A07" d="M203.2 327.5c-2-1.9-.4-2.3-1-4-1-.8-.8-2-.2-3l-2.5.7c-2.3 2.9 0 7.4 3.3 8.4a92 92 0 0 0 4.1-1.2c-1.3 0-2.7 0-3.7-.9Zm23.3-11.3c0-1 1.7-1.7 1.6-2.7-.1-.7-1.1-1.2-2-1.1-4 1.3-6.4 3.2-11.7 4.7 1.8 1.8.2 4.1.5 6.2.1.8.3 2.2.1 3 4-2 14.1-4.4 11.5-10.1ZM90.4 332.6c0-1.5 1.2-2 2.4-2.6 2.6-1.2 1.9-4.7 0-4.7s-3.4 5.9-2.4 7.4v-.1Z" opacity=".3"/><path fill="#A05A07" d="M203 323.5c-.5-.6-1.6-.7-2.4-.4-.6.3-1 .7-1 1.3-.1.6.2 1.3.7 1.8.7.6 2 .8 2.9.1 1-.7.6-2-.1-2.8Z" opacity=".3"/><path fill="#A05A07" d="M202.8 323.8c-.5-.5-1.4-.6-2-.3-.4.2-.7.6-.8 1-.1.5.1 1 .6 1.4.6.5 1.6.7 2.3.2.8-.7.5-1.7-.1-2.3Z"/><path fill="#CCD1C0" d="m205 328.7.1.2c-4.2 1.4-9-5.8-3.4-8.5l.1.2 2.1-.5c-.4-1-1-2-1.8-1.7-10.4 3-2.6 15.7 4.7 11.8.8-.5.7-1 .3-2l-2 .5Z"/><path fill="#C2C2AC" d="M202.1 318.4a9.3 9.3 0 0 0-2.8 1.3c.7.2 1.3.6 1.6 1.2l.8-.5.1.2 2.1-.5c-.4-1-1-2-1.8-1.7Zm-2.6 10.7c.3-.6.9-1 1.5-1.3a5.2 5.2 0 0 1-1.8-4.1c-.8.1-1.5-.1-2-.6-.4 2.2.6 4.4 2.3 6Zm7.6-1-2 .6v.2c-.6.2-1.2.2-1.8.1a3 3 0 0 1 0 1.9c1.5 0 5.1-.3 3.8-2.8Z"/><path fill="#BBB99D" d="m202 320.6 2-.5c-.5-1-1-2-1.9-1.7-.4 0-.7.2-1 .3.5.5.8 1.2.9 1.9Z"/><path fill="#C2C2AC" d="M202.1 318.4c-8.1 2.7-1.8 16.2 5.1 10.1l-.1-.4-2 .6v.2c-4.2 1.4-9-5.8-3.4-8.5l.1.2 2.1-.5c-.4-1-1-2-1.8-1.7Z" opacity=".3"/><path fill="#BBB99D" d="M200.2 326.9a5.3 5.3 0 0 1-.8-1.4l-2 .5c.2.6.5 1.2.9 1.7a3 3 0 0 1 1.9-.8Zm6.9 1.2-2 .6c.3.6.5 1.3.5 2 1.3-.4 2.3-1 1.5-2.6Z"/><path fill="#CCD1C0" d="M203.3 325.1c0-.6-.3-1.3-.9-1.6-1.7.5-5 1-6.4 1.8-1 .4-.4 1.3.5 1.5.3 0 4-.8 6.8-1.7Z"/><path fill="#C2C2AC" d="M202.8 323.8a1 1 0 0 0-.4-.3l-1.9.5c-.8 1.8-3.1 2.5-4.9 2.2 1.1 1.4 4-.3 7.7-1 0-.6-.2-1-.5-1.4Z"/><path fill="#BBB99D" d="M202.8 323.8a1 1 0 0 0-.4-.3l-.8.2c.2 1-.6 1.7-1.3 2.3l3-.9c0-.5-.2-1-.6-1.4Z"/><path fill="#A05A07" d="M211.7 320.3c-1-.3-2.2.7-2.2 1.6 0 .8.6 1.7 1.6 2 .6.1 1.2 0 1.6-.3 1.4-.8.6-2.8-1-3.3Z" opacity=".3"/><path fill="#A05A07" d="M211.7 320.8c-1.8-.3-2.3 2.1-.5 2.6 1.8.5 2.4-2 .5-2.6Z"/><path fill="#A05A07" d="M222.2 317.5c-1.8-2.8-5.6 1-2.6 2.6 1.7 1 3.7-1 2.6-2.6Z" opacity=".3"/><path fill="#A05A07" d="M221.8 317.7c-1.4-2-4.1.8-2 2 1.3.7 2.7-.7 2-2Z"/><path fill="#A05A07" d="M190.8 326a2.7 2.7 0 0 0-2.3-.2 1.5 1.5 0 0 0-1 1.9c.6 1.8 3.3 2 4.1.3.4-.8 0-1.6-.8-2Z" opacity=".3"/><path fill="#A05A07" d="M190.5 326.3c-1-.7-2.9 0-2.5 1.3.7 2.5 5 .4 2.5-1.3Z"/><path fill="#A05A07" d="M177.2 328c-4-1-3.5 4.5.1 4 2.4-.5 2.1-3.9-.1-4Z" opacity=".3"/><path fill="#A05A07" d="M177 328.5c-2.9-.7-2.5 3.3.1 3 1.8-.4 1.6-2.9 0-3Z"/><path fill="#A05A07" d="M92.7 318.7c1.7 2.4-1.7 4.2-1.7 4.2-.5-1.4.3-1.8.1-2.7-1.5-1.2-2.7-3.7-.2-4.6 2.4-.9 5 .2 7.1 1.3 1.2.6 3 1.2 5.4 1.8-.5-.1-12.3-2.4-10.7 0Z" opacity=".3"/><path fill="#3B754B" d="M89.5 312.2a26 26 0 0 0-3-12c8.8 4.5 11 4.9 3 12Zm100.7-10.8c-9.3 19.1-52 2.8-65 .6-10.7-3.5-32.5 6.5-35.7-7.5 6.4 4.7 11.6-3.6 18.7 2a32 32 0 0 0 6.8 3.1c5.8 1.4 11.7-.3 17.5.4 10.4.7 21-.6 31.2 1.4 8.6 3.2 17.6-1.3 26.5 0Z"/><path fill="#151916" d="M229.6 324c.5 3.4-.5 6-4.5 7.8-8.6 3.7 3.7 6-21.3 10.8-16.3 3.7-29.3-3-36.2.6 0 0-4.6 1.9-14.2-.1s-64.7-4.7-64.7-4.7C49 348.6 26 323.2 21.2 306.2c-5.2-18.5 0-36 .9-40.5 34.4-6.7 115.7 31.7 151 24.8 0 0 29-6.1 50-.5 5.7 1.4 11.8 7.8 7.2 16.3-.4.9-.6 1 .5 2.2 1.5 1.5 2.3 9-1.7 11.5-1 .5.3 3 .5 4Z" opacity=".3"/><path fill="#B4B296" d="M131.2 115.3s-6.3-.6-6.8 6.4c-.6 7 6.8 8.9 7.2 9 .4 0-.4-15.4-.4-15.4Z"/><path fill="#BBB99D" d="M127.7 116s-2.7-.6-3.3 6.3c-.5 7 3.4 9.5 3.4 9.1-1.6-11.5 0-15.5 0-15.5Zm-11 13.7a42.7 42.7 0 0 1-8.4 3.2c-.7.1-1 .6-.9 1.1a1 1 0 0 0 0 .5c1.7 7.3-.7 15 2.5 22l.2.5a83.5 83.5 0 0 0-5.6 2.2c1 .9 2 1.8 3 2.5a50.2 50.2 0 0 0 10 5.5 20.8 20.8 0 0 0 10.8 1.6c.2-13-8-33.8-11.6-39.1Z"/><path fill="#CCD1C0" d="m125.2 122.7-.3 1c-.5 3.4 0 6.9 1.5 10 1.8 3.7 4.9 7 8.7 8.8 2 .9 4 1.5 6.2 1.6 2.2 0 4.4-.3 6.4-1a29.4 29.4 0 0 0 12-7.3l.6-.6c-19.2-5.3-28.9-10.9-32.4-14-1.8-1.8-.8-1.1-2.7 1.5Z"/><path fill="#CCD1C0" d="M129.4 123.3c-1-1-1.3-1.3-1.8-3-.9-2.8-1.7-3.6.1-4.3-2-.4-3 2.7-3.4 8-.6 7 2.2 7.6 2.6 7.7v-3.8c-.7-.3 3-4 2.5-4.6Z"/><path fill="#9EA58E" d="m44.2 185-25.8 9.3-5 8.3S30 236.1 43 225.2c12.8-10.8 1.2-40.3 1.2-40.3Z"/><path fill="#676D54" d="m45 184.1-25.8 9.4-5 8.3s16.8 33.4 29.6 22.6C56.6 213.5 45 184 45 184Z"/><path fill="#9EA58E" d="M11.2 173.6c-.4.5-10.8 9.2-10.8 9.2s18.8 23.4 30.6 12.5c11.7-10.8-19.8-21.7-19.8-21.7Z"/><path fill="#676D54" d="m19.5 173.8-18 9S18 202 26.8 195.9c8.9-6.2-7.3-22.1-7.3-22.1Z"/><path fill="#A05A07" d="M225.7 312.8a1.8 1.8 0 0 0-1.7-1c-2.4 0-2.6 3.2-1 4l.6.2c1.7.4 3-1.6 2-3.2Z" opacity=".3"/><path fill="#A05A07" d="M225.2 313a1.3 1.3 0 0 0-1.2-.6c-1.8 0-2 2.3-.7 2.9h.4c1.3.4 2.2-1 1.5-2.2Z"/><path fill="#CCD1C0" d="M76.7 308.5s-20.5-6.6-27.6-6.3c-7.1.2-19.9-2.7-22.3-14.6-2.4-12-13.5-29.6-6.4-65.7 5.6-28.5-9.4-34 2.6-55.2 7.2-12.6 62.1-2.6 62.1-2.6s8.6 36.9-1.7 77.3c0 0 36.6 9.5-6.8 67Z"/><path fill="#C2C2AC" d="M76.7 308.5s-20.5-6.6-27.6-6.3c-7.1.2-19.9-2.7-22.3-14.6-1.3-6.3-4.9-14-7-25.3C37.3 262 73.1 232 56 222c-17-10-35.7 0-35.7 0 .5-2.3.8-4.6 1-6.7 2.3-22.8-9.4-29 1.6-48.5 7.2-12.6 62.1-2.6 62.1-2.6a182.9 182.9 0 0 0-1.7 77.3s36.6 9.4-6.8 67Z" opacity=".4"/><path fill="#BBB99D" d="M87 222.7s-7.4-6.6-19.1-10.8c-12.6-4.6-29.9-6.7-42.3.7a121 121 0 0 0-4.2 2.6c2.3-22.9-9.4-29.1 1.7-48.5 7.1-12.6 62-2.6 62-2.6s8 23.2 2 58.6Zm-2.8 15.8s-25.4-3.8-25.8 8.3c-.3 12 25-5.4 25-5.4l.7-3Zm-42.1 63s8.7-37.7 33.9-47L49 302.3s-4.6 0-7-.7Z"/><path fill="#9EA58E" d="M57.2 192.2a43 43 0 0 1-1.6 4.4 50.8 50.8 0 0 1-2 4l-2.1-.6-.7 2.2-2.2-.7-.3 1-3 9.4-.3.1c-10-5.1-27.3-13.1-31.3-8.7l.1-1c.5-4.5 2.1-14.2 4.6-22.2l.2-.7c2-6.3 4.5-11.4 7.4-12l31.2 24.7Z"/><path fill="#9EA58E" d="M57.3 192a46.8 46.8 0 0 1-12 20 208 208 0 0 0-8.6-4.3c-9.3-4.2-19.5-8.4-23.4-4.9 1-5.7 3.5-31.6 12.3-35.8l31.7 25Z"/><path fill="#B1B7A5" d="M27.6 186.4c-6-3.6-10.7 1.9-9 5.3.9 2 3.4 2.8 5.5 2.8 7.3-.3 7-6 3.4-8Z"/><path fill="#949984" d="M57.3 192a47.2 47.2 0 0 1-12 20 208 208 0 0 0-8.6-4.3c2.8-12.5-6.2-24.7-18.8-27.8 1.4-3.2 3-11.6 7.3-12.7 11.2 7.3 21.3 16.8 32 24.8Z" opacity=".4"/><path fill="#949984" d="M57.3 192a51.4 51.4 0 0 1-6.7 13.7C43 195.1 31.6 183 18 179.3c1.8-4 4.5-17.4 10.9-9.7 9.3 7.5 19 15 28.3 22.4Z"/><path fill="#9EA58E" d="m58.8 194 12.3 1.2L48 147.4a72 72 0 0 0-46.7 35.8c21-3 47.7 13.4 56.3 24l1.2-13.1Z"/><path fill="#9EA58E" d="M57.7 207.5c4.4-3.1 10.2-6.8 14-10.7l-24.3-50A72 72 0 0 0 .9 182.5c21.6-3.1 49.2 14.3 57 24.9Z"/><path fill="#B1B7A5" d="M24.7 171.6c-5.6-1.7-15.5 2.4-19.6 9.2l-.9 1.5c7-.4 14.6 1.2 21.7 3.9 2.3-5.4 4.4-13-1.2-14.6Z"/><path fill="#949984" d="M47.4 146.7c-.7-.3-17.9 4.1-32.4 17.1 11 2.3 22.7 10.3 31.1 33 5.2 3.7 9.3 7.5 11.6 10.7 4.4-3.1 10.2-6.8 14-10.7l-24.3-50Z" opacity=".4"/><path fill="#949984" d="M66.5 201.3a42.8 42.8 0 0 0 5.1-4.5l-24.2-50c-.6-.4-13.3 2.8-26 12A97.7 97.7 0 0 1 65 202.3l1.5-1Z"/><path fill="#34381B" d="M101 126.3c-.1-.5 0-1 0-1.6l-.6.6-3.5 4a1 1 0 0 0 .7 1.3c1.6.6 3.3-1.2 4.6-3.1a3 3 0 0 1-1.1-1.2Z" opacity=".5"/><path fill="#CCD1C0" d="M224 283.7s14 10.9 16.1 16c2.2 5.2 11.8 11 21 6.5 9.1-4.6 29.7-26.6 27.6-51.4-2.1-24.7-11.5-23.7-10.9-40.7.6-17 .1-48.7-13.6-57.7-13.8-9-48.6-17.3-48.6-17.3l8.4 144.6Z"/><path fill="#C2C2AC" d="M261 306.2c-9 4.5-18.7-1.3-20.9-6.5-2.1-5.1-16.1-16-16.1-16l-8.4-144.6s34.8 8.3 48.6 17.3c9.7 6.4 12.8 24 13.5 39.9 0 0-26.5 3.5-15.6 18.8a20.3 20.3 0 0 0 16.5 8c2.3 8.8 8.4 12.4 10 31.7 2.2 24.8-18.4 46.8-27.5 51.4Z" opacity=".4"/><path fill="#BBB99D" d="M250.5 229.7s17.3-7.8 22.5.6c5.2 8.4-19.4 2.4-19.4 2.4l-3-3Zm26.4-44s-36.3 5.8-45.4 28.4c-2.7 6.6-6.8 6.8-11.3 3.9l-2.6-43.5 44.6-19.3 2 1.2c7.6 5 11.1 16.8 12.7 29.3Z"/><path fill="#BBB99D" d="M247.8 309.9s33.5-44.4 12-76l-14.2 72 2.2 4Z"/><path fill="#3E8E5B" d="M87.8 149.7c-17.3-6.5-22.9-15.1-22.9-15.1s4.5-4.2 12.4-8.5a76.8 76.8 0 0 1 35-9.2c3.5 0 7.1 0 10.9.6 35 4.5-18.1 38.7-35.4 32.2Z"/><path fill="#3B754B" d="M87.8 149.7c-17.3-6.5-22.9-15.1-22.9-15.1s4.5-4.2 12.4-8.5a76.8 76.8 0 0 1 35-9.2c3.5 0 7.1 0 10.9.6 35 4.5-18.1 38.7-35.4 32.2Z" opacity=".4"/><path fill="#459562" d="M112.4 116.9c-4.5 1-11 4-19.8 9.4-9 5.4-13.9 1.3-15.2-.2a76.8 76.8 0 0 1 35-9.2Z"/><path fill="#C77500" d="m195.6 51.1.4-.6v.5l-.5.1Z" opacity=".3"/><path fill="#A05A07" d="M196.9 56.6v.7l-.1 1.5v.3l-.1.7v.4l-.1.5-.3 1.4-.5 1.7 1.5 3.5a7.9 7.9 0 0 0-.8 1.5c-.2.4-.4.8-.4 1.1v.2a8 8 0 0 1-1.8 3 6.3 6.3 0 0 1-2.9 2c-.5.2-1 .2-1.3 0V75a4 4 0 0 1-.8-1.3l-.2-.7-.5-1.6a64.2 64.2 0 0 1-1.2-5.7l-.2-1-.3-2a76.8 76.8 0 0 1-.4-3.4l-.2-3.6V54l.2-1.2V51.8l.2-.4c0-.4.2-.8.3-1l.2-.4c.3-.7.9-1.2 1.6-1.2l1.5.3a9.6 9.6 0 0 1 3.6 1.5h.1l.2.2h.2l.1.2.8.6.7.7a17 17 0 0 0 1 4.3h-.1Z" opacity=".3"/><path fill="#949984" d="M185 132c-.1.4 3.9-2.2 3.3-9.1 0-7.8-5-6.2-5-6.2s3.3 3.7 1.7 15.3Z"/><path fill="#A05A07" d="M118.2 72.8c-1.6 6.5-6 15.2 2.1 13.2 8.2-2 .6-16 .6-16l-2.7 2.7Z" opacity=".3"/><path fill="#B4B296" d="M131 115.2s-6.3-.5-6.9 6.4c-.6 7 6.9 9 7.3 9 .3.2-.4-15.4-.4-15.4Z"/><path fill="#E8D4BA" d="M183.3 160.5c-4-.5-8.6-1.2-13.3-2.2l-2.9-.6a251 251 0 0 1-17.5-4.6 284.6 284.6 0 0 1-32-11.4c-.6-.3-1.4-.7-1.6-1.5 0-.5 3.1-6 3.7-6.2 7.7-4.4 10.7-26.5 11.8-44.4.5-9.6.6-18 .6-21.7v-2c5.1-5 19 3.4 24.4 5.6 2.6 1 24.5 9.2 26.9 12a191.3 191.3 0 0 0-.9 16.8c0 3.4.1 6.5.4 9.3a48 48 0 0 0 4.8 17l1 2a65.7 65.7 0 0 0 4.4 6.2v.1l5.8 7.4.8.9c3 3.9 4.7 7 5.1 9.5 1.5 7.5-7.8 9.3-21.5 7.8Z"/><path fill="#CEB79B" d="M199.7 143.2c-13.6-17-19.8-23.1-16-59.3.2-2-24.5-11.3-27.2-12.4-5.4-2.2-19.3-10.7-24.4-5.5 0 0 .2 16.2-1.4 33a34.3 34.3 0 0 1 2 3.4 51.1 51.1 0 0 1 3 8c.5 1.5.9 3 1.2 4.7.2 1 .3 2 .2 3-.2 1.5-1 2.6-2.7 2.5a9.7 9.7 0 0 1-5.7-3l-.7-.6c-1.8 8.3-4.5 14.8-8.3 17-.5.2-3.8 5.7-3.7 6.2.2.8 1 1.2 1.6 1.5 37 16 107.3 33.1 82 1.5Z" opacity=".4"/><path fill="#CEB79B" d="M199.7 143.2c-13.6-17-19.8-23.1-16-59.3.2-2-24.5-11.3-27.2-12.4-5.4-2.2-19.3-10.7-24.4-5.5 0 0 .2 11.7-.8 25.5l.8 1.1c1 1.7 2 3.5 2.7 5.4l2 5.5 1.3 3.6a44 44 0 0 1 3 10.5c.2 2.5 0 5.9-3.1 6.4-2.4.3-4.8-.6-6.8-2a20.4 20.4 0 0 1-3.6-3.2c-1.8 7.4-4.4 13.2-8 15.2-.4.2-3.7 5.7-3.6 6.2.2.8 1 1.2 1.6 1.5 37 16 107.3 33.1 82 1.5Z" opacity=".4"/><path fill="#CEB79B" d="M204.9 152.7c-1.5 6.3-13.8 6.6-29.7 3.8-.1-6.6-20.2-6.2-22-12.7-5.1-19-12.4-33-21.7-54.2l-.2-.3c.6-8.7.8-16.5.8-21.3v-4.8c5.1-5.1 19 3.3 24.4 5.5 2.8 1.2 27.4 10.4 27.1 12.4l-.2 2.4c-.6 6.5-.9 12-.8 16.7-.4 22.3 5.8 29 17 43 3.1 3.9 4.8 7 5.2 9.5Z" opacity=".4"/><path fill="#BBB99D" d="M127.5 115.9s-2.8-.6-3.3 6.4 3.4 9.5 3.3 9.1c-1.6-11.6 0-15.5 0-15.5Z"/><path fill="#C5C7B2" d="M113.4 169.6c21.9 15.1 59.5-18.7 59.3-44.4-15.8 18-35.4 21-48.3-1.7a39.3 39.3 0 0 1-9.4 6.8c-.8.5-.7 1.2-.5 1.8 0 0 .2 36.6-1 37.6Z"/><path fill="#BBB99D" d="M108 132.8c-.7.2-2 25.7-3.8 26.5 6.5 5.6 15 10.6 23.9 9.6a111 111 0 0 0-8.8-41.2s-8 4.2-11.3 5.2Zm80.7-4c-2.9 9.2-13.5 16.8-20.8 16.8-6 0-8.3-6.2-13.5-10.8 10.7-4.2 27.2-10.7 31.4-17.6.2-.5.5-.4 1 .2a8.9 8.9 0 0 1 2.4 5.2c.3 2 0 4.2-.5 6.2Z"/><path fill="#3E8E5B" d="M112.8 162.2Z"/><path fill="#3C8454" d="M254.7 138.2c-21-12-33.8-3.2-53-15.6-3-1.7-9.5-1.7-12.5-.3-1 .5.5 1.9-1.5 4.4-5.5 7.3-12.7 10.3-20.4 15.1-10.6 5-45.5 33.2-54.5 20.5.6 4 .5 8 1.4 12l.3.8c12.5 6.3 26.5 9.3 39.9 13.5 75.5 21 78.4-4.7 127-12-1.4-4.6-7.8-27.5-26.7-38.5Z"/><path fill="#3B754B" d="M112.8 162.2Zm0 0Zm91.3-38.3c-9 12.8-24.1 19.3-38.2 24.8-7.6 3.3-15.2 6.5-22.6 10-10.4 5.1-15 9.9-15.2 21.8l-2-.8c-15-4.8-11.6-2.2-13.3-17.5 2.3 15 49.6-16.8 56.2-20.7 5.1-3.7 20.4-12 19.8-18.6.2-1.6 5.7-1.6 7.4-1.6 3.6 0 5 .8 8 2.6h-.1Z" opacity=".4"/><path fill="#3E8E5B" d="M150.6 173a15 15 0 0 1-4.3 1.8 10.8 10.8 0 0 1-4.6.2c-1.5-.3-3.4-1-5-.5-.8.3-1.8.8-1.8 1.7 0 .6.3 1.2.7 1.7a7 7 0 0 0 3.8 2c1.7.3 3.5.4 5.3.5 1.5 0 3 .4 4.6.4 1.5.1 3 0 4.6-.3 1.4-.4 3-1.2 3.8-2.5 1.7-3.1-2.3-7.9-7.1-5Z"/><path fill="#3B754B" d="M225.8 130.3s-43.7 59.6-57.5 37.2c-5.8-9.4 18.3-37.5 20.9-45.2 1.5-1 8.5-2 12.5.2 14.5 7.8 16.5 6.2 24.1 7.8Z"/><path fill="#3B754B" d="M276.9 164.3c-19.5 3.6-33.7 15.6-52.7 21.1-28.5 8.3-40.7-3.3-64.4-1-7 1.2-14.4 1-21.4-.5 90.5 28.6 85.6 2.8 144-6.8-1.2-3.8-4.1-9.2-5.5-12.8Z"/><path fill="#2B6B40" d="M126 179.7c1-2.8 1.8-5 .7-7.8 0-.9.4-1.6.7-2.4.7-1.8.5-3.7.6-5.6 0 0-8.2 2-10 1.6-1.6-.3-4.8 1.2-5.3-3.4 2.3 15.9-2 12.2 13.3 17.7v-.1Z"/><path fill="#3B754B" d="M252.2 136.8S228.3 149 239 159s35.6.7 35.6.7-8-16.5-22.4-22.9Z"/><path fill="#3E8E5B" d="M213.7 164c-.6 11.7-18.2.9-22.3 9.6-6.6 12.6 37.2 10.2 38.7-7.7-1-8.6-19.6-18-16.4-1.9Z"/><path fill="#CCD1C0" d="M124.9 122.6a17 17 0 0 0 1.2 11 18.7 18.7 0 0 0 8.8 8.9c2 .9 4 1.5 6.2 1.6a20 20 0 0 0 6.5-1 29.6 29.6 0 0 0 12-7.3l.6-.6c-19.3-5.4-29-10.9-32.5-14.1-1.9-1.7-.9-1-2.8 1.5Z"/><path fill="#CCD1C0" d="M129.1 123.3c-.9-1-1.3-1.4-1.8-3-.9-2.9-1.7-3.7.1-4.4-2-.3-3 2.8-3.4 8.2-.6 6.9 2.3 7.5 2.6 7.6.2 0 .2-1.6.1-3.9-.8-.3 3-3.9 2.4-4.5Z"/><path fill="#E8D4BA" d="M191.2 59.3c-.4 2.2-1.2 23.5-2.6 28-1.2 4-13 20.7-30 21.9-17.2-1.3-31.7-16.2-33-24-.5-3.9-1.1-19.5-1.6-23.3-.2-.2.1-5.1 0-8.5.7-4.9 1-19 4.4-25 2-3.6 6.7-7.6 9.9-8.8 6.1-2 14 .4 23 1.1 3 .3 6 .3 9 .2 9.7-.6 11.6-2.7 17.3 9.6a293 293 0 0 1 3 21.4l.6 7.4Z"/><path fill="#CEB79B" d="M184.9 89.2c-2.2.3-17.6.1-19.3 1.8-7.9-4-15-15.2-15-15.2-1.2-1.7-2.3-4.3-1.6-5.8 4-2.2 7.1 4.4 10.5 2.2.8-.5 1.5-1.5 2.6-1.8 1.3-.5 2.6-1 2.2-2.7-.2-.8-1.7-4-2.3-5.3-.2-3.1.8-6.3-.5-9.3-.5-1.8-.5-4.4.8-5.8 3.3-2.7 8.2-4.6 11.2-7.5 6.3-7.1-8.9-11.3 1.3-14.6 2.6-1.3 5.4-2.6 8.4-2.7 2 0 1.6 1.3 2.6 2.7 9.8 14.4 2.2 64.6-1 64Z" opacity=".4"/><path fill="#CEB79B" d="M188.6 87.3 159.2 94l-9-19s0-2.6 1.8-2.5c1.9 0 3 3.3 5.8 3.2 2.8 0 2.4-1.6 4.7-2.6 3.9-1.6 4.1.4 2.5 1.9 0 0 9.2 9.6 13.2 6.3 8.5-7 8-24.6 3.2-28.1 2.5-3.7.2-7.4-3-6.8-4.2.9-12.2 3.6-14 4.9-3-3.1-3.7-4.3-8.6-3.1-.8.2-1.4 1-2.2 1.8-.3 5-3.5 4.6-7 2.3a42.6 42.6 0 0 0-16.4-4.9c-3 0-3.8 22 8.3 38-1.2 6-12.9 8.6-16.3-32.4-.3-3.2 8-33.1 11.1-33.6 7.8-1 20.1 2.7 31 1.5 9.5-1.4 24.1 2 25.1 3.9 1.4 2.7-.8 62.6-.8 62.6Z" opacity=".4"/><path fill="#E8D4BA" d="M124.6 70.5c-1.9 5.8-7.1 6.2-8.4-.1-1.5-5.5-3.8-13-1.8-19.4 1.3-1.8 3.6-4.7 6.1-3.4 2.2 1.1 3.2 4.2 3.8 6.4 1.3 5.3 2 11.1.3 16.5Z"/><path fill="#CEB79B" d="M123 73.5c-3.2 3.5-6 .3-7-3.1 1 .5 4.6 2.2 5 1.4 2.4-6.5 4-20.6-4.5-23.2 3.1-2.2 4.6-1.7 6.7 2.3 2.9 6.3 3.6 18.3-.2 22.6Z" opacity=".4"/><path fill="#CEB79B" d="M121.5 59.7c.2-3.1-1.9-6.5-4.6-7-1.1-.4-1.5 3.4-1.1 5.2.5 2.4 2-2.2 3-1.9 1.6.7-.2 5.5-.5 6.9-.3 1.5 2 7.7 3 3.4-.5-.8-1.7-1.2-1.6-2.4.2-1.3 1.1-3.6 1.8-4.2Z"/><path fill="#676D54" d="M119.5 75.1c-.1 1.2-.8 5-2.5 4-2-1 3.2-7.5 3.2-7.5s-2.5-4.7-6.6 1.6c-5.3 8.4 3 12.7 5.7 8.6 1.3-2 2-5.5 2.2-7l-2 .3Z"/><path fill="#474C2F" d="M119.5 75.1c-.1 1.2-.8 5-2.5 4-2-1 3.2-7.5 3.2-7.5l-.6-.8a36.8 36.8 0 0 1-2 3.2c-1 1.2-1.8 2.6-3 3.4-.7.6-1.8 1-2.7.4-.4 5.2 5.3 7.3 7.3 4 1.4-2 2-5.5 2.3-7l-2 .3Z" opacity=".4"/><path fill="#474C2F" d="M119.5 75.1c-.1 1.2-.8 5-2.5 4-2-1 3.2-7.5 3.2-7.5l-.3-.4c-.8.6-1.5 1.7-2 2.6a11.5 11.5 0 0 0-1.9 4c-.2 1.5-.4 3.2.3 4.6l.6 1c1-.2 1.8-.7 2.3-1.6 1.4-2 2-5.5 2.3-7l-2 .3Z"/><path fill="#949984" d="M114 75.7a5.7 5.7 0 0 0 3-1.9 9.1 9.1 0 0 0 2-3.5c-1.2-.7-3-.8-5.4 3-.5.7-.9 1.5-1.1 2.2.4.2 1 .3 1.5.2Z" opacity=".7"/><path fill="#CEB79B" d="M121.5 59.7c-.8-.6-2.6 6-3 4.7-.9-2-2.5-2.2-4.2-1.3-.6-3.3-1.1-8.2.1-12.1 2.4-1.7 5.8 1.3 6.7 4.2.9 2.4.4 4.5.4 4.5Z" opacity=".4"/><path fill="#CEB79B" d="M151.7 74.6c-1-.7-2.6-1.2-2.7-2.5 0-.7.6-2.6 1.3-3 .6-.3 0-1.2-.5-.8-1.2.7-2 2.7-1.9 3.8.1 1.6 2 2.4 3.3 3.3.6.4 1.1-.4.6-.8Zm11.6 0c-.6.4 0 1.3.5 1 1.4-1 3.2-1.8 3.3-3.4 0-1.1-.7-3.1-1.8-3.8-.6-.4-1.1.4-.6.8.8.4 1.4 2.3 1.3 3-.1 1.3-1.6 1.8-2.7 2.5Z"/><path fill="#CE8000" d="M179.8 20.1c-3.9 9.1-17.3 7.9-25.5 7-7.9-.6-14.3-4.3-21.3-7.8-2.5-1-5.2-2.2-7.4-3.3a32 32 0 0 1 5.6-6.2c16.3-2.8 34.4 4 48.6 10.3Z"/><path fill="#CEB79B" d="M134.5 42.5s2.3 6.4 6.6 7.5c4.3 1 8.6 4.9 10.8 3.6 2-1.3 1.7-3.7 1.7-3.7s.4-3.7 4-3.6c2.3 0 3.2-9.2-4.8-7.4-5 1.1-10.7.1-13.6-.6-2.9-.7-5.3 3-4.7 4.2Z" opacity=".4"/><path fill="#CEB79B" d="m162.5 57.9.1-1.7a9.6 9.6 0 0 0-.3-3 7 7 0 0 1 0-4.2.5.5 0 0 0 0-.5.6.6 0 0 0-.6-.2.5.5 0 0 0-.5.4 10 10 0 0 0-.4 3l.3 2c.2.6.4 1.2.4 1.9l-.1 3c-.1 1.4-.2 2.9 0 4.3 0 .3.2.5.5.5a.7.7 0 0 0 .5-.2l.1-.5a22.2 22.2 0 0 1 0-4.8Z"/><path fill="#C77500" d="M183.6 23c-4 4.5-11.3 4.7-17.3 4.6-5 .4-10.2-.2-15-1-5.4-.7-10-3.3-14.9-5.3-2.1.7-8 2.7-9.2 2.2-2.5-1.2-4.3-4.3-.9-7.3 6.4-6 15.3-5.3 21.8-1.2 6 3.7 12.5 9 21.3 7.5 1.6-.3 16-7.5 15.9-5.5 0 2.5.4 4-1.7 6Z" opacity=".3"/><path fill="#C77500" d="M197 48.4c-1.4.3-1.1 1.7-2.5 2.1l-4.2 1.6a62.3 62.3 0 0 0-6-27.7s-.9-1.2-1-1.1c-6.5 7.3-26.5 3.7-29 3.8 2.8-2.9 13.1-10.5 5.8-16l4-1-6.5-2.7c.8 0 4-1.8 3.6-3.4-1.4-2-5-3.2-7.5-3 4.3-.4 7.7-.3 10.4.3 26 3 31.2 25 32.9 47Z"/><path fill="#E8D4BA" d="M201 56.1c.1 4.6-1.3 9.1-2.6 13.6-.5 1.4-.7 3-1.6 4.2-1.7 2.5-4.5 2.2-6.3 0-4-5.6-2.5-14.8-.3-20.6v-.1c-.3-.5-.3-.5 0 0 .2-.5.3-1 .6-1.3.9-2.4 3.4-5.6 6.1-3.5.9.5 2 .9 2.6 1.7 1.3 1.6 1.4 4 1.5 6Z"/><path fill="#CEB79B" d="M196.4 71.8a14 14 0 0 0 1.6-.7 6.5 6.5 0 0 1-1.9 3.5c-1.3 1.4-3.3 1.4-4.7.1-2.2-1.9-2.8-4.9-3.1-7.7-.3-6-.6-13.5 3.9-17.9 2.7-2.6 3.9-1.3 6 0-8 2.3-7 17-5.3 23.3.3.6 2 0 3.5-.6Z"/><path fill="#CEB79B" d="M200.7 52.7c-5 1.4-6 7.1-5.6 11.7 0 1.7.5 8.2 2.4 8.4-.4.6-.8 1.3-1.4 1.8-.4.4-.8.7-1.3.9-7.9-2.8-7-14.5-4.4-21a14.5 14.5 0 0 1 .5-1.2c.7-1.7 3.8-6.3 5.6-5.2 1.5 1 3.4 1.5 3.8 3.4l.3 1.2Z" opacity=".4"/><path fill="#CEB79B" d="M194.4 64.5c.2 1.2-1.2 1.5-1.7 2.3.1 1 1.2 2.4 2 .9.6-1.3 1.5-2.8 1.2-4.3-.2-1.3-2-6.2-.3-6.9 1-.3 2.5 4.3 3.1 2 .5-2 .1-5.7-1-5.3-2.9.5-5.2 3.7-5 7 .6.6 1.6 3 1.7 4.2Z"/><path fill="#CEB79B" d="M201 56.1a29.1 29.1 0 0 1-1.1 8.6c-.8-1.6-3.4-1-4 .2h-.1c-.8 1-2.2-5.2-3.2-4.7-1-4 3-11 7.7-8.7.5 1.4.7 3 .7 4.6Z" opacity=".4"/><path fill="#CEB79B" d="M193.3 69s-.3 1.6 1.5 2c1.8.5 2-2 2-2h-3.5Z"/><path fill="#A05A07" d="M184.2 19.6c-.1 1.1-.2 2.4-.7 3.5-1.9 2.1-4.9 3.5-7.8 4 4.2-5.5 6-14.4 1.1-22 1.7 1 3.4 2 5 3.2.8 2.4 2.5 7.8 2.4 11.3Z" opacity=".3"/><path fill="#A05A07" d="M174.1 27.3c-1.8.2-3.9.3-5.7.3 3.9-5.8 8-15 4.8-24l1.5.5c4.7 7 2.5 17.7-.6 23.2Z" opacity=".3"/><path fill="#CEB79B" d="M157.8 76.2c-1.3 0-2.6-1.1-3.5-2.1-1.3-1.5-2.7-1.1-2.7-1.1a.6.6 0 0 1-.7-.3c-.1-.3 0-.6.3-.7 0 0 2-.7 4 1.3 1.4 1.7 2.3 1.8 2.5 1.8A4 4 0 0 0 160 74c.8-1 2.3-2 3.7-2 .3 0 .6.2.6.5s-.3.6-.6.6c-.8 0-2 .7-3 1.6a5 5 0 0 1-2.8 1.5Z"/><path fill="#CE8000" d="m193 75.5-.1 1.8c-1.3 11-.6 23.4-8.7 32.1-1.4 3.7-3.3 7.3-7 9.3-1.2.9-1.3 2.5-1.6 3.8a16.6 16.6 0 0 1-2.6 6c-4 6.2-11.3 6.2-17.8 5.6-9.6.3-14.7-6.3-16.8-14.9-3.6 1-5.5-5-7-7.7-8.6 4-10.1-28.5-10.5-34l.3-2.7c1.7-10.2 1.9-20.4 3.6-30.8.4-2.1-.6-6.7-.7-8.9l.5-.5c1.2-1.4 1.8-3.4 2.7-5-.8 7-3.9 14-1.3 20.8-.7.5-1.3 1.7-2 2.8v.1l2-1.4v2.9c-.4.3-1 1.5-1 2l1-.7c.7 6.1-.6 20.7 7 22.4-.6 3 0 4.2 2.4 6.7.5-4.6 3.2-8.9 11.7-8.5-.8.6-1.9 1.8-1.2 3 .4-.5 3.7-4 5.6-2.7 6.6 2.5 16.1-3.1 18.2 2.9.6-.7 1.5-2.1 0-3 4.3 0 10.3 1.3 10 8 4.2-2.2 5.5-4.6 4.9-8 5-.3 3.3-16.3 3.8-20.5l.9.7a4.8 4.8 0 0 0-1-2v-2.9a73.8 73.8 0 0 0 2 1.5c-.5-1-1.2-2.4-2-3 2.7-7-.2-13.7-1-20.7.9 1.5 1.5 3.5 2.7 5l.4.5c-.4 3.5-.9 7.4-.2 11 1.5 9 1 18.3 2.6 27.4v1.6h.1Z"/><path fill="#C77500" d="M193 75.8c-1.5 12-.4 25-9.3 34.3-.7 3.7-3.4 6.8-6.5 8.6-1.7 1.3-1.3 3.7-2 5.4a15.4 15.4 0 0 1-2.2 4.5 13.5 13.5 0 0 1-13.8 5.6c-4.1-.6-8.9.3-12.6-1.7-4.6-3-6.7-8.4-8.3-13.4-3.3 2-6.5-7.3-6.9-7.6-8.8 3.1-10-28-10.5-34 1.5-11.2 2.2-22.2 3.9-33.5.4-1.5-.5-6.2-.6-7.8 1-1.9 1.9-3.4 2.4-4.8.2 7.7-3.5 9.2-.6 19-.7.5-1.3 1.8-2 2.8v.2a.3.3 0 0 0 0-.1l2-1.4v3c-.4.2-1 1.4-1 1.9l1-.7c.2 6.3.5 14.4 3.4 20.2-4.5 10-1.4 22.6 5.5 31 .6-1.1 0-3.6.5-5.1 12 14.5 27.7 18.5 29.6-5 3.9 4.7 7.7 2.2 9.5-2.7 4.3 3 4.5-10.4 4.7-12.9.3 1 .4 2 .4 3.2 4.3-2 5.6-4.5 5-7.9 4-.5 3.3-8 3.7-11.1l.1-9.4 1 .7a4.8 4.8 0 0 0-1-2v-2.8l1.4 1 .6.4-.5-.8c-.5-1-1-1.7-1.5-2.1 2.7-7-.5-14-1-20.7 1 1.8 1.6 4 3 5.4l-.8 6.9c0 3 .7 5.9 1 8.8.5 3 .8 6.1.7 9.3-.1 5.2 1.8 10.2 1.5 15.4h.1Z" opacity=".7"/><path fill="#A05A07" d="M193 75.5c-.5 6.7-.5 12.6-1.9 19-.9 4.2-2.3 8.7-4.5 12a42.5 42.5 0 0 1-2.4 3c-1 3.5-3.9 7.4-7 9.2-1.2.9-1.3 2.5-1.6 3.8-.7 3.4-2.5 6.7-5.2 8.8-3.6 3-6.7 3.5-11.2 3-4.7-.8-10.4.6-14.2-3a38.8 38.8 0 0 0 24.7-29.4c1.3 6.6-1.6 13.8-3.7 19.3 6.9-8.7 14.3-18 15.2-29.5 1.9 2.8.3 7.2 1 9.6 3.4-14.8 6.7-29.5 6.3-45l1 .7a5 5 0 0 0-1-2 137 137 0 0 0 0-2.8l2 1.4-.5-.8a6.8 6.8 0 0 0-1.5-2c2.4-7.2-.3-13.8-1.1-20.8 1 1.7 1.6 4 3.1 5.5-.4 3.5-.9 7.4-.1 11 1.5 9 1 18.3 2.5 27.4v1.6Z" opacity=".3"/><path fill="#BA6F04" d="M168.5 154.6c.2 1.8-.7 3.5-1.4 5 0 5.3-2 9.9-5.8 13.3-1.4.8-2-.2-3.7.3-2.7.4-5.4-2.4-6.7-4.6a10.7 10.7 0 0 1-1.6-5.8c0-1 .1-2 .4-3.1l-.4-.2c-2.9-2.2-2.7-7.6-.5-10.3a10.7 10.7 0 0 1-.3-11.2c-.6-1-1.5-2-2.1-2.6l21-.6c.4 1.3 0 2.6-.5 4l.3.4c1.6 3 1 7.2-.5 10.5a10 10 0 0 1 1.8 5Z"/><path fill="#C57802" d="M159.8 163c-1.5 1.6-3.3 6.3-1.6 6.8 1.5.4 4.3-1.5 5.8-3.2 1.5-1.6 1.6-3.2.3-4.4-1.3-1.2-3-.7-4.5.8Z"/><path fill="#995A07" d="M154 162.3c3.2 1.3 1.5 5.6 3 9.3-.1.8 1.1 1.6 1.3.8-1.3-3-.7-5 0-7.4 0 0 1.2-4.3 3.8-4.1.9.2 1.1-1 .4-1.2-3 0-4.6 2.7-5 4.1-.7-1-.7-1.6-1.8-2-.7-.5-2.8-.5-1.6.6Z"/><path fill="#D58500" d="M160.8 168.2c-2.2.8-3-.3-2.3-1.5.6-1.1 2.2-3.9 3.4-3.7 1.2.2 2.3 4-1.2 5.2Z"/><path fill="#BA6F04" d="M161.7 193.3c-.2 1-.1 2.2.4 3-5.5-3.1-10.3-9.6-8.9-16.1l.5-1.3c.2-.4.4-.9.7-1.2l.7-2.3c13.5-.6 9.1 11.1 6.6 18Z"/><path fill="#A05A07" d="M161.7 193.3c-.2 1-.1 2.2.4 3a17.3 17.3 0 0 1-3.3-2.3c4-5.5 2.4-14.3-5.6-13.6v-.2l.5-1.3c1.5-2.4 6.3-4.5 9-3.4v1.4l.2.5c4.2 3.4-.8 13.6-1.2 16Z" opacity=".3"/><path fill="#A05A07" d="M164.4 184a9.5 9.5 0 0 0-3.9-4.1 11.1 11.1 0 0 0-3-1.3 14.3 14.3 0 0 0-3.4-.5h-.1l.2-.2h.2c.8-.6 1.7-1 2.6-1.5l.4-.2.7-.3a8.8 8.8 0 0 1 4-.7H162.3v.1h.1l.1.2V177h.1v.2l.2.2.2.2.3.3.3.5.2.4.2.3v.3l.2.3v.2c.3 1.1.2 2.6 0 4v.2Z" opacity=".3"/><path fill="#995A07" d="M162.6 182.7c0-1.8-.4-4.3-2.2-5-.8-.4-1.5.8-.7 1.1 1.5.6 1.5 2.8 1.6 4.1a12 12 0 0 1-1.4 6.4c-.4.7.8 1.4 1.2.6a13.6 13.6 0 0 0 1.5-7.2Zm-4.3-5.4c-.4-.7-1.5 0-1 .8 1 2-1 3.6-2.2 5-.6.6.4 1.4 1 .8 1.8-2 3.7-3.9 2.2-6.6Z"/><path fill="#02A84D" d="M163.6 178h-9.7c-1.1-1.6-1.2-4.5-1-6.3 4.3-.2 7-.2 11-.1 0 0 0 6-.3 6.4Z"/><path fill="#1A9950" d="M163.6 178h-9.7a4 4 0 0 1-.7-1.5c1.6-.4 5.8-4 6.3-5l4.4.1s0 6-.3 6.4Z"/><g fill="#C77500" opacity=".5"><path d="M153.3 81.7c5.2-1.2 12.2 1 15.8 3.2 0 0-16.5-1.2-19.4-1.6 1 .2.7-1 3.6-1.6Zm3.7 7.6c-2.3-.6-2.5-.1-1.7 2 1.6 2.9 5.9 1.6 5.7-2-1.3.6-2.7.3-4 0Z" opacity=".3" style="mix-blend-mode:multiply"/></g><path fill="#995A07" d="M169.3 85.1c-1.2-2.1-9.3-2.1-15-2.3-2.6-.2-4.7.7-5.2 1-4.1 2 1.5.3 8.9.5 2.9.1 11.4.8 11.4.8Zm-8.8 4.2c-.5.6-2 .3-2.6.3a8.2 8.2 0 0 1-2.7-.6c-.8-.3-1.2 1-.4 1.3 1.1.5 2.4.6 3.6.7 1 0 2.4.1 3-.7.6-.6-.3-1.6-1-1Z"/><path fill="#C77500" d="M158.4 27.3a41.4 41.4 0 0 1-16.3-3.7 75.7 75.7 0 0 0-5.7-2.3c-4.3.6-6.4 5.5-8 9.5-3.1 6.8-3.3 12-5 20.8l-1.2-2.5c0-.2-.6-1.2-.5-3.5l-1.5-9.5 4 1.1s-2.3-6.3-1.1-6.5c6.1-1 .8-10.4.8-10.4l4.1 2s.5-2.2 1.5-3.2c2-1.9 5.6-2.9 8.3-1.4 4.3 2.6 12.7 10.7 19 7 2-1 .2 2.5 1.6 2.6Z"/><path fill="#676D54" d="M196.9 69.6c-1.9 3.1-5.4-1-2.5-2.8 1.6-1 3.4 1.2 2.5 2.8Z"/><path fill="#474C2F" d="m196 70.5-.5.2c-1 .2-2-.6-2.2-1.7a2 2 0 0 1 1-2.2s-1.1 3.3 1.7 3.7Z" opacity=".4"/><path fill="#949984" d="M196.9 69.6c-3.4-.6-2-3-2-3 1-.2 2 .6 2.2 1.7 0 .5 0 1-.2 1.3Z"/><path fill="#3E875B" d="M144.4 51c-1.8-.1-4.2-.7-5.8.3-.8 1.3.3 3 1.4 3.8 2.5 2 7.7-1.9 4.4-4Z"/><path fill="#3B754B" d="M142 54.5c1 0 1.8-1 1.8-2s-.8-2-1.9-2c-1 0-1.9.8-1.9 2 0 1 .9 2 2 2Z"/><path fill="#3E875B" d="M170.1 51c-3.3 2.4 2.2 6 4.6 4 1.2-.7 2.3-2.6 1.4-4-1.7-.9-4.2-.2-6 0Z"/><path fill="#3B754B" d="M172.7 54.4a2 2 0 1 0 0-3.8 2 2 0 0 0 0 3.8Z"/><path fill="#676D54" d="M164 54.9c.4-.1 8.3-6.6 17-2.2.8.4 1.5-.8.7-1.2-9.8-4.9-17.3 2-18 2.1-.9.3-.5 1.6.4 1.3Zm-14.4-.3c-.3-.1-7.9-6.3-15.7-1.7-.7.4-1.3-.7-.6-1.1 8.8-5.3 16 1.3 16.6 1.5.7.2.4 1.5-.3 1.3Z"/><path fill="#CE8000" d="M150.4 49.6c-3-.3-10.2-.9-15.9-2.3l1.9-1.4s-2.5 0-3.7.9a8.7 8.7 0 0 1-2.2-1c-.2-.2.4-5.5 1.8-5 .4.3 8.8 2 14.7 2 .7 0 3 1.3 3 1.3l-.3-1.4 3-.5c1.4-.2 2 2.6 2 4.8-.2 2.9-.4 2.5-4.3 2.6Z"/><path fill="#C77500" d="M150.4 49.6c-4.7-.4-11-1-15.9-2.3l1-.7c1 .5 6.1-2.4 6.1-2.4l-1.3 1.5c2-.7 5-3 5-3 1.9 0 3.4.6 4.6 1.3l-.2-1.4c1 0 2-.2 3-.4 1.4-.2 2 2.5 2 4.8-.2 2.9-.4 2.5-4.3 2.6Z" opacity=".3"/><path fill="#A05A07" d="M150.4 49.6h-.7a200 200 0 0 1-3.8-.5c5.4-.9 6-5.3 5.4-6.7l1.4-.2c1.4-.2 2 2.6 2 4.8-.1 2.9-.4 2.5-4.3 2.6Z" opacity=".6"/><path fill="#CE8000" d="M184.3 47.3c-1.4.5-3 .7-5 .9l-2.5.1a87.6 87.6 0 0 1-14.4-.8c-2.4-.3-2.8-1.2-2.2-3l.2-.5c1.7-4 1.4-3.7 2.7-3.7l2.5.7c.3 1 1 2.3 1 2.3l.7-2.1a65.1 65.1 0 0 0 14.4 1c1 0 2-.1 2.9-.3.5.5 1.7 4.8-.3 5.4Z"/><path fill="#C77500" d="M179.3 48.2c-4 .3-8.6.1-12.5-.2-2.6-.5-8.2.2-6.6-3.4 2.2 1.7 9.3 0 10.6-2.2-1 3.7 6.3 3 6.6 3.1.9.3 2.4 1.3 1.9 2.7Z" opacity=".3"/><path fill="#A05A07" d="M184.3 47.3c-1.9.7-4.6 1-7.5 1 3.3-.7 4.8-5.9 5-6l2.8-.4c.5.5 1.7 4.8-.3 5.4Zm-17.5.7-4.4-.5c-2.7-.4-2.9-1.4-2-3.5 1.7-4.1 1.4-3.7 2.6-3.7 0 1-2.4 5.3 3.8 7.7Z" opacity=".6"/><path fill="#F7F7F7" d="M138.5 53.2c.7 0 1.2-.4 1.2-.8s-.6-.7-1.3-.6c-.7 0-1.2.4-1.2.8s.6.7 1.3.6Zm31.4.8c.7 0 1.2-.4 1.2-.8s-.6-.6-1.3-.6c-.6 0-1.2.4-1.1.8 0 .4.6.7 1.2.6Z"/><path fill="#9EA58E" d="M74.4 200.2c.2-.6.9-.9 1.4-1.1l2-1a74.9 74.9 0 0 1 6.4-3.4l3-1.3 2.7-.9a4.7 4.7 0 0 1 2.6 0 36.6 36.6 0 0 0 4.3-4.8c-5.2-16.5-40.3-56.2-40.3-56.2C34 134.2 11.7 145 2.2 159.8c30.5-2.1 56.6 18.9 70.9 41.1.4 0 1-.3 1.3-.7Z"/><path fill="#9EA58E" d="M92.3 191.5a36 36 0 0 0 4.2-4.7c-5.2-16.5-40.3-56.2-40.3-56.2-22.5 2.7-44.8 13.5-54.4 28.3 31-2.2 57.4 19.5 71.5 42a37.2 37.2 0 0 0 19-9.4Z"/><path fill="#B1B7A5" d="M26.8 151.2c-6-1.6-16.7 3.3-20.2 7.6 8.7 0 17 2 24.8 5.2 2.3-5.5.8-11.4-4.6-12.8Z"/><path fill="#949984" d="M56.2 130.6c-14 1.7-28 6.5-38.8 13.5 15.7 3.1 34.3 15 37 34.6 7.6 6.6 14 14.4 19 22.2a36.6 36.6 0 0 0 23-14c-5.1-16.6-40.2-56.4-40.2-56.4Z" opacity=".4"/><path fill="#949984" d="M56.2 130.6A96.1 96.1 0 0 0 20.7 142c16-1.7 53.2 32 62.4 55.6a35.6 35.6 0 0 0 13.3-10.9c-5.1-16.5-40.2-56.3-40.2-56.3Z"/><path fill="#9EA58E" d="M20.1 134c-.6.3-.3.8-.9 1 32.2-.8 61.9 25 70.7 64.8h.2l15.2-.9-4.4-76.8c-19.4-2.6-56 2.6-80.8 12Z"/><path fill="#9EA58E" d="M108.1 200.2c7.8-16.6 17.2-56.6 5.2-74.1-7.2-10.6-61.5-4.8-94.1 8 32.4-.9 62.3 25.4 70.9 65.8 7.7.9 13.2.9 18 .3Z"/><path fill="#B1B7A5" d="M61.3 141.4c-1.8-1.4-4-2-6.1-2.3-1.9-.2-3.9-.3-5.7-1a6 6 0 0 1-3.7-3.6c-.6-1.8-1.6-3.6-3.2-4.5-1.5-.9-3.2-1-4.8-.8a52 52 0 0 0-16 5c15 .2 29.4 6.2 41.2 16.8l.5-1.4c1-3 .3-6.2-2.2-8.2Z"/><path fill="#949984" d="M113.3 126c-3.6-5.3-19.3-6.5-38-4.7 2.2 11.5 0 24.8-8.7 33.1A91.5 91.5 0 0 1 90 199.8a76 76 0 0 0 18 .4c7.8-16.6 17.2-56.6 5.2-74.1Z" opacity=".4"/><path fill="#949984" d="M104.8 176.2c-1.4 8.5-4.3 17-9 24.2 4.9.3 8.8.2 12.3-.2 7.3-16.4 24.7-77.2-7.5-79a138 138 0 0 1 4.2 55Z"/><path fill="#E8D4BA" d="m199.9 177.6-9-21.3s1.3-14.4 1.7-19.9c.3-5.5-.9-9.4-4.4-17.5-3.5-8 2.1-17.8 1.3-19.4-.9-1.6-7.5-1-10.7 5.7-3.2 6.7-2.5 12.8-2.5 12.8S161 93.4 157.2 92.4c-3.8-1-5.5 0-6.8 1.6-1.2 1.6-5.6 6-5.7 7.7 0 1.6.6 7.8.6 7.8s-3.7-.3-5.2 1.6a9.8 9.8 0 0 0-2.3 7.5s-4.6 1.2-5.8 5c-1.2 3.7.3 5.5.3 5.5s-4.1 2-4.1 5.7 4 10 10.6 10.7c0 0 6 17 23.3 26.5l13.5 34.6 24.4-29Z"/><path fill="#CEB79B" d="M160.2 110.2c-6-.4-15-.7-15-.7l-.5-6.3c11.5-.8 8.3-11.1 8.3-11.1h.4a8.7 8.7 0 0 1 3.8.3c1 .2 2.8 2.1 4.8 4.7-8.6-.5-1.8 13.1-1.8 13.1Zm39.7 67.4-29.4 16.3-8.5-22a54.3 54.3 0 0 1-23.4-26.4c-6.5-.7-10.5-7-10.5-10.8 0 0 9.2 5.7 14.5 2.2 5.2-3.5 37.3-17.3 49.1 10.1l-.8 9.3 9 21.2Z" opacity=".4"/><path fill="#CEB79B" d="m199.9 177.6-24.4 29L162 172a51 51 0 0 1-14.8-12.3c39 3.3 43-35.8 43-36 2 5.1 2.6 8.4 2.4 12.7l-1.7 19.9 9 21.2Z" opacity=".4"/><path fill="#CEB79B" d="M193.2 161.8s-14 8.4-30.2 12.6l1 3 32.2-8.5-3-7.1ZM176.3 118s4.2 3.3 4.4 5.7c.3 2.3 2.2-4.8-4.4-7v1.3Zm12.3-17.9s-5.7 3.2-3 7.4c0 0 .3-4.5 3-7.4Zm-51 18.5s7-.6 8 1c.8 1.4 4.8 0 3.5-1-1.2-.9-11.5-.9-11.5-.9v.9Zm-5.4 10.5s4.3-1.5 5.2 0c.9 1.4 4.6-2.3 1.8-1.8-2.8.5-7.6.4-7.6.4.1.9.6 1.4.6 1.4Zm6.5 16.4s-2.9-6.7-5.4-6.4c-1.4.2 4 6.2 4 6.2l1.3.2Zm11.9-36s4.7 1.8 7.8 1.9c2.5 0 2.7-1.6 0-1.6l-7.8-.3Z"/><path fill="#CEB79B" d="M150.6 109.5c.5-1 1.7-3.6 0-6 0 0 0-1.8 1.2.3 1.1 2 1.8 5.6 3.7 6.6l-5-1ZM143 154s13.2-.3 18.4-4.8c0 0-7 8.8-15.3 9.1l-3-4.3Z"/><path fill="#EDDAC5" d="M128.6 132.6s3.7 5 10.9 2.6c7.1-2.2-6.4-6.4-6.4-6.4s-3.4.4-4.5 3.8Zm3.4-9.4s4.4.7 8-.9c3.4-1.5 2.8-3.8-.5-3.8-3.4 0-6.2 1.2-7.5 4.7Zm6.3-9.4s5.7 2.5 9.8 0c4.2-2.4-2.9-4.3-2.9-4.3s-5.3-1.2-6.9 4.3Zm7-13.7s3.4 2.1 6.2-2.5c2.8-4.6.4-5 .4-5l-6.6 7.5Zm4.4 26.2c-3.1-.4-3-3.5-.3-3.7 2.6-.1 4.2 4.1.3 3.7Zm4.7-8.4c-2.9-1.6 1.7-4 3.4-3.7 1.7.4 1.6 6.5-3.4 3.7Z"/><path fill="#CEB79B" d="M187.7 107.5a27.8 27.8 0 0 0-.7 4.2c-8.8-2.8-10.7 6.3-10.7 6.3s-.7-6.1 2.5-12.8c2-4.4 5.5-6.1 8-6.4-4.7 6 .9 8.7.9 8.7Z" opacity=".4"/><path fill="#CEB79B" d="m179 120.4-2.6-2.4v-.2c-.2-1-.5-6.6 2.4-12.6a11.4 11.4 0 0 1 5.4-5.7c-6.2 4.8-5.3 21-5.3 21Z" opacity=".4"/><path fill="#9EA58E" d="M157.2 178s33.5-11.6 41.2-8.6c0 0 54.8 54 64.5 64.7 9.8 10.6-3.1 56.8-19 77 0 0-43.4-18.9-65-72.1-21.4-53.3-21.7-61-21.7-61Z"/><path fill="#B1B7A5" d="M171.9 221c-14.5-37-14.7-43-14.7-43s16.3-5.6 28.8-8c0 0 14 36.3-14.1 51Z"/><path fill="#949984" d="M243.8 311.2S200.4 292 179 239c35.7-18.3 27.8-60.8 28.7-60.4 0 0 45.5 44.8 55.2 55.5 9.8 10.6-3.1 56.8-19 77Z"/><path fill="#474C2F" d="M243.8 311.2s-9.8-4.3-22.3-14.5c1.9-3 4.2-6 7.1-9.2 37.7-43 3-85.2 2.6-85.6a1520 1520 0 0 1 31.8 32.2c9.7 10.6-3.2 56.8-19.2 77Zm-46.3-132.8c0-1.2 1.5-2 2.8-1.9.7.3 1 5-.6 4.7-1.5-.2-2.2-1.7-2.1-2.8Z" opacity=".1"/><path fill="#474C2F" d="M258 242.5c-9.4 3.6-7.3-10.8-.4-3.4.6.5 1.5 2.9.5 3.4Zm-43.4-53.3c1.1 1 3.4 4.4 3 4.8-4 3.5-8.3-4.9-3-4.8Zm13.3 15s2.3 4.2 2.3 4.9c0 .7-1 .9-1.5 1-2.1.6-6.8-4-3.5-5.7.6-.4 2.1-.5 2.7-.2Z" opacity=".1"/><path fill="#676D54" d="M202.7 180.8c-3.8 2-5.2-2.1-4-3.7 1.9-2.2 7.2 2 4 3.7Z"/><path fill="#474C2F" d="m239 220.5.3.2c.9 0 3.5 5 1.9 5.3-2 .4-4.2-1.4-4.8-2.7-.6-1.3 1.2-2.6 2.5-2.8Z" opacity=".1" style="mix-blend-mode:multiply"/><path fill="#474C2F" d="M202.7 180.8a3.6 3.6 0 0 1-2.3.4c.4 0 .8-.2 1.3-.4 2.3-1.2 0-3.8-2-4.2 2.2-.6 5.8 2.8 3 4.2Z"/><path fill="#676D54" d="M242.2 225.4c-1.2 1.4-4.2-.7-4.8-1.9a1.9 1.9 0 0 1 0-1.7c1-3.3 7.5.2 4.8 3.6Z"/><path fill="#474C2F" d="M239.1 220.5c2.1-.1 5.1 2.4 3.1 4.9-.5.6-1.3.6-2 .3.3 0 .6-.2.8-.5 1.7-2 0-4-1.9-4.7Z"/><path fill="#676D54" d="M226.6 204c2.9-.3 4.7 2.7 4 4.6-.2 1-1.1 1.3-2 1.1-2-.5-3.8-3-3.3-4.5.1-.5.7-1 1.3-1.1Z"/><path fill="#474C2F" d="M230.7 208.7c-.3.8-1.2 1.2-2 1h-.3c.5-.2 1-.5 1.1-1.1.5-1.7-.7-4-2.9-4.5 2.9-.3 4.7 2.6 4 4.6Z"/><path fill="#676D54" d="M215.3 189.2c3.1.2 5 4.8 1 5.2-3-.1-5.4-5-1-5.2Z"/><path fill="#474C2F" d="M215.3 189.2c3.2.2 4.9 5 .8 5.2 3.1-1.4.7-5-1.9-5 .3-.2.7-.3 1.1-.2Z"/><path fill="#676D54" d="M254.8 237c3 .4 4.5 2.5 4.5 4 0 2.2-5 3.3-6.4-1.6-.4-1.4 0-2.7 1.9-2.4Z"/><path fill="#474C2F" d="M254.8 237c4.2.5 6.6 5.5 2 5.9 3.4-1.5.3-5.5-3.4-5.8.4-.1.8-.2 1.4-.1Z"/><path fill="#474C2F" d="M265.2 258.9c-14.7-6.1-13.7-22.7-15.3-25.2-1.7-2.5-8.8-2.3-12.3-5.3s2.7-13.5-5-15.3c-7.6-1.9-9-3.8-10.7-6.9-1.7-3.1 2-7-4.3-7.9-6.3-.8-7-3.8-7.9-7.6-.9-3.7-2.8-5.4-10.5-6.6-7.7-1.2-6.1-15.1-6.1-15.1 2.2-.2 4 0 5.3.4 0 0 54.8 54 64.5 64.7 3.8 4 4.2 13.5 2.3 24.8Z" opacity=".1"/><path fill="#474C2F" d="m176.8 305.5 6 8.8s23-33.7 12.5-38.2-18.5 29.4-18.5 29.4Z"/><path fill="#676D54" d="m182 313 .8 1.3s25-36 11-38.7c-.4-.2-.2.6-.7.5 12.4 3-7.6 31.6-11.1 36.9Z"/><path fill="#E8D4BA" d="M255.2 302.1a10 10 0 0 1-2.4 3c-2.8.3-9.5-17-10.6-20.3-2.9 7.1-11.1 27.2-17.2 30.8-5.3 1.7-7.8-1.8-10.6-1.5-8.6 1.1-19 1.5-27.6-1.6a22 22 0 0 1-8.3-5.1c-2-2-3.8-1-7.4-1a70.9 70.9 0 0 1-26.5-7.3l22.3-31.2c2.4 1.1 21.8 10.2 28.3 12 6 2.5 45.7-7.6 49.3-7.5 1.3 0 2.7 1.1 2.7 1.3 2.6 4 10.6 17 11.4 20.6.3 1.3-3.5 7.8-3.5 7.8Z"/><path fill="#CEB79B" d="M255.2 302.1 254 304c-.4.5-.8 1-1.2 1.2-2.4-4.5-12.3-25.2-12.3-25.2s3.8-2.8 6.1 1.8c2.1 4.3 7.7 18.2 8.6 20.4Z"/><path fill="#E8D4BA" d="M254.1 306a23.9 23.9 0 0 1-8.1 7.4c-4.3-.5-15.3-29.8-8-34 .4-.2 7.3-2.2 8.6 2.3 1.9 3.9 5.3 14 6.8 20 .3 1.2 1 3.5.7 4.2Z"/><path fill="#CEB79B" d="M250.1 310.5c-.9.9-1.9 1.6-2.8 2.2-3.1-5.9-11-22-11-22s4.4-.3 6.7 4.3c2 4 5.9 12.5 7.1 15.5Z"/><path fill="#E8D4BA" d="M242.3 319.3c-3.6 2-4.3.5-6.5-4.2a48.2 48.2 0 0 1-3.7-13c-.6-4.3-.2-10.5 3.9-11.6 1 0 4.1-.2 5.1 1.3 2.4 5.2 5.6 14.6 7.2 20.2.5 1.5-2.8 5-6 7.3Z"/><path fill="#CEB79B" d="M242.3 319.3a8 8 0 0 1-1.1.6c-.7.2-1.4.4-2.1.2a1 1 0 0 1-.3-.1c-1-2.6-6.2-12.6-6.8-18-.2-1.7.2-.5 3 .7 5 2.3 7.3 16.6 7.3 16.6Z"/><path fill="#D8C1A6" d="M228.4 326.5s-8.9-7.4-7.6-9.5c1.2-2 7.8-2.3 11.9 2.2 3.8 4.2-4.3 7.3-4.3 7.3Z"/><path fill="#E8D4BA" d="M241.1 322c-1.1.8-7.8 6.6-9.3 6.7-1.4.1-3-1.6-3.4-2.2l3.2-5.6c-.1-.4-3.2-3.9-4.7-4.5-1-.7-2.6-.6-3.3-2-.5-1 .4-14 .4-14 0-6.2 3.5-4 7.9-.6l3.7 2.9c2.5 2 5.7 13.9 5.5 19.3Z"/><path fill="#CEB79B" d="M248.3 312c.6 1.5-3.9 6.4-7.2 7.9v2.1c-1.1.8-7.8 6.6-9.3 6.7-1.4.1-3-1.6-3.4-2.2l3.2-5.6c-.6-1.2-4.4-5-6.6-5.3 5.3-2.6 11.3-9.4 10.6-13 4.3-3.1 6-9.3 5.5-10.9 4.5-2.2 5.9-8.4 5.5-10 2.5-3.6.8-7.7.7-8a321.8 321.8 0 0 1 7.1 12c1.4 2.6 4 6.8 4.2 8.8a38 38 0 0 1-4.7 9.4c.3 1 .3 1.8.2 2a29.7 29.7 0 0 1-5.8 6Z" opacity=".4"/><path fill="#CEB79B" d="M241.1 322c-1.3.8-7.9 6.8-9.6 6.7-1.3-.2-2.3-1.3-3.1-2.2l3.2-5.6a13 13 0 0 0-6.6-5.2c-2.6.8-4.6.6-9.4-1.5 0 0-5 .5-7.6.5 0 0-12.7 1-21.2-2.1a22 22 0 0 1-8.3-5.2c-2-2-18.3-29.6-13-37 2.5.9 23 8.7 32 10-10.7 14.3-3.2 20.7 12.2 26.2 5.9 1.7 15.5 6.4 20.1 3.7 1-.8 2.3-1.5 3.4-1.4 2.8.5 1.8 5.7 4.5 7 1.3.6 2 .4 2.7-.1.2 1.7 1.3 5 .7 6.2Z" opacity=".4"/><path fill="#CEB79B" d="M200.4 314.9a44 44 0 0 1-13.6-2.3 22 22 0 0 1-8.3-5.2c-2-2-17.4-29.6-12-37 .8.5 15.6 5.8 22.6 7.5l6.1 2s-10.5 14.3-5.6 24.9c1.5 3 5 9.4 10.7 10.1Z" opacity=".4"/><path fill="#CEB79B" d="M182.2 310.3c-4-3.5-20.6-35-15.3-42.4 0 .1 17.7 8 27 11.6 0 0-13.2 17.2-6.1 33.4l-5.6-2.6Zm50.7 8.6c-.4 3-5.1-2-6-2.4a8.2 8.2 0 0 0-2.5-.7s3-3 4-1.7c.9 1.4-1.9.8-.7 1.6 1.1.9 5.3 1.7 5.2 3.2Z"/><path fill="#CEB79B" d="M230 318.9s2.3-.2 3.2 2.2c1 2.4-1 2-2 .8-1-1.5-1.2-3-1.2-3Z"/><path fill="#949984" d="M252.7 288a18.1 18.1 0 0 1-2.5 3l-1.8-5.5.4-.7a11 11 0 0 0 1.2-3c.7-2.7-.3-4.2-.3-4.2.6-.8 2.2 1.2 3.8 4.3l.4.7c.9 1.7 0 3.8-1.2 5.5Z"/><path fill="#9EA58E" d="M250 281.9c.7-2.8-.3-4.2-.3-4.2.5-.8 2.2 1.2 3.8 4.2.4 3.6-3.5 0-3.5 0Z"/><path fill="#676D54" d="M252.7 288a18.1 18.1 0 0 1-2.5 3l-1.8-5.5.4-.7s.6 4.5 4 3.3Z"/><path fill="#CEB79B" d="M235.2 288.9s8-.7 7 .5c-.8 1.2-1.8 1.7-2.4 1.4-.8-.2-4.6-2-4.6-2Zm4-8.9s8.2-2.2 7.3-1c-.8 1.3-1.8 2.1-2.4 1.9l-5-.9Zm-9.8 20.3s6.2-1 6.1.4c0 1-1 1.8-1.6 1.5-.7-.2-4.5-2-4.5-2Zm11.7 19.6-2.5-13s8.8 8.3 9.1 3c.4 1.2.7 2 .8 2.8a17 17 0 0 1-7.4 7.2Zm13-14c-.4.9-3.2 4.1-5.1 5.6l-3.4-11s8 5.1 7.8 1.1c.3 1.3 1 3.6.7 4.3Z" opacity=".4"/><path fill="#CEB79B" d="m254 304-2.6-11.2s7.6 3.6 5.8-2c1 2 1.4 3.3 1.4 3.7 0 2-4.3 9-4.7 9.4Z" opacity=".4"/><path fill="#CEB79B" d="M202.6 315c-2 0-3.8-.1-5.7-.3 1.8-6.2 4.6-12.8 10.2-16.5-2.7 5-5 10.9-4.5 16.7Z"/><path fill="#EDDAC5" d="M226.5 287.9c-20.3 2.3-18.1-8.6-18.1-8.6 9.3-1.5 21.2-4 28.8-5.6 1.1 6.2-.2 13-10.7 14.2Z"/><path fill="#676D54" d="m193 275.4.9.2s-12.5 10.8-10 37.8l-1.2.5-6.6-9s7.2-29.7 16.8-29.5Z"/><path fill="#9EA58E" d="M45.7 309.4A2.5 2.5 0 0 1 44 306c4.9-12 25.5-59.8 45-61.3 22.1-1.6 58.3 15 69.3 19.7 14.2 6 34.6 11 34.6 11s-12.6 8.8-10.2 38.4c0 0-12.7-.7-63.2 4.9-31.7 3.5-62.5-6.7-73.8-9.3Z"/><path fill="#B1B7A5" d="M193 275.4s-6.1 4.2-9 16.7c-41.1-1.7-33-30.9-33-30.9l7.2 3.2c14.3 6.1 34.7 11 34.7 11Z"/><path fill="#949984" d="M171.6 314c-9.2.5-25.4 1.7-52.1 4.7-31.8 3.5-62.6-6.7-73.8-9.3a2.5 2.5 0 0 1-1.8-3.4c5-12 25.6-59.8 45-61.3a75 75 0 0 1 22.1 2.5s2 52.7 60.6 66.9Z"/><path fill="#474C2F" d="M100.5 319.3c-24.4-.9-45.8-7.8-54.8-10A2.5 2.5 0 0 1 44 306a278.3 278.3 0 0 1 14.7-30.6s6.1 34.7 41.8 44Z" opacity=".1"/><path fill="#474C2F" d="M182.7 313.8s-12.7-.7-63.2 4.9c-31.7 3.5-62.5-6.7-73.8-9.3A2.5 2.5 0 0 1 44 306l1-2.3c.1 0 19.1 4 30.8 8 11.8 4.1 35 5.8 55.8 2.4 19.6-3.1 50.8-4.5 50.8-4.5l.3 4.2Zm-12-36c-.5-1 .3-2.6 1.6-3 .7-.1 3.1 3.9 1.7 4.4-1.4.5-2.7-.5-3.2-1.4ZM98 251.1c-6.6 7.7-11.7-5.9-2-2.8.6.2 2.6 1.8 2 2.8Zm15.5 1c1.5.4 5.1 2.3 5 2.9-1.8 4.8-9.6-.4-5-2.9Zm18.9 6.7s4 2.6 4.4 3.2c.3.6-.5 1.3-.9 1.6-1.5 1.5-7.8-.2-5.7-3.3.4-.6 1.6-1.5 2.2-1.5Z" opacity=".1"/><path fill="#676D54" d="M176.4 277.3c-2.3 3.5-5.6.7-5.2-1.3.5-2.8 7.2-1.7 5.2 1.3Z"/><path fill="#474C2F" d="M150 267.7h.4c.7-.5 5.4 2.6 4.2 3.8-1.6 1.3-4.4.8-5.5-.1-1.2-.9-.2-2.8.9-3.7Z" opacity=".1" style="mix-blend-mode:multiply"/><path fill="#474C2F" d="M176.4 277.3a3.7 3.7 0 0 1-1.8 1.6l1-1c1.4-2.3-1.8-3.4-3.8-2.8 1.6-1.5 6.4-.4 4.6 2.2Z"/><path fill="#676D54" d="M155.2 270.4c-.3 1.9-4 1.4-5.1.7a1.9 1.9 0 0 1-.8-1.5c-.7-3.3 6.6-3.5 5.9.8Z"/><path fill="#474C2F" d="M150.1 267.7c1.8-1.2 5.6-.4 5 2.7 0 .8-.7 1.1-1.6 1.3.3-.2.5-.5.6-.8.4-2.6-2-3.6-4-3.2Z"/><path fill="#676D54" d="M131.2 259.3c2.3-1.6 5.4 0 5.8 2 .2 1-.5 1.7-1.3 2-2 .5-4.8-.7-5.1-2.3-.2-.6 0-1.3.6-1.7Z"/><path fill="#474C2F" d="M137 261.4c.2.9-.5 1.7-1.3 1.9h-.2c.4-.3.6-.8.4-1.4-.3-1.7-2.6-3.2-4.7-2.6 2.4-1.6 5.4 0 5.8 2Z"/><path fill="#676D54" d="M114.1 251.8c2.9-1.3 6.6 1.8 3.3 4.1-2.7 1.4-7-1.8-3.3-4Z"/><path fill="#474C2F" d="M114.1 251.8c3-1.4 6.7 2 3.2 4.2 2-2.8-1.8-4.7-4.1-3.6a2 2 0 0 1 1-.6Z"/><path fill="#676D54" d="M92.4 247.9c2.8-1.1 5.2 0 5.9 1.4 1 1.9-2.8 5.2-6.4 1.6-1-1-1.3-2.3.5-3Z"/><path fill="#474C2F" d="M92.4 247.9c4-1.6 8.4 1.6 4.6 4.2 2.3-3-2.4-5-5.7-3.5l1-.7Z"/></svg>