<svg xmlns="http://www.w3.org/2000/svg" width="376" height="128" fill="none"><g clip-path="url(#a)"><path fill="#2B6B40" d="M199 98.7c-1.4-2.3-1.4-5.8-1-8.5.3-3 2.8-13.3 6.4-7.3 1 3.8-.5 15.9-5.4 15.8Z"/><path fill="#C77500" d="M343 107.2c-1.3-3.9-4.8-5.4-8-2.7-1.4-.4-2.9.1-4.4.3-5.2.7-8.5-4.4-13.2-5.8-3.4-1-7-1.8-10.4-2.9l-17.2-1.8a164 164 0 0 1-34.5-12.6c-4.9-.8-9.8-1.9-14.4-3.8-1.7-.7-3.6 1.7-5.3 1.2-1.3-.5-2.7-.8-4-1-9.6-2.5-18.4 4.6-27.9 5.3-3.9-1.6-30.2-9.9-32.2-9.8-4 .8-4.5 6-5 9.5 0 2.2 0 5.3 2.1 6.6 1.2.5 19.1 5.3 27.2 6.4 3.7 1 7.4 2.5 11.2 3.2 3 .1 5.9-1 8.8-1.5 7.6.3 8.3-3.1 14.1-3.7 5 1.5 7.8 4 12.6 6.2 16.5 7.5 14.3 5.3 14.3 5.3 22.2 6 53.7 13 70.8 19 3.1.4 7.1.4 9.6 2.6 1 1.1 2.2.9 3.5.3 6.2-4 4-14.4 2.3-20.3Z"/><path fill="#A05A07" d="M326.4 104.1c-2.6-1.1-4.8-3.2-7.3-4.5 0 .1 3.1 10 7.3 4.5Z" opacity=".3"/><path fill="#A05A07" d="M229.6 79.2c1.9 4.5 3.8 3.3 6-.2-1.3-.4-6-1.3-7-1.4.5.4.8 1 1 1.6ZM323.3 117.8c-1-1-2-2.4-3.5-2.2-7.8 3.5-15.4-2.5-23.2-4a32.5 32.5 0 0 0-14-2.5c-14.5-2.4-30.1-5.4-42.2-14.5-2.9-4.4-5-10-11.2-6.9-3.2 1.8-5.3 5.2-8.7 6.7-5.8 2.2-15.5 3.7-21 .3-3.3-2.4-3.2-5.3-2.6 1.8 9.6 2.7 9 3.7 18.9 1.3 7.6.3 8.3-3.1 14.1-3.8 5 1.6 7.8 4.1 12.6 6.3 16.6 7.5 14.4 5.3 14.4 5.3 28.8 6.8 60 16.1 83.8 21.8 3.6-2 4.2-6.3 4-10.2-1.2.5-15 4.5-21.4.6Z" opacity=".4"/><path fill="#A05A07" d="M275.4 108.4c-2.6-.9-5.4-.3-8-.1l17 4.3a38 38 0 0 0-9-4.2Z"/><g fill="#A05A07" opacity=".4"><path d="M321.5 120c-1.7-1.3-3.6-.2-5.3.6 2.5.7 4.9 1.6 7.2 2.7-.4-1.3-.8-2.6-2-3.4ZM235.5 92.4c-3-4.5-7.5-1.1-9.4 2.6 4.2-2.5 8.6 1.3 12 3-.9-1.9-1.4-4-2.6-5.6Z"/></g><path fill="#D58500" d="M206.6 82.9c-4.6 8.9 10.2 8.9 14.6 5.6 3.3-2 6.7-7.3 3.4-10.7-6.2.8-11.8 4.2-18 5ZM289.5 94.2c-9 10.7 5.6 10.8 12.5 11.3 7.1 1.9 17.5 6 15-6.7-6.6-2.4-20.4-4-27.6-4.6ZM328 104.7c-1.2 3-.4 9.3 3.9 7.5 2-2 1.1-5.3 2-7.8-2 0-4 .8-6 .3ZM240 79c-3.9 5.4 4.3 6.6 7.8 7 4 1.7 8.2 1.5 10.7-2.8-2.3-1.4-5-2-7.6-2.2-3.2-.6-6.4-1.8-9.5-3l-1.4 1ZM198.4 93.3c-.2-3.7.2-7.6 1.4-11.1-5.4-1-26.3-8.7-28.3-8.6-4.5.8-5.7 9.6-4.5 13.4.6 7.6 24.6 8 31.9 10.1-.3-1.2-.5-3.8-.5-3.8Z"/><path fill="#C77500" d="M199.8 82.2c-5.4-1-26.2-8.5-28-8.6.6 2.7-1.7 10.5-5.3 9.4 0 2.2 0 5.4 2.1 6.7 1.2.5 27.7 6.6 30.3 7.4-.6-2.9.2-13 .9-15Z"/><path fill="#A05A07" d="M199.8 82.2c-5.4-1-25.5-8-27-8.5.3 5.2-.7 11.2-5.7 13.6 1.1 7.7 29.2 9 31.8 9.8-.6-2.9.2-13 .9-15Z"/><path fill="#A05A07" d="M204 83.3h-.2c-1.2-.5-2.5-.9-3.9-1.1-1.6 4.7-1.8 10-.9 15 2.5.4 4.8 1.5 7.2 2-3.6-3-3.3-12.2-2.2-15.9ZM263.5 107.2c-.6-4.7-1-14.5-7.4-13.8-1 .2-2.4 1-2.4 2.2.4 3.4 1.5 6.8 2.2 10.2 1.5.4 4.4.7 7.6 1.5v-.1Z"/><path fill="#A05A07" d="m272.2 89-8.5-3.3c0 .2-.2 3-.5 4.3-.5 2-2 3.9-3 5.7 0 .5 2.2 3.2 5 .6l1.3 5.2c.1.4-.2 1 0 1.3.7 1.5 3.8 0 4.6-1.4 0 0-.3 1 0 1.3.2.3-.4.7 0 .8 2.1.3 5-1 5.7-4.6a7 7 0 0 0 4.4-1.2c2.4-1.8 2-2.5 6.5-3.9-5.2-1.2-10.4-3-15.5-4.9Z"/><path fill="#A05A07" d="M340 103.3a4 4 0 0 0-3.4.2c-1 3-1.8 6.3-1.9 9.5 0 1 .2 4.9.4 5.8.8 3 1.7 6 2.9 9 .9.4 1.8.1 2.7-.4 2.4-1.2 3.6-4 4-6.6.3-4.8-.1-15-4.8-17.5Z" opacity=".6"/><path fill="#A05A07" d="M339.7 127.1c-3.4-5-4-24.7 1.8-22.5a3.9 3.9 0 0 0-4.9-1 30.9 30.9 0 0 0 1.4 24.1c.6.4 1.4.3 2 0l-.3-.6Z"/><g fill="#A05A07" opacity=".1"><path d="M175.3 74.4c1.2 10.4 8 5.5 13.6 9.6 3.8 3.7 8.8 6 14.2 6.2 7.5.4 22.4-1 20-12.2-6.5 1.5-12.6 4.7-19.4 5.4-3.9-1.6-8.2-1.9-12.1-3.8-2.4-.9-4.8-1.7-7.3-2.4-3-1-5.8-2.5-9-2.8Z"/><path d="M240.3 97.7c1.4-4.4-1.5-9.6-5.6-11.2-6.7-2.4-12.5 3.2-17.3 7.4-5.2 3.3-11.8-.2-17 3.6 6.8 2.5 8.6 1.8 15.4.3 2.6-.2 5.3 0 7.7-1.4 6.8-4.7 10.2-.6 16.2 2.5l.6-1.2ZM227.5 82.2c2.2 1.5 4.8-.7 7.1 0 2.4.8 4.2 2.9 6.6 3.6 4.9 2 11 .5 14-4a64 64 0 0 1-14.3-4c-1.7-.6-3.6 1.8-5.3 1.2-1.3-.4-2.6-.7-4-.9-1.8-.7-3.9-.6-5.8-.4 0 1.6.4 3.5 1.7 4.5ZM331.2 104.7c.3 1.7 1.3 3.5 3 4 2.3 1 4.5-.8 5.7-2.7l1-2-1-.7c-.8-.4-1.8-.3-2.7 0-.8.2-1.4.7-2.1 1.2-1.3-.4-2.6 0-3.9.2ZM340.3 125.4c-4.5-2.3-4.8-9.7-10.5-10.2-6.3-.5-4-6.8-8.8-9.9-4.7-5-16.1.8-13.4-9-1-.3-2-.3-5.5-.7-.7 11.8-18.7 18.1-23.8 6-1.1-2.6-1.8-5.6-4-7.3-2.5-1.8-7.2-2.8-6.4-7-2.4-.8-4.7-1.8-7-2.9-4.3 2.6-10 2.5-13.7 6.1-2 2.8 0 6 3.2 6 2.5.4 4.8-.6 7.3-.6 3.4.2 5.1 3.7 8 5.2 4 1.3 7.6 4 8 8.7l11.4 3c4-4 7.3 4.1 13.9-.3 2-1.3 3.4-3.5 5.6-4.5 9.6-3.3 17.3 2.2 13 13a39 39 0 0 1 5 1.9c1.6-6.2 10.2-3.3 10.3 2.4 1.5.5 3.3.4 4.3 1.8 1.6 1.8 4 .3 5.3-1a6 6 0 0 1-2.2-.7Z"/></g><path fill="#9EA58E" d="M176.5 41.4c2.5-.7 5.7-1.3 9.4-1.2a62 62 0 0 1 43.6 19l-.1 2a64 64 0 0 0-6.4 11.4l-.8.2c-2.4-3.2-12.8-15.5-22.8-12.6-.3 0-.5.2-.8.3-6.4 2.3-9.5 13-9.5 21.5 0 .1-4 10.8-4 13.6 0 .2-.2.4-.6.5-1.6.4-6 .2-10.5-1.6-7.5-3-3.9-4.3-1.1-13.1 1.2-3.8 2-7.4 2.3-10.8.7-16.2-3.7-26.1-3.9-26.6 0-.5 2-1.7 5.2-2.6Z"/><path fill="#949984" d="M203.6 59.8h.7C194 58.7 190 71.7 189.7 82h-.6c.2-10.4 4.2-23.5 14.5-22.2Z"/><path fill="#9EA58E" d="M190.3 40.4h.6a60.7 60.7 0 0 1 39 18.9h-.4c-3.4-5.1-19.3-17-39.2-19Z"/><path fill="#CCD1C0" d="M186 40.2c-3.8 0-7 .5-9.5 1.2-3.2 1-5.1 2.1-5.2 2.5l1.2 3.1c15-6.7 42.8 2 55 16.8l1.9-2.7c0-.6.4-1.2.4-1.8a62.7 62.7 0 0 0-43.9-19.1Z"/><path fill="#949984" d="M229.7 59.2c0 .1 0 1-3 6-1.5 2.2-2.6 4.8-4 7.2 0 0-.3.3-.5.3 0 0 .5.1.8 0 .3 0 .5-.2.6-.4 1.1-2.5 2.5-5 3.9-7.3 1.2-2 2.4-2.9 2.4-5.8h-.2ZM189.8 75c-1.6 1-4 4.6-5.4 7 0 0-4.5-9.6-9.1-13.1 0 1.6-.3 3.2-.5 4.9 2.6 2.5 7.9 10.5 7.8 10.6-1.9 3.5-12.2 6-12.5 4.2-.4 1-.6 1.8-.5 2.5A17 17 0 0 0 182 88c.6-.3 7 1.8 8.3 2.3-.9-1.8-1.1-12.7-.6-15.1Z"/><g fill="#9EA58E" opacity=".1"><path d="M185.6 91.9c.4-1.7 3.5-2.3 4.8-1.7a56 56 0 0 1-.8-14c-1-.4-13.8-8-14.3-8.4.2 2.6-.8 7.9-1.5 10.6.7 1 11.3 13 11.8 13.5ZM174.6 56.6c.2 2 .5 4 .6 6.2 1 .8 14.3 9.7 15 10.1.6-2.3 1.4-4.5 2.4-6.4l-18-9.9ZM178.5 40.9c-.7.1-7.1 2.6-7.2 3 .2.3 1.5 3.5 2.6 9 2.5 1.6 19.5 11 20.1 11.3 1.3-1.8 3.6-4 7-4.3-3.5-2.7-21.5-18.2-22.5-19ZM221.5 63.3C218 57 215.7 53.5 213 47v-.2a66.6 66.6 0 0 0-16.2-5.6l.3.5c5.5 7 4.4 7.4 14.5 21 5.1 3.2 9.2 8.1 10.6 10l.8-.3a69 69 0 0 1 1.6-3.3l-3.1-6Z"/></g><path fill="#3E8E5B" d="M168.7 91.7C177 95.2 185 88.1 189 81c1.2-1.5 4-.7 4.3-3 0-1-1.4-2-2.4-1.7-2.7.7-6.6 7.1-9.3 9.2-4.5 4.2-7.3 4.7-12.7 4-.8.5-.9 1.5-.1 2.2Z"/><path fill="#3B754B" d="m190.8 76.3-2.5 1.7c.7 2-1.6 6.5-3.7 4.5-4.3 5.1-9.5 8.3-15.8 7-.3.2-.4.4-.5.6 2.7 0 5.6.3 8 2 6-1 9.3-6.4 12.6-11.1 1.1-1.5 4-.7 4.3-3 0-1-1.4-2-2.4-1.7Z"/><path fill="#2B6B40" d="m183.6 83.7-2 1.8.6 3.8c0-.1 2-1.6 2.7-2.7 0-.4-.9-2.3-1.3-3ZM184.3 83l-.6.6 1.4 2.9 1.7-2.4.3-.4c-1 .2-2 0-2.8-.8ZM191.7 77.7c-1.7.8-2.2 2.4-2.5 3 .7-.5 1.5-.7 2.3-1 .8.1 1.7-.8 1.7-1.6v-.3c-.5-.2-1-.2-1.5 0Z"/><path fill="#3E8E5B" d="M172.4 73.7c4.4 4.2 11 10.4 11.6 17-.5 2.2-.4 5 2.5 5C193 92.7 179.2 75 176 72c-1.3-2-5.4-1.1-3.5 1.5Z"/><path fill="#3B754B" d="M177.5 77.2c-.6-1-2.1-2-3.4-2 .8 1 1.6 1.6 2.4 2.5.7.8 1.9 1.8 2.5 2.7-.3-1-1-2.4-1.5-3.2Z"/><path fill="#3B754B" d="M188.1 92.4c-.7-4.6-8.2-18.3-13.4-21.2-1-.5-1.8-.2-1.8-.2 4.2 2 14.5 14.3 11 19 .2 1.3-.4 2.5-.1 3.8 1 3 5.5 2 4.3-1.5Z"/><path fill="#2B6B40" d="M188.1 92.4c-.4-2-.8-4-1.9-5.8l-1-1.7c.6 2.5 1 8.4-1.5 8.7l.1.2c.2 1.2 1.6 2 2.7 1.9 1.8-.1 2-2 1.6-3.3Z"/><path fill="#3E8E5B" d="M194.5 81.6c.1-1.2-.6-2.4-1.7-2.8-5.9-2-9.6 21.8-1.4 16.4 0 0 0-10 3.1-13.6Z"/><path fill="#3B754B" d="M192.8 78.9c-.5-.4-1-.4-1.4-.2 3.2 2.8-1.2 6.2-2 9.1-.3 2-2.8 8.4-2.6 5-.1 2.6 2.8 4.5 4.6 2.4-.5-4.7 0-10 3.1-13.6.1-1.1-.6-2.4-1.7-2.7Z"/><path fill="#2B6B40" d="M192.8 78.9c1 3.8-2.3 6.7-2.8 10.2 0 2.2.8 6-2.1 6.1.8 1.2 2.6 1.1 3.5 0-.5-4.7 0-10 3.1-13.7.1-1-.6-2.3-1.7-2.7Z"/><path fill="#3E8E5B" d="M192.6 82.6c-1.6 3.4-3.9 12.9.2 14.4 1.5.3 3.2-2.3 2-3.2.6-3.6 1.8-7 2.8-10.4.6-2.5-2-5.9-5-.8Z"/><path fill="#3B754B" d="M194.3 80.5c1.9 3-2.2 5.2-2 8.2-.2 1.6 1 5.5-1.6 5.2.2 5.2 5.8 2.8 4-.1 0-3.1 6.7-16-.4-13.3Z"/><path fill="#2B6B40" d="M195 80.1c2.4 2.5-1.6 5.3-2 8.1-.6 2.8 2 7.2-1.1 8.5 1.5 1.1 3.3-.7 3.3-2.3l2.3-11c.5-1.8-.7-4-2.5-3.3Z"/><path fill="#3E8E5B" d="M195.7 98c1.4.5 2.1-.6 2.1-1.8.2 0 2.8-11 3.2-13 .3-1 .2-2.1-1-2.7-1.5-.2-3.3 1.5-3.9 2.6 0 .1-6 13.4-.4 15Z"/><path fill="#3B754B" d="M200 80.5c-.6-.1-1.1 0-1.6.3 1.5 3.2-2.9 5.2-2.5 8.5-.3 2.1.9 6.3-2.3 6.4.2 2.4 4.3 3.7 4.2.5 1-2 .4-4.9 1.4-7 .3-2.6 3.8-7.2.8-8.7Z"/><path fill="#2B6B40" d="M200 80.5h-.2c1 3.6-2.9 6.2-3.3 9.6-1 2.4 2.3 7.5-1.5 7.7 1.4 1 3 0 2.8-1.6 1-2 .4-4.8 1.4-7 .3-2.6 3.8-7.1.8-8.7Z"/><path fill="#3E8E5B" d="m203.4 83.8.3-.8c.2-.4.2-1-.2-1.4-2.1-2-4 1.6-5.2 4.2-.7 1.9-1.1 4-1.4 6-.2 1.4.6 8.8 3.4 6.6.5-.4.8-1.3.8-2.2-.3-3.1 0-9.3 2.3-12.3Z"/><path fill="#3B754B" d="M203.5 81.6c-.9-.8-1.7-.7-2.5 0 3.8.4-1.2 10.8-4 9.4-.4 1.7.3 9.6 3.3 7.4.5-.4.8-1.3.8-2.2-.3-3.1 0-9.3 2.3-12.3.3-.7.7-1.7 0-2.3Z"/><path fill="#2B6B40" d="M203.5 81.6c-.5-.5-1-.6-1.5-.5 2.5 2.8-2 6.8-1.9 10.2-.1 1.9 0 5.4-2.6 5.2.6 3.3 3.6 2.6 3.6-.3-.3-3.1 0-9.3 2.3-12.4.3-.6.7-1.6 0-2.2Z"/><path fill="#151916" d="M227 93.6c-7.7.6-12.9-4.5-14.2-12.3-2.8.8-5.5 1.6-8.3 2-.4-1.6-2-3-3.4-1.8-.7-1.8-2.7-1-3.6 0-.5-1.4-2-2-3.1-1-.3-.7-.8-1.3-1.5-1.6 1.1-1.6-1.4-3.5-2.7-2.2 1-6.4 3.4-13 7.7-15.5a53.4 53.4 0 0 1-3.1-20.3 69 69 0 0 0-4.5-.5h.4c-5.6-.6-11.4-.3-16.5 1.8-.8.4-3.3 1.1-2.7 2a66.3 66.3 0 0 1 3.6 27.3c-1.6-1.4-4.3 0-2.8 2-5.6-.5-7.8 13.6-3.7 16.1-1.3 1 .3 2.8 1.6 2.7 3 2.5 7 3.4 10.8 3.9 1.7 0 4.2.6 4.8-.6.7.2 1.6 0 2-.5a2.3 2.3 0 0 0 3.3.4c.4 1.3 1.9 2 2.9 1.2.7 1.4 3.1 2.3 3.7.3.7 2.2 2.2 2.2 3.7.7 6 2.4 8.5 1.4 14.4.1 7 .2 7.6-2.4 13.3-3.7a4 4 0 0 0-2-.5Z" opacity=".3"/><path fill="#CE8000" d="M189.6 93c.7 1.3-83.3-4.8-81.7-7.3 7-9.9 21.3-34.7 23.9-55.7 1.1-6.9 4.3-13.8 10-17.5 13.1-8.4 36.7-3 37.2 15.6.8 19.4-3 48.2 10.6 64.8Z"/><path fill="#C77500" d="M189.6 93c-12.8-15.4-10-44.5-10.5-62.6 0 0-3.4-14-8.1-17.4-9.6-7-25.6-5.7-33.5 3.4-4.7 5.6-7.6 25.3-8.4 30-1.1 6.4-1 13.3-5 18.4l3.5-3s-1 6.5-7.3 14.5a30.6 30.6 0 0 1-12.5 9.4 72 72 0 0 0-4.2 7.7c14.9 1.5 79.2.9 86-.5Z" opacity=".3"/><path fill="#C07500" d="M189.6 93c-4 1.3-57 1.3-72.7 1 1-.7 4.9-3 9-9.3 3-4.6 3.2-8.3 3-8.2-1 .3-2 .8-2.8 1.6.3-3 10.6-24.5 11.9-29.5 6.4-4.4 34.6-10 37-11.5 3.3 23.5 5.1 43.5 14.6 55.8Z"/><path fill="#A05A07" d="M148.6 94.2h-27.8c1.5-2.4.8-3.9 3.5-5.7 8.7-5.8 7.1-13 7.1-14.3 0-4.3 3-5.8 5.3-15 3.1-11.2-3.1-10.2 8.8-13.7 4.1 15.8 4.6 32.4 3 48.7h.1ZM181.5 75.7c-1.4-5-2-11-2-14.4-5.2 6.7-11.5 17.4-7.6 26.2 1.2 2.8 3 5.7 6 6.3-1.5-3.5-2-12.8 3.6-18Z" opacity=".6"/><path fill="#B4B296" d="M135.2 79.7h1c.7 0-1 3-1 3s-1.6-2.8 0-3Z"/><path fill="#E8D4BA" d="M130.5 91.1c-.2.2-2.2 3.6-2.1 4 0 .4 65.3 21.6 50.2 1.8-8.2-10.7-11.9-14.5-9.6-37.2 0-1.4-28-14.5-31-11.3 0 0 .6 38-7.5 42.7Z"/><path fill="#CEB79B" d="M178.6 96.9c-8.2-10.7-11.9-14.5-9.7-37.2.2-1.4-27.8-14.5-30.9-11.3 0 0 .2 10.2-.8 20.7.4.7 2.5 5.5 3 7.1.2 1 2.2 6-.8 6.5-1.3.2-3.7-2.1-3.8-2.2-1.1 5.2-2.7 9.3-5 10.6-.4.2-2.3 3.6-2.2 4 0 .4 65.3 21.6 50.2 1.8Z" opacity=".4"/><path fill="#CEB79B" d="M178.6 96.9c-8.2-10.7-11.9-14.5-9.6-37.2 0-1.4-28-14.5-31-11.3 0 0 .1 7.4-.4 16 .1.3 3.8 9 4 9.8.8 2.1 1.7 4.3 1.8 6.6.3 6.7-7.4 1.5-8 .8-1.2 4.6-2.7 8.2-4.9 9.5-.3.2-2.2 3.6-2.1 4 0 .4 65.3 21.6 50.2 1.8Z" opacity=".4"/><path fill="#CEB79B" d="M178.6 95.2c-8.2-10.8-11.9-14.6-9.7-37.3.2-1.3-27.8-14.5-30.9-11.3 0 0 .1 7.6-.5 16.4 5.7 13.4 10 22.3 13.2 34.3 1 4 36.3 9 27.9-2.1Z" opacity=".4"/><path fill="#2B6B40" d="m213 437.7 2.6-.8c4.9-1.5 9.7-3.3 14.2-5.7 4-2.3 8-5 11-8.8 5-6.4 1.1-14 5.5-18.6 8.2-8.6 23-2.8 22.5-9.3l-21.6-108-15.6-131.3c-2.2-18.3-5-38-17.7-50.7l-145 6S49.8 361.7 42.4 402.2c-1.5 8.5-4.5 19.7-2.4 25 4 10 17 5.7 21.3 4.9-4 21.8 6.2 19.2 16 19 8-.3 16.2-.8 24.3-.8 6.9-.2 13.7.2 20.5 1.4 31.4 5.1 23.2-19.1 54.3-10.7 15.2 4 8.5-1.4 36.8-3.3Z"/><path fill="#255D36" d="m268.8 394.5-5.8-29c-39.4-61.8-57-161.6-31.9-213.9-2.1-17.2-5.4-35.2-17.2-47.2l-145 6S49.8 361.7 42.4 402.2c-1.5 8.5-4.5 19.6-2.4 25 2.3 6 7.9 6.8 12.9 6.4.2-.3 7.8-10.9 10.3-13.3 2.5-2.4 6-7.3 13.7-10.3 11.2-4.4 18 6.7 17.2 9.5-.9 3-6.7 10-13 13.7-3 1.7-16.9 6-20.7 6.9-.1 13 8.5 11.1 16.9 10.9 8-.3 16.2-.8 24.3-.8 6.9-.2 13.7.3 20.5 1.4l5.2.6c4.8-19.2 30.8-91.5 49.5-95.5 3.8-.8 13.9 1.3 19.7 11.4 4.4 7.7 20.3 63.7 21.1 68.2a71.2 71.2 0 0 0 18-8.8v-.7c-1.6-13 1.1-37.2 13-36.2 4.2.4 8.3 4.4 11.2 7.8 5.2-.5 9.4-.5 9-4h.1Z"/><path fill="#9EA58E" d="m78.2 89.2-12.5 1.2s-2.3 5.4-2.8 12l11.2 21 4-34.2ZM64.6 122.4l-12 5.8s10.8 12.2 16.5 7.8c5.7-4.4-4.5-13.6-4.5-13.6Z"/><path fill="#676D54" d="m65 122-12 5.8s10.8 12.2 16.5 7.8C75.2 131.2 65 122 65 122Z"/><path fill="#9EA58E" d="m68.2 101.4-11.5 1S58 128 71 126.3c13-1.7-2.7-24.9-2.7-24.9Z"/><path fill="#676D54" d="m68.9 101.2-11.5 1s1.2 25.6 14.2 23.9c13-1.7-2.7-24.9-2.7-24.9Z"/><path fill="#676D54" d="m79 89.2-12.5 1.2s-9.8 23.5 6.1 32.3c16 8.7 6.3-33.5 6.3-33.5Z"/><path fill="#9EA58E" d="M287.8 131.9c-1.2-5.2-11.3-2.1-16.7-2.2-5.3 0-5.6 6.2-5.6 6.2s1.5 8.2 2.4 10.8l20.2-2.6s1-7.1-.3-12.3Z"/><path fill="#676D54" d="M287.1 131.6c-2.7-4.9-10.5-1.3-15.6-1.4-5 0-5 5-5 5l-.5 11.6c5.4-1.2 21.4-3 21.4-3s1-4.8.6-9c0-1-.5-2.4-.9-3.2Z"/><path fill="#CCD1C0" d="M295.2 167.7c-1.8-8.1-12-15.5-17.5-21.4-3.2-3.3-11.2 6.3-14.3 2.9-4.2-4.7-11.2-10.4-15.3-15.2-6.8-9.7-7.8-18.4-18.4-26.4-4.4.8-41.6 8.8-45.5 9.6 4.4 6.8 13.4 14.6 16.3 19.3 3.9 6.5 8.8 12.2 13.2 18.3 3.5 5 6.8 10.2 11.3 14 3.2 2.6 6.8 4.4 10.2 6.7a52 52 0 0 1 10.4 9.8 44 44 0 0 0 21.8 12.7c12.8 3.3 29.4-18.1 27.8-30.3Z"/><path fill="#C2C2AC" d="M295.2 167.7c-2.5-9-12.5-16.2-18-22.2-3-3.3-10 6.2-13.4 4-4.4-4.7-11.4-10.6-15.7-15.5-5.6-8.4-9.8-20.5-18.4-26.4-4.4.7-41.6 8.8-45.5 9.6a537.9 537.9 0 0 1 29.5 37.6c5.4 9 12.4 16 21.4 20.7 13 10.7 28.3 31.8 46.4 18.2 7.6-5.9 14-16.2 13.7-26Zm-76-28.7c-1-4.5 2.6-8.7 1-13-1.7-3.6-6-10-.3-12.1 6.4 0 16.5 10 20.6 18.7 8.5 22.4-16.6 26.3-21.3 6.4Zm27 42.4c.3-6.4 4.3-22.3 9.8-9 2.9 5 9.3 7.4 10.2 13.9 1.8 13.2-20.4 2-20-4.9Z" opacity=".4"/><path fill="#C2C2AC" d="M241.7 123c0 2.6-.4 8.6 1.2 11.2 1.6 2.6 6.6 3.2 10.6 6.7 2.7 2.3.4 7.2 5 8.8 2.6 1 3.3-1.2 3.6-1.8-4.2-4.4-10.2-9.5-14-13.9-2-2.4-4.2-7-6.3-11.2v.2ZM240.3 120c-5.7-5.3-24-13.2-27.6-2.3-.7 4 2.3 7.6 3 11.6.6 9.5-7.5 9.7-1.3 26.4-7.7-9.8-14.5-20.4-22.8-29.8-2.6-2.9-5.3-5.5-7.5-8.8 15-2.8 30-6.7 45-9.4 2.4 0 10.7 9.7 11.2 12.3Z"/><path fill="#BBB99D" d="M236.6 114.4c-8.3-3.9-20-4.6-24.7.2-3.9 3.8 2.3 10.6 1.6 17.3-.5 4.4-4.5 6.8-2.7 19-4.5-5.6-8.3-11.5-12.5-17.4-4.6-5.5-10.1-10.3-14.1-16.4 3.9-.7 41.1-8.8 45.5-9.5 2.7 2.3 4.5 4 6.9 6.8Z" opacity=".7"/><path fill="#E8D4BA" d="M259 88.8c-.3 1.4-.6 6.4 1.8 8 2.4 1.4 3-3 3.8-4.9.4-1 3.4-4.8 3.5-6-1.3-.6-2.8-1.3-4.2-1-.3 0-4.4 1.9-4.8 4Z"/><path fill="#CEB79B" d="M265.2 84.9c1.5 3.7-3.5 6.4-6 3.7-.3.6-.3 1.3-.4 2.5 3.8-2.1 5.2 4.2 1.7 5.4 2.5 2.1 3.3-2.6 4-4.6 1-2.1 3.3-3.5 3.6-6-1-.4-2-.9-3-1h.1Z" opacity=".4"/><path fill="#CEB79B" d="M266.8 85.3c-.5 2-1.7 4.6-3.7 5.4.2 2.1-.3 4.9-2.3 6 2.4 1.6 3-3 3.8-4.8.9-2.1 3.2-3.5 3.5-6l-1.3-.6Z" opacity=".4"/><path fill="#CEB79B" d="M259.9 92.3c1.2 0 2.4 1.3 2.2 2.6l-.4 1.1c2.3-1.6-.4-5.1-1.8-3.7Z"/><path fill="#E8D4BA" d="M264 92.6c.2 2.3.4 5.6.6 6.5 0 0 1.4 4.2 2.1 4.2 1.1 0 2-1 2.5-2 1.7-3.1.8-7.2 2.3-10.5l2.4-5.4c-1-.4-1.9-.8-2.8-1a4 4 0 0 0-2.9.5c-2 1.3-4.3 7-4.2 7.7Z"/><path fill="#CEB79B" d="M274 85.6c-1.6-1-4.1-1.9-6-.6 4.3 1.5-.6 9-3.8 6.7-.3.9-.2 1.1-.1 1.8 4.6-1.7 5 5 .5 5.2 0 .5 0 .4.3 1 2.5-1.7 4.3 2.3 1.8 3.6 5-1.2 2.8-8.7 4.9-12.5.8-1.7 2.1-3.3 2.5-5.2Z" opacity=".4"/><path fill="#CEB79B" d="M274 85.6c-1-.7-2.3-1-3.5-1.2 1.3 3-.5 6.6-3.1 8.1 2 2 1.3 4 .3 6.2 1.1 1.2 1 3.2-.1 4.4 4-2.5 2-8.5 4-12.3.8-1.7 2.1-3.3 2.5-5.2Z" opacity=".4"/><path fill="#CEB79B" d="M271.9 90.1c-.8 1-2.6 1.4-3 2.5.9 3 .5 6.2 0 9.3 2.3-3.5.9-8.3 3-11.8ZM265.2 99.8c1.2-.3 2.2.1 2.3 1.4v1.3c1.7-2.3-1.4-4.5-2.3-2.7Z"/><path fill="#E8D4BA" d="M269.6 102.7c.1 1 4.5 2.3 5.7-4.1l.4-3.2c0-1.1 4.7-6.5 5.9-7.3-4.3-5.2-6.6-4-8.6-1.5-1.1 1.2-2.2 2.6-2.7 4.2-.4 1.1-.4 2-.6 6v2c.2 1.3-.3 2.5 0 4Z"/><path fill="#CEB79B" d="M276.7 84.5c.6 3.6-2.7 7.7-6.3 6-.2.4-.3.7-.3 1.2 5-1 5 6.6-.3 4.3 0 .9-.2 1.8 0 2.7 4-2 3.8 5.5-.2 3.8-.1 1.3 4.5 2.5 5.7-4l.4-3.1c0-3.7 3.4-5.4 5.9-7.3-2-2.5-3.6-3.5-5-3.6Z" opacity=".4"/><path fill="#CEB79B" d="M278 84.9c.2 2.7-1.6 5.3-3.8 6.6.9 2.1 1.1 5-.8 6.6 1.5 2.7-.4 5.6-3.4 5 1.1.8 4.3.8 5.3-4.5.4-2 0-4.4 1.3-6.3 1.3-1.7 3.2-3 5-4.2a11.9 11.9 0 0 0-3.7-3.2Z" opacity=".4"/><path fill="#CEB79B" d="M277.6 88.2c-1 1-1.6 2.4-2 3.8-.5 1.7-.6 3.3-.4 5l.2 1 .2-2.6c.1-1 .4-2.2 1-3a47.9 47.9 0 0 1 5-4.2c-.6-.8-1.1-1.4-1.6-1.8a8 8 0 0 0-2.4 1.8ZM270 98.7c2.2-.6 3.6 1.3 2.3 3.5 2.5-2.7-.5-5.7-2.3-3.5Z"/><path fill="#E8D4BA" d="M277.4 89.4c-2.1 2-2.4 7-2.1 8 .8 3.2 4.3 0 5.1-1 .7-1 1-2.3 2-3 1.1-.6 2.5-.1 4.2.1.4-2-.8-4-2.3-5.2-1.7-1.4-5.5-.2-6.9 1Z"/><path fill="#CEB79B" d="M284.3 88.3c-1.8-1.4-5.7-.2-7 1.2 4.5 1 1.9 8-1.5 9 1.4 1.2 4-1.2 4.6-2 1.6-3.4 2.5-3.9 6.2-3 .4-2-.8-4-2.3-5.2Z" opacity=".4"/><path fill="#CEB79B" d="M284.3 88.3c-.8-.6-2-.7-3.1-.5.5.9.9 10-5.3 10.8 1.4 1 3.9-1.3 4.5-2.2.7-1 1-2.3 2-3 1.1-.6 2.5-.1 4.2.1.4-2-.8-4-2.3-5.2Z" opacity=".4"/><path fill="#CEB79B" d="M280.7 96c1.1-3 3-3.3 6-2.5l-.1-1.8c-4.2-.9-5.4 2.5-5.9 4.2ZM278.4 95.2c0 .9-.1 1.8-.7 2.4a3 3 0 0 0 1.1-1.8c.6-3-2.7-3.4-3-1.3.3-.6 2.5-1 2.6.7Z"/><path fill="#E8D4BA" d="M266.6 125.3c1.7 3.4.7 21.5.7 21.5s21.1-.3 21.3-.7l-1.2-11.3c-2.2-17.3 1.6-9 .7-21.3l-28.8-7.4c1.1-4-4-17.8-7.5-11.4.7 2.2 1.6 4.2.9 6.6l.3 11.4c1.6 6 12.6 10.3 13.6 12.5Z"/><path fill="#CEB79B" d="M259.3 106.1c.8-2.7-1.7-12.2-5-13 1.5.4-.3 3.2-1.7 4 .5 1.3.3 2.7.1 4 6.3-2 5 10.4.3 10.4-.2 1.4.4 2.6 1.3 3.8 14.8-9.5 19.3 11 10.3 8.1 0 0 2 1.2 2.2 2.3.8 3.5.8 10.3.8 12.1l-.3 9 21.2-.7S286 128 287 122.9c0 0 1.9-2.9 1-9.4l-28.7-7.4Zm23.9 12.5c-1.6 3.1-5.8 5.6-8.2 2.7-3.6-5.6 11.5-12 8.2-2.7Z" opacity=".4"/><path fill="#CEB79B" d="M267 126.7c2.8.5 10.3 4.5 9 8.4-.5 1.9-3.7 5.4-8.4 2.7l-.3 9 21.3-.7-1.2-11.2c-.8-7.4-.8-10.3-.4-12 0 0-3 .5-7.9 5.6-.4.5-1.3.4-2 0-4.4-3.3-4.9-4.7-11.7-4.5 1.4.8 1.5 2.1 1.6 2.7ZM288 113.7v-.2l-28.3-7.2c-.2 1.4-1.1 2.2-2.3 2.7-.5.3-.2 1.1.4 1 .5-.1.9-.4 1.3-.6 0 1-1.6 1.6-1.2 2.6 1.7.4 3.3-3.6 7.1-2.8 3.7.7 7.4 3 8.3 7 1.6-5 13.5-5 15 2.7l-.2-5.2Z" opacity=".4"/><path fill="#CEB79B" d="M261.8 107.5c1.8.5 3.6.7 5.4 1.4 2.2.9 4.1 2.5 6.3 3.6 2 .2 4-.6 6.1-.3 3 .3 6.5.5 8.5 3v-1.6l-28.4-7.3-.2.7c.8 0 1.6.3 2.3.5Z"/><path fill="#CEB79B" d="M259.4 104c0-.8-.2-1.8-.4-2.7-1 1.2-3 .2-4.1 1-1.2 2.7 3 2.8 4.5 1.8Z" opacity=".4"/><path fill="#CEB79B" d="M253.3 95.1c.4.8.5 1.6.5 2.5 0 .3 0 .6-.2.7a1 1 0 0 1-.6.2v.8c.4.1.8-.1 1-.5.3-.3.3-.8.3-1.2a5 5 0 0 0-.3-1.3c-.2-.4-.4-.9-.7-1.2Z"/><path fill="#C6C7B3" d="M195.3 214c-1.9-3 .2-14.4 1-19.2 1.4-1.5 8.2-23.3 8.8-24.7 6.8-13.7 4.3-43.3 4.6-58.1-.8.1-50-12.6-76.5-27.3-.2 1.5-28 17-31 20.7 5.7 12.9-.7 45.7 4.8 56 6 6.6 3.7 10.6 4.2 18.8.2 1.6 11.6 25.7 5.9 37.3-2.2 7.8-9.2 19.2-11.2 26.7.3 3.9 1.5 18.3 1.2 21.8 6 1.3 25.8 6 46.8 5.2 20.4 0 52.6-7.1 53.4-7.7 1.2-.8.9-2.4.9-3.6.2-6.5.2-13 2-19.3-2-6-14.5-22.9-14.9-26.6Z"/><path fill="#C2C2AC" d="M121.3 107c3.6 3.3 8.3 6.2 13.3 6.1 10.1-.8 21.1-6.4 23.4-17.6-11.7 8.8-23.7 7.8-28-8-1.6 1-3.7 2-6.5 2.9-.5.2-1.1 16-2.2 16.6Z"/><path fill="#BBB99D" d="M128.6 88.4c-1.1.6-2.4 1.1-4 1.6 1.2 1.6 2.2 15.5 1.5 20.5 2.9 1.7 6.1 3 9.5 2.5.1-8.2-4.9-21.2-7-24.6Z"/><path fill="#C2C2AC" d="M209.8 108.6c-3.9 1.9-24.3 7.6-30.3 9.4 20.1 47.4-27.7 74.7-68.1 63 .4 1.4 6.7 17.9 7.3 25 25 3.3 50.4 4.3 75.4 2-.1-4.4 10.4-36.5 11-38 7.4-14.7 3.9-48.2 4.7-61.4Z"/><path fill="#BBB99D" d="M209.8 111.2c-.3.1-18.3 6.4-20 7.2 16.8 47-14.6 67.4-32.8 78.8 12.2 3.7 39.5 2.5 39.8 0A132 132 0 0 1 205 170c6.6-14.6 4.5-38 4.7-58.8Z" opacity=".7"/><path fill="#BBB99D" d="M109 164c2-4.4 10.9-5.9 7.9-5.6-4 .4-6-16.3-5.9-18.3l10.3-1.2c1-1 2-2.2 3-3.5 2.2 2 4.8 3.5 7.3 5 5.7 4.5 1.8 8.9 0 10.7-6.6 7.2-14.6 12.9-20.4 20.8.2 3-.6 6.1.2 9.1.4 1.5 2.3 9 3.1 11.3 2.5 7 6.3 15 3.5 22.4h77.4c-2.4-7 2.7-25.3 4-27.9-3.1-8-8.4-10-14-15.5-4-4.2-53.6-37.9-57.5-40.6 4-6 7.7-12.7 8.7-17.7-5.7 1.1-11.3-2.1-15.5-6-8 3.3-13.2 9.4-18.4 16 5.6 12.8-1.2 28.2 4.2 38.3l2 2.6Zm32.2-16.6 30.1 18.4c-1.4 3.2 3.5 7.2 8.5 5.9 6.2 3.1 6.6 11.2 6.3 10.7 11.7 5 7 9.6-4.1 9.9-11 0-53 14-64.4-10.3-4.6-8.3 23.7-34.7 23.6-34.6Z"/><path fill="#CCD1C0" d="M154.9 91.9c-3.6 5.8-16.3 8-20.4-1-1.8-3.9-2-11.6.8-11.1-2.8 4 7.2 10.2 19.6 12.1Z"/><path fill="#BBB99D" d="M209.8 108.7c-2.2 2.7-56.7 6.4-69.8 5.6a53 53 0 0 1-18.4-6.8c4.4 16.9 46.3 23 72.8 16.3 5-1.3 12.7-4.1 15.5 14.9.5-8 1-13.3 0-30Z" opacity=".7"/><path fill="#CCD1C0" d="M176.3 130.2c-5-2-26.4-1.6-28.5-4.2-4.2-5-6.2 1-1.4 3.3 4.7 1.7 17.5 11.2 20 13 2 1.5 4 3.4 6.6 3.7 7.2.3 9.6-12.8 3.2-15.8Z"/><path fill="#BBB99D" d="M167.7 118.6v.1c-.6.8-1.5 2.9-1.4 3.5-.5.2-1 .5-1.3 1-1.5 2-2 6.5-2.4 7.4-.3.6-.6 1.2-1.2 1.4 3.9-.1 9.5-3.2 9.7-7.4V124.3h.1c1-.3 2.2-3.3 2.2-3.3a8.1 8.1 0 0 0 3.2-2.4h-9 .1Z"/><path fill="#3D8455" d="M238 116c-.2-6-6.2-8.1-9.9-11.5-4.5-4.3-15.5-8.2-18-9.3-2.3-1-4.1-2.6-6.3-3.8-11.2-5.2-18.4 1.3-32.6-8.8-.1-.1-41.9 37-43.5 25.8.2 1 .7 6.6 1.3 7.3 47.5 17.4 60.7 7.5 77.9-.6 16.5-7.5 27.7-4.6 32 2.4l-.8-1.6Z"/><path fill="#3B754B" d="M136.8 112.7c1.2-4.2 5.2-6 6.8-7 1.6-1 20.8-11 23.2-12.8 3-2.2 5.8-5 7.7-8.3-1.7-.8-2.7-1.5-2.7-1.5-.2 0-42.5 36.5-44 25.3 0 0 1 7 1.2 7.3.3.4 5.3 2 7.2 2.6 0-.4.2-4.1.6-5.6Z" opacity=".4"/><path fill="#3E8E5B" d="M188 110.1c-5-3.3 4.4-8.4 1.6-12.6-4-6.3-15 15-6.8 19.6 4 2.2 13.4-4 5.2-7ZM151.6 113.3c-3.5 2.5-8.2-.5-8.1 2.2 0 3.2 5.2 2 7.6 2.2 6.6.9 4.8-7.4.5-4.4ZM128.8 115.3l.2.4c.3.4.8.6 1.3.7l.5.2-2-1.3Z"/><path fill="#3B754B" d="M193 99.2c-7.5 8.6 1 12 6.3 9.5 4.4-1.2 13.3-5.6 26.9-5.7-7.2-6.1-13.7-5.6-21.3-11-.3.8-9.5 4.8-11.9 7.2ZM169.5 96.3c-4.8 2.1-15.9 8.5-12.6 13.7 7.8 12.2 33.5-21 33.6-21l-5.1-.5a27 27 0 0 1-6.7-1.9c0 5-5 8-9.2 9.8Z"/><path fill="#3B754B" d="M234.3 109.1c-1.6-1.3-3.4-2.4-5-3.6-5-1.4-10.7-1-15.5.8-18.8 6.6-31.4 14-38.1 14.5a906 906 0 0 1-34.2-1c39.6 11.4 48.6 2.8 65.3-4.8 16.6-7.4 27.7-4.5 32 2.4 0 0-.3-4.8-4.5-8.3Z"/><path fill="#2B6B40" d="M205.5 92.5c-.3 14.5 9.3 11 18.7 9-5.6-4.8-13-4.6-18.7-9ZM135 117.9c.5-1.5.9-3 .3-4.4.2-1.5.6-3 .4-4.5-2.4.7-7 3.4-8-.6 1.3 8-.5 7.2 7.4 9.5Z"/><path fill="#2B6B40" d="M179 112c2.2-.3 3.7-4.2 2.9-6 1.7-1.5 2.6-4 2.3-6.1 2 1 2.8-1.9 2.6-3.6 1.8-1 3.8-3 4.6-6.7a8 8 0 0 0 1.4-.7s-12.3 1-21.6-6.3c0 0-.7 1.5-2.7 3.2-.5 1.4-.1 5.2 4.1 7.7-.9 1.2-1.6 4 .6 4v.1c-1.5 1.5-2 4-1.7 6-2.5 2.2-2.3 4-2.2 5.3-.8 2.2-1.2 4.4-.6 6.6-.7.8-1.6 2.9-1.4 3.5-2.1.8-2.5 3.6-3.1 5.7 2.1.3 4.1.5 6 .5a5.9 5.9 0 0 0 2-4.1c1-.4 2.1-3.3 2.1-3.3 2.4-1 4.3-3.1 4.8-5.9Z" opacity=".7"/><path fill="#CCD1C0" d="M98.9 208.6c-.9-8.7-2.3-14.5 2.5-22.5 1.8-4.5 1.1-9 1.8-13.7.8-4.8 2.1-9.6 3.6-14.3 2-6.3 1.7-12 3.1-18.4a30 30 0 0 0-1.5-19.4c-5.9-11.6-19.8-15.4-31.6-15.8-5.2-.8-7.8 4.5-8.4 9.3-6.2 32.2 3.3 65-2 97.1-1.2 5 7.7 15.3 12.5 16.7 4.4 1.6 20.6-9.5 20-19Z"/><path fill="#C2C2AC" d="M108.4 120.3c-5.9-11.6-19.8-15.4-31.6-15.8-5.2-.8-7.8 4.5-8.4 9.3-2 13-2.5 27-1.8 40 10.8 3.2 27 11.7 23 25.5-4.1 14.4-14.9 15.8-21.6 16.3-.2 5.1-.7 10.3-1.6 15.3-1.2 5 8.2 14.3 12.8 14.3 8.2 1 19.4-5.2 19.7-13.8 0-9.8-3.1-16 2.5-25.2 1.8-4.6 1.1-9.2 1.8-13.8.8-4.8 2.1-9.6 3.6-14.3 2-6.3 1.7-11.9 3.1-18.4a30 30 0 0 0-1.5-19.4Z" opacity=".4"/><path fill="#C2C2AC" d="M108.4 120.3C102 108 86.7 104 74 104.7c-9 2-8.2 36-7.7 44.6 15.1 1 30 12.8 31.6 28.8.7 6.6-5 10.1-4.4 16.8-.3 7-6.8-.2-12.7.1-9 .6-5.8 20.5-6 26.8 12.2 2.6 24.8 4.2 24-13.2-.4-5.7-2-11.7 0-17.2 4-7.3 3.7-11.1 4.3-19 .8-4.8 2.2-9.6 3.7-14.3 2-6.3 1.6-12 3-18.4a30 30 0 0 0-1.5-19.4Z"/><path fill="#BBB99D" d="M86 148.4c2.8-2.4 3.7-7 3.7-7l.8.5c1.4-.3 6.7-3.5 7.5-4.8l.2 1c.1.4 9.8.2 11.4-1 .6-.5 1-23.8-14.7-28.9-5.9-1.9-25.9 1.9-26.5 5.6-1.6 9.9-2.7 28.2-2 33.9 5.1-2.7 19.6.7 19.6.7Z"/><path fill="#D58500" d="M195 185c-7.7-13.5-45.6-32.8-62.5-47.2-2-1.7-12.4-9.1-15-9.9a50 50 0 0 1 6.2-11.1c1.2 0 10.7 6.3 11.6 7 5.7 5 56.2 37.3 64.9 52.2 1 1.9-5.2 9-5.2 9Z"/><path fill="#C77500" d="M127.2 133c1.3-4 3-7.7 5.4-11-3.6-2.1-8-6-9.4-4.9-.4 0-5.3 7.6-6.6 10.6 0 0 7.4 3.2 10.3 6l.3-.8Z"/><path fill="#9EA58E" d="m90.5 130-27-10.6c-4.5 2.6-1.8 23.2-.6 28.4 1.7-4 15.3-2.3 23.2-1h.2v-8.2h1.6v-1.8h1.7v2a38 38 0 0 0 .9-8.7Z"/><path fill="#9EA58E" d="M86.4 146.6c1-2 1.8-4 2.3-6.1.6-2.3 1.4-9.5 1.4-10.7l-27-10.6c-4.5 2.5-1.7 23.1-.6 28.4 1.8-4.2 16-2.3 23.8-.8l.1-.2Z"/><path fill="#949984" d="m90.1 129.8-27-10.7c-2 1.2-2.6 5.8-2.5 11 9.3-.6 18 6 18.9 15.6l6.8 1v-.2c1-1.9 1.9-4 2.4-6 .6-2.3 1.4-9.5 1.4-10.7Z" opacity=".4"/><path fill="#949984" d="M91.2 128.4 63 119.1c-1.9 1.1-2.4 5.5-2.4 10.5 10-.6 21.3 6.2 28 11.5l2.6-12.7Z"/><path fill="#9EA58E" d="M91.1 132.5h8l-17.8-31.2c-.7-.2-21.2 7.6-28.3 27.3 13.6-3.4 32 6.2 38.1 13v-9.1Z"/><path fill="#9EA58E" d="M91.2 141.7c.5-.4 7.5-7 8.5-8.1L81 100.9c-.8-.2-21.3 7.6-28.3 27.3 13.9-3.5 32.8 6.7 38.5 13.5Z"/><path fill="#B1B7A5" d="M67.6 119.2c-3.7-.8-12.5 8.2-12.7 8.5a35 35 0 0 1 14.3 1.4c1.2-3.8 2.2-9-1.6-9.9Z"/><path fill="#949984" d="M81 101a47 47 0 0 0-20 13.6c7.2.9 15.3 5.6 22 20.6a34 34 0 0 1 8.2 6.5c.5-.4 7.5-7 8.5-8.1L81 100.9Z" opacity=".4"/><path fill="#949984" d="M99.7 133.6 81 100.9a44 44 0 0 0-16.3 9.8 64.6 64.6 0 0 1 31 27c.3-.2 3-3 4-4.2Z"/><path fill="#9EA58E" d="M99.8 137.5c.2-.3.7-.5 1-.6l1.4-.5c1.5-.6 3-1.2 4.5-1.6l2-.6 1.9-.3a3 3 0 0 1 1.7.2 25 25 0 0 0 3.2-2.8c-1.8-11.7-20.7-42-20.7-42-14.9-.4-30.3 4.7-38 13.8 20 1.5 35 18.4 42 34.8.4 0 .7-.2 1-.3Z"/><path fill="#9EA58E" d="M112.2 133.4c1.1-.8 2.2-1.7 3.2-2.7-1.8-11.7-20.8-42-20.8-42-14.8-.5-30.3 4.6-37.8 13.7C77 104 92 121.3 99 138c4.7-.1 9.3-1.7 13.2-4.5Z"/><path fill="#B1B7A5" d="M73.6 99.7c-3.7-1.7-11 .6-13.7 3 5.6 1 10.8 3.1 15.5 6 2-3.4 1.6-7.5-1.8-9Z"/><path fill="#949984" d="M94.6 88.6A59.5 59.5 0 0 0 68.2 94c9.9 3.7 20.8 13.6 20.7 27A71.4 71.4 0 0 1 99 138c4.7-.1 14.6-3 16.4-7.2-1.8-11.7-20.8-42-20.8-42Z" opacity=".4"/><path fill="#949984" d="M94.6 88.6a60.2 60.2 0 0 0-24 4.3c10.4.4 31.2 27 35.1 43.8 0 0 9-2.8 9.7-6-1.8-11.7-20.8-42-20.8-42Z"/><path fill="#9EA58E" d="M66.3 90.3c-.4.2-.2.6-.6.7 21 .7 39.4 19.5 43.7 47h10.1V85.3c-12.6-2.5-36.6-.4-53.2 5Z"/><path fill="#9EA58E" d="M121.3 139c5.7-11 13.3-38 6.2-50.5-4.3-7.5-40-5.7-61.8 1.9C87 91 105.5 110 109.5 138a48 48 0 0 0 11.8 1Z"/><path fill="#B1B7A5" d="M93 97c-1.2-1-4-2.1-7.6-2.7-1.3-.2-2-1.4-2.3-2.6-1.5-6.6-11-2.9-15.7-1.2 9.8.7 19 5.4 26.3 13 1.2-2 1-4.8-.8-6.5Z"/><path fill="#949984" d="M127.5 88.6c-2.2-3.8-12.4-5.3-24.7-4.8.2 1.2 6 14.6-7 22.3a64 64 0 0 1 13.7 32 48 48 0 0 0 11.8.9c5.7-11 13.3-38 6.2-50.5Z" opacity=".4"/><path fill="#949984" d="M113.2 138.6c3.2.4 5.8.5 8 .4 5.8-11 13.4-38 6.3-50.4-1-1.9-4-3.2-8.2-4a72 72 0 0 1-6 54Z"/><path fill="#949984" d="M99.2 86.9c-3.4.6-7.4 1-10.4 2.9-.2.1-2 2.5-1.5 2.7 4.6 1.6 8.9-2.9 27-2.9 2.3 0 6.4.5 8.5-.2.2-1-2.7-2.4-3.7-2.8a50 50 0 0 0-20 .3Z"/><path fill="#676D54" d="M92.7 89c-.8-.6-1.9-.5-2.8-.3-.8.3-1.5.6-2.2 1.1a3 3 0 0 0-1 1c-.1.3-.2.9 0 1.2.3.7 1.1.8 1.8.8 3.6 0 7.5-1.5 4.2-3.8ZM120.6 87.8c-.4-.9-1.3-1.4-2.2-1.7-.8-.2-1.6-.3-2.5-.3-.4 0-2.4.3-2.8.5-.4.2-.7.6-.7 1 0 .8.5 1.4 1.1 1.7 1.6 1 7.4 1.4 7.5 0 0-.5-.2-.8-.4-1.1Z" opacity=".6"/><path fill="#E8D4BA" d="M173 69.8c-8.3 5.3-19.7 1.3-25.6-5.5a60.6 60.6 0 0 1-9.9-27.3c.3-5.6-1.3-17.6 25.5-21.3 13-1.7 15.2 14.6 16.1 25.1 0 0 1 24.4-6.2 29Z"/><path fill="#CEB79B" d="M155 32.2c-.2 0-2.2 1.7-2.3 2-.2.7-6.2 2.4-6 3 .3.7 4.6.6 10.1 3.5 1 .4 2.2 1.4 3.2.8 1-.6 1.1-2 1-3.1-.4-2.3-2.1-6.3-6-6.2Z" opacity=".4"/><path fill="#CEB79B" d="M172 61.8c-2.9 0-3.3-9-5.3-6.7-18.6 21.4-22-15.6-21.5-22 0-.5 2.7-11.7 2.8-12.2-1-.9-1.6-.3-2.3.2-4.3 2.5-7.8 4.8-8.2 15.9-.6 2.6 3.4 1.5 3.6 4.6.1 3 0 6.2.5 9.3.7 4.9 2.6 9.6 5.8 13.4 1.5 1.9 5.8 7 12.8 7.8 5.4.5 9.5-3 12.2-7.4l1.6-2.9h-2Z" opacity=".4"/><path fill="#CEB79B" d="m178.4 34.4-12 3.5c-1.5 1.2-.6 3.5-.3 5.2.1 2.3-.4 4.7.6 6.8.3.9 1.8 2.4 1.5 3.5-.3 1.4-1.9 1.6-2.6 2.7-.3.5-3.5.6-3.6 1.2 0 1.3 13.1 7.6 14.8 4.6 1-2.7 2.4-15.3 2.7-16.8l-1-10.7Z" opacity=".4"/><path fill="#CEB79B" d="m173.1 59.8.1-1.5c-1.9.4-3.8 1-5.7.7-1.5 0-6.3-1-2.8-2.5-3.2-4.2-9 .6-6.8-5.8-8.8 8.2-12.7-2.6-15.3-13.5-1 10.5-2.5 18.3 4.8 27 9.5 10.2 20.2 11.6 26.6-2.5-.4-.6-.8-1.2-.9-2Z" opacity=".4"/><path fill="#CEB79B" d="M178.4 34.4c-2.5-.1-13.7 2.4-12.7 7.1 1.2 5.5-1 3.8 2.2 10 .9 2.2-.1 2.3-1.5 3.6-.7 1.5-2.7 1.2-4.5-.5-1.2-1-3.6-.5-3.8-.4-.6.6 4.6 4.6 4 5.1.8 1 13.7 5.5 14.2 4.2 2-7 2.4-29.1 2.1-29.1Zm-2 13-1.8 6.4c0 .2-.7.5-1.6.8 1.6-4.4-5.5-7-5.7-11.3-.7-3.7 4.5-3.7 6.9-3.5 3.8.5 3.3 4.9 2.2 7.7Z" opacity=".4"/><path fill="#CEB79B" d="M176.5 63c1.9-8 2.7-20.4 2.2-27.4-.4-.5.3-1.5-.8-1.2 1.5 3.6-.4 7.5-.3 11.3.2 5.2-1.9 13.2-7.2 10.9-.4 0-5.1 2.7-7.6 3.2 2.6 1.3 13.2 5.4 13.7 3.2Z" opacity=".4"/><path fill="#CEB79B" d="M178.6 33C176.4 17.3 150.8 19 147 20.5c-8.6 3.5-8.8 9.2-9.6 16.6-.6 2.6 2.6 2.9 3.6 4.6 2 4.6-1.3 7.9 2.3 15.8l2-.4c-1.5-7.8-1-18.8 0-19.5 1.5-1 16.2-1.6 13.5 1.6 1.3.7 2-.5 2.6-1 2.5-2.3 2.9-1.4 6 1 1.2.8 2.2-.2 4.6-.7 2.3-.5 5-.3 6.6-.2l-.1-5.1Z" opacity=".4"/><path fill="#3E875B" d="M154.3 39.8c-1-.2-2.5-.7-3.5-.1-.5.8 0 2 .7 2.5 1.4 1.3 4.7-.9 2.8-2.4Z"/><path fill="#3B754B" d="M154.3 39.8c-1-.2-3.9-1.1-3.7.7 1 .2 3-.4 3 1 0 .7-1 .8-1.5 1 1.5.6 3.9-1.5 2.2-2.7Z"/><path fill="#676D54" d="M158.6 41.5c-.5-.1-4.7-4.5-10.6-1.6-.5.2-.1 1 .4.7 5.2-2.5 9.7 1.6 10 1.7.4.2.6-.6.2-.8Z"/><path fill="#3E875B" d="M169.3 42.5c1.3 1.5 4.4.2 3.6-2-.5-.4-1.3-.2-1.9-.3-1.5-.2-3 .7-1.7 2.3Z"/><path fill="#3B754B" d="M173 40.6c-.6-.5-1.4-.3-2-.4-.9 0-2.4 0-2.1 1.4 1.7-.6 3.3.6 1.2 1.4 1.4.7 3.5-.8 2.8-2.4Z"/><path fill="#676D54" d="M166.7 41.6c.4-.1 4.7-4 9.8-.6.4.3 0 1-.4.7-4.5-3-9 .7-9.3.7-.4.1-.6-.7-.1-.8Z"/><path fill="#CEB79B" d="M159.2 55A3.2 3.2 0 0 1 158 53c0-.5 0-1.4.5-1.7.3-.3 0-.9-.4-.6-.7.5-.8 1.5-.7 2.3 0 1 .8 2 1.6 2.7.3.2.7-.3.3-.6Z"/><path fill="#CEB79B" d="M168.1 51.2c0-.4-.7-.2-.6.2.8 3.6 1 1.2-.5 2.5a8 8 0 0 0-.4-4.3c-.2-.3-.7 0-.6.4.5 1 .5 2 .5 3-.2 2.1-.9 3-2.8 2.7-.7-.7-1.9-2.3-4.3-1.9-.4.1-.3.7.1.7 2.6-.4 3.5 1.7 3.9 1.8 3.4.7 1.8-.7 5-2 1-.5 0-2.3-.3-3ZM166.4 44.4c.4-2-.7-3.6-.2-5.6.1-.2 0-.4-.3-.4-.2 0-.3 0-.3.2-.6 1.6 0 2.8.1 4.3 0 1.6-.2 3 0 4.7 0 .4.8.2.7-.2-.2-1-.1-2 0-3Z"/><path fill="#E8D4BA" d="M147.9 32.3c0 .5.7 1 1.6 1 .7 0 1.4-.2 2-.5 1.2-1 .4-1.8-1.2-1.8-1.2 0-2.6.6-2.4 1.3Z"/><path fill="#D58500" d="M143.2 44.5c-.8-.5-1.7-.7-2.3-.8l-.3-2c-.6-2.4-3.7-2.1-3-4.7 0-1.7.3-7 2.3-10.8 1.2-2.3 4.6-4.8 6.5-5.5-3.1 8.9-5.4 14.4-3.2 23.8Z" opacity=".3"/><path fill="#CEB79B" d="M155 64.7c-.6-.7-4.6-1.7-7.8-7-.4-.6 0 1-.7 1l-.6.2c.7 12 7.5 4.8 9 5.8Z" opacity=".4"/><path fill="#D58500" d="M158 25c6 1 15.2 1.5 17.2-4.2 0 0-13.5-15.6-34.2-4.1-1.2 1 5.3 3 9.4 5.4 2.4 1.4 5 2.4 7.7 2.9Z"/><path fill="#C77500" d="M158 25c6 1 15.2 1.5 17.2-4.2 0 0-13.5-15.6-34.2-4.1-1.2 1 5.3 3 9.4 5.4 2.4 1.4 5 2.4 7.7 2.9Z" opacity=".3"/><path fill="#E8D4BA" d="M139 54.4a5.1 5.1 0 0 1-2 .9 3.2 3.2 0 0 1-2-.2l-.4-.2c-.7-.4-1.2-1-1.7-1.7V53l-.1-.2-.2-.6c-.5-2-1.5-4.2-1.7-6-.2-2-.5-5.4.9-7.8l.5-.7c.3-.4.8-.5 1.3-.7H133.9l1.6-.7c.5-.2 1-.3 1.5-.2 1 .1 2 .8 2.8 1.8l.5.8a13.3 13.3 0 0 1 1.4 4c.9 4.4.3 9.6-2.7 11.7Z"/><path fill="#CEB79B" d="M136.4 48c0-.8 1.2-2.8 1.8-3.2 0-.7.1-1.3-.2-2-1-2-2-2.5-4-3-1-.3-1.6 2.2-1.3 3.5.4 1.7 2.2-1.5 3-1.2 1.6.5-.4 3.8-.7 4.7-.3 1 .4 2.1.9 3 .4.7 1 .7 1.5.1l.3-.6c-.4-.6-1.4-.5-1.3-1.4Z"/><path fill="#CEB79B" d="M139 54.4a5.2 5.2 0 0 1-2.1 1 3.2 3.2 0 0 1-2-.3l-.3-.2c-.7-.4-1.2-1-1.7-1.7V53l-.1-.2a32 32 0 0 1 3.3-4l.3-.6c.5-.7.9-1.6 1-2.6h.1c.2-1 .3-2 .2-3v-.4c0-.5-.2-1-.3-1.4a5.2 5.2 0 0 0-1.6-3c-.2-.3-.4-.4-.6-.5l-1.4-.4 1.6-.5c.5-.2 1-.4 1.6-.3 1.3.2 2.4 1.2 3.2 2.7.6 1 1 2.1 1.4 3.4v.3c1 4.4.4 9.8-2.6 12Z" opacity=".4"/><path fill="#CEB79B" d="M139 54.4a5 5 0 0 1-1.6.8c2.2-1.7 4.2-11 2.3-17.3l.5.8a13.3 13.3 0 0 1 1.4 3.8c1 4.4.4 9.8-2.6 12Z" opacity=".4"/><path fill="#CEB79B" d="M141.6 42.8c-.5-.6-1.5-1-1.9-1.6a8.5 8.5 0 0 0-4.5-3c-.7-.2-2.2-.3-3.5.3l.5-.8c.4-.4 1-.5 1.4-.7H133.9l1.5-.7c.5-.2 1-.3 1.6-.2 1 .1 2 .8 2.7 1.8l.5.8c.6 1 1 2.2 1.3 3.5l.1.3v.3Z"/><path fill="#676D54" d="M136.7 55.2c-.2.7-1 3.1-2 2.4-1.3-.8 2.8-4.5 2.8-4.5s-1.3-3.3-4.6.4c-4.2 5 1 8.4 3 6 1.1-1.2 1.9-3.4 2.2-4.4-.4.1-.7.2-1.4.1Z"/><path fill="#474C2F" d="M136.7 55.2c-.2.7-1 3.1-2 2.4-1.3-.8 2.8-4.5 2.8-4.5l-.4-.6-1.6 1.8c-.7.7-1.4 1.6-2.2 2-.6.3-1.3.5-1.9 0-.7 3.3 3 5 4.6 3.2 1-1.3 1.8-3.4 2-4.4-.3.1-.6.2-1.3.1Z" opacity=".4"/><path fill="#474C2F" d="M136.7 55.2c-.2.7-1 3.1-2 2.4-1.3-.8 2.8-4.5 2.8-4.5s0-.2-.2-.3c-.6.2-1.1 1-1.6 1.4-.6.7-1.2 1.6-1.6 2.5-.3 1-.5 2-.1 2.9l.3.6c.6 0 1.2-.2 1.7-.7 1-1.2 1.8-3.4 2-4.4-.3.1-.6.2-1.3.1Z"/><path fill="#949984" d="M133 55.1c.7 0 1.5-.4 2.2-1 .5-.4 1.2-1.2 1.5-2-.7-.5-1.9-.7-3.8 1.4l-1 1.4c.3.2.7.2 1 .2Z" opacity=".7"/><path fill="#C57802" d="M165.2 94.2c.5-.9-12-1.7-12-1.7 0 .8 0 1.4.4 2.6-1.1 2-.7 4.9.3 7.1-1.9 3.3-.5 5.3 0 6.4.2 3.8 1.5 6 3.4 8 1.2 1.4 1.6.3 2.9.6 1.7.5 6.2-3.4 4.7-8.9 1.8-.7 2-5.1.4-6.8a7.2 7.2 0 0 0-.1-7.3Z"/><path fill="#D58500" d="M153 105.4c0-.7.1-1.5.6-2.4 5.2-.2 3.4 5.6-.6 2.4ZM155.5 114.3c-.7-1.1-1.2-2.4-1.4-4 2.7-1.7 4.2 3.7 1.4 4ZM153.2 99.9a6.6 6.6 0 0 1 0-3.8c5.8-.2 6 7 0 3.8ZM161.4 114.1c-1.6-1 .2-3.7 2-3.6 2.3.7-.2 4.5-2 3.6ZM165 105c-.2 2.6-4 2.8-4.2 1.3-.2-1.8 4-4.1 4.2-1.4ZM164.8 99.8c-1.8 1.8-3.9 1.2-3-1 1.6-3.2 5.1-.8 3 1ZM165.2 94.2Z"/><path fill="#A05A07" d="M165.3 101.5a7.3 7.3 0 0 0 0-7.3s-8-.9-12 0l.3.9-.2.4c3.6-.7 5.5 2.9 4.7 6.2-1-.7-2.9 0-1.6 1.3 1.7.8 2.9 2.7 2 4.6-.8-.2-1.6-.1-2.3.2 2.2 2.2 2.2 5.6 2 8.5l4.1.2a7.6 7.6 0 0 0 2.6-8.2c1.9-.7 2-5.1.4-6.8Zm-.3 10c-.3 3.1-3.4 3.4-6 4 0-1.7.5-3.4 1.8-4.5.9-.2 1.5-1 2.3-1.4 1.2-.7 2.3.5 2 1.8Zm-.6-3.4c-1 .6-2.2.6-3.3 1l-.8-.7c-.5-3.7-.5-4.4 2.7-6.4-1.2.4-2.5.4-3.7 0-.5-3.3 4-7.2 6.5-4.3.7 3.6-2.3 3.8-4 5.6.9.6 1.6-.7 2.4-.8 3-.1 2.3 4.6.2 5.6Z" opacity=".3"/><path fill="#A05A07" d="M154.2 95c.6 0 4.6.4 5.5 1.4.2-.3.4-.6.8-.8v.6a5 5 0 0 1 2.2-1l-.2.4a9 9 0 0 1 3.5.4c-.2-.7-.4-1.3-.8-1.8.5-.9-11.9-1.7-11.9-1.7-.2.8-.1 1.3.3 2.4h.6Z" opacity=".3"/><path fill="#D58500" d="M157.2 119.7c-2.6 1.7 1.2 8.7 1.5 10 .2.6.2 1.3-.1 1.8 3.6-2.2 6.8-8.3 4-12-.7-.4-4-.7-5.4.2Z"/><path fill="#A05A07" d="M162.6 119.6c-.7-.5-4-.8-5.4 0-.5.4-.8 1-.9 1.7 2-.2 4.3.8 4.8 3 .5 1.8-.4 3.5-1.3 5.2l-.9 1.7c3.5-2.4 6.4-8 3.7-11.6Z" opacity=".3"/><path fill="#A05A07" d="M162.6 122.4c.4.5.7 1.2 1 1.8.2-1.7 0-3.3-1-4.6-.7-.5-4-.8-5.4 0l-.2.2c2.1 0 4.2.8 5.6 2.6Z" opacity=".3"/><path fill="#CE8000" d="M179.7 45.2c0-3.5-1.2-10.6-1.2-10.6.1 1.7 0 3.5-.6 5.4.4.3.8 1 1.2 1.8L178 41v1.8l.6 1.2-.6-.4c-.2 2.4.6 11.8-1.6 12.6.4 2.1-.6 4.7-1.6 6.5.6-1.5-1.3-5-3.3-5.4.5.3.5 1.3.5 1.3-.1-.2-1-1.8-1.6-2-3.5 1-7.6 1-12.5 0l-2 1.4c.2-.7.5-1 1-1.4-5.6-1.3-7.4 4.4-7.8 6.4-.8-2-2.2-3.3-1.8-5.1-5-1-3.3-10.8-3.5-13.5l-1.3.9c.6-.8 1.5-2.4 1.2-3.7l-1 .7 1-1.4s0 .2 0 0v-.1l-.1-.8-4.6-3c4 4.6 2.4 12.5-.2 16.9-1.3 2-1.8.2-1.8 2.2a63 63 0 0 1 1.7 12.9c.5 2.7 2 11 5.3 9.4 0 .2 2.5 6.3 4.1 4.8 1.1 3.4 2.7 7.7 6.3 9l9 .5a8.9 8.9 0 0 0 5.4-3.5c1.3-1.7 1.9-3.9 2-6 .8-.5 3.8-2.1 4.5-5.8 2.2-3.1 4-5.9 4-7.2.4-3.2 1-8.1 1.5-14.4.2-3.2-1.2-6.9-1-10.5Z"/><path fill="#995A07" d="M168.8 60.3c-.7.5-2 .6-2.8.7h-2.9c-2 0-4 0-6-.5-.5 0-.7.7-.2.8 2.1.4 4.3.6 6.5.6 1 0 2 0 3-.2 1-.1 2-.2 2.8-.7.4-.3 0-1-.4-.7ZM164.3 63.9c-.2.3-1 .2-1.5.1-.5 0-1 0-1.5-.2s-.7.6-.2.8a6 6 0 0 0 2 .3c.6 0 1.4 0 1.8-.4.3-.4-.3-1-.6-.6Z"/><path fill="#C77500" d="M179.7 45.2c0-3.5-1.2-10.7-1.2-10.7a13 13 0 0 1-.6 5.5c.4.3.8 1 1.2 1.8L178 41v1.8l.6 1.2-.6-.4c0 3.5 0 7-.4 10.3-.2.8-.3 2.1-1.2 2.3.5 2.1-.6 4.7-1.6 6.5.5-1.4-.8-4-2.4-5 .3 1.5 0 12.1-2.6 10-1.2 3-3.3 4.6-5.7 1.6-1.3 15-10.3 12.3-17.8 3.2-.2 1 .1 2.6-.2 3.3-1.4-2-2.3-4-3.1-6.3-1.8-5-2.8-10.4-4.2-15.6-.4.6-1 1.1-1.7 1.2-.3 1.3.4 2.3.5 3.6 1.1 3.9.6 21.3 6.4 19.7 0 .2 2.5 6.3 4.1 4.8 1.1 3.4 2.6 7.5 6.1 8.9 1.4.3 7 .5 9.1.6 4-.9 7.1-3.8 7.5-9.6.8-.4 3.8-2 4.5-5.7 2.2-3 3.9-5.9 4-7.2.4-3.2 1-8.1 1.5-14.4.2-3.1-1.2-6.9-1-10.5Z" opacity=".3"/><path fill="#A05A07" d="M142.5 39.3c-.7 7.4-.2 16.8-4.7 20.7-.1-1.7-1.2-3.4-.7-5 3.6-1.5 4.5-9.2 4-13.4a8.7 8.7 0 0 0-2.2-4.7l3.6 2.4Z" opacity=".3"/><path fill="#BF7202" d="M179.7 46c.1-5-1.6-10.2-.6-15.6.1-.6.2 5-1.2 9.6.4.3.8 1 1.2 1.8L178 41v1.8l.6 1.2-.6-.4c.2 11.2-1.6 18.3-3.6 28.3-.4-1.6.5-4.3-.7-6-.5 7.2-4.9 13-9 18.5 1.3-3.4 3-8 2.2-12.1A24.1 24.1 0 0 1 152 90.8c1.3 2 9.4 1.6 11.1 1.9 0 0 7-1 7.5-9.6.8-.4 3.8-2 4.5-5.8 2.2-3 3.9-5.8 4-7.1.4-3.2 1-8.2 1.5-14.4.2-3-1-6.2-1-9.7Z"/><path fill="#995A07" d="M161.8 109.7c-.7.3-1.2.8-1.7 1.5-.4-1-.7-1.8-1.4-2.5-.5-.6-1.4-1.3-2.2-1.1-.5.1-.3 1 .2.8.5-.1 1.2.6 1.5 1 .7.7 1 1.6 1.3 2.5a6.9 6.9 0 0 0-.7 5c.1.4.9.2.7-.3-.6-2 .7-5.3 2.7-6.1.4-.2 0-1-.5-.7ZM163 102a7 7 0 0 0-3 2c-.5-1-1.6-2-2.6-2-.6.1-.6 1 0 1 .9-.2 1.7 1 2.1 1.7-.3.6-.6 1.2-.6 1.9 0 .5.8.5.8 0 0-1 .8-1.8 1.4-2.3a6 6 0 0 1 2.1-1.4c.5-.2.3-1-.2-.8ZM162.4 96.4c-.7.6-1.6 1-2.3 1.7-.5-1.2-1.6-2.4-2.8-2.4-.5 0-.5.9 0 .9 1 0 1.9 1.2 2.2 2.2-.4.7-.7 1.4-.8 2.2 0 .5.7.7.8.2.1-1 .5-1.8 1.2-2.5.6-.7 1.4-1 2.1-1.5.5-.4 0-1-.4-.8ZM162.2 122.7c0-1-.2-2.6-1.3-3.1-.4-.3-.9.5-.4.7.9.4 1 1.7 1 2.6 0 1.4-.3 2.7-1 4-.2.5.5.9.8.4a9 9 0 0 0 1-4.5ZM159.7 119.4c-.3-.5-1 0-.7.4.7 1.3-.6 2.3-1.3 3.1-.4.4.2 1 .6.6 1-1.2 2.2-2.4 1.4-4.1ZM165.6 86.4c0-.6-.8-.6-.8 0 0 1.2-.5 2.4-1.3 3.3-.7.7-1.6 1-2.6 1.4 1-1 1.6-2.2 1.7-3.8 0-.5-.8-.5-.8 0 0 1.6-.7 2.6-1.8 3.6-.3.3 1.1 2.3 4.2-.8 1-.9 1.5-2.4 1.5-3.7ZM158.6 90.6c-1.3 0-2.4-1.9-2.4-3 0-.6-.9-.6-.8 0a5 5 0 0 0 2 3.5l-1.3-.5c-.7-.3-1.2-.9-1.7-1.4-1-1.1-1.8-2.7-1.6-4.2 0-.5-.7-.8-.8-.2-.2 1.7.6 3.3 1.5 4.5a6 6 0 0 0 1.6 1.6c3.5 2.3 4-.3 3.5-.3Z"/><path fill="#00C55E" d="M167.3 90.6H152c-.6 1.3-.6 3.7.5 4.3h14.2c1.1-.6 1.1-3 .6-4.3Z"/><path fill="#06B253" d="m167.3 90.6-7.6-.1s-.5 2.1-4.1 3c-1.2.3-3.8.2-4 .2.2.5.5 1 1 1.2h14c1.2-.6 1.2-3 .6-4.3Z"/><path fill="#00C55E" d="M163.1 115.8c-4.2-.1-2.3-.2-6.6 0-.3 1.2 0 3.5.5 4h5.9c.5-.5.5-2.8.2-4Z"/><path fill="#06B253" d="m163.1 115.8-2.7-.1-1.1 1.5c-.8.8-1.7 1.3-2.7 1.6l.4 1h5.9c.5-.5.5-2.8.2-4Z"/><g fill="#C77500" opacity=".3"><path d="m159.6 60-1.5.5h-.5c0 .3.4.5.7.5.4.2 1 .2 1.4.3h2.8l1.4.3h1.8c1.1 0 2.6-.2 3.3-1.2-2-.5-4.2-.8-6.4-.8-1 0-2 0-3 .4ZM163.5 64.3c-.8 0-1.6.2-2.3-.2 0 .8.1 1.7.9 2 .8.5 1.8.3 2.3-.5.2-.4.3-.9.3-1.3 0-.2-1 0-1.2 0Z"/></g><path fill="#C77500" d="M176 24.8s-.5-1-1.8-2.2l-.2-.1.1.1c-3.2 3.8-10.8 3.3-16 2.4a23 23 0 0 1-7.8-2.9l-3.2-1.6s-4-5.5.4-3.6c4.4 1.8 14.6 7.1 17.8 6.8 1.9-.1 4.8-2.2 6.7-4.4 1.4-1.6 2.2-3.3 1.4-4.5.2.2 6.6 6.8 2.6 10Z" opacity=".3"/><path fill="#C77500" d="M158 25c-2.7-.5-5.3-1.5-7.6-2.9a54.6 54.6 0 0 0-3.3-1.7c-.6.2-4.7 1.6-6.4 4.6-1.8 3.3-3 6.4-3.2 11.2 0 0-.6-.6-2.3 0v-8.6l2.3 1.1s-.7-4.1 0-4.1c3.7 0 1.5-6.4 1.5-6.4l2.2 1.6 1.8-1.4a4.1 4.1 0 0 1 5-.1c3.5 2.5 9.2 6.5 12 7l-2-.4ZM179.1 30.4l-.4 2.9-.2 2-4.3-12.7s-1.6 1.8-4.2 2.4c-3 .7-8.5.4-8.5.4s5.2-4.6 4.9-8.3c0-.5-.2-1-.5-1.5l1.4-.8-4-2c.1 0 2.3.4 2-.8-.4-1.2-3.3-2.7-3.3-2.7l2.4.5c4.2 1 7.5 3.1 10 6 2.8 3.4 4.4 7.8 4.6 12.3l.1 2.3Z"/><path fill="#A05A07" d="m174.5 20.5-.3 2v.1A8 8 0 0 1 170 25a21 21 0 0 0 1.8-5.7c.4-2.6.2-5.4-2-7.3 1.4.8 2.6 1.8 3.6 2.9.5 1.3 1.2 3.3 1.1 5.6Z" opacity=".3"/><path fill="#A05A07" d="M170 18.4c0 2.4-.6 5.4-1.6 7l-2.2.2c.1-.4 2.3-5.5 2.2-9.3 0-2.2-.3-3.1-.3-5.2l.5.2a39.2 39.2 0 0 1 1.3 7.1Z" opacity=".3"/><path fill="#BBB99D" d="M154.8 3s-2.8.1-5.2.8c-2 .7-2.3 3.5-2.3 3.5l6.3 1.7 1.2-6Z"/><path fill="#979E87" d="M156.2 5c-6.2-2-24.2-1.5-27 27.2 0 0 52 1 52 .5-3.8-31-24.7-27.7-25-27.8Z"/><path fill="#979E87" d="M156.2 5c-6.2-2-24.2-1.5-27 27.2 0 0 52 1 52 .5-3.8-31-24.7-27.7-25-27.8Z"/><path fill="#C5CAB9" d="M143.7 8.3c-2.7-.3-8.3 4.8-6.7 7.8.5.9 1.6 1 2.4 1 4.2-.3 7.6-5.5 6.3-7.5a2.8 2.8 0 0 0-2-1.3Z" opacity=".4"/><path fill="#949984" d="M156.2 5c-1.7-.6-4.2-1-7.1-.6 5.3 6.6-.6 16.4-7.2 19-3.6 1.7-9 1-10.1-3.6a51.2 51.2 0 0 0-2.7 12.3s52.1 1 52 .6c-3.7-31-24.6-27.7-24.9-27.8Zm-2.8 15.5c-1 1.3-2.9 1-1.9-1s3.8-1 2 1Zm17.3-3c-1.5 1.1-2.2-.7-1.9-2 .3-4.3-3.6-7.6 1.8-5 2.1 1.2 1.9 5.6.1 7Z"/><path fill="#676D54" d="M157.6 29.8c-8.7-4-19.4-3.2-27.3 2.4l31.9.5c-1.5-1.1-3-2.1-4.6-2.9ZM163.8 26.3c6.2-2.6 4.2-14.3.8-20.3-1.7-.6-3.2-.8-4.5-1 .6 1.1 1 2.3 1.5 3.5a33.7 33.7 0 0 1 2.2 11.5v6.3ZM173.3 12c.6 7.7-.8 13-9.7 20.7 9.7.1 17.1.2 17.1 0a38 38 0 0 0-7.4-20.7Z" opacity=".4"/><path fill="#BBB99D" d="M165.8 14.6C163.7 4 160 2 154.1 3c-3.4.5-5 1.2-5.6 1.6.6-.1 2.4-.3 3 0 1.5 1 3 2.8 4 4.5 4.5 7.5 3.4 12.9 4.6 15.4.5 1.2 2 2.3 3.4 2 1.7-.6 3.8-4 2.3-11.8Z"/><path fill="#676D54" d="M149 4.4c.8 0 2-.2 2.4 0-.8-.4-1.7-.6-2.3 0Z"/><path fill="#C2C2AC" d="M166.3 14.7c1.5 7.7-.8 11.1-2.5 11.6-1.3.3-2.6-.6-3.2-1.9-1.2-2.5-.1-7.9-4.6-15.4-1.5-2.5-4-5.4-6.4-5.1 8.7-2.5 14-2.6 16.7 10.8Z"/><path fill="#C5CAB9" d="M155.2 7.8c1.4.2 6-2.5 6.2-3.8-3-2.2-6.8-1.6-11.8-.2 2-.2 4.1 1.8 5.6 4Z"/><path fill="#BBB99D" d="M159 15.4c1.3 4.2.8 7 1.7 8.8.6 1.2 1.8 2.4 3 2 1.7-.4 4-3.6 2.8-10.7-2.7 1.8-5.3 1.6-7.4 0Z"/><path fill="#979E87" d="M164.7 18.5c-.6-.8-1.7-.6-2.1-.1-1 1-.2 3.4 1.4 2.8.9-.3 1.3-2 .7-2.7Z"/><path fill="#949984" d="M164.7 18.5c-.3-.3-.6-.5-1-.5.2 0 .4.2.5.4.6.8.2 2.4-.7 2.7l-.5.1c.3.2.6.2 1 0 .9-.3 1.3-2 .7-2.7Z"/><path fill="#979E87" d="M161.7 9.2c-.1 0-.9-.2-1.3.3-1.6 1.6 2 4 2.5 1.7.2-.9-.4-1.7-1.2-2Z"/><path fill="#949984" d="M162.5 11c-.2.9-1 1-1.6.8.8.5 1.8.6 2-.6.2-.9-.4-1.7-1.2-2 0 0 1 1 .8 1.7Z"/><path fill="#979E87" d="M158.4 3.8c-.5-.6-2.3-1-2.4.5 0 2.3 4 1.7 2.4-.5Z"/><path fill="#949984" d="M158.4 3.8c-.3-.4-1.4-.7-2-.3 1.4-.4 2.9 1.2 1.6 2.2.9-.2 1-1.3.4-1.9Z"/><path fill="#C2C2AC" d="M129.1 37c-.7-.4-1-3.2-.8-5 6-2.2 52.7-.4 53 0 .5.4.5 3.4.4 4.2-6.8-.2-52.6.9-52.6.9Z"/><path fill="#BBB99D" d="M149.6 34.3a4.7 4.7 0 0 0-2.8 2.4l14.4-.3c-1-3-8.7-3-11.6-2ZM181.4 32c-.2-.2-7.2-.5-16.2-.8.5 1.7.1 3.4-.8 5.1 8 0 15-.2 17.3 0 .1-1 .1-4-.3-4.4Z"/><path fill="#C5CAB9" d="M138.5 35c2.7-.1 8 0 13.3-4-10.3-.2-20 0-23.2.8 2.7 2.4 6.6 3.2 9.9 3.1Z"/><path fill="#979E87" d="m133.8 33.3-.2-.5c-.5-.5-1.7-.7-2.2.2a1 1 0 0 0-.2.5v.3c.1 2.5 3.1 1.1 2.6-.5Z"/><path fill="#676D54" d="M131.7 33.8v-.4l.2-.5c.2-.3.5-.5.8-.5-.5-.1-1 0-1.3.6a1 1 0 0 0-.2.5v.3c0 1.2.8 1.5 1.4 1.3-.4 0-.9-.5-1-1.3h.1Z" opacity=".4"/><path fill="#979E87" d="M145.1 32.7c-.7-.6-2.1.1-2.4 1-.1.5 0 .9.3 1.1.6.8 2.2.6 2.6-.7.1-.5 0-1-.5-1.4Z"/><path fill="#676D54" d="M143.2 34.8c-.2-.3-.4-.7-.2-1 .2-.7 1-1.3 1.6-1.3a2 2 0 0 0-2 1.3c0 .3 0 .7.4 1 .2.4.7.5 1.1.5-.3 0-.6-.2-.9-.5Z" opacity=".4"/><path fill="#979E87" d="M154.7 32.9c-1 1 .3 3.5 2 2 1.6-1.3-.8-3.2-2-2Z"/><path fill="#676D54" d="M154.4 34c0 1 1.1 2 2.4 1l.4-.6c-.1 0-2.3-.6-2.8-.5Z" opacity=".4"/><path fill="#676D54" d="M155 33c.3-.4.8-.5 1.2-.4-.5-.2-1-.1-1.5.3-.8.8-.2 2.5 1 2.5-1-.2-1.6-1.7-.7-2.5Z" opacity=".4"/><path fill="#979E87" d="M167.9 32.9c-1.9-.4-2.5 2.7-.4 2.6.6 0 1.1-.4 1.2-1.5 0-.5-.3-1-.8-1.1Z"/><path fill="#676D54" d="M167.9 32.9h-.6.3c.5.1.9.6.9 1.1 0 1-.5 1.4-1 1.5.6 0 1.1-.4 1.2-1.5 0-.5-.3-1-.8-1v-.1Z" opacity=".4"/><path fill="#979E87" d="M179 32.7c-.3 0-.7.1-1 .4-.2.3-.3.8-.2 1.2.1 1 1 1.6 1.9 1l.4-.2c.9-.8 0-2.3-1-2.4Z"/><path fill="#676D54" d="M179 32.7a1 1 0 0 0-.4 0c1 .3 1.8 1.6 1 2.4l-.5.3-.3.1c.3 0 .6 0 .9-.2l.4-.2c.9-.8 0-2.3-1-2.4Z" opacity=".4"/><path fill="#CE8000" d="m158.7 35.4-.7.9.1-1.1c-2.8-.9-8.8-1.8-11.4-.9-.2 0-.6 3.3.3 3.2l3.1-.8-.8 1c3.2.5 8.2 1.8 9.6 2.3.9.3 1.7-1.1 2-2.4.3-1.7.1-1.5-2.2-2.2Z"/><path fill="#C77500" d="m158.7 35.4-.7 1 .1-1.2-.4-.1c-.4.2-2.8 2.3-8.2 2.3l-.2.3c3.2.5 8.2 1.8 9.6 2.3.9.3 1.7-1.1 2-2.4.3-1.7 0-1.5-2.2-2.2Z" opacity=".3"/><path fill="#C77500" d="M159.1 35.5V38l.4-.7h.2c.3 1 .3 1.7 0 2.5.5-.4 1-1.3 1.1-2.2.4-1.6.2-1.5-1.7-2Z" opacity=".3"/><path fill="#A05A07" d="M159.7 35.7c-.3 1-2.5 3.4-2.9 3.7l2.1.6c.9.3 1.7-1.1 2-2.4.2-1.4.2-1.5-1.1-1.9Z" opacity=".6"/><path fill="#CE8000" d="M176.9 35.5c-2.4-1-6.6-.5-9.2 0l-.1 1.3-.6-1.1c-1.2.3-1.2.9-.8 2 .9 2.5.8 2.2 1.3 2.2a21 21 0 0 1 9.7-1.3c.2-.3.6-2.8-.3-3.1Z"/><path fill="#C77500" d="M176.8 35.4c-.8-.3-1.8-.4-3-.5-.4.7-2.2 2.5-2.5 2.2-.2-.2-.3-.6-.2-.9-.6 1-3.5 3.1-4 3.6 0 .1.1 0 .4 0a21 21 0 0 1 9.6-1.2c.3-.3.7-2.8-.3-3.2Z" opacity=".3"/><path fill="#A05A07" d="M176.9 35.5c-.6-.3-1.4-.4-2.2-.5 0 1.3-.6 2.7-1.1 3.6 1.4-.2 2.7-.1 3.6 0 .2-.3.6-2.8-.3-3.1Z" opacity=".6"/><path fill="#C77500" d="M175.4 37.3c.1 0 1.6-1.8 1.4-1.8a7 7 0 0 0-1.5-.4l.1 2.2Z" opacity=".3"/><path fill="#484944" d="M93 83.6c0-.5-1.7-1.3-2-1-.5.1-3 .5-2.2 2.9.2.8 3.5-1.7 4.1-2Z"/><path fill="#383834" d="M89 84.3c-.3.3-.3.9-.1 1.3.3.7 4.1-2.1 4.1-2.2-.8-.2-2-1-4 .9Z"/><path fill="#484944" d="M113.3 80.8c-.4-2-5.7.8-3.2 1.7.2 0 3.5.3 3.2-1.7Z"/><path fill="#383834" d="M113 81.5c-1.3-2.1-5.2 0-3 1 .3 0 3.2-.9 3-1Z"/><path fill="#34352F" d="M76.1 80.8a19.3 19.3 0 0 1 19-16c-3.7 6-7.5 12.2-13.4 15.8-5 3-8 1-5.6.2Z"/><path fill="#34352F" d="M95.2 72c-2.5 3.1-9.6 6.3-7.4 1.3 1-1.8 2.5-4.5 4-6a57.6 57.6 0 0 1 19.9-7.5 43 43 0 0 1-13.7 13c-4.2 2.5-2.8-.8-2.8-.8ZM84.7 58c-6 .2-27.6 28.4-23.2 30 4.1 1.6 16.7-8.6 19.4-10.9 7.2-6 12-19.4 3.8-19.1Z"/><path fill="#5E624F" d="M97.3 86.7c-12.7 2.4-12.7 5.4-12.2 5.6 4.8 1.5 9.1-2.8 27.6-2.9 2.3 0 6.5.6 8.7-.2.2-1-2.8-2.3-3.8-2.7a52.3 52.3 0 0 0-20.3.2Z" opacity=".3"/><path fill="#5E624F" d="M90.6 88.8c-1.6-1-6.5 2.2-6 3 1 2 10.8 0 6-3ZM119.1 87.7c-.7-2.3-7.8-2.9-8.4-.5-.2 3 11 3.7 8.4.5Z" opacity=".7"/><path fill="#676D54" d="M84 89.6c-.2.8-.2 1.7.4 2.3.8 1 2.4.7 3.5 0 13.4-10.2 27.4-6.8 28.9-3.6l.4.8c.3.4 1 .6 1.4.4a2 2 0 0 0 1.2-1.1c.4-1 0-2.2-.6-3-5-7.6-32.2-5-35.2 4.2Z"/><path fill="#484944" d="M119.2 85.3c-1.4-2-4.5-3.4-8.3-4-.7 3.1-9.3 2.9-9.7-.1-4.4.4-8.7 1.5-11.9 3.1 3.7 2.3-3 8.6-5.1 4.9-1.3 2.6 1.5 4.3 3.6 2.6 13.5-10.1 27.4-6.7 29-3.5 1.5 3.4 4.6-.6 2.4-3Z" opacity=".3"/><path fill="#4B4C45" d="M90.9 89.8c3-1.8 5.9-3 8.7-3.8 0 0 .5-2.7-1.4-4.5-2.4.5-4.8 1.1-7 2 .5.3.6 1 .6 1.6 0 1-.7 4-1 4.7ZM112.3 85.7a9 9 0 0 1 4 2c1-.9 2-1.9 2.3-3.1a11.7 11.7 0 0 0-5.7-2.9 4.8 4.8 0 0 1-.6 4Z" opacity=".7"/><path fill="#484944" d="M98.7 81.1c-3.6-1.4-11.2-1.8-2 1.7.5.2 1 .5 1.1 1 0 .8.5 1.6 0 2.2-.5.6-1.8 2.2-1.8 2.4.2 2 3.1-1 3.8-1.8.6-.9-.4-5.4-1.1-5.5Z"/><path fill="#383834" d="M99 81.5c.2 1-.7 1.6-1.4 1.8 1.4 2.7-.8 3.5-1.6 5 .2 2.1 3.2-1 3.8-1.7.5-.7 0-4-.7-5Z"/><path fill="#484944" d="M97.7 83.8c-.7-1-2.8-2.8-3.9-3.3-.1-.4-.7-.6-2.4 0-2.7 1.2-7.1-5.1-8.2-6.1-.8.5-3.3 3.1-2.5 4 .5-1 9.9 8 12.9 4.2.6.8 2.2 1.2 2 2.5-.3.7 0 2.4-.8 2.5l-3.2 1.6c1.5 0 3.9 1 4.5.4 1-1 1.7-4.9 1.7-5.8Z"/><path fill="#383834" d="m97.7 83.8-.5-.7c-.5 1-1.7.8-2.5.4.5.4 1.1.8 1 1.6-.4.7-.2 2.4-1 2.5-1 .4-2 1-3.1 1.6 1.5 0 3.9 1 4.5.4 1-1 1.7-4.9 1.7-5.8Z"/><path fill="#484944" d="M92.9 84.4c.5 1.4-.6 2.5-1.3 4.6-.5.8-1.5 1-2.2 1.6 2.5 0 2.9 1.5 4.7-2.8.5-.9 1-1.5 1.2-2.5.2-2-5.1-6.8-2.4-1Z"/><path fill="#383834" d="M94.8 83.8c-.1.8-1.1 1.5-1.8 1 .2 1.2-.7 2.3-1.4 4.2-.5.8-1.5 1-2.2 1.6 2.5 0 2.9 1.5 4.7-2.8.8-1.3 1.7-2.5.7-4Z"/><path fill="#484944" d="M109.6 72.2c-.7-.3-3.6.6-3.5 1 0 0 4.4 6 7.3 8.2 0 0 1.9 0 2.3-.8-5-4.7-4.9-6.9-6-8.4Z"/><path fill="#484944" d="M115 80c-1-.3-1.4 1-.5 1.3.2 0 3.2 2.5 2.9 3.1a4 4 0 0 1-.7 1l-2.2 2.5c-.1.4 0 .8.4.9 1.8.7 3.8-3.5 4-4.4.5-1.9-3-4.1-4-4.4Z"/><path fill="#383834" d="m117.9 82-.2.7c-.1.3-.7.7-.8.7.4.5.6.8.5 1a4 4 0 0 1-.7 1l-2.2 2.5c-.1.4.1.8.4.9 1.9.7 3.8-3.5 4-4.4.2-.8-.3-1.7-1-2.4Z"/><path fill="#484944" d="M114.7 80.1c-.8-.7-1.7.6-.8 1.2 0 1.1 1 1.8 1.5 2.8l-1 2.4c-.3-.3-.8-.1-1 .1-1 1 1 2 1.4 2 1 0 2.4-3.9 2.4-4.9 0-.1-1-2.2-2.5-3.6Z"/><path fill="#383834" d="M117 83.6c-.5.4-1.2.5-1.7.3v.2c-.2.8-.6 1.6-1 2.4-.2-.3-.7-.1-1 .1-.8 1 1.1 2 1.5 2 1 0 2.7-4.1 2.3-5.2l-.2.2Z"/><path fill="#484944" d="M114.7 80.7c-.2-.6-.9-.6-1.2-.2-.5-.8-1.7.2-1 1l.6.8c.6 1.1-.2 3.7-.3 3.6l-2.6-.7c.7 1.5 2.1 3.5 3.2 3.1.7-.2 2.4-3.5 1.3-7.6Z"/><path fill="#383834" d="M115 83.4c-.6.5-1.2.3-1.6 0 0 0-.5 2.6-.6 2.5l-2.6-.7c.7 1.5 2.1 3.5 3.2 3.1.5-.2 1.7-2.2 1.7-5l-.1.1Z"/><path fill="#353531" d="M86.5 81.7c-2.9-1.6-5.5-3.8-5.8-3.3-.8-.8 1.7-3.5 2.5-4 .6.5 2.2 2.6 3.9 4.3-2 .6-.7 3-.6 3ZM113 77.7c-2-1.7-3.6-.2-3.6-.2l-3.3-4.2c-.1-.5 2.8-1.4 3.5-1 .9 1 1 2.6 3.3 5.4Z" opacity=".5"/><path fill="#6D6D68" d="M119.7 30c3.6 5 7 13.6-1.5 22-.1.2-.2.2-.3.2-2.8 6.8-8 13.8-7 17.2.3 1.7 1 3.3-.7 4.5-3.9 2.8-8.7-3-9.2-8-6.5 3.3-10.1 2.2-14 1.5l-.7 1.4c-.8 1.9-2.4 5.4-5 4.8-2.2-.5-2.6-4.3-3-6.3-1.8 1.5-12.8 13-12.4 8.7-.1-.6.3-1.4.5-1.8l-1.3 1.7c-1 1-2 .5-1.7-1.4.8-8 9.2-29 13.9-35.7 3.4-5 8-9.6 13.7-11.3 0-1.6.8-8.4-4.1-10.4-.5-.2-2.2-11.7-1.8-11.5 2.2-3.2 15.7-10.5 23.6 5.8 6 12.4-.6 2 11 18.6Z"/><path fill="#62625D" d="M63.4 74.5c-.2 1.2.2 2.3 1.2 1.8.8-.5 1.3-1.4 1.8-2.1-.9 1.3-1 3.8 1 2.6 2.5-1.5 4.8-5.2 7.3-7l3.7-2.4c.2 1.8.6 4.6 2 5.8 3.4 2.2 5.5-3.3 6.5-5.8 5.4 1.2 9 1.2 14.1-1.5a11 11 0 0 0 1.3 4.2c1.4 2.7 4.6 5.9 7.6 4 1-.5 1.5-1.6 1.3-2.7 0-.7-.3-1.4-.4-2-.2-.7 0-1 0-1.3.5-5.2 5.4-11 7-15.9 7-5.6 7.1-15.6 2-22.2-2.6-3.8-5.7-7.5-8-11.4-2.9-7.9-7.7-18-17.2-17.4-3.6.2-7.6 2-9.5 4.4.7 1 1.5 7.8 2 9.7-2 3.8 4.5-.2 3.9 12.2-2.2.6-4.3 1.7-6.1 3.1.8.6 1.5 1.5 1.8 2.5 3.6 9-8.2 17.6-15.7 18-3.1 7.5-6.4 15.2-7.7 23.4ZM89.3 4.8c-2.3-2.3 6.1-4 7-.2.4 1.4-5.1 1.3-7 .2Z"/><path fill="#4B4C45" d="m85.1 5.6.5-.5c5.8 6.7 7.6 11 7.4 14.2 0 1.4-1.2 1.8-2.6 1.9a6.1 6.1 0 0 0-3.5-4c-.5-.3-2.2-11.8-1.8-11.6Z" opacity=".7"/><path fill="#5A5B56" d="M64.6 76.3c.8-.5 1.3-1.4 1.8-2.2l-.6 1.5c-.2 4.6 10-6.4 11.5-7.5l1-.8c.4 2 .8 5.8 3 6.3 1.4.3 2.4-.5 3.2-1.5 1-1.4 1.8-3 2.4-4.7 4 .7 7.6 1.8 14.1-1.5.5 5 5.3 10.8 9.2 8 1.6-1 1-2.9.6-4.6-.8-3.5 5.6-12.9 7-17.1.2 0 .3 0 .4-.2l1.9-2.1c10.6-15.3-6.3-23.4-9.8-35-2.8-7.2-7.8-14.3-15.7-13.7 0 0 7.5 2.8 5.8 22.4-.6 7 4.5 2.2 4.5 2.2 0 12.2-5.3 20.6-10.6 17.1-1.1-.7-3.6 1.5-6.1 5-4.8 6.8-11.7 9.9-18.3 5.8-1 2.7-9.7 23.9-5.3 22.6Z"/><path fill="#4B4C45" d="M113.5 21.2c0 8.4-2.8 6.4-3 1.8-.2-4.6-1.8-11.6-2-9.2-.1 2.4-2 8.3-2.3 0-.3-8.3-7.7-12.2-7.7-12.2 3.6 1 7.3 3.8 10.3 9.8 4.2 8.9 2 6 4.7 9.8Z" opacity=".7"/><path fill="#50514A" d="M111.5 72.5c.2.6.3.6 1.2 2.3 0 .1 0 .2-.3.2-1.4.1-2.1-.8-2.1-.8l.1 1.5c0 .3-.1.5-.4.5-.9-.1-1.3-1.3-1.6-1.5 0 .5.3 1.5.2 2.3-.2.8-.8.6-1 .2l-2.9-4c.2-.2 4.5-5.3 6.6-1.9l.2 1.2Z"/><path fill="#50514A" d="M121.6 47.6c-.9 1.6-2.1 3.1-3.7 4.6l-.7 1.6-1.7 3.4c-2.3 4.4-5.2 9.6-4.7 12.1.3 1 .6 2 .5 2.8l-.1.5c-.1.5-.4.9-.8 1.2l-.2.1c-.5.3-1 .6-1.5.7-3.6.6-6.7-4-7.5-7.8v-.3l-.1-.1v-.5l-1 .5a17.4 17.4 0 0 1-13.1 1c-2-.5-1.7 4.2-3.4 5.7-.4.3-.8.5-1.1.5a2 2 0 0 1-2-.4c-.6-.5-1-1.5-1.4-2.5-.4-1.1-.6-2.4-.7-3.3l-3 2.8-.2.1a54 54 0 0 1-7.7 6.4c-.5.3-1 .6-1.4.2a306 306 0 0 0 17.9-18c5.3 2 13-2.2 15.5-4.8 0 0-2.3 3-.7 4.3 1.6 1.4 19.6-3.4 19.7-30.2a81 81 0 0 0 2.7 4c3.8 6.4 2.1 12.5.4 15.4Z"/><path fill="#353531" d="M119.4 47.6c-2.2 8.1-4.8 10.3-7.7 17.3-1.7 4-.6 3.8-.4 7.2a8.9 8.9 0 0 0-9.8-4L101 66c-11.3 6.1-14.9-2.3-16 4.6-2.5 0-4.6-.4-6.3-.8-1.1-2.7.2-5.4 1.5-6.8.7.3 7.7-3.3 12.9-2.8 5.2.6.3 4 .3 4 16-1.3 21.6-9.5 26-16.6Z" opacity=".5"/><path fill="#484944" d="M91 27.4c0-.1.4 2-.5 4.1-.2.4-.5.9-.9 1.1-.3.3-.9.4-1.3.2-.5-.3-.5-1-.5-1.7 0-.6 0-1.2-.3-1.7l-.3-.3c1.2-.7 2.5-1.3 3.8-1.7Z"/><path fill="#383834" d="M122.8 45c-.8 2.3-2.6 6.4-5 7.2 0 0 1.1-2.2 2-6.5 1-4.2 1-8 1-8s1.7 3.5 2 7.2Z"/><path fill="#43433E" d="M91.9 46.7s-9.4 20.5-28.3 25.8c0 0-.4 2-.2 3.1s1 1.8 3-1.4l-.5 1.2c-.2.9-.1 2 1 1.6 1.2-.4 3.1-2.1 6.2-4.7 6.1-5 16-17 18.8-25.6Z"/><path fill="#6D6D68" d="M96.2 13.1c-.4 0-1 0-1-.5-.3-.5.4-1.4.9-1.7.7-.4 2.1-.4 2.4.5.3 1-1.4 1.7-2.3 1.7Z"/><path fill="#383834" d="m95.9 8.6.8-.3s1-2-3.5-1.6c-.8.1-1.2.3-1.6.6-1.5.9-1.5 2.6.2 3l.4.1c.8 1 4 .7 3.7-1.8Z"/><path fill="#5E5E5A" d="M93.5 11c-1 0-1.9-.8-1.9-1.7 0-2 3.7-2.1 3.8 0 0 1-.2 1.6-2 1.6Z" opacity=".7"/><path fill="#232321" d="M93.8 10.3c-.5 0-.9-.5-.9-1.1 0-.7.4-1.2 1-1.2.5 0 .9.5.9 1.2 0 .6-.4 1.1-1 1.1Z"/><path fill="#F2F5F9" d="M92.5 8.6c0-.2.3-.3.6-.3s.5.3.4.5c0 .2-.2.3-.5.3s-.5-.2-.5-.5Z"/><path fill="#5A5B56" d="M82.2 77.4c0 1.4-.2 2.2-.4 2.6-.2.5-.6.4-.8 0-2.5-4.8-2.5-8-2.7-12.6 2-3.5 7.8-4 11.8-3.7a33 33 0 0 1-4.1 10c-.2.4-.4.7-.3 1 0 .3.8 1.9 1 3 .4 1-.1.7-.5.6-1-.2-1.8-1.1-2-1.6a8 8 0 0 1-.3 3.5c0 .2-.4.3-.5.1-.4-.4-1.1-1.6-1.2-2.8Z"/><path fill="#50514A" d="M86 73.8c-.2.3-.4.6-.3 1 0 .2.8 1.7 1.1 2.8.1.4-.2.8-.6.7-1-.3-1.8-1.1-2-1.6a8 8 0 0 1-.3 3.5c0 .2-.4.3-.5.1-.2-.2-.5-.5-.7-1 .4-1 .7-2.4.4-2.6-.6-.3-3.1-2.6.7-3.5 2.3-.6 4.1-5.4 4.2-6.5.2-3.5-4.6 1.8-5.2 2.2.5-.3.5-1.8-.3-1.6-2.3.6-4 4.1-4 4.1l-.2-4c2-3.4 7.6-4 11.6-3.7h.2c-.8 3.6-2.2 7-4.1 10.1ZM88 66.7ZM84 66v-.1Z"/><path fill="#484944" d="m85.1 5.6-3.2.5c-1.7.3-13.4 3.3-15 11.7 0 0 0 .8 1.3-.4 0 0 3.7-1.2 6-.9 2.2.4 13.8 1.2 13.8 1.2s4.7-2.2-2.9-12Z"/><path fill="#34352F" d="m88 17.7-9.4-.7c1.4-1 1.5-2.8 1.4-3.3 2.3-.8 4.6-3 2.9-7.7l2.2-.3c7.6 9.8 3 12 3 12Z" opacity=".5"/><path fill="#6D6D68" d="M77.5 11c-3.5 1.5-5.2.6-6-.2 3.8-3.1 9-4.4 10.4-4.6l.5-.1c.1 1.2-.4 3.4-5 5Z" opacity=".5"/><path fill="#2D2D2A" d="M87.4 13.2c.8.2.4-2.8-1.1-.5-.8.4-6 .8-8.4 1.3-2.4.4-8.7 1.7-9.7 3.4l1.3-.3s1.5-1 3.5-1.4c2.2-.5 3.4-1 7.4-1.3 1.8-.2 5.8 0 7-1.2Z"/></g><defs><clipPath id="a"><path fill="#fff" d="M7.7 1.1h368v536.6H7.8z"/></clipPath></defs></svg>