<svg xmlns="http://www.w3.org/2000/svg" width="473" height="296" fill="none"><g clip-path="url(#a)"><mask id="b" width="473" height="296" x="0" y="0" maskUnits="userSpaceOnUse" style="mask-type:luminance"><path fill="#fff" d="M473 0H0v295.6h473V0Z"/></mask><g mask="url(#b)"><path fill="#F4F7FA" d="M473 0H0v295.6h473V0Z"/><path fill="#F4F7FA" d="M26.3 0H0v295.6h26.3V0Z"/><mask id="d" width="13" height="10" x="7" y="10" maskUnits="userSpaceOnUse" style="mask-type:alpha"><path fill="url(#c)" d="M7.2 10.7v-.2l.1-.2H19v.2l.1.2V19.8H19l-.3.1H7.3l-.1-.1V10.7Z"/></mask><g mask="url(#d)"><path fill="url(#e)" d="M7.2 10.7v-.2l.1-.2H19v.2l.1.2V19.8H19l-.3.1H7.3l-.1-.1V10.7Z"/><path fill="#E38130" fill-rule="evenodd" d="m8.7 12.2 10.4 1.6v-3.5l-1 1.6v.2l-.2.1H8.7Z" clip-rule="evenodd"/></g><path fill="#fff" fill-rule="evenodd" d="M15.3 14.7c.2.2.2.5 0 .7L14 16.8c-.4.3-1 .3-1.3 0l-.8-1a.5.5 0 0 1 0-.6c.2-.2.5-.2.6 0l.8.8 1.4-1.3c.1-.2.4-.2.6 0Z" clip-rule="evenodd"/><mask id="f" width="20" height="11" x="3" y="35" maskUnits="userSpaceOnUse" style="mask-type:luminance"><path fill="#fff" d="M17 35.5H9.3a5.3 5.3 0 1 0 0 10.5h7.9a5.3 5.3 0 1 0 0-10.5Z"/></mask><g mask="url(#f)"><path fill="#D8E5F1" d="M17 35.5H9.3a5.3 5.3 0 1 0 0 10.5h7.9a5.3 5.3 0 1 0 0-10.5Z"/><path stroke="#35383B" stroke-linecap="round" stroke-linejoin="round" stroke-width=".7" d="m10.2 39.3 1.5 1 .2.2H14.4l.2-.2 1.5-1m-4.5 3.9h3l1-.1.4-.4.1-1V40l-.1-1c0-.2-.2-.3-.4-.4h-5l-.3.4-.1 1v2.8l.5.4h.9Z"/></g><path fill="#35383B" d="M7.6 51.9h-.4l1-2.9h.4l1 2.9h-.3l-.8-2.4-1 2.4Zm.1-1.1h1.5v.3H7.7v-.3Zm2.5-1.8V52H10V49h.3Zm.4 2.9v-2.2h.4V52h-.4Zm.2-2.5h-.2V49h.4V49.3h-.2Zm1.2 2.5h-.3a.6.6 0 0 1-.3-.3l-.1-.3V51l.3-.2h.2a3.4 3.4 0 0 1 .6-.2h.2V50h-.4a.6.6 0 0 0-.5.2h-.3a.8.8 0 0 1 .5-.5 1.3 1.3 0 0 1 .6 0h.2l.2.3.1.4v1.4h-.3v-.3l-.1.2h-.3l-.3.1Zm0-.2.4-.1.2-.2v-.6l-.2.1h-.2l-.3.1-.2.1v.5h.4Zm3-1.5-.3.1-.2-.2H14l-.2.2.1.2.3.1.3.1.5.2v.7l-.3.3a1 1 0 0 1-.4 0 1 1 0 0 1-.6-.1.6.6 0 0 1-.3-.4h.4l.1.2h.7l.2-.3-.4-.3H14a.9.9 0 0 1-.5-.3l-.1-.4.1-.3.3-.2h.9l.3.4Zm1.2 1.7a1 1 0 0 1-.9-.5v-1.1l.4-.4.5-.2h.3a.8.8 0 0 1 .5.6l.1.5v.1h-1.7v-.2H17h-.1l-.1-.3-.2-.3h-.7l-.2.3v.9l.3.3h.5l.2-.1.1-.2.4.1-.2.3-.3.2a1 1 0 0 1-.4 0Zm2.7-1.7-.3.1-.1-.2h-.7v.4l.3.1.3.1.4.2.2.4-.1.3-.3.3a1 1 0 0 1-.5 0 1 1 0 0 1-.5-.1.6.6 0 0 1-.3-.4h.3l.2.2h.7l.1-.3c0-.1 0-.2-.3-.3H18a.9.9 0 0 1-.5-.3l-.1-.4V50l.4-.2h.9l.2.4Z"/><mask id="g" width="20" height="12" x="3" y="58" maskUnits="userSpaceOnUse" style="mask-type:luminance"><path fill="#fff" d="M17 58.8H9.3a5.3 5.3 0 1 0 0 10.5h7.9a5.3 5.3 0 1 0 0-10.5Z"/></mask><g mask="url(#g)"><path stroke="#6A7176" stroke-linecap="round" stroke-linejoin="round" stroke-width=".7" d="M10.2 67a4 4 0 0 1 3-1.3A4 4 0 0 1 16 67M14.6 63a1.5 1.5 0 1 1-3 0 1.5 1.5 0 0 1 3 0Z"/></g><path fill="#6A7176" d="M4.7 75.2v-2.8h1.5l.3.4.1.4-.1.5-.3.3-.6.1H5v-.3H6l.2-.3V73l-.2-.2H5v2.5h-.3Zm1.6 0L5.6 74H6l.7 1.3h-.4Zm1.5 0a1 1 0 0 1-.5 0 1 1 0 0 1-.4-.5v-1.1l.4-.4.5-.2.3.1a.8.8 0 0 1 .5.5l.1.5v.2H7.1V74h1.4-.1v-.3l-.3-.3h-.7l-.2.3v.9l.3.3h.7l.2-.3.3.1-.2.3-.3.2a1 1 0 0 1-.4 0Zm2.1 0a1 1 0 0 1-.5 0 1 1 0 0 1-.4-.5v-1.1l.4-.4.5-.2.4.1.3.3.1.3h-.3v-.2l-.2-.1h-.6l-.3.3v.9l.3.3h.6l.2-.3h.3v.3l-.4.3a1 1 0 0 1-.4 0Zm1.2 0v-2.1h.3v2.1H11Zm.1-2.5h-.1l-.1-.2v-.2h.4V72.6l-.2.1Zm.6 3.3v-3h.3v.4l.2-.1.2-.2h.3a.8.8 0 0 1 .8.5l.1.6-.1.5c0 .2-.2.3-.3.4l-.5.2-.3-.1-.2-.2-.1-.1V76h-.4Zm1-1 .3-.1.2-.3v-.9l-.2-.3h-.3a.6.6 0 0 0-.6.3v.9l.2.3h.4Zm1.2.2v-2.1h.4v2.1H14Zm.2-2.5H14v-.4h.4V72.6l-.2.1Zm1.5 2.6a1 1 0 0 1-.9-.5l-.1-.6v-.6l.4-.4.5-.2.4.1a.8.8 0 0 1 .5.5v.7H15V74h1.5-.2v-.3l-.2-.3h-.7l-.2.3-.1.3V74.6l.3.3h.8l.1-.3.3.1-.1.3-.3.2a1 1 0 0 1-.4 0Zm1.5-1.4v1.3h-.3v-2.1h.3v.3l.3-.3h.7l.3.3v1.8h-.2V74c0-.2 0-.3-.2-.4l-.3-.2-.3.1-.2.2-.1.3Zm2.7-.8v.2h-1v-.2h1Zm-.8-.5h.4v2.3h.3a.7.7 0 0 0 .1 0v.3h-.2l-.4-.1a.5.5 0 0 1-.2-.4v-2.1Zm2.6 1h-.3l-.1-.2h-.7v.4l.3.2h.3c.2 0 .3.2.4.3l.2.3-.1.4-.3.2a1 1 0 0 1-.5 0 1 1 0 0 1-.5 0 .6.6 0 0 1-.3-.5h.3l.2.2h.7l.1-.3c0-.1 0-.2-.3-.3h-.3a.9.9 0 0 1-.5-.3l-.1-.3v-.4l.4-.2h.9l.2.5Z"/><mask id="h" width="20" height="11" x="3" y="82" maskUnits="userSpaceOnUse" style="mask-type:luminance"><path fill="#fff" d="M17 82.1H9.3a5.3 5.3 0 1 0 0 10.5h7.9a5.3 5.3 0 1 0 0-10.5Z"/></mask><g mask="url(#h)"><path stroke="#6A7176" stroke-linecap="round" stroke-linejoin="round" stroke-width=".7" d="M15.9 88.5a3 3 0 1 1-4-3.8m4 1.5.2 1s0 0 0 0v.2H13.1V84.5s0 0 0 0h.2a3 3 0 0 1 2.5 1.7Z"/></g><path fill="#6A7176" d="m6.6 98.6-.5-.1a.9.9 0 0 1-.4-.3l-.1-.4h.3l.1.3.3.1H7s.2 0 .2-.2l.1-.2v-.3l-.3-.1-.3-.1-.3-.1c-.2 0-.4-.2-.5-.3a.6.6 0 0 1-.2-.5V96l.4-.3h1l.4.3.1.4h-.3c0-.2-.1-.3-.2-.3a.8.8 0 0 0-.5-.2l-.3.1-.2.2-.1.2v.3l.3.1h.2l.3.2h.3l.2.2.3.2v.8l-.4.3h-.6ZM9 96.4v.3H7.8v-.3h1.1Zm-.8-.5h.4v2.3h.2a.7.7 0 0 0 .2 0v.3H8.2A.5.5 0 0 1 8 98V96Zm1.8 2.7h-.4a.6.6 0 0 1-.3-.3v-.7l.2-.1.3-.1a3.4 3.4 0 0 1 .6-.1h.2V97l-.1-.3-.3-.1a.6.6 0 0 0-.6.3l-.3-.1a.8.8 0 0 1 .5-.5 1.3 1.3 0 0 1 .6 0h.3l.2.3V98.5h-.3v-.3l-.1.2-.2.1h-.3Zm0-.3h.3l.2-.3.1-.2v-.3H9.8l-.2.1-.2.1v.5l.4.1Zm2.3-2v.4h-1.1v-.3h1.1Zm-.8-.4h.3v2l.1.3h.2a.7.7 0 0 0 .2 0v.3H11.5a.5.5 0 0 1-.2-.5V96Zm1.1 2.6v-2.1h.3v2.1h-.3Zm.2-2.5h-.2V95.7l.2-.1h.2v.4h-.2Zm2 .9h-.2l-.2-.2h-.6l-.1.3v.2h.3l.4.2c.2 0 .3 0 .4.2l.1.3v.4l-.4.2a1 1 0 0 1-.4 0 1 1 0 0 1-.6 0 .6.6 0 0 1-.2-.5h.3s0 .2.2.2l.3.1.4-.1V98c0-.2 0-.3-.2-.3l-.4-.1a.9.9 0 0 1-.4-.2l-.2-.4.1-.3.3-.3h.4l.5.1c.2.1.2.2.3.4Zm1.4-.5v.3H15v-.3h1Zm-.8-.5h.3v2.3h.3a.7.7 0 0 0 .1 0l.1.3h-.7a.5.5 0 0 1-.1-.5V96Zm1 2.6v-2.1h.4v2.1h-.3Zm.3-2.5h-.2V95.7l.2-.1h.1v.4h-.1Zm1.4 2.6a1 1 0 0 1-.5-.2 1 1 0 0 1-.3-.3l-.2-.6c0-.2 0-.4.2-.6 0-.2.2-.3.3-.4l.5-.1h.4l.3.3.2.3h-.4V97l-.2-.2h-.6l-.3.3v.9l.3.3h.6l.2-.3h.4l-.2.4-.3.2a1 1 0 0 1-.4 0Zm2.7-1.7h-.3l-.2-.2h-.6l-.1.3v.2h.3l.4.2c.2 0 .3 0 .4.2l.1.3v.4l-.4.2a1 1 0 0 1-.4 0 1 1 0 0 1-.6 0 .6.6 0 0 1-.2-.5h.3s0 .2.2.2l.3.1.4-.1V98c0-.2 0-.3-.2-.3l-.4-.1a.9.9 0 0 1-.4-.2L19 97l.1-.3.3-.3h.4l.5.1c.2.1.2.2.3.4Z"/><mask id="i" width="20" height="11" x="3" y="105" maskUnits="userSpaceOnUse" style="mask-type:luminance"><path fill="#fff" d="M17 105.4H9.3a5.3 5.3 0 1 0 0 10.6h7.9a5.3 5.3 0 0 0 0-10.6Z"/></mask><g stroke="#6A7176" stroke-linecap="round" stroke-linejoin="round" stroke-width=".7" mask="url(#i)"><path d="m12.4 112.9.2.4a.7.7 0 0 0 1.2 0l.1-.4a.7.7 0 0 1 .8-.4h.4a.7.7 0 0 0 .7-.7l-.1-.3-.3-.4a.7.7 0 0 1 0-.8l.3-.4a.7.7 0 0 0-.6-1h-.9a.7.7 0 0 1-.3-.4l-.1-.4a.7.7 0 0 0-1.2 0l-.2.4a.7.7 0 0 1-.7.4h-.8a.7.7 0 0 0-.3 1l.3.4a.7.7 0 0 1 0 .8l-.3.4a.7.7 0 0 0 .6 1h.5a.7.7 0 0 1 .7.4Z"/><path d="M13.2 111.6a.9.9 0 1 0 0-1.8.9.9 0 0 0 0 1.8Z"/></g><path fill="#6A7176" d="m7.4 122-.6-.2a.9.9 0 0 1-.3-.3l-.2-.4h.4v.3l.3.1a1 1 0 0 0 .7 0l.3-.1v-.6l-.2-.1h-.3l-.4-.2c-.2 0-.4-.2-.5-.3a.6.6 0 0 1-.2-.4l.1-.5.4-.2.5-.1h.5l.3.3.2.4H8c0-.1 0-.2-.2-.3a.8.8 0 0 0-.4-.1H7l-.2.2v.5l.3.1.2.1.3.1h.2l.3.2.2.2v.8l-.4.3-.5.1Zm2.2 0a1 1 0 0 1-.5-.2 1 1 0 0 1-.3-.4l-.2-.6.1-.6.4-.4.5-.1h.3l.3.2.2.4.1.5v.1H9v-.3h1.4l-.1.1v-.4l-.3-.2-.3-.1a.6.6 0 0 0-.6.3v1l.3.2.3.1h.3l.2-.1v-.2h.4l-.2.4-.3.1a1 1 0 0 1-.4.1Zm2.2-2.3v.3h-1.1v-.3h1Zm-.8-.5h.3v2.3h.4l.1.4h-.2c-.2 0-.4 0-.5-.2a.5.5 0 0 1-.1-.4v-2.1Zm2 .5v.3H12v-.3H13Zm-.8-.5h.4v2.3H13l.2.4h-.2c-.3 0-.4 0-.5-.2a.5.5 0 0 1-.2-.4v-2.1Zm1.1 2.7v-2.2h.4v2.2h-.4Zm.2-2.5-.2-.1V119h.4V119.3h-.2Zm1 1.2v1.3H14v-2.2h.3v.3l.3-.2.4-.1h.3l.3.3v1.9h-.2v-1.4c0-.1 0-.3-.2-.4l-.3-.1h-.3l-.2.3v.3Zm2.6 2.1a1 1 0 0 1-.6-.1 1 1 0 0 1-.3-.3l.3-.2v.1l.3.2h.3l.4-.1.2-.4v-.4l-.2.1-.2.2h-.8a.9.9 0 0 1-.3-.5l-.1-.5.1-.6c0-.2.2-.3.3-.4l.5-.1h.4l.1.2.1.2v-.4h.4v2.2l-.1.5-.4.2-.4.1Zm0-1.2c.2 0 .3 0 .4-.2l.2-.5v-.4l-.3-.3-.3-.1h-.4l-.2.4v.8l.2.2.4.1Zm2.8-1.3h-.3l-.1-.1-.3-.1h-.3l-.2.3.1.2.3.1h.3l.4.3.2.4-.1.3-.3.2a1 1 0 0 1-.5.1 1 1 0 0 1-.5-.1.6.6 0 0 1-.3-.5h.3l.2.2.3.1h.4l.1-.3c0-.2 0-.3-.3-.3l-.3-.1a.9.9 0 0 1-.5-.2l-.1-.4v-.3l.4-.2.4-.1.5.1.2.4Z"/><mask id="j" width="20" height="12" x="3" y="128" maskUnits="userSpaceOnUse" style="mask-type:luminance"><path fill="#fff" d="M17 128.8H9.3a5.3 5.3 0 1 0 0 10.5h7.9a5.3 5.3 0 0 0 0-10.5Z"/></mask><g mask="url(#j)"><path stroke="#6A7176" stroke-linecap="round" stroke-linejoin="round" stroke-width=".7" d="M13.1 132.2v1.8l1.2.6m1.8-.6a3 3 0 1 1-6 0 3 3 0 0 1 6 0Z"/></g><path fill="#6A7176" d="M4.5 142.6v-.3h2.2v.3h-1v2.6h-.3v-2.6h-.9Zm3 2.6a1 1 0 0 1-.4-.1 1 1 0 0 1-.4-.4l-.1-.6.1-.6.3-.4H8a.8.8 0 0 1 .5.5v.6H6.9v-.3h1.5l-.2.1v-.3l-.2-.3-.4-.1a.6.6 0 0 0-.5.4v.9l.2.2.4.1h.2l.2-.1.1-.2h.3l-.1.4-.3.2a1 1 0 0 1-.4 0Zm1.3 0V143H9v.4l.3-.3h.7l.2.3.3-.3h.8l.2.6v1.5h-.3v-1.5c0-.1 0-.2-.2-.3l-.3-.1-.3.1-.1.4v1.4H10v-1.8l-.4-.1h-.2a.5.5 0 0 0-.3.5v1.4h-.3Zm3.2.8v-3h.3v.4l.2-.2.2-.1h.3a.8.8 0 0 1 .8.4l.1.6v.6l-.4.4-.5.1h-.3l-.2-.2-.1-.1v1H12Zm1-1 .3-.2c.1 0 .2-.1.2-.3l.1-.4v-.4l-.3-.3-.3-.1a.6.6 0 0 0-.6.4v.8c0 .2.1.3.2.3l.4.1Zm2.2-2.7h.4l1 2.4 1-2.4h.4v2.9h-.3V143l-1 2.2h-.2l-1-2.2v2.2h-.3v-2.9Zm4 3-.4-.1a.6.6 0 0 1-.3-.3l-.1-.3v-.3l.3-.2.2-.1a3.4 3.4 0 0 1 .7-.1h.1v-.5l-.4-.1a.6.6 0 0 0-.5.3h-.3a.8.8 0 0 1 .5-.5 1.3 1.3 0 0 1 .6 0h.2l.2.3.1.4v1.4h-.3v-.3l-.1.1-.2.2H19Zm0-.4h.3l.2-.2v-.6h-.2l-.1.1H19l-.2.2v.5h.4Zm1.3.3V143h.4v2.2h-.4Zm.2-2.5h-.2v-.4h.4V142.6h-.2Zm1-.4v2.9h-.4v-2.9h.3Z"/><mask id="k" width="20" height="11" x="3" y="152" maskUnits="userSpaceOnUse" style="mask-type:luminance"><path fill="#fff" d="M17 152H9.3a5.3 5.3 0 0 0 0 10.6h7.9a5.3 5.3 0 1 0 0-10.5Z"/></mask><g mask="url(#k)"><path stroke="#6A7176" stroke-linecap="round" stroke-linejoin="round" stroke-width=".7" d="m10.5 156.1.1-1 .4-.3h4.3c.2 0 .3.2.4.4V158.6c0 .2-.3.3-.5.4h-.7l-.3.1-.3.1-.1.2-.5.6-.1.2H13l-.1-.2-.5-.6-.2-.2h-.2l-.3-.1h-.7a.9.9 0 0 1-.5-.5V156Z"/></g><path fill="#6A7176" d="m7.5 168.6-.6-.1a.9.9 0 0 1-.3-.3l-.2-.4h.4v.2l.3.2h.7l.3-.2v-.5l-.2-.2h-.3l-.4-.2-.5-.2a.6.6 0 0 1-.2-.5l.1-.4.4-.3.5-.1.5.1.3.3.2.4H8c0-.2 0-.3-.2-.4a.8.8 0 0 0-.4 0H7l-.2.1v.5l.3.2h.2l.3.1.2.1.3.2.2.2v.7c-.1.2-.2.3-.4.3l-.5.2Zm2.7-1v-1.2h.3v2.1h-.3v-.4c0 .2-.2.2-.3.3l-.4.1h-.3a.6.6 0 0 1-.3-.3v-1.8h.3V168l.4.1a.6.6 0 0 0 .5-.2v-.4Zm.7 1.7v-3h.4v.4l.1-.1.2-.2h.3a.8.8 0 0 1 .8.4l.1.6v.6l-.4.4-.5.2-.3-.1-.2-.2-.1-.1v1.1h-.4Zm1-1c.1 0 .2 0 .3-.2.1 0 .2-.1.2-.3l.1-.4v-.4l-.3-.3h-.7l-.2.3v.9l.2.3h.4Zm1.3 1v-3h.3v.4l.1-.1.2-.2h.3a.8.8 0 0 1 .8.4l.1.6v.6l-.4.4-.5.2-.3-.1-.2-.2v-.1h-.1v1.1h-.3Zm.9-1c.1 0 .2 0 .3-.2.1 0 .2-.1.2-.3l.1-.4v-.4l-.3-.3h-.3a.6.6 0 0 0-.6.3v.9l.3.3h.3Zm2.1.3a1 1 0 0 1-.5-.2 1 1 0 0 1-.3-.4l-.1-.6v-.5l.4-.4.5-.2c.2 0 .4 0 .5.2.2 0 .3.2.4.4l.1.5-.1.6c0 .2-.2.3-.4.4a1 1 0 0 1-.5.2Zm0-.3c.2 0 .3 0 .4-.2.1 0 .2-.1.2-.3v-.8l-.2-.3h-.7l-.2.3a1.2 1.2 0 0 0 0 .8c0 .2 0 .3.2.3l.3.2Zm1.3.2v-2.1h.3v.3l.3-.3h.5v.3a1.8 1.8 0 0 0-.2 0h-.3l-.2.2V168.5h-.4Zm2.4-2.1v.2h-1.1v-.2h1Zm-.8-.6h.3v2.3l.3.1a.8.8 0 0 0 .2 0v.3h-.2l-.4-.1a.5.5 0 0 1-.2-.4v-2.2Z"/><mask id="l" width="442" height="286" x="26" y="5" maskUnits="userSpaceOnUse" style="mask-type:luminance"><path fill="#fff" d="M462.5 5.3h-431a5.3 5.3 0 0 0-5.2 5.2v274.6c0 3 2.3 5.3 5.2 5.3h431c2.9 0 5.2-2.4 5.2-5.3V10.5c0-2.9-2.3-5.2-5.2-5.2Z"/></mask><g mask="url(#l)"><path fill="#fff" d="M462.5 5.3h-431a5.3 5.3 0 0 0-5.2 5.2v274.6c0 3 2.3 5.3 5.2 5.3h431c2.9 0 5.2-2.4 5.2-5.3V10.5c0-2.9-2.3-5.2-5.2-5.2Z"/><path fill="#fff" fill-opacity=".8" d="M26.3 5.3h441.4v21H26.3v-21Z"/><path fill="#EAEFF2" d="M467.7 26.1H26.3v.3h441.4v-.3Z"/><path fill="#35383B" d="M237.3 18h-1l1.8-4.7h1l1.7 4.8h-1l-1.2-3.8-1.3 3.8Zm0-1.8h2.5v.7h-2.5v-.7Zm4.7-3v4.9h-.8v-4.8h.8Zm.6 4.9v-3.6h.9V18h-.9Zm.4-4.1s-.2 0-.3-.2a.4.4 0 0 1-.1-.3l.1-.3.3-.1h.4l.1.4-.1.3-.4.2Zm2.1 4.1h-.6a1 1 0 0 1-.4-.4 1 1 0 0 1-.2-.6l.1-.5.3-.4.5-.1.5-.1a25.6 25.6 0 0 0 .8-.2V15.2l-.5-.1-.5.1-.3.3h-.8l.3-.6.6-.4h1.2l.4.2c.2 0 .3.2.4.4l.1.6V18h-.8v-.5a1 1 0 0 1-.6.5h-.5Zm.2-.6h.5l.3-.4v-.7a2.7 2.7 0 0 1-.5.1h-.2l-.3.1-.3.2v.2l.1.4.4.1Zm5.2-2h-.8l-.2-.3a.7.7 0 0 0-.5-.1h-.4l-.2.4.1.2.4.2.6.1c.4 0 .6.2.8.4.2.1.2.3.2.6 0 .2 0 .4-.2.6 0 .2-.3.3-.5.4a2 2 0 0 1-.8.1c-.4 0-.8 0-1-.2-.3-.2-.5-.5-.5-.8h.8l.2.3.5.1.5-.1.2-.3c0-.2-.2-.4-.5-.4l-.6-.2c-.4 0-.6-.2-.8-.3a.9.9 0 0 1-.2-.7c0-.2 0-.4.2-.6l.5-.3.7-.2c.4 0 .8.1 1 .3.3.2.4.4.5.7Zm2 2.6c-.3 0-.6 0-.8-.2-.3-.1-.5-.4-.6-.6-.2-.3-.3-.6-.3-1s.1-.7.3-1a1.6 1.6 0 0 1 1.4-.9l.7.1.5.4c.1.1.3.3.3.5l.2.8v.3h-3V16h2.6l-.4.2-.1-.5c0-.2-.2-.3-.3-.4a.8.8 0 0 0-.5-.1l-.4.1c-.2.1-.3.2-.3.4l-.1.4v.4l.1.6c0 .2.2.3.3.4h.8a.7.7 0 0 0 .5-.4l.7.1-.2.6-.6.3a2 2 0 0 1-.7.1Zm5-2.7-.8.1-.2-.3a.7.7 0 0 0-.5-.1h-.4l-.2.4.1.2.4.2.6.1c.4 0 .6.2.8.4.2.1.2.3.2.6l-.1.6-.6.4a2 2 0 0 1-.8.1c-.4 0-.8 0-1-.2-.3-.2-.5-.5-.5-.8h.8l.2.3.5.1.5-.1.2-.3c0-.2-.2-.4-.5-.4l-.6-.2c-.4 0-.6-.2-.8-.3a.9.9 0 0 1-.2-.7c0-.2 0-.4.2-.6l.5-.3.7-.2c.4 0 .8.1 1 .3.3.2.4.4.5.7Z"/><path stroke="#6A7176" stroke-linecap="round" stroke-linejoin="round" stroke-width=".7" d="M457.2 15.8h2.7m-3.3-1.3h4m-2.7 2.7h1.3"/><mask id="m" width="432" height="19" x="31" y="31" maskUnits="userSpaceOnUse" style="mask-type:luminance"><path fill="#fff" d="M31.5 34.2c0-1.5 1.2-2.7 2.7-2.7h425.7c1.4 0 2.6 1.2 2.6 2.7v13.1c0 1.5-1.2 2.6-2.6 2.6H34.2a2.6 2.6 0 0 1-2.7-2.6V34.2Z"/></mask><g mask="url(#m)"><path fill="#F4F7FA" d="M31.5 34.2c0-1.5 1.2-2.7 2.7-2.7h425.7c1.4 0 2.6 1.2 2.6 2.7v13.1c0 1.5-1.2 2.6-2.6 2.6H34.2a2.6 2.6 0 0 1-2.7-2.6V34.2Z"/><path fill="#6A7176" d="M41 42.8c-.3 0-.5 0-.7-.2-.2 0-.4-.2-.5-.4l-.2-.6h.6v.4l.4.2h.8c.2 0 .3-.1.3-.2l.1-.4v-.2l-.3-.2-.4-.1-.4-.2c-.3 0-.6-.2-.8-.3a.8.8 0 0 1-.2-.7c0-.2 0-.4.2-.6l.4-.3.7-.2c.3 0 .5 0 .7.2.2 0 .4.2.5.3l.2.6h-.6c0-.2 0-.3-.2-.4a1 1 0 0 0-.6-.2 1 1 0 0 0-.4.1l-.3.2v.6l.3.2h.3l.4.2h.4l.3.3c.2 0 .2.2.3.3l.1.4a1 1 0 0 1-.6 1l-.8.2Zm3 0-.6-.2c-.3-.1-.4-.3-.5-.5l-.2-.8c0-.3 0-.6.2-.8 0-.2.2-.4.4-.5l.7-.2h.5a1.1 1.1 0 0 1 .7.8l.1.6v.2H43V41h2l-.2.2-.1-.5-.3-.3a.7.7 0 0 0-.4-.1h-.4l-.2.4-.1.4v.8l.4.3.4.1h.3l.2-.2.1-.2h.6c0 .2-.1.4-.3.5a1 1 0 0 1-.4.3h-.5Zm2.5 0-.5-.1a.8.8 0 0 1-.3-.3l-.1-.5v-.4l.3-.3h.4l.4-.2a20.9 20.9 0 0 0 .6 0V40.3l-.5-.1h-.4l-.2.3h-.6l.3-.5.4-.2a1.6 1.6 0 0 1 .9 0h.4l.2.4.1.5v1.9h-.5v-.4l-.2.2-.3.2a1 1 0 0 1-.4 0Zm.2-.5h.3l.3-.3v-.7l-.2.1a10.7 10.7 0 0 1-.7.1l-.2.2v.5l.5.1Zm1.8.4v-2.9h.5v.5l.3-.4.5-.1a1.8 1.8 0 0 1 .2 0v.5H49.4l-.3.3v2.1h-.6Zm2.9 0-.7-.1c-.2-.2-.4-.3-.5-.6l-.2-.7.2-.8.5-.5.7-.2.6.1a1 1 0 0 1 .6.9H52a.6.6 0 0 0-.3-.5H51l-.3.4v1.1c0 .2.2.3.3.4h.8l.2-.4h.6a1 1 0 0 1-.6.8l-.6.2Zm2.1-1.7v1.7H53v-3.8h.5v1.4l.3-.4.6-.1.5.1c.2.1.3.2.3.4l.2.6v1.8h-.6v-1.8c0-.2 0-.3-.2-.4a.6.6 0 0 0-.4-.2h-.4l-.2.3v.4Z"/><mask id="n" width="14" height="14" x="446" y="34" maskUnits="userSpaceOnUse" style="mask-type:luminance"><path fill="#fff" d="M459.9 40.7a6.6 6.6 0 1 0-13.2 0 6.6 6.6 0 0 0 13.2 0Z"/></mask><g mask="url(#n)"><path stroke="#6A7176" stroke-linecap="round" stroke-linejoin="round" stroke-width=".7" d="m456 43.4-1.8-1.8m.6-1.5a2 2 0 1 1-4.1 0 2 2 0 0 1 4 0Z"/></g></g><mask id="o" width="42" height="12" x="31" y="57" maskUnits="userSpaceOnUse" style="mask-type:luminance"><path fill="#fff" d="M31.5 60.4c0-1.4 1.2-2.6 2.7-2.6h36c1.5 0 2.7 1.2 2.7 2.6v5.3c0 1.4-1.2 2.6-2.6 2.6H34.2a2.6 2.6 0 0 1-2.7-2.6v-5.3Z"/></mask><g mask="url(#o)"><path fill="#F8E9D2" d="M31.5 60.4c0-1.4 1.2-2.6 2.7-2.6h36c1.5 0 2.7 1.2 2.7 2.6v5.3c0 1.4-1.2 2.6-2.6 2.6H34.2a2.6 2.6 0 0 1-2.7-2.6v-5.3Z"/><path stroke="#6A7176" stroke-linecap="round" stroke-linejoin="round" stroke-width=".7" d="m38.6 62-2 2.1-1-1"/><path fill="#35383B" d="M43.2 64.7h-.4l1.2-3.3h.4l1.3 3.3h-.5l-1-2.8-1 2.8Zm.2-1.3H45v.4h-1.7v-.4Zm2.9-2v3.3h-.4v-3.3h.4Zm.9 0v3.3h-.4v-3.3h.4Zm1.5 3.3v-2.5h.4v.4l.3-.3.4-.1a2.8 2.8 0 0 1 .2 0v.4a1.3 1.3 0 0 0-.2 0h-.4l-.2.2V64.7h-.5Zm2.5 0-.6-.1a1 1 0 0 1-.4-.4l-.2-.7c0-.3 0-.5.2-.7 0-.2.2-.4.4-.5l.6-.1h.4a1 1 0 0 1 .6.6v.8h-1.9v-.3H52 52l-.1-.4-.3-.3a.6.6 0 0 0-.3 0h-.4l-.3.3V64l.3.3.4.1h.3l.2-.2.1-.2.4.1-.2.4-.3.2h-.5Zm2.4 0a1 1 0 0 1-.6-.1l-.4-.5-.1-.6.1-.7.4-.5.6-.1h.5l.3.3.2.5h-.4v-.3l-.3-.1h-.7l-.2.4-.1.5v.5l.3.3.4.1.4-.1.2-.3h.4l-.1.4-.4.3a1 1 0 0 1-.5 0Zm1.4 0v-2.5h.4v2.5H55Zm.2-3H55l-.1-.2v-.2h.5v.4h-.2Zm.7 4v-3.5h.3v.4l.2-.2.2-.2h.4a1 1 0 0 1 1 .6v1.4l-.4.4a1 1 0 0 1-.6.2l-.4-.1a.7.7 0 0 1-.2-.2l-.1-.2v1.3h-.4Zm1-1.3.5-.1.2-.4V63l-.2-.4a.6.6 0 0 0-.4 0h-.4c-.2.1-.2.2-.3.4v1l.3.3.4.1Zm1.5.3v-2.5h.4v2.5h-.4Zm.2-3h-.2v-.4h.4l.1.2v.2h-.3Zm1.8 3-.7-.1a1 1 0 0 1-.4-.4l-.1-.7.1-.7.4-.5.6-.1h.4l.4.2.2.4.1.6v.2h-2v-.3h1.8-.2V63l-.3-.3a.6.6 0 0 0-.4 0H60l-.2.3-.1.4v.7l.4.3.4.1h.2l.3-.2V64l.5.1-.2.4-.4.2h-.4Zm1.7-1.5v1.5h-.3v-2.5h.3v.4l.3-.3.5-.1h.4c.2.1.3.2.3.4l.1.5v1.6h-.3v-1.6c0-.2 0-.3-.2-.4a.5.5 0 0 0-.4-.2h-.3l-.3.3v.4Zm3.2-1v.3H64v-.3h1.3Zm-.9-.6h.4V64.3h.3a.7.7 0 0 0 .2 0v.4H65l-.5-.1a.6.6 0 0 1-.2-.5v-2.5Zm3 1.2h-.3l-.2-.2-.4-.1-.3.1-.2.3.1.2.3.1.4.1c.2 0 .4.2.5.3l.2.4c0 .2 0 .3-.2.4l-.3.3h-.5l-.6-.1a.7.7 0 0 1-.4-.5h.4l.2.2.4.1h.4l.2-.4c0-.1-.1-.3-.4-.3l-.4-.1a1 1 0 0 1-.5-.3.6.6 0 0 1-.2-.4l.1-.4.4-.2.4-.1.6.1c.2.1.3.3.3.5Z"/></g><mask id="p" width="56" height="12" x="78" y="57" maskUnits="userSpaceOnUse" style="mask-type:luminance"><path fill="#fff" d="M78.2 60.4c0-1.4 1.2-2.6 2.6-2.6h50c1.4 0 2.6 1.2 2.6 2.6v5.3c0 1.4-1.2 2.6-2.7 2.6H80.8a2.6 2.6 0 0 1-2.6-2.6v-5.3Z"/></mask><g mask="url(#p)"><path fill="#fff" d="M78.2 60.4c0-1.4 1.2-2.6 2.6-2.6h50c1.4 0 2.6 1.2 2.6 2.6v5.3c0 1.4-1.2 2.6-2.7 2.6H80.8a2.6 2.6 0 0 1-2.6-2.6v-5.3Z"/><path fill="#35383B" d="M83.8 64.7v-2.5h.3v.4l.3-.3.4-.1h.4l.3.4.3-.3.5-.1c.2 0 .4 0 .5.2.2.1.3.3.3.6v1.7h-.4V63c0-.2 0-.3-.2-.4a.6.6 0 0 0-.3 0h-.5l-.1.5v1.6h-.4V63l-.1-.4h-.7a.6.6 0 0 0-.3.5v1.6h-.3Zm3.9 1a.8.8 0 0 1-.3-.1l.1-.3h.4l.2-.4v-.2l-.8-2.5h.4l.7 2 .7-2h.4l-1 2.9-.2.3-.3.2h-.3Zm2.1-1v-2.5h.4v.4l.3-.3.4-.1h.4l.2.4.4-.3.4-.1c.2 0 .4 0 .6.2l.2.6v1.7h-.4V63l-.1-.4a.6.6 0 0 0-.4 0h-.4l-.2.5v1.6h-.4v-2.1h-.7a.6.6 0 0 0-.3.5v1.6h-.4Zm4.5 0a1 1 0 0 1-.4 0 .7.7 0 0 1-.3-.3l-.1-.4v-.4l.3-.2h.3a4 4 0 0 1 .7-.2h.2V62.6h-.4a.7.7 0 0 0-.7.3l-.4-.1a.9.9 0 0 1 .7-.6 1.5 1.5 0 0 1 .6 0l.3.1.3.3v2.1h-.3v-.3l-.2.1-.2.2a1 1 0 0 1-.4 0Zm0-.3h.5l.2-.3v-.7.1H94.4l-.3.2H94v.3l.1.3.4.1Zm1.7.3v-2.5h.3v2.5H96Zm.2-3H96l-.1-.2v-.2h.5v.4h-.2Zm1-.3v3.3h-.4v-3.3h.4Zm2.4 4.2-.8-.1-.7-.4-.4-.7-.1-.9.1-.8.4-.7.6-.4a2.4 2.4 0 0 1 1.7 0 1.6 1.6 0 0 1 1 1v1.6l-.3.3-.4.1h-.3l-.2-.1-.1-.2-.2.1-.2.2h-.3l-.5-.1a.9.9 0 0 1-.3-.4V63l.4-.4.5-.1a.7.7 0 0 1 .5.2v-.2h.4v1.7l.3.1h.2l.2-.4v-.6a1.5 1.5 0 0 0-.2-.9l-.3-.3-.5-.2-.5-.1-.7.1c-.2 0-.4.2-.5.4-.2.1-.3.3-.3.5l-.2.7c0 .3 0 .6.2.8 0 .2.1.4.3.5l.5.4a2.2 2.2 0 0 0 1.4 0h.2l.1.2h-.3a3.2 3.2 0 0 1-.7.2Zm-.2-1.3.4-.1c.1 0 .2-.1.2-.3v-.8l-.2-.3H99l-.2.3v.8l.2.3h.3Zm3.5.5c-.3 0-.5 0-.7-.2a1 1 0 0 1-.4-.4l-.1-.7.1-.7.4-.5.6-.1h.4l.3.2c.2.1.2.3.3.4l.1.6v.2h-2v-.3h1.8-.2V63l-.3-.3a.6.6 0 0 0-.4 0 .7.7 0 0 0-.6.3l-.1.4v.7l.3.3.5.1h.2l.2-.2c.1 0 .2 0 .2-.2l.4.1-.2.4-.4.2h-.4Zm1.5-2.6.6 1 .6-1h.5l-.8 1.3.8 1.2h-.5l-.6-1-.6 1h-.4l.8-1.2-.8-1.3h.4Zm2.8 2.6a1 1 0 0 1-.5-.1.7.7 0 0 1-.3-.3l-.1-.4v-.4l.3-.2h.3a3.9 3.9 0 0 1 .7-.2h.3V63l-.1-.4h-.4a.7.7 0 0 0-.7.3l-.3-.1a.9.9 0 0 1 .6-.6 1.5 1.5 0 0 1 .7 0l.3.1.2.3.1.5v1.6h-.4v-.3l-.1.1-.3.2a1 1 0 0 1-.3 0Zm0-.4h.4l.2-.3.1-.3v-.4.1h-.6l-.3.2h-.2l-.1.3.1.3.4.1Zm1.6.3v-2.5h.4v.4l.3-.3.4-.1h.4l.3.4.3-.3.4-.1c.3 0 .4 0 .6.2l.2.6v1.7h-.4V63l-.1-.4a.6.6 0 0 0-.4 0h-.4l-.2.5v1.6h-.3V63l-.2-.4h-.6a.6.6 0 0 0-.3.5v1.6h-.4Zm3.8 1v-3.5h.4v.4l.1-.2.2-.2h.4a1 1 0 0 1 1 .6l.1.7-.1.7-.4.4a1 1 0 0 1-.6.2l-.4-.1a.7.7 0 0 1-.2-.2l-.1-.2v1.3h-.4Zm1-1.3.5-.1.2-.4.1-.4V63l-.3-.4a.6.6 0 0 0-.4 0 .6.6 0 0 0-.7.4v1l.3.3.4.1Zm2-3v3.3h-.4v-3.3h.4Zm1.5 3.4c-.2 0-.5 0-.6-.2a1 1 0 0 1-.4-.4l-.2-.7c0-.3 0-.5.2-.7 0-.2.2-.4.4-.5l.5-.1h.4a1 1 0 0 1 .6.6l.1.6v.2h-1.9v-.3h1.7-.2V63l-.3-.3a.6.6 0 0 0-.4 0h-.3l-.3.3V64l.3.3.4.1h.3l.2-.2.1-.2.4.1-.2.4-.3.2h-.5Zm1.7 0a.3.3 0 0 1-.3-.4v-.2h.5v.5h-.2Zm1.8 0a1 1 0 0 1-.6-.2l-.4-.5-.1-.6.1-.7.4-.5.6-.1h.5a.9.9 0 0 1 .5.8h-.4l-.1-.3-.2-.1h-.7l-.3.4v1l.3.3.4.1.4-.1.2-.3h.4c0 .1 0 .3-.2.4l-.3.3a1 1 0 0 1-.5 0Zm2.4 0c-.3 0-.5 0-.6-.2l-.4-.5-.2-.6c0-.3 0-.5.2-.7 0-.2.2-.4.4-.5l.6-.1.6.1.4.5.1.7-.1.6-.4.5-.6.2Zm0-.4.4-.1.2-.4.1-.4V63l-.3-.4a.7.7 0 0 0-.4 0h-.5l-.2.4a1.4 1.4 0 0 0 0 1l.3.3.4.1Zm1.5.3v-2.5h.4v.4l.2-.3.5-.1h.4l.2.4.3-.3.5-.1c.2 0 .4 0 .6.2l.2.6v1.7h-.4V63c0-.2 0-.3-.2-.4a.6.6 0 0 0-.3 0h-.4l-.2.5v1.6h-.4V63l-.1-.4H125.2a.6.6 0 0 0-.3.5v1.6h-.4Z"/></g><path stroke="#EAEFF2" stroke-width=".5" d="M80.8 58h50c1.3 0 2.4 1 2.4 2.4v5.3c0 1.4-1.1 2.5-2.5 2.5H80.8a2.5 2.5 0 0 1-2.5-2.5v-5.3c0-1.3 1.1-2.4 2.5-2.4Z"/><mask id="q" width="59" height="12" x="138" y="57" maskUnits="userSpaceOnUse" style="mask-type:luminance"><path fill="#fff" d="M138.6 60.4c0-1.4 1.2-2.6 2.6-2.6h52.6c1.4 0 2.6 1.2 2.6 2.6v5.3c0 1.4-1.2 2.6-2.6 2.6h-52.6a2.6 2.6 0 0 1-2.6-2.6v-5.3Z"/></mask><g mask="url(#q)"><path fill="#fff" d="M138.6 60.4c0-1.4 1.2-2.6 2.6-2.6h52.6c1.4 0 2.6 1.2 2.6 2.6v5.3c0 1.4-1.2 2.6-2.6 2.6h-52.6a2.6 2.6 0 0 1-2.6-2.6v-5.3Z"/><path fill="#35383B" d="M144.2 64.7v-2.5h.4v.4l.3-.3.4-.1h.4l.3.4.3-.3.5-.1c.2 0 .4 0 .5.2l.2.6v1.7h-.4V63l-.1-.4a.6.6 0 0 0-.4 0h-.4l-.1.5v1.6h-.4V63c0-.2 0-.3-.2-.4h-.6a.6.6 0 0 0-.3.5v1.6h-.4Zm4 1a.8.8 0 0 1-.3-.1v-.3h.4l.3-.4v-.2l-.9-2.5h.4l.7 2 .8-2h.4l-1 2.9-.3.3-.2.2h-.3Zm2-1v-2.5h.4v.4l.3-.3.4-.1h.5l.2.4.3-.3.5-.1c.2 0 .4 0 .5.2.2.1.3.3.3.6v1.7h-.4V63c0-.2 0-.3-.2-.4a.6.6 0 0 0-.3 0h-.4l-.2.5v1.6h-.4V63l-.1-.4h-.7a.6.6 0 0 0-.3.5v1.6h-.3Zm4.6 0a1 1 0 0 1-.4 0 .7.7 0 0 1-.4-.3v-.8l.2-.2h.4a3.9 3.9 0 0 1 .7-.2h.2V62.6h-.5a.7.7 0 0 0-.6.3l-.4-.1a.9.9 0 0 1 .6-.6 1.5 1.5 0 0 1 .7 0l.3.1.2.3.1.5v1.6h-.3v-.3l-.2.1-.2.2a1 1 0 0 1-.4 0Zm0-.3h.4l.3-.3v-.7.1h-.6l-.3.2h-.2v.6l.4.1Zm1.6.3v-2.5h.4v2.5h-.4Zm.2-3h-.2v-.4h.4l.1.2v.2h-.3Zm1-.3v3.3h-.3v-3.3h.4Zm.6 3.3v-.3l1-1.2a6.8 6.8 0 0 0 .6-.7v-.3a.5.5 0 0 0-.3-.5h-.6l-.2.3-.1.3h-.4l.1-.5.4-.4h1a1 1 0 0 1 .5 1.2l-.3.4-.4.5-.8.8h1.6v.4h-2.1Zm4.5.9-1-.1-.6-.4c-.1-.2-.3-.4-.3-.7l-.2-.9c0-.3 0-.6.2-.8 0-.3.2-.5.4-.7l.6-.4a2.4 2.4 0 0 1 1.6 0 1.6 1.6 0 0 1 1 1v1.6l-.3.3-.4.1h-.2l-.3-.1-.1-.2-.1.1-.2.2h-.3l-.5-.1a.9.9 0 0 1-.3-.4l-.1-.6V63l.4-.4.5-.1a.7.7 0 0 1 .6.2v-.2h.3V64l.1.2.2.1h.3l.1-.4v-.6a1.6 1.6 0 0 0-.2-.9l-.3-.3-.4-.2-.6-.1-.7.1a1.4 1.4 0 0 0-.8 1l-.1.6v.8l.4.5.6.4a2.2 2.2 0 0 0 1.4 0h.1l.1.2h-.2a3.2 3.2 0 0 1-.7.2Zm-.2-1.3.3-.1c.1 0 .2-.1.2-.3l.1-.4V63l-.3-.3h-.6l-.2.3v.8c0 .1 0 .2.2.3h.3Zm3.4.5c-.2 0-.5 0-.6-.2a1 1 0 0 1-.4-.4l-.2-.7c0-.3 0-.5.2-.7 0-.2.2-.4.4-.5l.5-.1h.4l.4.2.2.4.1.6v.2H165v-.3h1.7-.2V63l-.3-.3a.6.6 0 0 0-.4 0h-.4l-.2.3V64l.3.3.4.1h.3l.2-.2.1-.2.4.1-.2.4-.3.2h-.5Zm1.6-2.6.6 1 .6-1h.4l-.8 1.3.8 1.2h-.4l-.6-1-.6 1h-.5l.8-1.2-.8-1.3h.5Zm2.7 2.6a1 1 0 0 1-.4-.1.7.7 0 0 1-.3-.3l-.2-.4.1-.4.3-.2h.3a3.9 3.9 0 0 1 .7-.2h.2V62.6h-.5a.7.7 0 0 0-.6.3l-.4-.1a.9.9 0 0 1 .6-.6 1.5 1.5 0 0 1 .7 0l.3.1.2.3.1.5v1.6h-.3v-.3l-.2.1-.2.2a1 1 0 0 1-.4 0Zm0-.4h.4l.3-.3v-.7.1H170.3l-.3.2h-.2v.6l.5.1Zm1.6.3v-2.5h.4v.4l.3-.3.4-.1h.4l.3.4.3-.3.5-.1c.2 0 .4 0 .5.2.2.1.2.3.2.6v1.7h-.4V63l-.1-.4a.6.6 0 0 0-.4 0h-.4l-.1.5v1.6h-.4V63c0-.2 0-.3-.2-.4h-.6a.6.6 0 0 0-.3.5v1.6h-.4Zm3.8 1v-3.5h.4v.4l.2-.2.2-.2h.4a1 1 0 0 1 .9.6l.1.7-.1.7-.4.4a1 1 0 0 1-.5.2l-.4-.1a.7.7 0 0 1-.2-.2l-.2-.2v1.3h-.4Zm1.1-1.3.4-.1.3-.4V63c0-.2-.2-.3-.3-.4a.6.6 0 0 0-.4 0 .6.6 0 0 0-.6.4l-.1.5v.5l.3.3.4.1Zm1.9-3v3.3h-.4v-3.3h.4Zm1.5 3.4c-.2 0-.4 0-.6-.2a1 1 0 0 1-.4-.4l-.1-.7.1-.7c0-.2.2-.4.4-.5l.6-.1h.4a1 1 0 0 1 .6.6v.8h-1.9v-.3h1.8-.2V63l-.3-.3a.6.6 0 0 0-.4 0h-.4l-.3.3V64l.3.3.4.1h.3l.2-.2.2-.2.3.1c0 .2 0 .3-.2.4l-.3.2h-.5Zm1.7 0a.3.3 0 0 1-.3-.4l.1-.2h.4l.1.2v.3h-.3Zm1.8 0a1 1 0 0 1-.6-.2l-.4-.5V62.8l.4-.5.6-.1h.5a.9.9 0 0 1 .5.8h-.4v-.3l-.3-.1h-.6c-.2.1-.3.2-.3.4l-.1.5v.5l.3.3.4.1.4-.1.2-.3h.4l-.1.4-.4.3a1 1 0 0 1-.5 0Zm2.4 0a1 1 0 0 1-.6-.2 1 1 0 0 1-.4-.5l-.1-.6.1-.7.4-.5.6-.1.6.1.4.5.2.7-.2.6c0 .2-.2.4-.4.5l-.6.2Zm0-.4.4-.1.3-.4V63l-.3-.4a.7.7 0 0 0-.4 0h-.4l-.3.4v.9c0 .2.2.3.3.4l.4.1Zm1.5.3v-2.5h.4v.4l.3-.3.4-.1h.4l.3.4.3-.3.4-.1c.3 0 .5 0 .6.2l.2.6v1.7h-.4V63l-.1-.4a.6.6 0 0 0-.4 0h-.4l-.1.5v1.6h-.4V63c0-.2 0-.3-.2-.4h-.6a.6.6 0 0 0-.3.5v1.6h-.4Z"/></g><path stroke="#EAEFF2" stroke-width=".5" d="M141.2 58h52.6c1.4 0 2.5 1 2.5 2.4v5.3c0 1.4-1.1 2.5-2.5 2.5h-52.6a2.5 2.5 0 0 1-2.4-2.5v-5.3c0-1.3 1-2.4 2.4-2.4Z"/><path fill="#35383B" d="M31.8 82.4v-3.8h2.4v.5h-1.8v1.3H34v.5h-1.6v1.5h-.6Zm3.9.1c-.3 0-.6 0-.8-.2l-.4-.5-.2-.8c0-.3 0-.5.2-.8a1.2 1.2 0 0 1 1.2-.7l.7.2.4.5.2.8c0 .3 0 .6-.2.8a1.2 1.2 0 0 1-1.1.7Zm0-.5.4-.1.2-.4.1-.5v-.5l-.3-.3a.7.7 0 0 0-.4-.2c-.2 0-.4 0-.5.2l-.2.3-.1.5v.5l.3.4.5.1Zm1.7.4v-2.8h.5v.4l.3-.3.5-.2a1.8 1.8 0 0 1 .2 0v.6h-.6l-.3.3v2h-.6Zm4.2.1c-.3 0-.5 0-.7-.2l-.5-.5-.2-.8c0-.3 0-.5.2-.7.1-.3.3-.4.5-.6l.7-.2c.2 0 .4 0 .5.2a1 1 0 0 1 .6.8h-.5l-.1-.2-.2-.2h-.7c-.2.1-.2.2-.3.4l-.1.5v.6l.4.3.4.1.4-.1.2-.4h.5a1 1 0 0 1-.5.9l-.6.1Zm2.1-1.8v1.7h-.6v-3.8h.6v1.5c0-.2.2-.3.3-.4l.6-.2c.2 0 .3 0 .5.2l.3.3.2.6v1.8H45v-1.7c0-.2 0-.4-.2-.5a.6.6 0 0 0-.4-.2l-.4.1s-.2.1-.2.3l-.1.3Zm3.2 1.8h-.5a.8.8 0 0 1-.3-.4l-.1-.5v-.4l.3-.2.4-.1.4-.1a20.8 20.8 0 0 0 .6-.1V80l-.5-.1-.4.1-.2.3-.6-.1.3-.4c.1-.2.3-.2.4-.3a1.6 1.6 0 0 1 .9 0l.4.1.2.3.1.5v2h-.5V82l-.2.2-.3.1a1 1 0 0 1-.4.1Zm.1-.4.4-.1c.2 0 .2-.2.3-.3V81v.1h-.2a10.7 10.7 0 0 1-.7.2l-.2.1-.1.2c0 .2 0 .3.2.4h.3Zm3.2-2.5v.4h-1.6v-.4h1.6Zm-1.1-.7h.5v2.7l.1.3h.3a.8.8 0 0 0 .2 0v.5a1.1 1.1 0 0 1-.3 0l-.6-.1a.7.7 0 0 1-.2-.6V79Zm2.8.7v.4h-1.5v-.4h1.5Zm-1.1-.7h.6v3h.3a.8.8 0 0 0 .2 0l.1.5a1.1 1.1 0 0 1-.4 0l-.6-.1a.7.7 0 0 1-.2-.6V79Zm1.5 3.5v-2.8h.6v2.8h-.6Zm.3-3.3h-.2l-.1-.3v-.2l.3-.1h.3v.5l-.3.1Zm1.4 1.6v1.7h-.6v-2.8h.6v.5c0-.2.2-.3.3-.4l.5-.2c.2 0 .4 0 .6.2l.3.3.1.6v1.8h-.5v-1.7c0-.2 0-.4-.2-.5a.6.6 0 0 0-.4-.2l-.4.1s-.2.1-.2.3l-.1.3Zm3.6 2.9c-.4 0-.7 0-.9-.2a1 1 0 0 1-.4-.5l.5-.2.2.2.2.2h.4l.5-.1.2-.5v-.6l-.2.2-.2.2a1 1 0 0 1-.5.1c-.2 0-.4 0-.6-.2-.2 0-.3-.2-.4-.4l-.2-.8c0-.3 0-.6.2-.8 0-.2.2-.4.4-.5l.6-.2.5.1.2.2.2.2v-.4h.5v3l-.1.5a1 1 0 0 1-.5.4h-.6Zm0-1.7c.2 0 .4 0 .5-.2l.2-.7v-.5L58 80a.7.7 0 0 0-.5 0h-.4l-.2.4-.1.5v.5l.3.3.4.1Z"/><path stroke="#6A7176" stroke-linecap="round" stroke-linejoin="round" stroke-width=".7" d="m438.8 81.9-1.6 1.5m2.5-4-.5.4s0 0 0 0v.1h-.2l-1 .2-.4.2-.1.2c0 .1 0 .2.3.4l2 2 .3.2h.2l.2-.5.2-1s0 0 0 0v-.1l.1-.1.4-.4s0 0 0 0l.1-.1s0 0 0 0l.8-.3.3-.2v-.2l-.2-.4-1.4-1.4-.3-.2h-.2l-.2.4-.3.7s0 0 0 0 0 0 0 0l-.1.1Z"/><path fill="#35383B" d="M32.8 90a1 1 0 0 1-.6-.1l-.4-.5-.1-.6.1-.7c0-.2.2-.4.4-.5l.6-.1h.5l.3.3.2.4h-.4l-.1-.2-.2-.1h-.7l-.3.4v1l.3.3.4.1.4-.1.2-.3h.4c0 .1 0 .3-.2.4l-.3.3a1 1 0 0 1-.5 0Zm1.7-1.5V90h-.4v-3.3h.4v1.2l.3-.3.5-.1h.5l.3.4V90h-.3v-1.6c0-.2 0-.3-.2-.4a.6.6 0 0 0-.4-.2h-.4l-.2.3v.4Zm2.9 1.6a1 1 0 0 1-.4-.1.7.7 0 0 1-.4-.3V89l.2-.2h.4a4 4 0 0 1 .7-.2h.2V87.9l-.5-.1a.7.7 0 0 0-.6.4l-.4-.2a.9.9 0 0 1 .6-.5 1.5 1.5 0 0 1 .7 0l.3.1.2.3.1.4V90h-.3v-.3l-.2.1-.2.2a1 1 0 0 1-.4 0Zm0-.4h.4l.3-.3v-.7l-.2.1h-.4l-.3.1-.2.2v.5l.4.1Zm2.7-2.2v.3h-1.3v-.3h1.3Zm-.9-.6h.4V89.6h.3a.7.7 0 0 0 .2 0v.4h-.2l-.5-.1a.6.6 0 0 1-.2-.5v-2.5Zm2 3.2a1 1 0 0 1-.4-.1.7.7 0 0 1-.3-.3l-.1-.4v-.4l.3-.2h.3a4 4 0 0 1 .7-.2h.2V87.9l-.4-.1a.7.7 0 0 0-.7.4l-.4-.2a.9.9 0 0 1 .7-.5 1.5 1.5 0 0 1 .6 0l.3.1.3.3V90H42v-.3l-.2.1-.2.2a1 1 0 0 1-.4 0Zm0-.4h.5l.2-.3v-.7l-.2.1h-.4l-.3.1-.2.2v.2l.1.3.4.1Zm2-3V90H43v-3.3h.4Zm.5 3.3v-2.5h.4V90h-.4Zm.2-3h-.2v-.4h.4l.1.2v.2h-.3Zm1.5 3a1 1 0 0 1-.5 0 .7.7 0 0 1-.3-.3l-.1-.4v-.4l.3-.2h.3a4 4 0 0 1 .7-.2h.3v-.2L46 88l-.4-.1a.7.7 0 0 0-.7.4l-.3-.2a.9.9 0 0 1 .6-.5 1.5 1.5 0 0 1 .7 0l.3.1.2.3.1.4V90h-.4v-.3l-.1.1-.3.2a1 1 0 0 1-.3 0Zm0-.3h.4l.2-.3.1-.3v-.4l-.3.1H45.5l-.3.1-.2.2-.1.2.1.3.4.1Zm3.4-1.6h-.4l-.1-.2-.4-.1-.4.1-.1.3v.2l.4.1.4.1c.2 0 .3.2.5.3l.1.4-.1.4-.3.3h-.6l-.6-.1a.7.7 0 0 1-.3-.5h.4l.1.2.4.1.5-.1.1-.3c0-.2-.1-.3-.3-.3l-.5-.1a1 1 0 0 1-.5-.3.6.6 0 0 1-.1-.4v-.4l.4-.2.5-.1.6.1.3.5Zm2.3 2.8c-.3 0-.6 0-.9-.2-.2 0-.4-.2-.6-.4-.2-.1-.3-.3-.4-.6l-.1-.9V88l.5-.7.6-.4a2.4 2.4 0 0 1 1.7 0 1.6 1.6 0 0 1 .9 1l.1.7v.4l-.1.5-.2.3-.4.1h-.3l-.2-.1-.2-.2-.1.1-.2.2h-.3l-.5-.1a.9.9 0 0 1-.3-.4v-1.1l.4-.4.4-.1a.7.7 0 0 1 .6.2v-.2h.4v1.7l.3.1h.2l.1-.4v-.6a1.6 1.6 0 0 0-.2-.9l-.3-.3-.4-.2-.6-.1-.6.1c-.2 0-.4.2-.6.4l-.3.5v1.5l.3.5.6.4a2.2 2.2 0 0 0 1.4 0l.2-.1v.3h-.2a3.2 3.2 0 0 1-.7.2Zm-.2-1.3.4-.1.2-.3v-.8l-.2-.3h-.7l-.2.3v.8l.2.3h.3Zm3.1.5a1 1 0 0 1-.4-.1.7.7 0 0 1-.3-.3l-.1-.4v-.4l.3-.2h.3a4 4 0 0 1 .7-.2h.2V87.9l-.5-.1a.7.7 0 0 0-.6.4l-.4-.2a.9.9 0 0 1 .7-.5 1.5 1.5 0 0 1 .6 0l.3.1.3.3V90h-.3v-.3l-.2.1-.2.2a1 1 0 0 1-.4 0Zm0-.4h.5l.2-.3v-.7l-.2.1H54l-.3.1-.2.2v.5l.5.1Zm2.6.4a1 1 0 0 1-1-.7V88.1l.4-.5.6-.1h.4l.2.2.1.2v-1.2h.4V90h-.3v-.4l-.2.2-.2.2h-.4Zm0-.4.4-.1.3-.4v-.9c0-.2-.1-.3-.3-.4a.6.6 0 0 0-.3 0h-.5l-.2.4v.9l.2.4.5.1Zm2.7 1.3c-.3 0-.6 0-.7-.2a1 1 0 0 1-.4-.3l.3-.2.2.1.2.2h.9l.2-.6v-.5l-.2.2-.2.2h-.4a1 1 0 0 1-1-.6v-1.2l.4-.5.6-.1h.4l.2.2.1.2v-.4h.4V90l-.1.5-.4.3h-.5Zm0-1.4c.2 0 .3 0 .5-.2l.2-.7-.1-.5-.3-.3a.6.6 0 0 0-.4 0h-.4l-.2.4v.9l.2.3.4.1Zm3.1-.6v-1.5h.4V90h-.4v-.4l-.3.3-.5.1h-.4a.7.7 0 0 1-.3-.4v-2.1h.3V89c0 .1 0 .3.2.4l.4.2a.7.7 0 0 0 .5-.3l.1-.4Zm1.6 1a1 1 0 0 1-.4 0 .7.7 0 0 1-.3-.3l-.1-.4v-.4l.3-.2h.3a4 4 0 0 1 .7-.2h.2V87.9l-.4-.1a.7.7 0 0 0-.7.4l-.4-.2a.9.9 0 0 1 .7-.5 1.5 1.5 0 0 1 .6 0l.3.1.3.3V90h-.3v-.3l-.2.1-.2.2a1 1 0 0 1-.4 0Zm0-.3h.5l.2-.3v-.7l-.2.1H64l-.3.1-.2.2v.2l.1.3.4.1Zm1.7.3v-2.5h.3v.4l.3-.3.4-.1a2.6 2.6 0 0 1 .2 0v.4a1.3 1.3 0 0 0-.2 0h-.3l-.3.2V90h-.4Zm2.3 0a1 1 0 0 1-.9-.6l-.1-.6.1-.7c0-.2.2-.4.4-.5l.5-.1h.4l.2.2.2.2v-1.2h.4V90h-.4v-.4l-.2.2-.2.2H68Zm0-.3.5-.1.2-.4v-.9l-.2-.4a.6.6 0 0 0-.4 0h-.4l-.3.4v.9c0 .2.2.3.3.4l.4.1Zm1.7.3v-2.5h.3v.4l.3-.3.4-.1h.5l.2.4.3-.3.5-.1c.2 0 .4 0 .5.2.2.1.3.3.3.6V90h-.4v-1.7c0-.2 0-.3-.2-.4a.6.6 0 0 0-.3 0h-.4l-.2.5V90h-.4v-1.7l-.1-.4h-.7a.6.6 0 0 0-.3.5V90h-.3Zm4.5 0a1 1 0 0 1-.4 0 .7.7 0 0 1-.4-.3V89l.2-.2h.4a4 4 0 0 1 .7-.2h.2V87.9l-.5-.1a.7.7 0 0 0-.6.4l-.4-.2a.9.9 0 0 1 .6-.5 1.5 1.5 0 0 1 .7 0l.3.1.2.3.1.4V90H75v-.3l-.2.1-.2.2a1 1 0 0 1-.4 0Zm0-.3h.4l.3-.3v-.7l-.2.1h-.4l-.3.1-.2.2v.5l.4.1Zm1.6.3v-2.5h.4V90h-.4Zm.2-3h-.2v-.4h.4l.1.2v.2H76Zm1-.3V90h-.3v-3.3h.4ZM78 90h-.2l-.1-.3v-.2h.5v.4l-.2.1Zm1.8 0a1 1 0 0 1-.6-.1l-.4-.5-.1-.6V88l.5-.5.6-.1h.5l.3.3.2.4h-.4l-.1-.2-.2-.1h-.7l-.3.4v1l.3.3.4.1.4-.1.2-.3h.4l-.2.4-.3.3a1 1 0 0 1-.5 0Zm2.4 0a1 1 0 0 1-.6-.1l-.4-.5-.2-.6c0-.3 0-.5.2-.7 0-.2.2-.4.4-.5l.6-.1.6.1.4.5.1.7-.1.6-.4.5-.6.2Zm0-.3.4-.1.2-.4.1-.4v-.5l-.3-.4a.7.7 0 0 0-.4 0h-.5l-.2.4v.9l.2.4.5.1Zm1.5.3v-2.5h.3v.4l.3-.3.4-.1h.5l.2.4.3-.3.5-.1c.2 0 .4 0 .5.2.2.1.3.3.3.6V90h-.4v-1.7c0-.2 0-.3-.2-.4a.6.6 0 0 0-.3 0h-.4l-.2.5V90H85v-1.7l-.1-.4h-.7a.6.6 0 0 0-.2.5V90h-.4Z"/><mask id="r" width="1" height="16" x="449" y="76" maskUnits="userSpaceOnUse" style="mask-type:luminance"><path fill="#fff" d="M449 76.9h.4v15h-.4V77Z"/></mask><g mask="url(#r)"><path fill="#EAEFF2" d="M449 76.9v15h.7V77h-.7Z"/></g><path stroke="#6A7176" stroke-linecap="round" stroke-linejoin="round" stroke-width=".7" d="M460.4 81.6h.5l.2-.3v-2.8l-.2-.3H458l-.3.3v.5m.7 4.4h-2.3a.5.5 0 0 1-.2-.3V80.3l.2-.2h2.9l.2.2v2.8l-.3.3h-.5Z"/><mask id="s" width="442" height="1" x="26" y="97" maskUnits="userSpaceOnUse" style="mask-type:luminance"><path fill="#fff" d="M26.3 97.2h441.4v.4H26.3v-.4Z"/></mask><g mask="url(#s)"><path fill="#EAEFF2" d="M26.3 97.6h441.4v-.7H26.3v.7Z"/></g><path fill="#35383B" d="M31.8 109v-3.8h2.4v.5h-1.8v1.3H34v.5h-1.6v1.6h-.6Zm3.9.1c-.3 0-.6 0-.8-.2l-.4-.5-.2-.8c0-.3 0-.5.2-.7a1.2 1.2 0 0 1 1.2-.8l.7.2.4.6.2.7c0 .3 0 .6-.2.8a1.2 1.2 0 0 1-1.1.7Zm0-.5.4-.1.2-.4.1-.5v-.5l-.3-.3a.7.7 0 0 0-.4-.2c-.2 0-.4 0-.5.2l-.2.3-.1.5v.5l.3.4.5.1Zm1.7.5v-3h.5v.5l.3-.3.5-.2a2 2 0 0 1 .2 0v.6h-.6a.6.6 0 0 0-.4.6v1.8h-.5Zm3.6 0-.9-3h.6l.6 2.2.6-2.1h.5l.6 2 .6-2h.6l-.9 2.9h-.5l-.6-2.1-.6 2H41Zm4.6 0c-.3 0-.5 0-.7-.2l-.5-.5-.1-.8.1-.7a1.2 1.2 0 0 1 1.2-.8l.7.2c.2.2.4.3.5.6l.1.7-.1.8a1.3 1.3 0 0 1-1.2.7Zm0-.5.4-.1.3-.4v-1l-.3-.3a.7.7 0 0 0-.4-.2c-.2 0-.3 0-.4.2l-.3.3v1c0 .2.2.3.3.4l.4.1Zm1.7.5v-3h.6v.5l.3-.3.4-.2a2 2 0 0 1 .3 0v.6H48.2a.6.6 0 0 0-.3.6v1.8h-.6Zm2.4-1v-.7l1.2-1.2h.7l-1.3 1.4h-.1l-.5.5Zm-.6 1v-3.9h.6v3.9h-.6Zm1.8 0-1-1.4.4-.4 1.3 1.8H51Z"/><path stroke="#6A7176" stroke-linecap="round" stroke-linejoin="round" stroke-width=".7" d="m438.8 108.5-1.6 1.5m2.5-4-.5.4v.1s0 0 0 0h-.2l-1 .3-.4.1-.1.2c0 .1 0 .2.3.4l2 2 .3.3.2-.1.2-.5.2-1s0 0 0 0v-.1l.1-.1.4-.4s0 0 0 0l.1-.1s0 0 0 0l.8-.3.3-.2v-.2c0-.1 0-.2-.2-.3l-1.4-1.5-.3-.2h-.2l-.2.4-.3.7s0 0 0 0 0 0 0 0l-.1.1Z"/><path fill="#35383B" d="M32.9 114.1v.3h-1.3v-.3h1.3Zm-1-.6h.4v2.4l.1.3h.4l.1.4H32.6l-.5-.1a.6.6 0 0 1-.2-.5v-2.5Zm2.4 3.2c-.3 0-.5 0-.7-.2a1 1 0 0 1-.4-.5l-.1-.6.1-.7.4-.5.6-.1h.4l.3.2c.2.1.2.3.3.4l.1.6v.2h-2v-.3h1.8-.2v-.4l-.3-.3a.6.6 0 0 0-.4 0h-.4l-.2.3-.1.4v.7l.3.3.5.1h.2a.6.6 0 0 0 .4-.4l.4.1-.2.4-.4.2h-.4Zm2.4 0a1 1 0 0 1-.6-.2l-.4-.5-.2-.6c0-.3 0-.5.2-.7 0-.2.2-.4.4-.5l.6-.1h.4a.9.9 0 0 1 .6.8h-.4l-.1-.3-.2-.1h-.7l-.3.4v1l.3.3.4.1.4-.1.2-.3h.4l-.2.4-.3.3a1 1 0 0 1-.5 0Zm1.7-1.6v1.5H38v-3.3h.4v1.2l.3-.3.5-.1h.4c.2.1.3.2.3.4l.1.5v1.6h-.3V115l-.2-.4a.6.6 0 0 0-.4-.2h-.4l-.2.3v.4Zm3.1 2.5c-.2 0-.5 0-.6-.2a1 1 0 0 1-.4-.3l.3-.2.2.1c0 .1 0 .2.2.2h.8c.2-.2.2-.3.2-.5v-.6l-.1.2-.2.2h-.4a1 1 0 0 1-.6 0 1 1 0 0 1-.3-.5l-.2-.7.1-.6.4-.5.6-.1h.4l.2.2.1.2v-.4h.4v2.6l-.1.5-.4.3-.6.1Zm0-1.4c.3 0 .4 0 .6-.2l.1-.7v-.4c0-.2-.2-.3-.3-.4a.6.6 0 0 0-.4 0h-.4l-.2.4-.1.4v.5l.3.3.4.1Zm3.2-.6V114h.4v2.5h-.4v-.4l-.3.3-.5.1h-.4a.7.7 0 0 1-.3-.4v-2.1h.3v1.6c0 .2 0 .3.2.4l.4.2a.7.7 0 0 0 .5-.3l.1-.4Zm.9 1v-2.5h.3v.4l.3-.3.4-.1h.2v.4h-.5l-.3.2V116.6h-.4Zm3-1V114h.4v2.5h-.3v-.4l-.4.3-.4.1h-.4a.7.7 0 0 1-.3-.4l-.1-.5V114h.4v1.6l.1.4.4.2a.7.7 0 0 0 .5-.3l.2-.4Zm2.9 1.9-1-.1-.6-.4-.4-.7-.1-.9.1-.8.4-.7.7-.4a2.4 2.4 0 0 1 1.6 0l.6.4.3.6.2.7v.4l-.2.5c0 .1 0 .2-.2.3l-.4.1h-.3l-.2-.1-.1-.2-.2.1-.2.2h-.2l-.5-.1a.9.9 0 0 1-.3-.4l-.2-.6c0-.2 0-.4.2-.5 0-.2.2-.3.3-.4l.5-.1a.7.7 0 0 1 .5.2v-.2h.4v1.7l.3.1h.3v-.4l.1-.6a1.6 1.6 0 0 0-.2-.9l-.3-.3-.5-.2-.5-.1-.7.1c-.2 0-.4.2-.5.4-.2.1-.3.3-.3.5l-.1.7v.8l.4.5.5.4a2.2 2.2 0 0 0 1.4 0h.2l.1.2h-.2a3.3 3.3 0 0 1-.7.2Zm-.2-1.3.3-.1c.1 0 .2-.1.2-.3v-.8l-.2-.3H51l-.2.3-.1.4v.4l.2.3h.4Zm3 .5a1 1 0 0 1-.4-.1.8.8 0 0 1-.3-.3l-.1-.4v-.4l.3-.2h.3a4.1 4.1 0 0 1 .7-.2h.3v-.2l-.1-.4h-.4a.7.7 0 0 0-.7.3l-.3-.1.2-.4.4-.2a1.5 1.5 0 0 1 .7 0l.3.1.2.3.1.5v1.6h-.4v-.3l-.1.1-.3.2a1 1 0 0 1-.3 0Zm.1-.4h.4a.6.6 0 0 0 .3-.6v-.4.1h-.6l-.3.2H54l-.1.3.1.3.4.1Zm2.5.4a1 1 0 0 1-.9-.6l-.1-.7.1-.7.4-.5.5-.1h.4l.3.2v.2h.1v-1.2h.4v3.3h-.4v-.4l-.1.2-.3.2H57Zm0-.4.5-.1.2-.3.1-.5v-.5l-.3-.4a.6.6 0 0 0-.4 0h-.4l-.3.4v.9l.3.4.4.1Zm2.7 1.3c-.3 0-.5 0-.7-.2a1 1 0 0 1-.3-.3l.3-.2.1.1.2.2h.9l.2-.5v-.6l-.2.2-.2.2h-.4a1 1 0 0 1-.5 0 1 1 0 0 1-.4-.5l-.1-.7.1-.6c0-.2.2-.4.4-.5l.5-.1h.4l.2.2.2.2v-.4h.4v2.6c0 .2 0 .4-.2.5l-.4.3-.5.1Zm0-1.4c.2 0 .4 0 .5-.2l.2-.7v-.4l-.3-.4a.6.6 0 0 0-.4 0h-.4l-.3.4v.9l.3.3.4.1Zm3.1-.6V114h.4v2.5h-.4v-.4l-.3.3-.4.1h-.4a.7.7 0 0 1-.3-.4l-.1-.5V114h.4v1.6l.1.4.4.2a.7.7 0 0 0 .5-.3l.1-.4Zm1.7 1a1 1 0 0 1-.5 0 .7.7 0 0 1-.3-.3l-.1-.4v-.4l.3-.2h.3a4.1 4.1 0 0 1 .7-.2h.3v-.2l-.1-.4h-.4a.7.7 0 0 0-.7.3l-.3-.1.2-.4.4-.2a1.5 1.5 0 0 1 .7 0l.3.1.2.3.1.5v1.6h-.4v-.3l-.1.1-.3.2a1 1 0 0 1-.3 0Zm0-.3h.4l.2-.3.1-.3v-.4.1h-.6l-.3.2H64l-.1.3.1.3.4.1Zm1.6.3v-2.5h.4v.4l.2-.3.5-.1a2.1 2.1 0 0 1 .2 0v.4H66.7l-.2.2-.1.3v1.6H66Zm2.4 0a1 1 0 0 1-1-.5l-.1-.7.1-.7.4-.5.6-.1h.4l.2.2.1.2v-1.2h.4v3.3h-.4v-.4l-.1.2-.2.2h-.4Zm0-.3.4-.1.3-.3v-1l-.3-.4a.6.6 0 0 0-.4 0H68l-.2.4-.1.5v.4l.3.4.4.1Zm1.6.3v-2.5h.4v.4l.3-.3.4-.1h.4l.3.4.3-.3.4-.1c.3 0 .4 0 .6.2l.2.6v1.7h-.4V115l-.1-.4a.6.6 0 0 0-.4 0H72l-.2.5v1.6h-.3V115c0-.2 0-.3-.2-.4h-.6a.6.6 0 0 0-.3.5v1.6H70Zm4.5 0a1 1 0 0 1-.4 0 .8.8 0 0 1-.3-.3l-.1-.4v-.4l.3-.2h.3a4.1 4.1 0 0 1 .7-.2h.2V114.5h-.4a.7.7 0 0 0-.7.3l-.4-.1.3-.4.4-.2a1.5 1.5 0 0 1 .6 0l.3.1.3.3v2.1h-.3v-.3l-.2.1-.2.2a1 1 0 0 1-.4 0Zm0-.3h.5a.6.6 0 0 0 .3-.6v-.4l-.1.1H74.6l-.3.2h-.2v.3l.1.3.4.1Zm1.7.3v-2.5h.4v2.5h-.4Zm.2-3h-.2l-.1-.2v-.2h.5v.4h-.2Zm1-.3v3.3H77v-3.3h.4Zm.8 3.3a.3.3 0 0 1-.2-.5h.4l.1.2v.3h-.3Zm1.8 0a1 1 0 0 1-.6-.1l-.4-.5-.1-.6.1-.7.4-.5.6-.1h.5l.3.3.2.5h-.4v-.3l-.3-.1h-.7l-.2.4-.1.5v.5l.3.3.4.1.4-.1.2-.3h.4l-.1.4-.4.3a1 1 0 0 1-.5 0Zm2.4 0a1 1 0 0 1-.6-.1 1 1 0 0 1-.4-.5l-.1-.6.1-.7.4-.5.6-.1.6.1.4.5.1.7-.1.6a1 1 0 0 1-.4.5 1 1 0 0 1-.6.2Zm0-.3.4-.1.3-.4v-.9l-.3-.4a.7.7 0 0 0-.4 0H82l-.3.4v.9c0 .2.2.3.3.4l.4.1Zm1.5.3v-2.5h.4v.4l.3-.3.4-.1h.4l.3.4.3-.3.4-.1c.3 0 .4 0 .6.2l.2.6v1.7h-.4V115l-.1-.4a.6.6 0 0 0-.4 0h-.4l-.1.5v1.6h-.4V115c0-.2 0-.3-.2-.4h-.6a.6.6 0 0 0-.3.5v1.6h-.4Z"/><mask id="t" width="1" height="16" x="449" y="103" maskUnits="userSpaceOnUse" style="mask-type:luminance"><path fill="#fff" d="M449 103.5h.4v15h-.4v-15Z"/></mask><g mask="url(#t)"><path fill="#EAEFF2" d="M449 103.5v15h.7v-15h-.7Z"/></g><path stroke="#6A7176" stroke-linecap="round" stroke-linejoin="round" stroke-width=".7" d="M460.4 108.2h.5l.2-.3V105l-.2-.3H458l-.3.3v.5m.7 4.4h-2.3a.5.5 0 0 1-.2-.2v-2.9l.2-.2h2.9l.2.2v2.9l-.3.2h-.5Z"/><mask id="u" width="442" height="2" x="26" y="123" maskUnits="userSpaceOnUse" style="mask-type:luminance"><path fill="#fff" d="M26.3 123.8h441.4v.4H26.3v-.4Z"/></mask><g mask="url(#u)"><path fill="#EAEFF2" d="M26.3 124.2h441.4v-.7H26.3v.7Z"/></g><path fill="#35383B" d="M31.8 135.7v-3.9h2.4v.5h-1.8v1.3H34v.5h-1.6v1.6h-.6Zm3.9 0c-.3 0-.6 0-.8-.2-.2 0-.3-.3-.4-.5l-.2-.8c0-.3 0-.5.2-.7a1.2 1.2 0 0 1 1.2-.7l.7.1.4.6.2.7c0 .3 0 .6-.2.8a1.2 1.2 0 0 1-1.1.7Zm0-.5h.4l.2-.5.1-.5v-.5l-.3-.3a.7.7 0 0 0-.4-.2c-.2 0-.4 0-.5.2l-.2.3-.1.5v.5l.3.4.5.1Zm1.7.5v-3h.5v.6l.3-.4.5-.2a2 2 0 0 1 .2 0v.6h-.6a.6.6 0 0 0-.4.6v1.8h-.5Zm5.1-2.2H42l-.2-.2-.4-.1-.4.1-.1.3v.2l.4.1.5.2.6.2.2.5c0 .2 0 .4-.2.5a1 1 0 0 1-.4.3l-.6.1c-.3 0-.6 0-.8-.2a.9.9 0 0 1-.4-.6h.6s0 .2.2.3h.8l.2-.3c0-.2-.1-.3-.4-.4l-.5-.1c-.3 0-.5-.2-.6-.3a.7.7 0 0 1-.2-.5c0-.2 0-.3.2-.4 0-.2.2-.3.4-.3l.5-.1c.3 0 .6 0 .8.2.1 0 .3.3.3.5Zm1.7 2.2c-.3 0-.5 0-.7-.2-.2 0-.4-.3-.5-.5l-.2-.8c0-.3 0-.5.2-.7a1.2 1.2 0 0 1 1.2-.7l.7.1.4.6.2.7c0 .3 0 .6-.2.8a1.3 1.3 0 0 1-1.1.7Zm0-.5h.4l.3-.5v-1l-.3-.3a.7.7 0 0 0-.4-.2c-.2 0-.4 0-.5.2l-.2.3-.1.5v.5l.3.4.5.1Zm3 .5c-.4 0-.6 0-.8-.2l-.5-.5-.1-.8.1-.7c.1-.3.3-.4.5-.6l.7-.1h.6a1 1 0 0 1 .6 1h-.6v-.3l-.3-.2h-.7l-.3.4v1.1l.3.3.4.1h.4l.2-.4h.6a1 1 0 0 1-.6.8l-.6.1Zm1.5 0v-3h.5v3h-.5Zm.3-3.4h-.3v-.5l.3-.1h.2l.1.3v.3H49Zm1.6 3.4h-.5a.8.8 0 0 1-.3-.4l-.2-.5.1-.4.3-.2.3-.1.4-.1a15.4 15.4 0 0 0 .7-.1V133.3h-.9l-.3.3-.5-.1c0-.2.2-.3.3-.4l.4-.3a1.6 1.6 0 0 1 .9 0l.3.1.3.3.1.6v1.9h-.5v-.4l-.2.2-.3.2a1 1 0 0 1-.4 0Zm.1-.4.4-.1.3-.3v-.6H51a10.6 10.6 0 0 1-.6.2l-.2.1-.1.3.1.3h.4Zm2.4-3.5v3.9h-.5v-3.9h.5Zm2.3 2.2v1.7h-.6v-3h.5v.6l.4-.4.5-.1h.5l.4.4.1.6v1.9h-.6v-1.8l-.1-.5a.6.6 0 0 0-.5-.2l-.3.1-.2.3-.1.4Zm3.6 1.7c-.3 0-.6 0-.8-.2-.2 0-.3-.3-.4-.5l-.2-.8c0-.2 0-.5.2-.7 0-.3.2-.4.4-.6l.7-.1h.5a1.1 1.1 0 0 1 .7.7l.1.7v.2h-2.3v-.4h2l-.2.1-.1-.5-.3-.3a.7.7 0 0 0-.4 0h-.4l-.3.3v1.2l.3.4h.8l.2-.1.1-.3.6.1c0 .2-.2.3-.3.5a1 1 0 0 1-.4.2l-.5.1Zm3-3v.5h-1.6v-.4h1.5Zm-1.2-.6h.5v2.7l.1.3.3.1h.2v.4h-.1l-.2.1c-.3 0-.5 0-.6-.2a.7.7 0 0 1-.2-.6v-2.8Zm2.1 3.6-.8-3h.6l.5 2.2.6-2.1h.6l.6 2 .6-2h.5l-.8 2.9h-.6l-.6-2.1-.6 2H63Zm4.7 0c-.3 0-.5 0-.8-.2-.2 0-.3-.3-.4-.5l-.2-.8c0-.3 0-.5.2-.7a1.2 1.2 0 0 1 1.2-.7l.7.1.4.6.2.7c0 .3 0 .6-.2.8a1.2 1.2 0 0 1-1.1.7Zm0-.5h.4l.2-.5.1-.5v-.5l-.3-.3a.7.7 0 0 0-.4-.2c-.2 0-.4 0-.5.2l-.2.3-.1.5v.5l.3.4.5.1Zm1.7.5v-3h.5v.6l.3-.4.5-.2a2 2 0 0 1 .2 0v.6h-.6a.6.6 0 0 0-.3.6v1.8h-.6Zm2.3-1v-.7h.1l1.1-1.2h.7l-1.3 1.4-.6.5Zm-.5 1v-3.9h.6v3.9H71Zm1.8 0-1-1.4.4-.4 1.3 1.8h-.7Zm3-2.2h-.5l-.1-.2-.4-.1-.4.1-.2.3.1.2.4.1.4.2.6.2.2.5-.1.5a1 1 0 0 1-.5.3l-.6.1c-.3 0-.6 0-.8-.2a.9.9 0 0 1-.3-.6h.5l.2.3h.9l.1-.3c0-.2-.1-.3-.4-.4l-.5-.1-.6-.3a.7.7 0 0 1-.1-.5l.1-.4c0-.2.2-.3.4-.3l.6-.1c.3 0 .5 0 .7.2.2 0 .3.3.3.5Z"/><path stroke="#6A7176" stroke-linecap="round" stroke-linejoin="round" stroke-width=".7" d="m438.8 135-1.6 1.6m2.5-4-.5.4v.1s0 0 0 0h-.2l-1 .3-.4.1-.1.2c0 .1 0 .2.3.4l2 2 .3.3.2-.1.2-.5.2-1s0 0 0 0v-.1l.1-.1.4-.4s0 0 0 0l.1-.1s0 0 0 0l.8-.3.3-.2v-.2c0-.1 0-.2-.2-.3l-1.4-1.5-.3-.2h-.2l-.2.4-.3.7s0 0 0 0 0 0 0 0l-.1.1Z"/><path fill="#35383B" d="M33.6 141.3h-.4l-.2-.2-.3-.1-.4.1-.2.3.1.2.4.1.3.1c.3 0 .4.2.5.3l.2.4-.1.4-.4.3h-.5l-.6-.1a.7.7 0 0 1-.3-.5h.3l.2.2.4.1h.4l.2-.4c0-.1-.1-.3-.4-.3l-.4-.1a1 1 0 0 1-.5-.3.6.6 0 0 1-.2-.4c0-.1 0-.3.2-.4l.3-.2.5-.1.6.1.3.5Zm1.4 2a1 1 0 0 1-.6-.2 1 1 0 0 1-.4-.4l-.2-.7c0-.3 0-.5.2-.7 0-.2.2-.4.4-.5l.6-.1.6.1.4.5.1.7-.1.7a1 1 0 0 1-.4.4 1 1 0 0 1-.6.2Zm0-.4.4-.1.3-.4v-.9l-.3-.3a.7.7 0 0 0-.4-.2c-.2 0-.3 0-.4.2-.2 0-.2.2-.3.3a1.3 1.3 0 0 0 0 1l.3.3.4.1Zm2.5.4a1 1 0 0 1-.6-.2l-.4-.5-.1-.6.1-.7.4-.5.6-.1h.5a.9.9 0 0 1 .5.8h-.4v-.3l-.3-.1h-.7l-.2.4-.1.5v.5l.3.3.4.1h.4l.2-.4h.4c0 .1 0 .3-.2.4l-.3.3h-.5Zm1.4 0v-2.6h.3v2.5H39Zm.2-3h-.2l-.1-.3v-.2h.4l.1.2v.2H39Zm1.4 3a1 1 0 0 1-.5-.1.7.7 0 0 1-.3-.3v-.7l.2-.3h.3a4.1 4.1 0 0 1 .8-.2h.2V141h-.5a.7.7 0 0 0-.6.3l-.4-.1c0-.2.1-.3.3-.4l.3-.2a1.5 1.5 0 0 1 .7 0l.3.1.2.3.1.5v1.6h-.4v-.3l-.1.1-.3.2a1 1 0 0 1-.3 0Zm0-.4h.4a.6.6 0 0 0 .3-.6v-.3h-.3a4.2 4.2 0 0 1-.3.1h-.3l-.2.2-.1.2c0 .2 0 .3.2.3l.3.1Zm2-3v3.3h-.4V140h.4Zm2.4 4.2-.9-.1-.6-.4-.4-.7-.1-.9.1-.8c0-.3.2-.5.4-.7l.6-.4a2.4 2.4 0 0 1 1.7 0l.6.4.3.6.1.7v.5l-.1.4-.2.3-.4.1h-.3l-.2-.1-.2-.2v.1l-.3.2h-.3l-.5-.1a1 1 0 0 1-.3-.4v-1.1l.4-.4.4-.1a.7.7 0 0 1 .6.2v-.2h.4v1.7l.3.1h.2l.1-.4v-.6a1.6 1.6 0 0 0-.2-.9l-.3-.3-.4-.2-.5-.1-.7.1a1.4 1.4 0 0 0-.9 1v1.4l.4.5.5.4a2.2 2.2 0 0 0 1.4 0h.2v.2l-.2.1a3.2 3.2 0 0 1-.7 0Zm-.2-1.3h.4l.2-.4v-.8l-.2-.3h-.7c0 .2-.1.2-.2.3v.8l.2.3.3.1Zm3.1.5a1 1 0 0 1-.4-.1.8.8 0 0 1-.3-.3l-.1-.4v-.3l.3-.3h.3a4.1 4.1 0 0 1 .7-.2h.2V141H48a.7.7 0 0 0-.7.3l-.4-.1.3-.4.4-.2a1.5 1.5 0 0 1 .6 0l.3.1.3.3v2.1h-.3v-.3l-.2.1-.2.2a1 1 0 0 1-.4 0Zm0-.4h.5a.6.6 0 0 0 .3-.6v-.3H48.3a4.2 4.2 0 0 1-.4.1h-.3l-.2.2v.2l.1.3.4.1Zm2.6.4a1 1 0 0 1-1-.6v-1.4l.5-.5.5-.1h.4l.2.2.1.2v-1.2h.5v3.3h-.4v-.4l-.2.2-.2.2h-.4Zm0-.4.5-.1.2-.3v-1l-.2-.4a.6.6 0 0 0-.4 0H50c-.2.1-.2.2-.3.4v.9c0 .2.1.3.3.4l.4.1Zm2.7 1.3-.7-.1a1 1 0 0 1-.4-.4l.3-.2.2.1.2.2h.9l.2-.5v-.5l-.2.1-.2.2H53a1 1 0 0 1-1-.6v-1.2l.4-.5.6-.1h.4l.2.2.1.2v-.4h.4v2.6l-.1.5-.4.3-.5.1Zm0-1.4c.2 0 .4 0 .5-.2l.2-.7-.1-.4c0-.2-.2-.3-.3-.4a.6.6 0 0 0-.4 0h-.4l-.2.4v.9l.2.3.4.1Zm3.1-.6v-1.5h.4v2.5h-.4v-.4l-.3.3-.5.1H55a.7.7 0 0 1-.3-.4v-2.1h.3v1.6c0 .2 0 .3.2.4l.4.2a.7.7 0 0 0 .5-.3l.1-.4Zm1.6 1a1 1 0 0 1-.4 0 .8.8 0 0 1-.3-.3l-.1-.4v-.3l.3-.3h.3a4.1 4.1 0 0 1 .7-.2h.2V141H58a.7.7 0 0 0-.7.3l-.4-.1.3-.4.4-.2a1.5 1.5 0 0 1 .6 0l.3.1.3.3v2.1h-.3v-.3l-.2.1-.2.2a1 1 0 0 1-.4 0Zm0-.3h.5a.6.6 0 0 0 .3-.6v-.3H58.3a4.2 4.2 0 0 1-.4.1h-.3l-.2.2v.2l.1.3.4.1Zm1.7.3v-2.5h.3v.4l.3-.3.4-.1a2.1 2.1 0 0 1 .2 0v.4a1.2 1.2 0 0 0-.2 0h-.3l-.3.2V143.2h-.4Zm2.3 0a1 1 0 0 1-.9-.5l-.1-.7.1-.7c0-.2.2-.4.4-.5l.5-.1h.4l.2.2.2.2v-1.2h.4v3.3h-.4v-.4l-.2.2-.2.2h-.4Zm0-.3.5-.1.2-.3.1-.5v-.5l-.3-.4a.6.6 0 0 0-.4 0h-.4l-.3.4v.9c0 .2.2.3.3.4l.4.1Zm1.7.3v-2.5h.3v.4l.3-.3.5-.1h.4l.2.4.3-.3.5-.1c.2 0 .4 0 .5.2.2.1.3.3.3.6v1.7h-.4v-1.7c0-.2 0-.3-.2-.4a.6.6 0 0 0-.3 0h-.4l-.2.5v1.6H65v-1.7l-.1-.3-.4-.2-.3.1a.6.6 0 0 0-.2.5v1.6h-.4Zm4.5 0a1 1 0 0 1-.4 0 .8.8 0 0 1-.3-.3l-.2-.4.1-.3.2-.3h.4a4.1 4.1 0 0 1 .7-.2h.2V141h-.5a.7.7 0 0 0-.6.3l-.4-.1c0-.2.2-.3.3-.4l.3-.2a1.5 1.5 0 0 1 .7 0l.3.1.2.3.1.5v1.6h-.3v-.3l-.2.1-.2.2a1 1 0 0 1-.4 0Zm0-.3h.4a.6.6 0 0 0 .4-.6v-.3H68.5a4.2 4.2 0 0 1-.4.1h-.3l-.2.2v.5l.5.1Zm1.6.3v-2.5h.4v2.5h-.4Zm.2-3h-.2v-.4h.4l.1.2v.2h-.3Zm1.1-.3v3.3h-.4V140h.4Zm.8 3.3a.3.3 0 0 1-.2-.5h.4v.5h-.2Zm1.8 0-.6-.1-.4-.5-.1-.6.1-.7.4-.5.6-.1h.5a.9.9 0 0 1 .5.8H74l-.1-.3-.2-.1H73l-.3.4v1l.3.3.4.1h.4l.2-.4h.4c0 .1 0 .3-.2.4l-.3.3h-.5Zm2.4 0a1 1 0 0 1-.6 0 1 1 0 0 1-.4-.5l-.2-.7c0-.3 0-.5.2-.7 0-.2.2-.4.4-.5l.6-.1.6.1.4.5.1.7-.1.7a1 1 0 0 1-.4.4 1 1 0 0 1-.6.2Zm0-.3.4-.1.2-.4.1-.4v-.5l-.3-.3a.7.7 0 0 0-.4-.2c-.2 0-.3 0-.5.2l-.2.3a1.3 1.3 0 0 0 0 1l.2.3.5.1Zm1.5.3v-2.5h.3v.4l.3-.3.5-.1h.4l.2.4.3-.3.5-.1c.2 0 .4 0 .6.2l.2.6v1.7h-.4v-1.7c0-.2 0-.3-.2-.4a.6.6 0 0 0-.3 0h-.4l-.2.5v1.6h-.4v-1.7l-.1-.3-.4-.2-.3.1a.6.6 0 0 0-.2.5v1.6h-.4Z"/><mask id="v" width="1" height="16" x="449" y="130" maskUnits="userSpaceOnUse" style="mask-type:luminance"><path fill="#fff" d="M449 130h.4v15.2h-.4V130Z"/></mask><g mask="url(#v)"><path fill="#EAEFF2" d="M449 130v15.2h.7V130h-.7Z"/></g><path stroke="#6A7176" stroke-linecap="round" stroke-linejoin="round" stroke-width=".7" d="M460.4 134.8h.5l.2-.3v-2.8l-.2-.3H458l-.3.3v.5m.7 4.4h-2.3a.5.5 0 0 1-.2-.2v-2.9l.2-.2h2.9l.2.2v2.9l-.3.2h-.5Z"/><mask id="w" width="442" height="1" x="26" y="150" maskUnits="userSpaceOnUse" style="mask-type:luminance"><path fill="#fff" d="M26.3 150.4h441.4v.4H26.3v-.4Z"/></mask><g mask="url(#w)"><path fill="#EAEFF2" d="M26.3 150.8h441.4v-.7H26.3v.7Z"/></g><path fill="#35383B" d="m33.1 162.3-.7-.1-.5-.4-.2-.6h.6l.1.4.3.2h.9l.3-.3v-.6l-.3-.2h-.4l-.4-.2c-.3 0-.6-.2-.7-.4a.8.8 0 0 1-.3-.6c0-.2 0-.4.2-.6 0-.2.3-.3.5-.4l.6-.1.7.1.5.4.2.5h-.6c0-.1 0-.3-.2-.4a1 1 0 0 0-.6-.1 1 1 0 0 0-.4 0l-.2.3-.1.3v.3l.4.1.3.1.3.1.4.2c.1 0 .3 0 .4.2 0 0 .2.1.2.3l.1.4a1 1 0 0 1-.6 1l-.8.1Zm1.9 1v-3.9h.5v.5l.2-.2.2-.2.5-.1.6.1.4.5.2.8c0 .3 0 .6-.2.8 0 .3-.2.4-.4.5-.2.2-.4.2-.6.2a1 1 0 0 1-.5 0 .8.8 0 0 1-.2-.3l-.2-.2v1.5H35Zm1.3-1.5h.4l.2-.4.1-.6v-.5l-.3-.3a.7.7 0 0 0-.4-.2c-.2 0-.3 0-.5.2l-.2.3v1.1l.2.3.5.1Zm2.5.5h-.5a.8.8 0 0 1-.3-.4l-.2-.4.1-.4.3-.3.3-.1.4-.1a20.8 20.8 0 0 0 .7-.1V159.9h-.9l-.2.3-.6-.1c0-.2.2-.3.3-.4l.4-.3a1.6 1.6 0 0 1 .9 0l.3.1c.2.1.2.2.3.4l.1.5v1.9h-.5v-.4l-.2.2-.3.2a1 1 0 0 1-.4 0Zm.1-.4.4-.1.3-.3v-.6h-.2a6.3 6.3 0 0 1-.4.1h-.3l-.2.2-.1.3.1.3h.4Zm1.9.4v-2.9h.5v.5c0-.2.2-.3.3-.4l.5-.1.5.1.3.4c0-.2.2-.3.3-.4l.6-.1c.2 0 .4 0 .6.2.2.2.3.4.3.7v2H44v-2c0-.1 0-.2-.2-.3a.6.6 0 0 0-.3-.2l-.5.2-.1.4v1.9h-.6v-2l-.1-.3a.5.5 0 0 0-.4-.2l-.3.1-.2.3v2.1h-.6Zm5.7-1.6a4.8 4.8 0 0 1 .3-1.8l.4-.7h.5a6.6 6.6 0 0 0-.6 2.5 3.7 3.7 0 0 0 .2 1.4l.4.9h-.5a5 5 0 0 1-.5-1.1l-.2-1.2Zm2.6 1.6a1.1 1.1 0 0 1-1-.7c-.2-.2-.2-.5-.2-.8l.1-.8.5-.5.6-.1h.4l.3.3.1.2v-1.5h.6v3.9H50v-.5l-.2.2-.3.2-.4.1Zm.1-.5h.4l.3-.4v-1.1l-.3-.3a.7.7 0 0 0-.4-.2c-.2 0-.3 0-.4.2l-.3.3v1.1l.3.3.4.1Zm3 .5c-.2 0-.5 0-.7-.2-.2 0-.3-.3-.4-.5l-.2-.7c0-.3 0-.6.2-.8 0-.3.2-.4.4-.5.2-.2.5-.2.7-.2h.5a1.1 1.1 0 0 1 .7.7l.1.7v.2h-2.3v-.4h2l-.2.1-.1-.4c0-.2-.2-.3-.3-.4a.7.7 0 0 0-.4 0h-.4l-.3.3v1.2l.3.4h.8l.2-.1.1-.2h.6c0 .2-.2.3-.3.5l-.4.2-.5.1Zm2.2-3.9v3.9H54v-3.9h.5Zm1.8 4c-.3 0-.5-.1-.7-.3-.2 0-.4-.3-.5-.5l-.2-.7.2-.8c.1-.3.3-.4.5-.5.2-.2.4-.2.7-.2h.4a1.1 1.1 0 0 1 .7.7l.1.7v.2h-2.2v-.4h2l-.3.1v-.4l-.3-.4a.7.7 0 0 0-.4 0h-.4l-.3.3-.1.5v.2l.1.5c0 .2.2.3.3.4h.7l.2-.1.2-.2h.5l-.2.5-.4.2-.6.1Zm3-3v.4h-1.6v-.4h1.6Zm-1.2-.7h.6v3l.3.1a1 1 0 0 0 .2 0l.1.4a1 1 0 0 1-.4.1c-.2 0-.4 0-.6-.2a.7.7 0 0 1-.2-.6v-2.8Zm2.8 3.6c-.3 0-.6 0-.8-.2-.2 0-.3-.3-.4-.5l-.2-.7c0-.3 0-.6.2-.8 0-.3.2-.4.4-.5.2-.2.5-.2.7-.2h.5a1.1 1.1 0 0 1 .7.7l.1.7v.2h-2.3v-.4h2l-.2.1-.1-.4c0-.2-.2-.3-.3-.4a.7.7 0 0 0-.4 0h-.4l-.3.3v1.2l.3.4h.8l.2-.1.1-.2h.6c0 .2-.2.3-.3.5l-.4.2-.5.1Zm3.3-3.9v3.9h-.5v-3.9h.5Zm1.4 4-.5-.2a.8.8 0 0 1-.4-.3v-.8l.3-.3.3-.1.4-.1a21 21 0 0 0 .7-.1v-.2l-.1-.4h-.9l-.2.3-.5-.1c0-.2.2-.3.3-.4l.4-.3a1.6 1.6 0 0 1 .8 0l.4.1.3.4v2.4h-.5v-.4l-.1.2-.3.2a1 1 0 0 1-.4 0Zm.1-.5.4-.1.2-.3.1-.3v-.3H66a6.3 6.3 0 0 1-.4.1h-.2l-.3.2v.3l.1.3h.4Zm3.2-2.5v.4h-1.6v-.4h1.6Zm-1.2-.7h.6v3l.3.1a1 1 0 0 0 .2 0l.1.4a1 1 0 0 1-.4.1c-.2 0-.4 0-.6-.2a.7.7 0 0 1-.2-.6v-2.8Zm2.8 3.6c-.3 0-.6 0-.8-.2-.2 0-.3-.3-.4-.5l-.2-.7c0-.3 0-.6.2-.8 0-.3.2-.4.4-.5.2-.2.5-.2.7-.2h.5a1.1 1.1 0 0 1 .7.7l.1.7v.2h-2.3v-.4h2l-.2.1-.1-.4c0-.2-.2-.3-.3-.4a.7.7 0 0 0-.4 0H70l-.3.3v1.2l.3.4h.8l.2-.1.1-.2h.6c0 .2-.2.3-.3.5l-.4.2-.5.1Zm1.6 0v-2.9h.5v.5l.3-.4.5-.1a1.4 1.4 0 0 1 .2 0v.5H73l-.3.3v2.1H72Zm1.6.7a9.6 9.6 0 0 0 .6-1.6 3.7 3.7 0 0 0 0-1.5 6.5 6.5 0 0 0-.6-1.7h.6l.3.8a5.9 5.9 0 0 1 .3 1.7l-.1 1.2-.5 1h-.6ZM33.6 167.9h-.4l-.2-.2h-.7l-.2.3.1.2.4.2h.3l.5.3.2.4-.1.4-.4.3H32a.7.7 0 0 1-.3-.6h.3l.2.2.4.1h.4l.2-.4c0-.1-.1-.3-.4-.3l-.4-.1a1 1 0 0 1-.5-.3.6.6 0 0 1-.2-.4c0-.1 0-.3.2-.4l.3-.2.5-.1.6.1c0 .2.2.3.3.5Zm.4 2.9v-3.5h.3v.4l.2-.2.2-.1.4-.1a1 1 0 0 1 1 .6v1.4l-.4.4a1 1 0 0 1-.6.2l-.4-.1a.7.7 0 0 1-.2-.2l-.1-.2v1.4H34Zm1-1.3.5-.1.2-.3v-1c0-.2-.1-.3-.2-.3a.6.6 0 0 0-.4-.2l-.4.1-.3.4v1l.3.3.4.1Zm2.3.4a1 1 0 0 1-.4-.1.7.7 0 0 1-.4-.3v-.7l.2-.3h.4a3.7 3.7 0 0 1 .7-.2h.2v-.5l-.5-.2-.4.1-.2.3-.4-.1c0-.2.2-.3.3-.4l.3-.2a1.5 1.5 0 0 1 .7 0l.3.1.2.3.1.5v1.6H38v-.3l-.1.2-.2.1a1 1 0 0 1-.4 0Zm0-.4h.4l.3-.3v-.6h-.2a5.8 5.8 0 0 1-.4.1H37l-.2.2v.5l.4.1Zm1.6.3v-2.5h.4v.4l.3-.3.4-.1h.4l.3.4.3-.3.5-.1c.2 0 .4 0 .5.2l.2.6v1.7h-.4v-1.7l-.1-.4a.6.6 0 0 0-.4 0H41l-.1.5v1.6h-.4v-1.7c0-.1 0-.3-.2-.3l-.3-.2-.3.1-.2.2v1.9h-.5Zm5.7.9-.8-.1-.7-.4-.4-.7-.1-.9.1-.8.4-.7.6-.4a2.4 2.4 0 0 1 1.7 0 1.6 1.6 0 0 1 1 1v1.6l-.3.3-.4.2h-.3l-.2-.2-.1-.2-.2.2h-.2l-.3.1-.5-.1a.9.9 0 0 1-.3-.4V168l.4-.4.5-.1h.3l.2.2v-.2h.4v1.7l.3.1h.2l.2-.4v-.6a1.6 1.6 0 0 0-.2-.9l-.3-.3-.5-.2H44l-.5.4c-.2.1-.3.3-.3.5l-.2.8c0 .2 0 .5.2.7 0 .2.1.4.3.5l.5.4a2.2 2.2 0 0 0 1.4 0h.2l.1.2-.3.1a3.3 3.3 0 0 1-.7.1Zm-.2-1.3h.4l.2-.4v-.8l-.2-.2-.3-.1H44c0 .2-.1.2-.2.3v.8l.2.3.3.1Zm3.1.5a1 1 0 0 1-.4-.1.7.7 0 0 1-.3-.3l-.1-.4v-.3l.3-.3h.3a3.7 3.7 0 0 1 .7-.2h.2l.1-.2-.1-.3-.4-.2-.5.1-.2.3-.3-.1.2-.4.4-.2a1.5 1.5 0 0 1 .6 0l.3.1.3.3v2.1h-.3v-.3l-.1.2-.3.1a1 1 0 0 1-.4 0Zm.1-.4h.4l.2-.3.1-.3v-.3H48a5.8 5.8 0 0 1-.4.1h-.2l-.2.2-.1.2.1.3.4.1Zm2.5.4a1 1 0 0 1-.9-.6l-.1-.7.1-.7c0-.2.2-.4.4-.5l.5-.1h.4l.2.2.2.2v-1.2h.4v3.3h-.4v-.4l-.2.2-.2.2h-.4Zm0-.4h.5l.2-.4.1-.5v-.5l-.3-.4a.6.6 0 0 0-.4 0h-.4l-.3.4v1l.3.3.4.1Zm2.7 1.3-.7-.1a1 1 0 0 1-.3-.4l.3-.2v.2l.3.1h.9l.2-.5v-.5l-.2.1-.2.2h-.4a1 1 0 0 1-1-.6V168l.5-.5.5-.1h.4l.2.2.2.2v-.4h.4v2.6c0 .2 0 .4-.2.5 0 .2-.2.3-.4.3l-.5.1Zm0-1.4c.2 0 .4 0 .5-.2l.2-.7-.1-.4-.2-.4a.6.6 0 0 0-.4 0h-.4c-.2.1-.2.2-.3.4v.9l.3.3.4.1Zm3.1-.6v-1.5h.4v2.5H56v-.4l-.3.3-.4.2-.5-.1a.7.7 0 0 1-.2-.4l-.1-.5v-1.6h.3v1.6c0 .2 0 .3.2.4l.4.2a.7.7 0 0 0 .5-.3l.1-.4Zm1.6 1a1 1 0 0 1-.4 0 .7.7 0 0 1-.3-.3l-.1-.4v-.3l.3-.3h.3a3.7 3.7 0 0 1 .7-.2h.2l.1-.2-.1-.3-.4-.2-.4.1-.3.3-.3-.1a.9.9 0 0 1 .6-.6 1.5 1.5 0 0 1 .6 0l.4.1.2.3.1.5v1.6h-.4v-.3l-.1.2-.3.1a1 1 0 0 1-.4 0Zm.1-.3h.4l.2-.3.1-.3v-.3H58a5.8 5.8 0 0 1-.4.1h-.2l-.2.2-.1.2.1.3.4.1Zm1.6.3v-2.5h.4v.4l.2-.3.4-.1h.2v.4a1.5 1.5 0 0 0-.2 0H60l-.2.2-.1.3v1.6h-.4Zm2.4 0a1 1 0 0 1-1-.5l-.1-.7.1-.7.4-.5.6-.1h.3l.3.2v.2h.1v-1.2h.4v3.3h-.4v-.4l-.1.2-.3.2h-.3Zm0-.3h.4l.2-.4.1-.5v-.5l-.3-.4a.6.6 0 0 0-.4 0h-.4l-.2.4-.1.5v.5l.3.3.4.1Zm1.6.3v-2.5h.4v.4l.3-.3.4-.1h.4l.2.4.4-.3.4-.1c.2 0 .4 0 .6.2l.2.6v1.7H66v-1.7c0-.1 0-.3-.2-.4a.6.6 0 0 0-.3 0h-.4l-.2.5v1.6h-.4v-1.7l-.1-.3-.4-.2-.2.1-.2.2-.1.4v1.5h-.4Zm4.5 0a1 1 0 0 1-.4 0 .7.7 0 0 1-.3-.3l-.1-.4v-.3l.3-.3h.3a3.7 3.7 0 0 1 .7-.2h.2v-.5l-.5-.2-.4.1-.2.3-.4-.1.3-.4.4-.2a1.5 1.5 0 0 1 .6 0l.3.1.3.3v2.1h-.3v-.3l-.2.2-.2.1a1 1 0 0 1-.4 0Zm0-.3h.5l.2-.3v-.6h-.2a5.8 5.8 0 0 1-.4.1h-.3l-.2.2v.5l.5.1Zm1.7.3v-2.5h.3v2.5h-.3Zm.2-3h-.2l-.1-.2v-.2h.4l.1.2v.2h-.2Zm1-.3v3.3h-.4v-3.3h.4Zm.8 3.3h-.2v-.5h.4l.1.3v.2h-.3Zm1.8 0a1 1 0 0 1-.6 0l-.4-.6-.1-.6.1-.7.4-.5.6-.1h.5l.3.4.2.4h-.4v-.3l-.3-.1h-.7l-.2.4-.1.5v.5l.3.3.4.1h.4l.2-.4h.4c0 .1 0 .3-.2.4l-.3.3a1 1 0 0 1-.5 0Zm2.4 0a1 1 0 0 1-.6 0 1 1 0 0 1-.4-.5l-.2-.7c0-.3 0-.5.2-.7 0-.2.2-.4.4-.5l.6-.1.6.1.4.5.1.7-.1.7-.4.4a1 1 0 0 1-.6.2Zm0-.3.4-.1.3-.4v-.9l-.3-.3a.7.7 0 0 0-.4-.2c-.2 0-.3 0-.4.2l-.3.3v.9c0 .2.2.3.3.4l.4.1Zm1.5.3v-2.5h.4v.4l.3-.3.4-.1h.4l.2.4.4-.3.4-.1c.2 0 .4 0 .6.2l.2.6v1.7H80v-1.7l-.1-.4a.6.6 0 0 0-.4 0H79l-.2.5v1.6h-.4v-2l-.5-.2-.2.1-.2.2-.1.4v1.5H77Z"/><mask id="x" width="1" height="16" x="449" y="156" maskUnits="userSpaceOnUse" style="mask-type:luminance"><path fill="#fff" d="M449 156.7h.4v15h-.4v-15Z"/></mask><g mask="url(#x)"><path fill="#EAEFF2" d="M449 156.7v15h.7v-15h-.7Z"/></g><path stroke="#6A7176" stroke-linecap="round" stroke-linejoin="round" stroke-width=".7" d="M460.4 161.4h.5l.2-.3v-2.8l-.2-.2-.6-.1h-2.2l-.3.3v.5m.7 4.5h-1.7l-.6-.1a.5.5 0 0 1-.2-.2V160l.2-.2h2.9l.2.2v2.9l-.3.2h-.5Z"/><mask id="y" width="442" height="1" x="26" y="177" maskUnits="userSpaceOnUse" style="mask-type:luminance"><path fill="#fff" d="M26.3 177h441.4v.4H26.3v-.4Z"/></mask><g mask="url(#y)"><path fill="#EAEFF2" d="M26.3 177.4h441.4v-.7H26.3v.7Z"/></g><path fill="#6A7176" d="m33.1 189-.7-.2c-.2 0-.4-.2-.5-.4l-.2-.6h.6l.1.4.3.2h.9l.3-.3v-.6l-.3-.1-.4-.2h-.4c-.3-.2-.6-.3-.7-.5a.8.8 0 0 1-.3-.6c0-.2 0-.4.2-.6l.5-.4.6-.1.7.1.5.4.2.6h-.6c0-.2 0-.4-.2-.5a1 1 0 0 0-.6-.1 1 1 0 0 0-.4 0l-.2.3-.1.3v.3l.4.1.3.1.3.1.4.2c.1 0 .3 0 .4.2l.2.3.1.4a1 1 0 0 1-.6 1l-.8.1Zm1.9 1v-4h.5v.5l.2-.2.2-.2.5-.1.6.1.4.5.2.8c0 .4 0 .6-.2.8 0 .3-.2.4-.4.6l-.6.1a1 1 0 0 1-.5 0 .8.8 0 0 1-.2-.3l-.2-.2v1.5H35Zm1.3-1.5c.1 0 .3 0 .4-.2l.2-.3.1-.6v-.5l-.3-.3a.7.7 0 0 0-.4-.2c-.2 0-.3 0-.5.2l-.2.3v1.1l.2.3.5.2Zm2.5.4h-.5a.8.8 0 0 1-.3-.4l-.2-.4.1-.4.3-.3.3-.1.4-.1a20.8 20.8 0 0 0 .7-.1v-.5l-.5-.2-.4.1-.2.3-.6-.1c0-.2.2-.3.3-.4l.4-.3a1.6 1.6 0 0 1 .9 0c.1 0 .2 0 .3.2.2 0 .2.1.3.3l.1.5v1.9h-.5v-.4l-.2.2-.3.2a1 1 0 0 1-.4 0Zm.1-.4.4-.1.3-.2v-.7h-.2a10.6 10.6 0 0 1-.7.2l-.2.1-.1.3.1.3h.4Zm1.9.4V186h.5v.5c0-.2.2-.3.3-.4l.5-.1.5.1.3.4c0-.2.2-.3.3-.4l.6-.1c.2 0 .4 0 .6.2.2.2.3.4.3.8v1.9H44V187c0-.2 0-.3-.2-.4a.6.6 0 0 0-.3-.2l-.5.2-.1.4v1.9h-.6v-2l-.1-.3a.5.5 0 0 0-.4-.2l-.3.1-.2.3v2.1h-.6Zm5.6 0v-.4l1.2-1.4.4-.4.2-.3v-.6l-.3-.2-.3-.1h-.4l-.2.3-.1.4h-.6l.2-.7.4-.4.7-.1.6.1.4.4c.2.2.2.4.2.6v.4l-.4.5-.5.6-.8.7H49v.6h-2.5ZM33.6 194.5h-.4l-.2-.2h-.7l-.2.3.1.2.4.2h.3l.5.3.2.4-.1.4-.4.3H32a.7.7 0 0 1-.3-.6h.3l.2.2.4.1h.4l.2-.4c0-.1-.1-.2-.4-.3l-.4-.1a1 1 0 0 1-.5-.3.6.6 0 0 1-.2-.4c0-.1 0-.3.2-.4l.3-.2.5-.1c.2 0 .4 0 .6.2l.3.4Zm.4 2.9v-3.5h.3v.4l.2-.2.2-.1.4-.1a1 1 0 0 1 1 .6v1.4l-.4.4a1 1 0 0 1-.6.2l-.4-.1a.7.7 0 0 1-.2-.2l-.1-.2v1.4H34Zm1-1.3h.5l.2-.4v-1l-.2-.3a.6.6 0 0 0-.4-.2c-.2 0-.3 0-.4.2l-.3.3v1l.3.3.4.1Zm2.3.4a1 1 0 0 1-.4-.1.7.7 0 0 1-.4-.3v-.7l.2-.2.4-.2h.7l.2-.1v-.5l-.5-.2a.7.7 0 0 0-.6.4l-.4-.1c0-.2.2-.3.3-.4l.3-.2a1.5 1.5 0 0 1 .7 0l.3.1.2.3.1.5v1.6H38v-.3l-.1.2-.2.1a1 1 0 0 1-.4 0Zm0-.4h.4l.3-.3v-.6a1.8 1.8 0 0 1-.5 0 8.4 8.4 0 0 1-.4.2l-.2.1v.5l.4.1Zm1.6.3V194h.4v.4l.3-.3.4-.1.4.1.3.3.3-.3.5-.1c.2 0 .4 0 .5.2l.2.6v1.7h-.4v-1.7l-.1-.3a.6.6 0 0 0-.4-.2c-.2 0-.3 0-.4.2l-.1.4v1.6h-.4v-1.7c0-.1 0-.3-.2-.3l-.3-.2-.3.1a.6.6 0 0 0-.3.6v1.5H39Zm3.8 0v-.3l1.1-1.2a6.4 6.4 0 0 0 .5-.6v-.3a.5.5 0 0 0-.2-.5l-.4-.1h-.3l-.2.3v.3h-.5c0-.2 0-.3.2-.5l.3-.3.6-.2c.1 0 .3 0 .5.2l.3.3.2.5-.1.3-.2.4-.5.5-.7.8h1.5v.4h-2Zm4.5 1-.9-.2-.6-.4-.4-.7-.2-.9.2-.8c0-.3.2-.5.4-.7l.6-.4a2.4 2.4 0 0 1 1.7 0 1.6 1.6 0 0 1 .9 1l.1.7v.5l-.1.4-.2.3-.4.2H48l-.2-.2-.2-.2-.1.2h-.2l-.3.1-.5-.1a.9.9 0 0 1-.3-.4v-1.1l.4-.4.4-.1a.7.7 0 0 1 .6.2v-.2h.4v1.8h.5l.1-.4v-.6a1.6 1.6 0 0 0-.2-.9l-.3-.3-.4-.2h-1.2l-.6.4-.3.5v1.5c0 .2.2.4.3.5l.6.4a2.2 2.2 0 0 0 1.4 0h.2v.2l-.2.1a3.2 3.2 0 0 1-.7.1ZM47 196h.4l.2-.3v-.9l-.2-.2-.4-.1-.3.1-.2.3v.7l.2.3.3.1Zm3.1.5a1 1 0 0 1-.4-.1.7.7 0 0 1-.3-.3l-.1-.4v-.3l.3-.2.3-.2h.7l.2-.1v-.5l-.5-.2a.7.7 0 0 0-.6.4l-.4-.1c0-.2.2-.3.3-.4l.3-.2a1.5 1.5 0 0 1 .7 0l.3.1.3.3v2.1H51v-.3l-.2.2-.2.1a1 1 0 0 1-.4 0Zm0-.4h.5l.2-.3v-.6h-.2a5.7 5.7 0 0 1-.4.1H50l-.2.2v.5l.5.1Zm2.6.4a1 1 0 0 1-1-.6v-1.4l.4-.5.6-.1h.4l.2.3.1.1v-1.2h.4v3.3h-.3v-.4l-.2.2-.2.2h-.4Zm0-.4h.4l.3-.4v-1c0-.2-.1-.3-.3-.3a.6.6 0 0 0-.4-.2l-.4.2-.2.3v1l.2.3.4.1Zm2.6 1.3-.6-.1a1 1 0 0 1-.4-.4l.3-.2.2.2.2.1h.8c.2-.2.2-.3.2-.5v-.5l-.1.1-.2.2h-.4a1 1 0 0 1-1-.6v-1.2l.4-.5.6-.1h.4l.2.3.1.1v-.4h.4v2.6l-.1.5c-.1.2-.2.3-.4.3l-.6.1Zm0-1.4c.3 0 .4 0 .6-.2l.2-.6-.1-.5c0-.2-.2-.3-.3-.3a.6.6 0 0 0-.4-.2c-.1 0-.3 0-.4.2 0 0-.2.1-.2.3l-.1.5v.4l.3.3.4.1Zm3.2-.6v-1.5h.4v2.5h-.4v-.4l-.3.3-.5.2-.4-.1a.7.7 0 0 1-.3-.4V194h.3v1.6c0 .2 0 .3.2.4l.4.2a.7.7 0 0 0 .5-.3l.1-.4Zm1.6 1a1 1 0 0 1-.4 0 .7.7 0 0 1-.3-.3l-.1-.4v-.3l.3-.2.3-.2h.7l.2-.1v-.5l-.4-.2a.7.7 0 0 0-.7.4l-.4-.1.3-.4.4-.2a1.5 1.5 0 0 1 .6 0l.3.1.3.3v2.1H61v-.3l-.2.2-.2.1a1 1 0 0 1-.4 0Zm0-.3h.5l.2-.3v-.6h-.2a5.6 5.6 0 0 1-.4.1H60l-.2.2v.5l.5.1Zm1.7.3V194h.3v.4l.3-.3.4-.1h.2v.4a1.4 1.4 0 0 0-.2 0h-.3l-.3.2V196.4h-.4Zm2.3 0a1 1 0 0 1-1-.5v-1.4l.5-.5.5-.1h.4l.2.3.2.1v-1.2h.4v3.3h-.4v-.4l-.2.2-.2.2h-.4Zm0-.3h.5l.2-.4v-1c0-.2-.1-.3-.2-.3a.6.6 0 0 0-.4-.2c-.2 0-.3 0-.4.2l-.3.3v1l.3.3.4.1Zm1.7.3V194h.3v.4l.3-.3.4-.1.5.1.2.3.3-.3.5-.1c.2 0 .4 0 .5.2.2.1.3.4.3.6v1.7h-.4v-1.7c0-.1 0-.3-.2-.3a.6.6 0 0 0-.3-.2c-.2 0-.4 0-.5.2l-.1.4v1.6h-.4v-1.7l-.1-.3-.4-.2-.3.1a.6.6 0 0 0-.3.6v1.5h-.3Zm4.5 0a1 1 0 0 1-.4 0 .7.7 0 0 1-.4-.3v-.7l.2-.2.4-.2h.7l.2-.1v-.5l-.5-.2a.7.7 0 0 0-.6.4l-.4-.1c0-.2.2-.3.3-.4l.3-.2a1.5 1.5 0 0 1 .7 0l.3.1.2.3.1.5v1.6H71v-.3l-.1.2-.2.1a1 1 0 0 1-.4 0Zm0-.3h.4l.3-.3v-.6h-.2a5.7 5.7 0 0 1-.4.1H70l-.2.2v.5l.4.1Zm1.6.3V194h.4v2.5H72Zm.2-2.9H72v-.4l.2-.1h.2l.1.2v.2l-.3.1Zm1-.4v3.3h-.3v-3.3h.4Zm.9 3.4a.3.3 0 0 1-.3-.3v-.2l.3-.1h.2v.5H74Zm1.8 0a1 1 0 0 1-.6-.2l-.4-.4-.1-.7v-.7l.5-.4c.2-.2.4-.2.6-.2h.5l.3.4.2.4h-.4l-.1-.2-.2-.2h-.7l-.3.4v1l.3.3.4.1h.4l.2-.4h.4l-.2.4-.3.3a1 1 0 0 1-.5 0Zm2.4 0c-.3 0-.5 0-.6-.2-.2 0-.3-.2-.4-.4l-.2-.7c0-.3 0-.5.2-.7 0-.2.2-.3.4-.5l.6-.1.5.1c.2.2.4.3.4.5l.2.7c0 .2 0 .5-.2.7a1 1 0 0 1-.3.4l-.6.2Zm0-.4.4-.1.2-.3.1-.5v-.5l-.3-.3a.7.7 0 0 0-.4-.2c-.2 0-.4 0-.5.2l-.2.3a1.4 1.4 0 0 0 0 1l.2.3.5.1Zm1.5.3V194h.3v.4l.3-.3.4-.1.5.1.2.3.3-.3.5-.1c.2 0 .4 0 .5.2.2.1.3.4.3.6v1.7h-.4v-1.7c0-.1 0-.3-.2-.3a.6.6 0 0 0-.3-.2c-.2 0-.4 0-.4.2l-.2.4v1.6h-.4v-1.7l-.1-.3-.4-.2-.3.1-.2.2v1.9h-.4Z"/><path fill="#E38130" d="M32.9 203.7H32v-.4h.7c.3 0 .5 0 .7-.2.2 0 .3-.2.4-.4l.2-.7c0-.3 0-.5-.2-.7a1 1 0 0 0-.4-.5l-.6-.1H32v-.4h1c.2 0 .5 0 .7.2.3.1.5.3.6.6l.2.9-.2.9-.6.6-.8.2Zm-.7-3.4v3.4h-.4v-3.4h.4Zm2.7 3.4V201h.4v2.6h-.4Zm.2-3h-.2l-.1-.2v-.2l.3-.1h.2v.4l-.2.1Zm2.4 1-.3.1-.2-.2-.4-.2-.4.2-.1.2.1.2.3.2h.4l.5.3.2.5c0 .1 0 .2-.2.3 0 .2-.2.2-.3.3l-.5.1c-.3 0-.5 0-.6-.2a.7.7 0 0 1-.4-.4l.4-.1.2.3h.8l.2-.3c0-.2-.2-.3-.4-.4h-.4a1 1 0 0 1-.5-.3.6.6 0 0 1-.2-.5l.1-.3.4-.3h1c.2.2.3.3.3.5Zm1.2 2a1 1 0 0 1-.5 0 .7.7 0 0 1-.3-.3v-.8l.2-.2.3-.1a4.1 4.1 0 0 1 .8-.1l.2-.1v-.1l-.1-.4-.4-.1a.7.7 0 0 0-.6.3l-.4-.1.2-.4.4-.1a1.5 1.5 0 0 1 .7 0h.3l.2.3.1.5v1.7h-.4v-.4l-.1.2-.3.1a1 1 0 0 1-.3.1Zm0-.3.4-.1a.6.6 0 0 0 .3-.6v-.3H39a5.8 5.8 0 0 1-.3.1l-.3.1-.2.1-.1.3.1.3h.4Zm2.8.3H41a.7.7 0 0 1-.3-.3v-.1h-.1v.4h-.4v-3.4h.4v1.2l.1-.1.3-.2h.4a1 1 0 0 1 .9.5l.1.7-.1.7-.4.4a1 1 0 0 1-.5.2Zm0-.3s.2 0 .3-.2l.3-.3v-1l-.3-.3a.6.6 0 0 0-.4-.1.6.6 0 0 0-.6.4l-.1.5v.5l.3.3.4.2Zm1.8-3v3.3h-.4v-3.4h.4Zm1.5 3.3c-.2 0-.4 0-.6-.2a1 1 0 0 1-.4-.4l-.2-.7.2-.7c0-.2.2-.3.4-.4l.6-.2h.4a1 1 0 0 1 .6.7v.7H44v-.3h1.8l-.2.1-.1-.4c0-.2-.1-.3-.2-.3a.6.6 0 0 0-.4-.1h-.4l-.3.4v1.1l.3.3h.7l.2-.1.1-.2h.4c0 .2 0 .3-.2.4l-.3.2-.5.1Zm2.4 0a1 1 0 0 1-1-.6l-.1-.7.1-.7.4-.4.6-.2h.4l.2.3.1.1v-1.2h.4v3.4H48v-.4l-.1.1-.2.2-.4.1Zm0-.3c.2 0 .3 0 .4-.2l.3-.3v-1l-.3-.3a.6.6 0 0 0-.4-.1h-.4l-.2.4-.1.5v.5l.3.3.4.2Z"/><mask id="z" width="1" height="23" x="449" y="183" maskUnits="userSpaceOnUse" style="mask-type:luminance"><path fill="#fff" d="M449 183.3h.4v22.3h-.4v-22.3Z"/></mask><g mask="url(#z)"><path fill="#EAEFF2" d="M449 183.3v22.3h.7v-22.3h-.7Z"/></g><path stroke="#A5A9AB" stroke-linecap="round" stroke-linejoin="round" stroke-width=".7" d="M460.4 188h.5l.2-.3v-2.8l-.2-.2-.6-.1h-2.2l-.3.3v.5m.7 4.5h-1.7l-.6-.1a.5.5 0 0 1-.2-.2v-2.9l.2-.2h2.9l.2.2v2.9l-.3.2h-.5Z"/><mask id="A" width="442" height="2" x="26" y="210" maskUnits="userSpaceOnUse" style="mask-type:luminance"><path fill="#fff" d="M26.3 210.9h441.4v.3H26.3v-.3Z"/></mask><g mask="url(#A)"><path fill="#EAEFF2" d="M26.3 211.2h441.4v-.6H26.3v.6Z"/></g><path fill="#35383B" d="M31.8 222.7V219h2.4v.5h-1.8v1.2H34v.5h-1.6v1.6h-.6Zm3.9 0-.8-.1-.4-.5-.2-.8c0-.3 0-.6.2-.8a1.2 1.2 0 0 1 1.2-.7c.2 0 .5 0 .7.2l.4.5.2.8c0 .3 0 .5-.2.8a1.2 1.2 0 0 1-1.1.7Zm0-.4.4-.1.2-.4.1-.5v-.5l-.3-.4a.7.7 0 0 0-.4-.1l-.5.1-.2.4-.1.5v.5l.3.4h.5Zm1.7.4v-2.9h.5v.5l.3-.4.5-.1a1.4 1.4 0 0 1 .2 0v.5h-.6l-.3.3v2.1h-.6Zm3.5-1.7v1.7h-.5V219h.5v1.4l.4-.4.5-.1.5.1.4.4v2.4h-.5V221l-.1-.4a.6.6 0 0 0-.5-.2h-.3l-.3.3v.4Zm2.4 1.7v-2.9h.6v3h-.6Zm.3-3.3-.3-.1v-.5h.5l.1.3v.2h-.3Zm1.3 2.3v-.6h.1l1.2-1.3h.6l-1.3 1.4-.6.5Zm-.5 1V219h.6v3.8h-.6Zm1.8 0-1-1.4.4-.3 1.3 1.7h-.7Zm1 0v-2.9h.5v3H47Zm.2-3.3-.3-.1v-.5h.5l.1.3v.2h-.3Zm1.4 1.6v1.7h-.6v-2.9h.5v.5l.4-.4.5-.1.5.1.4.4v2.4H50V221l-.1-.4a.6.6 0 0 0-.5-.2h-.3l-.3.3v.4Zm3.5 2.8c-.3 0-.6 0-.8-.2a1 1 0 0 1-.4-.4l.5-.2.1.2.2.1h1l.2-.6v-.5l-.2.2-.3.2a1 1 0 0 1-.4 0l-.6-.1-.5-.5-.1-.7.1-.8.5-.5.6-.2h.4l.3.3.1.2v-.5h.6v3c0 .2 0 .4-.2.6a1 1 0 0 1-.4.3l-.7.1Zm0-1.6c.3 0 .4 0 .6-.3l.2-.6-.1-.6-.3-.3a.7.7 0 0 0-.4-.1l-.4.1-.3.4v.9l.3.4.4.1ZM31.8 230.3v-2.6h.3v.4l.3-.3h.9l.2.3.3-.3h.5l.6.1.2.7v1.7h-.4v-1.7c0-.2 0-.3-.2-.4a.6.6 0 0 0-.3-.1l-.4.1-.2.4v1.7h-.4v-1.8l-.1-.3-.4-.1h-.2a.6.6 0 0 0-.3.6v1.6h-.4Zm4.8 0a1 1 0 0 1-.6-.1 1 1 0 0 1-.4-.5l-.2-.7c0-.2 0-.5.2-.7 0-.2.2-.3.4-.4l.6-.2c.2 0 .4 0 .6.2l.4.4.1.7-.1.7a1 1 0 0 1-.4.5 1 1 0 0 1-.6.1Zm0-.3c.2 0 .3 0 .4-.2l.3-.3v-1l-.3-.3a.7.7 0 0 0-.4-.1l-.4.1c-.2 0-.2.2-.3.3a1.4 1.4 0 0 0 0 1l.3.3.4.2Zm3-.8v-1.5h.5v2.6h-.4v-.5l-.3.4h-.9a.7.7 0 0 1-.3-.3l-.1-.6v-1.6h.4v1.6l.1.5.4.1a.7.7 0 0 0 .6-.3v-.4Zm1.3-.4v1.5h-.3v-2.6h.3v.4l.3-.3h.9c.2 0 .3.2.3.3l.1.6v1.6h-.3v-1.6l-.2-.5a.5.5 0 0 0-.4-.1h-.4l-.2.3v.4Zm3.2-1v.3h-1.3v-.4h1.3Zm-.9-.6h.4V229.8l.3.1a.7.7 0 0 0 .2 0v.3h-.7a.6.6 0 0 1-.2-.6v-2.4Zm2 3.1a1 1 0 0 1-.4 0 .7.7 0 0 1-.3-.3l-.1-.5v-.3l.3-.2.3-.1h.3l.4-.1h.2V228.1l-.4-.1a.7.7 0 0 0-.7.3h-.4a.9.9 0 0 1 .7-.6 1.5 1.5 0 0 1 .6 0h.3l.3.3v2.2H46v-.4l-.2.2-.2.2a1 1 0 0 1-.4 0Zm0-.3.5-.1.2-.2v-.7h-.2a5.8 5.8 0 0 1-.4.1l-.3.1-.2.1v.3l.1.3h.4Zm1.7.3v-2.6h.3v2.6H47Zm.2-3h-.2l-.1-.2v-.2h.5v.4H47Zm1 1.5v1.5h-.4v-2.6h.4v.4l.3-.3h.9l.3.3.1.6v1.6h-.4v-1.6l-.1-.5a.5.5 0 0 0-.4-.1h-.4l-.2.3v.4Zm3.8 1.5v.3h-2v-.3h2Zm.6-1.5v1.5H52v-3.4h.4v1.2l.3-.3h.9l.3.3.1.6v1.6h-.4v-1.6l-.1-.5a.6.6 0 0 0-.5-.1h-.3l-.2.3-.1.4Zm2 1.5v-2.6h.5v2.6h-.4Zm.3-3h-.2v-.4h.4v.4h-.2Zm1 2v-.4h.1l1-1.2h.6l-1.2 1.2-.5.4Zm-.3 1v-3.4h.3v3.4h-.3Zm1.6 0-1-1.3.2-.2 1.2 1.5h-.4Zm1.6 0-.6-.1a1 1 0 0 1-.4-.5l-.2-.7c0-.2 0-.5.2-.7 0-.2.2-.3.4-.4l.5-.2h.4l.4.3.2.4.1.6v.1h-1.9v-.3h1.7l-.2.1v-.4l-.3-.3a.6.6 0 0 0-.4-.1h-.3l-.3.4v1.1l.3.3h.7l.2-.1.1-.2h.4l-.2.4-.3.2-.5.1Zm1.4 0v-2.6h.4v.4l.2-.3h.7v.3a1.4 1.4 0 0 0-.3 0h-.3l-.2.3-.1.3v1.6H60Zm3.4.8-.9-.1a1.7 1.7 0 0 1-1-1l-.1-1 .1-.8c0-.2.2-.4.4-.6l.6-.4a2.4 2.4 0 0 1 1.7 0 1.6 1.6 0 0 1 1 1v1.1l-.1.4-.2.4H64l-.2-.3v.2l-.3.1h-.8a1 1 0 0 1-.3-.5v-1.1l.4-.4h.4a.7.7 0 0 1 .6.1v-.1h.4v1.7h.5l.1-.4v-.6a1.6 1.6 0 0 0-.2-.8c0-.1-.1-.3-.3-.3l-.4-.3h-1.2l-.5.4-.4.6v1.4l.4.6.5.3a2.2 2.2 0 0 0 1.4 0h.2v.3h-.2a3.2 3.2 0 0 1-.7.1Zm-.2-1.3h.4l.2-.3v-.9l-.2-.2H63l-.2.3v.7c0 .2.1.3.2.3l.3.1Zm3.1.5a1 1 0 0 1-.4 0 .7.7 0 0 1-.3-.3l-.1-.5v-.3l.3-.2.3-.1h.3l.4-.1h.2V228.1l-.4-.1a.7.7 0 0 0-.7.3h-.4l.3-.5.4-.1a1.5 1.5 0 0 1 .6 0h.3l.3.3v2.2h-.3v-.4l-.2.2-.2.2a1 1 0 0 1-.4 0Zm0-.3.5-.1.2-.2v-.7h-.2a5.8 5.8 0 0 1-.4.1l-.3.1-.2.1v.3l.1.3h.4Zm2.6.3a1 1 0 0 1-1-.6v-1.4l.5-.4.5-.2.4.1.2.2.1.1V227h.5v3.4h-.4v-.4l-.2.1-.2.2-.4.1Zm0-.3c.2 0 .3 0 .5-.2l.2-.3v-1l-.2-.3a.6.6 0 0 0-.4-.1h-.4l-.3.4v1c0 .1.1.3.3.3l.4.2Zm2.7 1.3-.7-.2a1 1 0 0 1-.4-.4l.3-.2.2.2.2.1.4.1.5-.1.2-.5v-.5l-.2.2-.2.1-.4.1a1 1 0 0 1-1-.6V228.4l.4-.4.6-.2.4.1.2.2.1.1v-.4h.4v2.6l-.1.6-.4.3h-.5Zm0-1.4c.2 0 .4-.1.5-.3l.2-.6-.1-.5-.3-.3a.6.6 0 0 0-.4-.1h-.4l-.2.4v.9l.2.4h.4Zm3.1-.7v-1.5h.4v2.6h-.4v-.5c0 .2-.2.3-.3.4h-.9a.7.7 0 0 1-.3-.3v-2.2h.3v1.6c0 .2 0 .3.2.5l.4.1a.7.7 0 0 0 .5-.3l.1-.4Zm1.6 1.1a1 1 0 0 1-.4 0 .7.7 0 0 1-.3-.3l-.1-.5v-.3l.3-.2.3-.1h.3l.4-.1h.2V228.1l-.4-.1a.7.7 0 0 0-.7.3h-.4l.3-.5.4-.1a1.5 1.5 0 0 1 .6 0h.3l.3.3v2.2h-.3v-.4l-.2.2-.2.2a1 1 0 0 1-.4 0Zm0-.3.5-.1.2-.2v-.7h-.2a5.9 5.9 0 0 1-.4.1l-.3.1-.2.1v.3l.1.3h.4Zm1.7.3v-2.6h.3v.4l.3-.3h.6v.3a1.5 1.5 0 0 0-.2 0h-.3l-.3.3V230.3H78Zm2.3 0a1 1 0 0 1-.9-.6l-.1-.7.1-.7.4-.4.5-.2.4.1.2.2.2.1V227h.4v3.4h-.4v-.4l-.2.1c0 .1 0 .2-.2.2l-.4.1Zm0-.3c.2 0 .4 0 .5-.2 0 0 .2-.1.2-.3l.1-.5v-.5l-.3-.3a.6.6 0 0 0-.4-.1H80l-.3.4v1l.3.3.4.2Zm1.7.3v-2.6h.3v.4l.3-.3h.9l.2.3.3-.3h.5l.5.1c.2.2.3.4.3.7v1.7H85v-1.7c0-.2 0-.3-.2-.4a.6.6 0 0 0-.3-.1l-.4.1-.2.4v1.7h-.4v-1.8l-.1-.3-.4-.1h-.3a.6.6 0 0 0-.2.6v1.6H82Zm4.5 0a1 1 0 0 1-.4 0 .7.7 0 0 1-.3-.3l-.2-.5.1-.3.3-.2.3-.1h.3l.4-.1h.2V228.1l-.5-.1a.7.7 0 0 0-.6.3h-.4c0-.2.2-.4.3-.5l.3-.1a1.5 1.5 0 0 1 .7 0h.3l.2.3.1.5v1.7h-.3v-.4l-.2.2-.2.2a1 1 0 0 1-.4 0Zm0-.3.4-.1.3-.2v-.7H87a5.7 5.7 0 0 1-.4.1l-.3.1-.2.1v.6h.5Zm1.6.3v-2.6h.4v2.6h-.4Zm.2-3h-.2v-.4h.4l.1.2v.2h-.3Zm1.1-.4v3.4h-.4v-3.4h.4Zm.8 3.4-.2-.1-.1-.2v-.2l.3-.1h.2v.5h-.2Zm1.8 0a1 1 0 0 1-.6-.2c-.2 0-.3-.2-.4-.4l-.1-.7.1-.7.4-.4.6-.2.5.1.3.3.2.4h-.4l-.1-.2-.2-.2h-.7l-.3.4v1l.3.3.4.2.4-.1.2-.4h.4c0 .2 0 .3-.2.4l-.3.3a1 1 0 0 1-.5.1Zm2.4 0a1 1 0 0 1-.6-.1 1 1 0 0 1-.4-.5l-.2-.7c0-.2 0-.5.2-.7 0-.2.2-.3.4-.4l.6-.2c.2 0 .4 0 .6.2l.4.4.1.7-.1.7a1 1 0 0 1-.4.5 1 1 0 0 1-.6.1Zm0-.3c.1 0 .3 0 .4-.2l.2-.3.1-.5v-.5l-.3-.3a.7.7 0 0 0-.4-.1l-.5.1-.2.3a1.4 1.4 0 0 0 0 1l.2.3.5.2Zm1.5.3v-2.6h.3v.4l.3-.3h.9l.2.3.3-.3h.5l.6.1.2.7v1.7h-.4v-1.7c0-.2 0-.3-.2-.4a.6.6 0 0 0-.3-.1l-.4.1-.2.4v1.7h-.4v-1.8l-.1-.3-.4-.1h-.3a.6.6 0 0 0-.2.6v1.6H96Z"/><mask id="B" width="1" height="16" x="449" y="217" maskUnits="userSpaceOnUse" style="mask-type:luminance"><path fill="#fff" d="M449 217.1h.4v15.1h-.4v-15Z"/></mask><g mask="url(#B)"><path fill="#EAEFF2" d="M449 217.1v15.1h.7v-15h-.7Z"/></g><path stroke="#6A7176" stroke-linecap="round" stroke-linejoin="round" stroke-width=".7" d="M460.4 221.9h.5l.2-.4V218.7l-.2-.2H458l-.3.3v.4m.7 4.5h-2.3a.5.5 0 0 1-.2-.3v-2.8l.2-.3h2.9l.2.3V223.4l-.3.2h-.5Z"/><mask id="C" width="442" height="1" x="26" y="237" maskUnits="userSpaceOnUse" style="mask-type:luminance"><path fill="#fff" d="M26.3 237.5h441.4v.3H26.3v-.3Z"/></mask><g mask="url(#C)"><path fill="#EAEFF2" d="M26.3 237.8h441.4v-.6H26.3v.6Z"/></g><path fill="#35383B" d="M33.4 249.4c-.3 0-.6-.1-.8-.3-.3-.1-.5-.4-.7-.6l-.2-1.1c0-.4 0-.8.2-1 .2-.3.4-.6.7-.7.2-.2.5-.3.8-.3l.6.1c.2 0 .3.2.5.3l.3.4.2.5h-.6a.9.9 0 0 0-.3-.5l-.3-.2a1.1 1.1 0 0 0-1 .1l-.4.5-.1.8.1.8.5.5.5.1h.4a1 1 0 0 0 .5-.4l.1-.3h.6c0 .2 0 .3-.2.5a1.5 1.5 0 0 1-.8.7h-.6Zm3.9-1.3v-1.7h.5v3h-.5v-.6l-.4.4-.5.1a1 1 0 0 1-.5 0 .8.8 0 0 1-.3-.4l-.2-.6v-1.9h.6v1.8c0 .2 0 .4.2.5l.4.1a.7.7 0 0 0 .7-.7Zm1.6-2.6v3.8h-.6v-3.8h.6Zm.5 3.8v-2.9h.6v3h-.6Zm.3-3.3-.2-.1-.1-.2v-.3h.6v.5l-.3.1Zm1.4 1.6v1.7h-.6v-2.9h.6v.5l.3-.4h1.1l.3.4.1.6v1.8h-.5v-1.7c0-.3 0-.4-.2-.5a.6.6 0 0 0-.4-.2h-.4l-.2.3-.1.4Zm3.2 1.8-.5-.1a.8.8 0 0 1-.4-.3v-.9l.3-.2.3-.2h.4a32.3 32.3 0 0 0 .7-.2v-.1l-.1-.4-.4-.1H44l-.2.4-.5-.2.3-.4.4-.2a1.6 1.6 0 0 1 .8 0h.4l.3.4.1.5v2h-.6v-.5l-.1.2-.3.2a1 1 0 0 1-.4 0Zm.1-.5h.4l.3-.3v-.7l-.3.1h-.4l-.2.1-.3.2v.2l.1.3.4.1Zm1.8.4v-2.9h.6v.5c0-.2.1-.3.3-.4l.4-.1H47.8v.5H47.5l-.4.1-.2.2-.1.4v1.7h-.6Zm2.3 1a1 1 0 0 1-.4 0l.1-.4h.4l.3-.4v-.2l-1-2.9h.6l.7 2.3.8-2.3h.6l-1.2 3.3-.2.4-.3.2a1 1 0 0 1-.4 0ZM32.9 254.4v.3h-1.4v-.3H33Zm-1 2.5V254l.1-.3.3-.3h.4a1 1 0 0 1 .3 0v.4a.7.7 0 0 0-.3 0h-.3V257h-.5Zm2.2 0a1 1 0 0 1-.6-.1 1 1 0 0 1-.4-.5l-.1-.7.1-.7.4-.4.6-.2c.3 0 .5 0 .6.2.2 0 .3.2.4.4l.2.7c0 .3 0 .5-.2.7a1 1 0 0 1-.4.5 1 1 0 0 1-.6.1Zm0-.3c.2 0 .3 0 .5-.2l.2-.3v-.9l-.2-.4a.7.7 0 0 0-.5-.1l-.4.1-.2.4-.1.4v.5l.3.3.4.2Zm2.6.3a1 1 0 0 1-.6-.1 1 1 0 0 1-.4-.5l-.2-.7c0-.2 0-.5.2-.7 0-.2.2-.3.4-.4l.6-.2c.2 0 .4 0 .6.2l.4.4.1.7-.1.7a1 1 0 0 1-.4.5 1 1 0 0 1-.6.1Zm0-.3c.1 0 .3 0 .4-.2l.2-.3.1-.5v-.4l-.3-.4a.7.7 0 0 0-.4-.1l-.5.1-.2.4v.9l.2.3.5.2Zm2.4.3a1 1 0 0 1-1-.6V255l.5-.4.5-.2.4.1.2.2.2.2v-1.3h.4v3.4h-.4v-.4l-.2.2-.2.1-.4.1Zm0-.3.5-.1.2-.4v-1l-.2-.3a.6.6 0 0 0-.4-.1h-.4l-.3.4v1l.3.3.4.2Zm3.6 1.1h-.9l-.6-.5c-.2-.2-.4-.4-.4-.6l-.2-1c0-.2 0-.5.2-.8 0-.2.2-.4.4-.6.1-.2.3-.3.6-.4a2.4 2.4 0 0 1 1.6 0 1.6 1.6 0 0 1 1 1v1.5c0 .2-.2.3-.3.4l-.4.1h-.2l-.3-.2v-.2H43l-.1.2-.2.1H42a.9.9 0 0 1-.3-.5l-.1-.5.1-.6.3-.3.5-.2.4.1.2.2v-.2h.3v1.4l.1.3h.5l.1-.4v-.6a1.6 1.6 0 0 0-.2-.8l-.3-.3-.4-.3H41.9l-.5.4-.3.6-.1.7v.7l.4.6.6.3a2.2 2.2 0 0 0 1.4 0h.2v.3h-.2a3.3 3.3 0 0 1-.7.1Zm-.2-1.3h.3l.2-.3.1-.5v-.4l-.3-.2h-.6l-.2.3v.7c0 .2 0 .3.2.3l.3.1Zm3 .5a1 1 0 0 1-.3 0 .7.7 0 0 1-.4-.3v-.8l.2-.2.4-.1a3.8 3.8 0 0 1 .7-.1h.2V254.7l-.5-.1h-.4l-.2.3h-.4a.9.9 0 0 1 .6-.6 1.5 1.5 0 0 1 .7 0h.3l.2.3.1.5v1.7h-.4v-.4l-.1.2-.2.2a1 1 0 0 1-.4 0Zm.1-.3.4-.1.3-.2v-.7l-.2.1h-.4l-.3.1-.2.1v.6h.4Zm2.6.3a1 1 0 0 1-1-.6V255l.4-.4.6-.2.4.1.2.2.1.2v-1.3h.4v3.4H49v-.4l-.1.2-.2.1-.4.1Zm0-.3.4-.1.3-.4v-1l-.3-.3a.6.6 0 0 0-.4-.1h-.4l-.2.4-.1.5v.5l.3.3.4.2Zm2.6 1.3c-.3 0-.5 0-.6-.2a1 1 0 0 1-.4-.3l.3-.3.1.2.3.2h.3l.5-.1c.2-.1.2-.3.2-.5v-.5l-.1.2-.3.1-.3.1a1 1 0 0 1-1-.6l-.1-.6.1-.7.4-.4.6-.2.4.1.2.2v.2h.1v-.4h.4v2.5l-.1.6-.4.3h-.6Zm0-1.4c.2 0 .4-.1.5-.3.2-.1.2-.3.2-.6v-.5l-.3-.3a.6.6 0 0 0-.4-.1h-.4l-.2.4-.1.5v.5l.3.3h.4Zm3.2-.7v-1.4h.4v2.5H54v-.5l-.3.4-.5.1-.4-.1a.7.7 0 0 1-.3-.3l-.1-.6v-1.5h.4v1.5l.1.5.4.1a.7.7 0 0 0 .6-.3v-.4Zm1.6 1.1a1 1 0 0 1-.4 0 .7.7 0 0 1-.4-.3v-.8l.2-.2.4-.1a3.8 3.8 0 0 1 .7-.1h.2V254.7l-.5-.1h-.4l-.2.3h-.4a.9.9 0 0 1 .6-.6 1.5 1.5 0 0 1 .7 0h.3l.2.3.1.5v1.7h-.3v-.4l-.2.2-.2.2a1 1 0 0 1-.4 0Zm0-.3.4-.1.3-.2v-.7l-.2.1h-.4l-.3.1-.2.1v.6h.4Zm1.6.3v-2.5h.4v.3l.3-.3h.4a2.3 2.3 0 0 1 .2 0v.3a1.5 1.5 0 0 0-.3 0H58l-.2.3V256.9h-.5Zm2.4 0a1 1 0 0 1-1-.6V255l.4-.4.6-.2.4.1.2.2.1.2v-1.3h.4v3.4h-.3v-.4l-.2.2-.2.1-.4.1Zm0-.3.4-.1.3-.4v-1l-.3-.3a.6.6 0 0 0-.4-.1h-.4l-.2.4v1l.2.3.4.2Zm1.6.3v-2.5h.4v.4c0-.2.2-.3.3-.4h.8l.3.4c0-.2.2-.3.3-.4h.5l.5.1c.2.2.2.4.2.7v1.7h-.4v-1.7l-.1-.4a.6.6 0 0 0-.4-.1l-.4.1-.1.4v1.7h-.4V255c0-.1 0-.2-.2-.3l-.3-.1h-.3l-.2.3V256.9h-.5Zm4.6 0a1 1 0 0 1-.5 0 .7.7 0 0 1-.3-.3l-.1-.4v-.4l.3-.2.3-.1a3.8 3.8 0 0 1 .7-.1h.3v-.2l-.1-.4-.4-.1h-.4l-.3.3H65a.9.9 0 0 1 .6-.6 1.5 1.5 0 0 1 .7 0h.3l.2.3.1.5v1.7h-.4v-.4l-.1.2-.3.2a1 1 0 0 1-.3 0Zm0-.3.4-.1.2-.2.1-.3v-.4l-.3.1H66l-.3.1-.2.1-.1.3.1.3h.4Zm1.6.3v-2.5h.4v2.5h-.4Zm.2-3h-.2v-.4h.4v.4h-.2Zm1-.4v3.4h-.3v-3.4h.4Zm.9 3.4h-.3v-.5l.3-.1h.2v.5h-.2Zm1.8 0a1 1 0 0 1-.6-.1l-.4-.5-.2-.7c0-.2 0-.5.2-.7l.4-.4.6-.2.4.1c.2 0 .3.2.4.3l.1.4H72l-.1-.2-.2-.2h-.7l-.3.4v1c0 .2.1.3.3.4h.7c.2-.1.2-.2.3-.4h.3l-.1.4c-.1.2-.2.2-.4.3a1 1 0 0 1-.4.1Zm2.3 0a1 1 0 0 1-.6-.1 1 1 0 0 1-.4-.5l-.1-.7.1-.7.4-.4.6-.2c.3 0 .5 0 .6.2.2 0 .3.2.4.4l.2.7c0 .3 0 .5-.2.7 0 .2-.2.3-.4.5a1 1 0 0 1-.6.1Zm0-.3c.2 0 .3 0 .5-.2l.2-.3v-.9l-.2-.4a.7.7 0 0 0-.5-.1l-.4.1-.2.4-.1.4v.5l.3.3.4.2Zm1.5.3v-2.5h.4v.4l.3-.4h.8l.3.4c0-.2.2-.3.3-.4h.5l.5.1c.2.2.2.4.2.7v1.7H78v-1.7l-.1-.4a.6.6 0 0 0-.4-.1l-.4.1-.1.4v1.7h-.4V255c0-.1 0-.2-.2-.3l-.3-.1h-.3l-.2.3V256.9H75Z"/><mask id="D" width="1" height="16" x="449" y="243" maskUnits="userSpaceOnUse" style="mask-type:luminance"><path fill="#fff" d="M449 243.7h.4v15.1h-.4v-15Z"/></mask><g mask="url(#D)"><path fill="#EAEFF2" d="M449 243.7v15.1h.7v-15h-.7Z"/></g><path stroke="#6A7176" stroke-linecap="round" stroke-linejoin="round" stroke-width=".7" d="M460.4 248.5h.5l.2-.4V245.3l-.2-.2H458l-.3.3v.4m.7 4.5h-2.3a.5.5 0 0 1-.2-.3v-2.8l.2-.3h2.9l.2.3v2.8l-.3.2-.5.1Z"/><mask id="E" width="442" height="1" x="26" y="264" maskUnits="userSpaceOnUse" style="mask-type:luminance"><path fill="#fff" d="M26.3 264h441.4v.4H26.3v-.3Z"/></mask><g mask="url(#E)"><path fill="#EAEFF2" d="M26.3 264.4h441.4v-.6H26.3v.6Z"/></g><path fill="#35383B" d="M33.1 276c-.3 0-.5 0-.7-.2-.2 0-.4-.2-.5-.3l-.2-.6h.6l.1.3.3.2h.9l.3-.2v-.6l-.3-.2-.4-.1-.4-.1-.7-.4a.8.8 0 0 1-.3-.7c0-.2 0-.4.2-.5 0-.2.3-.3.5-.4l.6-.2c.3 0 .5 0 .7.2.2 0 .4.2.5.4l.2.5h-.6c0-.2 0-.3-.2-.4a1 1 0 0 0-.6-.2 1 1 0 0 0-.4.1l-.2.2-.1.3v.3l.4.2h.3l.3.2.4.1.4.2.2.3.1.5a1 1 0 0 1-.6 1H33Zm1.9 1v-4h.5v.5l.2-.2.2-.2H37l.4.6.2.8c0 .3 0 .6-.2.8 0 .2-.2.4-.4.5l-.6.2a1 1 0 0 1-.5-.1.8.8 0 0 1-.2-.2l-.2-.2v1.5H35Zm1.3-1.5.4-.1.2-.4.1-.5v-.5l-.3-.4a.7.7 0 0 0-.4-.1l-.5.1-.2.4v1l.2.4.5.1Zm2.5.5-.5-.1a.8.8 0 0 1-.3-.3l-.2-.5.1-.4.3-.2.3-.2h.4a20.8 20.8 0 0 0 .7-.2v-.5l-.5-.1h-.4l-.2.4-.6-.2.3-.4.4-.2a1.6 1.6 0 0 1 .9 0l.3.1c.2 0 .2.2.3.3l.1.5v2h-.5v-.5l-.2.2-.3.2a1 1 0 0 1-.4 0Zm.1-.5h.4l.3-.3v-.7l-.2.1a10.6 10.6 0 0 1-.7.1l-.2.2-.1.2.1.3.4.1Zm1.9.4V273h.5v.5l.3-.4h1l.3.4.3-.3.6-.2c.2 0 .4 0 .6.3.2.1.3.4.3.7v2H44v-2c0-.1 0-.3-.2-.4a.6.6 0 0 0-.3-.1c-.2 0-.4 0-.5.2l-.1.4v1.8h-.6V274l-.1-.4a.5.5 0 0 0-.4-.1h-.3l-.2.3v2.1h-.6Zm6.9 0H47l-.5-.4a1 1 0 0 1-.2-.6h.6l.1.3.3.2h.8l.2-.2.1-.4a.6.6 0 0 0-.3-.5l-.5-.1h-.3v-.5h.7l.2-.3.1-.3v-.3l-.3-.2h-.7l-.2.2-.1.3h-.6c0-.2 0-.4.2-.6l.5-.3a1.5 1.5 0 0 1 1.2 0c.2 0 .3.2.4.4l.2.5c0 .2 0 .4-.2.5-.1.2-.3.3-.5.3.3.1.5.2.6.4.2.1.2.3.2.6l-.1.5-.5.4-.7.2ZM33.6 281.5l-.4.1-.2-.2-.3-.1h-.4l-.2.3.1.3.4.1h.3l.5.3.2.5-.1.4-.4.2-.5.1-.6-.1a.7.7 0 0 1-.3-.5l.3-.1.2.3h.8c.2-.1.2-.2.2-.3 0-.2-.1-.3-.4-.4h-.4a1 1 0 0 1-.5-.3.6.6 0 0 1-.2-.4c0-.2 0-.3.2-.4l.3-.3h.5l.6.1.3.4Zm.4 3V281h.3v.4l.2-.2.2-.2h.4a1 1 0 0 1 1 .5v1.4l-.4.5a1 1 0 0 1-.6.1h-.4a.7.7 0 0 1-.2-.2l-.1-.2v1.3H34Zm1-1.3.5-.1.2-.4v-1l-.2-.3a.6.6 0 0 0-.4-.1h-.4l-.3.4v1c0 .2.2.3.3.4h.4Zm2.3.3a1 1 0 0 1-.4 0 .7.7 0 0 1-.4-.3v-.8l.2-.2.4-.1a4.1 4.1 0 0 1 .7-.1h.2V281.3l-.5-.1a.7.7 0 0 0-.6.3h-.4a.9.9 0 0 1 .6-.6 1.5 1.5 0 0 1 .7 0h.3l.2.3.1.5v1.7H38v-.4l-.1.2-.2.2a1 1 0 0 1-.4 0Zm0-.3.4-.1a.6.6 0 0 0 .3-.5v-.4l-.2.1a5.9 5.9 0 0 1-.4 0l-.3.1-.2.1v.6h.4Zm1.6.3V281h.4v.4c0-.2.2-.3.3-.4h.8l.3.4c0-.2.2-.3.3-.4h.5l.5.1.2.7v1.7h-.4v-1.7l-.1-.4a.6.6 0 0 0-.4-.1l-.4.1-.1.4v1.7h-.4v-1.7c0-.2 0-.3-.2-.4l-.3-.1h-.3a.6.6 0 0 0-.3.6v1.6H39Zm5 0h-.6a1 1 0 0 1-.4-.4.8.8 0 0 1-.2-.5h.4l.1.3.3.2h.7l.3-.2v-.7l-.3-.2a1 1 0 0 0-.4 0h-.3v-.4h.3l.3-.1.3-.2v-.6l-.2-.2h-.7l-.2.2-.1.3h-.4l.1-.5.4-.3a1.2 1.2 0 0 1 1 0 .9.9 0 0 1 .5.8l-.1.5-.4.2.5.3.2.6c0 .1 0 .3-.2.5a1 1 0 0 1-.4.3l-.6.1Zm3.5.9c-.4 0-.7 0-1-.2a1.7 1.7 0 0 1-1-1l-.1-1 .1-.8.4-.6.7-.4a2.4 2.4 0 0 1 1.6 0 1.6 1.6 0 0 1 1 1v1.6l-.3.3-.4.1h-.3l-.2-.1-.1-.3-.2.2-.2.1h-.7a1 1 0 0 1-.3-.5l-.1-.5v-.6l.4-.3.5-.2a.7.7 0 0 1 .5.3v-.2h.4v1.7l.3.1.3-.1v-.4l.1-.6a1.6 1.6 0 0 0-.2-.8l-.3-.3-.5-.3h-1.2a1.4 1.4 0 0 0-.8 1l-.1.7v.7l.4.6.5.3a2.2 2.2 0 0 0 1.4 0h.2l.1.3h-.2a3 3 0 0 1-.7.2Zm-.2-1.3.3-.1.2-.3v-.9l-.2-.2H47l-.2.3-.1.4v.3c0 .2.1.3.2.3l.4.2Zm3 .4a1 1 0 0 1-.4 0 .7.7 0 0 1-.3-.3l-.1-.4v-.4l.3-.2.3-.1a4.1 4.1 0 0 1 .7-.1h.3v-.2l-.1-.4-.4-.1a.7.7 0 0 0-.7.3h-.3a.9.9 0 0 1 .6-.6 1.5 1.5 0 0 1 .7 0h.3l.2.3.1.5v1.7H51v-.4l-.1.2-.3.2a1 1 0 0 1-.3 0Zm.1-.3.4-.1a.6.6 0 0 0 .3-.5v-.4l-.3.1a5.8 5.8 0 0 1-.3 0l-.3.1-.2.1-.1.3.1.3h.4Zm2.5.3a1 1 0 0 1-.5-.1 1 1 0 0 1-.4-.5l-.1-.7.1-.7.4-.4.5-.2.4.1.3.2v.2h.1V280h.4v3.4h-.4v-.4l-.1.2-.3.1-.4.1Zm0-.3.5-.1.2-.4.1-.5v-.5l-.3-.3a.6.6 0 0 0-.4-.1l-.4.1-.3.3v1l.3.4h.4Zm2.7 1.3c-.3 0-.5 0-.7-.2a1 1 0 0 1-.3-.3l.3-.3.1.2.2.2h.4l.5-.1.2-.5v-.5l-.2.2-.2.2h-.4a1 1 0 0 1-1-.6V281.6l.5-.4.5-.2.4.1.2.2.2.2v-.4h.4v2.5c0 .3 0 .4-.2.6l-.4.3h-.5Zm0-1.4c.2 0 .4 0 .5-.3l.2-.6v-.5l-.3-.3a.6.6 0 0 0-.4-.1l-.4.1-.3.3v1l.3.3h.4Zm3.1-.7V281h.4v2.5h-.4v-.5c0 .2-.1.3-.3.4l-.4.1-.4-.1a.7.7 0 0 1-.3-.3l-.1-.5V281h.3v1.5l.2.5.4.1a.7.7 0 0 0 .5-.3l.1-.4Zm1.7 1.1a1 1 0 0 1-.5 0 .7.7 0 0 1-.3-.3l-.1-.4v-.4l.3-.2.3-.1a4.1 4.1 0 0 1 .7-.1h.3v-.2l-.1-.4-.4-.1a.7.7 0 0 0-.7.3h-.3a.9.9 0 0 1 .6-.6 1.5 1.5 0 0 1 .7 0h.3l.2.3.1.5v1.7H61v-.4l-.1.2-.3.2a1 1 0 0 1-.3 0Zm0-.3.4-.1a.6.6 0 0 0 .3-.5v-.4l-.3.1a5.8 5.8 0 0 1-.3 0l-.3.1-.2.1-.1.3.1.3h.4Zm1.6.3V281h.4v.3l.2-.3h.5a2.1 2.1 0 0 1 .2 0v.3a1.2 1.2 0 0 0-.3 0h-.3l-.2.3-.1.3v1.6h-.4Zm2.4 0a1 1 0 0 1-.6-.1 1 1 0 0 1-.4-.5l-.1-.7.1-.7.4-.4.6-.2.4.1.2.2.1.2V280h.4v3.4H65v-.4l-.1.2-.2.1-.4.1Zm0-.3.4-.1.3-.4v-1l-.3-.3a.6.6 0 0 0-.4-.1l-.4.1-.2.3-.1.5v.5l.3.4h.4Zm1.6.3V281h.4v.4c0-.2.1-.3.3-.4h.8l.3.4c0-.2.1-.3.3-.4h.4l.6.1.2.7v1.7h-.4v-1.7l-.1-.4a.6.6 0 0 0-.4-.1l-.4.1-.2.4v1.7h-.3v-1.7c0-.2 0-.3-.2-.4l-.3-.1h-.3a.6.6 0 0 0-.3.6v1.6h-.4Zm4.5 0a1 1 0 0 1-.4 0 .7.7 0 0 1-.3-.3l-.1-.4v-.4l.3-.2.3-.1a4.1 4.1 0 0 1 .7-.1h.2V281.3l-.4-.1a.7.7 0 0 0-.7.3h-.4a.9.9 0 0 1 .7-.6 1.5 1.5 0 0 1 .6 0h.3l.3.3v2.2h-.3v-.4l-.2.2-.2.2a1 1 0 0 1-.4 0Zm0-.3.5-.1a.6.6 0 0 0 .3-.5v-.4H71l-.2.1a5.8 5.8 0 0 1-.4 0l-.3.1-.2.1v.3l.1.3h.4Zm1.7.3V281h.4v2.5H72Zm.2-3H72l-.1-.2v-.2h.5v.4h-.2Zm1-.4v3.4H73V280h.4Zm.8 3.4H74v-.5h.4l.1.2v.2l-.3.1Zm1.8 0-.6-.1-.4-.5-.1-.7.1-.6.4-.5.6-.2.5.1a.9.9 0 0 1 .5.7h-.4v-.2l-.3-.2h-.7l-.2.4-.1.5v.5l.3.4h.8l.2-.4h.4l-.1.4c-.1.2-.2.3-.4.3l-.5.1Zm2.4 0a1 1 0 0 1-.6-.1l-.4-.5-.1-.7.1-.7.4-.4.6-.2c.2 0 .4 0 .6.2l.4.4.1.7-.1.7-.4.5a1 1 0 0 1-.6.1Zm0-.3c.2 0 .3 0 .4-.2l.3-.3v-.9c0-.2-.2-.3-.3-.4a.7.7 0 0 0-.4-.1l-.4.1-.3.4a1.3 1.3 0 0 0 0 .9l.3.3.4.2Zm1.5.3V281h.4v.4c0-.2.2-.3.3-.4h.8l.3.4c0-.2.1-.3.3-.4h.4l.6.1.2.7v1.7h-.4v-1.7l-.1-.4a.6.6 0 0 0-.4-.1l-.4.1-.1.4v1.7h-.4v-1.7c0-.2 0-.3-.2-.4l-.3-.1h-.3a.6.6 0 0 0-.3.6v1.6h-.4Z"/><mask id="F" width="1" height="16" x="449" y="270" maskUnits="userSpaceOnUse" style="mask-type:luminance"><path fill="#fff" d="M449 270.3h.4v15.1h-.4v-15Z"/></mask><g mask="url(#F)"><path fill="#EAEFF2" d="M449 270.3v15.1h.7v-15h-.7Z"/></g><path stroke="#35383B" stroke-linecap="round" stroke-linejoin="round" stroke-width="1.5" d="M460.4 275h.5s.2-.1.2-.3V272l-.2-.2H458l-.3.3v.4m.7 4.5h-2.3a.5.5 0 0 1-.2-.3v-2.8l.2-.3h2.9l.2.3v2.8l-.3.2-.5.1Z"/><mask id="G" width="19" height="19" x="444" y="267" maskUnits="userSpaceOnUse" style="mask-type:luminance"><path fill="#fff" d="M457.2 267h-7.8a5.3 5.3 0 0 0-5.3 5.3v7.9c0 2.9 2.3 5.2 5.3 5.2h7.8c3 0 5.3-2.3 5.3-5.2v-7.9c0-2.9-2.4-5.3-5.3-5.3Z"/></mask><g mask="url(#G)"><path fill="#4A6FA5" d="M457.2 267h-7.8a5.3 5.3 0 0 0-5.3 5.3v7.9c0 2.9 2.3 5.2 5.3 5.2h7.8c3 0 5.3-2.3 5.3-5.2v-7.9c0-2.9-2.4-5.3-5.3-5.3Z"/><path stroke="#fff" stroke-linecap="round" stroke-linejoin="round" stroke-width=".7" d="M453.3 274v4.5m-2.3-2.3h4.6"/></g></g></g></g><defs><linearGradient id="c" x1="7.2" x2="7.1" y1="4.7" y2="19.9" gradientUnits="userSpaceOnUse"><stop stop-color="#FFBF1A"/><stop offset="1" stop-color="#FF9036"/></linearGradient><linearGradient id="e" x1="7.2" x2="7.1" y1="4.7" y2="19.9" gradientUnits="userSpaceOnUse"><stop stop-color="#FFBF1A"/><stop offset="1" stop-color="#FF9036"/></linearGradient><clipPath id="a"><path fill="#fff" d="M0 0h473v295.6H0z"/></clipPath></defs></svg>