<svg xmlns="http://www.w3.org/2000/svg" width="416" height="576" fill="none"><g clip-path="url(#a)"><path fill="#3A4245" d="M0 94C0 52 0 31.1 11.8 17.2a49.4 49.4 0 0 1 5.5-5.5C31.3 0 52.1 0 94 0H323C365 0 386 0 399.7 11.8a49.5 49.5 0 0 1 5.5 5.5c11.9 13.9 11.9 34.8 11.9 76.6v734.4c0 41.8 0 62.7-11.9 76.6a49.5 49.5 0 0 1-5.5 5.5c-13.8 11.8-34.7 11.8-76.6 11.8H94c-41.8 0-62.7 0-76.6-11.8a49.5 49.5 0 0 1-5.5-5.5C0 891 0 870.1 0 828.3V93.9Z"/><path fill="#121515" d="M2.1 86.9c0-35.2 0-52.7 9.5-64.7a44 44 0 0 1 7.3-7.4c12-9.4 29.6-9.4 64.8-9.4h249.7c35.2 0 52.8 0 64.8 9.4a44 44 0 0 1 7.3 7.4c9.4 12 9.4 29.5 9.4 64.7v748.4c0 35.2 0 52.8-9.4 64.8a44 44 0 0 1-7.4 7.3c-12 9.5-29.5 9.5-64.7 9.5H83.7c-35.2 0-52.8 0-64.8-9.5a44 44 0 0 1-7.3-7.3c-9.4-12-9.4-29.6-9.4-64.8V87Z"/><mask id="b" width="399" height="884" x="9" y="16" maskUnits="userSpaceOnUse" style="mask-type:alpha"><path fill="#fff" d="M9.7 53.7a37.6 37.6 0 0 1 37.6-37.6h322.5a37.6 37.6 0 0 1 37.6 37.6V862a37.6 37.6 0 0 1-37.6 37.7H47.3A37.6 37.6 0 0 1 9.7 862V53.7Z"/></mask><g mask="url(#b)"><path fill="#1F1F1F" d="M407.3 15.5H9.6V769h397.7V15.5Z"/><path fill="#fff" fill-rule="evenodd" d="M303.2 24.4a16.4 16.4 0 0 0-10-3.3c-3.7 0-7.1 1.2-9.9 3.3l10 12.1 9.9-12.1Zm2.2 12.1h15.4V21.1l-15.4 15.4Zm31.9-15.4v1h3.3v14.4h-9.9V22h3.3v-1h3.3Zm17.3 2.2v11h-1.8v-8.8l-2.7 1v-1.6l4.3-1.6h.2Zm11.2 9.6v1.4h-7.4v-1.2l3.7-4a9.1 9.1 0 0 0 1-1.5c.3-.4.4-.8.4-1.2 0-.5-.1-1-.4-1.3-.3-.3-.7-.4-1.2-.4-.6 0-1 .1-1.4.5-.3.4-.5.9-.5 1.5h-1.8c0-.7.1-1.3.5-1.8.2-.6.7-1 1.2-1.3.6-.3 1.3-.4 2-.4 1 0 1.9.2 2.5.8.6.5 1 1.3 1 2.2a3.8 3.8 0 0 1-.5 1.7c-.3.6-.8 1.3-1.5 2l-2.7 3h5Zm3.4-5.2c-.2.2-.5.3-.8.3a1 1 0 0 1-.8-.3 1 1 0 0 1-.3-.7c0-.3.1-.5.3-.7.2-.2.4-.3.8-.3.3 0 .6 0 .8.3.2.2.2.4.2.7 0 .3 0 .5-.2.7Zm0 6.4c-.2.2-.5.3-.8.3a1 1 0 0 1-.8-.3 1 1 0 0 1-.3-.7c0-.3.1-.5.3-.7.2-.2.4-.3.8-.3.3 0 .6 0 .8.3.2.2.2.4.2.7s0 .5-.2.7Zm8-.5a4 4 0 0 1-2.6.9 3.9 3.9 0 0 1-2.6-.9c-.6-.5-1-1.3-1-2.2h1.9c0 .5.1.8.4 1.1.4.3.8.5 1.3.5a1.9 1.9 0 0 0 1.4-.5c.3-.3.5-.7.5-1.3 0-.5-.2-1-.5-1.3-.4-.3-.9-.5-1.6-.5h-1V28h1a2 2 0 0 0 1.4-.5c.4-.2.5-.7.5-1.2s-.1-1-.4-1.2c-.3-.3-.7-.5-1.2-.5s-1 .2-1.3.5c-.3.3-.4.6-.4 1H371c0-.5.2-1 .5-1.5a3 3 0 0 1 1.2-1 4 4 0 0 1 1.8-.4c1.1 0 2 .2 2.6.8a2.9 2.9 0 0 1 .5 3.7 3 3 0 0 1-1.2 1c.6.2 1 .5 1.3 1 .3.4.5 1 .5 1.5a3 3 0 0 1-1 2.4Zm9-.3c-.5.8-1.4 1.2-2.6 1.2-1.2 0-2-.4-2.7-1.2-.6-.8-.9-2-1-3.5V28a6 6 0 0 1 1-3.5c.6-.8 1.5-1.2 2.7-1.2 1.2 0 2 .4 2.6 1.1.7.8 1 2 1 3.5v1.9a6 6 0 0 1-1 3.6Zm-4-1c.3.5.8.7 1.4.7.6 0 1-.2 1.3-.7.3-.5.4-1.2.4-2.2v-2.5c0-1-.1-1.8-.4-2.2-.3-.5-.7-.8-1.3-.8-.6 0-1 .3-1.3.7a4.3 4.3 0 0 0-.5 2.2V30c0 1 .2 1.7.4 2.3Z" clip-rule="evenodd"/><path fill="#67B279" fill-rule="evenodd" d="M49.9 68.6c-4.2 0-9.1 1-13.3 3 0 4.5 0 15.8 13.3 23.5 13.3-7.7 13.3-19 13.3-23.5a30.5 30.5 0 0 0-13.3-3Z" clip-rule="evenodd"/><path fill="#5B9F6B" fill-rule="evenodd" d="M49.9 68.6c-4.2 0-9.1 1-13.3 3 0 4.6 0 15.8 13.3 23.5V68.6Z" clip-rule="evenodd"/><path fill="#fff" fill-rule="evenodd" d="m49.8 85.6 7.7-10.2c-.6-.4-1-.1-1.4.1l-6.4 6.6-2.4-2.9c-1.2-1.3-2.7-.3-3.1 0l5.6 6.4Z" clip-rule="evenodd"/><path fill="#F6F6F6" fill-rule="evenodd" d="M99.3 87.9a5.8 5.8 0 0 1-6.2-6c0-1.7.5-3.2 1.7-4.4a6 6 0 0 1 4.4-1.7 6.8 6.8 0 0 1 4.6 1.6l-1.6 2a4.3 4.3 0 0 0-3-1.3c-1 0-1.8.4-2.5 1.1a3.7 3.7 0 0 0-1 2.6 3.7 3.7 0 0 0 1 2.7 3.4 3.4 0 0 0 2.6 1c1 0 1.8-.2 2.5-.7v-1.6h-2.6v-2.3h5V86a7.6 7.6 0 0 1-5 1.9ZM72 75.9 67 87.7h2.6l1.1-2.7h5l1 2.7h2.8l-5-11.8H72Zm1.1 3 1.6 3.9h-3.1l1.5-3.8Zm7.7 8.8V76h4.6a6.3 6.3 0 0 1 4.5 1.6 5.5 5.5 0 0 1 1.7 4.2c0 1.7-.6 3-1.7 4.2a6.3 6.3 0 0 1-4.5 1.7h-4.6Zm4.6-2.3h-2v-7.1h2c1 0 1.9.3 2.5 1 .7.6 1 1.5 1 2.5s-.3 2-1 2.6c-.6.6-1.5 1-2.5 1Zm22.4 1.1c1 1 2.2 1.4 3.8 1.4 1.6 0 2.9-.5 3.8-1.4 1-.9 1.4-2.2 1.4-4V76h-2.6v6.7c0 .9-.3 1.6-.7 2-.4.6-1 .8-1.9.8a2.4 2.4 0 0 1-1.9-.8c-.4-.5-.6-1.2-.6-2.1V76h-2.6v6.7c0 1.7.4 3 1.3 3.8Zm9.7 1.2 5-11.8h2.4l5 11.8h-2.7l-1-2.6h-5l-1 2.6h-2.7Zm6.2-8.7 1.5 3.8h-3l1.5-3.8Zm7.6-3h5.4c1.5 0 2.6.4 3.4 1.2a3.6 3.6 0 0 1 1 2.7c0 1.8-.8 3-2.5 3.6l3 4.2h-3.1l-2.6-3.8h-2v3.8h-2.6V76Zm5.2 5.7H134v-3.4h2.6c.6 0 1.1.1 1.5.4.3.3.5.7.5 1.3 0 .5-.1.9-.5 1.2-.3.3-.8.5-1.5.5Zm6.5-5.7h4.6c1.9 0 3.4.5 4.5 1.6a5.5 5.5 0 0 1 1.8 4.2c0 1.7-.6 3-1.8 4.2a6.3 6.3 0 0 1-4.5 1.7h-4.6V76Zm4.6 9.4h-2v-7.1h2c1 0 2 .3 2.6 1 .7.6 1 1.5 1 2.5s-.3 2-1 2.6c-.6.6-1.5 1-2.6 1Z" clip-rule="evenodd"/><path stroke="#67B279" stroke-linecap="round" stroke-width="1.5" d="M369.7 76.3c4-5.7 15-3.9 15.5 5.5v1.7m-2.2 3.8c-4 5.8-15 4-15.5-5.5v-1"/><path stroke="#67B279" stroke-linecap="round" stroke-linejoin="round" stroke-width="1.5" d="m387.4 81.8-2.2 2.2-2.2-2.2m-17.7 0 2.2-2.2 2.2 2.2"/><path stroke="#67B279" stroke-linecap="round" stroke-width="1.5" d="M51.5 178.3c0-.6.5-1 1.1-1H77c.7 0 1.2.4 1.2 1v12.5c0 .6-.5 1.1-1.1 1.1H52.6c-.6 0-1-.5-1-1v-12.6Z" clip-rule="evenodd"/><path stroke="#67B279" stroke-linecap="round" stroke-width="1.5" d="m53 197.8 23.6-26.5"/><path stroke="#67B279" stroke-linecap="round" stroke-linejoin="round" stroke-width="1.5" d="M130.2 180.4a27.9 27.9 0 0 1 3.8 3.8c-3.9 5-7.8 7.4-11.8 7.4a9 9 0 0 1-1.9-.2m-3.7-1.5c-1.5-1-3.5-2.9-6.1-5.7 3.9-4.6 7.8-7 11.7-7 1.6 0 3.2.4 4.8 1.1m-16.5 19.5 23.5-26.5m-13.8 15.4a3 3 0 0 1 2-5 3 3 0 0 1 1.9.6l-4 4.4Z"/><path stroke="#67B279" stroke-linecap="round" stroke-linejoin="round" stroke-width="1.5" d="M193 175.3c0-1.2-1-2.2-2.2-2.2h-22.2c-1.2 0-2.1 1-2.1 2.2v14.8a2.2 2.2 0 0 0 2.2 2.2h14l6.1 6.4v-6.4h2a2.2 2.2 0 0 0 2.1-2.2v-14.8Z" clip-rule="evenodd"/><path stroke="#67B279" stroke-linecap="round" stroke-linejoin="round" stroke-width="1.5" d="M179.7 178v5.1m0 3.8v-.3"/><path stroke="#67B279" stroke-linecap="round" stroke-width="1.5" d="M243 176.5h2.2m-2.2 11.8h2.2m-9.5-11.8h2.2m-2.2 11.8h2.2"/><path stroke="#67B279" stroke-linecap="round" stroke-linejoin="round" stroke-width="1.5" d="M246.7 172.8c1.2 0 2.2 1 2.2 2.2v3c0 1.2-1 2.1-2.2 2.1h-19.1a2.2 2.2 0 0 1-2.2-2.2V175c0-1.2 1-2.2 2.2-2.2h19.1Zm0 11.8c1.2 0 2.2.6 2.2 2.6v6.6c0 2-1 2.6-2.2 2.6h-19.1c-1.2 0-2.2-.6-2.2-2.6v-6.6c0-2 1-2.6 2.2-2.6h19.1Z" clip-rule="evenodd"/><path stroke="#fff" stroke-linecap="round" stroke-linejoin="round" stroke-width="1.5" d="m299 173.7-.5-2.4-1.7 1.7a14.4 14.4 0 0 0-3.8 6h0a18.6 18.6 0 0 0-.6 5.6v.2h0a6 6 0 0 1-3-3.4l-.7-2-1.5 1.5a9.4 9.4 0 0 0-2.5 9.7 10.6 10.6 0 0 0 9.9 7.2c5.7 0 10.3-4.7 10.3-10.5 0-1.6-.2-2.8-.7-4h0c-.4-.9-.8-1.5-1.7-2.6l-.3-.5-1-1.4a16.6 16.6 0 0 1-2.1-5.1Z" clip-rule="evenodd"/><path stroke="#67B279" stroke-linecap="round" stroke-linejoin="round" stroke-width="1.5" d="M352 199.3a14.7 14.7 0 1 0 0-29.5 14.7 14.7 0 0 0 0 29.5Z"/><path stroke="#67B279" stroke-linecap="round" stroke-linejoin="round" stroke-width="1.5" d="M351.9 178.7c3.2.2 6.4.6 9.2 2.4a5.5 5.5 0 0 1 2.7 4.7c0 3.3-2.2 5-5.2 4.6l-3.7-.8c-2.1-.6-4.3-.4-6.4.1-1 .3-2 .6-3 .7-2 .2-4.1-.5-4.9-2.5a5.7 5.7 0 0 1 2.2-6.8 17 17 0 0 1 9-2.4Z" clip-rule="evenodd"/><path stroke="#67B279" stroke-linecap="round" stroke-linejoin="round" stroke-width="1.5" d="M358 186v-1.4M346 186v-1.4"/><path fill="#fff" d="M80.5 254.2v-18.9H88c2.1 0 3.8.6 5 1.7a6 6 0 0 1 1.6 4.5c0 2-.5 3.5-1.7 4.6s-2.7 1.6-5 1.6h-3.1v6.5h-4.1Zm4.2-9.5h2.7c1.1 0 2-.3 2.4-.8a3.7 3.7 0 0 0 .6-2.4c0-1-.2-1.7-.6-2.3-.5-.5-1.3-.8-2.4-.8h-2.7v6.3Zm12 9.5v-13.3h3.8v1.5h.1c.3-.5.7-.9 1.2-1.3a2.8 2.8 0 0 1 2.2-.5l.5.2v3.3a4.3 4.3 0 0 0-1.2-.2 2.7 2.7 0 0 0-1.6.6c-.4.3-.8.8-1 1.3v8.4h-4Zm8.7-6.5v-.4c0-2 .7-3.7 2-5a7 7 0 0 1 5-1.8c2 0 3.8.7 5 1.9a6.5 6.5 0 0 1 2 5v.3c0 2.1-.7 3.8-2 5a7 7 0 0 1-5 1.8 7 7 0 0 1-5-1.8 6.6 6.6 0 0 1-2-5Zm4.1-.6v.8c0 1.2.3 2.1.8 2.7.5.7 1.2 1 2.1 1a2.6 2.6 0 0 0 2.2-1c.5-.6.7-1.5.7-2.7v-.8c0-1.1-.2-2-.7-2.7a2.6 2.6 0 0 0-2.2-1 2.6 2.6 0 0 0-2.1 1c-.5.7-.8 1.6-.8 2.7Zm10.8-3.3V241h8.5v3h-8.5Zm2 6.4v-12.7h4V250c0 .6 0 1 .2 1.3.3.3.6.4 1 .4a2.9 2.9 0 0 0 1.2-.3v2.8l-.9.3-1.4.1c-1.2 0-2.3-.3-3-1-.8-.7-1.1-1.8-1.1-3.3Zm7.8-2.5v-.4a6.6 6.6 0 0 1 1.9-4.9 6.6 6.6 0 0 1 4.9-1.9c2 0 3.5.6 4.6 1.8a6.7 6.7 0 0 1 1.7 4.8v1.4h-10.5V246h6.6v-.2c0-.7-.2-1.3-.6-1.8-.5-.5-1-.7-1.9-.7-.9 0-1.6.3-2 1-.5.7-.7 1.5-.7 2.7v.8c0 1.2.2 2 .7 2.8.5.6 1.3 1 2.3 1a3 3 0 0 0 1.8-.5 4 4 0 0 0 1.2-1.2l2.9 1.6a4.9 4.9 0 0 1-2.2 2.1 7.6 7.6 0 0 1-3.7.9 7 7 0 0 1-5.1-1.9 6.7 6.7 0 0 1-1.9-5Zm14.6 0v-.4c0-2 .7-3.7 1.9-5a6.8 6.8 0 0 1 5-1.8c2 0 3.5.5 4.5 1.5a5 5 0 0 1 1.7 3.5v.3H154v-.2c0-.6-.2-1.1-.6-1.5-.4-.4-1-.6-1.8-.6-1 0-1.6.3-2.1 1-.5.6-.7 1.5-.7 2.6v.8c0 1.2.2 2 .7 2.8.5.6 1.1 1 2 1 1 0 1.6-.3 2-.7.3-.4.5-1 .5-1.5v-.2h3.8v.2c0 1.4-.5 2.6-1.6 3.6-1 1-2.6 1.5-4.6 1.5-2 0-3.7-.6-5-1.9a6.6 6.6 0 0 1-1.9-5Zm13.8-3.9V241h8.5v3h-8.5Zm2 6.4V237.5h3.9V250c0 .6.1 1 .3 1.3.3.3.6.4 1 .4a2.9 2.9 0 0 0 1.2-.3v2.8l-.9.3-1.4.1c-1.2 0-2.3-.3-3-1-.8-.7-1.1-1.8-1.1-3.3Zm8.6 4v-13.3h4v13.3h-4Zm-.4-17.2c0-.5.2-1 .6-1.5.4-.4 1-.6 1.8-.6s1.3.2 1.7.6c.4.4.6 1 .6 1.5a2 2 0 0 1-.6 1.6c-.4.4-1 .6-1.8.6-.7 0-1.3-.2-1.7-.6-.4-.4-.6-1-.6-1.6Zm6.8 10.7v-.4c0-2 .6-3.7 1.9-5a7 7 0 0 1 5-1.8c2.1 0 3.8.7 5.1 1.9a6.5 6.5 0 0 1 2 5v.3c0 2.1-.7 3.8-2 5a7 7 0 0 1-5 1.9 7 7 0 0 1-5.1-1.9 6.6 6.6 0 0 1-2-5Zm4-.6v.8c0 1.2.3 2.1.8 2.7.5.7 1.2 1 2.1 1a2.6 2.6 0 0 0 2.2-1c.5-.6.8-1.5.8-2.7v-.8c0-1.1-.3-2-.8-2.7a2.6 2.6 0 0 0-2.2-1 2.6 2.6 0 0 0-2 1 4.2 4.2 0 0 0-.9 2.7Zm12.3 7V241h3.8l.1 1.6c.4-.6 1-1 1.6-1.3a5.2 5.2 0 0 1 2.3-.6c1.4 0 2.5.4 3.4 1.2.8.7 1.3 2 1.3 4v8.4h-4v-8.3c0-.8-.2-1.4-.6-1.7-.3-.4-.8-.5-1.4-.5-.6 0-1 .1-1.5.4-.4.3-.8.8-1 1.3v8.8h-4Zm21.9 0V241h4v13.3h-4Zm-.3-17c0-.6.2-1.2.6-1.6.4-.4 1-.6 1.7-.6s1.3.2 1.7.6c.4.4.6 1 .6 1.5a2 2 0 0 1-.6 1.6c-.4.4-1 .6-1.7.6-.8 0-1.3-.2-1.7-.6-.4-.4-.6-1-.6-1.6ZM220 250h3.8v.2c0 .6.2 1 .6 1.4.4.2 1 .4 1.7.4s1.2-.2 1.6-.4c.4-.3.5-.6.5-1a1 1 0 0 0-.6-1c-.4-.3-1.3-.5-2.7-.8a7.2 7.2 0 0 1-3.4-1.5 3.4 3.4 0 0 1-1.1-2.6c0-1.3.5-2.3 1.5-3 1-.8 2.5-1.2 4.2-1.2a7 7 0 0 1 4.2 1.2 3.6 3.6 0 0 1 1.6 3.1v.2h-3.8v-.2c0-.6-.1-1-.5-1.2-.3-.3-.8-.4-1.5-.4s-1.1 0-1.4.3c-.4.2-.5.5-.5.9s.2.7.6.9c.4.2 1.3.5 2.7.7 1.6.4 2.8.8 3.6 1.5a3.4 3.4 0 0 1 1 2.7 3.8 3.8 0 0 1-1.5 3.2c-1 .8-2.5 1.2-4.5 1.2s-3.4-.4-4.5-1.2a3.8 3.8 0 0 1-1.6-3.3v-.1Zm20.3-2.3v-.4a6.6 6.6 0 0 1 1.9-4.9 6.6 6.6 0 0 1 4.9-1.9c2 0 3.5.6 4.6 1.8a6.7 6.7 0 0 1 1.7 4.8v1.4H243V246h6.6v-.2c0-.7-.2-1.3-.6-1.8-.4-.5-1-.7-1.8-.7-1 0-1.6.3-2.1 1s-.7 1.5-.7 2.7v.8c0 1.2.2 2 .7 2.8.6.6 1.3 1 2.3 1a3 3 0 0 0 1.8-.5 4 4 0 0 0 1.2-1.2l2.9 1.6a4.9 4.9 0 0 1-2.1 2.1 7.6 7.6 0 0 1-3.7.9 7 7 0 0 1-5.2-1.9 6.7 6.7 0 0 1-1.9-5Zm15.3 6.5v-13.3h3.9v1.6c.4-.6 1-1 1.6-1.3.7-.4 1.5-.6 2.4-.6 1.3 0 2.5.4 3.3 1.2.9.8 1.3 2 1.3 4v8.4h-4v-8.3c0-.8-.2-1.4-.5-1.7a2 2 0 0 0-1.5-.5c-.5 0-1 .1-1.5.4-.4.3-.7.8-1 1.3v8.8h-4Zm14.8-4c0-1.4.6-2.5 1.7-3.2a7.6 7.6 0 0 1 4.3-1.1h2.7v-.8c0-.6-.1-1-.4-1.4-.3-.4-.9-.6-1.6-.6-.8 0-1.3.2-1.6.5-.3.3-.5.7-.5 1.1v.2h-3.9v-.2c0-1.2.6-2.2 1.7-3a7.7 7.7 0 0 1 4.5-1.1c1.8 0 3.3.3 4.3 1 1 .8 1.5 2 1.5 3.6v6l.1 1.5.4 1.3v.2h-3.9l-.3-.8a7.4 7.4 0 0 1-.1-1c-.3.6-.8 1-1.5 1.4-.8.4-1.7.6-2.8.6a5.2 5.2 0 0 1-3.3-1c-.9-.7-1.3-1.7-1.3-3.1Zm4-.2c0 .5.1 1 .5 1.3.3.4.8.5 1.5.5.8 0 1.4-.2 2-.7.5-.5.7-1 .7-1.7v-1.2h-2c-1 0-1.6.1-2 .4-.5.3-.7.8-.7 1.4Zm11.8 4.2v-19.6h4v7.7c.4-.5 1-1 1.6-1.2.6-.3 1.4-.4 2.2-.4a5 5 0 0 1 4 1.8 7.3 7.3 0 0 1 1.6 4.8v.4c0 2-.5 3.6-1.5 4.9a5 5 0 0 1-4 1.8c-1 0-1.7-.1-2.4-.4-.7-.4-1.2-.8-1.5-1.3h-.1v1.5h-3.9Zm4-4.5c.2.5.5.9 1 1.3.4.3 1 .5 1.7.5.9 0 1.6-.3 2-1a4.8 4.8 0 0 0 .7-2.6v-.7a4.6 4.6 0 0 0-.7-2.6c-.4-.7-1.1-1-2-1-.7 0-1.3.2-1.7.6-.5.3-.8.8-1 1.2v4.3Zm11.8 4.5v-19.6h4v19.6h-4Zm6.4-6.5v-.4a6.6 6.6 0 0 1 2-4.9 6.6 6.6 0 0 1 4.8-1.9c2 0 3.5.6 4.7 1.8a6.7 6.7 0 0 1 1.6 4.8v1.4h-10.5V246h6.6v-.2c0-.7-.2-1.3-.6-1.8-.4-.5-1-.7-1.8-.7-1 0-1.6.3-2 1-.5.7-.8 1.5-.8 2.7v.8c0 1.2.3 2 .8 2.8.5.6 1.2 1 2.2 1a3 3 0 0 0 1.8-.5 4 4 0 0 0 1.2-1.2l3 1.6a4.9 4.9 0 0 1-2.2 2.1 7.6 7.6 0 0 1-3.7.9 7 7 0 0 1-5.2-1.9 6.7 6.7 0 0 1-1.8-5Zm14.7 0v-.4a7.1 7.1 0 0 1 1.6-4.8 5.2 5.2 0 0 1 4.1-1.8c.9 0 1.6.1 2.3.4.6.3 1 .7 1.4 1.2v-7.7h4v19.6h-3.8l-.1-1.6c-.4.5-.8 1-1.5 1.3-.7.4-1.4.5-2.3.5-1.8 0-3.2-.6-4.2-1.8a7.3 7.3 0 0 1-1.5-4.8Zm4 .2c0 1 .3 2 .7 2.6.5.7 1.2 1 2 1 .7 0 1.3-.2 1.7-.5.4-.4.8-.8 1-1.2v-4.5a3 3 0 0 0-1-1.2 2.5 2.5 0 0 0-1.6-.5c-1 0-1.6.3-2 1a4.5 4.5 0 0 0-.8 2.6v.7ZM94.6 286.5H96c0 .7.2 1.2.7 1.5.4.4 1 .5 1.9.5a3 3 0 0 0 1.8-.5c.4-.3.7-.8.7-1.3s-.2-1-.7-1.2c-.4-.3-1.2-.7-2.3-1a6.5 6.5 0 0 1-2.6-1.2 2.6 2.6 0 0 1-.7-2c0-.9.3-1.6 1-2.1a4 4 0 0 1 2.7-.9 4 4 0 0 1 2.8.9 2.9 2.9 0 0 1 1 2.3h-1.5c0-.6-.2-1-.6-1.4-.4-.4-1-.6-1.7-.6-.8 0-1.4.2-1.7.5-.4.3-.6.7-.6 1.3 0 .4.2.8.6 1 .4.4 1.1.7 2.3 1 1.2.3 2 .8 2.6 1.3.5.4.8 1.1.8 2 0 1-.4 1.7-1 2.3-.8.6-1.7.9-3 .9-1.1 0-2.1-.3-2.8-1a2.9 2.9 0 0 1-1.1-2.3Zm9.5.2v-5.1h1.4v5.1c0 .7.2 1.1.5 1.4.3.3.7.4 1.2.4a2 2 0 0 0 1.2-.4c.3-.2.6-.5.8-.9v-5.6h1.4v8h-1.3v-1h-.1a3 3 0 0 1-2.4 1c-.8 0-1.5-.2-2-.6-.4-.5-.7-1.2-.7-2.3Zm8.7 2.8v-8h1.3v1.1l.9-.9a1.9 1.9 0 0 1 1.5-.3h.3v1.4a3 3 0 0 0-.7-.1c-.5 0-.9.1-1.2.4a2 2 0 0 0-.7.8v5.6h-1.4Zm5.9 0v-9c0-1 .2-1.6.7-2a2.7 2.7 0 0 1 2-.7 4 4 0 0 1 1 .1l-.2 1.1a7 7 0 0 0-.7 0c-.4 0-.8 0-1 .3-.3.3-.4.7-.4 1.2v9h-1.4Zm-1.3-6.9v-1h4.4v1h-4.4Zm8.7 4.6h1.4c0 .5.2.8.5 1 .4.3.8.4 1.4.4.5 0 1-.1 1.3-.3a1 1 0 0 0 .5-.9 1 1 0 0 0-.4-.8 5 5 0 0 0-1.7-.6 5.7 5.7 0 0 1-2-.8 1.8 1.8 0 0 1-.8-1.6c0-.6.3-1.2.8-1.6a3.4 3.4 0 0 1 2.2-.6c.9 0 1.6.2 2.2.6.5.4.8 1 .8 1.8H131c0-.5-.1-.8-.4-1a2 2 0 0 0-1.2-.3c-.6 0-1 .1-1.2.3a1 1 0 0 0-.4.8c0 .3.1.5.4.7l1.8.6c.8.2 1.5.4 2 .8s.6 1 .6 1.6c0 .7-.2 1.3-.8 1.8-.5.4-1.3.7-2.3.7s-1.9-.3-2.5-.7a2.3 2.3 0 0 1-.8-1.9Zm7.7 0c0-.8.3-1.4 1-1.9a4.2 4.2 0 0 1 2.4-.7h1.8v-.5c0-.5-.1-.9-.3-1.2-.3-.3-.7-.4-1.3-.4-.6 0-1 .1-1.3.3-.3.3-.4.6-.4 1h-1.4c0-.7.3-1.3.8-1.7.6-.5 1.4-.7 2.3-.7 1 0 1.7.2 2.2.6.6.5.8 1.2.8 2v3.7a5.4 5.4 0 0 0 .3 1.7v.1h-1.3a3.2 3.2 0 0 1-.4-1c-.1.3-.4.6-.9.8a3 3 0 0 1-1.6.4 3 3 0 0 1-1.9-.7c-.5-.4-.8-1-.8-1.8Zm1.4 0c0 .4.2.7.4 1s.7.4 1.2.4c.6 0 1.1-.2 1.5-.6.5-.4.7-.8.7-1.2v-1.2h-1.6c-.7 0-1.3.2-1.6.4-.4.3-.6.7-.6 1.1Zm7.8 2.3v-9c0-1 .2-1.6.7-2a2.7 2.7 0 0 1 2-.7 3.9 3.9 0 0 1 1 .1l-.2 1.1a6.8 6.8 0 0 0-.7 0c-.5 0-.8 0-1 .3s-.4.7-.4 1.2v9H143Zm-1.3-6.8v-1.1h4.4v1h-4.4Zm4.8 3v-.3c0-1.2.3-2.1 1-2.9a3.3 3.3 0 0 1 2.6-1.1c1 0 1.9.3 2.5 1 .6.7.9 1.7.9 2.9v.6h-6.1v-1.1h4.6v-.2c0-.6-.1-1-.5-1.5-.3-.4-.8-.6-1.4-.6-.7 0-1.3.3-1.6.9a3.7 3.7 0 0 0-.6 2v.3c0 .8.2 1.5.6 2 .4.6 1 1 1.8 1a3 3 0 0 0 2.2-1.1l.9.6a3.8 3.8 0 0 1-3 1.6c-1.3 0-2.3-.4-3-1.2a4.3 4.3 0 0 1-1-3Zm8.7 3.8V278h1.4v11.6h-1.4Zm3 3.2v-1.2a3.2 3.2 0 0 0 .9.1c.4 0 .7-.1 1-.4.2-.2.5-.8.8-1.7l-3-8h1.4l1.8 5.3a15.7 15.7 0 0 1 .4 1l.2-.4.2-.6 1.7-5.2h1.3l-3.2 9a4.1 4.1 0 0 1-1 1.6c-.4.4-1 .6-1.5.6a3.4 3.4 0 0 1-1-.1Zm12.5-7.2v-1.3h11.5v1.3h-11.5Zm17.4-4h1.4l1.5 5.3a11.8 11.8 0 0 1 .2 1 10.1 10.1 0 0 1 .3-1l1.8-5.2h1.1l1.8 5.2a5.4 5.4 0 0 1 .3 1l.1-.5.1-.5 1.5-5.2h1.2l-2.4 8h-1.1l-1.7-5.2a38 38 0 0 1-.4-1.2 13 13 0 0 1-.4 1.2l-1.7 5.1h-1.1l-2.5-8Zm12.2 4.2v-.3c0-1.2.3-2.1 1-2.9a3.3 3.3 0 0 1 2.6-1.1c1 0 1.9.3 2.5 1 .5.7.8 1.7.8 2.9v.6h-6v-1.1h4.6v-.2c0-.6-.1-1-.5-1.5-.3-.4-.8-.6-1.4-.6-.7 0-1.3.3-1.6.9a3.7 3.7 0 0 0-.6 2v.3c0 .8.2 1.5.6 2 .4.6 1 1 1.8 1a3 3 0 0 0 2.2-1.1l.9.6a3.7 3.7 0 0 1-3.1 1.6c-1.2 0-2.2-.4-2.8-1.2a4.3 4.3 0 0 1-1-3Zm8.4-3.5-.2-2.6v-1h1.5v1l-.2 2.6h-1.1Zm2.5-.6h1.4l1.9 5.3a7.2 7.2 0 0 1 .3 1 8 8 0 0 1 .3-1l1.9-5.3h1.3l-3 8h-1l-3-8Zm7.7 4v-.2c0-1.2.3-2.1 1-2.9a3.3 3.3 0 0 1 2.6-1.1c1 0 1.9.3 2.5 1 .5.7.8 1.7.8 2.9v.6h-6v-1.1h4.6v-.2c0-.6-.1-1-.5-1.5-.3-.4-.8-.6-1.4-.6-.7 0-1.3.3-1.6.9a3.7 3.7 0 0 0-.6 2v.3c0 .8.2 1.5.6 2 .4.6 1 1 1.8 1a3 3 0 0 0 2.2-1.1l.9.6a3.7 3.7 0 0 1-3.1 1.6c-1.2 0-2.2-.4-2.9-1.2a4.3 4.3 0 0 1-1-3Zm12.3 6 .8-1 1 .7c.4.2.8.3 1.3.3.7 0 1.2-.2 1.6-.6.4-.4.6-1 .6-1.6v-.8c-.2.3-.5.6-.9.8-.4.2-.9.3-1.4.3a3 3 0 0 1-2.4-1.1c-.6-.8-1-1.8-1-3v-.2c0-1.1.4-2 1-2.8a3 3 0 0 1 2.4-1.2c.5 0 1 .2 1.4.4.4.2.8.5 1 .8v-1h1.3v7.8c0 1-.3 2-1 2.5a3.7 3.7 0 0 1-2.5 1 5 5 0 0 1-3.2-1.2Zm1.1-6c0 .9.2 1.6.5 2.1.4.6 1 .8 1.7.8.5 0 1-.1 1.3-.4.3-.3.6-.6.7-1V284a2.5 2.5 0 0 0-.7-1 2 2 0 0 0-1.3-.3c-.8 0-1.3.2-1.7.8a3.7 3.7 0 0 0-.5 2v.3Zm7.4 0v-.2c0-1.2.3-2.1 1-2.9a3.5 3.5 0 0 1 2.7-1.1c1.2 0 2 .3 2.8 1.1a4.2 4.2 0 0 1 1 3v.2c0 1.2-.4 2.2-1 3a3.5 3.5 0 0 1-2.8 1 3.5 3.5 0 0 1-2.7-1 4.2 4.2 0 0 1-1-3Zm1.4-.2v.3c0 .8.2 1.5.6 2 .4.6 1 1 1.7 1a2 2 0 0 0 1.8-1 3.6 3.6 0 0 0 .6-2v-.3c0-.8-.2-1.5-.6-2a2 2 0 0 0-1.8-.9 2 2 0 0 0-1.7.9 3.6 3.6 0 0 0-.6 2Zm6.7-2.7v-1.1h4.6v1h-4.6Zm1.4 4.9v-8h1.4v8c0 .3.1.6.3.7.1.2.3.3.6.3a3.3 3.3 0 0 0 .9-.2v1.1a3.4 3.4 0 0 1-1.2.3c-.6 0-1-.2-1.4-.6-.4-.3-.5-.9-.5-1.6Zm7.7 5v-1.1a3.2 3.2 0 0 0 .9.1c.3 0 .7-.1 1-.4.2-.2.5-.8.7-1.7l-3-8h1.4l2 5.3a15.7 15.7 0 0 1 .3 1 40.9 40.9 0 0 1 .3-1l1.8-5.2h1.3l-3.2 9c-.3.7-.6 1.2-1 1.6-.4.4-1 .6-1.5.6a3.4 3.4 0 0 1-1-.1Zm7.2-7v-.2c0-1.2.4-2.1 1-2.9a3.5 3.5 0 0 1 2.8-1.1c1.1 0 2 .3 2.7 1.1a4.2 4.2 0 0 1 1 3v.2c0 1.2-.3 2.2-1 3a3.5 3.5 0 0 1-2.7 1 3.5 3.5 0 0 1-2.7-1 4.2 4.2 0 0 1-1-3Zm1.5-.2v.3c0 .8.2 1.5.6 2 .4.6 1 1 1.7 1a2 2 0 0 0 1.7-1 3.6 3.6 0 0 0 .6-2v-.3c0-.8-.2-1.5-.6-2a2 2 0 0 0-1.7-.9 2 2 0 0 0-1.7.9 3.6 3.6 0 0 0-.6 2Zm7.7 1.3v-5.1h1.4v5.1c0 .7.2 1.1.5 1.4.2.3.6.4 1.2.4a2 2 0 0 0 1.2-.4c.3-.2.6-.5.8-.9v-5.6h1.4v8h-1.3v-1h-.1a3 3 0 0 1-2.4 1c-.8 0-1.5-.1-2-.6-.4-.5-.7-1.2-.7-2.3Zm8.7 2.8v-8h1.3v1.1l.9-.9a1.9 1.9 0 0 1 1.5-.3h.2v1.4a3 3 0 0 0-.6-.1c-.5 0-.9.1-1.2.4a2 2 0 0 0-.7.8v5.6H282Zm9 0V278h1.5v4.6c.2-.3.5-.6.9-.8a3 3 0 0 1 1.4-.3c1 0 1.8.4 2.4 1.2.6.7 1 1.7 1 2.8v.3c0 1.1-.4 2-1 2.9a3 3 0 0 1-2.4 1 3 3 0 0 1-1.4-.3 2.4 2.4 0 0 1-1-.8v1H291Zm1.5-2.3.7 1c.4.2.8.3 1.3.3.8 0 1.3-.2 1.7-.8.3-.5.5-1.2.5-2v-.3c0-.8-.2-1.4-.5-2-.4-.5-1-.8-1.7-.8a2 2 0 0 0-1.3.4c-.3.3-.6.6-.7 1v3.2Zm7 0c0-.8.3-1.4 1-1.9a4.1 4.1 0 0 1 2.4-.7h1.8v-.5c0-.5-.2-.9-.4-1.2-.3-.3-.7-.4-1.3-.4s-1 .1-1.3.4-.4.5-.4.8H300c0-.6.3-1.2.9-1.6.5-.5 1.3-.7 2.2-.7 1 0 1.7.2 2.3.6.5.5.8 1.2.8 2v4.7l.2.7v.1H305a3 3 0 0 1-.3-1c-.2.3-.5.6-1 .8a3 3 0 0 1-1.5.4 3 3 0 0 1-2-.7 2.2 2.2 0 0 1-.8-1.8Zm1.4 0c0 .4 0 .7.4 1 .2.2.6.4 1.2.4.5 0 1-.2 1.5-.6.4-.4.7-.8.7-1.2v-1.2H303c-.7 0-1.2.2-1.6.4-.4.3-.6.7-.6 1.1Zm6.9-1.5v-.3c0-1.2.3-2.1 1-2.9a3.4 3.4 0 0 1 2.6-1.1c1.1 0 2 .2 2.4.8.6.6.9 1.2.9 2h-1.4c0-.5-.1-.9-.4-1.2-.3-.3-.8-.5-1.5-.5s-1.3.3-1.7.9a3.8 3.8 0 0 0-.5 2v.3c0 .8.2 1.5.5 2 .4.6 1 1 1.7 1s1.2-.3 1.5-.6c.3-.3.4-.7.4-1.1h1.4c0 .7-.3 1.3-.9 1.9-.5.6-1.3.9-2.4.9a3.4 3.4 0 0 1-2.7-1.2 4.4 4.4 0 0 1-1-3Zm8.5 3.8V278h1.4v7.3l3.4-3.6h1.6l-5 5.3v2.6h-1.4Zm5.1 0-3-4 .8-1 3.9 5h-1.7Z"/><path fill="#67B279" fill-rule="evenodd" d="M163.1 431c0-9.2 7.5-16.6 16.6-16.6h55.2c9 0 16.4 7.2 16.6 16.2v.3c0 9.2-7.4 16.6-16.6 16.6h-55.2a16.6 16.6 0 0 1-16.6-16.2v-.4Z" clip-rule="evenodd"/><g filter="url(#c)"><path fill="#E9E9E9" d="M230.5 460a28.5 28.5 0 1 0 0-57 28.5 28.5 0 0 0 0 57Z"/></g><path fill="#fff" d="M228.3 458.6a27.6 27.6 0 1 0 0-55.3 27.6 27.6 0 0 0 0 55.3Z"/><path stroke="#67B279" stroke-linecap="round" stroke-linejoin="round" stroke-width="3" d="m220.2 432 6.2 6.5 11.5-13.3"/><mask id="d" width="399" height="231" x="9" y="490" maskUnits="userSpaceOnUse" style="mask-type:luminance"><path fill="#fff" d="M407.3 490.6H9.6v229.8h397.7V490.6Z"/></mask><g mask="url(#d)"><g filter="url(#e)"><path fill="#1F1F1F" d="M190.8 526H36a8.8 8.8 0 0 0-8.9 8.8v141.4a8.8 8.8 0 0 0 8.9 8.8h154.6a8.8 8.8 0 0 0 8.9-8.8V534.8a8.8 8.8 0 0 0-8.9-8.8Z"/><path stroke="#67B279" stroke-linecap="round" stroke-linejoin="round" stroke-width="1.5" d="M66.2 548a9.8 9.8 0 0 1 9.6 10.3H65.5v-10.2h.7Z" clip-rule="evenodd"/><path stroke="#67B279" stroke-linecap="round" stroke-linejoin="round" stroke-width="1.5" d="M60.8 551h.4v10.3c0 .8.6 1.4 1.3 1.5H72.9A11.8 11.8 0 1 1 60.7 551Z" clip-rule="evenodd"/></g><g filter="url(#f)"><path fill="#1F1F1F" d="M380.8 526H226a8.8 8.8 0 0 0-8.8 8.8v141.4a8.8 8.8 0 0 0 8.8 8.8h154.7a8.8 8.8 0 0 0 8.8-8.8V534.8a8.8 8.8 0 0 0-8.8-8.8Z"/><path stroke="#E9653A" stroke-linecap="round" stroke-linejoin="round" stroke-width="1.5" d="m257.8 549.5 4.4 4.4m-4.4 4.5 4.4-4.5m0 0H243m4.5 10.4-4.5 4.4m4.5 4.4-4.5-4.4m0 0h19.2"/></g></g><rect width="459" height="784" x="-21" y="-21" fill="url(#g)" fill-opacity=".3" rx="41" style="mix-blend-mode:screen"/></g><path fill="#262C2D" fill-rule="evenodd" d="M206.4 44a10.8 10.8 0 1 0 0-21.4 10.8 10.8 0 0 0 0 21.5Z" clip-rule="evenodd"/><path fill="#121515" fill-rule="evenodd" d="M206.4 40a6.7 6.7 0 1 0 0-13.4 6.7 6.7 0 0 0 0 13.4Z" clip-rule="evenodd"/><path fill="#636F73" fill-rule="evenodd" d="M206.4 32a1.3 1.3 0 1 0 0-2.7 1.3 1.3 0 0 0 0 2.7Z" clip-rule="evenodd" opacity=".4"/></g><defs><filter id="c" width="65" height="65" x="198" y="399" color-interpolation-filters="sRGB" filterUnits="userSpaceOnUse"><feFlood flood-opacity="0" result="BackgroundImageFix"/><feBlend in="SourceGraphic" in2="BackgroundImageFix" result="shape"/><feGaussianBlur result="effect1_foregroundBlur_1_24373" stdDeviation="2"/></filter><filter id="e" width="220.3" height="207.1" x="11.2" y="509.9" color-interpolation-filters="sRGB" filterUnits="userSpaceOnUse"><feFlood flood-opacity="0" result="BackgroundImageFix"/><feColorMatrix in="SourceAlpha" result="hardAlpha" values="0 0 0 0 0 0 0 0 0 0 0 0 0 0 0 0 0 0 127 0"/><feOffset dx="8" dy="8"/><feGaussianBlur stdDeviation="12"/><feComposite in2="hardAlpha" operator="out"/><feColorMatrix values="0 0 0 0 0 0 0 0 0 0 0 0 0 0 0 0 0 0 0.1 0"/><feBlend in2="BackgroundImageFix" result="effect1_dropShadow_1_24373"/><feBlend in="SourceGraphic" in2="effect1_dropShadow_1_24373" result="shape"/></filter><filter id="f" width="220.3" height="207.1" x="201.3" y="509.9" color-interpolation-filters="sRGB" filterUnits="userSpaceOnUse"><feFlood flood-opacity="0" result="BackgroundImageFix"/><feColorMatrix in="SourceAlpha" result="hardAlpha" values="0 0 0 0 0 0 0 0 0 0 0 0 0 0 0 0 0 0 127 0"/><feOffset dx="8" dy="8"/><feGaussianBlur stdDeviation="12"/><feComposite in2="hardAlpha" operator="out"/><feColorMatrix values="0 0 0 0 0 0 0 0 0 0 0 0 0 0 0 0 0 0 0.1 0"/><feBlend in2="BackgroundImageFix" result="effect1_dropShadow_1_24373"/><feBlend in="SourceGraphic" in2="effect1_dropShadow_1_24373" result="shape"/></filter><linearGradient id="g" x1="-16.8" x2="311.8" y1="-16.6" y2="398.6" gradientUnits="userSpaceOnUse"><stop stop-color="#fff"/><stop offset=".7" stop-color="#fff" stop-opacity="0"/></linearGradient><clipPath id="a"><path fill="#fff" d="M0 0h416v576H0z"/></clipPath></defs></svg>