<svg xmlns="http://www.w3.org/2000/svg" width="416" height="576" fill="none"><g clip-path="url(#a)"><path fill="#3A4245" d="M0 94.3c0-42 0-63 11.8-76.9a49.5 49.5 0 0 1 5.5-5.5C31.3 0 52.1 0 94 0H323C365 0 386 0 399.7 11.9a49.6 49.6 0 0 1 5.5 5.5c11.9 14 11.9 35 11.9 76.9v737.2c0 42 0 63-11.9 76.9a49.5 49.5 0 0 1-5.5 5.5c-13.8 11.9-34.7 11.9-76.6 11.9H94c-41.8 0-62.7 0-76.6-12a49.5 49.5 0 0 1-5.5-5.4C0 894.4 0 873.4 0 831.4V94.4Z"/><path fill="#121515" d="M2.1 87.2c0-35.3 0-53 9.5-65A44 44 0 0 1 19 15c12-9.5 29.6-9.5 64.8-9.5h249.7c35.2 0 52.8 0 64.8 9.5a44.1 44.1 0 0 1 7.3 7.3c9.4 12 9.4 29.7 9.4 65v751.3c0 35.3 0 53-9.4 65a44.2 44.2 0 0 1-7.4 7.4c-12 9.5-29.5 9.5-64.7 9.5H83.7c-35.2 0-52.8 0-64.8-9.5a44.2 44.2 0 0 1-7.3-7.4c-9.4-12-9.4-29.7-9.4-65V87.2Z"/><mask id="b" width="399" height="888" x="9" y="16" maskUnits="userSpaceOnUse" style="mask-type:alpha"><path fill="#fff" d="M9.7 54a37.7 37.7 0 0 1 37.6-37.8h322.5A37.7 37.7 0 0 1 407.4 54v811.4a37.7 37.7 0 0 1-37.6 37.7H47.3a37.7 37.7 0 0 1-37.6-37.8V54Z"/></mask><g mask="url(#b)"><mask id="c" width="399" height="888" x="9" y="10" maskUnits="userSpaceOnUse" style="mask-type:luminance"><path fill="#fff" d="M407.3 10.8H9.6v887h397.7v-887Z"/></mask><g mask="url(#c)"><path fill="#fff" d="M407.3 10.8H9.6v887h397.7v-887Z"/><path fill="#fff" d="M407.3 10.8H9.6V461h397.7V10.8Z"/><path stroke="#67B279" stroke-linecap="round" stroke-width="3" d="M196.3 148.8s0-5 3.3-9c1-1.2 2.4-2.4 4-3.2 1.4-.6 3 1.2 4.8 1.2 1.9 0 3.5-1.8 4.9-1.1 1.6.7 2.9 1.9 4 3.1 3.3 4 3.3 9 3.3 9m-32.6.6h40.9"/><path stroke="#67B279" stroke-width="3" d="M199.6 165a5 5 0 1 0 0-10 5 5 0 0 0 0 10Z"/><path stroke="#67B279" stroke-linecap="round" stroke-width="3" d="M205.7 160.5h5.5"/><path stroke="#67B279" stroke-width="3" d="M217.3 165a5 5 0 1 0 0-10 5 5 0 0 0 0 10Z"/><path fill="#3D3D3D" d="M114.1 216.5v-19h7.4c2.1 0 3.7.6 4.9 1.7a6 6 0 0 1 1.7 4.6 6 6 0 0 1-1.7 4.6c-1.1 1-2.8 1.6-5 1.6h-3.2v6.5h-4Zm4.1-9.5h2.7c1.2 0 2-.3 2.4-.9.5-.5.7-1.3.7-2.3 0-1-.2-1.7-.7-2.3-.4-.6-1.2-.9-2.4-.9h-2.7v6.4Zm12 9.5v-13.3h3.9v1.5a4.1 4.1 0 0 1 1.2-1.3 2.8 2.8 0 0 1 2.3-.5l.4.1v3.3a4.1 4.1 0 0 0-1.1 0 2.7 2.7 0 0 0-1.6.4c-.5.4-.8.9-1 1.4v8.4h-4.1Zm9.8 0v-13.3h4v13.3h-4Zm-.3-17.2c0-.6.2-1.1.6-1.5.4-.4 1-.6 1.7-.6s1.3.2 1.7.6c.4.4.6.9.6 1.5s-.2 1.1-.6 1.5c-.4.4-1 .6-1.7.6s-1.3-.2-1.7-.6c-.4-.4-.6-.9-.6-1.5Zm5.7 3.9h4l2.7 7.7a11.9 11.9 0 0 1 .3 1.5h.1a9.5 9.5 0 0 1 .4-1.5l2.7-7.7h3.6l-5 13.3h-3.7l-5.1-13.3Zm14.2 9.4a3.7 3.7 0 0 1 1.7-3.3 7.6 7.6 0 0 1 4.3-1.1h2.7v-.8c0-.6-.1-1-.5-1.5-.2-.3-.8-.5-1.5-.5-.8 0-1.3.2-1.6.5-.4.3-.5.6-.5 1v.3h-3.9v-.2c0-1.2.6-2.2 1.7-3a7.7 7.7 0 0 1 4.5-1.2c1.8 0 3.2.4 4.2 1.1 1 .8 1.6 2 1.6 3.5v6l.1 1.7.4 1.2v.2H169a3.1 3.1 0 0 1-.3-.8 7.3 7.3 0 0 1-.1-1c-.3.6-.8 1-1.6 1.4-.7.4-1.6.6-2.7.6a5.1 5.1 0 0 1-3.3-1c-.9-.7-1.3-1.7-1.3-3.1Zm4-.3c0 .5.1 1 .5 1.4.3.3.8.5 1.5.5.8 0 1.4-.3 2-.8.4-.5.7-1 .7-1.7v-1.3h-2c-1 0-1.6.2-2 .5-.5.3-.7.8-.7 1.4Zm10.3-6.2v-2.9h8.5v2.9H174Zm2 6.4v-12.7h4v12.4c0 .6 0 1.1.3 1.3.2.3.5.4 1 .4a2.9 2.9 0 0 0 1.2-.3v2.9a7.1 7.1 0 0 1-2.3.3c-1.3 0-2.3-.3-3-1-.8-.7-1.2-1.8-1.2-3.3Zm7.8-2.5v-.4c0-2 .7-3.7 2-5a6.6 6.6 0 0 1 4.8-1.8c2 0 3.5.6 4.7 1.8a6.7 6.7 0 0 1 1.6 4.8v1.3h-10.5v-2.3h6.6v-.3c0-.6-.2-1.2-.6-1.7-.4-.5-1-.7-1.8-.7-1 0-1.6.3-2 1-.6.6-.8 1.5-.8 2.7v.8c0 1.2.3 2 .8 2.8.5.6 1.2 1 2.2 1 .7 0 1.3-.2 1.8-.5a4 4 0 0 0 1.2-1.2l3 1.6a4.9 4.9 0 0 1-2.2 2.1 7.6 7.6 0 0 1-3.7.9 7 7 0 0 1-5.2-1.9 6.7 6.7 0 0 1-1.8-5Zm21.8 6.5v-19.7h4v7.8c.4-.5 1-1 1.6-1.2.6-.3 1.3-.5 2.2-.5a5 5 0 0 1 4 1.9 7.4 7.4 0 0 1 1.6 4.8v.4c0 2-.5 3.6-1.6 4.9a5 5 0 0 1-4 1.8 5.6 5.6 0 0 1-2.4-.4c-.7-.4-1.2-.8-1.5-1.3v1.5h-3.9Zm4-4.5c.2.5.5.9 1 1.3.4.3 1 .5 1.7.5.9 0 1.5-.3 2-1 .4-.7.6-1.6.6-2.6v-.7c0-1.1-.2-2-.6-2.6-.5-.7-1.2-1-2.1-1-.7 0-1.2.2-1.7.5l-1 1.3v4.3Zm11.8 4.5v-13.3h3.8v1.5h.1a4.1 4.1 0 0 1 1.2-1.3 2.8 2.8 0 0 1 2.3-.5l.4.1v3.3a4.2 4.2 0 0 0-1.1 0 2.7 2.7 0 0 0-1.6.4c-.5.4-.9.9-1.1 1.4v8.4h-4Zm8.8-6.5v-.4c0-2 .6-3.7 1.9-5a7 7 0 0 1 5-1.8c2.1 0 3.8.6 5.1 1.9a6.5 6.5 0 0 1 2 5v.3a6.6 6.6 0 0 1-2 5 7 7 0 0 1-5 1.9 7 7 0 0 1-5.1-1.9 6.6 6.6 0 0 1-2-5Zm4-.6v.8c0 1.2.3 2.1.8 2.8.5.6 1.2.9 2.2.9a2.6 2.6 0 0 0 2.1-1c.5-.6.8-1.5.8-2.7v-.8c0-1.2-.3-2-.8-2.7a2.6 2.6 0 0 0-2.1-1 2.6 2.6 0 0 0-2.2 1 4.2 4.2 0 0 0-.8 2.7Zm10.9-6.2h4l1.9 7.3.2 1 .1.8h.1l.2-.9.2-.9 2.1-7.3h3.8l2.2 7.3a12 12 0 0 1 .4 1.8h.1a40.5 40.5 0 0 1 .4-1.8l2-7.3h3.4l-4 13.3h-3.8l-2.3-7.4-.3-.9-.2-.9a18 18 0 0 1-.5 1.8l-2.2 7.4H249l-4-13.3Zm22 9h3.9v.3c0 .6.2 1 .6 1.4.4.2 1 .4 1.7.4s1.2-.2 1.6-.4c.4-.3.5-.6.5-1a1 1 0 0 0-.6-1c-.4-.3-1.3-.5-2.7-.8a7.2 7.2 0 0 1-3.4-1.5 3.4 3.4 0 0 1-1.2-2.7c0-1.3.6-2.3 1.6-3 1-.7 2.4-1.1 4.2-1.1a7 7 0 0 1 4.2 1.1 3.7 3.7 0 0 1 1.6 3.2v.2h-3.8v-.3c0-.5-.1-.9-.5-1.2-.3-.2-.8-.4-1.5-.4s-1.1.1-1.4.4c-.4.2-.5.5-.5.9s.2.6.6.9l2.7.7c1.6.3 2.8.8 3.6 1.5a3.4 3.4 0 0 1 1 2.7c0 1.4-.4 2.4-1.5 3.2-1 .8-2.5 1.2-4.5 1.2s-3.4-.4-4.5-1.2a3.8 3.8 0 0 1-1.6-3.3v-.1Zm14-2.2v-.4c0-2 .6-3.7 1.9-5a6.6 6.6 0 0 1 4.8-1.8c2 0 3.6.6 4.7 1.8a6.7 6.7 0 0 1 1.7 4.8v1.3h-10.6v-2.3h6.7v-.3c0-.7-.2-1.3-.7-1.7-.4-.5-1-.7-1.8-.7-.9 0-1.6.3-2 1-.5.6-.7 1.5-.7 2.6v.9c0 1.2.2 2 .7 2.8.5.6 1.3 1 2.3 1 .7 0 1.2-.2 1.7-.5a4 4 0 0 0 1.2-1.2l3 1.6a4.9 4.9 0 0 1-2.2 2.1c-1 .6-2.2.9-3.7.9a7 7 0 0 1-5.1-1.9 6.7 6.7 0 0 1-2-5Zm15.3 6.5v-13.3h3.9v1.5h.1a4.1 4.1 0 0 1 1.2-1.3 2.8 2.8 0 0 1 2.2-.5l.5.1v3.3a4.1 4.1 0 0 0-1.2 0 2.7 2.7 0 0 0-1.6.4c-.5.4-.8.8-1 1.4v8.4h-4ZM85.2 250.8v-.2h1.6v.2c0 .7.2 1.3.8 1.7.5.4 1.2.6 2 .6 1 0 1.7-.2 2.2-.6.5-.4.7-1 .7-1.6 0-.6-.2-1-.7-1.4a9 9 0 0 0-2.7-1 7.3 7.3 0 0 1-2.8-1.5 3 3 0 0 1-.9-2.3c0-1 .4-1.7 1.1-2.4a4.5 4.5 0 0 1 3.1-1c1.3 0 2.4.4 3.1 1A3.3 3.3 0 0 1 94 245h-1.6a2.1 2.1 0 0 0-.7-1.7c-.5-.4-1.1-.6-2-.6-.9 0-1.5.2-2 .6-.4.3-.6.8-.6 1.4 0 .6.2 1 .7 1.3a9.6 9.6 0 0 0 2.6 1 7 7 0 0 1 3 1.5c.5.6.8 1.4.8 2.4s-.4 1.9-1.2 2.6a5 5 0 0 1-3.2 1 5.2 5.2 0 0 1-3.3-1 3.3 3.3 0 0 1-1.2-2.7Zm10.8.2V245h1.6v6c0 .6.1 1.2.5 1.5.3.3.8.4 1.4.4.5 0 1-.1 1.3-.4a3 3 0 0 0 1-1V245h1.5v9H102v-1h-.1a3.5 3.5 0 0 1-2.8 1.3 3 3 0 0 1-2.2-.8c-.5-.5-.8-1.4-.8-2.6Zm9.8 3.2v-9h1.5v1.1l1-1a2.2 2.2 0 0 1 1.7-.4h.3v1.6a3.9 3.9 0 0 0-.8-.1c-.5 0-1 .1-1.3.4l-.8 1v6.4h-1.6Zm6.7 0v-10.4c0-1 .3-1.8.8-2.3a3 3 0 0 1 2.2-.8 5.2 5.2 0 0 1 1.1.2v1.3a6.5 6.5 0 0 0-.9-.1c-.5 0-1 .1-1.2.4-.3.3-.4.7-.4 1.3v10.4h-1.6Zm-1.5-7.9v-1.2h5v1.2h-5Zm9.2 0v-1.2h5.2v1.2h-5.2Zm1.6 5.6v-9h1.6v9c0 .5 0 .7.2 1l.8.2a2.4 2.4 0 0 0 1-.2v1.3a3.7 3.7 0 0 1-1.4.3 2.1 2.1 0 0 1-1.6-.6c-.4-.4-.6-1-.6-2Zm5.2 2.3v-13.3h1.6v5.4a3.7 3.7 0 0 1 2.8-1.3c.9 0 1.6.2 2.1.7.6.6.8 1.4.8 2.6v5.9h-1.5v-5.9c0-.7-.2-1.2-.5-1.5-.4-.4-.8-.5-1.4-.5-.5 0-1 .1-1.4.4-.4.3-.7.6-.9 1v6.5H127Zm9.2-4.4v-.3a5 5 0 0 1 1.1-3.3 3.7 3.7 0 0 1 3-1.3c1.2 0 2.2.4 2.8 1.2a5 5 0 0 1 1 3.3v.6h-7v-1.2h5.4v-.3c0-.6-.1-1.2-.5-1.6-.4-.5-1-.7-1.6-.7a2.1 2.1 0 0 0-2 1 4.3 4.3 0 0 0-.6 2.3v.3c0 1 .3 1.7.7 2.4.5.6 1.1 1 2 1 .6 0 1.1-.2 1.5-.4.5-.3.8-.6 1-1l1 .9a4.3 4.3 0 0 1-1.3 1.2 4 4 0 0 1-2.1.6c-1.4 0-2.5-.5-3.2-1.3a5 5 0 0 1-1.2-3.4Zm16.4 4.5-3.1-12.7h1.6l2.2 9.4a5.6 5.6 0 0 1 .1 1h.1v-.6l.2-.4 2.3-9.4h1.7l2.4 9.4a4.3 4.3 0 0 1 .2 1 8 8 0 0 1 .2-1l2.1-9.4h1.6l-3 12.7h-1.7l-2.4-9.4a8 8 0 0 1-.2-1.1 7.7 7.7 0 0 1-.3 1l-2.5 9.5h-1.5Zm12.5-4.5v-.3a5 5 0 0 1 1-3.3 3.7 3.7 0 0 1 3-1.3c1.3 0 2.2.4 2.9 1.2a5 5 0 0 1 1 3.3v.6h-7v-1.2h5.4v-.3a2.6 2.6 0 0 0-.6-1.6c-.3-.5-.9-.7-1.6-.7a2.1 2.1 0 0 0-1.9 1 4.3 4.3 0 0 0-.6 2.3v.3c0 1 .2 1.7.7 2.4.4.6 1 1 2 1 .6 0 1-.2 1.5-.4l1-1 1 .9a4 4 0 0 1-3.5 1.8c-1.4 0-2.5-.5-3.2-1.3a5 5 0 0 1-1.1-3.4Zm9.8 4.4v-13.3h1.6v5.3c.3-.4.6-.7 1-.9a3.5 3.5 0 0 1 1.7-.3c1.1 0 2 .4 2.7 1.3a5.1 5.1 0 0 1 1 3.2v.3c0 1.3-.3 2.4-1 3.3-.7.8-1.6 1.3-2.7 1.3-.7 0-1.2-.2-1.7-.4a2.8 2.8 0 0 1-1-1l-.2 1.2H175Zm1.6-2.7c.2.4.5.8.9 1.1.4.3.9.5 1.4.5.9 0 1.5-.3 2-1 .3-.6.5-1.4.5-2.3v-.3c0-.9-.2-1.7-.6-2.3-.4-.6-1-1-1.9-1a2.3 2.3 0 0 0-1.4.5l-.9 1.1v3.7Zm12.8 2.7v-9h1.5v9h-1.5Zm-.2-11.8c0-.3 0-.5.2-.7.2-.2.4-.3.8-.3.3 0 .5.1.7.3.2.2.2.4.2.7 0 .2 0 .5-.2.6-.2.2-.4.3-.7.3a1 1 0 0 1-.8-.3 1 1 0 0 1-.2-.6Zm4.4 11.8v-9h1.4v1.1h.1a3.5 3.5 0 0 1 2.8-1.3c.9 0 1.6.2 2.1.7s.8 1.4.8 2.6v5.9h-1.5v-5.9c0-.7-.2-1.2-.5-1.5-.3-.4-.8-.5-1.4-.5-.5 0-1 .1-1.4.4-.3.3-.7.6-.9 1v6.5h-1.5Zm14 0v-9h1.6v9h-1.6Zm-.2-11.8c0-.3.1-.5.3-.7.2-.2.4-.3.7-.3s.6.1.7.3c.2.2.3.4.3.7 0 .2 0 .5-.3.6-.1.2-.4.3-.7.3-.3 0-.5 0-.7-.3a1 1 0 0 1-.3-.6Zm4.4 11.8v-9h1.4l.1 1.1a3.5 3.5 0 0 1 2.8-1.3 3 3 0 0 1 2.2.7c.5.6.8 1.4.8 2.6v5.9h-1.6v-5.9c0-.7-.1-1.2-.5-1.5-.3-.4-.7-.5-1.3-.5-.5 0-1 .1-1.4.4-.4.3-.7.6-.9 1v6.5h-1.6Zm9.2-4.4v-.3a5 5 0 0 1 1.1-3.3 3.8 3.8 0 0 1 3-1.3c1.3 0 2.2.3 2.8 1 .6.6 1 1.3 1 2.1h-1.6c0-.5-.2-.9-.5-1.3-.3-.3-.9-.5-1.6-.5-.9 0-1.5.3-2 1a4.3 4.3 0 0 0-.6 2.3v.3c0 1 .2 1.7.6 2.4.5.6 1.1 1 2 1 .7 0 1.3-.2 1.6-.6.3-.4.5-.8.5-1.3h1.5a3 3 0 0 1-.9 2.2c-.6.6-1.5 1-2.7 1a3.8 3.8 0 0 1-3-1.4 5 5 0 0 1-1.2-3.3Zm9.1 0v-.3c0-1.3.4-2.5 1.2-3.3a4 4 0 0 1 3.1-1.3 4 4 0 0 1 3 1.3 4.8 4.8 0 0 1 1.2 3.3v.3c0 1.4-.3 2.5-1.1 3.4a4 4 0 0 1-3.1 1.3 4 4 0 0 1-3-1.3 4.8 4.8 0 0 1-1.3-3.4Zm1.6-.3v.3c0 1 .3 1.7.7 2.4.5.6 1.1 1 2 1 .9 0 1.5-.4 2-1 .4-.7.6-1.5.6-2.4v-.3c0-1-.2-1.7-.6-2.4-.5-.6-1.1-1-2-1-.9 0-1.5.4-2 1a4.1 4.1 0 0 0-.6 2.4Zm8.7 7.2 1-1.2 1 .8c.5.2 1 .3 1.6.3.8 0 1.4-.2 1.9-.7.4-.4.6-1 .6-1.9v-.9c-.2.4-.6.7-1 1-.5.1-1 .3-1.6.3a3.3 3.3 0 0 1-2.8-1.3 5.1 5.1 0 0 1-1-3.3v-.3a5.1 5.1 0 0 1 1-3.3c.7-.8 1.6-1.3 2.8-1.3.6 0 1.1.2 1.6.4.5.3.8.6 1 1h.1v-1.2h1.5v9c0 1.2-.4 2.2-1.1 2.8a4.2 4.2 0 0 1-3 1 5.5 5.5 0 0 1-3.6-1.2Zm1.3-6.9c0 1 .2 1.7.6 2.3.4.7 1 1 1.9 1a2.3 2.3 0 0 0 1.5-.5c.4-.3.7-.7.8-1v-3.8a2.7 2.7 0 0 0-.8-1 2.3 2.3 0 0 0-1.5-.5c-.9 0-1.5.3-1.9.9-.4.6-.6 1.4-.6 2.3v.3Zm9 4.4v-9h1.4v1.1a3.5 3.5 0 0 1 2.9-1.3c.9 0 1.6.2 2.1.7s.8 1.4.8 2.6v5.9h-1.5v-5.9c0-.7-.2-1.2-.5-1.5-.4-.4-.8-.5-1.4-.5-.5 0-1 .1-1.4.4-.4.3-.7.6-.9 1v6.5h-1.5Zm9.8 0v-9h1.5v9h-1.5Zm-.2-11.8c0-.3 0-.5.2-.7a1 1 0 0 1 .7-.3c.4 0 .6.1.8.3.2.2.2.4.2.7 0 .2 0 .5-.2.6-.2.2-.4.3-.7.3a1 1 0 0 1-.8-.3 1 1 0 0 1-.2-.6Zm3 4V245h5.2v1.2h-5.1Zm1.7 5.5v-9h1.6v9c0 .5 0 .7.2 1l.8.2a2.4 2.4 0 0 0 1-.2v1.3a3.6 3.6 0 0 1-1.4.3 2.1 2.1 0 0 1-1.6-.6c-.4-.4-.6-1-.6-2Zm4.5-2.1v-.3c0-1.3.4-2.5 1.1-3.3a4 4 0 0 1 3.1-1.3 4 4 0 0 1 3.1 1.3 4.8 4.8 0 0 1 1.2 3.3v.3c0 1.4-.4 2.5-1.2 3.4a4 4 0 0 1-3 1.3 4 4 0 0 1-3.2-1.3 4.8 4.8 0 0 1-1.1-3.4Zm1.6-.3v.3c0 1 .2 1.7.7 2.4.4.6 1 1 2 1 .8 0 1.5-.4 2-1 .4-.7.6-1.5.6-2.4v-.3a4.1 4.1 0 0 0-.7-2.4c-.4-.6-1-1-2-1-.8 0-1.5.4-2 1a4.1 4.1 0 0 0-.6 2.4Zm13.1 4.7v-9h1.5v1.1l1.2-1c.5-.2 1-.3 1.6-.3.6 0 1 0 1.5.3s.8.7 1 1.2c.5-.5.9-1 1.3-1.2.5-.2 1-.3 1.6-.3 1 0 1.7.2 2.2.7.5.6.8 1.4.8 2.6v5.9h-1.6v-5.9c0-.7-.1-1.2-.4-1.5-.3-.4-.8-.5-1.3-.5s-1 .1-1.4.4a3 3 0 0 0-.8 1v6.5h-1.6v-5.9c0-.7-.2-1.2-.5-1.5a1.8 1.8 0 0 0-1.3-.5 2 2 0 0 0-1.3.4c-.4.3-.7.6-.9 1v6.5h-1.6Zm14.6-4.4v-.3c0-1.3.4-2.5 1.2-3.3a4 4 0 0 1 3-1.3 4 4 0 0 1 3.1 1.3 4.8 4.8 0 0 1 1.2 3.3v.3c0 1.4-.4 2.5-1.2 3.4a4 4 0 0 1-3 1.3 4 4 0 0 1-3.1-1.3 4.8 4.8 0 0 1-1.2-3.4Zm1.6-.3v.3c0 1 .2 1.7.7 2.4.4.6 1 1 2 1 .8 0 1.5-.4 2-1 .4-.7.6-1.5.6-2.4v-.3c0-1-.2-1.7-.7-2.4-.4-.6-1-1-2-1-.8 0-1.5.4-2 1a4.1 4.1 0 0 0-.6 2.4Zm8.3.3v-.3a5.1 5.1 0 0 1 1-3.2c.8-1 1.7-1.4 2.8-1.4.6 0 1.2.2 1.6.4.5.2.8.5 1 .9v-5.3h1.7v13.3h-1.5V253l-1.1 1c-.5.2-1 .4-1.7.4a3.3 3.3 0 0 1-2.7-1.3 5.1 5.1 0 0 1-1-3.3Zm1.6 0c0 1 .3 1.7.7 2.3.4.7 1 1 1.9 1 .5 0 1-.2 1.4-.5l.9-1v-3.8a2.7 2.7 0 0 0-.9-1 2.3 2.3 0 0 0-1.4-.5c-1 0-1.5.3-2 .9-.3.6-.5 1.4-.5 2.3v.3Zm8.5 0v-.3a5 5 0 0 1 1-3.3 3.7 3.7 0 0 1 3-1.3c1.3 0 2.2.4 2.9 1.2a5 5 0 0 1 1 3.3v.6h-7v-1.2h5.4v-.3c0-.6-.2-1.2-.6-1.6-.4-.5-.9-.7-1.6-.7a2.1 2.1 0 0 0-2 1 4.3 4.3 0 0 0-.5 2.3v.3c0 1 .2 1.7.6 2.4.5.6 1.2 1 2 1 .7 0 1.2-.2 1.6-.4l1-1 1 .9a4 4 0 0 1-3.5 1.8c-1.4 0-2.5-.5-3.2-1.3a5 5 0 0 1-1.1-3.4Zm9.8 6.3.6-1.2.2-1.3v-1.3h1.5v1.3c0 .6-.1 1.2-.4 1.7-.2.5-.6 1-1 1.4l-1-.6ZM64.8 268.4h1.6l1.6 6a14.8 14.8 0 0 1 .3 1.1 6.2 6.2 0 0 1 .4-1.1l2-6H72l2 6a5.7 5.7 0 0 1 .3 1.1 17.7 17.7 0 0 1 .3-1.1l1.6-6h1.4l-2.7 9h-1.3l-2-5.8a50.2 50.2 0 0 1-.3-1.4l-.3.7-.2.7-2 5.9h-1.2l-2.8-9Zm14.4 9v-9h1.6v9h-1.6Zm-.2-11.7c0-.3.1-.5.3-.7a1 1 0 0 1 .7-.3c.3 0 .6.1.7.3.2.2.3.4.3.7s0 .5-.3.6c-.1.2-.4.3-.7.3s-.6-.1-.7-.3a1 1 0 0 1-.3-.6Zm3.1 4v-1.3h5.2v1.2H82Zm1.7 5.5v-9h1.5v9c0 .4.1.7.3 1l.7.2a2.5 2.5 0 0 0 1-.2v1.3a3.7 3.7 0 0 1-1.4.2 2.1 2.1 0 0 1-1.6-.6c-.4-.4-.5-1-.5-1.9Zm5.2 2.3v-13.3h1.5v5.3a3.7 3.7 0 0 1 2.9-1.3c.8 0 1.5.3 2 .8.6.5.8 1.4.8 2.6v5.9h-1.5v-5.9c0-.7-.2-1.2-.5-1.6-.3-.3-.8-.4-1.4-.4-.5 0-1 .1-1.3.4l-1 1v6.5H89Zm9.2-4.4v-.3c0-1.4.3-2.5 1.1-3.3a4 4 0 0 1 3.1-1.3 4 4 0 0 1 3.1 1.3 4.8 4.8 0 0 1 1.2 3.3v.3c0 1.4-.4 2.5-1.2 3.3a4 4 0 0 1-3.1 1.3 4 4 0 0 1-3-1.3 4.8 4.8 0 0 1-1.2-3.3Zm1.6-.3v.3c0 1 .2 1.7.6 2.4.5.6 1.1 1 2 1 .9 0 1.5-.4 2-1 .4-.7.6-1.5.6-2.4v-.3a4.1 4.1 0 0 0-.6-2.4c-.5-.6-1.1-1-2-1-.9 0-1.5.4-2 1a4.1 4.1 0 0 0-.6 2.4Zm8.8 1.5v-5.9h1.5v5.9c0 .7.2 1.2.5 1.6.3.3.8.4 1.4.4.5 0 1-.1 1.3-.4a3 3 0 0 0 1-1v-6.5h1.5v9h-1.4v-1a3.5 3.5 0 0 1-2.9 1.3 3 3 0 0 1-2.1-.8c-.6-.5-.8-1.4-.8-2.6Zm8.5-4.7v-1.2h5.1v1.2h-5Zm1.6 5.6v-9h1.6v9c0 .4 0 .7.2 1l.8.2a2.4 2.4 0 0 0 1-.2v1.3a3.7 3.7 0 0 1-1.4.2 2.1 2.1 0 0 1-1.6-.6c-.4-.4-.6-1-.6-1.9Zm9-.4c0-.9.4-1.6 1-2.1a4.7 4.7 0 0 1 2.9-.8h2v-.6c0-.6-.1-1-.4-1.4-.3-.3-.8-.5-1.5-.5s-1.2.2-1.5.5c-.2.2-.4.6-.4 1h-1.6c0-.8.4-1.4 1-2a3.9 3.9 0 0 1 2.6-.7 3.7 3.7 0 0 1 2.5.8c.6.5.9 1.2.9 2.3v4.1a5.9 5.9 0 0 0 .3 2H134a3.7 3.7 0 0 1-.4-1.2c-.2.4-.5.7-1 1-.5.3-1 .5-1.8.5-.9 0-1.6-.3-2.2-.8-.6-.5-.9-1.2-.9-2Zm1.6 0c0 .5.1.9.4 1.2.3.3.8.4 1.4.4.7 0 1.2-.2 1.7-.7.5-.4.8-.9.8-1.4V273h-1.9c-.8 0-1.4.2-1.8.5-.4.3-.6.7-.6 1.2Zm7.8-1.7v-.3a5.1 5.1 0 0 1 1-3.3c.7-.8 1.6-1.3 2.8-1.3.6 0 1.2.2 1.6.4.4.2.8.5 1 .9v-5.3h1.6v13.3h-1.4v-1.2h-.1c-.2.4-.6.7-1 1a3.3 3.3 0 0 1-1.7.4 3.3 3.3 0 0 1-2.8-1.3 5.1 5.1 0 0 1-1-3.3Zm1.6 0c0 1 .2 1.7.6 2.3.4.6 1 1 2 1 .5 0 1-.2 1.4-.5.4-.3.7-.7.9-1.1v-3.7c-.2-.4-.5-.8-.9-1a2.3 2.3 0 0 0-1.5-.6c-.8 0-1.5.4-1.9 1-.4.6-.6 1.4-.6 2.3v.3Zm8.4 1.7h1.6c0 .6.2 1 .5 1.3.4.2 1 .3 1.6.3s1.1 0 1.5-.3c.3-.3.5-.6.5-1s-.1-.7-.4-1a6 6 0 0 0-2-.6 6.5 6.5 0 0 1-2.2-1 2 2 0 0 1-.9-1.7c0-.8.3-1.4 1-1.9.5-.5 1.4-.7 2.4-.7a3.9 3.9 0 0 1 2.5.7c.6.5 1 1.2 1 2h-1.7c0-.5-.1-.8-.4-1-.3-.3-.8-.4-1.4-.4-.6 0-1.1 0-1.4.3-.3.2-.4.5-.4.9s.1.6.5.8l2 .7c.9.2 1.6.5 2.2 1 .5.4.8 1 .8 1.8s-.3 1.5-1 2c-.5.5-1.4.7-2.6.7-1.2 0-2.1-.2-2.8-.7a2.6 2.6 0 0 1-.9-2.2Zm13-1.7v-.3c0-1.4.3-2.5 1.1-3.3a4 4 0 0 1 3.1-1.3 4 4 0 0 1 3 1.3 4.8 4.8 0 0 1 1.2 3.3v.3c0 1.4-.4 2.5-1.1 3.3a4 4 0 0 1-3.1 1.3 4 4 0 0 1-3.1-1.3 4.8 4.8 0 0 1-1.2-3.3Zm1.5-.3v.3c0 1 .3 1.7.7 2.4.5.6 1.1 1 2 1 .9 0 1.5-.4 2-1a4 4 0 0 0 .6-2.4v-.3a4 4 0 0 0-.6-2.4 2.2 2.2 0 0 0-2-1c-.9 0-1.5.4-2 1a4.1 4.1 0 0 0-.7 2.4Zm9 4.7v-9h1.4v1l1-1a2.1 2.1 0 0 1 1.7-.3h.3v1.5a3.6 3.6 0 0 0-.8 0c-.5 0-1 .1-1.3.4-.4.3-.6.6-.8 1v6.4h-1.6Zm9-7.9v-1.2h5v1.2h-5Zm1.5 5.6v-9h1.6v9c0 .4 0 .7.2 1l.8.2a2.5 2.5 0 0 0 1-.2v1.3a3.7 3.7 0 0 1-1.4.2 2.1 2.1 0 0 1-1.6-.6c-.4-.4-.6-1-.6-1.9Zm5.2 2.3v-9h1.5v1l1-1a2.1 2.1 0 0 1 1.7-.3h.3v1.5a3.6 3.6 0 0 0-.8 0c-.5 0-1 .1-1.3.4l-.8 1v6.4h-1.6Zm5.2-2.7c0-.9.3-1.6 1-2.1a4.7 4.7 0 0 1 2.8-.8h2.1v-.6c0-.6-.2-1-.4-1.4-.3-.3-.8-.5-1.5-.5s-1.2.2-1.5.5c-.3.2-.4.6-.4 1H192c0-.8.3-1.4 1-2a3.9 3.9 0 0 1 2.6-.7c1 0 1.9.2 2.5.8.6.5.9 1.2.9 2.3v5.1l.3 1h-1.5a3 3 0 0 1-.4-1.2c-.2.4-.5.7-1 1-.5.3-1 .5-1.8.5-.9 0-1.6-.3-2.2-.8-.6-.5-1-1.2-1-2Zm1.6 0c0 .5.1.9.4 1.2.3.3.8.4 1.4.4.6 0 1.2-.2 1.7-.7.5-.4.8-.9.8-1.4V273h-1.9c-.8 0-1.4.2-1.8.5-.4.3-.6.7-.6 1.2Zm7.8-1.7v-.3a5 5 0 0 1 1.1-3.3 3.8 3.8 0 0 1 3-1.3c1.3 0 2.2.3 2.8 1a3 3 0 0 1 1 2.1h-1.6c0-.5-.2-1-.5-1.3-.4-.4-.9-.5-1.6-.5-1 0-1.6.3-2 1a4.3 4.3 0 0 0-.6 2.3v.3c0 1 .2 1.7.6 2.4.4.6 1 1 2 1 .7 0 1.2-.2 1.6-.6.3-.4.5-.8.5-1.3h1.5a3 3 0 0 1-1 2.2c-.5.6-1.4 1-2.6 1a3.8 3.8 0 0 1-3-1.4 5 5 0 0 1-1.2-3.3Zm9.7 4.4v-13.3h1.5v8.4l4-4.2h1.7l-5.7 6v3h-1.5Zm5.8 0-3.5-4.7 1-1.1 4.3 5.8h-1.8Zm2.2-4.4v-.3a5 5 0 0 1 1.2-3.3 3.7 3.7 0 0 1 3-1.3c1.1 0 2.1.4 2.8 1.2a5 5 0 0 1 1 3.3v.6h-7V272h5.4v-.2a2.6 2.6 0 0 0-.6-1.6c-.4-.5-.9-.7-1.6-.7-.9 0-1.5.3-2 1a4.3 4.3 0 0 0-.5 2.3v.3c0 1 .2 1.7.6 2.4.5.6 1.1 1 2 1 .6 0 1.1-.2 1.5-.4.5-.3.8-.6 1-1l1 .9a4.3 4.3 0 0 1-3.4 1.7c-1.4 0-2.5-.4-3.2-1.3a5 5 0 0 1-1.2-3.3Zm9.9 4.4v-9h1.4v1h.1l1-1a2.1 2.1 0 0 1 1.7-.3h.3v1.5a3.6 3.6 0 0 0-.8 0c-.5 0-1 .1-1.3.4-.4.3-.7.6-.8 1v6.4h-1.6Zm5.4-2.7h1.6c0 .6.2 1 .6 1.3.3.2.9.3 1.5.3s1.1 0 1.5-.3c.3-.3.5-.6.5-1a1 1 0 0 0-.4-1 6 6 0 0 0-2-.6 6.5 6.5 0 0 1-2.2-1 2 2 0 0 1-.9-1.7c0-.8.3-1.4 1-1.9.6-.5 1.4-.7 2.4-.7a3.9 3.9 0 0 1 2.5.7c.6.5 1 1.2 1 2h-1.6c0-.5-.2-.8-.5-1-.3-.3-.8-.4-1.4-.4-.6 0-1 0-1.4.3-.3.2-.4.5-.4.9s.1.6.5.8l2 .7c1 .2 1.7.5 2.2 1 .5.4.8 1 .8 1.8s-.3 1.5-1 2c-.5.5-1.4.7-2.6.7-1.2 0-2.1-.2-2.8-.7a2.6 2.6 0 0 1-.9-2.1v-.1Zm9.3 1.8c0-.3.1-.5.3-.8.2-.2.5-.3.9-.3.3 0 .6.1.8.3.2.2.3.5.3.8s-.1.6-.3.8c-.2.2-.5.3-.8.3-.4 0-.7-.1-.9-.3a1 1 0 0 1-.3-.8Zm11.4 1-3-12.7h1.5l2.2 9.4a6 6 0 0 1 .2.9l.1-.5.1-.4 2.4-9.4h1.6l2.4 9.4a4.5 4.5 0 0 1 .2.9h.1a6.8 6.8 0 0 1 .2-1l2-9.3h1.6l-3 12.7h-1.6l-2.5-9.4a7.8 7.8 0 0 1-.2-1.1 8.1 8.1 0 0 1-.3 1l-2.4 9.5h-1.6Zm12.5-4.5v-.3a5 5 0 0 1 1.1-3.3 3.7 3.7 0 0 1 3-1.3c1.2 0 2.1.4 2.8 1.2a5 5 0 0 1 1 3.3v.6h-7V272h5.4v-.2c0-.6-.2-1.2-.5-1.6-.4-.5-1-.7-1.7-.7a2.1 2.1 0 0 0-1.9 1 4.3 4.3 0 0 0-.6 2.3v.3c0 1 .2 1.7.7 2.4.4.6 1.1 1 2 1 .6 0 1.1-.2 1.5-.4.4-.3.8-.6 1-1l1 .9a4.3 4.3 0 0 1-1.3 1.2 4 4 0 0 1-2.2.5c-1.4 0-2.4-.4-3.2-1.3a5 5 0 0 1-1-3.3Zm9.9 4.4v-13.3h1.5v5.3a3 3 0 0 1 1-1 3.5 3.5 0 0 1 1.7-.3c1.1 0 2 .5 2.7 1.3a5.1 5.1 0 0 1 1 3.3v.3c0 1.3-.3 2.4-1 3.2-.6 1-1.6 1.3-2.7 1.3-.6 0-1.2 0-1.7-.4a2.8 2.8 0 0 1-1-1l-.1 1.3H277Zm1.5-2.7c.2.4.5.8.9 1 .4.4.9.6 1.5.6.8 0 1.5-.3 1.9-1 .4-.6.6-1.4.6-2.3v-.3c0-1-.2-1.7-.6-2.3-.4-.6-1-1-2-1a2.3 2.3 0 0 0-1.4.5l-.9 1v3.8Zm7.9 0h1.6c0 .6.2 1 .5 1.3.4.2 1 .3 1.6.3s1.1 0 1.5-.3c.3-.3.5-.6.5-1a1 1 0 0 0-.4-1c-.3-.2-1-.4-2-.6a6.5 6.5 0 0 1-2.2-1 2 2 0 0 1-.9-1.7c0-.8.3-1.4 1-1.9.5-.5 1.4-.7 2.4-.7a3.9 3.9 0 0 1 2.5.7c.6.5 1 1.2 1 2h-1.7c0-.5-.1-.8-.4-1-.3-.3-.8-.4-1.4-.4-.6 0-1.1 0-1.4.3-.3.2-.4.5-.4.9s.1.6.5.8l2 .7c.9.2 1.6.5 2.2 1 .5.4.8 1 .8 1.8s-.3 1.5-1 2c-.5.5-1.4.7-2.6.7-1.2 0-2.1-.2-2.8-.7a2.6 2.6 0 0 1-1-2.2Zm9.3 2.7v-9h1.6v9h-1.6Zm-.2-11.8c0-.3 0-.5.2-.7a1 1 0 0 1 .8-.3 1 1 0 0 1 1 1c0 .2-.1.5-.3.6-.2.2-.4.3-.7.3a1 1 0 0 1-.8-.3 1 1 0 0 1-.2-.6Zm3.1 4v-1.3h5.1v1.2h-5Zm1.6 5.5v-9h1.6v9c0 .4 0 .7.2 1l.8.2a2.5 2.5 0 0 0 1-.2v1.3a3.7 3.7 0 0 1-1.4.2 2.1 2.1 0 0 1-1.6-.6c-.4-.4-.6-1-.6-1.9Zm4.7-2.1v-.3a5 5 0 0 1 1.1-3.3 3.7 3.7 0 0 1 3-1.3c1.2 0 2.1.4 2.8 1.2a5 5 0 0 1 1 3.3v.6h-7V272h5.4v-.2c0-.6-.2-1.2-.6-1.6-.3-.5-.9-.7-1.6-.7a2.1 2.1 0 0 0-1.9 1 4.3 4.3 0 0 0-.6 2.3v.3c0 1 .2 1.7.7 2.4.4.6 1 1 2 1 .6 0 1-.2 1.5-.4.4-.3.8-.6 1-1l1 .9a4.3 4.3 0 0 1-1.3 1.2 4 4 0 0 1-2.2.5c-1.4 0-2.4-.4-3.2-1.3a5 5 0 0 1-1.1-3.3Zm13.6 0v-.3a5.1 5.1 0 0 1 1-3.3c.7-.8 1.6-1.3 2.7-1.3.7 0 1.2.2 1.6.4.5.2.8.5 1.1.9v-5.3h1.6v13.3H325l-.1-1.2c-.3.4-.6.7-1.1 1a3.3 3.3 0 0 1-1.7.4 3.3 3.3 0 0 1-2.7-1.3 5.1 5.1 0 0 1-1-3.3Zm1.6 0c0 1 .2 1.7.6 2.3.4.6 1 1 1.9 1 .5 0 1-.2 1.4-.5.4-.3.7-.7.9-1.1v-3.7c-.2-.4-.5-.8-.9-1a2.3 2.3 0 0 0-1.4-.6c-.9 0-1.5.4-2 1-.3.6-.5 1.4-.5 2.3v.3Zm8.4 1.7c0-.9.4-1.6 1.1-2.1a4.7 4.7 0 0 1 2.8-.8h2v-.6c0-.6-.1-1-.4-1.4-.3-.3-.8-.5-1.5-.5s-1.2.2-1.4.5c-.3.2-.5.6-.5 1H329c0-.8.4-1.4 1-2a3.9 3.9 0 0 1 2.6-.7c1 0 1.9.2 2.5.8.6.5.9 1.2.9 2.3v4.1a5.9 5.9 0 0 0 .3 2h-1.5a3.6 3.6 0 0 1-.4-1.2c-.2.4-.5.7-1 1-.5.3-1 .5-1.8.5-.9 0-1.6-.3-2.2-.8-.6-.5-.9-1.2-.9-2Zm1.6 0c0 .5.1.9.4 1.2.3.3.8.4 1.4.4.7 0 1.2-.2 1.7-.7.6-.4.8-.9.8-1.4V273h-1.9c-.8 0-1.4.2-1.8.5-.4.3-.6.7-.6 1.2Zm7.1-5.2v-1.2h5.1v1.2h-5Zm1.6 5.6v-9h1.6v9c0 .4 0 .7.2 1l.8.2a2.4 2.4 0 0 0 1-.2v1.3a3.7 3.7 0 0 1-1.4.2 2.1 2.1 0 0 1-1.6-.6c-.4-.4-.6-1-.6-1.9Zm4.7-.4c0-.9.4-1.6 1.1-2.1a4.7 4.7 0 0 1 2.8-.8h2v-.6c0-.6-.1-1-.4-1.4-.3-.3-.8-.5-1.4-.5-.7 0-1.2.2-1.5.5-.3.2-.5.6-.5 1h-1.5c0-.8.3-1.4 1-2a3.9 3.9 0 0 1 2.5-.7c1 0 2 .2 2.5.8.6.5 1 1.2 1 2.3v4.1a6.2 6.2 0 0 0 .2 2h-1.5a3 3 0 0 1-.3-1.2c-.2.4-.6.7-1 1-.5.3-1.1.5-1.9.5-.9 0-1.6-.3-2.2-.8-.6-.5-.9-1.2-.9-2Zm1.6 0c0 .5.2.9.5 1.2.3.3.7.4 1.4.4.6 0 1.2-.2 1.7-.7.5-.4.7-.9.7-1.4V273h-1.8c-.8 0-1.5.2-1.9.5-.4.3-.6.7-.6 1.2Zm-248.9 26v-9.1h1.6v9h-1.5Zm-.2-11.9c0-.2.1-.5.3-.6.2-.2.4-.3.7-.3s.6 0 .8.3l.2.6c0 .3 0 .5-.2.7-.2.2-.4.3-.8.3s-.5-.1-.7-.3a1 1 0 0 1-.2-.7Zm3.9 9.2h1.5c0 .6.2 1 .6 1.2.4.3 1 .4 1.5.4s1.2-.1 1.5-.4c.4-.2.6-.5.6-1s-.2-.7-.5-.9l-1.9-.7a6.5 6.5 0 0 1-2.3-1c-.5-.3-.8-1-.8-1.7s.3-1.3.9-1.8c.6-.5 1.4-.8 2.5-.8a3.9 3.9 0 0 1 2.4.8c.7.5 1 1.1 1 2h-1.6c0-.5-.1-.8-.4-1-.3-.3-.8-.5-1.4-.5-.7 0-1.1.2-1.4.4a1 1 0 0 0-.5.9c0 .3.2.6.5.8l2 .6c1 .3 1.7.6 2.2 1 .6.4.8 1 .8 1.9s-.3 1.4-.9 2c-.6.5-1.5.7-2.7.7-1.2 0-2-.2-2.7-.8a2.6 2.6 0 0 1-1-2v-.1Zm13-1.7v-.3a5 5 0 0 1 1-3.4 3.8 3.8 0 0 1 3-1.3c1.3 0 2.2.4 2.8 1 .6.7 1 1.4 1 2.2H119c0-.5-.2-1-.5-1.3-.3-.4-.9-.6-1.6-.6-1 0-1.6.4-2 1a4.3 4.3 0 0 0-.6 2.4v.3c0 1 .2 1.7.6 2.3.4.7 1 1 2 1 .7 0 1.3-.2 1.6-.5.3-.4.5-.8.5-1.3h1.5c0 .8-.3 1.5-.9 2.1-.6.7-1.5 1-2.7 1a3.8 3.8 0 0 1-3-1.3 5 5 0 0 1-1.2-3.3Zm9.6 4.4v-13.3h1.6v13.3h-1.6Zm3.7-4.4v-.3a5 5 0 0 1 1.1-3.4 3.7 3.7 0 0 1 3-1.3c1.2 0 2.1.4 2.8 1.3a5 5 0 0 1 1 3.2v.7h-7v-1.3h5.4v-.2a2.6 2.6 0 0 0-.6-1.7 2 2 0 0 0-1.6-.7c-.8 0-1.5.4-1.9 1a4.3 4.3 0 0 0-.6 2.4v.3c0 1 .2 1.7.7 2.3.4.7 1 1 2 1a2.8 2.8 0 0 0 1.5-.4c.4-.2.7-.5 1-.9l1 .8a4.3 4.3 0 0 1-1.3 1.3 4 4 0 0 1-2.2.5c-1.4 0-2.5-.4-3.2-1.3a5 5 0 0 1-1.1-3.3Zm9.3 1.7c0-1 .4-1.6 1.1-2.1a4.7 4.7 0 0 1 2.8-.8h2v-.6c0-.6-.1-1-.4-1.4-.3-.3-.7-.5-1.4-.5s-1.2.2-1.5.4c-.3.3-.5.7-.5 1h-1.5c0-.7.3-1.3 1-1.8a3.9 3.9 0 0 1 2.5-.8c1 0 2 .2 2.5.7.6.5 1 1.3 1 2.4v4a6 6 0 0 0 .2 2v.2h-1.5a3.6 3.6 0 0 1-.3-1.3c-.2.4-.6.7-1 1-.5.3-1.1.4-1.9.4-.8 0-1.6-.2-2.2-.7-.6-.5-.9-1.2-.9-2.1Zm1.6 0c0 .4.2.8.5 1.1.3.3.7.5 1.4.5.6 0 1.2-.2 1.7-.7.5-.4.7-.9.7-1.4v-1.3h-1.8a3 3 0 0 0-1.9.5c-.4.3-.6.7-.6 1.2Zm8.4 2.7v-9.1h1.4v1.2h.1l1-1a2.1 2.1 0 0 1 1.7-.4h.3v1.5a3.6 3.6 0 0 0-.8 0c-.5 0-1 .1-1.3.4-.4.2-.7.6-.8 1v6.4h-1.6Zm5.3-4.4v-.3a5 5 0 0 1 1-3.4 3.7 3.7 0 0 1 3-1.2c1.3 0 2.2.3 2.9 1.2a5 5 0 0 1 1 3.2v.7h-7v-1.3h5.4v-.2a2.6 2.6 0 0 0-.6-1.7 2 2 0 0 0-1.6-.7c-.8 0-1.5.4-1.9 1a4.3 4.3 0 0 0-.6 2.4v.3c0 1 .2 1.7.6 2.3.5.7 1.2 1 2 1 .7 0 1.2-.1 1.6-.4.4-.2.7-.5 1-.9l1 .9a4 4 0 0 1-3.5 1.8c-1.4 0-2.5-.5-3.2-1.4a5 5 0 0 1-1.1-3.3Zm9.3 0v-.3a5 5 0 0 1 1-3.3c.7-.8 1.6-1.3 2.7-1.3.7 0 1.2.2 1.7.4.4.2.8.5 1 .9v-5.3h1.6v13.3h-1.4l-.1-1.2c-.3.4-.6.7-1.1 1-.5.2-1 .3-1.7.3a3.3 3.3 0 0 1-2.7-1.3 5.1 5.1 0 0 1-1-3.2Zm1.6 0c0 .9.2 1.7.6 2.3.4.6 1 1 1.9 1 .6 0 1-.2 1.5-.5l.8-1.1v-3.7a2.7 2.7 0 0 0-.8-1 2.3 2.3 0 0 0-1.5-.6c-.9 0-1.5.3-2 1-.3.6-.5 1.4-.5 2.3v.3Zm12.1-4.7h1.6l1.6 6a14.5 14.5 0 0 1 .3 1.1 6.2 6.2 0 0 1 .4-1.1l2-6h1.3l2 6a5.5 5.5 0 0 1 .3 1.1l.2-.6v-.5l1.7-6h1.5l-2.8 9h-1.3l-2-5.8a35.2 35.2 0 0 1-.3-1.4 19.4 19.4 0 0 1-.5 1.4l-2 5.9h-1.2l-2.8-9.1Zm14.4 9v-13.2h1.5v5.3a3.7 3.7 0 0 1 2.9-1.3c.8 0 1.5.3 2 .8.6.5.8 1.4.8 2.6v5.9H194v-5.9c0-.7-.2-1.2-.5-1.6-.4-.3-.8-.4-1.4-.4-.5 0-1 .1-1.4.4-.4.3-.7.6-.9 1v6.5h-1.5Zm9.2-4.3v-.3a5 5 0 0 1 1-3.4 3.7 3.7 0 0 1 3-1.2c1.2 0 2.2.3 2.8 1.2a5 5 0 0 1 1 3.2v.7h-6.9v-1.3h5.3v-.2a2.6 2.6 0 0 0-.5-1.7 2 2 0 0 0-1.6-.7 2.1 2.1 0 0 0-2 1 4.3 4.3 0 0 0-.6 2.4v.3c0 1 .3 1.7.7 2.3.4.7 1.1 1 2 1a2.8 2.8 0 0 0 1.5-.4c.5-.2.8-.5 1-.9l1 .9a4.2 4.2 0 0 1-3.4 1.7c-1.4 0-2.5-.4-3.2-1.3a5 5 0 0 1-1.2-3.3Zm9.8 4.4v-9.1h1.4v1.2h.1a3.5 3.5 0 0 1 2.8-1.4 3 3 0 0 1 2.2.8c.5.5.8 1.4.8 2.6v5.9h-1.6v-5.9c0-.7-.2-1.2-.5-1.6-.3-.3-.8-.4-1.4-.4-.5 0-1 .1-1.3.4l-1 1v6.5h-1.5Zm13.1 3.6V303a3.7 3.7 0 0 0 1 .2c.5 0 .8-.2 1.1-.5.3-.3.6-1 1-2l-3.4-9h1.5l2.2 6a15.2 15.2 0 0 1 .4 1.2 11.7 11.7 0 0 1 .4-1.2l2-6h1.5l-3.7 10.3a4.7 4.7 0 0 1-1.1 1.9c-.5.4-1 .6-1.7.6a3.9 3.9 0 0 1-1.2-.1Zm8.3-8v-.3c0-1.4.4-2.5 1.1-3.4a4 4 0 0 1 3.1-1.2 4 4 0 0 1 3.1 1.2 4.8 4.8 0 0 1 1.2 3.4v.3c0 1.3-.4 2.5-1.2 3.3a4 4 0 0 1-3 1.3 4 4 0 0 1-3.2-1.3 4.8 4.8 0 0 1-1.1-3.3Zm1.6-.3v.3c0 1 .2 1.7.7 2.4.4.6 1 1 2 1 .8 0 1.5-.4 1.9-1 .4-.7.7-1.5.7-2.4v-.3c0-1-.3-1.7-.7-2.4a2.2 2.2 0 0 0-2-1c-.8 0-1.5.4-2 1a4.1 4.1 0 0 0-.6 2.4Zm8.8 1.5v-5.9h1.6v5.9c0 .7.1 1.2.4 1.5.4.4.8.5 1.4.5.5 0 1-.1 1.4-.4a3 3 0 0 0 .9-1v-6.5h1.6v9h-1.5v-1.1a3.5 3.5 0 0 1-2.8 1.3 3 3 0 0 1-2.2-.7c-.5-.6-.8-1.4-.8-2.6Zm13.5-1.2v-.3a5 5 0 0 1 1.1-3.4 3.8 3.8 0 0 1 3-1.2c1.3 0 2.2.3 2.8 1 .6.6 1 1.3 1 2.1h-1.6c0-.5-.1-1-.5-1.3-.3-.4-.9-.6-1.6-.6-.9 0-1.5.4-2 1a4.3 4.3 0 0 0-.6 2.4v.3c0 1 .2 1.7.7 2.4.4.6 1 1 1.9 1 .7 0 1.3-.3 1.6-.6.4-.4.5-.8.5-1.3h1.6c0 .8-.4 1.5-1 2.2-.6.6-1.5 1-2.7 1a3.8 3.8 0 0 1-3-1.4 5 5 0 0 1-1.2-3.3Zm9.8 4.4v-13.3h1.5v13.3h-1.5Zm3.6-4.4v-.3c0-1.4.4-2.5 1.2-3.4a4 4 0 0 1 3-1.2 4 4 0 0 1 3.1 1.2 4.8 4.8 0 0 1 1.2 3.4v.3c0 1.3-.4 2.5-1.1 3.3a4 4 0 0 1-3.2 1.3 4 4 0 0 1-3-1.3 4.8 4.8 0 0 1-1.2-3.3Zm1.6-.3v.3c0 1 .2 1.7.7 2.4.4.6 1 1 2 1 .8 0 1.5-.4 2-1 .4-.7.6-1.5.6-2.4v-.3c0-1-.2-1.7-.7-2.4a2.2 2.2 0 0 0-2-1c-.8 0-1.5.4-2 1a4.1 4.1 0 0 0-.6 2.4Zm8.3 2h1.6c0 .6.2 1 .6 1.2.4.3.9.4 1.5.4s1.1-.1 1.5-.4c.4-.2.5-.5.5-1s-.1-.7-.4-.9c-.3-.2-1-.4-2-.6a6.5 6.5 0 0 1-2.2-1c-.6-.4-.9-1-.9-1.8s.3-1.3 1-1.8c.6-.5 1.4-.8 2.4-.8a3.9 3.9 0 0 1 2.5.8c.6.5 1 1.1 1 2h-1.6c0-.5-.2-.8-.5-1-.3-.3-.8-.5-1.4-.5-.6 0-1 .2-1.4.4a1 1 0 0 0-.4.9c0 .3.2.6.5.8.3.2 1 .4 2 .6 1 .3 1.7.6 2.2 1 .5.5.8 1 .8 1.9s-.3 1.4-1 2c-.5.5-1.4.7-2.6.7-1.2 0-2.1-.2-2.7-.8a2.6 2.6 0 0 1-1-2v-.1Zm8.7-1.7v-.3a5 5 0 0 1 1.1-3.4 3.7 3.7 0 0 1 3-1.2c1.2 0 2.1.3 2.8 1.2a5 5 0 0 1 1 3.2v.7h-7v-1.3h5.4v-.2c0-.6-.2-1.2-.6-1.7-.3-.4-.8-.7-1.6-.7s-1.5.4-1.9 1a4.3 4.3 0 0 0-.6 2.4v.3c0 1 .2 1.7.7 2.3.4.7 1.1 1 2 1 .6 0 1-.1 1.5-.4.4-.2.8-.5 1-.9l1 .9a4.2 4.2 0 0 1-3.5 1.7c-1.4 0-2.4-.4-3.2-1.3a5 5 0 0 1-1.1-3.3Zm12.8-3.5v-1.2h5.2v1.2h-5.2Zm1.7 5.6v-9h1.5v9c0 .4.1.7.3.9.1.2.4.3.7.3a2.5 2.5 0 0 0 1-.2v1.3a3.6 3.6 0 0 1-1.4.2 2.1 2.1 0 0 1-1.6-.6c-.4-.4-.5-1-.5-1.9Zm5.2 2.3v-13.3h1.5v5.3a3.7 3.7 0 0 1 2.9-1.3c.8 0 1.5.3 2 .8.6.5.8 1.4.8 2.6v5.9H310v-5.9c0-.7-.2-1.2-.5-1.6-.3-.3-.8-.4-1.4-.4-.5 0-1 .1-1.4.4-.3.3-.7.6-.9 1v6.5h-1.5Zm9.2-4.4v-.3a5 5 0 0 1 1-3.3 3.7 3.7 0 0 1 3-1.3c1.3 0 2.2.4 2.9 1.2a5 5 0 0 1 1 3.2v.7h-7v-1.3h5.4v-.2a2.6 2.6 0 0 0-.6-1.7 2 2 0 0 0-1.6-.7 2.1 2.1 0 0 0-1.9 1 4.3 4.3 0 0 0-.6 2.4v.3c0 1 .2 1.7.6 2.4.5.6 1.2 1 2 1a2.8 2.8 0 0 0 1.6-.4l1-1 1 .9a4.3 4.3 0 0 1-1.3 1.2 4 4 0 0 1-2.2.5c-1.4 0-2.5-.4-3.2-1.3a5 5 0 0 1-1.1-3.3ZM178.2 324v-13.3h1.6v5.3a3 3 0 0 1 1-1 3.5 3.5 0 0 1 1.6-.3c1.2 0 2.1.5 2.8 1.3a5.1 5.1 0 0 1 1 3.3v.3c0 1.3-.3 2.4-1 3.2a3.3 3.3 0 0 1-2.8 1.3c-.6 0-1.1-.1-1.6-.4a2.8 2.8 0 0 1-1-1h-.1v1.3h-1.5Zm1.6-2.7c.1.4.4.7.8 1 .4.4 1 .5 1.5.5.9 0 1.5-.3 1.9-1 .4-.5.6-1.3.6-2.2v-.3c0-1-.2-1.7-.6-2.3-.4-.7-1-1-1.9-1a2.3 2.3 0 0 0-1.5.5c-.4.3-.7.7-.8 1v3.8Zm8.4 2.7V315h1.4v1.2h.1l1-1a2.1 2.1 0 0 1 1.7-.4h.3v1.5a3.6 3.6 0 0 0-.8 0 2.2 2.2 0 0 0-2.1 1.4v6.3h-1.6Zm5.3-4.5v-.2c0-1.4.4-2.5 1.1-3.4a4 4 0 0 1 3.1-1.3 4 4 0 0 1 3.1 1.3 4.8 4.8 0 0 1 1.2 3.4v.3c0 1.3-.4 2.4-1.2 3.3a4 4 0 0 1-3 1.3 4 4 0 0 1-3.2-1.3 4.8 4.8 0 0 1-1.1-3.3Zm1.6-.2v.3c0 .9.2 1.7.6 2.3.5.7 1.1 1 2 1 .9 0 1.6-.3 2-1 .4-.6.7-1.4.7-2.3v-.3c0-1-.3-1.7-.7-2.4-.4-.6-1.1-1-2-1-.9 0-1.5.4-2 1a4.1 4.1 0 0 0-.6 2.4Zm7.8-4.4h1.5l1.7 6a14 14 0 0 1 .3 1 6.2 6.2 0 0 1 .3-1l2-6h1.3l2 6a5.6 5.6 0 0 1 .4 1 16.8 16.8 0 0 1 .3-1l1.6-6h1.4l-2.7 9h-1.3l-2-5.8a47.5 47.5 0 0 1-.4-1.4l-.2.7-.2.7-2 5.9h-1.2l-2.8-9.1Zm13.7 6.4h1.6c0 .6.2 1 .6 1.2.4.3.9.4 1.5.4s1.2-.1 1.5-.4c.4-.2.6-.5.6-1a1 1 0 0 0-.5-.9 5.9 5.9 0 0 0-1.9-.7 6.5 6.5 0 0 1-2.3-1 2 2 0 0 1-.8-1.7c0-.7.3-1.3.9-1.8.6-.5 1.4-.8 2.5-.8a3.9 3.9 0 0 1 2.4.8c.7.5 1 1.1 1 2H222c0-.5-.2-.8-.5-1.1-.3-.2-.7-.4-1.4-.4-.6 0-1 .1-1.3.4-.3.2-.5.5-.5.8s.2.7.5.9l2 .6a5.6 5.6 0 0 1 2.2 1c.6.4.8 1 .8 1.9 0 .8-.3 1.4-.9 2-.6.5-1.5.7-2.7.7-1.2 0-2-.2-2.7-.8a2.6 2.6 0 0 1-1-2v-.1Zm8.7-1.7v-.3c0-1.4.4-2.5 1.2-3.4a3.7 3.7 0 0 1 3-1.3c1.1 0 2 .4 2.7 1.3a5 5 0 0 1 1 3.2v.7h-7v-1.3h5.4v-.2c0-.6-.1-1.2-.5-1.7-.4-.4-1-.7-1.6-.7-.9 0-1.5.4-2 1a4.3 4.3 0 0 0-.6 2.4v.3c0 .9.3 1.7.7 2.3.4.7 1.1 1 2 1 .6 0 1.1-.1 1.5-.4.5-.2.8-.5 1-.9l1 .8c-.2.5-.7.9-1.3 1.3a4 4 0 0 1-2.1.5c-1.4 0-2.5-.4-3.2-1.3a5 5 0 0 1-1.2-3.3Zm9.9 4.4V315h1.4v1.2h.1l1-1a2.1 2.1 0 0 1 1.7-.4h.3v1.5a3.5 3.5 0 0 0-.8 0 2.2 2.2 0 0 0-2.2 1.4v6.3h-1.5Z"/><path fill="#E2E2E2" d="M407.3 461H9.6v115.3h397.7V461Z"/><path fill="#F6F6F6" stroke="#D2D2D2" d="M27.2 471h362.4a7.8 7.8 0 0 1 7.8 7.7v26.7a7.8 7.8 0 0 1-7.8 7.8H27.2a7.8 7.8 0 0 1-7.7-7.9v-26.6a7.8 7.8 0 0 1 7.8-7.8Z"/><path stroke="silver" stroke-width="1.5" d="M42.1 495.4a6 6 0 1 0 0-12.2 6 6 0 0 0 0 12.2Z"/><path stroke="silver" stroke-linecap="round" stroke-width="1.5" d="m47.1 494.3 5.6 5.5"/><path fill="#3D3D3D" d="M77.7 501.2v-16.9H79v16.9h-1.4ZM35 548.6v-.8a.8.8 0 0 0-.8 1.2l.8-.4Zm10.5 7.2-.2.8c.3 0 .6 0 .7-.2l-.5-.6Zm-2.3-11.2a.8.8 0 0 0-1.2.2c-.2.4-.1.9.3 1.2l.9-1.4Zm5.7 5.8a.8.8 0 1 0 .9-1.4l-1 1.4Zm-7.8 1a.8.8 0 0 0 0-1.2.8.8 0 0 0-1.2 0l1.2 1.2Zm-2.3 0a.8.8 0 1 0 1.2 1.2l-1.2-1.2Zm6.2 1a.8.8 0 0 0-.1-1.1.8.8 0 0 0-1.2.1l1.3 1Zm-3 1.3c-.2.4-.1.9.2 1.2.4.2 1 .2 1.2-.2l-1.4-1Zm-1.5-8.5c-1.6 1.6-3 2.6-5.5 2.6v1.6c3 0 4.9-1.2 6.6-3l-1.1-1.2Zm-6.3 3.8a16.1 16.1 0 0 0 11.1 7.6l.3-1.6a14.5 14.5 0 0 1-9.9-6.8l-1.4.8Zm11.8 7.4c1-.9 3-3.5 4.4-6.3a10 10 0 0 0 1-4.4 4.7 4.7 0 0 0-2.2-3.9l-.9 1.4a3 3 0 0 1 1.5 2.6 8.3 8.3 0 0 1-1 3.6c-1.1 2.6-3.1 5-4 5.8l1.3 1.2Zm3.2-14.6a4 4 0 0 0-2.6-.7c-.8 0-1.6.4-2.3.8-1.4.9-2.8 2.3-3.8 3.3l1.1 1.2c1.2-1.1 2.3-2.3 3.5-3a3.9 3.9 0 0 1 1.7-.6c.5 0 1 0 1.5.4l1-1.4Zm-14 2.4c0-.2.2-.3.3-.3v-1.7c-1 0-2 .9-2 2h1.8Zm.3-.3c.2 0 .3.1.3.3h1.7c0-1.1-1-2-2-2v1.7Zm.3.3c0 .1-.1.2-.3.2v1.7c1 0 2-.9 2-2h-1.7Zm-.3.2a.3.3 0 0 1-.2-.2h-1.7c0 1 .9 2 2 2v-1.8Zm11.6-2.2.8.3v-.2l.3-.6a759.1 759.1 0 0 1 2.4-5.2l-1.4-.8a143 143 0 0 0-2.5 5.4l-.2.5-.1.2.7.4Zm3.5-5.7c.2-.3.6-.5 1-.3l.4.4c0 .2.1.4 0 .8l1.4.7c.4-.7.4-1.4.2-2a2.4 2.4 0 0 0-1.3-1.4c-1-.5-2.5-.3-3.1 1l1.4.8Zm1.3.9-1.4 3.1-1.3 3 1.4.8 1.5-3.1 1.3-3-1.5-.8Zm-9.6 8.6 6.6 4.4.9-1.4-6.6-4.4-1 1.4Zm-2.4 4.2-1.1 1.2 1.2 1.2 1.1-1.2-1.2-1.2Zm3.8 1.2-1.7 2.3 1.4 1 1.6-2.3-1.3-1Zm-6.2-12.8c0-.1 0-.3.2-.3v-1.6c-1 0-1.9.8-1.9 2h1.7Zm.2-.3c.2 0 .3.2.3.3h1.7c0-1-.9-2-2-2v1.7Zm.3.3c0 .2-.1.3-.3.3v1.7c1.1 0 2-1 2-2H38Zm-.3.3a.3.3 0 0 1-.2-.3h-1.7c0 1 .9 2 2 2v-1.7Z"/><mask id="d" width="2" height="28" x="85" y="531" maskUnits="userSpaceOnUse" style="mask-type:luminance"><path fill="#fff" d="M85.2 532h1.1v26.6h-1V532Z"/></mask><g mask="url(#d)"><path fill="#3D3D3D" d="M85.2 532v26.6h2.2V532h-2.2Z"/></g><path stroke="#3D3D3D" stroke-linecap="round" stroke-linejoin="round" stroke-width="1.5" d="m126.3 537.5-7.4 7.8h15.5m-8.1 7.7-7.4-7.7"/><mask id="e" width="3" height="28" x="166" y="531" maskUnits="userSpaceOnUse" style="mask-type:luminance"><path fill="#fff" d="M167 532h1.1v26.6H167V532Z"/></mask><g mask="url(#e)"><path fill="#3D3D3D" d="M167 532v26.6h2.2V532H167Z"/></g><path stroke="#3D3D3D" stroke-linecap="round" stroke-linejoin="round" stroke-width="1.5" d="m208.8 537.5 7.4 7.8h-15.5m8.1 7.7 7.4-7.7"/><mask id="f" width="2" height="28" x="248" y="531" maskUnits="userSpaceOnUse" style="mask-type:luminance"><path fill="#fff" d="M248.8 532h1v26.6h-1V532Z"/></mask><g mask="url(#f)"><path fill="#3D3D3D" d="M248.8 532v26.6h2.1V532h-2.2Z"/></g><path stroke="#3D3D3D" stroke-linecap="round" stroke-width="1.5" d="M296.8 539.7c-4-5.7-14.9-3.9-15.5 5.6v1.6m2.3 4c4 5.7 14.9 3.8 15.4-5.6v-1.1"/><path stroke="#3D3D3D" stroke-linecap="round" stroke-linejoin="round" stroke-width="1.5" d="m279.1 545.3 2.2 2.2 2.2-2.2m17.7 0L299 543l-2.2 2.2"/><mask id="g" width="2" height="28" x="330" y="531" maskUnits="userSpaceOnUse" style="mask-type:luminance"><path fill="#fff" d="M330.5 532h1.1v26.6h-1.1V532Z"/></mask><g mask="url(#g)"><path fill="#3D3D3D" d="M330.5 532v26.6h2.2V532h-2.2Z"/></g><path stroke="#3D3D3D" stroke-width="1.5" d="M379.7 540.5h-11c-.8 0-1.5.7-1.5 1.4V553c0 .8.7 1.4 1.4 1.4h11c.8 0 1.4-.6 1.4-1.4v-11c0-.8-.6-1.5-1.3-1.5Z"/><path stroke="#3D3D3D" stroke-width="1.5" d="M378.6 538.3c0-1-1-2-2-2h-11.3c-1.2 0-2.2 1-2.2 2.3V550c0 1 .9 2 2 2"/><path fill="#3D3D3D" d="M373.8 550.8v-5.1l-1.6.6v-1l2.3-.9h.5v6.4h-1.2Z"/></g><rect width="626.4" height="898.8" x="-56.2" y="2.4" fill="url(#h)" fill-opacity=".3" rx="41" style="mix-blend-mode:screen"/></g><path fill="#262C2D" fill-rule="evenodd" d="M206.4 44.2a10.8 10.8 0 0 0 0-21.5 10.8 10.8 0 0 0-10.8 10.7c0 6 4.8 10.8 10.8 10.8Z" clip-rule="evenodd"/><path fill="#121515" fill-rule="evenodd" d="M206.4 40.2a6.7 6.7 0 0 0 6.7-6.8 6.7 6.7 0 1 0-13.4 0c0 3.8 3 6.8 6.7 6.8Z" clip-rule="evenodd"/><path fill="#636F73" fill-rule="evenodd" d="M206.4 32.1a1.4 1.4 0 1 0 0-2.7 1.4 1.4 0 0 0 0 2.7Z" clip-rule="evenodd" opacity=".4"/></g><defs><linearGradient id="h" x1="-50.5" x2="306.5" y1="7.5" y2="544.2" gradientUnits="userSpaceOnUse"><stop stop-color="#fff"/><stop offset=".7" stop-color="#fff" stop-opacity="0"/></linearGradient><clipPath id="a"><path fill="#fff" d="M0 0h416v576H0z"/></clipPath></defs></svg>