<svg xmlns="http://www.w3.org/2000/svg" width="416" height="576" fill="none"><g clip-path="url(#a)"><path fill="#3A4245" d="M0 94C0 52 0 31.1 11.8 17.2a49.4 49.4 0 0 1 5.5-5.5C31.3 0 52.1 0 94 0H323C365 0 386 0 399.7 11.8a49.5 49.5 0 0 1 5.5 5.5c11.9 13.9 11.9 34.8 11.9 76.6v734.4c0 41.8 0 62.7-11.9 76.6a49.5 49.5 0 0 1-5.5 5.5c-13.8 11.8-34.7 11.8-76.6 11.8H94c-41.8 0-62.7 0-76.6-11.8a49.5 49.5 0 0 1-5.5-5.5C0 891 0 870.1 0 828.3V93.9Z"/><path fill="#121515" d="M2.1 86.9c0-35.2 0-52.7 9.5-64.7a44 44 0 0 1 7.3-7.4c12-9.4 29.6-9.4 64.8-9.4h249.7c35.2 0 52.8 0 64.8 9.4a44 44 0 0 1 7.3 7.4c9.4 12 9.4 29.5 9.4 64.7v748.4c0 35.2 0 52.8-9.4 64.8a44 44 0 0 1-7.4 7.3c-12 9.5-29.5 9.5-64.7 9.5H83.7c-35.2 0-52.8 0-64.8-9.5a44 44 0 0 1-7.3-7.3c-9.4-12-9.4-29.6-9.4-64.8V87Z"/><mask id="b" width="399" height="884" x="9" y="16" maskUnits="userSpaceOnUse" style="mask-type:alpha"><path fill="#fff" d="M9.7 53.7a37.6 37.6 0 0 1 37.6-37.6h322.5a37.6 37.6 0 0 1 37.6 37.6V862a37.6 37.6 0 0 1-37.6 37.7H47.3A37.6 37.6 0 0 1 9.7 862V53.7Z"/></mask><g mask="url(#b)"><path fill="#1F1F1F" d="M407.3 15.5H9.6v1940h397.7V15.5Z"/><path fill="silver" fill-rule="evenodd" d="M303.8 24.4a16.4 16.4 0 0 0-10-3.3c-3.7 0-7.1 1.2-9.9 3.3l10 12.1 9.9-12.1Zm2.2 12.1h15.4V21.1L306 36.5Zm32-15.4v1h3.2v14.4h-9.9V22h3.3v-1h3.3Zm17.2 2.2v11h-1.8v-8.8l-2.7 1v-1.6l4.3-1.6h.2Zm11.2 9.6v1.4H359v-1.2l3.7-4 1.1-1.5.3-1.2c0-.5-.1-1-.4-1.3-.3-.3-.7-.4-1.2-.4-.6 0-1 .1-1.4.5-.3.4-.5.9-.5 1.5h-1.8c0-.7.2-1.3.5-1.8.3-.6.7-1 1.3-1.3a4 4 0 0 1 2-.4c1 0 1.8.2 2.4.8.6.5 1 1.3 1 2.2a3.8 3.8 0 0 1-.5 1.7c-.3.6-.8 1.3-1.5 2l-2.7 3h5Zm3.4-5.2c-.2.2-.4.3-.8.3a1 1 0 0 1-.8-.3 1 1 0 0 1-.3-.7c0-.3.1-.5.3-.7.2-.2.5-.3.8-.3.3 0 .6 0 .8.3.2.2.3.4.3.7 0 .3-.1.5-.3.7Zm0 6.4c-.2.2-.4.3-.8.3a1 1 0 0 1-.8-.3 1 1 0 0 1-.3-.7c0-.3.1-.5.3-.7.2-.2.5-.3.8-.3.3 0 .6 0 .8.3.2.2.3.4.3.7s-.1.5-.3.7Zm8.1-.5a4 4 0 0 1-2.7.9 3.9 3.9 0 0 1-2.5-.9c-.7-.5-1-1.3-1-2.2h1.8c0 .5.1.8.5 1.1.3.3.7.5 1.3.5a1.9 1.9 0 0 0 1.3-.5c.3-.3.5-.7.5-1.3 0-.5-.2-1-.5-1.3-.4-.3-.9-.5-1.5-.5H374V28h1.1c.6 0 1-.2 1.3-.5.4-.2.6-.7.6-1.2s-.2-1-.5-1.2c-.2-.3-.7-.5-1.2-.5s-1 .2-1.2.5c-.4.3-.5.6-.5 1h-1.8c0-.5.1-1 .4-1.5a3 3 0 0 1 1.3-1 4 4 0 0 1 1.8-.4c1 0 2 .2 2.5.8a2.9 2.9 0 0 1 .5 3.7 3 3 0 0 1-1.2 1c.6.2 1 .5 1.4 1 .3.4.4 1 .4 1.5a3 3 0 0 1-1 2.4Zm9-.3c-.6.8-1.5 1.2-2.7 1.2-1.2 0-2-.4-2.7-1.2-.6-.8-.9-2-.9-3.5V28c0-1.6.3-2.7.9-3.5.6-.8 1.5-1.2 2.7-1.2 1.2 0 2 .4 2.7 1.1.6.8.9 2 .9 3.5v1.9a6 6 0 0 1-1 3.6Zm-4-1c.2.5.7.7 1.3.7.6 0 1-.2 1.3-.7.3-.5.4-1.2.5-2.2v-2.5c0-1-.2-1.8-.5-2.2-.2-.5-.7-.8-1.3-.8-.6 0-1 .3-1.3.7a4.3 4.3 0 0 0-.5 2.2V30c0 1 .2 1.7.5 2.3Zm-6.5 44a1.7 1.7 0 1 1 0-3.3 1.7 1.7 0 0 1 0 3.3Zm0 7.2a1.7 1.7 0 1 1 0-3.3 1.7 1.7 0 0 1 0 3.3Zm0 7.2a1.7 1.7 0 1 1 0-3.4 1.7 1.7 0 0 1 0 3.4Z" clip-rule="evenodd"/><path stroke="#67B279" stroke-linecap="round" stroke-linejoin="round" stroke-width="2" d="M213.8 129.3c8 0 14.5 6.7 14.5 14.8v.7h-15.5v-15.4h1Z" clip-rule="evenodd"/><path stroke="#67B279" stroke-linecap="round" stroke-linejoin="round" stroke-width="1.5" d="M205.7 133.8h.6v15.4c0 1.2.9 2 2 2.2h15.6a17.7 17.7 0 1 1-18.2-17.6Z" clip-rule="evenodd"/><path fill="#E4E4E4" d="M151.8 209.1v-.5h4v.4c0 1 .3 1.6.9 2 .5.5 1.3.8 2.4.8 1 0 1.7-.3 2.3-.7.5-.4.8-1 .8-1.7a2 2 0 0 0-.8-1.6c-.6-.4-1.7-.9-3.4-1.3a11 11 0 0 1-4.5-2.2 4.7 4.7 0 0 1-1.5-3.6c0-1.7.7-3 2-4 1.2-1 2.8-1.5 5-1.5a8 8 0 0 1 5 1.5c1.2 1 1.9 2.3 1.9 4v.5h-4v-.4c0-.7-.3-1.4-.8-1.8-.5-.5-1.2-.8-2.1-.8-1 0-1.7.2-2.2.6-.4.4-.7 1-.7 1.5 0 .7.3 1.1.8 1.5.5.3 1.7.7 3.4 1.2 2 .5 3.4 1.3 4.4 2.2a5 5 0 0 1 1.6 3.9 5 5 0 0 1-2 4.2c-1.3 1-3 1.5-5.2 1.5a9 9 0 0 1-5.3-1.5 4.8 4.8 0 0 1-2-4.2Zm15.3-5v-3h8.5v3H167Zm2 6.3V197.8h4V210c0 .7 0 1.1.3 1.4.2.2.5.3 1 .3a2.9 2.9 0 0 0 1.1-.2v2.8l-.9.2a7 7 0 0 1-1.3.2c-1.3 0-2.3-.4-3-1-.8-.8-1.2-1.9-1.2-3.4Zm7.9.1c0-1.4.5-2.5 1.7-3.3a7.6 7.6 0 0 1 4.3-1.1h2.7v-.8c0-.6-.2-1-.5-1.4-.3-.4-.8-.5-1.5-.5-.8 0-1.3.1-1.6.4-.4.3-.5.7-.5 1.1v.3h-3.9v-.3c0-1.2.6-2.2 1.7-3a7.7 7.7 0 0 1 4.5-1.1 7 7 0 0 1 4.2 1.1c1 .7 1.6 1.9 1.6 3.5v6l.1 1.6.4 1.2v.2h-3.9l-.3-.8a7.5 7.5 0 0 1-.1-1c-.3.6-.8 1-1.6 1.4-.7.4-1.6.6-2.7.6a5.1 5.1 0 0 1-3.3-1c-.9-.7-1.3-1.7-1.3-3Zm4-.3c0 .6.1 1 .5 1.4.3.3.8.5 1.5.5.8 0 1.4-.3 2-.8.4-.5.7-1 .7-1.7v-1.2h-2c-1 0-1.6.1-2 .4-.5.3-.7.8-.7 1.4Zm10.3-6.2v-2.8h8.5v2.8h-8.5Zm2 6.4V197.8h4V210c0 .7 0 1.1.3 1.4.2.2.5.3 1 .3a2.9 2.9 0 0 0 1.2-.2v2.8l-1 .2a7 7 0 0 1-1.3.2c-1.3 0-2.3-.4-3-1-.8-.8-1.2-1.9-1.2-3.4Zm8.6 4v-13.2h4v13.2h-4Zm-.3-17.1c0-.6.2-1.1.6-1.5.4-.4 1-.6 1.7-.6s1.3.2 1.7.6c.4.4.6.9.6 1.5s-.2 1-.6 1.5c-.4.4-1 .6-1.7.6s-1.3-.2-1.7-.6a2.1 2.1 0 0 1-.6-1.5Zm6.7 12.9h3.8v.2c0 .7.2 1.1.6 1.4.4.2 1 .4 1.7.4s1.2-.1 1.6-.4c.4-.3.5-.6.5-1a1 1 0 0 0-.6-1 13 13 0 0 0-2.7-.8 7.2 7.2 0 0 1-3.5-1.5 3.4 3.4 0 0 1-1-2.6c0-1.3.5-2.3 1.5-3 1-.8 2.4-1.1 4.2-1.1a7 7 0 0 1 4.2 1.1 3.6 3.6 0 0 1 1.6 3.1v.2h-3.8v-.2c0-.5-.1-1-.5-1.2-.3-.3-.8-.4-1.5-.4s-1.2.1-1.5.3a1 1 0 0 0-.4 1c0 .3.2.6.6.8.4.2 1.3.5 2.7.8 1.6.3 2.8.8 3.6 1.4a3.4 3.4 0 0 1 1 2.7 3.8 3.8 0 0 1-1.5 3.2c-1 .8-2.5 1.2-4.5 1.2s-3.4-.4-4.5-1.2a3.8 3.8 0 0 1-1.6-3.2v-.2Zm13-6.2v-2.8h8.6v2.8h-8.5Zm2 6.4v-8l.1-.3v-4.3h4V210c0 .7 0 1.1.3 1.4.2.2.5.3 1 .3a2.9 2.9 0 0 0 1.1-.2v2.8l-.9.2a7 7 0 0 1-1.3.1c-1.3 0-2.3-.3-3.1-1-.8-.7-1.1-1.8-1.1-3.3Zm8.7 4v-13.2h4v13.2h-4Zm-.3-17.1c0-.6.2-1.1.6-1.5.4-.4 1-.6 1.7-.6s1.3.2 1.7.6c.4.4.6.9.6 1.5s-.2 1-.6 1.5c-.4.4-1 .6-1.7.6-.8 0-1.3-.2-1.7-.6a2.1 2.1 0 0 1-.6-1.5Zm6.7 10.7v-.5c0-2 .6-3.7 1.9-5a6.8 6.8 0 0 1 5-1.8c2 0 3.4.5 4.5 1.5a5 5 0 0 1 1.7 3.5v.3h-3.9v-.2c0-.6-.2-1.1-.6-1.5-.4-.4-1-.6-1.7-.6-1 0-1.7.3-2.1 1-.5.6-.7 1.5-.7 2.7v.8c0 1.1.2 2 .7 2.7.4.6 1.1 1 2 1 .9 0 1.5-.2 1.9-.7.3-.4.5-.9.5-1.5v-.1h3.9v.2c0 1.4-.6 2.5-1.6 3.5-1.1 1-2.7 1.5-4.6 1.5-2.1 0-3.8-.6-5-1.9a6.7 6.7 0 0 1-1.9-5Zm14.5 2.2h3.8v.2c0 .7.2 1.1.6 1.4.4.2 1 .4 1.7.4a2.8 2.8 0 0 0 1.6-.4c.4-.3.5-.6.5-1a1 1 0 0 0-.6-1c-.3-.2-1.2-.5-2.6-.8a7.2 7.2 0 0 1-3.5-1.5 3.4 3.4 0 0 1-1.1-2.6c0-1.3.5-2.3 1.5-3 1-.8 2.5-1.1 4.3-1.1a7 7 0 0 1 4.1 1.1 3.6 3.6 0 0 1 1.6 3.1v.2H261v-.2c0-.5-.1-1-.5-1.2-.3-.3-.8-.4-1.5-.4s-1.1.1-1.4.3a1 1 0 0 0-.5 1c0 .3.2.6.6.8.4.2 1.3.5 2.7.8 1.6.3 2.8.8 3.6 1.4a3.4 3.4 0 0 1 1 2.7 3.8 3.8 0 0 1-1.5 3.2c-1 .8-2.5 1.2-4.5 1.2s-3.4-.4-4.5-1.2a3.8 3.8 0 0 1-1.6-3.2v-.2ZM161.8 258l4.7-12.6h1.5l4.7 12.6H171l-3.4-9.5a11.7 11.7 0 0 1-.3-1.1h-.1a7.5 7.5 0 0 1-.3 1.1l-3.5 9.5h-1.6Zm2-3.3.5-1.3h5.9l.5 1.3h-6.9Zm10.3 3.3v-13.2h1.5V258h-1.5Zm4.2 0v-13.2h1.6V258h-1.6Zm7.2-7.8V249h5.1v1.2h-5.1Zm1.6 5.6v-9h1.6v9c0 .4 0 .7.2.9.2.2.4.2.8.2a2.5 2.5 0 0 0 1-.1v1.3a3.6 3.6 0 0 1-1.4.2 2.1 2.1 0 0 1-1.6-.6c-.4-.4-.6-1-.6-1.9Zm5.3 2.2v-9h1.6v9h-1.6Zm-.2-11.7c0-.3 0-.5.2-.7a1 1 0 0 1 .8-.3c.3 0 .5.1.7.3.2.2.3.4.3.7 0 .2-.1.5-.3.6-.2.2-.4.3-.7.3a1 1 0 0 1-.8-.3 1 1 0 0 1-.2-.6Zm4.4 11.7v-9h1.4v1.2h.1c.3-.4.7-.8 1.2-1a3.3 3.3 0 0 1 3 0c.5.2.8.6 1 1.2h.1c.4-.6.8-1 1.3-1.2.4-.2 1-.4 1.6-.4.9 0 1.6.3 2.1.8.6.5.8 1.4.8 2.6v5.8h-1.5v-5.8c0-.7-.2-1.2-.5-1.6-.3-.3-.8-.4-1.3-.4s-1 .1-1.3.4a3 3 0 0 0-1 1v6.5h-1.5v-6c0-.6-.1-1.1-.4-1.5-.4-.3-.8-.4-1.4-.4-.5 0-.9.1-1.3.4l-.9 1v6.4h-1.5Zm14.5-4.3v-.3a4.9 4.9 0 0 1 1.2-3.3 3.7 3.7 0 0 1 3-1.3c1.1 0 2 .4 2.7 1.2a5 5 0 0 1 1 3.2v.7h-7v-1.3h5.4v-.2c0-.6-.1-1.2-.5-1.6-.4-.5-1-.7-1.6-.7-.9 0-1.5.3-2 1a4.2 4.2 0 0 0-.6 2.3v.3c0 .9.3 1.7.7 2.3.5.7 1.1 1 2 1a2.8 2.8 0 0 0 1.5-.4c.5-.2.8-.5 1-.9l1 .8a4.3 4.3 0 0 1-1.3 1.3 4 4 0 0 1-2.1.5c-1.4 0-2.5-.4-3.2-1.3a5 5 0 0 1-1.2-3.3Z"/><path stroke="silver" stroke-linecap="round" stroke-linejoin="round" stroke-width="1.5" d="m235.6 249.6 6.5 6.8 6.7-6.5"/><path fill="#E4E4E4" d="M28.8 339.2v-15.7h5.8c1.8 0 3.2.5 4.2 1.4 1 .8 1.5 2 1.5 3.6s-.5 2.8-1.5 3.7a6 6 0 0 1-4.2 1.4h-2.4v5.6h-3.4Zm3.4-8h2.2c1 0 1.6-.3 2-.8.3-.4.5-1 .5-1.9 0-.7-.2-1.3-.5-1.8-.4-.4-1-.7-2-.7h-2.2v5.1Zm5 8-3.5-7.1 3.5-.3 3.9 7.4h-3.8Zm4.7-5.4v-.3a5.6 5.6 0 0 1 1.6-4.2 5.5 5.5 0 0 1 4-1.6c1.7 0 3 .5 4 1.5a5.6 5.6 0 0 1 1.3 4v1.2h-8.7v-2h5.5v-.2c0-.6-.2-1-.5-1.5-.4-.4-.9-.6-1.6-.6a2 2 0 0 0-1.7.9 4 4 0 0 0-.6 2.3v.7c0 1 .2 1.7.6 2.3.5.6 1.1.9 2 .9.5 0 1-.2 1.5-.5.4-.2.7-.6 1-1l2.4 1.4c-.4.7-1 1.3-1.8 1.8-.9.4-2 .7-3.1.7-1.8 0-3.3-.6-4.3-1.6a5.7 5.7 0 0 1-1.6-4.2Zm12.3 0v-.3c0-1.7.4-3 1.3-4.1a4.3 4.3 0 0 1 3.5-1.6 4 4 0 0 1 2 .5 3 3 0 0 1 1.1 1l.2-1.3h3v15.7h-3.2V338a3 3 0 0 1-1.2 1c-.5.3-1.1.5-2 .5-1.4 0-2.5-.6-3.4-1.6a6.1 6.1 0 0 1-1.3-4Zm3.3.2c0 .9.2 1.6.6 2.2.4.6 1 .8 1.7.8.6 0 1-.1 1.5-.4.4-.3.6-.7.8-1.1v-3.8c-.2-.4-.4-.7-.8-1-.4-.3-1-.4-1.5-.4-.7 0-1.3.2-1.7.8a3.9 3.9 0 0 0-.6 2.2v.6Zm10.4 1v-7h3.3v7c0 .7.1 1.3.4 1.5.3.3.8.5 1.3.5s.9-.2 1.3-.4l.8-1V328h3.3v11.1h-3.1L75 338c-.4.5-.8.9-1.4 1.2a4.5 4.5 0 0 1-2 .4 3.8 3.8 0 0 1-2.7-1c-.7-.8-1-2-1-3.5Zm12.4-1.2v-.3a5.6 5.6 0 0 1 1.6-4.2 5.5 5.5 0 0 1 4-1.6c1.7 0 3 .5 4 1.5a5.6 5.6 0 0 1 1.4 4v1.2h-8.8v-2h5.6v-.2c0-.6-.2-1-.6-1.5-.3-.4-.9-.6-1.5-.6a2 2 0 0 0-1.8.9 4 4 0 0 0-.6 2.3v.7c0 1 .2 1.7.7 2.3.4.6 1 .9 1.9.9.6 0 1-.2 1.5-.5.4-.2.8-.6 1-1l2.4 1.4c-.4.7-1 1.3-1.8 1.8-.9.4-1.9.7-3 .7-2 0-3.3-.6-4.4-1.6a5.7 5.7 0 0 1-1.6-4.2Zm12.3 1.9h3.1v.2c0 .5.2.9.6 1.1.3.3.8.4 1.4.4s1-.1 1.4-.3c.3-.3.4-.6.4-1a.9.9 0 0 0-.5-.8c-.3-.2-1-.4-2.3-.6a6.1 6.1 0 0 1-2.9-1.3 2.9 2.9 0 0 1-1-2.2c0-1 .5-2 1.4-2.5a6 6 0 0 1 3.5-1c1.5 0 2.7.4 3.5 1a3 3 0 0 1 1.4 2.6v.2h-3.2v-.2c0-.4-.1-.8-.4-1-.3-.2-.7-.4-1.3-.4-.6 0-1 .1-1.3.3a.9.9 0 0 0-.3.8c0 .3.1.6.5.8.3.1 1 .4 2.3.6 1.3.3 2.3.7 3 1.2.5.6.9 1.3.9 2.3a3.2 3.2 0 0 1-1.3 2.7c-.9.6-2.1 1-3.8 1-1.6 0-2.9-.4-3.8-1a3.2 3.2 0 0 1-1.3-2.8v-.1Zm11-5.3v-2.3h7v2.3h-7Zm1.6 5.5v-10.6h3.3v10.4c0 .6 0 1 .2 1.1.2.2.5.3.9.3a2.3 2.3 0 0 0 1-.2v2.3a3.1 3.1 0 0 1-.8.3h-1c-1.1 0-2-.2-2.6-.8-.7-.6-1-1.5-1-2.8Zm6.5-.2h3.1v.2c0 .5.2.9.6 1.1.3.3.8.4 1.4.4s1-.1 1.4-.3c.3-.3.4-.6.4-1a.9.9 0 0 0-.5-.8c-.3-.2-1-.4-2.3-.6a6.1 6.1 0 0 1-2.9-1.3 2.9 2.9 0 0 1-.9-2.2c0-1 .4-2 1.3-2.5a6 6 0 0 1 3.5-1c1.5 0 2.7.4 3.6 1a3 3 0 0 1 1.3 2.6v.2h-3.2v-.2c0-.4-.1-.8-.4-1-.3-.2-.7-.4-1.3-.4-.6 0-1 .1-1.2.3a.9.9 0 0 0-.4.8c0 .3.2.6.5.8.3.1 1 .4 2.3.6 1.3.3 2.3.7 3 1.2.6.6.9 1.3.9 2.3a3.2 3.2 0 0 1-1.3 2.7c-.9.6-2.1 1-3.8 1-1.6 0-2.9-.4-3.8-1a3.2 3.2 0 0 1-1.3-2.8v-.1Z"/><path fill="#F67247" d="M58 396.7v-2.5l6.5-7.2 1.6-2.2c.4-.6.6-1.3.6-2s-.2-1.2-.5-1.6c-.4-.5-1-.7-1.7-.7s-1.3.3-1.7.8c-.5.5-.7 1.2-.7 2.3v.4h-4.2v-.6c0-1.7.6-3.2 1.8-4.2a6.8 6.8 0 0 1 4.8-1.7c2.1 0 3.7.5 4.8 1.4a4.8 4.8 0 0 1 1.6 3.8c0 1.2-.3 2.3-1 3.3-.5 1-1.3 1.9-2.2 3l-4.1 4.5h7.7v3.2H58Zm15.7-2c0-.7.2-1.2.6-1.7.4-.4 1-.6 1.8-.6s1.4.2 1.8.6c.4.5.6 1 .6 1.7 0 .6-.2 1.2-.6 1.6-.4.4-1 .7-1.8.7s-1.4-.3-1.8-.7a2.3 2.3 0 0 1-.6-1.6Zm9.5 2 6.7-15.5h-9v-3.4H94v2.8l-6.6 16.1h-4.3Zm13.7 0v-18.9h4.1v7.7l6.5-7.7h4.4L101 390.3v6.4h-4Zm11 0-6.3-9 2.6-3 8.6 12H108Zm-35 19.8c0-.9.4-1.5 1-2a4.2 4.2 0 0 1 2.5-.6h1.8v-.5c0-.5-.2-1-.4-1.2-.3-.3-.7-.5-1.3-.5s-1 .2-1.3.4-.4.5-.4.9h-1.4c0-.7.3-1.2.9-1.7.5-.5 1.3-.7 2.2-.7 1 0 1.7.2 2.3.7.5.5.8 1.1.8 2v3.7a5.5 5.5 0 0 0 .2 1.7h-1.3a3.2 3.2 0 0 1-.3-1 3 3 0 0 1-2.5 1.3 3 3 0 0 1-2-.7c-.5-.4-.7-1-.7-1.9Zm1.5-.1c0 .4.1.8.4 1s.6.4 1.2.4c.5 0 1-.2 1.5-.6.4-.3.7-.7.7-1.2V415h-1.7c-.7 0-1.2.1-1.6.4-.4.3-.6.6-.6 1Zm6.9-1.5v-.2c0-1.2.3-2.1.9-2.9a3 3 0 0 1 2.4-1.1c.6 0 1 0 1.4.3l1 .8v-4.6h1.3v11.6h-1.2v-1H87c-.2.3-.5.6-1 .8a3 3 0 0 1-1.4.3 3 3 0 0 1-2.4-1c-.6-.8-1-1.8-1-3Zm1.4 0c0 .8.2 1.5.5 2 .4.6 1 .9 1.7.9.5 0 1-.1 1.3-.4.3-.3.6-.6.7-1v-3.2a2.5 2.5 0 0 0-.7-1 2 2 0 0 0-1.3-.4c-.8 0-1.3.3-1.7.9a3.7 3.7 0 0 0-.5 2v.2Zm7.4 1.6h1.4c0 .4.1.8.5 1 .3.2.8.4 1.3.4s1-.1 1.3-.4a1 1 0 0 0 .5-.8 1 1 0 0 0-.4-.8 5 5 0 0 0-1.6-.6 5.7 5.7 0 0 1-2-.9 1.8 1.8 0 0 1-.8-1.5c0-.7.2-1.2.8-1.6a3.4 3.4 0 0 1 2.1-.7c1 0 1.7.2 2.2.7.6.4.9 1 .9 1.7h-1.4c0-.4-.2-.7-.4-1a2 2 0 0 0-1.3-.2c-.5 0-1 0-1.2.3a1 1 0 0 0-.4.7c0 .3.2.6.5.7l1.7.6a5 5 0 0 1 2 .9c.5.4.7.9.7 1.6 0 .7-.3 1.3-.8 1.7-.5.5-1.3.7-2.4.7s-1.8-.2-2.4-.7a2.3 2.3 0 0 1-.8-1.8Z"/><path fill="#D58500" d="m183.8 396.7 6.7-15.5h-9v-3.4h13.3v2.8l-6.7 16.1h-4.3Zm13.6-2c0-.7.2-1.2.6-1.7.4-.4 1-.6 1.8-.6s1.4.2 1.8.6c.5.5.7 1 .7 1.7a2.3 2.3 0 0 1-.7 1.6c-.4.4-1 .7-1.8.7s-1.4-.3-1.8-.7a2.3 2.3 0 0 1-.6-1.6Zm7.1-3.2v-.5h4.1v.4c0 .8.3 1.5.7 2 .5.4 1.1.6 2 .6.8 0 1.4-.2 1.9-.6.4-.5.7-1.2.7-2.2 0-1-.3-1.7-.8-2.2-.5-.4-1.3-.7-2.3-.7h-1.7v-2.8h1.6c.9 0 1.5-.2 2-.6.4-.5.6-1.1.6-2 0-.8-.2-1.4-.5-1.8-.4-.4-1-.6-1.6-.6-.8 0-1.3.2-1.7.6-.4.4-.6 1-.6 1.8v.3h-4v-.3a5 5 0 0 1 1.7-3.9c1.1-1 2.7-1.5 4.7-1.5s3.5.4 4.6 1.4a4.5 4.5 0 0 1 1.6 3.5c0 1-.3 2-.7 2.7a4.2 4.2 0 0 1-2.2 1.7c1 .3 1.9.8 2.5 1.6.6.8 1 1.7 1 3 0 1.7-.6 3-1.9 4.1a7.5 7.5 0 0 1-5 1.5c-2.1 0-3.8-.5-5-1.5a5.2 5.2 0 0 1-1.6-4Zm16.2 5.2v-18.9h4v7.7l6.6-7.7h4.3l-10.8 12.5v6.4h-4.1Zm11 0-6.4-9 2.6-3 8.6 12h-4.9Zm-50.8 15.2v-1h4.5v1H181Zm1.4 5v-8h1.4v8c0 .3 0 .5.2.7l.7.2a3.3 3.3 0 0 0 .8-.2v1.2a3.4 3.4 0 0 1-1.2.2c-.6 0-1-.2-1.4-.5-.3-.4-.5-1-.5-1.7Zm4.6 1.9v-8h1.3v1h.1l.8-.8a1.9 1.9 0 0 1 1.5-.3h.3v1.3a3 3 0 0 0-.7 0c-.5 0-.8 0-1.2.3a2 2 0 0 0-.7.9v5.6H187Zm4.6-2.3c0-.9.3-1.5 1-2a4.2 4.2 0 0 1 2.4-.6h1.8v-.5c0-.5-.2-1-.4-1.2-.2-.3-.7-.5-1.3-.5s-1 .2-1.3.4-.4.5-.4.9H192c0-.7.3-1.2.9-1.7.5-.4 1.3-.7 2.3-.7 1 0 1.7.2 2.2.7.5.5.8 1.1.8 2v3.7a5.5 5.5 0 0 0 .3 1.7H197a3 3 0 0 1-.3-1 3 3 0 0 1-2.5 1.3 3 3 0 0 1-2-.7 2.2 2.2 0 0 1-.7-1.8Zm1.4-.1c0 .4.1.8.4 1 .2.3.6.4 1.2.4.5 0 1-.2 1.5-.5.4-.4.7-.8.7-1.3V415H195c-.7 0-1.2.1-1.6.4-.3.3-.5.6-.5 1Zm6.9-1.5v-.2c0-1.2.3-2.2 1-3a3.4 3.4 0 0 1 2.7-1c1 0 1.8.2 2.4.8.5.5.8 1.2.8 1.9h-1.4c0-.4-.1-.8-.4-1.1-.3-.4-.8-.5-1.4-.5-.8 0-1.4.3-1.7.8a3.8 3.8 0 0 0-.6 2v.3c0 .9.2 1.6.6 2.1.3.6.9.9 1.7.9.6 0 1-.2 1.4-.5.3-.3.4-.7.4-1.2h1.4c0 .7-.3 1.4-.8 2-.6.5-1.4.8-2.4.8a3.4 3.4 0 0 1-2.7-1.1 4.4 4.4 0 0 1-1-3Zm8.5 3.9v-11.6h1.4v7.3l3.4-3.7h1.6l-5 5.3v2.7h-1.4Zm5.2 0-3.1-4.1.8-1 3.9 5h-1.6Zm2-3.9v-.2c0-1.2.3-2.2 1-3a3.3 3.3 0 0 1 2.6-1c1 0 1.9.3 2.5 1 .5.7.8 1.7.8 2.9v.5h-6v-1h4.6v-.3c0-.5-.1-1-.5-1.4-.3-.4-.8-.6-1.4-.6-.7 0-1.3.3-1.6.8a3.7 3.7 0 0 0-.6 2v.3c0 .9.2 1.6.6 2.1.4.6 1 .9 1.8.9.5 0 1-.1 1.3-.4l.9-.7.9.7a3.7 3.7 0 0 1-3.1 1.5c-1.2 0-2.2-.4-2.9-1.1a4.3 4.3 0 0 1-1-3Zm8.7 3.9v-8h1.2v1h.1l.8-.8a1.9 1.9 0 0 1 1.5-.3h.3v1.3a3.1 3.1 0 0 0-.7 0c-.4 0-.8 0-1.1.3-.3.3-.6.6-.7.9v5.6h-1.4Zm4.7-2.3h1.4c0 .4.2.8.5 1 .4.3.8.4 1.4.4s1-.1 1.3-.4a1 1 0 0 0 .5-.8 1 1 0 0 0-.4-.8 5 5 0 0 0-1.7-.6 5.7 5.7 0 0 1-2-.9 1.8 1.8 0 0 1-.8-1.5c0-.7.3-1.2.8-1.6a3.4 3.4 0 0 1 2.2-.7c.9 0 1.6.2 2.2.7.5.4.8 1 .8 1.7h-1.4c0-.4-.1-.7-.4-1a2 2 0 0 0-1.2-.2c-.5 0-1 0-1.2.3a1 1 0 0 0-.4.7c0 .3.2.6.5.7.2.2.8.4 1.7.6a5 5 0 0 1 2 .9c.4.4.7.9.7 1.6 0 .7-.3 1.3-.8 1.7-.6.5-1.4.7-2.4.7s-1.9-.2-2.4-.7a2.3 2.3 0 0 1-.9-1.8Z"/><path fill="#D2D2D2" d="M305.5 396.7v-2.5l6.5-7.3c.7-.7 1.2-1.4 1.6-2 .4-.7.6-1.4.6-2 0-.8-.2-1.3-.6-1.7-.3-.5-.9-.7-1.6-.7-.8 0-1.3.3-1.8.8-.4.5-.6 1.2-.6 2.3v.4h-4.2v-.6c0-1.7.6-3.2 1.8-4.2a6.8 6.8 0 0 1 4.8-1.7c2.1 0 3.7.5 4.8 1.4a4.8 4.8 0 0 1 1.6 3.8c0 1.2-.3 2.3-1 3.3-.6 1-1.3 1.9-2.3 3l-4 4.5h7.7v3.2h-13.3Zm15.6-2c0-.7.2-1.2.6-1.7.5-.4 1-.6 1.9-.6.8 0 1.4.2 1.8.6.4.5.6 1 .6 1.7a2.3 2.3 0 0 1-.6 1.6c-.4.4-1 .7-1.8.7s-1.4-.3-1.8-.7a2.3 2.3 0 0 1-.7-1.6Zm7.2-3.2v-.5h4v.4c0 .8.3 1.5.7 2 .5.4 1.1.6 2 .6.8 0 1.5-.2 2-.6.4-.5.6-1.2.6-2.2 0-1-.3-1.7-.8-2.2-.5-.4-1.3-.7-2.3-.7h-1.7v-2.8h1.7c.8 0 1.4-.2 1.9-.6.4-.5.7-1.1.7-2 0-.8-.2-1.4-.6-1.8-.4-.4-.9-.6-1.6-.6-.7 0-1.3.2-1.7.6-.3.4-.5 1-.5 1.8v.3h-4v-.3a5 5 0 0 1 1.6-3.9c1.2-1 2.7-1.5 4.7-1.5s3.6.4 4.6 1.4a4.5 4.5 0 0 1 1.6 3.5c0 1-.2 2-.7 2.7a4.2 4.2 0 0 1-2.2 1.7c1 .3 1.9.8 2.5 1.6.7.8 1 1.7 1 3 0 1.7-.6 3-1.8 4.1a7.5 7.5 0 0 1-5 1.5c-2.2 0-3.8-.5-5-1.5a5.2 5.2 0 0 1-1.7-4Zm16.1 5.2v-18.9h4.1v7.7l6.5-7.7h4.4l-10.9 12.5v6.4h-4Zm11 0-6.3-9 2.5-3 8.7 12h-5Zm-51.7 22v-7.9h1.3v1c.3-.3.5-.6.9-.8a1.9 1.9 0 0 1 1.5-.3h.2v1.3a3 3 0 0 0-.6 0c-.5 0-.9 0-1.2.3-.3.3-.6.6-.7.9v5.6h-1.4Zm4.7-3.8v-.2c0-1.2.3-2.2 1-3a3.3 3.3 0 0 1 2.6-1c1 0 1.9.3 2.5 1 .5.7.8 1.7.8 2.9v.5h-6v-1h4.6v-.3c0-.5-.1-1-.5-1.4-.3-.4-.8-.6-1.4-.6-.7 0-1.3.2-1.7.8a3.7 3.7 0 0 0-.5 2v.3c0 .9.2 1.6.6 2.1.4.6 1 .9 1.8.9.5 0 1-.1 1.3-.4l.9-.7.9.7a3.7 3.7 0 0 1-3.1 1.5c-1.3 0-2.2-.4-2.9-1.1a4.3 4.3 0 0 1-1-3Zm8.2 0v-.2c0-1.2.3-2.1.9-2.9a3 3 0 0 1 2.4-1.1c.6 0 1 .1 1.5.3.4.3.7.5.9.9v-1h1.3v11h-1.4v-4c-.2.3-.5.5-.9.7-.4.2-.9.3-1.4.3a3 3 0 0 1-2.4-1c-.6-.8-1-1.8-1-3Zm1.4 0c0 .8.2 1.5.5 2 .4.6 1 .9 1.7.9.5 0 1-.1 1.3-.4.3-.3.6-.6.7-1v-3.2l-.7-1a2 2 0 0 0-1.3-.4c-.8 0-1.3.3-1.7.9a3.7 3.7 0 0 0-.5 2v.2Zm7.8 1v-5h1.4v5.1c0 .6.1 1 .4 1.4.3.2.7.4 1.2.4a2 2 0 0 0 1.2-.4c.4-.2.6-.6.8-1v-5.6h1.4v8H331v-1h-.1a3 3 0 0 1-2.5 1.1c-.8 0-1.4-.2-1.9-.6-.5-.5-.7-1.3-.7-2.3Zm8.2-1v-.2c0-1.2.3-2.2 1-3a3.3 3.3 0 0 1 2.6-1c1 0 2 .3 2.5 1 .6.7.9 1.7.9 2.9v.5h-6.1v-1h4.7v-.3c0-.5-.2-1-.5-1.4-.4-.4-.8-.6-1.4-.6-.8 0-1.3.2-1.7.8a3.7 3.7 0 0 0-.6 2v.3c0 .9.2 1.6.6 2.1.4.6 1 .9 1.8.9.5 0 1-.1 1.3-.4l1-.7.8.7a3.7 3.7 0 0 1-3 1.5c-1.3 0-2.3-.4-3-1.1a4.3 4.3 0 0 1-.9-3Zm8.2 1.6h1.4c0 .4.2.8.5 1 .3.2.8.4 1.3.4s1-.1 1.3-.4a1 1 0 0 0 .5-.8 1 1 0 0 0-.4-.8c-.2-.2-.8-.4-1.6-.6a5.7 5.7 0 0 1-2-.9c-.6-.3-.8-.8-.8-1.5s.2-1.2.8-1.6a3.4 3.4 0 0 1 2.2-.7c.9 0 1.6.2 2.2.7.5.4.8 1 .8 1.7H347c0-.4-.2-.7-.4-1l-1.2-.2c-.6 0-1 0-1.3.3a1 1 0 0 0-.3.7c0 .3.1.6.4.7l1.7.6a5 5 0 0 1 2 .9c.5.4.7.9.7 1.6 0 .7-.3 1.3-.8 1.7-.5.5-1.3.7-2.4.7s-1.8-.2-2.4-.7a2.3 2.3 0 0 1-.8-1.8Zm7-4.6v-1h4.5v1h-4.5Zm1.4 5v-8h1.4v8l.2.7.7.2a3.3 3.3 0 0 0 .8-.2v1.2a3.3 3.3 0 0 1-1.2.2c-.6 0-1-.2-1.4-.5-.3-.4-.5-1-.5-1.7Zm4.1-.4h1.4c0 .4.2.8.5 1 .4.2.8.4 1.4.4.5 0 1-.1 1.3-.4a1 1 0 0 0 .5-.8 1 1 0 0 0-.4-.8 5 5 0 0 0-1.7-.6 5.7 5.7 0 0 1-2-.9 1.8 1.8 0 0 1-.8-1.5c0-.7.3-1.2.8-1.6a3.4 3.4 0 0 1 2.2-.7c.9 0 1.6.2 2.2.7.5.4.8 1 .8 1.7h-1.4c0-.4-.1-.7-.4-1a2 2 0 0 0-1.2-.2c-.6 0-1 0-1.2.3a1 1 0 0 0-.4.7c0 .3.1.6.4.7l1.8.6a5 5 0 0 1 2 .9c.4.4.6.9.6 1.6 0 .7-.2 1.3-.8 1.7-.5.5-1.3.7-2.3.7-1 0-1.9-.2-2.5-.7a2.3 2.3 0 0 1-.8-1.8Z"/><path fill="#E9653A" d="M137.7 449.7h-106a4.4 4.4 0 1 0 0 8.9h106a4.4 4.4 0 0 0 0-8.9Z"/><path fill="#D58500" d="M261.4 449.7h-106a4.4 4.4 0 0 0 0 8.9h106a4.4 4.4 0 0 0 0-8.9Z"/><path fill="silver" d="M385.2 449.7h-106a4.4 4.4 0 1 0 0 8.9h106a4.4 4.4 0 0 0 0-8.9Z"/><path fill="#1F1F1F" d="M407.3 467.4H9.6v63h397.7v-63Z"/><path stroke="#67B279" stroke-linecap="round" stroke-linejoin="round" stroke-width="1.5" d="M31.7 491.7h17.6m-17.6 4.4h13.2m-13.2 4.4h17.6M31.7 505h8.8"/><path fill="#E4E4E4" d="M68.5 505v-12.6h4c1.3 0 2.4.3 3.1 1a3.5 3.5 0 0 1 1 2.7c0 1-.3 2-1 2.7-.7.7-1.8 1-3 1H70v5.2h-1.6Zm1.6-6.5h2.4c1 0 1.6-.2 2-.7.4-.5.6-1 .6-1.7s-.2-1.3-.6-1.7c-.4-.5-1-.7-2-.7h-2.4v4.8Zm5.4 6.5-3-5.8 1.6-.3 3.3 6h-1.9Zm3-4.4v-.3a4.9 4.9 0 0 1 1-3.3 3.7 3.7 0 0 1 3-1.3c1.2 0 2.2.4 2.8 1.2a5 5 0 0 1 1 3.3v.6h-7v-1.3h5.4v-.2c0-.6-.2-1.2-.5-1.6-.4-.5-1-.7-1.6-.7-.9 0-1.5.3-2 1a4.3 4.3 0 0 0-.6 2.3v.3c0 1 .2 1.7.7 2.4.4.6 1.1 1 2 1a2.8 2.8 0 0 0 1.5-.5c.4-.2.8-.5 1-.9l1 .8a4.3 4.3 0 0 1-1.3 1.3 4 4 0 0 1-2.2.5c-1.4 0-2.4-.4-3.2-1.3a5 5 0 0 1-1-3.3Zm9.2 0v-.3c0-1.4.4-2.5 1.1-3.3a3.8 3.8 0 0 1 3-1.3c1.3 0 2.2.3 2.8 1a3 3 0 0 1 1 2.1H94c0-.5-.2-.9-.5-1.3-.3-.3-.9-.5-1.6-.5-.9 0-1.5.3-2 1a4.3 4.3 0 0 0-.6 2.3v.3c0 1 .2 1.7.6 2.4.5.6 1.1 1 2 1 .7 0 1.3-.3 1.6-.6.3-.4.5-.8.5-1.3h1.5a3 3 0 0 1-.9 2.1c-.6.7-1.5 1-2.7 1a3.8 3.8 0 0 1-3-1.3 5 5 0 0 1-1.2-3.3Zm9.2 0v-.3a4.9 4.9 0 0 1 1-3.3 3.7 3.7 0 0 1 3-1.3c1.3 0 2.2.4 2.9 1.2a5 5 0 0 1 1 3.3v.6h-7v-1.3h5.4v-.2c0-.6-.2-1.2-.6-1.6-.4-.5-.9-.7-1.6-.7-.9 0-1.5.3-2 1a4.3 4.3 0 0 0-.5 2.3v.3c0 1 .2 1.7.6 2.4.5.6 1.2 1 2 1a2.8 2.8 0 0 0 1.6-.5c.4-.2.7-.5 1-.9l1 .8a4.3 4.3 0 0 1-1.3 1.3 4 4 0 0 1-2.2.5c-1.4 0-2.5-.4-3.2-1.3a5 5 0 0 1-1.1-3.3Zm9.8 4.4v-9h1.4v1.1h.1a3.5 3.5 0 0 1 2.8-1.3c1 0 1.6.2 2.2.7.5.6.8 1.4.8 2.6v5.9h-1.6V499c0-.7-.1-1.2-.5-1.5-.3-.4-.8-.5-1.4-.5-.5 0-1 .1-1.3.4l-1 1v6.5h-1.5Zm8.5-7.9V496h5.1v1.2h-5.1Zm1.6 5.6v-9h1.6v9c0 .4 0 .7.2.9.2.2.4.2.8.2a2.4 2.4 0 0 0 1-.1v1.3a3.7 3.7 0 0 1-1.5.2 2.1 2.1 0 0 1-1.5-.6c-.4-.4-.6-1-.6-1.9Zm9-.4c0-.9.3-1.6 1-2.1a4.7 4.7 0 0 1 2.8-.8h2v-.6c0-.6 0-1-.4-1.4-.2-.3-.7-.5-1.4-.5s-1.2.2-1.5.5c-.3.3-.4.6-.4 1h-1.6c0-.8.3-1.4 1-2a3.9 3.9 0 0 1 2.5-.7 3.7 3.7 0 0 1 2.5.8c.6.5 1 1.2 1 2.3v5.1c0 .4.2.7.3 1H132a3.6 3.6 0 0 1-.3-1.2c-.2.4-.6.7-1 1-.5.3-1.1.4-1.9.4-.8 0-1.6-.2-2.2-.7-.5-.5-.8-1.2-.8-2Zm1.5 0c0 .4.2.8.5 1.1.3.3.7.5 1.4.5.6 0 1.2-.2 1.7-.7.5-.4.8-.9.8-1.4v-1.3h-2c-.7 0-1.3.2-1.7.5-.5.3-.7.7-.7 1.2Zm7.9-1.7v-.3a5 5 0 0 1 1-3.3 3.8 3.8 0 0 1 3.1-1.3c1.2 0 2.1.3 2.8 1a3 3 0 0 1 .9 2.1h-1.5c0-.5-.2-.9-.5-1.3-.4-.3-1-.5-1.7-.5-.8 0-1.5.3-1.9 1a4.3 4.3 0 0 0-.6 2.3v.3c0 1 .2 1.7.6 2.4.4.6 1 1 2 1 .7 0 1.2-.3 1.6-.6.3-.4.5-.8.5-1.3h1.5a3 3 0 0 1-1 2.1c-.6.7-1.5 1-2.7 1a3.8 3.8 0 0 1-3-1.3 5 5 0 0 1-1.1-3.3Zm8.4-3.5V496h5.1v1.2h-5.1Zm1.6 5.6v-9h1.6v9c0 .4 0 .7.2.9.2.2.4.2.8.2a2.5 2.5 0 0 0 1-.1v1.3a3.7 3.7 0 0 1-1.4.2 2.1 2.1 0 0 1-1.6-.6c-.4-.4-.6-1-.6-1.9Zm5.3 2.3v-9h1.6v9h-1.6Zm-.2-11.8c0-.3 0-.5.2-.7a1 1 0 0 1 .8-.3c.3 0 .5.1.7.3.2.2.3.4.3.7 0 .2-.1.5-.3.7l-.7.2a1 1 0 0 1-.8-.3 1 1 0 0 1-.2-.6Zm3.1 2.7h1.5l2.2 6a7.7 7.7 0 0 1 .4 1.2 9.4 9.4 0 0 1 .3-1.1l2.2-6h1.5l-3.4 9h-1.2l-3.5-9Zm9.4 9v-9h1.6v9h-1.6Zm-.2-11.7c0-.3.1-.5.3-.7a1 1 0 0 1 .7-.3c.3 0 .6.1.7.3.2.2.3.4.3.7 0 .2 0 .5-.3.7l-.7.2a1 1 0 0 1-.7-.3 1 1 0 0 1-.3-.6Zm3.2 4v-1.3h5v1.2h-5Zm1.6 5.5v-9h1.5v9c0 .4.1.7.3.9.2.2.4.2.8.2a2.5 2.5 0 0 0 .9-.1v1.3a3.7 3.7 0 0 1-1.4.2 2.1 2.1 0 0 1-1.5-.6c-.4-.4-.6-1-.6-1.9Zm4.3 5.8v-1.3a3.5 3.5 0 0 0 1 .2c.5 0 .8-.2 1.1-.5.3-.3.6-1 1-2l-3.4-9h1.5l2.2 6a16.2 16.2 0 0 1 .4 1.2 12.8 12.8 0 0 1 .4-1.2l2-6h1.5l-3.7 10.3a4.7 4.7 0 0 1-1.1 1.8c-.5.5-1 .7-1.7.7a2.9 2.9 0 0 1-1.2-.2Z"/><path stroke="silver" stroke-linecap="round" stroke-linejoin="round" stroke-width="1.5" d="m373 505 6.7-6.7-6.7-6.6"/><path fill="#1F1F1F" d="M407.3 530.4H9.6v79.5h397.7v-79.5Z"/><path fill="#E4E4E4" d="M28.8 586.7V571h5.3c2.1 0 3.8.6 5.2 2a7 7 0 0 1 2.1 5.4v1c0 2.3-.7 4-2 5.4a7.3 7.3 0 0 1-5.3 2h-5.3Zm3.4-2.5H34c1.2 0 2.1-.4 2.9-1.2.7-.8 1-2 1-3.5v-1.2c0-1.6-.3-2.8-1-3.6a3.7 3.7 0 0 0-2.9-1.2h-1.9v10.7Zm11-.8c0-1.2.5-2.1 1.4-2.8a6.6 6.6 0 0 1 3.7-1h2.2v-.5c0-.5-.1-1-.4-1.2-.2-.4-.7-.5-1.3-.5-.7 0-1.1.1-1.4.4-.3.2-.4.5-.4 1h-3.2a3 3 0 0 1 1.4-2.6 6.4 6.4 0 0 1 3.7-1 5.9 5.9 0 0 1 3.6 1c.8.6 1.3 1.6 1.3 2.9v5.1l.1 1.3c0 .4.2.8.3 1v.2H51l-.2-.6a6.2 6.2 0 0 1-.2-.8c-.2.4-.6.8-1.2 1.1a5 5 0 0 1-2.3.5 4.3 4.3 0 0 1-2.8-.9c-.7-.5-1-1.4-1-2.6Zm3.3-.2c0 .5.1.8.4 1.1.3.3.7.5 1.3.5.7 0 1.2-.2 1.6-.7.5-.4.7-.9.7-1.4v-1h-1.7c-.8 0-1.4 0-1.8.3a1.3 1.3 0 0 0-.5 1.1Zm8.7-5.3v-2.4h7v2.4h-7Zm1.6 5.5v-10.6h3.3v10.4c0 .5.1.9.3 1.1.2.2.4.3.8.3a2.4 2.4 0 0 0 1-.2v2.3l-.8.2-1 .1a3.7 3.7 0 0 1-2.6-.9c-.6-.5-1-1.5-1-2.7Zm6.6 0c0-1.2.5-2.1 1.4-2.8a6.6 6.6 0 0 1 3.7-1h2.2v-.5c0-.5-.1-1-.4-1.2-.2-.4-.7-.5-1.3-.5-.6 0-1.1.1-1.4.4-.2.2-.4.5-.4 1H64a3 3 0 0 1 1.4-2.6 6.4 6.4 0 0 1 3.7-1 5.9 5.9 0 0 1 3.6 1c.9.6 1.3 1.6 1.3 2.9v5.1l.1 1.3c.1.4.2.8.4 1v.2h-3.3l-.2-.6a6.2 6.2 0 0 1-.1-.8 3 3 0 0 1-1.3 1.1 5 5 0 0 1-2.3.5 4.3 4.3 0 0 1-2.8-.9c-.7-.5-1-1.4-1-2.6Zm3.3-.2c0 .5.1.8.4 1.1.3.3.8.5 1.3.5.7 0 1.2-.2 1.7-.7.4-.4.6-.9.6-1.4v-1H69c-.8 0-1.4 0-1.7.3a1.3 1.3 0 0 0-.6 1.2Zm15.3-.8v-6.9h3.3v7c0 .7.1 1.2.4 1.5.3.3.7.5 1.3.5.4 0 .9-.2 1.2-.5.4-.2.7-.6.9-1v-7.5h3.2v11.2h-3l-.1-1.3c-.4.5-.9.9-1.5 1.1a4.5 4.5 0 0 1-1.9.4 3.8 3.8 0 0 1-2.8-1c-.7-.7-1-1.8-1-3.5Zm12.4.8h3.1v.2c0 .5.2.9.5 1.1.4.2.9.4 1.5.4s1-.1 1.3-.4c.4-.2.5-.5.5-.9a.9.9 0 0 0-.5-.8 10 10 0 0 0-2.3-.7 6.1 6.1 0 0 1-2.9-1.2 2.9 2.9 0 0 1-1-2.2c0-1.1.5-2 1.4-2.6a6 6 0 0 1 3.5-.9c1.5 0 2.6.3 3.5 1a3 3 0 0 1 1.4 2.6v.2h-3.2v-.2c0-.5-.2-.8-.4-1s-.7-.4-1.3-.4c-.6 0-1 .1-1.3.3a.9.9 0 0 0-.3.8c0 .3.1.5.5.7.3.2 1 .4 2.3.7 1.3.2 2.3.7 3 1.2.5.5.8 1.3.8 2.3a3.2 3.2 0 0 1-1.3 2.7c-.8.6-2 1-3.7 1-1.6 0-2.9-.4-3.8-1a3.2 3.2 0 0 1-1.3-2.8v-.1Zm11.7.2c0-1.2.5-2.1 1.4-2.8a6.6 6.6 0 0 1 3.6-1h2.3v-.5c0-.5-.1-1-.4-1.2-.3-.4-.7-.5-1.3-.5-.7 0-1.1.1-1.4.4-.3.2-.4.5-.4 1h-3.2a3 3 0 0 1 1.4-2.6 6.4 6.4 0 0 1 3.7-1 5.9 5.9 0 0 1 3.6 1c.8.6 1.3 1.6 1.3 2.9V585.5l.4 1v.2H114l-.2-.6a6.4 6.4 0 0 1-.2-.8 3 3 0 0 1-1.2 1.1 5 5 0 0 1-2.4.5 4.3 4.3 0 0 1-2.7-.9c-.7-.5-1.1-1.4-1.1-2.6Zm3.3-.2c0 .5 0 .8.4 1.1.3.3.7.5 1.3.5.7 0 1.2-.2 1.6-.7.5-.4.7-.9.7-1.4v-1h-1.7c-.8 0-1.4 0-1.8.3a1.3 1.3 0 0 0-.6 1.2Zm10 6.7 1.3-2c.3.3.7.5 1.3.7a5 5 0 0 0 2 .4c.8 0 1.4-.2 2-.7.4-.5.7-1.2.7-2.2v-.6c-.3.5-.7.8-1.3 1-.5.3-1.1.4-1.9.4a4.3 4.3 0 0 1-3.4-1.5 6 6 0 0 1-1.3-4.1v-.3c0-1.7.4-3.1 1.3-4.1a4.3 4.3 0 0 1 3.4-1.6c.7 0 1.4.2 2 .5.5.2 1 .6 1.2 1l.1-1.3h3.1V586c0 1.8-.5 3.2-1.6 4.1a5.9 5.9 0 0 1-4 1.4c-1 0-2-.1-2.8-.4a7 7 0 0 1-2-1Zm2.7-8.5c0 1 .2 1.7.6 2.3.4.5 1 .8 1.8.8.5 0 1-.2 1.4-.5l.8-1v-3.7a2.5 2.5 0 0 0-.9-1.1c-.3-.3-.8-.4-1.3-.4-.8 0-1.4.2-1.8.8-.4.6-.6 1.3-.6 2.2v.6Zm9.9-.1v-.4c0-1.7.5-3 1.6-4.1a5.5 5.5 0 0 1 4-1.6c1.7 0 3 .5 4 1.5a5.6 5.6 0 0 1 1.3 4v1.2h-8.7v-2h5.5v-.2c0-.6-.2-1.1-.5-1.5-.4-.4-.9-.6-1.6-.6a2 2 0 0 0-1.7.8 4 4 0 0 0-.6 2.3v.7c0 1 .2 1.8.6 2.4.5.6 1 .8 2 .8.5 0 1-.1 1.5-.4l1-1 2.4 1.4c-.4.7-1 1.3-1.9 1.8-.8.4-1.8.6-3 .6-1.9 0-3.3-.5-4.3-1.5a5.7 5.7 0 0 1-1.6-4.2Z"/><path fill="silver" d="m302.6 584.5 4.2-11h1.3l4.1 11h-1.4l-3-8.3a7.1 7.1 0 0 1-.4-1 6.7 6.7 0 0 1-.3 1l-3 8.3h-1.5Zm1.8-2.9.4-1.2h5.2l.4 1.2h-6Zm9 3v-11.7h1.4v11.6h-1.4Zm3.8 0v-11.7h1.4v11.6h-1.4Zm7-4v-.2c0-1.2.3-2.1.9-2.9a3 3 0 0 1 2.4-1c.6 0 1 0 1.4.2l1 .8v-4.6h1.4v11.6H330v-1h-.1c-.2.3-.5.6-1 .8-.3.2-.8.4-1.4.4a3 3 0 0 1-2.4-1.2c-.6-.7-.9-1.7-.9-2.9Zm1.4 0c0 .8.2 1.5.5 2 .4.6 1 1 1.7 1 .5 0 1-.2 1.3-.5l.8-1V579a2.5 2.5 0 0 0-.8-1 2 2 0 0 0-1.3-.3c-.7 0-1.3.2-1.7.8a3.7 3.7 0 0 0-.5 2v.2Zm7.5 1.6c0-.8.3-1.5 1-2a4.2 4.2 0 0 1 2.4-.6h1.8v-.5c0-.5-.2-.9-.4-1.2-.3-.3-.7-.4-1.3-.4s-1 0-1.3.3-.4.6-.4.9h-1.4c0-.6.3-1.2.9-1.7.5-.4 1.3-.7 2.3-.7 1 0 1.6.3 2.2.7.5.5.8 1.2.8 2v4.7l.3.7v.1h-1.4a3 3 0 0 1-.3-1l-1 .8a3 3 0 0 1-1.5.4 3 3 0 0 1-2-.7 2.3 2.3 0 0 1-.7-1.8Zm1.4-.1c0 .4.1.8.4 1 .2.3.6.4 1.2.4.5 0 1-.2 1.5-.5.4-.4.7-.8.7-1.3v-1h-1.7c-.7 0-1.2 0-1.6.3-.4.3-.5.6-.5 1Zm6.2-4.5v-1h4.6v1h-4.6Zm1.5 5v-8h1.4v8c0 .3 0 .5.2.7l.6.2h.5l.4-.1v1.1a3.3 3.3 0 0 1-1.2.2c-.6 0-1-.2-1.4-.5-.4-.4-.5-.9-.5-1.7Zm4.1-.4c0-.8.3-1.5 1-2a4.2 4.2 0 0 1 2.4-.6h1.8v-.5c0-.5-.1-.9-.4-1.2-.2-.3-.6-.5-1.2-.5s-1 .2-1.3.4-.4.6-.4.9h-1.4c0-.6.3-1.2.8-1.7.6-.4 1.4-.7 2.3-.7 1 0 1.7.3 2.2.7.6.5.8 1.2.8 2v3.7l.1 1 .2.7v.1H352a2.5 2.5 0 0 1-.3-1l-1 .8a3 3 0 0 1-1.6.4 3 3 0 0 1-1.9-.7c-.5-.4-.8-1-.8-1.8Zm1.4-.1c0 .4.2.8.4 1 .3.3.7.4 1.2.4.6 0 1.1-.2 1.5-.5.5-.4.7-.8.7-1.3v-1H350c-.7 0-1.3 0-1.6.3-.4.3-.6.6-.6 1Z"/><path stroke="silver" stroke-linecap="round" stroke-linejoin="round" stroke-width="1.5" d="m369.8 576.7 6.5 6.7 6.7-6.5"/><rect width="521" height="749" x="-52" y="2" fill="url(#c)" fill-opacity=".3" rx="41" style="mix-blend-mode:screen"/></g><path fill="#262C2D" fill-rule="evenodd" d="M206.4 44a10.8 10.8 0 1 0 0-21.4 10.8 10.8 0 0 0 0 21.5Z" clip-rule="evenodd"/><path fill="#121515" fill-rule="evenodd" d="M206.4 40a6.7 6.7 0 1 0 0-13.4 6.7 6.7 0 0 0 0 13.4Z" clip-rule="evenodd"/><path fill="#636F73" fill-rule="evenodd" d="M206.4 32a1.3 1.3 0 1 0 0-2.7 1.3 1.3 0 0 0 0 2.7Z" clip-rule="evenodd" opacity=".4"/></g><defs><linearGradient id="c" x1="-47.2" x2="250.4" y1="6.2" y2="453" gradientUnits="userSpaceOnUse"><stop stop-color="#fff"/><stop offset=".7" stop-color="#fff" stop-opacity="0"/></linearGradient><clipPath id="a"><path fill="#fff" d="M0 0h416v576H0z"/></clipPath></defs></svg>