<svg xmlns="http://www.w3.org/2000/svg" width="416" height="576" fill="none"><g clip-path="url(#a)"><path fill="#3A4245" d="M0 94C0 52 0 31.1 11.8 17.2a49.4 49.4 0 0 1 5.5-5.5C31.3 0 52.1 0 94 0H323C365 0 386 0 399.7 11.8a49.5 49.5 0 0 1 5.5 5.5c11.9 13.9 11.9 34.8 11.9 76.6v734.4c0 41.8 0 62.7-11.9 76.6a49.5 49.5 0 0 1-5.5 5.5c-13.8 11.8-34.7 11.8-76.6 11.8H94c-41.8 0-62.7 0-76.6-11.8a49.5 49.5 0 0 1-5.5-5.5C0 891 0 870.1 0 828.3V93.9Z"/><path fill="#121515" d="M2.1 86.9c0-35.2 0-52.7 9.5-64.7a44 44 0 0 1 7.3-7.4c12-9.4 29.6-9.4 64.8-9.4h249.7c35.2 0 52.8 0 64.8 9.4a44 44 0 0 1 7.3 7.4c9.4 12 9.4 29.5 9.4 64.7v748.4c0 35.2 0 52.8-9.4 64.8a44 44 0 0 1-7.4 7.3c-12 9.5-29.5 9.5-64.7 9.5H83.7c-35.2 0-52.8 0-64.8-9.5a44 44 0 0 1-7.3-7.3c-9.4-12-9.4-29.6-9.4-64.8V87Z"/><mask id="b" width="399" height="884" x="9" y="16" maskUnits="userSpaceOnUse" style="mask-type:alpha"><path fill="#fff" d="M9.7 53.7a37.6 37.6 0 0 1 37.6-37.6h322.5a37.6 37.6 0 0 1 37.6 37.6V862a37.6 37.6 0 0 1-37.6 37.7H47.3A37.6 37.6 0 0 1 9.7 862V53.7Z"/></mask><g mask="url(#b)"><rect width="397.7" height="729.5" x="9.6" y="15.5" fill="#fff" rx="3"/><path stroke="#67B279" stroke-linecap="round" d="M327 139.9h31.6v31.5m0 236.6v31.6H327M90.2 139.9H58.6v31.5m0 236.6v31.6H90"/></g><path fill="#262C2D" fill-rule="evenodd" d="M206.4 44a10.8 10.8 0 1 0 0-21.4 10.8 10.8 0 0 0 0 21.5Z" clip-rule="evenodd"/><path fill="#121515" fill-rule="evenodd" d="M206.4 40a6.7 6.7 0 1 0 0-13.4 6.7 6.7 0 0 0 0 13.4Z" clip-rule="evenodd"/><path fill="#636F73" fill-rule="evenodd" d="M206.4 32a1.3 1.3 0 1 0 0-2.7 1.3 1.3 0 0 0 0 2.7Z" clip-rule="evenodd" opacity=".4"/></g><defs><clipPath id="a"><path fill="#fff" d="M0 0h416v576H0z"/></clipPath></defs></svg>