<svg xmlns="http://www.w3.org/2000/svg" width="348" height="480" fill="none"><g clip-path="url(#a)"><path fill="#3A4245" d="M0 78.6c0-35 0-52.5 10-64.1a41.4 41.4 0 0 1 4.5-4.6C26.1 0 43.6 0 78.6 0h191.7c35 0 52.5 0 64.1 10a41.4 41.4 0 0 1 4.6 4.5c9.9 11.6 9.9 29.1 9.9 64V693c0 35 0 52.5-10 64a41.4 41.4 0 0 1-4.5 4.7c-11.6 9.9-29.1 9.9-64 9.9H78.5c-35 0-52.5 0-64.1-10a41.3 41.3 0 0 1-4.6-4.5C0 745.4 0 727.9 0 692.9V78.6Z"/><path fill="#121515" d="M1.8 72.7c0-29.4 0-44.1 8-54.2a36.9 36.9 0 0 1 6-6c10-8 24.8-8 54.2-8h208.9c29.4 0 44.1 0 54.2 8a36.9 36.9 0 0 1 6 6c8 10 8 24.8 8 54.2v626c0 29.5 0 44.2-8 54.2a36.8 36.8 0 0 1-6 6.2c-10 7.9-24.8 7.9-54.2 7.9H70c-29.4 0-44.1 0-54.2-8a36.8 36.8 0 0 1-6-6c-8-10.1-8-24.8-8-54.2V72.7Z"/><mask id="b" width="333" height="740" x="8" y="13" maskUnits="userSpaceOnUse" style="mask-type:alpha"><path fill="#fff" d="M8.1 45a31.5 31.5 0 0 1 31.5-31.5h269.7A31.5 31.5 0 0 1 340.8 45V721a31.5 31.5 0 0 1-31.5 31.5H39.6A31.5 31.5 0 0 1 8 721.1V45Z"/></mask><g mask="url(#b)"><rect width="332.7" height="610.3" x="8" y="13" fill="#1F1F1F" rx="3"/><path stroke="#67B279" stroke-linecap="round" d="M273.5 117H300v26.4m0 198v26.3h-26.5M75.5 117H49v26.4m0 198v26.3h26.4"/><rect width="473" height="755" x="-63" fill="url(#c)" fill-opacity=".3" rx="41" style="mix-blend-mode:screen"/></g><path fill="#262C2D" fill-rule="evenodd" d="M172.7 36.9a9 9 0 1 0 0-18 9 9 0 0 0 0 18Z" clip-rule="evenodd"/><path fill="#121515" fill-rule="evenodd" d="M172.7 33.5a5.6 5.6 0 1 0 0-11.3 5.6 5.6 0 0 0 0 11.3Z" clip-rule="evenodd"/><path fill="#636F73" fill-rule="evenodd" d="M172.7 26.8a1.1 1.1 0 1 0 0-2.3 1.1 1.1 0 0 0 0 2.3Z" clip-rule="evenodd" opacity=".4"/><g filter="url(#d)"><path fill="#1F1F1F" d="M-60.7 442.5h468.4v92.8H-60.7z"/></g></g><defs><linearGradient id="c" x1="-58.7" x2="252.2" y1="4.3" y2="424.6" gradientUnits="userSpaceOnUse"><stop stop-color="#fff"/><stop offset=".7" stop-color="#fff" stop-opacity="0"/></linearGradient><clipPath id="a"><path fill="#fff" d="M0 0h348v480H0z"/></clipPath><filter id="d" width="568.3" height="192.8" x="-110.7" y="392.5" color-interpolation-filters="sRGB" filterUnits="userSpaceOnUse"><feFlood flood-opacity="0" result="BackgroundImageFix"/><feBlend in="SourceGraphic" in2="BackgroundImageFix" result="shape"/><feGaussianBlur result="effect1_foregroundBlur_0_2256" stdDeviation="25"/></filter></defs></svg>