<svg xmlns="http://www.w3.org/2000/svg" width="544" height="408" fill="none"><path fill="#CDD5D4" d="M372.2 302.6c-8.8 9.4 86.3 7.8 87.2-.5.3-2.7-2.3-4.9-5-6-9-3.6-70.8-5.6-82.2 6.5Z"/><path fill="#71ABFF" d="M419.1 56.2c-4.4-1.3-8.8 1.6-9.8 6.4l-33.2 159c-1 4.9 1.8 10 6.2 11.2l64.4 19c4.4 1.3 8.8-1.5 9.9-6.4l33.1-159c1-4.9-1.7-9.9-6.2-11.2l-64.4-19Z"/><path fill="#2D76E0" d="M439 216.8c-8.8-4 3.5-19 1.3-24.3-1-2.1-3.8-2-5.6-1.8-9.7 1-19.7 9.8-27.5 6-2.7-1.4-5-4.1-5.9-7-3.6-10.6 15-17.4 25.6-21.7 5-2 10.5-4.2 13-9.4 10-21.3-35.8-21.7-43.7-25.6l-1.4-.8-18.7 89.4c-1 4.9 1.8 9.9 6.2 11.2l64.4 19c4.4 1.3 8.8-1.6 9.9-6.4l6.7-32.5c-7.3 0-18.4 6.7-24.3 4Z"/><path fill="#5391E5" d="m409.3 62.6-7 33.7c.6.5 1.2 1 1.8 1.3 24.3 15.3 48.1-18.6 65-1.4 13.8 13.8-14 19.8-14.8 20.2a18 18 0 0 0-6.6 4.5c-1.5 1.8-3 4.3-2 6.7 4 10.4 26.2-4.5 27.5 6 .3 2.4-1.1 5-2.3 7L469 144c-.5 1.2-1 2.6-1.3 3.9-.8 2.8-1.3 6 0 8.8a11.4 11.4 0 0 0 6.2 5.3l15.7-75.5c1-4.9-1.7-9.9-6.2-11.2l-64.4-19c-4.4-1.3-8.8 1.6-9.8 6.4Z"/><path fill="#CDD5D4" d="m382.3 232.8 64.4 19c4.4 1.3 8.8-1.5 9.9-6.4l33.1-159c1-4.9-1.7-9.9-6.2-11.2l-64.4-19c-4.4-1.3-8.8 1.6-9.8 6.4l-33.2 159c-1 4.9 1.8 10 6.2 11.2Zm-2.6-10.1 2.3-11 28.8-138 2-10c.6-2.7 3-4.3 5.5-3.6l9.5 2.8v.1l-.8 3.5c-.4 1.7.7 3.6 2.3 4l39.6 11.8c1.6.5 3.3-.6 3.6-2.4l.7-3v-.5l9.5 2.8c2.4.7 4 3.4 3.4 6.1l-2.4 11.5-28.1 135-2.6 12.5c-.6 2.7-3 4.3-5.5 3.6l-12.4-3.7-40.1-11.9L383 229c-2.4-.8-4-3.5-3.4-6.2Z"/><path fill="#D8E0E0" d="m442 246.2-7-2-40-11.9L383 229c-2.4-.8-4-3.5-3.4-6.2l2.3-11 28.8-138v-.2a93.7 93.7 0 0 1-2-8.5L376 221.6c-1 4.9 1.8 10 6.2 11.2l63.6 18.8-4-5.4ZM483.5 75.2l-39.1-11.6a82.1 82.1 0 0 0 7.2 13.5l17.3 5.2c1.6.4 3.2-.6 3.6-2.4l.7-3v-.5l9.5 2.8c2.4.7 4 3.4 3.4 6.1l-2.4 11.5-7 33.4 1.6 3.5 1 2.4 10.4-49.7c1-4.9-1.7-9.9-6.2-11.2Z"/><path fill="#CDD5D4" d="m475.3 137.3-19.7 94.5-2.6 12.5c-.6 2.7-3 4.3-5.5 3.6l-5-1.5 4 5.4h.2c4.4 1.3 8.8-1.5 9.9-6.4l22-105.3-3.3-2.8Z"/><path fill="#fff" d="M438.1 128.4h.1l.2.1h-.2Zm.4.1Zm-.5-.1Zm.6.2Zm-.8-.3h.1Zm1 .3h-.1Zm-1-.3Zm1.1.4Zm-1.3-.4Zm1.4.4Zm-1.6-.5Zm1.8.5h-.1Zm-1.9-.5Zm2 .5Zm-2.1-.6Zm2.2.7Zm-2.3-.7Zm2.5.7h-.1Zm-2.7-.8h.1Zm2.8.8Zm-3-.8h.2-.1Zm3.2.9h-.1Zm.1 0h-.1.1Zm-3.5-1h.2-.2Zm3.7 1h-.1Zm-3.8-1Zm3.9 1Zm-4-1.1Zm4.1 1.2Zm-4.3-1.3Zm4.5 1.3h-.1Zm-4.6-1.3Zm4.7 1.3Zm-4.8-1.4Zm5 1.4h-.1Zm-5.2-1.5h.1Zm5.2 1.6Zm-5.3-1.6Zm5.5 1.6Zm-5.6-1.7Zm5.7 1.7Zm-5.9-1.7h.1Zm6 1.7Zm-6.1-1.8h.1-.1Zm-.3-.1h.3-.3Zm6.9 2Zm-7-2.1h.1Zm7.1 2Zm-7.2-2Zm7.4 2Zm-7.5-2.1Zm7.6 2.2Zm-7.8-2.3h.1Zm8 2.3h-.1Zm-8-2.4Zm8 2.4Zm-8.2-2.4Zm8.4 2.4Zm-8.5-2.5Zm8.6 2.5Zm-8.8-2.6h.2-.2Zm9 2.6Zm.5 0Zm.2 0Zm0 0Zm.2 0Zm.2 0Zm0 0Zm.2 0Zm.1 0Zm.2 0Zm0 0Zm.2 0Zm.2 0Zm.2 0h-.1Zm0 0Zm.2 0Zm.1 0Zm.2 0h-.1Zm.1 0Zm.1-.1Zm.2 0h-.1Zm-4.3-17.4c-5.5-1.6-8.9-7.8-7.6-13.8 1.2-6 6.7-9.7 12.2-8 5.5 1.6 8.9 7.8 7.6 13.8-1.2 6-6.7 9.7-12.2 8Zm5.6-26.6c-11-3.2-21.8 3.9-24.3 15.9a24.2 24.2 0 0 0 2 15.7 19.1 19.1 0 0 1 16.2-2.4 22.8 22.8 0 0 1 13.4 11.2 20.1 20.1 0 0 0 7.9-12.9c2.5-12-4.3-24.3-15.2-27.5Z"/><path fill="#EC4899" d="m440.1 99.6 7.8 2.3c-.7 2-2.7 3.1-4.7 2.6-2-.6-3.2-2.7-3-4.9Zm6.2-9.7c-5.5-1.7-11 2-12.2 8-1.3 6 2.1 12.2 7.6 13.8 5.5 1.7 11-2 12.3-8 1.2-6-2.2-12.2-7.7-13.8ZM441.2 114.3a22.7 22.7 0 0 1 13.4 11.2c-2.6 1.9-5.5 3.1-8.6 3.6H445.2l-.1.1H441v-.1h-.7l-.1-.1h-.5l-.1-.1H439.3l-.1-.1H439l-.1-.1h-.2l-.1-.1H438.3l-.1-.1H437.9v-.1H437.6v-.1h-.2a2.4 2.4 0 0 0-.2-.1h-.2v-.1h-.2v-.1h-.1l-.3-.1h-.1l-.1-.1h-.2v-.1h-.1l-.1-.1h-.2v-.1h-.2l-.1-.1h-.2v-.1l-.2-.1h-.2v-.1h-.1l-.1-.1h-.1l-.2-.1v-.1h-.2l-.1-.1c-4-2.3-7-5.8-9-10a19.2 19.2 0 0 1 16.3-2.4Z"/><path fill="#fff" d="m440.1 99.6 7.8 2.3c-.7 2-2.7 3.1-4.7 2.6-2-.6-3.2-2.7-3-4.9Z"/><path fill="#1E6AC6" d="M401.2 205.7c-3.5-1.1-8 1.1-10 4.9-.5 1.1-3.2 10.3-.6 15.6a34 34 0 0 0 13.5-11.8c2-3.8.7-7.7-2.9-8.7Z"/><path fill="#C1296E" d="M392.8 216c-2.2-.6-3.6-3-3.1-5.4.5-2.4 2.7-3.9 4.9-3.2 2.2.6 3.5 3.1 3 5.5s-2.7 3.8-4.8 3.2Zm2.4-11.6c-3.7-1-7.3 1.3-8.1 5.3-.3 1.3-.3 11 3.5 16.5 5.9-2.8 9.4-11.4 9.7-12.6.8-4-1.5-8-5.1-9.2Z"/><path fill="#fff" d="M394.6 207.4c2.2.6 3.5 3 3 5.5-.5 2.4-2.7 3.8-4.8 3.2-2.2-.7-3.6-3.1-3.1-5.5s2.7-3.9 4.9-3.2Z"/><path fill="#1E6AC6" d="m454.4 231.7-4.2-11.5-6.7 3.3c-.2-.4-.6-.8-1.1-1-1.2-.3-2.6.4-3.2 1.7-.2.5-.3 1.1-.2 1.6l-1.5.8-.4.9-3.7 7.7-.3.7-1.2 2.7 13 4 4 1.2 5.2-11.1.3-.8v-.2Z"/><path fill="#fff" d="m432.6 225.5 7 12 10.7-6.8-.2.9-5.4 3.3 3.8 4.6-.2.7-4-5-5 3-3-5.2-5.6 2 .1-.6 5.2-2-3.5-6 .1-.9Z"/><path fill="#E3BD00" d="m443.4 218.7-5.6 3.5c.4.6.5 1.3.4 2-.3 1.3-1.5 2-2.7 1.7-.7-.2-1.2-.7-1.5-1.3l-1.3.8v.1l6.8 12 10.8-6.8-6.9-12Z"/><path fill="#C88300" d="M449 231.4c-5.3 3-13.1 2-15.7-6.4l-.6.4v.1l6.8 12 10.8-6.8v-.2l-1.3.9ZM432.5 226.3l-1.7 8 5.2-1.9-3.5-6Z"/><path fill="#E3BD00" d="m432.5 226.3-1.7 8 4.9-2-3.2-6ZM448.5 239.5l-.1.4v-.4ZM450.1 231.6l.2-.9-.2.9Z"/><path fill="#C88300" d="m448.5 239.5.1-.6 1.5-7.3-5.4 3.3 3.8 4.6Z"/><path fill="#E3BD00" d="m448.5 239.5.1-.6 1.5-7.3-5.2 3.6 3.6 4.3Z"/><path fill="#C88300" d="m444.2 235.2-4.8 3-3.1-5.2-5.6 2-.6 2.9 13.5 4 4.1 1.2.7-3.2v.3l-4.2-5Z"/><path fill="#E3BD00" d="m444.4 235.5-5 3.2-3.2-5.4-5.5 1.8-.6 2.8 13.5 4 4.1 1.2.7-3.2v.3l-4-4.7Z"/><path fill="#C1296E" d="M436.5 221.2c.6.1 1 .5 1.3 1 .4.6.5 1.3.4 2-.3 1.3-1.5 2-2.7 1.7-.7-.2-1.2-.7-1.5-1.3-.2-.5-.3-1.1-.2-1.7.3-1.3 1.5-2.1 2.7-1.7Z"/><path fill="#fff" d="m420.8 131.1 31.8 9.4c3 1 4.8 4.2 4.2 7.5-.7 3.2-3.7 5.1-6.6 4.3l-31.9-9.4c-3-1-4.8-4.2-4-7.5.6-3.2 3.5-5.2 6.5-4.3ZM447.5 163c-1-.4-1.6-1.5-1.4-2.6.2-1 1.2-1.7 2.2-1.4 1 .3 1.6 1.4 1.3 2.5-.2 1-1.2 1.7-2.1 1.4Zm-7.8-2.4c-1-.3-1.6-1.4-1.3-2.4.2-1.1 1.2-1.8 2.1-1.5 1 .3 1.6 1.4 1.4 2.5-.2 1-1.2 1.7-2.2 1.4Zm-7.7-2.3c-1-.2-1.6-1.4-1.4-2.4.3-1 1.2-1.7 2.2-1.4 1 .2 1.6 1.4 1.4 2.4-.2 1.1-1.2 1.7-2.2 1.4Zm-7.7-2.2c-1-.3-1.6-1.4-1.4-2.5.3-1 1.2-1.7 2.2-1.4 1 .3 1.6 1.4 1.4 2.4-.3 1.1-1.2 1.8-2.2 1.5Zm-7.7-2.3c-1-.3-1.6-1.4-1.4-2.5.2-1 1.2-1.7 2.2-1.4 1 .3 1.6 1.4 1.3 2.5-.2 1-1.2 1.7-2.1 1.4Zm1.1-8c-3-.8-5.9 1-6.5 4.3-.7 3.3 1.1 6.6 4 7.5l32 9.4c2.9.8 5.8-1 6.5-4.3.7-3.3-1.2-6.6-4.1-7.5l-31.9-9.4Z"/><path fill="#1E6AC6" d="M416.4 218.1c-2.2-.7-5 .8-6.3 3.3l-2 3.7c-1.3 2.5-.6 5 1.6 5.7l11.7 3.6c2.1.7 5-.8 6.2-3.2l2-3.8c1.3-2.4.6-5-1.5-5.7l-11.7-3.6Z"/><path fill="#EC4899" d="m422.8 233.2-3.8-1.1.2-1.3 4 1.2-.4 1.2Zm-16-6.2c.1-.1.4-.2.7-.1.4 0 .7.6.6 1-.1.5-.6.8-1 .7a.9.9 0 0 1-.6-.6c-.1.2-.4.3-.7.2-.4-.1-.7-.6-.6-1.1.1-.5.5-.8 1-.6.2 0 .4.3.5.5Zm16.5 3.8-17.8-5.3.3-1.2 17.8 5.2-.3 1.3Zm.7-3.2-1.6-.5.4-1.8 1.6.5-.4 1.8Zm-11.6-6.5-5.6-1.7.3-1.3 5.6 1.7-.3 1.3Zm-2.3-3.8c-2.3-.7-4.6.8-5.2 3.4l-.7 3.8c-.6 2.6.9 5.2 3.2 5.9l12.4 3.7c2.3.6 4.6-.9 5.2-3.4l.8-3.9c.5-2.5-1-5.1-3.3-5.8l-12.4-3.7Z"/><path fill="#fff" d="M407.5 226.8c.4.2.7.7.6 1.1-.1.5-.6.8-1 .7a.9.9 0 0 1-.6-.6c.2-.1.2-.3.3-.4v-.6c.1-.2.4-.2.7-.2Z"/><path fill="#fff" d="M406.2 226.5c.2 0 .4.3.5.5v.6c0 .1 0 .3-.2.4-.1.2-.4.3-.7.2-.4-.1-.7-.6-.6-1.1.1-.5.5-.8 1-.6ZM422.8 225.4l1.6.4-.4 1.8-1.6-.4.4-1.8ZM405.8 224.3l17.8 5.2-.3 1.3-17.8-5.3.3-1.2ZM407 218.1l5.7 1.7-.3 1.3-5.6-1.7.3-1.3ZM419.2 230.8l4 1.2-.4 1.2-3.8-1.1.2-1.3Z"/><path fill="#2D76E0" d="m410 209 15.8 4.7c1.4.4 2.3 2 2 3.5-.3 1.5-1.7 2.4-3.1 2l-15.8-4.6c-1.4-.4-2.2-2-2-3.6.4-1.5 1.8-2.4 3.2-2ZM448.3 159c1 .3 1.6 1.4 1.3 2.5-.2 1-1.2 1.7-2.1 1.4-1-.3-1.6-1.4-1.4-2.5.2-1 1.2-1.7 2.2-1.4ZM440.5 156.7c1 .3 1.6 1.4 1.4 2.5-.2 1-1.2 1.7-2.2 1.4-1-.3-1.6-1.4-1.3-2.4.2-1.1 1.2-1.7 2.1-1.5ZM432.8 154.5c1 .2 1.6 1.4 1.4 2.4-.2 1-1.2 1.7-2.2 1.4-1-.2-1.6-1.4-1.4-2.4.3-1 1.2-1.7 2.2-1.4ZM425 152.2c1 .3 1.7 1.4 1.5 2.4-.3 1.1-1.2 1.8-2.2 1.5-1-.3-1.6-1.4-1.4-2.5.2-1 1.2-1.7 2.2-1.4ZM417.4 149.9c1 .3 1.6 1.4 1.3 2.5-.2 1-1.2 1.7-2.1 1.4-1-.3-1.6-1.4-1.4-2.5.2-1 1.2-1.7 2.2-1.4Z"/><path fill="#8D9E9D" d="M421.6 55c1-.2 2.2-.2 3.4.2l64.4 19c4.4 1.3 7.2 6.3 6.1 11.2l-33.1 159a8.2 8.2 0 0 1-6.5 6.6l-5.8 1c3-.5 5.7-3 6.4-6.6l33.2-159c1-4.9-1.8-9.9-6.2-11.2l-64.4-19a7.4 7.4 0 0 0-3.4-.2l5.9-1Z"/><path fill="#9DAFAE" d="m466.8 205.2-2.3 2.2-8 38a8.2 8.2 0 0 1-6.4 6.6l5.8-1c3.1-.5 5.7-3 6.5-6.6l9-43.6c-1.4 1.5-3 3-4.6 4.4ZM489.7 86.4l-9.3 44.7c2.2-1.8 4.4-3.8 6.5-5.8l.4-.4 8.2-39.5c1-4.9-1.7-9.9-6.1-11.2l-64.4-19a7.4 7.4 0 0 0-3.4-.2l-5.9 1c1.1-.2 2.3-.2 3.4.2l64.4 19c4.5 1.3 7.2 6.3 6.2 11.2Z"/><path fill="#D8E0E0" d="m482.9 132.9-1.7-.8 5.4-4-1.2 4.3-2.5.5ZM488 109l-1.7-.8 5.4-4-1.2 4.3-2.6.5Z"/><path fill="#CDD5D4" d="M482.6 128c2.3-.3 4.2-2 5-4.5l4-19.4a6.5 6.5 0 0 1-4.8 4h-.5l-3.2 15.3-.2 1-.8 3.7h.5ZM477.5 152c2.3-.4 4.2-2 5-4.5l4.1-19.5a6.5 6.5 0 0 1-4.8 4l-.6.1-3.2 15.2-.2 1-.8 3.8.5-.1Z"/><path fill="#C1296E" d="m325.9 22.1-.6.6c-.5.3-.7 0-.9-.5a4.9 4.9 0 0 1 0-1.3s1-1.2-.6-3.4a9 9 0 0 0 1.5 1.3c.8 1 1.4 2.2.6 3.3Z"/><path fill="#C6327C" d="M326.3 21.2c0 .3-.2.6-.4 1l-.6.5c-.5.3-.7 0-.9-.5a4.9 4.9 0 0 1 0-1.3s1-1.2-.6-3.4c0 0 .5.3 1 .9l.2.1.3.3c.5.7 1 1.6 1 2.4Z" opacity=".3" style="mix-blend-mode:multiply"/><path fill="#DD377B" d="M326.3 21.2c-.5 0-1-.5-1.3-1.2v-1.5l.3.3c.5.7 1 1.5 1 2.4Z"/><path fill="#C6327C" d="M326.3 21.2c-.5 0-1-.5-1.3-1.2v-1.5l.3.3c.5.7 1 1.5 1 2.4Z" opacity=".3" style="mix-blend-mode:multiply"/><path fill="#DD377B" d="M283.5 61c-.2 1.5.5 2.8.5 2.8-1.4-1-1.8-3.1-1.8-5.3a25 25 0 0 1 1.4-7.5s2.5 5.7.8 8a4.1 4.1 0 0 0-.9 2Z"/><path fill="#DD377B" d="M321.4 29.2Zm-.8-.6Zm.8.6Zm-.8-.6Zm.8.6Zm-.8-.6Zm.8.6Zm-.8-.6Zm.8.6Zm-.8-.6Zm.9.7h-.1Zm-1-.7Zm1 .7h-.1Zm-1-.7Zm1 .7h-.1Zm-1-.7Zm1 .7h-.1Zm-1-.7Zm1 .7h-.1Zm-1-.7Zm1 .7h-.1Zm-1-.7Zm1 .7h-.1Zm-1-.7Zm1 .7h-.1Zm-1-.7Zm1 .7h-.1Zm-1-.7Zm1 .7h-.1Zm-1-.7Zm61.1 34.7-.3-3a17.7 17.7 0 0 0-5.8-10.7 20.7 20.7 0 0 0-20-3.3l-1 .3-.7.2a18.4 18.4 0 0 0-1.3.5 37.6 37.6 0 0 0-3.2 1.4c-6 3-11.2.4-12-4.5.2-6.1.3-12.3-2-16.5l-.2-.2a10.7 10.7 0 0 0-7.6-5 13.6 13.6 0 0 0-1.2-.3h-.4l-.6-.1-.7-1c0-.2-.1-.2-.2-.3-8.8-11.4-20.1-3-30.3 5.8-.8.7-1.4 1.4-1.8 2-.7 1-1 2-.9 3 .1 1.8 1 3.4 1.2 5v.1a3 3 0 0 1-.8 2.3l-.3.3c-3.3 2.2-8 9.1-8.8 15.4-.2 1.7-.2 3.3.2 4.8a8.1 8.1 0 0 0 2.2 3.6c1.9 1.9 4.5 2.8 6.8 4 1.3.7 2.4 1.4 3.3 2.5 1.3 1.6 1.2 3.8.4 6l.4.7a45.7 45.7 0 0 0 21.5 19.8h.1l.2.2h.1l.3.2H318.5l.3.2.7.3.4.2.7.2 1 .4h.1l.3.1h.2l.4.2.4.1.4.1.4.2a37.2 37.2 0 0 0 1.8.4l.4.1h.3l.4.2h.4l.4.1h.3l.3.2H329l.8.2h.4l.4.1h.3l1.5.2h1.5l.5.1h.5a7.3 7.3 0 0 0 .5 0h4.2l.4-.1h.5a34.1 34.1 0 0 0 1-.2l2.7-.3c2.9-.4 5.8-.7 8.6-1.4l.4-.1c3-.8 6-2 8.6-3.8l.6-.4c1.8-1.2 3.4-2.6 5-4.2l.2-.3h.1l.7-.8a24 24 0 0 0-.2-7.9s1.4 2.6 2 6c3.6-4 6.7-8.1 8.7-12.4-.4-2.5-1.7-5.4-4.2-8.8 0 0 3.3 2.3 5.6 5.7a19.7 19.7 0 0 0 1.3-5.7l.1-2ZM324 31.4l.2.3.1.1-.2-.2-.4-.4-1.3-1-.2-.2a27 27 0 0 0-.4-.4c-.5-.4-1-.7-1.2-1a30.1 30.1 0 0 1 .8.6l.2.2.3.2h.1v.1l.4.3 1.6 1.4Zm-3.4-2.8Zm.9.7h-.1Zm-1-.7Zm1 .7h-.1Zm-1-.7Zm1 .7h-.1Zm-1-.7Zm1 .7h-.1Zm-1-.7Zm1 .7h-.1Zm-1-.7Zm1 .7-.1-.1Zm-1-.7Zm1 .7h-.1v-.1Zm-1-.7Zm1 .7h-.1v-.1Zm-1-.7Zm1 .6h-.1Zm-1-.6Zm1 .6h-.1Zm-1-.6Zm1 .6h-.1Zm-1-.6Zm.9.6Zm-.8-.6Zm.8.6Zm-.8-.6Zm.8.6Zm-.8-.6Zm.8.6Z"/><path fill="#C6327C" d="M355.6 46.3c-.2 0-13.3 5.9-13.4 13.7 0 7.9-23.5-1.5-23.5-1.5s10.2-9.6 13.1-21.4c0 0 1.2-.1 1.4 2.4.2 3 2.2 4.5 2.9 3.6.4-.7.9-1.5 1.2-2.3v3.4c.8 4.9 6 7.5 12 4.5 1.6-.8 3.7-1.8 6.3-2.4ZM295.7 76.4l-.3-.5s2.9-6.4-3.5-8.8c-3.6-1.4-6.8-3-8.4-6.2-.2 1.6.5 3 .5 3-1.4-1.2-1.8-3.2-1.8-5.4a5 5 0 0 0 1.5 1.7c3.7 2.7 11.1.3 14-2 3.4-2.5 21.4 2.7 21.6 7.6.2 4-17.1 9-23.6 10.6ZM309 39.8l-8 4.4s-3.5-7.5-9.5-4.9c.8-.7 1.2-1.4 1.1-2.4-.2-2.5-2.4-5-.3-8.3 0 .1-2 6.4 10 5 12-1.3 6.8 6.2 6.8 6.2Z" opacity=".3" style="mix-blend-mode:multiply"/><path fill="#C1296E" d="M313.4 30.4s-4.4-1.5-8.6.9c-3.8 2-6.3 9.3-3.8 12.9 2.5 3.6 7 4.5 7 4.5s6.4-15.1 6.3-16.4c0-1.3-1-1.9-1-1.9Z"/><path fill="#C6327C" d="M313.4 30.4s-4.4-1.5-8.6.9c-3.8 2-6.3 9.3-3.8 12.9 2.5 3.6 7 4.5 7 4.5s6.4-15.1 6.3-16.4c0-1.3-1-1.9-1-1.9Z" opacity=".3" style="mix-blend-mode:multiply"/><path fill="#C1296E" d="m363.7 92.7-1.8 1.4c-3 2-5.8 3.1-9.3 4-2.2.5-4.6.9-7.4 1.2h-.6l-.6.2a82.8 82.8 0 0 1-2.6.3 49.8 49.8 0 0 1-3.4.3 44.8 44.8 0 0 1-18.6-3.1l-1.1-.5-.5-.2-.4-.2-1.4-.7c-6.6-9.7-11-21.7-11.3-22.7-.4-1.8 7.6-5.2-3-10.4-9.7-4.7-1.1-8.5 1.6-12.2.3-.3.5-.7.6-1 1-2.5.8-4.7.6-6.6l25.5-1.1 1 .4.8.4s-.6.9-1.1 2.5c-.6 2-1 5.1.6 9.2a8.8 8.8 0 0 0 4.7 4.4c.6.3 1.3.6 2 .7 1.4.4 2.8.4 4.5.6 3.5.3 7.7.7 12.6 4 4.9 3.5 7.9 9.7 9 16a29 29 0 0 1-.4 13.1Z"/><path fill="#C1296E" d="M300 72.8c2.7-3.2-2.4-8.3-2.4-8.3s4.8 3.2 5.6 5.7c1 3-.6 3.2-.6 3.2s-3.1 0-2.7-.6Z"/><path fill="#C6327C" d="M381.5 65.3v.1a19.3 19.3 0 0 1-.8 4.3l-.1.2a15.6 15.6 0 0 1-.5 1.2c-2.3-3.4-5.6-5.7-5.6-5.7 2.6 3.4 3.8 6.3 4.3 8.8-2 4.3-5.1 8.4-8.6 12.3-.8-3.3-2.2-5.9-2.2-5.9.6 3.2.6 5.8.3 8l-.7.6-.1.1-.3.3a36 36 0 0 1-5.5 4.6A29 29 0 0 1 353 98c-3.8 1-7.7 1.2-11.6 1.8-1.3.2-2.7.3-4 .3-.4-6 4-14.6 10.4-13.2a14.2 14.2 0 0 0 16.3-7.3l1-2c2.4-6.5 1.2-10.6 8.7-16 7-5 2.4-11.1 1.7-12h-.1l.7.6c2.8 2.8 4.6 6.3 5.2 10a20 20 0 0 1 .2 5.1ZM332.7 73.9c-4.2-1-5-5.3-15.3-6.4-10.3-1.1-14-17.4-14-17.4l.5-1c1-2.5.8-4.7.6-6.6l25.5-1.1h1v.4c-.2.6-.3 1.5-.3 2.9-.6 2-1 5.1.6 9.2a8.8 8.8 0 0 0 4.7 4.4c.6.3 1.3.6 2 .7 1.4.3 2.8.4 4.5.6 7 9.4-4.3 15.5-9.8 14.3Z" opacity=".3" style="mix-blend-mode:multiply"/><path fill="#EC4899" d="M282.1 50.8Z"/><path fill="#E3BD00" d="M301.6 49v.4l.3-.2-.3-.1Zm0 0v.4l.3-.2-.3-.1Zm0 0v.4l.3-.2-.3-.1Zm0 0v.4l.3-.2-.3-.1Zm0 0v.4l.3-.2-.3-.1Zm0 0v.4l.3-.2-.3-.1Zm0 0v.4l.3-.2-.3-.1Zm0 0v.4l.3-.2-.3-.1Zm0 0v.4l.3-.2-.3-.1Zm0 0v.4l.3-.2-.3-.1Zm0 0v.4l.3-.2-.3-.1Zm0 0v.4l.3-.2-.3-.1Zm0 0v.4l.3-.2-.3-.1Zm0 0v.4l.3-.2-.3-.1Zm0 0v.4l.3-.2-.3-.1Zm1.3.1-.1-.2-.2-.2a2.4 2.4 0 0 0-.6-.4h-.2l-.2-.1a2 2 0 0 0-1-.1.5.5 0 0 0-.1 0h-.1v.6l.1.2h.1v.1h.1l.1.1.1.1h.2v.1l.3.1h.1a3.4 3.4 0 0 0 .1.1H302l.1.1h.7a.4.4 0 0 0 .2-.3V49Zm-1.4-.5h.2a3.3 3.3 0 0 1 .5.3c.2.1.2.2.2.3h-.5a2.7 2.7 0 0 1-.4-.2l-.8-.5h.8Zm.1.5V49.5l.3-.2-.3-.1Zm0 0V49.5l.3-.2-.3-.1Zm0 0V49.5l.3-.2-.3-.1Zm0 0V49.5l.3-.2-.3-.1Zm0 0V49.5l.3-.2-.3-.1Zm0 0V49.5l.3-.2-.3-.1Zm0 0V49.5l.3-.2-.3-.1Zm0 0V49.5l.3-.2-.3-.1Zm0 0V49.5l.3-.2-.3-.1Zm0 0V49.5l.3-.2-.3-.1Zm0 0V49.5l.3-.2-.3-.1Zm0 0V49.5l.3-.2-.3-.1Zm0 0V49.5l.3-.2-.3-.1Zm0 0V49.5l.3-.2-.3-.1Zm0 0V49.5l.3-.2-.3-.1Z"/><path fill="#B45F00" d="m302.6 48.7-.3-.2c-.2 0-.3 0-.5.2l.3.1.5-.1Z"/><path fill="#E3BD00" d="M302.8 49.9a1 1 0 0 0-.3-.3l-.7-.2h-1.5v.2h-.1v.5l.2.1v.1h.1l.9.3h1.2v-.1h.1l.1-.3v-.3Zm-2.2 0 .6-.2H301.5l.3.1.6.3-.3.1h-.6l-.7-.2a.6.6 0 0 1-.2-.2Z"/><path fill="#B45F00" d="m302.4 49.6-.3-.1-.4.3h.3l.4-.2Z"/><path fill="#E3BD00" d="m302.3 50 .1.1-.3.1c0 .1-.2 0-.2 0a2 2 0 0 1-.4 0c-.6 0-.9-.3-1-.4.2 0 .4-.1.8 0l.3-.5c-.5 0-1 0-1.3.2l-.1.3s0 .3.3.5.6.3 1 .3 1 0 1.2-.2l.2-.2-.1-.3-.5.1Z"/><path fill="#9DAFAE" d="M295.7 59.8c-4 .6-8.6-4.3-5.1-8.1l.3-.3c-2.8 3.6 1.8 7.9 6.6 3.8.9-.8 1.6-1.7 2.3-2.6l.2-.2c.5.2 1 .5 1.4.9.4.3.7.7.9 1.2-1.6 2.1-3.6 4.8-6.6 5.3Z"/><path fill="#9DAFAE" d="M301.4 53.3c-.4-.4-.9-.7-1.4-.9l-.1.2c-.8 1-1.5 1.9-2.4 2.6-2 1.6-3.8 2-5.2 1.5H291c-.8-.1-1.3-.8-1.7-1.5.4 2.7 3.4 5 6.3 4.6 3-.5 5-3.2 6.6-5.3-.1-.5-.5-1-.9-1.2Z"/><path fill="#CDD5D4" d="M291 56c1.4 1.2 4 1.4 6.5-.8.9-.8 1.6-1.7 2.4-2.6l.1-.2c.5.2 1 .5 1.4.9.4.3.8.7.9 1.2l-.3.4c-3.5 4.1-5.5 4.8-8 4.9-3-.6-5.5-3.7-4.4-6.6a3 3 0 0 0 1.5 2.7Z"/><path fill="#D8E0E0" d="M299.6 53c-.7.8-1.3 1.6-2.1 2.2-1.8 1.5-3.6 1.9-5 1.5.4.4.8.6 1.3.8a5 5 0 0 0 3.9-.2c1.6-.7 3.2-2.6 1.8-4.3Z"/><path fill="#9DAFAE" d="M293 59.4c-2.1-.8-3.7-2.8-3.7-4.9a7 7 0 0 0 3.6 5ZM299.7 52.7l.1-.1.2-.2c.5.2 1 .5 1.4.9.4.3.7.7.9 1.2l-.1.1c-1-.4-2.2-1.3-2.5-1.9Z"/><path fill="#E3BD00" d="M301.5 53c.7.5 1.2 1 1.3.9l-1.1-1.1-1.3-1c0 .2.4.6 1.1 1.2Z"/><path fill="#C88300" d="M301.6 52.8h-.2l.1.2 1 .6-.9-.8Z"/><path fill="#B45F00" d="M302.2 52.2Zm-.1-.2Zm0 .2Zm0-.2Zm0 .2Zm0-.2Zm0 .2Zm0-.2Zm0 .2Zm0-.2Zm0 .2Zm0-.2Zm0 .2Zm0-.2Zm0 .2Zm0-.2Zm0 .2Zm0-.2Zm0 .2Zm0-.2Zm0 .2Zm0-.2Zm0 .2Zm0-.2Zm0 .2Zm0-.2Zm0 .2h.1Zm0-.2Zm0 .2h.1Zm0-.2Zm.1.2Zm0-.2h-.1Zm.6-.5v-.1h-.1v-.1h-.5v.1c-.2 0-.2.1-.3.2l-.1.1-.4.8V52.9h.1v.1h.4a1.5 1.5 0 0 0 .6-.5l.1-.2h.1l.1-.3v-.4Zm-.7.7c0 .2-.2.2-.3.3v-.2h.1l.1-.2h.1V52l.2-.2h.1a1.3 1.3 0 0 1-.2.4Zm0-.2Zm0 .2h.1Zm0-.2Zm0 .2h.1Zm0-.2Zm0 .2Zm0-.2Zm0 .2Zm0-.2Zm0 .2Zm0-.2Zm0 .2Zm0-.2Zm0 .2Zm0-.2Zm0 .2Zm0-.2Zm0 .2Zm0-.2Zm0 .2Zm0-.2Zm0 .2Zm0-.2Zm0 .2Zm0-.2Zm0 .2Zm0-.2Zm0 .2Zm0-.2Zm0 .2Zm0-.2Zm0 .2Z"/><path fill="#C88300" d="M302.1 52.2c.2-.1.2-.3.3-.4.2 0-.2.8-.6.7l.3-.3Z"/><path fill="#B45F00" d="M301.7 51.8c.2-.3.6-.5.9-.5l.1.1.1.3c0-.2-.3-.3-.4-.3-.2.1-.2.4 0 .4a1.5 1.5 0 0 0-.6.7c-.2 0-.2.3 0 .3h.3l-.5.2h-.1c-.3-.3-.1-.8.2-1.2Z"/><path fill="#E3BD00" d="M300.4 51.9Z"/><path fill="#C88300" d="m302.8 53.9-1.3-1c-.7-.5-1.2-1-1.1-1l-.6.7s.4.6 1.1 1.1c.1.1 1.2 1 1.3.9l.6-.7Z"/><path fill="#B45F00" d="m302.8 53.9-.7-.5-.4.1a4 4 0 0 1-1-.1h-.3c.2 0 .3.2.5.3l1.3 1 .6-.8Z"/><path fill="#E3BD00" d="M308.2 54.2Zm0 0Zm0 0Zm0 0Zm0 0Zm0 0Zm0 0Zm0 0Zm0 0Zm0 0Zm0 0Zm0 0Zm0 0Zm0 0Zm0 0Zm.4.2a2.7 2.7 0 0 0-.2-.6v-.2l-.5-.6-.1-.2h-.5s-.3.1-.3.6a2.5 2.5 0 0 0 .2.9h.1v.1c.2.4.5.8.8.9h.2c.3-.1.4-.5.3-1Zm-.9 0a2.8 2.8 0 0 1-.1-.4c-.2-.5-.1-.8-.1-.8.1 0 .3.2.5.6v.1l.1.3v.2l.1.1v.4s-.3-.2-.4-.6Zm.4-.2Zm0 0Zm0 0Zm0 0Zm0 0Zm0 0Zm0 0Zm0 0Zm0 0Zm0 0Zm0 0Zm0 0Zm0 0Zm0 0Zm0 0Z"/><path fill="#C88300" d="M310.8 53.6c0-.2 0-.3-.2-.5a2.2 2.2 0 0 0-.6-.6l-.7-.4h-.8v.4a.9.9 0 0 0 0 .4l.4.4a3 3 0 0 0 .4.3l.3.2a1.9 1.9 0 0 0 .4.2h.6v-.2a.4.4 0 0 0 .2-.2Zm-.5 0h-.1l-.6-.3a2.6 2.6 0 0 1-.3-.2l-.5-.6h.2l.6.3h.1l.3.2.3.6Z"/><path fill="#E3BD00" d="M311.3 49.9c0 1-.4 2-1 2.8l-.3.3a5.2 5.2 0 0 1-.5.5h-.2l-.1.2a6.4 6.4 0 0 1-.7.3l-.1.1h-.2v.1a3.8 3.8 0 0 1-.9.2 4.8 4.8 0 0 1-2.2 0 5 5 0 0 1-2.9-2.1v-.1l-.1-.2-.1-.2-.1-.1-.1-.3v-.1l-.1-.1v-.3l-.2-.3v-1.3a1.8 1.8 0 0 1 0-.3 4 4 0 0 1 .1-.8 5 5 0 0 1 1.5-2.4h.1l.1-.1a7.6 7.6 0 0 1 .6-.4h.1v-.1a4.8 4.8 0 0 1 3.6-.4h.4v.5l-.5-.1-.8-.2h-1a4.5 4.5 0 0 0-3.8 3.6v2a4.4 4.4 0 0 0 .4 1l.1.2a24.1 24.1 0 0 1 .6.8 4.6 4.6 0 0 0 5 1.2h.2l.2-.1h.1a4.3 4.3 0 0 0 .4-.3l.2-.2h.1l.1-.1a5.6 5.6 0 0 0 .6-.6 4.5 4.5 0 0 0 .6-5v-.2h.1l.3.1c.3.8.5 1.6.4 2.5Z"/><path fill="#C88300" d="M308 45.3a38 38 0 0 0-1.3-.3h-1v-.4a5 5 0 0 1 2 .1l.3.2v.4Z"/><path fill="#E3BD00" d="M309.8 54.3v-.1l-.2-.4a3 3 0 0 0-.3-.6l-.5-.5-.4-.2h-.2a.4.4 0 0 0-.3 0l-.1.3c0 .2 0 .5.2.7a2.8 2.8 0 0 0 .3.5v.1l.3.3.6.4h.4v-.1l.2-.3Zm-.4 0c-.2 0-.4-.1-.6-.4a2.4 2.4 0 0 1-.3-.3c-.3-.4-.3-.7-.3-.7h.2a1.8 1.8 0 0 1 .5.5 2.1 2.1 0 0 1 .5.9ZM302.8 52.3l.4.5a4 4 0 0 1-.7-.6l.3.1Z"/><path fill="#C88300" d="M307.6 54.4a5 5 0 0 1-5-1.6c2 1.6 3.4 1.8 5 1.6ZM301.6 51l.6 1.2.1-.3-.5-1h-.2ZM303.1 45.8a5 5 0 0 0-1.6 4.4h.1c-.3-1.7.6-3.8 2.8-5.2l-1.3.8Z"/><path fill="#B45F00" d="M301.9 50v-.7l-.5-.2v.9h.5ZM302 51.9l.2-.2c.1 0 .1 0 0 0h.2l-.2.6-.2-.4Z"/><path fill="#E3BD00" d="M308.5 52.2c0-.1.3-.2.6-.1.3 0 .6.2.9.4l.6.6c.2.4.2.6 0 .7 0 .1-.2.2-.6.2l.1-.5h.2s-.1-.3-.6-.7l-.7-.3h-.2l.2.3-.4-.1v.2c-.3-.4-.2-.6-.1-.7Z"/><path fill="#B45F00" d="m308.7 53.5.4-.3.2.2h.1l-.5.4-.2-.4ZM307.8 53.9l.4-.2.2.4-.4.2-.2-.4Z"/><path fill="#E3BD00" d="M309 53.5a2 2 0 0 0-.6-.6 1 1 0 0 0-.5-.4c.1 0 .2-.1.4 0 .3 0 .7.3 1 .7.4.5.7 1.2.3 1.5h-.2v-.4a2 2 0 0 0-.5-.8Z"/><path fill="#C88300" d="M309.5 54.7c0-.4-.2-1-.5-1.2-.3-.4-.6-.8-1-1h.3c.3 0 .7.3 1 .7.4.5.7 1.2.3 1.5Z"/><path fill="#E3BD00" d="M308 54c-.1-.5-.4-.8-.5-.8l-.3-.3.1-.1h.3c.3 0 .7.6.8 1 .3.6.4 1.3 0 1.5h-.2v-.7l-.1-.7Z"/><path fill="#C88300" d="M307.3 52.8h.3c.4 0 .7.6.9 1 .2.6.3 1.3-.1 1.5h-.1c.2-1-.3-2-1-2.5ZM301.7 51.8c.2-.3.6-.5.9-.5l.1.1.1.2a1 1 0 0 0-.4.2l-.4.3-.2.4-.2.5h-.1c-.3-.3-.1-.8.2-1.2Z"/><path fill="#C88300" d="M301.7 51.8c.2-.3.6-.5.9-.5l.1.1c-.3 0-.6.4-.8.7l-.4.8c-.3-.2-.1-.7.2-1Z"/><path fill="#B45F00" d="m301.6 51 .4-.1v-.4a3 3 0 0 1-.4 0v.4Z"/><path fill="#C88300" d="M300.1 49.9s.1.3.4.5l.9.2c.5 0 1 0 1.3-.2l.1-.2c-.8.3-2 .3-2.7-.3Z"/><path fill="#EC4899" d="M300 50.1c.2 0 .4-.1.4-.3a.4.4 0 1 0-.4.3Z"/><path fill="#C88300" d="m300.4 49.7-.2.3s0 .2.2.3l.1-.3-.1-.3Z"/><path fill="#C1296E" d="M300.4 49.5c-.1.2-.2.3-.4.3h-.4c0 .2.2.3.3.3.2 0 .5 0 .5-.2v-.4Z"/><path fill="#E3BD00" d="M302.7 48.8h-.6l.4.4-1-.2-.8-.5h.5l-.5-.5-.2.1-.2.2c0 .1 0 .3.3.6.1.2.4.4.7.5.5.2 1 .3 1.4.1l.1-.2v-.5Z"/><path fill="#C88300" d="M301 49c-.3-.1-.6-.4-.6-.7V48v.2c-.1.1-.2.4.2.7l.7.4c.5.2 1 .3 1.4.1l.2-.2v-.2c-.5.4-1.4.3-1.9 0Z"/><path fill="#EC4899" d="M300.2 48.6c.2 0 .4-.2.4-.4s-.1-.4-.3-.4c-.3 0-.4.1-.5.4 0 .2.2.4.4.4Z"/><path fill="#C88300" d="m300.6 48.2-.2.2h-.1l.1.4.2-.2c.1-.1.1-.3 0-.4Z"/><path fill="#C1296E" d="M300.6 48c0 .2-.2.3-.4.3l-.4-.1s0 .2.2.3h.6V48Z"/><path fill="#8E3F24" d="M311.1 81.5V79l-.2-3v-6.7c-.1-2-.3-3.9-.8-5.8a37 37 0 0 0-7 3c-12.4 6.5-20 17-29.3 16.3-7-.6-8.2-.3-23.2 8.7a82.3 82.3 0 0 1-21 5s.7 3.6 1.9 6l1.3-.3-2 2.3 7-.8a177 177 0 0 0 41.3-10.3s9.6-3.6 16.6-5.1c10-2.2 10.3-6 14.1-3.7.5.3 1 .7 1.3 1.2v-4.3Z"/><path fill="#8E3F24" d="M290.8 85.2c-.6-2.9-1.5-5.8-2.7-8.5-5 3.7-9.4 6.4-14.3 6-7-.5-8.2-.2-23.2 8.8a82.3 82.3 0 0 1-21 5s.7 3.6 1.9 6l1.3-.3-2 2.3 7-.8a177 177 0 0 0 41.3-10.3s5.9-2.2 11.8-3.9c.2-1.4.1-2.8-.1-4.3Z"/><path fill="#994326" d="M262.6 89c1.8-.2 3.7-.7 5.3-1.3 1.4-.6 3.3-1.5 3.2-3.2 0-.7-.2-1.3-.6-1.9-4 0-6.6 1-15 6 2.4 0 4.7.6 7.1.3ZM279.9 83c.8.5 2 .8 3 .4 1.3-.7 1.3-2.3.8-3.7-1.7 1.1-3.5 2-5.2 2.5.4.4.9.7 1.4.9Z"/><path fill="#863922" d="M290.8 85.2c-.6-2.9-1.5-5.8-2.7-8.5l-3.3 2.3c2 2 2.4 6.6-1.6 7.7-2.5.6-5.6-2.1-6.6-4h-.3c-.3 8.1-4.9 12.8-15 12.1a24 24 0 0 1-10.3-3.6l-.4.3a82.3 82.3 0 0 1-21 5s.7 3.6 1.9 6l1.3-.3-1.9 2.3 7-.8a177 177 0 0 0 41.2-10.3l4.3-1.5a168 168 0 0 1 7.5-2.4c.2-1.4.1-2.8-.1-4.3Z"/><path fill="#8E3F24" d="M247 97c-.2-1.4-1-3.1-2.4-3.5l-2.8.8c.1.5.4 1 .6 1.3 2.6 5.2 4.8 4.1 4.6 1.4Z"/><path fill="#994326" d="m291.9 74 1.3 1c2.1 1.2 4.9.2 6.6-1.2 2-1.5 3.5-3.7 4.8-5.9l1.9-3.1-3.4 1.6c-4.2 2.2-8 5-11.3 7.5Z"/><path fill="#79311D" d="M291 89c-.9.6-1.8 1.1-3 1.3-1.2.2-2.6.2-3.9.2-.8 0-1.6 0-2.4-.2-.8 0-1.6-.3-2.3-.1-1.5.2-2.6 1.4-3.6 2.3-1.9 1.6-4 2.6-6.4 3.1-2.4.7-5 1-7.5 1-10.6.4-10.3-3.1-11.8-4.8l-.7.2h-.2v.1l-.8.2.5 1v8.5l3.4-.6a129 129 0 0 0 26.8-7.8l4.3-1.5c2-.8 4.8-1.6 7.5-2.4V89Z"/><path fill="#863922" d="M311.1 85.9c-.4-.5-.8-1-1.3-1.2-2.7-1.7-3.6-.2-7.6 1.6-1.2.5-2.6 1-4.5 1.5l-.4.1-.5.1-4.3 1-1 .4h-.1v-3.5c-.3-1.9-.8-3.8-1.4-5.6l-.1-.4-.2-.4-.2-.5-.1-.4a10 10 0 0 0-1.9-1.5l2.3-1.7h.2l.5-.5.2-.1c9.6 11.2 16-8.4 17.4-10.3.6-.8-1.5 6.9-1.5 7.7h.1c.8-1.1 1.2-2.2 1.6-3.5l.6-2.2.5-1.6.3-1.3h.4c.3 1 .5 2.2.6 3.4V67.9l.1.3v1.1c.2 2.2 0 4.5.1 6.7l.1 3 .1 2.5v.3a2 2 0 0 0 0 .2V86Z"/><path fill="#79311D" d="M311.1 85.8c-.4-.5-.8-.9-1.3-1.2-2.6-1.6-3.6-.2-7.3 1.5h-.1l-.2.2c-1.2.5-2.6 1-4.5 1.5l-.4.1-.5.1-4.3 1-1 .4v-.5a25 25 0 0 0-1.5-8.6l-.1-.4a16.1 16.1 0 0 0-.4-.9l-.1-.5a10.3 10.3 0 0 0-1.9-1.4l2.3-1.7.1-.1a15.8 15.8 0 0 0 .6-.4l.8.9a19.2 19.2 0 0 1 2.8 4c.4.9.8 1.7 1.5 2.2a3 3 0 0 0 2.6.4 4 4 0 0 0 2-1.7l1.6-3.2 1.9-3.4 2.2-3.4 1.5-2.4-.8 3.9h.1c.8-1.1 1.2-2.2 1.6-3.5l.6-2.2c.5-.5 1-1 1.5-1.3l.3 1.8V67.9l.1.3v1.1c.2 2.2 0 4.5.1 6.7l.1 3 .1 2.5V85.8ZM241.3 94.4a52.4 52.4 0 0 1-11.8 2.2c.1 0 .8 3.5 2 5.8l1.3-.2-1.9 2.3 7-.8 3.6-.6c.4-2.2.4-6.8-.2-8.7Z"/><path fill="#71ABFF" d="M288 90.4c2.3-1 .8-13.4-3.6-11.1.5-10.5 9.6-5.8 10.1 7.4.3 5.7-4.2 7.7-6.5 3.7Z"/><path fill="#5391E5" d="M294.6 86.7c-.3-6.3-2.5-10.7-4.8-12.4-.2 1-.7 2.2-1.1 2.8a3 3 0 0 1-3.4 1l-.7-.4-.2 1.6c4.4-2.3 6 10.1 3.6 11 .5.9 1 1.4 1.6 1.8l1.3.4a2.6 2.6 0 0 0 1.3-.3c1.3-.7 2.3-2.4 2.4-5v-.5Z"/><path fill="#4C8AE4" d="M294.5 86.7c0-2.6-.5-4.9-1.1-6.8.2 1.6.2 3.4-1 4.7-.9.9-2.1 1.3-3.3 1.4 0 2.1-.3 4-1.1 4.4 2.3 4 6.8 2 6.5-3.7Z"/><path fill="#3C81F6" d="M289.4 91.6c.7.3 1.6.6 2.4.6h.5c1-.6 1.8-1.8 2.1-3.6l-1.3.7c-1.1.3-2.5.7-3.6.4-.3 0-.5 0-.8-.2-.2.5-.4.7-.7.9l.6.9.8.3Z"/><path fill="#71ABFF" d="M252.2 99c-1-9.3-7.4-12.4-7.6-5.5 3.3-.9 4.4 7.7 3 8.6 1.9 2.6 5 .8 4.6-3.2Z"/><path fill="#5391E5" d="M252.2 99c-.5-4.7-2.3-7.8-4-8.8l-.1.2c-.2.7-.6 1.6-1.3 2-.7.3-1.4.2-2-.1l-.2 1.3c3.3-1 4.4 7.6 3 8.5 1.9 2.6 5 .8 4.6-3.2Z"/><path fill="#4C8AE4" d="m252.2 99-.6-3.3-.7.9c-.8.8-1.9 1.1-3 1.2.4 2 .3 4-.3 4.3 1.9 2.6 5 .8 4.6-3.2Z"/><path fill="#3C81F6" d="M247.8 101.8c.6.5 1.2 1 2 1.1l.8.2c1-.6 1.8-2 1.6-4.2l-1.3.4-2.7.3c0 1-.1 1.8-.4 2.2Z"/><path fill="#4A1B0B" d="M237.7 83.8c.5-.1.4 4.4.4 4.4l-.2.2c-1.4.5-.6-4.1-.3-4.5l.1-.1ZM223.2 76c.1-.4 4.2 2.2 4.1 2.7-.2 1.5-4.3-1.7-4-2.7ZM217.2 77.1c0-.3 4.5 1.1 4.4 2.3-.2 1.5-4.3-1.7-4.4-2.3ZM214.2 81.8c.3-.6 4.7.8 4.8 1.3.2 1.4-4.5-.6-4.8-1.3ZM213.4 86c-.1-.6 4.1.4 4.2.8.3 1.3-3.8.1-4.2-.8Z"/><path fill="#8E3F24" d="M238.7 90.5c-.3-.8-.6-1.7-.7-2.5-.2-.7 0-1.8-.4-2.4-1-1.7-1.8 1.8-1.8 2.5 0 1.3.3 2.6.6 4v1l-.5.5c-1.2-4.4.9-.3-6-12.5-.3-.6-.5-1.2-1-1.7-.5-.7-1-1-4.3-2.6-.5-.3-1.1.3-.8.8a14 14 0 0 0 1.8 2.7c1.3 1.4 1.6 1.5 2.4 3.4l1.6 4.2c-1.8-3.2-3.4-4.8-4.3-6.1-.4-.6-.7-1.2-1.2-1.7-.7-.6-1.3-.8-4.9-2.3-.6-.2-1.2.5-.8 1 .6 1 1.4 1.9 2.2 2.6 1.6 1.4 1.9 1.5 2.9 3.4l1 2-2-2-1.3-1.4c-.7-.5-1.4-.6-5-1.5-.6-.2-1 .6-.6 1 .7.9 1.6 1.6 2.5 2.3 1.6 1 1.9 1 3.1 2.8l1.4 2-2-1.8c-.4-.4-.8-.8-1.3-1-.6-.5-1.1-.5-4.2-1-.5-.2-.9.5-.5.8.7.7 1.5 1.3 2.3 1.7 1.4.9 1.6.9 2.8 2.2 1.7 2.1 1.1 2 1.9 2.4l.2.3.1.6c4.3 7.5 6.3 16.8 17.7 4.5.6-.6.8-1.6.9-2.5.3-2-1-3.8-1.8-5.7Z"/><path fill="#863922" d="M238.7 90.5c-.3-.8-.6-1.7-.7-2.5-.2-.7 0-1.8-.4-2.4v.4c0 .6 0 1.3-.4 1.8-.3.4-.8.9-1.3.9h-.1l.3 2c1.3.5 2.5 1.7 2.8 3.2.3 1.3.3 3.1-.9 4-1.3 1.2-2.7-.5-2.9-1.7l.1-2c.1-.5.2-1 .5-1.3-.7-2.9-1.7-4.6-3.7-9-.4-.9-1.4-1.7-2-2.8l-1-1.7c-.6-.7-1.2-1-4.4-2.6a.6.6 0 0 0-.5 0c.8.1 1.5 1 1.6 1.7a4.9 4.9 0 0 1 0 1.9l.4.4.4-.5c.5-.2 1 .2 1.3.5l1 1.4 1.8 3.2c.3.7.8 1.4 1 2.2.3.5.2 2-.3 2.5-.8.7-1.4-.6-1.5-.7l-.2-1.5-.2-.4c-1.7-2.9-3.2-4.5-4.1-5.7-.4-.6-.7-1.2-1.2-1.7-.7-.7-1.3-.9-4.9-2.3a.7.7 0 0 0-.9.3c1.9.2 2.7 2 2.8 3.7l1 1a2 2 0 0 1 1.8.4c.4.5 1 1.4.6 2l-.6.4.6 1.2-1.2-1.2h-.1a17 17 0 0 1-.7-.7l-1.3-1.5c-.8-.5-1.4-.6-5-1.5-.2 0-.5 0-.6.2 1.8.3 3.4 1.7 3.3 3.6a7 7 0 0 1 2.3 2.3l1.4 2-2-1.8c-.4-.4-.8-.8-1.3-1-.6-.5-1.1-.5-4.2-1h-.3c.8 0 1.5.5 2 1.1.4.5.6 1.2.7 1.8l.6.3c.1-.2.4-.3.6-.2.4.1.7.5.8 1v.4c0 .1 0 .2.2.3v.1c.6-.5 1.6.2 2 .6.6.5 1.2 1.5.6 2.3a1 1 0 0 1-.4.3l.1.2c.6.1 1.3.4 1.8.7 1.6 1 2.2 2.6 2.8 4.2.5 1.6 1.2 3.3 2.4 4.5l1 .9c2.3.2 5.3-1.3 9.6-6 .6-.6.7-1.6.9-2.5.3-2-1-3.8-1.8-5.7Z"/><path fill="#79311D" d="M221.3 79.4c.4.3 1 .6 1.5.4l.6-.2L220 78c.3.6.8 1 1.3 1.3Z"/><path fill="#8E3F24" d="M225.8 87.2c0-.3-.3-.6-.6-.6s-.5 0-.7.2l.9 1.5c.5 0 .5-.7.4-1.1ZM222.3 88.4c-.2 0-.6-.2-.8 0l.7 1c.4-.1.4-.8 0-1ZM220.7 86.1c-.2-.2-.6-.4-1-.3l-.3.2c.5.4.9.7 1.5 1.5 0-.2.2-.4.1-.6 0-.3 0-.6-.3-.8Z"/><path fill="#79311D" d="m223.9 86.2-.6-.6h-.1a16 16 0 0 1-.7-.7l-.7-.9c0 .6.4 1.2.8 1.6.1.2 1 1.1 1.3.6ZM220.4 83l-2.7-.7c.8.8 2 1.5 2.7.7ZM227.5 84.7c-.9-1.2-1.7-2.1-2.2-3l-.7-.9c0 1 .4 2 1 2.8.3.5 1.3 1.5 2 1.1ZM217.4 87.2c.2.1.5.2.7.1.2-.1.2-.3.3-.6l-1.7-.3c0 .3.5.7.7.8ZM221.4 89l-.8-.8c-.2 0-.3-.2-.4-.4 0 .3.1.6.3.8.2.3.7.7.9.3ZM226 77.8c.1.4.2 1 .5 1.4.1.3.5.5.7.1l.2-.7v-.3a81.8 81.8 0 0 0-1.4-.5ZM230.5 82.3h.3a7.8 7.8 0 0 1-1.1-1.8v.9c0 .4.3.8.8.9ZM238 90.4l.9.4-.1-.2-.4-.4.1-.3a12 12 0 0 1-.6-2.3 3 3 0 0 0-.6 1c-.4.7 0 1.4.6 1.8Z"/><path fill="#6C2818" d="M240.3 94.4v.6c-.2.9-.5 1.7-1 2.5-.4.8-1 1.5-1.5 2.3l-1.8 2.4c1-.9 2.3-2 3.6-3.4.6-.7.7-1.6.9-2.5a5 5 0 0 0-.2-1.9Z"/><path fill="#79311D" d="M229.6 88s-.9 1.4-.3 2.2c0 0 .1.2.3.2.4-1.2.2-.6 0-2.5Z"/><path fill="#8E3F24" d="m232.3 91.7-.1-.6c-.4-.8-1-.6-1.5-.2-.6.4-.7.8-.5 1.5 0 .2.2.3.3.4.3.4.9.4 1.3.1.4-.3.6-.8.5-1.2Z"/><path fill="#79311D" d="m229.7 95.2-1.6.9c-.6.2-1.2.3-1.8 0l-.4-.3c0-.4.4-.7.7-.8a6 6 0 0 1 1.6-.3h1.2c1 .3 2-.3 2.7-1.4.2-.3.4-.7.8-.7.5 0 .8.6.6 1-.2.4-.6.7-1 .8-1 .4-1.9.5-2.8.9ZM235.9 93.6l-1.5.9c-.4.3-.8.5-1.1.9-.3.4-.5.9-.4 1.3 0 .2.1.4.3.5.3.2.7 0 1-.2l.5-1c.2-.8.5-1.7 1.1-2.3h.1ZM223.4 91.7c-.1-.6-.4-1.2-.8-1.7v.6l-.1.8.1.8c.2.2.6.2.7 0v-.5ZM226.1 90c-.1-.6-1.1-2.7-1.6-3.2 1.2 2.5.8 1.6.7 3 0 .2 0 .5.2.7.2.2.6.1.7-.1V90ZM218.5 87.7v.7c-.2.3-.5.6-.8.6.3-.3.3-.7.4-1 0-.2.1-.2.2-.3h.2ZM220.2 84.2v.3c0 .2 0 .4-.2.6-.2.3-.5.6-.9.6.4-.3.4-.8.7-1.2l.1-.3h.3ZM223 80.6v.2c0 .2-.2.4-.4.5-.2.3-.6.5-1 .4.4-.2.6-.7.9-1l.2-.2h.3ZM222.9 87v.2l-.6.4c-.3.2-.7.3-1 .1.4 0 .7-.5 1-.7l.3-.1h.3ZM226.2 85.6l-.1.3-.6.3c-.3 0-.8.1-1-.1.4 0 .8-.4 1.2-.6h.3l.2.1ZM230.8 84.3v.2l-.6.3c-.4.2-.8.2-1.1 0 .4 0 .8-.4 1.2-.6h.3l.2.1ZM221.1 90.2v.2a1 1 0 0 1-.5.3c-.3.2-.6.3-.9 0 .4 0 .7-.3 1-.5l.2-.1.2.1ZM222.4 92.4c-.1-.2-.3-.1-.4 0-.3.1-.4.5-.5.9.2 0 .2.2.3.4v.2c0-.3.2-.5.3-.7l.2-.4v-.4Z"/><path fill="#8E3F24" d="M230.5 101.5c.1.2.4.2.6.3.7.1 1.5.2 2-.3l.3-.5c.2-.7.2-1.5-.3-2.1-1.4-2.2-3.7.2-2.9 2.2l.3.4ZM224 92.6c.8.2 1.6-.3 1.9-1 .6.3 1.4.1 2-.3 0-.2.2-.3.3-.3h.3a4 4 0 0 0 3.1-.1c.2.6.3 1.3 0 1.8-.3.4-.8.7-1.2.8-1.3.3-2.6.3-3.8.9l-.9.5c-.9.3-2 0-2.5-1 .6-.1 1-.7.9-1.3Z"/><path fill="#1E6AC6" d="M319 140.4c9.6 0 17.4-1.7 17.4-3.8 0-2-7.8-3.7-17.4-3.7-9.6 0-17.4 1.7-17.4 3.7s7.8 3.8 17.4 3.8Z"/><path fill="#6F2910" d="M312.5 67.7c3.5-1 7.8-1.5 11.3-.6 7.2 1.8 6.8 1.4 8.3 2.2a13 13 0 0 1 3.5 3l.5.6c5.6 6.9 5.7 12 5.1 20.8-.3 4.6-2.9 8.7-4.9 12.8-5 10.2-8.9 18-2 27.6.7 1 1.8 2.1 1.5 3.4-.2.6-.8 1-1.4 1.5-15 10.5-31.4 2.7-32-.2-1.2-4.7.5-9 1-13.5 1.9-14.7-3-27.2-3-33.3 0-3.2-.4 1.5 5.3-17a12 12 0 0 1 2.5-5 9.7 9.7 0 0 1 4.3-2.3Z"/><path fill="#79311D" d="M336.8 100.8a7 7 0 0 0-4 2 3.9 3.9 0 0 0-.5 4.6c.5 1 1.3 1.8 2.2 2.4h.2l1.6-3.3c1-1.9 2-3.7 2.9-5.7h-2.4Z"/><path fill="#8E3F24" d="M332.6 114.7a51.3 51.3 0 0 1-11.1.5l-7.5-.3a48.4 48.4 0 0 1-10.4-2c.4 3.8.4 8-.1 12.4-.6 4.4-2.3 8.8-1.2 13.5.7 3 17.2 10.7 32.1.2.6-.4 1.2-.9 1.4-1.5.3-1.2-.7-2.4-1.5-3.4-5-7-4.3-12.8-1.7-19.4Z"/><path fill="#863922" d="M334.3 134.1c-5-7-4.3-12.8-1.7-19.4a51.3 51.3 0 0 1-11.1.5l-7.5-.3a48.3 48.3 0 0 1-10.4-2c.3 3.4.4 7.1 0 11 2.9.9 5 3 5 3h1l1.2-.5c3.8-.2 8.4 10.6 8.7 15.1v2.8c4.7-.3 9.9-1.8 15-5.3.5-.4 1-.9 1.3-1.5.3-1.2-.8-2.4-1.5-3.4Z"/><path fill="#994326" d="M309.6 127.3c-6.7-.6-6.9 13.6.2 10.6 3.4-1.4 3.4-10.4-.2-10.6Z"/><path fill="#79311D" d="M331.3 118.8a50 50 0 0 0-6.3-.9l-8.2-.6c-4.3-.4-8.7-.7-13-.3v5.6c5 1.2 4 3.3 5.6 2.6.9-.4.5-1.3 4 0l2.6 1a21.1 21.1 0 0 1 9 8.3c.5.7 4.2 7.4 4 7.6 1.8-.8 3.6-1.8 5.4-3.1.6-.4 1.2-.9 1.4-1.5.3-1.2-.8-2.4-1.5-3.4a17.2 17.2 0 0 1-3-15.3Z"/><path fill="#8E3F24" d="M339.4 72.5v13.2H337.5a91 91 0 0 1-4.4-.2h-.1l-.7-.1H331.8a229.9 229.9 0 0 1-.8-.1h-.2l-.7-.2h-1l-.4-.1-.6-.1h-.4l-.3-.1h-.4l-.2-.1-1.2-.2h-.2l-.7-.2-1.5-.3h-.4l-5.3-1.4-.7-.2-.6-.2h-.1l-.6-.2-4-1.4c0 .4-.2.7-.4 1v.4l-1 2.5-.2.2-.1.4-.5 1.2a193.5 193.5 0 0 1-2.3 5l-.6 1.3-1 2.1v.3l-.1.1a20.4 20.4 0 0 1-1.3 2.3l-1 1.1v.4h-.1v-1.7c0-3.2.5-7.9-.5-10.8l.1-.3 1.1-3 1.5-4.7 1-3 1.7-5a46.8 46.8 0 0 0 1.1-3.9v-.3a19.7 19.7 0 0 0 .5-3l2.4.3h.1l.7-.3c1-1 1.3-2.5 1.3-4.5v-.3c0-3.4-1-8.3-1.4-14.5l.1-.8c.1-.3.4-.5.6-.7a9.8 9.8 0 0 1 1.7-1c3.5-1.6 10.7-3.8 11.7-.7.3.8-.6 6.2-.8 12a50.6 50.6 0 0 0 .3 5.8 8.3 8.3 0 0 0 2.4 5.4 21 21 0 0 0 3.8 3.2l2 1.4 1 .6.4.3a38.2 38.2 0 0 1 1.4 1l.2.2.3.2a15 15 0 0 1 1.7 1.7Z"/><path fill="#863922" d="m334.7 68.8-1-.2c-6.6-1.8-10-4.5-11.5-6.8-1.5-2-1.5-3.8-1.4-4.1.3-1.4 4.6-.1 5-1.5v-.3l.3 2.6a8.3 8.3 0 0 0 2.4 5.4 21 21 0 0 0 3.8 3.2l2.4 1.7Z"/><path fill="#79311D" d="M327.4 62.6a15 15 0 0 0-5.2-.8c-3.3.2-3.6 1.8-7.6-2.5l-.7-.6v-.3c0-3.4-1-8.3-1.4-14.5l.1-.8c.1-.3.4-.5.6-.7a9.8 9.8 0 0 1 1.7-1c3-1.4 8.7-2.7 9.7.3.2.7.5 5.8 1.2 11a52.1 52.1 0 0 0 .3 5.8c.1 1.5.4 2.7 1.3 4Z"/><path fill="#8E3F24" d="M307.2 129.9c-.2.5 0 3.7.8 3.4.2 0 .2-.6.3-.8 1.6-3.4-.6-3.7-1-2.6Z"/><path fill="#863922" d="m337.6 70.8-4-2.8c-5.6 1.5-10 5.1-14 9.4-1.2 1.4-2.5 3-3.5 4.8a79.7 79.7 0 0 0 23.2 3.5V72.5a18 18 0 0 0-1.7-1.7ZM313.6 62.9c-.3.2-.7.3-1 .3 1-1 1.3-2.5 1.3-4.5v-.3l.7 1 .3.7c.2 1-.4 2.2-1.3 2.8Z"/><path fill="#863922" d="M323 80.1c-3.4-1-6.7-2.8-8.6-6-1.2-2-1.9-4.4-2.4-6.7-.3-1.4-.4-2.6-.5-4l-2.1-.1c-.1 1.7-.5 3.5-1 5.1-.7 2.4-1.6 4.7-2.4 7-1.2 3.7-2.1 7.4-3.6 11 1.2 3.5.4 9.5.4 12.5h.1v-.3h.1c1.1-1.1 1.8-2.5 2.5-3.9A262.1 262.1 0 0 0 311 82c.2-.5 2.7 6.4 2.9 6 3.7 1.3 5-4.9 8.9-4l.2-3.9Z"/><path fill="#22130B" d="M308.4 130.7c-.3 0-.6.5-.7 1.2-.1.7 0 1.3.4 1.4.2 0 .5-.5.6-1.3.1-.7 0-1.3-.3-1.3Z"/><path fill="#79311D" d="M315.7 87.1c-7-3.2-4.3-21.1-4-23.6h-.1l-2.3 2.7-5.8 16.8s7.6 11.2 7.9 11.2c.2 0 12-3.6 4.3-7Z"/><path fill="#994326" d="M319.4 70c0 .1.1.3.3.3l.5.2c.6 0 3 0 2-1.3-.5-.7-2.1-.3-2.6.3-.2 0-.3.2-.2.4ZM315.6 69.3c0 .2-.1.4-.3.4l-.6.1c-.6 0-3-.4-1.9-1.5.7-.6 2.3 0 2.7.6.1.1.2.3.1.4Z"/><path fill="#863922" d="M302 138.1c5 5 16.6 6.7 21.8 5.6l.3-1.2c.2-1.7-.2-3.5-.8-5-.5-1.3-1.1-2.5-2-3.6-1-1-2-1.8-3.4-2 2.4 2.2 4.4 10.3-15.8 6.2Z"/><path fill="#4C8AE4" d="m304.7 91.1 7.2.7 22.6 14c-.2 0-2.2 4.1-2.3 4.4-1 2.5-1.3 6-.4 8.6.5 1.3 5.9 8.7.9 8.3-4-.3-7.3-3.6-11.4-4-4.6-.5 1.4 7.8-7.8.5-6-4.8-20.6.5-11.3-11.7l2.5-20.8Z"/><path fill="#2D76E0" d="M322 121.9c1.8-.3 3.3.8 4.8 1.6a6 6 0 0 0 2.2 1c.9 0 1.8 0 2.6-.4.9-.3 1.7-.7 2.4-1.3-.8-1.7-2-3.4-2.2-4-.9-2.6-.6-6 .4-8.6.1-.3 2-4.5 2.3-4.3l-22.6-14.1-7.2-.7-2.5 20.7-.8 1.1h.3a10 10 0 0 1 4.1 0c1 .3 1.8 1 1.8 2 0 1.7-1.4 2.7-2.7 3.5l-2.5 1.3-1 .6c2.6.9 6.8.8 10 2.1l1.2-.7c1.2-.5 2.9-.7 4 .3 1 1 1 2.7 1 4l-.1.3c2.4 1.2 1.3-1.5 2.1-2.7.3-1 1.4-1.6 2.4-1.7Z"/><path fill="#1E6AC6" d="M314 117c1.9-1 4.1-2 6.4-2 1.5.1 2.9.6 4.3 1.2l1.5-5.1c.6-1.9 1.2-3.7 2.2-5.4.5-1 1-1.8 1.7-2.6l-18.2-11.3-7.2-.7-2.2 18.8a11 11 0 0 1 2.3-.1c2.8 0 6.7 1.1 6.8 4.5 0 2-1.6 3.8-3 5-.9.7-1.9 1.2-2.8 1.8l1.8.3 1-.8c1.7-1.3 3.4-2.6 5.4-3.6Z"/><path fill="#1E6AC6" d="m332.1 119.4-.3-.6c-.4-1.1-.5-2.5-.5-3.8l-17.3-6-.3.2-.4-.3-11 2v1s2.1.9 7-.3l.9-.2c6.3 6.4 19.6 17 22 8Z"/><path fill="#71ABFF" d="m337.4 69.1-.4 1.2 1.5 2.2c-2.2-.1-5 .8-7.7 5.6-4.8 8.8 0 20-7.6 26.4-7.6 6.5-21 7.4-21 7.4L301 99.5c5-3.7 5.6-7.5 10.7-13.4 6-7 15.6-15.7 22-17.5 1.5-.4 2.6.2 3.7.5Z"/><path fill="#5391E5" d="m337 70.3.4-1.2c-.9-.2-2 0-3 .3-6.4 2.5-8 11-6 16.8.4-2.8 1-5.6 2.4-8.1 2.6-4.8 5.5-5.7 7.7-5.6l-1.5-2.2Z"/><path fill="#5391E5" d="m337 70.3.4-1.2-.9-.1c.2.3.2.8 0 1.2 0 .7-.5 1.3-1 1.9-.6.8-1.5 1.6-2.3 2.4-2 1.8-3.3 4.1-4.8 6.3-1.1 1.5-2.2 3-3.5 4.4-1.2 1.1-2.8 2.3-4.5 2.4-2 .2-3.5-1.2-4.4-2.9-.4-.8-.7-1.7-.7-2.5a89 89 0 0 0-3.6 3.8c-5.2 6-5.7 9.8-10.7 13.5l.5 4.8a8 8 0 0 1 1.7 3.7c.3 1.2.3 2.5 0 3.8a40 40 0 0 0 20-7.3c7.5-6.5 2.8-17.6 7.6-26.4 2.6-4.8 5.5-5.7 7.6-5.6l-1.4-2.2Z"/><path fill="#4C8AE4" d="M322.8 97.1c-1-.4-1.7-1-2.4-1.7-.6-.8-1-1.7-1.5-2.6-.7-1-1.4-1.8-2.5-2.3-1-.4-2-.7-2.8-1.3a5 5 0 0 1-2-3c-5 5.8-5.6 9.7-10.6 13.3l.3 2.9 1.9 2.7c1 2 1.6 4.3 1.4 6.5 4.2-.6 13-2.3 18.6-7.1 2.3-2 3.4-4.4 4-7-1.4.2-3 .1-4.4-.4Z"/><path fill="#5391E5" d="m307.7 65.3-6.1 16c3.6-5.7 4.5-10 6.1-16Z"/><path fill="#601D0E" d="m310.4 64.7-.3-1.2-.4.1-.3 1.3-.3.8 1.3-1Z"/><path fill="#71ABFF" d="M299.9 85.6c1.8-4.3 6.8-18 8.2-21.5 0-.2.2-.6 1.3-.8.8-.3 2.3-.3 2.5.1 0 0-4 10.4-2.6 19 1.3 8.5 27 24.1 27 24.1l-3.5 11.4c-1 3.4-5 4.8-7.9 3-14.1-8.9-31-21.5-25-35.3Z"/><path fill="#5391E5" d="M313.7 89.4c-2.4-2.5-4.1-5-4.4-7a43.4 43.4 0 0 1 2.5-18.6c-7.3 16-3.6 20.5 2 25.6ZM313.8 89.4c-.6 1.3-1.3 2.5-2.3 3.5-1.3 1.3-3 2.4-4.6 3.2a11 11 0 0 1-5.5 1.1c-.6 0-1.1-.1-1.7-.3v.1c.9 2.1 2 4.1 3.4 6 5.7 7.5 14 13 21.8 17.9 3 1.8 6.9.4 8-3l3.4-11.4s-14.8-9-22.5-17Z"/><path fill="#4C8AE4" d="M326.2 99.8a38.7 38.7 0 0 1-12.8 13.2c3.7 2.8 7.7 5.5 11.5 7.9 3 1.8 6.9.4 8-3l3.4-11.4s-4.6-2.8-10.1-6.7Z"/><path fill="#1E6AC6" d="M331 98.2c-3.8-2.4-7.3-3.7-7.7-3-.5.7 2.3 3.2 6.1 5.6 3.8 2.3 7.3 3.7 7.7 3 .5-.8-2.3-3.3-6.1-5.6Z"/><path fill="#8E3F24" d="M337 69c-3.5.4-6.4 5-7.6 7.8l-6 19.5c-.2.8-2 2.7-3.6 4.4-1.6 1.5-4.5 2.6-5.1 3-1.4 1-18 14.1-18.7 14.9-.7.8-.6 2.2-.4 3.6h.8l.6 3.4c6.7-1.6 18.3-6.3 24.4-9a50 50 0 0 0 10.2-7.5c.5-1 1.4-1.8 2.2-2.6 1.6-1.7 2.9-4.1 4.4-6 9.2-11 3.7-31.9-1.2-31.4Z"/><path fill="#863922" d="M337.3 69c2.4 4.5 1 10.3-2 14.2-1.4 1.9-3.4 3.7-5.8 4.1-1.2.2-2.2.1-3.3-.2l-2.8 9.2a16.5 16.5 0 0 1-4.7 5.2c.7 3.7 0 7.6-2.8 10.1-1.2 1.1-2.7 1.9-4.2 2.5-1.7.7-3.5 1.2-5.3 1.4-2 .3-4.3.3-6.3-.3l-4.1 3.4c-.7.7-.6 2.2-.4 3.6h.8l.6 3.4c6.7-1.6 18.3-6.3 24.4-9a50 50 0 0 0 10.2-7.5c.5-1 1.4-1.8 2.2-2.6 1.6-1.7 2.9-4.1 4.4-6 9-10.8 4-30.8-.9-31.4Z"/><path fill="#79311D" d="M305.7 121a17.2 17.2 0 0 1-6.5-5 72 72 0 0 0-3.2 2.6c-.7.8-.6 2.2-.3 3.6h.7l.6 3.4c3-.7 7.2-2.1 11.3-3.7-.9-.2-1.7-.6-2.6-1Z"/><path fill="#6C2818" d="M296.4 122.2v.1c.7 0 1.4 0 2-.4 1.2-.6 1.2-2.2.9-3.3l-1-2-2.3 2c-.7.8-.6 2.2-.3 3.6h.7Z"/><path fill="#79311D" d="M338.7 69.7c1.2 1.5 2 3.4 2.4 5.2.6 1.8 1 3.8 1.2 5.7.4 4.3-.2 9.4-3.7 12.3a5 5 0 0 1-3 1.3l-2-.2c-.5 0-1-.2-1.5.1-.6.4-.3 1.4 0 2 .5.7 1.3 1.3 2 1.9 1.3 1 2.6 2 3.7 3.1l.4-.5c8.2-9.9 4.8-27.4.5-30.9ZM336.3 100.3l-2.2-1.8-1.6-1.3-1.3.5.2.4c1 2 1.5 4.4 1 6.7-.6 2.3-1.9 4.5-3.6 6-1.7 1.7-4 3-6 4.2a83.4 83.4 0 0 1-5.6 3.3l4.2-1.8a50 50 0 0 0 10.2-7.4c.5-1 1.4-1.8 2.2-2.6 1.4-1.4 2.5-3.4 3.7-5l-1.2-1.2Z"/><path fill="#6C2818" d="m338 100.8-.7-2.6-9-3.8-4.1-.4-.4 1-.2.7c.4 0 3.5.5 6.6 2.9 3.4 2.6 5 5.2 3.6 7.9 1.6-1.6 2.8-4 4.2-5.7Z"/><path fill="#4C8AE4" d="M323.3 95.3v-.1c.5-.7 4 .6 7.7 3 3.8 2.3 6.6 4.8 6.1 5.5v.1c1.4-1 2.3-3 2.9-4.7.4-.7-2.3-3.2-6.1-5.5-3.8-2.4-7.3-3.7-7.7-3a9.4 9.4 0 0 0-3 4.7Z"/><path fill="#5391E5" d="M323.3 95.3v-.1c.2-.4 1.2-.2 2.6.3l1.2-.3c3-.4 6 .1 8.7 1.4 1.2.7 2.4 1.4 3.6 2.3l.5.4.1-.2c.4-.7-2.3-3.2-6.1-5.5-3.8-2.4-7.3-3.7-7.7-3a9.4 9.4 0 0 0-3 4.7Z"/><path fill="#71ABFF" d="m323.3 95.1.5-.6c.6-.6 1.2-1.1 2-1.5 1.6-.8 3.6-1.1 5.4-1-2.6-1.3-6.2-2.6-6.5-2 0 0-1.2 1.1-1.6 2.4-.2 1-.2 2.3.2 2.7Z"/><path fill="#8E3F24" d="M298.8 122.8V123.5l-.1.1a2.9 2.9 0 0 1 0 .3c-.2.6-.5 1.2-1 1.5-.9.7-2 .5-3.1.4-1.3 0-2.6.2-4 .4-1.2 0-2.6 0-3.7-.6l-.9-.6-.2-.2v-.1c-.8-.7-1.3-1.5-1.8-2.4-.4-.8-.9-1.6-1-2.6-.2-.7-.1-1.5-.1-2.2.1-2.2.2-4.4-.1-6.5-.2-.8-.4-1.6-.3-2.4l12.5 3.3 1.2.3h.2l.3.5.3 1c.7 3 1.8 5.7 1.8 8.6v.5Z"/><path fill="#8E3F24" d="M293.7 114c-1 .6-2.3.2-2.5-.9-.8 1-3 1.2-3.6 0a2 2 0 0 1-2 1.4c-1 0-1.9-.5-2.6-1.3v2c1.2 1.2 4 .9 5.4.6 1.4-.2 2.9-.6 4.3-.4a4 4 0 0 1 1.9.8l.4.3c0 .2.2.3.3.4.4.3.7-.5.7-.8v-1c-.8 0-1.8-.3-2.3-1Z"/><path fill="#863922" d="M298.8 122.8v.2a3 3 0 0 1-.1.5v.4c-.2.6-.5 1.2-1 1.5-.9.7-2 .5-3.1.4-1.3 0-2.6.2-3.9.4-1.3.1-2.6 0-3.8-.6l-.9-.6-.2-.2v-.1c-.8-.7-1.3-1.5-1.8-2.4-.4-.8-.9-1.6-1-2.5-.2-.8-.1-1.6-.1-2.3v-2c1 .8 2.4 1 3.5.9 1.2 0 2.3-.3 3.5-.5 1.4-.2 3-.4 4.4.4l.5.6c.2.2.3.4.5.4.5.1.9-.4 1-.8.1-.5.1-1 0-1.6a8.4 8.4 0 0 0-1.3-3l1.2.3h.2l.3.6c.2.3.2.6.3 1 .7 2.8 1.7 5.6 1.8 8.5v.5Z"/><path fill="#4A1B0B" d="M279.9 98.6c.7-.3 2.2 4.7 2.2 4.8l-.1.3c-1.1 1.2-2.7-4.4-2.1-5Z"/><path fill="#8E3F24" d="M284.7 107.5c-.2-.6-1.3-2.7-2-3.5-.3-.5-1.5-3.4-2-3.7-.5-.3-.8.3-1 .8-.2 2 .9 3.6 1.6 5.3.2 1.6.8 2 1 2.6v.1c.2 1.3 1.4 4.3 3 4.6.4.1 1.2.2 1.5-.4.5-1.2-2-5.5-2.1-5.8Z"/><path fill="#863922" d="M284.7 107.5c-.2-.6-1.3-2.7-2-3.5-.3-.5-1.5-3.4-2-3.7h-.4c.6.3.7 1.7.6 2.3 0 .5-.4 1-.8 1.2.3.9.8 1.7 1.2 2.6v.1c.6 0 1.5.8 1.3 1.5 0 .3-.3.5-.5.6l.3.4V109.8c1-.4 2.2-.2 2.6 1 .3 1 0 1.8-.7 2.4.3.2.6.5 1 .5.4.1 1.2.2 1.5-.4.5-1.2-2-5.5-2.1-5.8Z"/><path fill="#79311D" d="M284.7 107.5c-.2-.6-1.3-2.7-2-3.5-.3-.5-1.5-3.4-2-3.7h-.1l.6 1a7.5 7.5 0 0 1 .5 2.2c0 .3-.1.6.1 1l.8.5c.3.3.5.6.6 1 .2.2.5.6.5 1v.8c0 .4.3.6.5 1l.5.7a10.5 10.5 0 0 1 .9 4.3c.4 0 1 0 1.2-.5.5-1.2-2-5.5-2.1-5.8Z"/><path fill="#79311D" d="m281.6 103.9-.4.5c-.1.4.3.3.4.2l1.2-.3h.2l-.2-.3-.8-1.5c0 .5-.1 1-.4 1.4ZM284.2 107l-.8 1.3c-.2.6.5.2.7 0l.7-.5-.1-.3-.4-.9-.1.5Z"/><path fill="#4A1B0B" d="M282.6 95.4c.8-.4 2.2 5.4 2.2 5.5l-.1.4c-1.3 1.4-3-4.8-2-6Z"/><path fill="#8E3F24" d="M287.7 105.8c-.1-.7-1.4-3.2-2.1-4.2-.4-.5-1.8-4-2.3-4.3-.7-.4-1 .3-1.2 1-.4 2.3 1 4.2 1.7 6.1.2 2 .8 2.4 1.2 3.1v.2c0 1.5 1.5 5 3.3 5.4.5.2 1.5.2 1.8-.4.7-1.4-2.1-6.5-2.4-6.9Z"/><path fill="#863922" d="M287.7 105.8c-.1-.7-1.4-3.2-2.1-4.2-.4-.5-1.8-4-2.3-4.3h-.5c.6.4.8 2 .6 2.6a2 2 0 0 1-1 1.4l1.4 3.1v.2c.7 0 1.7 1 1.5 1.8-.1.3-.3.5-.6.6l.3.5v.1l.1.9c1-.5 2.5-.2 2.9 1.1.4 1.2 0 2.2-.9 2.8.4.4.8.6 1.2.7.5.2 1.5.2 1.8-.5.7-1.3-2.1-6.4-2.4-6.8Z"/><path fill="#79311D" d="M287.7 105.8c-.1-.7-1.4-3.2-2.1-4.2-.4-.5-1.8-4-2.3-4.3h-.3c.4.3.6.8.8 1.3l.4 1.7.1.7c0 .4-.1.8.2 1.1l.9.8.7 1c.2.4.5.9.5 1.3v1c0 .5.3.7.6 1l.5 1a12.6 12.6 0 0 1 1 5c.5 0 1.1 0 1.4-.5.7-1.4-2.1-6.5-2.4-6.9Z"/><path fill="#79311D" d="m284.2 101.5-.5.7c-.2.4.4.3.5.2.5-.2 1-.4 1.4-.4h.2l-.2-.4-1-1.7c0 .6 0 1.2-.4 1.6ZM287.1 105.3c-.2.5-.7.9-.9 1.4-.3.8.7.3.9.1.3-.2.5-.5.8-.6 0-.2-.1-.3-.2-.3l-.3-1-.2.4Z"/><path fill="#4A1B0B" d="M286.6 96.1c.7-.4 2.2 5.5 2.1 5.6l-.1.3c-1.3 1.5-2.8-5.3-2-5.9Z"/><path fill="#8E3F24" d="M291.6 106.7c-.2-.8-1.4-3.3-2.1-4.3-.4-.5-1.8-4-2.2-4.3-.7-.5-1 .2-1.2.9-.5 2.2.8 4.2 1.6 6.2.1 2 .8 2.3 1.1 3v.2c0 1.5 1.4 5 3.2 5.6.6 0 1.5.2 1.8-.5.7-1.3-2-6.5-2.2-6.8Z"/><path fill="#863922" d="M291.6 106.7c-.2-.8-1.4-3.3-2.1-4.3-.4-.5-1.8-4-2.2-4.3-.2-.2-.4-.2-.5-.2.6.5.7 2 .6 2.8a2 2 0 0 1-1 1.3c.3 1.1.9 2.1 1.3 3.2v.1c.7 0 1.7 1 1.4 1.8-.1.3-.3.6-.6.7l.3.5v.1l.1.9c1-.5 2.5-.2 2.9 1.1.3 1.3-.2 2.2-1 2.8.4.4.8.6 1.2.8.6 0 1.5.2 1.8-.5.7-1.3-2-6.5-2.2-6.8Z"/><path fill="#79311D" d="M291.6 106.7c-.2-.8-1.4-3.3-2.1-4.3-.4-.5-1.8-4-2.2-4.3l-.3-.2.7 1.4a9.3 9.3 0 0 1 .5 2.5c0 .4-.1.8.2 1l.9.9.7 1 .5 1.3v1c0 .4.2.7.5 1l.6 1a12.7 12.7 0 0 1 .8 5c.5 0 1.1 0 1.4-.5.7-1.3-2-6.5-2.2-6.8Z"/><path fill="#79311D" d="M288.1 102.3c-.1.2-.4.3-.5.6-.2.5.4.3.5.2.5-.2 1-.4 1.4-.4h.2l-.2-.3-.9-1.7c0 .6-.1 1.2-.5 1.6ZM291 106.1l-1 1.4c-.3.7.7.3.9.1l.9-.6-.2-.3c0-.3-.2-.6-.4-1l-.2.4Z"/><path fill="#601D0E" d="M293 112c-.2.5.2 1 .6 1l.3-.1c0-.4 0-1-.3-1.6l-.5.7Z"/><path fill="#4A1B0B" d="M291.1 99.2c.5-.3 1.8 5 1.8 5.1l-.2.3c-1.4 1-2.6-4.7-1.6-5.4Z"/><path fill="#8E3F24" d="M296.3 113.5h.6c-.3-1.7-1.6-4.5-1.7-4.8-.1-.6-1-2.8-1.7-3.7-.3-.5-1.3-3.5-1.7-3.8-.6-.4-1 0-1.2.6-.6 1.9.4 3.6 1 5.3 0 1.7.6 2 .8 2.7v.2c0 1.2 1 4.3 2.6 4.9.4 0 .9.2 1.3 0v-1.4Z"/><path fill="#863922" d="M296.9 113.6h-.3l-.1 1.3h-.2c-.4.2-1 0-1.3 0l-1-.7c.8-.5 1.3-1.2 1-2.3-.3-1.2-1.6-1.5-2.6-1.2v-.8l-.2-.5c.2 0 .5-.2.6-.5.3-.7-.5-1.6-1.2-1.6v-.2c-.3-.9-.8-1.8-1-2.7.5-.2.8-.5 1-1 .2-.6.2-2-.3-2.4.1 0 .3 0 .5.2.4.3 1.4 3.3 1.7 3.8a15 15 0 0 1 1.7 3.7 21.7 21.7 0 0 1 1.7 5Z"/><path fill="#79311D" d="m292.2 104.8-.5.4c-.2.4.3.3.5.3.4-.1.9-.3 1.3-.2h.2l-.2-.3-.7-1.6c0 .6-.2 1-.6 1.4ZM294.7 108.2c-.3.4-.8.7-1 1.1-.4.6.5.3.7.2l.9-.5-.1-.3-.3-.9-.2.4Z"/><path fill="#4A1B0B" d="M273.7 107.8c-.5.3 2.3 4.5 2.4 4.6l1-.9c1.6-.5-2.5-4.2-3.4-3.7Z"/><path fill="#8E3F24" d="M274.9 109c-.2.2-.3.5-.3.8a4 4 0 0 0 1 2c1.5 2.2 3.3 4 4.4 6.4l.7 2a8.2 8.2 0 0 0 2.9 3.5 6 6 0 0 0 5.7.5c.2 0 .5-.1.7-.3.6-.5.5-1.5.3-2.3-.4-1.5-1-3-2-4.1a6 6 0 0 0-3.8-2c-.8-.2-1.7 0-2.3-.6-.6-.5-.8-1.5-1.1-2.3-.5-1-1.4-1.8-2.2-2.5-.5-.5-1-1-1.6-1.2-.6-.3-1.3-.5-2-.3l-.4.3Z"/><path fill="#863922" d="M290.3 121.6c-.4-1.5-1-3-2-4a6 6 0 0 0-3.8-2.2c-.8 0-1.6 0-2.3-.5-.6-.5-.8-1.5-1.1-2.3-.5-1-1.4-1.8-2.2-2.5-.5-.5-1-.9-1.6-1.2-.6-.3-1.3-.5-2-.3l-.2.1c1.3.3 2.5 1.6 3.1 2.8.4.8.7 1.8 0 2.6 0 .2-.3.4-.5.5l.5.7c.4-.3 1-.3 1.4.1.8.7.8 2 1 3a7.7 7.7 0 0 0 1.2 2.9l.7.8.5 1.1.6.5c1.3.8 3.6 2.5 5 2.3.6-.1.2-1.7.7-1.8l.7-.3c.6-.5.5-1.5.3-2.3Z"/><path fill="#79311D" d="M279 114.2c.1.2.4 0 .6 0l.5-.5.5-.8c.2-.6-.5-.4-.7-.2l-.8.8-.2.3v.4ZM283.5 117l.1-.7s-.3 0-.3-.2l-.3-.8h-.1l-.4-.2c-.2.6.5 1.1.3 1.6 0 .3-.3.5-.4.7v.2c0 .2 0 .2.2.3h.5c.2-.1.3-.5.4-.9Z"/><path fill="#8E3F24" d="m282.5 118.9.1.3c0 .1.2.2.4.1 0-.2.2-.4.1-.7 0-.2-.3-.4-.5-.4a1 1 0 0 0-.1.7Z"/><path fill="#79311D" d="M298.8 122.8v.7c-.2.8-.5 1.5-1.1 2-.9.6-2 .3-3.1.3-1.3 0-2.6.2-4 .4-1 0-2.1 0-3.2-.3.5-.4.7-1 1-1.5 1-1.5 2.9-.5 4.2-.1 1 .2 2.2 0 3-.9 1.1-1.2 1.5-3.2 1.6-4.9.1-1.2 0-2.4-.3-3.6l-.3-1.3-.4-1.4v-1l.5 1.6c.2.3.2.6.3 1 .7 2.8 1.8 5.6 1.8 8.5v.5Z"/><path fill="#79311D" d="M293.3 117.9c-.7-.6-1.5-.9-2.4-1l-2.6-.1-3.3-.3c-.8 0-1.6-.1-2.3-.5l.3.7c.8.7 2 .7 3 .6 1.8-.2 3.7-.6 5.4 0 .4.2.8.4 1 .7.4.2.8.5 1.2.5 0-.2-.1-.5-.3-.6Z"/><path fill="#79311D" d="M286.2 117.2h-1.4a34 34 0 0 1 3.2 1.8c.8.6 1.7 1.2 2 2.2l.3.6c.1.1.4.2.5.1-1-2-2.6-3.7-4.6-4.7Z"/><path fill="#8E3F24" d="M290.7 118c-.2-.3-1.4-.7-1.7-.6-.8 0-.4.8 0 1.1l1 .7c.3.2.6.4.9.2.1-.1 0-1.1-.1-1.3v-.1Z"/><path fill="#6C2818" d="M333.3 107a39.8 39.8 0 0 0-10.4-9.8l-.3.4a40.5 40.5 0 0 1 10.3 9.7l.4-.4Z"/><path fill="#9DAFAE" d="M334.2 103.2a40.5 40.5 0 0 0-11.3-6.6c-.3 0-.5.1-.6.3-.1.1-.2.4.2.9l.3-.5v-.1a40.7 40.7 0 0 1 10.8 6.3c1.4 1 1.6 1.5 1.7 1.6H335l-.4.5h.5c.3 0 .5 0 .6-.2.2-.3.2-.8-1.5-2.2Z"/><path fill="#F3F3F3" d="M334.2 103.2a40.5 40.5 0 0 0-11.3-6.6c-.3 0-.5.1-.6.3l-.1.2h.7a40.9 40.9 0 0 1 12.3 7.8l.4.7.1-.2c.2-.3.1-.8-1.5-2.2Z"/><path fill="#CDD5D4" d="M334.2 103.2a40.4 40.4 0 0 0-9.1-5.8c-.4 0-.9 0-1.3-.2-.4 0-1.1 0-1.3-.5-.1 0-.2 0-.2.2l-.1.2h.7a41 41 0 0 1 12.3 7.8l.4.7.1-.2c.2-.3.1-.8-1.5-2.2Z"/><path fill="#C88300" d="M276.7 191.6a4.3 4.3 0 0 1 1.1 3.8 4.3 4.3 0 0 0-1-3.8Zm1.7 2.3a4.9 4.9 0 0 0-5.7-4.1h-.5v.1h-.3v.1a4.9 4.9 0 0 0-3 2.9v.5l-.1.2v.5l-.1.3v1a4.7 4.7 0 0 0 1.3 2.4v.1h.1c0 .2.2.2.2.3l1 .7.3.1h.2v.1h.2l.2.1a8.7 8.7 0 0 0 .7.2H274.5c.8-.2 1.5-.5 2-1h.1l.2-.2a5 5 0 0 0 1.6-3.6v-.7Zm-7.8-2.5a4.4 4.4 0 0 1 1.6-1h.1a2.9 2.9 0 0 1 .4-.1 2.2 2.2 0 0 1 .4 0h.5a4.3 4.3 0 0 1 2.8 1h.1l.1.2h.1a4.3 4.3 0 0 1 1.1 3.9c0 .5-.2 1-.5 1.4a4.4 4.4 0 1 1-6.7-5.4Z"/><path fill="#E3BD00" d="M277.5 192c-.4-.4-.8-.7-1.3-.9a4.3 4.3 0 0 1 .2 6.8c.4 0 .8-.2 1.1-.5l.3-.3c.3-.6.5-1.1.6-1.8v-.5c0-1-.2-2.1-1-2.8Z"/><path fill="#B45F00" d="M275 190.4c.3 0 .7 0 1 .2l.8.3a4.8 4.8 0 0 0-4.7-1l-.1.2c-.6.2-1 .8-1.4 1.3a4.3 4.3 0 0 1 4.3-1ZM275.6 198.4c-.6.4-1.3.5-2 .5-2 0-3.6-1.2-4.2-3l.5 2a4.9 4.9 0 0 0 6.9.3c-.4.2-.8.2-1.2.2Z"/><path fill="#E3BD00" d="M269 194a7.6 7.6 0 0 1 1.5-3.2 4.9 4.9 0 0 0-1.4 5.7c-.2-.8-.2-1.6 0-2.4ZM272.5 191.5a.3.3 0 0 1-.2-.3c-.7-6 3.1-11.2 5.5-13.7 2-2.3 4.4-4.2 6.7-6.1l4.6-4c7.8-7.1 13-16.9 14.8-27.4 0-.1.1-.2.3-.2l.2.3a48.6 48.6 0 0 1-15 27.8l-4.5 3.9c-2.3 1.9-4.7 3.8-6.7 6-2.3 2.5-6 7.5-5.4 13.4 0 .1 0 .2-.2.3Z"/><path fill="#C88300" d="M272.7 189.5a1 1 0 0 1-.5-.3v2l.3.3c.2 0 .3-.2.3-.3v-1.7Z"/><path fill="#B45F00" d="M272.5 190.7h.3v-1h-.1l-.5-.1v1.3l.3-.2Z"/><path fill="#B45F00" d="M272.2 190.3v.9l.4-.2h.2v-.7h-.6Z"/><path fill="#C88300" d="m278.7 177-1.1 1c-.4.5-1 1-1.3 1.5l-1.3 2c-.4.5-.8 1-1 1.7-.8 1.6-1.1 3.5-1.2 5.3a19.6 19.6 0 0 1 6-11.3l-.1-.2Z"/><path fill="#C88300" d="M304.2 139.8c-.2 0-.3.1-.3.3a48.3 48.3 0 0 1-19.4 31.3c-2 1.7-4.2 3.5-6 5.4v.7c2-2 4.2-4 6.4-5.7l4.6-4a48.3 48.3 0 0 0 14.7-28Z"/><path fill="#E3BD00" d="M273.2 190.8h-.1s-.4 0-1.4-1a.3.3 0 0 1 .4-.4c.8 1 1 .8 1 .8.2 0 .3.2.3.3 0 .2-.1.3-.2.3Z"/><path fill="#C88300" d="m273 190.6.2-.2.1-.1h-.1s-.3 0-1-.8c0 .2-.1.3-.2.3l-.2.2c.8.8 1.2.8 1.3.8v-.2Z"/><path fill="#B45F00" d="m272.6 190-.3.4.5.3.1-.5-.3-.3Z"/><path fill="#C88300" d="M271.8 191a.2.2 0 0 1-.2-.1c0-.2 0-.3.2-.3.4-.1.5-.5 1-1.1 0-.1.2-.2.4 0v.3c-.1.2-.5 1-1.3 1.3h-.1Z"/><path fill="#E3BD00" d="M272.8 189.5c-.5.6-.6 1-1 1l-.2.3c1.2.2 1.5-1.2 1.2-1.3Z"/><path fill="#9B4300" d="M293.9 151.2c-3.7 6-11.9 7-16 6.7l1.6-1.9-3 1.7c-.6 0-1-.2-1.1-.3-1.1-1.3 1.1-3.6 4.6-5.7l3.5.6-2.3-1.2c3-1.6 6.9-3 10.2-3 2.4-.1 3.7 1 2.5 3.1Z"/><path fill="#7C2E15" d="M289.6 154c.5-1.4 1-2.9.9-4.4l-.1-1.5c-1.9.2-3.9.8-5.8 1.5a15.8 15.8 0 0 1-2 8 20 20 0 0 0 6.4-2l.6-1.5Z"/><path fill="#6F2910" d="M294 148.9c-.3 0-.6.3-.9.4l-.9.4-1 .4-2.4 1.2-2.3 1c1.5.4 3.2-.4 4.6-.9l3.2-1.2c.1-.6 0-1-.3-1.3Z"/><path fill="#D8E0E0" d="m291.6 150.6-5.3 1.9 4.7-2.4 12.5-5.4.2.4-12.1 5.5Z"/><path fill="#9DAFAE" d="m297.6 147.8 6-2.7-.1-.4-5.7 2.4c0 .2 0 .5-.2.7Z"/><path fill="#4A1B0B" d="M343 147.5c-.4 0-.8-.3-1.2-.6l-1-.9c-.6-.6-1-1.4-1-2.3l.1-.8c.2-.3.7-.5 1-.5l1.2.2h1l.6-.5c.2-.1.5-.2.7 0l.2.1h.2c.1-.2.3-.4.5-.4s.5.1.5.3c.1.3 0 .5 0 .8-.3.7-.2 1.5 0 2.2 0 .7 0 1.6-.7 2-.3.3-.7.4-1 .4h-1Z"/><path fill="#66220E" d="M346.4 148.9c5.7 3.3 9.6-2.2 11.7 2.6.4 1 .5 2 .5 3.2-.2 6-8.5 7.1-13.6 4.7-2.6-1.2-2.5-4.4-3.2-7.2-.4-1.5-1-5.4.5-6.5 1.3-1 2.9 2.4 4.1 3.2Z"/><path fill="#4A1B0B" d="M357.8 152a6.7 6.7 0 0 1-5.5 1.3 9 9 0 0 1-4.6-3.3 16 16 0 0 1-.6-.8l-.7-.3c-1.2-.8-2.8-4.2-4-3.2-1.5 1.1-1 5-.6 6.5.7 2.8.6 6 3.2 7.2 5.1 2.4 13.4 1.3 13.6-4.7 0-1 0-2-.4-3a4 4 0 0 1-.4.3Z"/><path fill="#1E6AC6" d="M343.1 211.8c1.8-1.4 6-1.3 7.9.2-5.9-5-6.6-12.3-7.2-20-.4-5.2-1.6-11.1-2.2-16.4-1.1-9-5.5-17.5-15-19.7a23.4 23.4 0 0 0-20.7 6.5c-2 1.9-4 4.1-6.6 4.3-2.3 0-4-1.5-6-2.3-2-.7-4.2-1.6-6.4-1.8-1-.1.3 1-.7 1.3-5.5 3.7-7.6 3-7.7 5 0 .9-2.7 1.5-4.4 2.5-.2.5-.6.9-.9 1.4l-.7 1.1c1 .6 10.8-5 12.5 9.6.3 2.4 2.9 3.7 5.2 4.2 2.3.4 4.9.5 6.7 1.9a7.4 7.4 0 0 1 2.6 5.4c.1 2-.2 4-.5 6-1.8 12.6 3.9 14.5 5.4 21.3l3-5.6v26a8.8 8.8 0 0 0 6-3.4c1.5-2.1 1.5-5 1.2-7.5-.2-2.6-.7-5.2-.2-7.7.8-4.1 3.7-5.4 7.6-5 1.7.3 3.5 1.1 4.4 2.7.6.9 1.2 2.2 2.2 2 2.2-.6-1.1-6.6 4-5.4 5.2 1.2 7 12 7.2 12.6.6 1.3 1.9 2.4 3.3 2.2 1.3-.1 2.3-1.3 2.5-2.6.7-3.4-2.8-7.2-4-11-.8-2.4-.7-6 1.5-7.8Z"/><path fill="#2D76E0" d="M343.1 211.8c1.8-1.4 6-1.3 7.9.2a17.6 17.6 0 0 1-5.5-8.8l-.3.4-1.8 3c-1.6 2.4-3.2 5-5.4 7-1.5 1.5-3.9 3.2-6.1 2-1.3-.8-2.1-2.1-2.7-3.4-.7-1.4-1-3-1.2-4.4-.5-2.8-.6-6.4-3-8.4-2.5-2.1-6.5-1.8-9.3-.2-2.7 1.6-4.6 4-7 6l-1.2 1v16.3h-.1v20.2a8.8 8.8 0 0 0 6-3.4c1.5-2.2 1.5-5 1.3-7.5-.3-2.6-.8-5.2-.3-7.7.8-4.1 3.7-5.4 7.6-5 1.8.3 3.5 1.1 4.4 2.7.6.9 1.2 2.2 2.2 2 2.2-.7-1-6.6 4.1-5.4 5.1 1.1 6.8 12 7.1 12.6.6 1.3 2 2.4 3.3 2.2 1.3-.1 2.3-1.3 2.6-2.6.6-3.4-2.8-7.2-4-11-.9-2.4-.8-6 1.4-7.8Z"/><path fill="#8E3F24" d="m317.3 312-.3-.8-.2-.6-.3-.7c-.2-.4-.5-.6-1-.5v1.3h-.3v.7c.3 1.3 1.4 1.6 1.9 1.3l.2-.6ZM320 314.7c.2 0 .3-.3.2-.6 0-.3 0-.6-.2-.9a17.9 17.9 0 0 1-.5-1.2c-.2-.4-.5-.6-1-.6l-.6.3.3.8v1c.2 1.3 1.4 1.5 1.8 1.2Z"/><path fill="#8E3F24" d="M323 310c.3 1.2.2 2.4-.3 3.6-.4.8-1.1 1.6-2 1.3-.5-.1-.8-.5-1-1-.2 0-1.2-.2-1.4-.4v-.2a1 1 0 0 1-.7.1c-.5 0-1-.5-1.2-1l-.7-.5a4 4 0 0 1-.9-1.7l-.6-.6c-6.6-8.8-5.7-20.4-12.1-30.8-9.2-15-29.2-61-29.1-65.7 0-3.2.9-6.3 1.9-9.3 5-15.8 19.6-48.5 28-59.4h23.3c.4 4.6-1 11.7-5.3 22.7-5.4 13.5-21.2 38.2-29.2 44.2a40.3 40.3 0 0 1 3.4 3.9 45.5 45.5 0 0 1 9.1 19.6c2 11.1 2.6 22.6 5.3 31.8a25 25 0 0 0 4.4 10c2 2 4.3 3 6 5.3 1.9 2.5.8 5.9-.2 8.5-1 2.6-1.8 5.6-.5 8 1.6 2.7 3.8 5.1 3.5 8.5 0 .7-.2 1.4 0 2l.2 1Z"/><path fill="#79311D" d="m299.2 230.7-2 1.7a23.2 23.2 0 0 1-15.4 4.6 406 406 0 0 1-5-12.3c3 .9 18.4-1.9 17.4-10.7l1 1.2c1.8 4 2.8 9.7 4 15.5Z"/><path fill="#994326" d="M296.3 259c-.4-2.3-1.1-4.5-2.3-6.5-1-1.7-2.3-3.6-4.1-4.6-.8-.5-1.8-.8-2.7-.4l-.6.3c3.1 7 6.4 13.8 9.3 19.7.7-2.8.8-5.7.4-8.5Z"/><path fill="#863922" d="M320.9 285.8a9 9 0 0 1-1.3 2.2c-.8 1.1-2 2.1-2.7 3.3-.6 1-1.2 2.2-1.3 3.4 0 1.2.2 2.4.8 3.4.7 1 1.5 2 2.4 2.7.8.8 1.7 1.3 2.5 2l1.1 1.3c-.6-2-2-3.8-3.2-5.8-1.3-2.3-.4-5.3.5-8 .5-1.3 1-2.9 1.2-4.5ZM277.8 220.7a8 8 0 0 0 4.6-2.7c.4-.4.8-1 .7-1.6-.2-.8-1-1.2-1.7-1.4-2-.5-4 .8-6 1.1-.5.2-1.1.2-1.7.2l1.5 4.4a9 9 0 0 0 2.6 0Z"/><path fill="#79311D" d="M289.9 210.7c-1.7-.2-3.9-.2-4.4 1.8-.6 2.4 3.3 1.8 4.6 1.5l3.2-.8-1.6-2 .4-.2-2.2-.3ZM288 176.1c.3 2.2.8 4.3 2 6.2.6 1 1.3 1.9 2.2 2.6.8.7 1.8 1.1 2.8 1.5 1.8.7 3.5 1.4 4.6 3.1 1 1.5 1.3 3.3 1.2 5 0 3.4-1.2 6.7-2.4 9.8 8.2-10 18.4-26.9 22.5-37.2 4.3-11 5.7-18.1 5.3-22.7h-23.3c-4.2 5.4-9.9 16.3-15.2 27.7 0 1.4 0 2.7.3 4Z"/><path fill="#994326" d="M285 208.2c3-3.6 6-13.4-5.9-16.1-1.7 4.4-3.2 8.4-4.2 11.7-.7 2-1.3 4-1.6 6 5 2.4 9.3 1.2 11.6-1.6ZM315.4 306.8a45 45 0 0 1-.7-5.6c0-1.8-.2-3.6-.7-5.4-.3-1.3-.9-2.9-2-3.7-1.3-1-3-.2-3.9 1a7 7 0 0 0-.4.4c1.6 5.8 3 11.3 6.6 16.1l.5.5c.2.7.5 1.3.9 1.8l.8.4v.2c0-.5 0-1.1-.2-1.7l-1-4Z"/><path fill="#1E6AC6" d="M305.7 227.6c1.5-.5 2.3-2.1 3.5-3.1.3-.3.7-.5 1.2-.5 1 0 1.5 1.5 1 2.4-.4 1-1.4 1.5-2.2 2.2a8 8 0 0 0-2.2 3l-.2 1c0 1 1 1.7 1.9 2 1 .5 2 .9 2.3 1.8.6 1.1-.4 2.5-1.6 3-1.2.5-2.6.2-3.8 0-.5 0-1 0-1.2.2l-.4.7c-.3 1.4-.4 2.8-1.1 4-.5.7-1.2 1.3-2 1.8-1.4 1-3.3 1.8-5 1.3-1.4-.4-2.5-1.5-3.9-1.8-1-.3-2.2 0-3.3-.3-1.5-.4-2.6-1.7-3.6-2.9l-.2-.5c0-.2.2-.4.4-.6 2-1.7 4.3-3.2 6.7-4.4 1.6-.8 3.2-1.4 4.6-2.4a8 8 0 0 0 3-3.5c.7-1.5.2-2.8.4-4.3.3-1.5.6-1.3 1.6-.5 1.1 1 2.5 2 4.1 1.4Z"/><path fill="#71ABFF" d="m276.2 223.4.6 1.2.3.1c1.7.6 3.5.7 5.3.6 1.7-.1 3.4-.4 5-.9a15 15 0 0 0 6.3-3.3c1.4-1.3 2.6-3.7 2.1-5.6 2.9-.5 1.6 4.7 4.6 7 3.2 2.4 4.4 6.5 5.2 10.3 0 .4.2.8.1 1.2 0 .5-.2 1-.5 1.5-1.9 3.3-5 6-8.8 7.4-3.7 1.4-8 1.5-11.8.3l-1.2-.6c-.4-.4-.6-.8-.8-1.3l-3.8-8.3c-.7-1.4-1.4-3-1.3-4.5l.2-.9a4 4 0 0 1-1.6-1.2c-.7-1 0-3 0-3ZM298.4 219.3l-.1-.6.1.6Z"/><path fill="#71ABFF" d="M305.7 234c0 .5-.2 1-.5 1.5-1.9 3.3-5 6-8.8 7.4-3.7 1.4-8 1.5-11.8.3l-1.2-.6c-.4-.4-.6-.8-.8-1.3l-3.8-8.3c-.7-1.4-1.4-3-1.3-4.5l.1-.7c1.6 1.2 7.5 2.4 14.5-2.2 2.9-1.9 5.6-4.6 6.5-5.8l.3.7a5 5 0 0 0 1.5 2c3.3 2.4 4.4 6.5 5.2 10.3 0 .4.2.8.1 1.2Z"/><path fill="#5391E5" d="M305.6 232.8c-.8-3.8-2-7.9-5.2-10.3-3-2.3-1.7-7.5-4.6-7 .5 2-.7 4.3-2 5.6-1.8 1.6-4 2.6-6.4 3.3-1.6.5-3.3.8-5 .9a12.8 12.8 0 0 1-5.6-.7 13 13 0 0 1-.6-1.2l-.3 1c.9 1.7 8 .7 6 2.6-2 1.8-4.8 0-5.5-.2l1.3.8-.1 1c-.2 1.5.5 3 1.2 4.4l.7 1.7c1.6-.4 3.2-.5 4.6.2 1.4.8 2.4 2.1 2.3 3.8-.2 1.5-1 2.9-1.7 4.3v.2c3.8 1.2 8 1 11.7-.3a17 17 0 0 0 8.8-7.4c.3-.5.5-1 .5-1.5v-1.2Z"/><path fill="#3C81F6" d="M295.2 215.4c.5 2-.7 4.3-2 5.6a14.2 14.2 0 0 1-6.2 3.4 23.3 23.3 0 0 1-7.6.8c3.7.6 8.5.2 11.8-1.6 1.8-1 3.3-2.4 4.5-4.1.5-.8 1.1-1.8 1.3-2.9-.3-.8-.8-1.3-1.8-1.2Z"/><path fill="#3C81F6" d="m299.7 221.8-.3-.5c-1 1-4 3.5-7 5.1-7.3 3.9-13.1 2.5-14.7 1.3l-.1.6a13.2 13.2 0 0 0 7.7 1 22 22 0 0 0 7.3-2.4c.9-.5 5.6-3.3 7.1-5.1Z"/><path fill="#3C81F6" d="M298.4 219.2v.6a40 40 0 0 1-5 8.5c-5.3 6.6-11.6 7.2-13.9 6.3l.4 1h2c1.8 0 4-.8 5.7-1.6 2.2-1.2 4.3-3 6.2-5.4.9-1 4-5.6 5-8.4l-.4-1Z"/><path fill="#C88300" d="M298.9 220.5c-1.6 2-5.7 5-6.5 5.6a20.6 20.6 0 0 1-7 3l-2.9.3a12 12 0 0 1-5-1l-.5-.4c-.2-.3-.3-.5-.3-.8v-.2a4 4 0 0 0 .6.4l.3.4c1.6 1.2 7.5 2.4 14.5-2.2a32.2 32.2 0 0 0 6.9-6.4h-.5l-.2-.5h.4c.3-.1.6 0 .8.2.1.4-.1 1-.6 1.6Z"/><path fill="#C88300" d="m277.6 228-.1-.1c-.2 0-.3-.2-.5-.3l-.2-.5.3.2v.1c0 .2.2.3.5.5Z"/><path fill="#E3BD00" d="M276.9 227.8c.4.6 1.2 1 2.1 1.2l-2.1-1.2Z"/><path fill="#B45F00" d="M277.1 227.3v.3l-.1.4-.3-.7v-.3a3.6 3.6 0 0 0 .4.3ZM297.2 221.4c-.9.9-2 2-3.3 3l-.7 1.1c1-.7 2.7-2 4-3.2v-1ZM298.5 219.3l.1-.1c.3-.1.7 0 .9.2v-.5c-.2-.2-.5-.3-.8-.3l-.4.1.1.6Z"/><path fill="#C88300" d="M298.3 216.4a.9.9 0 0 0-.8-.5l.2.5c.1.1.2.5 0 1.5-.5 1.3-2.4 5.5-5 9-7 8.7-15 7-14.7 5l.1-.2-.2-.7c-1.2 1.2-1 3.3 3.4 3.3 1.7 0 3.9-.8 5.5-1.6 2.2-1.1 4.3-3 6.2-5.5 1.2-1.5 6.3-9 5.3-10.8Z"/><path fill="#B45F00" d="m298.2 216.2-.2 1.3-.5 1 .2-.6.1-.8c0-.4 0-.7-.3-.8a2 2 0 0 0-.4-.4c.5-.2 1 .1 1.1.3Z"/><path fill="#E3BD00" d="M293.4 225.8c.3-.5 2-1.5 2.3-3.8-.6 1.2-1.4 2.6-2.4 3.8h.1Z"/><path fill="#B45F00" d="M277.9 232.7c.2.2.4.2.7.2-.4-.2-.6-.6-.6-1l.1-.2-.2-.7c-.3.3-.5.6-.6 1l.6.7Z"/><path fill="#E3BD00" d="m277.7 233.1-.2-.1c.3.7 1.3 1.2 3.3 1.3-1-.7-3.1-1.2-3.1-1.2Z"/><path fill="#9DAFAE" d="M315.5 219.8c-5.1-.5-9.4 4-10.2 4.2h-.5c-.8-.2-2.3-1-2-2.1.3-1.2 6.7-4.7 12.7-2ZM312.5 247.3c-1.5-5-7.4-7-7.9-7.7l-.2-.5c-.2-.8 0-2.4 1-2.6 1.4-.2 7.1 4.1 7.1 10.8ZM303.9 254.5c-4-1.8-5.2-7-5.8-7.5l-.3-.2c-.7-.3-2.1-.3-2.4.6-.3 1 2.8 6.4 8.5 7.1ZM288 257.4c-2.5-3.8-.6-8.8-.8-9.5a1 1 0 0 0-.1-.4c-.5-.6-1.7-1.3-2.4-.7-.8.7-1.1 7 3.2 10.6Z"/><path fill="#CDD5D4" d="M284.4 250.6c.1-1 .3-1.8.7-2.7l.6-1.3c-.4 0-.7 0-1 .2-.4.3-.7 2-.4 4v-.2ZM277.6 250.3c-.5-4.4 3.4-8.2 3.5-8.9v-.4c-.1-.7-.9-2-1.8-1.7-1 .3-4 5.8-1.7 11Z"/><path fill="#9DAFAE" d="M281 241c0-.6-.6-1.6-1.3-1.7-.5.5-.7 1.3-1 1.9l-1 3.2a15 15 0 0 0-.3 3.8c0 .5 0 .8.2 1.2 0-4 3.4-7.3 3.5-8v-.4Z"/><path fill="#4A1B0B" d="M319.6 312.8c.4 2.4 2.2 2.5 2.4-.2 0-.5 0-1-.2-1.2-.2-.1-2.4-.4-2.2 1.4ZM318.8 314.4c.6.7 1.2.5.8-.3-.1-.1-.2-.3-.4-.3 0 0-.8.1-.4.6Z"/><path fill="#8E3F24" d="m318.6 313.6-.3-1-.2-.5-.3-.7c-.2-.3-.5-.6-1-.5v1.3h-.3l.1.7c.2 1.4 1.3 1.6 1.8 1.3.2-.1.2-.4.2-.6Z"/><path fill="#4A1B0B" d="M317.1 313.9c.6.6 1.2.5.8-.3 0-.2-.2-.3-.3-.3 0 0-1 .1-.5.6ZM315.7 312.3c.4.6 1 .5.7-.2 0-.2-.1-.3-.3-.3 0 0-.7 0-.4.5ZM319.4 311.9v-1.1c-.5.7 0 3.7.8 3.8 0 0-.8-1.2-.8-2.7ZM318 312v-1.2c0 .2-.4 1.2.3 2.6l-.3-1.5Z"/><path fill="#4A1B0B" d="M316.6 312.8V311c-.3.4-.1 1.3 0 1.7ZM315.3 311.2v-1c-.3.3-.1.8 0 1Z"/><path fill="#8E3F24" d="M299.5 333c0-.1 0 0 0 0 0-.2-.3-.3-.6-.3a1 1 0 0 0-.5.4l-.5.6c-.2.4-.4.8-.4 1.2 0 .7.8 1 1.3.5.4-.4.4-.4.7-2.4Z"/><path fill="#8E3F24" d="M301.4 331.7c0-.1 0 0 0 0 0-.3-.3-.4-.5-.3a1 1 0 0 0-.6.4l-.4.6c-.3.4-.5.8-.5 1.2 0 .7.8 1 1.4.4.3-.3.3-.3.6-2.3Z"/><path fill="#8E3F24" d="M303.3 330.3c0-.1 0 0 0 0 0-.3-.3-.4-.5-.3a1 1 0 0 0-.6.4l-.4.6c-.3.4-.5.8-.4 1.2 0 .7.8 1 1.3.4.3-.3.3-.3.6-2.3Z"/><path fill="#8E3F24" d="m306.3 327.6-1.3 1.7c0-.2-.3-.4-.5-.3a1 1 0 0 0-.6.3 4.8 4.8 0 0 0-.5.7c-.3.3-.5.7-.5 1.1 0 .7.7 1 1.3.5.3-.3 1.6-2 2-4Z"/><path fill="#8E3F24" d="M320.3 227.6c1.1 8 5.4 19.5-.8 36.3-14 37.8-15.4 35.9-11.3 43.6.4.7.7 1.5.8 2.3.1 1-.1 2-.3 3-1.1 5.9-.5 9.4-1.6 13-.9 2.8-2.8 5-3.9 5-.5.5-1 1-1.8 1-.6 1.5-1.2 1.6-2 1.4-.3.6-1.1 1.4-2 1.3 0 .4-.3.8-.7 1-.5.3-1.2.3-1.7 0-1.3-.8-1.2-4.5-1.6-7.6v-2.5c.2-2 1.2-3 1.7-5.1l.4-2.6c.8-10 0-8.6 1.6-15.2 2.2-37.6 1.6-9.7 2-50.4 0-6.5.2-12.2.7-16.4.7-5.8 2-11.5 2.2-17.4l.2-7.2c.4-9.8 7.3-23.8 9.7-34.2 2.5-11 .7-18.5 8.7-27.2 3.1-3.3 8-4.8 12.5-3.8 24.5 5.5-4.1 61.9-11.4 75.5l-1.6 3c0 1 0 2 .2 3.2Z"/><path fill="#863922" d="M294.7 323.6c.2.7.5 1.3 1 1.8.2.4.6.8 1 .8.7-.1.8-1.2.8-1.6 0-1.9-1-3.5-1.7-5.2l-.3-1.5-.4 2.4-.8 2.2.4 1.1ZM307.4 317.7c-.8.9-1 2-1 3.2l-.1 3.4c-.2 1.9-1 5-1.7 6.8 1.2-1.2 2-3.7 2.5-5.3.9-2.7.7-5.4 1-9l-.7.9ZM299.3 242l-.2 10-.1 11.5c1.5.9 3 2 4.2 3.2 10 9.5 8 11.3 4.3 24.7l-2.1 7.7c-.7 2.5-1.4 5.1-1.4 7.7 0 .3 0 1 .5 1l1.4-.6c.7-.2 1.5-.2 2.2 0-4-7.4-2.3-6 11.4-43.3a50 50 0 0 0 3.1-21.8h-23.3Z"/><path fill="#994326" d="M301.8 293.5c2.6-1 4.3-3.9 5.3-6.2 1.3-2.7 2.2-5.7 2-8.7 0-3.3-2.3-6.2-5-8a9.3 9.3 0 0 0-4.9-1.7h-.3c0 13.6 0 6-1.2 24 1.2.8 2.6 1.2 4.1.6ZM295.6 332.2c-.2 0-.3-.1-.3-.3-.5.4-.5.9-.4 1.4 0 .2-.4.4-.4 0-.1-.5-.1-1.3.4-1.6.5-.4 1-.4 1.6-.3l-.2-1.2c0-.9-.2-1.7-.7-2.5-.3-.6-.8-1.2-1.5-1.6l-.8-.3v2c.4 3.2.4 6.8 1.7 7.7.5.3 1.2.3 1.7 0 .2-1.2 0-2.4-.1-3.6l-1 .3ZM298.2 316.6c1.4-.2 2.6-1 2.8-2.4.6-3.2-2-5.6-5-6.1-.1 1.7 0 3.5-.4 8.1a6 6 0 0 0 2.6.4Z"/><path fill="#79311D" d="M311.8 186.4a19 19 0 0 1 4.5 2.7c2.8 2.2 5 5.1 7 8.1 1.2 1.9 2.5 3.8 3.4 6 .8 1.7 1.2 3.5 1.5 5.4 10.2-21.7 24.4-58.4 5-62.8-4.5-1-9.5.6-12.6 4-8 8.6-6.2 16-8.7 27-.6 2.8-1.5 5.8-2.6 8.8.9.3 1.7.5 2.5.9Z"/><path fill="#863922" d="M301.4 227.2c.6.7 1.1 1.4 1.9 2 .6.7 1.4 1 2.3 1 1.3.3 3.7.1 3.9-1.7.1-1.7-1.8-2-3.2-2a9.6 9.6 0 0 1-5-1.6l-.2 2 .3.3Z"/><path fill="#994326" d="M304.7 218c4.5 1.9 9.1-1.7 11.6-5.3 1.2-1.9 2-4 2.6-6.1.5-2.2.7-4.5.1-6.7-1-3.7-4.5-6-8.3-6a9 9 0 0 0-4.7 1.4c-2 5.6-3.6 11.2-3.7 15.8l-.2 4.9c.7.8 1.5 1.5 2.5 2Z"/><path fill="#79311D" d="M322.5 241h-23.2l-.2 11-.1 11.8a27.3 27.3 0 0 1 12.8 9.6c.9 1.3 1.7 2.7 2.2 4.2l.3.3 5.2-14a50 50 0 0 0 3-23Z"/><path fill="#CDD5D4" d="M303 251.8a2.4 2.4 0 0 1 3.1.8l.1.1c1.5 1.9-.2 7.3-2.6 7.2-.7 0-1.4-.4-1.7-1-1.6-3-.2-6.5 1.2-7.1Z"/><path fill="#EC4899" d="M309.3 305a.8.8 0 1 0 0-1.5.8.8 0 0 0 0 1.6Z"/><path fill="#C1296E" d="M309.5 303.5c.3.6-.4 1.3-.7 1.2 0 .2.3.4.6.4.4 0 .7-.4.7-.9 0-.3-.3-.6-.6-.7Z"/><path fill="#EC4899" d="M306.6 305.8a.8.8 0 1 0 0-1.6.8.8 0 0 0 0 1.6Z"/><path fill="#C1296E" d="M307 304.3v.1c0 .5-.6 1-1 .9 0 .3.3.5.7.5a.8.8 0 0 0 .3-1.5Z"/><path fill="#EC4899" d="M303.8 305.5a.8.8 0 1 0 0-1.5.8.8 0 0 0 0 1.5Z"/><path fill="#C1296E" d="M304 304v.1c0 .3-.2.7-.5.7h-.5c0 .4.4.7.9.7.4 0 .7-.4.7-.8 0-.3-.2-.6-.6-.7Z"/><path fill="#EC4899" d="M300.7 304.7a.8.8 0 1 0 0-1.5.8.8 0 0 0 0 1.5Z"/><path fill="#C1296E" d="M301 303.3v.2c0 .5-.6.7-1 .5 0 .4.3.8.8.7.4 0 .8-.3.7-.8 0-.3-.2-.5-.4-.6Z"/><path fill="#EC4899" d="M297.6 304a.8.8 0 1 0 0-1.5.8.8 0 0 0 0 1.6Z"/><path fill="#79311D" d="M297.8 305.2c.1.4.6.8 1 .7.4 0 .7-.3.5-.8 0-.4-.5-.8-1-.7-.4 0-.6.3-.5.8ZM301.5 306.7c.1.5.5.8 1 .8.4 0 .6-.4.5-.8-.1-.5-.6-.8-1-.8s-.7.4-.5.8ZM304.7 306.9c.1.4.6.8 1 .7.4 0 .7-.3.5-.8 0-.4-.5-.8-1-.7-.4 0-.6.3-.5.8ZM308.1 307.3l-.8-1.5c-.1.2-.2.4-.1.7 0 .4.5.7.9.8Z"/><path fill="#C1296E" d="M298 302.6v.1c0 .7-.6 1-1.1.8 0 .3.4.6.8.6a.8.8 0 0 0 .3-1.5Z"/><path fill="#EC4899" d="M295.2 302.6a.8.8 0 1 0 0-1.6.8.8 0 0 0 0 1.6Z"/><path fill="#C1296E" d="M295.6 301.2c0 .2 0 .4-.2.5-.1.2-.4.2-.6 0l-.4-.2v.3c0 .5.4.8.8.8s.8-.4.7-.8c0-.3 0-.5-.3-.6Z"/><path fill="#EC4899" d="M293.6 300.3a.8.8 0 1 0 0-1.6.8.8 0 0 0 0 1.6Z"/><path fill="#C1296E" d="M294.2 299c-.2.6-1 .9-1.4.7 0 .3.4.6.8.6a.8.8 0 0 0 .6-1.3Z"/><path fill="#EC4899" d="M310.3 302.8a.8.8 0 1 0 0-1.6.8.8 0 0 0 0 1.6Z"/><path fill="#C1296E" d="M310.4 301.2c.2.6-.3 1.2-.8 1.2.1.2.4.4.7.4.4 0 .8-.4.7-.8 0-.4-.2-.7-.6-.8Z"/><path fill="#E3BD00" d="M307.2 300.3a12 12 0 0 0-.8-.5l-.1.6.7.3c1.2.7 1.6 1.3 1.5 1.5 0 .3-.7.6-2 .6-1.5 0-3.1-.3-5-.8a20 20 0 0 1-4.5-1.7c-1.2-.7-1.6-1.3-1.5-1.5 0-.3.6-.6 1.9-.6v-.5c-1.4 0-2.3.3-2.4 1-.2.6.4 1.3 1.7 2 1.2.7 3 1.4 4.7 1.8 1.9.5 3.6.8 5 .8 1.5 0 2.4-.3 2.6-1 .1-.6-.5-1.3-1.8-2Z"/><path fill="#79311D" d="M302.7 300.6a20 20 0 0 1-5.3-2.2v.6l.5.3a23.5 23.5 0 0 0 8.3 2.5v-.5c-1-.1-2.3-.3-3.5-.7Z"/><path fill="#C88300" d="M297.4 297.7s-2.4.5-1.9 1.3v-.2c0-.3.6-.6 1.9-.6v-.5ZM307.2 300.3l-.8-.5-.1.6c.3 0 .5.2.7.4 1 .6 1.5 1 1.5 1.3l.3.6.2-.3c.1-.7-.5-1.4-1.8-2.1ZM297.7 301.2a22.6 22.6 0 0 0 6 1.8c-3-1.1-3.7-1.2-6-1.8Z"/><path fill="#3C81F6" d="M291.9 252.9c.5-.8 1.4-1.2 2.1-1.7 1.7-1.3 2.4-3.4 3.2-5.3.4-.9.8-1.7 1.5-2.3 1.4-1.2 3.4-1.2 5.3-1 2.2 0 4.4.2 6.6.4 1.6 0 3.2.2 4.7-.1 1.2-.3 2.3-.8 3.1-1.5l4.2 1.8.7 2.3c1.2 3.4 2.9 6.6 3.8 10 1 3.5 1 7.5-1.1 10.4l-.3.3c-.3.1-.6-.3-.7-.7-.5-1.3-1-2.7-2.3-3.1-1.5 2.5-.6 5.6-.4 8.6.2 2-.1 4.2-.8 6.2-.4 1.3-1.2 2.8-2.6 2.7-1 0-1.8-.9-2.3-1.8-.8-1.6-1-3.5-1-5.4-.2-1.8-.3-3.8-1.3-5.3-1-1.6-2.9-2.8-4.7-2.2-1.8.5-2.8 2.6-4.6 3-1.8.6-3.9-1-3.9-2.9 0-.8.4-1.6.3-2.4 0-1.3-1.3-2.4-2.6-2.4s-2.6 1-4 1c-1 0-1.9-.8-2.4-1.7-.6-1-.8-2-1-3-.2-1.4-.3-2.8.5-4Z"/><path fill="#5391E5" d="M302.6 266.6c0-1 .2-2.2-.4-3-.2-.3-.5-.5-.8-.5l-.3 2.2a3 3 0 0 0 1.4 2.5v-1.2ZM319.2 276.5c-.4-1.2-1.4-2.8-3-2.2l-.5.3c.2 1.2.4 2.4 1 3.5.4 1 1.2 1.8 2.2 1.8.4 0 .8 0 1.1-.3-.4-1-.6-2-.8-3ZM291.6 253.4c-.5 1-.3 2.2-.1 3.4l.2 1.1c.2-.6.3-1.2.3-1.9s0-1.9-.4-2.6Z"/><path fill="#1E6AC6" d="M327.1 255.6c-.9-3.5-2.6-6.7-3.8-10l-.7-2.4-4.2-1.8c-.8.8-2 1.2-3 1.5-1.6.3-3.2.2-4.8 0-2.2 0-4.4-.2-6.6-.4-1.8 0-4-.1-5.3 1.1-.7.6-1.1 1.4-1.5 2.3-.8 1.9-1.5 4-3.2 5.3l-1.5 1c7 15 26.5 4.6 29.8 22 0-1 .1-2.2 0-3.2-.1-3-1-6.1.4-8.6 1.2.5 1.9 1.8 2.3 3.1.1.4.4.8.7.7.2 0 .2-.2.3-.3 2-3 2-6.9 1.1-10.3Z"/><path fill="#71ABFF" d="m300 228.2.4-.4c.2 0 .5-.7.6-.6-2 12.9 20 10.7 20.2 6 0-1.5 1.7 1.4 1.4 2.3-1.5 3.6 5 18.8-1 23.6-7 6-25.1-1-27.9-6.7-1-2 2.8-10.6 3.6-15.5l.6-4.2c.4-1.6 1.1-3.1 2.1-4.5Z"/><path fill="#5391E5" d="M322.6 235.5c.3-.9-1.4-3.8-1.4-2.3-.1 3.1-10 5.1-15.9 2.3l-.3-.2-.3-.1-.6-.4-.3-.2-.3-.2-.2-.2-.2-.2-.1-.1-.2-.2c-1.4-1.5-2.2-3.6-1.8-6.5-.8.9-1 2.4-.7 3.4.2.8.5 1.5.9 2.2 1.9 3.3 2.6 1.4 4.8 4 0 .2.1.3 0 .4-.3.3-.8.7-.6 1.2.2.6.8.9 1.2 1a9.3 9.3 0 0 0 3.6 1c.9 0 2-.1 2.7.4 1.6 1 2 3.7.8 5.1-.7.8-1.7 1.2-2.6 1.7-.5.2-1 .5-1.4 1-.3.3-.5.8-.6 1.2-.2 1-.4 2-.8 3-.3.9-.8 1.7-1.3 2.5-1.1 1.4-2.6 2.6-4.2 3.3l-.5.2c6.5 2.8 15 4 19.3.3 6-4.8-.5-20 1-23.6Z"/><path fill="#4C8AE4" d="M322.6 235.5c.2-.5-.2-1.5-.6-2.1l-.1 1.5c-.4 2-2 3.1-3.4 4.4-.8.7-1.8 1.8-.9 2.8.6.7 1.4 1.3 1.8 2.1.9 1.7 0 3.3-1 4.7l-1.6 2.4c-.6 1-.8 2.3-.9 3.6-.1 1-.2 2.2-.8 3.1-.5.9-1.3 1.6-2 2-.7.5-1.3.9-2 1.2 4.1.5 8 0 10.5-2 5.9-5-.5-20.1 1-23.7Z"/><path fill="#5391E5" d="M314 246.8c-.1-.2-.3-.2-.4-.2-3 .9-13.3 3.3-16.7-2-.6-1-1-1.8-1-2.5 0 .4-.2.8-.3 1.1.2.6.5 1.1.9 1.7 1.3 2.1 3.8 3.3 7.3 3.5h1.3c3.2 0 6.4-.7 8.7-1.3 0 0 .2-.2.1-.3Z"/><path fill="#C88300" d="M305.7 247.7c-3.5 0-7.7-.8-9.6-4-1-1.6-1.1-2.9-.6-3.8.6-1 2.1-1.6 4.6-1.6.2 0 .3.1.3.3 0 .1-.1.2-.3.2-2.2 0-3.7.5-4.2 1.4-.4.7-.2 1.8.6 3.2 1.6 2.7 5.2 3.7 9.2 3.7 4.5 0 9.7-1.2 13.5-2.8 3-1.4 4.3-2.6 4.1-3.1-.2-.8-.9-1.3-2-1.6a.3.3 0 0 1-.2-.4s.2-.2.3-.1c1.4.3 2.2 1 2.5 2 .4 1.4-3 3-4.5 3.7-3 1.2-8 2.7-12.8 2.8h-.9Z"/><path fill="#B45F00" d="M295.5 240v.3l.2.7.2-.8c.5-.9 2-1.4 4.2-1.4.2 0 .3-.1.3-.2 0-.2-.1-.3-.3-.3-2.4 0-4 .6-4.6 1.6Z"/><path fill="#E3BD00" d="M295.2 241.3c0 .7.3 1.5.9 2.3.7 1.3 1.7 2.1 2.9 2.7-1.4-1-3-2.8-3.8-5Z"/><path fill="#B45F00" d="m323 240.4.4-.3c-.5-.5-1.1-.8-2-1l-.3.1c0 .2 0 .3.2.4.7.2 1.3.5 1.6.8ZM318.8 245l.6-.2a20 20 0 0 0 2.5-1.3 3 3 0 0 1-1 0 24.7 24.7 0 0 1-2.8 1.2l.7.3Z"/><path fill="#CDD5D4" d="M328.4 257.4c0-5.7-5.4-10-5.6-10.8v-.6c0-.9.8-2.6 2-2.4 1.4.3 5.9 6.9 3.6 13.8Z"/><path fill="#9DAFAE" d="M324.8 243.6c-.4 0-.7.1-1 .3l1.1 1.3c.8 1 1.3 2.4 1.6 3.7l.2 2.8c1 1.6 1.7 3.6 1.7 5.7 2.3-7-2.2-13.5-3.6-13.8Z"/><path fill="#CDD5D4" d="M308.8 269.7c3.2-4.7 1-11.3 1.2-12.2l.2-.4c.6-.8 2.2-1.7 3-1 1 1 1.3 9-4.4 13.6Z"/><path fill="#1E6AC6" d="M318.8 263.9c-.7-1-2.4-.4-3.2.2l-.3.4c-.2.3-.2 2-.4 4 .4 1.3.6 2.8.7 4.2v.1c3-3.6 3.8-8 3.2-9Z"/><path fill="#9DAFAE" d="m313.2 256.2-.2-.2a10 10 0 0 1-.4 3.9c-.4 1.3-1.1 2.5-2 3.4 0 2-.5 4.4-1.8 6.4 5.7-4.6 5.5-12.6 4.4-13.5Z"/><path fill="#CDD5D4" d="M320.5 266.6c1.5-5.5-2.8-11-2.8-11.9v-.5c.4-.9 1.5-2.3 2.6-1.8 1.3.6 4.1 8 .2 14.2Z"/><path fill="#9DAFAE" d="M320.3 252.4h-.7l.5 1c.6 1.1.8 2.4.8 3.7 0 1.4 0 2.8-.5 4.1.4 1.7.6 3.5.1 5.4 4-6.2 1.1-13.6-.2-14.2ZM293.3 265.3c-.5-5.7 4.7-10.2 5-11.1v-.5c-.2-1-1-2.6-2.2-2.3-1.4.3-5.5 7.1-2.8 14Z"/><path fill="#1E6AC6" d="M301 259.4a7 7 0 0 1-2.3-1c-.8.6-1.6 1.6-2.4 2.8.9-.3 1.7-.7 2.5-.7s1.5.3 2 1l1.4-1.2.1-.4-1.3-.5Z"/><path fill="#CDD5D4" d="M293.5 259c.5-2.6 1.2-5.3 2.6-7.6-1.4.3-5.4 6.9-3 13.5-.2-2 0-4 .4-5.8Z"/><path fill="#9DAFAE" d="M285 254.7c2.5-5.2 9.2-6.6 9.9-7.3l.2-.4c.4-.9.4-2.7-.8-3-1.3-.5-8.3 3.4-9.2 10.7Z"/><path fill="#CDD5D4" d="M290 248.3a16 16 0 0 1 5.1-3.6c-.1-.3-.4-.6-.8-.8-1.3-.4-7.9 3.3-9.1 10.2 1.3-2.1 3-4 4.8-5.8Z"/><path fill="#9DAFAE" d="M283 242.9c3.4-3.4 9.2-2.4 10-2.8l.3-.2c.6-.6 1.1-2 .3-2.7-1-.7-7.7.2-10.6 5.7Z"/><path fill="#CDD5D4" d="M284.2 241.3a15.5 15.5 0 0 1 7.1-3.2l2.7-.4a1 1 0 0 0-.4-.5c-.8-.7-6.6 0-9.8 4.4l.4-.3Z"/><path fill="#4C8AE4" d="M322.4 237.2h-1.2v.9h-1v.5h-.8v3.1l1.8-.2c.6 0 1-.1 1.6-.3-.2-1.5-.4-2.9-.4-4Z"/><path fill="#71ABFF" d="M299.3 237.7c.7 0 1.6.5 1.7 1.2 0 .6-.6 1-1 1.3a5.2 5.2 0 0 1-3.6.5l.7-2.7c.3-.1.6-.3 1-.3h1.2Z"/><path fill="#B45F00" d="m317.2 245 1 .2 1.5-.6-1-.1-1.5.5Z"/><path fill="#C88300" d="M321 244.7c-4 0-10.8-2.1-15.7-4a57.4 57.4 0 0 1-7.1-3.4c-2.8-1.6-3-2.3-2.9-2.7.2-.7 1-.9 3-.8.2 0 .3.1.3.3 0 .1-.1.2-.3.2-2.3 0-2.5.3-2.5.4-.1.6 2.9 2.8 9.7 5.5 5.3 2 12.8 4.4 16.5 3.9.7-.1 1.3-.5 1.4-1 0-.2-.1-1-2.6-2a.3.3 0 0 1-.2-.3c0-.1.2-.2.3-.1 2.7.9 3 2 3 2.5 0 .7-.8 1.3-1.9 1.4a7 7 0 0 1-1 0Z"/><path fill="#E3BD00" d="m317.8 243.8 1 .3 1.8.2.5-.1c-1 0-2-.1-3.3-.4Z"/><path fill="#B45F00" d="M296.5 233.8v.4l-.1.2h2l.2-.3-.2-.3h-1.9Z"/><path fill="#E3BD00" d="m295.6 234.1-.3.5c0 .3 0 .8 1.4 1.8-1-1.1-1.3-1.9-1-2.3Z"/><path fill="#B45F00" d="M320.8 241.2c2.5.8 2.6 1.7 2.6 2l.4.3v-.3c.1-.5-.2-1.6-2.9-2.5l-.3.1c0 .2 0 .3.2.4Z"/><path fill="#71ABFF" d="M299 235.1c.7-.1 1.4-.6 1.2-1.3-.2-1-1.3-1.3-2.3-1.2v.1a24 24 0 0 0-.4 2.4h1.6Z"/><path fill="#4C8AE4" d="m323 242-.4-2a4 4 0 0 0-1.4-.2c-.7 0-1.8.3-1.7 1.2 0 .8 1.2 1.8 2 2.1.7-.3 1.2-.8 1.5-1Z"/><path fill="#5391E5" d="M315.4 245c-2.9-.7-6-1.7-8.6-2.7-5.7-2-8.8-3.9-9.6-4.8l-.1.6a57 57 0 0 0 9.5 4.7c2.7 1 5.9 2 8.9 2.7v-.5Z"/><path fill="#994326" d="M303.6 316.8a.8.8 0 0 0-.4-.1c-.3 0-.7.2-1 .4-.3.2-.3.8-.2 1.1l.2.3c.3.2.7 0 1-.1l.6-.7c0-.3 0-.7-.2-.9ZM298.6 331.4c-.1.7.2.9.6.6l.2-.3c.4-.7-.7-1-.8-.3ZM300.4 330.5c-.1.6.3.8.6.6l.3-.3c.3-.8-.7-1-.9-.3ZM302.5 329.5c-.1.4.1.6.4.4l.2-.2c.3-.6-.5-.7-.6-.2ZM304.1 328.6c0 .5.2.6.5.4l.2-.2c.2-.6-.6-.7-.7-.2Z"/><path fill="#4A1B0B" d="m294.4 333.4.4 1c.6 1.3 2.3 1.2 2.5-1 0-.6 0-1.2-.4-1.5-.2-.2-2.9-.6-2.5 1.5ZM297.8 334.3v.5c0 .5.7.8 1.1 0 .1-.3.2-.5.1-.7 0-.1-1-.7-1.2.2ZM299.8 333v.5c0 .6.6.8 1 0 .1-.2.2-.4.1-.6 0-.1-1-.7-1.1.2ZM301.7 331.8v.4c0 .6.7.8 1 0 .2-.2.3-.5.2-.6-.1-.1-1-.7-1.2.2ZM303.5 330.9v.3c0 .4.4.5.7 0v-.5s-.6-.4-.7.2Z"/><path fill="#8E3F24" d="m297.6 334.4.1-.4.2-.5.1-1.2-.1-.3s-.4 3.6-2 3.7h-.4c.4 0 .8 0 1.2-.2.4-.2.6-.6.8-1Z"/><path fill="#4A1B0B" d="M299.7 330.7c.1.8-.1 2.3-.3 2.5.5 0 1-2.5.3-2.5ZM301.7 329.7c0 .8-.2 2.1-.4 2.3.5 0 1-2.4.4-2.3ZM303.5 328.8c.2.5-.1 2.2-.4 2.6.4-.3 1.2-2.3.4-2.6ZM297.8 331.4c.1 1.2-.1 2.8-.3 3.1.6-.1.8-3.1.3-3Z"/><path fill="#C88300" d="m323.6 241.7-.2-.2c-.1.2-.4.6-1 1l.2.1.3.2.9-1-.2-.1Z"/><path fill="#71ABFF" d="M346 203.2c-4.6-14.8 14.3-33.2-9.6-66.6 0 2.1-7.8 3.8-17.4 3.8-9.6 0-17.2-1.7-17.4-3.7-.9 6 1.8 11.3-10.7 21.2-2 1.6-17.1 11-18.4 16 12.8-10.7 14.3-4 12.3 2-4.3 12.6 2.6 18 9.3 15.6 6-2.2 14.4-11.5 18.8-15.3 1.7-1.5 3-.3 3-.3 1.5 1.5 1.4 3.2.8 5-1.3 3.5-5 7.3-3.9 10.4 3.5 9.4 11-10 13.3-4 1 2.7-4.7 6.7-6.5 12.2-2.6 8 5.9 15.8 10.7 3.5 1.9-5 4.4-22.8 10.4-15 4 5 .1 12.7 4.9 21.2 1.1 2 3.5 4 5.4 3a28.5 28.5 0 0 1-5-9Z"/><path fill="#5391E5" d="M286.8 189.5c0-2.3.3-4.6 1-6.8.5-2.3 1.4-4.5 2.7-6.4 13-19.4-4-11-8-8.2v.1c3.4-.2 3.6 4 2.3 7.8-2.7 7.8-1 12.8 2.2 15l-.2-1.5Z"/><path fill="#5391E5" d="M346 203.2c-4.6-14.8 14.3-33.2-9.6-66.6 0 2.1-7.8 3.8-17.4 3.8-9.6 0-17.2-1.7-17.4-3.7l-.3 4 .7.4c1 .6 2.2 1 3.4 1.4 2.6.8 5.3 1.3 8 1.8 4.8.7 9.8 1.2 14.6 2.4 6.1 1.5 13 4.6 14.4 11.5 2.2 12.1-4.8 13.2-13.4 13-21.4-.5-16.8 3.7-28.2 14.8a24.8 24.8 0 0 1-9.7 6c1 0 2-.2 3-.5 6-2.2 14.4-11.5 18.8-15.3 1.7-1.5 3-.3 3-.3 1.4 1.5 1.4 3.2.8 5-1.3 3.5-5 7.3-3.9 10.4 3.5 9.3 11-10 13.3-4 1 2.7-4.7 6.7-6.5 12.2-2.6 8 5.9 15.8 10.6 3.5 2-5 4.5-22.8 10.5-15 3.9 5 .1 12.7 4.9 21.2 1.1 2 3.5 4 5.4 3a28.4 28.4 0 0 1-5-9Z"/><path fill="#4C8AE4" d="M301.3 156.6c5.6.4 11 1.9 16.5 3 2.5.6 5 1.2 7.5 1.5 1.3.2 2.6.3 4 .2 1 0 2.3-.2 3.4-.8 1.9-1 2.8-3.1 2-5.2-.6-1.9-2.3-3.2-4-4-4.2-2-9-2-13.4-2.2-4.7-.3-9.7-.9-13.7-3.7-.9-.6-1.7-1.4-2.5-2.2-.4 3.7-2 8-9 13.7 3-.5 6.2-.5 9.2-.3Z"/><path fill="#2D76E0" d="m303 150.8-.4-.1c-1-.4-2.2-1-3.3-1.8l-.8 1.3c1.4 0 2.8.3 4.2.6h.2ZM319.1 155.9a15.6 15.6 0 0 0 4.1-.3c.6-.2 1.3-.4 1.5-1 .5-1-.6-1.9-1.4-2.2-1.3-.5-2.7-.6-4-.7-3.1 0-6.3.4-9.4.6h-1.6l.5.2c2.3.6 4.4 1.7 6.7 2.5 1.1.5 2.4.8 3.6.9Z"/><path fill="#4C8AE4" d="M346 203.2c-4.6-14.8 14.3-33.2-9.6-66.6 0 2.1-7.8 3.8-17.4 3.8-9.6 0-17.2-1.7-17.4-3.7l-.2 2.6.5.4c2 1.5 4.3 2.5 6.7 3.2 6.4 1.8 13.2 1.7 19.7 3 3 .7 6 1.6 8.6 3.3 3 2 5.2 5 6.6 8.5 1.4 3.6 2 7.6 2.1 11.5.2 4 0 7.8-.5 11.6l-1.4 8.1-1 5.3c.3 4.3-.2 9.5 2.9 15 1.1 2 3.4 4 5.4 3a28.6 28.6 0 0 1-5-9Z"/><path fill="#2D76E0" d="M348.1 238.7c.4.7.5 1.5 1 2.2.3.5 1 .8 1.4 1.2.5.3 1 .8 1.1 1.5.2.8-.5 1.6-1.3 1.9a3 3 0 0 1-2.4-.4c-2-1.2-2.6-3.6-3.1-5.7-.2-.7-.2-1.4.5-1.9 1-.7 2.3.3 2.8 1.2Z"/><path fill="#4C8AE4" d="M358.2 215.3c.5.2.9.6 1 1.1.1.5 0 1.1-.1 1.6 0 .2-.2.4-.3.5l-.3.3c-.8.4-1.8.2-2.5-.3-.8-.6-1.8-2.5-1.1-3.6.4-.6.7-.4 1.2-.1.7.4 1.3.3 2 .5ZM346.3 151.7l-5.4-.3s-3 19.4 3.2 20.2c6.2.8 2.2-20 2.2-20Z"/><path fill="#E3BD00" d="M356.7 189c-1.3 0-2.5-.3-3.4-1-1.6-1-2.8-2.7-3.6-5a34.8 34.8 0 0 1-1.4-12.9v-3.8c0-3.2-.3-6.5-.9-9.7-.7-4-2.2-8.8-5.6-11.6a75.3 75.3 0 0 0-6.5-4.6c0-.1.2-.2.4-.1.8.3 5.5 3.6 6.2 4.2 1.3 1 2.5 2.4 3.4 4.1 1.2 2.2 2 4.8 2.6 8 .6 3.1 1 6.4 1 9.7v3.8c-.1 4.3-.2 8.7 1.3 12.7.8 2.2 1.9 3.8 3.3 4.8 1.6 1.1 4.4 1.2 6.2.2l.4.1-.1.4a7 7 0 0 1-3.3.7Z"/><path fill="#C88300" d="M359.3 188c-1 .4-2 .5-3 .5-1.2.5-3.3-.7-4-2-.8-.9-1.6-2.1-2.1-3.7-1.5-4-1.4-8.4-1.4-12.7v-3.8c0-3.3-.3-6.6-.9-9.8-.5-2.8-1.3-5.3-2.3-7.4l-.3-.2-.7-.9c-.4-.5-.9-1.1-1-1.8-.5-.7-1-1.2-1.7-1.7-.7-.6-5.4-3.9-6.2-4.2l-.4.1c0 .1 0 .3.2.4l1 .5h.1c.3 0 2.5 1 2.8 1.8v.2l2.4 1.7c3.4 2.8 5 7.7 5.6 11.6.6 3.2 1 6.5 1 9.7v4.1c.2.1.2.6.2.9l.4 9.3c.1.8.4 1.6.7 2.4.8 2.3 2 4 3.6 5 .9.7 2.1 1 3.4 1a7 7 0 0 0 3.3-.7l.1-.3c-.2.2-.6.3-.8 0Z"/><path fill="#B45F00" d="M359.5 188.4a.6.6 0 0 1-.4-.3l-1.3.3v.5c.8 0 1.4-.3 2-.5h-.3Z"/><path fill="#9B4300" d="M348.4 167v2.5l.5-.1v-2.6l-.5.3ZM336.7 140.8l-1-.5-.4.1c0 .2 0 .3.2.4l.6.3.6-.3Z"/><path fill="#E3BD00" d="M358.4 217.8c-3.6 0-7.3-1-10.4-2.8a16.7 16.7 0 0 1-7.2-7.7c-2.7-6.3-1-13.2.6-19.9l1.3-5.4a54.2 54.2 0 0 0-9-41.3v-.4h.4a54.2 54.2 0 0 1 9 41.8c-.3 1.8-.7 3.7-1.2 5.5-1.6 6.6-3.2 13.4-.6 19.5 2.7 6 9.5 10.2 17.1 10.2 5.1 0 9.4-2 11.4-5.3 0 0 .2-.1.4 0v.3c-2 3.4-6.5 5.5-11.8 5.5Z"/><path fill="#C88300" d="M370.2 212c-.2-.1-.3 0-.4 0a9 9 0 0 1-1.7 2c-.7 2.4-6.3 3.4-9.3 3.3h-.4c-7.6 0-14.5-4.2-17.1-10.2-2.6-6.1-1-13 .6-19.5a54.3 54.3 0 0 0-8.2-47.2v.3l.8 1.1c.8.2 1.3 1.3 1.4 2.2 1.2 2 2.2 4 3.1 6.1.6.3.8 1 1 1.5 0 .2.2.8.1 1.2 2 5.3 3.1 11 3.4 16.6 1.3 2.8-.7 13.7-2.9 22.2-1 4.4-1.2 8.6-1.2 8.6A16.7 16.7 0 0 0 348 215c3 1.8 6.8 2.8 10.4 2.8 5.3 0 9.7-2 11.8-5.5v-.3Z"/><path fill="#9B4300" d="M334.1 140.4h-.3c-.2 0-.2.2-.1.3l.6 1h.7l-.9-1.3Z"/><path fill="#6F2910" d="M356 160.8c7 0 14.7 6.5 16.7 10.1l-2.4-.4 3 1.7.3 1.1c-.5 1.6-3.7 1-7.3-1l-1.3-3.2.2 2.6c-5-2.9-12.5-11-9.1-11Z"/><path fill="#9B4300" d="M368.3 173.3a52.9 52.9 0 0 1-1.2-7.7v-.6a25 25 0 0 0-5.7-3.2c0 2.2.3 4.4.5 6.6v1c1.2 1 2.3 1.7 3.3 2.3l-.2-2.6 1.3 3.3 2 .9Z"/><path fill="#4A1B0B" d="m355.6 160.8 6.8 4.9-4.3-4.8a12 12 0 0 0-2-.2l-.5.1Z"/><path fill="#D8E0E0" d="M358.8 163.5 348 156l.3-.4L359 163s3.4 2.6 3.3 2.7l-3.6-2.2Z"/><path fill="#9DAFAE" d="m354.8 160.2-6.5-4.5-.3.5 7 4.7-.2-.7Z"/><path fill="#9B4300" d="M353.4 159c-.2-1.5-.7-3-1.6-4.3-2.5-3.2-8.5-5.5-8.8-7-.4-1.3 1.2-2.4 1-3.7l-.2-.8h-1a2 2 0 0 1-.8-.2c-.3-.2-.7-.4-1-.2-.3.1-.5.4-.8.7-.3.2-.5.4-1 .5H338c-.3 0-.8 0-1 .4l-.2 1c-.2.5-.4.8-1 1-.2.1-.6.2-.7.4 0 .2 0 .3.2.5.4 1 2.7 1.5 3.7 2.1.6.4 1.2.7 1.5 1.3.2.4.1.2 0 8.7-.3 15 14.4 10.5 13-.4Z"/><path fill="#6F2910" d="M345 149.6c-1-.7-2-1.3-2-1.8v-.7c-.4-.4-.1-1.2 0-1.8 0-1.3-1.2 0-1.5.4-.3.3-.5.6-.6 1l-.4 1.1c-.3.8-1 1-1.8.7-.9-.5-1-.2-1 .3l1.3.6c.6.4 1.2.7 1.5 1.3.5-.2 1.1-.4 1.7-.4-.1-.9 1.5-.9 2.8-.7ZM353.4 159c-.2-1.5-.7-3-1.6-4.3-.9-1-2-2-3.3-3 3.6 5.9 1.8 14.6-1.5 17.3 3.6-.4 7.2-4.3 6.4-10Z"/><path fill="#B45F00" d="M339.3 144H338c-.3 0-.8 0-1 .4l-.2 1c-.2.5-.4.8-1 1-.2.1-.6.2-.7.4l.1.4c1.6.1 3.4-1.3 4.2-2.7l.2-.6h-.3ZM346 161.4c.4-1.9.6-4.2-.4-5.9a2.9 2.9 0 0 0-2-1.4 4 4 0 0 0-2 .3l-1 .5-.1 4.5c-.1 5.2 1.6 8 3.8 9.1l.7-3.2c.3-1.3.8-2.6 1-4Z"/><path fill="#E3BD00" d="M333.5 141.2h-.1l-.4.2c3.9 5.3 6.7 7.2 7.9 7.9l.5-.4c-1-.4-3.8-2.2-8-7.7Z"/><path fill="#C88300" d="M335 143.3a19 19 0 0 0 2 2.4l2.4 2 1.1 1.1.6.3.3-.2a24.7 24.7 0 0 1-8-7.7l-.4.2.6.8c.6 0 1 .7 1.3 1.1Z"/><path fill="#9B4300" d="m334 142-.5-.8h-.1l-.4.2.5.6h.6Z"/><path fill="#B45F00" d="m340.9 148.7-.2.5.4-.1.3-.2-.5-.2Z"/><path fill="#E3BD00" d="m340.5 150.7-.2-.3v-.1a6 6 0 0 1 1.6-1.4c1-.5 1.4-.6 1.5-.5l.6.5c0-.2 0-.6-.2-.9 0 0-.2-.2-.5-.2-.9 0-2.9 1.4-3.4 2.2-.2.3-.2.6 0 .7 0 .2.4.3.7.3l-.1-.3Z"/><path fill="#B45F00" d="m340.5 149.4-.3.3.3.4.7-.6-.7-.1Z"/><path fill="#C88300" d="M343.8 148s-.2-.2-.5-.2c-.5 0-1.5.6-2.3 1.2v.2c-.1.5-.7 1.1-1.3 1.3l.1.2c.2.2.5.3.8.3l-.1-.3-.2-.2v-.2a6 6 0 0 1 1.6-1.3c1-.6 1.4-.7 1.5-.6l.6.5c0-.2 0-.6-.2-.9Z"/><path fill="#B45F00" d="m341.8 148.4-.6.4.1.5.6-.3.2-.2a1 1 0 0 1-.3-.4ZM340.3 150.4l-.2.2-.1.3.6.1-.1-.3-.2-.3ZM343.8 148s-.2-.2-.5-.2h-.1a1 1 0 0 1 .2.6l.6.5c0-.2 0-.6-.2-.9Z"/><path fill="#E3BD00" d="M342.1 149.4v-.3h-.3c-.4.2-.8 0-1.5 0-.2 0-.3.2-.3.3 0 .2.1.3.3.3.2 0 1.2.2 1.8-.2v-.1Z"/><path fill="#C88300" d="M340.8 150.4c-.1 0-.2 0-.3-.2l.1-.3c.4-.3.3-.7.5-1.4l.4-.2c.1 0 .2.2.1.3 0 .3 0 1.3-.7 1.7h-.1Z"/><path fill="#9B4300" d="m341 149.2-.2.5.4.3.4-1c-.2.2-.4.2-.6.2Z"/><path fill="#E3BD00" d="M340.6 149.8c-.1.1-.1.3 0 .4l.4-.2-.4-.2ZM341.2 149.1h.2c0-.4-.1-.6-.3-.6l-.1.6h.2Z"/><path fill="#C88300" d="M342.1 149h-.3c-.4.3-.7.2-1.3.2 0 .2-.1.3-.2.3h-.3l.3.2c.2 0 1.1.2 1.8-.2v-.4Z"/><path fill="#B45F00" d="M342.1 149h-.2c.3.4-.4.7-1 .7.3 0 .8 0 1.2-.2v-.4Z"/><path fill="#C88300" d="M374.6 206.3Zm-5.6 6.6Zm-.5-.4Zm6-7a4.9 4.9 0 0 0-4.7-.9h-.3v.1a4 4 0 0 0-.3.2h-.1l-.2.1a4.9 4.9 0 0 0-1.8 6.4V211.8a5 5 0 0 0 1.9 1.8l.3.1.3.2a5 5 0 0 0 6.4-3c.6-1.8.1-3.9-1.4-5.2Zm-6.9 6a4.4 4.4 0 0 1 0-4.6 4.4 4.4 0 0 1 4.8-2 2.3 2.3 0 0 1 .3.2 4.2 4.2 0 0 1 1.1.5l.2.2h.1l.1.1.2.2.2.2a4.4 4.4 0 0 1 0 5.8 4.4 4.4 0 0 1-4.4 1.3 4.3 4.3 0 0 1-1-.4l-.2-.1-.1-.1-.3-.3h-.1l-.9-1Z"/><path fill="#E3BD00" d="M366.7 208.6c0 .5.2 1 .4 1.4-.3-1.3 0-2.6 1-3.7.9-1 2.1-1.5 3.4-1.4a2.3 2.3 0 0 0-1.6-.3 4.7 4.7 0 0 0-2 1.2c-.7.8-1.2 1.8-1.2 2.8Z"/><path fill="#B45F00" d="M367.6 211.4c-.3-.2-.6-.6-.7-.9l-.4-.7a4.9 4.9 0 0 0 2.8 3.9h.3c.6.2 1.3 0 2-.1a4.3 4.3 0 0 1-4-2.2ZM372.4 205a4.4 4.4 0 0 1 3 5.9 6 6 0 0 0 .8-1.7 4.9 4.9 0 0 0-4.8-4.9l1 .7Z"/><path fill="#E3BD00" d="M374.4 212.5a7.7 7.7 0 0 1-3.2 1.6 4.9 4.9 0 0 0 4.8-3.3c-.4.6-1 1.2-1.6 1.7ZM369.1 212.3c.1.1.5.3.5 1.7 0 .1-.1.2-.3.2a.3.3 0 0 1-.2-.2c0-1.3-.3-1.3-.3-1.3-.1-.1 0-.3 0-.4h.3Z"/><path fill="#C88300" d="m369.1 212.5-.2.1h-.2v.1s.4 0 .4 1.3c0-.2.2-.2.3-.2h.2c0-1-.3-1.3-.4-1.4Z"/><path fill="#B45F00" d="m369 213.3.5-.1a2 2 0 0 0-.1-.6c-.1.2-.3.3-.5.3l.1.4Z"/><path fill="#C88300" d="M370.4 213v.3c0 .1-.2.1-.4 0-.4-.1-.7.1-1.4.2-.2 0-.3 0-.3-.2 0-.1 0-.3.2-.3s1.1-.4 1.8 0Z"/><path fill="#E3BD00" d="M368.6 213.5c.7-.1 1-.3 1.4-.1h.4c-.9-1-2-.2-1.8.1ZM337.7 136.6c-.1-.5-.5-.8-1-1-.3-.2-.8-.2-1.2-.1l.6.5h.5c.3.2.5.4.6.8.2.5.1.9-.1 1.3-1.2 1.9-6.4 3.3-15.9 4.5-4.7.5-9.2.5-13-.1-3-.5-5.5-1.4-6.7-2.5-.5-.3-.7-.7-.7-1 0-.7.3-1.2.7-1.5v-.6c-.9.4-1.3 1.2-1.3 2.1 0 .5.4 1 1 1.4a16 16 0 0 0 7 2.6 40.5 40.5 0 0 0 13 .1c9.9-1.2 15-2.7 16.3-4.7a2 2 0 0 0 .2-1.8Z"/><path fill="#C88300" d="M300.8 138.9c0-.7.3-1 .7-1.4v-.6c-.7.3-1.1.9-1.2 1.5l.5.5Z"/><path fill="#B45F00" d="m300.4 138 .3.3.1.1c.1-.4.4-.7.7-.9v-.6c-.5.2-.9.6-1 1Z"/><path fill="#C88300" d="M337.7 136.6c-.1-.4-.4-.7-.8-1-.3.2-.7.1-1 0v-.2h-.4l.6.6h.5c.3.2.5.4.6.8.2.5.1.9-.1 1.3-.4.7-1.4 1.3-2.8 1.9-2 1.4-4.7 1.7-7.1 2l-4.4.8c-.8.1-1.8.4-2.5-.1-4.4.5-8.5.4-12-.2-1.7-.3-3.2-.7-4.4-1.2-1 0-2-.4-2.9-1l.1.1a16 16 0 0 0 7 2.6 40.5 40.5 0 0 0 13.2.1c9.8-1.2 15-2.7 16.2-4.7a2 2 0 0 0 .2-1.8Z"/><path fill="#C88300" d="M307.1 142.3c-1.2-.3-2.3-.6-3.2-1a5.3 5.3 0 0 1-2.8-.9c1.3 1 3.6 2 6.5 2.5l-.5-.6Z"/><path fill="#B45F00" d="M319.8 143c-.3 0-.6 0-.8-.2-4 .3-7.6.2-10.7-.3l-.5-.1.4.6a40.4 40.4 0 0 0 12.2.2l-.6-.2ZM337.7 136.6c0-.3-.3-.6-.5-.8h-.9l-.2.2h.5c.3.2.5.4.6.8.1.3.1.5 0 .8.2.3.2.7.2 1l.1-.2a2 2 0 0 0 .2-1.8Z"/><path fill="#E3BD00" d="M337.9 137.2a6.8 6.8 0 0 0-2.3-1.7c.5.4.7.7.8 1.1l1 1c.6.5.4.9.3 1-1 1.6-7 2.6-15.4 2.7a72 72 0 0 1-19.4-1.8c-1.3-.4-2-.9-2-1.4 0-.4.3-.7.6-1v-.4l.1-.3c-.6.4-1.1 1-1.2 1.7 0 .8.7 1.4 2.3 2a68 68 0 0 0 17.9 1.7h1.7c3.3 0 14.2-.4 15.8-2.8.3-.4.4-1-.2-1.8Z"/><path fill="#C88300" d="M301 138.4v-.3c0-.4.2-.7.5-1v-.7c-.5.4-1 1-1.1 1.7v.3h.6Z"/><path fill="#B45F00" d="M301.6 136.4c-.5.3-1 .8-1.1 1.5l.5.4v-.2c0-.4.2-.7.5-1v-.4l.1-.3Z"/><path fill="#C88300" d="M337.9 137.2a6.8 6.8 0 0 0-2.3-1.7c.5.4.7.7.8 1.1l1 1c.6.5.4.9.3 1-.7 1.2-4.3 2-9.4 2.4a119 119 0 0 1-16 0h-.9c-.1 0-.5.2-1.3.2-2 0-5.1-.5-5.2-1.1l-2-.6a6 6 0 0 1-1.5-.7c.2.2.2.5.2.8l1.2.4a68 68 0 0 0 17.8 1.8h1.7c3.3 0 14.2-.4 15.8-2.8.3-.4.4-1-.2-1.8Z"/><path fill="#B45F00" d="M304 139.8a23 23 0 0 1-2.3-.8l.1.2.2.2c0 .2.2.3.3.5a20.4 20.4 0 0 0 2.5.7l-.9-.8ZM337.9 137.2a6.8 6.8 0 0 0-2.3-1.7c.5.4.7.7.8 1.1l1 1c.6.5.4.9.3 1-.1.3-.3.4-.6.6l-.6.9c.8-.3 1.3-.7 1.6-1.1.3-.4.4-1-.2-1.8Z"/><path fill="#E3BD00" d="M337.7 136.5c-.4-.4-1-.7-1.5-.7h-.3l.4.5c.4 0 .7.3 1 .6.3.3.4.8.2 1.3-.3.7-1.2 1.9-4.4 3-3.1 1-7.4 1.6-12.8 1.9-12.3.4-17.8-3.3-19.2-5.5-.3-.5-.3-.7-.2-.8l.2-.1.5.1v-.5c-.2-.1-.4-.2-.6-.1-.3 0-.5.1-.6.3-.1.3 0 .8.2 1.3 1.4 2.2 6.5 5.8 17.6 5.8a54.7 54.7 0 0 0 15-2c3.3-1 4.4-2.3 4.8-3.2.3-.7.2-1.3-.3-1.9Z"/><path fill="#9B4300" d="m333 141.2-.8.2.2.4h.1l.8-.1.1-.1-.5-.4Z"/><path fill="#C88300" d="M300.4 137c.1-.2.3-.3.6-.3l.6.1v-.5c-.2-.1-.4-.2-.6-.1-.3 0-.5.1-.6.3v.6Z"/><path fill="#B45F00" d="m301.6 136.3-.3.1-.4.3h.2l.5.1v-.5Z"/><path fill="#C88300" d="M336.3 136.3c.4 0 .7.3 1 .6.2.2.3.5.3.9.1-.2.2-.5.1-.7v-.6c-.4-.4-1-.7-1.5-.7h-.3l.4.5Z"/><path fill="#B45F00" d="M336.5 135.8H336l.4.5.6.2-.4-.7Z"/><path fill="#C88300" d="M329.3 142.3h-.6a63 63 0 0 1-8.4.8H319l1 .5h.3c4-.2 7.5-.6 10.3-1.2h-1.3ZM309.5 142.2c-4.9-1.1-7.4-3.1-8.3-4.6l.6 1.1.5.9a20 20 0 0 0 9.2 3.5c-.7-.2-1.3-.6-2-.9Z"/><path fill="#B45F00" d="M336.1 139.7a12.3 12.3 0 0 1-3.5 1.6l.5.4h.2a9.6 9.6 0 0 0 4-2.4c-.3.2-.8.4-1.2.4Z"/><path fill="#E3BD00" d="M334.5 141.6v-.3c0-.1-.2-.2-.4-.1-.4.2-.7 0-1.4-.2-.2 0-.3 0-.4.2 0 .2.1.3.2.3.3 0 1.2.5 1.9.2v-.1Z"/><path fill="#C88300" d="M333 142.3c-.2 0-.2 0-.3-.2l.1-.3c.4-.2.5-.6.8-1.3 0-.1.2-.2.4 0 .1 0 .2.1 0 .3 0 .2-.2 1.1-1 1.5Z"/><path fill="#B45F00" d="m333.3 141.2-.3.5c.2 0 .3.1.4.3l.5-.8h-.6Z"/><path fill="#E3BD00" d="M332.9 141.8c-.2 0-.2.2-.2.3l.5-.1-.3-.2ZM333.6 141.1h.2c0-.3 0-.5-.2-.6l-.3.6h.3Z"/><path fill="#C88300" d="M334.5 141.3c0-.1-.3-.2-.4-.1-.3.2-.6 0-1.2-.1 0 .2-.2.3-.3.3h-.2l.1.1c.2 0 1.2.5 1.8.2l.1-.1v-.3Z"/><path fill="#E3BD00" d="M336.5 140.4v-.2c0-.2-.3-.2-.4 0-.3.2-.7 0-1.4 0-.2 0-.3.1-.3.3 0 .1.1.2.3.2.2 0 1.1.3 1.8-.2Z"/><path fill="#C88300" d="M335.2 141.4h-.3v-.5c.4-.2.4-.6.6-1.3 0-.2.2-.3.3-.2.2 0 .3.2.2.3 0 .2 0 1.2-.7 1.7h-.1Z"/><path fill="#B45F00" d="M335.3 140.2c0 .2 0 .5-.2.6l.5.2.3-.9c-.2.2-.3.1-.6.1Z"/><path fill="#E3BD00" d="M335 140.9c-.1.1-.2.3-.1.4l.5-.3c-.2-.1-.3 0-.4 0v-.1ZM335.6 140.2l.2-.1c0-.3-.1-.5-.3-.5l-.1.6h.2Z"/><path fill="#C88300" d="M336.5 140.2c0-.2-.3-.2-.4 0-.3.2-.6 0-1.2 0v.1c0 .2-.1.3-.3.3h-.2l.2.1c.3 0 1.2.3 1.8-.2h.1v-.4ZM367.5 185.8c-.3-1-.8-1.7-1.5-2.3l-.1-.1a2.6 2.6 0 0 0-.2-.1l-.2-.2-1.5-.6a4.8 4.8 0 0 0-2.6 0c-2.3.8-3.7 3-3.4 5.4v.2a3.7 3.7 0 0 0 .1.5l.1.3a5 5 0 0 0 .3.5 4.9 4.9 0 0 0 9-3.6Zm-.3 1.6v.7l-.2.3-.2.6a4.3 4.3 0 0 1-6.8 1.5h-.1v-.2a5 5 0 0 1-.4-.3l-.5-.7a3.9 3.9 0 0 1-.2-.6 4.9 4.9 0 0 1-.2-.5v-.7l-.1-.1v-.2l.3-1.6a4.3 4.3 0 0 1 2.6-2.5h.2l.3-.1a4.3 4.3 0 0 1 1.8 0h.1a4.4 4.4 0 0 1 3 2.3v.1l.1.2a1.7 1.7 0 0 1 .1.3c.2.5.2.9.2 1.3v.2Z"/><path fill="#E3BD00" d="M359.2 184.2c-.2.5-.4 1-.4 1.4a4.4 4.4 0 0 1 6.5-2 2.3 2.3 0 0 0-1.3-1.1c-.6-.2-1.2-.2-1.8-.1l-.5.1c-1 .3-2 .8-2.5 1.7Z"/><path fill="#B45F00" d="M358.5 187.1c-.2-.3-.2-.8-.2-1.1l.1-.8a4.8 4.8 0 0 0 .4 4.7l.3.1c.3.5 1 .8 1.6 1a4.3 4.3 0 0 1-2.2-3.9ZM366 184.2c.4.5.8 1 1 1.8.6 1.8-.1 3.7-1.6 4.8l1.6-1a4.9 4.9 0 0 0-1.6-6.7c.3.3.4.7.6 1Z"/><path fill="#E3BD00" d="M363.7 191.7a7.7 7.7 0 0 1-3.6-.4 4.9 4.9 0 0 0 5.8-.3c-.6.3-1.4.6-2.2.7ZM358.7 187.5h-.3c-.1 0-.2.2-.1.3.2.4 0 .7-.3 1.5 0 .1 0 .2.2.3.1 0 .3 0 .3-.2s.6-1 .3-1.8h-.1Z"/><path fill="#C88300" d="M359.3 189c0 .2 0 .3-.2.3-.1 0-.3 0-.3-.2-.2-.4-.6-.5-1.2-.8-.1-.1-.2-.3 0-.4 0-.1.1-.2.3 0 .2 0 1.1.3 1.4 1v.2Z"/><path fill="#B45F00" d="M358.2 188.6c.2 0 .4.2.5.3l.3-.4-.7-.5v.6Z"/><path fill="#E3BD00" d="M358.8 189v.1c0 .2.2.2.3.2l-.1-.5c-.2.1-.2.2-.2.3ZM358.2 188.4v-.3l-.6.1.6.4v-.2Z"/><path fill="#C88300" d="M358.4 187.5c-.1 0-.2.2-.1.3.1.4 0 .7-.2 1.2.2.1.3.2.3.4v.2l.1-.2c0-.2.6-1 .3-1.8-.2-.1-.3-.2-.4-.1Z"/><path fill="#863922" d="M236 102.2s-.6 1.4.7 1.6c0 0-5.4 1.3-6.7.9-1.2-.4 6-2.5 6-2.5Z"/><path fill="#79311D" d="m320 224.4.3 3.2c-5-5.8 1.4-6.2 1.4-6.2l-1.6 3Z"/><path fill="#8E3F24" d="M330.2 43.7a14 14 0 0 1-1 4.6c-.6 1.3-1.4 2.6-2.2 3.7a15.7 15.7 0 0 1-8.5 6.1h-.2l-.6.3c-1.4.3-4 .3-5.3-1a24 24 0 0 1-1.2-1.6l-1.8-3c-1.5-2-2.5-3.5-3.1-5.8V47c-.3-1-.5-2-.5-3a6.6 6.6 0 0 1 .2-1.5c.1-.8.2-1.4 0-2.2-.2-.4-.4-.9-.4-1.4-.2-.8-.2-1.6-.2-2.1.1-1 0-1.9.3-4 .3-2.3.8-3.2 2-4.7 2.8-4 8-3.2 12.5-2.6.4 0 1.1.5 2 1 1.2.9 2.6 2 3.8 3.3l1.5 3.6 1.5 4 .3.8c.7 2 1 3.8.9 5.6Z"/><path fill="#8E3F24" d="M334.4 42.9c-.7 3.2-3 5.5-4.4 5.4h-.2c-1.9-.2-1.4-3-.7-6.1.7-3.2 2.5-5.7 4-5.5.6 0 1.1.7 1.4 1.6l.2 1.5c0 1 0 2-.3 3Z"/><path fill="#863922" d="M334.7 39.8c-1.5.6-3.3 2-4 3.8-.8 1.7-.8 3.4-.1 4.5l-.8.2c-1.9-.2-1.4-3-.7-6.1.7-3.2 2.5-5.7 4-5.5.6 0 1.1.7 1.4 1.6l.2 1.5Z"/><path fill="#6C2818" d="M331.4 47.3c0 .3-.3.5-.5.5s-.3-.2-.2-.5c.1-.3.2-.5.4-.5.3 0 .4.2.3.5Z"/><path fill="#D8E0E0" d="M337.2 55.8c.2-.4.6-.7 1-.9l1.6-.5.1.2c.5 1 1 2.2 1.6 3 3.5 5 8.9 2.2 7.1-1.9l.3.4c2.4 4.4-3.2 8-6.8 6.4-2.8-1.2-4-4.3-5-6.7Z"/><path fill="#CDD5D4" d="M347.4 60c-1.6.8-4 .4-5.9-2.3a15.9 15.9 0 0 1-1.7-3.3l-1.5.5c-.5.2-.9.5-1.1 1 0 0 0 .3.2.4 3.7 0 6 5.2 6.3 6.5 2.9.2 6-2 5.7-5-.2 1-1 1.9-2 2.1Z"/><path fill="#9DAFAE" d="M344.8 62.8c2.1-.3 4.1-1.8 4.6-3.8a6.8 6.8 0 0 1-4.6 3.8ZM345.8 60.3a5 5 0 0 1-3.6-1.7 3.2 3.2 0 0 0 3.6 1.7ZM340 54.8v-.2l-.2-.2c-.5 0-1 .3-1.5.5-.4.2-.9.5-1.1 1v.1c1-.1 2.4-.8 2.8-1.2Z"/><path fill="#E3BD00" d="m338.2 54.4-1.4.7s.7-.1 1.5-.5l1.3-.7c0-.1-.7.1-1.4.5Z"/><path fill="#C88300" d="M338.3 54.3v.3a4 4 0 0 0 1-.6l-1 .4Z"/><path fill="#C88300" d="M338.5 54v-.4h-.1v-.2l-.1-.1-.1-.1V53l-.2-.2h-.2v-.1h-.1a.3.3 0 0 0-.2 0l-.1.1a.4.4 0 0 0 0 .2v.8h.1a1.9 1.9 0 0 0 .4.5v.1h.2v.1H338.5v-.1l.1-.1V54Zm-.6-.3h-.1v-.4a.5.5 0 0 1 0 .1l.1.2.2.3v.2l-.3-.4Z"/><path fill="#B45F00" d="m337.9 53.7-.2-.4c-.1 0 0 .8.4.8l-.2-.4Z"/><path fill="#C88300" d="M338.4 53.5c-.2-.3-.5-.7-.7-.7h-.2l-.2.3c.2-.2.4-.2.5-.1.2 0 .1.3 0 .3l.2.4.1.4c.2 0 .1.4 0 .3h-.3l.4.2h.1c.3-.2.3-.7 0-1v-.1Z"/><path fill="#C88300" d="M336.8 55.1c0 .1.7-.1 1.5-.5a5 5 0 0 0 1.3-.7l.4.8-1.3.8c-.2 0-1.4.6-1.5.5l-.4-.9Z"/><path fill="#B45F00" d="m340 54.7-.4-.8-1.1.6-.3 1.2.5-.2 1.3-.8Z"/><path fill="#C88300" d="M332.8 53h-.4l-.3.1-.5.5a2.7 2.7 0 0 0-.4.6c-.1.3-.2.6 0 .8v.1H331.6c.3 0 .7-.2 1-.5v-.2l.2-.2.2-.6c.2-.4 0-.6 0-.6Zm-.6 1.2-.1.2-.6.4.2-.7a2.5 2.5 0 0 1 .5-.6l.4-.2-.2.7h-.1v.2ZM331.5 52.3H330.8a3.3 3.3 0 0 0-.6.3 2.7 2.7 0 0 1 1-.3h.2Zm0 0H330.8a3.3 3.3 0 0 0-.6.3 2.7 2.7 0 0 1 1-.3h.2Zm0 0H330.8a3.3 3.3 0 0 0-.6.3 2.7 2.7 0 0 1 1-.3h.2Zm0 0H330.8a3.3 3.3 0 0 0-.6.3 2.7 2.7 0 0 1 1-.3h.2Zm0 0H330.8a3.3 3.3 0 0 0-.6.3 2.7 2.7 0 0 1 1-.3h.2Zm0 0H330.8a3.3 3.3 0 0 0-.6.3 2.7 2.7 0 0 1 1-.3h.2Zm0 0H330.8a3.3 3.3 0 0 0-.6.3 2.7 2.7 0 0 1 1-.3h.2Zm0 0H330.8a3.3 3.3 0 0 0-.6.3 2.7 2.7 0 0 1 1-.3h.2Zm0 0H330.8a3.3 3.3 0 0 0-.6.3 2.7 2.7 0 0 1 1-.3h.2Zm0 0H330.8a3.3 3.3 0 0 0-.6.3 2.7 2.7 0 0 1 1-.3h.2Zm0 0H330.8a3.3 3.3 0 0 0-.6.3 2.7 2.7 0 0 1 1-.3h.2Zm0 0H330.8a3.3 3.3 0 0 0-.6.3 2.7 2.7 0 0 1 1-.3h.2Zm0 0H330.8a3.3 3.3 0 0 0-.6.3 2.7 2.7 0 0 1 1-.3h.2Zm0 0H330.8a3.3 3.3 0 0 0-.6.3 2.7 2.7 0 0 1 1-.3h.2Zm0 0H330.8a3.3 3.3 0 0 0-.6.3 2.7 2.7 0 0 1 1-.3h.2Zm-.8.1h-.1l-.3.2a2.6 2.6 0 0 1 .4-.2Zm1.2-.2V52h-.1l-.4-.2h-.2a2.7 2.7 0 0 0-1 .3l-.5.3c-.4.3-.3.6-.3.7l.1.1.5.1h.4l.4-.1a3.2 3.2 0 0 0 .8-.5l.3-.3v-.3Zm-1.9.8h-.2s.2-.3.5-.4a2.7 2.7 0 0 1 1-.3.5.5 0 0 1 .2 0l-.2.3a2 2 0 0 1-.6.3 2.2 2.2 0 0 1-.7.1Zm1.5-.7h-.4a3 3 0 0 1-.2 0 3.4 3.4 0 0 0-.6.3 2.6 2.6 0 0 1 1-.3h.2Zm0 0h-.4a3 3 0 0 1-.2 0 3.4 3.4 0 0 0-.6.3 2.6 2.6 0 0 1 1-.3h.2Zm0 0h-.4a3 3 0 0 1-.2 0 3.4 3.4 0 0 0-.6.3 2.6 2.6 0 0 1 1-.3h.2Zm0 0h-.4a3 3 0 0 1-.2 0 3.4 3.4 0 0 0-.6.3 2.6 2.6 0 0 1 1-.3h.2Zm0 0h-.4a3 3 0 0 1-.2 0 3.4 3.4 0 0 0-.6.3 2.6 2.6 0 0 1 1-.3h.2Zm0 0h-.4a3 3 0 0 1-.2 0 3.4 3.4 0 0 0-.6.3 2.6 2.6 0 0 1 1-.3h.2Zm0 0h-.4a3 3 0 0 1-.2 0 3.4 3.4 0 0 0-.6.3 2.6 2.6 0 0 1 1-.3h.2Zm0 0h-.4a3 3 0 0 1-.2 0 3.4 3.4 0 0 0-.6.3 2.6 2.6 0 0 1 1-.3h.2Zm0 0h-.4a3 3 0 0 1-.2 0 3.4 3.4 0 0 0-.6.3 2.6 2.6 0 0 1 1-.3h.2Zm0 0h-.4a3 3 0 0 1-.2 0 3.4 3.4 0 0 0-.6.3 2.6 2.6 0 0 1 1-.3h.2Zm0 0h-.4a3 3 0 0 1-.2 0 3.4 3.4 0 0 0-.6.3 2.6 2.6 0 0 1 1-.3h.2Zm0 0h-.4a3 3 0 0 1-.2 0 3.4 3.4 0 0 0-.6.3 2.6 2.6 0 0 1 1-.3h.2Zm0 0h-.4a3 3 0 0 1-.2 0 3.4 3.4 0 0 0-.6.3 2.6 2.6 0 0 1 1-.3h.2Zm0 0h-.4a3 3 0 0 1-.2 0 3.4 3.4 0 0 0-.6.3 2.6 2.6 0 0 1 1-.3h.2Zm0 0h-.4a3 3 0 0 1-.2 0 3.4 3.4 0 0 0-.6.3 2.6 2.6 0 0 1 1-.3h.2Z"/><path fill="#E3BD00" d="M339.3 51a4.8 4.8 0 1 1-8.5-4h.3V47.3l-.4.6a4.4 4.4 0 0 0 3.8 6.7 4.4 4.4 0 1 0-.5-8.8l.1-.4h1.4c1.2.3 2.3 1 3 2 .7 1.1 1 2.4.8 3.7Z"/><path fill="#C88300" d="m336.4 45.8-.4.2c-.7-.2-2-.2-2.8-.2l.3-.5a15.9 15.9 0 0 1 2 .2c.3 0 .7.1 1 .3ZM332.3 52.6l-.3-.1h-.5a2.7 2.7 0 0 0-.8.6l-.3.3-.2.3v.5l.4.2a1.5 1.5 0 0 0 .6-.2 2.8 2.8 0 0 0 1-.7l.2-.6v-.3Zm-1.7 1.4s0-.3.3-.6l.2-.1.1-.1.8-.3s-.1.3-.5.6a3.2 3.2 0 0 1-.3.2l-.6.3Z"/><path fill="#E3BD00" d="m337.2 53.7-.4.3.7-.4h-.3Z"/><path fill="#C88300" d="M332.2 54.4a5 5 0 0 0 2.3.6c1 0 2-.3 2.8-.9a5.6 5.6 0 0 1-5.1.3ZM338.5 47.5l-1-1.1c2.3 2.4 2.1 5.6.3 7v.3a4.8 4.8 0 0 0 .7-6.2Z"/><path fill="#B45F00" d="M338 53.5v-.2h-.2v-.1.6l.2-.3Z"/><path fill="#C88300" d="M331.9 52.2c0-.2-.2-.3-.6-.3-.3 0-.6 0-.9.2l-.8.4c-.3.3-.2.6-.2.7 0 0 .2.2.6.2V53h-.2l.8-.6.7-.1h.2l-.3.3h.4v.2c.3-.3.3-.5.3-.6Z"/><path fill="#E3BD00" d="M330.7 52.3a2 2 0 0 1 1.2 0v-.1c0-.2-.2-.3-.6-.3-.3 0-.6 0-.9.2l-.8.4c-.3.3-.2.6-.2.7l.2.1c0-.5.7-.8 1.1-1ZM330.3 54.3c0-.4.4-.8.8-1 .3-.3.7-.6 1.2-.7l-.3-.1a2 2 0 0 0-1.1.4c-.5.4-1 1-.7 1.3ZM332.9 53l-.3-.1c-.4 0-.8.4-1 .8-.5.5-.7 1.2-.4 1.4h.1c0-.9.7-1.8 1.6-2Z"/><path fill="#C88300" d="M338.4 53.5c-.2-.3-.5-.7-.7-.7h-.2l-.1.2.3.2.3.5.1.4.1.5h.1c.3-.2.3-.7 0-1.1Z"/><path fill="#B45F00" d="M338.4 53.5c-.2-.3-.5-.7-.7-.7h-.2v.1c.3.1.5.5.6.8l.2.9c.3-.2.3-.7 0-1.1Z"/><path fill="#C88300" d="m331.2 47.3-.5.6a4.5 4.5 0 0 0-.5 3.2l-.1-.2v-1.5a4 4 0 0 1 1-2.2Z"/><path fill="#6C2818" d="M333.4 43.9c-1 .8-1.9 2.5-2.4 1.8-.3-.3.7-1 1.2-1.8.3-.6-.3-1.4-1.1-1-1 .4 1.8-5.6 2.4-4.3.4.9 1 4.3 0 5.2Z"/><path fill="#994326" d="M318.4 34.8c-.3-.5-.8-.9-1.4-1.3-1.4-1-3-1.6-7.7-.6-4.5 1-2.3 3.5-.2 4.1 3.9 1.3 11 0 9.3-2.2Z"/><path fill="#863922" d="M312.5 50.7c-5.3 2 1.7-8-4.3-8.7H307c-.4 0-.6 0-1 .6v-1l.1-.5c0-.3 0-.6-.2-.9-.1-.4-.3-.9-.3-1.4 2 .2 5 1.3 5.6 3.4.2 1.5 0 4-.2 5.1 0 .7-.3 1.4-.3 2 .1 1.4 1.5 1 1.8 1.4ZM330.2 43.7a12.2 12.2 0 0 1-1 4.6c-.6 1.3-1.4 2.6-2.2 3.7a15.7 15.7 0 0 1-8.5 6.1c3.4-1.1 5.7-7 5.8-11 .4-12.9-1.4-13.7-9.1-17.8 2 .2 5-2.2 7-2.8a2 2 0 0 1 1.3 0c.9.4 1.7 1.7 2.5 3.2l1.5 3.6 1.8 4.8c.6 1.9 1 3.7.9 5.6Z"/><path fill="#994326" d="M313.3 39.3c.1.2.4.3.6.3.6 0 1.2-.4 1.8-.8 1-.8-.2-1.4-1-1.1-.6.2-1.8.8-1.4 1.6ZM311.4 49.4c0 .2.2.3.4.3 0 0 .2 0 .3-.2.3-.2.4-.6.5-1V48c0-.2-.2-.4-.4-.4-1-.3-1.1 1.2-.8 1.8ZM307.9 38.2c-.6.5 1 1.5 1.7 1.3 1.5-.3-1-2.1-1.7-1.3ZM323.8 43.6c.2-.2.4-.4.4-.6 0-.3-.4-.6-.7-.7-1.5-.3-1.1 2.3.3 1.3Z"/><path fill="#6C2818" d="m323.7 41-3.8-1s.6.4.2 1c-.7 1-1.4 1-1.4 1s3.6-.4 5-1Z" opacity=".5"/><path fill="#6C2818" d="M316.3 41.4c.4-.7 2.1-1.8 5.4-.9.1 0-3.8-1.7-5.4.9Z"/><path fill="#994326" d="M318 41c-.2 0-.6 0-.7.2-.2 0-.3.2-.2.4h.1c.5.2 1.5.1 1.5-.5l-.2-.2h-.4Z"/><path fill="#6C2818" d="M308.5 42Z" opacity=".5"/><path fill="#CDD5D4" d="M316.8 46.5a5 5 0 0 1-.2-.5c-1.5 0-2-.5-2-.5a.3.3 0 0 0-.4 0c-.1.1-.2.3 0 .4 0 0 .5.6 2 .6h.6Z"/><path fill="#994326" d="M322.3 39.6c-1-.2-4.5.3-4.8.4-1 .4 1-.4.8.4-.2.7-2.8 2.3-1.4 3 5.7 2.7 8-3.3 5.4-3.8Z"/><path fill="#863922" d="M325.7 38.8c-.7-2.2-7.1-.6-8.1-.3-4.2 1.1-4.6 4.8-3.4 9 1 .9 2 1.7.9 2.6.6 0 1.3-.2 2-1 .4-.5.3-1.6-.2-2.4-2.7-4.7 2-4.7 6.7-5.9.2-.4 2.2-1.6 2-2Z"/><path fill="#6C2818" d="m323.7 40.8-3.8-1s.6.4.2 1c-.7 1-1.4 1-1.4 1s3.6-.4 5-1Z" opacity=".5"/><path fill="#6C2818" d="M316.3 41.2c.4-.7 2.1-1.7 5.4-.9.1 0-3.8-1.7-5.4.9Z"/><path fill="#994326" d="M318 40.7c-.2 0-.6.1-.7.3-.2 0-.3.2-.2.4h.1c.5.2 1.5.1 1.5-.5l-.2-.1h-.4Z"/><path fill="#2E2329" d="m315.7 42.1.2.1h1.1c2.1 0 6.9-1 6.9-1.5l-8.2 1.4Z"/><path fill="#2E2329" d="M319.8 41.6v.7c0 1-.4 1.7-1 1.7s-1.1-.8-1.1-1.7V42l2-.4Z"/><path fill="#F3F3F3" d="m320.2 43-.4-.2-.5.1c0 .2.2.3.4.3l.5-.1Z"/><path fill="#994326" d="M306.7 42.8c-.6-1-.4-1.3-.4-1.3 1 .3 3 .5 3.6.7.4.2.6 1.1.6 1.1s-2.8 1.3-3.8-.5Z"/><path fill="#6C2818" d="M308.2 41.8h.2-.7l-1.6-.4V41l1.5-.4s-.3.3 0 .7l.6.6Z" opacity=".5"/><path fill="#6C2818" d="M306.3 40.8c2.2-.5 3.3.2 3.6.6-1-1.7-3.7-.6-3.6-.6Z"/><path fill="#994326" d="m308.5 41.1-.1.1c0 .5.7.5 1 .4v-.3l-.6-.2a1 1 0 0 0-.3 0Z"/><path fill="#2E2329" d="M310.7 42.4h-1.5a17.2 17.2 0 0 1-3.4-1l-.6-.3-.1-.1a3619 3619 0 0 0 5.6 1.4Z"/><path fill="#2E2329" d="M309.2 42.3c0 .9-.4 1.5-1 1.5-.5 0-1-.7-1-1.5v-.4l1-.1a218.5 218.5 0 0 1 1 .5Z"/><path fill="#F3F3F3" d="m309.6 43-.4-.2-.5.1c0 .2.1.3.4.3l.4-.1Z"/><path fill="#6C2818" d="M314.5 58c-.5-.3-1.7-.8-.5-.8s2 .6 1.8.7c-.3.1-.6.2-1.3 0Z" opacity=".5"/><path fill="#2E2329" d="M315 48.6c.7.1.7.9.4 1.4-.2.3-.8.2-1 .2a2 2 0 0 0-1 .3c-.8.4-1.7.3-2.4 0-.2-.2-.5-.4-.5-.7v-.3l.5-5.7c.1-1.1 0-2-.7-2.8l-.7-.8c1.1 1 1.8 1.5 1.8 3 0 2.1-.2 4.2-.4 6.3v.3c.4.4 1.2.6 1.8.5l.4-.1c.3-.2.7-.3 1.1-.3h.9l.2-.5c.2-.3 0-.7-.4-.8Z"/><path fill="#291E21" d="M311.5 53.5s.3-1.7 2-1.5c2 .2 3 1.7 3 1.7s-4.3.4-5-.2Z"/><path fill="#3F2E39" d="M311.5 53.5s0 1.9 2.5 1.9 2.6-1.9 2.6-1.9-.6.2-1.7 0c-.7-.1-1.5-.4-1.7-.3-1 .6-1.7.3-1.7.3Z"/><path fill="#291E21" d="M311.3 53.4V53h.2s.4.4.7.3h.5c.2-.3.6-.5 1-.4l.8.2c.6.1 1.5.3 1.7.2.5-.1.8-.4.8-.4s.1-.1.2 0v.2s-.4.4-.8.5c-.3.1-1 0-2-.2l-.7-.1c-.4-.1-.6.1-1 .2-.7.4-1.4-.2-1.4-.2Z"/><path fill="#F3F3F3" d="M319.2 46s-.2-.1-.2-.3c0-.1 0-.2.2-.3 0 0 2-.4 4-1.2 0 0 .3 0 .3.2l-.1.3c-2 .8-4 1.2-4.1 1.3ZM324.4 44.3c-.1 0-.2 0-.3-.2 0-.1 0-.3.2-.3 0 0 2.3-.9 3.8-2.1h.3c.1.2.1.3 0 .4-1.5 1.3-3.8 2.1-4 2.2ZM308.3 46.3c.4 0 .8 0 1.2-.2.2 0 .3-.1.2-.3l-.3-.2c-1.6.5-2.3 0-2.6-.2-.5-.2-.4.4-.1.5.3.2.8.4 1.6.4ZM313 45.1c-.8-.1-1.5 0-1.8.2v.6a3 3 0 0 1 1.8-.2c.1 0 .3-.1.3-.3l-.2-.3ZM316.2 46.5c-1.5 0-2-.6-2-.6a.3.3 0 0 1 0-.4h.3s.9.9 3.2.3c.1 0 .3 0 .3.2 0 .1 0 .3-.2.3-.6.2-1.1.2-1.6.2Z"/><path fill="#DD377B" d="M331 44.6c-.4.5-1.3.3-1.3.3-.4-.1-.8-.4-1-.8-1.7-2.7-.8-10.7-.8-10.7s2.8 3.7 2.8 4.4l-.1.8-.3 1.2-.2 1v.6l-.1.2v.5l-.1.2v1.3c0 .7.2 1 .4 1l.4.1h.2Z"/><path fill="#C1296E" d="M330.3 44.7c-.4-.2-.9-.4-1-1.2-.2-.5-.3-1.4 0-2.6.3-.9.9-1.9 1.3-2.3l-.3 1.2-.2 1v.6l-.1.2v.5l-.1.2v1.3c0 .7.2 1 .4 1ZM330.7 44.7h-.4.4Z"/><path fill="#DD377B" d="M326.2 38h-.3c2.7-2.5-2.1-6.7-4.3-8.5-.5-1.1.5-3.5 2-2.5.9.2 1.6.6 2.2 1.5.8 1 1.3 3.2 1.8 4.6.8 2.4.8 4.7-1.4 4.9Z"/><path fill="#C1296E" d="M326.2 38c.9-.4 2.6-1.6 1.8-4.6.8 2.4.4 4.3-1.8 4.6Z"/><path fill="#C6327C" d="M326.8 22.3c-1.4 1.4-6.2 5.4-6.2 5.4l1.3 2-1.7-1.1c-.3.8-.7 1.6-1.5 2.2l-.7.5-3 .6s2-1 3.3-3.6c.5-1 0-2.3-.6-3.4-1-1.7-2.2-3.1-.6-2.9 2.5.5.7-1 .9-3.7 0-1.8 1.9-1.1 3.2-.4 1.7 1.2 2.8 2.3 3.3 3.1l.6 1h.1l.3.1H326.3v.1h.5Z" opacity=".3" style="mix-blend-mode:multiply"/><path fill="#C6327C" d="M334.4 29.5c.2 3-6.2.1-9.3-.4h-.5c-1.8 0-1 1.6-.6 2.3a3.6 3.6 0 0 0 .2.4l-.5-.6-1.3-1-.2-.2a21.2 21.2 0 0 0-1.9-1.3v-.1l.5-.6 1.1-1.2 1-1 3.4-3.6h.5l.1.1h.2l.3.1h.4a10.7 10.7 0 0 1 7.4 5.3c-.5.2-.9.7-.8 1.8Z" opacity=".3" style="mix-blend-mode:multiply"/><path fill="#DD377B" d="M320.6 26.6c0 .6-.1 1.3-.4 2-.3.8-.7 1.6-1.5 2.2l-.7.5a12.3 12.3 0 0 1-9.3 1.6s4.5-1 4.3-2.2l-.3-.3c-1.7-.4-8.5 1.7-9.4 7.7 0 0 0-4.3 2.7-8 2-2.7 3-5.7 9.2-5.7l2.4.4 1.1.1h.2l1.7.2v1.5Z"/><path fill="#C6327C" d="M320.6 26.6c0 .6-.1 1.3-.4 2-.3.8-.7 1.6-1.5 2.2l-.7.5-3 .6.4-.1c.6-.3 1.9-1 2.9-3 .5-.9-.1-2.8-.7-4l1.1.1h.2l1.7.2v1.5Z" opacity=".3" style="mix-blend-mode:multiply"/><path fill="#C1296E" d="M327.6 25.7c-2 0-2.7.3-2.7.3s3.7 1.5 2.4 2.4c-.4.3-2.2-.7-3.7-.8l-.6-.1h-.1c-.4 0-.7.1-1 .3-.2.3-.3.6-.3 1v.3l.1.2.1.2v.1h.1c0 .2.2.3.3.4h-.1l-.3-.2-.5-.4-.1-.1h-.1v-.1h-.1l-.7-.5v-.1a4.6 4.6 0 0 1-1.9 2.4l-.2.1-.1.1h-.1a6.8 6.8 0 0 1-.3.2l-.2.2-.2.1h-.1l-.2.1-.3.2h-.2l-.2.1-.2.1-.2.1h-.1l-.2.1-.3.1-.5.2h-.1l-.5.1h-.3l-.1.1h-.3c-1.5.3-3.2.3-4.8 0 0 0 2.5 0 5-.6h.3l.1-.1h.2c.2-.2.5-.2.7-.3l.3-.1.3-.1.2-.1.4-.2a8 8 0 0 0 .4-.2h.1l.1-.1V31h.2v-.1l.5-.3v-.1h.2a5.3 5.3 0 0 0 .7-.8v-.2h.1v-.1l.1-.1.1-.2v-.2c.8-1.5.5-3 .2-4l-.4-1.2c.5-.7 2 .1 2.4 1 0-.2-1.5-4.3-.2-3.9 1.2.4 2.2 2.6 2.2 2.7 0-.1-.5-2.2.4-2h1c.2-.1.3-.3.2-.5l.6 1H325.5l.1.1h.8l.2.1h.2a1.4 1.4 0 0 1 .1 0h.1l.2.1h.3l.4.2c-1 .5-2.3.8-.9 1.5 1.4.6 2.6 1.8.7 1.7Z"/><path fill="#C6327C" d="M327.6 25.7c-2 0-2.7.3-2.7.3s3.7 1.5 2.4 2.4c-.4.3-2.2-.7-3.7-.8l-.6-.1h-.1c-.4 0-.7.1-1 .3a1.2 1.2 0 0 0-.3 1 1.4 1.4 0 0 0 .1.5l.1.2v.1h.1c0 .2.2.3.3.4h-.1l-.3-.2-.5-.4-.1-.1h-.1v-.1h-.1l-.7-.5v-.1a4.6 4.6 0 0 1-1.9 2.4l-.2.1-.1.1h-.1a7 7 0 0 1-.3.2l-.2.2-.2.1h-.1l-.2.1-.3.2h-.2l-.2.1-.2.1-.2.1h-.1l-.2.1-.3.1-.5.2h-.1l-.5.1h-.3l-.1.1h-.3c-1.5.3-3.2.3-4.8 0 0 0 2.5 0 5-.6h.3l.1-.1h.2c.2-.2.5-.2.7-.3l.3-.1.3-.1.2-.1.4-.2.3-.2h.2V31l.2-.1.1-.1.5-.3v-.1h.1l.4-.5h.1a4.9 4.9 0 0 0 .2-.3l.2-.2v-.2h.1l.1-.2v-.2c.8-1.5.5-3 .2-4l-.4-1.2c.5-.7 2 .1 2.4 1 0-.2-1.5-4.3-.2-3.9 1.2.4 2.2 2.6 2.2 2.7 0-.1-.6-2.2.4-2h1c.2-.1.3-.3.2-.5l.6 1H325.5l.1.1h.8l.2.1h.4l.2.1h.3l.4.1c-1 .6-2.3 1-.9 1.6 1.4.6 2.6 1.8.7 1.7Z" opacity=".3" style="mix-blend-mode:multiply"/><path fill="#CDD5D4" d="M255 350.8c-10.8 11.6 106.9 9.6 108-.7.3-3.3-3-6-6.3-7.3-11-4.5-87.5-7-101.6 8Z"/><path fill="#71ABFF" d="M105.7 390.5c-.7.6.5 1.4 2.3 1.9 1.8.5 4.2.8 6.5 1 10.7 1 72 3 80.3 1 1.2-.3 2.2-.7 2.3-1.2.1-.7-1.8-1.6-3.9-1.8-24.7-3.1-83.8-4.2-87.5-.9ZM296.5 241.7c-11.8 84.1-70.1 125-128.9 93.6-57-30.5-94.7-119-85.4-199.6C91.5 53.5 146.2 7 205.8 34c61.4 27.8 102.7 121.8 90.7 207.7Z" opacity=".2"/><path fill="#3C81F6" d="m106.6 187.4 29.8 51.9 37.1-66.7s-1.4-5.5-8.1 2c-6.8 7.6-30 37-30 37s-13.7-24-20.4-25.7c-6.7-1.6-8.4 1.5-8.4 1.5Z"/><path fill="#3C81F6" d="M149.5 80C105 73 69.5 118.7 69.8 182c.3 63 36.2 120.5 80.4 128.6 44.5 8 80.9-37 80.8-100.9 0-64.2-36.7-122.3-81.5-129.5Zm.7 222.4C109 295 75.7 241.5 75.4 182.8 75 124 108.2 81.5 149.5 88.2c41.7 6.8 75.8 60.8 75.8 120.4 0 59.4-33.7 101.3-75.1 93.8Z"/><path fill="#3C81F6" d="M153 51.7c-54.6-8.7-98.1 47.4-97.7 125 .5 77.2 44.3 147.6 98.5 157.6 54.6 10 99.3-45.1 99.3-123.6 0-78.8-45-150.2-100.2-159Zm.8 268.9c-48.9-9-88.5-72.6-89-142.3-.3-70 39-120.7 88.2-112.8 49.7 8 90.3 72.4 90.4 143.5 0 70.8-40.3 120.6-89.6 111.6Z"/></svg>