<svg xmlns="http://www.w3.org/2000/svg" width="364" height="456" fill="none"><g clip-path="url(#a)"><path fill="#fff" d="M364 0H0v682.5h364V0Z"/><g filter="url(#b)"><circle cx="203.5" cy="182.5" r="27.5" fill="#D2D0D0" fill-opacity=".5"/></g><path fill="#67B279" fill-rule="evenodd" d="M134.8 179.7a17 17 0 0 1 17-17h57a17 17 0 0 1 17 16.7v.3a17 17 0 0 1-17 17h-57a17 17 0 0 1-17-16.6v-.4Z" clip-rule="evenodd"/><path fill="#fff" d="M201.9 208.2a28.4 28.4 0 1 0 0-57 28.4 28.4 0 0 0 0 57Z"/><path stroke="#67B279" stroke-linecap="round" stroke-linejoin="round" stroke-width="1.5" d="m193.6 180.8 6.3 6.7 11.9-13.7"/><path stroke="#67B279" d="M23.9 385.3h8a1.4 1.4 0 0 1 0 2.9h-8a1.4 1.4 0 0 1 0-2.9Zm8 14.8h8c.7 0 1.3.6 1.3 1.4v1.2c0 .8-.6 1.4-1.4 1.4h-8c-.7 0-1.4-.6-1.4-1.4v-1.2c0-.7.7-1.4 1.5-1.4Zm8-8h-16c-.8 0-1.4.7-1.4 1.5v1.1c0 .8.6 1.4 1.4 1.4h15.9c.8 0 1.4-.6 1.4-1.4v-1.1c0-.8-.6-1.5-1.4-1.5Zm-1.2-6.8h1.1a1.4 1.4 0 0 1 0 2.9h-1.1a1.4 1.4 0 0 1 0-2.9Zm-14.8 14.8H25c.8 0 1.5.6 1.5 1.4v1.2c0 .8-.7 1.4-1.5 1.4H24c-.8 0-1.4-.6-1.4-1.4v-1.2c0-.7.6-1.4 1.4-1.4Z"/><path fill="#4D4D4D" d="M56 400.4v-11.3h3.7c1 0 2 .2 2.6.7.7.5 1 1.2 1 2.3 0 .6-.1 1.1-.4 1.5-.4.4-.7.7-1.2.8.5.2 1 .5 1.4 1 .3.4.5 1 .5 1.7a3 3 0 0 1-1 2.4c-.7.6-1.6.9-2.7.9h-4Zm1.4-1.2h2.5c.8 0 1.3-.2 1.7-.6.4-.4.5-.8.5-1.5a2 2 0 0 0-.5-1.4c-.4-.4-1-.6-1.7-.6h-2.5v4Zm0-5.3h2.3c.7 0 1.3-.2 1.6-.5.4-.3.6-.8.6-1.3 0-.6-.2-1-.6-1.3-.3-.3-.9-.5-1.6-.5h-2.3v3.6Zm8.2 6.5v-12h1.5v12h-1.5Zm3.3-4v-.2c0-1.2.4-2.3 1-3a3.6 3.6 0 0 1 2.9-1.2c1.2 0 2 .4 2.8 1.2.7.7 1 1.8 1 3v.2c0 1.3-.3 2.3-1 3a3.6 3.6 0 0 1-2.8 1.2c-1.2 0-2.1-.4-2.8-1.1a4.4 4.4 0 0 1-1-3Zm1.5-.2v.2c0 .9.2 1.6.6 2.2.4.6 1 .8 1.8.8s1.4-.2 1.8-.8c.4-.6.6-1.3.6-2.2v-.2c0-.9-.2-1.6-.6-2.1a2 2 0 0 0-1.8-1 2 2 0 0 0-1.8 1c-.4.5-.6 1.2-.6 2Zm7.6.2v-.2c0-1.2.3-2.3 1-3a3.5 3.5 0 0 1 2.7-1.2c1.1 0 2 .3 2.5.9.6.6.9 1.2.9 2h-1.4c0-.5-.2-.9-.5-1.2-.3-.4-.8-.5-1.5-.5-.8 0-1.3.3-1.7.9-.4.5-.6 1.2-.6 2v.3c0 .9.2 1.6.6 2.2.4.6 1 .8 1.8.8.6 0 1.1-.1 1.4-.4.3-.4.5-.8.5-1.2H85a2.8 2.8 0 0 1-.9 2c-.5.5-1.4.8-2.4.8-1.2 0-2.1-.4-2.8-1.1a4.5 4.5 0 0 1-1-3Zm8.8 4v-12h1.4v7.6l3.5-3.8h1.6l-5 5.5v2.7h-1.5Zm5.2 0-3.2-4.2 1-1 4 5.2H92Zm2.1-4v-.2c0-1.2.4-2.3 1-3a3.4 3.4 0 0 1 2.7-1.2c1.1 0 2 .4 2.6 1 .6.8.9 1.8.9 3v.6H95v-1.1h4.8v-.2c0-.6-.1-1.1-.5-1.5a1.8 1.8 0 0 0-1.4-.6 2 2 0 0 0-1.8.9c-.3.5-.5 1.2-.5 2v.3c0 .9.2 1.6.6 2.2.4.6 1 .8 1.8.8.6 0 1 0 1.4-.3l.9-.8 1 .7a3.9 3.9 0 0 1-3.3 1.6c-1.2 0-2.2-.4-2.9-1.1a4.5 4.5 0 0 1-1-3Zm8.5 0v-.2c0-1.2.3-2.2.9-3a3 3 0 0 1 2.5-1.1c.6 0 1 0 1.4.3.4.2.8.5 1 .8v-4.7h1.5v11.9h-1.4v-1l-1 .8a3 3 0 0 1-1.5.4 3 3 0 0 1-2.5-1.2 4.6 4.6 0 0 1-1-3Zm1.4 0c0 .9.2 1.6.6 2.1.4.6 1 .9 1.7.9.5 0 1-.2 1.3-.5.4-.2.6-.6.8-1v-3.3a2.6 2.6 0 0 0-.8-1 2 2 0 0 0-1.3-.4c-.8 0-1.4.3-1.7.9a3.8 3.8 0 0 0-.6 2v.3Zm11.6 1.6c0-.8.3-1.5 1-2 .6-.4 1.5-.6 2.5-.6h1.8v-.6c0-.5 0-.9-.3-1.2-.3-.3-.7-.5-1.3-.5-.7 0-1.1.2-1.4.4-.3.3-.4.6-.4 1h-1.4c0-.7.3-1.3.8-1.8a3.5 3.5 0 0 1 2.4-.7c1 0 1.7.2 2.3.7.5.5.8 1.2.8 2.1v3.7a5.5 5.5 0 0 0 .3 1.8v.1h-1.4a2.6 2.6 0 0 1-.3-1.1 3.1 3.1 0 0 1-2.6 1.3 3 3 0 0 1-2-.7c-.5-.4-.8-1-.8-2Zm1.4 0c0 .4.2.7.4 1 .3.3.7.4 1.3.4.6 0 1-.2 1.6-.6.4-.4.7-.8.7-1.2v-1.2h-1.7c-.8 0-1.3.1-1.7.4a1.3 1.3 0 0 0-.6 1.1Zm7.2-1.6v-.2c0-1.2.3-2.2.9-3a3 3 0 0 1 2.5-1.1c.6 0 1 0 1.4.3.4.2.8.5 1 .8v-4.7h1.4v11.9h-1.3v-1l-1 .8a3 3 0 0 1-1.5.4 3 3 0 0 1-2.5-1.2 4.6 4.6 0 0 1-1-3Zm1.4 0c0 .9.2 1.6.6 2.1.3.6 1 .9 1.7.9.5 0 1-.2 1.3-.4.4-.3.6-.7.8-1v-3.4a2.6 2.6 0 0 0-.8-1 2 2 0 0 0-1.3-.4c-.8 0-1.4.3-1.7.9a3.8 3.8 0 0 0-.6 2v.3Zm7.6 1.6h1.5c0 .5.1.9.5 1 .3.3.8.5 1.4.5.5 0 1-.2 1.3-.4.3-.2.5-.5.5-.9a1 1 0 0 0-.4-.8 5 5 0 0 0-1.7-.6 5.9 5.9 0 0 1-2.1-.9c-.5-.4-.8-.9-.8-1.6 0-.6.3-1.2.8-1.6.6-.5 1.3-.7 2.3-.7 1 0 1.7.2 2.2.7.6.4.9 1 .9 1.8h-1.4c0-.5-.2-.8-.5-1-.2-.2-.6-.3-1.2-.3s-1 0-1.3.3a1 1 0 0 0-.4.8c0 .3.2.5.5.7l1.8.6c.8.2 1.5.5 2 .9s.7 1 .7 1.6c0 .8-.2 1.4-.8 1.8-.5.5-1.3.7-2.4.7-1.1 0-2-.2-2.5-.7a2.4 2.4 0 0 1-.9-1.9Zm149.5 2.4v-9.3l-2.8 1.1v-1.7l4-1.6h.9v11.5h-2.1Zm5.6-3.8v-3.7c0-1.2.4-2.2 1-3 .7-.7 1.6-1 2.9-1 1.2 0 2.1.3 2.8 1 .7.8 1 1.8 1 3v3.7a4.2 4.2 0 0 1-1 3 3.6 3.6 0 0 1-2.8 1c-1.3 0-2.2-.3-2.9-1-.6-.8-1-1.8-1-3Zm2.2.2a3 3 0 0 0 .4 1.6c.2.4.7.6 1.3.6.6 0 1-.2 1.3-.6.2-.4.4-1 .4-1.6v-4a3 3 0 0 0-.4-1.7c-.3-.4-.7-.6-1.3-.6-.6 0-1 .2-1.3.6-.3.4-.4 1-.4 1.6v4Zm8 3.6 4.3-9.6h-5.7v-1.7h7.9v1.3l-4.2 10h-2.2Zm11.5-3v-.2h2v.1c0 .6.2 1 .5 1.3.4.3.8.4 1.4.4.6 0 1-.1 1.3-.4.4-.3.5-.8.5-1.4 0-.7-.2-1.1-.5-1.4a2.3 2.3 0 0 0-1.6-.5h-1v-1.6h1c.5 0 1-.1 1.3-.4.3-.3.5-.7.5-1.3 0-.5-.2-.9-.4-1.2-.3-.2-.7-.4-1.1-.4-.5 0-1 .2-1.2.5-.3.2-.4.6-.4 1v.2h-2v-.1a3 3 0 0 1 1-2.2 3.8 3.8 0 0 1 2.6-1c1.2 0 2 .3 2.7.9.6.6.9 1.3.9 2.1a3 3 0 0 1-.4 1.6c-.3.4-.8.8-1.4 1 .7.2 1.2.5 1.6 1 .4.5.6 1.1.6 1.8 0 1-.4 2-1.1 2.5-.7.6-1.7 1-3 1-1.2 0-2.1-.4-2.8-1a3 3 0 0 1-1-2.4Zm9-4.7a3.8 3.8 0 0 1 1-2.8 3.9 3.9 0 0 1 2.9-1 4 4 0 0 1 2.9 1.1c.8.8 1.2 2 1.2 3.8v.3c0 1.9-.6 3.4-1.7 4.5-1 1.2-2.7 1.8-4.9 1.8h-.1v-1.6h.1a4.8 4.8 0 0 0 3.4-1.1c.8-.8 1.2-2 1.2-3.6v-.3c0-1.2-.2-2.1-.6-2.6-.4-.5-.9-.8-1.5-.8s-1.1.2-1.4.6c-.3.4-.5 1-.5 1.7s.2 1.2.5 1.6c.3.4.8.6 1.4.6.6 0 1-.2 1.5-.6.4-.4.6-.9.6-1.6h.6c0 1-.3 2-.8 2.7-.5.7-1.3 1-2.4 1a3.3 3.3 0 0 1-2.5-1 4 4 0 0 1-1-2.7Zm12.5 7.7v-9.3l-2.7 1.1v-1.7l4-1.6h.8v11.5h-2.1Z"/><path stroke="#67B279" stroke-linecap="round" stroke-linejoin="round" d="M38 437c1 .8 2 1.8 3 3-3 3.7-6.1 5.6-9.2 5.6l-1.5-.1m-2.8-1.2c-1.2-.7-2.7-2.2-4.8-4.4 3-3.6 6.1-5.4 9.1-5.4 1.3 0 2.5.3 3.7.9m-12.8 15L41 430m-10.7 11.8a2.3 2.3 0 0 1 3-3.4l-3 3.4Z"/><path fill="#4D4D4D" d="M56 445.9v-11.3h3.7c1 0 2 .2 2.6.7.7.5 1 1.2 1 2.3 0 .6-.1 1.1-.4 1.5-.4.4-.7.7-1.2.8.5.2 1 .5 1.4 1 .3.4.5 1 .5 1.7a3 3 0 0 1-1 2.4c-.7.6-1.6.9-2.7.9h-4Zm1.4-1.2h2.5c.8 0 1.3-.2 1.7-.6.4-.4.5-.8.5-1.5a2 2 0 0 0-.5-1.4c-.4-.4-1-.6-1.7-.6h-2.5v4Zm0-5.3h2.3c.7 0 1.3-.2 1.6-.5.4-.3.6-.8.6-1.3 0-.6-.2-1-.6-1.3-.3-.3-.9-.5-1.6-.5h-2.3v3.6Zm8.2 6.5v-12h1.5v12h-1.5Zm3.3-4v-.2c0-1.2.4-2.3 1-3a3.6 3.6 0 0 1 2.9-1.2c1.2 0 2 .4 2.8 1.2.7.7 1 1.8 1 3v.2c0 1.3-.3 2.3-1 3a3.6 3.6 0 0 1-2.8 1.2c-1.2 0-2.1-.4-2.8-1.1a4.4 4.4 0 0 1-1-3Zm1.5-.2v.2c0 .9.2 1.6.6 2.2.4.6 1 .8 1.8.8s1.4-.2 1.8-.8c.4-.6.6-1.3.6-2.2v-.2c0-.9-.2-1.6-.6-2.1a2 2 0 0 0-1.8-1 2 2 0 0 0-1.8 1c-.4.5-.6 1.2-.6 2Zm7.6.2v-.2c0-1.2.3-2.3 1-3a3.5 3.5 0 0 1 2.7-1.2c1.1 0 2 .3 2.5.9.6.6.9 1.2.9 2h-1.4c0-.5-.2-.9-.5-1.2-.3-.4-.8-.5-1.5-.5-.8 0-1.3.3-1.7.9-.4.5-.6 1.2-.6 2v.3c0 .9.2 1.6.6 2.2.4.6 1 .8 1.8.8.6 0 1.1-.1 1.4-.4.3-.4.5-.8.5-1.2H85a2.8 2.8 0 0 1-.9 2c-.5.5-1.4.8-2.4.8-1.2 0-2.1-.4-2.8-1.1a4.5 4.5 0 0 1-1-3Zm8.8 4v-12h1.4v7.6l3.5-3.8h1.6l-5 5.5v2.7h-1.5Zm5.2 0-3.2-4.2 1-1 4 5.2H92Zm2.1-4v-.2c0-1.2.4-2.3 1-3a3.4 3.4 0 0 1 2.7-1.2c1.1 0 2 .4 2.6 1 .6.8.9 1.8.9 3v.6H95V441h4.8v-.2c0-.6-.1-1.1-.5-1.5a1.8 1.8 0 0 0-1.4-.6 2 2 0 0 0-1.8.9c-.3.5-.5 1.2-.5 2v.3c0 .9.2 1.6.6 2.2.4.6 1 .8 1.8.8.6 0 1 0 1.4-.3l.9-.8 1 .7a3.9 3.9 0 0 1-3.3 1.6c-1.2 0-2.2-.4-2.9-1.1a4.5 4.5 0 0 1-1-3Zm8.5 0v-.2c0-1.2.3-2.2.9-3a3 3 0 0 1 2.5-1.1c.6 0 1 0 1.4.3.4.2.8.5 1 .8V434h1.5v11.9h-1.4v-1l-1 .8a3 3 0 0 1-1.5.4 3 3 0 0 1-2.5-1.2 4.6 4.6 0 0 1-1-3Zm1.4 0c0 .9.2 1.6.6 2.1.4.6 1 .9 1.7.9.5 0 1-.2 1.3-.5.4-.2.6-.6.8-1v-3.3a2.6 2.6 0 0 0-.8-1 2 2 0 0 0-1.3-.4c-.8 0-1.4.3-1.7.9a3.8 3.8 0 0 0-.6 2v.3Zm10.9-3v-1.2h4.7v1.1h-4.7Zm1.5 5v-8.2h1.4v8.2c0 .3 0 .6.2.8l.7.2a3.5 3.5 0 0 0 .9-.2v1.2a3.5 3.5 0 0 1-1.3.2 2 2 0 0 1-1.4-.5c-.4-.4-.5-1-.5-1.7Zm4.7 2v-8.2h1.3v1h.1l.8-.8a2 2 0 0 1 1.6-.4l.3.1v1.3a3 3 0 0 0-.7 0 2 2 0 0 0-1.2.3 2.2 2.2 0 0 0-.8 1v5.7h-1.4Zm4.7-2.4c0-.8.3-1.5 1-2 .6-.4 1.5-.6 2.5-.6h1.8v-.6c0-.5-.1-.9-.3-1.2-.3-.3-.8-.5-1.4-.5-.6 0-1 .2-1.3.4-.3.3-.4.6-.4 1h-1.4c0-.7.2-1.3.8-1.8a3.5 3.5 0 0 1 2.4-.7c1 0 1.7.2 2.3.7.5.5.8 1.2.8 2.1v4.7l.3.8v.1h-1.4a3.2 3.2 0 0 1-.3-1.1c-.2.3-.5.6-1 .9-.4.2-1 .4-1.6.4a3 3 0 0 1-2-.7c-.6-.5-.8-1-.8-2Zm1.4 0c0 .4.2.7.4 1 .3.3.7.4 1.3.4.6 0 1-.2 1.5-.6.5-.4.7-.8.7-1.2v-1.2h-1.7c-.7 0-1.2.1-1.6.4a1.3 1.3 0 0 0-.6 1.1Zm7.1-1.6v-.2c0-1.3.4-2.3 1-3a3.5 3.5 0 0 1 2.8-1.2c1.1 0 2 .3 2.5.9.6.6.8 1.2.8 2H140c0-.5-.1-.9-.4-1.2-.3-.4-.8-.5-1.5-.5-.8 0-1.4.3-1.7.8-.4.6-.6 1.3-.6 2.2v.2c0 .9.2 1.6.6 2.2.3.6 1 .8 1.7.8s1.2-.1 1.5-.5c.3-.3.4-.7.4-1.1h1.4a2.8 2.8 0 0 1-.8 2c-.6.5-1.4.8-2.5.8-1.2 0-2-.4-2.8-1.1-.6-.8-1-1.8-1-3Zm8.8 4v-12h1.5v7.6l3.5-3.8h1.6l-5.1 5.5v2.7H143Zm5.3 0-3.2-4.2 1-1 3.9 5.2h-1.7Zm2-4v-.2c0-1.2.4-2.3 1.1-3a3.4 3.4 0 0 1 2.7-1.2c1.1 0 2 .4 2.6 1 .6.8.9 1.8.9 3v.6h-6.3V441h4.8v-.2c0-.6-.2-1.1-.5-1.5-.3-.4-.8-.6-1.4-.6a2 2 0 0 0-1.8.9c-.3.5-.5 1.2-.5 2v.3c0 .9.2 1.6.6 2.2.4.6 1 .8 1.8.8.5 0 1 0 1.4-.3l.9-.8.9.7a3.8 3.8 0 0 1-3.2 1.6c-1.2 0-2.2-.4-2.9-1.1a4.5 4.5 0 0 1-1-3Zm9 4v-8.2h1.3l.1 1c.3-.3.5-.6.9-.8a2 2 0 0 1 1.5-.4l.3.1v1.3a3 3 0 0 0-.7 0 2 2 0 0 0-1.2.3 2.2 2.2 0 0 0-.7 1v5.7h-1.5Zm5-2.4h1.4c0 .5.2.9.5 1 .4.3.8.4 1.4.4.6 0 1 0 1.3-.3.4-.2.5-.5.5-.9a1 1 0 0 0-.4-.8c-.2-.2-.8-.4-1.7-.6a5.9 5.9 0 0 1-2-.9c-.6-.4-.9-.9-.9-1.6 0-.6.3-1.2.9-1.6a3.5 3.5 0 0 1 2.2-.7c1 0 1.7.2 2.3.7.5.4.8 1 .8 1.8h-1.4c0-.5-.2-.8-.4-1-.3-.2-.7-.3-1.3-.3-.6 0-1 0-1.2.3a1 1 0 0 0-.4.8c0 .3.1.5.4.7l1.8.6c.9.2 1.6.5 2 .9.5.4.8 1 .8 1.6 0 .8-.3 1.4-.9 1.8-.5.5-1.3.7-2.4.7s-2-.2-2.5-.7a2.4 2.4 0 0 1-.8-1.9Zm119.7 2.4v-8.4h-.1l-2.9 4.3h6.3v1.6H279V442l5.1-7.4h2v11.3h-2Zm4-7.7a3.8 3.8 0 0 1 1-2.8 3.9 3.9 0 0 1 3-1 4 4 0 0 1 2.8 1.1c.9.8 1.3 2 1.3 3.8v.3c0 1.9-.6 3.4-1.7 4.5-1.1 1.2-2.8 1.8-4.9 1.8h-.2v-1.6h.2a4.8 4.8 0 0 0 3.3-1.1c.8-.8 1.3-2 1.3-3.6l-.1-.3c0-1.2-.2-2.1-.6-2.6-.4-.5-.9-.8-1.5-.8s-1 .2-1.4.6c-.3.4-.4 1-.4 1.7s.1 1.2.4 1.6c.3.4.8.6 1.4.6.6 0 1.1-.2 1.5-.6.4-.4.6-.9.6-1.6h.6c0 1-.2 2-.8 2.7-.5.7-1.3 1-2.3 1a3.3 3.3 0 0 1-2.6-1 4 4 0 0 1-1-2.7Zm9 0a3.8 3.8 0 0 1 1-2.8 3.9 3.9 0 0 1 2.9-1 4 4 0 0 1 3 1.1c.7.8 1.1 2 1.1 3.8v.3c0 1.9-.5 3.4-1.6 4.5-1.1 1.2-2.8 1.8-5 1.8h-.1v-1.6h.2a4.8 4.8 0 0 0 3.3-1.1c.8-.8 1.2-2 1.2-3.6v-.3c0-1.2-.2-2.1-.6-2.6-.4-.5-.9-.8-1.5-.8s-1 .2-1.4.6c-.3.4-.4 1-.4 1.7s.1 1.2.4 1.6c.3.4.8.6 1.4.6.6 0 1-.2 1.5-.6.4-.4.6-.9.6-1.6h.6c0 1-.2 2-.8 2.7-.5.7-1.3 1-2.3 1a3.3 3.3 0 0 1-2.6-1 4 4 0 0 1-1-2.7Zm14.4 7.7 4.2-9.6H310v-1.7h7.9v1.3l-4.2 10h-2.2Zm12.4 0v-8.4l-3 4.3h6.4v1.6h-8.5V442l5.2-7.4h2v11.3h-2Zm4.2-3c0-.7.2-1.3.6-1.8.4-.5 1-.8 1.5-1a3.2 3.2 0 0 1-1.3-1c-.3-.5-.5-1-.5-1.7 0-.9.4-1.6 1-2.2a3.8 3.8 0 0 1 2.6-.8 3.8 3.8 0 0 1 2.6.8c.7.6 1 1.3 1 2.2a2.8 2.8 0 0 1-1.7 2.7c.6.2 1 .5 1.5 1 .4.5.6 1 .6 1.8 0 1-.4 1.8-1.1 2.4-.8.5-1.7.8-2.9.8a4.5 4.5 0 0 1-2.8-.8 2.9 2.9 0 0 1-1.1-2.4Zm2-.2c0 .6.2 1 .6 1.4.3.3.7.5 1.3.5a1.8 1.8 0 0 0 1.4-.5c.3-.4.5-.8.5-1.4 0-.5-.2-1-.5-1.3-.3-.4-.8-.5-1.4-.5-.6 0-1 .1-1.3.5-.4.3-.5.8-.5 1.3Zm.4-5.1c0 .5.1 1 .4 1.3.2.3.6.5 1.1.5.5 0 1-.2 1.2-.5.2-.4.4-.8.4-1.3s-.2-.9-.5-1.2a1.4 1.4 0 0 0-1-.5c-.6 0-1 .2-1.2.5-.3.3-.4.7-.4 1.2Z"/><path fill="#68BC71" fill-rule="evenodd" d="M31.9 18.2c-4.3 0-9.5 1-13.7 3.1 0 4.7 0 16.3 13.7 24.2 13.7-8 13.6-19.5 13.6-24.2a31.4 31.4 0 0 0-13.7-3.1Z" clip-rule="evenodd"/><path fill="#67B279" fill-rule="evenodd" d="M31.9 18.2c-4.3 0-9.5 1-13.7 3.1 0 4.8 0 16.3 13.7 24.2V18.2Z" clip-rule="evenodd"/><path fill="#fff" fill-rule="evenodd" d="m31.7 35.8 8-10.5c-.6-.5-1.1-.2-1.4 0l-6.6 6.8-2.5-3c-1.2-1.3-2.8-.2-3.2 0l5.7 6.7Z" clip-rule="evenodd"/><path fill="#131313" fill-rule="evenodd" d="M83.2 38a6 6 0 0 1-6.3-6.2 6 6 0 0 1 1.8-4.4 6.2 6.2 0 0 1 4.5-1.8c1 0 2 .2 2.7.4.7.3 1.4.7 2 1.3l-1.6 2a4.5 4.5 0 0 0-3.2-1.2c-1 0-1.8.3-2.4 1a3.8 3.8 0 0 0-1 2.7c0 1.1.3 2 1 2.8a3.5 3.5 0 0 0 2.6 1c1 0 1.9-.2 2.5-.6v-1.8h-2.7V31h5.3v5.3a7.8 7.8 0 0 1-5.2 1.9Zm-28-12.3L50 38h2.8l1-2.7H59l1.1 2.7H63l-5.2-12.2h-2.5Zm1.2 3.2 1.7 4h-3.3l1.6-4Zm8 9v-12H69c2 0 3.5.5 4.7 1.6a5.7 5.7 0 0 1 1.8 4.3c0 1.8-.6 3.2-1.8 4.3A6.5 6.5 0 0 1 69 38h-4.7Zm4.6-2.4h-2v-7.3h2c1.1 0 2 .4 2.7 1a3.5 3.5 0 0 1 1 2.6c0 1.1-.3 2-1 2.7-.7.6-1.6 1-2.7 1Zm23.2 1.2A5.3 5.3 0 0 0 96 38c1.6 0 3-.5 3.9-1.4 1-1 1.4-2.3 1.4-4v-6.9h-2.7v7c0 .9-.2 1.6-.7 2-.4.6-1 .8-2 .8-.8 0-1.4-.2-1.9-.8-.4-.5-.6-1.2-.6-2.2v-6.8h-2.7v7c0 1.6.5 3 1.4 3.9Zm9.9 1.2 5.2-12.2h2.5L115 38h-2.8l-1.1-2.7h-5.2l-1 2.7H102Zm6.4-9 1.6 4H107l1.6-4Zm7.9-3h5.5c1.5 0 2.7.3 3.5 1.1.7.7 1 1.7 1 2.8 0 1.9-.8 3.1-2.5 3.8l3 4.3h-3.2l-2.6-3.9h-2V38h-2.7v-12Zm5.3 5.8H119v-3.5h2.7c.6 0 1.2.2 1.5.5.4.3.6.7.6 1.2 0 .6-.2 1-.5 1.3a2.2 2.2 0 0 1-1.5.5Zm6.7-5.9h4.8c1.9 0 3.4.6 4.6 1.7a5.7 5.7 0 0 1 1.8 4.3c0 1.8-.6 3.2-1.8 4.3a6.5 6.5 0 0 1-4.6 1.8h-4.8v-12Zm4.8 9.7H131v-7.3h2c1.2 0 2 .4 2.7 1a3.5 3.5 0 0 1 1 2.6c0 1.1-.3 2-1 2.7-.7.6-1.5 1-2.6 1Z" clip-rule="evenodd"/><path stroke="#A4A4A4" stroke-linejoin="round" d="m327.5 39.7.5.1c.4.3 1 .5 1.5.7.3 0 .5.3.6.6l.7 2.1h2.7l.7-2.1c0-.3.3-.6.6-.6a9 9 0 0 0 1.5-.7 1 1 0 0 1 1 0l2 1L341 39a23 23 0 0 0-1-2 1 1 0 0 1 0-1c.3-.4.5-1 .6-1.5.2-.3.4-.5.7-.6l2.1-.7v-2.7l-2.1-.7a1 1 0 0 1-.6-.6 9 9 0 0 0-.7-1.5 1 1 0 0 1 0-1l1-2-1.8-1.8-2 1a1 1 0 0 1-1 0 8.9 8.9 0 0 0-1.5-.7 1 1 0 0 1-.6-.6l-.7-2.1h-2.7l-.7 2.1a1 1 0 0 1-.6.6l-1.5.7a1 1 0 0 1-1 0l-2-1-1.8 1.8 1 2v1a9 9 0 0 0-.6 1.5 1 1 0 0 1-.7.6l-2.1.7v2.7l2 .7c.4 0 .7.3.8.6l.6 1.5v1l-1 2 1.8 1.8 2-1h.5Z" clip-rule="evenodd"/><path stroke="#A4A4A4" stroke-linejoin="round" d="M332.1 28.8a3.1 3.1 0 1 0 0 6.1 3.1 3.1 0 0 0 0-6.1Z" clip-rule="evenodd"/><path fill="#A4A4A4" d="M116 327.5v-.1h1.6v.1c0 .8.3 1.4.8 1.8.5.4 1.3.6 2.2.6 1 0 1.6-.2 2.1-.6.5-.4.8-1 .8-1.6 0-.6-.3-1-.7-1.5a9.3 9.3 0 0 0-2.7-1 7.7 7.7 0 0 1-3-1.5c-.5-.5-.8-1.3-.8-2.3 0-1 .3-1.8 1-2.5a4.6 4.6 0 0 1 3.2-1c1.3 0 2.4.4 3.2 1a3.4 3.4 0 0 1 1.1 2.7v.2h-1.6v-.2c0-.7-.2-1.2-.7-1.6-.4-.5-1.1-.7-2-.7-.9 0-1.6.2-2 .6-.4.3-.6.8-.6 1.5 0 .5.2 1 .6 1.3a9.5 9.5 0 0 0 2.7 1c1.4.5 2.3 1 3 1.5.6.6.9 1.4.9 2.5 0 1-.4 1.9-1.2 2.5-.8.7-2 1-3.3 1s-2.5-.3-3.3-1a3.3 3.3 0 0 1-1.3-2.7Zm11.1 3.5v-9.1h1.6v9.1h-1.6Zm-.2-12 .3-.6c.2-.2.4-.3.7-.3s.6 0 .8.3l.2.7c0 .2 0 .4-.2.6a1 1 0 0 1-.8.3 1 1 0 0 1-.7-.3 1 1 0 0 1-.3-.6Zm4.4 12v-9.1h1.5v1.2a3.5 3.5 0 0 1 2.9-1.4c1 0 1.6.3 2.2.8.5.5.8 1.4.8 2.6v5.9h-1.6v-6c0-.7-.1-1.2-.5-1.5a2 2 0 0 0-1.4-.5c-.5 0-1 .1-1.4.4a3 3 0 0 0-.9 1.1v6.5h-1.6Zm9.3-4.4v-.3a5 5 0 0 1 1.1-3.4 3.9 3.9 0 0 1 3.1-1.3c1.2 0 2.2.3 2.8 1a3 3 0 0 1 1 2.2H147c0-.5-.2-1-.5-1.3-.4-.4-1-.6-1.7-.6-.8 0-1.5.3-2 1a4.3 4.3 0 0 0-.6 2.4v.3c0 1 .3 1.7.7 2.4.4.6 1 1 2 1 .7 0 1.2-.2 1.6-.6.3-.4.5-.8.5-1.3v-.1h1.5c0 .9-.3 1.6-1 2.3-.5.6-1.5 1-2.7 1-1.3 0-2.3-.5-3-1.3a5 5 0 0 1-1.2-3.4Zm9.3 0v-.3a5 5 0 0 1 1-3.4 3.8 3.8 0 0 1 3-1.3c1.3 0 2.3.4 3 1.2.6.8 1 2 1 3.3v.7h-7v-1.3h5.3v-.2c0-.6-.1-1.2-.5-1.7s-1-.7-1.7-.7c-.8 0-1.5.3-1.9 1a4.3 4.3 0 0 0-.6 2.4v.3c0 1 .2 1.7.6 2.4.5.6 1.2 1 2.1 1 .6 0 1.1-.2 1.5-.4.4-.3.8-.6 1-1l1 .9a4.2 4.2 0 0 1-3.5 1.8c-1.4 0-2.5-.5-3.2-1.3a5 5 0 0 1-1.1-3.4Zm13.7 1.2v-.1h1.6v.1c0 .7.2 1.2.7 1.6a2.8 2.8 0 0 0 1.8.5c.8 0 1.4-.2 1.9-.8.5-.5.7-1.2.7-2.2s-.2-1.7-.7-2.2a2.5 2.5 0 0 0-1.9-.7c-.5 0-1 .1-1.4.3l-1.1.8-1.1-.5.6-6.4h6.6v1.4H166l-.4 3.8a4.7 4.7 0 0 1 2.4-.7c1 0 2 .3 2.8 1 .7.8 1.1 1.9 1.1 3.2 0 1.4-.4 2.4-1.2 3.2-.8.8-1.8 1.1-3 1.1a4.3 4.3 0 0 1-3-1 3.2 3.2 0 0 1-1-2.4Zm12.6 6.8v-1.3a5.3 5.3 0 0 0 1 .2c.4 0 .7-.1 1-.3l.2-1v-10.3h1.6v9.9c0 1-.2 1.8-.6 2.3-.4.5-1 .7-1.8.7h-.7l-.7-.2Zm2-15.6.3-.6c.1-.2.4-.3.7-.3s.6 0 .7.3c.2.2.3.4.3.7l-.3.6c-.1.2-.4.3-.7.3s-.6-.1-.7-.3a1 1 0 0 1-.3-.6Zm4.3 8.8v-6h1.6v6c0 .7.2 1.3.5 1.6.3.3.8.4 1.4.4.5 0 1 0 1.4-.4a3 3 0 0 0 1-1v-6.5h1.5v9.1h-1.4v-1.2h-.2a3.5 3.5 0 0 1-2.8 1.4 3 3 0 0 1-2.2-.8c-.5-.5-.8-1.4-.8-2.6Zm10 3.2v-13.4h1.6V331h-1.6Zm3.3 3.7v-1.4a3.8 3.8 0 0 0 1.1.2c.4 0 .8-.2 1-.5.4-.3.7-1 1-2l-3.4-9.1h1.5l2.2 6a13 13 0 0 1 .4 1.3l.2-.6.2-.7 2.1-6h1.5l-3.7 10.3c-.3.9-.7 1.5-1.2 2a2.4 2.4 0 0 1-1.7.6 2.9 2.9 0 0 1-1.1-.1Zm13-3.7v-1.2l4.6-5c.6-.6 1-1.2 1.3-1.7.3-.5.5-1 .5-1.6a2.1 2.1 0 0 0-2.2-2.2c-.7 0-1.3.2-1.8.7-.5.4-.8 1-.8 2h-1.6c0-1.3.4-2.2 1.2-3a4.1 4.1 0 0 1 3-1 4 4 0 0 1 2.8 1c.7.6 1 1.5 1 2.4a3.9 3.9 0 0 1-.7 2.2c-.4.7-1 1.4-1.7 2.1l-3.5 3.9h6.3v1.4h-8.4Zm10-4v-4.8c0-1.3.4-2.3 1-3a3.8 3.8 0 0 1 3-1.2c1.3 0 2.3.3 3 1.1a4.4 4.4 0 0 1 1.1 3.1v4.8c0 1.3-.4 2.3-1 3a3.8 3.8 0 0 1-3 1.3 3.8 3.8 0 0 1-3-1.2 4.4 4.4 0 0 1-1-3.1Zm1.7 0c0 .9.2 1.6.5 2.1.4.6 1 .8 1.8.8.9 0 1.5-.2 1.9-.8.4-.5.6-1.2.6-2v-5c0-.8-.2-1.5-.6-2-.4-.5-1-.8-1.8-.8-.9 0-1.5.3-1.9.8-.3.5-.5 1.2-.5 2v5Zm8.3 4v-1.2l4.5-5 1.4-1.7c.3-.5.4-1 .4-1.6a2.1 2.1 0 0 0-2.2-2.2c-.7 0-1.3.2-1.8.7-.5.4-.7 1-.7 2h-1.6c0-1.3.4-2.2 1.2-3a4.1 4.1 0 0 1 2.9-1c1.1 0 2 .3 2.8 1 .7.6 1 1.5 1 2.4a3.9 3.9 0 0 1-.6 2.2c-.5.7-1 1.4-1.7 2.1l-3.6 3.9h6.3v1.4h-8.3Zm15.3 0v-10.2h-.1l-4 5.8h7.4v1.4h-9.2v-1.1l6-8.7h1.4V331H244Z"/><path stroke="#888" stroke-linecap="round" stroke-linejoin="round" d="m261 326.4 4.5 4.6 4.6-4.5"/><path stroke="#F6F6F6" stroke-linecap="square" stroke-width=".5" d="M0 417h364"/></g><defs><clipPath id="a"><rect width="364" height="456" fill="#fff" rx="4"/></clipPath><filter id="b" width="95" height="95" x="156" y="135" color-interpolation-filters="sRGB" filterUnits="userSpaceOnUse"><feFlood flood-opacity="0" result="BackgroundImageFix"/><feBlend in="SourceGraphic" in2="BackgroundImageFix" result="shape"/><feGaussianBlur result="effect1_foregroundBlur_538_163260" stdDeviation="10"/></filter></defs></svg>