<svg xmlns="http://www.w3.org/2000/svg" width="364" height="456" fill="none"><g clip-path="url(#a)"><path fill="#fff" fill-rule="evenodd" d="M0 0h364v489.1H0V0Z" clip-rule="evenodd"/><path stroke="#888" stroke-linecap="round" d="m325.8 25.5 12.7 12.7m-12.7 0 12.7-12.7"/><path fill="#4D4D4D" d="m31 29.4 2-7.2h1.7L34 25l-2 6.9h-1.3l.2-2.5Zm-1-7.2 1.5 7.2v2.5H30l-2.4-9.7H30Zm6.5 7 1.4-7h2.5L37.9 32h-1.6l.2-2.7Zm-1.6-7 2 7.1.3 2.6h-1.4l-2-6.8-.5-2.9h1.6Zm9.5 7.2 2-7.2H48l-.5 2.8-2 6.9h-1.4l.3-2.5Zm-1-7.2 1.4 7.2.2 2.5h-1.6l-2.5-9.7h2.5Zm6.5 7 1.4-7h2.4L51.3 32h-1.6l.2-2.7Zm-1.6-7 2 7.1.2 2.6h-1.4l-2-6.8-.5-2.9h1.6Zm9.5 7.2 2-7.2h1.6l-.5 2.8-2 6.9h-1.4l.3-2.5Zm-1-7.2 1.4 7.2.1 2.5h-1.6l-2.4-9.7h2.5Zm6.4 7 1.4-7h2.5L64.7 32H63l.1-2.7Zm-1.6-7 2 7.1.3 2.6h-1.4l-2-6.8-.5-2.9h1.6Zm5.8 8.4c0-.4.1-.7.4-1 .3-.2.6-.3 1-.3.5 0 .9.1 1.1.4.3.2.4.5.4 1 0 .3-.1.6-.4.9-.3.2-.6.3-1 .3-.5 0-.8 0-1-.3-.4-.3-.5-.6-.5-1Zm10.4-1v-4.2c0-.3 0-.6-.2-.8 0-.2-.3-.4-.5-.5l-.8-.2-.7.1a1 1 0 0 0-.5.5l-.2.6h-2.5c0-.4 0-.8.3-1.2.2-.3.4-.7.8-1l1.3-.6c.5-.2 1-.2 1.7-.2a5 5 0 0 1 2 .3c.5.3 1 .7 1.3 1.2.4.5.5 1 .5 1.8v4.1l.1 1.3.3.9v.2h-2.6a3.7 3.7 0 0 1-.3-1 8 8 0 0 1 0-1.2ZM78 26v1.4h-1.4a3 3 0 0 0-.9.2c-.3 0-.5.1-.6.3l-.4.5v.6a1 1 0 0 0 .5 1l.7.1c.4 0 .7 0 1-.2.3-.2.5-.3.6-.6l.3-.6.7 1a4.4 4.4 0 0 1-1 1.6l-1 .5a3.3 3.3 0 0 1-1.2.2c-.6 0-1.1 0-1.6-.3s-1-.6-1.2-1a3 3 0 0 1-.1-2.9c.1-.4.4-.7.8-1l1.4-.6 2-.2H78Zm9.9 3.8V18.2h2.6v13.7h-2.4l-.2-2.1Zm-6-2.6V27c0-.8 0-1.4.2-2 .1-.6.4-1.1.7-1.6a3.3 3.3 0 0 1 2.8-1.3 3 3 0 0 1 2.5 1.3L89 25l.4 1.9v.4l-.4 1.9a5.6 5.6 0 0 1-.8 1.5 3 3 0 0 1-2.5 1.3c-.6 0-1.2 0-1.6-.3a3.4 3.4 0 0 1-1.2-1 4.9 4.9 0 0 1-.7-1.6 7.2 7.2 0 0 1-.3-2Zm2.5-.2v1.2l.4 1c.1.3.3.5.5.6.3.2.6.2.9.2.4 0 .8 0 1-.3.4-.2.6-.4.7-.8.2-.3.3-.7.3-1.2v-1.2a4.2 4.2 0 0 0-.2-1 2 2 0 0 0-.3-.7 1.6 1.6 0 0 0-.6-.6 1.9 1.9 0 0 0-.9-.1c-.3 0-.6 0-.8.2a1.7 1.7 0 0 0-.6.6c-.2.3-.3.6-.3 1l-.1 1Zm14.1-4.8h2.4v9.3a4 4 0 0 1-.6 2.3 3.6 3.6 0 0 1-1.6 1.4 5.7 5.7 0 0 1-5-.2c-.4-.2-.8-.5-1-.9l1.1-1.5c.3.4.6.6 1 .8.4.2.9.3 1.3.3.5 0 .9 0 1.2-.2.3-.2.6-.5.7-.8.2-.3.3-.7.3-1.1v-7.1l.2-2.3Zm-6.4 5V27c0-.8 0-1.4.3-2 .1-.6.4-1.1.7-1.6a3.5 3.5 0 0 1 2.9-1.3c.6 0 1.1 0 1.6.3.4.3.8.6 1 1l.7 1.6.4 1.9v.4l-.4 1.9a5.7 5.7 0 0 1-.7 1.5 3.1 3.1 0 0 1-1.1 1 3.1 3.1 0 0 1-1.5.3 3.5 3.5 0 0 1-2.9-1.4c-.3-.4-.6-.9-.8-1.5a6.7 6.7 0 0 1-.2-2Zm2.5-.2v.2c0 .4 0 .7.2 1 0 .4.2.7.3 1l.6.6 1 .2a2 2 0 0 0 1-.3c.4-.2.6-.5.7-.8.2-.3.3-.8.3-1.2v-1.2c0-.3 0-.7-.2-1a2.4 2.4 0 0 0-.3-.7 1.6 1.6 0 0 0-.7-.6 2.1 2.1 0 0 0-.9-.1c-.3 0-.6 0-.9.2a1.9 1.9 0 0 0-.6.6l-.3 1-.2 1Zm14 2.6v-7.4h2.5V32h-2.4l-.1-2.3Zm.2-2h.8c0 .6 0 1.2-.2 1.7a4.2 4.2 0 0 1-.7 1.5l-1.1 1a4.1 4.1 0 0 1-3 0c-.3 0-.6-.3-1-.6s-.4-.7-.6-1.1l-.2-1.6v-6.3h2.5v6.3l.1.7.3.5.5.2.5.1c.6 0 1 0 1.3-.3.3-.2.5-.5.6-.9l.2-1.2Zm9.5 2v-4.2l-.2-.8-.5-.5-.8-.2-.7.1-.5.5-.2.6H113a2.7 2.7 0 0 1 1-2.1l1.4-.7c.5-.2 1-.2 1.7-.2a5 5 0 0 1 2 .3c.5.3 1 .7 1.3 1.2.4.5.5 1 .5 1.8v4.1l.1 1.3c0 .4.2.7.3.9v.2h-2.6a3.7 3.7 0 0 1-.3-1v-1.2Zm.3-3.6v1.4h-1.4a3 3 0 0 0-.9.2 1.5 1.5 0 0 0-1 .8v1.2l.5.4.7.1c.4 0 .7 0 1-.2l.6-.6.3-.6.7 1a4.4 4.4 0 0 1-1 1.6l-1 .5a3.7 3.7 0 0 1-2.8-.1 2.7 2.7 0 0 1-1.6-2.5c0-.5 0-1 .2-1.4.2-.4.5-.7.9-1a4 4 0 0 1 1.4-.6l2-.2h1.4Zm6.8-1.7V32h-2.6v-9.7h2.4l.2 2.1Zm2.9-2.1v2.4a6.4 6.4 0 0 0-1-.1l-1 .1-.6.4-.4.7a3.2 3.2 0 0 0-.1.8l-.6-.1.2-1.7c.2-.6.3-1 .6-1.4.2-.4.5-.7.9-1l1.2-.2a2.7 2.7 0 0 1 .8 0Zm6.7 7.6V18.2h2.6v13.7h-2.4l-.2-2.1Zm-6.1-2.6V27c0-.8 0-1.4.2-2 .2-.6.4-1.1.8-1.6a3.3 3.3 0 0 1 2.7-1.3 3 3 0 0 1 2.6 1.3l.7 1.6.4 1.9v.4c0 .7-.2 1.3-.4 1.9a5.6 5.6 0 0 1-.7 1.5 3 3 0 0 1-2.6 1.3c-.6 0-1.1 0-1.6-.3a3.4 3.4 0 0 1-1.1-1 4.9 4.9 0 0 1-.8-1.6 7.2 7.2 0 0 1-.2-2Zm2.6-.2v1.2l.4 1c.1.3.3.5.5.6.3.2.5.2.9.2s.8 0 1-.3c.4-.2.6-.4.7-.8.2-.3.3-.7.3-1.2v-1.2c0-.3 0-.7-.2-1a2 2 0 0 0-.3-.7 1.6 1.6 0 0 0-.6-.6 1.9 1.9 0 0 0-.9-.1c-.3 0-.6 0-.9.2a1.7 1.7 0 0 0-.5.6 3.3 3.3 0 0 0-.3 1l-.1 1Zm8.2 3.6c0-.4.1-.7.4-1 .2-.2.6-.3 1-.3.5 0 .8.1 1 .4.3.2.5.5.5 1 0 .3-.2.6-.4.9-.3.2-.6.4-1 .4-.5 0-.9-.2-1.1-.4-.3-.3-.4-.6-.4-1Zm9.1-.6.8-.1.6-.5.2-.9h2.4c0 .7-.2 1.3-.5 1.8-.4.6-.8 1-1.4 1.3-.6.3-1.3.4-2 .4-.8 0-1.4 0-2-.3a3.8 3.8 0 0 1-1.4-1 4.5 4.5 0 0 1-.8-1.6 6.4 6.4 0 0 1-.3-2V27c0-.6.1-1.3.3-1.9.2-.6.5-1 .8-1.5.4-.5.8-.8 1.4-1 .6-.3 1.2-.4 2-.4.7 0 1.4.1 2 .4a3.6 3.6 0 0 1 2 3.3h-2.5a2 2 0 0 0-.2-.9 1.5 1.5 0 0 0-1.4-.8c-.4 0-.7 0-1 .2l-.5.6a3 3 0 0 0-.2 1l-.1 1v1.3c0 .4.2.7.3 1 .1.2.3.5.6.6.2.2.5.2.9.2Zm5.1-2.9V27a6 6 0 0 1 .3-2c.2-.6.5-1.1.9-1.5.4-.5.9-.8 1.4-1 .6-.3 1.2-.4 2-.4.7 0 1.3 0 1.9.3.6.3 1 .6 1.4 1l1 1.6.2 2v.1c0 .7 0 1.4-.3 2-.2.6-.5 1.1-.9 1.5a4 4 0 0 1-1.4 1c-.6.3-1.2.4-2 .4-.7 0-1.3 0-1.9-.3a4 4 0 0 1-2.3-2.6c-.2-.6-.3-1.3-.3-2Zm2.6-.1v1.3l.4.9.6.6c.3.2.6.2 1 .2.3 0 .6 0 .9-.2l.6-.6c.2-.3.3-.6.3-1l.2-1V27c0-.4 0-.8-.2-1.1a2.9 2.9 0 0 0-.3-1 1.7 1.7 0 0 0-.6-.6 1.8 1.8 0 0 0-1-.2c-.3 0-.6 0-.9.2l-.6.6a3.1 3.1 0 0 0-.3 1l-.1 1Zm10.6-2.8V32h-2.5v-9.7h2.4l.2 2Zm-.3 2.5h-.7c0-.7 0-1.3.2-1.8l.7-1.5A3.3 3.3 0 0 1 170 22c.5 0 .9 0 1.2.2.4 0 .7.3 1 .6l.5 1c.2.4.3 1 .3 1.5V32h-2.6v-6.2c0-.4 0-.7-.2-1a1 1 0 0 0-.5-.5 1.9 1.9 0 0 0-.8-.1c-.3 0-.6 0-.8.2l-.6.5-.4.9a4.4 4.4 0 0 0-.1 1Zm5.7-.3-.9.1c0-.6 0-1.2.2-1.7l.7-1.4a3.4 3.4 0 0 1 2.8-1.3c.5 0 .9 0 1.3.2l1 .6.5 1.1c.2.5.3 1 .3 1.7V32h-2.6v-6.2c0-.4 0-.8-.2-1a1 1 0 0 0-.5-.5l-.7-.1a1.7 1.7 0 0 0-1.4.7l-.4.7v1Z"/><path fill="#888" d="M32 51.7v9.7h-1.3v-9.7H32Zm3.1 0v1h-7.5v-1h7.5Zm2.5-.5v10.2h-1.2V51.2h1.2Zm-.3 6.3h-.5c0-.5 0-1 .2-1.3l.6-1.1a2.7 2.7 0 0 1 2.1-1l1 .1.7.5.5.8.2 1.2v4.7h-1.3v-4.7c0-.4 0-.7-.2-1a1 1 0 0 0-.4-.4l-.8-.2a1.8 1.8 0 0 0-1.5.8 2.7 2.7 0 0 0-.6 1.7Zm8-3.3v7.2H44v-7.2h1.2Zm-1.4-1.9c0-.2 0-.4.2-.5l.5-.2c.3 0 .4 0 .6.2l.2.5a.7.7 0 0 1-.2.5l-.6.2c-.2 0-.4 0-.5-.2a.7.7 0 0 1-.2-.5Zm7.5 7.2-.1-.5c0-.1-.2-.3-.5-.4l-1-.3-1.1-.3a3.3 3.3 0 0 1-.9-.4 1.6 1.6 0 0 1-.6-1.4l.1-.8.6-.7.8-.5 1.1-.1c.6 0 1.1 0 1.5.3l1 .8c.2.3.3.7.3 1.1h-1.3l-.1-.6-.6-.4-.8-.2a2 2 0 0 0-.8.1l-.5.4a1 1 0 0 0 0 1l.2.2.5.2.9.3 1.4.4.9.7c.2.3.3.6.3 1a1.9 1.9 0 0 1-.8 1.6 3.2 3.2 0 0 1-2 .6 3.5 3.5 0 0 1-1.6-.4 2.5 2.5 0 0 1-1-.9 2.1 2.1 0 0 1-.4-1.1h1.3c0 .3 0 .6.3.8.1.2.4.3.6.4a2.6 2.6 0 0 0 1.6 0c.2 0 .4-.2.5-.4a.8.8 0 0 0 .2-.5Zm8 .6 2-5.9h.8l-.2 1.2-1.9 6h-.8l.2-1.2Zm-1.2-5.9 1.6 6 .1 1.2h-.8L57 54.2h1.2Zm5.7 6 1.5-6h1.3l-2.1 7.2h-.9l.2-1.2Zm-1.6-6 1.8 5.8.3 1.4h-.8l-2-6-.1-1.2h.8Zm8.6 7.4c-.5 0-1-.1-1.4-.3a3.1 3.1 0 0 1-1.7-1.8 4 4 0 0 1-.2-1.4v-.3c0-.6 0-1.1.3-1.6.1-.4.4-.8.7-1.1a3 3 0 0 1 3.5-.7c.4.1.7.4 1 .7l.5 1.1.1 1.4v.6h-5.4v-1h4.2V57a3 3 0 0 0-.2-1l-.5-.7c-.3-.2-.6-.3-1-.3a1.7 1.7 0 0 0-1.4.7l-.4.8-.2 1.2v.3c0 .3 0 .6.2 1l.4.7.7.6.9.2c.4 0 .8-.1 1-.3.4-.2.7-.4.9-.7l.7.6-.6.6c-.2.3-.5.4-.8.6l-1.3.2Zm4.2-10.4h1.3V60l-.1 1.4h-1.1V51.2Zm6.2 6.6v.1l-.2 1.5c-.1.4-.3.8-.6 1.1-.2.4-.5.6-.8.8l-1.2.3a3 3 0 0 1-1.2-.3 2.4 2.4 0 0 1-1-.7l-.5-1a7 7 0 0 1-.3-1.5v-.6c0-.5.2-1 .3-1.4l.6-1c.2-.4.5-.6.9-.8l1.2-.2c.4 0 .8 0 1.2.3.3.1.6.4.8.7.3.3.5.7.6 1.2l.2 1.5Zm-1.3.1v-1.1l-.4-.9a1.6 1.6 0 0 0-1.5-.8 1.8 1.8 0 0 0-1.4.6 2.8 2.8 0 0 0-.6 1.3v1.6l.4 1a1.8 1.8 0 0 0 1.7.9c.3 0 .6 0 .8-.2l.6-.5.3-.9.1-1Zm7 1.6V59a1 1 0 0 0-.6-.4l-1-.3-1.1-.3a3.3 3.3 0 0 1-.8-.4 1.6 1.6 0 0 1-.7-1.4c0-.3 0-.6.2-.8 0-.3.3-.5.5-.7l.8-.4c.4-.2.7-.2 1.1-.2.6 0 1.1 0 1.5.3l1 .8c.2.3.3.7.3 1.1h-1.3l-.1-.5-.5-.5-.9-.2a2 2 0 0 0-.8.2 1 1 0 0 0-.4.4 1 1 0 0 0-.1.8l.2.3.5.2.9.3 1.4.4.9.7c.2.3.3.6.3 1a1.9 1.9 0 0 1-.8 1.6 3 3 0 0 1-.9.4 4 4 0 0 1-1.1.2c-.7 0-1.2-.2-1.6-.4a2.5 2.5 0 0 1-1-.9 2.1 2.1 0 0 1-.4-1.1h1.3c0 .3 0 .6.3.8.1.2.4.3.6.4a2.6 2.6 0 0 0 1.6 0c.3 0 .4-.2.6-.4a.8.8 0 0 0 .1-.5Zm4.2-5.3v7.2H90v-7.2h1.2ZM90 52.3c0-.2 0-.4.2-.5l.5-.2c.3 0 .4 0 .6.2l.2.5a.7.7 0 0 1-.2.5l-.6.2c-.2 0-.4 0-.5-.2a.7.7 0 0 1-.2-.5Zm6.3 2v.9h-3.9v-1h4Zm-2.6-1.8H95V60.2l.4.2.4.1a2 2 0 0 0 .5 0v1H95.4a2 2 0 0 1-.8-.1 1.3 1.3 0 0 1-.6-.6 2.5 2.5 0 0 1-.3-1.2v-7.1Zm7 9c-.4 0-.9 0-1.3-.2a3.1 3.1 0 0 1-1.7-1.8 4 4 0 0 1-.3-1.4v-.3c0-.6.1-1.1.3-1.6l.7-1.1a3 3 0 0 1 3.5-.7c.4.1.7.4 1 .7l.5 1.1.2 1.4v.6H98v-1h4.1V57a3 3 0 0 0-.2-1c0-.3-.3-.5-.5-.7-.2-.2-.6-.3-1-.3a1.7 1.7 0 0 0-1.4.7l-.4.8a4 4 0 0 0-.1 1.2v.3l.1 1 .4.7.7.6 1 .2c.4 0 .7-.1 1-.3l.8-.7.8.6-.6.6c-.3.3-.6.4-1 .6l-1.1.2Zm9-10.3v10.2h-1.3V51.2h1.2Zm-.4 6.4h-.5c0-.6 0-1 .2-1.4l.6-1.1a2.7 2.7 0 0 1 2.2-1l1 .1.6.5.5.8.2 1.2v4.7h-1.3v-4.7c0-.4 0-.7-.2-1a1 1 0 0 0-.4-.4l-.8-.2a1.8 1.8 0 0 0-1.5.8 2.7 2.7 0 0 0-.6 1.7Zm10.9 2.6v-3.7l-.2-.8a1.1 1.1 0 0 0-.5-.5 2 2 0 0 0-.9-.1 2 2 0 0 0-.8.1l-.5.5a1 1 0 0 0-.2.5h-1.2c0-.2 0-.5.2-.7 0-.3.3-.5.5-.7l1-.5a3.8 3.8 0 0 1 2.5 0c.4.2.7.5 1 .9.2.3.3.8.3 1.3v4.1l.3.7v.1h-1.3a4.7 4.7 0 0 1-.2-1.2Zm.2-3.1v.8H119l-.9.1c-.3 0-.5.1-.7.3a1.1 1.1 0 0 0-.6 1c0 .2 0 .4.2.6 0 .2.2.3.4.4l.8.2a2 2 0 0 0 1.7-.8l.3-.7.5.6-.2.6a3 3 0 0 1-1.4 1.2l-1 .2c-.6 0-1-.1-1.3-.3a2 2 0 0 1-1.2-1.9 2 2 0 0 1 .9-1.7 3 3 0 0 1 1-.5l1.3-.1h1.5Zm7.1 2.4V59a1 1 0 0 0-.6-.4 3.9 3.9 0 0 0-1-.3 8.5 8.5 0 0 1-1.1-.3l-.8-.4c-.3-.2-.4-.4-.5-.6a1.8 1.8 0 0 1 0-1.6 2.3 2.3 0 0 1 1.3-1.1c.4-.2.7-.2 1.1-.2.6 0 1.1 0 1.5.3l1 .8c.2.3.3.7.3 1.1h-1.2l-.2-.5-.5-.5-.9-.2a2 2 0 0 0-.8.2c-.2 0-.3.2-.4.4a1 1 0 0 0-.1.8l.2.3.5.2.9.3c.6.1 1 .3 1.4.5.4.1.7.4.9.6.2.3.3.6.3 1a1.9 1.9 0 0 1-.8 1.6 3.2 3.2 0 0 1-2 .6 3.5 3.5 0 0 1-1.6-.4 2.5 2.5 0 0 1-1-.9 2.1 2.1 0 0 1-.4-1.1h1.3c0 .3 0 .6.3.8.1.2.4.3.6.4a2.6 2.6 0 0 0 1.6 0c.3 0 .4-.2.6-.4a.8.8 0 0 0 .1-.5Zm10.5.7v-3.7l-.1-.8a1.1 1.1 0 0 0-.6-.5 2 2 0 0 0-.8-.1 2 2 0 0 0-.8.1l-.6.5a1 1 0 0 0-.2.5h-1.2c0-.2 0-.5.2-.7.1-.3.3-.5.6-.7.2-.2.5-.4.9-.5a3.8 3.8 0 0 1 2.6 0c.4.2.7.5 1 .9l.2 1.3v3.4l.1.7.2.7v.1h-1.3a4.6 4.6 0 0 1-.2-1.2Zm.2-3.1v.8H137l-1 .1-.6.3a1.1 1.1 0 0 0-.6 1c0 .2 0 .4.2.6 0 .2.2.3.4.4a2 2 0 0 0 2.5-.6l.2-.7.6.6-.3.6a3 3 0 0 1-2.4 1.4c-.5 0-1-.1-1.3-.3a2 2 0 0 1-1.1-1.9 2 2 0 0 1 .8-1.7 3 3 0 0 1 1-.5l1.4-.1h1.4Zm11-2.9h1.2v7c0 .7-.2 1.3-.4 1.7-.3.5-.6.8-1.1 1a3.4 3.4 0 0 1-2.5.3 3 3 0 0 1-1-.4 2.5 2.5 0 0 1-.7-.8l.6-.7a2.5 2.5 0 0 0 2 1l1-.3.6-.6c.2-.3.2-.6.2-1v-5.6l.1-1.6Zm-5 3.7v-.1c0-.6.2-1 .3-1.5l.5-1.2a2.5 2.5 0 0 1 2.1-1c.5 0 .9 0 1.2.2.4.2.7.4.9.7l.6 1 .2 1.5v.6l-.2 1.5a3.4 3.4 0 0 1-.6 1c-.2.3-.5.6-.9.7a2.9 2.9 0 0 1-2.4 0 2.7 2.7 0 0 1-.8-.8 3.6 3.6 0 0 1-.6-1.1l-.2-1.5Zm1.3-.1v.1l.1 1 .4.9c.1.2.3.4.6.5.2.2.5.2.8.2.4 0 .8 0 1-.2l.7-.7c.1-.3.3-.6.3-1V57a3.2 3.2 0 0 0-.2-.7c0-.2-.2-.4-.4-.6a1.7 1.7 0 0 0-.6-.4 2 2 0 0 0-1.6 0 1.7 1.7 0 0 0-.6.6l-.4.9v1Zm6.4.1v-.1c0-.6 0-1 .2-1.5l.7-1.2a3.2 3.2 0 0 1 2.4-1c.5 0 1 0 1.4.3.4.1.7.4 1 .7l.7 1.2.2 1.5v.1c0 .5 0 1-.2 1.5l-.7 1.1a3 3 0 0 1-2.4 1c-.5 0-1 0-1.4-.2a3.1 3.1 0 0 1-1.7-2 4.5 4.5 0 0 1-.2-1.4Zm1.3-.1v1.1l.5.9c.1.2.3.4.6.5.3.2.6.2.9.2.3 0 .6 0 .9-.2.3-.1.5-.3.6-.5l.4-.9.1-1v-1.1l-.5-1a1.8 1.8 0 0 0-1.5-.7c-.3 0-.6 0-1 .2a1.9 1.9 0 0 0-.5.6l-.4.8a3.9 3.9 0 0 0-.1 1Zm6.5.1v-.1c0-.6 0-1 .2-1.5l.7-1.2a3.2 3.2 0 0 1 2.4-1c.5 0 1 0 1.3.3.4.1.8.4 1 .7.4.4.6.8.7 1.2.2.4.3 1 .3 1.5v.1l-.3 1.5c-.1.4-.3.8-.6 1.1a3 3 0 0 1-2.4 1c-.5 0-1 0-1.4-.2a3.1 3.1 0 0 1-1.7-2 4.5 4.5 0 0 1-.2-1.4Zm1.2-.1v.1c0 .4 0 .7.2 1l.3.9c.1.3.4.4.7.5.2.2.5.2.9.2.3 0 .6 0 .9-.2l.6-.5.4-.9.1-1v-.1a3.6 3.6 0 0 0-.5-2 1.8 1.8 0 0 0-1.5-.7c-.4 0-.7 0-1 .2l-.6.6c-.1.2-.3.5-.3.8a3.9 3.9 0 0 0-.2 1Zm11.5 2.2v-8.8h1.2v10.2h-1.1l-.1-1.4Zm-4.9-2.1v-.1c0-.6 0-1 .2-1.5.1-.5.3-.9.6-1.2a2.6 2.6 0 0 1 2-1c.5 0 1 0 1.3.2l.8.7c.3.3.4.7.6 1l.3 1.5v.6c0 .6-.2 1-.3 1.5-.2.4-.3.7-.6 1-.2.3-.5.6-.9.7a2.9 2.9 0 0 1-2.3 0 2.8 2.8 0 0 1-1-.8 3.8 3.8 0 0 1-.5-1.1 5 5 0 0 1-.2-1.5Zm1.3-.1v1.1l.4.9.6.5c.2.2.5.2.9.2s.7 0 1-.2l.6-.7.4-1V57a3.5 3.5 0 0 0-.3-.7l-.3-.6a1.7 1.7 0 0 0-.6-.4 2 2 0 0 0-.8-.2c-.4 0-.7 0-1 .2a1.7 1.7 0 0 0-.5.6c-.2.3-.3.5-.3.9l-.1 1Zm11.3-2.4v6h-1.2v-7.2h1.2v1.2Zm2.3-1.2v1.1h-.6a2 2 0 0 0-.8.1c-.2 0-.4.2-.5.4-.2.1-.3.3-.4.6l-.1.7-.4.2.1-1.3.4-1a2 2 0 0 1 .7-.7 2 2 0 0 1 1.6-.1Zm4 7.4c-.5 0-1-.1-1.4-.3a3.1 3.1 0 0 1-1.7-1.8 4 4 0 0 1-.2-1.4v-.3c0-.6 0-1.1.2-1.6l.7-1.1a3 3 0 0 1 3.6-.7c.3.1.7.4.9.7l.5 1.1.2 1.4v.6h-5.4v-1h4.2V57a3 3 0 0 0-.2-1c-.1-.3-.3-.5-.6-.7-.2-.2-.5-.3-1-.3a1.7 1.7 0 0 0-1.3.7l-.4.8-.2 1.2v.3c0 .3 0 .6.2 1l.4.7.7.6.9.2c.4 0 .8-.1 1-.3l.9-.7.7.6a3.4 3.4 0 0 1-.6.6c-.2.3-.5.4-.9.6l-1.2.2Zm5.5-6v8.6h-1.3v-10h1.2v1.4Zm4.8 2.2v.1c0 .5 0 1-.2 1.5 0 .4-.3.8-.5 1.1a2.5 2.5 0 0 1-2 1 3 3 0 0 1-1.3-.2 2.4 2.4 0 0 1-.9-.6 3.4 3.4 0 0 1-.6-1 6 6 0 0 1-.3-1.4v-.8c0-.5.2-1 .3-1.4l.6-1c.3-.4.6-.6 1-.8l1.1-.2a2.6 2.6 0 0 1 2.1 1l.5 1.2c.2.4.2 1 .2 1.5Zm-1.2.1v-.1l-.1-1-.4-.9a1.7 1.7 0 0 0-1.4-.8 1.8 1.8 0 0 0-1.4.6l-.4.6-.3.7v1.8l.4.8.7.7c.2.2.6.3 1 .3.3 0 .6-.1.8-.3.3-.1.5-.3.6-.5l.4-.9v-1Zm7.2 1.9v-5.6h1.3v7.2h-1.2v-1.6Zm.2-1.6h.6l-.2 1.4c-.1.4-.2.7-.5 1l-.8.7a3 3 0 0 1-1.4.3c-.3 0-.6 0-1-.2a2 2 0 0 1-1.2-1.3 4 4 0 0 1-.1-1.2v-4.7h1.2v4.7l.1.8c0 .2.2.3.3.5l.4.2.5.1c.6 0 1-.1 1.3-.3.3-.2.5-.5.6-.8.2-.4.2-.7.2-1.2Zm6-4v1h-4v-1h4Zm-2.6-1.7h1.2v7.1l.1.6.3.2.4.1a2 2 0 0 0 .6 0v1h-1l-.8-.1a1.3 1.3 0 0 1-.6-.6 2.5 2.5 0 0 1-.2-1.2v-7.1Zm8.3 7.7v-3.7l-.2-.8a1.1 1.1 0 0 0-.5-.5 2 2 0 0 0-.9-.1 2 2 0 0 0-.8.1l-.5.4a1 1 0 0 0-.2.6H210l.2-.8.6-.6 1-.5a3.8 3.8 0 0 1 2.5 0c.4.2.7.5 1 .9.2.3.3.7.3 1.3v4.1l.2.7v.1h-1.3a4.5 4.5 0 0 1-.2-1.2Zm.2-3.2v1h-2.3l-.6.2a1.1 1.1 0 0 0-.6 1c0 .3 0 .5.2.7 0 .2.2.3.4.4a2 2 0 0 0 2.5-.6l.3-.7.5.6-.3.6a3 3 0 0 1-1.3 1.2l-1 .2c-.6 0-1-.1-1.4-.3a2 2 0 0 1-1.1-1.9c0-.4 0-.7.2-1 .2-.3.4-.6.7-.7l1-.5 1.3-.2h1.5Zm6-2.8v1h-4v-1h4Zm-2.6-1.7h1.2v7.1l.1.6.3.2.4.1a2 2 0 0 0 .6 0v1h-1l-.8-.1a1.3 1.3 0 0 1-.6-.6 2.5 2.5 0 0 1-.2-1.2v-7.1Zm5.3 1.7v7.2h-1.2v-7.2h1.2Zm-1.3-1.9c0-.2 0-.4.2-.5l.5-.2c.3 0 .4 0 .6.2l.2.5a.7.7 0 0 1-.2.5l-.6.2c-.2 0-.4 0-.5-.2a.7.7 0 0 1-.2-.5Zm3 5.6v-.1c0-.6 0-1 .2-1.5l.7-1.2a3.2 3.2 0 0 1 2.4-1c.5 0 1 0 1.3.3.4.1.8.4 1 .7.4.4.6.7.7 1.2.2.4.2 1 .2 1.4v.2c0 .5 0 1-.2 1.4-.1.5-.3.9-.6 1.2a3 3 0 0 1-2.4 1 3 3 0 0 1-3.1-2.2 4.5 4.5 0 0 1-.2-1.4Zm1.2-.1v.1l.1 1 .4.9.7.5c.2.2.5.2.9.2.3 0 .6 0 .9-.2l.6-.5.4-.9.1-1v-.1l-.1-1-.4-1a1.8 1.8 0 0 0-1.5-.7 1.8 1.8 0 0 0-1.6.8l-.4.8v1Zm8.1-2v5.6h-1.2v-7.2h1.2v1.5Zm-.3 1.8h-.5a4 4 0 0 1 .8-2.5 2.7 2.7 0 0 1 2.1-1l1 .1.7.5.5.8.2 1.2v4.7h-1.3v-4.7l-.1-1a1 1 0 0 0-.5-.4l-.8-.2a1.8 1.8 0 0 0-1.5.8 2.7 2.7 0 0 0-.6 1.7ZM32.5 78.3v-3.7c0-.3 0-.5-.2-.8a1.1 1.1 0 0 0-.5-.5l-.8-.1-.8.1c-.3.1-.5.3-.6.5a1 1 0 0 0-.2.5h-1.2c0-.2 0-.5.2-.7.1-.3.3-.5.6-.7.2-.2.5-.4.9-.5a3.8 3.8 0 0 1 2.5 0c.4.2.8.5 1 .8.2.4.3.8.3 1.4V78l.1.8.2.7v.1h-1.3a4.6 4.6 0 0 1-.2-1.2Zm.2-3.2v1h-2.2c-.2 0-.5.1-.7.3a1.1 1.1 0 0 0-.5 1l.1.6.5.4.8.2a2 2 0 0 0 1.6-.8l.3-.7.6.6-.3.6a3 3 0 0 1-1.4 1.2l-1 .2c-.5 0-1-.1-1.3-.3a2 2 0 0 1-1.2-1.9c0-.4.1-.7.3-1 .1-.3.3-.5.6-.7a3 3 0 0 1 1-.5l1.4-.1h1.4Zm5.9 3.5.8-.1.6-.5c.2-.2.2-.5.3-.8h1.1a2.2 2.2 0 0 1-.4 1.2 3 3 0 0 1-2.4 1.3c-.6 0-1-.1-1.5-.3l-1-.8a3.5 3.5 0 0 1-.6-1.2l-.1-1.3v-.3c0-.5 0-1 .2-1.4 0-.4.3-.8.6-1.2.2-.3.6-.6 1-.7.4-.2.8-.3 1.4-.3.5 0 1 .1 1.4.3.5.2.8.6 1 1 .3.4.4.8.4 1.3h-1.1c0-.3-.1-.6-.3-.8a1.6 1.6 0 0 0-1.4-.8c-.4 0-.7 0-1 .2l-.6.6a2.8 2.8 0 0 0-.3.8l-.1 1V77l.4.8.6.6c.3.2.6.2 1 .2Zm7.1 0a1.8 1.8 0 0 0 1.4-.6c.2-.2.3-.5.3-.8h1.2a2.2 2.2 0 0 1-.5 1.2 3 3 0 0 1-2.4 1.3 3.3 3.3 0 0 1-1.4-.3l-1-.8a3.5 3.5 0 0 1-.6-1.2l-.2-1.3v-.3a4.4 4.4 0 0 1 .8-2.6c.3-.3.6-.6 1-.7.4-.2.9-.3 1.4-.3.6 0 1 .1 1.5.3a2.7 2.7 0 0 1 1.4 2.3h-1.2l-.2-.8a1.6 1.6 0 0 0-1.5-.8c-.4 0-.7 0-1 .2l-.6.6a2.8 2.8 0 0 0-.3.8v1.3a4.1 4.1 0 0 0 .3 1.7l.6.6c.3.2.6.2 1 .2Zm4-2.6V76c0-.6 0-1 .2-1.5a3 3 0 0 1 1.7-2l1.3-.2c.5 0 1 0 1.4.3.4.1.7.4 1 .7l.7 1.2.2 1.4v.2c0 .5 0 1-.2 1.4-.2.5-.4.9-.7 1.2a3 3 0 0 1-2.4 1 3.1 3.1 0 0 1-3-2.2 4.5 4.5 0 0 1-.3-1.4Zm1.2-.1v.1l.1 1c0 .3.2.6.4.9l.6.5c.3.2.6.2 1 .2.3 0 .6 0 .8-.2l.7-.5.3-.9.2-1V76c0-.4 0-.8-.2-1a2.6 2.6 0 0 0-.4-1 1.8 1.8 0 0 0-1.5-.7 1.8 1.8 0 0 0-1.5.8l-.4.8-.1 1Zm8-2.5v6.1h-1.2v-7.2H59v1.1Zm2.3-1.1v1.1h-.6l-.7.1c-.2 0-.4.2-.6.4a1.8 1.8 0 0 0-.3.5l-.2.8-.3.2v-1.3l.5-1a2 2 0 0 1 .7-.7 2 2 0 0 1 1.5-.1Zm5.6 5.8v-8.8H68v10.2H67l-.1-1.4Zm-4.9-2.1V76l.2-1.5.6-1.2a2.6 2.6 0 0 1 2-1c.5 0 1 0 1.3.2l.8.7c.3.3.5.7.6 1l.3 1.5v.6c0 .6-.2 1-.3 1.5-.1.4-.3.7-.6 1-.2.3-.5.6-.8.7a2.9 2.9 0 0 1-2.4 0 2.7 2.7 0 0 1-.9-.8 3.7 3.7 0 0 1-.6-1.1A5.1 5.1 0 0 1 62 76Zm1.3-.1V77l.4.8.6.6.9.2c.4 0 .7 0 1-.3l.6-.6.4-1v-1.6a3.6 3.6 0 0 0-.2-.7l-.4-.6a1.7 1.7 0 0 0-.6-.4 2 2 0 0 0-1.7 0 1.7 1.7 0 0 0-.6.6l-.3.8-.1 1Zm8-3.6v7.2H70v-7.2h1.3ZM70 70.5l.2-.5.6-.2c.2 0 .4 0 .5.2l.2.5a.7.7 0 0 1-.2.5l-.5.2c-.3 0-.4 0-.6-.2a.7.7 0 0 1-.1-.5Zm4.6 3.4v5.7h-1.2v-7.2h1.1l.1 1.5Zm-.3 1.8h-.5c0-.5 0-1 .2-1.3.1-.5.3-.8.6-1.1a2.7 2.7 0 0 1 2.1-1l1 .1.7.5.5.8.1 1.2v4.7h-1.2V75c0-.4 0-.7-.2-1a1 1 0 0 0-.5-.4l-.7-.2a1.8 1.8 0 0 0-1.5.8 2.7 2.7 0 0 0-.6 1.7Zm11.3-3.3h1.1v7c0 .7-.1 1.2-.4 1.7-.2.4-.6.8-1 1a3.4 3.4 0 0 1-2.5.2c-.4 0-.7-.2-1-.4a2.5 2.5 0 0 1-.8-.7l.6-.7a2.5 2.5 0 0 0 2 1c.4 0 .7-.1 1-.3.3-.1.5-.3.6-.6.2-.3.3-.7.3-1V72.3Zm-5 3.7V76c0-.6 0-1 .2-1.5.1-.5.3-.9.6-1.2a2.5 2.5 0 0 1 2-1c.5 0 1 0 1.2.2l1 .7.5 1 .3 1.5v.6c0 .6-.2 1-.3 1.5-.2.4-.3.7-.6 1-.2.3-.5.6-.9.7a2.9 2.9 0 0 1-2.3 0 2.7 2.7 0 0 1-1-.8 3.6 3.6 0 0 1-.5-1.1l-.2-1.5Zm1.2-.1v.1l.1 1 .4.8c.1.3.3.5.6.6l.8.2a1.8 1.8 0 0 0 1.7-1c.2-.2.3-.5.4-.9v-1.6a3.3 3.3 0 0 0-.3-.7l-.3-.6a1.7 1.7 0 0 0-.6-.4 2 2 0 0 0-1.7 0 1.7 1.7 0 0 0-.6.6c-.1.2-.3.5-.3.8l-.1 1ZM95 72.4v1h-4v-1h4Zm-2.6-1.7h1.2v7.1c0 .3 0 .5.2.6l.2.2.4.1a2 2 0 0 0 .6 0v1H94l-.9-.1a1.3 1.3 0 0 1-.6-.6 2.5 2.5 0 0 1-.2-1.2v-7.1Zm3.6 5.4v-.2c0-.5 0-1 .2-1.4.1-.5.4-.8.6-1.2a3.2 3.2 0 0 1 2.4-1c.5 0 1 0 1.4.3.4.1.8.4 1 .7l.7 1.2c.2.4.2 1 .2 1.4v.2c0 .5 0 1-.2 1.4-.2.5-.4.9-.7 1.2a3 3 0 0 1-2.4 1 3.1 3.1 0 0 1-3-2.2 4.5 4.5 0 0 1-.2-1.4Zm1.2-.2v.2l.1 1 .4.9.6.5c.3.2.6.2 1 .2.3 0 .6 0 .8-.2l.7-.5.4-.9V75l-.4-.8a1.8 1.8 0 0 0-1.6-.8 1.8 1.8 0 0 0-1.5.8l-.4.8-.1 1Z"/><path fill="#67B279" d="m110.1 76.7 2-6.8h.9l-.6 2.6-2 7.1h-1l.7-3Zm-2-6.8 1.5 6.7.5 3h-1l-2.3-9.7h1.3Zm7.3 6.6L117 70h1.3l-2.3 9.7h-1l.5-3Zm-2.3-6.6 1.9 6.8.6 3h-.9l-2-7.2-.5-2.6h.9Zm14 4.6v.6c0 .7 0 1.4-.2 2a4.2 4.2 0 0 1-.8 1.4 3.5 3.5 0 0 1-2.9 1.3 3.6 3.6 0 0 1-2.8-1.3 4 4 0 0 1-.8-1.5 6.2 6.2 0 0 1-.3-2v-.5c0-.8.1-1.4.3-2 .2-.6.5-1 .8-1.5a3.6 3.6 0 0 1 2.8-1.2c.6 0 1.2 0 1.6.3.5.2 1 .5 1.3 1 .3.3.6.8.8 1.4l.2 2Zm-1.2.6v-.7l-.2-1.5a3.2 3.2 0 0 0-.5-1.1 2.2 2.2 0 0 0-.9-.7l-1-.2c-.5 0-.8 0-1.2.2l-.8.7-.5 1.1-.2 1.5v.7c0 .6 0 1 .2 1.5.1.5.3.8.5 1.1a2.4 2.4 0 0 0 2 1c.4 0 .7-.1 1-.3.4-.1.7-.4.9-.7l.5-1 .2-1.6Zm6.6-5.2v9.7h-1.3V70h1.3Zm3 0v1h-7.4v-1h7.5Z"/><path fill="#F5A623" fill-rule="evenodd" d="m38.6 120.1-6.5 4 1.8-7.4-5.8-4.9 7.6-.6 2.9-7 3 7 7.5.6-5.8 4.9 1.8 7.3-6.5-3.9Zm27.2 0-6.5 4 1.8-7.4-5.8-4.9 7.6-.6 2.9-7 3 7 7.5.6-5.8 4.9 1.8 7.3-6.5-3.9Zm27.2 0-6.5 4 1.8-7.4-5.8-4.9 7.6-.6 2.9-7 3 7 7.4.6-5.7 4.9 1.8 7.3-6.5-3.9Zm27.2 0-6.5 4 1.8-7.4-5.8-4.9 7.6-.6 2.9-7 2.9 7 7.6.6-5.8 4.9 1.8 7.3-6.5-3.9Zm27.6 0-6.5 4 1.8-7.4-5.8-4.9 7.6-.6 2.9-7 3 7 7.5.6-5.8 4.9 1.8 7.3-6.5-3.9Z" clip-rule="evenodd"/><mask id="b" width="22" height="21" x="137" y="104" maskUnits="userSpaceOnUse" style="mask-type:alpha"><path fill="#D8D8D8" fill-rule="evenodd" d="m147.8 120.1-6.5 4 1.8-7.4-5.8-4.9 7.6-.6 2.9-7 3 7 7.5.6-5.8 4.9 1.8 7.3-6.5-3.9Z" clip-rule="evenodd"/></mask><g mask="url(#b)"><path fill="#D9D9D9" d="M147.8 104.2h10.5v19.9h-10.5v-19.9Z"/></g><path fill="#4D4D4D" d="M56.1 348.8h4.3c1 0 1.8.1 2.5.4.6.3 1.1.8 1.5 1.4.3.5.5 1.2.5 2a3.6 3.6 0 0 1-1.4 3c-.4.3-1 .5-1.6.7l-.5.2h-4V355h3c.7 0 1.2-.1 1.6-.3.4-.2.7-.5.9-1a2.8 2.8 0 0 0 0-2.4 2 2 0 0 0-1-.9 3.6 3.6 0 0 0-1.5-.3h-2.6v11.5h-1.7v-13Zm7.6 13-3.2-6h1.8l3.2 5.8v.1h-1.8Zm7.4.1a4.1 4.1 0 0 1-4.1-2.8c-.2-.5-.4-1.2-.4-1.8v-.4c0-.8.2-1.5.4-2.1.2-.6.5-1.1 1-1.6a4 4 0 0 1 2.9-1.3 4 4 0 0 1 1.7.4c.5.2 1 .6 1.3 1 .3.4.5.9.7 1.5l.2 1.8v.8h-7.2V356h5.6a4.1 4.1 0 0 0-.3-1.3c-.2-.4-.4-.8-.7-1a2 2 0 0 0-1.3-.4 2.2 2.2 0 0 0-1.9 1l-.5 1-.2 1.6v.4c0 .4 0 .8.2 1.2l.5 1c.3.4.6.6 1 .8.3.2.7.3 1.1.3.6 0 1.1-.2 1.5-.4.4-.2.8-.5 1-1l1 .9c-.1.3-.4.6-.7.9a4 4 0 0 1-1.2.6c-.5.2-1 .3-1.6.3Zm7.3-8v11.5h-1.7v-13.3h1.5l.2 1.9Zm6.4 3v.1c0 .7 0 1.4-.2 2l-.7 1.5c-.4.5-.7.8-1.2 1a4 4 0 0 1-3.2.1c-.5-.2-.9-.5-1.2-.9a4.5 4.5 0 0 1-.8-1.4 8 8 0 0 1-.4-1.8v-1l.4-1.9c.2-.6.5-1 .8-1.4.3-.4.7-.7 1.2-1 .5-.2 1-.3 1.6-.3.6 0 1.1.2 1.6.4s.8.6 1.2 1c.3.4.5 1 .7 1.5.2.6.2 1.3.2 2Zm-1.6.1v-.2c0-.4 0-.9-.2-1.3 0-.4-.2-.8-.4-1.1a2.3 2.3 0 0 0-2-1 2.3 2.3 0 0 0-1.9.7 3.4 3.4 0 0 0-.8 1.8v2.3l.5 1.1c.2.4.5.7.9 1 .3.1.8.3 1.3.3s.9-.1 1.2-.3l.8-.8.4-1.1.2-1.4Zm3.3 0v-.2c0-.7.1-1.3.3-2l.9-1.5c.4-.4.8-.8 1.3-1a4.3 4.3 0 0 1 1.9-.4 4.3 4.3 0 0 1 3.2 1.4 6 6 0 0 1 1.2 3.5v.2a6 6 0 0 1-.4 2c-.2.6-.4 1-.8 1.5a4 4 0 0 1-3.2 1.4 4.1 4.1 0 0 1-4.1-3 6 6 0 0 1-.3-1.9Zm1.6-.2v.2l.2 1.4.5 1.1c.3.3.5.6.9.8.3.2.7.3 1.2.3l1.2-.3.8-.8.5-1.1.2-1.4v-.2c0-.4 0-.9-.2-1.3 0-.4-.3-.8-.5-1.1a2.4 2.4 0 0 0-2-1.1c-.5 0-.9 0-1.2.3-.4.2-.6.4-.9.8l-.5 1-.1 1.4Zm10.9-3.2v8.1h-1.7v-9.6H99v1.5Zm3-1.5v1.5a3.8 3.8 0 0 0-.8 0h-1a2 2 0 0 0-.8.6l-.5.8-.2 1-.4.2.1-1.6c.1-.6.3-1 .6-1.4a2.6 2.6 0 0 1 3-1.1Zm6 0v1.3h-5.2V352h5.2Zm-3.5-2.3h1.7v9.5l.1.8c.1.2.2.3.4.3h.5a2.7 2.7 0 0 0 .8 0v1.3a4 4 0 0 1-1.3.2c-.4 0-.7 0-1-.2-.4-.2-.7-.5-.9-.8-.2-.4-.3-1-.3-1.6v-9.5Zm14 2.3v1.3h-5.3V352h5.2Zm-3.5-2.3h1.6v9.5c0 .4 0 .6.2.8 0 .2.2.3.4.3h.5a2.7 2.7 0 0 0 .8 0v1.3a4 4 0 0 1-1.3.2c-.4 0-.8 0-1.1-.2l-.8-.8c-.2-.4-.3-1-.3-1.6v-9.5Zm7-1.7v13.6h-1.6v-13.6h1.6Zm-.4 8.5h-.7a5.4 5.4 0 0 1 1.1-3.4 3.6 3.6 0 0 1 2.8-1.3l1.3.2 1 .6c.3.3.5.7.6 1.1l.2 1.6v6.3h-1.6v-6.3c0-.5-.1-.9-.3-1.2-.1-.3-.3-.5-.6-.7a2.3 2.3 0 0 0-1-.2 2.4 2.4 0 0 0-2 1 3.6 3.6 0 0 0-.8 2.3Zm10.6-4.5v9.6h-1.7v-9.6h1.7Zm-1.8-2.5c0-.3 0-.5.2-.7.2-.2.4-.3.8-.3.3 0 .5.1.7.3.2.2.2.4.2.7 0 .2 0 .4-.2.6-.2.2-.4.3-.7.3-.4 0-.6-.1-.8-.3a1 1 0 0 1-.2-.6Zm10 9.6c0-.3 0-.5-.2-.7 0-.2-.3-.4-.6-.5a5.1 5.1 0 0 0-1.4-.5 11.2 11.2 0 0 1-1.5-.4 4.4 4.4 0 0 1-1-.5c-.3-.3-.6-.5-.7-.8a2.4 2.4 0 0 1 0-2.1c.1-.4.4-.7.7-1s.7-.4 1.1-.5l1.5-.3c.8 0 1.4.2 2 .4.5.3 1 .7 1.2 1.1.3.5.5 1 .5 1.5h-1.7c0-.2 0-.5-.2-.7a1.8 1.8 0 0 0-.7-.7 2.2 2.2 0 0 0-1.1-.2c-.5 0-.8 0-1.1.2a1.4 1.4 0 0 0-.6.5 1.3 1.3 0 0 0-.1 1.2l.3.4.7.3 1 .3 2 .6c.5.3 1 .6 1.2 1 .2.3.3.7.3 1.3a2.5 2.5 0 0 1-1 2c-.3.3-.7.5-1.2.6a5.5 5.5 0 0 1-3.6-.2c-.6-.3-1-.7-1.4-1.2-.3-.5-.4-1-.4-1.5h1.6c0 .4.2.8.4 1a2 2 0 0 0 1 .6 3.4 3.4 0 0 0 2 0c.4-.1.6-.3.8-.5l.2-.7Zm10.8.8 2.4-7.9h1.1l-.2 1.6-2.5 8h-1l.2-1.7Zm-1.7-7.9 2 8 .3 1.6h-1.2l-2.8-9.6h1.7Zm7.6 8 2-8h1.6l-2.8 9.6h-1l.2-1.7Zm-2.1-8 2.4 7.8.2 1.8h-1l-2.6-8-.2-1.6h1.1Zm11.4 9.8c-.7 0-1.3-.1-1.8-.3a4.1 4.1 0 0 1-2.3-2.5c-.2-.5-.3-1.2-.3-1.8v-.4c0-.8 0-1.5.3-2.1l1-1.6a4 4 0 0 1 2.9-1.3 4 4 0 0 1 1.8.4c.5.2.9.6 1.2 1 .3.4.5.9.7 1.5.2.6.2 1.2.2 1.8v.8H163V356h5.5a4 4 0 0 0-.3-1.3c-.1-.4-.4-.8-.7-1a2 2 0 0 0-1.3-.4 2.2 2.2 0 0 0-1.9 1l-.5 1-.2 1.6v.4c0 .4 0 .8.2 1.2l.6 1a2.7 2.7 0 0 0 2 1c.7 0 1.2 0 1.6-.3.4-.2.7-.5 1-1l1 .9-.8.9a4 4 0 0 1-2.8.9Zm5.7-13.8h1.6v11.8l-.1 1.8H172v-13.6Zm8.1 8.7v.2c0 .7 0 1.4-.2 2a5 5 0 0 1-.8 1.5 3.4 3.4 0 0 1-1.2 1c-.4.3-1 .4-1.5.4a3.9 3.9 0 0 1-1.6-.3 3.2 3.2 0 0 1-1.2-1c-.3-.3-.6-.8-.8-1.4a9.2 9.2 0 0 1-.4-1.9v-.8l.4-1.9c.2-.6.5-1 .8-1.4a3 3 0 0 1 1.2-1c.4-.2 1-.3 1.5-.3.6 0 1.2.2 1.6.4.5.2 1 .6 1.2 1l.8 1.5.2 2Zm-1.7.2v-1.5a3.5 3.5 0 0 0-.5-1.1 2.1 2.1 0 0 0-2-1l-1 .1-.8.6a3.1 3.1 0 0 0-.5.8 5 5 0 0 0-.3 1v2.1c0 .4.2.8.4 1.2a2.4 2.4 0 0 0 2.2 1.3 2.2 2.2 0 0 0 2-1l.4-1.1.1-1.4Zm9.4 2.2c0-.3 0-.5-.2-.7 0-.2-.3-.4-.6-.5a5.1 5.1 0 0 0-1.4-.5l-1.5-.4-1-.5a2.1 2.1 0 0 1-1-1.9c0-.3 0-.7.3-1 .1-.4.4-.7.7-1a3.5 3.5 0 0 1 1-.5c.5-.2 1-.3 1.6-.3.7 0 1.4.2 2 .4.5.3.9.7 1.2 1.1.3.5.4 1 .4 1.5h-1.6c0-.2-.1-.5-.3-.7a1.8 1.8 0 0 0-.6-.7 2.2 2.2 0 0 0-1.1-.2c-.5 0-.9 0-1.1.2l-.7.5a1.3 1.3 0 0 0 0 1.2l.3.4.7.3 1 .3 2 .6c.5.3.9.6 1.2 1 .2.3.3.7.3 1.3a2.5 2.5 0 0 1-1 2c-.3.3-.7.5-1.2.6l-1.5.2c-.8 0-1.6-.1-2.1-.4-.6-.3-1-.7-1.4-1.2-.3-.5-.4-1-.4-1.5h1.6c0 .4.2.8.4 1a2 2 0 0 0 .9.6 3.4 3.4 0 0 0 2.1 0c.3-.1.6-.3.7-.5.2-.2.3-.5.3-.7Zm5.6-7v9.5h-1.7v-9.6h1.7Zm-1.8-2.6c0-.3 0-.5.2-.7.2-.2.4-.3.8-.3.3 0 .5.1.7.3.2.2.2.4.2.7 0 .2 0 .4-.2.6a1 1 0 0 1-.7.3c-.4 0-.6-.1-.8-.3a1 1 0 0 1-.2-.6Zm8.4 2.5v1.3H195V352h5.2Zm-3.4-2.3h1.6v9.5c0 .4 0 .6.2.8 0 .2.2.3.4.3h.5a2.7 2.7 0 0 0 .8 0v1.3a4 4 0 0 1-1.3.2c-.4 0-.8 0-1.1-.2-.4-.2-.6-.5-.8-.8-.2-.4-.3-1-.3-1.6v-9.5Zm9.4 12.1a4.1 4.1 0 0 1-4.1-2.8c-.3-.5-.4-1.2-.4-1.8v-.4c0-.8.2-1.5.4-2.1a4.7 4.7 0 0 1 1-1.6 4 4 0 0 1 2.8-1.3 4 4 0 0 1 1.8.4c.5.2 1 .6 1.3 1 .3.4.5.9.7 1.5l.2 1.8v.8h-7.2V356h5.5a4 4 0 0 0-.2-1.3c-.2-.4-.4-.8-.7-1-.4-.3-.8-.4-1.4-.4a2.2 2.2 0 0 0-1.8 1l-.5 1c-.2.5-.2 1-.2 1.6v.4c0 .4 0 .8.2 1.2l.5 1a2.7 2.7 0 0 0 2.1 1c.6 0 1.1 0 1.5-.3.4-.2.8-.5 1-1l1 .9c-.1.3-.4.6-.7.9a4 4 0 0 1-2.9.9Z"/><path fill="#F5A623" fill-rule="evenodd" d="M39.5 357.8c.3-.8.1-2-.6-2.7a3 3 0 0 0-.2-2c-.2-.4-.5-.7-1-1a2.7 2.7 0 0 0-.3-1.2 3.5 3.5 0 0 0-2.3-1.5c-.5-.2-1.5-.2-1.5-.2-1.9 0-4 .7-6.2 2.2l-2.3.3c-.7.1-1.2.7-1.2 1.4v6.6c0 .6.4.8.7 1l.7.5c.8.5 2.1 1.3 2.5 1.7.6.5 1.1 1.5 1.6 2.5l1.2 1.9a2.6 2.6 0 0 0 2.1 1.2c.7 0 1.4-.3 1.9-.9.5-.6.6-1.5.3-2.4a16.2 16.2 0 0 0-1.2-3h4.1c1 0 1.8-.7 2.2-1.6a3 3 0 0 0-.5-2.8Zm-1.7 3.3h-4.1a1 1 0 0 0-1 1.6c.6.8 1 1.8 1.3 2.8.3 1.2-.4 2-1.3 2-.4 0-1-.2-1.3-.8-1-1.6-1.8-3.5-2.9-4.5-.8-.8-3.6-2.4-3.6-2.5v-6.6c0-.2.2-.4.3-.4l2.5-.4h.1c2.2-1.5 4.2-2.1 5.8-2.1l1.2.1c1.9.5 2 1.6 2 2.2 0 .2 0 .4.2.4 1 .3 1 1.7.8 2.3-.1.2 0 .4.2.5.7.4.8 1.6.5 2.1a.4.4 0 0 0 0 .5c.9.6 1 2.8-.7 2.8Z" clip-rule="evenodd"/><path fill="#4D4D4D" d="M60.9 443.2 56.6 455h-1.7l4.9-13h1.1v1.2Zm3.6 11.8-4.3-11.8v-1.1h1l5 12.9h-1.7Zm-.2-4.8v1.4H57v-1.4h7.3Zm9 2.2-.1-.6c-.1-.2-.3-.4-.7-.6a5.1 5.1 0 0 0-1.4-.4l-1.4-.4c-.5-.2-.8-.3-1.1-.6a2.2 2.2 0 0 1-1-1.8c0-.4.1-.7.3-1l.7-1a3.5 3.5 0 0 1 1.1-.6l1.5-.2c.8 0 1.4.1 2 .4.5.3 1 .6 1.2 1.1.3.5.5 1 .5 1.5h-1.7c0-.3 0-.5-.2-.8a1.8 1.8 0 0 0-.7-.6 2.2 2.2 0 0 0-1-.2c-.5 0-1 0-1.2.2-.3.1-.5.3-.6.5a1.3 1.3 0 0 0-.1 1.1c0 .2.2.3.3.4l.7.3 1.1.3a9 9 0 0 1 2 .7c.5.2.9.5 1.1.9.2.4.4.8.4 1.3a2.5 2.5 0 0 1-1 2l-1.2.7a5 5 0 0 1-1.5.2c-.9 0-1.6-.2-2.2-.5-.6-.3-1-.7-1.3-1.2-.3-.4-.5-1-.5-1.5H69c0 .5.1.8.4 1.1a2 2 0 0 0 .8.6 3.5 3.5 0 0 0 2.2 0l.7-.5.2-.8Zm9.4 0-.1-.6c-.1-.2-.3-.4-.7-.6a5.1 5.1 0 0 0-1.4-.4l-1.4-.4c-.5-.2-.8-.3-1.1-.6a2.2 2.2 0 0 1-1-1.8c0-.4.1-.7.3-1l.7-1a3.5 3.5 0 0 1 1.2-.6l1.4-.2c.8 0 1.4.1 2 .4.5.3 1 .6 1.2 1.1.3.5.5 1 .5 1.5h-1.7c0-.3 0-.5-.2-.8a1.8 1.8 0 0 0-.7-.6 2.2 2.2 0 0 0-1-.2c-.5 0-1 0-1.2.2-.3.1-.5.3-.6.5a1.3 1.3 0 0 0-.1 1.1c0 .2.2.3.3.4l.7.3 1.1.3c.8.2 1.5.4 2 .7.5.2.9.5 1.1.9.3.4.4.8.4 1.3a2.5 2.5 0 0 1-1 2l-1.2.7-1.5.2c-.9 0-1.6-.2-2.2-.5-.6-.3-1-.7-1.3-1.2-.3-.4-.5-1-.5-1.5h1.7c0 .5.1.8.4 1.1a2 2 0 0 0 .8.6 3.5 3.5 0 0 0 2.2 0l.7-.5c.2-.2.2-.5.2-.8Zm5.6-7v9.6h-1.6v-9.6h1.6Zm-1.8-2.6a1 1 0 0 1 .3-.6c.1-.2.4-.3.7-.3.3 0 .6 0 .7.3.2.1.3.4.3.6 0 .3-.1.5-.3.7-.1.2-.4.3-.7.3a1 1 0 0 1-.7-.3 1 1 0 0 1-.3-.7Zm10 9.6-.1-.6-.6-.6a5.1 5.1 0 0 0-1.5-.4l-1.4-.4c-.4-.2-.8-.3-1.1-.6a2.2 2.2 0 0 1-1-1.8c0-.4.2-.7.3-1l.7-1a3.5 3.5 0 0 1 1.2-.6l1.4-.2c.8 0 1.5.1 2 .4.6.3 1 .6 1.3 1.1.3.5.4 1 .4 1.5h-1.6c0-.3-.1-.5-.3-.8a1.8 1.8 0 0 0-.7-.6 2.2 2.2 0 0 0-1-.2c-.5 0-.9 0-1.2.2l-.6.5a1.3 1.3 0 0 0 0 1.1c0 .2.1.3.3.4l.6.3 1.1.3a9 9 0 0 1 2 .7c.5.2.9.5 1.1.9.3.4.4.8.4 1.3a2.5 2.5 0 0 1-1 2c-.3.3-.7.5-1.2.7a5 5 0 0 1-1.5.2c-.9 0-1.6-.2-2.2-.5-.5-.3-1-.7-1.3-1.2-.3-.4-.4-1-.4-1.5h1.6c0 .5.2.8.4 1.1a2 2 0 0 0 .9.6 3.5 3.5 0 0 0 2.1 0c.3-.2.6-.3.7-.5.2-.2.3-.5.3-.8Zm7.9-7v1.3h-5.2v-1.3h5.2Zm-3.5-2.3h1.7v9.5l.1.8.4.3h.5a2.7 2.7 0 0 0 .8 0v1.3a4.2 4.2 0 0 1-1.2.2c-.4 0-.8-.1-1.1-.3-.4-.1-.7-.4-.9-.8-.2-.3-.3-.9-.3-1.5V443Zm11 10.2v-4.9a2 2 0 0 0-.1-1 1.5 1.5 0 0 0-.7-.6c-.3-.2-.7-.3-1.1-.3l-1.1.2a2 2 0 0 0-.8.6l-.2.8h-1.7c0-.4.1-.7.3-1 .2-.4.4-.7.8-1 .3-.3.7-.5 1.2-.7l1.5-.2c.7 0 1.4.1 1.9.4.5.2 1 .6 1.3 1 .3.5.4 1.1.4 1.8v4.5a6.4 6.4 0 0 0 .4 2v.1h-1.8a3 3 0 0 1-.2-.8 6 6 0 0 1 0-.8Zm.4-4.1v1.1h-1.7a6 6 0 0 0-1.2.1l-1 .4a1.5 1.5 0 0 0-.7 1.3c0 .3 0 .6.2.8.1.3.3.5.6.6.3.2.6.2 1 .2a2.8 2.8 0 0 0 2.3-1l.3-1 .7.8-.3.9a4 4 0 0 1-1.8 1.5 3.8 3.8 0 0 1-3.1-.1 2.7 2.7 0 0 1-1.6-2.5c0-.5.1-1 .3-1.3.2-.4.5-.8.9-1a4 4 0 0 1 1.4-.6 7 7 0 0 1 1.8-.2h1.9Zm5.6-1.8v7.6h-1.7v-9.6h1.6v2Zm-.4 2.4h-.7a5.3 5.3 0 0 1 1-3.3 3.5 3.5 0 0 1 2.9-1.3c.5 0 .9 0 1.3.2.4.1.7.3 1 .6l.6 1 .2 1.7v6.3H122v-6.3c0-.5 0-1-.2-1.2-.1-.3-.4-.6-.7-.7a2.3 2.3 0 0 0-1-.2 2.4 2.4 0 0 0-2 1 3.5 3.5 0 0 0-.7 2.2Zm12.8-4.4v1.3h-5.2v-1.3h5.2Zm-3.4-2.3h1.6v9.5l.1.8.5.3h.5a2.7 2.7 0 0 0 .7 0v1.3a4.2 4.2 0 0 1-1.2.2c-.4 0-.8-.1-1.1-.3-.4-.1-.6-.4-.8-.8-.2-.3-.3-.9-.3-1.5V443Zm15.4 9.3-.1-.6-.6-.6a5.1 5.1 0 0 0-1.5-.4l-1.4-.4a4.4 4.4 0 0 1-1.1-.6 2.1 2.1 0 0 1-1-1.8c0-.4.1-.7.3-1l.7-1a3.5 3.5 0 0 1 1.2-.6l1.4-.2c.8 0 1.5.1 2 .4.5.3 1 .6 1.3 1.1.2.5.4 1 .4 1.5h-1.7c0-.3 0-.5-.2-.8a1.8 1.8 0 0 0-.7-.6 2.2 2.2 0 0 0-1-.2c-.5 0-.9 0-1.2.2-.3.1-.5.3-.6.5a1.3 1.3 0 0 0-.1 1.1c0 .2.2.3.3.4l.7.3 1.1.3c.8.2 1.5.4 2 .7.5.2.9.5 1.1.9.3.4.4.8.4 1.3a2.5 2.5 0 0 1-1 2l-1.2.7-1.5.2c-.9 0-1.6-.2-2.2-.5-.6-.3-1-.7-1.3-1.2a2.8 2.8 0 0 1-.5-1.5h1.7c0 .5.1.8.4 1.1a2 2 0 0 0 .9.6 3.5 3.5 0 0 0 2.1 0l.7-.5c.2-.2.2-.5.2-.8Zm7.8 2.8a4.1 4.1 0 0 1-4-2.8c-.3-.6-.4-1.2-.4-1.9v-.3c0-.8.1-1.5.4-2.1a5 5 0 0 1 .9-1.6 4 4 0 0 1 3-1.3c.6 0 1.2.1 1.7.4.5.2 1 .5 1.2 1 .4.4.6.9.7 1.5.2.5.3 1.1.3 1.8v.8h-7.2v-1.4h5.5v-.1a4.1 4.1 0 0 0-.2-1.3l-.7-1c-.4-.2-.8-.3-1.4-.3a2.2 2.2 0 0 0-1.8.9c-.3.3-.4.7-.5 1.1-.2.5-.2 1-.2 1.6v.3c0 .5 0 1 .2 1.3l.5 1c.3.4.6.6 1 .8.3.2.7.2 1.1.2.6 0 1 0 1.5-.3l1-1 1 .8a4.4 4.4 0 0 1-2 1.6 4.6 4.6 0 0 1-1.6.3Zm9.7-9.8v1.3h-5.2v-1.3h5.2Zm-3.4-2.3h1.6v9.5c0 .3 0 .6.2.8l.4.3h.5a2.7 2.7 0 0 0 .8 0v1.3a4.2 4.2 0 0 1-1.3.2c-.4 0-.8-.1-1.1-.3-.4-.1-.6-.4-.8-.8-.2-.3-.3-.9-.3-1.5V443Zm9.4 2.3v1.3h-5.2v-1.3h5.2Zm-3.5-2.3h1.7v9.5l.1.8.4.3h.5a2.7 2.7 0 0 0 .8 0v1.3a4.1 4.1 0 0 1-1.2.2l-1.2-.3c-.3-.1-.6-.4-.8-.8-.2-.3-.3-.9-.3-1.5V443Zm7.2 2.3v9.6h-1.7v-9.6h1.7Zm-1.8-2.6a1 1 0 0 1 .3-.6c.1-.2.4-.3.7-.3.3 0 .5 0 .7.3.2.1.3.4.3.6 0 .3-.1.5-.3.7-.2.2-.4.3-.7.3a1 1 0 0 1-.7-.3 1 1 0 0 1-.3-.7Zm6 4.6v7.6h-1.6v-9.6h1.6v2Zm-.3 2.4h-.7c0-.7 0-1.3.3-1.8.2-.6.4-1 .8-1.5a3.6 3.6 0 0 1 2.8-1.3c.5 0 1 0 1.3.2.4.1.7.3 1 .6l.6 1 .2 1.7v6.3H178v-6.3c0-.5 0-1-.2-1.2-.1-.3-.3-.6-.6-.7a2.3 2.3 0 0 0-1-.2 2.4 2.4 0 0 0-2 1 3.6 3.6 0 0 0-.8 2.2Zm15-4.4h1.5v9.4a4.3 4.3 0 0 1-.5 2.2c-.3.6-.8 1-1.4 1.3a4.6 4.6 0 0 1-3.3.3 4.7 4.7 0 0 1-1.3-.5 3.3 3.3 0 0 1-1.1-1l.8-1a3.4 3.4 0 0 0 2.6 1.4c.5 0 1-.1 1.4-.3.3-.2.6-.5.9-1 .2-.3.3-.8.3-1.3v-7.4l.1-2.1Zm-6.6 4.9v-.2c0-.7 0-1.4.3-2 .1-.6.4-1.1.7-1.5a3.4 3.4 0 0 1 2.8-1.4c.6 0 1.1.1 1.6.3.4.2.8.5 1.1 1 .4.3.6.8.8 1.4a9 9 0 0 1 .4 1.9v.8a8 8 0 0 1-.4 2 4.5 4.5 0 0 1-.8 1.3c-.3.5-.7.8-1.1 1a3.8 3.8 0 0 1-3.2 0 3.5 3.5 0 0 1-1.2-1.1 4.8 4.8 0 0 1-.7-1.6 7 7 0 0 1-.3-1.9Zm1.6-.2v.2c0 .5 0 1 .2 1.4 0 .4.2.7.4 1 .2.4.5.6.8.8.4.2.7.3 1.2.3s1-.1 1.3-.4c.4-.2.7-.5.9-.9l.5-1.2V449a4.3 4.3 0 0 0-.3-.9c-.2-.3-.3-.6-.6-.8l-.7-.6-1.1-.2a2.2 2.2 0 0 0-2 1l-.4 1.2-.2 1.3Zm14.6 2.3-.1-.6-.7-.6a5.1 5.1 0 0 0-1.4-.4 11.2 11.2 0 0 1-1.5-.4c-.4-.2-.7-.3-1-.6a2.2 2.2 0 0 1-1-1.8 2.5 2.5 0 0 1 1-2l1.1-.6 1.5-.2c.8 0 1.4.1 2 .4.5.3 1 .6 1.2 1.1.3.5.5 1 .5 1.5h-1.7c0-.3 0-.5-.2-.8a1.8 1.8 0 0 0-.7-.6c-.3-.2-.7-.2-1.1-.2-.5 0-.8 0-1.1.2-.3.1-.5.3-.6.5a1.3 1.3 0 0 0-.1 1.1c0 .2.2.3.3.4l.7.3 1 .3a9 9 0 0 1 2 .7c.5.2 1 .5 1.2.9.2.4.4.8.4 1.3a2.6 2.6 0 0 1-1 2l-1.2.7-1.6.2c-.8 0-1.5-.2-2.1-.5-.6-.3-1-.7-1.3-1.2a2.8 2.8 0 0 1-.5-1.5h1.7c0 .5.1.8.4 1.1a2 2 0 0 0 .8.6 3.5 3.5 0 0 0 2.2 0l.7-.5.2-.8Zm-168 5-.1.5a.6.6 0 0 0 .3-1l-.1.5Zm9.2-4.2.2.6-.2-.6Zm1.8-.6.2.6c.2-.1.3-.3.3-.6H41Zm0-2h.5a.6.6 0 0 0-.3-.6l-.2.5Zm-2-4.7.6.2a.6.6 0 0 0-.2-.6l-.4.4Zm-1.4-1.5.4-.4a.6.6 0 0 0-.7-.1l.3.5Zm-4.7-2 .5-.1a.6.6 0 0 0-.5-.4v.6Zm-2 0v-.5a.6.6 0 0 0-.6.4l.5.2Zm-.7 1.8-.5-.2.5.2Zm-.5.5-.2-.5.2.5Zm-3.5-.3.2-.5a.6.6 0 0 0-.6.1l.4.4Zm-1.5 1.5-.4-.4a.6.6 0 0 0-.1.6l.5-.2Zm-2 4.6-.2-.5a.6.6 0 0 0-.3.5h.6Zm0 2.1h-.5c0 .3.1.5.3.6l.3-.6Zm1.8.6-.2.6.1-.6Zm.5.5-.6.2.6-.2Zm.5 1.2-.5.3.5-.3Zm0 .8-.5-.3.5.3Zm-.8 1.6-.5-.2a.6.6 0 0 0 0 .6l.5-.4Zm1.5 1.5-.4.4c.1.1.4.2.6 0l-.2-.4Zm2-1v-.5.6Zm2.6 2.9-.5.2c0 .2.3.4.5.4v-.6Zm2 0v.6c.3 0 .5-.2.6-.4l-.5-.2Zm1.2-2.2.2.5-.2-.5Zm3.6.3-.3.5.7-.1-.4-.4Zm1.4-1.5.4.4a.6.6 0 0 0 .2-.6l-.6.2Zm-1.3-.3.4.4a.6.6 0 0 0 0-.6l-.4.2Zm-.4.4-.1.6c.2 0 .4 0 .5-.2l-.4-.4Zm0-1.2-.6.3.5-.3Zm0 0 .4-.3-.5.3Zm0-1.8.4.3-.5-.3Zm1.6-2.3.6.2a.6.6 0 0 0-.7-.7l.1.5Zm-4.2 4.9-.3-.5a.6.6 0 0 0 .2 1v-.5Zm-2.3 1.7-.5-.2a.6.6 0 0 0 .8.6l-.3-.5Zm2.3-1.7.3.4a.6.6 0 0 0-.6-1l.3.6Zm-2.3 1.7.5.1a.6.6 0 0 0-1-.3l.5.2Zm-.3.9v.5c.3 0 .5-.1.6-.4l-.6-.1Zm-.5 0-.5.1c0 .3.3.4.5.4v-.6Zm-.3-1 .4-.3a.6.6 0 0 0-1 .5l.6-.1Zm0 0-.4.5a.6.6 0 0 0 1-.6l-.6.2Zm-1.2-1.2.1-.6a.6.6 0 0 0-.6 1l.4-.4Zm-2.8-.4.5-.3a.6.6 0 0 0-.8-.2l.2.5Zm-.9.4-.4.4c.2.2.4.2.6.1l-.2-.5Zm1.4.6-.5.2a.6.6 0 0 0 1-.5l-.5.3Zm-.6-1-.2-.5a.6.6 0 0 0-.3.7l.5-.2Zm-1.2 0-.5-.2.1.6.4-.4Zm.5-.8-.5-.3.5.3Zm0-1.8-.5.3.5-.3Zm-.4-1-.6.2.6-.2Zm-1.3-1.3-.2.6.2-.6Zm-1-.2h-.5c0 .2.2.4.4.5l.2-.5Zm0-.6-.1-.5a.6.6 0 0 0-.4.5h.6Zm1-.3.2.6-.2-.6Zm0 0-.2-.5.2.5Zm1.3-1.2h.5a.6.6 0 0 0-1-.2l.5.2Zm0 0-.6-.2a.6.6 0 0 0 1 .4l-.4-.2Zm.4-1 .5.2a.6.6 0 0 0-1-.5l.5.3ZM26 446l-.4-.4a.6.6 0 0 0 0 .7l.4-.3Zm.4-.3.1-.6a.6.6 0 0 0-.5.2l.4.4Zm0 3H26a.6.6 0 0 0 1 .2l-.4-.2Zm2.6-2.6.3.5a.6.6 0 0 0-.2-1v.5Zm0 0-.2-.5a.6.6 0 0 0 .5 1l-.3-.5Zm2.3-1.7-.5-.1.5.1Zm.3-.9v-.5a.6.6 0 0 0-.5.3l.5.2Zm.5 0 .6-.2a.6.6 0 0 0-.6-.3v.5Zm.3 1 .3.4c.2-.1.3-.4.2-.6l-.5.1Zm1.3 1.2.1-.5a.6.6 0 0 0-.4 1l.3-.5Zm1 .4-.2.5a.6.6 0 0 0 .4-1l-.2.5Zm2.6-.4.4-.4a.6.6 0 0 0-.6-.1l.2.5Zm.4.3.5.1a.6.6 0 0 0-.1-.5l-.4.4Zm-3 .1v-.5a.6.6 0 0 0-.3 1l.3-.5Zm2.5.8.5.3-.5-.3Zm0 1.8-.5.2a.6.6 0 0 0 1-.1l-.5-.1Zm0 0 .5-.3a.6.6 0 0 0-1 .5l.5-.2ZM39 451l-.1.6.1-.6Zm1 .3h.5a.6.6 0 0 0-.4-.5l-.2.5Zm0 .6.1.5c.2-.1.4-.3.4-.5h-.6Zm-1 .2-.5.3c.1.2.4.4.7.3l-.2-.6Zm-6.5-7.6.4-.4a.6.6 0 0 0-1 .6l.6-.2Zm1.3 1.3-.2.5a.6.6 0 0 0 .6-1l-.4.5Zm-1.8 4.7v-.6.6Zm1 1h.7-.6Zm1.2 0h.6-.6Zm-6 4.7v1.1-1.1Zm1.2.3a2.5 2.5 0 0 0-1.1-.3v1.1c.2 0 .4 0 .6.2l.5-1Zm1 .3a5.4 5.4 0 0 1-1-.3l-.5 1 1 .4.4-1Zm0 0-2-.6-.3 1 1.9.7.3-1Zm8.4-1.4a.2.2 0 0 1 0-.2l-1-.5c-.2.4-.2.8 0 1.2l1-.5Zm0-.2c.3-.4.4-.8.6-1.3l-1.1-.3a6.7 6.7 0 0 1-.5 1l1 .6Zm.6-1.3.1-.1-.3-1.1c-.4.1-.8.4-1 .9l1.2.3Zm.1-.1 1.8-.6-.5-1.1-1.6.6.3 1Zm2.1-1.2v-2h-1.1v2h1.1Zm-.3-2.6-1.8-.6-.3 1 1.6.7.5-1Zm-1.8-.6a.2.2 0 0 1-.1-.1l-1.1.3c.1.4.4.8.9.9l.3-1.1Zm-.1-.1a7.8 7.8 0 0 0-.6-1.3l-1 .5.5 1.1 1-.3Zm-.6-1.3a.2.2 0 0 1 0-.2l-1-.5c-.2.3-.2.8 0 1.2l1-.5Zm0-.2.8-1.7-1-.4-.8 1.6 1 .5Zm.7-2.3L38 444l-.8.8 1.5 1.5.8-.8Zm-2-1.6-1.8.8.6 1 1.6-.8-.5-1Zm-1.8.8a.2.2 0 0 1-.1 0l-.6 1c.4.2.9.2 1.3 0l-.6-1Zm-.1 0a7.8 7.8 0 0 0-1.3-.5l-.4 1 1.1.5.6-1Zm-1.3-.5a.2.2 0 0 1-.2-.2l-1 .4c0 .4.4.7.8.8l.4-1Zm-.2-.2-.6-1.7-1 .4.5 1.7 1.1-.4Zm-1.1-2h-2v1h2v-1Zm-2.6.3-.6 1.7 1 .3.6-1.6-1-.4Zm-.6 1.7a.2.2 0 0 1-.2.2l.4 1c.4 0 .7-.4.9-.9l-1.1-.3Zm-.2.2-1.3.5.6 1 1-.5-.3-1Zm-1.3.5a.2.2 0 0 1-.2 0l-.5 1c.4.2.9.2 1.3 0l-.6-1Zm-.2 0a17 17 0 0 0-1.6-.8l-.5 1 1.6.8.5-1Zm-2.3-.7-1.4 1.5.8.8 1.5-1.5-.8-.8Zm-1.6 2.1.9 1.7 1-.5a17.8 17.8 0 0 1-.8-1.6l-1 .4Zm.9 1.7v.2l1 .5c.2-.4.2-.9 0-1.3l-1 .6Zm0 .2c-.3.4-.4.8-.6 1.3l1.1.3.5-1.1-1-.5Zm-.6 1.3a.2.2 0 0 1-.1.1l.3 1.1c.4-.1.8-.5 1-.9l-1.2-.3Zm-.1.1-1.8.6.5 1 1.6-.5-.3-1.1Zm-2.1 1.1v2.1h1.1v-2h-1.1Zm.3 2.7 1.8.6.3-1.1a25 25 0 0 1-1.6-.6l-.5 1Zm1.8.6a.2.2 0 0 1 .1.1l1.1-.3c-.1-.5-.5-.8-1-1l-.2 1.2Zm.1.1c.2.5.3.9.6 1.3l1-.5a6.6 6.6 0 0 1-.5-1.1l-1 .3Zm.6 1.3v.2l1 .6c.2-.4.2-1 0-1.4l-1 .6Zm0 .2-.8 1.7 1 .4.8-1.6-1-.5Zm-.7 2.3 1.4 1.5.8-.8-1.4-1.5-.8.8Zm2 1.6 1.8-.8-.6-1-1.6.7.5 1Zm1.8-.8v-1.2c-.2 0-.4 0-.6.2l.6 1Zm0 0a.2.2 0 0 1 .1 0l.6-1-.7-.2v1.1Zm.1 0 1.3.5.4-1a6.7 6.7 0 0 1-1.1-.5l-.6 1Zm1.3.5.2.1 1-.3a1.3 1.3 0 0 0-.8-.9l-.4 1.1Zm.2.1.6 1.8 1-.4-.5-1.7-1.1.3Zm1.1 2.2h2V460h-2v1.2Zm2.6-.4.6-1.8-1-.3a16 16 0 0 1-.6 1.7l1 .4Zm.6-1.8h.2l-.4-1.2c-.4.2-.7.5-.9 1l1.1.2Zm.2 0 1.3-.6-.6-1-1 .4.3 1.1Zm1.3-.6a.2.2 0 0 1 .1 0l.6-1a1.3 1.3 0 0 0-1.3 0l.6 1Zm.1 0 1.7.8.5-1-1.6-.8-.6 1Zm2.3.7 1.5-1.5-.8-.8-1.5 1.5.8.8Zm1.6-2.1-.8-1.7-1 .5.8 1.6 1-.4Zm-2.2-.5-.4.4.8.8.4-.4-.8-.8Zm-.6-.1.4.8 1-.5-.4-.9-1 .6Zm0-2.4c-.4.8-.4 1.6 0 2.4l1-.6a1.3 1.3 0 0 1 0-1.2l-1-.6Zm.4-.9-.4 1 1 .5.5-1.1-1.1-.4Zm1.6-1.6c-.7.2-1.4.8-1.6 1.6l1 .4c.2-.5.5-.8 1-1l-.4-1Zm-.3.4-1.7 5.2 1.1.4 1.6-5.3-1-.3Zm-.9 4.9-.8-.4-.5 1 .8.4.5-1Zm-.8-.4c-.7-.4-1.6-.4-2.3 0l.5 1c.4-.2.9-.2 1.3 0l.5-1Zm-2.1 1 2.6.5.2-1.2-2.6-.4-.2 1.1Zm-1.1-.7c-.8.3-1.4.9-1.7 1.7l1.1.3c.2-.4.5-.7 1-.9l-.4-1Zm1-.3-1 .3.3 1.1c.4 0 .8-.3 1.1-.4l-.5-1Zm-.2 0-2.2 1.7.6.9 2.3-1.7-.7-.9Zm-2.5 2-.2.9 1 .3.3-.9-1-.3Zm0 0-.2.9 1 .3.3-.9-1-.3Zm.3.5h-.5v1.1h.5V459Zm0 .4-.3-1-1 .4.2 1 1.1-.4ZM31 459l.8 1 .8-.8-.8-1-.8.8Zm1-.5a2.5 2.5 0 0 0-1.7-1.7L30 458c.4.2.7.5.9 1l1-.4Zm-.2-.2-1.3-1.3-.8.8L31 459l.8-.9Zm-4.7-1.8-.8.4.4 1 1-.4-.6-1Zm1.3 1.2-.6-1-1 .5.6 1 1-.5Zm-1.6-.4.6 1 1-.6-.6-1-1 .6Zm1.4-1.1c-.4 0-.8 0-1.1.3l.5 1 .6-.2v-1.1Zm-.2 0-1.7.7.4 1 1.7-.6-.4-1Zm-1 .8-.5-.4-.8.8.4.4.8-.8Zm-.4.3.4-.8-1-.5-.4.8 1 .5Zm.4-.8c.5-.7.5-1.6 0-2.4l-1 .6c.3.4.3.9 0 1.2l1 .6Zm0-2.4a5.4 5.4 0 0 1-.3-.8l-1 .3c0 .4.2.7.4 1l1-.5Zm-.3-.8a2.5 2.5 0 0 0-1.7-1.7l-.3 1c.4.2.8.5 1 1l1-.3Zm-1.7-1.7-.8-.3-.4 1 .9.4.3-1.1Zm-.4.3v-.6h-1.2v.6h1.2Zm-.4 0 .8-.3-.3-1.1-.9.3.4 1Zm.8-.3c.8-.2 1.4-.9 1.7-1.6l-1-.4c-.2.4-.6.8-1 .9l.3 1Zm.6-1.8.3 7.6H27l-.4-7.6h-1.1Zm1 .2.5-1-1-.5-.5 1.1 1.1.4Zm0 0 .5-1-1-.4-.5 1 1 .4Zm0-3.5.3-.3-.8-.8-.4.3.8.8Zm.5.2-.5-.8-1 .5.5.9 1-.6Zm0 0-1 .6 1-.6Zm0 2.3c.4-.7.4-1.6 0-2.3l-1 .6c.2.3.2.8 0 1.2l1 .5Zm0-.2v-3h-1.2l.1 3H27Zm-.9-2.5.9.4.5-1-.9-.4-.5 1Zm.9.4c.7.4 1.6.4 2.3 0l-.5-1c-.4.2-.9.2-1.3 0l-.5 1Zm2.1-1-2.6-.5-.2 1.1 2.6.5.2-1.1Zm.2 1 1-.4-.4-1c-.4 0-.8.2-1.1.4l.5 1Zm0 0 1-.4-.5-1-1 .4.4 1Zm1-.4c.7-.2 1.3-.8 1.5-1.6l-1-.3c-.2.4-.5.7-1 .9l.4 1Zm1.5-1.6.3-.9-1-.4-.3 1 1 .3Zm-.2-.5h.5V443h-.5v1Zm0-.4.2.9 1.1-.3-.3-1-1 .4Zm.5.2-2.3 1.3.5 1 2.4-1.3-.6-1Zm1.4 2.3 1 .4.4-1a6.6 6.6 0 0 0-1-.4l-.4 1Zm0 0 1 .4.4-1-1-.4-.5 1Zm3.4-.1.4.3.8-.8-.4-.3-.8.8Zm-.2.5.8-.4-.5-1-.8.4.5 1Zm0 0-.5-1 .5 1Zm-2.3 0c.7.4 1.6.4 2.3 0l-.5-1c-.4.2-.9.2-1.3 0l-.5 1Zm.3 0h3v-1.1h-3v1.2Zm2.4-.8-.4.8 1 .6.5-1-1-.4Zm-.4.8c-.4.7-.4 1.6 0 2.3l1-.5c-.2-.4-.2-.9 0-1.2l-1-.6Zm1 2.2.5-2.7-1.1-.1-.4 2.6 1 .2Zm-1 .1.4 1 1-.4a6.7 6.7 0 0 0-.4-1.1l-1 .5Zm0 0 .4 1 1-.4-.4-1-1 .4Zm.4 1c.2.7.9 1.4 1.6 1.6l.4-1.1a1.3 1.3 0 0 1-1-.9l-1 .4Zm1.6 1.6c.4 0 .7.2 1 .3l.3-1.1-1-.3-.3 1Zm.5-.3v.6h1.2v-.6h-1.2Zm.4 0a19 19 0 0 1-.9.3l.4 1 .9-.2-.4-1Zm-.2.6-1.3-2.4-1 .6 1.3 2.3 1-.5Zm-7.6-7.2c.3.8.9 1.4 1.7 1.6l.3-1a1.3 1.3 0 0 1-.9-1l-1 .4Zm.2.2 1.2 1.3.8-.8-1.2-1.3-.8.8Zm-.7 6.7c0-.3.2-.6.5-.6V450c-.9 0-1.7.8-1.7 1.7h1.2Zm.5.6a.6.6 0 0 1-.5-.6H30c0 1 .8 1.7 1.7 1.7v-1.1Zm.6-.6c0 .3-.2.6-.6.6v1c1 0 1.7-.7 1.7-1.6h-1Zm-.6-.6c.4 0 .6.3.6.6h1.2c0-1-.8-1.7-1.8-1.7v1.1Zm0-2.3a2.8 2.8 0 0 0-2.8 2.9h1.1c0-1 .8-1.7 1.7-1.7v-1.2Zm-2.8 2.9a2.8 2.8 0 0 0 2.8 2.8v-1.1a1.7 1.7 0 0 1-1.7-1.7H29Zm2.8 2.8a2.8 2.8 0 0 0 2.9-2.8h-1.1c0 1-.8 1.7-1.8 1.7v1.1Zm2.9-2.8a2.9 2.9 0 0 0-2.9-2.9v1.2c1 0 1.7.8 1.7 1.7h1.2Zm24.8-47.2 2.6-9h1.2l-.7 3.5-2.8 9.5h-1.2l.9-4Zm-2.6-9 2 8.9.6 4h-1.2L55 395.5h1.7Zm9.8 8.9 2-8.9h1.7l-3.2 13H66l.6-4.1Zm-3.2-8.9 2.5 9 .9 4h-1.2l-2.7-9.5-.7-3.5h1.2Zm12.2 13.1a4.1 4.1 0 0 1-4-2.7c-.3-.6-.4-1.2-.4-2v-.3c0-.8.1-1.5.3-2 .3-.7.6-1.2 1-1.6a4 4 0 0 1 2.9-1.3 4 4 0 0 1 1.8.3c.5.3.9.6 1.2 1 .3.4.6 1 .7 1.5.2.6.3 1.2.3 1.9v.7h-7.2v-1.3h5.5v-.1a4.1 4.1 0 0 0-.2-1.3c-.2-.4-.4-.7-.8-1a2 2 0 0 0-1.3-.4 2.2 2.2 0 0 0-1.8 1c-.3.3-.4.6-.6 1l-.1 1.6v.4l.1 1.3.6 1c.3.3.6.6.9.7l1.2.3c.6 0 1-.1 1.5-.4.4-.2.7-.5 1-1l1 .9-.8.9-1.1.7a4.6 4.6 0 0 1-1.7.2Zm5.7-13.8H83v11.8l-.1 1.9h-1.5v-13.7Zm8.1 8.8v.2c0 .7 0 1.3-.2 2-.2.5-.4 1-.8 1.5a3.4 3.4 0 0 1-1.1 1c-.5.2-1 .3-1.6.3a3.9 3.9 0 0 1-1.6-.3 3.2 3.2 0 0 1-1.2-.9c-.3-.4-.6-.9-.7-1.4a9 9 0 0 1-.4-2v-.7c0-.7.2-1.4.4-2 .1-.5.4-1 .7-1.4a3 3 0 0 1 1.2-1l1.6-.2a3.4 3.4 0 0 1 2.7 1.3c.4.5.6 1 .8 1.6l.2 2Zm-1.6.2v-.2c0-.5 0-1-.2-1.4a3.5 3.5 0 0 0-.4-1.1 2.1 2.1 0 0 0-2-1 2.3 2.3 0 0 0-1.8.7l-.5.9a5 5 0 0 0-.3 1v2c0 .5.2.9.4 1.2a2.4 2.4 0 0 0 2.3 1.3c.4 0 .8 0 1.1-.2l.8-.8.4-1 .2-1.4Zm13.8 2.1-.1-.7c-.1-.2-.4-.3-.7-.5a5.1 5.1 0 0 0-1.4-.5c-.5 0-1-.2-1.4-.4-.5-.1-.8-.3-1.1-.5a2.2 2.2 0 0 1-1-1.8c0-.4.1-.8.3-1.1a3 3 0 0 1 1.8-1.5c.5-.2 1-.2 1.5-.2.8 0 1.4.1 2 .4.5.2 1 .6 1.2 1 .3.5.5 1 .5 1.6h-1.7c0-.3 0-.6-.2-.8a1.8 1.8 0 0 0-.7-.6 2.2 2.2 0 0 0-1.1-.3c-.5 0-.8 0-1.1.2-.3.2-.5.3-.6.6a1.3 1.3 0 0 0-.1 1.1l.3.4.7.3 1.1.3 2 .7c.5.3.8.5 1 .9.3.3.5.8.5 1.3a2.5 2.5 0 0 1-1 2 3.7 3.7 0 0 1-1.2.6c-.5.2-1 .2-1.6.2-.8 0-1.5-.1-2.1-.4-.6-.3-1-.7-1.3-1.2a2.8 2.8 0 0 1-.5-1.5h1.7c0 .4.1.8.4 1a2 2 0 0 0 .8.6 3.4 3.4 0 0 0 2.2 0l.7-.5.2-.7Zm7.8 2.7c-.7 0-1.3 0-1.8-.3a4.1 4.1 0 0 1-2.3-2.4c-.2-.6-.3-1.2-.3-2v-.3c0-.8.1-1.5.3-2 .3-.7.6-1.2 1-1.6a4 4 0 0 1 2.9-1.3 4 4 0 0 1 1.8.3c.5.3.9.6 1.2 1 .3.4.6 1 .7 1.5.2.6.2 1.2.2 1.9v.7h-7.1v-1.3h5.5v-.1a4.1 4.1 0 0 0-.3-1.3c-.1-.4-.3-.7-.7-1-.3-.2-.7-.4-1.3-.4a2.2 2.2 0 0 0-1.8 1c-.3.3-.4.6-.6 1a6 6 0 0 0-.2 1.6v.4l.2 1.3c.2.4.3.7.6 1 .2.3.5.6.9.7.3.2.7.3 1.2.3.6 0 1-.1 1.5-.4.4-.2.7-.5 1-1l1 .9-.8.9c-.3.3-.7.5-1.2.7-.4.2-1 .2-1.6.2Zm9.5-1.3a2.4 2.4 0 0 0 2-1l.3-.9h1.5a3 3 0 0 1-.5 1.6 4 4 0 0 1-3.3 1.6c-.7 0-1.3 0-1.9-.3-.5-.3-1-.6-1.3-1a4.7 4.7 0 0 1-.8-1.6 6.5 6.5 0 0 1-.3-1.9v-.3c0-.7.1-1.3.3-1.9.2-.5.4-1 .8-1.5.3-.4.8-.8 1.3-1a4.4 4.4 0 0 1 2-.4 4 4 0 0 1 1.9.4 3.6 3.6 0 0 1 1.8 3h-1.5c0-.4-.2-.7-.4-1a2.2 2.2 0 0 0-1.9-1c-.5 0-1 0-1.3.2l-.8.8-.4 1.1-.1 1.3v.3l.1 1.3c0 .4.2.8.4 1 .2.4.5.7.8.9.4.2.8.3 1.3.3Zm11.6-1v-7.5h1.6v9.7h-1.5l-.1-2.3Zm.3-2 .7-.1-.2 1.8-.7 1.4a3 3 0 0 1-1.1 1l-1.8.2a4 4 0 0 1-1.3-.2 2.6 2.6 0 0 1-1.6-1.7c-.2-.5-.3-1-.3-1.7v-6.1h1.7v6.2l.1 1 .4.7.6.4a3 3 0 0 0 2.3-.4c.4-.2.7-.6 1-1l.2-1.6Zm5.5-4v8.2h-1.7v-9.6h1.6v1.4Zm3-1.5v1.5a4.1 4.1 0 0 0-.8 0l-1 .1a2.2 2.2 0 0 0-1.2 1.3c-.2.3-.2.6-.3 1l-.4.2.1-1.6c.1-.5.3-1 .6-1.4.2-.4.5-.7.9-.9a2.6 2.6 0 0 1 2-.2Zm3.3 0v9.7H141v-9.6h1.7Zm-1.8-2.5c0-.3 0-.5.2-.7.2-.2.5-.3.8-.3.3 0 .5.1.7.3.2.2.3.4.3.7 0 .3-.1.5-.3.7l-.7.2c-.3 0-.6 0-.8-.3a1 1 0 0 1-.2-.6Zm8.4 2.5v1.3h-5.2v-1.3h5.3Zm-3.4-2.3h1.7v9.6l.1.7.4.4h.5a2.7 2.7 0 0 0 .8 0v1.3a4.4 4.4 0 0 1-1.3.1c-.4 0-.8 0-1-.2-.4-.2-.7-.4-.9-.8-.2-.4-.3-.9-.3-1.5v-9.6Zm8 11 2.8-8.6h1.7l-3.8 11a6 6 0 0 1-1 1.6 2.6 2.6 0 0 1-2.4.8l-.4-.1v-1.3a5 5 0 0 0 .4 0l1-.1.6-.5.5-1 .7-1.8Zm-1.9-8.6 2.5 7.4.4 1.7-1.1.7-3.6-9.9h1.8Zm14 1.4v8.2h-1.6v-9.6h1.6v1.4Zm3-1.5v1.5a4 4 0 0 0-.7 0l-1 .1a2.2 2.2 0 0 0-1.2 1.3c-.2.3-.3.6-.3 1l-.5.2.2-1.6c.1-.5.3-1 .6-1.4.2-.4.5-.7.9-.9a2.6 2.6 0 0 1 2-.2Zm5.4 9.8a4.1 4.1 0 0 1-4.1-2.7c-.2-.6-.3-1.2-.3-2v-.3c0-.8 0-1.5.3-2a4.7 4.7 0 0 1 1-1.6 4 4 0 0 1 2.9-1.3 4 4 0 0 1 1.8.3c.5.3.9.6 1.2 1 .3.4.5 1 .7 1.5.2.6.2 1.2.2 1.9v.7H171v-1.3h5.6v-.1a4.1 4.1 0 0 0-.3-1.3c-.1-.4-.4-.7-.7-1-.3-.2-.8-.4-1.3-.4a2.2 2.2 0 0 0-1.9 1l-.5 1-.2 1.6v.4c0 .5 0 .9.2 1.3.1.4.3.7.6 1a2.6 2.6 0 0 0 2 1c.7 0 1.1-.1 1.6-.4.4-.2.7-.5 1-1l1 .9-.8.9c-.3.3-.7.5-1.2.7a4.6 4.6 0 0 1-1.6.2Zm7.3-7.9v11.5H180v-13.4h1.6l.1 1.9Zm6.5 2.9v.2c0 .7-.1 1.3-.3 2-.1.5-.4 1-.7 1.5-.3.4-.7.7-1.2 1a4 4 0 0 1-3.2 0l-1.2-.8a4.5 4.5 0 0 1-.7-1.4 8.2 8.2 0 0 1-.4-1.8v-1c0-.7.2-1.4.4-2l.7-1.4 1.2-1 1.6-.2a3.4 3.4 0 0 1 2.8 1.3c.3.5.6 1 .7 1.6.2.6.3 1.2.3 2Zm-1.7.2v-.2l-.1-1.4-.5-1.1a2.3 2.3 0 0 0-2-1 2.3 2.3 0 0 0-1.8.7 3.1 3.1 0 0 0-.5.9 5 5 0 0 0-.3 1v2.2c0 .4.2.8.5 1.2l.8.9c.4.2.8.3 1.3.3s.9-.1 1.2-.3c.3-.2.6-.4.8-.8l.5-1 .1-1.4Zm3.3 0v-.2c0-.7.1-1.4.3-2 .2-.6.5-1 1-1.5a4 4 0 0 1 1.3-1 4.3 4.3 0 0 1 1.8-.4c.7 0 1.3 0 1.8.3.6.3 1 .6 1.4 1 .4.5.7 1 .9 1.6.2.6.3 1.3.3 2v.2a6 6 0 0 1-.3 1.9c-.2.6-.5 1.1-.9 1.6a4 4 0 0 1-3.2 1.3 4.1 4.1 0 0 1-4-3 6 6 0 0 1-.4-1.8Zm1.7-.2v.2l.1 1.3.5 1.1c.3.4.6.6 1 .8.3.2.7.3 1.1.3.5 0 .9-.1 1.2-.3.3-.2.6-.4.8-.8.3-.3.4-.7.6-1l.1-1.4v-.2l-.1-1.4c-.2-.4-.3-.8-.6-1.1a2.4 2.4 0 0 0-2-1c-.5 0-.9 0-1.2.2l-.8.8c-.3.3-.4.7-.5 1.1a5.2 5.2 0 0 0-.2 1.4Zm10.8-3.2v8h-1.7v-9.5h1.6l.1 1.5Zm3-1.6v1.5a4.1 4.1 0 0 0-.8 0l-1 .1a2.2 2.2 0 0 0-1.2 1.3 3.7 3.7 0 0 0-.3 1l-.4.2.1-1.6c.2-.5.3-1 .6-1.4.2-.4.5-.7 1-.9a2.6 2.6 0 0 1 2-.2Zm6 0v1.3h-5.2v-1.3h5.2Zm-3.5-2.3h1.7v9.6l.1.7.4.4h.5a2.7 2.7 0 0 0 .8 0v1.3a4.4 4.4 0 0 1-1.2.1c-.4 0-.8 0-1.1-.2-.4-.2-.7-.4-.9-.8-.2-.4-.3-.9-.3-1.5v-9.6Z"/><path fill="#67B279" fill-rule="evenodd" d="M31.9 414h-.2a9.2 9.2 0 0 1-4.6-3.2 14.6 14.6 0 0 1-2.3-4.7 22.5 22.5 0 0 1-1-6c0-.2.3-.4.6-.5 0 0 4.2-.4 7.1-2.5a.5.5 0 0 1 .7 0c2.9 2.1 7 2.5 7.1 2.5.3 0 .5.3.5.6 0 0 0 2.8-1 6a14.6 14.6 0 0 1-2.2 4.6A9.2 9.2 0 0 1 32 414a.6.6 0 0 1-.2 0Zm-7-13.4c.1 1 .3 3 1 5.2 1.1 3.8 3.1 6.2 6 7.1 2.8-1 4.8-3.3 6-7.1.6-2.2.8-4.3.8-5.2a17.7 17.7 0 0 1-6.9-2.4 17.7 17.7 0 0 1-6.8 2.4Z" clip-rule="evenodd"/><path fill="#4D4D4D" d="M59.6 268.4h-2.7v-1.3h2.7c1 0 1.7-.2 2.3-.6a3.6 3.6 0 0 0 1.4-1.7 6 6 0 0 0 .5-2.4v-.8c0-.8-.1-1.4-.3-2a4 4 0 0 0-.8-1.5c-.3-.4-.7-.7-1.2-.9-.5-.2-1.1-.3-1.7-.3h-3v-1.4h3a6 6 0 0 1 2.3.4 5.3 5.3 0 0 1 3 3.2c.2.7.4 1.6.4 2.5v.8a7.4 7.4 0 0 1-.4 2.5 5.3 5.3 0 0 1-3 3.1c-.8.3-1.6.4-2.5.4Zm-1.8-12.9v13h-1.7v-13h1.7Zm9.6 8.2v-.1c0-.8 0-1.4.3-2 .2-.6.5-1.1.8-1.5a4 4 0 0 1 1.4-1 4.3 4.3 0 0 1 1.8-.4c.7 0 1.3 0 1.8.3.6.3 1 .6 1.4 1l1 1.6.2 2v.1a6 6 0 0 1-.3 2c-.2.6-.5 1-.9 1.5a4 4 0 0 1-3.2 1.4 4.1 4.1 0 0 1-4-3 6 6 0 0 1-.3-1.9Zm1.6-.1v.1c0 .5 0 1 .2 1.4 0 .4.3.8.5 1.1.2.4.5.6.8.8l1.2.3a2.4 2.4 0 0 0 2-1l.6-1.2.2-1.4v-.1l-.2-1.4-.5-1.1a2.4 2.4 0 0 0-2-1.1 2.4 2.4 0 0 0-2.1 1l-.5 1.2-.2 1.4Zm15.3-2.7v7.6h-1.6v-9.7h1.5l.1 2Zm-.4 2.4h-.6a5.3 5.3 0 0 1 1-3.3 3.6 3.6 0 0 1 2.9-1.3c.4 0 .9 0 1.2.2.4 0 .7.3 1 .6.3.2.5.6.6 1 .2.5.2 1 .2 1.6v6.3h-1.6v-6.3c0-.5 0-.9-.2-1.2-.2-.3-.4-.5-.7-.6a2.3 2.3 0 0 0-1-.3 2.4 2.4 0 0 0-2 1 3.6 3.6 0 0 0-.8 2.3Zm8.4.4v-.1c0-.8.1-1.4.3-2 .2-.6.5-1.1.9-1.5a4 4 0 0 1 1.4-1 4.3 4.3 0 0 1 1.8-.4c.6 0 1.3 0 1.8.3l1.4 1c.4.5.7 1 .9 1.6.2.6.3 1.2.3 2v.1a6 6 0 0 1-.3 2c-.2.6-.5 1-1 1.5a4 4 0 0 1-3.1 1.4 4.1 4.1 0 0 1-4-3 6 6 0 0 1-.4-1.9Zm1.7-.1v.1l.1 1.4.5 1.1.9.8c.3.2.7.3 1.2.3s.8-.1 1.2-.3l.8-.8c.3-.3.4-.7.5-1 .2-.5.2-1 .2-1.4v-.3c0-.4 0-.9-.2-1.3 0-.4-.3-.8-.5-1.1a2.4 2.4 0 0 0-2-1.1 2.4 2.4 0 0 0-2 1l-.6 1.2-.1 1.4Zm13.2-4.8v1.3H102v-1.3h5.2Zm-3.5-2.3h1.7v9.6l.1.7c.1.2.2.3.4.3l.5.1a2.7 2.7 0 0 0 .8 0v1.2a3.9 3.9 0 0 1-1.3.2c-.4 0-.7 0-1-.2-.4-.2-.7-.4-.9-.8-.2-.4-.3-1-.3-1.5v-9.6Zm12 12h-1.6V258c0-.7.2-1.4.5-1.9s.7-.8 1.2-1a5 5 0 0 1 3.1-.3c.4 0 .8.2 1.3.4l-.3 1.3-1-.3-1.1-.1c-.7 0-1.2.2-1.5.5-.4.3-.5.8-.5 1.4v10.5Zm2-9.7v1.3h-5v-1.3h5Zm3.3 0v9.6h-1.7v-9.6h1.7Zm4.5-4v13.6h-1.7v-13.6h1.7Zm6.6 4v1.3H127v-1.3h5.2Zm-3.4-2.3h1.6v9.6l.2.7c.1.2.2.3.4.3l.5.1a2.7 2.7 0 0 0 .8 0v1.2a4 4 0 0 1-1.3.2c-.4 0-.8 0-1-.2-.4-.2-.7-.4-.9-.8-.2-.4-.3-1-.3-1.5v-9.6Zm9.4 12.1c-.7 0-1.3 0-1.9-.3a4.1 4.1 0 0 1-2.2-2.4 5.4 5.4 0 0 1-.4-2v-.3c0-.8.2-1.5.4-2 .2-.7.5-1.2 1-1.7a4 4 0 0 1 4.6-.9c.5.2 1 .6 1.3 1 .3.4.5 1 .7 1.5l.2 1.9v.7h-7.2v-1.3h5.6v-.2a4.1 4.1 0 0 0-.3-1.2l-.7-1c-.3-.3-.8-.4-1.4-.4a2.2 2.2 0 0 0-1.8 1l-.5 1-.2 1.6v.4c0 .4 0 .9.2 1.3l.5 1a2.7 2.7 0 0 0 2.1 1c.6 0 1.1-.1 1.5-.4.4-.2.8-.5 1-1l1 .9c-.1.3-.4.6-.7.9a4.1 4.1 0 0 1-2.8 1Zm7.3-8.3v8.2h-1.7v-9.7h1.6v1.6Zm3-1.5v1.5a4.1 4.1 0 0 0-.8 0l-1 .1a2.2 2.2 0 0 0-1.2 1.3c-.2.3-.3.6-.3 1l-.4.2.1-1.6c.1-.5.3-1 .6-1.4.2-.4.5-.7.9-1a2.6 2.6 0 0 1 2-.1Zm8.5 9.7h-1.7v-10.7c0-.7.1-1.2.4-1.7s.6-.9 1-1.1a3.6 3.6 0 0 1 1.8-.4 4.5 4.5 0 0 1 1.1.2v1.3a1.8 1.8 0 0 0-1.9.1l-.6.6-.2 1v10.7Zm2-9.7v1.3h-5.2v-1.3h5.2Zm1.4 5v-.2c0-.7.1-1.4.3-2 .2-.6.5-1.1.9-1.5a4 4 0 0 1 1.3-1 4.3 4.3 0 0 1 1.9-.4c.6 0 1.2 0 1.8.3l1.4 1a6 6 0 0 1 1.2 3.5v.3a6 6 0 0 1-.4 1.9c-.2.6-.5 1-.8 1.5a4 4 0 0 1-3.2 1.4 4.1 4.1 0 0 1-4.1-3 5.9 5.9 0 0 1-.3-1.8Zm1.6-.2v.2l.2 1.3.5 1.1c.2.4.5.6.9.8.3.2.7.3 1.2.3l1.2-.3c.3-.2.6-.4.8-.8l.5-1 .2-1.4v-.2c0-.5 0-1-.2-1.4 0-.4-.3-.8-.5-1.1a2.4 2.4 0 0 0-2-1.1c-.5 0-.9.1-1.2.3-.4.2-.7.4-.9.8l-.5 1.1a5.2 5.2 0 0 0-.2 1.4Zm10.9-3.2v8H171v-9.6h1.6v1.6Zm3-1.6v1.5a4.1 4.1 0 0 0-.8 0l-1 .1a2.2 2.2 0 0 0-1.2 1.3c-.2.3-.3.6-.3 1l-.5.2.2-1.6c.1-.5.3-1 .6-1.4.2-.4.5-.7.9-1a2.6 2.6 0 0 1 2-.1Zm8.2 2.4h1.2c.6 0 1-.1 1.4-.3.4-.2.7-.5.9-.8l.2-1.1c0-.5 0-1-.2-1.3-.2-.3-.4-.6-.8-.8a2.7 2.7 0 0 0-1.2-.2c-.5 0-.9 0-1.2.3a2 2 0 0 0-1.2 1.9h-1.6a3.4 3.4 0 0 1 1.9-3c.6-.4 1.3-.6 2-.6.9 0 1.5.2 2.1.5.6.2 1 .6 1.4 1.2.3.5.5 1.2.5 2a3.1 3.1 0 0 1-1 2c-.3.4-.7.7-1.2.9a5 5 0 0 1-1.8.3H184v-1Zm0 1.3v-1h1.4c.8 0 1.5.1 2 .3.6.2 1 .5 1.3.8l.7 1a4 4 0 0 1-.1 2.8 3.3 3.3 0 0 1-2.2 2 5.3 5.3 0 0 1-3.2 0 4 4 0 0 1-1.3-.7 3.3 3.3 0 0 1-1.2-2.7h1.6a2 2 0 0 0 1.2 2c.3.2.8.3 1.3.3a3 3 0 0 0 1.3-.3c.4-.2.6-.4.8-.8.2-.3.3-.8.3-1.3s0-1-.3-1.3a2 2 0 0 0-1-.8c-.4-.2-.9-.3-1.4-.3H184Zm16-1.5v2c0 1-.1 1.9-.3 2.6a4.7 4.7 0 0 1-.8 1.8 3.1 3.1 0 0 1-1.3 1 4.8 4.8 0 0 1-3 0 3 3 0 0 1-1.2-.5 3.6 3.6 0 0 1-.9-1.1 5.8 5.8 0 0 1-.5-1.7l-.2-2.2v-2c0-1 .1-1.9.3-2.6.2-.7.5-1.3.8-1.7a3 3 0 0 1 1.3-1c.5-.2 1-.3 1.7-.3.5 0 1 0 1.4.2a3.1 3.1 0 0 1 2 1.6l.5 1.6.2 2.2Zm-1.7 2.2v-2.5a9.8 9.8 0 0 0 0-1.6 4.8 4.8 0 0 0-.4-1c-.1-.4-.3-.7-.5-.9l-.7-.4-.8-.1c-.4 0-.8 0-1 .2-.4.1-.6.4-.8.7l-.5 1.2a9.2 9.2 0 0 0-.2 1.9v2.5l.1 1.5.4 1.2.5.8.6.4.9.2 1-.2c.4-.2.6-.4.8-.8l.5-1.2.1-2Zm14 2.7v-.7l-.7-.5a5.2 5.2 0 0 0-1.4-.5c-.6 0-1-.2-1.5-.4a4.4 4.4 0 0 1-1-.5c-.4-.2-.6-.5-.7-.8a2.4 2.4 0 0 1 0-2.1l.7-1 1.1-.5c.4-.2 1-.2 1.5-.2.7 0 1.4 0 2 .4.5.2.9.6 1.2 1 .3.5.4 1 .4 1.6h-1.6c0-.3 0-.6-.2-.8a1.8 1.8 0 0 0-.7-.6 2.2 2.2 0 0 0-1.1-.3c-.5 0-.9 0-1.1.2l-.7.6a1.3 1.3 0 0 0 0 1.1l.3.4.7.3 1 .3a9 9 0 0 1 2 .7c.5.2.9.5 1.2.9.2.3.3.8.3 1.3a2.5 2.5 0 0 1-1 2c-.3.3-.7.5-1.2.6a5 5 0 0 1-1.5.2c-.8 0-1.6-.1-2.1-.4-.6-.3-1-.7-1.4-1.2a2.8 2.8 0 0 1-.4-1.5h1.6c0 .4.2.8.4 1a2 2 0 0 0 .9.6 3.4 3.4 0 0 0 2.1 0c.4-.1.6-.3.7-.5.2-.2.3-.4.3-.7Zm7.9 2.7c-.7 0-1.3 0-1.8-.3a4.1 4.1 0 0 1-2.3-2.4c-.2-.6-.3-1.2-.3-2v-.3c0-.8 0-1.5.3-2a4.7 4.7 0 0 1 1-1.6 4 4 0 0 1 2.9-1.3c.7 0 1.2 0 1.7.3s1 .6 1.3 1c.3.4.5 1 .7 1.5l.2 1.9v.7h-7.2v-1.3h5.6v-.2a4.1 4.1 0 0 0-.3-1.2c-.1-.4-.4-.7-.7-1-.3-.3-.8-.4-1.3-.4a2.2 2.2 0 0 0-1.9 1l-.5 1-.2 1.6v.4c0 .4 0 .9.2 1.3.1.4.3.7.6 1a2.7 2.7 0 0 0 2 1c.6 0 1.1-.1 1.5-.4.4-.2.8-.5 1.1-1l1 .9a4.1 4.1 0 0 1-3.6 1.9Zm9.5-1.3c.4 0 .7-.1 1-.3.4-.1.7-.3.9-.6.2-.3.3-.6.3-1h1.6a3 3 0 0 1-.6 1.6 4 4 0 0 1-3.2 1.6c-.7 0-1.4-.1-2-.4-.4-.2-.9-.5-1.2-1a4.7 4.7 0 0 1-.8-1.5 6.5 6.5 0 0 1-.3-1.9v-.3c0-.7.1-1.3.3-1.9.1-.5.4-1 .8-1.5.3-.5.8-.8 1.3-1a4.4 4.4 0 0 1 1.9-.4 4 4 0 0 1 2 .4 3.6 3.6 0 0 1 1.8 3H232c0-.4 0-.7-.3-1a2.2 2.2 0 0 0-2-1 2.2 2.2 0 0 0-2 1l-.4 1.1-.2 1.3v.3l.2 1.3c0 .4.2.8.4 1 .2.4.5.7.8.9.3.2.8.3 1.3.3Zm5.2-3.5v-.2c0-.7.1-1.4.3-2 .2-.6.5-1.1.9-1.5a4 4 0 0 1 1.4-1 4.3 4.3 0 0 1 1.8-.4c.7 0 1.3 0 1.8.3.6.3 1 .6 1.4 1 .4.5.7 1 .9 1.6.2.6.3 1.3.3 2v.2a6 6 0 0 1-.3 1.9c-.2.6-.5 1-.9 1.5a4 4 0 0 1-3.2 1.4 4.1 4.1 0 0 1-4-3 6 6 0 0 1-.4-1.8Zm1.7-.2v.2l.1 1.3.5 1.1c.3.4.6.6 1 .8.2.2.6.3 1.1.3.5 0 .8-.1 1.2-.3.3-.2.6-.4.8-.8.3-.3.4-.7.5-1 .2-.5.2-1 .2-1.4v-.2c0-.5 0-1-.2-1.4 0-.4-.2-.8-.5-1.1a2.4 2.4 0 0 0-2-1.1 2.4 2.4 0 0 0-2 1l-.6 1.2a5.2 5.2 0 0 0-.1 1.4Zm10.8-2.7v7.6h-1.7v-9.7h1.6v2Zm-.4 2.4h-.7a5.3 5.3 0 0 1 1.1-3.3 3.6 3.6 0 0 1 2.8-1.3c.5 0 1 0 1.3.2.4 0 .7.3 1 .6l.6 1 .2 1.6v6.4h-1.7V262c0-.5 0-.9-.2-1.2-.1-.3-.3-.5-.6-.6a2.3 2.3 0 0 0-1-.3 2.4 2.4 0 0 0-2 1 3.6 3.6 0 0 0-.8 2.3Zm14.9 3.3v-11.8h1.6v13.7H262l-.1-2Zm-6.5-2.8v-.2c0-.8 0-1.4.3-2 .1-.6.4-1.2.7-1.6a3.4 3.4 0 0 1 2.8-1.3c.6 0 1.1 0 1.6.3.4.2.8.5 1.1.9.4.4.6.9.8 1.4l.4 2v.8a8.4 8.4 0 0 1-.4 1.9 4.5 4.5 0 0 1-.8 1.4l-1.1 1a3.8 3.8 0 0 1-3.2-.1 3.6 3.6 0 0 1-1.2-1 5 5 0 0 1-.7-1.6 6.8 6.8 0 0 1-.3-2Zm1.6-.2v.2l.2 1.3c0 .4.2.8.4 1.1a2.2 2.2 0 0 0 2 1c.5 0 1 0 1.3-.3.4-.2.7-.5.9-1l.5-1.2v-2.1a4.8 4.8 0 0 0-.3-1l-.5-.8-.8-.5a2.5 2.5 0 0 0-1-.3c-.5 0-1 .1-1.3.3l-.8.8-.4 1.1-.2 1.4Zm14.7 2.3c0-.2 0-.5-.2-.7l-.6-.5a5.2 5.2 0 0 0-1.4-.5c-.6 0-1-.2-1.5-.4l-1-.5a2.1 2.1 0 0 1-1-1.8c0-.4 0-.8.2-1.1l.8-1a3.5 3.5 0 0 1 1.1-.5c.4-.2 1-.2 1.5-.2.7 0 1.4 0 2 .4.5.2.9.6 1.2 1 .3.5.4 1 .4 1.6h-1.6c0-.3-.1-.6-.3-.8a1.8 1.8 0 0 0-.7-.6c-.3-.2-.6-.3-1-.3-.5 0-.9 0-1.2.2l-.6.6a1.3 1.3 0 0 0 0 1.1l.3.4.6.3 1.2.3 2 .7c.4.2.8.5 1 .9.3.3.4.8.4 1.3a2.5 2.5 0 0 1-1 2c-.3.3-.7.5-1.2.6-.4.2-1 .2-1.5.2-.8 0-1.6-.1-2.2-.4-.5-.3-1-.7-1.3-1.2-.3-.5-.4-1-.4-1.5h1.6c0 .4.2.8.4 1a2 2 0 0 0 .9.6 3.4 3.4 0 0 0 2.1 0c.3-.1.6-.3.7-.5.2-.2.3-.4.3-.7ZM60.7 309h-3.3v-1.3h3c.5 0 1-.1 1.3-.3l.8-.7c.2-.3.3-.7.3-1.1 0-.5 0-.9-.2-1.2-.2-.3-.5-.5-.9-.6a4 4 0 0 0-1.4-.2h-2.5V315h-1.7v-13h4.2c.7 0 1.3.1 1.8.3s1 .3 1.3.6c.4.3.7.6.9 1 .2.5.3 1 .3 1.6 0 .5-.2 1-.4 1.4-.3.5-.7.8-1.2 1-.5.4-1 .5-1.7.6l-.6.4Zm0 6h-4l1-1.3h3c.5 0 1-.1 1.3-.3.4-.2.7-.4.9-.8.2-.3.3-.7.3-1.2s0-1-.3-1.3a1.8 1.8 0 0 0-.8-.8 3.1 3.1 0 0 0-1.4-.3h-2.4v-1.3h3.3l.4.5a3 3 0 0 1 2.6 1.7c.2.4.3.9.3 1.5a3.3 3.3 0 0 1-2 3.3c-.6.3-1.4.4-2.3.4Zm8.3-13.6v13.7h-1.7v-13.7H69Zm2.2 9v-.2c0-.7 0-1.3.3-2l.9-1.5c.3-.4.8-.8 1.3-1a4.3 4.3 0 0 1 1.9-.4c.6 0 1.2.1 1.8.4.5.2 1 .6 1.3 1 .4.4.7 1 1 1.6l.2 1.9v.2a6 6 0 0 1-.3 2l-.9 1.5a4 4 0 0 1-3.1 1.4 4.1 4.1 0 0 1-4.1-3 6 6 0 0 1-.3-2Zm1.6-.2v.2c0 .5 0 1 .2 1.4l.5 1c.2.4.5.7.9.8.3.2.7.3 1.2.3.4 0 .8 0 1.2-.3l.8-.7.5-1.1.2-1.4v-.2c0-.5 0-1-.2-1.4l-.5-1a2.4 2.4 0 0 0-2-1.2c-.5 0-.9.1-1.2.3-.4.2-.7.5-.9.8l-.5 1.1-.2 1.4Zm13 3.7a2.4 2.4 0 0 0 2-.9c.2-.3.3-.6.3-1h1.6a3 3 0 0 1-.6 1.6 4 4 0 0 1-3.3 1.7c-.7 0-1.3-.2-1.9-.4-.5-.3-1-.6-1.3-1a4.7 4.7 0 0 1-.8-1.6 6.5 6.5 0 0 1-.2-1.8v-.4c0-.6 0-1.3.2-1.8l.8-1.6c.4-.4.8-.8 1.4-1a4.4 4.4 0 0 1 1.9-.4 4 4 0 0 1 2 .5 3.6 3.6 0 0 1 1.8 3H88c0-.4-.1-.8-.3-1.1a2.2 2.2 0 0 0-2-1c-.5 0-.9 0-1.2.2-.4.2-.6.5-.8.8l-.5 1.2v2.8l.4 1.1c.2.4.5.6.8.8.4.2.8.3 1.3.3Zm7.4-12.5v13.7h-1.7v-13.7h1.7Zm5.9 4-4.2 4.6-2.4 2.4-.1-1.8 1.7-2 3-3.1h2Zm-1.5 9.7-3.5-4.6.9-1.5 4.5 6h-2Zm13.3-1.7v-5c0-.3 0-.6-.2-.9a1.5 1.5 0 0 0-.7-.6c-.3-.2-.6-.3-1-.3-.5 0-.9 0-1.2.2l-.7.6c-.2.2-.3.5-.3.7h-1.6c0-.3 0-.7.2-1l.8-.9a4 4 0 0 1 1.2-.7 5 5 0 0 1 3.4.1c.6.3 1 .6 1.3 1.1.3.5.5 1 .5 1.8v5.5a4 4 0 0 0 .3 1v.1h-1.7a3 3 0 0 1-.2-.8 6.1 6.1 0 0 1 0-.9Zm.3-4.1v1.1h-1.6a6 6 0 0 0-1.3.1 2.9 2.9 0 0 0-.9.4 1.5 1.5 0 0 0-.8 1.3l.2.8c.2.3.4.5.7.6l1 .2a2.8 2.8 0 0 0 2.2-1c.2-.4.4-.7.4-1l.7.8c0 .3-.2.5-.3.8a4 4 0 0 1-1.9 1.6c-.4.2-.8.3-1.4.3-.6 0-1.2-.2-1.7-.4a2.7 2.7 0 0 1-1.5-2.5c0-.5 0-1 .3-1.4.2-.4.5-.7.9-1a4 4 0 0 1 1.3-.5 7.2 7.2 0 0 1 1.8-.2h2Zm10 4v-11.9h1.7v13.7h-1.5l-.2-1.9Zm-6.4-3v-.1a7 7 0 0 1 .2-2l.8-1.6a3.4 3.4 0 0 1 2.8-1.3c.6 0 1 .1 1.5.3.5.2.9.5 1.2 1 .3.3.6.8.8 1.4.1.5.3 1.2.3 1.9v.8a8 8 0 0 1-.3 1.9 4.5 4.5 0 0 1-.8 1.4c-.3.4-.7.7-1.2 1a3.8 3.8 0 0 1-3.1-.1 3.6 3.6 0 0 1-1.2-1 5 5 0 0 1-.8-1.6 6.8 6.8 0 0 1-.2-2Zm1.6-.1v.2c0 .5 0 1 .2 1.3 0 .5.2.8.4 1.1.2.4.5.6.8.8.3.2.7.3 1.2.3a2.4 2.4 0 0 0 2.1-1.3c.3-.4.4-.8.5-1.2v-2.2a4.7 4.7 0 0 0-.3-1l-.5-.7c-.2-.3-.4-.5-.8-.6a2.5 2.5 0 0 0-1-.2c-.5 0-.9 0-1.2.3l-.8.7-.4 1.2-.2 1.3Zm13.1.2v-.2c0-.7.1-1.3.3-2l.9-1.5c.4-.4.8-.8 1.4-1a4.3 4.3 0 0 1 1.8-.4 4.3 4.3 0 0 1 3.2 1.4c.4.4.7 1 .9 1.6.2.6.3 1.2.3 1.9v.2a6 6 0 0 1-.3 2c-.2.5-.5 1-1 1.5a4 4 0 0 1-3.1 1.4 4.1 4.1 0 0 1-4-3 6 6 0 0 1-.4-2Zm1.7-.2v.2l.1 1.4.5 1c.3.4.6.7.9.8.3.2.7.3 1.2.3s.8 0 1.2-.3l.8-.7c.3-.4.4-.7.5-1.1.2-.5.2-1 .2-1.4v-.2c0-.5 0-1-.2-1.4 0-.4-.3-.8-.5-1a2.4 2.4 0 0 0-2-1.2c-.5 0-.9.1-1.2.3l-.9.8-.5 1.1-.1 1.4Zm10.8-2.7v7.6h-1.7v-9.6h1.6v2Zm-.4 2.4h-.7a5.3 5.3 0 0 1 1.1-3.3 3.6 3.6 0 0 1 2.8-1.3c.5 0 1 0 1.3.2.4.1.7.3 1 .6l.6 1 .2 1.7v6.3h-1.7v-6.3c0-.5 0-1-.2-1.2-.1-.3-.3-.6-.6-.7a2.3 2.3 0 0 0-1-.2 2.5 2.5 0 0 0-2 1 3.6 3.6 0 0 0-.8 2.2Zm17.3-4.4v1.2h-5.2v-1.2h5.2Zm-3.4-2.4h1.6v9.6c0 .3 0 .6.2.7 0 .2.2.3.4.4h.5a2.7 2.7 0 0 0 .8 0v1.3a4.2 4.2 0 0 1-1.3.2c-.4 0-.8-.1-1.1-.3-.3-.1-.6-.4-.8-.8-.2-.4-.3-.9-.3-1.5v-9.6Zm7-1.7v13.7h-1.6v-13.7h1.6Zm-.4 8.5h-.7a5.3 5.3 0 0 1 1.1-3.3 3.5 3.5 0 0 1 2.8-1.3c.5 0 1 0 1.3.2.4.1.7.3 1 .6.3.3.5.6.6 1 .2.5.2 1 .2 1.7v6.3h-1.6v-6.3l-.2-1.2c-.2-.3-.4-.6-.7-.7a2.3 2.3 0 0 0-1-.2 2.4 2.4 0 0 0-2 1 3.6 3.6 0 0 0-.8 2.2Zm10.6-4.4v9.6H171v-9.6h1.7Zm-1.8-2.6a1 1 0 0 1 .2-.6c.2-.2.4-.3.8-.3.3 0 .5 0 .7.3.2.1.2.4.2.6 0 .3 0 .5-.2.7-.2.2-.4.3-.7.3a1 1 0 0 1-.8-.3 1 1 0 0 1-.2-.7Zm10 9.6-.1-.6-.7-.6a5.1 5.1 0 0 0-1.4-.4l-1.4-.4a4.4 4.4 0 0 1-1.1-.6 2.1 2.1 0 0 1-1-1.8c0-.4.1-.7.3-1l.7-1c.3-.3.7-.4 1.1-.6l1.5-.2c.8 0 1.4.1 2 .4.5.3 1 .6 1.2 1.1.3.5.5 1 .5 1.5h-1.7c0-.3 0-.5-.2-.8a1.8 1.8 0 0 0-.7-.6c-.3-.2-.7-.3-1.1-.3-.5 0-.8.1-1.1.3-.3 0-.5.3-.6.5a1.3 1.3 0 0 0-.1 1.1c0 .2.2.3.3.4l.7.3 1 .3c.9.2 1.5.4 2 .7.6.2 1 .5 1.2.9.2.4.4.8.4 1.3a2.5 2.5 0 0 1-1 2 4 4 0 0 1-2.8.9c-.8 0-1.5-.2-2.1-.5-.6-.3-1-.7-1.3-1.2a2.8 2.8 0 0 1-.5-1.5h1.7c0 .5.1.8.4 1a2 2 0 0 0 .8.7 3.4 3.4 0 0 0 2.2 0l.7-.6.2-.7Zm10.8.9 2.4-8h1.1l-.2 1.6-2.5 8h-1l.2-1.6Zm-1.7-8 2.1 8 .2 1.7h-1.1l-2.8-9.6h1.6Zm7.6 8 2-8h1.6l-2.8 9.7h-1l.2-1.7Zm-2.1-8 2.4 7.9.3 1.8H197l-2.6-8-.2-1.6h1.2Zm11.4 9.9a4.2 4.2 0 0 1-4.1-2.8c-.2-.6-.3-1.2-.3-1.9v-.4c0-.7.1-1.4.3-2 .3-.7.6-1.2 1-1.6a4 4 0 0 1 4.7-1c.5.3.9.6 1.2 1 .3.5.6 1 .7 1.5.2.6.2 1.2.2 1.9v.7h-7.1v-1.3h5.5v-.1a4 4 0 0 0-.3-1.3c-.1-.4-.3-.7-.7-1-.3-.2-.7-.3-1.3-.3a2.2 2.2 0 0 0-1.8.9c-.3.3-.5.7-.6 1.1l-.2 1.5v.4l.2 1.3c.1.4.3.8.6 1 .2.4.5.6.9.8l1.2.2c.6 0 1-.1 1.5-.3l1-1 1 .8-.8 1a3.8 3.8 0 0 1-1.2.6 4.6 4.6 0 0 1-1.6.3Zm5.7-13.9h1.6v11.8l-.1 1.9h-1.5v-13.7Zm8.1 8.8v.2a7 7 0 0 1-.2 2c-.2.5-.4 1-.8 1.5a3.4 3.4 0 0 1-1.1 1 3.9 3.9 0 0 1-3.2 0 3.2 3.2 0 0 1-1.2-.9c-.3-.4-.6-.8-.8-1.4a9 9 0 0 1-.3-1.9v-.8a9 9 0 0 1 .3-2l.8-1.4c.3-.4.7-.7 1.2-.9a4 4 0 0 1 1.6-.3c.6 0 1 .1 1.6.4.4.2.8.5 1.1 1 .3.4.6.9.8 1.5l.2 2Zm-1.6.2v-.2l-.2-1.3a3.5 3.5 0 0 0-.4-1.2 2.1 2.1 0 0 0-2-1 2.3 2.3 0 0 0-1.8.8 3.4 3.4 0 0 0-.8 1.7v2.2c0 .4.2.8.4 1.2a2.4 2.4 0 0 0 2.3 1.3c.4 0 .8-.1 1-.3.4-.2.7-.4.9-.7l.4-1.2.1-1.3Zm9.3 2.1c0-.2 0-.4-.2-.6 0-.2-.3-.4-.6-.6a5.1 5.1 0 0 0-1.4-.4 11 11 0 0 1-1.5-.4 5 5 0 0 1-1-.6 2.2 2.2 0 0 1-1-1.8 2.6 2.6 0 0 1 1-2l1.1-.6 1.5-.2c.7 0 1.4.1 2 .4.5.3.9.6 1.2 1.1.3.5.4 1 .4 1.5h-1.6c0-.3-.1-.5-.3-.8a1.8 1.8 0 0 0-.6-.6 2.2 2.2 0 0 0-1.1-.3c-.5 0-.9.1-1.1.3-.3 0-.5.3-.7.5a1.3 1.3 0 0 0 0 1.1c0 .2.1.3.3.4l.7.3 1 .3c.9.2 1.5.4 2 .7.5.2 1 .5 1.2.9.2.4.3.8.3 1.3a2.5 2.5 0 0 1-1 2 4 4 0 0 1-1.2.7 5.5 5.5 0 0 1-3.6-.3c-.6-.3-1-.7-1.4-1.2-.3-.4-.4-1-.4-1.5h1.6c0 .5.2.8.4 1a2 2 0 0 0 .9.7 3.4 3.4 0 0 0 2.1 0c.3-.2.6-.3.7-.6.2-.2.3-.4.3-.7Zm5.6-7v9.6h-1.7v-9.6h1.7Zm-1.8-2.6a1 1 0 0 1 .2-.6c.2-.2.4-.3.8-.3s.5 0 .7.3c.2.1.2.4.2.6 0 .3 0 .5-.2.7-.2.2-.4.3-.7.3a1 1 0 0 1-.8-.3 1 1 0 0 1-.2-.7Zm8.4 2.6v1.2h-5.2v-1.2h5.2Zm-3.4-2.4h1.6v9.6c0 .3 0 .6.2.7 0 .2.2.3.4.4h.5a2.7 2.7 0 0 0 .8 0v1.3a4.2 4.2 0 0 1-1.3.2c-.4 0-.8-.1-1.1-.3-.3-.1-.6-.4-.8-.8-.2-.3-.3-.9-.3-1.5v-9.6Zm9.4 12.2a4.2 4.2 0 0 1-4.1-2.8 5.4 5.4 0 0 1-.4-1.9v-.4c0-.7.2-1.4.4-2 .2-.7.5-1.2 1-1.6a4 4 0 0 1 4.6-1c.5.3 1 .6 1.3 1l.7 1.5.2 1.9v.7H243v-1.3h5.6v-.1a4.1 4.1 0 0 0-.3-1.3l-.7-1c-.3-.2-.8-.3-1.4-.3a2.2 2.2 0 0 0-1.8.9l-.5 1.1-.2 1.5v.4c0 .5 0 .9.2 1.3l.5 1a2.7 2.7 0 0 0 2.1 1c.6 0 1.1-.1 1.5-.3a4 4 0 0 0 1-1l1 .8-.7 1-1.2.6a4.6 4.6 0 0 1-1.6.3Z"/><path stroke="#DF3812" stroke-width=".9" d="M31.9 318.5h-6.4c-.9 0-1.6-.7-1.6-1.6v-11.5c0-1 .7-1.7 1.6-1.7h12.7c.9 0 1.6.8 1.6 1.7v6.5"/><path stroke="#DF3812" stroke-width=".9" d="m41 318-5.7-5.2v8l1.6-2.1 1.4 3.2 1.5-.8-1.4-3.2H41Z" clip-rule="evenodd"/><path stroke="#6780B2" d="M31.9 272.4a8.5 8.5 0 1 0 0-17 8.5 8.5 0 0 0 0 17Z"/><path stroke="#6780B2" stroke-linecap="round" d="m35.2 264-3.6-.4-.4-3.6"/><path fill="#4D4D4D" d="M30.5 181.6v13h-1.7v-13h1.7Zm5.4 5.8v1.4h-5.8v-1.4H36Zm1-5.8v1.4H30v-1.4h6.7Zm3.5 3.3v9.6h-1.6V185h1.6Zm-1.8-2.5a1 1 0 0 1 .3-.7c.1-.2.4-.3.7-.3.3 0 .5 0 .7.3.2.1.3.4.3.6 0 .3-.1.5-.3.7-.2.2-.4.3-.7.3-.3 0-.6-.1-.7-.3a1 1 0 0 1-.3-.7Zm6.2-1.5v13.6h-1.6V181h1.6Zm6.7 4v1.3h-5.2v-1.3h5.2Zm-3.4-2.3h1.6v9.5c0 .4 0 .6.2.8l.3.3h.5a2.7 2.7 0 0 0 .8 0v1.3a4.1 4.1 0 0 1-1.2.2c-.4 0-.8 0-1.1-.2-.4-.2-.7-.5-.9-.9-.2-.3-.3-.8-.3-1.5v-9.5Zm9.3 12a4.1 4.1 0 0 1-4-2.7c-.3-.6-.4-1.2-.4-1.9v-.3c0-.8.1-1.5.3-2.1.3-.6.6-1.2 1-1.6a4 4 0 0 1 4.7-1c.5.3.9.6 1.2 1 .3.5.6 1 .7 1.6.2.5.3 1.1.3 1.8v.8H54v-1.4h5.5v-.1a4.1 4.1 0 0 0-.3-1.2c-.1-.4-.4-.8-.7-1-.3-.3-.7-.4-1.3-.4a2.2 2.2 0 0 0-1.8.9c-.3.3-.4.7-.6 1.1a6 6 0 0 0-.2 1.6v.3l.2 1.3c.2.4.3.8.6 1 .2.4.5.6.9.8.3.2.8.3 1.2.3.6 0 1-.2 1.5-.4.4-.2.7-.6 1-1l1 .8-.8 1-1.1.6a4.6 4.6 0 0 1-1.7.3Zm7.3-8.2v8.1h-1.6V185h1.6v1.5Zm3-1.6v1.6a4.1 4.1 0 0 0-.8-.1c-.4 0-.7 0-1 .2a2 2 0 0 0-.7.5l-.5.7-.2 1-.5.3c0-.6 0-1.2.2-1.7 0-.5.3-1 .5-1.3a2.6 2.6 0 0 1 3-1.2Zm3.3.1v9.6h-1.6V185H71Zm-1.7-2.6a1 1 0 0 1 .2-.6c.2-.2.4-.3.7-.3.3 0 .6 0 .7.3.2.1.3.4.3.6 0 .3 0 .5-.3.7-.1.2-.4.3-.7.3-.3 0-.5-.1-.7-.3a1 1 0 0 1-.2-.7Zm6 4.6v7.6h-1.6V185h1.5l.1 2Zm-.4 2.4h-.7a5.4 5.4 0 0 1 1.1-3.3 3.5 3.5 0 0 1 2.8-1.3c.5 0 1 0 1.3.2.4.1.7.3 1 .6.3.3.5.7.6 1.1.2.4.2 1 .2 1.6v6.3h-1.6v-6.3c0-.5-.1-1-.3-1.2-.1-.3-.3-.5-.6-.7a2.3 2.3 0 0 0-1-.2 2.4 2.4 0 0 0-2 1 3.6 3.6 0 0 0-.8 2.2Zm15-4.4h1.6v9.4c0 .8-.2 1.6-.6 2.2-.3.6-.8 1-1.4 1.3a4.6 4.6 0 0 1-3.3.3c-.4 0-.9-.2-1.3-.5a3.3 3.3 0 0 1-1-1l.8-1c.4.6.8.9 1.2 1a3.2 3.2 0 0 0 2.7 0c.4-.1.7-.4.9-.8.2-.4.3-.9.3-1.4V187l.1-2.1Zm-6.6 5v-.3c0-.7.1-1.4.3-2a5 5 0 0 1 .7-1.5 3.4 3.4 0 0 1 2.8-1.4c.6 0 1.2.1 1.6.3.5.2.9.5 1.2 1l.7 1.4.4 2v.7c0 .7-.2 1.4-.4 2a4.5 4.5 0 0 1-.7 1.4c-.3.4-.7.7-1.2.9a3.8 3.8 0 0 1-3.2 0 3.6 3.6 0 0 1-1.1-1.1 4.8 4.8 0 0 1-.8-1.5 7 7 0 0 1-.3-2Zm1.7-.3v.2l.1 1.4.5 1c.2.4.4.6.8.8.3.2.7.3 1.1.3.6 0 1-.1 1.4-.4.3-.2.6-.5.8-.9l.5-1.2v-2.1a4.3 4.3 0 0 0-.3-1l-.5-.8a2 2 0 0 0-.8-.6l-1-.2c-.5 0-1 .1-1.2.3-.4.2-.6.4-.8.7l-.5 1.2-.1 1.3Zm13 .2v-.2c0-.7.1-1.3.3-2l.9-1.5a4 4 0 0 1 1.4-1 4.3 4.3 0 0 1 1.8-.4c.7 0 1.3.1 1.8.4s1 .6 1.4 1c.4.5.7 1 .9 1.6.2.6.3 1.2.3 2v.1a6 6 0 0 1-.3 2c-.2.5-.5 1-1 1.5a4 4 0 0 1-3.1 1.4 4.1 4.1 0 0 1-4-3 6 6 0 0 1-.4-1.9Zm1.7-.2v.2l.1 1.4.5 1 .9.9 1.2.2a2.4 2.4 0 0 0 2-1c.3-.3.4-.7.5-1.1.2-.5.2-1 .2-1.4v-.2c0-.5 0-1-.2-1.3 0-.5-.2-.8-.5-1.2a2.4 2.4 0 0 0-2-1c-.5 0-.9 0-1.2.2l-.9.8-.5 1.2-.1 1.3Zm10.8-2.7v7.6h-1.7V185h1.6v2Zm-.4 2.4h-.7c0-.6.1-1.3.3-1.8.2-.6.5-1 .8-1.5a3.5 3.5 0 0 1 2.8-1.3c.5 0 1 0 1.3.2.4.1.7.3 1 .6l.6 1.1.2 1.6v6.3h-1.6v-6.3c0-.5-.1-1-.3-1.2-.1-.3-.3-.5-.6-.7a2.3 2.3 0 0 0-1-.2 2.5 2.5 0 0 0-2 1 3.6 3.6 0 0 0-.8 2.2Zm17.3-4.4v1.3h-5.2v-1.3h5.2Zm-3.4-2.3h1.6v9.5c0 .4 0 .6.2.8l.4.3h.5a2.7 2.7 0 0 0 .8 0v1.3a4.1 4.1 0 0 1-1.3.2c-.4 0-.8 0-1.1-.3-.3-.1-.6-.4-.8-.8-.2-.3-.3-.8-.3-1.5v-9.5Zm7-1.7v13.6h-1.6V181h1.6Zm-.4 8.4h-.7a5.4 5.4 0 0 1 1.1-3.3 3.5 3.5 0 0 1 2.8-1.3c.5 0 1 0 1.3.2.4.1.7.3 1 .6.3.3.5.7.6 1.1.2.4.2 1 .2 1.6v6.3h-1.6v-6.3l-.2-1.2-.7-.7a2.3 2.3 0 0 0-1-.2 2.5 2.5 0 0 0-2 1 3.6 3.6 0 0 0-.8 2.2Zm10.6-4.4v9.6h-1.7V185h1.7Zm-1.8-2.6a1 1 0 0 1 .2-.6c.2-.2.4-.3.8-.3.3 0 .5 0 .7.3.2.1.2.4.2.6 0 .3 0 .5-.2.7a1 1 0 0 1-.7.3c-.4 0-.6-.1-.8-.3a1 1 0 0 1-.2-.7Zm10 9.7c0-.3 0-.5-.2-.7 0-.2-.2-.4-.6-.6a5.1 5.1 0 0 0-1.4-.4l-1.4-.4a4.4 4.4 0 0 1-1.1-.6c-.3-.2-.6-.4-.7-.7a2.4 2.4 0 0 1 0-2.2 3.1 3.1 0 0 1 1.8-1.5l1.5-.2c.8 0 1.4.1 2 .4.5.3 1 .7 1.2 1.1.3.5.5 1 .5 1.5h-1.7c0-.2 0-.5-.2-.8a1.8 1.8 0 0 0-.7-.6 2.2 2.2 0 0 0-1.1-.2c-.5 0-.8 0-1.1.2a1.4 1.4 0 0 0-.6.5 1.3 1.3 0 0 0-.1 1.2l.3.3.7.4 1.1.3c.8.1 1.4.4 2 .6.5.3.8.6 1 1 .3.3.5.7.5 1.2a2.6 2.6 0 0 1-1 2.1 4 4 0 0 1-1.2.6 5.5 5.5 0 0 1-3.7-.3c-.6-.3-1-.7-1.3-1.1a2.8 2.8 0 0 1-.5-1.6h1.7c0 .5.1.8.3 1.1a2 2 0 0 0 1 .6 3.4 3.4 0 0 0 2 0l.8-.5.2-.7Zm14 0-.2-.7c-.1-.2-.3-.4-.7-.6a5.1 5.1 0 0 0-1.4-.4l-1.4-.4a4.4 4.4 0 0 1-1.1-.6 2.1 2.1 0 0 1-1-1.8c0-.4.1-.7.3-1a3 3 0 0 1 1.9-1.6l1.4-.2c.8 0 1.4.1 2 .4.5.3 1 .7 1.2 1.1.3.5.5 1 .5 1.5h-1.7c0-.2 0-.5-.2-.8a1.8 1.8 0 0 0-.7-.6c-.3-.2-.7-.2-1-.2-.5 0-1 0-1.2.2-.3.1-.5.3-.6.5a1.3 1.3 0 0 0-.1 1.2l.3.3.7.4 1.1.3c.8.1 1.5.4 2 .6s.9.6 1.1 1c.3.3.4.7.4 1.2a2.5 2.5 0 0 1-1 2.1l-1.2.6a5.5 5.5 0 0 1-3.7-.3c-.6-.3-1-.7-1.3-1.1a2.8 2.8 0 0 1-.5-1.6h1.7c0 .5.1.8.4 1.1a2 2 0 0 0 .8.6 3.4 3.4 0 0 0 2.2 0l.7-.5.2-.7Zm5.5-7.1v9.6h-1.6V185h1.6Zm-1.8-2.6a1 1 0 0 1 .3-.6c.1-.2.4-.3.7-.3.3 0 .6 0 .7.3.2.1.3.4.3.6 0 .3-.1.5-.3.7-.1.2-.4.3-.7.3-.3 0-.6-.1-.7-.3a1 1 0 0 1-.3-.7Zm8.5 2.6v1.3h-5.2v-1.3h5.2Zm-3.5-2.3h1.7v9.5l.1.8.4.3h.5a2.7 2.7 0 0 0 .8 0v1.3a4.1 4.1 0 0 1-1.2.2c-.4 0-.8 0-1.1-.3-.4-.1-.7-.4-.9-.8-.2-.3-.3-.8-.3-1.5v-9.5Zm9.4 12a4.1 4.1 0 0 1-4.1-2.7c-.2-.6-.3-1.2-.3-1.9v-.3c0-.8.1-1.5.3-2.1a4.7 4.7 0 0 1 1-1.6 4 4 0 0 1 4.7-1c.5.3.9.6 1.2 1 .3.5.6 1 .7 1.6.2.5.2 1.1.2 1.8v.8h-7.1v-1.4h5.5v-.1a4.1 4.1 0 0 0-.3-1.2c-.1-.4-.4-.8-.7-1-.3-.3-.8-.4-1.3-.4a2.2 2.2 0 0 0-1.9.9l-.5 1.1-.2 1.6v.3l.2 1.3c.2.4.3.8.6 1 .2.4.5.6.9.8.3.2.7.2 1.2.2.6 0 1 0 1.5-.3.4-.2.7-.6 1-1l1 .8-.8 1-1.2.6a4.6 4.6 0 0 1-1.6.3Z"/><mask id="c" width="32" height="19" x="305" y="182" maskUnits="userSpaceOnUse" style="mask-type:luminance"><path fill="#fff" d="M336.7 182H306v18.2h30.7V182Z"/></mask><g fill="#67B279" mask="url(#c)"><path fill-rule="evenodd" d="M335.6 191.1c0 3.5-2.7 6.4-6.1 6.4H312c-3.4 0-6.1-2.9-6.1-6.4 0-3.5 2.7-6.4 6-6.4h17.5c3.4 0 6 2.9 6 6.4Z" clip-rule="evenodd" opacity=".5"/><path d="M327.5 200.2c5 0 9.2-4 9.2-9.1 0-5-4.1-9.1-9.2-9.1a9.2 9.2 0 0 0-9.2 9.1c0 5 4 9.1 9.2 9.1Z"/></g><path stroke="#D8D8D8" stroke-linecap="square" d="M18.2 227.5h327.6M18.2 154.7h327.6"/></g><defs><clipPath id="a"><rect width="364" height="456" fill="#fff" rx="4"/></clipPath></defs></svg>