<svg xmlns="http://www.w3.org/2000/svg" width="416" height="576" fill="none"><g clip-path="url(#a)"><g clip-path="url(#b)"><path fill="#000" fill-rule="evenodd" d="M75.5 0h265c51 0 73 25.2 73 73v686c0 46.2-23.6 73-73 73h-265c-51 0-73-25.2-73-73V73c0-47.8 22-73 73-73Z" clip-rule="evenodd"/><g fill-rule="evenodd" clip-rule="evenodd" filter="url(#c)"><path fill="#C9C6C8" d="M75.5 2c-48.7 0-71 23-71 71v686c0 48 22.3 71 71 71h265c47.1 0 71-24.6 71-71V73c0-48-22.3-71-71-71h-265Z"/><path fill="url(#d)" d="M75.5 2c-48.7 0-71 23-71 71v686c0 48 22.3 71 71 71h265c47.1 0 71-24.6 71-71V73c0-48-22.3-71-71-71h-265Z"/></g><path fill="url(#e)" d="M410.6 776c-5 33.3-28.4 49.9-70 49.9H75.4c-42.5 0-65-15-70-48.2 7.7 29.4 29.8 44.7 70 44.7h265c39.4 0 62.4-16.7 70-46.5ZM340.5 6c41.8 0 64.1 14.5 69.6 46.5C402.3 24 380.2 9 340.5 9h-265C35.8 9 13.7 24 5.8 52.6c5.5-32 28-46.5 69.7-46.5h265Z"/><path fill="url(#f)" d="M410.6 776c-5 33.3-28.4 49.9-70 49.9H75.4c-42.5 0-65-15-70-48.2 7.7 29.4 29.8 44.7 70 44.7h265c39.4 0 62.4-16.7 70-46.5ZM340.5 6c41.8 0 64.1 14.5 69.6 46.5C402.3 24 380.2 9 340.5 9h-265C35.8 9 13.7 24 5.8 52.6c5.5-32 28-46.5 69.7-46.5h265Z"/><path fill="url(#g)" fill-rule="evenodd" d="M75.5 9h265c51 0 73 24.6 73 71.3V751c0 45-23.6 71.3-73 71.3h-265c-51 0-73-24.7-73-71.3V80.3c0-46.7 22-71.3 73-71.3Z" clip-rule="evenodd"/><path fill="url(#h)" fill-rule="evenodd" d="M75.5 9h265c51 0 73 24.6 73 71.3V751c0 45-23.6 71.3-73 71.3h-265c-51 0-73-24.7-73-71.3V80.3c0-46.7 22-71.3 73-71.3Z" clip-rule="evenodd"/><path fill="url(#i)" stroke="#000" stroke-width="3" d="M75.5 7.6h265c22.9 0 39 5.2 49.6 15.8 10.6 10.5 15.7 26.8 15.7 49.5v686.2c0 21.9-5.5 38.1-16.3 49-10.7 10.7-27 16.3-49 16.3h-265c-22.8 0-39-5.2-49.6-15.8-10.6-10.5-15.7-26.8-15.7-49.5V72.9c0-22.7 5.1-39 15.7-49.5C36.4 12.8 52.7 7.6 75.5 7.6Z"/><path fill="url(#j)" fill-rule="evenodd" d="M75.5 10h265c43.7 0 62.6 19 62.6 62.6v686.2c0 42-20.5 62.6-62.6 62.6h-265c-43.7 0-62.6-19-62.6-62.6V72.6C12.9 28.9 31.8 10 75.5 10Z" clip-rule="evenodd"/><path fill="url(#k)" fill-rule="evenodd" d="M75.5 10h265c43.7 0 62.6 19 62.6 62.6v686.2c0 42-20.5 62.6-62.6 62.6h-265c-43.7 0-62.6-19-62.6-62.6V72.6C12.9 28.9 31.8 10 75.5 10Z" clip-rule="evenodd"/><path fill="#000" d="M75.5 16.4c-40.2 0-56.2 16-56.2 56.2v686.2c0 40 16 56.2 56.2 56.2h265c38.5 0 56.2-17.7 56.2-56.2V72.6c0-40.1-16-56.2-56.2-56.2h-265Z"/></g><path fill="#000" d="M2.6 79.7h7v5.7h-7zm403.8 0h7v5.7h-7zM328 7V0h5.8v7z" opacity=".6"/><g clip-path="url(#l)" opacity=".8"><rect width="50.1" height="6.8" x="183.1" y="29.9" fill="#1D1C1C" rx="3.4"/><mask id="m" width="51" height="8" x="183" y="29" maskUnits="userSpaceOnUse" style="mask-type:luminance"><rect width="50.1" height="6.8" x="183.1" y="29.9" fill="#fff" rx="3.4"/></mask><g mask="url(#m)"><path fill="#000" fill-opacity=".1" d="M233.2 35.8h-50.1v-.4h50.1v.4Zm0-1.3h-50.1V34h50.1v.5Zm0-1.4h-50.1v-.5h50.1v.5Zm0-1.4h-50.1v-.4h50.1v.4Zm0-1.4h-50.1V30h50.1v.4Z"/><path fill="none" d="M233.2 36.8h-50.1v-.5h50.1v.5Zm0-1.4h-50.1V35h50.1v.4Zm0-1.3h-50.1v-.5h50.1v.4Zm0-1.4h-50.1v-.5h50.1v.5Zm0-1.4h-50.1v-.5h50.1v.5Z"/><path fill="#000" fill-opacity=".1" d="M184.2 37.2h-.6v-7.8h.6v7.8Zm1.6 0h-.6v-7.8h.6v7.8Zm1.6 0h-.5v-7.8h.5v7.8Zm1.6 0h-.5v-7.8h.5v7.8Zm1.6 0h-.5v-7.8h.5v7.8Zm1.6 0h-.5v-7.8h.5v7.8Zm1.6 0h-.5v-7.8h.5v7.8Zm1.6 0h-.5v-7.8h.5v7.8Zm1.6 0h-.5v-7.8h.5v7.8Zm1.7 0h-.6v-7.8h.6v7.8Zm1.6 0h-.6v-7.8h.6v7.8Zm1.6 0h-.6v-7.8h.6v7.8Zm1.6 0h-.6v-7.8h.6v7.8Zm1.6 0h-.5v-7.8h.5v7.8Zm1.6 0h-.5v-7.8h.5v7.8Zm1.6 0h-.5v-7.8h.5v7.8Zm1.6 0h-.5v-7.8h.5v7.8Zm1.6 0h-.5v-7.8h.5v7.8Zm1.6 0h-.5v-7.8h.5v7.8Zm1.6 0h-.5v-7.8h.5v7.8Zm1.7 0h-.6v-7.8h.6v7.8Zm1.6 0h-.6v-7.8h.6v7.8Zm1.6 0h-.6v-7.8h.6v7.8Zm1.6 0h-.6v-7.8h.6v7.8Zm1.6 0h-.5v-7.8h.5v7.8Zm1.6 0h-.5v-7.8h.5v7.8Zm1.6 0h-.5v-7.8h.5v7.8Zm1.6 0h-.5v-7.8h.5v7.8Zm1.6 0h-.5v-7.8h.5v7.8Zm1.6 0h-.5v-7.8h.5v7.8Zm1.6 0h-.5v-7.8h.5v7.8Z"/><path fill="none" d="M183.2 37.2h-.5v-7.8h.5v7.8Zm1.6 0h-.5v-7.8h.5v7.8Zm1.6 0h-.5v-7.8h.5v7.8Zm1.6 0h-.5v-7.8h.5v7.8Zm1.7 0h-.6v-7.8h.6v7.8Zm1.6 0h-.6v-7.8h.6v7.8Zm1.6 0h-.6v-7.8h.6v7.8Zm1.6 0h-.6v-7.8h.6v7.8Zm1.6 0h-.6v-7.8h.6v7.8Zm1.6 0h-.5v-7.8h.5v7.8Zm1.6 0h-.5v-7.8h.5v7.8Zm1.6 0h-.5v-7.8h.5v7.8Zm1.6 0h-.5v-7.8h.5v7.8Zm1.6 0h-.5v-7.8h.5v7.8Zm1.6 0h-.5v-7.8h.5v7.8Zm1.6 0h-.5v-7.8h.5v7.8Zm1.6 0h-.5v-7.8h.6v7.8Zm1.7 0h-.6v-7.8h.6v7.8Zm1.6 0h-.6v-7.8h.6v7.8Zm1.6 0h-.6v-7.8h.6v7.8Zm1.6 0h-.5v-7.8h.5v7.8Zm1.6 0h-.5v-7.8h.5v7.8Zm1.6 0h-.5v-7.8h.5v7.8Zm1.6 0h-.5v-7.8h.5v7.8Zm1.6 0h-.5v-7.8h.5v7.8Zm1.6 0h-.5v-7.8h.5v7.8Zm1.6 0h-.5v-7.8h.5v7.8Zm1.6 0h-.5v-7.8h.5v7.8Zm1.7 0h-.6v-7.8h.6v7.8Zm1.6 0h-.6v-7.8h.6v7.8Zm1.6 0h-.6v-7.8h.6v7.8Z"/></g><g filter="url(#n)" opacity=".2"><rect width="50.1" height="6.8" x="183.1" y="29.9" fill="none" rx="3.4"/></g></g><g clip-path="url(#o)"><path fill="url(#p)" fill-rule="evenodd" d="M252.2 39.2a6.1 6.1 0 1 0 0-12.2 6.1 6.1 0 0 0 0 12.2Z" clip-rule="evenodd"/><g filter="url(#q)" opacity=".4"><path fill="url(#r)" fill-rule="evenodd" d="M252.2 36.3a3.2 3.2 0 1 0 0-6.4 3.2 3.2 0 0 0 0 6.4Z" clip-rule="evenodd"/></g><mask id="s" width="8" height="8" x="248" y="29" maskUnits="userSpaceOnUse" style="mask-type:luminance"><path fill="#fff" fill-rule="evenodd" d="M252.2 36.3a3.2 3.2 0 1 0 0-6.4 3.2 3.2 0 0 0 0 6.4Z" clip-rule="evenodd"/></mask><g mask="url(#s)"><g filter="url(#t)"><path fill="#3E89CC" fill-rule="evenodd" d="M245.8 30.3c1-3.6 3.5-6.4 1.6-6.9-2-.4-2.4-.4-5.2 6.4-2.8 6.7.4 9.5 2.3 10 2 .5.5-6 1.4-9.5Z" clip-rule="evenodd"/></g><g filter="url(#u)"><path fill="#1C5894" fill-rule="evenodd" d="M254.7 34.7c1.1 0 2-1 2-2.4 0-1.3-.9-2.4-2-2.4s-1.9 1-1.9 2.4c0 1.3.9 2.4 2 2.4Z" clip-rule="evenodd"/></g><g filter="url(#v)"><path fill="#0A152B" fill-rule="evenodd" d="M253.4 37.4c1.5-.5 2.5-1.6 2.2-2.6-.3-1-1.7-1.5-3.3-1-1.5.4-2.5 1.6-2.2 2.6.3 1 1.7 1.4 3.3 1Z" clip-rule="evenodd"/></g></g></g><mask id="w" width="362" height="784" x="27" y="24" maskUnits="userSpaceOnUse" style="mask-type:luminance"><path fill="#fff" fill-rule="evenodd" d="M308.7 33v.4c0 9-6.8 20.3-22.5 20.3H130.1c-15.7 0-22.5-11.4-22.5-20.3v-.3c0-4.1 0-8.4-7.4-8.4H69.1c-26 0-41.8 15.8-41.8 41.8v699c0 26 15.7 41.8 41.8 41.8h277.8c26 0 41.8-15.8 41.8-41.8v-699c0-26-15.7-41.8-41.8-41.8h-30.8c-7.4 0-7.4 4.3-7.4 8.4Z" clip-rule="evenodd"/></mask><g mask="url(#w)"><path fill="#fff" d="M389.7 23.9H27.5v1076.4h362.2V24Z"/><path fill="#7F7F7F" fill-rule="evenodd" d="M59.2 31.6c0-.4.2-.6.6-.6h1.6c.4 0 .6.2.6.6v9.6c0 .3-.2.5-.6.5h-1.6a.6.6 0 0 1-.6-.5v-9.7Zm-4.5 2.8c0-.3.2-.6.5-.6H57c.3 0 .6.3.6.6v6.8c0 .3-.3.5-.6.5h-1.7a.6.6 0 0 1-.5-.5v-6.8ZM50 36.6c0-.3.3-.5.6-.5h1.7c.3 0 .6.2.6.5v4.6c0 .3-.3.5-.6.5h-1.7a.6.6 0 0 1-.6-.5v-4.6ZM45.6 39c0-.3.3-.6.6-.6h1.7c.3 0 .5.3.5.6v2.3c0 .3-.2.5-.5.5h-1.7a.6.6 0 0 1-.6-.5v-2.3Z" clip-rule="evenodd"/><path stroke="#7F7F7F" d="M344.4 31h19.3a2.3 2.3 0 0 1 2.2 2.3v6.2a2.3 2.3 0 0 1-2.2 2.2h-19.3a2.3 2.3 0 0 1-2.2-2.2v-6.3a2.3 2.3 0 0 1 2.2-2.2Z" opacity=".4"/><path fill="#7F7F7F" d="M363.1 32.7H345c-.6 0-1.1.5-1.1 1.1V39c0 .6.5 1.1 1 1.1h18.2c.6 0 1.1-.5 1.1-1v-5.2c0-.6-.5-1.1-1.1-1.1Zm6.2 2.2a.8.8 0 0 0-1.7 0v2.9a.8.8 0 0 0 1.7 0v-2.9Z"/><path fill="#7F7F7F" fill-rule="evenodd" d="M358 74.8a1.7 1.7 0 1 1 0-3.4 1.7 1.7 0 0 1 0 3.4Zm0 7.4a1.7 1.7 0 1 1 0-3.4 1.7 1.7 0 0 1 0 3.4Zm0 7.4a1.7 1.7 0 1 1 0-3.4 1.7 1.7 0 0 1 0 3.4Z" clip-rule="evenodd"/><path fill="#3D3D3D" d="M157.3 147.6a11 11 0 0 1-4-.6 6.2 6.2 0 0 1-2.6-2 5.5 5.5 0 0 1-1-3l-.1-.2h3.8v.2c.1.5.3.9.7 1.2.3.4.8.7 1.4.9.5.2 1.2.3 2 .3.7 0 1.3-.1 1.8-.3.6-.2 1-.5 1.3-.9.3-.3.4-.8.4-1.3 0-.6-.2-1.1-.7-1.5a6.7 6.7 0 0 0-2.6-.9l-2-.4c-2-.4-3.3-1-4.3-2a4.7 4.7 0 0 1-1.4-3.5 5 5 0 0 1 1-3 6.2 6.2 0 0 1 2.5-2 9.3 9.3 0 0 1 3.8-.8 9.5 9.5 0 0 1 3.8.7 5.8 5.8 0 0 1 2.5 2c.6.8 1 1.7 1 2.9v.2H161v-.2c-.1-.5-.3-.9-.6-1.3a3 3 0 0 0-1.2-.8c-.5-.2-1.1-.3-1.8-.3s-1.3.1-1.8.3l-1.1.8c-.3.4-.4.8-.4 1.2 0 .7.3 1.2.8 1.5.5.4 1.3.7 2.4 1l2 .4c1.4.2 2.5.6 3.3 1 .9.5 1.5 1.1 2 1.8.3.7.5 1.6.5 2.6 0 1.2-.3 2.3-.9 3.2a5.9 5.9 0 0 1-2.6 2.1c-1.2.5-2.6.7-4.2.7Zm15.9 0c-1.6 0-2.8-.4-3.6-1-.7-.7-1.1-1.8-1.1-3.3V136h-2V133h2v-3.5h3.9v3.5h2.7v3h-2.7v6.8c0 .7.1 1.1.4 1.4.3.3.8.4 1.4.4h.9v2.8a9.9 9.9 0 0 1-1.9.1Zm8.4 0c-1 0-1.8-.3-2.5-.6a4.3 4.3 0 0 1-1.7-1.6c-.4-.6-.6-1.4-.6-2.2 0-.9.2-1.6.6-2.2a4.3 4.3 0 0 1 2-1.5 8.9 8.9 0 0 1 3-.7l5.5-.3v2.4l-5 .3a3.1 3.1 0 0 0-1.7.5c-.4.3-.6.8-.6 1.3s.2 1 .6 1.2c.4.3 1 .5 1.6.5.6 0 1.1-.1 1.6-.4.4-.2.8-.5 1-.9.3-.4.5-.8.5-1.3v-4.4c0-.6-.2-1.1-.6-1.5-.4-.3-1-.5-1.8-.5a3 3 0 0 0-1.7.4 1.8 1.8 0 0 0-.8 1.1v.1h-3.6v-.1c.1-1 .4-1.7 1-2.3a5.2 5.2 0 0 1 2-1.6 8.2 8.2 0 0 1 3.3-.6c1.2 0 2.3.2 3.2.6a5 5 0 0 1 2 1.7c.6.7.8 1.5.8 2.5v9.8H186v-2.1h-.1a4.5 4.5 0 0 1-2.5 2c-.5.2-1 .3-1.7.3Zm16.7 0c-1.7 0-2.8-.4-3.6-1-.8-.7-1.1-1.8-1.1-3.3V136h-2V133h2v-3.5h3.9v3.5h2.7v3h-2.7v6.8c0 .7.1 1.1.4 1.4.3.3.8.4 1.4.4h.8v2.8a9.9 9.9 0 0 1-1.8.1Zm4.3-.3V133h3.9v14.3h-3.9Zm2-16.2a2 2 0 1 1 0-4c.6 0 1 .1 1.4.5.4.4.7.9.7 1.5 0 .5-.2 1-.6 1.4a2 2 0 0 1-1.5.6Zm10.6 16.5a9 9 0 0 1-3.3-.6 4.6 4.6 0 0 1-3-3.9l-.1-.1h3.8v.1c.1.5.4 1 .8 1.3.5.3 1 .4 1.8.4l1.3-.1c.4-.2.7-.3.8-.6.2-.2.3-.5.3-.8 0-.4-.1-.7-.4-1a3.5 3.5 0 0 0-1.5-.5l-2.4-.5a7.8 7.8 0 0 1-2.3-.9 3.8 3.8 0 0 1-1.4-1.3 3.9 3.9 0 0 1-.4-2c0-.8.2-1.6.7-2.3.5-.7 1.2-1.2 2-1.6 1-.3 2-.5 3.2-.5 1.3 0 2.4.2 3.3.6a5 5 0 0 1 2 1.6 4 4 0 0 1 .7 2.2v.2h-3.5v-.1a2 2 0 0 0-.8-1.3c-.4-.3-1-.5-1.7-.5l-1.1.2c-.4.1-.6.3-.8.6-.2.2-.3.5-.3.8l.2.6.6.5 1.2.4 2.4.5c1.5.3 2.6.8 3.2 1.4.7.6 1 1.5 1 2.5a3.9 3.9 0 0 1-.8 2.5 5.2 5.2 0 0 1-2.2 1.6 8.6 8.6 0 0 1-3.3.6Zm14.3 0c-1.7 0-2.8-.4-3.6-1-.8-.7-1.2-1.8-1.2-3.3V136h-2V133h2v-3.5h4v3.5h2.6v3h-2.6v6.8c0 .7.1 1.1.4 1.4.3.3.8.4 1.4.4h.8v2.8a9.9 9.9 0 0 1-1.8.1Zm4.3-.3V133h3.9v14.3h-3.9Zm2-16.2a2 2 0 1 1 0-4c.6 0 1 .1 1.4.5.5.4.7.9.7 1.5 0 .5-.3 1-.7 1.4a2 2 0 0 1-1.4.6Zm11.3 16.5c-1.5 0-2.7-.3-3.8-1a6 6 0 0 1-2.4-2.5 8.7 8.7 0 0 1-.8-4c0-1.5.2-2.8.8-4a6 6 0 0 1 2.4-2.5 7.4 7.4 0 0 1 3.8-.9c1.2 0 2.4.2 3.3.7a5.5 5.5 0 0 1 3.1 4.7v.1H250a3 3 0 0 0-.9-1.8 2.6 2.6 0 0 0-1.9-.7c-.6 0-1.2.2-1.7.6-.4.3-.8.8-1 1.5a6.7 6.7 0 0 0-.4 2.3c0 1 .1 1.8.4 2.4.2.7.6 1.2 1 1.5.5.4 1 .5 1.7.5a2.7 2.7 0 0 0 1.9-.6c.5-.4.8-1 1-1.7v-.1h3.5a5.6 5.6 0 0 1-3.1 4.8c-1 .4-2 .7-3.3.7Zm14.4 0a9 9 0 0 1-3.3-.6 4.6 4.6 0 0 1-3.1-3.9v-.1h3.8v.1c.1.5.4 1 .8 1.3.5.3 1 .4 1.8.4l1.3-.1c.4-.2.6-.3.8-.6.2-.2.3-.5.3-.8 0-.4-.1-.7-.4-1a3.5 3.5 0 0 0-1.5-.5l-2.4-.5a7.8 7.8 0 0 1-2.3-.9 3.8 3.8 0 0 1-1.4-1.3 3.9 3.9 0 0 1-.5-2c0-.8.3-1.6.8-2.3a4.8 4.8 0 0 1 2-1.6c1-.3 2-.5 3.2-.5 1.3 0 2.3.2 3.2.6a5 5 0 0 1 2 1.6 4 4 0 0 1 .8 2.2v.2H264v-.1c-.1-.5-.4-1-.8-1.3-.4-.3-1-.5-1.7-.5l-1.2.2c-.3.1-.5.3-.7.6-.2.2-.3.5-.3.8 0 .2 0 .4.2.6.1.2.3.4.6.5l1.2.4 2.4.5c1.5.3 2.5.8 3.2 1.4.7.6 1 1.5 1 2.5a3.9 3.9 0 0 1-.8 2.5 5.2 5.2 0 0 1-2.2 1.6 8.6 8.6 0 0 1-3.3.6Zm-101 44.4 4.7-12.8h1.2v2h-.5l-3.7 10.8h-1.7Zm2.2-3.7.5-1.3h5.7l.5 1.3h-6.8Zm7.1 3.7-3.7-10.7v-2h.7l4.7 12.7h-1.7Zm3.5 0v-13.3h1.5V192h-1.5Zm4.2 0v-13.3h1.5V192h-1.5Zm12.3 0c-1 0-1.7-.1-2.2-.5-.4-.4-.6-1-.6-2v-5.8h-1.5v-1.2h1.5V180h1.6v2.5h2v1.2h-2v5.4c0 .6 0 1 .3 1.2.2.3.6.4 1 .4h.8v1.3a11.1 11.1 0 0 1-1 0Zm2.9 0v-9.5h1.5v9.5h-1.5Zm.7-11.4a1 1 0 0 1-1-1 1 1 0 0 1 1-1.1c.3 0 .6.1.8.3.2.2.3.5.3.8a1 1 0 0 1-1 1Zm3.3 11.4v-9.5h1.6v1.4h.1c.2-.5.6-.9 1-1.2a2.9 2.9 0 0 1 1.6-.4 3 3 0 0 1 1.2.2 2.9 2.9 0 0 1 1.4 1.5h.2a3 3 0 0 1 1.7-1.5l1.2-.2c.6 0 1.2.1 1.6.4.5.2.8.6 1 1 .3.5.4 1 .4 1.7v6.6h-1.5v-6.2c0-.5 0-.9-.2-1.2a1.4 1.4 0 0 0-.7-.7c-.3-.2-.7-.2-1.1-.2a2.1 2.1 0 0 0-2 1l-.2 1.2v6.1h-1.5v-6.5c0-.3-.1-.7-.3-1a1.6 1.6 0 0 0-.7-.6c-.3-.2-.6-.2-1-.2a2 2 0 0 0-1.2.3c-.3.2-.5.5-.7.9-.2.3-.3.7-.3 1.2v5.9h-1.6Zm19.3.2a4 4 0 0 1-3.8-2.3 6 6 0 0 1-.5-2.6c0-1 .2-1.9.5-2.6a4 4 0 0 1 3.8-2.4 4 4 0 0 1 2.2.6c.6.4 1 1 1.4 1.7.3.7.5 1.5.5 2.5v.6h-7.6v-1.3h6.8l-.7 1.2v-.6a4.4 4.4 0 0 0-.4-1.9 2.4 2.4 0 0 0-2.3-1.4c-.5 0-1 0-1.3.3-.4.3-.8.7-1 1.2-.2.4-.3 1-.3 1.8v.6c0 .6 0 1.2.3 1.7a2.6 2.6 0 0 0 2.5 1.5c.4 0 .8 0 1.1-.2l.8-.4.4-.6h1.6l-.5 1-.8.8-1.1.6a5 5 0 0 1-1.6.2Z"/><path stroke="#7F7F7F" stroke-linecap="round" stroke-linejoin="round" stroke-width="1.5" d="m237.5 183.5 6.8 6.8 6.7-6.8"/><path fill="#3D3D3D" d="M47.4 257v-15.9h6.2c1.6 0 3 .3 4 1a6 6 0 0 1 2.6 2.6 9.4 9.4 0 0 1 1 4.3c0 1.7-.4 3.2-1 4.4a6.2 6.2 0 0 1-2.5 2.7 8.2 8.2 0 0 1-4 1h-6.3Zm3.3-2.7h2.4c1 0 1.9-.2 2.5-.6.7-.4 1.2-1 1.6-1.7a7 7 0 0 0 .5-3c0-1-.2-2-.5-2.8a3.8 3.8 0 0 0-1.6-1.7c-.7-.4-1.5-.6-2.5-.6h-2.4v10.4Zm12.8 2.8v-16h2.9l8.3 11.6-2.5-1.4h1.6v-10.2h3.3v16h-2.8l-8.4-11.7 2.5 1.4h-1.6v10.3h-3.3Zm22.4.3a8.9 8.9 0 0 1-3.3-.5 5.3 5.3 0 0 1-2.2-1.6 4.5 4.5 0 0 1-1-2.5v-.2h3.3v.1c0 .4.2.8.5 1 .3.4.7.6 1.1.8a5 5 0 0 0 3.3 0c.4-.2.8-.4 1-.8s.4-.6.4-1c0-.6-.2-1-.7-1.3a5.5 5.5 0 0 0-2-.8l-1.8-.3a7 7 0 0 1-3.6-1.7 4 4 0 0 1-1.1-3c0-1 .3-1.8.8-2.5a5.1 5.1 0 0 1 2.1-1.7c1-.4 2-.6 3.2-.6a8 8 0 0 1 3.2.5 5 5 0 0 1 2 1.7c.5.7.8 1.5.9 2.4v.1h-3.1c-.1-.5-.3-.8-.5-1.1l-1-.7a4 4 0 0 0-1.5-.2c-.6 0-1 0-1.5.2l-1 .7a1.6 1.6 0 0 0-.3 1c0 .5.2 1 .7 1.3.4.3 1 .6 2 .7l1.7.4c1.1.2 2 .5 2.7 1a4 4 0 0 1 1.6 1.4c.4.6.5 1.3.5 2.1 0 1-.2 2-.8 2.8a5 5 0 0 1-2.2 1.7c-1 .4-2 .6-3.4.6Zm13.5 3.7V245h3.2v2h.2a3.5 3.5 0 0 1 2-2l1.6-.2a4.5 4.5 0 0 1 4.4 2.9c.4 1 .6 2 .6 3.3 0 1.3-.2 2.5-.6 3.4a4.7 4.7 0 0 1-1.7 2.1c-.8.5-1.6.8-2.7.8l-1.5-.3a3.6 3.6 0 0 1-2.1-1.9h-.2v6h-3.2Zm6-6.5c.5 0 1-.1 1.4-.4a3 3 0 0 0 1-1.3 5 5 0 0 0 .3-1.9 5 5 0 0 0-.4-1.9 2.5 2.5 0 0 0-2.4-1.7c-.5 0-1 .2-1.4.5-.4.3-.7.7-1 1.2a5 5 0 0 0-.3 2c0 .7.1 1.3.3 1.8.3.6.6 1 1 1.3.4.3.9.4 1.4.4Zm7.9 2.5V245h3.2v2h.2a2.9 2.9 0 0 1 3-2.2 4.2 4.2 0 0 1 1 .1v2.9a5 5 0 0 0-.6-.2 4.7 4.7 0 0 0-.7 0c-.6 0-1.1 0-1.6.3-.4.2-.7.5-1 1a3 3 0 0 0-.3 1.4v6.8h-3.2Zm14 .2c-1.2 0-2.3-.2-3.2-.7a5 5 0 0 1-2-2.2 7.4 7.4 0 0 1-.8-3.4c0-1.3.3-2.4.8-3.3a5 5 0 0 1 2-2.2c1-.5 2-.8 3.2-.8 1.2 0 2.3.3 3.2.8.9.5 1.6 1.2 2 2.1s.8 2.1.8 3.4c0 1.3-.3 2.5-.7 3.4a5 5 0 0 1-2 2.2c-1 .5-2 .7-3.3.7Zm0-2.5c.6 0 1-.2 1.5-.4.4-.3.7-.8.9-1.3a5.7 5.7 0 0 0 .3-2c0-.9-.1-1.5-.3-2.1a2.8 2.8 0 0 0-1-1.3 2.3 2.3 0 0 0-1.4-.4 2.3 2.3 0 0 0-1.4.4c-.4.3-.7.7-1 1.3a5.7 5.7 0 0 0-.3 2c0 .8.1 1.5.4 2 .2.6.5 1 .9 1.4.4.3.9.4 1.4.4Zm12.8 2.4c-1.4 0-2.4-.3-3-.8-.7-.5-1-1.4-1-2.6v-6.4h-1.9V245h1.9v-3h3.2v3h2.4v2.4h-2.4v5.7c0 .6.1 1 .4 1.2.2.3.6.4 1.2.4a8.8 8.8 0 0 0 .8 0v2.3a8.4 8.4 0 0 1-1.6.2Zm8.9.1a6.3 6.3 0 0 1-3.2-.7 5.1 5.1 0 0 1-2-2.2 7.4 7.4 0 0 1-.8-3.3c0-1.3.3-2.5.7-3.4a5.3 5.3 0 0 1 2-2.2c1-.5 2-.8 3.1-.8a6 6 0 0 1 3 .8c1 .5 1.6 1.2 2 2.1.5 1 .8 2 .8 3.2v1h-10v-2h8.4l-1.5 1.9v-1.3c0-.7-.1-1.3-.3-1.8a2.4 2.4 0 0 0-1-1.1c-.3-.2-.8-.4-1.3-.4s-1 .2-1.4.4c-.4.3-.7.6-1 1.1a4.2 4.2 0 0 0-.3 1.8v1.3c0 .7.1 1.2.4 1.7a2.5 2.5 0 0 0 2.4 1.5 3 3 0 0 0 2-.7l.4-.5v-.1h3v.1a4.7 4.7 0 0 1-3.1 3.3c-.7.2-1.5.3-2.3.3Zm12.8 0a6.5 6.5 0 0 1-3.2-.7 5 5 0 0 1-2-2.2 7.6 7.6 0 0 1-.7-3.4c0-1.3.2-2.5.7-3.4a5 5 0 0 1 2-2.1c.9-.5 2-.8 3.2-.8 1 0 2 .2 2.8.6.8.4 1.4.9 1.8 1.6.5.6.7 1.4.8 2.3h-3a2.4 2.4 0 0 0-.7-1.4c-.4-.4-1-.5-1.7-.5-.5 0-1 .1-1.4.4-.4.3-.7.7-1 1.3l-.2 2c0 .8 0 1.5.3 2 .2.6.5 1 .9 1.4.4.3.9.4 1.4.4a2.4 2.4 0 0 0 1.6-.5c.4-.3.7-.8.8-1.4h3a4.5 4.5 0 0 1-2.6 3.9c-.8.3-1.7.5-2.8.5Zm12.3-.1c-1.5 0-2.5-.3-3.2-.8-.6-.5-1-1.4-1-2.6v-6.4h-1.7V245h1.8v-3h3.2v3h2.5v2.4h-2.5v5.7c0 .6.2 1 .4 1.2.3.3.6.4 1.2.4a8.7 8.7 0 0 0 .8 0v2.3a8.4 8.4 0 0 1-1.6.2Zm3.6-.1V245h3.2v12h-3.3Zm1.6-14c-.5 0-1 0-1.3-.4a1.7 1.7 0 0 1-.5-1.3c0-.5.1-.9.5-1.2.4-.4.8-.5 1.3-.5s.9.1 1.2.5c.4.3.6.7.6 1.2s-.2 1-.6 1.3c-.3.3-.7.5-1.2.5Zm9.5 14.2c-1.3 0-2.3-.2-3.2-.7a5 5 0 0 1-2-2.2 7.4 7.4 0 0 1-.8-3.4c0-1.3.2-2.4.7-3.3a5.1 5.1 0 0 1 2.1-2.2c.9-.5 2-.8 3.2-.8 1.2 0 2.3.3 3.2.8a5 5 0 0 1 2 2.1c.5 1 .7 2.1.7 3.4 0 1.3-.2 2.5-.7 3.4a5 5 0 0 1-2 2.2c-1 .5-2 .7-3.2.7Zm0-2.5c.5 0 1-.2 1.4-.4.4-.3.7-.8 1-1.3l.2-2c0-.9 0-1.5-.3-2.1a2.8 2.8 0 0 0-.9-1.3 2.3 2.3 0 0 0-1.4-.4 2.3 2.3 0 0 0-1.5.4c-.4.3-.7.7-.9 1.3a5.7 5.7 0 0 0-.3 2c0 .8.1 1.5.3 2 .2.6.5 1 1 1.4.3.3.8.4 1.4.4Zm7.8 2.3V245h3.3v1.9h.1c.3-.7.7-1.2 1.3-1.6a4 4 0 0 1 2.2-.6c1.4 0 2.4.4 3.1 1.2a4.8 4.8 0 0 1 1.1 3.4v7.8h-3.2V250c0-.9-.2-1.5-.6-2-.4-.4-.9-.6-1.7-.6-.4 0-.9.1-1.2.3-.4.3-.7.6-.8 1-.2.4-.3.8-.3 1.4v7h-3.3ZM86 315.9v-15.4h-.1l-4.8 3.3v-3.6l4.9-3.4h4v19.1h-4Zm8.5 0v-2.7l6.7-6.3a24.4 24.4 0 0 0 1.9-2c.5-.5.8-1 .9-1.3.2-.4.2-.9.2-1.3 0-.6 0-1-.3-1.5-.3-.3-.6-.7-1-.9a3.2 3.2 0 0 0-1.6-.3c-.6 0-1.2 0-1.7.4a3 3 0 0 0-1.6 2.6h-3.7c0-1.2.3-2.3.9-3.2a6.2 6.2 0 0 1 2.5-2.2 8.2 8.2 0 0 1 3.6-.8c1.4 0 2.6.3 3.6.8a5.7 5.7 0 0 1 2.4 2c.6.8.9 1.7.9 2.8 0 .8-.2 1.5-.5 2.2a8 8 0 0 1-1.4 2.1l-2.6 2.7-5.4 4.9 1.5-2.5v2.5l-1.4-1.2h10v3.2H94.4Zm16 4.2 1-7.5h3.6l-2 7.5h-2.7Zm17-4.2v-3.5H118v-3.3l1.5-2.5a539 539 0 0 1 3-4.9 585 585 0 0 1 3.1-4.9h5.6v12.4h2.6v3.2h-2.6v3.5h-3.8Zm-6-6.6h6.1v-9.6h-.1a202 202 0 0 1-2.4 3.8l-1.2 1.9-1.2 2-1.1 1.8v.1Zm22.2 7c-1.4 0-2.6-.3-3.7-.7a6.3 6.3 0 0 1-2.4-2 5.7 5.7 0 0 1-1-3v-.1h3.6a3 3 0 0 0 1.8 2.3 4 4 0 0 0 3.5-.1c.6-.3 1-.7 1.3-1.3.3-.5.4-1 .4-1.8 0-.7-.1-1.3-.4-1.8-.3-.5-.8-.9-1.3-1.2a4.2 4.2 0 0 0-3.2-.2 3.6 3.6 0 0 0-1.6 1 3.6 3.6 0 0 0-.4.7h-3.4l.8-11.3h12.2v3.2h-9l-.5 5.4h.1l1-1.1a5 5 0 0 1 1.5-.7 6 6 0 0 1 1.8-.3c1.2 0 2.3.3 3.2.8a5.8 5.8 0 0 1 2.3 2.2c.5 1 .8 2 .8 3.2a6.3 6.3 0 0 1-3.6 6 8.3 8.3 0 0 1-3.8.8Zm17.4 0c-1.6 0-3-.4-4.2-1.2a7.6 7.6 0 0 1-2.6-3.5 13.7 13.7 0 0 1-1-5.2c0-2 .4-3.8 1-5.3a7.5 7.5 0 0 1 2.6-3.4 7.2 7.2 0 0 1 4.2-1.3c1.6 0 3 .4 4.2 1.2a7.5 7.5 0 0 1 2.6 3.5c.7 1.5 1 3.2 1 5.3 0 2-.4 3.8-1 5.3a7.6 7.6 0 0 1-2.6 3.4 7 7 0 0 1-4.2 1.2Zm0-3.2c.8 0 1.5-.3 2-.8.6-.5 1-1.3 1.3-2.3.3-1 .4-2.2.4-3.6 0-1.5-.1-2.7-.4-3.7a5 5 0 0 0-1.3-2.3 2.8 2.8 0 0 0-2-.8c-.8 0-1.4.3-2 .8a5 5 0 0 0-1.3 2.3 13 13 0 0 0-.4 3.6c0 1.5.1 2.7.4 3.7.3 1 .7 1.8 1.3 2.3.6.5 1.2.8 2 .8Zm-82.3 25.5c-.8 0-1.5-.1-1.9-.5-.3-.3-.5-.9-.5-1.7v-5H75v-1.2h1.3v-2.1h1.4v2.1h1.8v1.1h-1.8v4.8c0 .5 0 .8.2 1 .2.2.5.4 1 .4a4.3 4.3 0 0 0 .6 0v1a7.3 7.3 0 0 1-.8.1Zm6 .1a3.5 3.5 0 0 1-3.4-2 5.3 5.3 0 0 1-.5-2.3c0-.9.2-1.7.5-2.3.3-.7.7-1.2 1.3-1.5a4 4 0 0 1 2-.5c.8 0 1.5.2 2.1.5a3.4 3.4 0 0 1 1.3 1.5c.3.6.5 1.4.5 2.3a5.2 5.2 0 0 1-.5 2.3 3.5 3.5 0 0 1-3.4 2Zm0-1.2c.5 0 1 0 1.3-.3.4-.3.6-.6.8-1.1.2-.5.3-1 .3-1.7s0-1.2-.3-1.7c-.2-.5-.4-.8-.8-1a2.3 2.3 0 0 0-1.3-.4c-.6 0-1 .1-1.4.3-.4.3-.6.6-.8 1.1-.2.5-.3 1-.3 1.7s0 1.2.3 1.7c.2.5.4.8.8 1 .4.3.8.4 1.4.4Zm8.7 1.1c-.9 0-1.5-.1-1.9-.5-.4-.3-.6-.9-.6-1.7v-5h-1.3v-1.2H91v-2.1h1.4v2.1h1.9v1.1h-1.9v4.8c0 .5.1.8.3 1 .2.2.5.4 1 .4a4.3 4.3 0 0 0 .6 0v1a7.3 7.3 0 0 1-.8.1Zm4.9.1c-.5 0-1 0-1.4-.3-.5-.2-.8-.5-1-.8a2.4 2.4 0 0 1-.4-1.4c0-.5.1-.9.4-1.2s.5-.7 1-.9c.5-.2 1-.3 1.6-.3l3.1-.2v1l-2.9.3c-.6 0-1 .1-1.4.4-.3.2-.4.5-.4.9s.1.8.5 1a2 2 0 0 0 1.2.4l1.2-.3c.3-.2.6-.4.8-.8.2-.3.3-.6.3-1v-2.6c0-.5-.1-1-.4-1.2-.3-.3-.8-.4-1.4-.4-.5 0-1 0-1.3.2-.3.2-.5.5-.6.8h-1.4c.1-.5.3-.8.6-1.2a3 3 0 0 1 1.1-.7c.5-.2 1-.3 1.6-.3.7 0 1.3 0 1.7.3.5.2.9.6 1.1 1 .3.4.4.9.4 1.5v5.7h-1.4v-1.3a2.8 2.8 0 0 1-1.6 1.3l-1 .1Zm6.4-.1v-11.7h1.3v11.7h-1.3Zm8 0v-8.4h1.3v1.3h.2c.1-.5.4-.8.8-1a2.6 2.6 0 0 1 1.4-.4 3.4 3.4 0 0 1 .7 0v1.3a3.8 3.8 0 0 0-.9 0c-.4 0-.8 0-1.1.2a2 2 0 0 0-.8.7 2 2 0 0 0-.3 1.1v5.2h-1.3Zm9 .1c-.8 0-1.4-.1-2-.5-.6-.3-1-.8-1.3-1.5a5.3 5.3 0 0 1-.5-2.3c0-.8.2-1.6.5-2.2.3-.7.7-1.2 1.3-1.6a3.5 3.5 0 0 1 2-.5c.7 0 1.4.2 1.9.5s1 .9 1.3 1.5c.3.6.4 1.3.4 2.2v.5h-6.7v-1h6l-.7.9v-.5c0-.7 0-1.2-.3-1.6a2 2 0 0 0-2-1.3c-.4 0-.8 0-1.2.3-.3.2-.6.6-.8 1-.2.4-.3 1-.3 1.6v.5c0 .6 0 1.1.3 1.5a2.3 2.3 0 0 0 2.2 1.3l1-.1.6-.4.4-.5h1.4c0 .3-.2.5-.4.8a3.1 3.1 0 0 1-1.7 1.2c-.4.2-.9.2-1.4.2Zm11.3 2.7v-4l-.7.7a3 3 0 0 1-2 .6 3.2 3.2 0 0 1-3-2 5.6 5.6 0 0 1-.5-2.3c0-.9.1-1.6.4-2.3a3.2 3.2 0 0 1 3.1-2 3 3 0 0 1 2.6 1.5h.1v-1.4h1.4v11.2H133Zm-2.4-3.9c.5 0 1-.1 1.3-.3.4-.3.7-.7.9-1.1.2-.5.3-1 .3-1.7 0-.6-.1-1.2-.3-1.7a2.2 2.2 0 0 0-2.2-1.4 2.2 2.2 0 0 0-2.1 1.4c-.2.5-.3 1-.3 1.7s0 1.2.3 1.7c.2.5.4.8.8 1 .4.3.8.4 1.3.4Zm8.9 1.2c-.6 0-1.2-.1-1.6-.3l-1-1a4 4 0 0 1-.3-1.8v-5.4h1.4v5.1c0 .8.1 1.3.4 1.7.3.4.8.5 1.4.5l1-.1.7-.5.5-.7v-6h1.4v8.4h-1.3v-1.3h-.1a2.2 2.2 0 0 1-1.4 1.3l-1.1.1Zm9.7 0a3.5 3.5 0 0 1-3.4-2 5.3 5.3 0 0 1-.4-2.3c0-.8.1-1.6.4-2.2a3.5 3.5 0 0 1 3.3-2.1c.8 0 1.4.2 2 .5.5.4 1 .9 1.2 1.5.3.6.4 1.3.4 2.2v.5h-6.6v-1h6l-.7.9v-.5a4 4 0 0 0-.3-1.6 2 2 0 0 0-2-1.3 2.2 2.2 0 0 0-2 1.3c-.3.4-.4 1-.4 1.6v.5c0 .6.1 1.1.3 1.5a2.2 2.2 0 0 0 2.2 1.3l1-.1.7-.4.4-.5h1.3c0 .3-.2.5-.4.8a3.1 3.1 0 0 1-1.7 1.2c-.4.2-.8.2-1.3.2Zm8.3 0c-.6 0-1.1 0-1.6-.3-.5-.1-.9-.4-1.1-.8a2.2 2.2 0 0 1-.5-1.2h1.3c.1.4.4.7.7.9.3.2.7.3 1.3.3.4 0 .7 0 1-.2.3 0 .5-.2.7-.4l.2-.7a1 1 0 0 0-.3-.7 2.6 2.6 0 0 0-1.2-.5l-1.3-.3a4.7 4.7 0 0 1-1.2-.5 2 2 0 0 1-.8-.7l-.2-1c0-.6.1-1 .4-1.3.3-.4.6-.7 1.1-.9a4 4 0 0 1 1.6-.3 4 4 0 0 1 1.5.3c.5.1.9.4 1.1.7.3.4.5.8.5 1.2h-1.3c0-.3-.3-.6-.6-.8a2.2 2.2 0 0 0-1.2-.3c-.3 0-.6 0-1 .2-.2 0-.4.2-.5.4a1 1 0 0 0-.2.7l.1.5.5.3.8.3 1.2.3a4 4 0 0 1 1.8.9c.4.3.6.8.6 1.4 0 .5-.2 1-.5 1.3s-.7.7-1.2 1l-1.7.2Zm8.2 0c-.9 0-1.5-.2-1.9-.6-.4-.3-.6-.9-.6-1.7v-5H162v-1.2h1.3v-2.1h1.4v2.1h1.9v1.1h-1.9v4.8c0 .5.1.8.3 1 .2.2.5.4 1 .4a4.3 4.3 0 0 0 .6 0v1a7.4 7.4 0 0 1-.8.1Zm5.3 0c-.6 0-1.1 0-1.6-.3-.5-.1-.9-.4-1.2-.8a2.2 2.2 0 0 1-.5-1.2h1.4c.1.4.3.7.7.9.3.2.7.3 1.3.3.3 0 .7 0 1-.2.2 0 .5-.2.6-.4.2-.2.3-.4.3-.7a1 1 0 0 0-.4-.7 2.6 2.6 0 0 0-1-.5l-1.4-.3a4.7 4.7 0 0 1-1.3-.5 2 2 0 0 1-.7-.7c-.2-.3-.2-.7-.2-1 0-.6.1-1 .4-1.3.2-.4.6-.7 1-.9a4 4 0 0 1 1.7-.3 4 4 0 0 1 1.5.3c.5.1.8.4 1.1.7.3.4.5.8.5 1.2H173c-.1-.3-.3-.6-.6-.8a2.2 2.2 0 0 0-1.2-.3c-.4 0-.7 0-1 .2-.2 0-.4.2-.5.4a1 1 0 0 0-.3.7c0 .2 0 .3.2.5l.4.3.8.3 1.3.3a4 4 0 0 1 1.8.9c.4.3.6.8.6 1.4 0 .5-.2 1-.5 1.3s-.7.7-1.2 1l-1.7.2Z"/><path fill="#A870B2" d="M268.8 316.3c-1.6 0-3-.4-4.2-1.2a7.6 7.6 0 0 1-2.7-3.4 13.7 13.7 0 0 1-.9-5.3c0-2 .3-3.8 1-5.3a7.5 7.5 0 0 1 2.6-3.4 7.2 7.2 0 0 1 4.2-1.3c1.6 0 3 .4 4.1 1.2a7.5 7.5 0 0 1 2.7 3.5c.6 1.5 1 3.2 1 5.3 0 2-.4 3.8-1 5.3a7.6 7.6 0 0 1-2.7 3.4 7.1 7.1 0 0 1-4.1 1.2Zm0-3.2c.8 0 1.4-.3 2-.8a5 5 0 0 0 1.2-2.3c.3-1 .5-2.2.5-3.6s-.2-2.7-.5-3.7-.7-1.7-1.2-2.3a2.8 2.8 0 0 0-2-.8c-.8 0-1.5.3-2 .8a5 5 0 0 0-1.3 2.3c-.3 1-.4 2.2-.4 3.6 0 1.5.1 2.7.4 3.7.3 1 .7 1.8 1.3 2.3.5.5 1.2.8 2 .8Zm16.5 2.8v-19.1h4.6l5.4 13.8h.2l5.4-13.8h4.6v19.1h-3.6v-13H300l4-5.6-7.3 18.6H294l-7.3-18.6 4 5.7h-2v13h-3.5Zm25.7 0v-3h5.5c1.1 0 2-.2 2.6-.6.6-.5 1-1.2 1-2v-.1c0-.6-.2-1-.5-1.5-.3-.4-.7-.7-1.3-.9a5.7 5.7 0 0 0-2-.3H311v-2.7h4.8c1.2 0 2-.2 2.6-.7.6-.4.9-1 .9-1.9 0-.8-.3-1.4-.8-1.8a3.4 3.4 0 0 0-2.2-.6H311v-3h6.3c1.2 0 2.3.2 3.2.6.8.4 1.5 1 2 1.6.5.7.7 1.6.7 2.6a4.1 4.1 0 0 1-1.8 3.4c-.5.4-1.1.7-1.8.8a5 5 0 0 1 2.3.8 4.4 4.4 0 0 1 2.2 3.9 5.1 5.1 0 0 1-.8 2.9 5.3 5.3 0 0 1-2.3 1.9 8.5 8.5 0 0 1-3.5.6H311Zm-2 0v-19.1h4v19.1h-4Zm-52.2 22.8a3.2 3.2 0 0 1-3-2 5.6 5.6 0 0 1-.5-2.3c0-.9.2-1.6.5-2.3a3.2 3.2 0 0 1 3-2 3.1 3.1 0 0 1 2 .7c.3.2.5.5.6.8h.2v-4.7h1.3v11.7h-1.3v-1.3h-.2a2.8 2.8 0 0 1-1.5 1.3l-1 .1Zm.3-1.2a2.2 2.2 0 0 0 2.2-1.4c.2-.5.3-1 .3-1.7 0-.6-.1-1.2-.3-1.7a2.4 2.4 0 0 0-.8-1c-.4-.3-.8-.4-1.3-.4a2.2 2.2 0 0 0-2.2 1.4c-.2.5-.3 1-.3 1.7s.1 1.2.3 1.7c.2.5.5.8.8 1 .4.3.8.4 1.4.4Zm8.5 1.2c-.5 0-1 0-1.4-.3a2.4 2.4 0 0 1-1.4-2.1 2.2 2.2 0 0 1 1.4-2.2c.5-.2 1-.3 1.7-.3l3-.2v1l-2.9.3c-.6 0-1 .1-1.4.4-.3.2-.4.5-.4.9s.2.8.5 1a2 2 0 0 0 1.2.4c.5 0 .9-.1 1.2-.3.4-.2.6-.4.8-.8.3-.3.4-.6.4-1v-2.6c0-.5-.2-1-.5-1.2-.3-.3-.8-.4-1.4-.4-.5 0-1 0-1.2.2a1.3 1.3 0 0 0-.7.8h-1.3c0-.5.2-.8.5-1.2a3 3 0 0 1 1.1-.7c.5-.2 1-.3 1.6-.3.7 0 1.3 0 1.8.3a2.8 2.8 0 0 1 1.4 2.4v5.8h-1.3v-1.3h-.2a2.8 2.8 0 0 1-1.5 1.3l-1 .1Zm9.3 0c-.9 0-1.5-.2-1.9-.6-.4-.3-.6-.9-.6-1.7v-5h-1.3v-1.2h1.3v-2.1h1.4v2.1h1.8v1.1h-1.8v4.8c0 .5.1.8.3 1 .2.2.5.4 1 .4a4.3 4.3 0 0 0 .5 0v1a7.3 7.3 0 0 1-.7.1Zm4.9 0c-.5 0-1 0-1.4-.3a2.3 2.3 0 0 1-1.4-2.1 2.2 2.2 0 0 1 1.4-2.2c.4-.2 1-.3 1.6-.3l3.1-.2v1l-2.9.3c-.6 0-1.1.1-1.4.4-.3.2-.4.5-.4.9s.1.8.5 1a2 2 0 0 0 1.2.4l1.2-.3c.3-.2.6-.4.8-.8.2-.3.3-.6.3-1v-2.6c0-.5-.1-1-.4-1.2-.4-.3-.8-.4-1.5-.4-.4 0-.9 0-1.2.2a1.3 1.3 0 0 0-.6.8h-1.4c.1-.5.3-.8.6-1.2a3 3 0 0 1 1.1-.7c.5-.2 1-.3 1.6-.3.7 0 1.2 0 1.7.3.5.2.8.6 1.1 1 .3.4.4.9.4 1.5v5.7h-1.4v-1.3h-.1a2.8 2.8 0 0 1-1.5 1.3l-1 .1Zm13.4 0c-.6 0-1.2 0-1.6-.3-.5-.1-.9-.4-1.2-.8a2.2 2.2 0 0 1-.5-1.2h1.4c.1.4.3.7.7.9.3.2.7.3 1.3.3.3 0 .7 0 1-.2.2 0 .5-.2.6-.4.2-.2.3-.4.3-.7a1 1 0 0 0-.4-.7l-1-.5-1.4-.3a4.7 4.7 0 0 1-1.3-.5 2 2 0 0 1-.7-.7c-.2-.3-.2-.7-.2-1 0-.6 0-1 .4-1.3.2-.4.6-.7 1-.9a4 4 0 0 1 1.7-.3 4 4 0 0 1 1.5.3c.5.1.8.4 1.1.7.3.4.5.8.5 1.2h-1.3c-.1-.3-.3-.6-.6-.8a2.2 2.2 0 0 0-1.2-.3c-.4 0-.7 0-1 .2-.2 0-.4.2-.5.4a1 1 0 0 0-.3.7c0 .2 0 .3.2.5l.4.3.8.3 1.3.3a4 4 0 0 1 1.8.9c.4.3.6.8.6 1.4 0 .5-.2 1-.5 1.3a3 3 0 0 1-1.2 1l-1.7.2Zm7.6 0c-.6 0-1 0-1.5-.3l-1-.8a2.4 2.4 0 0 1-.3-1.4c0-.5 0-.9.3-1.2s.6-.7 1-.9c.5-.2 1-.3 1.7-.3l3-.2v1l-2.8.3c-.6 0-1.1.1-1.4.4-.3.2-.4.5-.4.9s.1.8.4 1a2 2 0 0 0 1.2.4c.5 0 1-.1 1.3-.3.3-.2.6-.4.8-.8.2-.3.3-.6.3-1v-2.6c0-.5-.1-1-.5-1.2-.3-.3-.7-.4-1.4-.4-.5 0-.9 0-1.2.2-.3.2-.5.5-.6.8h-1.4c0-.5.3-.8.6-1.2.3-.3.6-.6 1.1-.7.5-.2 1-.3 1.6-.3a4 4 0 0 1 1.7.3c.5.2.8.6 1 1 .3.4.5.9.5 1.5v5.7h-1.4v-1.3h-.1a2.8 2.8 0 0 1-2.5 1.4Zm8.3-.1-3.1-8.4h1.4l2.3 7h.1l2.3-7h1.4l-3 8.4H309Zm9.2.1c-.9 0-1.5-.1-2.1-.5-.6-.3-1-.8-1.3-1.5-.3-.6-.5-1.4-.5-2.3 0-.8.2-1.6.5-2.2a3.5 3.5 0 0 1 3.3-2.1c.7 0 1.4.2 2 .5.5.4.9.9 1.2 1.5.3.6.4 1.3.4 2.2v.5h-6.7v-1h6l-.7.9v-.5a4 4 0 0 0-.2-1.6 2 2 0 0 0-2-1.3 2.2 2.2 0 0 0-2 1.3c-.3.4-.4 1-.4 1.6v.5c0 .6.1 1.1.3 1.5a2.3 2.3 0 0 0 2.2 1.3l1-.1.7-.4c.1-.2.3-.3.3-.5h1.4c0 .3-.2.5-.4.8a3.1 3.1 0 0 1-1.7 1.2c-.4.2-.9.2-1.4.2Zm8.5 0a3.2 3.2 0 0 1-3-2 5.6 5.6 0 0 1-.5-2.3c0-.9.1-1.6.4-2.3a3.2 3.2 0 0 1 3.1-2 3.1 3.1 0 0 1 2 .7c.3.2.5.5.6.8h.1v-4.7h1.4v11.7h-1.4v-1.3a2.8 2.8 0 0 1-2.7 1.4Zm.3-1.2a2.2 2.2 0 0 0 2.2-1.4c.2-.5.3-1 .3-1.7 0-.6-.1-1.2-.3-1.7a2.4 2.4 0 0 0-.9-1c-.3-.3-.8-.4-1.3-.4s-1 .1-1.3.4c-.3.2-.6.6-.8 1-.2.5-.3 1-.3 1.7s0 1.2.3 1.7c.2.5.5.8.8 1 .4.3.8.4 1.3.4Z"/><path fill="#67B279" d="M88.7 405.4v-15.5l-5 3.3v-3.5l5-3.5h4v19.2h-4Zm13.3 0v-15.5l-5 3.3v-3.5l5-3.5h4v19.2h-4Zm7.4 4.2 1-7.5h3.7l-2 7.5h-2.7Zm7.8-4.2v-2.8l6.7-6.3a24.4 24.4 0 0 0 2-2l.8-1.3c.2-.4.3-.8.3-1.3s-.2-1-.4-1.4l-1-1a3.2 3.2 0 0 0-1.6-.3c-.6 0-1.2.1-1.7.4a3 3 0 0 0-1.6 2.6v.1H117v-.1c0-1.2.3-2.3 1-3.2a6.2 6.2 0 0 1 2.4-2.2 8.2 8.2 0 0 1 3.7-.7c1.3 0 2.5.2 3.5.7a5.7 5.7 0 0 1 2.4 2c.6.8.9 1.7.9 2.8 0 .8-.2 1.5-.5 2.2a8 8 0 0 1-1.3 2.1 36 36 0 0 1-2.7 2.7l-5.3 4.9 1.4-2.5v2.5l-1.4-1.1h10v3.2h-13.8Zm25.5 0v-3.6h-9.5v-3.3a2670.3 2670.3 0 0 1 4.6-7.4 585 585 0 0 1 3-4.9h5.7v12.4h2.5v3.2h-2.5v3.6h-3.8Zm-6-6.6h6V389a373.9 373.9 0 0 0-3.7 5.7l-1.2 2-1.1 1.8v.1Zm22.1 7c-1.4 0-2.6-.3-3.6-.8a6.3 6.3 0 0 1-2.5-2 5.7 5.7 0 0 1-1-3h3.6l.7 1.3c.3.4.7.7 1.2 1l1.6.2c.7 0 1.3-.1 1.8-.4.6-.3 1-.7 1.3-1.2.3-.6.5-1.2.5-1.8a3.4 3.4 0 0 0-3.6-3.5c-.5 0-1 0-1.3.2a3.6 3.6 0 0 0-1.7 1.1l-.4.6H152l.8-11.3H165v3.2h-9l-.4 5.4 1.1-1.1c.4-.3.9-.6 1.5-.7a6 6 0 0 1 1.7-.3c1.2 0 2.3.3 3.3.8a5.8 5.8 0 0 1 2.2 2.2c.5 1 .8 2 .8 3.3a6.3 6.3 0 0 1-3.6 5.9 8.3 8.3 0 0 1-3.8.8ZM92.2 428c-.8 0-1.5-.1-2-.5-.6-.3-1-.8-1.4-1.5-.3-.6-.4-1.4-.4-2.2 0-1 .1-1.7.4-2.3.3-.7.8-1.2 1.3-1.5a3.5 3.5 0 0 1 2-.6c.8 0 1.4.2 2 .5.5.4.9.9 1.2 1.5.3.6.4 1.4.4 2.2v.5h-6.6v-1h6l-.7 1v-.6c0-.7-.1-1.2-.3-1.6a2 2 0 0 0-2-1.3c-.5 0-.9.1-1.2.3l-.9 1c-.2.4-.3 1-.3 1.6v.5c0 .6.1 1.1.3 1.5a2.2 2.2 0 0 0 2.2 1.3l1-.1.7-.4.4-.5h1.3c0 .3-.2.6-.4.8a3.1 3.1 0 0 1-1.7 1.3l-1.3.1Zm5.5-.1v-8.3H99v1.2h.1c.2-.4.5-.8 1-1 .3-.3.8-.4 1.5-.4.9 0 1.6.3 2.1.8s.8 1.3.8 2.3v5.4H103v-5c0-.8-.1-1.4-.5-1.7-.3-.4-.8-.6-1.4-.6-.5 0-.8.1-1.2.3a2 2 0 0 0-.7.8 2.8 2.8 0 0 0-.3 1.3v4.9h-1.4Zm12.5.1c-.8 0-1.5-.1-2-.5a3.6 3.6 0 0 1-1.4-1.5 5.2 5.2 0 0 1-.5-2.3c0-.9.2-1.6.5-2.3a3.5 3.5 0 0 1 1.3-1.5 3.8 3.8 0 0 1 2-.5 4 4 0 0 1 1.8.4 3.1 3.1 0 0 1 1.7 2.3h-1.3c-.1-.4-.3-.8-.7-1a2.3 2.3 0 0 0-1.5-.5 2.2 2.2 0 0 0-2.1 1.5 4 4 0 0 0-.3 1.6c0 .6 0 1.2.3 1.7.2.4.5.8.8 1 .4.3.8.5 1.3.5a2.4 2.4 0 0 0 1.4-.4 2 2 0 0 0 .8-1v-.1h1.3c-.1.6-.3 1-.6 1.4l-1.1 1a4 4 0 0 1-1.8.2Zm5.2-.1v-8.3h1.4v1.2h.1c.2-.4.4-.8.8-1a2.6 2.6 0 0 1 1.4-.4 6 6 0 0 1 .7 0v1.4a3.8 3.8 0 0 0-.8-.1c-.4 0-.8 0-1.2.3a2 2 0 0 0-.7.6 2 2 0 0 0-.3 1.1v5.2h-1.4Zm6.7 3a3.3 3.3 0 0 1-.6-.1v-1.1h.6c.3 0 .7-.1.9-.3l.6-1 .1-.5-3-8.4h1.4l2.6 7.8-.6-.9h.7l-.6.9 2.6-7.7h1.4l-3.2 8.8a6.3 6.3 0 0 1-.8 1.5 2 2 0 0 1-.9.7 3 3 0 0 1-1.2.2Zm7.7-.2v-11.1h1.4v1.3a2.7 2.7 0 0 1 1.6-1.3l1-.2a3.4 3.4 0 0 1 3 2c.4.7.6 1.5.6 2.3 0 1-.2 1.7-.4 2.3a3.2 3.2 0 0 1-3.1 2 3 3 0 0 1-2-.6 2.5 2.5 0 0 1-.6-.8h-.1v4h-1.4Zm3.8-3.8c.5 0 1-.2 1.3-.4.3-.3.6-.6.8-1.1.2-.5.3-1 .3-1.7 0-.6 0-1.2-.3-1.6-.2-.5-.5-.9-.8-1.1-.4-.3-.8-.4-1.3-.4a2.2 2.2 0 0 0-2.2 1.5c-.2.4-.3 1-.3 1.6 0 .7.1 1.2.3 1.7a2.3 2.3 0 0 0 2.2 1.5Zm8.7 1c-.9 0-1.5-.1-1.9-.5-.4-.3-.6-.9-.6-1.7v-5h-1.3v-1.1h1.3v-2.2h1.4v2.2h1.9v1h-1.9v4.8c0 .5.1.8.3 1 .2.3.5.4 1 .4a4.3 4.3 0 0 0 .6 0v1a8.5 8.5 0 0 1-.8.2Zm5.9.2a3.5 3.5 0 0 1-3.4-2c-.3-.7-.4-1.5-.4-2.3 0-1 .1-1.7.4-2.3a3.5 3.5 0 0 1 3.3-2c.8 0 1.4 0 2 .4.5.4 1 .9 1.2 1.5.3.6.5 1.4.5 2.2v.5H145v-1h6l-.7 1v-.6c0-.7-.1-1.2-.3-1.6a2 2 0 0 0-2-1.3 2.2 2.2 0 0 0-2 1.3c-.2.4-.3 1-.3 1.6v.5c0 .6 0 1.1.3 1.5a2.2 2.2 0 0 0 2.1 1.3l1-.1.7-.4.4-.5h1.4l-.4.8a3.1 3.1 0 0 1-1.8 1.3l-1.3.1Zm8.6 0a3.2 3.2 0 0 1-3.1-2 5.6 5.6 0 0 1-.4-2.4c0-.9.1-1.6.4-2.3a3.2 3.2 0 0 1 3-2 3.1 3.1 0 0 1 2 .7l.7.8v-4.7h1.4V428h-1.3v-1.3h-.1a2.9 2.9 0 0 1-1.6 1.3l-1 .1Zm.3-1.2a2.2 2.2 0 0 0 2.1-1.5c.2-.5.3-1 .3-1.7 0-.6 0-1.2-.3-1.6a2.4 2.4 0 0 0-.8-1.1c-.4-.3-.8-.4-1.3-.4s-1 .1-1.3.4c-.4.2-.7.6-.9 1-.2.5-.3 1-.3 1.7s.1 1.2.3 1.7c.2.5.5.8.9 1 .3.3.8.5 1.3.5Z"/><path fill="#F67247" d="M262.2 405.4v-15.5h-.1l-4.9 3.3v-3.5l5-3.5h4v19.2h-4Zm7.4 4.2 1-7.5h3.7l-2 7.5h-2.7Zm14.7-3.9c-1.5 0-2.7-.2-3.8-.7a6.4 6.4 0 0 1-2.6-2 5.6 5.6 0 0 1-1-3h3.7c.1.5.3 1 .6 1.3.3.4.7.7 1.2.9a5 5 0 0 0 1.9.3 4.3 4.3 0 0 0 1.7-.4c.6-.2 1-.5 1.2-1 .3-.3.4-.8.4-1.3 0-1-.3-1.6-1-2.1a4.4 4.4 0 0 0-2.6-.8h-2.2v-2.8h2.1c.7 0 1.3-.1 1.8-.4a2.4 2.4 0 0 0 1.6-2.3c0-.5-.2-1-.4-1.3a2.2 2.2 0 0 0-1-.8c-.5-.3-1-.4-1.7-.4-.6 0-1.1.2-1.6.4a2.7 2.7 0 0 0-1.7 2.1v.2h-3.7v-.2a5.6 5.6 0 0 1 3.5-4.8c1-.5 2.2-.7 3.5-.7a9.2 9.2 0 0 1 3.6.6c1 .4 1.8 1 2.4 1.8.5.7.8 1.6.8 2.6a4 4 0 0 1-2 3.6 6 6 0 0 1-2 .8v.1c1.4.1 2.6.6 3.4 1.4a4 4 0 0 1 1.3 3.1 5 5 0 0 1-1 3 6 6 0 0 1-2.5 2 9.9 9.9 0 0 1-4 .8Zm19.3-.3v-3.6H294v-3.3l1.5-2.4a729.4 729.4 0 0 1 3-5 585 585 0 0 1 3.2-4.9h5.6v12.4h2.5v3.2h-2.5v3.5h-3.8Zm-6-6.6h6V389a183 183 0 0 1-2.4 3.8l-1.2 2-1.2 1.8-1.2 2Zm23.9 6.6v-3.6H312v-3.3a1470.6 1470.6 0 0 1 6.1-9.8l1.5-2.5h5.7v12.5h2.5v3.2h-2.5v3.5h-3.8Zm-6-6.6h6V389a202 202 0 0 1-2.4 3.8l-1.2 2-1.2 1.8a297 297 0 0 0-1.2 2ZM268.8 428a3 3 0 0 1-1-.1 2.8 2.8 0 0 1-1.6-1.3h-.1v1.3h-1.4v-11.7h1.4v4.7l.7-.8a3.2 3.2 0 0 1 2-.7 3.2 3.2 0 0 1 3 2 5.7 5.7 0 0 1 0 4.6c-.2.6-.6 1.1-1.2 1.5-.5.4-1.1.5-1.8.5Zm-.3-1.2a2.2 2.2 0 0 0 2.1-1.4c.2-.5.3-1 .3-1.7 0-.6 0-1.2-.3-1.7-.2-.4-.5-.8-.8-1-.4-.3-.8-.4-1.3-.4s-1 .1-1.3.4a2.4 2.4 0 0 0-.9 1c-.2.5-.3 1-.3 1.7s.1 1.2.3 1.7c.2.5.5.8.9 1 .3.3.8.4 1.3.4Zm5.8 1.1v-11.7h1.3V428h-1.3Zm7.2.1a3.5 3.5 0 0 1-3.4-2 5.3 5.3 0 0 1-.5-2.3c0-.9.2-1.6.5-2.3.3-.6.7-1.1 1.3-1.5a4 4 0 0 1 2-.5c.9 0 1.5.2 2.1.5a3.4 3.4 0 0 1 1.3 1.5c.3.7.5 1.4.5 2.3a5.2 5.2 0 0 1-.5 2.3 3.5 3.5 0 0 1-3.3 2Zm0-1.2c.5 0 1 0 1.3-.3.4-.3.6-.6.8-1 .2-.6.3-1.1.3-1.8 0-.6 0-1.2-.3-1.7-.2-.4-.4-.8-.8-1a2.3 2.3 0 0 0-1.3-.4c-.6 0-1 .1-1.4.4-.3.2-.6.6-.8 1-.2.5-.3 1-.3 1.7s0 1.2.3 1.7c.2.5.5.8.8 1 .4.3.8.4 1.4.4Zm9.1 1.3a3.5 3.5 0 0 1-3.3-2 5.2 5.2 0 0 1-.5-2.4c0-.9.2-1.6.5-2.3a3.5 3.5 0 0 1 1.3-1.5 3.7 3.7 0 0 1 2-.5 4 4 0 0 1 1.8.4 3.1 3.1 0 0 1 1.7 2.3h-1.3a2 2 0 0 0-.7-1 2.3 2.3 0 0 0-1.5-.5 2.2 2.2 0 0 0-2.1 1.5 4 4 0 0 0-.3 1.6c0 .6 0 1.2.3 1.7.2.4.5.8.8 1 .4.3.8.5 1.3.5a2.4 2.4 0 0 0 1.4-.4 2 2 0 0 0 .8-1v-.1h1.3c-.1.6-.3 1-.6 1.4l-1.1 1a4 4 0 0 1-1.8.2Zm5.4-.2v-11.7h1.4V428H296Zm5.3 0-3.3-4.1 1-.9 4 5h-1.8Zm-4.1-3v-1.7h.3l3.6-3.6h1.6l-4 3.8-.3.3-1.2 1.2Zm10.2 3.1a3.5 3.5 0 0 1-3.4-2c-.3-.6-.4-1.4-.4-2.2 0-1 .1-1.7.4-2.3.3-.7.8-1.2 1.3-1.5a3.5 3.5 0 0 1 2-.6c.8 0 1.4.2 2 .5.5.4 1 .9 1.2 1.5.3.6.4 1.4.4 2.2v.5h-6.6v-1h6l-.7 1v-.6c0-.7-.1-1.2-.3-1.6a2 2 0 0 0-2-1.3 2.1 2.1 0 0 0-2 1.3c-.3.4-.4 1-.4 1.6v.5c0 .6.1 1.1.3 1.5a2.2 2.2 0 0 0 2.2 1.3l1-.1.7-.4.4-.5h1.3c0 .3-.2.6-.4.8a3.1 3.1 0 0 1-1.7 1.3l-1.3.1Zm8.5 0a3.2 3.2 0 0 1-3-2 5.6 5.6 0 0 1-.5-2.3c0-.9.2-1.6.5-2.3a3.2 3.2 0 0 1 3-2 3.1 3.1 0 0 1 2 .7c.3.2.5.5.6.8h.2v-4.7h1.3V428h-1.3v-1.3h-.2a2.8 2.8 0 0 1-2.6 1.4Zm.3-1.2a2.2 2.2 0 0 0 2.2-1.4c.2-.5.3-1 .3-1.7 0-.6-.1-1.2-.3-1.7a2.4 2.4 0 0 0-.8-1c-.4-.3-.8-.4-1.3-.4-.6 0-1 .1-1.4.4-.3.2-.6.6-.8 1a4.4 4.4 0 0 0-.3 1.7c0 .7.1 1.2.3 1.7.2.5.5.8.8 1 .4.3.8.4 1.3.4Z"/><path stroke="#67B279" stroke-linecap="round" stroke-linejoin="round" stroke-width="1.5" d="M50.1 466.5h18.1m-18 4.5h13.5m-13.6 4.5h18.1m-18 4.6h9"/><path fill="#3D3D3D" d="M88 480v-12.7h4.9c.8 0 1.5.2 2 .5.7.3 1.2.7 1.5 1.3.4.6.5 1.2.5 2a3.9 3.9 0 0 1-.7 2.3 3.5 3.5 0 0 1-1.8 1.4l3 5.3h-2l-2.7-5.1h-3.1v5H88Zm1.6-6.4h3.1c.8 0 1.5-.2 2-.6.3-.4.6-1 .6-1.8s-.3-1.4-.7-1.8a2.8 2.8 0 0 0-2-.7h-3v4.9Zm13.3 6.6A4 4 0 0 1 99 478a6 6 0 0 1-.5-2.6c0-1 .2-1.8.6-2.6.3-.7.8-1.3 1.4-1.7a4 4 0 0 1 2.3-.6 4 4 0 0 1 2.2.6c.7.4 1.1 1 1.5 1.6.3.8.5 1.6.5 2.5v.6h-7.7v-1.2h6.9l-.8 1.1v-.6a4.4 4.4 0 0 0-.3-1.8 2.4 2.4 0 0 0-2.3-1.5c-.5 0-1 .2-1.4.4-.4.3-.7.6-1 1.1-.2.5-.3 1.1-.3 1.8v.6c0 .7.1 1.3.3 1.8a2.6 2.6 0 0 0 2.5 1.5l1.2-.2.7-.5.5-.5v-.1h1.5c0 .4-.2.7-.4 1l-.8.8a4 4 0 0 1-1.2.6 5 5 0 0 1-1.5.2Zm10 0a4 4 0 0 1-3.9-2.3 6 6 0 0 1-.5-2.6c0-1 .2-1.9.5-2.6a4 4 0 0 1 3.9-2.3c.8 0 1.4.1 2 .4a3.5 3.5 0 0 1 2 2.6h-1.5a2.2 2.2 0 0 0-.8-1.2 2.6 2.6 0 0 0-1.7-.5 2.5 2.5 0 0 0-2.5 1.7 4.7 4.7 0 0 0-.3 1.9c0 .7.1 1.3.3 1.9.3.5.6 1 1 1.2.4.3 1 .5 1.5.5.6 0 1.2-.2 1.6-.4.4-.3.7-.7.8-1.2v-.1h1.6a4 4 0 0 1-.7 1.6c-.4.5-.8.8-1.3 1a4.6 4.6 0 0 1-2 .4Zm9.8 0a4 4 0 0 1-3.9-2.3 6 6 0 0 1-.5-2.6c0-1 .2-1.8.5-2.6a4 4 0 0 1 3.8-2.3 3.8 3.8 0 0 1 3.7 2.3c.3.7.4 1.5.4 2.4v.6h-7.6v-1.2h6.9l-.8 1.1v-.6a4.4 4.4 0 0 0-.3-1.8 2.4 2.4 0 0 0-2.3-1.5c-.5 0-1 .2-1.4.4-.4.3-.7.6-1 1.1-.2.5-.3 1.1-.3 1.8v.6c0 .7 0 1.3.3 1.8a2.6 2.6 0 0 0 2.5 1.5l1.1-.2c.4-.1.6-.3.8-.5l.5-.5v-.1h1.5a3.5 3.5 0 0 1-1.2 1.8l-1.2.6a5 5 0 0 1-1.5.2Zm6-.1v-9.6h1.6v1.5h.2c.2-.5.5-1 1-1.2a3.2 3.2 0 0 1 1.7-.4c1.1 0 2 .3 2.5.9.6.6.9 1.5.9 2.6v6.2H135v-5.8c0-.9-.2-1.5-.5-2-.4-.4-1-.6-1.7-.6-.5 0-1 .1-1.3.4-.4.2-.7.5-.9.9-.2.4-.3.9-.3 1.4v5.7h-1.5Zm13.7 0c-1 0-1.7-.2-2.1-.6-.5-.4-.7-1-.7-2v-5.7h-1.5v-1.3h1.5v-2.4h1.6v2.4h2v1.3h-2v5.4c0 .6.1 1 .3 1.2.2.3.6.4 1 .4a5.6 5.6 0 0 0 .8 0v1.2a13.4 13.4 0 0 1-1 .1Zm10.2.1c-.6 0-1.2 0-1.6-.3a2.8 2.8 0 0 1-1.2-1 2.7 2.7 0 0 1-.4-1.5c0-.6.1-1 .4-1.5.3-.4.7-.7 1.2-1a5.4 5.4 0 0 1 1.9-.3l3.5-.2v1.2l-3.3.2a2.9 2.9 0 0 0-1.6.5c-.4.2-.5.6-.5 1 0 .6.2 1 .5 1.2.4.3.9.4 1.4.4.5 0 1-.1 1.4-.3.4-.2.7-.5 1-.9.2-.3.3-.7.3-1.2v-3c0-.6-.2-1-.5-1.3-.4-.3-1-.5-1.6-.5-.6 0-1 .1-1.4.3-.4.2-.6.5-.8.9h-1.5c0-.5.3-1 .6-1.3a3.3 3.3 0 0 1 1.3-1 4.8 4.8 0 0 1 1.8-.2c.8 0 1.5 0 2 .3s1 .7 1.2 1.1c.3.5.5 1 .5 1.7v6.6h-1.6v-1.4h-.1a3.2 3.2 0 0 1-1.7 1.4 3.8 3.8 0 0 1-1.2.1Zm11 0a4 4 0 0 1-4-2.3 6 6 0 0 1-.5-2.6c0-1 .2-1.9.6-2.6a4 4 0 0 1 3.8-2.3c.8 0 1.4.1 2 .4a3.5 3.5 0 0 1 2 2.6H166a2.2 2.2 0 0 0-.8-1.2 2.6 2.6 0 0 0-1.7-.5 2.5 2.5 0 0 0-2.5 1.7 4.7 4.7 0 0 0-.3 1.9c0 .7.1 1.3.4 1.9.2.5.5 1 1 1.2.4.3.8.5 1.4.5.7 0 1.2-.2 1.6-.4.4-.3.7-.7.9-1.2v-.1h1.5a4 4 0 0 1-.7 1.6c-.3.5-.8.8-1.3 1a4.6 4.6 0 0 1-2 .4Zm9.4 0c-1 0-1.7-.3-2.2-.7-.4-.4-.6-1-.6-2v-5.7h-1.5v-1.3h1.5v-2.4h1.6v2.4h2v1.3h-2v5.4c0 .6 0 1 .3 1.2.2.3.5.4 1 .4a5.6 5.6 0 0 0 .7 0v1.2a13.1 13.1 0 0 1-.8.1Zm2.8-.1v-9.6h1.6v9.6h-1.6Zm.8-11.4a1 1 0 0 1-1-1 1 1 0 0 1 1-1.1c.3 0 .6 0 .8.3.2.2.3.4.3.7a1 1 0 0 1-1 1Zm6 11.4-3.5-9.6h1.6l2.6 7.9h.2l2.6-7.9h1.6l-3.5 9.6h-1.6Zm6.8 0v-9.6h1.6v9.6h-1.6Zm.8-11.4a1 1 0 0 1-1-1c0-.4 0-.6.2-.8.3-.2.5-.3.8-.3.3 0 .6 0 .8.3.2.2.3.4.3.7a1 1 0 0 1-1.1 1Zm6.7 11.4c-1 0-1.7-.2-2.1-.6-.5-.4-.7-1-.7-2v-5.7h-1.5v-1.3h1.5v-2.4h1.6v2.4h2v1.3h-2v5.4c0 .6.1 1 .3 1.2.2.3.6.4 1 .4a5.7 5.7 0 0 0 .8 0v1.2a13.8 13.8 0 0 1-1 .1Zm3.6 3.3a3.5 3.5 0 0 1-.6 0V482a5.2 5.2 0 0 0 .6 0c.4 0 .8 0 1-.3.4-.2.6-.6.8-1.2l.1-.5-3.5-9.6h1.6l3 8.8-.6-1h.7l-.6 1 3-8.8h1.5l-3.7 10.2a7.2 7.2 0 0 1-.8 1.6c-.3.4-.6.7-1 .9l-1.5.2Z"/><path stroke="#7F7F7F" stroke-linecap="round" stroke-linejoin="round" stroke-width="1.5" d="m354.6 480 6.8-6.7-6.8-6.8"/><path fill="#fff" d="M389.7 506.1H27.5v81.5h362.2v-81.5Z"/><path fill="#3D3D3D" d="M53.1 564.2a8.9 8.9 0 0 1-3.3-.6 5.2 5.2 0 0 1-2.2-1.6 4.5 4.5 0 0 1-.9-2.5v-.1h3.2c0 .5.2.8.5 1.1.3.3.7.6 1.2.7.5.2 1 .3 1.6.3.6 0 1.1-.1 1.6-.3.4-.2.8-.4 1-.7.3-.3.4-.7.4-1 0-.6-.2-1-.6-1.4a5.5 5.5 0 0 0-2.1-.7l-1.7-.4a7 7 0 0 1-3.6-1.6 4 4 0 0 1-1.2-3c0-1 .3-1.9.8-2.6a5.1 5.1 0 0 1 2.2-1.7c.9-.4 2-.6 3.1-.6 1.3 0 2.3.2 3.2.6.9.4 1.6 1 2 1.6.6.7.9 1.5 1 2.4v.2H56v-.2c0-.4-.2-.7-.5-1a2.6 2.6 0 0 0-1-.6 4 4 0 0 0-1.5-.3c-.5 0-1 0-1.4.2-.4.2-.8.4-1 .7a1.6 1.6 0 0 0-.3 1c0 .6.2 1 .6 1.3.4.3 1.1.6 2 .8l1.7.3c1.1.3 2 .6 2.8 1s1.2.8 1.5 1.4c.4.6.5 1.3.5 2.2 0 1-.2 2-.7 2.7a5 5 0 0 1-2.2 1.8 8.6 8.6 0 0 1-3.5.6ZM65 564c-.8 0-1.5-.1-2.1-.4a3.4 3.4 0 0 1-1.9-3.2c0-.8.2-1.4.5-2 .4-.4 1-.9 1.6-1.1.7-.3 1.6-.5 2.6-.6l4.5-.3v2l-4 .3a2.8 2.8 0 0 0-1.5.4c-.4.3-.5.6-.5 1v.1c0 .4.1.8.5 1 .3.3.8.5 1.3.5s1-.1 1.4-.3l.9-.8a2 2 0 0 0 .3-1.2v-3.8c0-.5-.2-1-.5-1.2-.3-.3-.8-.5-1.5-.5-.6 0-1 .1-1.4.4-.4.2-.6.5-.7.8h-3c0-.7.3-1.4.8-2A4.4 4.4 0 0 1 64 552c.8-.3 1.6-.4 2.7-.4 1 0 2 .1 2.7.5a4 4 0 0 1 1.7 1.4c.4.6.6 1.3.6 2.2v8.2h-3.2v-1.6h-.2a3.3 3.3 0 0 1-2 1.6 4.9 4.9 0 0 1-1.4.2Zm10.1-.2v-9.6h-1.9v-2.5h2v-1c0-.9 0-1.5.4-2 .2-.6.7-1 1.3-1.3a6 6 0 0 1 2.3-.4 8.5 8.5 0 0 1 1.7.2v2.1a5.6 5.6 0 0 0-1 0c-.5 0-1 .1-1.2.4-.3.2-.4.6-.4 1.1v1h2.5v2.4h-2.4v9.6H75Zm10.5.2c-.8 0-1.5-.1-2-.4a3.4 3.4 0 0 1-2-3.2c0-.8.2-1.4.6-2 .3-.4.9-.9 1.6-1.1a7.9 7.9 0 0 1 2.5-.6l4.6-.3v2l-4.1.3a2.8 2.8 0 0 0-1.5.4c-.4.3-.5.6-.5 1v.1c0 .4.1.8.5 1 .3.3.8.5 1.4.5.5 0 .9-.1 1.3-.3.4-.2.7-.5.9-.8a2 2 0 0 0 .3-1.2v-3.8c0-.5-.1-1-.5-1.2-.3-.3-.8-.5-1.5-.5-.6 0-1 .1-1.4.4-.4.2-.6.5-.7.8h-3c0-.7.4-1.4.8-2a4.4 4.4 0 0 1 1.8-1.2c.8-.3 1.7-.4 2.7-.4 1 0 2 .1 2.7.5.8.3 1.4.8 1.8 1.4.4.6.6 1.3.6 2.2v8.2h-3.2v-1.6H89l-.8 1-1.2.6a4.9 4.9 0 0 1-1.5.2Zm9.2-.2v-12H98v1.9h.1c.2-.7.6-1.2 1.1-1.6a3.2 3.2 0 0 1 2-.6 4.2 4.2 0 0 1 1 .2v2.8l-.6-.1a4.7 4.7 0 0 0-.8 0c-.6 0-1 0-1.5.2-.4.3-.8.6-1 1a3 3 0 0 0-.3 1.5v6.7h-3.3Zm9 0v-12h3.3v12h-3.3Zm1.6-13.9c-.4 0-.9-.1-1.2-.5a1.7 1.7 0 0 1-.5-1.2c0-.5.1-1 .5-1.3.3-.3.8-.5 1.2-.5.5 0 1 .2 1.3.5s.5.8.5 1.3-.1.9-.5 1.2c-.3.4-.8.5-1.3.5Zm9.2 18v-16.2h3.2v2h.2a3.5 3.5 0 0 1 2-2l1.6-.2a4.5 4.5 0 0 1 4.3 3c.4.9.6 2 .6 3.3 0 1.3-.2 2.4-.6 3.3-.4 1-1 1.7-1.7 2.2-.7.5-1.6.7-2.6.7-.6 0-1 0-1.6-.2a3.6 3.6 0 0 1-2-2h-.2v6h-3.2Zm5.9-6.5c.6 0 1-.2 1.5-.5a3 3 0 0 0 .9-1.2 5 5 0 0 0 .3-2 5 5 0 0 0-.3-1.9 2.5 2.5 0 0 0-2.4-1.6c-.6 0-1 .1-1.5.4-.4.3-.7.7-1 1.3a5 5 0 0 0-.2 1.9c0 .7 0 1.4.3 1.9.2.5.5 1 1 1.2.4.3.8.5 1.4.5Zm8 2.4v-12h3.1v1.9h.2c.2-.7.6-1.2 1-1.6a3.2 3.2 0 0 1 2-.6 4.2 4.2 0 0 1 1.1.2v2.8l-.7-.1a4.7 4.7 0 0 0-.7 0c-.6 0-1 0-1.5.2-.4.3-.8.6-1 1a3 3 0 0 0-.4 1.5v6.7h-3.2Zm14 .3c-1.3 0-2.3-.3-3.2-.8a5 5 0 0 1-2-2.1 7.4 7.4 0 0 1-.8-3.4c0-1.3.3-2.5.7-3.4a5 5 0 0 1 2.1-2.2 6.3 6.3 0 0 1 3.2-.7c1.2 0 2.3.2 3.2.7a5 5 0 0 1 2 2.2c.5 1 .7 2 .7 3.4 0 1.3-.2 2.4-.7 3.4a5 5 0 0 1-2 2.1c-1 .5-2 .8-3.2.8Zm0-2.6c.5 0 1-.1 1.4-.4.4-.3.7-.7 1-1.3l.2-2c0-.8 0-1.5-.3-2a2.8 2.8 0 0 0-.9-1.3 2.3 2.3 0 0 0-1.4-.5 2.3 2.3 0 0 0-1.5.5c-.4.3-.7.7-.9 1.2a5.7 5.7 0 0 0-.3 2c0 .9.1 1.5.3 2.1.2.6.5 1 1 1.3.3.3.8.4 1.4.4Zm12.8 2.4c-1.4 0-2.5-.3-3.1-.8-.7-.5-1-1.4-1-2.6v-6.3h-1.8v-2.5h1.8v-2.9h3.3v3h2.4v2.4h-2.4v5.7c0 .5 0 1 .3 1.2s.7.3 1.2.3a8.6 8.6 0 0 0 .9 0v2.4a8.4 8.4 0 0 1-1.6.1Zm8.8.2a6.3 6.3 0 0 1-3.2-.8 5.2 5.2 0 0 1-2-2.2 7.4 7.4 0 0 1-.7-3.3c0-1.3.2-2.4.7-3.3a5.3 5.3 0 0 1 2-2.3c.9-.5 2-.7 3-.7a6 6 0 0 1 3.1.7 5 5 0 0 1 2 2.1c.5 1 .7 2 .7 3.2v1h-10v-2h8.5l-1.6 2V557c0-.7 0-1.3-.3-1.8a2.4 2.4 0 0 0-1-1c-.3-.3-.7-.4-1.3-.4-.5 0-1 .1-1.3.4-.4.2-.7.6-1 1a4.2 4.2 0 0 0-.3 1.9v1.2c0 .7 0 1.3.3 1.8a2.5 2.5 0 0 0 2.5 1.5 3 3 0 0 0 2-.7l.4-.6h3a4.6 4.6 0 0 1-3.2 3.3c-.6.3-1.4.4-2.3.4Zm12.9 0a6.5 6.5 0 0 1-3.2-.8 5 5 0 0 1-2-2.1 7.7 7.7 0 0 1-.8-3.4c0-1.4.3-2.5.7-3.4a5 5 0 0 1 2-2.2c1-.5 2-.7 3.3-.7 1 0 2 .2 2.7.5a4.6 4.6 0 0 1 2.7 4h-3a2.4 2.4 0 0 0-.8-1.4c-.4-.4-1-.6-1.6-.6-.6 0-1 .2-1.5.5-.4.2-.7.7-.9 1.2-.2.6-.3 1.3-.3 2 0 .9.1 1.6.3 2.1.2.6.5 1 1 1.3.3.3.8.4 1.4.4a2.4 2.4 0 0 0 1.6-.4c.4-.4.6-.8.8-1.4h3a4.5 4.5 0 0 1-2.7 3.8c-.8.4-1.7.6-2.7.6Zm12.2-.2c-1.4 0-2.5-.3-3.1-.8-.7-.5-1-1.4-1-2.6v-6.3h-1.8v-2.5h1.8v-2.9h3.3v3h2.4v2.4h-2.4v5.7c0 .5.1 1 .3 1.2s.7.3 1.2.3a8.6 8.6 0 0 0 1 0v2.4a8.4 8.4 0 0 1-1.7.1Zm3.6 0v-12.2h3.2v12.1h-3.2Zm1.6-14c-.5 0-.9-.1-1.2-.5a1.7 1.7 0 0 1-.6-1.2c0-.5.2-1 .6-1.3.3-.3.7-.5 1.2-.5s1 .2 1.3.5c.3.4.5.8.5 1.3s-.2.9-.5 1.2c-.3.4-.8.5-1.3.5Zm9.5 14.2c-1.2 0-2.3-.3-3.2-.8a5 5 0 0 1-2-2.1 7.4 7.4 0 0 1-.7-3.4c0-1.3.2-2.5.7-3.4a5.1 5.1 0 0 1 2-2.2 6.3 6.3 0 0 1 3.2-.7c1.3 0 2.3.2 3.2.7a5 5 0 0 1 2 2.2c.6 1 .8 2 .8 3.4 0 1.3-.3 2.4-.7 3.4a5 5 0 0 1-2 2.1c-1 .5-2 .8-3.3.8Zm0-2.6c.6 0 1-.1 1.5-.4.4-.3.7-.7.9-1.3.2-.6.3-1.2.3-2s-.1-1.5-.3-2a2.8 2.8 0 0 0-1-1.3c-.3-.3-.8-.5-1.4-.5a2.3 2.3 0 0 0-1.4.5c-.4.3-.7.7-1 1.2a5.7 5.7 0 0 0-.2 2c0 .9 0 1.5.3 2.1.2.6.5 1 .9 1.3.4.3.9.4 1.4.4Zm7.9 2.3v-12h3.2v1.8h.2c.3-.6.7-1.2 1.3-1.6a4 4 0 0 1 2.2-.5c1.3 0 2.4.4 3 1.2.8.7 1.2 1.9 1.2 3.3v7.8h-3.3v-7c0-1-.2-1.6-.5-2-.4-.4-1-.7-1.7-.7-.5 0-1 .2-1.3.4-.3.2-.6.5-.8 1-.2.3-.3.8-.3 1.3v7h-3.2Z"/></g></g><defs><linearGradient id="d" x1="4.5" x2="4.5" y1="1.9" y2="830.1" gradientUnits="userSpaceOnUse"><stop stop-color="#C9C6C8"/><stop offset="0" stop-color="#716D6D"/><stop offset=".1" stop-color="#C9C6C8"/><stop offset=".9" stop-color="#C9C6C8"/><stop offset="1" stop-color="#716D6D"/><stop offset="1" stop-color="#C9C6C8"/></linearGradient><linearGradient id="e" x1="195.1" x2="195.1" y1="6.1" y2="58.6" gradientUnits="userSpaceOnUse"><stop stop-opacity=".9"/><stop offset="1" stop-opacity="0"/></linearGradient><linearGradient id="f" x1="222.4" x2="222.4" y1="825.9" y2="768" gradientUnits="userSpaceOnUse"><stop stop-opacity=".9"/><stop offset="1" stop-opacity="0"/></linearGradient><linearGradient id="g" x1="194.8" x2="194.8" y1="9" y2="61.1" gradientUnits="userSpaceOnUse"><stop stop-opacity=".5"/><stop offset="1" stop-opacity="0"/></linearGradient><linearGradient id="h" x1="222.5" x2="222.5" y1="822.4" y2="764.9" gradientUnits="userSpaceOnUse"><stop stop-opacity=".5"/><stop offset="1" stop-opacity="0"/></linearGradient><linearGradient id="i" x1="8.7" x2="8.7" y1="6.1" y2="825.9" gradientUnits="userSpaceOnUse"><stop stop-color="#5F5F5F"/><stop offset="0" stop-color="#222"/><stop offset="1" stop-color="#252525"/></linearGradient><linearGradient id="j" x1="12.8" x2="12.8" y1="10" y2="821.4" gradientUnits="userSpaceOnUse"><stop stop-color="#6D6D6D"/><stop offset="0"/><stop offset="1"/><stop offset="1" stop-color="#5C5C5C"/></linearGradient><filter id="c" width="407" height="828.1" x="4.5" y="1.9" color-interpolation-filters="sRGB" filterUnits="userSpaceOnUse"><feFlood flood-opacity="0" result="BackgroundImageFix"/><feBlend in="SourceGraphic" in2="BackgroundImageFix" result="shape"/><feColorMatrix in="SourceAlpha" result="hardAlpha" values="0 0 0 0 0 0 0 0 0 0 0 0 0 0 0 0 0 0 127 0"/><feOffset/><feGaussianBlur stdDeviation="4"/><feComposite in2="hardAlpha" k2="-1" k3="1" operator="arithmetic"/><feColorMatrix values="0 0 0 0 0 0 0 0 0 0 0 0 0 0 0 0 0 0 0.6 0"/><feBlend in2="shape" result="effect1_innerShadow_1_8019"/></filter><filter id="n" width="50.1" height="6.8" x="183.1" y="29.9" color-interpolation-filters="sRGB" filterUnits="userSpaceOnUse"><feFlood flood-opacity="0" result="BackgroundImageFix"/><feBlend in="SourceGraphic" in2="BackgroundImageFix" result="shape"/><feColorMatrix in="SourceAlpha" result="hardAlpha" values="0 0 0 0 0 0 0 0 0 0 0 0 0 0 0 0 0 0 127 0"/><feOffset/><feGaussianBlur stdDeviation="2"/><feComposite in2="hardAlpha" k2="-1" k3="1" operator="arithmetic"/><feColorMatrix values="0 0 0 0 0 0 0 0 0 0 0 0 0 0 0 0 0 0 0.795035 0"/><feBlend in2="shape" result="effect1_innerShadow_1_8019"/><feColorMatrix in="SourceAlpha" result="hardAlpha" values="0 0 0 0 0 0 0 0 0 0 0 0 0 0 0 0 0 0 127 0"/><feOffset dy="-4"/><feComposite in2="hardAlpha" k2="-1" k3="1" operator="arithmetic"/><feColorMatrix values="0 0 0 0 0 0 0 0 0 0 0 0 0 0 0 0 0 0 0.80013 0"/><feBlend in2="effect1_innerShadow_1_8019" result="effect2_innerShadow_1_8019"/><feColorMatrix in="SourceAlpha" result="hardAlpha" values="0 0 0 0 0 0 0 0 0 0 0 0 0 0 0 0 0 0 127 0"/><feOffset dy="-2"/><feComposite in2="hardAlpha" k2="-1" k3="1" operator="arithmetic"/><feColorMatrix values="0 0 0 0 1 0 0 0 0 1 0 0 0 0 1 0 0 0 0.197067 0"/><feBlend in2="effect2_innerShadow_1_8019" result="effect3_innerShadow_1_8019"/></filter><filter id="q" width="16.4" height="16.4" x="244" y="24.9" color-interpolation-filters="sRGB" filterUnits="userSpaceOnUse"><feFlood flood-opacity="0" result="BackgroundImageFix"/><feColorMatrix in="SourceAlpha" result="hardAlpha" values="0 0 0 0 0 0 0 0 0 0 0 0 0 0 0 0 0 0 127 0"/><feOffset/><feGaussianBlur stdDeviation="2.5"/><feColorMatrix values="0 0 0 0 0 0 0 0 0 0 0 0 0 0 0 0 0 0 0.4 0"/><feBlend in2="BackgroundImageFix" result="effect1_dropShadow_1_8019"/><feColorMatrix in="SourceAlpha" result="hardAlpha" values="0 0 0 0 0 0 0 0 0 0 0 0 0 0 0 0 0 0 127 0"/><feOffset/><feColorMatrix values="0 0 0 0 0 0 0 0 0 0 0 0 0 0 0 0 0 0 1 0"/><feBlend in2="effect1_dropShadow_1_8019" result="effect2_dropShadow_1_8019"/><feBlend in="SourceGraphic" in2="effect2_dropShadow_1_8019" result="shape"/></filter><filter id="t" width="17.8" height="27.4" x="235.7" y="17.8" color-interpolation-filters="sRGB" filterUnits="userSpaceOnUse"><feFlood flood-opacity="0" result="BackgroundImageFix"/><feBlend in="SourceGraphic" in2="BackgroundImageFix" result="shape"/><feGaussianBlur result="effect1_foregroundBlur_1_8019" stdDeviation="2.7"/></filter><filter id="u" width="14.7" height="15.7" x="247.4" y="24.4" color-interpolation-filters="sRGB" filterUnits="userSpaceOnUse"><feFlood flood-opacity="0" result="BackgroundImageFix"/><feBlend in="SourceGraphic" in2="BackgroundImageFix" result="shape"/><feGaussianBlur result="effect1_foregroundBlur_1_8019" stdDeviation="2.7"/></filter><filter id="v" width="13.8" height="12.1" x="246" y="29.5" color-interpolation-filters="sRGB" filterUnits="userSpaceOnUse"><feFlood flood-opacity="0" result="BackgroundImageFix"/><feBlend in="SourceGraphic" in2="BackgroundImageFix" result="shape"/><feGaussianBlur result="effect1_foregroundBlur_1_8019" stdDeviation="2"/></filter><clipPath id="a"><path fill="#fff" d="M0 0h416v576H0z"/></clipPath><clipPath id="b"><path fill="#fff" d="M2.6 0h410.8v832H2.6z"/></clipPath><clipPath id="l"><path fill="#fff" d="M183.1 29.9h50.1v6.7h-50z"/></clipPath><clipPath id="o"><path fill="#fff" d="M246 27h12.3v12.2H246z"/></clipPath><radialGradient id="k" cx="0" cy="0" r="1" gradientTransform="scale(82.5075 234.965) rotate(90 -.5 3)" gradientUnits="userSpaceOnUse"><stop stop-color="#fff" stop-opacity=".1"/><stop offset="1" stop-color="#fff" stop-opacity="0"/></radialGradient><radialGradient id="p" cx="0" cy="0" r="1" gradientTransform="rotate(45.2 78.3 335) scale(12.2877)" gradientUnits="userSpaceOnUse"><stop stop-color="#434343"/><stop offset="1" stop-color="#121212"/></radialGradient><radialGradient id="r" cx="0" cy="0" r="1" gradientTransform="rotate(90 111.2 141) scale(6.42471)" gradientUnits="userSpaceOnUse"><stop stop-color="#2A4893"/><stop offset="1" stop-color="#213054"/></radialGradient></defs></svg>