<svg xmlns="http://www.w3.org/2000/svg" width="416" height="576" fill="none"><g clip-path="url(#a)"><g clip-path="url(#b)"><path fill="#000" fill-rule="evenodd" d="M75.5 0h265c51 0 73 25.2 73 73v686c0 46.2-23.6 73-73 73h-265c-51 0-73-25.2-73-73V73c0-47.8 22-73 73-73Z" clip-rule="evenodd"/><g fill-rule="evenodd" clip-rule="evenodd" filter="url(#c)"><path fill="#C9C6C8" d="M75.5 2c-48.7 0-71 23-71 71v686c0 48 22.3 71 71 71h265c47.1 0 71-24.6 71-71V73c0-48-22.3-71-71-71h-265Z"/><path fill="url(#d)" d="M75.5 2c-48.7 0-71 23-71 71v686c0 48 22.3 71 71 71h265c47.1 0 71-24.6 71-71V73c0-48-22.3-71-71-71h-265Z"/></g><path fill="url(#e)" d="M410.6 776c-5 33.3-28.4 49.9-70 49.9H75.4c-42.5 0-65-15-70-48.2 7.7 29.4 29.8 44.7 70 44.7h265c39.4 0 62.4-16.7 70-46.5ZM340.5 6c41.8 0 64.1 14.5 69.6 46.5C402.3 24 380.2 9 340.5 9h-265C35.8 9 13.7 24 5.8 52.6c5.5-32 28-46.5 69.7-46.5h265Z"/><path fill="url(#f)" d="M410.6 776c-5 33.3-28.4 49.9-70 49.9H75.4c-42.5 0-65-15-70-48.2 7.7 29.4 29.8 44.7 70 44.7h265c39.4 0 62.4-16.7 70-46.5ZM340.5 6c41.8 0 64.1 14.5 69.6 46.5C402.3 24 380.2 9 340.5 9h-265C35.8 9 13.7 24 5.8 52.6c5.5-32 28-46.5 69.7-46.5h265Z"/><path fill="url(#g)" fill-rule="evenodd" d="M75.5 9h265c51 0 73 24.6 73 71.3V751c0 45-23.6 71.3-73 71.3h-265c-51 0-73-24.7-73-71.3V80.3c0-46.7 22-71.3 73-71.3Z" clip-rule="evenodd"/><path fill="url(#h)" fill-rule="evenodd" d="M75.5 9h265c51 0 73 24.6 73 71.3V751c0 45-23.6 71.3-73 71.3h-265c-51 0-73-24.7-73-71.3V80.3c0-46.7 22-71.3 73-71.3Z" clip-rule="evenodd"/><path fill="url(#i)" stroke="#000" stroke-width="3" d="M75.5 7.6h265c22.9 0 39 5.2 49.6 15.8 10.6 10.5 15.7 26.8 15.7 49.5v686.2c0 21.9-5.5 38.1-16.3 49-10.7 10.7-27 16.3-49 16.3h-265c-22.8 0-39-5.2-49.6-15.8-10.6-10.5-15.7-26.8-15.7-49.5V72.9c0-22.7 5.1-39 15.7-49.5C36.4 12.8 52.7 7.6 75.5 7.6Z"/><path fill="url(#j)" fill-rule="evenodd" d="M75.5 10h265c43.7 0 62.6 19 62.6 62.6v686.2c0 42-20.5 62.6-62.6 62.6h-265c-43.7 0-62.6-19-62.6-62.6V72.6C12.9 28.9 31.8 10 75.5 10Z" clip-rule="evenodd"/><path fill="url(#k)" fill-rule="evenodd" d="M75.5 10h265c43.7 0 62.6 19 62.6 62.6v686.2c0 42-20.5 62.6-62.6 62.6h-265c-43.7 0-62.6-19-62.6-62.6V72.6C12.9 28.9 31.8 10 75.5 10Z" clip-rule="evenodd"/><path fill="#000" d="M75.5 16.4c-40.2 0-56.2 16-56.2 56.2v686.2c0 40 16 56.2 56.2 56.2h265c38.5 0 56.2-17.7 56.2-56.2V72.6c0-40.1-16-56.2-56.2-56.2h-265Z"/></g><path fill="#000" d="M2.6 79.7h7v5.7h-7zm403.8 0h7v5.7h-7zM328 7V0h5.8v7z" opacity=".6"/><g clip-path="url(#l)" opacity=".8"><rect width="50.1" height="6.8" x="183.1" y="29.9" fill="#1D1C1C" rx="3.4"/><mask id="m" width="51" height="8" x="183" y="29" maskUnits="userSpaceOnUse" style="mask-type:luminance"><rect width="50.1" height="6.8" x="183.1" y="29.9" fill="#fff" rx="3.4"/></mask><g mask="url(#m)"><path fill="#000" fill-opacity=".1" d="M233.2 35.8h-50.1v-.4h50.1v.4Zm0-1.3h-50.1V34h50.1v.5Zm0-1.4h-50.1v-.5h50.1v.5Zm0-1.4h-50.1v-.4h50.1v.4Zm0-1.4h-50.1V30h50.1v.4Z"/><path fill="none" d="M233.2 36.8h-50.1v-.5h50.1v.5Zm0-1.4h-50.1V35h50.1v.4Zm0-1.3h-50.1v-.5h50.1v.4Zm0-1.4h-50.1v-.5h50.1v.5Zm0-1.4h-50.1v-.5h50.1v.5Z"/><path fill="#000" fill-opacity=".1" d="M184.2 37.2h-.6v-7.8h.6v7.8Zm1.6 0h-.6v-7.8h.6v7.8Zm1.6 0h-.5v-7.8h.5v7.8Zm1.6 0h-.5v-7.8h.5v7.8Zm1.6 0h-.5v-7.8h.5v7.8Zm1.6 0h-.5v-7.8h.5v7.8Zm1.6 0h-.5v-7.8h.5v7.8Zm1.6 0h-.5v-7.8h.5v7.8Zm1.6 0h-.5v-7.8h.5v7.8Zm1.7 0h-.6v-7.8h.6v7.8Zm1.6 0h-.6v-7.8h.6v7.8Zm1.6 0h-.6v-7.8h.6v7.8Zm1.6 0h-.6v-7.8h.6v7.8Zm1.6 0h-.5v-7.8h.5v7.8Zm1.6 0h-.5v-7.8h.5v7.8Zm1.6 0h-.5v-7.8h.5v7.8Zm1.6 0h-.5v-7.8h.5v7.8Zm1.6 0h-.5v-7.8h.5v7.8Zm1.6 0h-.5v-7.8h.5v7.8Zm1.6 0h-.5v-7.8h.5v7.8Zm1.7 0h-.6v-7.8h.6v7.8Zm1.6 0h-.6v-7.8h.6v7.8Zm1.6 0h-.6v-7.8h.6v7.8Zm1.6 0h-.6v-7.8h.6v7.8Zm1.6 0h-.5v-7.8h.5v7.8Zm1.6 0h-.5v-7.8h.5v7.8Zm1.6 0h-.5v-7.8h.5v7.8Zm1.6 0h-.5v-7.8h.5v7.8Zm1.6 0h-.5v-7.8h.5v7.8Zm1.6 0h-.5v-7.8h.5v7.8Zm1.6 0h-.5v-7.8h.5v7.8Z"/><path fill="none" d="M183.2 37.2h-.5v-7.8h.5v7.8Zm1.6 0h-.5v-7.8h.5v7.8Zm1.6 0h-.5v-7.8h.5v7.8Zm1.6 0h-.5v-7.8h.5v7.8Zm1.7 0h-.6v-7.8h.6v7.8Zm1.6 0h-.6v-7.8h.6v7.8Zm1.6 0h-.6v-7.8h.6v7.8Zm1.6 0h-.6v-7.8h.6v7.8Zm1.6 0h-.6v-7.8h.6v7.8Zm1.6 0h-.5v-7.8h.5v7.8Zm1.6 0h-.5v-7.8h.5v7.8Zm1.6 0h-.5v-7.8h.5v7.8Zm1.6 0h-.5v-7.8h.5v7.8Zm1.6 0h-.5v-7.8h.5v7.8Zm1.6 0h-.5v-7.8h.5v7.8Zm1.6 0h-.5v-7.8h.5v7.8Zm1.6 0h-.5v-7.8h.6v7.8Zm1.7 0h-.6v-7.8h.6v7.8Zm1.6 0h-.6v-7.8h.6v7.8Zm1.6 0h-.6v-7.8h.6v7.8Zm1.6 0h-.5v-7.8h.5v7.8Zm1.6 0h-.5v-7.8h.5v7.8Zm1.6 0h-.5v-7.8h.5v7.8Zm1.6 0h-.5v-7.8h.5v7.8Zm1.6 0h-.5v-7.8h.5v7.8Zm1.6 0h-.5v-7.8h.5v7.8Zm1.6 0h-.5v-7.8h.5v7.8Zm1.6 0h-.5v-7.8h.5v7.8Zm1.7 0h-.6v-7.8h.6v7.8Zm1.6 0h-.6v-7.8h.6v7.8Zm1.6 0h-.6v-7.8h.6v7.8Z"/></g><g filter="url(#n)" opacity=".2"><rect width="50.1" height="6.8" x="183.1" y="29.9" fill="none" rx="3.4"/></g></g><g clip-path="url(#o)"><path fill="url(#p)" fill-rule="evenodd" d="M252.2 39.2a6.1 6.1 0 1 0 0-12.2 6.1 6.1 0 0 0 0 12.2Z" clip-rule="evenodd"/><g filter="url(#q)" opacity=".4"><path fill="url(#r)" fill-rule="evenodd" d="M252.2 36.3a3.2 3.2 0 1 0 0-6.4 3.2 3.2 0 0 0 0 6.4Z" clip-rule="evenodd"/></g><mask id="s" width="8" height="8" x="248" y="29" maskUnits="userSpaceOnUse" style="mask-type:luminance"><path fill="#fff" fill-rule="evenodd" d="M252.2 36.3a3.2 3.2 0 1 0 0-6.4 3.2 3.2 0 0 0 0 6.4Z" clip-rule="evenodd"/></mask><g mask="url(#s)"><g filter="url(#t)"><path fill="#3E89CC" fill-rule="evenodd" d="M245.8 30.3c1-3.6 3.5-6.4 1.6-6.9-2-.4-2.4-.4-5.2 6.4-2.8 6.7.4 9.5 2.3 10 2 .5.5-6 1.4-9.5Z" clip-rule="evenodd"/></g><g filter="url(#u)"><path fill="#1C5894" fill-rule="evenodd" d="M254.7 34.7c1.1 0 2-1 2-2.4 0-1.3-.9-2.4-2-2.4s-1.9 1-1.9 2.4c0 1.3.9 2.4 2 2.4Z" clip-rule="evenodd"/></g><g filter="url(#v)"><path fill="#0A152B" fill-rule="evenodd" d="M253.4 37.4c1.5-.5 2.5-1.6 2.2-2.6-.3-1-1.7-1.5-3.3-1-1.5.4-2.5 1.6-2.2 2.6.3 1 1.7 1.4 3.3 1Z" clip-rule="evenodd"/></g></g></g><mask id="w" width="362" height="784" x="27" y="24" maskUnits="userSpaceOnUse" style="mask-type:luminance"><path fill="#fff" fill-rule="evenodd" d="M308.7 33v.4c0 9-6.8 20.3-22.5 20.3H130.1c-15.7 0-22.5-11.4-22.5-20.3v-.3c0-4.1 0-8.4-7.4-8.4H69.1c-26 0-41.8 15.8-41.8 41.8v699c0 26 15.7 41.8 41.8 41.8h277.8c26 0 41.8-15.8 41.8-41.8v-699c0-26-15.7-41.8-41.8-41.8h-30.8c-7.4 0-7.4 4.3-7.4 8.4Z" clip-rule="evenodd"/></mask><g mask="url(#w)"><mask id="x" width="363" height="949" x="27" y="23" maskUnits="userSpaceOnUse" style="mask-type:luminance"><path fill="#fff" d="M389.7 23.9H27.5v947.4h362.2V23.9Z"/></mask><g mask="url(#x)"><path fill="#1F1F1F" d="M389.7 23.9H27.5v947.4h362.2V23.9Z"/><path fill="silver" fill-rule="evenodd" d="M59.2 31.6c0-.4.2-.6.6-.6h1.6c.4 0 .6.2.6.6v9.6c0 .3-.2.5-.6.5h-1.6a.6.6 0 0 1-.6-.5v-9.7Zm-4.5 2.8c0-.3.2-.6.5-.6H57c.3 0 .6.3.6.6v6.8c0 .3-.3.5-.6.5h-1.7a.6.6 0 0 1-.5-.5v-6.8ZM50 36.6c0-.3.3-.5.6-.5h1.7c.3 0 .6.2.6.5v4.6c0 .3-.3.5-.6.5h-1.7a.6.6 0 0 1-.6-.5v-4.6ZM45.6 39c0-.3.3-.6.6-.6h1.7c.3 0 .5.3.5.6v2.3c0 .3-.2.5-.5.5h-1.7a.6.6 0 0 1-.6-.5v-2.3Z" clip-rule="evenodd"/><path stroke="silver" d="M344.4 31h19.3a2.3 2.3 0 0 1 2.2 2.3v6.2a2.3 2.3 0 0 1-2.2 2.2h-19.3a2.3 2.3 0 0 1-2.2-2.2v-6.3a2.3 2.3 0 0 1 2.2-2.2Z" opacity=".4"/><path fill="silver" d="M363.1 32.7H345c-.6 0-1.1.5-1.1 1.1V39c0 .6.5 1.1 1 1.1h18.2c.6 0 1.1-.5 1.1-1v-5.2c0-.6-.5-1.1-1.1-1.1Zm6.2 2.2a.8.8 0 0 0-1.7 0v2.9a.8.8 0 0 0 1.7 0v-2.9Z"/><path stroke="#67B279" stroke-linecap="round" stroke-linejoin="round" stroke-width="2" d="m201.8 146.2 6.8 6.8 9-11.4"/><path stroke="#67B279" stroke-linecap="round" stroke-linejoin="round" stroke-width="2" d="M208.6 128c-6.4 0-14 1.5-20.4 4.7 0 7 0 24.3 20.4 36 20.5-11.7 20.4-29 20.4-36-6.4-3.2-14-4.7-20.4-4.7Z" clip-rule="evenodd"/><path fill="#E4E4E4" d="M146.4 209.2V206h4.7c1.2 0 2-.3 2.7-.8.6-.6 1-1.5 1-2.6 0-1-.4-2-1-2.5a3.8 3.8 0 0 0-2.7-.9h-4.7v-3.1h5.7c1.4 0 2.5.2 3.5.8 1 .5 1.8 1.3 2.4 2.3.5 1 .8 2 .8 3.4 0 1.3-.3 2.5-.8 3.5a5.8 5.8 0 0 1-2.4 2.2c-1 .6-2.1.9-3.5.9h-5.7Zm-2 6v-19.1h4v19.1h-4Zm16.8 0v-14.3h3.8v2.4h.1c.3-.8.7-1.5 1.2-2a3.2 3.2 0 0 1 2.2-.7 5.1 5.1 0 0 1 1.1.2v3.4l-.6-.2a6 6 0 0 0-.8 0c-.7 0-1.2 0-1.7.3s-.8.6-1 1.1a3.8 3.8 0 0 0-.5 1.8v8h-3.8Zm16.4.3c-1.5 0-2.7-.3-3.8-.9a6 6 0 0 1-2.5-2.5 8.6 8.6 0 0 1-.8-4c0-1.6.3-3 .9-4a6.1 6.1 0 0 1 2.4-2.6c1-.6 2.3-.9 3.8-.9 1.4 0 2.6.3 3.7 1a6.1 6.1 0 0 1 2.4 2.5c.6 1 1 2.4 1 4 0 1.5-.4 2.9-1 4a6 6 0 0 1-2.4 2.5c-1 .6-2.3.9-3.7.9Zm0-3c.6 0 1.2-.2 1.6-.6a3.2 3.2 0 0 0 1.1-1.5c.3-.6.4-1.4.4-2.3 0-1-.1-1.8-.4-2.4a3.3 3.3 0 0 0-1-1.5 2.7 2.7 0 0 0-1.7-.5c-.7 0-1.2.1-1.7.5a3.3 3.3 0 0 0-1 1.5 6.4 6.4 0 0 0-.5 2.3c0 1 .2 1.8.4 2.4a3.3 3.3 0 0 0 1.1 1.5c.5.4 1 .6 1.7.6Zm15 3c-1.6 0-2.8-.4-3.5-1-.8-.7-1.2-1.8-1.2-3.3v-7.4h-2V201h2v-3.5h4v3.5h2.6v3h-2.7v6.8c0 .7.2 1.2.5 1.4.3.3.7.4 1.3.4h.9v2.8a9.9 9.9 0 0 1-1.9.1Zm10.6 0c-1.4 0-2.7-.3-3.7-.9a6 6 0 0 1-2.5-2.6 8.6 8.6 0 0 1-.8-4c0-1.5.3-2.8.8-3.9a6.2 6.2 0 0 1 2.4-2.6 7 7 0 0 1 3.7-.9 7 7 0 0 1 3.6 1 6 6 0 0 1 2.3 2.4 8 8 0 0 1 .9 3.8v1.2H198v-2.5h9.9l-1.8 2.3v-1.5a5.1 5.1 0 0 0-.4-2c-.3-.7-.6-1-1-1.4a3 3 0 0 0-1.7-.4 3 3 0 0 0-1.6.4 3 3 0 0 0-1.1 1.3 5 5 0 0 0-.4 2.1v1.5c0 .8.1 1.5.4 2 .3.6.6 1 1.1 1.4.5.3 1.1.4 1.8.4.5 0 1 0 1.4-.2a3 3 0 0 0 1-.7l.4-.7v-.1h3.6v.1a5.4 5.4 0 0 1-1.9 3c-.5.5-1.2.8-2 1a8 8 0 0 1-2.6.5Zm15.4 0c-1.4 0-2.7-.3-3.7-.9a6 6 0 0 1-2.5-2.6 8.7 8.7 0 0 1-.8-4c0-1.5.3-2.8.8-4a6 6 0 0 1 2.5-2.5c1-.6 2.3-.9 3.7-.9 1.3 0 2.4.2 3.3.7a5.5 5.5 0 0 1 3.2 4.7v.1h-3.6a3 3 0 0 0-1-1.8 2.6 2.6 0 0 0-1.9-.7c-.6 0-1.2.2-1.6.6a3.3 3.3 0 0 0-1.1 1.5 6.7 6.7 0 0 0-.4 2.3c0 1 .1 1.8.4 2.5a3.3 3.3 0 0 0 1 1.5c.5.3 1.1.5 1.7.5a2.7 2.7 0 0 0 2-.7c.4-.4.7-1 .8-1.7v-.1h3.7a5.6 5.6 0 0 1-3.2 4.8c-.9.5-2 .7-3.3.7Zm14.4 0c-1.6 0-2.8-.4-3.6-1-.7-.7-1.1-1.8-1.1-3.3v-7.4h-2V201h2v-3.5h3.9v3.5h2.7v3h-2.7v6.8c0 .7.1 1.2.4 1.4.3.3.8.4 1.4.4h.9v2.8a10 10 0 0 1-2 .1Zm4.3-.3v-14.3h4v14.3h-4Zm2-16.2a2 2 0 1 1 0-4c.6 0 1 .1 1.5.5.4.4.6 1 .6 1.5s-.2 1-.6 1.4a2 2 0 0 1-1.5.6Zm11.3 16.5c-1.4 0-2.7-.3-3.7-.9a6 6 0 0 1-2.5-2.5 8.6 8.6 0 0 1-.8-4c0-1.6.3-3 .8-4a6.1 6.1 0 0 1 2.5-2.6c1-.6 2.3-.9 3.7-.9 1.5 0 2.7.3 3.8 1a6.1 6.1 0 0 1 2.4 2.5c.6 1 1 2.4 1 4 0 1.5-.4 2.9-1 4a6 6 0 0 1-2.4 2.5c-1 .6-2.3.9-3.8.9Zm0-3c.7 0 1.3-.2 1.7-.6.5-.3.8-.8 1-1.5a6.5 6.5 0 0 0 .5-2.3 6.5 6.5 0 0 0-.4-2.4 3.3 3.3 0 0 0-1.1-1.5 2.7 2.7 0 0 0-1.7-.5c-.6 0-1.1.1-1.6.5-.5.3-.9.8-1.1 1.5a6.4 6.4 0 0 0-.4 2.3c0 1 .1 1.8.4 2.4.2.7.6 1.2 1 1.5.6.4 1.1.6 1.8.6Zm9.4 2.7v-14.3h3.9v2.3a4.4 4.4 0 0 1 4.4-2.6c1.6 0 2.8.5 3.6 1.4.9 1 1.3 2.3 1.3 4v9.2h-3.9v-8.4a3.3 3.3 0 0 0-.6-2.2c-.4-.5-1.1-.8-2-.8-.6 0-1 .1-1.5.4a2.7 2.7 0 0 0-1 1.1 3.7 3.7 0 0 0-.3 1.7v8.2H260Z"/><path fill="#1F1F1F" d="M389.7 258.2H27.5v125.6h362.2V258.3Z"/><path stroke="#67B279" stroke-linecap="round" stroke-linejoin="round" stroke-width="1.5" d="M59.2 300.1a10.2 10.2 0 1 0 0-20.4 10.2 10.2 0 0 0 0 20.4Z"/><path stroke="#67B279" stroke-linecap="round" stroke-width="1.5" d="m55.8 293.3 6.8-6.8m-4.5 2.3 2.2 2.2m-.5-2.8 1 1.1m-3.3 1.2 1.1 1.1"/><path fill="#E4E4E4" d="M92.2 297a6.1 6.1 0 0 1-2.5-.5 4.1 4.1 0 0 1-1.6-1.2 3.6 3.6 0 0 1-.7-1.8v-.1H89c0 .5.2.9.5 1.2.2.3.6.5 1.1.7a5 5 0 0 0 3.2 0c.4-.2.8-.5 1-.8.3-.4.4-.7.4-1.2s-.2-1-.5-1.3a4 4 0 0 0-2-.8l-1.4-.3a5.6 5.6 0 0 1-2.8-1.4 3.1 3.1 0 0 1-.8-2.2c0-.8.2-1.4.6-2 .3-.5.9-.9 1.5-1.2a5.6 5.6 0 0 1 2.4-.5c.8 0 1.6.2 2.2.5a4 4 0 0 1 1.6 1.2c.4.5.6 1.1.6 1.7v.2H95v-.1a2 2 0 0 0-.4-1c-.3-.3-.6-.6-1-.7-.4-.2-1-.3-1.5-.3s-1 0-1.4.3c-.4.1-.8.4-1 .7-.3.3-.4.7-.4 1.1 0 .5.2 1 .6 1.3.4.3 1 .6 1.8.8l1.5.3c.9.2 1.6.5 2.1.8a3 3 0 0 1 1.2 1.1c.2.5.4 1 .4 1.6 0 .8-.2 1.5-.6 2a3.8 3.8 0 0 1-1.7 1.4 6.1 6.1 0 0 1-2.4.5Zm9.4-.1c-.6 0-1.1-.1-1.6-.4a2.8 2.8 0 0 1-1.2-1 2.7 2.7 0 0 1-.4-1.5c0-.5.1-1 .4-1.4.3-.4.7-.8 1.2-1a5.4 5.4 0 0 1 1.9-.4l3.5-.2v1.2l-3.3.2a2.9 2.9 0 0 0-1.6.5c-.3.2-.5.6-.5 1v.1c0 .5.2.9.5 1.1.4.3.9.4 1.4.4.5 0 1 0 1.4-.3l1-.8c.2-.4.3-.8.3-1.3v-3c0-.5-.2-1-.5-1.3-.4-.3-.9-.4-1.6-.4-.6 0-1 0-1.4.3-.4.2-.6.5-.7.8h-1.6c0-.5.3-1 .6-1.3.4-.4.8-.7 1.3-.9a4.9 4.9 0 0 1 1.8-.3c.8 0 1.5.1 2 .4.5.2 1 .6 1.2 1 .3.5.5 1.1.5 1.8v6.5h-1.6v-1.4h-.1a3.2 3.2 0 0 1-1.7 1.4 3.8 3.8 0 0 1-1.2.2Zm7.7-.2v-8.3h-1.6v-1.2h1.6V286c0-.6 0-1.2.3-1.6a2 2 0 0 1 1-.9c.3-.2.8-.3 1.4-.3a4.9 4.9 0 0 1 1 0v1.3h-.7c-.5 0-1 .1-1.2.4-.2.2-.3.6-.3 1.1v1h2.2v1.3h-2.2v8.3h-1.5Zm7.9.2c-.6 0-1.2-.1-1.6-.4a2.8 2.8 0 0 1-1.2-1 2.7 2.7 0 0 1-.4-1.5c0-.5.1-1 .4-1.4.3-.4.7-.8 1.2-1a5.4 5.4 0 0 1 1.9-.4l3.5-.2v1.2l-3.3.2a2.9 2.9 0 0 0-1.6.5c-.4.2-.5.6-.5 1v.1c0 .5.2.9.5 1.1.4.3.9.4 1.4.4.5 0 1 0 1.4-.3l1-.8c.2-.4.3-.8.3-1.3v-3c0-.5-.2-1-.5-1.3-.4-.3-1-.4-1.6-.4-.6 0-1 0-1.4.3-.4.2-.6.5-.8.8h-1.5c0-.5.3-1 .6-1.3a3.3 3.3 0 0 1 1.3-.9 4.9 4.9 0 0 1 1.8-.3c.8 0 1.5.1 2 .4.5.2 1 .6 1.2 1 .3.5.5 1.1.5 1.8v6.5h-1.6v-1.4h-.1a3.2 3.2 0 0 1-1.7 1.4 3.8 3.8 0 0 1-1.2.2Zm7-.2v-9.5h1.5v1.4h.2c.2-.5.5-1 1-1.2a3 3 0 0 1 1.5-.4 7 7 0 0 1 .8 0v1.5a4.4 4.4 0 0 0-1 0c-.4 0-.9 0-1.2.3-.4.1-.7.4-1 .8a2.3 2.3 0 0 0-.2 1.2v5.9h-1.6Zm6.6 0v-9.5h1.5v9.5h-1.5Zm.8-11.4a1 1 0 0 1-1-1c0-.3 0-.6.2-.8.2-.2.5-.3.8-.3.3 0 .5.1.7.3.2.2.3.5.3.8a1 1 0 0 1-1 1Zm8 14.6v-12.7h1.6v1.5h.1a3.2 3.2 0 0 1 1.7-1.5l1.3-.2c.8 0 1.5.2 2 .6.7.4 1.1 1 1.5 1.7.3.8.5 1.6.5 2.6s-.2 1.9-.5 2.6a4 4 0 0 1-1.4 1.7c-.6.5-1.3.7-2.1.7a3.5 3.5 0 0 1-2.3-.8l-.7-1h-.1v4.8h-1.6Zm4.3-4.4c.6 0 1.1-.1 1.5-.4.4-.3.8-.7 1-1.3.2-.5.3-1.1.3-1.9 0-.7-.1-1.4-.3-1.9a2.7 2.7 0 0 0-1-1.2 2.5 2.5 0 0 0-1.5-.4c-.5 0-1 .1-1.5.4-.4.3-.7.7-1 1.2a4.9 4.9 0 0 0-.3 2c0 .7.1 1.3.4 1.8.2.6.5 1 1 1.3.4.3.8.4 1.4.4Zm6.4 1.2v-9.5h1.6v1.4h.1c.2-.5.5-1 1-1.2.4-.3 1-.4 1.5-.4a7 7 0 0 1 .8 0v1.5a4.4 4.4 0 0 0-1 0c-.4 0-.8 0-1.2.3-.4.1-.7.4-1 .8a2.3 2.3 0 0 0-.2 1.2v5.9h-1.6Zm10.2.2c-.9 0-1.7-.2-2.3-.6a4 4 0 0 1-1.5-1.7 6 6 0 0 1-.6-2.7c0-1 .2-1.9.6-2.6a4 4 0 0 1 3.8-2.3c1 0 1.7.2 2.4.6a4 4 0 0 1 1.5 1.7c.3.7.5 1.6.5 2.6s-.2 2-.5 2.7a4 4 0 0 1-3.9 2.3Zm0-1.4c.6 0 1.1-.1 1.6-.4.4-.3.7-.7 1-1.2l.2-2c0-.7 0-1.4-.3-2a2.6 2.6 0 0 0-1-1.1 2.7 2.7 0 0 0-1.5-.4c-.6 0-1 .1-1.5.4-.4.3-.7.7-1 1.2a5 5 0 0 0-.3 2c0 .7.1 1.3.3 1.9.3.5.6.9 1 1.2.4.3 1 .4 1.5.4Zm9.8 1.3c-1 0-1.6-.2-2-.6-.5-.4-.7-1-.7-2v-5.8H166v-1.2h1.5v-2.5h1.6v2.5h2v1.2h-2v5.4c0 .6 0 1 .3 1.2.2.3.5.4 1 .4h.7v1.3a13.1 13.1 0 0 1-.9 0Zm6.6 0a4 4 0 0 1-3.8-2.2 6 6 0 0 1-.5-2.6c0-1 .2-1.9.5-2.6a4 4 0 0 1 3.8-2.4 4 4 0 0 1 2.2.6 4 4 0 0 1 1.4 1.7c.4.7.5 1.5.5 2.5v.6h-7.6V291h6.8l-.7 1.2v-.6c0-.8-.1-1.4-.4-1.9a2.4 2.4 0 0 0-2.3-1.4 2.5 2.5 0 0 0-2.3 1.5c-.2.4-.3 1-.3 1.8v.6c0 .6 0 1.2.3 1.7a2.6 2.6 0 0 0 2.5 1.5c.4 0 .8 0 1.1-.2l.8-.4.4-.6h1.6c0 .3-.2.6-.4 1l-.8.8a4.1 4.1 0 0 1-1.2.6 5 5 0 0 1-1.5.2Zm10 0a4 4 0 0 1-3.8-2.3 6 6 0 0 1-.5-2.6c0-1 .2-1.9.5-2.6a4 4 0 0 1 3.9-2.3c.7 0 1.4.1 2 .4a3.5 3.5 0 0 1 2 2.6h-1.6a2.2 2.2 0 0 0-.8-1.1 2.6 2.6 0 0 0-1.6-.5 2.5 2.5 0 0 0-2.5 1.6 4.7 4.7 0 0 0-.3 1.9c0 .7 0 1.4.3 2 .2.5.6.9 1 1.2.4.3.9.4 1.4.4.7 0 1.2-.1 1.6-.4.4-.3.7-.7.9-1.2h1.5a4 4 0 0 1-.7 1.5c-.3.5-.7.8-1.3 1-.5.3-1.2.5-2 .5Zm9.5 0c-1 0-1.7-.2-2.1-.6-.5-.4-.7-1-.7-2v-5.8h-1.5v-1.2h1.5v-2.5h1.6v2.5h2.1v1.2h-2v5.4c0 .6 0 1 .2 1.2.2.3.6.4 1 .4h.8v1.3a13.9 13.9 0 0 1-.9 0Zm2.9-.1v-9.5h1.5v9.5h-1.5Zm.8-11.4a1 1 0 0 1-1.1-1 1 1 0 0 1 1-1.1c.4 0 .6.1.8.3.2.2.3.5.3.8a1 1 0 0 1-1 1Zm7.2 11.6c-1 0-1.7-.2-2.4-.6a4 4 0 0 1-1.5-1.7 6 6 0 0 1-.5-2.7c0-1 .2-1.9.5-2.6a4 4 0 0 1 3.9-2.3c.9 0 1.7.2 2.3.6.7.4 1.2 1 1.5 1.7.4.7.6 1.6.6 2.6s-.2 2-.6 2.7a4 4 0 0 1-3.8 2.3Zm0-1.4c.6 0 1-.1 1.5-.4.4-.3.8-.7 1-1.2a5 5 0 0 0 .3-2 5 5 0 0 0-.3-2 2.6 2.6 0 0 0-1-1.1 2.7 2.7 0 0 0-1.5-.4c-.6 0-1.1.1-1.5.4-.5.3-.8.7-1 1.2a5 5 0 0 0-.3 2c0 .7 0 1.3.3 1.9.2.5.5.9 1 1.2.4.3.9.4 1.5.4Zm6.4 1.2v-9.5h1.6v1.4h.1c.2-.5.6-.9 1-1.2a3.2 3.2 0 0 1 1.8-.4c1 0 1.9.3 2.4 1 .6.5 1 1.4 1 2.5v6.2H220v-5.8c0-.9-.2-1.5-.6-2-.3-.3-.9-.5-1.7-.5-.5 0-.9 0-1.3.3-.3.2-.6.5-.8 1-.2.3-.3.8-.3 1.3v5.7h-1.6Z"/><path fill="silver" d="M88.5 320.5v-1.3h3.4c.9 0 1.5-.1 2-.5.4-.3.6-.8.6-1.4 0-.5-.1-.8-.3-1.1-.2-.3-.5-.5-1-.7l-1.4-.2h-3.3v-1.2h2.9a3.3 3.3 0 0 0 1.9-.4c.4-.3.6-.8.6-1.4 0-.6-.1-1-.5-1.3a2.5 2.5 0 0 0-1.6-.5h-3.3v-1.2H92c.6 0 1.2.1 1.7.3a2.6 2.6 0 0 1 1.6 2.5 2.5 2.5 0 0 1-1 2l-1 .4v.1c.5 0 1 .2 1.4.5.3.2.6.5.8 1 .2.3.3.7.3 1.2a3 3 0 0 1-.4 1.7c-.3.5-.8.8-1.3 1-.6.3-1.3.5-2 .5h-3.7Zm-.7 0v-11.2h1.4v11.2h-1.4Zm10.1 0v-11.7h1.4v11.7h-1.4Zm7.2.1a3.5 3.5 0 0 1-3.4-2 5.3 5.3 0 0 1-.4-2.3c0-1 .1-1.7.4-2.3.3-.7.8-1.2 1.4-1.5a4 4 0 0 1 2-.5c.8 0 1.5.1 2 .5.6.3 1 .8 1.4 1.5.3.6.5 1.4.5 2.3a5.2 5.2 0 0 1-.5 2.3 3.5 3.5 0 0 1-3.4 2Zm0-1.2c.5 0 1-.1 1.4-.4.3-.2.6-.6.8-1 .2-.5.3-1 .3-1.7s-.1-1.2-.3-1.7c-.2-.5-.5-.8-.8-1a2.3 2.3 0 0 0-1.4-.4c-.5 0-1 0-1.3.3-.4.3-.7.6-.9 1.1-.2.5-.3 1-.3 1.7s.1 1.2.3 1.7c.2.4.5.8.9 1 .3.3.8.4 1.3.4Zm9.2 1.2a3.5 3.5 0 0 1-3.4-2 5.2 5.2 0 0 1-.4-2.3c0-1 .1-1.7.4-2.3a3.5 3.5 0 0 1 3.4-2 4 4 0 0 1 1.7.3 3.1 3.1 0 0 1 1.8 2.3h-1.4a2 2 0 0 0-.7-1 2.3 2.3 0 0 0-1.4-.4 2.2 2.2 0 0 0-2.2 1.4 4 4 0 0 0-.3 1.7c0 .6.1 1.2.3 1.6.2.5.5.9.9 1.1.4.3.8.4 1.3.4a2.4 2.4 0 0 0 1.4-.3 2 2 0 0 0 .7-1.1h1.4l-.6 1.4a3 3 0 0 1-1.2.9 4 4 0 0 1-1.7.3Zm5.4-.1v-11.7h1.3v11.7h-1.3Zm5.2 0-3.3-4.1 1-.9 4 5h-1.7Zm-4-3-.1-1.7h.3l3.6-3.7h1.7l-4 3.8-.3.4-1.3 1.2Zm9.7 3.1c-.7 0-1.2 0-1.7-.3-.4-.2-.8-.4-1.1-.8a2.2 2.2 0 0 1-.5-1.2h1.4c0 .4.3.7.6.9.3.2.8.3 1.3.3.4 0 .7 0 1-.2.3 0 .5-.2.7-.4l.2-.7a1 1 0 0 0-.3-.7 2.6 2.6 0 0 0-1.1-.5l-1.3-.3a4.8 4.8 0 0 1-1.3-.5 2 2 0 0 1-.7-.8c-.2-.3-.3-.6-.3-1 0-.5.1-.9.4-1.2s.7-.7 1.1-1a4 4 0 0 1 1.6-.2c.6 0 1.1 0 1.6.3.4.1.8.4 1 .7l.6 1.2h-1.4c0-.3-.3-.6-.6-.8a2.2 2.2 0 0 0-1.2-.3c-.3 0-.6 0-.9.2-.2 0-.4.2-.6.4a1 1 0 0 0-.2.6l.1.6.5.3.8.3 1.3.3a4 4 0 0 1 1.7.8c.4.4.6.9.6 1.5 0 .5-.1 1-.4 1.3a3 3 0 0 1-1.2.9c-.5.2-1.1.3-1.7.3Zm11.8 0c-.5 0-1 0-1.4-.3-.4-.2-.8-.5-1-.9-.3-.3-.4-.8-.4-1.3a2.2 2.2 0 0 1 1.4-2c.5-.3 1-.4 1.7-.4l3-.2v1l-2.9.2c-.6 0-1 .2-1.4.4-.3.3-.4.6-.4 1s.2.8.5 1a2 2 0 0 0 1.2.3c.4 0 .8 0 1.2-.2.4-.2.6-.5.8-.8.2-.3.3-.7.3-1v-2.6c0-.6-.1-1-.4-1.2-.3-.3-.8-.4-1.4-.4-.5 0-1 0-1.3.2a1.3 1.3 0 0 0-.6.8h-1.4c.1-.5.3-.9.6-1.2a3 3 0 0 1 1.1-.7c.5-.2 1-.3 1.6-.3.7 0 1.3 0 1.7.3.5.2.9.5 1.1 1 .3.4.4.9.4 1.5v5.7H145v-1.3a2.8 2.8 0 0 1-2.6 1.4Zm9.4 0a3.2 3.2 0 0 1-3-2 5.6 5.6 0 0 1-.5-2.3c0-.9.1-1.6.4-2.3a3.2 3.2 0 0 1 3-2 3.1 3.1 0 0 1 2 .7l.7.7v-4.6h1.4v11.7h-1.3V319h-.1a2.8 2.8 0 0 1-1.6 1.3 3 3 0 0 1-1 .2Zm.3-1.2a2.2 2.2 0 0 0 2.1-1.4c.2-.5.3-1 .3-1.7s0-1.2-.3-1.7c-.2-.4-.4-.8-.8-1-.4-.3-.8-.4-1.3-.4a2.2 2.2 0 0 0-2.2 1.4c-.2.5-.3 1-.3 1.7 0 .6.1 1.2.3 1.7.2.4.5.8.9 1 .3.3.8.4 1.3.4Zm9 1.2c-.6 0-1.2 0-1.6-.3a2.9 2.9 0 0 1-1.2-.8 2.2 2.2 0 0 1-.5-1.2h1.4c.1.4.3.7.7.9.3.2.7.3 1.3.3.3 0 .7 0 1-.2.2 0 .5-.2.6-.4.2-.2.3-.5.3-.7a1 1 0 0 0-.4-.7l-1-.5-1.4-.3a4.8 4.8 0 0 1-1.3-.5 2 2 0 0 1-.7-.8c-.2-.3-.2-.6-.2-1 0-.5.1-.9.4-1.2a2.8 2.8 0 0 1 1-1 4 4 0 0 1 1.7-.2 4 4 0 0 1 1.5.3c.5.1.8.4 1.1.7.3.4.5.8.5 1.2H163c0-.3-.3-.6-.6-.8a2.2 2.2 0 0 0-1.2-.3c-.4 0-.7 0-1 .2-.2 0-.4.2-.5.4a1 1 0 0 0-.3.6l.2.6.4.3.8.3 1.3.3a4 4 0 0 1 1.8.8c.4.4.6.9.6 1.5 0 .5-.2 1-.5 1.3a3 3 0 0 1-1.2.9c-.5.2-1 .3-1.7.3Zm11.9 0c-.6 0-1 0-1.5-.3-.4-.2-.7-.5-1-.9-.2-.3-.3-.8-.3-1.3a2.2 2.2 0 0 1 1.4-2c.4-.3 1-.4 1.6-.4l3-.2v1l-2.8.2c-.7 0-1.1.2-1.4.4-.3.3-.5.6-.5 1s.2.8.5 1a2 2 0 0 0 1.2.3c.5 0 .9 0 1.3-.2l.8-.8c.2-.3.3-.7.3-1v-2.6c0-.6-.2-1-.5-1.2-.3-.3-.8-.4-1.4-.4-.5 0-.9 0-1.2.2-.3.2-.5.5-.6.8h-1.4c0-.5.3-.9.5-1.2a3 3 0 0 1 1.2-.7c.5-.2 1-.3 1.6-.3.7 0 1.2 0 1.7.3.5.2.8.5 1 1 .3.4.4.9.4 1.5v5.7h-1.3v-1.3h-.1a2.8 2.8 0 0 1-2.5 1.4Zm6.2-.1V312h1.4v1.3h.1c.2-.5.5-.8 1-1 .3-.3.8-.4 1.4-.4 1 0 1.7.2 2.2.8.5.5.8 1.3.8 2.3v5.4h-1.4v-5.1c0-.8-.2-1.3-.5-1.7-.3-.4-.8-.5-1.4-.5-.5 0-.9 0-1.2.3a2 2 0 0 0-.8.8l-.2 1.2v5h-1.4Zm12.2.1a3.2 3.2 0 0 1-3-2 5.5 5.5 0 0 1-.5-2.3c0-.9.1-1.6.4-2.3.3-.6.7-1.1 1.2-1.5a3.2 3.2 0 0 1 1.9-.5 3.1 3.1 0 0 1 2 .7l.6.7h.1v-4.6h1.4v11.7H194V319h-.1a2.8 2.8 0 0 1-2.6 1.5Zm.3-1.2a2.2 2.2 0 0 0 2.2-1.4c.2-.5.3-1 .3-1.7s-.1-1.2-.3-1.7c-.2-.4-.5-.8-.9-1-.4-.3-.8-.4-1.3-.4s-1 .1-1.3.3c-.4.3-.6.6-.8 1.1-.2.5-.3 1-.3 1.7 0 .6 0 1.2.3 1.7.2.4.4.8.8 1 .4.3.8.4 1.3.4Zm13.4 1.1c-.8 0-1.4-.2-1.8-.5-.4-.3-.6-1-.6-1.7v-5h-1.3V312h1.3V310h1.4v2.1h1.8v1.1h-1.8v4.8c0 .4 0 .8.3 1 .2.2.5.3.9.3a5 5 0 0 0 .6 0v1.1a8.6 8.6 0 0 1-.8.1Zm2.7 0V312h1.3v1.3h.1c.2-.5.5-.8.8-1 .4-.3.9-.4 1.5-.4a4.1 4.1 0 0 1 .6 0v1.3a3.7 3.7 0 0 0-.8 0c-.4 0-.8 0-1.1.2-.4.2-.6.4-.8.7a2 2 0 0 0-.3 1.1v5.2h-1.3Zm8.1.1c-.5 0-1 0-1.4-.3-.4-.2-.8-.5-1-.9-.3-.3-.4-.8-.4-1.3s.2-.9.4-1.3.6-.6 1-.8c.5-.2 1-.3 1.7-.3l3-.2v1l-2.9.2c-.6 0-1 .2-1.4.4-.3.3-.4.6-.4 1s.2.8.5 1a2 2 0 0 0 1.2.3c.5 0 .9 0 1.2-.2.4-.2.6-.5.9-.8.2-.3.3-.7.3-1v-2.6c0-.6-.2-1-.5-1.2-.3-.3-.8-.4-1.4-.4-.5 0-1 0-1.2.2-.4.2-.6.5-.7.8h-1.3c0-.5.2-.9.5-1.2a3 3 0 0 1 1.1-.7c.5-.2 1-.3 1.6-.3.7 0 1.3 0 1.8.3.4.2.8.5 1 1 .3.4.4.9.4 1.5v5.7h-1.3v-1.3h-.2a2.8 2.8 0 0 1-1.4 1.3l-1 .1Zm9.7 0c-.8 0-1.4-.2-2-.5a3.5 3.5 0 0 1-1.3-1.5 5.2 5.2 0 0 1-.5-2.3c0-1 .1-1.7.4-2.3a3.5 3.5 0 0 1 1.4-1.5 3.8 3.8 0 0 1 2-.5 4 4 0 0 1 1.7.3 3.1 3.1 0 0 1 1.8 2.3h-1.3a1.9 1.9 0 0 0-.7-1 2.3 2.3 0 0 0-1.5-.4 2.2 2.2 0 0 0-2.1 1.4 4 4 0 0 0-.3 1.7c0 .6 0 1.2.3 1.6.2.5.5.9.8 1.1.4.3.8.4 1.3.4a2.4 2.4 0 0 0 1.4-.3 2 2 0 0 0 .8-1.1h1.3c-.1.5-.3 1-.6 1.4a3 3 0 0 1-1.2.9 4 4 0 0 1-1.7.3Zm5.4-.1v-11.7h1.3v11.7H231Zm5.2 0-3.2-4.1 1-.9 4 5h-1.8Zm-4-3-.1-1.7h.3l3.6-3.7h1.7l-4 3.8-.3.4-1.3 1.2Zm10.1 3.1a3.5 3.5 0 0 1-3.3-2c-.3-.6-.5-1.4-.5-2.3 0-.8.2-1.6.5-2.3.3-.6.7-1.1 1.3-1.5a3.5 3.5 0 0 1 2-.5c.7 0 1.4.1 2 .5.5.4.9.8 1.2 1.5.3.6.4 1.3.4 2.1v.6h-6.7v-1h6l-.6.9v-.5c0-.7-.1-1.2-.3-1.7a2 2 0 0 0-2-1.2c-.5 0-.9 0-1.2.3-.4.2-.7.5-.9 1-.2.4-.3 1-.3 1.6v.5c0 .6.1 1 .3 1.5a2.2 2.2 0 0 0 2.2 1.3l1-.1.6-.4.4-.5h1.4l-.4.8a3.1 3.1 0 0 1-1.7 1.2l-1.4.2Zm5.5-.1V312h1.4v1.3h.1c.2-.5.4-.8.8-1 .4-.3.9-.4 1.4-.4a4.2 4.2 0 0 1 .7 0v1.3a3.8 3.8 0 0 0-.8 0c-.5 0-.8 0-1.2.2a2 2 0 0 0-.8.7l-.2 1.1v5.2h-1.4Zm8.6.1c-.6 0-1.2 0-1.6-.3-.5-.2-.9-.4-1.2-.8a2.2 2.2 0 0 1-.5-1.2h1.4c.1.4.3.7.7.9.3.2.7.3 1.3.3.3 0 .6 0 1-.2.2 0 .5-.2.6-.4.2-.2.3-.5.3-.7a1 1 0 0 0-.4-.7 2.6 2.6 0 0 0-1-.5l-1.4-.3a4.8 4.8 0 0 1-1.3-.5 2 2 0 0 1-.7-.8c-.2-.3-.2-.6-.2-1 0-.5 0-.9.4-1.2a2.8 2.8 0 0 1 1-1 4 4 0 0 1 1.7-.2 4 4 0 0 1 1.5.3c.5.1.8.4 1.1.7.3.4.4.8.5 1.2h-1.3c-.1-.3-.3-.6-.6-.8a2.2 2.2 0 0 0-1.2-.3c-.4 0-.7 0-1 .2-.2 0-.4.2-.5.4a1 1 0 0 0-.3.6c0 .2 0 .4.2.6l.4.3.8.3 1.3.3a4 4 0 0 1 1.8.8c.3.4.5.9.5 1.5 0 .5-.1 1-.4 1.3a3 3 0 0 1-1.2.9c-.5.2-1 .3-1.7.3ZM91 341a4 4 0 0 1-2-.5 3.5 3.5 0 0 1-1.3-1.5 5.3 5.3 0 0 1-.5-2.3c0-1 .1-1.7.5-2.3.3-.7.7-1.2 1.3-1.5a4 4 0 0 1 2-.5c.8 0 1.5.1 2 .5a3.4 3.4 0 0 1 1.4 1.5c.3.6.5 1.4.5 2.3a5.2 5.2 0 0 1-.5 2.3 3.5 3.5 0 0 1-3.4 2Zm0-1.2c.6 0 1-.1 1.4-.4.3-.2.6-.6.8-1 .2-.5.3-1 .3-1.7s0-1.2-.3-1.7c-.2-.5-.5-.8-.8-1a2.3 2.3 0 0 0-1.4-.4A2.3 2.3 0 0 0 89 335c-.2.5-.3 1-.3 1.7 0 .6 0 1.2.3 1.7.2.4.4.8.8 1 .4.3.8.4 1.3.4Zm5.8 1v-8.3h1.4v1.3a2.8 2.8 0 0 1 2.4-1.4c1 0 1.8.2 2.3.8.5.5.7 1.3.7 2.3v5.4h-1.3v-5.1c0-.8-.2-1.3-.5-1.7-.3-.4-.8-.5-1.5-.5-.4 0-.8 0-1.1.2a2 2 0 0 0-.8.9 2.8 2.8 0 0 0-.3 1.2v5h-1.3Zm15 0-2.4-8.3h1.4l1.6 6.7h.1l2-6.7h1.2l1.9 6.7 1.7-6.7h1.4l-2.4 8.4H117l-1.9-6.5h-.1l-1.9 6.5h-1.3Zm13.6.2a3.5 3.5 0 0 1-3.4-2c-.3-.7-.5-1.4-.5-2.3 0-.9.2-1.6.5-2.3.3-.6.8-1.1 1.3-1.5a3.5 3.5 0 0 1 2-.5 3.4 3.4 0 0 1 3.2 2c.3.6.4 1.3.4 2.1v.6h-6.7V336h6l-.6 1v-.6c0-.6-.1-1.2-.3-1.6a2 2 0 0 0-2-1.2c-.5 0-.9 0-1.2.3-.4.2-.7.5-.9 1-.2.4-.3 1-.3 1.5v.6c0 .6.1 1 .3 1.5a2.2 2.2 0 0 0 2.2 1.3c.4 0 .7 0 1-.2.3 0 .5-.2.7-.4l.3-.4v-.1h1.4c0 .3-.2.6-.4.9a3.1 3.1 0 0 1-1.7 1.2l-1.3.2Zm9.6 0c-.4 0-.7 0-1-.2a2.8 2.8 0 0 1-1.6-1.3h-.1v1.3h-1.4v-11.6h1.4v4.6l.7-.8a3.2 3.2 0 0 1 2-.6c.7 0 1.3.1 1.8.5.6.4 1 .9 1.3 1.5.3.6.4 1.4.4 2.3 0 .9-.1 1.6-.4 2.3-.3.6-.7 1.1-1.3 1.5-.5.3-1.1.5-1.8.5Zm-.3-1.2c.5 0 1-.1 1.3-.4.4-.2.6-.6.8-1 .2-.5.3-1 .3-1.7s0-1.2-.3-1.7c-.2-.5-.4-.8-.8-1-.4-.3-.8-.4-1.3-.4s-1 0-1.3.3a2.4 2.4 0 0 0-.9 1.1c-.2.5-.3 1-.3 1.7 0 .6.1 1.2.3 1.7.2.4.5.8.9 1 .3.3.8.4 1.3.4Zm8.6 1.2c-.7 0-1.2-.1-1.7-.3a3 3 0 0 1-1.1-.8 2.2 2.2 0 0 1-.5-1.2h1.4c0 .4.3.7.6.9.4.2.8.3 1.3.3.4 0 .7 0 1-.2l.7-.4c.2-.2.2-.5.2-.7a1 1 0 0 0-.3-.8 2.6 2.6 0 0 0-1.1-.4l-1.3-.3a4.8 4.8 0 0 1-1.3-.5 2 2 0 0 1-.7-.8 2 2 0 0 1-.3-1c0-.5.2-.9.4-1.3l1.1-.8c.5-.2 1-.3 1.6-.3a4 4 0 0 1 1.6.2c.4.2.8.5 1 .8.3.3.5.7.6 1.2h-1.3c-.1-.3-.3-.6-.6-.8a2.2 2.2 0 0 0-1.3-.3l-.9.1-.6.5a1 1 0 0 0-.2.6c0 .2 0 .4.2.5 0 .2.2.3.4.4l.8.3 1.3.3c.8.2 1.4.5 1.7.8.4.4.6.9.6 1.5 0 .5-.1 1-.4 1.3-.3.4-.7.7-1.2.9-.5.2-1 .3-1.7.3Zm5.3-.1v-8.4h1.3v8.4h-1.3Zm.7-10a1 1 0 0 1-.7-.3 1 1 0 0 1-.3-.6c0-.3.1-.5.3-.7a.9.9 0 0 1 .7-.3.9.9 0 0 1 .6.3 1 1 0 0 1 0 1.3.9.9 0 0 1-.6.3Zm6 10c-1 0-1.5-.2-2-.5-.3-.3-.5-1-.5-1.7v-5h-1.3v-1.2h1.3v-2.1h1.4v2.1h1.8v1.1h-1.8v4.7c0 .5.1.9.3 1.1.2.2.5.3 1 .3a4.3 4.3 0 0 0 .5 0v1.1a8.6 8.6 0 0 1-.8.1Zm5.9.1a3.5 3.5 0 0 1-3.4-2c-.3-.7-.5-1.4-.5-2.3 0-.9.2-1.6.5-2.3.3-.6.7-1.1 1.3-1.5a3.5 3.5 0 0 1 2-.5 3.4 3.4 0 0 1 3.2 2c.3.6.4 1.3.4 2.1v.6H158V336h6l-.6 1v-.6c0-.6-.1-1.2-.3-1.6a2 2 0 0 0-2-1.2 2.2 2.2 0 0 0-2 1.3c-.3.4-.4 1-.4 1.5v.6c0 .6.1 1 .3 1.5a2.2 2.2 0 0 0 2.2 1.3c.4 0 .7 0 1-.2.3 0 .5-.2.7-.4l.4-.4v-.1h1.3c0 .3-.2.6-.4.9a3.1 3.1 0 0 1-1.7 1.2l-1.3.2Zm8.3 0c-.6 0-1.2-.1-1.6-.3a3 3 0 0 1-1.2-.8 2.2 2.2 0 0 1-.5-1.2h1.4c.1.4.3.7.7.9.3.2.7.3 1.3.3.3 0 .7 0 1-.2l.6-.4c.2-.2.3-.5.3-.7a1 1 0 0 0-.4-.8c-.2-.2-.6-.3-1-.4l-1.4-.3a4.8 4.8 0 0 1-1.3-.5l-.7-.8a2 2 0 0 1-.2-1c0-.5 0-.9.4-1.3a2.8 2.8 0 0 1 1-.8c.5-.2 1-.3 1.7-.3.5 0 1 0 1.5.2s.8.5 1.1.8c.3.3.5.7.5 1.2h-1.3c-.1-.3-.3-.6-.6-.8a2.2 2.2 0 0 0-1.2-.3l-1 .1-.5.5a1 1 0 0 0-.3.6c0 .2 0 .4.2.5 0 .2.2.3.4.4l.8.3 1.3.3c.8.2 1.4.5 1.8.8.4.4.6.9.6 1.5 0 .5-.2 1-.5 1.3a3 3 0 0 1-1.2.9c-.5.2-1 .3-1.7.3Zm13 0a4 4 0 0 1-2-.5 3.5 3.5 0 0 1-1.4-1.5 5.3 5.3 0 0 1-.5-2.3c0-1 .2-1.7.5-2.3.3-.7.8-1.2 1.3-1.5a4 4 0 0 1 2-.5c.9 0 1.6.1 2.1.5a3.4 3.4 0 0 1 1.4 1.5c.3.6.4 1.4.4 2.3 0 .9-.1 1.6-.4 2.3a3.5 3.5 0 0 1-3.4 2Zm0-1.2c.5 0 1-.1 1.3-.4.4-.2.7-.6.9-1 .2-.5.3-1 .3-1.7s-.1-1.2-.3-1.7c-.2-.5-.5-.8-.9-1a2.3 2.3 0 0 0-1.3-.4c-.5 0-1 0-1.4.3l-.8 1c-.2.6-.3 1.1-.3 1.8 0 .6.1 1.2.3 1.7.2.4.5.8.8 1 .4.3.9.4 1.4.4Zm5.8 3.8v-11.1h1.3v1.3h.1a2.7 2.7 0 0 1 1.5-1.3l1.1-.2c.7 0 1.3.2 1.9.6.5.4.9.9 1.2 1.5.3.6.4 1.4.4 2.3 0 .8-.1 1.6-.4 2.2a3.2 3.2 0 0 1-3 2 3.1 3.1 0 0 1-2-.6 2.5 2.5 0 0 1-.7-.8h-.1v4.1h-1.3Zm3.7-3.8c.5 0 1-.1 1.3-.4.4-.2.7-.6.8-1 .2-.5.3-1 .3-1.7s0-1.2-.3-1.7c-.1-.5-.4-.8-.8-1-.3-.3-.8-.4-1.3-.4s-1 0-1.3.3a2.4 2.4 0 0 0-.8 1.1c-.2.5-.3 1-.3 1.7 0 .6 0 1.2.3 1.7.2.4.4.8.8 1 .4.3.8.4 1.3.4Zm9.2 1.2a3.5 3.5 0 0 1-3.4-2c-.3-.7-.5-1.4-.5-2.3 0-.9.2-1.6.5-2.3.3-.6.7-1.1 1.3-1.5a3.5 3.5 0 0 1 2-.5 3.4 3.4 0 0 1 3.2 2c.3.6.4 1.3.4 2.1v.6H198V336h6l-.6 1v-.6c0-.6-.1-1.2-.3-1.6a2 2 0 0 0-2-1.2 2.2 2.2 0 0 0-2 1.3c-.3.4-.4 1-.4 1.5v.6c0 .6.1 1 .3 1.5a2.2 2.2 0 0 0 2.2 1.3c.4 0 .7 0 1-.2.3 0 .5-.2.7-.4l.3-.4v-.1h1.4c0 .3-.2.6-.4.9a3.1 3.1 0 0 1-1.7 1.2l-1.3.2Zm5.4-.1v-8.4h1.4v1.3h.1c.2-.5.5-.8 1-1 .3-.3.8-.4 1.4-.4 1 0 1.7.2 2.2.8.5.5.8 1.3.8 2.3v5.4H212v-5.1c0-.8-.2-1.3-.5-1.7-.3-.4-.8-.5-1.4-.5-.5 0-.9 0-1.2.2a2 2 0 0 0-.8.9 2.8 2.8 0 0 0-.2 1.2v5h-1.4Zm12.5.1a3.5 3.5 0 0 1-3.3-2c-.3-.7-.5-1.4-.5-2.3 0-.9.1-1.6.5-2.3.3-.6.7-1.1 1.3-1.5a3.5 3.5 0 0 1 2-.5c.7 0 1.3.1 1.9.5.5.3 1 .8 1.2 1.5.3.6.5 1.3.5 2.1v.6H216V336h6l-.7 1v-.6c0-.6 0-1.2-.3-1.6a2 2 0 0 0-2-1.2 2.2 2.2 0 0 0-2 1.3c-.2.4-.3 1-.3 1.5v.6c0 .6 0 1 .3 1.5a2.2 2.2 0 0 0 2.1 1.3 2.6 2.6 0 0 0 1.7-.6l.4-.4v-.1h1.4l-.4.9a3.1 3.1 0 0 1-1.8 1.2l-1.3.2Zm8.6 0a3.2 3.2 0 0 1-3-2 5.6 5.6 0 0 1-.5-2.3c0-.9.1-1.7.4-2.3.3-.6.7-1.1 1.2-1.5a3.2 3.2 0 0 1 1.9-.5 3.1 3.1 0 0 1 2 .7l.6.7h.1v-4.6h1.4v11.7h-1.4v-1.4h-.1a2.8 2.8 0 0 1-2.6 1.5Zm.3-1.2c.5 0 1-.1 1.3-.4.4-.2.6-.6.8-1 .2-.5.3-1 .3-1.7s0-1.2-.3-1.7a2.4 2.4 0 0 0-.8-1c-.4-.3-.8-.4-1.3-.4a2.2 2.2 0 0 0-2.1 1.4c-.2.5-.3 1-.3 1.7 0 .6 0 1.2.3 1.7.2.4.4.8.8 1 .4.3.8.4 1.3.4Zm10.5 1v-8.3h1.3v8.4h-1.3Zm.7-9.9a1 1 0 0 1-1-1 .9.9 0 0 1 .3-.6c.2-.2.4-.3.7-.3a.9.9 0 0 1 .6.3c.2.2.3.4.3.7l-.3.6a.9.9 0 0 1-.6.3Zm3 10v-8.4h1.3v1.3h.2c.2-.5.5-.8.9-1 .4-.3.9-.4 1.5-.4 1 0 1.7.2 2.2.8.5.5.7 1.3.7 2.3v5.4h-1.3v-5.1c0-.8-.2-1.3-.5-1.7-.3-.4-.8-.5-1.5-.5-.4 0-.8 0-1.1.2a2 2 0 0 0-.8.9c-.2.3-.3.7-.3 1.2v5h-1.3ZM91.4 361.5c-.8 0-1.5-.1-2.1-.4a3.6 3.6 0 0 1-1.4-1.1c-.4-.5-.6-1-.7-1.6v-.1h1.4c0 .4.2.8.5 1l1 .7a4.3 4.3 0 0 0 2.8 0c.4-.2.7-.4.9-.7.2-.3.3-.7.3-1 0-.5-.1-.9-.5-1.2-.3-.3-.9-.6-1.6-.7l-1.3-.3a4.9 4.9 0 0 1-2.4-1.2 2.8 2.8 0 0 1-.8-2c0-.6.2-1.1.5-1.6.4-.5.8-.8 1.4-1.1.6-.3 1.3-.4 2-.4.8 0 1.5.1 2 .4.6.3 1 .6 1.4 1 .3.5.5 1 .6 1.6H94a1.7 1.7 0 0 0-.4-.9c-.3-.3-.5-.5-1-.6a3.2 3.2 0 0 0-1.2-.2c-.4 0-.9 0-1.2.2a2.1 2.1 0 0 0-1 .6c-.1.3-.3.6-.3 1s.2.8.5 1.1c.4.3 1 .6 1.7.7l1.2.3c.8.2 1.4.4 1.9.7s.8.6 1 1c.3.4.4.8.4 1.4 0 .7-.2 1.3-.5 1.8-.4.5-.9.9-1.5 1.2-.6.2-1.3.4-2.2.4Zm8.4-.1c-.5 0-1-.1-1.4-.3-.4-.2-.7-.5-1-.9-.2-.4-.4-.8-.4-1.3s.2-1 .4-1.3c.2-.4.6-.6 1-.8l1.7-.4 3-.2v1.1l-2.8.2c-.7 0-1.1.2-1.4.4-.3.2-.5.5-.5 1 0 .4.2.7.5 1a2 2 0 0 0 1.2.3c.5 0 .9-.1 1.2-.3.4-.2.7-.4.9-.7.2-.3.3-.7.3-1.1v-2.6c0-.5-.2-.9-.5-1.2-.3-.3-.8-.4-1.4-.4-.5 0-.9.1-1.2.3a1.3 1.3 0 0 0-.7.7h-1.3c0-.4.2-.8.5-1.1a3 3 0 0 1 1.2-.8c.4-.2 1-.3 1.5-.3a4 4 0 0 1 1.8.4c.4.2.8.5 1 1 .3.3.4.8.4 1.4v5.7h-1.3V360h-.2a2.8 2.8 0 0 1-2.5 1.4Zm6.9-.2V354h-1.4v-1.1h1.4v-1c0-.5 0-1 .2-1.3.2-.4.5-.7.9-.8a3 3 0 0 1 1.3-.3 4.8 4.8 0 0 1 .9 0v1.1a6.2 6.2 0 0 0-.6 0c-.5 0-.9.1-1 .4-.3.2-.4.5-.4 1v.9h2v1h-2v7.3h-1.3Zm7 .2c-.5 0-1-.1-1.4-.3-.4-.2-.7-.5-1-.9-.2-.4-.3-.8-.3-1.3a2.2 2.2 0 0 1 1.3-2.1l1.7-.4 3-.2v1.1l-2.8.2c-.7 0-1.1.2-1.4.4-.3.2-.5.5-.5 1 0 .4.2.7.5 1a2 2 0 0 0 1.2.3c.5 0 .9-.1 1.2-.3.4-.2.7-.4.9-.7.2-.3.3-.7.3-1.1v-2.6c0-.5-.2-.9-.5-1.2-.3-.3-.8-.4-1.4-.4-.5 0-.9.1-1.2.3-.3.2-.6.4-.7.7h-1.3c0-.4.3-.8.5-1.1a3 3 0 0 1 1.2-.8c.4-.2 1-.3 1.6-.3.7 0 1.2.1 1.7.4.5.2.8.5 1 1 .3.3.4.8.4 1.4v5.7h-1.3V360h-.1a2.8 2.8 0 0 1-2.5 1.4Zm6.3-.2V353h1.4v1.2h.1c.2-.4.4-.8.8-1a2.6 2.6 0 0 1 1.4-.4 6 6 0 0 1 .7 0v1.4a3.8 3.8 0 0 0-.8 0c-.5 0-.8 0-1.2.2a2 2 0 0 0-.7.7 2 2 0 0 0-.3 1v5.2H120Zm6 0V353h1.3v8.3h-1.4Zm.6-10a1 1 0 0 1-.6-.2 1 1 0 0 1-.3-.7.9.9 0 0 1 .3-.6c.1-.2.4-.3.6-.3a.9.9 0 0 1 .7.3l.2.6c0 .3 0 .5-.2.7a.9.9 0 0 1-.7.3Z"/><mask id="y" width="2" height="90" x="298" y="276" maskUnits="userSpaceOnUse" style="mask-type:luminance"><path fill="#fff" d="M298 276.3h1.1v89.4h-1v-89.4Z"/></mask><g mask="url(#y)"><path fill="#5B5B5B" d="M298 276.3v89.4h2.3v-89.4H298Z"/></g><path fill="#67B279" fill-rule="evenodd" d="M333.1 276.3a15.8 15.8 0 0 0 0 31.7h22.6a15.8 15.8 0 1 0 0-31.7h-22.6Z" clip-rule="evenodd"/><path fill="#fff" d="M355.7 306.9a14.7 14.7 0 1 0 0-29.4 14.7 14.7 0 0 0 0 29.4Z"/><path fill="#1F1F1F" d="M389.7 383.9H27.5V531h362.2V383.9Z"/><mask id="z" width="363" height="2" x="27" y="383" maskUnits="userSpaceOnUse" style="mask-type:luminance"><path fill="#fff" d="M27.5 383.9h362.2v1H27.5v-1Z"/></mask><g mask="url(#z)"><path fill="#5B5B5B" d="M27.5 385h362.2v-2.3H27.5v2.3Z"/></g><path stroke="#67B279" stroke-linecap="round" stroke-linejoin="round" stroke-width="1.5" d="M67.1 417.8H51.3c-.7 0-1.2.5-1.2 1.1v4.6c0 .6.5 1.1 1.2 1.1H67c.6 0 1.1-.5 1.1-1.1v-4.6c0-.6-.5-1-1-1Zm-2.3 3.4h-1.1m-2.3 0h-1m6.7-12.4H51.3c-.7 0-1.2.5-1.2 1v4.6c0 .6.5 1.1 1.2 1.1H67c.6 0 1.1-.5 1.1-1v-4.6c0-.6-.5-1.1-1-1.1Z"/><path fill="#E4E4E4" d="M88 423.5v-12.8h4.4c1.2 0 2.3.3 3.2.8a5 5 0 0 1 2 2.1c.5 1 .8 2.1.8 3.5 0 1.3-.3 2.5-.7 3.4a5 5 0 0 1-2.1 2.2c-.9.5-2 .8-3.2.8H88Zm1.6-1.5h2.7c.9 0 1.7-.2 2.4-.5a3.8 3.8 0 0 0 1.5-1.7c.4-.8.6-1.7.6-2.7 0-1-.2-2-.6-2.7a3.8 3.8 0 0 0-1.5-1.7 4.7 4.7 0 0 0-2.5-.6h-2.6v10Zm11.2 1.5v-12.8h1.5l7.4 10.5-1.1-.6h.8v-9.9h1.6v12.8h-1.6l-7.3-10.5 1 .6h-.7v9.9h-1.6Zm17.3.3a6.1 6.1 0 0 1-2.5-.5 4.1 4.1 0 0 1-1.6-1.2 3.6 3.6 0 0 1-.7-1.9h1.6c0 .5.2.8.5 1.1.2.3.6.6 1.1.7a5 5 0 0 0 3.2 0c.4-.2.8-.4 1-.7.3-.4.4-.8.4-1.2 0-.5-.2-1-.5-1.3a4 4 0 0 0-2-.9l-1.4-.3a5.6 5.6 0 0 1-2.8-1.3 3.1 3.1 0 0 1-.8-2.3c0-.7.2-1.3.6-1.9.3-.5.9-1 1.5-1.2a5.6 5.6 0 0 1 2.4-.5c.8 0 1.6.2 2.2.5.7.3 1.2.7 1.6 1.2.4.5.6 1 .6 1.7v.1H121a2 2 0 0 0-.4-1c-.3-.4-.6-.6-1-.8l-1.5-.2c-.5 0-1 0-1.4.2-.4.2-.8.4-1 .7-.3.3-.4.7-.4 1.2s.2 1 .6 1.3c.4.3 1 .6 1.8.8l1.5.3a8 8 0 0 1 2.1.7 3 3 0 0 1 1.2 1.2 3.7 3.7 0 0 1-.2 3.7 3.8 3.8 0 0 1-1.7 1.3c-.7.3-1.5.5-2.4.5Zm11.5 2.9v-12.8h1.6v1.6h.1a3.1 3.1 0 0 1 1.7-1.5c.4-.2.8-.2 1.3-.2.8 0 1.5.2 2 .6.7.4 1.1 1 1.5 1.7.3.7.5 1.6.5 2.6s-.2 1.9-.5 2.6a4 4 0 0 1-1.4 1.7c-.6.4-1.3.6-2.1.6a3.5 3.5 0 0 1-2.3-.8l-.7-.8h-.1v4.7h-1.6Zm4.3-4.4c.6 0 1.1-.2 1.5-.4.4-.3.7-.7 1-1.3.2-.5.3-1.2.3-1.9a4.9 4.9 0 0 0-.3-2 2.7 2.7 0 0 0-1-1.1 2.5 2.5 0 0 0-1.5-.5c-.6 0-1 .2-1.5.5a3 3 0 0 0-1 1.2 4.9 4.9 0 0 0-.3 1.9c0 .7.1 1.4.4 2a2.5 2.5 0 0 0 2.4 1.6Zm6.4 1.2v-9.6h1.6v1.5h.1c.2-.5.5-1 1-1.2a3 3 0 0 1 1.6-.4 5.8 5.8 0 0 1 .7 0v1.5a4.3 4.3 0 0 0-1 0c-.4 0-.8 0-1.2.2l-1 .8a2.3 2.3 0 0 0-.2 1.3v5.9h-1.6Zm10.2.1a4 4 0 0 1-3.8-2.3 6 6 0 0 1-.6-2.6c0-1 .2-2 .6-2.6a4 4 0 0 1 3.8-2.3c1 0 1.7.2 2.4.6a4 4 0 0 1 1.5 1.7c.3.7.5 1.6.5 2.6a6 6 0 0 1-.5 2.6 4 4 0 0 1-3.9 2.3Zm0-1.3c.6 0 1.1-.2 1.6-.4.4-.3.7-.7 1-1.3a5 5 0 0 0 .3-1.9 5 5 0 0 0-.4-2 2.6 2.6 0 0 0-1-1.1 2.7 2.7 0 0 0-1.5-.5c-.6 0-1 .2-1.5.4-.4.3-.7.7-1 1.3a5 5 0 0 0-.3 1.9c0 .8.1 1.4.3 2 .3.5.6.9 1 1.2.4.2 1 .4 1.5.4Zm9.8 1.2c-1 0-1.7-.2-2-.6-.5-.3-.7-1-.7-2v-5.7H156V414h1.5v-2.4h1.6v2.4h2v1.3h-2v5.4c0 .6 0 1 .3 1.2.2.3.5.4 1 .4h.7v1.2a11.4 11.4 0 0 1-.9.1Zm6.6.1c-.8 0-1.6-.2-2.3-.6a4 4 0 0 1-1.5-1.7 6 6 0 0 1-.5-2.6c0-1 .2-1.8.5-2.6.4-.7.9-1.3 1.5-1.7.6-.4 1.4-.6 2.3-.6a4 4 0 0 1 2.2.6c.6.4 1 1 1.4 1.7.4.7.5 1.5.5 2.4v.7h-7.6v-1.3h6.8l-.7 1.1v-.6c0-.7-.1-1.3-.4-1.8a2.4 2.4 0 0 0-2.3-1.5c-.5 0-1 .2-1.3.4-.4.3-.8.6-1 1.1-.2.5-.3 1.1-.3 1.8v.6c0 .7 0 1.3.3 1.8.2.5.6.8 1 1 .4.3 1 .5 1.5.5.4 0 .8 0 1.1-.2l.8-.5.4-.5v-.1h1.6a3.1 3.1 0 0 1-1.3 1.8 4 4 0 0 1-1.1.6 5 5 0 0 1-1.5.2Zm10 0a4.3 4.3 0 0 1-2.3-.6 4 4 0 0 1-1.5-1.7 6 6 0 0 1-.5-2.6c0-1 .2-1.9.5-2.6a4 4 0 0 1 3.9-2.3c.7 0 1.4.1 2 .4a3.5 3.5 0 0 1 2 2.6h-1.6a2.2 2.2 0 0 0-.8-1.2 2.6 2.6 0 0 0-1.6-.5 2.5 2.5 0 0 0-2.5 1.7 4.7 4.7 0 0 0-.3 1.9c0 .7 0 1.3.3 1.9.2.5.6 1 1 1.2.4.3.9.5 1.4.5.7 0 1.2-.2 1.6-.4.4-.3.7-.7.9-1.2v-.1h1.5a4 4 0 0 1-.7 1.6 3.4 3.4 0 0 1-1.3 1 4.6 4.6 0 0 1-2 .4Zm9.5 0c-1 0-1.7-.3-2.1-.7-.5-.3-.7-1-.7-2v-5.7h-1.5V414h1.5v-2.4h1.6v2.4h2.1v1.3h-2v5.4c0 .6 0 1 .2 1.2.2.3.6.4 1 .4h.8v1.2a11.1 11.1 0 0 1-.9.1Zm2.9-.1v-9.6h1.5v9.6h-1.5Zm.8-11.4a1 1 0 0 1-.8-.3 1 1 0 0 1-.3-.8 1 1 0 0 1 1-1 1 1 0 0 1 1.1 1c0 .3 0 .6-.3.8a1 1 0 0 1-.7.3Zm7.2 11.5a4 4 0 0 1-3.9-2.3 6 6 0 0 1-.5-2.6c0-1 .2-2 .5-2.6a4 4 0 0 1 3.9-2.3c.9 0 1.7.2 2.3.6a4 4 0 0 1 1.5 1.7c.4.7.6 1.6.6 2.6a6 6 0 0 1-.6 2.6 4 4 0 0 1-3.8 2.3Zm0-1.3c.6 0 1-.2 1.5-.4.4-.3.7-.7 1-1.3a5 5 0 0 0 .3-1.9 5 5 0 0 0-.3-2 2.6 2.6 0 0 0-1-1.1 2.7 2.7 0 0 0-1.5-.5c-.6 0-1.1.2-1.5.4-.5.3-.8.7-1 1.3a5 5 0 0 0-.3 1.9c0 .8 0 1.4.3 2 .2.5.5.9 1 1.2.4.2.9.4 1.5.4Zm6.4 1.2v-9.6h1.6v1.5h.1c.2-.5.6-1 1-1.2a3.2 3.2 0 0 1 1.8-.4c1 0 1.9.3 2.4.9.6.6 1 1.5 1 2.6v6.2H210v-5.8c0-.9-.2-1.5-.6-2-.3-.4-.9-.6-1.7-.6-.5 0-1 .1-1.3.4-.4.2-.6.5-.8.9-.2.4-.3.9-.3 1.4v5.7h-1.6Z"/><path fill="silver" d="M87.8 447.2v-11.1h6.9v1.2h-5.5v3.6h5.2v1.2h-5.2v3.9h5.5v1.2h-7Zm9 0V439h1.4v1.3h.1c.2-.5.6-.8 1-1 .4-.3.9-.4 1.5-.4 1 0 1.6.2 2.1.8.5.5.8 1.3.8 2.2v5.4h-1.4v-5c0-.8-.1-1.3-.4-1.7-.4-.4-.8-.6-1.5-.6-.5 0-.8.1-1.2.3a2 2 0 0 0-.7.8 2.8 2.8 0 0 0-.3 1.3v5H97Zm9.2 0v-11.6h1.4v4.5h.1a2.8 2.8 0 0 1 2.4-1.4c.7 0 1.2.2 1.6.4.5.2.8.6 1 1 .2.5.4 1 .4 1.7v5.4h-1.4v-5c0-.8-.2-1.3-.5-1.7-.3-.4-.8-.6-1.4-.6-.5 0-.9.1-1.2.3a2 2 0 0 0-.8.8 2.8 2.8 0 0 0-.2 1.3v5H106Zm11.4.2c-.5 0-1-.1-1.4-.3-.4-.2-.8-.5-1-.9-.3-.4-.4-.8-.4-1.3s.2-1 .4-1.3c.2-.3.6-.6 1-.8l1.7-.4 3-.1v1l-2.9.2c-.6 0-1 .2-1.4.4-.3.2-.4.5-.4 1 0 .4.2.7.5 1a2 2 0 0 0 1.2.3c.4 0 .9 0 1.2-.3.4-.1.6-.4.8-.7.2-.3.3-.7.3-1v-2.7c0-.5-.1-.9-.4-1.2-.3-.2-.8-.4-1.4-.4-.5 0-1 .1-1.2.3a1.3 1.3 0 0 0-.7.8H115c0-.5.2-.9.5-1.2l1.1-.8c.5-.2 1-.3 1.6-.3a4 4 0 0 1 1.8.4c.4.2.8.5 1 1 .3.3.4.8.4 1.4v5.7h-1.3V446h-.2a2.8 2.8 0 0 1-1.5 1.2l-1 .2Zm6.3-.2V439h1.3v1.3h.2c.2-.5.5-.8.9-1 .4-.3.9-.4 1.5-.4 1 0 1.7.2 2.2.8.5.5.7 1.3.7 2.2v5.4h-1.3v-5c0-.8-.2-1.3-.5-1.7-.3-.4-.8-.6-1.5-.6-.4 0-.8.1-1.1.3a2 2 0 0 0-.8.8 2.8 2.8 0 0 0-.3 1.3v5h-1.3Zm12.5.2c-.8 0-1.5-.2-2-.5a3.6 3.6 0 0 1-1.4-1.5 5.2 5.2 0 0 1-.4-2.3c0-1 .1-1.7.4-2.3a3.5 3.5 0 0 1 3.4-2 4 4 0 0 1 1.7.3 3.1 3.1 0 0 1 1.8 2.3h-1.4a2 2 0 0 0-.7-1 2.3 2.3 0 0 0-1.4-.5 2.2 2.2 0 0 0-2.2 1.5 4 4 0 0 0-.3 1.6c0 .7.1 1.2.3 1.7.2.5.5.9.9 1.1.4.3.8.4 1.3.4a2.4 2.4 0 0 0 1.4-.4 2 2 0 0 0 .7-1h1.4l-.6 1.3a3 3 0 0 1-1.2 1 4 4 0 0 1-1.7.3Zm8.7 0a3.5 3.5 0 0 1-3.4-2c-.3-.7-.4-1.4-.4-2.3 0-.9.1-1.6.4-2.3.3-.6.8-1.1 1.3-1.5a3.5 3.5 0 0 1 2-.5c.8 0 1.4.1 2 .5.5.3 1 .8 1.2 1.5.3.6.4 1.3.4 2.1v.6h-6.6v-1.1h6l-.7 1v-.6c0-.6-.1-1.2-.3-1.6a2 2 0 0 0-2-1.2 2.2 2.2 0 0 0-2 1.3c-.3.4-.4.9-.4 1.5v.6c0 .6.1 1 .3 1.5a2.2 2.2 0 0 0 2.2 1.3c.4 0 .7 0 1-.2a2 2 0 0 0 1-.8v-.1h1.4c0 .3-.2.6-.4.9a3.1 3.1 0 0 1-1.7 1.2l-1.3.2Zm8.3 0c-.6 0-1.1-.1-1.6-.3a3 3 0 0 1-1.2-.8 2.2 2.2 0 0 1-.5-1.2h1.4c.1.3.4.6.7.8.3.3.7.4 1.3.4.3 0 .7 0 1-.2l.6-.5.3-.6a1 1 0 0 0-.3-.8 2.6 2.6 0 0 0-1.2-.5l-1.3-.3a4.7 4.7 0 0 1-1.2-.4 2 2 0 0 1-.8-.8c-.2-.3-.2-.6-.2-1 0-.5.1-.9.4-1.3a2.8 2.8 0 0 1 1-.8c.6-.2 1-.4 1.7-.4a4 4 0 0 1 1.5.3c.5.2.8.5 1.1.8.3.3.5.7.5 1.2h-1.3c0-.3-.3-.6-.6-.8a2.2 2.2 0 0 0-1.2-.3l-1 .1-.5.5a1 1 0 0 0-.2.6l.1.5.5.4.8.3 1.2.3c.8.2 1.4.5 1.8.8.4.4.6.9.6 1.5 0 .5-.2.9-.5 1.3a3 3 0 0 1-1.2.9c-.5.2-1 .3-1.7.3Zm10.3 2.8a3.3 3.3 0 0 1-.6 0V449h.6c.3 0 .6 0 .9-.3l.6-1 .1-.5-3-8.3h1.4l2.5 7.7-.5-.9h.6l-.5.9 2.6-7.7h1.4l-3.3 8.8a6.3 6.3 0 0 1-.7 1.5 2 2 0 0 1-.9.7c-.3.2-.7.3-1.2.3Zm10.8-2.8a4 4 0 0 1-2-.5 3.5 3.5 0 0 1-1.4-1.5 5.3 5.3 0 0 1-.4-2.3c0-1 .1-1.7.4-2.3.4-.7.8-1.2 1.4-1.5a4 4 0 0 1 2-.6c.8 0 1.5.2 2 .6a3.4 3.4 0 0 1 1.4 1.4c.3.7.5 1.5.5 2.4a5.2 5.2 0 0 1-.5 2.3 3.5 3.5 0 0 1-3.4 2Zm0-1.2a2.3 2.3 0 0 0 2.2-1.4c.2-.5.3-1 .3-1.7s-.1-1.3-.3-1.7c-.2-.5-.5-.8-.8-1a2.3 2.3 0 0 0-1.4-.5c-.5 0-1 .2-1.3.4-.4.3-.7.6-.9 1-.2.5-.2 1.1-.2 1.8 0 .6 0 1.2.2 1.6.2.5.5.9.9 1.1.3.3.8.4 1.3.4Zm8.6 1.2c-.7 0-1.2-.1-1.6-.4-.4-.2-.8-.6-1-1a4 4 0 0 1-.3-1.7v-5.4h1.4v5c0 .8.1 1.4.4 1.7.3.4.8.6 1.4.6.4 0 .7 0 1-.2a1.8 1.8 0 0 0 1.1-1.2l.2-1V439h1.3v8.3h-1.3V446h-.1a2.3 2.3 0 0 1-1.4 1.2l-1.1.2Zm6.3-.2V439h1.3v1.2h.1c.2-.4.5-.7.9-1a2.6 2.6 0 0 1 1.4-.3 5.9 5.9 0 0 1 .6 0v1.3a3.8 3.8 0 0 0-.8 0c-.4 0-.8 0-1.1.2a2 2 0 0 0-1 1.8v5.1h-1.4Zm10.1 2.8V439h1.4v1.3h.1a2.8 2.8 0 0 1 1.5-1.3l1.1-.2c.7 0 1.3.2 1.8.6.6.3 1 .8 1.3 1.5.3.6.4 1.4.4 2.3 0 .8-.1 1.6-.4 2.2a3.2 3.2 0 0 1-3.1 2 3 3 0 0 1-2-.6 2.5 2.5 0 0 1-.6-.8h-.1v4.1h-1.4Zm3.8-3.8c.5 0 1-.1 1.3-.4.4-.2.6-.6.8-1 .2-.5.3-1 .3-1.7s0-1.2-.3-1.7a2.3 2.3 0 0 0-.8-1c-.4-.3-.8-.5-1.3-.5s-1 .2-1.3.4a2.4 2.4 0 0 0-.9 1.1c-.2.5-.3 1-.3 1.7 0 .6.1 1.2.3 1.6.2.5.5.9.9 1.1.4.3.8.4 1.3.4Zm5.7 1V439h1.4v1.2h.1c.2-.4.4-.7.8-1a2.6 2.6 0 0 1 1.4-.3 6 6 0 0 1 .7 0v1.3a3.8 3.8 0 0 0-.8 0c-.5 0-.8 0-1.2.2-.3.2-.6.4-.7.7a2 2 0 0 0-.3 1v5.2h-1.4Zm6 0V439h1.3v8.3h-1.4Zm.6-10a1 1 0 0 1-1-.8.9.9 0 0 1 .4-.7c.1-.2.4-.3.6-.3a.9.9 0 0 1 .7.3c.2.2.2.4.2.7a.9.9 0 0 1-.2.6.9.9 0 0 1-.7.3Zm5.4 10-3-8.3h1.3l2.3 6.9h.1l2.3-6.9h1.5l-3.1 8.3h-1.4Zm8 .2c-.5 0-1-.1-1.4-.3-.4-.2-.7-.5-1-.9-.2-.4-.3-.8-.3-1.3a2.1 2.1 0 0 1 1.3-2.1l1.7-.4 3-.1v1l-2.8.2c-.7 0-1.1.2-1.4.4-.3.2-.5.5-.5 1 0 .4.2.7.5 1a2 2 0 0 0 1.2.3c.5 0 .9 0 1.2-.3.4-.1.7-.4.9-.7.2-.3.3-.7.3-1v-2.7c0-.5-.2-.9-.5-1.2-.3-.2-.8-.4-1.4-.4-.5 0-.9.1-1.2.3-.3.2-.6.4-.7.8h-1.3c0-.5.2-.9.5-1.2a3 3 0 0 1 1.2-.8c.4-.2 1-.3 1.6-.3a4 4 0 0 1 1.7.4c.5.2.8.5 1 1 .3.3.4.8.4 1.4v5.7h-1.3V446h-.1a2.8 2.8 0 0 1-2.6 1.4Zm9.7 0c-.7 0-1.4-.2-2-.5a3.5 3.5 0 0 1-1.3-1.5 5.2 5.2 0 0 1-.5-2.3c0-1 .2-1.7.5-2.3a3.5 3.5 0 0 1 1.3-1.5 3.8 3.8 0 0 1 2-.5 4 4 0 0 1 1.8.3 3.1 3.1 0 0 1 1.7 2.3h-1.3a2 2 0 0 0-.7-1 2.3 2.3 0 0 0-1.5-.5 2.2 2.2 0 0 0-2.1 1.5 4 4 0 0 0-.3 1.6c0 .7 0 1.2.3 1.7.2.5.5.9.8 1.1.4.3.8.4 1.3.4a2.4 2.4 0 0 0 1.4-.4c.4-.2.6-.6.8-1h1.3c-.1.5-.3 1-.6 1.3l-1.1 1a4 4 0 0 1-1.8.3Zm6 2.8a3.3 3.3 0 0 1-.6 0V449h.6c.4 0 .7 0 1-.3.2-.2.4-.5.5-1l.2-.5-3.1-8.3h1.4l2.6 7.7-.5-.9h.6l-.5.9 2.5-7.7h1.5l-3.3 8.8a6.4 6.4 0 0 1-.7 1.5 2 2 0 0 1-1 .7c-.3.2-.7.3-1.2.3Zm16.2-2.8a2.9 2.9 0 0 1-2.6-1.5h-.1v1.3h-1.4v-11.6h1.4v4.6l.7-.8a3.2 3.2 0 0 1 2-.7 3.2 3.2 0 0 1 3 2c.4.7.5 1.5.5 2.4 0 .8-.2 1.6-.4 2.2-.3.7-.8 1.2-1.3 1.5-.5.4-1.1.6-1.8.6Zm-.3-1.2a2.2 2.2 0 0 0 2.1-1.4c.2-.5.3-1 .3-1.7s0-1.2-.3-1.7c-.2-.5-.5-.8-.8-1-.4-.3-.8-.5-1.3-.5a2.2 2.2 0 0 0-2.2 1.5c-.2.5-.3 1-.3 1.7 0 .6.1 1.2.3 1.6.2.5.5.9.9 1.1.3.3.8.4 1.3.4Zm6.1 4a3.2 3.2 0 0 1-.6 0V449h.6c.3 0 .7 0 1-.3l.5-1 .2-.5-3.1-8.3h1.4l2.6 7.7-.6-.9h.7l-.6.9 2.6-7.7h1.4l-3.2 8.8a6.3 6.3 0 0 1-.8 1.5 2 2 0 0 1-.8.7c-.4.2-.8.3-1.3.3ZM91.7 467.8l-1-.2a2.9 2.9 0 0 1-.9-.5 2.9 2.9 0 0 1-.6-.8H89v1.3h-1.3V456H89v4.6h.2c.1-.3.3-.6.6-.8a3.2 3.2 0 0 1 2-.7c.7 0 1.3.2 1.8.6.5.3 1 .8 1.2 1.5a5.5 5.5 0 0 1 0 4.6c-.3.6-.7 1-1.2 1.4-.5.4-1.1.6-1.8.6Zm-.3-1.2c.5 0 1-.2 1.3-.4.4-.3.7-.6.9-1 .2-.5.3-1.1.3-1.7 0-.7-.1-1.3-.3-1.7-.2-.5-.5-.9-.8-1.1-.4-.3-.8-.4-1.3-.4-.6 0-1 .1-1.4.4a2.4 2.4 0 0 0-.8 1c-.2.5-.3 1-.3 1.7s0 1.3.3 1.7c.2.5.5.8.8 1 .4.3.8.5 1.3.5Zm5.8 1V456h1.4v11.6h-1.3Zm7.2.2a3.5 3.5 0 0 1-3.3-2 5.3 5.3 0 0 1-.5-2.3c0-1 .2-1.7.5-2.4.3-.6.7-1.1 1.3-1.5a4 4 0 0 1 2-.5 4 4 0 0 1 2 .5c.7.4 1.1.9 1.4 1.5.3.7.5 1.4.5 2.3a5.2 5.2 0 0 1-.5 2.4 3.5 3.5 0 0 1-3.4 2Zm0-1.2c.6 0 1-.2 1.4-.4.3-.2.6-.6.8-1 .2-.5.3-1.1.3-1.7 0-.7 0-1.3-.3-1.7-.2-.5-.5-.9-.8-1.1a2.3 2.3 0 0 0-1.4-.4c-.5 0-1 .1-1.3.4-.4.2-.7.6-.8 1-.2.5-.3 1-.3 1.7s0 1.3.2 1.7c.2.5.5.9.9 1.1.4.2.8.4 1.3.4Zm9.2 1.2c-.8 0-1.4-.2-2-.6a3.5 3.5 0 0 1-1.3-1.5 5.2 5.2 0 0 1-.5-2.3c0-.9.1-1.6.5-2.3a3.5 3.5 0 0 1 3.3-2 4 4 0 0 1 1.8.4 3.1 3.1 0 0 1 1.7 2.3h-1.3a2 2 0 0 0-.7-1 2.3 2.3 0 0 0-1.5-.5 2.2 2.2 0 0 0-2.2 1.5 4 4 0 0 0-.2 1.6c0 .7 0 1.2.3 1.7.2.5.4.8.8 1 .4.3.8.5 1.3.5a2.4 2.4 0 0 0 1.4-.4 2 2 0 0 0 .7-1v-.1h1.4c-.1.6-.3 1-.6 1.4a3 3 0 0 1-1.2 1 4 4 0 0 1-1.7.3Zm5.4-.2V456h1.3v11.6H119Zm5.2 0-3.2-4 1-1 4 5h-1.8Zm-4-3-.1-1.7h.4l3.6-3.6h1.6l-4 3.8-.3.3-1.3 1.2Zm7.2 3v-8.3h1.3v8.3h-1.3Zm.6-10a1 1 0 0 1-.6-.2 1 1 0 0 1-.3-.7l.3-.6a.9.9 0 0 1 .6-.3c.3 0 .5.1.7.3l.3.6c0 .3-.1.5-.3.7a.9.9 0 0 1-.7.3Zm3 10v-8.3h1.4v1.2h.1c.3-.4.6-.8 1-1 .4-.2.9-.4 1.5-.4 1 0 1.6.3 2.1.8.5.6.8 1.3.8 2.3v5.4h-1.4v-5c0-.8-.1-1.4-.4-1.7-.4-.4-.8-.6-1.5-.6-.4 0-.8.1-1.1.3a2 2 0 0 0-.8.8 2.8 2.8 0 0 0-.3 1.3v5h-1.3Zm12.6 3c-.7 0-1.3-.1-1.8-.3a3 3 0 0 1-1.2-.8c-.3-.4-.4-.8-.5-1.2h1.4c0 .3.3.6.7.8.3.2.8.3 1.4.3a2.7 2.7 0 0 0 1.8-.5c.4-.4.6-.9.6-1.5v-1.7h-.1a2.9 2.9 0 0 1-2.7 1.5c-.7 0-1.3-.2-1.8-.5a3.4 3.4 0 0 1-1.2-1.5c-.3-.6-.5-1.3-.5-2 0-.8.2-1.5.5-2.1a3.3 3.3 0 0 1 3-2c.5 0 .8 0 1.2.2a3 3 0 0 1 1.5 1.4v-1.4h1.4v8.2c0 .6-.1 1.2-.4 1.6-.3.5-.8.8-1.3 1-.6.3-1.2.5-2 .5Zm0-4.6c.4 0 .9-.1 1.3-.4.3-.2.6-.5.8-1 .2-.4.3-.9.3-1.4 0-.6 0-1-.3-1.5-.2-.4-.5-.8-.8-1s-.8-.4-1.4-.4-1 .1-1.3.4c-.3.2-.6.6-.8 1-.2.4-.3.9-.3 1.5 0 .5.1 1 .3 1.4.2.5.5.8.8 1 .4.3.8.4 1.3.4Zm10.4 1.6v-8.3h1.3v8.3H154Zm.6-10a1 1 0 0 1-.9-.9.9.9 0 0 1 .3-.6c.2-.2.4-.3.7-.3a.9.9 0 0 1 .6.3l.3.6c0 .3-.1.5-.3.7a.9.9 0 0 1-.7.3Zm3 10v-8.3h1.4v1.2h.2c.2-.4.5-.8.9-1 .4-.2.9-.4 1.5-.4 1 0 1.6.3 2.1.8.5.6.8 1.3.8 2.3v5.4h-1.4v-5c0-.8-.1-1.4-.4-1.7-.3-.4-.8-.6-1.5-.6-.4 0-.8.1-1.1.3a2 2 0 0 0-.8.8 2.8 2.8 0 0 0-.3 1.3v5h-1.3Zm9-3.9v-1.2h5.3v1.2h-5.3Zm9.8 4c-.6 0-1 0-1.5-.2-.4-.2-.7-.5-1-.9a2.3 2.3 0 0 1-.3-1.3 2.2 2.2 0 0 1 1.4-2.1c.4-.2 1-.4 1.6-.4l3-.2v1.1l-2.8.2c-.6 0-1.1.2-1.4.4-.3.2-.4.5-.4 1 0 .4.1.7.4 1a2 2 0 0 0 1.2.3c.5 0 1-.1 1.3-.3l.8-.7c.2-.4.3-.7.3-1.1v-2.6c0-.5-.1-.9-.5-1.2-.3-.3-.7-.4-1.4-.4-.5 0-.9.1-1.2.3a1.3 1.3 0 0 0-.6.7h-1.4c0-.4.3-.8.6-1.1a3 3 0 0 1 1.1-.8c.5-.2 1-.3 1.6-.3a4 4 0 0 1 1.7.4c.5.2.8.5 1 1 .3.3.4.8.4 1.4v5.7H179v-1.2h-.1a2.8 2.8 0 0 1-1.5 1.2l-1 .2Zm6.2 2.7v-11.1h1.4v1.3h.1a2.8 2.8 0 0 1 1.6-1.3l1-.2a3.5 3.5 0 0 1 3 2c.4.7.5 1.5.5 2.3 0 1-.1 1.7-.4 2.3a3.2 3.2 0 0 1-3 2 3 3 0 0 1-2-.6 2.5 2.5 0 0 1-.7-.8h-.1v4.1h-1.4Zm3.8-3.8c.5 0 1-.2 1.3-.4.4-.3.7-.6.8-1 .2-.5.3-1.1.3-1.7 0-.7 0-1.3-.3-1.7a2.3 2.3 0 0 0-.8-1.1c-.3-.3-.8-.4-1.3-.4s-1 .1-1.3.4a2.4 2.4 0 0 0-.8 1c-.2.5-.3 1-.3 1.7s0 1.3.3 1.7c.2.5.4.8.8 1 .4.3.8.5 1.3.5Zm5.8 3.8v-11.1h1.3v1.3h.1a2.8 2.8 0 0 1 1.5-1.3l1.1-.2a3.4 3.4 0 0 1 3 2c.4.7.5 1.5.5 2.3 0 1-.1 1.7-.4 2.3a3.2 3.2 0 0 1-3 2 3 3 0 0 1-2-.6 2.5 2.5 0 0 1-.7-.8h-.1v4.1h-1.3Zm3.7-3.8c.5 0 1-.2 1.3-.4.4-.3.7-.6.8-1 .2-.5.3-1.1.3-1.7 0-.7 0-1.3-.3-1.7a2.3 2.3 0 0 0-.8-1.1c-.3-.3-.8-.4-1.3-.4s-1 .1-1.3.4a2.4 2.4 0 0 0-.8 1c-.2.5-.3 1-.3 1.7s0 1.3.3 1.7c.2.5.4.8.8 1 .4.3.8.5 1.3.5Zm13 1c-.9 0-1.5-.1-1.9-.4-.3-.4-.5-1-.5-1.8v-5h-1.3v-1.1h1.3V457h1.4v2.2h1.8v1h-1.8v4.8c0 .5 0 .9.2 1 .2.3.5.4 1 .4a4.4 4.4 0 0 0 .6 0v1.1a7.5 7.5 0 0 1-.8 0Zm2.6 0v-8.3h1.4v1.2c.3-.4.5-.8.9-1a2.6 2.6 0 0 1 1.4-.4 3.4 3.4 0 0 1 .7 0v1.4a3.8 3.8 0 0 0-.8 0c-.5 0-.8 0-1.2.2a2 2 0 0 0-.7.7 2 2 0 0 0-.3 1v5.2h-1.4Zm8.2.2c-.5 0-1-.1-1.4-.3-.5-.2-.8-.5-1-.9a2.4 2.4 0 0 1-.4-1.3 2.2 2.2 0 0 1 1.4-2.1c.4-.2 1-.4 1.6-.4l3.1-.2v1.1l-2.9.2c-.6 0-1.1.2-1.4.4-.3.2-.4.5-.4 1 0 .4.1.7.4 1a2 2 0 0 0 1.2.3c.5 0 1-.1 1.3-.3l.8-.7c.2-.4.3-.7.3-1.1v-2.6c0-.5-.1-.9-.5-1.2-.3-.3-.7-.4-1.4-.4-.5 0-.9.1-1.2.3a1.3 1.3 0 0 0-.6.7h-1.4c.1-.4.3-.8.6-1.1.3-.4.6-.6 1.1-.8.5-.2 1-.3 1.6-.3a4 4 0 0 1 1.7.4c.5.2.9.5 1.1 1 .3.3.4.8.4 1.4v5.7h-1.4v-1.2h-.1a2.8 2.8 0 0 1-1.5 1.2l-1 .2Zm9.7 0c-.8 0-1.5-.2-2-.6a3.5 3.5 0 0 1-1.4-1.5 5.2 5.2 0 0 1-.5-2.3c0-.9.2-1.6.5-2.3a3.5 3.5 0 0 1 3.4-2 4 4 0 0 1 1.7.4 3.1 3.1 0 0 1 1.8 2.3h-1.4a2 2 0 0 0-.7-1 2.3 2.3 0 0 0-1.4-.5 2.2 2.2 0 0 0-2.2 1.5 4 4 0 0 0-.3 1.6c0 .7.1 1.2.3 1.7.2.5.5.8.9 1 .3.3.8.5 1.3.5a2.4 2.4 0 0 0 1.3-.4c.4-.2.7-.6.8-1v-.1h1.4l-.7 1.4a3 3 0 0 1-1.1 1 4 4 0 0 1-1.7.3Zm5.3-.2V456h1.4v11.6h-1.4Zm5.3 0-3.3-4 1-1 4 5H240Zm-4-3-.1-1.7h.3l3.6-3.6h1.7l-4 3.8-.3.3-1.3 1.2Zm10.1 3.2a3.5 3.5 0 0 1-3.4-2 5.3 5.3 0 0 1-.4-2.3c0-.9.1-1.6.5-2.3.3-.6.7-1.2 1.3-1.5a3.5 3.5 0 0 1 2-.6 3.4 3.4 0 0 1 3.1 2c.3.6.5 1.4.5 2.2v.5H243v-1h6l-.7 1v-.6c0-.6 0-1.2-.3-1.6a2 2 0 0 0-2-1.3 2.2 2.2 0 0 0-2 1.3c-.2.5-.3 1-.3 1.6v.5c0 .6 0 1.1.3 1.6a2.2 2.2 0 0 0 2.2 1.3c.3 0 .7 0 1-.2l.6-.4.4-.5h1.4a3.1 3.1 0 0 1-2.1 2c-.4.2-.9.3-1.4.3Zm5.5-.2v-8.3h1.3v1.2h.2c.1-.4.4-.8.8-1a2.6 2.6 0 0 1 1.4-.4 3.4 3.4 0 0 1 .7 0v1.4a3.8 3.8 0 0 0-.9 0c-.4 0-.8 0-1.1.2a2 2 0 0 0-.8.7 2 2 0 0 0-.3 1v5.2h-1.3Zm8.6.2c-.7 0-1.2-.1-1.7-.3a3 3 0 0 1-1.1-.8 2.2 2.2 0 0 1-.5-1.2h1.4c0 .3.3.6.6.8.4.2.8.3 1.3.3l1-.1.7-.5c.2-.2.2-.4.2-.6a1 1 0 0 0-.3-.8c-.2-.2-.6-.4-1.1-.5l-1.3-.3a4.7 4.7 0 0 1-1.3-.5 2 2 0 0 1-.7-.7c-.2-.3-.3-.6-.3-1 0-.5.2-1 .4-1.3.3-.4.7-.7 1.1-.9.5-.2 1-.3 1.6-.3.6 0 1.1.1 1.6.3.4.2.8.4 1 .8.3.3.5.7.6 1.2H262c0-.4-.2-.6-.6-.8a2.2 2.2 0 0 0-1.2-.4l-.9.2-.6.4a1 1 0 0 0-.2.7l.1.5.5.4.8.3 1.3.3a4 4 0 0 1 1.7.8c.4.3.6.8.6 1.4 0 .5-.1 1-.4 1.4a3 3 0 0 1-1.2.8c-.5.2-1.1.4-1.7.4ZM89.9 488c-.5 0-1 0-1.4-.3-.5-.2-.8-.5-1-.8a2.4 2.4 0 0 1-.4-1.3 2.2 2.2 0 0 1 1.4-2.2c.5-.2 1-.3 1.6-.3l3.1-.2v1l-2.9.3c-.6 0-1 .1-1.4.4-.3.2-.4.5-.4 1 0 .3.1.7.5 1a2 2 0 0 0 1.2.3l1.2-.3c.3-.2.6-.4.8-.8.2-.3.3-.6.3-1v-2.6c0-.5-.1-1-.4-1.2-.3-.3-.8-.4-1.4-.4-.5 0-1 0-1.3.3-.3.1-.5.4-.6.7h-1.4c.1-.5.3-.8.6-1.2a3 3 0 0 1 1.1-.7c.5-.2 1-.3 1.6-.3.7 0 1.3.1 1.7.3.5.2.9.6 1.1 1 .3.4.4.9.4 1.5v5.7h-1.4v-1.2a2.8 2.8 0 0 1-1.6 1.2l-1 .1Zm6.3-.1v-8.4h1.3v1.3h.2c.2-.5.5-.8.9-1 .4-.3.9-.4 1.5-.4 1 0 1.6.3 2.1.8s.8 1.3.8 2.3v5.4h-1.4v-5c0-.8-.1-1.4-.4-1.8-.3-.3-.8-.5-1.5-.5-.4 0-.8 0-1.1.3a2 2 0 0 0-.8.8 2.8 2.8 0 0 0-.3 1.3v4.9h-1.3Zm12.1.1a3.2 3.2 0 0 1-3-2 5.6 5.6 0 0 1-.4-2.3c0-.9 0-1.6.4-2.3a3.2 3.2 0 0 1 3-2 3.1 3.1 0 0 1 2 .7c.3.2.5.5.6.8h.2v-4.7h1.3V488h-1.3v-1.3h-.2a2.8 2.8 0 0 1-1.5 1.3l-1 .1Zm.4-1.2c.5 0 .9 0 1.3-.3.3-.3.6-.6.8-1.1.2-.5.3-1 .3-1.7 0-.6-.1-1.2-.3-1.7a2.4 2.4 0 0 0-.8-1c-.4-.3-.8-.4-1.3-.4s-1 .1-1.3.4c-.4.2-.7.6-.9 1-.2.5-.3 1-.3 1.7s.1 1.2.3 1.7c.2.5.5.8.8 1 .4.3.8.4 1.4.4Zm13.8 1.2a3.5 3.5 0 0 1-3.3-2c-.3-.6-.5-1.4-.5-2.3 0-.8.1-1.6.5-2.2a3.5 3.5 0 0 1 3.2-2.1c.8 0 1.4.2 2 .5.5.4 1 .9 1.2 1.5.3.6.5 1.4.5 2.2v.5h-6.7v-1h6l-.7 1v-.6a4 4 0 0 0-.3-1.6c-.2-.5-.4-.8-.8-1a2.2 2.2 0 0 0-1.2-.3 2.2 2.2 0 0 0-2 1.3c-.2.4-.3 1-.3 1.6v.5c0 .6 0 1.1.3 1.5a2.2 2.2 0 0 0 2.1 1.3l1-.1.7-.4.4-.5h1.4l-.4.8a3.1 3.1 0 0 1-1.8 1.3l-1.3.1Zm5.5-.1v-8.4h1.3v1.3h.2c.2-.5.5-.8.9-1 .4-.3.9-.4 1.5-.4 1 0 1.7.3 2.2.8.5.5.7 1.3.7 2.3v5.4h-1.3v-5c0-.8-.2-1.4-.5-1.8-.3-.3-.8-.5-1.5-.5-.4 0-.8 0-1.1.3a2 2 0 0 0-.8.8c-.2.3-.3.8-.3 1.3v4.9H128Zm12.5.1c-.8 0-1.5-.2-2-.5a3.5 3.5 0 0 1-1.4-1.5 5.2 5.2 0 0 1-.4-2.3c0-.9.1-1.6.4-2.3a3.5 3.5 0 0 1 3.4-2c.7 0 1.3.1 1.7.4a3.1 3.1 0 0 1 1.8 2.3h-1.3a2 2 0 0 0-.8-1 2.3 2.3 0 0 0-1.4-.5 2.2 2.2 0 0 0-2.2 1.4 4 4 0 0 0-.3 1.7c0 .6.1 1.2.3 1.7.2.4.5.8.9 1 .4.3.8.4 1.3.4a2.4 2.4 0 0 0 1.4-.3 2 2 0 0 0 .7-1v-.1h1.4a3 3 0 0 1-1.8 2.3 4 4 0 0 1-1.7.3Zm5.3-.1v-8.4h1.3v1.3h.2c.1-.5.4-.8.8-1a2.6 2.6 0 0 1 1.4-.4 3.4 3.4 0 0 1 .6 0v1.4a3.5 3.5 0 0 0-.8-.1c-.4 0-.8 0-1.1.2l-.8.7a2 2 0 0 0-.3 1.1v5.2h-1.3Zm6.6 3a3.3 3.3 0 0 1-.6-.1v-1.1h.6c.4 0 .7-.1 1-.3.2-.2.4-.5.5-1l.2-.5-3.1-8.4h1.4l2.6 7.7-.5-.8h.6l-.5.8 2.5-7.7h1.5l-3.3 8.9a6.3 6.3 0 0 1-.7 1.5 2 2 0 0 1-1 .7l-1.2.2Zm7.8-.2v-11.2h1.3v1.4h.1a2.7 2.7 0 0 1 1.6-1.3l1-.2c.7 0 1.4.2 1.9.5.5.4.9.9 1.2 1.5.3.7.4 1.4.4 2.3 0 .9-.1 1.6-.4 2.3a3.2 3.2 0 0 1-3 2 3 3 0 0 1-2-.7 2.5 2.5 0 0 1-.7-.7h-.1v4h-1.3Zm3.7-3.9c.5 0 1 0 1.3-.3.4-.3.7-.6.9-1.1.2-.5.3-1 .3-1.7 0-.6-.1-1.2-.3-1.7a2.2 2.2 0 0 0-2.2-1.4 2.2 2.2 0 0 0-2.1 1.4c-.2.5-.3 1-.3 1.7s0 1.2.3 1.7c.2.5.4.8.8 1 .4.3.8.4 1.3.4Zm8.7 1.1c-.8 0-1.5-.1-1.8-.5-.4-.3-.6-.9-.6-1.7v-5h-1.3v-1.2h1.3v-2.1h1.4v2.1h1.8v1.2h-1.8v4.7c0 .5 0 .8.3 1 .1.3.5.4.9.4a4.3 4.3 0 0 0 .6 0v1a6.4 6.4 0 0 1-.8.2Zm2.7 0v-8.4h1.3v8.4h-1.3Zm.7-10a1 1 0 0 1-1-.9.9.9 0 0 1 .3-.6c.2-.2.4-.3.7-.3s.4 0 .6.3c.2.1.3.4.3.6a1 1 0 0 1-1 1Zm3 10v-8.4h1.3v1.3h.2c.2-.4.5-.8.9-1 .4-.3.9-.4 1.5-.4 1 0 1.6.3 2.1.8s.8 1.3.8 2.3v5.4h-1.3v-5c0-.8-.2-1.4-.5-1.8-.3-.3-.8-.5-1.5-.5-.4 0-.8 0-1.1.3a2 2 0 0 0-.8.8 2.8 2.8 0 0 0-.3 1.3v4.9H179Zm12.5 3c-.7 0-1.2-.2-1.7-.4-.5-.1-1-.4-1.2-.8-.3-.3-.5-.7-.6-1.1h1.4c.1.3.3.5.7.7.3.2.8.3 1.4.3a2.7 2.7 0 0 0 1.8-.5c.4-.3.6-.8.6-1.4v-1.7h-.1a2.8 2.8 0 0 1-2.6 1.4c-.8 0-1.4-.1-2-.4a3.4 3.4 0 0 1-1.1-1.5c-.3-.6-.4-1.3-.4-2 0-.8.1-1.5.4-2.1a3.3 3.3 0 0 1 3-2c.5 0 .8 0 1.2.2a2.9 2.9 0 0 1 1.5 1.3v-1.4h1.4v8.3c0 .6-.1 1.1-.4 1.6a3 3 0 0 1-1.3 1c-.6.3-1.2.4-2 .4Zm0-4.6c.5 0 1-.2 1.3-.4.3-.2.6-.6.8-1 .2-.4.3-.9.3-1.5 0-.5 0-1-.3-1.4-.2-.5-.5-.8-.8-1-.4-.3-.8-.4-1.4-.4s-.9.1-1.3.4c-.3.2-.6.5-.8 1a3.7 3.7 0 0 0 0 3l.8 1c.4.1.8.3 1.3.3Zm11 4.5a3.2 3.2 0 0 1-.5 0v-1.1h.5c.4 0 .7-.1 1-.3l.6-1 .1-.5-3-8.4h1.4l2.5 7.7-.5-.8h.6l-.5.8 2.6-7.7h1.4l-3.3 8.9a6.3 6.3 0 0 1-.7 1.5 2 2 0 0 1-.9.7l-1.2.2Zm10.9-2.8a4 4 0 0 1-2-.5 3.5 3.5 0 0 1-1.4-1.5 5.3 5.3 0 0 1-.4-2.3c0-.9.1-1.6.4-2.3.3-.6.8-1.1 1.3-1.5a4 4 0 0 1 2.1-.5c.8 0 1.5.2 2 .5a3.4 3.4 0 0 1 1.4 1.5c.3.7.5 1.4.5 2.3a5.2 5.2 0 0 1-.5 2.3 3.5 3.5 0 0 1-3.4 2Zm0-1.2c.5 0 1 0 1.3-.3.4-.3.7-.6.9-1.1.2-.5.3-1 .3-1.7 0-.6-.1-1.2-.3-1.7-.2-.4-.5-.8-.9-1a2.3 2.3 0 0 0-1.3-.4c-.5 0-1 .1-1.3.4-.4.2-.7.6-.9 1-.2.5-.3 1-.3 1.7s.1 1.2.3 1.7c.2.5.5.8.9 1 .3.3.8.4 1.3.4Zm8.6 1.2c-.7 0-1.2 0-1.6-.3-.5-.3-.8-.6-1-1a4 4 0 0 1-.3-1.8v-5.4h1.3v5.1c0 .8.2 1.3.5 1.7.3.4.7.5 1.4.5l1-.1.7-.5.4-.7.2-1v-5h1.3v8.4h-1.3v-1.3h-.2c-.1.4-.3.6-.5.8-.2.2-.5.4-.9.5l-1 .1Zm6.3-.1v-8.4h1.3v1.3h.1c.2-.5.5-.8.8-1a2.6 2.6 0 0 1 1.5-.4 3.4 3.4 0 0 1 .6 0v1.4a3.5 3.5 0 0 0-.8-.1c-.4 0-.8 0-1.1.2-.4.2-.6.4-.8.7a2 2 0 0 0-.3 1.1v5.2h-1.3Zm10.3 0v-11.2h3.8c1.1 0 2 .2 2.8.7.8.4 1.4 1 1.8 1.9.5.8.7 1.8.7 3s-.2 2.2-.6 3a4.4 4.4 0 0 1-1.8 2c-.8.4-1.8.6-2.9.6h-3.8Zm1.4-1.3h2.3c.8 0 1.6-.1 2.1-.5a3.3 3.3 0 0 0 1.4-1.5c.3-.6.5-1.4.5-2.3 0-.9-.2-1.7-.5-2.3a3.3 3.3 0 0 0-1.4-1.5 4.1 4.1 0 0 0-2-.5H240v8.6Zm10 1.3v-11.2h1.3l6.4 9.2-1-.5h.8v-8.7h1.3V488h-1.3l-6.4-9.2 1 .5h-.8v8.7h-1.4Zm15.2.3c-.8 0-1.6-.2-2.2-.4a3.6 3.6 0 0 1-1.4-1.1 3 3 0 0 1-.6-1.6v-.1h1.4c0 .4.2.7.4 1 .3.3.6.5 1 .6a4.3 4.3 0 0 0 2.8 0c.4-.1.7-.4 1-.7.2-.2.3-.6.3-1s-.2-.8-.5-1.1c-.4-.3-1-.6-1.7-.8l-1.2-.2a4.9 4.9 0 0 1-2.5-1.2 2.8 2.8 0 0 1-.8-2c0-.6.2-1.1.6-1.6.3-.5.7-.9 1.3-1.1.6-.3 1.3-.4 2-.4.8 0 1.5 0 2 .4.6.2 1 .6 1.4 1 .4.5.6 1 .6 1.5v.2h-1.4v-.1a1.7 1.7 0 0 0-.4-1c-.2-.2-.5-.4-.9-.5a3.2 3.2 0 0 0-1.2-.3c-.5 0-1 .1-1.3.3a2.1 2.1 0 0 0-.9.6c-.2.3-.3.6-.3 1s.1.8.5 1.1c.3.3.9.5 1.6.7l1.2.3c.8.2 1.5.4 2 .7.4.2.7.6 1 1 .2.4.3.8.3 1.4 0 .7-.2 1.3-.5 1.8-.4.5-.8.9-1.5 1.1-.6.3-1.3.4-2.1.4Zm-177.6 20V500h1.3v1.3h.2c.1-.5.4-.8.8-1a2.6 2.6 0 0 1 1.4-.4h.7v1.3a3.8 3.8 0 0 0-.9 0c-.4 0-.8 0-1.1.2a2 2 0 0 0-1 1.8v5.2h-1.4Zm9 .2a3.5 3.5 0 0 1-3.3-2c-.3-.7-.5-1.4-.5-2.3 0-.8.2-1.6.5-2.2.3-.7.7-1.2 1.3-1.6a3.5 3.5 0 0 1 2-.5 3.4 3.4 0 0 1 3.1 2c.3.6.5 1.3.5 2.2v.5h-6.7v-1.1h6l-.7 1v-.5c0-.7 0-1.2-.3-1.7a2 2 0 0 0-2-1.2 2.2 2.2 0 0 0-2 1.3c-.2.4-.3 1-.3 1.6v.5c0 .6 0 1 .3 1.5a2.2 2.2 0 0 0 2.2 1.3l1-.1.6-.4.4-.5v-.1h1.4l-.4.9a3.1 3.1 0 0 1-1.7 1.2c-.4.2-.9.2-1.4.2Zm11.3 2.6v-4a2.5 2.5 0 0 1-1.6 1.2l-1.1.2a3.2 3.2 0 0 1-3-2 5.6 5.6 0 0 1-.5-2.3c0-.9.1-1.6.4-2.3a3.2 3.2 0 0 1 3.1-2 3 3 0 0 1 2.6 1.5h.1V500h1.4v11.2h-1.4Zm-2.4-3.8c.5 0 1-.1 1.3-.4.4-.2.7-.6.9-1 .2-.5.3-1 .3-1.7s-.1-1.2-.3-1.7c-.2-.4-.5-.8-.9-1-.4-.3-.8-.4-1.3-.4a2.2 2.2 0 0 0-2.1 1.4c-.2.5-.3 1-.3 1.7 0 .6 0 1.2.3 1.7.2.4.4.8.8 1 .4.3.8.4 1.3.4Zm8.9 1.2c-.6 0-1.2-.1-1.6-.4-.4-.2-.7-.6-1-1a4 4 0 0 1-.3-1.7V500h1.4v5.1c0 .7.1 1.3.4 1.7.3.3.8.5 1.4.5.4 0 .7 0 1-.2a1.8 1.8 0 0 0 1.1-1.2l.2-1V500h1.3v8.4H117V507h-.1c-.2.3-.3.6-.6.8l-.8.4-1.1.2Zm9.7 0a3.5 3.5 0 0 1-3.4-2c-.3-.7-.4-1.4-.4-2.3 0-.8.1-1.6.4-2.2.3-.7.8-1.2 1.3-1.6a3.5 3.5 0 0 1 2-.5 3.4 3.4 0 0 1 3.2 2c.3.6.5 1.3.5 2.2v.5H121v-1.1h6l-.7 1v-.5c0-.7-.1-1.2-.3-1.7a2 2 0 0 0-2-1.2c-.4 0-.9 0-1.2.3-.4.2-.6.5-.8 1-.2.4-.3 1-.3 1.6v.5c0 .6 0 1 .3 1.5a2.2 2.2 0 0 0 2.1 1.3l1-.1a2 2 0 0 0 1-1h1.5c-.1.4-.3.6-.5.9a3.1 3.1 0 0 1-1.7 1.2c-.4.2-.8.2-1.3.2Zm8.3 0a4.5 4.5 0 0 1-1.6-.3 2.9 2.9 0 0 1-1.2-.8 2.2 2.2 0 0 1-.5-1.2h1.4c.1.4.4.7.7.9.3.2.8.3 1.3.3.4 0 .7 0 1-.2.3 0 .5-.2.7-.4l.2-.7a1 1 0 0 0-.3-.7c-.3-.2-.6-.4-1.2-.5l-1.3-.3a4.7 4.7 0 0 1-1.2-.5 2 2 0 0 1-.8-.8l-.2-1c0-.5.1-.9.4-1.2.3-.4.6-.7 1.1-1l1.6-.2c.6 0 1 0 1.5.2s.9.5 1.1.8c.3.4.5.7.5 1.2h-1.3c0-.3-.3-.6-.6-.8a2.2 2.2 0 0 0-1.2-.3c-.3 0-.6 0-1 .2-.2 0-.4.2-.5.4a1 1 0 0 0-.2.6l.1.5.5.4.8.3 1.2.3a4 4 0 0 1 1.8.8c.4.4.6.9.6 1.5 0 .5-.2 1-.5 1.3a3 3 0 0 1-1.2.9c-.5.2-1 .3-1.7.3Zm8.2 0c-.9 0-1.5-.2-1.9-.6-.4-.3-.6-1-.6-1.7v-5h-1.3V500h1.3V498h1.4v2.1h1.9v1.1h-1.9v4.8c0 .5.1.8.3 1 .2.2.5.3 1 .3a4.3 4.3 0 0 0 .6 0v1.1a7.3 7.3 0 0 1-.8.1Zm5.3 0c-.6 0-1.2 0-1.6-.3a2.9 2.9 0 0 1-1.2-.8 2.2 2.2 0 0 1-.5-1.2h1.4c.1.4.3.7.7.9.3.2.7.3 1.3.3.3 0 .7 0 1-.2.2 0 .5-.2.6-.4.2-.2.3-.5.3-.7a1 1 0 0 0-.4-.7l-1-.5-1.4-.3a4.7 4.7 0 0 1-1.3-.5 2 2 0 0 1-.7-.8c-.2-.3-.2-.6-.2-1 0-.5 0-.9.4-1.2.2-.4.6-.7 1-1l1.7-.2c.6 0 1 0 1.5.2s.8.5 1.1.8c.3.4.5.7.5 1.2h-1.3c-.1-.3-.3-.6-.6-.8a2.2 2.2 0 0 0-1.2-.3c-.4 0-.7 0-1 .2-.2 0-.4.2-.5.4a1 1 0 0 0-.3.6c0 .2 0 .4.2.5 0 .2.2.3.4.4l.8.3 1.3.3a4 4 0 0 1 1.8.8c.4.4.6.9.6 1.5 0 .5-.2 1-.5 1.3a3 3 0 0 1-1.2.9c-.5.2-1 .3-1.7.3Z"/><mask id="A" width="2" height="110" x="298" y="403" maskUnits="userSpaceOnUse" style="mask-type:luminance"><path fill="#fff" d="M298 403.1h1.1v109.8h-1V403Z"/></mask><g mask="url(#A)"><path fill="#5B5B5B" d="M298 403.1v109.8h2.3V403H298Z"/></g><path fill="#67B279" fill-rule="evenodd" d="M333.1 403.1a15.8 15.8 0 1 0 0 31.7h22.6a15.8 15.8 0 0 0 0-31.7h-22.6Z" clip-rule="evenodd"/><path fill="#fff" d="M355.7 433.6a14.7 14.7 0 1 0 0-29.4 14.7 14.7 0 0 0 0 29.4Z"/><path fill="#1F1F1F" d="M389.7 531H27.5v126.8h362.2V531Z"/><mask id="B" width="363" height="3" x="27" y="530" maskUnits="userSpaceOnUse" style="mask-type:luminance"><path fill="#fff" d="M27.5 531h362.2v1.1H27.5V531Z"/></mask><g mask="url(#B)"><path fill="#5B5B5B" d="M27.5 532.1h362.2V530H27.5v2.2Z"/></g><path stroke="#67B279" stroke-linejoin="round" stroke-width="1.5" d="m59.2 571-4.3 3.3-.7-5.4-5.5-.7 3.4-4.4-3.4-4.3 5.5-.7.7-5.4 4.3 3.3 4.3-3.3.7 5.4 5.4.7-3.3 4.3 3.3 4.4-5.4.7-.7 5.4-4.3-3.4Z" clip-rule="evenodd"/><path stroke="#67B279" stroke-linecap="round" stroke-width="1.5" d="m55.8 563.5 2.7 2.6 4-4.5"/><path fill="#E4E4E4" d="m87 570.6 4.7-12.7h1.2v2h-.5l-3.8 10.7H87Zm2-3.6.6-1.4h5.7l.5 1.4h-6.7Zm7.3 3.6L92.5 560v-2h.7l4.7 12.7h-1.6Zm6.3.2a3.7 3.7 0 0 1-3.5-2.3c-.3-.8-.5-1.7-.5-2.6 0-1 .2-2 .5-2.7a3.7 3.7 0 0 1 3.5-2.3 3.5 3.5 0 0 1 2.3.8c.3.2.5.5.7.9h.1v-5.3h1.6v13.3h-1.6v-1.5h-.1a3.3 3.3 0 0 1-1.7 1.5l-1.3.2Zm.4-1.4c.6 0 1-.1 1.5-.4a3 3 0 0 0 1-1.2 5 5 0 0 0 .3-2c0-.7-.1-1.3-.4-1.9a2.8 2.8 0 0 0-1-1.2 2.6 2.6 0 0 0-1.4-.4c-.6 0-1.1.1-1.5.4a2.7 2.7 0 0 0-1 1.2 5 5 0 0 0-.3 2c0 .7.1 1.3.3 1.9.2.5.6 1 1 1.2.4.3.9.4 1.5.4Zm9.6 1.2-3.6-9.5h1.7l2.6 7.8h.1l2.6-7.8h1.7l-3.6 9.5h-1.5Zm9 .2c-.6 0-1.1-.1-1.6-.4a2.8 2.8 0 0 1-1.2-1 2.7 2.7 0 0 1-.4-1.4c0-.6.2-1.1.4-1.5.3-.4.7-.7 1.2-1a5.4 5.4 0 0 1 1.9-.4l3.5-.2v1.2l-3.3.2a2.9 2.9 0 0 0-1.6.5c-.3.3-.5.6-.5 1.1 0 .5.2.9.5 1.1.4.3.9.4 1.4.4.5 0 1 0 1.4-.3l1-.8.3-1.2v-3c0-.6-.2-1-.5-1.4-.4-.3-.9-.4-1.6-.4-.6 0-1 0-1.4.3-.4.2-.6.5-.8.8h-1.5c.1-.5.3-1 .6-1.3a3.3 3.3 0 0 1 1.3-.9 4.8 4.8 0 0 1 1.8-.3c.8 0 1.5.1 2 .4.6.2 1 .6 1.2 1 .3.6.5 1.1.5 1.8v6.5h-1.6v-1.4h-.1a3.3 3.3 0 0 1-1.7 1.4 4 4 0 0 1-1.2.2Zm7-.2v-9.5h1.6v1.4h.1c.3-.5.6-.9 1-1.2a3.2 3.2 0 0 1 1.8-.4c1 0 1.9.3 2.5 1 .5.5.8 1.4.8 2.5v6.2H135v-5.8c0-.8-.2-1.5-.6-1.9-.3-.4-.9-.6-1.6-.6-.6 0-1 0-1.4.3-.3.2-.6.5-.8 1-.2.3-.3.8-.3 1.4v5.6h-1.6Zm14.2.2c-1 0-1.7-.2-2.4-.6a4 4 0 0 1-1.5-1.8 6 6 0 0 1-.5-2.6c0-1 .2-1.9.5-2.6a4 4 0 0 1 3.8-2.3c.8 0 1.5.1 2 .4a3.5 3.5 0 0 1 2 2.6v.1h-1.5a2.2 2.2 0 0 0-.8-1.2 2.6 2.6 0 0 0-1.7-.5 2.5 2.5 0 0 0-2.4 1.6 4.7 4.7 0 0 0-.3 1.9c0 .7 0 1.4.3 2 .2.5.5.9 1 1.2.4.3.9.4 1.4.4.7 0 1.2-.1 1.6-.4.4-.3.7-.7.9-1.2h1.5a4 4 0 0 1-.7 1.6c-.3.4-.7.7-1.3 1-.5.2-1.2.4-2 .4Zm9.7 0a4 4 0 0 1-3.8-2.3 6 6 0 0 1-.5-2.6c0-1 .1-1.9.5-2.6.3-.8.8-1.3 1.5-1.8a4 4 0 0 1 2.2-.6 4 4 0 0 1 2.3.6 4 4 0 0 1 1.4 1.7c.3.7.5 1.5.5 2.5v.6H149V565h6.8l-.8 1v-.5a4.4 4.4 0 0 0-.3-1.9 2.4 2.4 0 0 0-2.3-1.4c-.5 0-1 .1-1.4.4-.4.2-.7.6-1 1-.1.6-.3 1.2-.3 1.9v.6c0 .7.1 1.2.4 1.7.2.5.5.9 1 1.1.4.3.9.4 1.5.4.4 0 .8 0 1-.2.4 0 .7-.2.9-.4l.4-.6h1.6l-.5 1a4 4 0 0 1-.8.8l-1.2.6a5 5 0 0 1-1.5.2Zm9.7 0a3.7 3.7 0 0 1-3.5-2.3c-.4-.8-.5-1.7-.5-2.6 0-1 .1-2 .5-2.7a4 4 0 0 1 1.3-1.7c.6-.4 1.3-.6 2.2-.6a3.5 3.5 0 0 1 2.2.8c.3.2.6.5.7.9h.2v-5.3h1.5v13.3h-1.5v-1.5h-.2a3.2 3.2 0 0 1-3 1.7Zm.3-1.4c.6 0 1-.1 1.5-.4a3 3 0 0 0 1-1.2 4.9 4.9 0 0 0 .3-2 5 5 0 0 0-.3-1.9 2.7 2.7 0 0 0-1-1.2 2.6 2.6 0 0 0-1.5-.4c-.6 0-1 .1-1.5.4a2.7 2.7 0 0 0-1 1.2 5 5 0 0 0-.3 2c0 .7.1 1.3.4 1.9.2.5.5 1 1 1.2.3.3.8.4 1.4.4Zm11.6 4.4v-12.7h1.6v1.5h.1a3.1 3.1 0 0 1 1.8-1.5l1.2-.2c.8 0 1.5.2 2.1.6.6.4 1 1 1.4 1.7.3.8.5 1.6.5 2.6s-.2 2-.5 2.7c-.3.7-.8 1.3-1.4 1.7-.6.4-1.3.6-2.1.6a3.5 3.5 0 0 1-2.3-.8c-.3-.2-.5-.5-.7-.9h-.1v4.7H174Zm4.3-4.4c.6 0 1.1-.1 1.5-.4.4-.3.8-.7 1-1.2.2-.6.3-1.2.3-2a4.9 4.9 0 0 0-.3-1.9 2.6 2.6 0 0 0-1-1.2 2.5 2.5 0 0 0-1.5-.4c-.5 0-1 .1-1.5.4-.4.3-.7.7-1 1.2a4.9 4.9 0 0 0-.2 2c0 .7 0 1.3.3 1.9.2.5.5.9 1 1.2.4.3.9.4 1.4.4Zm6.4 1.2v-9.5h1.6v1.4h.1c.2-.5.5-.9 1-1.2.4-.2 1-.4 1.6-.4a7 7 0 0 1 .8 0v1.6a4.4 4.4 0 0 0-1-.1c-.5 0-1 0-1.3.3-.4.2-.7.4-.9.8a2.3 2.3 0 0 0-.3 1.2v6h-1.5Zm10.2.2c-.9 0-1.6-.2-2.3-.6a4 4 0 0 1-1.5-1.7 6 6 0 0 1-.5-2.6c0-1 .1-2 .5-2.7a4 4 0 0 1 1.5-1.7c.7-.4 1.4-.6 2.3-.6 1 0 1.7.2 2.4.6a4 4 0 0 1 1.5 1.7c.4.7.5 1.6.5 2.6s-.1 2-.5 2.7a4 4 0 0 1-3.9 2.3Zm0-1.4c.6 0 1.2-.1 1.6-.4.4-.3.7-.7 1-1.2a5 5 0 0 0 .3-2 5 5 0 0 0-.4-1.9 2.6 2.6 0 0 0-1-1.2 2.7 2.7 0 0 0-1.4-.4c-.6 0-1.1.1-1.6.4-.4.3-.7.7-1 1.2a5 5 0 0 0-.3 2c0 .7.1 1.3.4 1.9.2.5.5 1 1 1.2.3.3.9.4 1.5.4Zm9.9 1.3c-1 0-1.7-.2-2.2-.6-.4-.4-.6-1-.6-2v-5.7h-1.5V561h1.5v-2.5h1.6v2.5h2v1.2h-2v5.4c0 .6 0 1 .3 1.3.2.2.6.3 1 .3h.8v1.3a11.5 11.5 0 0 1-1 0Zm6.6 0a4 4 0 0 1-3.9-2.2 6 6 0 0 1-.5-2.6c0-1 .2-1.9.5-2.6.4-.8.9-1.3 1.5-1.8a4 4 0 0 1 2.3-.6 4 4 0 0 1 2.2.6 4 4 0 0 1 1.4 1.7c.4.7.5 1.5.5 2.5v.6H208V565h6.9l-.8 1v-.5a4.4 4.4 0 0 0-.3-1.9 2.4 2.4 0 0 0-2.3-1.4c-.5 0-1 .1-1.4.4-.4.2-.7.6-1 1-.2.6-.3 1.2-.3 1.9v.6c0 .7.1 1.2.3 1.7.3.5.6.9 1 1.1.4.3 1 .4 1.5.4.4 0 .8 0 1.1-.2.4 0 .6-.2.8-.4l.5-.6h1.5a3.5 3.5 0 0 1-1.2 1.8 4.1 4.1 0 0 1-1.2.6 5 5 0 0 1-1.5.2Zm10 0c-.9 0-1.7-.1-2.3-.5a4 4 0 0 1-1.6-1.8 6 6 0 0 1-.5-2.6c0-1 .2-1.9.5-2.6a4 4 0 0 1 3.9-2.3c.7 0 1.4.1 2 .4a3.5 3.5 0 0 1 2 2.6v.1h-1.6a2.2 2.2 0 0 0-.8-1.2 2.6 2.6 0 0 0-1.6-.5 2.5 2.5 0 0 0-2.5 1.6 4.7 4.7 0 0 0-.3 1.9c0 .7.1 1.4.3 2 .3.5.6.9 1 1.2.4.3 1 .4 1.5.4.6 0 1.1-.1 1.5-.4.4-.3.7-.7 1-1.2h1.5a4 4 0 0 1-.8 1.6c-.3.4-.7.7-1.3 1s-1.2.4-2 .4Zm9.4 0c-1 0-1.7-.2-2.1-.6-.4-.4-.7-1-.7-2v-5.7h-1.5V561h1.5v-2.5h1.6v2.5h2.1v1.2h-2v5.4c0 .6 0 1 .3 1.3.2.2.5.3 1 .3h.7v1.3a11.2 11.2 0 0 1-.9 0Zm3 0V561h1.4v9.5h-1.5Zm.7-11.5a1 1 0 0 1-1-1 1 1 0 0 1 1-1c.3 0 .5 0 .7.2.2.2.3.5.3.8a1 1 0 0 1-1 1Zm7.2 11.6c-.9 0-1.7-.2-2.3-.6a4 4 0 0 1-1.6-1.7 6 6 0 0 1-.5-2.6c0-1 .2-2 .5-2.7a4 4 0 0 1 1.6-1.7c.6-.4 1.4-.6 2.3-.6 1 0 1.7.2 2.4.6a4 4 0 0 1 1.5 1.7c.3.7.5 1.6.5 2.6s-.2 2-.5 2.7a4 4 0 0 1-3.9 2.3Zm0-1.4c.6 0 1.1-.1 1.5-.4.5-.3.8-.7 1-1.2a5 5 0 0 0 .3-2 5 5 0 0 0-.3-1.9 2.6 2.6 0 0 0-1-1.2 2.7 2.7 0 0 0-1.5-.4c-.6 0-1 .1-1.5.4-.4.3-.8.7-1 1.2a5 5 0 0 0-.3 2c0 .7.1 1.3.3 1.9.2.5.6 1 1 1.2.4.3 1 .4 1.5.4Zm6.4 1.2v-9.5h1.6v1.4h.1c.3-.5.6-.9 1-1.2a3.2 3.2 0 0 1 1.8-.4c1 0 1.9.3 2.5 1 .5.5.8 1.4.8 2.5v6.2h-1.5v-5.8c0-.8-.2-1.5-.6-1.9-.3-.4-.9-.6-1.6-.6-.5 0-1 0-1.4.3-.3.2-.6.5-.8 1-.2.3-.3.8-.3 1.4v5.6h-1.6Z"/><mask id="C" width="2" height="90" x="298" y="550" maskUnits="userSpaceOnUse" style="mask-type:luminance"><path fill="#fff" d="M298 550.2h1.1v89.5h-1v-89.5Z"/></mask><g mask="url(#C)"><path fill="#5B5B5B" d="M298 550.2v89.5h2.3v-89.5H298Z"/></g><path fill="#67B279" fill-rule="evenodd" d="M333.1 550.2a15.8 15.8 0 0 0 0 31.7h22.6a15.8 15.8 0 1 0 0-31.7h-22.6Z" clip-rule="evenodd"/><path fill="#fff" d="M355.7 580.8a14.7 14.7 0 1 0 0-29.4 14.7 14.7 0 0 0 0 29.4Z"/></g><rect width="398.1" height="895.4" y="7.2" fill="url(#D)" fill-opacity=".3" rx="41" style="mix-blend-mode:screen"/></g></g><defs><linearGradient id="d" x1="4.5" x2="4.5" y1="1.9" y2="830.1" gradientUnits="userSpaceOnUse"><stop stop-color="#C9C6C8"/><stop offset="0" stop-color="#716D6D"/><stop offset=".1" stop-color="#C9C6C8"/><stop offset=".9" stop-color="#C9C6C8"/><stop offset="1" stop-color="#716D6D"/><stop offset="1" stop-color="#C9C6C8"/></linearGradient><linearGradient id="e" x1="195.1" x2="195.1" y1="6.1" y2="58.6" gradientUnits="userSpaceOnUse"><stop stop-opacity=".9"/><stop offset="1" stop-opacity="0"/></linearGradient><linearGradient id="f" x1="222.4" x2="222.4" y1="825.9" y2="768" gradientUnits="userSpaceOnUse"><stop stop-opacity=".9"/><stop offset="1" stop-opacity="0"/></linearGradient><linearGradient id="g" x1="194.8" x2="194.8" y1="9" y2="61.1" gradientUnits="userSpaceOnUse"><stop stop-opacity=".5"/><stop offset="1" stop-opacity="0"/></linearGradient><linearGradient id="h" x1="222.5" x2="222.5" y1="822.4" y2="764.9" gradientUnits="userSpaceOnUse"><stop stop-opacity=".5"/><stop offset="1" stop-opacity="0"/></linearGradient><linearGradient id="i" x1="8.7" x2="8.7" y1="6.1" y2="825.9" gradientUnits="userSpaceOnUse"><stop stop-color="#5F5F5F"/><stop offset="0" stop-color="#222"/><stop offset="1" stop-color="#252525"/></linearGradient><linearGradient id="j" x1="12.8" x2="12.8" y1="10" y2="821.4" gradientUnits="userSpaceOnUse"><stop stop-color="#6D6D6D"/><stop offset="0"/><stop offset="1"/><stop offset="1" stop-color="#5C5C5C"/></linearGradient><linearGradient id="D" x1="3.6" x2="388.9" y1="12.2" y2="381.8" gradientUnits="userSpaceOnUse"><stop stop-color="#fff"/><stop offset=".7" stop-color="#fff" stop-opacity="0"/></linearGradient><filter id="c" width="407" height="828.1" x="4.5" y="1.9" color-interpolation-filters="sRGB" filterUnits="userSpaceOnUse"><feFlood flood-opacity="0" result="BackgroundImageFix"/><feBlend in="SourceGraphic" in2="BackgroundImageFix" result="shape"/><feColorMatrix in="SourceAlpha" result="hardAlpha" values="0 0 0 0 0 0 0 0 0 0 0 0 0 0 0 0 0 0 127 0"/><feOffset/><feGaussianBlur stdDeviation="4"/><feComposite in2="hardAlpha" k2="-1" k3="1" operator="arithmetic"/><feColorMatrix values="0 0 0 0 0 0 0 0 0 0 0 0 0 0 0 0 0 0 0.6 0"/><feBlend in2="shape" result="effect1_innerShadow_1_9074"/></filter><filter id="n" width="50.1" height="6.8" x="183.1" y="29.9" color-interpolation-filters="sRGB" filterUnits="userSpaceOnUse"><feFlood flood-opacity="0" result="BackgroundImageFix"/><feBlend in="SourceGraphic" in2="BackgroundImageFix" result="shape"/><feColorMatrix in="SourceAlpha" result="hardAlpha" values="0 0 0 0 0 0 0 0 0 0 0 0 0 0 0 0 0 0 127 0"/><feOffset/><feGaussianBlur stdDeviation="2"/><feComposite in2="hardAlpha" k2="-1" k3="1" operator="arithmetic"/><feColorMatrix values="0 0 0 0 0 0 0 0 0 0 0 0 0 0 0 0 0 0 0.795035 0"/><feBlend in2="shape" result="effect1_innerShadow_1_9074"/><feColorMatrix in="SourceAlpha" result="hardAlpha" values="0 0 0 0 0 0 0 0 0 0 0 0 0 0 0 0 0 0 127 0"/><feOffset dy="-4"/><feComposite in2="hardAlpha" k2="-1" k3="1" operator="arithmetic"/><feColorMatrix values="0 0 0 0 0 0 0 0 0 0 0 0 0 0 0 0 0 0 0.80013 0"/><feBlend in2="effect1_innerShadow_1_9074" result="effect2_innerShadow_1_9074"/><feColorMatrix in="SourceAlpha" result="hardAlpha" values="0 0 0 0 0 0 0 0 0 0 0 0 0 0 0 0 0 0 127 0"/><feOffset dy="-2"/><feComposite in2="hardAlpha" k2="-1" k3="1" operator="arithmetic"/><feColorMatrix values="0 0 0 0 1 0 0 0 0 1 0 0 0 0 1 0 0 0 0.197067 0"/><feBlend in2="effect2_innerShadow_1_9074" result="effect3_innerShadow_1_9074"/></filter><filter id="q" width="16.4" height="16.4" x="244" y="24.9" color-interpolation-filters="sRGB" filterUnits="userSpaceOnUse"><feFlood flood-opacity="0" result="BackgroundImageFix"/><feColorMatrix in="SourceAlpha" result="hardAlpha" values="0 0 0 0 0 0 0 0 0 0 0 0 0 0 0 0 0 0 127 0"/><feOffset/><feGaussianBlur stdDeviation="2.5"/><feColorMatrix values="0 0 0 0 0 0 0 0 0 0 0 0 0 0 0 0 0 0 0.4 0"/><feBlend in2="BackgroundImageFix" result="effect1_dropShadow_1_9074"/><feColorMatrix in="SourceAlpha" result="hardAlpha" values="0 0 0 0 0 0 0 0 0 0 0 0 0 0 0 0 0 0 127 0"/><feOffset/><feColorMatrix values="0 0 0 0 0 0 0 0 0 0 0 0 0 0 0 0 0 0 1 0"/><feBlend in2="effect1_dropShadow_1_9074" result="effect2_dropShadow_1_9074"/><feBlend in="SourceGraphic" in2="effect2_dropShadow_1_9074" result="shape"/></filter><filter id="t" width="17.8" height="27.4" x="235.7" y="17.8" color-interpolation-filters="sRGB" filterUnits="userSpaceOnUse"><feFlood flood-opacity="0" result="BackgroundImageFix"/><feBlend in="SourceGraphic" in2="BackgroundImageFix" result="shape"/><feGaussianBlur result="effect1_foregroundBlur_1_9074" stdDeviation="2.7"/></filter><filter id="u" width="14.7" height="15.7" x="247.4" y="24.4" color-interpolation-filters="sRGB" filterUnits="userSpaceOnUse"><feFlood flood-opacity="0" result="BackgroundImageFix"/><feBlend in="SourceGraphic" in2="BackgroundImageFix" result="shape"/><feGaussianBlur result="effect1_foregroundBlur_1_9074" stdDeviation="2.7"/></filter><filter id="v" width="13.8" height="12.1" x="246" y="29.5" color-interpolation-filters="sRGB" filterUnits="userSpaceOnUse"><feFlood flood-opacity="0" result="BackgroundImageFix"/><feBlend in="SourceGraphic" in2="BackgroundImageFix" result="shape"/><feGaussianBlur result="effect1_foregroundBlur_1_9074" stdDeviation="2"/></filter><clipPath id="a"><path fill="#fff" d="M0 0h416v576H0z"/></clipPath><clipPath id="b"><path fill="#fff" d="M2.6 0h410.8v832H2.6z"/></clipPath><clipPath id="l"><path fill="#fff" d="M183.1 29.9h50.1v6.7h-50z"/></clipPath><clipPath id="o"><path fill="#fff" d="M246 27h12.3v12.2H246z"/></clipPath><radialGradient id="k" cx="0" cy="0" r="1" gradientTransform="scale(82.5075 234.965) rotate(90 -.5 3)" gradientUnits="userSpaceOnUse"><stop stop-color="#fff" stop-opacity=".1"/><stop offset="1" stop-color="#fff" stop-opacity="0"/></radialGradient><radialGradient id="p" cx="0" cy="0" r="1" gradientTransform="rotate(45.2 78.3 335) scale(12.2877)" gradientUnits="userSpaceOnUse"><stop stop-color="#434343"/><stop offset="1" stop-color="#121212"/></radialGradient><radialGradient id="r" cx="0" cy="0" r="1" gradientTransform="rotate(90 111.2 141) scale(6.42471)" gradientUnits="userSpaceOnUse"><stop stop-color="#2A4893"/><stop offset="1" stop-color="#213054"/></radialGradient></defs></svg>