<svg xmlns="http://www.w3.org/2000/svg" width="348" height="480" fill="none"><g clip-path="url(#a)"><g clip-path="url(#b)"><path fill="#000" fill-rule="evenodd" d="M63.2 0h221.6c42.7 0 61 21 61 61v574c0 38.6-19.7 61-61 61H63.2c-42.7 0-61-21-61-61V61c0-40 18.3-61 61-61Z" clip-rule="evenodd"/><g fill-rule="evenodd" clip-rule="evenodd" filter="url(#c)"><path fill="#C9C6C8" d="M63.2 1.6C22.4 1.6 3.8 21 3.8 61v574c0 40 18.6 59.4 59.4 59.4h221.7c39.3 0 59.3-20.7 59.3-59.4V61c0-40-18.6-59.4-59.3-59.4H63.2Z"/><path fill="url(#d)" d="M63.2 1.6C22.4 1.6 3.8 21 3.8 61v574c0 40 18.6 59.4 59.4 59.4h221.7c39.3 0 59.3-20.7 59.3-59.4V61c0-40-18.6-59.4-59.3-59.4H63.2Z"/></g><path fill="url(#e)" d="M343.4 649.1c-4 27.9-23.7 41.8-58.5 41.8H63.2c-35.6 0-54.3-12.5-58.5-40.3 6.3 24.5 24.8 37.3 58.5 37.3h221.7c33 0 52.1-14 58.5-38.8ZM285 5.1c34.9 0 53.6 12.1 58.2 39-6.5-24-25-36.6-58.2-36.6H63.2C29.9 7.5 11.4 20 4.9 44 9.5 17.2 28.2 5.1 63.2 5.1h221.7Z"/><path fill="url(#f)" d="M343.4 649.1c-4 27.9-23.7 41.8-58.5 41.8H63.2c-35.6 0-54.3-12.5-58.5-40.3 6.3 24.5 24.8 37.3 58.5 37.3h221.7c33 0 52.1-14 58.5-38.8ZM285 5.1c34.9 0 53.6 12.1 58.2 39-6.5-24-25-36.6-58.2-36.6H63.2C29.9 7.5 11.4 20 4.9 44 9.5 17.2 28.2 5.1 63.2 5.1h221.7Z"/><path fill="url(#g)" fill-rule="evenodd" d="M63.2 7.5h221.6c42.7 0 61 20.6 61 59.7v561.1c0 37.7-19.7 59.6-61 59.6H63.2c-42.7 0-61-20.6-61-59.6V67.2c0-39 18.3-59.7 61-59.7Z" clip-rule="evenodd"/><path fill="url(#h)" fill-rule="evenodd" d="M63.2 7.5h221.6c42.7 0 61 20.6 61 59.7v561.1c0 37.7-19.7 59.6-61 59.6H63.2c-42.7 0-61-20.6-61-59.6V67.2c0-39 18.3-59.7 61-59.7Z" clip-rule="evenodd"/><path fill="url(#i)" stroke="#000" stroke-width="3" d="M63.2 6.6h221.6c19.1 0 32.6 4.3 41.4 13.1 8.7 8.8 13 22.3 13 41.3v574c0 18.3-4.6 31.8-13.5 40.8-9 9-22.5 13.6-40.9 13.6H63.2c-19.1 0-32.6-4.3-41.4-13.1-8.7-8.8-13-22.3-13-41.3V61c0-19 4.3-32.5 13-41.3 8.8-8.8 22.3-13 41.4-13Z"/><path fill="url(#j)" fill-rule="evenodd" d="M63.2 8.3h221.7c36.5 0 52.4 15.9 52.4 52.4v574c0 35.2-17.2 52.4-52.4 52.4H63.2c-36.6 0-52.5-15.8-52.5-52.4v-574c0-36.5 15.9-52.4 52.5-52.4Z" clip-rule="evenodd"/><path fill="url(#k)" fill-rule="evenodd" d="M63.2 8.3h221.7c36.5 0 52.4 15.9 52.4 52.4v574c0 35.2-17.2 52.4-52.4 52.4H63.2c-36.6 0-52.5-15.8-52.5-52.4v-574c0-36.5 15.9-52.4 52.5-52.4Z" clip-rule="evenodd"/><path fill="#000" d="M63.2 13.7c-33.6 0-47 13.5-47 47v574c0 33.6 13.4 47 47 47h221.6c32.3 0 47-14.7 47-47v-574c0-33.5-13.4-47-47-47H63.2Z"/></g><path fill="#000" d="M2.1 66.6h6v4.9H2zm337.8 0h6v4.9h-6zM274.4 6V0h4.8v6z" opacity=".6"/><g clip-path="url(#l)" opacity=".8"><rect width="41.9" height="5.6" x="153.2" y="25" fill="#1D1C1C" rx="2.8"/><mask id="m" width="43" height="7" x="153" y="24" maskUnits="userSpaceOnUse" style="mask-type:luminance"><rect width="41.9" height="5.6" x="153.2" y="25" fill="#fff" rx="2.8"/></mask><g mask="url(#m)"><path fill="#000" fill-opacity=".1" d="M195 30h-41.8v-.4H195v.4Zm0-1.2h-41.8v-.4H195v.4Zm0-1.1h-41.8v-.4H195v.4Zm0-1.2h-41.8v-.4H195v.4Zm0-1.1h-41.8V25H195v.4Z"/><path fill="none" d="M195 30.8h-41.8v-.4H195v.4Zm0-1.2h-41.8v-.3H195v.3Zm0-1.1h-41.8V28H195v.4Zm0-1.2h-41.8V27H195v.4Zm0-1.1h-41.8v-.4H195v.4Z"/><path fill="#000" fill-opacity=".1" d="M154 31.1h-.4v-6.5h.5v6.5Zm1.4 0h-.4v-6.5h.4v6.5Zm1.4 0h-.5v-6.5h.5v6.5Zm1.3 0h-.4v-6.5h.4v6.5Zm1.4 0h-.5v-6.5h.5v6.5Zm1.3 0h-.5v-6.5h.5v6.5Zm1.3 0h-.4v-6.5h.4v6.5Zm1.4 0h-.5v-6.5h.5v6.5Zm1.3 0h-.4v-6.5h.4v6.5Zm1.4 0h-.5v-6.5h.5v6.5Zm1.3 0h-.4v-6.5h.4v6.5Zm1.4 0h-.5v-6.5h.5v6.5Zm1.3 0h-.4v-6.5h.4v6.5Zm1.4 0h-.5v-6.5h.5v6.5Zm1.3 0h-.4v-6.5h.4v6.5Zm1.4 0h-.5v-6.5h.5v6.5Zm1.3 0h-.4v-6.5h.4v6.5Zm1.3 0h-.4v-6.5h.4v6.5Zm1.4 0h-.5v-6.5h.5v6.5Zm1.3 0h-.4v-6.5h.4v6.5Zm1.4 0h-.5v-6.5h.5v6.5Zm1.3 0h-.4v-6.5h.4v6.5Zm1.4 0h-.5v-6.5h.5v6.5Zm1.3 0h-.4v-6.5h.4v6.5Zm1.4 0h-.5v-6.5h.5v6.5Zm1.3 0h-.4v-6.5h.4v6.5Zm1.4 0h-.5v-6.5h.5v6.5Zm1.3 0h-.4v-6.5h.4v6.5Zm1.3 0h-.4v-6.5h.4v6.5Zm1.4 0h-.5v-6.5h.5v6.5Zm1.3 0h-.4v-6.5h.4v6.5Z"/><path fill="none" d="M153.3 31.1h-.5v-6.5h.5v6.5Zm1.3 0h-.4v-6.5h.4v6.5Zm1.4 0h-.5v-6.5h.5v6.5Zm1.3 0h-.4v-6.5h.4v6.5Zm1.3 0h-.4v-6.5h.4v6.5Zm1.4 0h-.5v-6.5h.5v6.5Zm1.3 0h-.4v-6.5h.4v6.5Zm1.4 0h-.5v-6.5h.5v6.5Zm1.3 0h-.4v-6.5h.4v6.5Zm1.4 0h-.5v-6.5h.5v6.5Zm1.3 0h-.4v-6.5h.4v6.5Zm1.4 0h-.5v-6.5h.5v6.5Zm1.3 0h-.4v-6.5h.4v6.5Zm1.4 0h-.5v-6.5h.5v6.5Zm1.3 0h-.4v-6.5h.4v6.5Zm1.3 0h-.4v-6.5h.4v6.5Zm1.4 0h-.5v-6.5h.5v6.5Zm1.3 0h-.4v-6.5h.4v6.5Zm1.4 0h-.5v-6.5h.5v6.5Zm1.3 0h-.4v-6.5h.4v6.5Zm1.4 0h-.5v-6.5h.5v6.5Zm1.3 0h-.4v-6.5h.4v6.5Zm1.4 0h-.5v-6.5h.5v6.5Zm1.3 0h-.4v-6.5h.4v6.5Zm1.4 0h-.5v-6.5h.5v6.5Zm1.3 0h-.4v-6.5h.4v6.5Zm1.4 0h-.5v-6.5h.5v6.5Zm1.3 0h-.5v-6.5h.5v6.5Zm1.3 0h-.4v-6.5h.4v6.5Zm1.4 0h-.5v-6.5h.5v6.5Zm1.3 0h-.4v-6.5h.4v6.5Z"/></g><g filter="url(#n)" opacity=".2"><rect width="41.9" height="5.6" x="153.2" y="25" fill="none" rx="2.8"/></g></g><g clip-path="url(#o)"><path fill="url(#p)" fill-rule="evenodd" d="M211 32.8a5.1 5.1 0 1 0 0-10.2 5.1 5.1 0 0 0 0 10.2Z" clip-rule="evenodd"/><g filter="url(#q)" opacity=".4"><path fill="url(#r)" fill-rule="evenodd" d="M211 30.4a2.7 2.7 0 1 0 0-5.4 2.7 2.7 0 0 0 0 5.4Z" clip-rule="evenodd"/></g><mask id="s" width="6" height="7" x="208" y="24" maskUnits="userSpaceOnUse" style="mask-type:luminance"><path fill="#fff" fill-rule="evenodd" d="M211 30.4a2.7 2.7 0 1 0 0-5.4 2.7 2.7 0 0 0 0 5.4Z" clip-rule="evenodd"/></mask><g mask="url(#s)"><g filter="url(#t)"><path fill="#3E89CC" fill-rule="evenodd" d="M204.6 24.9c1-3.6 3.5-6.4 1.5-6.9-1.9-.4-2.3-.4-5.1 6.3-2.8 6.8.4 9.6 2.3 10 2 .5.4-5.9 1.3-9.4Z" clip-rule="evenodd"/></g><g filter="url(#u)"><path fill="#1C5894" fill-rule="evenodd" d="M213.1 29c.9 0 1.6-.9 1.6-2s-.7-2-1.6-2c-.9 0-1.6.9-1.6 2s.7 2 1.6 2Z" clip-rule="evenodd"/></g><g filter="url(#v)"><path fill="#0A152B" fill-rule="evenodd" d="M212 31.3c1.2-.4 2-1.4 1.8-2.2-.2-.8-1.4-1.2-2.7-.8-1.3.3-2.1 1.3-1.9 2.1.3.8 1.5 1.2 2.7.9Z" clip-rule="evenodd"/></g></g></g><mask id="w" width="304" height="656" x="22" y="20" maskUnits="userSpaceOnUse" style="mask-type:luminance"><path fill="#fff" fill-rule="evenodd" d="M258.2 27.7v.2c0 7.5-5.7 17-18.8 17H108.8c-13 0-18.8-9.5-18.8-17v-.2c0-3.5 0-7-6.2-7h-26c-21.8 0-35 13.1-35 35v584.7c0 21.8 13.2 35 35 35h232.4c21.8 0 35-13.2 35-35V55.6c0-21.8-13.2-35-35-35h-25.8c-6.2 0-6.2 3.6-6.2 7Z" clip-rule="evenodd"/></mask><g mask="url(#w)"><path fill="#fff" d="M326 20H23v641h303V20Z"/><path fill="#7F7F7F" fill-rule="evenodd" d="M50.4 26.4c0-.3.2-.5.4-.5h1.5c.2 0 .4.2.4.5v8c0 .3-.2.5-.4.5h-1.5a.5.5 0 0 1-.4-.5v-8Zm-3.8 2.4c0-.3.2-.5.5-.5h1.4c.2 0 .4.2.4.5v5.6c0 .3-.2.5-.4.5H47a.5.5 0 0 1-.5-.5v-5.6Zm-3.8 1.9c0-.3.2-.5.5-.5h1.4c.2 0 .5.2.5.5v3.7c0 .3-.3.5-.5.5h-1.4a.5.5 0 0 1-.5-.5v-3.7ZM39 32.5c0-.2.2-.4.5-.4h1.4c.3 0 .5.2.5.4v2c0 .2-.3.4-.5.4h-1.4a.5.5 0 0 1-.5-.5v-1.9Z" clip-rule="evenodd"/><path stroke="#7F7F7F" d="M286.9 26h16c1.1 0 2 .8 2 1.8V33c0 1-.9 2-2 2h-16c-1 0-1.9-1-1.9-2v-5.2c0-1 .8-1.9 1.9-1.9Z" opacity=".4"/><path fill="#7F7F7F" d="M302.5 27.3h-15.1a1 1 0 0 0-1 1v4.2c0 .6.4 1 1 1h15.1c.5 0 1-.4 1-1v-4.2c0-.5-.5-1-1-1Zm5.2 2a.7.7 0 1 0-1.4 0v2.3a.7.7 0 1 0 1.4 0v-2.4Z"/><path fill="#3D3D3D" d="m144.7 72.6 3.9-10.7h1v1.7h-.4l-3.1 9h-1.4Zm1.7-3.1.5-1.1h4.8l.4 1.1h-5.7Zm6 3-3-8.9v-1.7h.5l4 10.7h-1.4Zm5.4.2a3 3 0 0 1-3-2c-.2-.6-.4-1.3-.4-2.1 0-.9.2-1.6.4-2.2.3-.6.7-1.1 1.2-1.5a3 3 0 0 1 1.8-.5 3 3 0 0 1 1.9.7l.6.7v-4.4h1.4v11.2h-1.3v-1.3h-.1l-.7.7a2.8 2.8 0 0 1-1.8.7Zm.3-1.1c.4 0 .9-.2 1.2-.4.4-.3.6-.6.8-1 .2-.5.3-1 .3-1.6a4 4 0 0 0-.3-1.6c-.2-.5-.4-.8-.8-1-.3-.3-.8-.4-1.2-.4-.5 0-1 .1-1.3.3l-.8 1c-.2.5-.3 1-.3 1.7 0 .6.1 1.1.3 1.6.2.4.5.8.8 1 .4.2.8.4 1.3.4Zm10.3 1.2a5 5 0 0 1-2-.4c-.6-.3-1-.6-1.5-1.1-.4-.5-.7-1-1-1.8-.2-.7-.3-1.4-.3-2.3 0-1.1.2-2.1.6-3 .4-.8 1-1.4 1.7-1.9a5 5 0 0 1 4.7-.3 4 4 0 0 1 2.3 3h-1.4a3 3 0 0 0-1-1.6c-.6-.4-1.3-.5-2-.5a3.2 3.2 0 0 0-3.1 2c-.3.7-.5 1.4-.5 2.3 0 .7.1 1.3.3 1.8.1.6.4 1 .7 1.4a3.1 3.1 0 0 0 2.5 1.2c.7 0 1.2-.2 1.7-.4.5-.3.9-.6 1.1-1 .3-.5.4-1 .4-1.7v-.2h-3V67h4.4v1.3c0 .7-.2 1.3-.4 1.8a4 4 0 0 1-2.3 2.3c-.6.2-1.2.3-1.9.3Zm9.1-.1a3 3 0 0 1-1.5-.3l-1-1-.2-1.7v-5.1h1.3v4.8c0 .7.1 1.3.4 1.6.3.4.7.6 1.4.6l.9-.2.7-.4.4-.8.1-.9v-4.7h1.3v8H180v-1.2h-.1a2.2 2.2 0 0 1-1.3 1.1l-1 .2Zm8.1 0c-.5 0-1-.1-1.4-.3l-1-.8c-.1-.4-.3-.8-.3-1.3s.2-.9.4-1.2c.2-.3.5-.6 1-.8.4-.2 1-.3 1.6-.3l2.9-.2v1l-2.8.2c-.6 0-1 .1-1.3.4-.3.2-.4.5-.4.9s.1.7.4 1c.3.2.7.3 1.2.3.4 0 .8-.1 1.1-.3.4-.2.6-.4.8-.7.2-.3.3-.6.3-1V67c0-.5-.1-.9-.4-1.1-.3-.3-.8-.4-1.4-.4-.4 0-.8 0-1.1.2-.3.2-.5.4-.6.8h-1.3c0-.5.2-.9.5-1.2l1-.7a4 4 0 0 1 1.6-.3c.6 0 1.2.1 1.6.4.5.2.8.5 1 .9.3.4.4.8.4 1.4v5.5h-1.3v-1.2a2.7 2.7 0 0 1-2.5 1.3Zm5.9-.1v-8h1.3v1.2c.2-.5.5-.8.9-1 .3-.2.8-.4 1.3-.4h.7v1.3a3.8 3.8 0 0 0-.8 0c-.4 0-.8 0-1.1.2l-.8.7a2 2 0 0 0-.2 1v5h-1.3Zm8.2 0a3 3 0 0 1-3-1.9c-.2-.6-.4-1.3-.4-2.1 0-.9.2-1.6.5-2.2.2-.6.6-1.1 1.1-1.5a3 3 0 0 1 1.8-.5 3 3 0 0 1 1.9.7l.6.7v-4.4h1.4v11.2h-1.3v-1.3h-.1l-.6.7-.9.5a3 3 0 0 1-1 .2Zm.3-1c.5 0 .9-.2 1.2-.4.4-.3.6-.6.8-1 .2-.5.3-1 .3-1.6a4 4 0 0 0-.3-1.6c-.2-.5-.4-.8-.8-1-.3-.3-.7-.4-1.2-.4s-1 .1-1.3.3l-.8 1c-.2.5-.2 1-.2 1.7 0 .6 0 1.1.2 1.6.2.4.5.8.8 1 .4.2.8.4 1.3.4Z"/><path stroke="#67B279" stroke-linecap="round" stroke-width="1.5" d="M293.8 62.6c3.4-5 12.8-3.3 13.3 4.7v1.5m-2 3.3c-3.3 4.9-12.7 3.3-13.2-4.8v-.9"/><path stroke="#67B279" stroke-linecap="round" stroke-linejoin="round" stroke-width="1.5" d="m309 67.3-2 2-1.8-2m-15.2 0 2-1.8 1.8 1.8m-168.5 98.5a11.4 11.4 0 1 0 0-22.7 11.4 11.4 0 0 0 0 22.7Z"/><path stroke="#67B279" stroke-linecap="round" stroke-width="1.5" d="m121.5 158.2 7.5-7.5m-5 2.5 2.5 2.5m-.6-3.1 1.3 1.2m-3.8 1.3 1.2 1.3"/><path stroke="#67B279" stroke-linecap="round" stroke-linejoin="round" stroke-width="1.5" d="m170.7 153.2 3.8 3.8 5-6.3"/><path stroke="#67B279" stroke-linecap="round" stroke-linejoin="round" stroke-width="1.5" d="M174.5 143c-3.6 0-7.8 1-11.4 2.7 0 3.9 0 13.5 11.4 20.1 11.4-6.6 11.4-16.2 11.4-20.1a26.2 26.2 0 0 0-11.4-2.6Z" clip-rule="evenodd"/><path stroke="#67B279" stroke-linecap="round" stroke-linejoin="round" stroke-width="1.5" d="M223.7 167a12.6 12.6 0 1 0 0-25.2 12.6 12.6 0 0 0 0 25.3Z"/><path stroke="#67B279" stroke-linecap="round" stroke-linejoin="round" stroke-width="1.5" d="M223.6 149.4c2.7.2 5.5.5 7.9 2 1.4 1 2.3 2.3 2.3 4.1 0 2.8-1.9 4.3-4.4 4-1.1-.2-2.2-.4-3.2-.8a11 11 0 0 0-5.5.2c-.9.2-1.7.5-2.7.6-1.6.2-3.4-.5-4-2.2-.9-2.1 0-4.6 1.8-5.8 2.4-1.6 5-2 7.8-2Z" clip-rule="evenodd"/><path stroke="#67B279" stroke-linecap="round" stroke-linejoin="round" stroke-width="1.5" d="M228.8 155.7v-1.2m-10.1 1.2v-1.2"/><path fill="#3D3D3D" d="M66.2 209v-2.6h4c.9 0 1.6-.2 2.2-.7.5-.5.8-1.2.8-2.1 0-1-.3-1.6-.8-2.1-.6-.5-1.3-.8-2.3-.8h-4v-2.6H71a6 6 0 0 1 3 .7c.8.4 1.5 1 2 1.9.4.8.7 1.8.7 2.9 0 1-.3 2-.7 2.9-.5.8-1.2 1.4-2 1.9-.8.4-1.8.7-3 .7h-4.7Zm-1.7 5.1v-16h3.3v16h-3.3Zm14 0v-12h3.3v2.1a3 3 0 0 1 1-1.7c.5-.4 1.1-.6 1.8-.6a4.2 4.2 0 0 1 1 .2v2.8l-.5-.1h-.7a3 3 0 0 0-1.4.2 2 2 0 0 0-1 1l-.2 1.4v6.7h-3.3Zm13.7.3c-1.2 0-2.2-.3-3.1-.8a5 5 0 0 1-2-2.1c-.5-1-.8-2-.8-3.4a7 7 0 0 1 .8-3.3c.4-1 1.1-1.6 2-2.1.9-.5 2-.8 3.1-.8 1.2 0 2.3.3 3.2.8.8.5 1.5 1.2 2 2 .5 1 .7 2.1.7 3.4 0 1.3-.2 2.5-.7 3.4a5 5 0 0 1-2 2.1c-1 .5-2 .8-3.2.8Zm0-2.6c.6 0 1-.1 1.4-.4.4-.3.7-.7 1-1.3.1-.5.3-1.2.3-2s-.2-1.4-.4-2c-.2-.5-.5-1-.9-1.2-.4-.3-.8-.5-1.4-.5-.5 0-1 .2-1.4.5L90 206c-.2.6-.3 1.2-.3 2s.1 1.5.3 2c.3.6.6 1 1 1.3.3.3.8.4 1.3.4Zm12.7 2.5c-1.4 0-2.4-.3-3-.8-.7-.5-1-1.5-1-2.7v-6.2h-1.7v-2.4h1.7v-3h3.3v3h2.2v2.4h-2.2v5.8c0 .5.1 1 .4 1.1.2.3.6.4 1 .4a6.4 6.4 0 0 0 .8 0v2.3h-.7l-.8.1Zm8.8 0c-1.2 0-2.3-.2-3.1-.7a5 5 0 0 1-2-2.1c-.5-1-.8-2-.8-3.3 0-1.3.3-2.4.7-3.4.5-.9 1.2-1.6 2-2.1.9-.5 1.9-.8 3-.8 1.2 0 2.2.3 3 .8a5 5 0 0 1 2 2c.5 1 .8 2 .8 3.2v1h-9.9v-2h8.3l-1.5 1.9v-1.3c0-.7-.1-1.3-.3-1.7-.3-.5-.6-.9-1-1.1a2.5 2.5 0 0 0-2.7 0c-.3.2-.6.6-.8 1a4 4 0 0 0-.4 1.8v1.3c0 .6.1 1.2.4 1.7.2.5.5.8.9 1 .4.3.9.4 1.5.4.4 0 .8 0 1.1-.2.4-.1.6-.3.8-.5.2-.2.4-.4.4-.6v-.1h3v.1c0 .5-.2.9-.5 1.3-.3.5-.6.9-1 1.2a5 5 0 0 1-1.7 1c-.6.1-1.3.3-2.2.3Zm12.9 0c-1.2 0-2.3-.2-3.2-.7a5 5 0 0 1-2-2.1c-.5-1-.7-2-.7-3.4 0-1.3.2-2.4.7-3.3a5 5 0 0 1 2-2.1c1-.5 2-.8 3.2-.8 1 0 2 .2 2.8.6a4.6 4.6 0 0 1 2.6 4h-3c-.2-.6-.4-1.1-.8-1.5-.4-.4-1-.6-1.6-.6-.5 0-1 .2-1.4.5-.4.3-.7.7-.9 1.2-.2.6-.3 1.2-.3 2s.1 1.5.3 2c.2.6.5 1 1 1.3.3.3.8.4 1.3.4.7 0 1.2-.2 1.6-.5.4-.4.6-.9.8-1.5h3c0 .9-.3 1.7-.8 2.4-.4.6-1 1.2-1.8 1.6a6 6 0 0 1-2.8.6Zm12 0c-1.3 0-2.3-.3-3-.8-.6-.5-1-1.5-1-2.7v-6.2H133v-2.4h1.7v-3h3.2v3h2.3v2.4h-2.3v5.8c0 .5.2 1 .4 1.1.3.3.6.4 1.1.4a6.5 6.5 0 0 0 .8 0v2.3h-.7l-.9.1Zm3.7-.2v-12h3.2v12h-3.2Zm1.6-13.5a1.7 1.7 0 1 1 0-3.4c.5 0 .9.1 1.2.5.4.3.5.7.5 1.2 0 .4-.1.8-.5 1.2-.3.3-.7.5-1.2.5Zm9.5 13.8c-1.2 0-2.3-.3-3.2-.8a5 5 0 0 1-2-2.1c-.5-1-.7-2-.7-3.4a7 7 0 0 1 .7-3.3c.5-1 1.2-1.6 2-2.1 1-.5 2-.8 3.2-.8 1.2 0 2.2.3 3 .8 1 .5 1.7 1.2 2.2 2 .4 1 .7 2.1.7 3.4 0 1.3-.3 2.5-.7 3.4a5 5 0 0 1-2 2.1c-1 .5-2 .8-3.2.8Zm0-2.6c.5 0 1-.1 1.4-.4.4-.3.7-.7.9-1.3.2-.5.3-1.2.3-2s-.1-1.4-.3-2c-.2-.5-.5-1-1-1.2-.3-.3-.8-.5-1.3-.5-.6 0-1 .2-1.4.5-.4.3-.7.7-1 1.2l-.2 2c0 .8 0 1.5.3 2 .2.6.5 1 .9 1.3.4.3.8.4 1.4.4Zm7.8 2.3v-12h3.2v2h.1c.3-.7.8-1.2 1.4-1.6a4 4 0 0 1 2.2-.6c1.3 0 2.4.4 3 1.2.8.8 1.1 1.9 1.1 3.3v7.7H169v-7c0-.8-.2-1.4-.5-1.9-.4-.4-1-.6-1.7-.6-.5 0-.9.1-1.2.3-.4.2-.7.6-.9 1a3 3 0 0 0-.3 1.3v7h-3.2Zm18.2 0v-12h3.3v12h-3.3Zm1.7-13.5a1.7 1.7 0 0 1-1.3-3c.4-.3.8-.4 1.3-.4s.9.1 1.2.5c.4.3.5.7.5 1.2 0 .4-.1.8-.5 1.2-.3.3-.7.5-1.2.5Zm8.9 13.8c-1 0-2-.2-2.8-.5a3.9 3.9 0 0 1-2.6-3.3h3.2c.1.5.3.8.7 1 .4.3.9.5 1.5.5.4 0 .8 0 1-.2.4 0 .6-.2.8-.4l.2-.7a1 1 0 0 0-.4-.8 3 3 0 0 0-1.2-.5l-2-.4-2-.7c-.5-.3-.9-.7-1.1-1.2-.3-.4-.4-1-.4-1.5 0-.8.2-1.5.6-2 .4-.6 1-1 1.8-1.3.7-.3 1.6-.5 2.6-.5s2 .2 2.7.5a4 4 0 0 1 1.7 1.4c.4.5.6 1.1.6 1.8v.1h-3c0-.5-.2-.8-.6-1-.3-.4-.8-.5-1.4-.5-.4 0-.7 0-1 .2-.2 0-.5.2-.6.4a1 1 0 0 0-.2.7l.1.5.5.5c.2.2.6.2 1 .3l2 .4c1.3.3 2.2.6 2.7 1.2.6.5.8 1.2.8 2 0 .9-.2 1.5-.6 2.1-.5.6-1.1 1-1.9 1.4-.8.3-1.7.5-2.7.5Zm17.3 0c-1.2 0-2.2-.3-3.1-.8a5 5 0 0 1-2-2.1c-.5-1-.7-2-.7-3.3 0-1.3.2-2.4.6-3.4.5-.9 1.2-1.6 2-2.1 1-.5 2-.8 3.1-.8 1.2 0 2.2.3 3 .8a5 5 0 0 1 2 2c.4 1 .7 2 .7 3.2v1H203v-2h8.3l-1.5 1.9v-1.3c0-.7-.1-1.3-.3-1.7-.2-.5-.5-.9-1-1.1s-.7-.4-1.2-.4c-.6 0-1 .2-1.4.4-.4.2-.7.6-1 1a4 4 0 0 0-.3 1.8v1.3c0 .6.2 1.2.4 1.7s.5.8 1 1c.3.3.8.4 1.4.4.4 0 .8 0 1.2-.2l.8-.5.4-.6v-.1h3v.1c-.1.5-.3.9-.6 1.3-.2.5-.6.9-1 1.2a5 5 0 0 1-1.6 1c-.7.1-1.4.3-2.3.3Zm7.5-.3v-12h3.2v2h.1a3.6 3.6 0 0 1 3.6-2.2c1.3 0 2.4.4 3 1.2.8.8 1.1 1.9 1.1 3.3v7.7h-3.2v-7c0-.8-.2-1.4-.5-1.9-.4-.4-1-.6-1.7-.6-.5 0-.9.1-1.2.3-.4.2-.7.6-.9 1a3 3 0 0 0-.3 1.3v7h-3.2Zm16.9.2c-.8 0-1.5-.2-2.1-.5-.6-.3-1-.7-1.4-1.2-.4-.6-.5-1.2-.5-2 0-.7.2-1.3.5-1.8.4-.5 1-1 1.6-1.2.7-.3 1.5-.5 2.5-.5l4.6-.3v2l-4 .2c-.7 0-1.2.2-1.5.5-.4.2-.5.6-.5 1 0 .5.1.8.5 1 .3.3.8.4 1.3.4s1 0 1.3-.3c.4-.1.7-.4 1-.7.2-.4.3-.7.3-1.2v-3.6c0-.5-.2-1-.5-1.3-.4-.3-.9-.4-1.5-.4s-1 .1-1.4.4c-.4.2-.6.5-.7.9h-3c0-.8.3-1.4.7-2 .5-.6 1-1 1.8-1.3.8-.3 1.7-.5 2.7-.5 1 0 2 .2 2.7.5a4 4 0 0 1 1.8 1.4c.4.6.6 1.3.6 2.1v8.2h-3.2v-1.7h-.1c-.2.4-.5.7-.9 1-.3.3-.7.5-1.2.7l-1.4.2Zm16.2 0c-.5 0-1 0-1.6-.2a4 4 0 0 1-1.2-.8c-.3-.3-.6-.7-.8-1.2h-.1v2h-3.3V198h3.3v6.3c.3-.5.6-.9 1-1.2.3-.4.7-.6 1.2-.8a4.5 4.5 0 0 1 4.2.5c.6.5 1.2 1.2 1.6 2 .4 1 .6 2.1.6 3.4 0 1.3-.2 2.4-.6 3.4-.4.9-1 1.6-1.7 2.1s-1.6.7-2.6.7Zm-1-2.6c.5 0 1-.2 1.3-.5.4-.3.8-.7 1-1.2a5 5 0 0 0 .3-1.9 5 5 0 0 0-.3-1.9c-.2-.5-.6-.9-1-1.2-.4-.2-.8-.4-1.4-.4-.5 0-1 .2-1.4.4-.4.3-.7.7-1 1.3l-.2 1.8c0 .8 0 1.4.3 2 .2.4.5.8 1 1.1.3.3.8.5 1.3.5Zm7.9 2.4V198h3.2v16.2h-3.2Zm11.1.3c-1.2 0-2.3-.3-3.2-.8a5 5 0 0 1-2-2.1c-.4-1-.7-2-.7-3.3 0-1.3.2-2.4.7-3.4.5-.9 1.2-1.6 2-2.1.9-.5 1.9-.8 3-.8 1.2 0 2.2.3 3 .8a5 5 0 0 1 2 2c.5 1 .7 2 .7 3.2v1h-9.8v-2h8.3l-1.5 1.9v-1.3c0-.7-.1-1.3-.4-1.7-.2-.5-.5-.9-.8-1.1-.4-.2-.9-.4-1.4-.4a2.4 2.4 0 0 0-2.3 1.5 4 4 0 0 0-.3 1.7v1.3c0 .6.1 1.2.3 1.7.3.5.6.8 1 1 .4.3.9.4 1.5.4.4 0 .8 0 1.1-.2l.8-.5c.2-.2.4-.4.4-.6v-.1h3v.1c0 .5-.3.9-.5 1.3-.3.5-.6.9-1 1.2a5 5 0 0 1-1.7 1c-.6.1-1.4.3-2.2.3Zm11.8 0c-1 0-1.8-.3-2.5-.8a4.7 4.7 0 0 1-1.7-2.1c-.4-1-.6-2-.6-3.4 0-1.3.2-2.4.6-3.3a4.5 4.5 0 0 1 4.3-2.9 4.2 4.2 0 0 1 2.8 1l.8 1.3h.1v-6.3h3.2v16.2h-3.2v-2a3.7 3.7 0 0 1-2.2 2c-.5.2-1 .2-1.6.2Zm1.1-2.7c.6 0 1-.2 1.4-.5.4-.3.8-.7 1-1.2.2-.5.3-1.1.3-1.9 0-.7-.1-1.3-.3-1.8-.3-.6-.6-1-1-1.3-.4-.2-.8-.4-1.4-.4-.5 0-1 .2-1.4.4-.4.3-.7.7-.9 1.2a5 5 0 0 0-.3 2c0 .7 0 1.3.3 1.8.2.5.5 1 1 1.2.3.3.8.5 1.3.5Z"/><path fill="#7F7F7F" d="M75.2 244.6c-.7 0-1.3 0-1.8-.3a3 3 0 0 1-1.2-1c-.3-.3-.5-.8-.5-1.3h1.2c0 .3.1.6.3.8.2.3.5.4.9.6a3.6 3.6 0 0 0 2.3 0l.8-.6c.2-.3.3-.5.3-.9 0-.3-.2-.7-.5-1a3 3 0 0 0-1.4-.5l-1-.3a4 4 0 0 1-2-1c-.5-.4-.7-1-.7-1.6 0-.5.2-1 .4-1.4.3-.4.7-.7 1.2-1 .5-.1 1-.3 1.7-.3.6 0 1.2.2 1.7.4.4.2.8.5 1.1.9.3.4.4.8.5 1.2v.1h-1.2c0-.3-.2-.6-.3-.8l-.8-.5-1-.2c-.4 0-.8 0-1 .2-.4.1-.6.3-.8.5-.2.3-.3.5-.3.9 0 .3.1.6.4.9.3.3.8.5 1.4.6l1 .2 1.6.6c.4.2.7.5.9.8.2.3.2.7.2 1.2 0 .6-.1 1-.4 1.5-.3.4-.7.8-1.2 1-.5.2-1.1.3-1.8.3Zm7.4 0c-.5 0-1-.2-1.3-.4a2 2 0 0 1-.8-.8c-.2-.4-.3-.9-.3-1.5v-4.5h1.2v4.3c0 .6 0 1 .3 1.4.3.3.7.4 1.2.4l.8-.1c.3 0 .5-.2.6-.4l.4-.6.1-.8v-4.2H86v7h-1v-1h-.2a2 2 0 0 1-.4.6 2 2 0 0 1-.7.4l-1 .1Zm5.3-.2v-7H89v1h.1l.7-.8c.3-.2.7-.3 1.2-.3h.6v1.1a3.2 3.2 0 0 0-.4 0H91a2 2 0 0 0-1 .2c-.3.1-.5.3-.6.6-.2.2-.3.5-.3.9v4.3H88Zm5.8 0v-6h-1.2v-1h1.2v-.7c0-.5 0-.9.2-1.2.1-.3.4-.5.7-.7l1-.2a4 4 0 0 1 .8 0v1a1.9 1.9 0 0 0-.2 0h-.3c-.4 0-.7 0-.9.2l-.2.9v.7h1.6v1h-1.6v6h-1.1Zm10.1.1c-.5 0-1 0-1.3-.2-.4-.2-.8-.4-1-.7-.2-.3-.4-.6-.4-1h1.1c.1.3.3.6.6.7.3.2.6.3 1 .3l1-.1.5-.4.2-.6-.3-.6c-.2-.2-.5-.3-1-.4l-1-.3a4 4 0 0 1-1-.4c-.4-.1-.6-.3-.7-.6l-.2-.9c0-.3.1-.7.3-1l1-.7c.3-.2.8-.3 1.3-.3s.9 0 1.3.2.7.4.9.7c.2.3.4.6.4 1h-1l-.6-.7c-.3-.2-.6-.3-1-.3-.3 0-.5 0-.8.2-.2 0-.3.2-.5.3l-.2.6c0 .2 0 .3.2.4l.3.3.7.3 1 .2c.7.2 1.2.4 1.6.7.3.3.4.7.4 1.2 0 .4 0 .8-.3 1.1l-1 .8-1.5.2Zm6.4 0c-.5 0-.9 0-1.2-.2a2 2 0 0 1-.9-.7 2 2 0 0 1-.3-1.1c0-.5.1-.8.3-1.1.2-.3.5-.5.9-.7a4 4 0 0 1 1.4-.3l2.5-.2v1h-2.4c-.5.1-1 .2-1.2.4a1 1 0 0 0-.3.8c0 .4.1.7.4.9.2.2.6.3 1 .3s.7-.1 1-.3c.3-.1.5-.3.7-.6l.3-.9v-2.2c0-.4-.2-.7-.4-1-.3-.2-.7-.3-1.2-.3a2 2 0 0 0-1 .2 1 1 0 0 0-.6.7h-1.1c0-.4.2-.7.5-1 .2-.3.5-.5 1-.7l1.2-.2c.6 0 1 .1 1.5.3.4.2.7.4.9.8.2.3.3.7.3 1.2v4.8h-1.1v-1h-.1a2.4 2.4 0 0 1-1.3 1l-.8.1Zm5.7 0v-6.1h-1.2v-1h1.2v-.7c0-.5 0-.9.2-1.2l.7-.7 1.1-.2a4 4 0 0 1 .8 0v1a1.9 1.9 0 0 0-.3 0h-.3c-.4 0-.7 0-.8.2-.2.2-.3.5-.3.9v.7h1.6v1H117v6H116Zm6.7 0c-.6 0-1.2-.1-1.7-.4-.5-.3-.8-.7-1-1.3-.3-.5-.5-1.1-.5-1.9 0-.7.2-1.3.4-1.9.3-.5.6-1 1.1-1.2a3 3 0 0 1 1.7-.5 3 3 0 0 1 1.6.4c.5.3.8.8 1 1.3.3.5.4 1.1.4 1.8v.4H120v-.9h5l-.5.9v-.5c0-.5-.1-1-.3-1.3-.1-.4-.4-.7-.6-.8a1.9 1.9 0 0 0-2 0c-.3.2-.6.4-.7.8a3 3 0 0 0-.3 1.3v.5c0 .5 0 .9.2 1.2a1.9 1.9 0 0 0 1.9 1.1l.8-.1.6-.3.3-.4v-.1h1.1c0 .3-.2.5-.3.7l-.6.6a3 3 0 0 1-.9.5l-1 .1Zm4.7 0v-9.8h1.1v9.7h-1.1Zm3.7 2.4a2.8 2.8 0 0 1-.5 0v-1h.5c.3 0 .6 0 .8-.2.2-.2.4-.5.5-.9l.1-.4-2.6-7h1.2l2.2 6.5-.5-.7h.6l-.5.7 2.2-6.5h1.1l-2.7 7.4-.6 1.3c-.2.3-.4.5-.7.6l-1 .2Zm9.5-5.7v-1h10.6v1h-10.6Zm17 3.2-2-7h1.1l1.4 5.6h.1l1.6-5.6h1l1.6 5.6 1.5-5.6h1l-1.9 7h-1.1l-1.6-5.4-1.6 5.4h-1.2Zm11.3.1c-.6 0-1.2-.1-1.7-.4a3 3 0 0 1-1.1-1.3c-.3-.5-.4-1.1-.4-1.9 0-.7.1-1.3.4-1.9.3-.5.6-1 1-1.2a3 3 0 0 1 1.7-.5 3 3 0 0 1 1.7.4c.4.3.8.8 1 1.3.3.5.4 1.1.4 1.8v.4h-5.6v-.9h5l-.5.9v-.5c0-.5-.1-1-.3-1.3-.1-.4-.4-.7-.7-.8-.3-.2-.6-.3-1-.3a1.9 1.9 0 0 0-1.7 1 3 3 0 0 0-.2 1.4v.5c0 .5 0 .9.2 1.2a1.9 1.9 0 0 0 1.8 1.1l.9-.1c.2 0 .4-.2.5-.3l.4-.4v-.1h1.1c0 .3-.2.5-.3.7a2.6 2.6 0 0 1-1.5 1c-.3.2-.7.2-1 .2Zm5-5.7V235h1.1l-.1 3.7h-1Zm5.4 5.6-2.6-7h1.2l1.9 5.8 2-5.8h1.2l-2.6 7h-1.1Zm7.6.1c-.6 0-1.2-.1-1.7-.4a3 3 0 0 1-1-1.3c-.3-.5-.5-1.1-.5-1.9 0-.7.2-1.3.4-1.9.3-.5.6-1 1.1-1.2a3 3 0 0 1 1.7-.5 3 3 0 0 1 1.6.4c.4.3.8.8 1 1.3.3.5.4 1.1.4 1.8v.4h-5.6v-.9h5l-.5.9v-.5c0-.5-.1-1-.3-1.3-.1-.4-.4-.7-.7-.8-.2-.2-.6-.3-1-.3a1.9 1.9 0 0 0-1.7 1 3 3 0 0 0-.2 1.4v.5c0 .5 0 .9.2 1.2a1.9 1.9 0 0 0 1.9 1.1l.8-.1c.2 0 .4-.2.5-.3l.4-.4v-.1h1.1c0 .3-.2.5-.3.7a2.6 2.6 0 0 1-1.5 1c-.3.2-.7.2-1 .2Zm11 2.4c-.5 0-1-.1-1.4-.3-.4-.1-.8-.3-1-.6a2 2 0 0 1-.5-1h1.2c0 .2.3.4.6.6.3.2.7.3 1.2.3.6 0 1-.2 1.4-.5.4-.2.6-.6.6-1.1v-1.5h-.1a2.4 2.4 0 0 1-2.2 1.2c-.6 0-1.2-.1-1.6-.4-.4-.3-.8-.7-1-1.2a4 4 0 0 1-.4-1.7c0-.7.2-1.2.4-1.8.2-.5.6-.9 1-1.2.5-.2 1-.4 1.6-.4.3 0 .6 0 .9.2.3 0 .5.2.7.4l.6.7v-1.2h1.2v7c0 .4-.2.9-.4 1.3l-1 .9a4 4 0 0 1-1.7.3Zm0-3.9a2 2 0 0 0 1.1-.2c.3-.3.6-.5.7-.9.2-.3.3-.7.3-1.2s-.1-.9-.3-1.2a2 2 0 0 0-.7-.9 2 2 0 0 0-1-.3 2 2 0 0 0-1.2.3 2 2 0 0 0-.7.9 3 3 0 0 0-.2 1.2c0 .5 0 .9.2 1.2l.7.9c.3.2.7.2 1.1.2Zm8 1.5c-.7 0-1.2-.1-1.7-.4a3 3 0 0 1-1.1-1.3c-.3-.5-.4-1.1-.4-1.9 0-.7.1-1.4.4-2 .2-.5.6-.9 1-1.2.6-.2 1.1-.4 1.8-.4s1.2.2 1.7.4c.5.3.9.7 1.1 1.3.3.5.4 1.2.4 2 0 .7-.1 1.3-.4 1.8a2.9 2.9 0 0 1-2.8 1.7Zm0-1a2 2 0 0 0 1.1-.3c.3-.2.6-.5.7-.9.2-.4.3-.8.3-1.4 0-.5-.1-1-.3-1.4-.1-.4-.4-.7-.7-.9a2 2 0 0 0-1.1-.3 2 2 0 0 0-1.1.3 2 2 0 0 0-.7.9c-.2.4-.3.9-.3 1.4 0 .6.1 1 .3 1.4.1.4.4.7.7 1l1.1.2Zm7.3 1c-.7 0-1.2-.2-1.6-.5-.3-.3-.4-.7-.4-1.4v-4.2H210v-1h1v-1.8h1.2v1.8h1.6v1h-1.6v4c0 .3.1.6.3.8.1.2.4.3.7.3h.6v.9a7 7 0 0 1-.7 0Zm6.4 2.4a2.9 2.9 0 0 1-.5 0v-1h.4c.4 0 .6 0 .8-.2.2-.2.4-.5.5-.9l.2-.4-2.6-7h1.2l2.1 6.5-.4-.7h.5l-.4.7 2.1-6.5h1.2l-2.7 7.4-.6 1.3c-.3.3-.5.5-.8.6l-1 .2Zm9-2.4c-.6 0-1.2-.1-1.7-.4a3 3 0 0 1-1-1.3 4.4 4.4 0 0 1 0-3.9c.2-.5.5-.9 1-1.2.5-.2 1-.4 1.7-.4s1.3.2 1.8.4c.4.3.8.7 1 1.3.3.5.5 1.2.5 2 0 .7-.2 1.3-.4 1.8a2.9 2.9 0 0 1-2.9 1.7Zm0-1a2 2 0 0 0 1.2-.3c.3-.2.5-.5.7-.9l.2-1.4c0-.5 0-1-.2-1.4-.2-.4-.4-.7-.7-.9a2 2 0 0 0-1.2-.3 2 2 0 0 0-1 .3 2 2 0 0 0-.8.9l-.2 1.4c0 .6 0 1 .2 1.4l.7 1 1.1.2Zm7.2 1c-.5 0-1 0-1.3-.3a2 2 0 0 1-.8-.8c-.2-.4-.3-.9-.3-1.5v-4.5h1.1v4.3c0 .6.1 1 .4 1.4.2.3.6.4 1.2.4l.8-.1c.2 0 .4-.2.6-.4l.4-.6v-5h1.2v7H238v-1h-.1a2 2 0 0 1-.5.6 2 2 0 0 1-.7.4l-.9.1Zm5.3 0v-7h1v1h.2c.1-.4.4-.7.7-.9.3-.2.7-.3 1.2-.3h.5v1.1a3.3 3.3 0 0 0-.7 0 2 2 0 0 0-1 .2l-.6.6-.2.9v4.3H241Zm12 0-1-.1-.7-.4-.5-.7h-.2v1.1h-1v-9.7h1v3.8h.2c0-.2.3-.4.5-.6l.7-.4 1-.2a3 3 0 0 1 2.6 1.7c.1.5.3 1.2.3 2 0 .7-.2 1.3-.4 1.8a3 3 0 0 1-1 1.3c-.5.3-1 .4-1.6.4Zm-.3-1c.4 0 .8 0 1-.3.4-.2.6-.5.8-.9l.2-1.4c0-.5 0-1-.2-1.4a2 2 0 0 0-.7-.9c-.3-.2-.7-.3-1.1-.3-.5 0-.8.1-1.1.3a2 2 0 0 0-.7 1c-.2.3-.3.8-.3 1.3 0 .6.1 1 .3 1.4.1.4.4.7.7 1l1 .2Zm6.7 1c-.5 0-.9 0-1.2-.2a2 2 0 0 1-.8-.7 2 2 0 0 1-.4-1.1c0-.5.1-.8.3-1.1.2-.3.5-.5 1-.7a4 4 0 0 1 1.3-.3l2.6-.2v1h-2.5c-.5.1-.9.2-1.1.4a1 1 0 0 0-.4.8c0 .4.1.7.4.9.3.2.6.3 1 .3s.7-.1 1-.3c.3-.1.6-.3.7-.6l.3-.9v-2.2c0-.4-.1-.7-.4-1-.3-.2-.7-.3-1.2-.3a2 2 0 0 0-1 .2 1 1 0 0 0-.5.7h-1.2c0-.4.2-.7.5-1 .2-.3.5-.5 1-.7l1.3-.2c.5 0 1 .1 1.4.3.4.2.7.4 1 .8l.2 1.2v4.8h-1.1v-1h-.1a2.3 2.3 0 0 1-2.1 1.1Zm8 0c-.6 0-1.1-.1-1.6-.4a3 3 0 0 1-1.1-1.3c-.3-.5-.4-1.2-.4-1.9s.1-1.4.4-1.9c.2-.5.6-1 1-1.2.6-.3 1.1-.5 1.8-.5.5 0 1 .1 1.4.3a2.6 2.6 0 0 1 1.5 2h-1.1c-.1-.4-.3-.7-.6-1-.3-.2-.7-.3-1.2-.3a1.9 1.9 0 0 0-1.8 1.2c-.2.4-.3.9-.3 1.4 0 .5.1 1 .3 1.4l.7 1 1 .2a2 2 0 0 0 1.2-.3c.3-.2.5-.5.7-.9h1.1a3 3 0 0 1-.5 1.2l-1 .8-1.4.2Zm4.6 0v-9.8h1.1v9.7H272Zm4.4 0-2.8-3.5.9-.7 3.3 4.1h-1.4Zm-3.4-2.6-.1-1.4h.3l3-3h1.4l-3.3 3.1-.3.3-1 1Z"/><path fill="#67B279" fill-rule="evenodd" d="M135.7 342.9c0-7.9 6.3-14.2 14.2-14.2h47.3c7.8 0 14 6.2 14.2 13.9v.3c0 7.8-6.3 14.2-14.2 14.2H150c-7.8 0-14-6.2-14.2-14v-.2Z" clip-rule="evenodd"/><g filter="url(#x)"><path fill="#E9E9E9" d="M193 367a24 24 0 1 0 0-48 24 24 0 0 0 0 48Z"/></g><path fill="#fff" d="M191.5 366.6a23.7 23.7 0 1 0 0-47.4 23.7 23.7 0 0 0 0 47.4Z"/><path stroke="#67B279" stroke-linecap="round" stroke-linejoin="round" stroke-width="3" d="m184.6 343.8 5.3 5.6 9.8-11.4"/><mask id="y" width="304" height="245" x="22" y="371" maskUnits="userSpaceOnUse" style="mask-type:luminance"><path fill="#fff" d="M326 371.3H23v244.3h303V371.3Z"/></mask><g mask="url(#y)"><g filter="url(#z)"><path fill="#fff" d="M159.3 449H45.8a7.6 7.6 0 0 0-7.6 7.5v121.2c0 4.2 3.4 7.6 7.6 7.6h113.6c4.2 0 7.6-3.4 7.6-7.6V456.5c0-4.2-3.4-7.6-7.6-7.6Z"/><path stroke="#67B279" stroke-linecap="round" stroke-linejoin="round" stroke-width="1.5" d="M71.5 467.9a8.4 8.4 0 0 1 8.3 8.8H71V468h.5Z" clip-rule="evenodd"/><path stroke="#67B279" stroke-linecap="round" stroke-linejoin="round" stroke-width="1.5" d="M66.9 470.4h.4v8.8c0 .7.4 1.2 1 1.3h9a10.1 10.1 0 1 1-10.4-10.1Z" clip-rule="evenodd"/></g><g filter="url(#A)"><path fill="#fff" d="M303.3 449H189.6a7.6 7.6 0 0 0-7.5 7.5v121.2c0 4.2 3.4 7.6 7.6 7.6h113.6c4.2 0 7.5-3.4 7.5-7.6V456.5c0-4.2-3.3-7.6-7.5-7.6Z"/><path stroke="#F67247" stroke-linecap="round" stroke-linejoin="round" stroke-width="1.5" d="m216.8 469.1 3.8 3.8m-3.8 3.8 3.8-3.8m0 0h-16.4"/></g></g></g></g><defs><filter id="c" width="340.5" height="692.8" x="3.8" y="1.6" color-interpolation-filters="sRGB" filterUnits="userSpaceOnUse"><feFlood flood-opacity="0" result="BackgroundImageFix"/><feBlend in="SourceGraphic" in2="BackgroundImageFix" result="shape"/><feColorMatrix in="SourceAlpha" result="hardAlpha" values="0 0 0 0 0 0 0 0 0 0 0 0 0 0 0 0 0 0 127 0"/><feOffset/><feGaussianBlur stdDeviation="4"/><feComposite in2="hardAlpha" k2="-1" k3="1" operator="arithmetic"/><feColorMatrix values="0 0 0 0 0 0 0 0 0 0 0 0 0 0 0 0 0 0 0.6 0"/><feBlend in2="shape" result="effect1_innerShadow_1_361"/></filter><filter id="n" width="41.9" height="5.6" x="153.2" y="25" color-interpolation-filters="sRGB" filterUnits="userSpaceOnUse"><feFlood flood-opacity="0" result="BackgroundImageFix"/><feBlend in="SourceGraphic" in2="BackgroundImageFix" result="shape"/><feColorMatrix in="SourceAlpha" result="hardAlpha" values="0 0 0 0 0 0 0 0 0 0 0 0 0 0 0 0 0 0 127 0"/><feOffset/><feGaussianBlur stdDeviation="2"/><feComposite in2="hardAlpha" k2="-1" k3="1" operator="arithmetic"/><feColorMatrix values="0 0 0 0 0 0 0 0 0 0 0 0 0 0 0 0 0 0 0.795035 0"/><feBlend in2="shape" result="effect1_innerShadow_1_361"/><feColorMatrix in="SourceAlpha" result="hardAlpha" values="0 0 0 0 0 0 0 0 0 0 0 0 0 0 0 0 0 0 127 0"/><feOffset dy="-4"/><feComposite in2="hardAlpha" k2="-1" k3="1" operator="arithmetic"/><feColorMatrix values="0 0 0 0 0 0 0 0 0 0 0 0 0 0 0 0 0 0 0.80013 0"/><feBlend in2="effect1_innerShadow_1_361" result="effect2_innerShadow_1_361"/><feColorMatrix in="SourceAlpha" result="hardAlpha" values="0 0 0 0 0 0 0 0 0 0 0 0 0 0 0 0 0 0 127 0"/><feOffset dy="-2"/><feComposite in2="hardAlpha" k2="-1" k3="1" operator="arithmetic"/><feColorMatrix values="0 0 0 0 1 0 0 0 0 1 0 0 0 0 1 0 0 0 0.197067 0"/><feBlend in2="effect2_innerShadow_1_361" result="effect3_innerShadow_1_361"/></filter><filter id="q" width="15.4" height="15.4" x="203.3" y="20" color-interpolation-filters="sRGB" filterUnits="userSpaceOnUse"><feFlood flood-opacity="0" result="BackgroundImageFix"/><feColorMatrix in="SourceAlpha" result="hardAlpha" values="0 0 0 0 0 0 0 0 0 0 0 0 0 0 0 0 0 0 127 0"/><feOffset/><feGaussianBlur stdDeviation="2.5"/><feColorMatrix values="0 0 0 0 0 0 0 0 0 0 0 0 0 0 0 0 0 0 0.4 0"/><feBlend in2="BackgroundImageFix" result="effect1_dropShadow_1_361"/><feColorMatrix in="SourceAlpha" result="hardAlpha" values="0 0 0 0 0 0 0 0 0 0 0 0 0 0 0 0 0 0 127 0"/><feOffset/><feColorMatrix values="0 0 0 0 0 0 0 0 0 0 0 0 0 0 0 0 0 0 1 0"/><feBlend in2="effect1_dropShadow_1_361" result="effect2_dropShadow_1_361"/><feBlend in="SourceGraphic" in2="effect2_dropShadow_1_361" result="shape"/></filter><filter id="t" width="17.8" height="27.4" x="194.5" y="12.4" color-interpolation-filters="sRGB" filterUnits="userSpaceOnUse"><feFlood flood-opacity="0" result="BackgroundImageFix"/><feBlend in="SourceGraphic" in2="BackgroundImageFix" result="shape"/><feGaussianBlur result="effect1_foregroundBlur_1_361" stdDeviation="2.7"/></filter><filter id="u" width="14.1" height="14.9" x="206.1" y="19.6" color-interpolation-filters="sRGB" filterUnits="userSpaceOnUse"><feFlood flood-opacity="0" result="BackgroundImageFix"/><feBlend in="SourceGraphic" in2="BackgroundImageFix" result="shape"/><feGaussianBlur result="effect1_foregroundBlur_1_361" stdDeviation="2.7"/></filter><filter id="v" width="12.8" height="11.4" x="205.1" y="24" color-interpolation-filters="sRGB" filterUnits="userSpaceOnUse"><feFlood flood-opacity="0" result="BackgroundImageFix"/><feBlend in="SourceGraphic" in2="BackgroundImageFix" result="shape"/><feGaussianBlur result="effect1_foregroundBlur_1_361" stdDeviation="2"/></filter><filter id="x" width="56" height="56" x="165" y="315" color-interpolation-filters="sRGB" filterUnits="userSpaceOnUse"><feFlood flood-opacity="0" result="BackgroundImageFix"/><feBlend in="SourceGraphic" in2="BackgroundImageFix" result="shape"/><feGaussianBlur result="effect1_foregroundBlur_1_361" stdDeviation="2"/></filter><filter id="z" width="176.8" height="184.3" x="22.1" y="432.9" color-interpolation-filters="sRGB" filterUnits="userSpaceOnUse"><feFlood flood-opacity="0" result="BackgroundImageFix"/><feColorMatrix in="SourceAlpha" result="hardAlpha" values="0 0 0 0 0 0 0 0 0 0 0 0 0 0 0 0 0 0 127 0"/><feOffset dx="8" dy="8"/><feGaussianBlur stdDeviation="12"/><feComposite in2="hardAlpha" operator="out"/><feColorMatrix values="0 0 0 0 0 0 0 0 0 0 0 0 0 0 0 0 0 0 0.1 0"/><feBlend in2="BackgroundImageFix" result="effect1_dropShadow_1_361"/><feBlend in="SourceGraphic" in2="effect1_dropShadow_1_361" result="shape"/></filter><filter id="A" width="176.8" height="184.3" x="166.1" y="432.9" color-interpolation-filters="sRGB" filterUnits="userSpaceOnUse"><feFlood flood-opacity="0" result="BackgroundImageFix"/><feColorMatrix in="SourceAlpha" result="hardAlpha" values="0 0 0 0 0 0 0 0 0 0 0 0 0 0 0 0 0 0 127 0"/><feOffset dx="8" dy="8"/><feGaussianBlur stdDeviation="12"/><feComposite in2="hardAlpha" operator="out"/><feColorMatrix values="0 0 0 0 0 0 0 0 0 0 0 0 0 0 0 0 0 0 0.1 0"/><feBlend in2="BackgroundImageFix" result="effect1_dropShadow_1_361"/><feBlend in="SourceGraphic" in2="effect1_dropShadow_1_361" result="shape"/></filter><linearGradient id="d" x1="3.8" x2="3.8" y1="1.6" y2="694.4" gradientUnits="userSpaceOnUse"><stop stop-color="#C9C6C8"/><stop offset="0" stop-color="#716D6D"/><stop offset=".1" stop-color="#C9C6C8"/><stop offset=".9" stop-color="#C9C6C8"/><stop offset="1" stop-color="#716D6D"/><stop offset="1" stop-color="#C9C6C8"/></linearGradient><linearGradient id="e" x1="163.2" x2="163.2" y1="5.1" y2="49" gradientUnits="userSpaceOnUse"><stop stop-opacity=".9"/><stop offset="1" stop-opacity="0"/></linearGradient><linearGradient id="f" x1="186" x2="186" y1="690.9" y2="642.4" gradientUnits="userSpaceOnUse"><stop stop-opacity=".9"/><stop offset="1" stop-opacity="0"/></linearGradient><linearGradient id="g" x1="163" x2="163" y1="7.5" y2="51.1" gradientUnits="userSpaceOnUse"><stop stop-opacity=".5"/><stop offset="1" stop-opacity="0"/></linearGradient><linearGradient id="h" x1="186.1" x2="186.1" y1="687.9" y2="639.8" gradientUnits="userSpaceOnUse"><stop stop-opacity=".5"/><stop offset="1" stop-opacity="0"/></linearGradient><linearGradient id="i" x1="7.3" x2="7.3" y1="5.1" y2="690.9" gradientUnits="userSpaceOnUse"><stop stop-color="#5F5F5F"/><stop offset="0" stop-color="#222"/><stop offset="1" stop-color="#252525"/></linearGradient><linearGradient id="j" x1="10.7" x2="10.7" y1="8.3" y2="687.1" gradientUnits="userSpaceOnUse"><stop stop-color="#6D6D6D"/><stop offset="0"/><stop offset="1"/><stop offset="1" stop-color="#5C5C5C"/></linearGradient><clipPath id="a"><path fill="#fff" d="M0 0h348v480H0z"/></clipPath><clipPath id="b"><path fill="#fff" d="M2.1 0h343.7v696H2.1z"/></clipPath><clipPath id="l"><path fill="#fff" d="M153.2 25H195v5.6h-42z"/></clipPath><clipPath id="o"><path fill="#fff" d="M205.8 22.6h10.3v10.2h-10.3z"/></clipPath><radialGradient id="k" cx="0" cy="0" r="1" gradientTransform="scale(69.0207 196.557) rotate(90 -.5 3)" gradientUnits="userSpaceOnUse"><stop stop-color="#fff" stop-opacity=".2"/><stop offset="1" stop-color="#fff" stop-opacity="0"/></radialGradient><radialGradient id="p" cx="0" cy="0" r="1" gradientTransform="rotate(45.2 65.5 280.3) scale(10.2791)" gradientUnits="userSpaceOnUse"><stop stop-color="#434343"/><stop offset="1" stop-color="#121212"/></radialGradient><radialGradient id="r" cx="0" cy="0" r="1" gradientTransform="rotate(90 93 118) scale(5.37452)" gradientUnits="userSpaceOnUse"><stop stop-color="#2A4893"/><stop offset="1" stop-color="#213054"/></radialGradient></defs></svg>