<svg xmlns="http://www.w3.org/2000/svg" width="416" height="576" fill="none"><g clip-path="url(#a)"><g clip-path="url(#b)"><path fill="#000" fill-rule="evenodd" d="M75.5 0h265c51 0 73 25.2 73 73v686c0 46.2-23.6 73-73 73h-265c-51 0-73-25.2-73-73V73c0-47.8 22-73 73-73Z" clip-rule="evenodd"/><g fill-rule="evenodd" clip-rule="evenodd" filter="url(#c)"><path fill="#C9C6C8" d="M75.5 2c-48.7 0-71 23-71 71v686c0 48 22.3 71 71 71h265c47 0 71-24.6 71-71V73c0-48-22.3-71-71-71h-265Z"/><path fill="url(#d)" d="M75.5 2c-48.7 0-71 23-71 71v686c0 48 22.3 71 71 71h265c47 0 71-24.6 71-71V73c0-48-22.3-71-71-71h-265Z"/></g><path fill="url(#e)" d="M410.6 776c-5 33.3-28.4 49.9-70 49.9H75.4c-42.5 0-65-15-70-48.2 7.7 29.4 29.8 44.7 70 44.7h265c39.4 0 62.4-16.7 70-46.5ZM340.5 6c41.8 0 64.1 14.5 69.6 46.5C402.3 24 380.2 9 340.5 9h-265C35.8 9 13.7 24 5.8 52.6c5.5-32 28-46.5 69.7-46.5h265Z"/><path fill="url(#f)" d="M410.6 776c-5 33.3-28.4 49.9-70 49.9H75.4c-42.5 0-65-15-70-48.2 7.7 29.4 29.8 44.7 70 44.7h265c39.4 0 62.4-16.7 70-46.5ZM340.5 6c41.8 0 64.1 14.5 69.6 46.5C402.3 24 380.2 9 340.5 9h-265C35.8 9 13.7 24 5.8 52.6c5.5-32 28-46.5 69.7-46.5h265Z"/><path fill="url(#g)" fill-rule="evenodd" d="M75.5 9h265c51 0 73 24.6 73 71.3V751c0 45-23.6 71.3-73 71.3h-265c-51 0-73-24.7-73-71.3V80.3c0-46.7 22-71.3 73-71.3Z" clip-rule="evenodd"/><path fill="url(#h)" fill-rule="evenodd" d="M75.5 9h265c51 0 73 24.6 73 71.3V751c0 45-23.6 71.3-73 71.3h-265c-51 0-73-24.7-73-71.3V80.3c0-46.7 22-71.3 73-71.3Z" clip-rule="evenodd"/><path fill="url(#i)" stroke="#000" stroke-width="3" d="M75.5 7.6h265c22.8 0 39 5.2 49.6 15.8 10.6 10.5 15.7 26.8 15.7 49.5v686.2c0 21.9-5.5 38.1-16.3 49-10.7 10.7-27 16.3-49 16.3h-265c-22.8 0-39-5.2-49.6-15.8-10.6-10.5-15.7-26.8-15.7-49.5V72.9c0-22.7 5.1-39 15.7-49.5C36.4 12.8 52.7 7.6 75.5 7.6Z"/><path fill="url(#j)" fill-rule="evenodd" d="M75.5 10h265c43.7 0 62.6 19 62.6 62.6v686.2c0 42-20.5 62.6-62.6 62.6h-265c-43.7 0-62.6-19-62.6-62.6V72.6C12.9 28.9 31.8 10 75.5 10Z" clip-rule="evenodd"/><path fill="url(#k)" fill-rule="evenodd" d="M75.5 10h265c43.7 0 62.6 19 62.6 62.6v686.2c0 42-20.5 62.6-62.6 62.6h-265c-43.7 0-62.6-19-62.6-62.6V72.6C12.9 28.9 31.8 10 75.5 10Z" clip-rule="evenodd"/><path fill="#000" d="M75.5 16.4c-40.1 0-56.2 16-56.2 56.2v686.2c0 40 16 56.2 56.2 56.2h265c38.5 0 56.2-17.7 56.2-56.2V72.6c0-40.1-16-56.2-56.2-56.2h-265Z"/></g><path fill="#000" d="M2.6 79.7h7v5.7h-7zm403.8 0h7v5.7h-7zM328 7V0h5.8v7z" opacity=".6"/><g clip-path="url(#l)" opacity=".8"><rect width="50.1" height="6.8" x="183.1" y="29.9" fill="#1D1C1C" rx="3.4"/><mask id="m" width="51" height="8" x="183" y="29" maskUnits="userSpaceOnUse" style="mask-type:luminance"><rect width="50.1" height="6.8" x="183.1" y="29.9" fill="#fff" rx="3.4"/></mask><g mask="url(#m)"><path fill="#000" fill-opacity=".1" d="M233.2 35.8h-50.1v-.4h50.1v.4Zm0-1.3h-50.1V34h50.1v.5Zm0-1.4h-50.1v-.5h50.1v.5Zm0-1.4h-50.1v-.4h50.1v.4Zm0-1.4h-50.1V30h50.1v.4Z"/><path fill="none" d="M233.2 36.8h-50.1v-.5h50.1v.5Zm0-1.4h-50.1V35h50.1v.4Zm0-1.3h-50.1v-.5h50.1v.4Zm0-1.4h-50.1v-.5h50.1v.5Zm0-1.4h-50.1v-.5h50.1v.5Z"/><path fill="#000" fill-opacity=".1" d="M184.2 37.2h-.6v-7.8h.6v7.8Zm1.6 0h-.6v-7.8h.6v7.8Zm1.6 0h-.5v-7.8h.5v7.8Zm1.6 0h-.5v-7.8h.5v7.8Zm1.6 0h-.5v-7.8h.5v7.8Zm1.6 0h-.5v-7.8h.5v7.8Zm1.6 0h-.5v-7.8h.5v7.8Zm1.6 0h-.5v-7.8h.5v7.8Zm1.6 0h-.5v-7.8h.5v7.8Zm1.7 0h-.6v-7.8h.6v7.8Zm1.6 0h-.6v-7.8h.6v7.8Zm1.6 0h-.6v-7.8h.6v7.8Zm1.6 0h-.6v-7.8h.6v7.8Zm1.6 0h-.5v-7.8h.5v7.8Zm1.6 0h-.5v-7.8h.5v7.8Zm1.6 0h-.5v-7.8h.5v7.8Zm1.6 0h-.5v-7.8h.5v7.8Zm1.6 0h-.5v-7.8h.5v7.8Zm1.6 0h-.5v-7.8h.5v7.8Zm1.6 0h-.5v-7.8h.5v7.8Zm1.7 0h-.6v-7.8h.6v7.8Zm1.6 0h-.6v-7.8h.6v7.8Zm1.6 0h-.6v-7.8h.6v7.8Zm1.6 0h-.6v-7.8h.6v7.8Zm1.6 0h-.5v-7.8h.5v7.8Zm1.6 0h-.5v-7.8h.5v7.8Zm1.6 0h-.5v-7.8h.5v7.8Zm1.6 0h-.5v-7.8h.5v7.8Zm1.6 0h-.5v-7.8h.5v7.8Zm1.6 0h-.5v-7.8h.5v7.8Zm1.6 0h-.5v-7.8h.5v7.8Z"/><path fill="none" d="M183.2 37.2h-.5v-7.8h.5v7.8Zm1.6 0h-.5v-7.8h.5v7.8Zm1.6 0h-.5v-7.8h.5v7.8Zm1.6 0h-.5v-7.8h.5v7.8Zm1.6 0h-.5v-7.8h.6v7.8Zm1.7 0h-.6v-7.8h.6v7.8Zm1.6 0h-.6v-7.8h.6v7.8Zm1.6 0h-.6v-7.8h.6v7.8Zm1.6 0h-.6v-7.8h.6v7.8Zm1.6 0h-.5v-7.8h.5v7.8Zm1.6 0h-.5v-7.8h.5v7.8Zm1.6 0h-.5v-7.8h.5v7.8Zm1.6 0h-.5v-7.8h.5v7.8Zm1.6 0h-.5v-7.8h.5v7.8Zm1.6 0h-.5v-7.8h.5v7.8Zm1.6 0h-.5v-7.8h.5v7.8Zm1.6 0h-.5v-7.8h.6v7.8Zm1.7 0h-.6v-7.8h.6v7.8Zm1.6 0h-.6v-7.8h.6v7.8Zm1.6 0h-.6v-7.8h.6v7.8Zm1.6 0h-.5v-7.8h.5v7.8Zm1.6 0h-.5v-7.8h.5v7.8Zm1.6 0h-.5v-7.8h.5v7.8Zm1.6 0h-.5v-7.8h.5v7.8Zm1.6 0h-.5v-7.8h.5v7.8Zm1.6 0h-.5v-7.8h.5v7.8Zm1.6 0h-.5v-7.8h.5v7.8Zm1.6 0h-.5v-7.8h.5v7.8Zm1.7 0h-.6v-7.8h.6v7.8Zm1.6 0h-.6v-7.8h.6v7.8Zm1.6 0h-.6v-7.8h.6v7.8Z"/></g><g filter="url(#n)" opacity=".2"><rect width="50.1" height="6.8" x="183.1" y="29.9" fill="none" rx="3.4"/></g></g><g clip-path="url(#o)"><path fill="url(#p)" fill-rule="evenodd" d="M252.2 39.2a6.1 6.1 0 1 0 0-12.2 6.1 6.1 0 0 0 0 12.2Z" clip-rule="evenodd"/><g filter="url(#q)" opacity=".4"><path fill="url(#r)" fill-rule="evenodd" d="M252.2 36.3a3.2 3.2 0 1 0 0-6.4 3.2 3.2 0 0 0 0 6.4Z" clip-rule="evenodd"/></g><mask id="s" width="8" height="8" x="248" y="29" maskUnits="userSpaceOnUse" style="mask-type:luminance"><path fill="#fff" fill-rule="evenodd" d="M252.2 36.3a3.2 3.2 0 1 0 0-6.4 3.2 3.2 0 0 0 0 6.4Z" clip-rule="evenodd"/></mask><g mask="url(#s)"><g filter="url(#t)"><path fill="#3E89CC" fill-rule="evenodd" d="M245.8 30.3c1-3.6 3.5-6.4 1.6-6.9-2-.4-2.4-.4-5.2 6.4-2.8 6.7.4 9.5 2.3 10 2 .5.5-6 1.4-9.5Z" clip-rule="evenodd"/></g><g filter="url(#u)"><path fill="#1C5894" fill-rule="evenodd" d="M254.7 34.7c1.1 0 2-1 2-2.4 0-1.3-.9-2.4-2-2.4s-1.9 1-1.9 2.4c0 1.3.9 2.4 2 2.4Z" clip-rule="evenodd"/></g><g filter="url(#v)"><path fill="#0A152B" fill-rule="evenodd" d="M253.4 37.4c1.5-.5 2.5-1.6 2.2-2.6-.3-1-1.7-1.5-3.3-1-1.5.4-2.5 1.6-2.2 2.6.3 1 1.7 1.4 3.3 1Z" clip-rule="evenodd"/></g></g></g><mask id="w" width="362" height="784" x="27" y="24" maskUnits="userSpaceOnUse" style="mask-type:luminance"><path fill="#fff" fill-rule="evenodd" d="M308.7 33v.4c0 9-6.8 20.3-22.5 20.3H130.1c-15.7 0-22.5-11.4-22.5-20.3v-.3c0-4.1 0-8.4-7.4-8.4H69.1c-26 0-41.8 15.8-41.8 41.8v699c0 26 15.7 41.8 41.8 41.8h277.8c26 0 41.8-15.8 41.8-41.8v-699c0-26-15.7-41.8-41.8-41.8h-30.8c-7.4 0-7.4 4.3-7.4 8.4Z" clip-rule="evenodd"/></mask><g mask="url(#w)"><rect width="362.2" height="664.4" x="27.5" y="25.1" fill="#fff" rx="16"/><path stroke="#67B279" stroke-linecap="round" d="M316.6 138.3h28.7v28.8m0 215.4v28.8h-28.7m-215.7-273H72v28.8m0 215.4v28.8H101"/></g></g><defs><linearGradient id="d" x1="4.5" x2="4.5" y1="1.9" y2="830.1" gradientUnits="userSpaceOnUse"><stop stop-color="#C9C6C8"/><stop offset="0" stop-color="#716D6D"/><stop offset=".1" stop-color="#C9C6C8"/><stop offset=".9" stop-color="#C9C6C8"/><stop offset="1" stop-color="#716D6D"/><stop offset="1" stop-color="#C9C6C8"/></linearGradient><linearGradient id="e" x1="195.1" x2="195.1" y1="6.1" y2="58.6" gradientUnits="userSpaceOnUse"><stop stop-opacity=".9"/><stop offset="1" stop-opacity="0"/></linearGradient><linearGradient id="f" x1="222.4" x2="222.4" y1="825.9" y2="768" gradientUnits="userSpaceOnUse"><stop stop-opacity=".9"/><stop offset="1" stop-opacity="0"/></linearGradient><linearGradient id="g" x1="194.8" x2="194.8" y1="9" y2="61.1" gradientUnits="userSpaceOnUse"><stop stop-opacity=".5"/><stop offset="1" stop-opacity="0"/></linearGradient><linearGradient id="h" x1="222.5" x2="222.5" y1="822.4" y2="764.9" gradientUnits="userSpaceOnUse"><stop stop-opacity=".5"/><stop offset="1" stop-opacity="0"/></linearGradient><linearGradient id="i" x1="8.7" x2="8.7" y1="6.1" y2="825.9" gradientUnits="userSpaceOnUse"><stop stop-color="#5F5F5F"/><stop offset="0" stop-color="#222"/><stop offset="1" stop-color="#252525"/></linearGradient><linearGradient id="j" x1="12.8" x2="12.8" y1="10" y2="821.4" gradientUnits="userSpaceOnUse"><stop stop-color="#6D6D6D"/><stop offset="0"/><stop offset="1"/><stop offset="1" stop-color="#5C5C5C"/></linearGradient><filter id="c" width="407" height="828.1" x="4.5" y="1.9" color-interpolation-filters="sRGB" filterUnits="userSpaceOnUse"><feFlood flood-opacity="0" result="BackgroundImageFix"/><feBlend in="SourceGraphic" in2="BackgroundImageFix" result="shape"/><feColorMatrix in="SourceAlpha" result="hardAlpha" values="0 0 0 0 0 0 0 0 0 0 0 0 0 0 0 0 0 0 127 0"/><feOffset/><feGaussianBlur stdDeviation="4"/><feComposite in2="hardAlpha" k2="-1" k3="1" operator="arithmetic"/><feColorMatrix values="0 0 0 0 0 0 0 0 0 0 0 0 0 0 0 0 0 0 0.6 0"/><feBlend in2="shape" result="effect1_innerShadow_1_4272"/></filter><filter id="n" width="50.1" height="6.8" x="183.1" y="29.9" color-interpolation-filters="sRGB" filterUnits="userSpaceOnUse"><feFlood flood-opacity="0" result="BackgroundImageFix"/><feBlend in="SourceGraphic" in2="BackgroundImageFix" result="shape"/><feColorMatrix in="SourceAlpha" result="hardAlpha" values="0 0 0 0 0 0 0 0 0 0 0 0 0 0 0 0 0 0 127 0"/><feOffset/><feGaussianBlur stdDeviation="2"/><feComposite in2="hardAlpha" k2="-1" k3="1" operator="arithmetic"/><feColorMatrix values="0 0 0 0 0 0 0 0 0 0 0 0 0 0 0 0 0 0 0.795035 0"/><feBlend in2="shape" result="effect1_innerShadow_1_4272"/><feColorMatrix in="SourceAlpha" result="hardAlpha" values="0 0 0 0 0 0 0 0 0 0 0 0 0 0 0 0 0 0 127 0"/><feOffset dy="-4"/><feComposite in2="hardAlpha" k2="-1" k3="1" operator="arithmetic"/><feColorMatrix values="0 0 0 0 0 0 0 0 0 0 0 0 0 0 0 0 0 0 0.80013 0"/><feBlend in2="effect1_innerShadow_1_4272" result="effect2_innerShadow_1_4272"/><feColorMatrix in="SourceAlpha" result="hardAlpha" values="0 0 0 0 0 0 0 0 0 0 0 0 0 0 0 0 0 0 127 0"/><feOffset dy="-2"/><feComposite in2="hardAlpha" k2="-1" k3="1" operator="arithmetic"/><feColorMatrix values="0 0 0 0 1 0 0 0 0 1 0 0 0 0 1 0 0 0 0.197067 0"/><feBlend in2="effect2_innerShadow_1_4272" result="effect3_innerShadow_1_4272"/></filter><filter id="q" width="16.4" height="16.4" x="244" y="24.9" color-interpolation-filters="sRGB" filterUnits="userSpaceOnUse"><feFlood flood-opacity="0" result="BackgroundImageFix"/><feColorMatrix in="SourceAlpha" result="hardAlpha" values="0 0 0 0 0 0 0 0 0 0 0 0 0 0 0 0 0 0 127 0"/><feOffset/><feGaussianBlur stdDeviation="2.5"/><feColorMatrix values="0 0 0 0 0 0 0 0 0 0 0 0 0 0 0 0 0 0 0.4 0"/><feBlend in2="BackgroundImageFix" result="effect1_dropShadow_1_4272"/><feColorMatrix in="SourceAlpha" result="hardAlpha" values="0 0 0 0 0 0 0 0 0 0 0 0 0 0 0 0 0 0 127 0"/><feOffset/><feColorMatrix values="0 0 0 0 0 0 0 0 0 0 0 0 0 0 0 0 0 0 1 0"/><feBlend in2="effect1_dropShadow_1_4272" result="effect2_dropShadow_1_4272"/><feBlend in="SourceGraphic" in2="effect2_dropShadow_1_4272" result="shape"/></filter><filter id="t" width="17.8" height="27.4" x="235.7" y="17.8" color-interpolation-filters="sRGB" filterUnits="userSpaceOnUse"><feFlood flood-opacity="0" result="BackgroundImageFix"/><feBlend in="SourceGraphic" in2="BackgroundImageFix" result="shape"/><feGaussianBlur result="effect1_foregroundBlur_1_4272" stdDeviation="2.7"/></filter><filter id="u" width="14.7" height="15.7" x="247.4" y="24.4" color-interpolation-filters="sRGB" filterUnits="userSpaceOnUse"><feFlood flood-opacity="0" result="BackgroundImageFix"/><feBlend in="SourceGraphic" in2="BackgroundImageFix" result="shape"/><feGaussianBlur result="effect1_foregroundBlur_1_4272" stdDeviation="2.7"/></filter><filter id="v" width="13.8" height="12.1" x="246" y="29.5" color-interpolation-filters="sRGB" filterUnits="userSpaceOnUse"><feFlood flood-opacity="0" result="BackgroundImageFix"/><feBlend in="SourceGraphic" in2="BackgroundImageFix" result="shape"/><feGaussianBlur result="effect1_foregroundBlur_1_4272" stdDeviation="2"/></filter><clipPath id="a"><path fill="#fff" d="M0 0h416v576H0z"/></clipPath><clipPath id="b"><path fill="#fff" d="M2.6 0h410.8v832H2.6z"/></clipPath><clipPath id="l"><path fill="#fff" d="M183.1 29.9h50.1v6.7h-50z"/></clipPath><clipPath id="o"><path fill="#fff" d="M246 27h12.3v12.2H246z"/></clipPath><radialGradient id="k" cx="0" cy="0" r="1" gradientTransform="scale(82.5075 234.965) rotate(90 -.5 3)" gradientUnits="userSpaceOnUse"><stop stop-color="#fff" stop-opacity=".1"/><stop offset="1" stop-color="#fff" stop-opacity="0"/></radialGradient><radialGradient id="p" cx="0" cy="0" r="1" gradientTransform="rotate(45.2 78.3 335) scale(12.2877)" gradientUnits="userSpaceOnUse"><stop stop-color="#434343"/><stop offset="1" stop-color="#121212"/></radialGradient><radialGradient id="r" cx="0" cy="0" r="1" gradientTransform="rotate(90 111.2 141) scale(6.42471)" gradientUnits="userSpaceOnUse"><stop stop-color="#2A4893"/><stop offset="1" stop-color="#213054"/></radialGradient></defs></svg>