<svg xmlns="http://www.w3.org/2000/svg" width="348" height="456" fill="none"><path fill="#1F1F1F" d="M348 0H0v456h348V0Z"/><path fill="#67B279" fill-rule="evenodd" d="M34.8 23.2c-3.6 0-8 .9-11.6 2.7 0 4 0 13.8 11.6 20.6 11.7-6.8 11.6-16.6 11.6-20.6a26.7 26.7 0 0 0-11.6-2.7Z" clip-rule="evenodd"/><path fill="#5B9F6B" fill-rule="evenodd" d="M34.8 23.2c-3.6 0-8 .9-11.6 2.7 0 4 0 13.9 11.6 20.6V23.2Z" clip-rule="evenodd"/><path fill="#fff" fill-rule="evenodd" d="m34.7 38.2 6.7-9c-.5-.3-.9 0-1.1.2L34.6 35l-2-2.5c-1-1.1-2.4-.3-2.8 0l4.9 5.6Z" clip-rule="evenodd"/><path fill="#F6F6F6" fill-rule="evenodd" d="M78.5 40.2a5.1 5.1 0 0 1-5.5-5.3 5.2 5.2 0 0 1 5.4-5.3c1 0 1.7 0 2.3.3a6 6 0 0 1 1.8 1l-1.4 1.8a3.8 3.8 0 0 0-2.7-1c-.8 0-1.5.3-2.1.9a3.3 3.3 0 0 0-.9 2.3c0 .9.3 1.7.9 2.3a3 3 0 0 0 2.3 1c.8 0 1.5-.3 2-.7V36h-2.2v-2h4.5v4.5a6.7 6.7 0 0 1-4.4 1.7ZM54.7 29.7 50.3 40h2.3l1-2.3h4.3l1 2.3h2.3l-4.4-10.3h-2.1Zm1 2.7 1.4 3.3h-2.8l1.4-3.3Zm6.7 7.6V29.7h4a5.5 5.5 0 0 1 4 1.5 4.8 4.8 0 0 1 1.5 3.7c0 1.4-.5 2.6-1.6 3.6a5.5 5.5 0 0 1-3.9 1.5h-4Zm4-2h-1.8v-6.2h1.8c1 0 1.7.3 2.3.8.5.6.8 1.4.8 2.3a3 3 0 0 1-.8 2.2 3 3 0 0 1-2.3.9Zm19.7 1a4.5 4.5 0 0 0 3.3 1.2c1.4 0 2.5-.4 3.3-1.2.8-.8 1.2-2 1.2-3.5v-5.8h-2.3v6c0 .7-.2 1.3-.6 1.7-.4.5-1 .7-1.6.7-.7 0-1.3-.2-1.7-.7-.3-.4-.5-1-.5-1.9v-5.8h-2.3v6c0 1.4.4 2.5 1.2 3.3Zm8.4 1 4.4-10.3h2.1l4.4 10.3h-2.3l-1-2.3h-4.3l-1 2.3h-2.3Zm5.4-7.6 1.4 3.3h-2.7l1.3-3.3Zm6.7-2.6h4.7c1.3 0 2.3.3 3 1 .6.6 1 1.4 1 2.4 0 1.5-.8 2.6-2.3 3.1l2.5 3.7H113l-2.3-3.3H109V40h-2.3V29.7Zm4.6 5h-2.3v-3h2.2c.6 0 1 .1 1.3.4.4.2.5.6.5 1 0 .5-.1.9-.4 1.1-.3.3-.8.4-1.3.4Zm5.7-5h4a5.5 5.5 0 0 1 4 1.4 4.8 4.8 0 0 1 1.5 3.7c0 1.4-.5 2.7-1.6 3.6a5.5 5.5 0 0 1-4 1.5h-4V29.7Zm4 8.2H119v-6.2h1.8c1 0 1.7.3 2.2.9.6.5.9 1.3.9 2.2a3 3 0 0 1-.9 2.2 3 3 0 0 1-2.2.9Z" clip-rule="evenodd"/><path stroke="#67B279" stroke-linejoin="round" d="M309.3 41.6a.8.8 0 0 1 .3 0c.4.3.9.5 1.3.6a.8.8 0 0 1 .6.5l.6 1.9h2.2l.6-1.9a.8.8 0 0 1 .6-.5l1.3-.5a.8.8 0 0 1 .7 0l1.7.8 1.6-1.6-.8-1.7a.8.8 0 0 1 0-.8l.5-1.3a.8.8 0 0 1 .5-.5l1.9-.6v-2.2L321 33a.8.8 0 0 1-.6-.5 7.6 7.6 0 0 0-.5-1.3.8.8 0 0 1 0-.8l.8-1.7-1.6-1.6-1.7.9a.8.8 0 0 1-.7 0l-1.3-.6a.8.8 0 0 1-.6-.5l-.6-1.8h-2.2l-.6 1.8a.8.8 0 0 1-.6.5l-1.3.6a.8.8 0 0 1-.7 0 17 17 0 0 0-1.7-.9l-1.6 1.6.8 1.7c.1.3.1.6 0 .8l-.5 1.3a.8.8 0 0 1-.5.5l-1.9.7V36l1.8.6a.8.8 0 0 1 .6.6l.5 1.2a.8.8 0 0 1 0 .8 20 20 0 0 0-.8 1.7l1.5 1.6 1.8-.8a.8.8 0 0 1 .4-.1Z" clip-rule="evenodd"/><path stroke="#67B279" stroke-linejoin="round" d="M313.2 32.2a2.6 2.6 0 1 0 0 5.3 2.6 2.6 0 0 0 0-5.3Z" clip-rule="evenodd"/><path fill="#67B279" fill-rule="evenodd" d="M134.4 179.7c0-8 6.5-14.6 14.5-14.6h48.3c7.9 0 14.3 6.4 14.5 14.3v.2c0 8-6.5 14.6-14.5 14.6h-48.3c-8 0-14.4-6.4-14.5-14.2v-.3Z" clip-rule="evenodd"/><path fill="#fff" d="M191.4 203.9a24.2 24.2 0 0 0 24.2-24.3 24.2 24.2 0 0 0-24.2-24.1 24.2 24.2 0 0 0-24.2 24.2 24.2 24.2 0 0 0 24.2 24.2Z"/><path stroke="#67B279" stroke-linecap="round" stroke-linejoin="round" stroke-width="2" d="m184.3 180.6 5.4 5.7 10-11.7"/><path fill="#E4E4E4" d="m106 399.5-.1-.6-.4-.5a3 3 0 0 0-.7-.4 8 8 0 0 0-1.2-.4l-1.4-.5-1-.6a2.2 2.2 0 0 1-.9-1.8 2.4 2.4 0 0 1 1-2l1-.5a4.7 4.7 0 0 1 3.4.2c.5.3.9.7 1.2 1.1.2.5.4 1 .4 1.5H106c0-.4-.1-.7-.3-1-.1-.3-.4-.5-.7-.7a2.7 2.7 0 0 0-1.3-.2c-.4 0-.8 0-1.1.2-.3.1-.6.3-.7.6-.2.2-.3.5-.3.8l.2.5c0 .2.2.4.4.5l.7.4 1.1.4 1.5.5c.4.2.8.4 1 .7.3.2.5.5.6.8.2.3.2.6.2 1a2.4 2.4 0 0 1-1 2l-1 .5a5.3 5.3 0 0 1-2.9 0 4.1 4.1 0 0 1-1.2-.6 3 3 0 0 1-.9-1 2.6 2.6 0 0 1-.3-1.2h1.3a1.7 1.7 0 0 0 .8 1.4l.8.4a4 4 0 0 0 2 0l.8-.6c.2-.3.3-.5.3-.9Zm4.2-4.8v7.3H109v-7.3h1.3Zm-1.4-2c0-.2 0-.3.2-.5s.3-.2.6-.2c.2 0 .4 0 .5.2.2.2.2.3.2.5a.7.7 0 0 1-.2.5c0 .2-.3.2-.5.2-.3 0-.5 0-.6-.2a.7.7 0 0 1-.2-.5Zm4.8 3.6v5.7h-1.3v-7.3h1.2v1.5Zm-.3 1.8h-.6c0-.5 0-1 .2-1.4l.7-1.2a2.8 2.8 0 0 1 2.2-1c.3 0 .7 0 1 .2a1.9 1.9 0 0 1 1.2 1.3l.2 1.2v4.8h-1.3v-4.8c0-.4 0-.7-.2-1a1 1 0 0 0-.5-.4l-.8-.2a2 2 0 0 0-1.6.7 2.7 2.7 0 0 0-.6 1.8Zm9.8 3c.3 0 .6 0 .8-.2l.7-.4.3-.8h1.2c0 .4-.2.8-.5 1.2a3 3 0 0 1-2.5 1.3c-.6 0-1-.1-1.5-.3a3 3 0 0 1-1-.8 3.5 3.5 0 0 1-.6-1.2 5 5 0 0 1-.2-1.4v-.3c0-.5 0-1 .2-1.4l.6-1.2 1-.8c.4-.2 1-.3 1.5-.3.6 0 1 .2 1.5.4a2.7 2.7 0 0 1 1.5 2.3h-1.2a1.8 1.8 0 0 0-.3-.8 1.7 1.7 0 0 0-1.5-.8 2 2 0 0 0-1 .2c-.3.1-.5.4-.6.6a3 3 0 0 0-.4.9v2.2l.4.8c.1.3.3.5.6.6.3.2.6.2 1 .2Zm7.5 1c-.5 0-1 0-1.4-.2a3.2 3.2 0 0 1-1.8-1.9 4 4 0 0 1-.2-1.4v-.3c0-.6 0-1.1.2-1.6l.8-1.2a3.1 3.1 0 0 1 2.2-1c.6 0 1 .1 1.4.3a2.8 2.8 0 0 1 1.5 2c.2.3.2.8.2 1.3v.6H128v-1h4.3v-.1a3 3 0 0 0-.2-1c0-.3-.3-.5-.5-.7-.3-.2-.6-.3-1-.3a1.8 1.8 0 0 0-1.5.7c-.2.2-.3.5-.4.9l-.1 1.1v.3l.1 1 .4.8a2 2 0 0 0 1.7.7c.4 0 .8 0 1.1-.2l.9-.8.7.6a3 3 0 0 1-1.5 1.3l-1.3.2Zm12-10v10h-1.3v-8.5l-2.6 1v-1.2l3.7-1.3h.2Zm7.4 2.6h1.3v8.2c0 .5 0 .8-.2 1.2-.1.3-.4.5-.7.6a2 2 0 0 1-1 .3 2.7 2.7 0 0 1-.8-.1v-1h1a.6.6 0 0 0 .3-.4l.1-.6v-8.2Zm0-2 .1-.5.6-.2c.2 0 .4 0 .5.2.2.2.2.3.2.5s0 .4-.2.5l-.5.2c-.3 0-.5 0-.6-.2a.7.7 0 0 1-.2-.5Zm8 7.6v-5.6h1.3v7.3H158v-1.7Zm.2-1.5h.5l-.1 1.3-.5 1.1c-.2.3-.5.5-1 .7a3.4 3.4 0 0 1-2.3.1 2 2 0 0 1-1.3-1.3 4 4 0 0 1-.1-1.3v-4.7h1.2v4.7c0 .4 0 .6.2.9 0 .2.1.3.3.5l.4.2a2.4 2.4 0 0 0 1.8-.2c.3-.2.6-.5.7-.8l.2-1.2Zm4.3-2.6v5.8h-1.3v-7.3h1.2v1.5Zm-.3 1.9h-.5c0-.5 0-1 .2-1.4.1-.5.3-.8.6-1.2a2.8 2.8 0 0 1 2.2-1c.4 0 .7 0 1 .2a1.9 1.9 0 0 1 1.2 1.3l.2 1.2v4.8h-1.3v-4.8c0-.4 0-.7-.2-1a1 1 0 0 0-.5-.4l-.8-.2a2 2 0 0 0-1.5.7 2.7 2.7 0 0 0-.6 1.8Zm10 4c-.6 0-1 0-1.5-.2a3.2 3.2 0 0 1-1.8-1.9 4 4 0 0 1-.2-1.4v-.3c0-.6.1-1.1.3-1.6.1-.4.4-.8.7-1.2a3.1 3.1 0 0 1 2.3-1c.5 0 1 .1 1.3.3.4.2.8.4 1 .8.3.3.4.7.6 1.1l.1 1.4v.6h-5.5v-1h4.3v-.1a3.1 3.1 0 0 0-.2-1c-.1-.3-.3-.5-.6-.7-.2-.2-.6-.3-1-.3a1.8 1.8 0 0 0-1.5.7l-.4.9-.1 1.1v.3l.1 1 .5.8a2 2 0 0 0 1.6.7 2.3 2.3 0 0 0 2-1l.7.6a3 3 0 0 1-1.5 1.3l-1.3.2Zm14.3-1.1v1H180v-.9l3.3-3.6 1-1.1.4-.8.2-.8-.2-.9a1.5 1.5 0 0 0-.6-.6 1.8 1.8 0 0 0-1-.3c-.4 0-.8.1-1.1.3l-.7.7-.2 1h-1.3c0-.5.2-1 .4-1.5.3-.4.6-.8 1.1-1a3.6 3.6 0 0 1 1.8-.5c.6 0 1.2.1 1.6.3.5.2.8.6 1 1a2.8 2.8 0 0 1 .3 2.2 6.8 6.8 0 0 1-1 1.8l-.7.8-2.7 2.9h5Zm7.7-4.7v1.5c0 .8 0 1.5-.2 2l-.7 1.4c-.2.3-.6.6-1 .7a3.8 3.8 0 0 1-2.4.1c-.3 0-.6-.2-.8-.4a2.8 2.8 0 0 1-.7-.9 4.4 4.4 0 0 1-.4-1.2 8.7 8.7 0 0 1-.2-1.7v-1.5c0-.8.1-1.5.3-2 .1-.6.3-1 .6-1.4l1-.7 1.3-.2 1 .1a2.5 2.5 0 0 1 1.6 1.3l.5 1.2.1 1.7Zm-1.3 1.7v-3a3.7 3.7 0 0 0-.3-1l-.4-.5a1.4 1.4 0 0 0-.5-.4h-.7l-.8.1-.6.5c-.1.3-.3.6-.3 1l-.2 1.4v2l.1 1 .2 1 .4.6.6.3.6.1.9-.1c.2-.2.4-.3.5-.6.2-.2.3-.6.4-1l.1-1.4Zm9.3-1.7v1.5c0 .8-.1 1.5-.3 2-.1.6-.3 1-.6 1.4-.3.3-.6.6-1 .7a3.8 3.8 0 0 1-2.4.1c-.3 0-.6-.2-.9-.4a2.8 2.8 0 0 1-.6-.9 4.4 4.4 0 0 1-.4-1.2 8.7 8.7 0 0 1-.2-1.7v-1.5a8 8 0 0 1 .2-2l.7-1.4 1-.7a3.9 3.9 0 0 1 2.4 0 2.5 2.5 0 0 1 1.5 1.2l.4 1.2.2 1.7Zm-1.3 1.7v-2l-.1-1a3.7 3.7 0 0 0-.2-1l-.4-.5a1.4 1.4 0 0 0-.5-.4h-.7l-.8.1c-.3.1-.5.3-.6.5l-.4 1-.1 1.4v3l.3 1 .4.6c.2.1.3.3.5.3l.7.1.8-.1c.3-.2.5-.3.6-.6.2-.2.3-.6.4-1V398Zm4.2 3h.1c.8 0 1.4-.1 1.8-.3a2.7 2.7 0 0 0 1.6-2l.1-1.3v-1.6l-.1-1.2a2.6 2.6 0 0 0-.5-.8 1.9 1.9 0 0 0-.6-.6 1.6 1.6 0 0 0-.7-.2l-.8.2-.6.5a2 2 0 0 0-.4.7 3.2 3.2 0 0 0 .4 2.6l.5.5.8.2c.3 0 .6 0 .8-.2a2.3 2.3 0 0 0 1.4-1.9h.6c0 .4 0 .8-.2 1.1a3.4 3.4 0 0 1-1.6 1.8l-1.2.2a2.6 2.6 0 0 1-2.2-1l-.5-1a4.4 4.4 0 0 1 0-2.6 3 3 0 0 1 1.6-1.8c.4-.2.9-.3 1.4-.3.6 0 1 .1 1.5.3l1 1 .5 1.2.2 1.5v.5l-.1 1.5-.4 1.5c-.2.5-.4 1-.8 1.3-.4.4-.8.7-1.4 1a6 6 0 0 1-2 .2h-.2v-1Z"/><path stroke="silver" stroke-linecap="round" stroke-linejoin="round" d="m245.6 397 5.7 5.9 5.9-5.7"/><path fill="#1F1F1F" d="M348 426.1H0v56.2h348v-56.2Z"/><path fill="#D2D2D2" d="M348 426.1H0v1h348v-1Z"/><path stroke="#67B279" stroke-linecap="round" stroke-linejoin="round" d="M29.4 445.5a6.4 6.4 0 0 1 6.4 6.8H29v-6.8h.4Z" clip-rule="evenodd"/><path stroke="#67B279" stroke-linecap="round" stroke-linejoin="round" d="M25.9 447.4h.3v6.8c0 .5.3 1 .8 1h6.8a7.7 7.7 0 1 1-8-7.8Z" clip-rule="evenodd"/><path fill="#E4E4E4" d="m50.8 460 4-10.9h1v1.8h-.4l-3.2 9.1h-1.4Zm1.8-3.1.4-1.1h5l.4 1.1h-5.8Zm6.1 3.1-3.2-9.1V449h.6l4 11h-1.4Zm5.5.2a3.1 3.1 0 0 1-3-2 5.5 5.5 0 0 1-.5-2.2c0-1 .2-1.7.5-2.3a3.1 3.1 0 0 1 3-2 3 3 0 0 1 1.9.7c.3.2.5.5.6.8h.1v-4.6h1.3V460h-1.3v-1.3h-.1l-.6.8a3 3 0 0 1-2 .7Zm.3-1.2c.5 0 .9-.1 1.2-.4.4-.2.7-.6.9-1 .2-.5.2-1 .2-1.6 0-.7 0-1.2-.2-1.7a2.2 2.2 0 0 0-2.1-1.4c-.5 0-1 .1-1.3.4-.4.2-.6.6-.8 1-.2.5-.3 1-.3 1.6 0 .7 0 1.2.3 1.7.2.4.4.8.8 1 .3.3.8.4 1.3.4Zm8.7 1.2c-.7 0-1.2-.1-1.6-.3a2.8 2.8 0 0 1-1.2-.8 2.2 2.2 0 0 1-.5-1.2h1.4c0 .4.3.7.6.9.4.2.8.3 1.3.3.4 0 .7 0 1-.2.2 0 .5-.2.6-.4a1 1 0 0 0 .3-.7.9.9 0 0 0-.4-.7c-.2-.2-.5-.4-1-.5l-1.3-.3-1.3-.5a2 2 0 0 1-.7-.7 2.1 2.1 0 0 1-.2-1c0-.5.1-.9.4-1.2.2-.4.6-.7 1-.9.5-.2 1-.3 1.6-.3.6 0 1 .1 1.5.3.5.2.8.4 1 .8s.5.7.6 1.1H75a1.3 1.3 0 0 0-.6-.8c-.3-.2-.7-.3-1.2-.3-.3 0-.6 0-.9.2-.2 0-.4.2-.6.4a1 1 0 0 0-.2.6c0 .2 0 .4.2.5 0 .2.2.3.4.4l.8.3 1.2.3a3.8 3.8 0 0 1 1.7.8c.4.3.6.8.6 1.4 0 .5-.1 1-.4 1.3a3 3 0 0 1-1.2.9c-.5.2-1 .3-1.7.3Zm13 0a3 3 0 0 1-1-.2 2.8 2.8 0 0 1-1.5-1.3h-.1v1.3h-1.3v-11.4h1.3v4.6h.1l.6-.8a3 3 0 0 1 2-.7 3 3 0 0 1 1.7.5c.6.4 1 .9 1.2 1.5.3.6.5 1.4.5 2.2 0 1-.2 1.7-.5 2.3a3.4 3.4 0 0 1-1.2 1.5 3 3 0 0 1-1.8.5ZM86 459c.5 0 .9-.1 1.2-.4.4-.2.6-.6.8-1 .2-.5.3-1 .3-1.6a4 4 0 0 0-.3-1.7c-.2-.4-.4-.8-.8-1a2.2 2.2 0 0 0-1.3-.4c-.5 0-.9.1-1.2.4-.4.2-.7.6-.9 1l-.2 1.6c0 .7 0 1.2.2 1.7A2.2 2.2 0 0 0 86 459Zm5.5 1v-11.4h1.3V460h-1.3Zm6.9.2a4 4 0 0 1-2-.5c-.6-.4-1-.9-1.3-1.5a5.2 5.2 0 0 1-.5-2.2c0-1 .2-1.7.5-2.3.3-.6.7-1.1 1.3-1.5.5-.3 1.2-.5 2-.5.7 0 1.4.2 2 .5.5.4 1 .9 1.3 1.5.3.6.4 1.4.4 2.2 0 1-.1 1.7-.4 2.3a3.4 3.4 0 0 1-3.3 2Zm0-1.2c.5 0 1-.1 1.3-.4.3-.2.6-.6.8-1 .2-.5.3-1 .3-1.6 0-.7-.1-1.3-.3-1.7a2.2 2.2 0 0 0-.8-1c-.4-.3-.8-.4-1.3-.4-.6 0-1 .1-1.3.4-.4.2-.7.5-.9 1a4 4 0 0 0-.2 1.6c0 .7 0 1.2.2 1.7s.5.8.9 1c.3.3.8.4 1.3.4Zm8.8 1.2c-.8 0-1.4-.2-2-.6s-1-.8-1.3-1.4a5.1 5.1 0 0 1-.5-2.3c0-.8.2-1.6.5-2.2a3.4 3.4 0 0 1 3.3-2c.6 0 1.2.1 1.7.4a3 3 0 0 1 1.7 2.2h-1.3a2 2 0 0 0-.7-1 2.2 2.2 0 0 0-1.4-.4 2.2 2.2 0 0 0-2.1 1.4c-.2.5-.3 1-.3 1.6 0 .7 0 1.2.3 1.7.2.4.5.8.8 1 .4.3.8.4 1.3.4s1-.1 1.3-.4c.4-.2.6-.5.8-1h1.3a3.2 3.2 0 0 1-1.7 2.2 4 4 0 0 1-1.7.4Zm5-.2v-11.4h1.4V460h-1.3Zm5.2 0-3.2-4 1-.8 3.9 4.8h-1.7Zm-4-2.9v-1.7h.3l3.5-3.5h1.6l-3.8 3.7-.4.3-1.2 1.2Zm9.9 3c-.8 0-1.5-.1-2-.4a3.4 3.4 0 0 1-1.3-1.5 5.2 5.2 0 0 1-.5-2.2c0-.9.2-1.6.5-2.2.3-.7.7-1.2 1.2-1.5.6-.4 1.2-.6 2-.6.7 0 1.3.2 1.9.5.5.4 1 .9 1.2 1.5.3.6.4 1.3.4 2.1v.5h-6.5v-1h5.9l-.7 1v-.6c0-.6 0-1.2-.3-1.6a2 2 0 0 0-2-1.2 2.1 2.1 0 0 0-2 1.3l-.2 1.5v.5c0 .6 0 1.1.3 1.5a2.2 2.2 0 0 0 2 1.3c.4 0 .8 0 1-.2.3 0 .5-.2.7-.3l.4-.5h1.3c0 .3-.2.5-.4.8a3 3 0 0 1-.7.7l-1 .5-1.3.2Zm8.2 0a3.1 3.1 0 0 1-3-2 5.5 5.5 0 0 1-.4-2.1c0-1 .1-1.7.4-2.3a3.1 3.1 0 0 1 3-2 3 3 0 0 1 2 .7l.5.8h.1v-4.6h1.4V460H134v-1.3a2.8 2.8 0 0 1-1.6 1.3 3 3 0 0 1-1 .2Zm.3-1c.5 0 .9-.2 1.2-.5.4-.2.7-.6.9-1 .2-.5.3-1 .3-1.6 0-.7-.1-1.2-.3-1.7a2.2 2.2 0 0 0-2.1-1.4c-.5 0-1 .1-1.3.4a2.3 2.3 0 0 0-.8 1 4 4 0 0 0-.3 1.6c0 .7.1 1.2.3 1.7.2.4.5.8.8 1 .4.3.8.4 1.3.4Zm147.4 1v-9h-.1l-2.7 1.8v-1.8l2.8-2h2v11h-2Zm8.7.2a3.6 3.6 0 0 1-2.3-.7 4.4 4.4 0 0 1-1.4-2 8.4 8.4 0 0 1-.5-3c0-1.2.2-2.2.5-3a4.4 4.4 0 0 1 1.4-2c.7-.5 1.4-.8 2.3-.8.8 0 1.6.3 2.2.7.6.5 1.1 1.2 1.4 2 .4.9.5 1.9.5 3 0 1.2-.1 2.3-.5 3.1-.3.9-.8 1.5-1.4 2a3.6 3.6 0 0 1-2.2.7Zm0-1.6c.4 0 .8-.2 1.2-.5.3-.3.5-.8.7-1.4a8.5 8.5 0 0 0 0-4.5 3.2 3.2 0 0 0-.7-1.4 1.6 1.6 0 0 0-1.2-.5c-.5 0-.9.2-1.2.5-.3.3-.6.8-.8 1.4a8.4 8.4 0 0 0-.2 2.3c0 .8 0 1.6.2 2.2.2.6.5 1 .8 1.4.3.3.7.5 1.2.5Zm6.1 1.3 4.8-9.2h-5.6V449h7.5v1.6l-4.6 9.3h-2Zm16.2.2a5 5 0 0 1-2.1-.3 3.5 3.5 0 0 1-1.4-1.2 3.3 3.3 0 0 1-.6-1.6v-.1h1.8a1.7 1.7 0 0 0 1.2 1.5 3 3 0 0 0 1 .2c.5 0 .9-.1 1.2-.3.3-.1.5-.3.7-.6.2-.2.3-.5.3-.9 0-.6-.2-1-.6-1.3-.4-.3-1-.5-1.7-.5h-1.3v-1.4h1.3c.4 0 .8 0 1-.2l.8-.6.2-.8c0-.4 0-.7-.2-1a1.4 1.4 0 0 0-.6-.5l-1-.2-1 .2a1.7 1.7 0 0 0-1 1.4v.1h-1.9a3.3 3.3 0 0 1 .6-1.7c.3-.5.8-.9 1.3-1.1.6-.3 1.2-.4 2-.4.7 0 1.4.1 2 .4.5.2.9.5 1.2 1 .3.4.5.9.5 1.5a2.4 2.4 0 0 1-1.2 2c-.3.3-.7.4-1.1.5.8.1 1.4.4 2 .9.4.4.6 1 .6 1.8a3 3 0 0 1-.5 1.7c-.3.5-.8.9-1.4 1.1a5 5 0 0 1-2.1.4Zm9.7-11.4c.6 0 1.1.1 1.6.4.6.2 1 .5 1.4 1 .4.4.8 1 1 1.7.2.7.3 1.5.3 2.5 0 1.3-.1 2.3-.5 3.2a4 4 0 0 1-3.9 2.7 4 4 0 0 1-1.8-.4 3.5 3.5 0 0 1-2-2.5h1.9l.4.7a2 2 0 0 0 1.5.6c.6 0 1-.2 1.4-.5.4-.4.7-.8.9-1.4a7 7 0 0 0 .3-2.1v-.2l-.3-1.9a2.3 2.3 0 0 0-1.1-1.9 2 2 0 0 0-1.1-.3 2.1 2.1 0 0 0-1.9 1.1 2 2 0 0 0-.3 1.1c0 .4.1.8.3 1.1a2 2 0 0 0 1.9 1.1c.4 0 .8-.1 1-.3a2 2 0 0 0 1.2-1.8h.4v2h-.3a2.6 2.6 0 0 1-.5.8l-1 .6-1.3.2a3.4 3.4 0 0 1-3.1-1.8 3.7 3.7 0 0 1-.5-1.8 3.7 3.7 0 0 1 2-3.4c.6-.3 1.3-.5 2-.5Zm8.8 11.2v-9h-.1l-2.7 2V451l2.8-2h2v11h-2Z"/></svg>