<svg xmlns="http://www.w3.org/2000/svg" width="348" height="456" fill="none"><path fill="#1F1F1F" d="M348 0H0v456h348V0Z"/><path fill="#67B279" fill-rule="evenodd" d="M34.8 23.2c-3.6 0-8 .8-11.6 2.7 0 4 0 13.8 11.6 20.5 11.7-6.7 11.6-16.6 11.6-20.5a26.7 26.7 0 0 0-11.6-2.7Z" clip-rule="evenodd"/><path fill="#5B9F6B" fill-rule="evenodd" d="M34.8 23.2c-3.6 0-8 .8-11.6 2.7 0 4 0 13.8 11.6 20.5V23.2Z" clip-rule="evenodd"/><path fill="#fff" fill-rule="evenodd" d="m34.7 38.1 6.7-8.9c-.5-.4-.9-.1-1.1.1L34.6 35l-2-2.5c-1-1.1-2.4-.2-2.8 0l4.9 5.6Z" clip-rule="evenodd"/><path fill="#F6F6F6" fill-rule="evenodd" d="M78.5 40.1c-1.6 0-3-.5-4-1.5s-1.4-2.3-1.4-3.8a5.3 5.3 0 0 1 5.4-5.3c.9 0 1.6.1 2.2.4a6 6 0 0 1 1.8 1l-1.4 1.7a3.8 3.8 0 0 0-2.7-1c-.8 0-1.5.3-2.1 1a3.3 3.3 0 0 0-.9 2.2c0 1 .3 1.7.9 2.3a3 3 0 0 0 2.3 1c.8 0 1.5-.3 2-.7V36h-2.2v-2h4.5v4.5a6.7 6.7 0 0 1-4.4 1.6ZM54.7 29.6l-4.4 10.3h2.3l1-2.3h4.3l1 2.3h2.3l-4.4-10.3h-2.1Zm1 2.7 1.4 3.3h-2.8l1.4-3.3Zm6.7 7.6V29.7h4a5.5 5.5 0 0 1 4 1.5 4.8 4.8 0 0 1 1.5 3.6c0 1.5-.5 2.7-1.5 3.7a5.5 5.5 0 0 1-4 1.4h-4Zm4-2h-1.7v-6.2h1.7c1 0 1.7.3 2.3.9a3 3 0 0 1 .8 2.2 3 3 0 0 1-.8 2.2 3 3 0 0 1-2.3.9Zm19.7 1a4.5 4.5 0 0 0 3.3 1.2c1.4 0 2.5-.4 3.3-1.2.8-.8 1.2-2 1.2-3.4v-5.8h-2.3v5.8c0 .8-.2 1.4-.5 1.9-.4.4-1 .6-1.7.6a2.1 2.1 0 0 1-1.6-.7c-.4-.4-.6-1-.6-1.8v-5.8h-2.3v5.8c0 1.5.4 2.6 1.2 3.4Zm8.4 1L99 29.6h2.1l4.5 10.3H103l-1-2.3h-4.3l-1 2.3h-2.3Zm5.5-7.6 1.3 3.3h-2.7l1.4-3.3Zm6.6-2.6h4.8c1.2 0 2.2.3 3 1 .5.6.8 1.4.8 2.4 0 1.6-.7 2.6-2.2 3.2l2.6 3.6h-2.7l-2.2-3.3h-1.8V40h-2.3V29.7Zm4.6 5h-2.3v-3h2.3c.5 0 1 .1 1.3.4.3.2.4.6.4 1 0 .5-.1.9-.4 1.1-.3.3-.7.4-1.3.4Zm5.7-5h4a5.5 5.5 0 0 1 4 1.4 4.8 4.8 0 0 1 1.5 3.7c0 1.5-.5 2.7-1.6 3.6A5.5 5.5 0 0 1 121 40h-4V29.7Zm4 8.2h-1.8v-6.2h1.8c1 0 1.7.3 2.2.9a3 3 0 0 1 1 2.2 3 3 0 0 1-1 2.2 3 3 0 0 1-2.2.9Z" clip-rule="evenodd"/><path stroke="#67B279" stroke-linejoin="round" d="M309.3 41.5a.8.8 0 0 1 .3 0c.4.3.9.5 1.3.6a.8.8 0 0 1 .6.5l.6 1.9h2.2l.6-1.9a.8.8 0 0 1 .6-.5l1.3-.5a.8.8 0 0 1 .7 0l1.7.8 1.6-1.5-.8-1.8a.8.8 0 0 1 0-.7l.5-1.3a.8.8 0 0 1 .5-.6l1.9-.6v-2.2L321 33a.8.8 0 0 1-.6-.6 7.6 7.6 0 0 0-.5-1.3.8.8 0 0 1 0-.7l.8-1.7-1.6-1.6-1.7.8a.8.8 0 0 1-.7 0l-1.3-.5a.8.8 0 0 1-.6-.6l-.6-1.8h-2.2l-.6 1.8a.8.8 0 0 1-.6.6l-1.3.5a.8.8 0 0 1-.7 0l-1.7-.8-1.6 1.6.8 1.7v.7l-.5 1.3a.8.8 0 0 1-.5.6l-1.9.6v2.2l1.8.6a.8.8 0 0 1 .6.6l.5 1.2a.8.8 0 0 1 0 .8l-.8 1.7 1.5 1.6 1.8-.8a.8.8 0 0 1 .4-.1Z" clip-rule="evenodd"/><path stroke="#67B279" stroke-linejoin="round" d="M313.2 32.2a2.6 2.6 0 1 0 0 5.2 2.6 2.6 0 0 0 0-5.2Z" clip-rule="evenodd"/><path fill="#E9653A" fill-rule="evenodd" d="M134.4 179.3c0-8 6.5-14.5 14.5-14.5h48.3a14.5 14.5 0 0 1 14.5 14.2v.3c0 8-6.5 14.5-14.5 14.5h-48.3a14.5 14.5 0 0 1-14.5-14.2v-.3Z" clip-rule="evenodd"/><path fill="#fff" d="M156.6 203.5a24.2 24.2 0 1 0 0-48.4 24.2 24.2 0 0 0 0 48.4Z"/><path stroke="#E9653A" stroke-width="2" d="M164.3 179.3a7.7 7.7 0 1 0-15.4 0 7.7 7.7 0 0 0 15.4 0Z"/><path fill="#E4E4E4" d="M60.7 248.6v-2.7h4c1 0 1.8-.2 2.3-.7.6-.5.8-1.3.8-2.2 0-1-.2-1.6-.8-2.1-.5-.5-1.3-.8-2.3-.8h-4v-2.7h4.9c1.1 0 2.1.2 3 .7a5 5 0 0 1 2 2c.5.8.7 1.8.7 2.9a5.8 5.8 0 0 1-.7 3 5 5 0 0 1-2 1.9c-.9.5-1.9.7-3 .7h-4.9Zm-1.7 5.2v-16.4h3.4v16.4H59Zm14.3 0v-12.3h3.3v2.1h.1c.2-.7.5-1.3 1-1.7.5-.4 1.1-.6 1.9-.6a4.2 4.2 0 0 1 1 .2v2.9a3 3 0 0 0-.6-.2 5 5 0 0 0-.7 0 3 3 0 0 0-1.4.3c-.4.2-.7.5-1 1-.2.3-.3.8-.3 1.4v6.9h-3.3Zm14 .2c-1.2 0-2.3-.3-3.2-.8-.9-.5-1.6-1.2-2-2.1a7.4 7.4 0 0 1-.8-3.4c0-1.4.2-2.5.7-3.4.5-1 1.2-1.7 2.1-2.2 1-.5 2-.8 3.2-.8s2.3.3 3.2.8c.9.5 1.6 1.2 2.1 2.1.5 1 .8 2.1.8 3.4 0 1.4-.3 2.5-.8 3.5a5.2 5.2 0 0 1-2 2.1c-1 .5-2 .8-3.3.8Zm0-2.6c.6 0 1-.1 1.5-.4.4-.3.7-.8.9-1.3.2-.6.3-1.2.3-2 0-.9-.1-1.5-.3-2.1a2.8 2.8 0 0 0-1-1.3c-.4-.3-.8-.4-1.4-.4-.5 0-1 .1-1.4.4-.4.3-.7.8-1 1.3a5.5 5.5 0 0 0-.3 2c0 .9.1 1.5.4 2s.5 1 .9 1.4c.4.3.9.4 1.4.4Zm12.9 2.6c-1.4 0-2.4-.3-3-.9-.7-.5-1-1.4-1-2.7V244h-1.8v-2.5h1.8v-3h3.3v3h2.3v2.5h-2.3v6c0 .5.1.9.4 1.1.3.2.6.4 1.2.4a6 6 0 0 0 .7-.1v2.4a8.4 8.4 0 0 1-1.6.2Zm9 0a6.5 6.5 0 0 1-3.2-.8 5.2 5.2 0 0 1-2-2.2 7.4 7.4 0 0 1-.8-3.3c0-1.3.3-2.5.7-3.4a5.3 5.3 0 0 1 2-2.2c1-.5 2-.8 3.2-.8s2.2.3 3 .8c1 .5 1.6 1.2 2 2.1.6 1 .8 2 .8 3.2v1h-10v-2h8.4l-1.5 1.9V247c0-.7-.1-1.3-.4-1.8a2.4 2.4 0 0 0-.9-1c-.4-.3-.8-.4-1.3-.4-.6 0-1 .1-1.4.3l-1 1.1a4.1 4.1 0 0 0-.3 1.8v1.3c0 .7.1 1.3.3 1.8.3.4.6.8 1 1 .4.3 1 .4 1.5.4s.9 0 1.2-.2l.8-.5c.2-.2.4-.4.4-.7h3.1a4.6 4.6 0 0 1-1.6 2.7 5 5 0 0 1-1.7.9 6.9 6.9 0 0 1-2.3.3Zm13.2 0a6.5 6.5 0 0 1-3.2-.8 5.2 5.2 0 0 1-2.1-2.2 7.5 7.5 0 0 1-.7-3.4c0-1.3.2-2.4.7-3.3a5.2 5.2 0 0 1 2-2.3c1-.4 2-.7 3.3-.7 1 0 2 .2 2.8.6a4.7 4.7 0 0 1 2.7 4v.1h-3a2.6 2.6 0 0 0-.9-1.5c-.4-.4-1-.6-1.6-.6-.5 0-1 .1-1.4.4-.4.3-.7.8-1 1.3a5.7 5.7 0 0 0-.3 2c0 .9.1 1.5.4 2 .2.7.5 1 .9 1.4.4.3.9.4 1.4.4.7 0 1.2-.2 1.6-.5.4-.4.7-.9.8-1.5l3.1-.1a4.8 4.8 0 0 1-2.7 4.1c-.8.4-1.7.6-2.8.6Zm12.3 0c-1.4 0-2.4-.3-3-.9-.7-.5-1-1.4-1-2.7V244h-1.8v-2.5h1.7v-3h3.4v3h2.3v2.5H134v6c0 .5.1.9.3 1.1.3.2.7.4 1.2.4a5.9 5.9 0 0 0 .8-.1v2.4a8.4 8.4 0 0 1-1.6.2Zm3.7-.3v-12.1h3.3v12.2h-3.3ZM140 240a1.8 1.8 0 1 1 0-3.5c.5 0 1 .2 1.3.5.4.4.5.8.5 1.3s-.1.9-.5 1.2c-.3.4-.7.5-1.3.5Zm9.7 14.1c-1.2 0-2.3-.3-3.2-.8a5.2 5.2 0 0 1-2-2.1 7.3 7.3 0 0 1-.8-3.4c0-1.4.3-2.5.8-3.4.5-1 1.2-1.7 2-2.2 1-.5 2-.8 3.2-.8 1.3 0 2.3.3 3.2.8 1 .5 1.6 1.2 2.1 2.1.5 1 .8 2.1.8 3.4 0 1.4-.3 2.5-.8 3.5a5.2 5.2 0 0 1-2 2.1c-1 .5-2 .8-3.3.8Zm0-2.6a2.3 2.3 0 0 0 1.5-.4c.4-.3.7-.8.9-1.3.2-.6.3-1.2.3-2 0-.9-.1-1.5-.3-2.1a2.8 2.8 0 0 0-1-1.3c-.4-.3-.8-.4-1.4-.4-.5 0-1 .1-1.4.4-.4.3-.7.8-1 1.3a5.5 5.5 0 0 0-.2 2c0 .9 0 1.5.3 2 .2.6.5 1 1 1.4.3.3.8.4 1.3.4Zm8 2.4v-12.3h3.3v2h.1a3.7 3.7 0 0 1 3.7-2.2c1.4 0 2.4.4 3.1 1.2.7.8 1.1 2 1.1 3.4v7.8h-3.3v-7.1c0-.8-.2-1.5-.6-1.9-.3-.5-.9-.7-1.7-.7-.4 0-.9.1-1.2.4-.4.2-.7.5-.9 1-.2.3-.3.8-.3 1.3v7h-3.3Zm18.7 0v-12.3h3.3v12.3h-3.3Zm1.6-13.9a1.8 1.8 0 1 1 0-3.5c.5 0 1 .2 1.3.5.3.4.5.8.5 1.3s-.2.9-.5 1.2c-.4.4-.8.5-1.3.5Zm9.1 14.1a7.7 7.7 0 0 1-2.8-.5 4 4 0 0 1-2.7-3.3v-.1h3.3c0 .5.3.9.7 1.2.4.2.9.4 1.5.4.5 0 .8 0 1.1-.2.3 0 .6-.2.7-.4.2-.2.3-.5.3-.7a1 1 0 0 0-.4-.8c-.2-.2-.7-.4-1.3-.5l-2-.5a6.6 6.6 0 0 1-2-.7 3.3 3.3 0 0 1-1.2-1.2c-.2-.4-.4-1-.4-1.6 0-.8.2-1.4.7-2a4.1 4.1 0 0 1 1.7-1.3 7 7 0 0 1 2.7-.5c1.1 0 2 .2 2.8.5.7.3 1.3.8 1.7 1.4.4.6.6 1.2.7 1.9H189a1.6 1.6 0 0 0-.6-1 2.2 2.2 0 0 0-1.5-.5 3 3 0 0 0-1 .2c-.2 0-.5.2-.6.4-.2.3-.2.5-.2.7l.1.6.5.4c.2.1.6.3 1 .3l2 .5c1.3.2 2.3.6 2.8 1.2.6.5.9 1.2.9 2.1 0 .8-.3 1.5-.7 2.1a4.5 4.5 0 0 1-1.9 1.4c-.8.3-1.7.5-2.8.5Zm16.7 0c-1 0-2-.3-2.7-.8a4.8 4.8 0 0 1-1.7-2.1c-.4-1-.6-2.1-.6-3.4 0-1.4.2-2.5.6-3.5.4-1 1-1.6 1.7-2.1.8-.5 1.7-.8 2.7-.8.6 0 1 .1 1.6.3a3.7 3.7 0 0 1 2.1 2h.1v-6.3h3.3v16.4h-3.3v-2a3.7 3.7 0 0 1-2.2 2c-.5.2-1 .3-1.6.3Zm1-2.7c.6 0 1.1-.2 1.5-.5a3 3 0 0 0 1-1.2c.2-.6.3-1.2.3-2 0-.7-.1-1.3-.3-1.9a2.8 2.8 0 0 0-1-1.2c-.4-.3-.9-.4-1.4-.4-.6 0-1 .1-1.4.4-.4.3-.8.7-1 1.2a5 5 0 0 0-.3 2c0 .7 0 1.3.3 1.9.2.5.5 1 1 1.2.4.3.8.5 1.4.5Zm8.7 2.4v-12.1h3.3v12.2h-3.3ZM215 240a1.8 1.8 0 0 1-1.2-3c.3-.3.7-.4 1.2-.4s1 .1 1.3.5c.3.3.5.7.5 1.2s-.2.9-.5 1.2c-.3.4-.8.5-1.3.5Zm9.1 14.1a7.7 7.7 0 0 1-2.8-.5 4 4 0 0 1-2.7-3.3v-.1h3.3c.1.5.3.9.7 1.2.4.2.9.4 1.6.4.4 0 .7 0 1-.2.3 0 .6-.2.7-.4.2-.2.3-.5.3-.7a1 1 0 0 0-.4-.8 3 3 0 0 0-1.2-.5l-2.1-.5a6.6 6.6 0 0 1-2-.7 3.2 3.2 0 0 1-1.2-1.2 3.3 3.3 0 0 1-.4-1.6c0-.8.2-1.4.7-2a4.1 4.1 0 0 1 1.7-1.3 7 7 0 0 1 2.7-.5c1.1 0 2 .2 2.8.5.7.3 1.3.8 1.7 1.4.4.6.7 1.2.7 1.9h-3a1.6 1.6 0 0 0-.7-1 2.2 2.2 0 0 0-1.5-.5 3 3 0 0 0-1 .2c-.2 0-.5.2-.6.4-.2.3-.2.5-.2.7l.1.6c.1.2.3.3.6.4l1 .3 2 .5c1.3.2 2.2.6 2.7 1.2.6.5.9 1.2.9 2.1 0 .8-.2 1.5-.7 2.1a4.5 4.5 0 0 1-1.9 1.4c-.8.3-1.7.5-2.8.5Zm10.9 0c-.8 0-1.5-.2-2.2-.5a3.6 3.6 0 0 1-1.4-1.3c-.3-.6-.5-1.2-.5-2 0-.7.2-1.3.5-1.9.4-.5 1-.9 1.7-1.2a7.6 7.6 0 0 1 2.5-.6l4.7-.3v2.1l-4.2.3c-.6 0-1.1.2-1.4.4-.4.3-.5.6-.5 1 0 .5.1.9.5 1.1.3.3.8.4 1.3.4s1 0 1.4-.3c.4-.2.7-.4.9-.8.2-.3.3-.7.3-1.1v-3.7c0-.6-.1-1-.5-1.3-.3-.3-.8-.5-1.5-.5-.6 0-1 .1-1.4.4-.4.2-.6.6-.7 1h-3c0-.8.2-1.5.7-2a4.4 4.4 0 0 1 1.8-1.4 7 7 0 0 1 2.8-.5c1 0 2 .2 2.7.5.8.3 1.4.8 1.8 1.4.4.6.6 1.4.6 2.2v8.3h-3.3V252a3.9 3.9 0 0 1-2.2 1.7c-.4.2-.9.2-1.4.2Zm16.6 0a4 4 0 0 1-3-1 4 4 0 0 1-.8-1.3v2h-3.4v-16.4h3.3v6.3h.1a3.8 3.8 0 0 1 2.2-2 4.3 4.3 0 0 1 1.6-.3c1 0 1.9.3 2.6.8.7.5 1.3 1.2 1.7 2.1.4 1 .6 2.1.6 3.4 0 1.4-.2 2.5-.6 3.5a4.8 4.8 0 0 1-1.7 2.1c-.7.5-1.6.8-2.6.8Zm-1.1-2.7a2.4 2.4 0 0 0 1.4-.5c.4-.3.7-.7 1-1.2a5 5 0 0 0 .3-2 5 5 0 0 0-.4-1.9 2.7 2.7 0 0 0-1-1.2c-.3-.3-.8-.5-1.4-.5-.5 0-1 .2-1.4.5a3 3 0 0 0-1 1.2 4.9 4.9 0 0 0-.3 2c0 .7.1 1.3.4 1.9.2.5.5 1 .9 1.2.4.3.9.4 1.4.4Zm8 2.4v-16.4h3.4v16.4h-3.3Zm11.4.3a6.5 6.5 0 0 1-3.2-.8 5.2 5.2 0 0 1-2-2.2 7.3 7.3 0 0 1-.8-3.3c0-1.3.2-2.5.7-3.4a5.3 5.3 0 0 1 2-2.2c1-.5 2-.8 3.2-.8a6 6 0 0 1 3 .8 5.1 5.1 0 0 1 2 2.1c.5 1 .8 2 .8 3.2v1h-10v-2h8.4l-1.6 1.9V247c0-.7 0-1.3-.3-1.8a2.4 2.4 0 0 0-1-1c-.3-.3-.8-.4-1.3-.4s-1 .1-1.4.3c-.4.3-.7.7-.9 1.1a4.2 4.2 0 0 0-.3 1.8v1.3c0 .7 0 1.3.3 1.8.2.4.5.8 1 1 .4.3.9.4 1.5.4.4 0 .8 0 1.1-.2.4-.1.7-.3.9-.5l.4-.7h3a4.6 4.6 0 0 1-1.6 2.7 5 5 0 0 1-1.6.9 6.9 6.9 0 0 1-2.3.3Zm12.1 0c-1 0-1.9-.3-2.6-.8a4.8 4.8 0 0 1-1.8-2.1c-.4-1-.6-2.1-.6-3.4 0-1.4.2-2.5.6-3.5.4-1 1-1.6 1.8-2.1a4.6 4.6 0 0 1 4.2-.5 3.7 3.7 0 0 1 2.1 2h.1v-6.3h3.3v16.4H286v-2a3.7 3.7 0 0 1-2.2 2c-.5.2-1 .3-1.6.3Zm1.1-2.7c.6 0 1-.2 1.4-.5.5-.3.8-.7 1-1.2.2-.6.3-1.2.3-2 0-.7 0-1.3-.3-1.9a2.8 2.8 0 0 0-1-1.2c-.4-.3-.8-.4-1.4-.4-.5 0-1 .1-1.4.4-.4.3-.8.7-1 1.2a5 5 0 0 0-.3 2c0 .7.1 1.3.3 1.9.2.5.6 1 1 1.2.4.3.9.5 1.4.5ZM103.3 399l-.1-.7-.4-.5-.8-.4a10.6 10.6 0 0 0-1.2-.5 9 9 0 0 1-2.5-1.1 2.4 2.4 0 0 1-1-2 2.6 2.6 0 0 1 1-2c.3-.3.7-.5 1.2-.7l1.4-.2a4 4 0 0 1 2 .5c.6.3 1 .7 1.3 1.2a3 3 0 0 1 .5 1.5h-1.4c0-.4-.1-.7-.3-1a1.8 1.8 0 0 0-.7-.8 2.8 2.8 0 0 0-1.4-.2 3 3 0 0 0-1.2.2c-.3.1-.6.3-.7.6a1.6 1.6 0 0 0-.1 1.5c0 .2.2.4.4.5l.8.4 1.1.4 1.6.6c.4.2.8.4 1 .7.3.3.6.6.7.9l.2 1a2.5 2.5 0 0 1-1 2.2l-1.2.6a5.5 5.5 0 0 1-3 0 4.3 4.3 0 0 1-1.2-.7 2.8 2.8 0 0 1-1.3-2.4h1.4c0 .4 0 .7.2 1l.6.6.8.4a4.1 4.1 0 0 0 2.3-.1 1.5 1.5 0 0 0 1-1.5Zm4.5-5.2v7.9h-1.4v-8h1.4Zm-1.5-2.1c0-.2 0-.4.2-.6l.6-.2c.3 0 .5 0 .6.2l.2.6c0 .2 0 .4-.2.5-.1.2-.3.2-.6.2s-.5 0-.6-.2a.8.8 0 0 1-.2-.5Zm5 3.8v6.2h-1.4v-8h1.3v1.8Zm-.3 2h-.6c0-.6 0-1.1.2-1.6l.7-1.2a3 3 0 0 1 2.3-1l1 .1c.4.1.6.3.9.5l.5.9.1 1.3v5.2h-1.3v-5.2c0-.4 0-.7-.2-1l-.5-.5a1.9 1.9 0 0 0-.9-.2 2 2 0 0 0-1.6.8 3 3 0 0 0-.6 1.8Zm10.3 3.2c.4 0 .7 0 1-.2.2 0 .4-.3.6-.5.2-.2.3-.5.3-.8h1.3c0 .5-.2.9-.5 1.3a3.2 3.2 0 0 1-2.7 1.3c-.6 0-1 0-1.5-.3a3.1 3.1 0 0 1-1.1-.8 4 4 0 0 1-.7-1.3 5.4 5.4 0 0 1-.2-1.5v-.3l.3-1.5c.1-.5.3-1 .6-1.3a3.1 3.1 0 0 1 2.6-1.2c.7 0 1.2.2 1.7.4a3 3 0 0 1 1.5 2.5h-1.3a2 2 0 0 0-.3-.9 1.8 1.8 0 0 0-1.6-.8 2 2 0 0 0-1 .2l-.7.7a3 3 0 0 0-.3.9l-.1 1v1.3l.4 1a1.9 1.9 0 0 0 1.8.8Zm8 1.1a4 4 0 0 1-1.5-.2 3.4 3.4 0 0 1-1.9-2 4.5 4.5 0 0 1-.2-1.6v-.3c0-.6 0-1.2.2-1.7l.8-1.3a3.3 3.3 0 0 1 2.4-1c.6 0 1 0 1.5.2.4.2.7.5 1 .9l.6 1.2.2 1.5v.6h-6v-1h4.6v-.2l-.2-1c-.1-.3-.3-.6-.6-.8a1.7 1.7 0 0 0-1.1-.3 1.8 1.8 0 0 0-1.5.7l-.4 1-.2 1.2v.3a3.3 3.3 0 0 0 .6 2l.8.5c.3.2.6.2 1 .2s.8 0 1.2-.2a3 3 0 0 0 .8-.8l.8.6a4 4 0 0 1-.6.8 3.1 3.1 0 0 1-1 .5c-.4.2-.8.3-1.3.3Zm12.6-10.8v10.7h-1.3v-9l-2.8 1v-1.3l3.9-1.4h.2Zm7.9 2.8h1.3v8.9c0 .4 0 .8-.2 1.2-.2.3-.4.6-.7.7-.3.2-.7.3-1.1.3a2.8 2.8 0 0 1-.9-.1v-1.1h1.1a.7.7 0 0 0 .3-.4l.2-.7V394Zm-.2-2.1.2-.6.6-.2c.3 0 .5 0 .6.2.2.2.2.4.2.6 0 .2 0 .4-.2.5-.1.2-.3.2-.6.2-.2 0-.4 0-.6-.2a.8.8 0 0 1-.2-.5Zm8.5 8.2v-6.1h1.4v7.9h-1.3V400Zm.3-1.7h.5a6.1 6.1 0 0 1-.1 1.5 3 3 0 0 1-.5 1.1l-1 .8c-.4.2-.9.3-1.4.3l-1-.2a2.1 2.1 0 0 1-1.4-1.5 4.4 4.4 0 0 1-.2-1.3v-5.1h1.3v5.1l.1.9.4.5c.1.2.3.3.4.3a2.5 2.5 0 0 0 2-.2l.7-1 .2-1.2Zm4.5-2.7v6.2h-1.4v-8h1.3v1.8Zm-.3 2h-.6l.2-1.6.7-1.2a3 3 0 0 1 2.3-1l1 .1a2 2 0 0 1 1.4 1.4l.2 1.3v5.2h-1.4v-5.2c0-.4 0-.7-.2-1l-.5-.5a1.9 1.9 0 0 0-.9-.2 2 2 0 0 0-1.6.8 3 3 0 0 0-.6 1.8Zm10.5 4.3a3.4 3.4 0 0 1-3.4-2.2 4.5 4.5 0 0 1-.3-1.6v-.3c0-.6.1-1.2.3-1.7l.8-1.3a3.3 3.3 0 0 1 3.8-.8c.5.2.8.5 1 .8l.6 1.3c.2.4.3 1 .3 1.5v.6h-6v-1h4.6v-.2l-.2-1c-.2-.3-.3-.6-.6-.8a1.7 1.7 0 0 0-1.1-.3 1.8 1.8 0 0 0-1.5.7l-.4 1-.2 1.2v.3c0 .4 0 .7.2 1 0 .4.2.7.4 1l.7.5c.3.2.7.2 1 .2.5 0 1 0 1.2-.3a3 3 0 0 0 1-.7l.7.6a4 4 0 0 1-.6.8l-1 .5c-.4.2-.8.2-1.3.2Zm15.1-1.2v1.1h-7v-1l3.6-3.9 1-1.2c.2-.3.4-.6.4-.9a2.3 2.3 0 0 0 0-1.7 1.6 1.6 0 0 0-.7-.7 1.9 1.9 0 0 0-1-.3c-.4 0-.8.1-1.1.3-.4.2-.6.4-.7.8-.2.3-.3.7-.3 1h-1.3c0-.5.1-1 .4-1.6.2-.5.6-.9 1.1-1.1.6-.3 1.2-.5 2-.5.6 0 1.2.1 1.7.4.4.2.8.5 1 1a3 3 0 0 1 .3 2.4 7.4 7.4 0 0 1-1 1.9l-.8.9-2.9 3h5.3Zm8.1-5v1.6c0 .8 0 1.6-.2 2.2-.1.6-.4 1-.7 1.4-.3.4-.6.6-1 .8-.4.2-.9.2-1.4.2l-1.1-.1a2.6 2.6 0 0 1-1.7-1.4l-.4-1.3a9.6 9.6 0 0 1-.2-1.8v-1.7c0-.8.1-1.6.3-2.2.1-.6.4-1 .6-1.4l1-.8a3.9 3.9 0 0 1 1.5-.2c.4 0 .8 0 1.1.2a2.6 2.6 0 0 1 1.6 1.3l.5 1.3.1 1.8Zm-1.3 1.8v-2.1l-.1-1.3a4 4 0 0 0-.3-.9c0-.3-.2-.5-.4-.6a1.4 1.4 0 0 0-.5-.4 2 2 0 0 0-.7-.1 2 2 0 0 0-.9.2l-.6.5-.4 1-.1 1.6v3.3l.3 1 .4.6.6.4.7.1c.3 0 .6 0 .9-.2.2 0 .4-.3.6-.6l.4-1v-1.5Zm9.7-1.9v1.6c0 1 0 1.7-.2 2.3-.1.6-.4 1-.7 1.4-.3.4-.6.6-1 .8-.4.2-.9.2-1.4.2l-1.1-.1a2.7 2.7 0 0 1-1-.5 3 3 0 0 1-.7-.9l-.4-1.3a9.6 9.6 0 0 1-.2-1.8v-1.7c0-.8.1-1.6.3-2.2.1-.6.4-1 .6-1.4l1-.8a3.9 3.9 0 0 1 1.5-.2c.4 0 .8 0 1.1.2a2.6 2.6 0 0 1 1.6 1.3l.5 1.3.1 1.8Zm-1.3 1.9v-2.1a8 8 0 0 0-.1-1.3 4 4 0 0 0-.3-.9c0-.3-.2-.5-.4-.6a1.4 1.4 0 0 0-.5-.4 2 2 0 0 0-.7-.1 2 2 0 0 0-.9.2l-.6.5-.4 1-.1 1.6v3.3l.3 1 .4.6.6.4.7.1c.3 0 .6 0 .9-.2.2 0 .4-.3.6-.6l.4-1v-1.5Zm4.4 3.2h.1c.8 0 1.5-.1 2-.4a2.7 2.7 0 0 0 1-.8c.3-.4.5-.8.6-1.3l.2-1.4V395l-.2-1.3a2.8 2.8 0 0 0-.5-.9 2 2 0 0 0-.6-.6 1.8 1.8 0 0 0-2.2.5l-.4.8a3.6 3.6 0 0 0 .3 2.7l.6.6a2 2 0 0 0 1.7 0 2.4 2.4 0 0 0 1.2-1.2c.2-.2.2-.5.2-.8h.7l-.3 1.2a3.7 3.7 0 0 1-1.6 1.8c-.4.3-.8.3-1.3.3a2.8 2.8 0 0 1-2.3-1 3.8 3.8 0 0 1-.5-1.2 4.8 4.8 0 0 1 0-2.7c.2-.5.4-.9.7-1.2a3 3 0 0 1 1-.8c.4-.2.9-.3 1.4-.3a3 3 0 0 1 1.6.4 3 3 0 0 1 1 1c.3.4.5.8.6 1.3l.2 1.6v.5l-.1 1.7c0 .6-.2 1-.4 1.6a4 4 0 0 1-2.3 2.4c-.6.2-1.4.3-2.3.3v-1.1Z"/><path stroke="silver" stroke-linecap="round" stroke-linejoin="round" d="m245.6 396.2 5.7 6 5.9-5.8"/><path fill="#1F1F1F" d="M348 425.3H0v56.1h348v-56Z"/><path fill="#5B5B5B" d="M348 425.3H0v1h348v-1Z"/><path stroke="silver" stroke-linecap="round" stroke-linejoin="round" d="M29.4 444.7a6.4 6.4 0 0 1 6.4 6.7H29v-6.7h.4Z" clip-rule="evenodd"/><path stroke="silver" stroke-linecap="round" stroke-linejoin="round" d="M25.9 446.6h.3v6.8c0 .5.3.9.8 1h6.8a7.7 7.7 0 1 1-8-7.8Z" clip-rule="evenodd"/><path fill="#E4E4E4" d="m50.8 459.2 4-11h1v1.8h-.4l-3.2 9.2h-1.4Zm1.8-3.1.4-1.2h5l.4 1.2h-5.8Zm6.1 3-3.2-9v-1.8h.6l4 10.9h-1.4Zm5.5.2a3.1 3.1 0 0 1-3-2 5.4 5.4 0 0 1-.5-2.2c0-.9.2-1.6.5-2.2a3.1 3.1 0 0 1 3-2 3 3 0 0 1 1.9.6c.3.3.5.5.6.8h.1v-4.5h1.3v11.4h-1.3v-1.3h-.1l-.6.7a2.8 2.8 0 0 1-2 .7Zm.3-1.2c.5 0 .9 0 1.2-.3.4-.3.7-.6.9-1 .2-.5.2-1 .2-1.7 0-.6 0-1.2-.2-1.6a2.2 2.2 0 0 0-2.1-1.5 2.2 2.2 0 0 0-2.1 1.5 4 4 0 0 0-.3 1.6c0 .6 0 1.2.3 1.6.2.5.4.8.8 1 .3.3.8.4 1.3.4Zm8.6 1.2c-.5 0-1 0-1.5-.3a2.8 2.8 0 0 1-1.2-.7 2.2 2.2 0 0 1-.5-1.2h1.4c.1.3.3.6.6.8.4.2.8.3 1.3.3l1-.1c.3-.1.5-.3.6-.5a1 1 0 0 0 .3-.6.9.9 0 0 0-.4-.8c-.2-.2-.5-.3-1-.4l-1.3-.3-1.3-.5a2 2 0 0 1-.7-.7 2 2 0 0 1-.2-1 2 2 0 0 1 .4-1.3c.2-.3.6-.6 1-.8.5-.2 1-.3 1.6-.3.6 0 1 0 1.5.3.5.1.8.4 1 .7s.5.7.6 1.2H75a1.3 1.3 0 0 0-.6-.8c-.3-.2-.7-.3-1.2-.3l-.9.1-.6.5a1 1 0 0 0-.2.6c0 .2 0 .3.2.5l.4.4.8.2 1.3.3a3.8 3.8 0 0 1 1.7.8c.3.4.5.9.5 1.4 0 .5-.1 1-.4 1.3a3 3 0 0 1-1.2.9c-.5.2-1 .3-1.6.3Zm13.2 0a2.8 2.8 0 0 1-2-.7 2.8 2.8 0 0 1-.6-.7h-.1v1.3h-1.3v-11.4h1.3v4.5h.1l.6-.8a3 3 0 0 1 2-.6 3.1 3.1 0 0 1 3 2c.2.6.4 1.3.4 2.2 0 .8-.2 1.6-.5 2.2a3.4 3.4 0 0 1-1.2 1.5 3 3 0 0 1-1.8.5Zm-.3-1.2c.5 0 .9 0 1.2-.3.4-.3.7-.6.8-1 .2-.5.3-1 .3-1.7a4 4 0 0 0-.3-1.6c-.1-.5-.4-.8-.8-1a2.2 2.2 0 0 0-1.2-.5c-.5 0-1 .2-1.3.4-.4.3-.7.6-.8 1-.2.5-.3 1-.3 1.7 0 .6 0 1.2.3 1.6.2.5.4.8.8 1 .3.3.8.4 1.3.4Zm5.5 1v-11.3h1.3v11.4h-1.3Zm6.9.2c-.8 0-1.5-.2-2-.5-.6-.3-1-.8-1.3-1.5a5.1 5.1 0 0 1-.5-2.2c0-.9.2-1.6.5-2.3.3-.6.7-1 1.3-1.4.5-.3 1.2-.5 2-.5.7 0 1.4.2 2 .5.5.3 1 .8 1.3 1.4.3.7.4 1.4.4 2.3 0 .9-.1 1.6-.4 2.2a3.4 3.4 0 0 1-3.3 2Zm0-1.2c.5 0 1 0 1.3-.3l.8-1c.2-.5.3-1 .3-1.7s-.1-1.2-.3-1.7a2.2 2.2 0 0 0-.8-1c-.4-.2-.8-.4-1.3-.4-.6 0-1 .2-1.3.4-.4.2-.7.6-.9 1a4 4 0 0 0-.2 1.7c0 .6 0 1.2.2 1.6.2.5.5.8.9 1 .3.3.8.4 1.3.4Zm8.8 1.2a3.5 3.5 0 0 1-3.3-2 5.1 5.1 0 0 1-.5-2.2c0-.9.2-1.6.5-2.2a3.5 3.5 0 0 1 3.3-2c.6 0 1.2.1 1.7.3a3 3 0 0 1 1.7 2.3h-1.3a2 2 0 0 0-.7-1 2.2 2.2 0 0 0-1.4-.5 2.2 2.2 0 0 0-2.1 1.5c-.2.4-.3 1-.3 1.6 0 .6 0 1.1.3 1.6a2.2 2.2 0 0 0 2 1.4c.6 0 1 0 1.4-.3.4-.2.6-.6.8-1h1.3c-.1.5-.3 1-.6 1.3a2.9 2.9 0 0 1-1.1.9 4 4 0 0 1-1.7.3Zm5-.1v-11.4h1.4v11.4h-1.3Zm5.2 0-3.2-4 1-.9 3.9 4.9h-1.7Zm-4-3v-1.6h.3l3.5-3.6h1.6l-3.8 3.8-.4.3-1.2 1.1Zm9.9 3.1a3.4 3.4 0 0 1-3.3-2 5.2 5.2 0 0 1-.5-2.2c0-.8.2-1.6.5-2.2.3-.6.7-1.1 1.2-1.5.6-.3 1.2-.5 2-.5a3.3 3.3 0 0 1 3.1 2c.3.5.4 1.3.4 2v.6h-6.5v-1h5.9l-.7.9v-.5c0-.7 0-1.2-.3-1.6a2 2 0 0 0-2-1.3 2.2 2.2 0 0 0-2 1.3l-.2 1.6v.5c0 .6 0 1 .3 1.5a2.2 2.2 0 0 0 2 1.2l1-.1.7-.4.4-.5h1.3c0 .3-.2.6-.4.8-.1.3-.4.5-.7.7a3.7 3.7 0 0 1-2.3.7Zm8.2 0a3.1 3.1 0 0 1-3-2 5.4 5.4 0 0 1-.4-2.2c0-.9.1-1.6.4-2.2a3.1 3.1 0 0 1 3-2 3 3 0 0 1 2 .6l.5.8h.1v-4.5h1.4v11.4H134v-1.3l-.7.7a2.8 2.8 0 0 1-.9.5l-1 .2Zm.3-1.2c.5 0 .9 0 1.2-.3.4-.3.7-.6.9-1 .2-.5.3-1 .3-1.7 0-.6-.1-1.2-.3-1.6a2.2 2.2 0 0 0-2.1-1.5 2.2 2.2 0 0 0-2.1 1.5c-.2.4-.3 1-.3 1.6 0 .6.1 1.2.3 1.6a2.2 2.2 0 0 0 2 1.4Zm147.4 1v-9h-.1l-2.7 2v-1.8l2.8-2h2v10.9h-2Zm8.7.3c-.9 0-1.6-.2-2.3-.7a4.4 4.4 0 0 1-1.4-2 8.4 8.4 0 0 1-.5-3c0-1.2.2-2.2.5-3a4.4 4.4 0 0 1 1.4-2c.7-.5 1.4-.7 2.3-.7.8 0 1.6.2 2.2.7.6.4 1.1 1.1 1.4 2 .4.8.5 1.8.5 3s-.1 2.2-.5 3c-.3 1-.8 1.6-1.4 2-.6.5-1.4.7-2.2.7Zm0-1.5c.4 0 .8-.2 1.2-.5.3-.4.5-.8.7-1.5a8.2 8.2 0 0 0 .3-2.2c0-.9-.1-1.6-.3-2.2a3.2 3.2 0 0 0-.7-1.4 1.6 1.6 0 0 0-1.2-.5c-.5 0-.9.1-1.2.5-.3.3-.6.8-.8 1.4a8.3 8.3 0 0 0-.2 2.2c0 .9 0 1.6.2 2.2.2.7.5 1.1.8 1.5.3.3.7.5 1.2.5Zm6.1 1.3 4.8-9.2v-.1h-5.6v-1.6h7.5v1.6l-4.6 9.3h-2Zm16.2.2c-.8 0-1.5-.1-2.1-.4a3.5 3.5 0 0 1-1.4-1.1 3.3 3.3 0 0 1-.6-1.7h1.8c0 .3.2.6.4.8.2.3.4.5.8.6a3 3 0 0 0 1 .2c.5 0 .9 0 1.2-.2l.7-.6c.2-.3.3-.6.3-1 0-.5-.2-1-.6-1.3-.4-.3-1-.4-1.7-.4h-1.3v-1.5h1.3c.4 0 .8 0 1-.2.4-.1.6-.3.8-.5l.2-.9c0-.3 0-.6-.2-.9a1.4 1.4 0 0 0-.6-.5l-1-.2c-.4 0-.8 0-1 .2a1.7 1.7 0 0 0-1 1.4h-1.9a3.3 3.3 0 0 1 .6-1.7c.3-.4.8-.8 1.3-1 .6-.3 1.2-.4 2-.4.7 0 1.4 0 2 .3.5.3.9.6 1.2 1 .3.5.5 1 .5 1.5a2.3 2.3 0 0 1-1.2 2c-.3.3-.7.5-1.1.6.8 0 1.4.4 2 .8.4.5.6 1 .6 1.8a3 3 0 0 1-.5 1.7c-.3.5-.8.9-1.4 1.2a5 5 0 0 1-2.1.4Zm9.7-11.4c.6 0 1.1.1 1.6.3.6.2 1 .6 1.4 1 .4.5.8 1 1 1.8.2.7.3 1.5.3 2.5 0 1.2-.1 2.3-.5 3.1a4 4 0 0 1-3.9 2.7c-.6 0-1.2 0-1.8-.3a3.5 3.5 0 0 1-2-2.5v-.1h1.9l.4.7a2 2 0 0 0 1.5.6c.6 0 1-.1 1.4-.5.4-.3.7-.8.9-1.3a7 7 0 0 0 .3-2.2v-.2l-.3-1.8a2.3 2.3 0 0 0-1.1-2 2 2 0 0 0-1.1-.2 2.2 2.2 0 0 0-2.2 2.1c0 .5.1.9.3 1.2a2 2 0 0 0 1.9 1c.4 0 .8 0 1-.2a2 2 0 0 0 1.2-1.9h.4v2h-.3a2.6 2.6 0 0 1-.5.8c-.3.3-.6.5-1 .6-.4.2-.8.2-1.3.2-.7 0-1.3-.1-1.8-.4a3.4 3.4 0 0 1-1.3-1.3 3.7 3.7 0 0 1-.5-1.9 3.6 3.6 0 0 1 2-3.3c.6-.3 1.3-.5 2-.5Zm8.8 11.2v-9h-.1l-2.7 1.9v-1.8l2.8-2h2v10.9h-2Z"/></svg>