<svg xmlns="http://www.w3.org/2000/svg" width="352" height="456" fill="none"><path fill="#fff" d="M352 0H4v456h348V0Z"/><g filter="url(#a)"><path fill="#E9E9E9" d="M160.5 204a24.5 24.5 0 1 0 0-49 24.5 24.5 0 0 0 0 49Z"/></g><path fill="#67B279" fill-rule="evenodd" d="M38.8 23.2c-3.6 0-8 .8-11.6 2.7 0 4 0 13.8 11.6 20.5 11.6-6.7 11.6-16.6 11.6-20.5-3.6-1.9-8-2.7-11.6-2.7Z" clip-rule="evenodd"/><path fill="#5B9F6B" fill-rule="evenodd" d="M38.8 23.2c-3.6 0-8 .8-11.6 2.7 0 4 0 13.8 11.6 20.5V23.2Z" clip-rule="evenodd"/><path fill="#fff" fill-rule="evenodd" d="m38.7 38.1 6.7-8.9c-.5-.4-.9-.1-1.1 0L38.6 35l-2-2.5c-1-1.1-2.5-.2-2.8 0l4.9 5.6Z" clip-rule="evenodd"/><path fill="#3D3D3D" fill-rule="evenodd" d="M82.5 40c-1.6 0-3-.4-4-1.4-1-1-1.5-2.3-1.5-3.8a5.2 5.2 0 0 1 5.4-5.3 6 6 0 0 1 4 1.4l-1.3 1.7-1.3-.8-1.4-.2c-.8 0-1.5.3-2.1 1-.6.6-.9 1.3-.9 2.2 0 1 .3 1.7.9 2.3a3 3 0 0 0 2.2 1c.9 0 1.6-.3 2.2-.7V36h-2.3v-2h4.5v4.5a6.7 6.7 0 0 1-4.4 1.6ZM58.7 29.7 54.3 40h2.3l1-2.3h4.3l1 2.3h2.3l-4.4-10.3h-2.1Zm1 2.7 1.4 3.3h-2.8l1.4-3.3Zm6.7 7.6V29.7h4c1.6 0 3 .5 4 1.4 1 1 1.5 2.2 1.5 3.7s-.5 2.7-1.5 3.7-2.4 1.4-4 1.4h-4Zm4-2h-1.7v-6.2h1.7a3 3 0 0 1 3.1 3 3 3 0 0 1-.8 2.3 3 3 0 0 1-2.3.9Zm19.7 1c.8.8 1.9 1.2 3.3 1.2s2.5-.4 3.3-1.2c.8-.8 1.2-2 1.2-3.4v-5.8h-2.3v5.8c0 .8-.2 1.5-.6 1.9-.4.4-.9.6-1.6.6a2 2 0 0 1-1.7-.6c-.3-.5-.5-1.1-.5-2v-5.7h-2.3v5.8c0 1.5.4 2.6 1.2 3.4Zm8.4 1 4.4-10.3h2.1l4.4 10.3h-2.3l-1-2.3h-4.3l-1 2.3h-2.3Zm5.4-7.6 1.4 3.3h-2.7l1.3-3.3Zm6.7-2.6h4.7c1.3 0 2.3.3 3 1 .6.6 1 1.4 1 2.4 0 1.6-.8 2.6-2.3 3.2l2.5 3.6H117l-2.3-3.3H113V40h-2.3V29.7Zm4.6 5h-2.3v-3h2.2c.6 0 1 .1 1.4.4.3.2.4.6.4 1 0 .5-.1.9-.4 1.2-.3.2-.8.4-1.3.4Zm5.7-5h4c1.6 0 3 .5 4 1.4 1 1 1.5 2.2 1.5 3.7s-.5 2.7-1.6 3.7c-1 1-2.3 1.4-4 1.4h-4V29.7Zm4 8.2H123v-6.2h1.8c1 0 1.7.3 2.2.9.6.6.9 1.3.9 2.2a3 3 0 0 1-.9 2.2 3 3 0 0 1-2.2.9Z" clip-rule="evenodd"/><path stroke="#67B279" stroke-linejoin="round" d="M313.3 41.5h.3l1.3.6c.3 0 .5.3.6.5l.6 1.9h2.2l.6-1.9c.1-.2.3-.4.6-.5l1.3-.5h.7l1.8.8 1.5-1.5-.8-1.8a.8.8 0 0 1 0-.7l.5-1.3c0-.3.3-.5.6-.6l1.8-.6v-2.2L325 33a.8.8 0 0 1-.5-.6l-.5-1.3a.8.8 0 0 1 0-.7l.8-1.8-1.5-1.5-1.8.8h-.7l-1.3-.5a.8.8 0 0 1-.6-.6 20 20 0 0 0-.6-1.8h-2.2l-.6 1.8c-.1.3-.3.5-.6.6l-1.3.5h-.7l-1.8-.8-1.5 1.5.8 1.8v.7l-.5 1.3c0 .3-.3.5-.5.6l-1.9.6v2.2l1.8.6c.3.1.5.3.6.6l.5 1.2c.2.3.2.6 0 .8l-.8 1.8 1.5 1.5 1.8-.8.4-.1Z" clip-rule="evenodd"/><path stroke="#67B279" stroke-linejoin="round" d="M317.2 32.2a2.6 2.6 0 1 0 0 5.2 2.6 2.6 0 0 0 0-5.2Z" clip-rule="evenodd"/><path fill="#E9653A" fill-rule="evenodd" d="M138.4 179.3c0-8 6.5-14.5 14.5-14.5h48.3c8 0 14.3 6.3 14.5 14.2v.3c0 8-6.5 14.5-14.5 14.5h-48.3c-8 0-14.4-6.3-14.5-14.2v-.3Z" clip-rule="evenodd"/><path fill="#fff" d="M160.6 203.5a24.2 24.2 0 1 0 0-48.3 24.2 24.2 0 0 0 0 48.3Z"/><path stroke="#E9653A" stroke-width="2" d="M168.3 179.3a7.7 7.7 0 1 0-15.4 0 7.7 7.7 0 0 0 15.4 0Z"/><path fill="#3D3D3D" d="M64.7 248.6v-2.7h4c1 0 1.8-.2 2.3-.7.6-.5.9-1.2.9-2.2 0-1-.3-1.6-.9-2.1-.5-.5-1.3-.8-2.2-.8h-4.1v-2.7h4.9c1.1 0 2.1.2 3 .7a5 5 0 0 1 2 2c.5.8.7 1.8.7 2.9 0 1.1-.2 2.1-.7 3a5 5 0 0 1-2 2c-.9.4-1.9.6-3 .6h-4.9Zm-1.7 5.2v-16.4h3.4v16.3H63Zm14.3 0v-12.3h3.3v2.1h.1c.2-.7.5-1.3 1-1.7.5-.4 1.1-.6 1.9-.6a4.2 4.2 0 0 1 1 .1v3l-.6-.2a5 5 0 0 0-.7 0 3 3 0 0 0-1.4.3c-.4.2-.7.5-1 1-.2.3-.3.8-.3 1.4v6.8h-3.3Zm14 .2c-1.2 0-2.3-.3-3.2-.8-.9-.5-1.6-1.2-2-2.1-.6-1-.8-2.1-.8-3.4 0-1.4.2-2.5.7-3.5.5-1 1.2-1.6 2.1-2.1 1-.6 2-.8 3.2-.8 1.2 0 2.3.2 3.2.8 1 .5 1.6 1.2 2.1 2.1.5 1 .8 2.1.8 3.4 0 1.4-.3 2.5-.8 3.5s-1.2 1.6-2 2.1c-1 .5-2 .8-3.3.8Zm0-2.6c.6 0 1-.1 1.4-.4.4-.3.8-.8 1-1.3.2-.6.3-1.3.3-2 0-.9-.1-1.5-.3-2-.3-.7-.6-1-1-1.4-.4-.3-.8-.4-1.4-.4-.5 0-1 .1-1.4.4-.4.3-.7.8-1 1.3-.1.6-.3 1.2-.3 2s.2 1.5.4 2c.2.6.5 1 .9 1.4.4.3.9.4 1.4.4Zm12.9 2.6c-1.4 0-2.4-.3-3-.9-.7-.5-1-1.5-1-2.7V244h-1.8v-2.4h1.8v-3h3.3v3h2.3v2.4h-2.3v6c0 .5.1.9.4 1.1.3.2.6.4 1.1.4a6 6 0 0 0 .8 0v2.3l-.7.1h-.9Zm9 0c-1.2 0-2.3-.3-3.2-.8a5.2 5.2 0 0 1-2-2.2c-.5-1-.8-2-.8-3.3 0-1.3.3-2.5.7-3.4.5-1 1.2-1.7 2-2.2a6 6 0 0 1 3.2-.8 6 6 0 0 1 3 .8 5 5 0 0 1 2 2.1c.6 1 .8 2 .8 3.2v1h-10v-2h8.4l-1.5 1.9V247c0-.7-.1-1.3-.4-1.8-.2-.5-.5-.8-.9-1-.4-.3-.8-.4-1.3-.4-.6 0-1 0-1.4.3-.4.3-.7.7-1 1.2-.2.4-.3 1-.3 1.7v1.3c0 .7.1 1.3.3 1.8.3.4.6.8 1 1 .4.3 1 .4 1.5.4s.9 0 1.2-.2l.8-.5c.2-.2.4-.4.4-.7h3.1c-.1.5-.3 1-.6 1.4-.2.5-.6.9-1 1.3l-1.7.9c-.6.2-1.4.3-2.3.3Zm13.2 0c-1.3 0-2.3-.3-3.2-.8a5.2 5.2 0 0 1-2.1-2.2c-.5-1-.7-2-.7-3.4 0-1.3.2-2.4.7-3.4.5-1 1.2-1.6 2-2.1 1-.6 2-.8 3.3-.8 1 0 2 .2 2.8.6a4.7 4.7 0 0 1 2.7 4v.1h-3.1c-.1-.7-.4-1.1-.8-1.5-.4-.4-1-.6-1.6-.6-.5 0-1 .1-1.4.4-.4.3-.7.8-1 1.3-.2.6-.3 1.2-.3 2s.1 1.5.4 2c.2.7.5 1 .9 1.4.4.3.9.4 1.4.4.7 0 1.2-.2 1.6-.5.4-.4.7-.9.8-1.5l3.1-.1a4.8 4.8 0 0 1-2.7 4c-.8.5-1.7.7-2.8.7Zm12.3 0c-1.4 0-2.4-.3-3-.9-.7-.5-1-1.5-1-2.7V244h-1.8v-2.4h1.7v-3h3.4v3h2.3v2.4H138v6c0 .5.1.9.4 1.1.2.2.6.4 1.1.4a5.9 5.9 0 0 0 .8 0v2.3l-.7.1h-1Zm3.7-.3v-12.1h3.3v12.2h-3.3ZM144 240a1.7 1.7 0 1 1 0-3.5c.5 0 1 .2 1.3.5.4.4.5.8.5 1.3s-.1.9-.5 1.2c-.3.4-.8.5-1.3.5Zm9.7 14.1c-1.2 0-2.3-.3-3.2-.8-.9-.5-1.6-1.2-2-2.1-.6-1-.8-2.1-.8-3.4 0-1.4.2-2.5.7-3.5.5-1 1.2-1.6 2.1-2.1 1-.6 2-.8 3.2-.8 1.3 0 2.3.2 3.2.8 1 .5 1.6 1.2 2.1 2.1.5 1 .8 2.1.8 3.4 0 1.4-.3 2.5-.8 3.5s-1.2 1.6-2 2.1c-1 .5-2 .8-3.3.8Zm0-2.6c.6 0 1-.1 1.5-.4.4-.3.7-.8.9-1.3.2-.6.3-1.3.3-2 0-.9-.1-1.5-.3-2-.2-.7-.5-1-1-1.4-.3-.3-.8-.4-1.4-.4-.5 0-1 .1-1.4.4-.4.3-.7.8-1 1.3l-.2 2c0 .8 0 1.5.3 2 .2.6.5 1 1 1.4.3.3.8.4 1.3.4Zm8 2.3v-12.1h3.3v2h.1a3.7 3.7 0 0 1 3.7-2.3c1.3 0 2.4.4 3.1 1.2.7.8 1.1 2 1.1 3.4v7.8h-3.3v-7.1c0-.8-.2-1.5-.6-1.9-.3-.4-.9-.7-1.6-.7-.5 0-1 .1-1.3.4-.4.2-.7.5-.9 1-.2.3-.3.8-.3 1.3v7h-3.3Zm18.7 0v-12.1h3.3v12.2h-3.3ZM182 240a1.7 1.7 0 1 1 0-3.5c.5 0 1 .2 1.3.5.3.4.5.8.5 1.3s-.2.9-.5 1.2c-.4.4-.8.5-1.3.5Zm9.1 14.1c-1 0-2-.2-2.8-.5-.8-.3-1.4-.8-1.9-1.3a4 4 0 0 1-.8-2v-.1h3.3c0 .5.3 1 .7 1.2a3.2 3.2 0 0 0 2.6.2c.3-.1.6-.2.7-.4.2-.2.3-.5.3-.7a1 1 0 0 0-.4-.8 3 3 0 0 0-1.3-.5l-2-.5c-.8-.1-1.5-.4-2-.7-.5-.3-1-.7-1.2-1.2-.2-.4-.4-1-.4-1.6 0-.8.2-1.4.7-2 .4-.6 1-1 1.7-1.3a7 7 0 0 1 2.7-.5c1.1 0 2 .2 2.8.5.7.3 1.3.8 1.7 1.4.4.6.6 1.2.7 1.9v.1H193c0-.5-.3-.9-.6-1.1-.4-.3-.9-.5-1.5-.5-.4 0-.7 0-1 .2-.2.1-.5.2-.6.4-.2.2-.2.5-.2.7l.1.6.5.4 1 .4 2 .4c1.4.3 2.3.7 2.8 1.2.6.5.9 1.2.9 2.1 0 .8-.3 1.5-.7 2.1-.5.6-1 1-1.9 1.4-.8.3-1.7.5-2.8.5Zm16.7 0c-1 0-2-.3-2.7-.8a4.8 4.8 0 0 1-1.7-2.1c-.4-1-.6-2.1-.6-3.4 0-1.4.2-2.5.6-3.5.4-1 1-1.6 1.7-2.1.8-.5 1.7-.8 2.7-.8.6 0 1 .1 1.6.3.5.2.9.4 1.2.8.4.3.7.8 1 1.2v-6.4h3.3v16.6h-3.3v-2a3.7 3.7 0 0 1-2.2 2l-1.6.2Zm1-2.8c.6 0 1.1-.1 1.5-.4.4-.3.8-.7 1-1.2a5 5 0 0 0 .3-2c0-.7-.1-1.3-.3-1.9-.3-.5-.6-1-1-1.2-.4-.3-.9-.4-1.4-.4-.6 0-1 .1-1.4.4-.5.3-.8.7-1 1.2a5 5 0 0 0-.3 2c0 .7 0 1.3.3 1.9.2.5.5 1 1 1.2.4.3.8.4 1.4.4Zm8.7 2.6v-12.3h3.3v12.3h-3.3Zm1.6-13.9a1.8 1.8 0 0 1-1.2-3c.3-.3.7-.5 1.2-.5s1 .2 1.3.5c.3.4.5.8.5 1.3s-.2.9-.5 1.2c-.4.4-.8.5-1.3.5Zm9.1 14.1c-1 0-2-.2-2.8-.5-.8-.3-1.4-.8-1.9-1.3a4 4 0 0 1-.8-2v-.1h3.3c.1.5.3 1 .7 1.2.4.2.9.4 1.6.4.4 0 .7 0 1-.2.3-.1.6-.2.7-.4.2-.2.3-.5.3-.7a1 1 0 0 0-.4-.8 3 3 0 0 0-1.3-.5l-2-.5c-.8-.1-1.5-.4-2-.7-.5-.3-1-.7-1.2-1.2-.2-.4-.4-1-.4-1.6 0-.8.2-1.4.7-2 .4-.6 1-1 1.7-1.3a7 7 0 0 1 2.7-.5c1.1 0 2 .2 2.8.5.7.3 1.3.8 1.7 1.4.4.6.6 1.2.7 1.9v.1h-3c-.2-.5-.4-.9-.7-1.1-.4-.3-.8-.5-1.5-.5-.3 0-.7 0-1 .2-.2.1-.5.2-.6.4-.2.2-.2.5-.2.7l.1.6.5.4 1 .4 2 .4c1.4.3 2.3.7 2.8 1.2.6.5.9 1.2.9 2.1 0 .8-.2 1.5-.7 2.1-.5.6-1 1-1.9 1.4-.8.3-1.7.5-2.8.5Zm10.9 0c-.8 0-1.5-.2-2.2-.5-.6-.3-1-.8-1.4-1.3-.3-.6-.5-1.2-.5-2 0-.7.2-1.3.5-1.9.4-.5 1-.9 1.7-1.2.7-.3 1.5-.5 2.5-.6l4.7-.2v2l-4.2.3c-.6 0-1.1.2-1.4.4-.4.3-.5.6-.5 1 0 .5.1.9.5 1.1.3.3.8.4 1.3.4s1 0 1.4-.3c.4-.2.7-.4.9-.8.2-.3.3-.7.3-1.1v-3.7c0-.6-.1-1-.5-1.3-.3-.3-.8-.5-1.5-.5-.6 0-1 .2-1.5.4-.3.2-.5.6-.6 1h-3c0-.8.2-1.5.7-2 .4-.6 1-1 1.8-1.4a7 7 0 0 1 2.8-.5c1 0 2 .2 2.7.5a3.7 3.7 0 0 1 2.4 3.6v8.4h-3.3V252l-1 1-1.1.7c-.5.2-1 .2-1.5.2Zm16.6 0c-.6 0-1.2-.1-1.7-.3a4 4 0 0 1-1.2-.8 4 4 0 0 1-.9-1.2v2h-3.4v-16.5h3.3v6.4h.1c.2-.4.5-.9.9-1.2a4.3 4.3 0 0 1 2.9-1c1 0 1.9.2 2.6.7.7.5 1.3 1.2 1.7 2.1.4 1 .6 2.1.6 3.4 0 1.4-.2 2.5-.6 3.5-.4.9-1 1.6-1.7 2.1s-1.6.8-2.6.8Zm-1.2-2.8c.6 0 1-.1 1.5-.4.4-.3.7-.7 1-1.2a5 5 0 0 0 .2-2 5 5 0 0 0-.3-1.9c-.2-.5-.5-1-1-1.2-.3-.3-.8-.4-1.4-.4-.5 0-1 .1-1.4.4-.4.3-.7.7-1 1.2-.2.6-.3 1.2-.3 2 0 .7.1 1.3.4 1.9.2.5.5 1 .9 1.2.4.3.9.4 1.4.4Zm8.2 2.6v-16.6h3.3v16.6h-3.3Zm11.3.2c-1.2 0-2.3-.3-3.2-.8a5.2 5.2 0 0 1-2-2.2c-.6-1-.8-2-.8-3.3 0-1.3.2-2.5.7-3.4.5-1 1.2-1.7 2-2.2a6 6 0 0 1 3.2-.8 6 6 0 0 1 3 .8c1 .5 1.6 1.2 2 2.1.5 1 .8 2 .8 3.2v1h-10v-2h8.4l-1.6 1.9V247c0-.7 0-1.3-.3-1.8-.2-.5-.5-.8-1-1-.3-.3-.8-.4-1.3-.4s-1 0-1.4.3c-.4.3-.7.7-.9 1.2-.2.4-.3 1-.3 1.7v1.3c0 .7 0 1.3.3 1.8.2.4.5.8 1 1 .4.3.9.4 1.5.4.4 0 .8 0 1.1-.2.4-.1.7-.3.9-.5l.4-.7h3c0 .5-.2 1-.5 1.4l-1 1.3-1.7.9c-.7.2-1.4.3-2.3.3Zm12.1 0c-1 0-1.9-.3-2.6-.8a4.8 4.8 0 0 1-1.8-2.1c-.4-1-.6-2.1-.6-3.4 0-1.4.2-2.5.6-3.5.4-1 1-1.6 1.8-2.1.7-.5 1.6-.8 2.6-.8.6 0 1.1.1 1.6.3a3.7 3.7 0 0 1 2.1 2h.1v-6.4h3.3v16.6H290v-2a3.7 3.7 0 0 1-2.2 2l-1.6.2Zm1.1-2.8c.6 0 1-.1 1.4-.4.5-.3.8-.7 1-1.2a5 5 0 0 0 .3-2c0-.7 0-1.3-.3-1.9-.2-.5-.6-1-1-1.2-.4-.3-.8-.4-1.4-.4-.5 0-1 .1-1.4.4-.4.3-.7.7-1 1.2a5 5 0 0 0-.3 2c0 .7.1 1.3.3 1.9.3.5.6 1 1 1.2.4.3.9.4 1.4.4ZM107.3 399.1l-.1-.7-.4-.5a3 3 0 0 0-.8-.4l-1.2-.5-1.4-.5a5 5 0 0 1-1.1-.6c-.3-.3-.6-.6-.7-.9-.2-.3-.3-.7-.3-1.1a2.6 2.6 0 0 1 1-2c.3-.3.7-.5 1.2-.7l1.4-.2c.8 0 1.5.2 2 .5.6.3 1 .7 1.3 1.2.3.4.5 1 .5 1.5h-1.4c0-.4-.1-.7-.3-1-.1-.4-.4-.6-.7-.8-.4-.2-.8-.2-1.4-.2-.5 0-.9 0-1.2.2-.3.1-.6.3-.7.6a1.7 1.7 0 0 0-.1 1.5c0 .2.2.3.4.5l.8.4 1.1.4 1.6.6c.4.2.8.4 1 .7.4.3.6.5.7.9l.2 1c0 .5 0 1-.2 1.3l-.8.9-1.2.6a5.4 5.4 0 0 1-3 0l-1.2-.7c-.4-.2-.7-.6-1-1-.2-.4-.3-.9-.3-1.4h1.4c0 .4 0 .7.2 1l.6.6.8.4a4 4 0 0 0 2.3-.1c.3-.1.6-.3.7-.6.2-.2.3-.5.3-.9ZM111.8 393.9v7.9h-1.4v-8h1.4Zm-1.5-2.1c0-.2 0-.4.2-.6l.6-.2c.3 0 .5 0 .6.2l.2.6c0 .2 0 .4-.2.5-.1.2-.3.2-.6.2s-.5 0-.6-.2a.8.8 0 0 1-.2-.5ZM115.3 395.6v6.2h-1.4v-8h1.3v1.8Zm-.3 2h-.6c0-.6 0-1.1.2-1.6l.7-1.2a3 3 0 0 1 2.3-1l1 .1c.4.1.6.3.9.5l.5.9.1 1.3v5.2h-1.3v-5.2c0-.4 0-.7-.2-1-.1-.3-.3-.4-.5-.5-.3-.2-.6-.2-.9-.2a2 2 0 0 0-1.6.8 3 3 0 0 0-.6 1.8ZM125.3 400.8c.4 0 .7 0 1-.2.2 0 .4-.3.6-.5.2-.2.3-.5.3-.8h1.3c0 .5-.2.9-.5 1.3a3.2 3.2 0 0 1-2.7 1.3c-.5 0-1 0-1.5-.3a3 3 0 0 1-1.1-.8l-.7-1.3-.2-1.5v-.3l.3-1.5c.1-.5.3-1 .6-1.3a3 3 0 0 1 1-.8c.5-.3 1-.4 1.6-.4.7 0 1.2.2 1.7.4a3 3 0 0 1 1.5 2.5h-1.3a2 2 0 0 0-.3-.9c-.1-.2-.3-.5-.6-.6-.3-.2-.6-.3-1-.3a2 2 0 0 0-1 .3l-.7.7a3 3 0 0 0-.3.9l-.1 1v1.3l.4 1 .7.6c.3.2.6.2 1 .2ZM133.3 402c-.6 0-1-.1-1.5-.3a3.4 3.4 0 0 1-1.9-2c-.2-.5-.2-1-.2-1.6v-.3c0-.6 0-1.2.2-1.7l.8-1.3a3.3 3.3 0 0 1 2.4-1c.6 0 1 0 1.5.2l1 .8.6 1.3.1 1.5v.6h-5.8v-1h4.5v-.2c0-.3 0-.7-.2-1a1.7 1.7 0 0 0-1.7-1.1 1.8 1.8 0 0 0-1.5.7l-.4 1-.2 1.2v.3c0 .4 0 .8.2 1 0 .4.2.7.4 1l.8.5c.3.2.6.2 1 .2s.8 0 1.2-.3c.3-.1.6-.4.8-.7l.8.6-.6.8-1 .5c-.4.2-.8.2-1.3.2ZM146 391v10.8h-1.4v-9l-2.8 1v-1.2l3.9-1.5h.2ZM153.8 393.9h1.3v8.8c0 .5 0 1-.2 1.3-.2.3-.4.6-.7.7-.3.2-.7.3-1.1.3a2.8 2.8 0 0 1-.9-.1v-1.1h1.2l.3-.4v-9.5Zm-.2-2.1.2-.6.6-.2c.3 0 .5 0 .6.2.2.2.2.4.2.6 0 .2 0 .4-.2.5-.1.2-.3.2-.6.2-.2 0-.4 0-.6-.2a.8.8 0 0 1-.2-.5ZM162.1 400v-6.1h1.4v7.9h-1.3V400Zm.3-1.7h.5l-.1 1.5-.5 1.1-1 .8c-.4.2-.9.2-1.4.2l-1-.1a2.1 2.1 0 0 1-1.4-1.5c-.2-.3-.2-.8-.2-1.3v-5.1h1.3v5.1l.1.9.4.5c.1.2.3.3.4.3l.6.1c.5 0 1-.1 1.3-.3.4-.3.6-.6.8-1l.2-1.2ZM166.9 395.6v6.2h-1.4v-8h1.3v1.8Zm-.3 2h-.6c0-.6.1-1.1.3-1.6l.6-1.2a3 3 0 0 1 2.3-1l1 .1c.4.1.6.3.9.5.2.2.4.5.5.9l.1 1.3v5.2h-1.3v-5.2c0-.4 0-.7-.2-1-.1-.3-.3-.4-.5-.5-.3-.2-.5-.2-.9-.2a2 2 0 0 0-1.6.8 3 3 0 0 0-.6 1.8ZM177 402c-.5 0-1-.1-1.4-.3a3.4 3.4 0 0 1-1.9-2c-.2-.5-.3-1-.3-1.6v-.3c0-.6.1-1.2.3-1.7l.8-1.3a3.3 3.3 0 0 1 3.9-.8l1 .8.6 1.3.1 1.5v.6h-5.8v-1h4.5v-.2l-.2-1a1.7 1.7 0 0 0-1.7-1.1 1.8 1.8 0 0 0-1.5.7l-.4 1-.2 1.2v.3c0 .4 0 .8.2 1 0 .4.2.7.4 1l.8.5c.2.2.6.2 1 .2s.8 0 1.2-.3c.3-.1.6-.4.8-.7l.8.6-.6.8-1 .5c-.4.2-.8.2-1.3.2ZM192.2 400.7v1.1h-7v-1l3.6-3.9 1-1.2c.2-.3.4-.6.4-.9l.2-.8c0-.3 0-.7-.2-1-.2-.2-.4-.5-.7-.6-.2-.2-.6-.3-1-.3s-.8.1-1.1.3c-.4.2-.6.4-.7.8-.2.3-.3.7-.3 1h-1.3c0-.5.1-1 .4-1.6.2-.5.6-.9 1.1-1.2.6-.3 1.2-.4 2-.4.6 0 1.2.1 1.7.4.4.2.8.5 1 1 .3.4.4.9.4 1.4l-.1 1a7.4 7.4 0 0 1-1 1.9l-.8.9-2.9 3h5.3ZM200.3 395.6v1.6a9 9 0 0 1-.2 2.3l-.7 1.4c-.3.4-.6.6-1 .8-.4.2-.9.2-1.4.2a4 4 0 0 1-1.1-.1l-1-.5a3 3 0 0 1-.7-.9l-.4-1.3-.2-1.9v-1.6c0-.8.1-1.6.3-2.2.1-.6.4-1 .6-1.4.3-.4.7-.6 1-.8l1.5-.2c.4 0 .8 0 1.1.2a2.6 2.6 0 0 1 1.6 1.3l.5 1.3.1 1.8Zm-1.3 1.9v-2.1a7.9 7.9 0 0 0-.3-2.2l-.5-.6-.5-.4a2 2 0 0 0-.7 0h-.9l-.6.7a3 3 0 0 0-.4 1l-.1 1.5v3.3l.3 1 .4.6.6.4.7.1c.3 0 .6 0 .9-.2.2 0 .4-.3.6-.5l.4-1v-1.6ZM208.7 395.6v1.6a9 9 0 0 1-.2 2.3l-.7 1.4c-.3.4-.6.6-1 .8-.4.2-.9.2-1.4.2a4 4 0 0 1-1.1-.1l-1-.5a3 3 0 0 1-.7-.9l-.4-1.3-.2-1.9v-1.6c0-.8.1-1.6.3-2.2.1-.6.3-1 .6-1.4.3-.4.7-.6 1-.8l1.5-.2c.4 0 .8 0 1.1.2a2.6 2.6 0 0 1 1.6 1.3l.5 1.3.1 1.8Zm-1.3 1.9v-2.1l-.1-1.3a4 4 0 0 0-.2-.9l-.5-.6-.5-.4a2 2 0 0 0-.7 0 2 2 0 0 0-.9 0l-.6.7a3 3 0 0 0-.4 1l-.1 1.5v3.3l.3 1 .4.6.6.4.7.1c.3 0 .6 0 .9-.2.2 0 .4-.3.6-.5l.4-1v-1.6ZM211.8 400.7h.2c.7 0 1.4-.1 1.8-.4.5-.2 1-.5 1.2-.8l.5-1.3.2-1.4V395l-.2-1.3-.5-1a2 2 0 0 0-.6-.5l-.8-.2a1.8 1.8 0 0 0-1.4.7l-.4.8a3.6 3.6 0 0 0 .3 2.7l.6.6.9.2c.3 0 .6 0 .8-.2a2.4 2.4 0 0 0 1.2-1.2l.2-.8h.7l-.3 1.2a3.7 3.7 0 0 1-1.6 1.9l-1.2.2c-.6 0-1 0-1.4-.3-.4-.2-.7-.4-1-.8l-.5-1.1a4.8 4.8 0 0 1 0-2.7c.2-.5.4-.9.7-1.2.2-.4.6-.6 1-.8.4-.2.9-.3 1.4-.3a3 3 0 0 1 1.6.4c.4.2.7.5 1 1 .3.4.5.8.6 1.3l.2 1.6v.5l-.1 1.7c0 .6-.2 1-.4 1.6-.2.5-.5 1-.9 1.4a4 4 0 0 1-1.4 1c-.6.2-1.4.3-2.2.3h-.2v-1.1Z"/><path stroke="#7F7F7F" stroke-linecap="round" stroke-linejoin="round" d="m249.6 396.2 5.7 6 5.9-5.8"/><path fill="#fff" d="M352 425.3H4v56.1h348v-56Z"/><path fill="#D2D2D2" d="M352 425.3H4v1h348v-1Z"/><g clip-path="url(#b)" filter="url(#c)"><path fill="#fff" d="M-59.7 320h465.6v92.8H-59.7z"/></g><defs><filter id="a" width="57" height="57" x="132" y="151" color-interpolation-filters="sRGB" filterUnits="userSpaceOnUse"><feFlood flood-opacity="0" result="BackgroundImageFix"/><feBlend in="SourceGraphic" in2="BackgroundImageFix" result="shape"/><feGaussianBlur result="effect1_foregroundBlur_11227_7955" stdDeviation="2"/></filter><filter id="c" width="565.6" height="192.8" x="-109.7" y="270" color-interpolation-filters="sRGB" filterUnits="userSpaceOnUse"><feFlood flood-opacity="0" result="BackgroundImageFix"/><feBlend in="SourceGraphic" in2="BackgroundImageFix" result="shape"/><feGaussianBlur result="effect1_foregroundBlur_11227_7955" stdDeviation="25"/></filter><clipPath id="b"><path fill="#fff" d="M0 287h347v84H0z"/></clipPath></defs></svg>