<svg xmlns="http://www.w3.org/2000/svg" width="401" height="390" fill="none"><path fill="#1F1F1F" stroke="#5B5B5B" stroke-width=".5" d="M396.4.5c2.4 0 4.3 1.9 4.3 4.2v380.4c0 2.3-2 4.2-4.3 4.2H4.5a4.2 4.2 0 0 1-4.2-4.2V4.7C.3 2.4 2.2.5 4.5.5h392Z"/><path fill="#FF5F57" d="M10.5 7.7a3 3 0 1 0-6 0 3 3 0 0 0 6 0Z"/><path stroke="#000" stroke-opacity=".2" stroke-width=".2" d="M10.4 7.7a2.9 2.9 0 1 0-5.7 0 2.9 2.9 0 0 0 5.7 0Z"/><path fill="#FEBC2E" d="M20.5 7.7a3 3 0 1 0-6 0 3 3 0 0 0 6 0Z"/><path stroke="#000" stroke-opacity=".2" stroke-width=".2" d="M20.4 7.7a2.9 2.9 0 1 0-5.7 0 2.9 2.9 0 0 0 5.7 0Z"/><path fill="#28C840" d="M30.5 7.7a3 3 0 1 0-6 0 3 3 0 0 0 6 0Z"/><path stroke="#000" stroke-opacity=".2" stroke-width=".2" d="M30.4 7.7a2.9 2.9 0 1 0-5.7 0 2.9 2.9 0 0 0 5.7 0Z"/><path fill="#E4E4E4" d="m179.2 10.2 1.6-4.6h.7v.9h-.2l-1.3 3.7h-.8ZM180 9l.2-.6h2.1l.2.6H180Zm2.5 1.2-1.2-3.7v-.9h.4l1.7 4.6h-.9Zm2.6 0c-.3 0-.5 0-.7-.2-.2-.1-.4-.3-.5-.6l-.2-1c0-.3 0-.6.2-.9 0-.3.3-.5.5-.6.2-.2.4-.2.7-.2a1.3 1.3 0 0 1 .8.3l.3.3v-2h.8v4.9h-.8v-.5a1 1 0 0 1-.6.5h-.5Zm.3-.6.4-.1c.2-.1.3-.3.3-.4l.1-.6v-.6l-.4-.4a.8.8 0 0 0-.4-.2c-.2 0-.4 0-.5.2l-.3.4V9l.3.4h.5Zm4.7.7c-.4 0-.7 0-1-.2-.2 0-.4-.2-.6-.4l-.4-.8-.2-1c0-.5.1-1 .3-1.3a2 2 0 0 1 1.8-1l1 .1.7.5c.2.2.3.5.3.8h-.8a1 1 0 0 0-.4-.6l-.8-.2a1.2 1.2 0 0 0-1.1.8l-.2.9.1.7.3.5a1.2 1.2 0 0 0 1 .5l.6-.1.4-.4.2-.6h-1.1v-.7h1.9v.6c0 .3 0 .5-.2.8a1.7 1.7 0 0 1-1 1l-.8.1Zm4 0c-.3 0-.5 0-.7-.2a1 1 0 0 1-.4-.4L193 9V6.7h.8v2c0 .4 0 .6.2.7 0 .1.2.2.5.2h.3l.3-.2.1-.3V6.8h.8v3.4h-.7v-.5h-.1a1 1 0 0 1-.6.5h-.4Zm3.8 0c-.3 0-.5 0-.6-.2a1 1 0 0 1-.4-.3 1 1 0 0 1-.2-.6 1 1 0 0 1 .6-.9l.7-.1 1.3-.1v.5l-1.2.1-.5.1-.1.4c0 .1 0 .2.2.3l.4.2.4-.1.3-.3.1-.4V8l-.1-.5-.5-.1h-.5l-.2.4h-.8c0-.3.1-.4.3-.6l.5-.3.7-.1.8.1.4.4.2.6v2.4h-.8v-.5l-.3.3a1 1 0 0 1-.3.2h-.4Zm2.7-.1V6.7h.8v.6l.4-.5.6-.1a1.2 1.2 0 0 1 .3 0v.7a1.5 1.5 0 0 0-.4 0 1 1 0 0 0-.4 0l-.4.4v2.4h-.9Zm4 0c-.4 0-.6 0-.8-.2-.3-.1-.4-.3-.5-.6-.2-.2-.2-.6-.2-1 0-.3 0-.6.2-.9 0-.3.2-.5.5-.6.2-.2.4-.2.7-.2a1.3 1.3 0 0 1 .8.3l.3.3v-2h.8v4.9h-.8v-.5a1 1 0 0 1-.6.5h-.5Zm.2-.6.4-.1c.2-.1.3-.3.3-.4l.1-.6v-.6l-.4-.4a.8.8 0 0 0-.4-.2c-.2 0-.4 0-.5.2l-.3.4-.1.6.1.6.3.4h.5Zm4.4.6V5.6h1l1.3 3.5 1.5-3.5h1v4.6h-.8V6.9h-.4l.8-1.2-1.8 4.5h-.5l-1.8-4.5.9 1.2h-.4v3.3h-.8Zm5.8 0V6.7h.7v3.5h-.7Zm.4-4c-.2 0-.3 0-.4-.2l-.1-.3.1-.3.4-.2s.2 0 .3.2l.1.3-.1.3-.3.2Zm1.3 4V6.7h.8v.6l.4-.5.7-.1c.4 0 .6 0 .9.3.2.2.3.5.3 1v2.2h-.8v-2c0-.3 0-.5-.2-.7l-.5-.2-.4.1-.3.3v2.5h-.9Zm4 0V6.7h.8v3.5h-.8Zm.4-4c-.1 0-.2 0-.3-.2l-.2-.3c0-.1 0-.3.2-.3l.3-.2c.1 0 .2 0 .3.2l.2.3c0 .1 0 .2-.2.3l-.3.2Z"/><path fill="#3D3D3D" d="M120.5 14.7H.5v370.4a4 4 0 0 0 4 4h116V14.7Z"/><path fill="#67B279" fill-rule="evenodd" d="M15 31.7a9 9 0 0 0-4.9 1.5 9 9 0 0 0 5 8.5 9 9 0 0 0 4.9-8.5 9 9 0 0 0-5-1.5Z" clip-rule="evenodd"/><path fill="#1F1F1F" fill-rule="evenodd" d="M16.6 35.3v.6l-1.2 1.3c-.4.5-.6.5-1 0l-.8-.8a.5.5 0 0 1 0-.6c.2-.2.4-.2.6 0l.7.8 1.1-1.3c.2-.2.4-.1.6 0Z" clip-rule="evenodd"/><path fill="#E4E4E4" d="M57.7 39.8c-.5 0-1 0-1.3-.3-.4-.3-.6-.6-.8-1-.2-.4-.3-.9-.3-1.4 0-.5.1-1 .3-1.4.2-.4.5-.7.9-1a2.5 2.5 0 0 1 1.9-.2 1.8 1.8 0 0 1 .9.5v-2.3h1.4v7h-1.4v-.5l-.4.4-.6.2h-.6Zm.3-1.2a1.2 1.2 0 0 0 1.2-.8v-1.4a1 1 0 0 0-.5-.5l-.7-.2c-.3 0-.6 0-.7.2-.2.1-.4.3-.4.6a2.2 2.2 0 0 0-.1 1.2l.2.5.4.3h.6ZM52 39.8v-5.3h1.2v.6l.5-.4.5-.2a2.5 2.5 0 0 1 .8 0h.2v1.3h-.3a2 2 0 0 0-.9.1l-.5.5-.2.9v2.5H52ZM48.1 39.8h-.7l-.6-.3a1.4 1.4 0 0 1-.5-1.2c0-.4 0-.7.2-1l.6-.4.8-.2 1-.1h.8l-.1-.5c0-.2-.2-.3-.3-.4a1 1 0 0 0-.6 0h-.4l-.3.1-.2.3h-1.4c0-.3.1-.6.3-.8l.5-.5.8-.3h.8c.7 0 1.3.1 1.7.6.3.4.5 1 .5 1.8v2.9h-1.2V39l-.6.5-.6.2H48Zm.3-1 .7-.2.4-.4.2-.5v-.2h-1a4 4 0 0 0-.4 0l-.3.1-.3.2v.7l.3.2h.4ZM43.2 39.8c-.8 0-1.4-.2-1.8-.5-.4-.4-.6-1-.6-1.8v-3h1.4V38l.4.4.6.2c.2 0 .4 0 .6-.2l.3-.4v-3.5h1.4v3c0 .8-.2 1.4-.6 1.8-.4.4-1 .5-1.7.5ZM37.3 42.2c-.4 0-.8 0-1.2-.2a2 2 0 0 1-.8-.6c-.3-.3-.4-.6-.5-1h1.4l.2.2.4.3h.5c.3 0 .5 0 .7-.2l.4-.5v-1.1c0 .2-.2.4-.4.5a2.4 2.4 0 0 1-1.1.3c-.6 0-1-.2-1.4-.4-.3-.3-.6-.6-.7-1-.2-.4-.3-.8-.3-1.3s.1-1 .3-1.4c.2-.4.5-.8.8-1 .4-.3.8-.4 1.4-.4.3 0 .6 0 .8.2.3 0 .5.2.7.4l.1-.5H40v4.6c0 .6 0 1.2-.3 1.6a2 2 0 0 1-.8 1.1c-.4.3-.9.4-1.5.4Zm-.1-3.6c.3 0 .5 0 .7-.2.2-.2.4-.3.4-.5l.2-.8c0-.3 0-.5-.2-.7a1.2 1.2 0 0 0-1-.7 1.2 1.2 0 0 0-1.3.8 2.2 2.2 0 0 0 0 1.4l.5.5.7.2ZM30.9 39.8c-.6 0-1 0-1.4-.3-.3-.3-.6-.6-.7-1-.2-.4-.3-.9-.3-1.4 0-.5 0-1 .3-1.4.2-.4.4-.7.8-1a2.5 2.5 0 0 1 2-.2 1.8 1.8 0 0 1 .8.5v-2.3h1.4v7h-1.3v-.5l-.5.4-.5.2h-.6Zm.2-1.2a1.2 1.2 0 0 0 1.2-.8l.1-.7-.1-.7a1 1 0 0 0-.4-.5l-.8-.2c-.3 0-.5 0-.7.2-.2.1-.3.3-.4.6a2.2 2.2 0 0 0 0 1.2c0 .2 0 .3.2.5l.4.3h.5ZM24.9 39.8h-.7l-.6-.3a1.4 1.4 0 0 1-.6-1.2c0-.4.1-.7.3-1l.5-.4.9-.2 1-.1h.8c0-.2 0-.4-.2-.5 0-.2-.1-.3-.3-.4a1 1 0 0 0-.5 0h-.4l-.3.1-.2.3h-1.4c0-.3.1-.6.3-.8l.5-.5.7-.3h.8c.8 0 1.4.1 1.7.6.4.4.6 1 .6 1.8v2.9h-1.3V39c-.1.2-.3.4-.6.5l-.6.2H25Zm.3-1 .6-.2.5-.4.2-.5v-.2H25l-.4.1-.2.2v.7l.3.2h.4Z"/><path fill="silver" d="M80.3 39.7v-5.3h1.2v5.3h-1.2Zm.6-5.9c-.2 0-.4 0-.5-.2a.7.7 0 0 1-.2-.5c0-.3 0-.4.2-.6l.5-.2c.2 0 .4 0 .6.2l.2.6c0 .2 0 .4-.2.5l-.6.2ZM74.3 39.7v-5.3h1.2v.7l.5-.4.6-.3h.6c.5 0 .9 0 1.2.3.3.2.5.5.6.9l.2 1.2v2.9H78V36.4l-.2-.5-.4-.3a1 1 0 0 0-.5-.2c-.3 0-.6.1-.8.3-.2.1-.3.3-.4.6l-.2.9v2.5h-1.2ZM72 39.7v-5.3H73v5.3H72Zm.5-5.9c-.2 0-.4 0-.5-.2a.7.7 0 0 1-.2-.5c0-.3 0-.4.2-.6l.5-.2c.2 0 .4 0 .6.2l.2.6c0 .2 0 .4-.2.5l-.6.2ZM63.5 39.7v-5.3h1.1l.1.6a1.5 1.5 0 0 1 1-.6h.4l.9.1.5.6a1.8 1.8 0 0 1 1-.7h.6c.4 0 .7 0 1 .2l.5.7.2 1v3.4h-1.2v-3.4c0-.2 0-.3-.2-.4 0-.2 0-.3-.2-.3a.7.7 0 0 0-.4-.2.8.8 0 0 0-.8.5l-.2.5v3.3h-1.2v-3a2.8 2.8 0 0 0-.2-.8c0-.2-.1-.3-.2-.3a.7.7 0 0 0-.5-.2c-.2 0-.5.1-.6.3l-.3.5v3.5h-1.3Z"/><path stroke="#67B279" stroke-linecap="round" stroke-linejoin="round" stroke-width=".7" d="M14.5 73.2a4.5 4.5 0 1 0 0-9 4.5 4.5 0 0 0 0 9Z"/><path stroke="#67B279" stroke-linecap="round" stroke-width=".7" d="m13 70.2 3-3M14 68.2l1 1M14.8 68l.5.4M13.8 69l.5.4"/><path fill="#E4E4E4" d="M28.8 71.3c-.4 0-.7 0-1-.2l-.6-.5c-.2-.2-.2-.4-.3-.7h.6l.2.5.5.2a1.9 1.9 0 0 0 1.2 0c.2 0 .3-.2.4-.3l.2-.4c0-.2-.1-.4-.3-.5-.1-.2-.4-.3-.7-.4h-.5l-1.1-.6c-.2-.2-.4-.5-.4-.9 0-.2.1-.5.3-.7.1-.2.3-.4.6-.5l.9-.2c.3 0 .6 0 .9.2l.6.5.2.6v.1H30l-.2-.4a1 1 0 0 0-.4-.3l-.5-.1-.6.1a1 1 0 0 0-.4.3l-.1.4c0 .2 0 .4.2.5l.7.3.6.1.8.3c.2.2.4.3.4.5l.2.6c0 .3 0 .6-.2.8l-.7.5-1 .2Zm3.7 0-.6-.2a1 1 0 0 1-.5-.4 1 1 0 0 1-.1-.5l.1-.6.5-.4.7-.1 1.3-.1v.5h-1.2l-.6.2c-.2.1-.2.2-.2.4s0 .4.2.5l.5.1h.5l.4-.4.1-.5v-1.1c0-.3 0-.4-.2-.6l-.6-.1a1 1 0 0 0-.5 0l-.3.4h-.6l.2-.5c.2-.2.3-.3.5-.3l.7-.2c.3 0 .6 0 .8.2.2 0 .4.2.5.4l.1.7v2.5h-.6v-.6a1.2 1.2 0 0 1-.7.6h-.4Zm3-.1V68h-.6v-.5h.6v-.4l.1-.6.4-.4.6-.1a2 2 0 0 1 .4 0v.5H36.7l-.5.1-.1.5v.4h.8v.5h-.8v3.2h-.6Zm3.1 0H38a1 1 0 0 1-.4-.5 1 1 0 0 1-.2-.5c0-.3 0-.5.2-.6 0-.2.2-.3.4-.4l.7-.1 1.4-.1v.5h-1.3l-.6.2-.2.4c0 .2 0 .4.2.5l.5.1h.6l.4-.4v-1.6l-.1-.6-.6-.1a1 1 0 0 0-.6 0l-.3.4h-.6c0-.2.2-.4.3-.5.1-.2.3-.3.5-.3l.7-.2c.3 0 .5 0 .7.2.3 0 .4.2.5.4l.2.7v2.5h-.6v-.6a1.2 1.2 0 0 1-.7.6h-.5Zm2.8 0v-3.7h.6v.5l.4-.4.6-.2H43.3v.6a1.7 1.7 0 0 0-.3 0 1 1 0 0 0-.5.1c-.2 0-.3.2-.4.3l-.1.5v2.3h-.6Zm2.6 0v-3.7h.6v3.7H44Zm.3-4.4-.3-.1-.1-.3.1-.3.3-.1h.3l.1.4-.1.3h-.3Zm3.2 5.6v-4.9h.6v.6a1.2 1.2 0 0 1 .8-.6h.4c.3 0 .6 0 .8.2.3.1.5.3.6.6l.2 1c0 .4 0 .8-.2 1-.1.3-.3.6-.6.7-.2.2-.5.2-.8.2H49c-.2 0-.3-.2-.4-.3-.2 0-.2-.2-.3-.3v1.8h-.7Zm1.7-1.7.6-.1c.1-.2.3-.3.3-.5l.2-.8c0-.3 0-.5-.2-.7a1 1 0 0 0-.3-.5 1 1 0 0 0-.6-.1 1 1 0 0 0-.6.1 1 1 0 0 0-.4.5v1.5l.4.5.6.1Zm2.5.5v-3.7h.6v.5l.4-.4.7-.2H53.7v.6a1.7 1.7 0 0 0-.4 0 1 1 0 0 0-.5.1l-.3.3-.2.5v2.3h-.6Zm4 0c-.3 0-.6 0-.9-.2l-.6-.6-.2-1 .2-1c.2-.4.4-.6.6-.7.3-.2.6-.3 1-.3.3 0 .6.1.8.3.3.1.5.3.6.6.2.3.2.6.2 1s0 .8-.2 1a1.5 1.5 0 0 1-1.5 1Zm0-.5.6-.1.4-.5.1-.8-.1-.7a1 1 0 0 0-.4-.5 1 1 0 0 0-.6-.1 1 1 0 0 0-.6.1 1 1 0 0 0-.3.5l-.2.7c0 .3 0 .6.2.8 0 .2.2.3.3.5l.6.1Zm3.9.5c-.4 0-.7 0-.8-.2-.2-.2-.3-.4-.3-.8V68H58v-.5h.6v-1h.6v1h.8v.5h-.8v2c0 .3 0 .4.2.5l.4.2a2 2 0 0 0 .2 0v.5a3.4 3.4 0 0 1-.3 0Zm2.6 0c-.3 0-.6 0-.9-.2-.3-.1-.4-.4-.6-.6l-.2-1c0-.4 0-.8.2-1 .2-.3.3-.6.6-.7.2-.2.5-.3.9-.3.3 0 .6.1.8.3.3.1.5.3.6.6l.2 1v.2h-3V69h2.7l-.3.5v-.3c0-.3 0-.5-.2-.7a1 1 0 0 0-.8-.5 1 1 0 0 0-.6.1 1 1 0 0 0-.3.4l-.2.7v.3c0 .2 0 .5.2.6a1 1 0 0 0 1 .6h.4l.3-.2.1-.2h.6l-.1.3a1.4 1.4 0 0 1-.8.6 2 2 0 0 1-.6 0Zm4 0c-.4 0-.7 0-1-.2l-.6-.7-.2-1 .2-1a1.6 1.6 0 0 1 1.5-.9c.3 0 .6 0 .8.2a1.4 1.4 0 0 1 .8 1H67c0-.2-.2-.3-.3-.5a1 1 0 0 0-.7-.1 1 1 0 0 0-1 .6v1.5l.5.4c.1.2.3.2.5.2l.6-.1.4-.5h.6l-.3.6-.5.4-.8.1Zm3.6 0c-.3 0-.6 0-.8-.2-.2-.2-.2-.4-.2-.8V68h-.6v-.5h.6v-1h.6v1h.8v.5h-.8v2l.1.5.4.2a2 2 0 0 0 .3 0v.5a3.3 3.3 0 0 1-.4 0Zm1.2 0v-3.7h.6v3.7H71Zm.3-4.4-.3-.1-.1-.3.1-.3.3-.1h.3l.1.4-.1.3h-.3Zm2.9 4.4c-.4 0-.7 0-1-.2l-.5-.6c-.2-.3-.2-.7-.2-1 0-.5 0-.8.2-1 .1-.4.3-.6.6-.7.2-.2.5-.3.9-.3l.9.3.6.6.2 1-.2 1a1.5 1.5 0 0 1-1.5 1Zm0-.5.6-.1.3-.5.2-.8c0-.3 0-.5-.2-.7a1 1 0 0 0-.3-.5 1 1 0 0 0-.6-.1 1 1 0 0 0-.6.1 1 1 0 0 0-.4.5l-.1.7.1.8c0 .2.2.3.4.5l.6.1Zm2.5.5v-3.7h.6v.6l.5-.5.6-.2c.4 0 .8.2 1 .4.2.2.3.6.3 1v2.4h-.6v-2.3c0-.3 0-.5-.2-.7-.1-.2-.3-.2-.6-.2a1 1 0 0 0-.5 0l-.4.4V71.2h-.7Z"/><path stroke="#67B279" stroke-linecap="round" stroke-linejoin="round" stroke-width=".7" d="M12.9 83.7h2.8l-1 4H17l-3.2 6 .6-4.5H12l.9-5.5Z" clip-rule="evenodd"/><path fill="#E4E4E4" d="m26.8 91.2 1.8-5h.5v.8h-.2l-1.5 4.2h-.6Zm.8-1.4.2-.6H30l.2.6h-2.6Zm2.8 1.4L28.9 87v-.8h.3l1.8 5h-.6Zm2.5 0a1.4 1.4 0 0 1-1.4-.9l-.2-1 .2-1c.2-.3.3-.5.6-.6.2-.2.5-.3.8-.3a1.4 1.4 0 0 1 .9.3l.2.4v-2h.7v5H34v-.5a1.3 1.3 0 0 1-.7.6h-.5Zm.1-.5c.2 0 .4 0 .6-.2.2 0 .3-.2.4-.4v-1.5a1 1 0 0 0-.4-.5 1 1 0 0 0-.6-.1 1 1 0 0 0-.6.1 1 1 0 0 0-.3.5l-.2.7c0 .3 0 .6.2.8 0 .2.2.3.3.4.2.2.4.2.6.2Zm3.8.5-1.4-3.7h.6l1 3h.1l1-3h.6l-1.3 3.7h-.6Zm3.5 0h-.6a1 1 0 0 1-.4-.5 1 1 0 0 1-.2-.6c0-.2 0-.4.2-.5 0-.2.2-.3.4-.4l.7-.1 1.4-.1v.4l-1.3.1-.6.2-.2.4c0 .2 0 .4.2.5l.6.1.5-.1c.2 0 .3-.2.4-.3l.1-.5v-1.1c0-.3 0-.4-.2-.6l-.6-.1a1 1 0 0 0-.6 0l-.3.4h-.5c0-.2 0-.4.2-.5l.5-.4h1.5l.4.5.2.7v2.5h-.6v-.6a1.2 1.2 0 0 1-.7.6h-.5Zm2.8 0v-3.7h.6v.5l.5-.4.6-.2c.4 0 .8.1 1 .4.2.2.3.6.3 1v2.4h-.6v-2.3c0-.3 0-.5-.2-.7-.1-.2-.3-.2-.6-.2a1 1 0 0 0-.5 0l-.4.4-.1.6v2.2h-.6Zm5.5 0c-.3 0-.6 0-.9-.2l-.6-.7-.2-1 .2-1a1.6 1.6 0 0 1 1.5-.9c.3 0 .6 0 .8.2a1.4 1.4 0 0 1 .8 1h-.6c0-.2-.2-.3-.3-.5a1 1 0 0 0-.7-.1 1 1 0 0 0-1 .6V90l.5.4c.1.2.3.2.5.2l.6-.1.4-.5h.6l-.3.6-.5.4-.8.1Zm3.9 0c-.4 0-.7 0-1-.2l-.5-.6c-.2-.3-.2-.7-.2-1 0-.4 0-.8.2-1 .1-.3.3-.6.6-.7.2-.2.5-.3.8-.3.4 0 .6.1.9.3.2.1.4.3.5.6.2.3.2.6.2 1v.2h-3V89h2.7l-.3.5v-1a1 1 0 0 0-1-.5 1 1 0 0 0-.5.1 1 1 0 0 0-.4.4l-.1.7v.3l.1.6a1 1 0 0 0 1 .6h.4l.3-.2.2-.2h.6l-.2.3a1.4 1.4 0 0 1-.8.6 2 2 0 0 1-.5 0Zm3.7 0a1.4 1.4 0 0 1-1.3-.9l-.2-1c0-.4 0-.7.2-1 .1-.3.3-.5.5-.6.3-.2.5-.3.8-.3a1.4 1.4 0 0 1 1 .3l.2.4v-2h.6v5h-.6v-.5l-.3.3-.4.3h-.5Zm.2-.5c.2 0 .4 0 .6-.2l.3-.4.2-.8c0-.3 0-.5-.2-.7a1 1 0 0 0-.3-.5 1 1 0 0 0-.6-.1 1 1 0 0 0-.6.1 1 1 0 0 0-.4.5V90l.4.4c.2.2.4.2.6.2Zm6.4.5h-.4c-.2 0-.3-.2-.4-.3l-.3-.3v.6H61V86h.6v2c.2 0 .2-.2.4-.3l.4-.2h.4c.3 0 .6 0 .8.2.3.1.5.3.6.6l.2 1c0 .4 0 .8-.2 1-.1.3-.3.5-.6.7-.2.2-.5.2-.8.2Zm-.1-.5c.2 0 .4 0 .6-.2.1 0 .3-.2.3-.4l.2-.8c0-.3 0-.5-.2-.7a1 1 0 0 0-.3-.5 1 1 0 0 0-.6-.1 1 1 0 0 0-.6.1 1 1 0 0 0-.4.5V90l.4.4c.2.2.4.2.6.2Zm2.6.5V86h.6v5.2h-.6Zm3.1 0c-.3 0-.6 0-.9-.2l-.6-.6-.2-1 .2-1c.2-.4.4-.6.6-.7.3-.2.6-.3 1-.3.3 0 .6.1.8.3.3.1.5.3.6.6.2.3.2.6.2 1s0 .8-.2 1a1.5 1.5 0 0 1-1.5 1Zm0-.5c.3 0 .5 0 .6-.2.2 0 .3-.2.4-.4l.1-.8-.1-.7a1 1 0 0 0-.4-.5 1 1 0 0 0-.6-.1 1 1 0 0 0-.6.1 1 1 0 0 0-.3.5l-.2.7c0 .3 0 .6.2.8 0 .2.2.3.3.4.2.2.4.2.6.2Zm4 .5c-.3 0-.6 0-.8-.2-.3-.2-.5-.4-.6-.7l-.2-1c0-.4 0-.7.2-1a1.6 1.6 0 0 1 1.5-.9c.3 0 .5 0 .8.2a1.4 1.4 0 0 1 .7 1h-.6c0-.2-.1-.3-.3-.5a1 1 0 0 0-.6-.1 1 1 0 0 0-1 .6l-.1.7.1.8.4.4c.2.2.4.2.6.2l.6-.1c.1-.2.3-.3.3-.5h.6l-.3.6c0 .2-.2.3-.5.4l-.7.1Zm2.5 0V86h.5v5.2H75Zm2.3 0-1.5-1.8.5-.4 1.7 2.2h-.7Zm-1.8-1.4v-.7h.1l1.6-1.6h.7l-1.7 1.7-.2.1-.5.5Zm3.2 1.4v-3.7h.6v3.7h-.6Zm.3-4.4-.3-.1-.2-.3c0-.1 0-.2.2-.3l.3-.1h.2l.2.4s0 .2-.2.3H79Zm1.3 4.4v-3.7h.6v.5l.5-.4.6-.2c.4 0 .8.1 1 .4.2.2.3.6.3 1v2.4h-.6v-2.3c0-.3 0-.5-.2-.7-.1-.2-.4-.2-.6-.2a1 1 0 0 0-.6 0l-.3.4-.1.6v2.2h-.6Zm5.5 1.3c-.3 0-.5 0-.7-.2-.3 0-.4-.2-.6-.3a1 1 0 0 1-.2-.5h.6l.3.3.6.1c.4 0 .6 0 .8-.2.2-.1.3-.3.3-.6v-.8a1.3 1.3 0 0 1-1.2.7c-.3 0-.6 0-.9-.2l-.5-.7-.2-.9c0-.3 0-.6.2-1 .1-.2.3-.4.6-.5.2-.2.5-.3.8-.3l.5.1.3.2c.2.1.3.3.3.4v-.6h.7V91l-.2.7-.6.5-.9.2Zm0-2 .6-.2.4-.4V88.6a1 1 0 0 0-.4-.5 1 1 0 0 0-.6-.1 1 1 0 0 0-.6.1 1 1 0 0 0-.3.5l-.2.6c0 .3 0 .5.2.7l.3.4.6.2ZM10.8 118.3c-.4 0-.7-.1-1-.3-.3-.2-.5-.4-.7-.8l-.2-1.1c0-.5 0-.9.2-1.2a1.8 1.8 0 0 1 1.6-1l.9.1.6.5.3.7h-.6a1.2 1.2 0 0 0-.6-.8h-.5a1.2 1.2 0 0 0-1.2.7l-.1 1 .1.9.5.6.7.2.5-.1c.2 0 .3-.2.4-.3l.2-.4h.6a1.5 1.5 0 0 1-1 1.1 2 2 0 0 1-.7.2Zm3.6 0-.6-.2a.9.9 0 0 1-.4-.4l-.1-.6v-2h.5v1.8l.1.7.6.2h.4l.2-.3.2-.2V115h.6v3.2h-.6v-.5l-.2.3-.3.2h-.4Zm3.5 0-.6-.2a1 1 0 0 1-.5-.3.8.8 0 0 1-.2-.4h.6s0 .2.2.3l.5.1h.4l.2-.2.1-.3-.1-.3-.4-.2h-.5l-.5-.3a.8.8 0 0 1-.3-.2v-.9l.5-.3.6-.1h.6l.4.4.2.4h-.5l-.2-.3a.8.8 0 0 0-.5-.1h-.3l-.3.2v.4l.2.2h.3l.5.2c.3 0 .5.2.6.3.2.2.3.3.3.6l-.2.5-.5.3-.6.1Zm3.1-.1c-.3 0-.5 0-.7-.2l-.2-.7v-1.9h-.5v-.4h.5v-.8h.5v.8h.7v.4h-.7v1.8l.1.4.4.1a1.8 1.8 0 0 0 .2 0v.5a3.7 3.7 0 0 1-.3 0Zm2.4 0c-.3 0-.6 0-.8-.2l-.5-.5a2 2 0 0 1-.2-1c0-.3 0-.5.2-.8 0-.2.3-.4.5-.5.2-.2.5-.2.8-.2.3 0 .5 0 .7.2.2 0 .4.3.5.5l.2.9c0 .3 0 .6-.2.9 0 .2-.3.4-.5.5-.2.2-.4.2-.7.2Zm0-.4c.2 0 .3 0 .5-.2l.3-.4V116l-.3-.4a.9.9 0 0 0-.5 0h-.6l-.3.4V117.2l.3.4.6.2Zm2.2.4V115h.5v.5l.4-.4.5-.1h.4l.3.2.2.3.3-.3.3-.2h.9l.4.4.1.6v2.2h-.5v-2.5l-.3-.2h-.8l-.2.3-.1.3v2h-.5v-2.4l-.3-.2h-.7l-.3.3v2.4h-.6Z"/><path fill="#1F1F1F" d="M112.5 125.7H8.5a4 4 0 0 0-4 4v12a4 4 0 0 0 4 4h104a4 4 0 0 0 4-4v-12a4 4 0 0 0-4-4Z"/><path stroke="#67B279" stroke-linecap="round" stroke-width=".7" d="m10.7 139.2 2.5-6.5M12.7 139.2l2.5-6.5M17.8 133.2v2.5M18.9 133.8l-2.2 1.2M18.9 135l-2.2-1.2"/><path fill="#E4E4E4" d="M29.2 138.3c-.5 0-.8 0-1.1-.2-.3-.2-.6-.4-.7-.7-.2-.3-.3-.6-.3-1v-3.2h1V137l.4.4.7.1.6-.1.4-.4.1-.6v-3.2h.9v3.3l-.3 1-.7.6-1 .2Zm4.4 0-.8-.2c-.2 0-.4-.2-.5-.4a1 1 0 0 1-.2-.5h.8l.3.3.5.1h.3l.3-.2v-.5l-.5-.2-.6-.2a2 2 0 0 1-.6-.2 1 1 0 0 1-.3-.3 1 1 0 0 1-.1-.5l.1-.6.6-.4.7-.1h.8l.5.5c.2.1.2.3.3.5h-.8l-.3-.3a.8.8 0 0 0-.5-.1 1 1 0 0 0-.3 0l-.2.2-.1.2v.2l.2.2h.4l.6.2.8.4.2.6c0 .3 0 .5-.2.7l-.5.4-.9.1Zm4 0c-.4 0-.7-.1-1-.3l-.6-.7-.2-1 .2-1 .7-.7c.2-.2.5-.2.9-.2.3 0 .6 0 .9.2l.6.6.2 1v.3h-3v-.6h2.6l-.4.6v-.4l-.1-.6a.8.8 0 0 0-.8-.5c-.2 0-.3 0-.5.2l-.3.3-.1.6v1l.4.3.5.2.4-.1.3-.2.1-.1h.9l-.2.3c0 .2-.2.3-.3.4l-.5.2-.7.1Zm2.5-.1v-3.8h.8v.6l.4-.5.6-.1a1.3 1.3 0 0 1 .4 0v.8a1.6 1.6 0 0 0-.4 0 1 1 0 0 0-.5 0c-.2 0-.3.2-.4.3v2.7h-1Zm4.6 0v-3.8h.8v.6h.1c0-.2.2-.4.3-.5l.7-.1a1.3 1.3 0 0 1 .3 0v.8a1.6 1.6 0 0 0-.4 0 1 1 0 0 0-.5 0c-.2 0-.3.2-.3.3l-.2.5v2.2h-.8Zm4 0-.6-.1a1 1 0 0 1-.5-.5l-.1-.8v-2.4h.8v2.2c0 .3 0 .6.2.7l.6.2h.3a.7.7 0 0 0 .5-.5v-2.6h.9v3.8h-.9v-.6a1 1 0 0 1-.7.6h-.4Zm3 0V133h1v5.2h-1Zm3.5 0c-.4 0-.7 0-1-.2l-.6-.7-.2-1c0-.4 0-.7.2-1l.6-.7c.3-.2.6-.2 1-.2.3 0 .6 0 .9.2l.6.6.2 1v.3h-3v-.6h2.6l-.4.6v-.4c0-.2 0-.4-.2-.6 0-.2-.1-.3-.3-.4a.9.9 0 0 0-.4 0h-.5l-.3.4-.1.6v1l.4.3.5.2.4-.1.3-.2.1-.1h.8l-.1.3-.3.4-.5.2-.7.1Zm3.9 0-.9-.1c-.2 0-.4-.2-.5-.4a1 1 0 0 1-.2-.5h.8l.3.3.5.1h.3c.2 0 .2-.1.3-.2v-.5l-.5-.2-.6-.2a2 2 0 0 1-.6-.2 1 1 0 0 1-.3-.3 1 1 0 0 1-.1-.5c0-.2 0-.4.2-.6 0-.2.3-.3.5-.4l.8-.1h.7l.6.5.2.5h-.8l-.3-.3a.8.8 0 0 0-.4-.1 1 1 0 0 0-.4 0l-.2.2v.4l.1.2h.4l.6.2.8.4c.2.2.2.4.2.6 0 .3 0 .5-.2.7l-.5.4-.8.1ZM9.3 163.6v-.4h1.2c.3 0 .6-.1.7-.3.2-.1.3-.3.3-.6s-.1-.5-.3-.7a1 1 0 0 0-.7-.2H9.3v-.5h1.4c.2 0 .5 0 .7.2l.4.5c.2.2.2.4.2.7 0 .2 0 .5-.2.7 0 .2-.2.4-.4.5l-.7.1H9.3Zm-.2 1.6v-4.3h.5v4.3h-.5Zm3.7 0V162h.5v.5l.4-.4.5-.2h.2v.6a1.4 1.4 0 0 0-.2 0 1 1 0 0 0-.5 0l-.3.3v2.4h-.6Zm3.5 0c-.3 0-.6 0-.8-.2l-.5-.6a2 2 0 0 1-.1-.8l.1-.9.5-.6.8-.2.7.2.5.6.2.8v.2H15v-.4h2.3l-.3.4v-.8l-.4-.4a.8.8 0 0 0-.4-.1l-.5.1-.3.4-.1.6v.2l.1.6a.8.8 0 0 0 .8.5l.4-.1c.1 0 .2 0 .3-.2l.1-.1h.5l-.1.3-.3.2-.4.2-.5.1Zm2.4 0v-2.8H18v-.4h.6v-.9l.4-.3h.5a1.6 1.6 0 0 1 .3 0v.3h-.2c-.2 0-.3 0-.4.2l-.1.4v.3h.7v.4h-.7v2.8h-.5Zm3 0c-.2 0-.5 0-.7-.2-.2-.1-.4-.3-.5-.6a2 2 0 0 1-.2-.8c0-.3 0-.6.2-.9l.5-.6.7-.2.8.2.5.6.1.8v.2h-2.5v-.4h2.3l-.3.4v-.2l-.1-.6c0-.2-.2-.3-.3-.4a.8.8 0 0 0-.5-.1l-.4.1c-.1.1-.3.2-.3.4l-.1.6v.8a.9.9 0 0 0 .9.5l.4-.1s.2 0 .2-.2l.2-.1h.5s0 .2-.2.3l-.2.2-.4.2-.5.1Zm2.2 0V162h.5v.5l.4-.4.5-.2h.2v.6a1.4 1.4 0 0 0-.2 0 1 1 0 0 0-.5 0l-.3.3v2.4h-.6Zm3.5 0c-.3 0-.6 0-.8-.2-.2-.1-.4-.3-.5-.6a2 2 0 0 1-.1-.8l.1-.9.5-.6.8-.2.7.2.5.6.1.8v.2h-2.5v-.4h2.3l-.3.4v-.8l-.4-.4a.8.8 0 0 0-.4-.1l-.5.1-.3.4-.1.6v.8a.8.8 0 0 0 1 .5l.3-.1s.2 0 .2-.2l.2-.1h.5l-.1.3-.3.2-.4.2-.5.1Zm2.1 0V162h.5v.5h.1c0-.2.2-.3.3-.4l.6-.2c.4 0 .6.1.8.3.2.2.3.5.3 1v2h-.5v-2c0-.3 0-.5-.2-.6l-.5-.2-.5.1-.3.3v2.4h-.6Zm4.8 0c-.3 0-.5 0-.7-.2-.2-.1-.4-.3-.5-.6a2 2 0 0 1-.2-.8c0-.4 0-.7.2-.9 0-.2.2-.4.5-.6l.7-.2c.3 0 .5 0 .7.2a1.2 1.2 0 0 1 .7.8H35c0-.1 0-.2-.2-.3a.9.9 0 0 0-.6-.2.8.8 0 0 0-.8.5V164.2l.3.4.5.2c.2 0 .4 0 .6-.2l.2-.4h.6l-.3.5c0 .2-.2.3-.4.4l-.7.1Zm3.4 0c-.3 0-.6 0-.8-.2-.2-.1-.4-.3-.5-.6a2 2 0 0 1-.2-.8l.2-.9.5-.6.8-.2.7.2.5.6.1.8v.2h-2.5v-.4h2.3l-.3.4v-.8l-.4-.4a.8.8 0 0 0-.4-.1l-.5.1-.3.4-.1.6v.8a.8.8 0 0 0 .9.5l.4-.1s.2 0 .2-.2l.2-.1h.5s0 .2-.2.3l-.2.2-.4.2-.5.1Zm3.2 0-.6-.1a1 1 0 0 1-.4-.3.8.8 0 0 1-.2-.5h.5l.2.4h.9c.1 0 .2 0 .3-.2v-.5l-.5-.2h-.5l-.5-.3a.8.8 0 0 1-.3-.2v-.4l.1-.5c.1-.2.3-.3.4-.3l.6-.2.6.1.4.3.2.5h-.5c0-.1 0-.2-.2-.3a.8.8 0 0 0-.5-.1h-.3l-.2.2-.1.2v.2l.2.2h.3l.5.2c.3 0 .5.2.7.3l.2.5c0 .2 0 .4-.2.6l-.4.3-.7.1Z"/><path stroke="#67B279" stroke-linejoin="round" stroke-width=".7" d="M12.5 186.1h.2c.2.2.4.3.7.3l.2.3.4 1H15l.3-1 .3-.3c.2 0 .5-.1.7-.3h.4l.9.5.8-.8-.5-1v-.3l.3-.7.3-.3c.4 0 .7-.2 1-.3v-1.1l-1-.4a.4.4 0 0 1-.3-.2 4 4 0 0 0-.3-.7v-.4l.5-.9-.8-.8-1 .4h-.3a4 4 0 0 0-.7-.2.4.4 0 0 1-.3-.3c0-.4-.2-.8-.3-1H14l-.4 1-.2.3-.7.2c-.1.1-.3.1-.4 0a10 10 0 0 0-.9-.4l-.8.8.4 1v.3a4 4 0 0 0-.2.7l-.3.2-1 .4v1.1l1 .3.3.3.2.7c.1.1 0 .3 0 .4l-.4.9.8.8.9-.4.2-.1Z" clip-rule="evenodd"/><path stroke="#67B279" stroke-linejoin="round" stroke-width=".7" d="M14.5 181.3a1.4 1.4 0 1 0 0 2.7 1.4 1.4 0 0 0 0-2.7Z" clip-rule="evenodd"/><path fill="#E4E4E4" d="m28.8 185.3-1-.2-.6-.5c-.2-.2-.2-.4-.3-.7h.6l.2.4.5.3a1.9 1.9 0 0 0 1.2 0c.2 0 .3-.2.4-.3l.2-.5c0-.2-.1-.3-.3-.5l-.7-.3-.5-.1c-.5-.1-.9-.3-1.1-.5-.2-.3-.4-.5-.4-.9 0-.3.1-.5.3-.7.1-.2.3-.4.6-.5l.9-.2c.3 0 .6 0 .9.2.2 0 .4.2.6.4l.2.7H30l-.2-.4a1 1 0 0 0-.4-.2l-.5-.1h-.6a1 1 0 0 0-.4.3l-.1.5c0 .2 0 .3.2.5l.7.3.6.1c.3 0 .6.2.8.3l.4.4.2.7c0 .3 0 .5-.2.8l-.7.5-1 .2Zm4.2 0c-.4 0-.7-.2-1-.3l-.5-.7-.2-1c0-.4 0-.7.2-1 .1-.3.3-.5.6-.7l.8-.2c.4 0 .7 0 .9.2l.6.7.1 1v.2h-3v-.5h2.7l-.3.4V182.5a1 1 0 0 0-1-.6 1 1 0 0 0-.5.2 1 1 0 0 0-.4.4l-.1.7v.2l.1.7a1 1 0 0 0 1 .6h.4l.3-.3.2-.2h.6c0 .1 0 .3-.2.4a1.4 1.4 0 0 1-.7.5 2 2 0 0 1-.6.1Zm3.7-.1c-.4 0-.7-.1-.8-.3-.2-.1-.3-.4-.3-.7V182H35v-.5h.6v-1h.6v1h.8v.5h-.8v2c0 .3 0 .4.2.5l.4.1h.2v.5a2.5 2.5 0 0 1-.3 0Zm2.5 0c-.4 0-.7-.1-.9-.3l-.2-.7V182h-.6v-.5h.6v-1h.6v1h.8v.5h-.8v2l.1.5.4.1H39.5v.5a2.5 2.5 0 0 1-.3 0Zm1.1 0v-3.7h.6v3.6h-.6Zm.3-4.4s-.2 0-.2-.2c-.1 0-.2-.1-.2-.3 0 0 0-.2.2-.2l.2-.2c.2 0 .3 0 .3.2l.2.2c0 .2 0 .2-.2.3 0 .1-.1.2-.3.2ZM42 185v-3.6h.6v.5l.4-.4.7-.2c.4 0 .7.1 1 .4.2.2.3.5.3 1v2.3h-.6V183c0-.3 0-.6-.2-.7-.2-.2-.4-.3-.7-.3a1 1 0 0 0-.5.1l-.3.4-.1.6v2.1H42Zm5.5 1.3h-.8l-.5-.4a1 1 0 0 1-.2-.6h.6c0 .2.1.3.3.4l.6.1c.3 0 .6 0 .8-.2l.3-.6v-.8a1.2 1.2 0 0 1-.8.6h-.4c-.4 0-.6 0-.9-.2-.2-.1-.4-.3-.5-.6l-.2-1c0-.3 0-.6.2-.8l.5-.7.9-.2h.4l.4.3.3.4v-.6h.6v3.6c0 .3 0 .5-.2.7 0 .2-.3.4-.5.5a2 2 0 0 1-.9.1Zm0-2 .6-.1c.1-.1.3-.3.3-.5l.2-.6c0-.3 0-.5-.2-.7a1 1 0 0 0-.3-.4 1 1 0 0 0-.6-.2 1 1 0 0 0-.6.2 1 1 0 0 0-.4.4V183.8l.4.5.6.1Zm4 .8a2 2 0 0 1-.8-.1l-.5-.4a1 1 0 0 1-.2-.5h.6c0 .2.2.3.3.4l.6.1h.4l.3-.3.1-.3-.1-.3-.5-.2-.6-.1-.6-.2a.9.9 0 0 1-.3-.4 1 1 0 0 1-.1-.4c0-.2 0-.4.2-.6l.5-.4.7-.1.7.1.4.4c.2.1.2.3.3.5h-.6c0-.2-.2-.3-.3-.4a1 1 0 0 0-.5-.1 1 1 0 0 0-.4 0l-.3.3v.5l.2.1.3.2.6.1c.3 0 .6.2.8.4l.2.6c0 .2 0 .4-.2.6l-.5.4a2 2 0 0 1-.8.1Z"/><path stroke="#67B279" stroke-linecap="round" stroke-linejoin="round" stroke-width=".7" d="M14.5 202.6a2 2 0 1 0 0-4 2 2 0 0 0 0 4ZM10.5 206.6v-.5c0-1.3 1.2-2.5 2.5-2.5h3c1.4 0 2.5 1.2 2.5 2.5v.5h-8Z"/><path fill="#E4E4E4" d="M27.2 205.1v-4.9h.6v4.4h2.4v.5h-3Zm3.8 0v-3.6h.6v3.6H31Zm.3-4.4H31l-.1-.4.1-.3h.6l.1.3-.1.3-.3.1Zm2.8 4.5c-.3 0-.6 0-.8-.2-.3-.2-.5-.4-.6-.7-.2-.3-.2-.6-.2-1s0-.7.2-1a1.6 1.6 0 0 1 1.4-1l.8.2a1.4 1.4 0 0 1 .8 1H35l-.3-.4a1 1 0 0 0-.7-.2 1 1 0 0 0-1 .7v.7l.1.7c0 .2.2.4.4.5l.5.2c.3 0 .5 0 .7-.2l.3-.5h.6c0 .3-.2.5-.3.7l-.5.4-.8.1Zm3.9 0c-.4 0-.7 0-1-.2l-.5-.7-.2-1c0-.4 0-.7.2-1 .1-.3.3-.5.6-.7l.8-.2c.4 0 .7 0 1 .2l.5.7.2 1v.2h-3v-.5h2.7l-.3.4v-.2c0-.3 0-.5-.2-.7a1 1 0 0 0-.9-.6 1 1 0 0 0-.5.2 1 1 0 0 0-.4.4l-.1.7v.2l.1.7a1 1 0 0 0 1 .6h.4l.3-.3.2-.2h.6c0 .1 0 .3-.2.4a1.4 1.4 0 0 1-.7.5 2 2 0 0 1-.6.1Zm2.4 0v-3.7h.6v.5l.5-.4c.1-.2.4-.2.6-.2.4 0 .8.1 1 .3.2.3.3.6.3 1v2.4h-.6V203c0-.3 0-.6-.2-.7-.1-.2-.3-.3-.6-.3a1 1 0 0 0-.6.1l-.3.4-.1.6v2.1h-.6Zm5.3 0a2 2 0 0 1-.7-.1l-.6-.4a1 1 0 0 1-.2-.5h.6c0 .2.2.3.3.4l.6.1h.4l.3-.3.1-.3-.1-.3-.5-.2-.6-.1a2 2 0 0 1-.5-.3.9.9 0 0 1-.4-.3 1 1 0 0 1 0-.4l.1-.6.5-.4.7-.1.7.1c.2 0 .3.2.5.4l.2.5h-.6c0-.2-.1-.3-.3-.4a1 1 0 0 0-.5-.1 1 1 0 0 0-.4 0l-.3.2v.6l.2.1.4.2h.5l.8.5c.2.1.3.3.3.6l-.2.6-.6.4a2 2 0 0 1-.7.1Zm3.8 0c-.3 0-.6 0-.9-.2l-.6-.7-.2-1c0-.4 0-.7.2-1l.6-.7.9-.2c.3 0 .6 0 .8.2.3.2.5.4.6.7l.2 1v.2h-3v-.5h2.7l-.3.4v-.2c0-.3 0-.5-.2-.7a1 1 0 0 0-.8-.6 1 1 0 0 0-.6.2 1 1 0 0 0-.3.4l-.2.7v.2c0 .3 0 .5.2.7a1 1 0 0 0 1 .6h.4l.3-.3.1-.2h.6l-.1.4-.4.3-.4.2a2 2 0 0 1-.6.1Z"/><path stroke="#67B279" stroke-linecap="round" stroke-linejoin="round" stroke-width=".7" d="M11 218.7H18c.5 0 1 .4 1 1v4.7c0 .5-.5.8-1 .8h-4.6l-1.3 1.4c-.1.2-.4.2-.6 0l-.2-.3v-1H11a.9.9 0 0 1-.9-1v-4.7c0-.5.4-.9 1-.9Z" clip-rule="evenodd"/><path stroke="#67B279" stroke-linecap="round" stroke-linejoin="round" stroke-width=".7" d="M11.5 220.6h3M16 220.6h1M11.5 222.6h3M16 222.6h1"/><path fill="#E4E4E4" d="m28.8 225.2-1-.1-.6-.5c-.2-.2-.2-.5-.3-.7h.6l.2.4.5.3a1.9 1.9 0 0 0 1.2 0l.4-.3.2-.5c0-.2-.1-.3-.3-.5l-.7-.3-.5-.1c-.5-.1-.9-.3-1.1-.5-.2-.3-.4-.6-.4-1l.3-.6c.1-.3.3-.4.6-.5.2-.2.5-.2.9-.2.3 0 .6 0 .9.2.2 0 .4.2.6.4l.2.7H30l-.2-.4a1 1 0 0 0-.4-.3h-1.1a1 1 0 0 0-.4.3l-.1.5c0 .2 0 .3.2.5l.7.3h.6l.8.4.4.4.2.6c0 .4 0 .6-.2.8l-.7.6-1 .1Zm3.9 0c-.3 0-.5 0-.7-.2a1 1 0 0 1-.4-.4l-.2-.8v-2.4h.6v2.3c0 .3 0 .6.2.7.2.2.4.3.7.3l.4-.1.3-.2.2-.3v-2.7h.6v3.7H34v-.5h-.1l-.2.3a1 1 0 0 1-.4.2l-.5.1Zm2.8 1.2v-5h.6v.6a1.2 1.2 0 0 1 .7-.5l.5-.1c.3 0 .6 0 .8.2l.5.7c.2.3.2.6.2 1s0 .7-.2 1l-.5.7-.8.2h-.5l-.4-.3-.3-.3v1.8h-.6Zm1.6-1.7c.3 0 .5 0 .6-.2l.4-.5.1-.7-.1-.8a1 1 0 0 0-.4-.4 1 1 0 0 0-.6-.2 1 1 0 0 0-.5.2 1 1 0 0 0-.4.5l-.1.7v.7l.5.5.5.2Zm2.6 1.7v-5h.6v.6a1.2 1.2 0 0 1 .7-.5l.5-.1c.3 0 .6 0 .8.2l.5.7c.2.3.2.6.2 1s0 .7-.2 1l-.5.7-.8.2H41l-.4-.3-.3-.3v1.8h-.6Zm1.6-1.7c.3 0 .5 0 .6-.2l.4-.5.1-.7-.1-.8a1 1 0 0 0-.4-.4 1 1 0 0 0-.6-.2 1 1 0 0 0-.5.2 1 1 0 0 0-.4.5l-.1.7v.7l.5.5.5.2Zm4 .5c-.3 0-.6 0-.8-.2-.3-.2-.5-.4-.6-.7l-.2-1c0-.4 0-.7.2-1 .1-.3.3-.5.6-.7l.9-.2c.3 0 .6 0 .9.2l.6.7.2 1c0 .4 0 .7-.2 1a1.5 1.5 0 0 1-1.5.9Zm0-.5c.3 0 .5 0 .7-.2.1-.1.3-.3.3-.5l.2-.7c0-.3 0-.6-.2-.8a1 1 0 0 0-.3-.4 1 1 0 0 0-.6-.2 1 1 0 0 0-.6.2 1 1 0 0 0-.4.4l-.1.8.1.7.4.5.6.2Zm2.6.4v-3.7h.6v.6l.4-.5.7-.1H49.9v.6a2 2 0 0 0-.4 0 1 1 0 0 0-.5 0c-.1.1-.3.2-.3.4l-.2.4v2.3H48Zm4 0c-.4 0-.7 0-.8-.2-.2-.1-.3-.4-.3-.7v-2.3h-.6v-.5h.6v-.9h.6v1h.8v.4h-.8v2.1c0 .2 0 .4.2.5l.4.1h.2v.5a2.5 2.5 0 0 1-.3 0Z"/><path stroke="#67B279" stroke-linecap="round" stroke-linejoin="round" stroke-width=".7" d="M14.5 247.1a4.5 4.5 0 1 0 0-9 4.5 4.5 0 0 0 0 9ZM14.5 244.6v-3M14.5 240.4s0 0 0 0"/><path fill="#E4E4E4" d="m26.8 245.1 1.8-4.9h.5v.8h-.2l-1.5 4.1h-.6Zm.8-1.4.2-.5H30l.2.5h-2.6Zm2.8 1.4-1.5-4.1v-.8h.3l1.8 5h-.6Zm3.2 0H33a1.3 1.3 0 0 1-.7-.6v.6h-.6V240h.6v2l.3-.3.4-.2.5-.1a1.4 1.4 0 0 1 1.3.9l.2 1c0 .4 0 .7-.2 1l-.5.7-.8.2Zm-.2-.4c.2 0 .4 0 .6-.2l.4-.5v-1.5a1 1 0 0 0-.4-.4 1 1 0 0 0-.6-.2 1 1 0 0 0-.6.2 1 1 0 0 0-.3.4l-.2.8c0 .3 0 .5.2.7 0 .2.2.4.3.5l.6.2Zm4 .5c-.3 0-.6 0-.8-.2-.3-.2-.5-.4-.6-.7-.2-.3-.2-.6-.2-1s0-.8.2-1a1.5 1.5 0 0 1 1.5-1l.9.3.6.7.2 1c0 .4-.1.7-.3 1a1.5 1.5 0 0 1-1.4.9Zm0-.5c.3 0 .5 0 .7-.2l.3-.5.2-.7c0-.3 0-.6-.2-.8a1 1 0 0 0-.3-.4 1 1 0 0 0-.6-.2 1 1 0 0 0-.6.2 1 1 0 0 0-.4.4l-.1.8.1.7c0 .2.2.4.4.5l.6.2Zm3.8.5c-.2 0-.5 0-.7-.2a1 1 0 0 1-.4-.4l-.1-.8v-2.4h.6v2.3c0 .3 0 .6.2.7 0 .2.3.3.6.3l.4-.1.3-.2.2-.3v-2.7h.7v3.7h-.6v-.5a1 1 0 0 1-.7.5h-.5Zm4.1 0c-.4 0-.6-.1-.8-.3-.2-.1-.2-.4-.2-.7v-2.3h-.6v-.5h.6v-1h.6v1h.8v.5h-.8v2.6l.5.1H45.7v.5a4.8 4.8 0 0 1-.4 0Z"/><path stroke="silver" stroke-linecap="round" stroke-linejoin="round" stroke-width=".7" d="m140 35.7-3-3 3-3"/><path fill="#E4E4E4" d="M151 35.3c-.3 0-.7 0-1-.2l-.7-.7-.2-.9v-3.2h.6v3.2c0 .2 0 .4.2.6 0 .2.2.4.4.5l.8.1.7-.1.5-.5.1-.6v-3.2h.6v3.2c0 .4 0 .7-.2 1l-.7.6-1 .2Zm4.4 0a2 2 0 0 1-.7-.2c-.2 0-.4-.2-.5-.3a1 1 0 0 1-.3-.5h.7l.2.3.6.2.5-.1.3-.2v-.6l-.6-.2-.6-.2a2 2 0 0 1-.5-.2.9.9 0 0 1-.3-.3 1 1 0 0 1-.2-.5l.2-.5.5-.4.7-.2c.3 0 .5 0 .7.2.2 0 .4.2.5.3l.2.5h-.6l-.2-.3a1 1 0 0 0-.6-.2 1 1 0 0 0-.4.1l-.2.2-.1.3v.2l.2.2.4.1.5.1.8.4.3.6c0 .3 0 .5-.2.6l-.6.4a2 2 0 0 1-.7.2Zm3.8 0-.9-.3-.6-.6-.2-1 .2-1 .6-.7.9-.3c.3 0 .6.1.8.3.3.1.5.3.6.6l.2 1v.2h-3V33h2.7l-.3.5v-.3l-.1-.7a1 1 0 0 0-1-.5 1 1 0 0 0-.5.1 1 1 0 0 0-.3.4l-.2.7v.3c0 .2 0 .5.2.7a1 1 0 0 0 1 .5h.4l.3-.2.1-.2h.6l-.1.3a1.4 1.4 0 0 1-.8.6 2 2 0 0 1-.6 0Zm2.4-.1v-3.7h.6v.6l.4-.5.7-.2H163.6v.6a1.8 1.8 0 0 0-.4 0 1 1 0 0 0-.5.1l-.3.3-.2.5v2.3h-.6Zm4.5 0v-3.7h.6v.6l.4-.5.7-.2H168v.6a1.7 1.7 0 0 0-.4 0 1 1 0 0 0-.5.1l-.4.3v2.8h-.7Zm3.8 0-.7-.1a1 1 0 0 1-.4-.5l-.1-.7v-2.4h.6v2.2c0 .4 0 .6.2.8l.6.2h.4c.2 0 .3-.2.3-.2l.2-.4v-2.6h.7v3.7h-.6v-.6a1 1 0 0 1-.7.6h-.5Zm2.9 0V30h.6v5.2h-.6Zm3.1 0c-.3 0-.6 0-.9-.2l-.6-.6-.2-1 .2-1 .6-.7.9-.3c.3 0 .6.1.8.3.3.1.5.3.6.6l.2 1v.2h-3V33h2.7l-.3.5v-.3l-.1-.7a1 1 0 0 0-1-.5 1 1 0 0 0-.5.1 1 1 0 0 0-.3.4l-.2.7v.3c0 .2 0 .5.2.7a1 1 0 0 0 1 .5h.4l.3-.2.1-.2h.7l-.2.3a1.4 1.4 0 0 1-.8.6 2 2 0 0 1-.6 0Zm3.7 0a2 2 0 0 1-.7 0l-.5-.4a1 1 0 0 1-.2-.5h.6l.3.3.5.2.5-.1.3-.2v-.6l-.6-.2-.5-.2-.6-.2a.9.9 0 0 1-.3-.3 1 1 0 0 1-.1-.5l.1-.5.5-.4.7-.2c.3 0 .5 0 .7.2.2 0 .4.2.5.3l.2.5h-.6c0-.1 0-.2-.2-.3a1 1 0 0 0-.6-.2 1 1 0 0 0-.4.1l-.2.2-.1.3v.2l.2.2.4.1.6.1c.3.1.6.2.7.4l.3.6c0 .3 0 .5-.2.6l-.5.4a2 2 0 0 1-.8.2Z"/><path fill="#1F1F1F" d="M388.4 42.7H132.5v38.5h256V42.7Z"/><path fill="#E4E4E4" d="M145 70.3c-.8 0-1.6-.1-2.2-.5-.6-.3-1-.8-1.3-1.5-.4-.7-.5-1.4-.5-2.3 0-1 .1-1.7.5-2.4.3-.6.7-1.2 1.3-1.5.6-.4 1.4-.5 2.2-.5a4 4 0 0 1 1.8.4c.5.2 1 .6 1.3 1 .3.5.5 1 .6 1.7h-1.8a2 2 0 0 0-.3-.9l-.7-.5a2 2 0 0 0-1-.2 2 2 0 0 0-1 .3c-.4.3-.7.6-.9 1a4 4 0 0 0-.2 1.5c0 .6 0 1.2.2 1.6.2.4.5.8.8 1 .3.2.7.3 1.2.3l.9-.1.7-.6c.1-.2.3-.5.3-.8h1.8c0 .6-.3 1.1-.6 1.6a4 4 0 0 1-3.1 1.5Zm4.7-.1v-6.3h1.8v1l.5-.8c.3-.2.6-.4 1-.4a2.3 2.3 0 0 1 .5.1v1.5H152l-.5.6-.1.7v3.6h-1.8Zm7.3.1c-.7 0-1.2-.1-1.7-.4-.5-.2-.8-.6-1-1.1-.3-.5-.4-1-.4-1.8 0-.6 0-1.2.3-1.7s.6-.9 1-1.2a3 3 0 0 1 1.7-.4 3 3 0 0 1 1.6.4c.4.3.8.7 1 1.1.3.5.4 1 .4 1.7v.5h-5.2v-1h4.4l-.8 1v-.7c0-.4 0-.7-.2-1l-.5-.5-.7-.2c-.2 0-.5 0-.7.2-.2.1-.4.3-.5.6l-.2.9v.7l.2.9.5.5c.2.2.5.2.8.2h.6l.4-.3.3-.4h1.5c0 .3-.1.5-.3.7 0 .3-.3.5-.5.7-.2.2-.5.3-.9.4-.3.2-.7.2-1.1.2Zm5.8 0c-.5 0-.8-.1-1.2-.3-.3-.1-.5-.3-.7-.6-.2-.3-.3-.7-.3-1 0-.4.1-.7.3-1 .2-.3.5-.5.9-.7a4 4 0 0 1 1.3-.2l2.4-.2v1l-2.1.2-.8.2-.3.6c0 .2.1.4.3.5.2.2.4.2.7.2l.7-.1.5-.4.2-.6v-2c0-.2-.1-.5-.3-.6-.2-.2-.5-.3-.8-.3l-.8.2c-.1.2-.3.3-.3.5h-1.6c0-.4.2-.7.4-1 .2-.3.6-.5 1-.7.4-.2.8-.3 1.4-.3.5 0 1 .1 1.4.3l1 .7c.1.4.3.7.3 1.2v4.3h-1.8v-1c-.1.3-.3.5-.5.6a2 2 0 0 1-.6.4h-.7Zm7.3 0c-.7 0-1.2-.2-1.6-.4-.3-.3-.5-.8-.5-1.5v-3.2h-.9v-1.3h1v-1.6h1.7V64h1.2v1.3h-1.2v3c0 .3 0 .5.2.6l.6.2h.4v1.2h-.9Zm4.7 0c-.7 0-1.2-.1-1.7-.4-.4-.2-.8-.6-1-1.1-.3-.5-.4-1-.4-1.8 0-.6.1-1.2.4-1.7.2-.5.6-.9 1-1.2a3 3 0 0 1 1.6-.4 3 3 0 0 1 1.6.4c.5.3.8.7 1 1.1.3.5.4 1 .4 1.7v.5h-5.2v-1h4.4l-.8 1v-.7c0-.4 0-.7-.2-1 0-.2-.2-.4-.4-.5l-.7-.2c-.3 0-.6 0-.8.2-.2.1-.3.3-.4.6-.2.2-.2.5-.2.9v.7c0 .3 0 .6.2.9 0 .2.2.4.5.5.2.2.4.2.7.2h.6l.5-.3.2-.4h1.6c0 .3-.2.5-.3.7l-.6.7-.8.4c-.4.2-.8.2-1.2.2Zm6.5-.1v-6.3h1.7v1c.1-.3.3-.6.6-.8.2-.2.5-.4.9-.4a2.2 2.2 0 0 1 .5.1v1.5h-1.4l-.5.6-.1.7v3.6h-1.7Zm6.7.1c-.5 0-.9 0-1.2-.3-.3-.2-.6-.4-.8-.8a3 3 0 0 1-.2-1.3v-4h1.7v3.7c0 .4.1.7.3 1 .2.2.5.3.9.3l.5-.1a1.1 1.1 0 0 0 .6-.7l.1-.6v-3.6h1.7v6.3H190v-1a1.8 1.8 0 0 1-1 1l-1 .1Zm5-.1v-8.6h1.7v8.6h-1.8Zm5.8.1c-.6 0-1.2-.1-1.7-.4-.4-.2-.8-.6-1-1.1-.3-.5-.4-1-.4-1.8 0-.6.1-1.2.4-1.7.2-.5.6-.9 1-1.2a3 3 0 0 1 1.6-.4 3 3 0 0 1 1.6.4c.5.3.8.7 1 1.1.3.5.4 1 .4 1.7v.5h-5.2v-1h4.4l-.8 1v-.7c0-.4 0-.7-.2-1 0-.2-.2-.4-.4-.5l-.7-.2c-.3 0-.5 0-.7.2-.3.1-.4.3-.5.6l-.2.9v.7c0 .3 0 .6.2.9 0 .2.3.4.5.5.2.2.4.2.7.2h.7l.4-.3.2-.4h1.6c0 .3-.2.5-.3.7-.1.3-.3.5-.6.7l-.8.4c-.3.2-.7.2-1.2.2Z"/><path fill="#3D3D3D" d="M376.4 85.4h-232c-2 0-3.7 1.7-3.7 3.8v20c0 2 1.7 3.7 3.8 3.7h232c2 0 3.7-1.7 3.7-3.7v-20c0-2.1-1.7-3.8-3.8-3.8Z"/><path stroke="#5B5B5B" stroke-width=".5" d="M376.4 85.4h-232c-2 0-3.7 1.7-3.7 3.8v20c0 2 1.7 3.7 3.8 3.7h232c2 0 3.7-1.7 3.7-3.7v-20c0-2.1-1.7-3.8-3.8-3.8Z"/><path stroke="#F67247" stroke-linecap="round" stroke-width=".7" d="M150 97.2c0-.3.2-.5.5-.5h8c.3 0 .5.2.5.5v4c0 .2-.2.5-.5.5h-8a.5.5 0 0 1-.5-.5v-4Z" clip-rule="evenodd"/><path stroke="#F67247" stroke-linecap="round" stroke-width=".7" d="m150.5 103.7 8-9"/><path fill="#E4E4E4" d="M169.6 102.2v-.7h1.7c.4 0 .7 0 1-.2.2-.2.3-.4.3-.7 0-.3 0-.4-.2-.6a1 1 0 0 0-.4-.3l-.8-.1h-1.6V99h1.4c.5 0 .8-.1 1-.3.2-.1.3-.3.3-.6s0-.5-.3-.7c-.2-.2-.4-.2-.8-.2h-1.6v-.7h1.8c.3 0 .6 0 .8.2a1.3 1.3 0 0 1 .8 1.2l-.1.6c0 .2-.2.3-.4.4l-.4.3.6.2.5.5.1.7c0 .3 0 .6-.2.8-.2.3-.4.5-.7.6l-1 .2h-1.8Zm-.4 0v-5.7h.7v5.7h-.7Zm5 0v-6h.7v6h-.6Zm3.6 0a1.8 1.8 0 0 1-1.7-1l-.2-1.1c0-.5 0-.9.2-1.2l.7-.8a2 2 0 0 1 1-.2c.4 0 .8 0 1 .2.3.2.6.5.7.8.2.3.3.7.3 1.2 0 .4-.1.8-.3 1.1a1.7 1.7 0 0 1-1.7 1Zm0-.6.7-.1.4-.6.2-.8c0-.4 0-.7-.2-.9 0-.2-.2-.4-.4-.5l-.7-.2c-.2 0-.5 0-.7.2l-.4.5-.1.9.1.8.4.6.7.1Zm4.6.6c-.4 0-.8 0-1-.2-.3-.2-.6-.5-.7-.8-.2-.3-.3-.7-.3-1.1 0-.5.1-.9.3-1.2a1.8 1.8 0 0 1 1.7-1c.3 0 .6 0 .9.2a1.6 1.6 0 0 1 .8 1.1h-.6a1 1 0 0 0-.4-.5l-.7-.2a1.1 1.1 0 0 0-1.1.7 2 2 0 0 0-.2.8c0 .4 0 .7.2.9 0 .2.2.4.4.5.2.2.4.2.7.2l.7-.1.4-.6h.6c0 .3-.1.5-.3.7-.1.2-.3.4-.6.5a2 2 0 0 1-.8.1Zm2.6 0v-6h.7v6h-.7Zm2.7 0-1.7-2 .5-.5 2 2.5h-.8Zm-2-1.5-.1-.9h.2l1.8-1.8h.8l-2 1.9-.2.1-.6.7Zm5.6 1.5V98h.6v.6h.1c0-.2.2-.4.4-.5.2-.2.4-.2.7-.2h.4v.7a2 2 0 0 0-.5 0h-.5a1 1 0 0 0-.4.4l-.2.6v2.6h-.6Zm4.5 0a2 2 0 0 1-1-.2c-.4-.2-.6-.4-.7-.8-.2-.3-.3-.7-.3-1.1 0-.5.1-.8.3-1.2.1-.3.3-.6.6-.7.3-.2.6-.3 1-.3s.7 0 1 .3c.3.1.5.4.6.7.2.3.2.7.2 1.1v.3h-3.3v-.6h3l-.3.5v-.3c0-.3 0-.6-.2-.8a1 1 0 0 0-1-.6c-.2 0-.4 0-.6.2-.2 0-.3.2-.4.4l-.2.8v.3c0 .3 0 .6.2.8 0 .2.2.4.4.5l.7.1h.5l.3-.2.2-.3h.7l-.2.4a1.6 1.6 0 0 1-.9.7h-.6Zm5.6 1.4v-2c-.2 0-.3.2-.4.3l-.4.3h-.6a1.6 1.6 0 0 1-1.5-1c-.2-.3-.3-.7-.3-1.1 0-.5.1-.9.3-1.2.1-.3.3-.6.6-.7.2-.2.5-.3 1-.3a1.5 1.5 0 0 1 1.2.8V98h.8v5.6h-.7Zm-1.2-2a1.1 1.1 0 0 0 1-.7c.2-.2.2-.5.2-.8l-.1-.9-.5-.5-.6-.2c-.3 0-.5 0-.7.2l-.4.5-.2.9c0 .3 0 .6.2.8 0 .2.2.4.4.6l.7.1Zm4.4.6-.8-.1c-.2-.2-.4-.3-.5-.6a2 2 0 0 1-.2-.8V98h.7v2.5c0 .4 0 .7.2.9.2.2.4.2.8.2h.4c.2 0 .3-.2.4-.3l.2-.3v-3h.8v4.2h-.7v-.7l-.4.4-.4.3h-.5Zm4.8 0a1.8 1.8 0 0 1-1.7-1c-.2-.3-.2-.7-.2-1.1 0-.5 0-.8.2-1.2.2-.3.4-.6.7-.7.2-.2.6-.3 1-.3.3 0 .7 0 1 .3l.6.7.2 1.1v.3h-3.4v-.6h3l-.3.5v-.3l-.1-.8a1 1 0 0 0-1-.6c-.3 0-.5 0-.7.2l-.4.4-.1.8v.3l.1.8a1.1 1.1 0 0 0 1.1.6h.5l.4-.2.1-.3h.7c0 .2 0 .3-.2.4 0 .2-.2.3-.3.4l-.5.3h-.7Zm4.1 0-.8-.1c-.2 0-.4-.2-.6-.4l-.2-.6h.7c0 .2.1.3.3.4l.7.2.5-.1.3-.2.1-.4-.1-.3-.6-.3-.7-.1-.6-.3a1 1 0 0 1-.4-.4 1 1 0 0 1-.1-.5c0-.2 0-.4.2-.6l.6-.5.8-.1.7.1c.3.1.5.2.6.4l.3.6h-.7c0-.2-.2-.3-.3-.4l-.6-.1h-.5l-.3.3-.1.3v.2l.3.2.4.2.7.1.8.4c.2.2.3.5.3.8 0 .2 0 .4-.2.6-.1.2-.3.4-.6.5l-.9.1Zm4 0c-.3 0-.7 0-.9-.3-.2-.1-.2-.4-.2-.8v-2.6h-.7V98h.7v-1.1h.7v1h.9v.6h-1v2.4c0 .3.1.4.2.5 0 .1.2.2.5.2a3.2 3.2 0 0 0 .3 0v.6a4.4 4.4 0 0 1-.4 0Zm2.7 0-.8-.1c-.3 0-.5-.2-.6-.4l-.3-.6h.7l.4.4.6.2.5-.1.4-.2.1-.4c0-.1 0-.2-.2-.3l-.5-.3-.7-.1-.6-.3a1 1 0 0 1-.4-.4 1 1 0 0 1-.1-.5c0-.2 0-.4.2-.6l.5-.5.8-.1.8.1.6.4.2.6h-.6c0-.2-.2-.3-.4-.4l-.6-.1h-.4l-.3.3-.1.3v.2l.3.2.4.2.6.1.9.4c.2.2.3.5.3.8 0 .2 0 .4-.2.6l-.6.5-.9.1Z"/><path stroke="silver" stroke-linecap="round" stroke-linejoin="round" stroke-width=".7" d="m363.5 98.1 2.9 3 3-2.9"/><path fill="silver" d="M141.4 128.2v-.6h1.6c.3 0 .6 0 .8-.2l.3-.6-.1-.5c-.1-.2-.3-.3-.4-.3a2 2 0 0 0-.7-.1h-1.5v-.5h1.3l.9-.2c.2-.2.2-.4.2-.6 0-.3 0-.5-.2-.6a1 1 0 0 0-.7-.2h-1.5v-.6h1.6c.3 0 .6 0 .8.2a1.1 1.1 0 0 1 .7 1l-.1.5-.4.4a1 1 0 0 1-.4.2l.6.3c.2 0 .3.2.4.4l.1.6c0 .3 0 .5-.2.7-.1.2-.3.4-.6.5l-.9.2h-1.6Zm-.3 0v-5h.6v5h-.6Zm4.5 0V123h.6v5.2h-.6Zm3.2 0c-.4 0-.7 0-1-.2l-.5-.7c-.2-.2-.2-.6-.2-1s0-.7.2-1a1.5 1.5 0 0 1 1.5-.9c.3 0 .6 0 .9.2l.6.7.2 1c0 .4 0 .8-.2 1a1.5 1.5 0 0 1-1.5 1Zm0-.5c.2 0 .4 0 .6-.2.1 0 .3-.2.3-.4l.2-.8c0-.3 0-.5-.2-.7a1 1 0 0 0-.3-.5 1 1 0 0 0-.6-.2 1 1 0 0 0-.6.2 1 1 0 0 0-.4.5l-.1.7.1.8.4.4.6.2Zm4 .5c-.3 0-.6 0-.9-.2l-.6-.7-.2-1 .2-1a1.6 1.6 0 0 1 1.5-.9c.3 0 .6 0 .8.2a1.4 1.4 0 0 1 .8 1h-.6c0-.2-.2-.3-.3-.5a1 1 0 0 0-.7-.2 1 1 0 0 0-1 .7v1.4l.5.5.5.2c.3 0 .5 0 .6-.2.2 0 .3-.2.4-.4h.6l-.3.6-.5.4-.8.1Zm2.4 0V123h.6v5.2h-.6Zm2.3 0-1.4-1.8.4-.4 1.8 2.2h-.8Zm-1.8-1.4v-.7h.2l1.5-1.6h.8l-1.8 1.7-.1.1-.6.5Zm5 1.4v-3.7h.7v.5l.4-.4.6-.2a1.5 1.5 0 0 1 .3 0v.6h-.4a1 1 0 0 0-.5 0l-.3.4-.1.5v2.3h-.6Zm4 0c-.3 0-.6 0-.8-.2-.3-.2-.5-.4-.6-.7l-.2-1c0-.3 0-.7.2-1 .1-.3.3-.5.6-.6.2-.2.5-.3.8-.3.4 0 .7 0 .9.2l.6.7.1 1v.2h-3v-.5h2.7l-.3.5v-1a1 1 0 0 0-1-.6 1 1 0 0 0-.5.2 1 1 0 0 0-.4.4l-.1.7v.3l.1.6a1 1 0 0 0 1 .6h.4l.3-.2.2-.3h.6c0 .2 0 .3-.2.4l-.3.3-.4.2a2 2 0 0 1-.6.1Zm5 1.2v-1.8c0 .1-.1.3-.3.3l-.4.3h-.4a1.4 1.4 0 0 1-1.4-.9l-.2-1c0-.4 0-.7.2-1 .1-.3.3-.5.5-.6.3-.2.5-.3.9-.3a1.3 1.3 0 0 1 1.1.7v-.6h.7v4.9h-.6Zm-1-1.7a1 1 0 0 0 1-.6v-1.5a1 1 0 0 0-1-.6 1 1 0 0 0-1 .6v1.5l.4.4.6.2Zm4 .5-.8-.1a1 1 0 0 1-.4-.5l-.2-.7v-2.4h.6v2.2l.2.8.7.2h.4l.3-.3.2-.3v-2.6h.7v3.7h-.6v-.6a1 1 0 0 1-.7.6h-.5Zm4.2 0c-.4 0-.7 0-1-.2l-.5-.7-.2-1c0-.3 0-.7.2-1 .2-.3.3-.5.6-.6.2-.2.5-.3.9-.3.3 0 .6 0 .8.2l.6.7.2 1v.2h-3v-.5h2.7l-.3.5v-.3c0-.3 0-.5-.2-.7a1 1 0 0 0-.8-.6 1 1 0 0 0-.6.2 1 1 0 0 0-.3.4l-.2.7v.3c0 .2 0 .4.2.6a1 1 0 0 0 1 .6h.3l.4-.2.1-.3h.6c0 .2 0 .3-.2.4a1.4 1.4 0 0 1-.7.5 2 2 0 0 1-.6.1Zm3.7 0a2 2 0 0 1-.7 0l-.5-.4a1 1 0 0 1-.3-.6h.6c0 .2.2.3.3.4l.6.1h.4c.2 0 .3-.2.3-.2l.2-.3-.2-.4-.5-.2-.6-.1-.5-.2a.9.9 0 0 1-.4-.4 1 1 0 0 1 0-.4l.1-.6c.1-.1.3-.3.5-.3l.7-.2.7.1.5.4.2.5h-.6l-.3-.4a1 1 0 0 0-.5 0 1 1 0 0 0-.4 0c-.1 0-.2 0-.3.2v.5l.2.2h.4l.5.2.8.4c.2.1.3.3.3.6l-.2.6-.6.4a2 2 0 0 1-.7.1Zm3.6 0c-.4 0-.7 0-.8-.2-.2-.2-.3-.4-.3-.8V125h-.6v-.5h.6v-1h.6v1h.8v.5h-.8v2l.1.5.5.2a1.7 1.7 0 0 0 .2 0v.5a5 5 0 0 1-.3 0Zm2.3 0a2 2 0 0 1-.7 0l-.5-.4a1 1 0 0 1-.2-.6h.6c0 .2.1.3.3.4l.6.1h.4l.3-.2.1-.3-.1-.4-.5-.2-.6-.1a2 2 0 0 1-.6-.2.9.9 0 0 1-.3-.4 1 1 0 0 1-.1-.4c0-.2 0-.4.2-.6 0-.1.3-.3.5-.3l.7-.2.6.1.5.4.3.5h-.6l-.3-.4a1 1 0 0 0-.5 0 1 1 0 0 0-.4 0c-.1 0-.2 0-.3.2l-.1.3v.2l.3.2h.3l.6.2.8.4.2.6c0 .2 0 .4-.2.6l-.5.4a2 2 0 0 1-.8.1Zm5.6 0c-.4 0-.7 0-.9-.2l-.2-.8V125h-.6v-.5h.6v-1h.6v1h.8v.5h-.8v2l.1.5.4.2a1.7 1.7 0 0 0 .3 0v.5a5 5 0 0 1-.3 0Zm2.6 0c-.4 0-.7 0-1-.2l-.5-.7-.2-1c0-.4 0-.7.2-1a1.5 1.5 0 0 1 1.5-.9c.3 0 .6 0 .9.2l.6.7.2 1c0 .4 0 .8-.2 1a1.5 1.5 0 0 1-1.5 1Zm0-.5c.2 0 .4 0 .6-.2.1 0 .3-.2.3-.4l.2-.8c0-.3 0-.5-.2-.7a1 1 0 0 0-.3-.5 1 1 0 0 0-.6-.2 1 1 0 0 0-.6.2 1 1 0 0 0-.4.5l-.1.7.1.8.4.4.6.2Zm5.7.5c-.3 0-.6 0-.8-.2-.2-.2-.2-.4-.2-.8V125h-.6v-.5h.6v-1h.6v1h.8v.5h-.8v2.5l.5.2a1.7 1.7 0 0 0 .3 0v.5a5 5 0 0 1-.4 0Zm1.2 0V123h.6v2l.5-.4.6-.2c.3 0 .6 0 .7.2.2 0 .4.2.5.4l.1.8v2.4h-.6v-2.3c0-.3 0-.6-.2-.7-.1-.2-.3-.3-.6-.3a1 1 0 0 0-.5.2c-.2 0-.3.2-.4.3V128.2h-.7Zm4 0v-3.7h.6v3.7h-.5Zm.4-4.4c-.2 0-.3 0-.3-.2l-.2-.2c0-.2 0-.3.2-.3 0-.1.1-.2.3-.2 0 0 .2 0 .2.2.1 0 .2.1.2.3 0 0 0 .2-.2.2l-.2.2Zm2.6 4.4a2 2 0 0 1-.8 0l-.5-.4a1 1 0 0 1-.2-.6h.6c0 .2.2.3.3.4l.6.1h.4l.3-.2.1-.3-.1-.4-.5-.2-.6-.1a2 2 0 0 1-.6-.2.9.9 0 0 1-.3-.4 1 1 0 0 1 0-.4v-.6l.6-.3.7-.2.7.1.4.4c.2.1.2.3.3.5h-.6l-.3-.4a1 1 0 0 0-.5 0 1 1 0 0 0-.4 0c-.1 0-.2 0-.3.2v.5l.2.2h.3l.6.2.8.4.2.6c0 .2 0 .4-.2.6 0 .2-.3.3-.5.4a2 2 0 0 1-.7.1Zm5.5 0a1.4 1.4 0 0 1-1.3-.9l-.2-1c0-.4 0-.7.2-1 .1-.3.3-.5.5-.6.2-.2.5-.3.8-.3a1.4 1.4 0 0 1 1 .3l.2.4v-2h.6v5h-.6v-.5a1.3 1.3 0 0 1-.7.5l-.5.1Zm.2-.5c.2 0 .4 0 .5-.2.2 0 .3-.2.4-.4l.1-.8v-.7a1 1 0 0 0-.5-.5 1 1 0 0 0-.5-.2 1 1 0 0 0-.6.2 1 1 0 0 0-.4.5l-.1.7.1.8.4.4.6.2Zm4.2.5c-.3 0-.6 0-.9-.2l-.6-.7-.2-1c0-.4 0-.7.2-1a1.5 1.5 0 0 1 1.5-.9c.4 0 .7 0 1 .2l.5.7.2 1c0 .4 0 .8-.2 1a1.5 1.5 0 0 1-1.5 1Zm0-.5c.2 0 .4 0 .6-.2.2 0 .3-.2.4-.4l.1-.8-.1-.7a1 1 0 0 0-.4-.5 1 1 0 0 0-.6-.2 1 1 0 0 0-.6.2 1 1 0 0 0-.4.5v1.5l.4.4.6.2Zm2.6.5v-3.7h.6v.5c0-.2.2-.3.4-.4l.6-.2.4.1.4.2.2.4.3-.4.4-.2h1.1l.4.5.2.6v2.6h-.6v-2.4l-.1-.5-.3-.3h-.8c-.2.1-.3.2-.3.4l-.1.4v2.4h-.6v-2.5l-.1-.4-.3-.3h-.8l-.3.4-.2.5v2.3h-.5Zm7 0-.6-.1a1 1 0 0 1-.5-.4 1 1 0 0 1-.1-.6l.1-.5.5-.4.7-.2h1.3v.4l-1.2.1c-.3 0-.5 0-.6.2-.2 0-.2.2-.2.4s0 .4.2.5l.5.1.5-.1c.2 0 .3-.2.4-.3l.2-.5v-1.2c0-.2-.1-.4-.3-.5l-.6-.2a1 1 0 0 0-.5.2c-.2 0-.3.1-.3.3h-.6l.2-.5.5-.4h1.5l.5.5.1.6v2.6h-.6v-.6a1.3 1.3 0 0 1-.7.6h-.4Zm2.8 0v-3.7h.6v3.7h-.6Zm.3-4.4c-.1 0-.2 0-.3-.2l-.1-.2v-.3l.4-.2s.2 0 .3.2v.5l-.3.2Zm1.3 4.4v-3.7h.6v.5l.5-.4.6-.2c.4 0 .8.1 1 .4.2.2.3.5.3 1v2.4h-.6v-2.3c0-.3 0-.6-.2-.7-.1-.2-.3-.3-.6-.3a1 1 0 0 0-.5.2c-.2 0-.3.2-.4.3l-.1.6v2.2h-.6Z"/><path fill="#3D3D3D" d="M376.4 134.4h-232c-2 0-3.7 1.7-3.7 3.8v20c0 2 1.7 3.7 3.8 3.7h232c2 0 3.7-1.7 3.7-3.7v-20c0-2.1-1.7-3.8-3.8-3.8Z"/><path stroke="#5B5B5B" stroke-width=".5" d="M376.4 134.4h-232c-2 0-3.7 1.7-3.7 3.8v20c0 2 1.7 3.7 3.8 3.7h232c2 0 3.7-1.7 3.7-3.7v-20c0-2.1-1.7-3.8-3.8-3.8Z"/><path fill="#E4E4E4" d="M150.8 151.2a1.8 1.8 0 0 1-1.7-1l-.2-1.1c0-.5 0-.9.2-1.2l.7-.8 1-.2c.4 0 .7 0 1 .2.3.2.5.5.6.8.2.3.2.7.2 1v.3h-3.3v-.5h3l-.3.5v-.3c0-.3 0-.6-.2-.8a1 1 0 0 0-1-.6l-.6.1-.4.5-.2.8v.3c0 .3 0 .6.2.8 0 .2.2.3.4.5l.7.1h.5l.3-.3.2-.2h.7l-.2.4-.4.4-.5.2-.7.1Zm2.2 0 1.5-2.1-1.5-2.2h.8l1 1.6 1-1.6h.8l-1.4 2.1 1.5 2.2h-.8l-1-1.6-1 1.6h-.9Zm5.6 0-.7-.1c-.3-.1-.4-.3-.5-.5-.2-.1-.2-.4-.2-.6 0-.3 0-.5.2-.7 0-.1.2-.3.5-.4l.8-.2h1.6v.5h-1.5c-.3 0-.6.2-.7.3-.2 0-.2.2-.2.5 0 .2 0 .3.2.5l.6.1.6-.1c.2 0 .4-.2.5-.4l.1-.5v-1.3c0-.3 0-.5-.2-.6-.2-.2-.4-.2-.7-.2l-.7.1-.3.4h-.7l.3-.6.6-.4.8-.1.9.1.5.5.2.8v2.9h-.7v-.7a1.5 1.5 0 0 1-.8.7h-.5Zm3 0v-4.3h.8v.7l.4-.5c.2-.2.5-.2.8-.2h.5l.4.3.2.4.4-.4.4-.2.6-.1.7.1.5.5.1.7v3h-.7v-3.3c-.1-.2-.2-.3-.4-.3a1 1 0 0 0-.4-.1 1 1 0 0 0-.9.5l-.1.4v2.8h-.7v-2.9l-.1-.4c0-.2-.2-.3-.3-.3a1 1 0 0 0-.5-.1l-.5.1a1 1 0 0 0-.3.4l-.1.5v2.7h-.7Zm6.9 1.4v-5.7h.7v.7a1.4 1.4 0 0 1 .8-.6l.5-.1c.4 0 .7 0 1 .2l.6.8.2 1.1c0 .5 0 .9-.2 1.2l-.6.8-1 .2h-.5l-.5-.3-.3-.4v2h-.7Zm1.9-2c.2 0 .5 0 .6-.2.2 0 .4-.3.5-.5l.1-.8-.1-.9-.5-.5c-.1-.2-.4-.2-.6-.2-.3 0-.5 0-.7.2-.2 0-.3.3-.4.5l-.2.8c0 .4 0 .7.2.9 0 .2.2.4.4.5.2.2.4.2.7.2Zm2.8.6v-6h.7v6h-.7Zm3.6 0a1.8 1.8 0 0 1-1.7-1c-.2-.3-.2-.7-.2-1.1 0-.5 0-.9.2-1.2l.7-.8 1-.2c.3 0 .7 0 1 .2l.6.8.2 1v.3h-3.4v-.5h3l-.3.5v-.3l-.1-.8a1 1 0 0 0-1-.6l-.7.1-.4.5-.1.8v.3l.1.8.4.5.7.1h.5l.4-.3.1-.2h.7c0 .1 0 .3-.2.4l-.3.4-.5.2-.7.1Zm3.2 0s-.2 0-.3-.2a.5.5 0 0 1-.2-.3c0-.2 0-.3.2-.4l.3-.1.4.1.2.4-.2.3-.4.2Zm3.3 0a1.8 1.8 0 0 1-1.7-1c-.2-.3-.3-.7-.3-1.1 0-.5.1-.9.3-1.2l.6-.8a2 2 0 0 1 1-.2c.5 0 .8 0 1.1.2l.7.8.2 1.1c0 .5 0 .9-.2 1.2a1.7 1.7 0 0 1-1.7 1Zm0-.6c.2 0 .5 0 .7-.2l.4-.5.1-.8-.1-1-.4-.4c-.2-.2-.5-.2-.7-.2-.3 0-.5 0-.7.2-.2 0-.3.3-.4.5l-.2.8c0 .4 0 .7.2.9 0 .2.2.4.4.5.2.2.4.2.7.2Zm2.8.6v-4.3h.7v.7c.1-.3.3-.4.5-.5.2-.2.4-.2.7-.2a1.7 1.7 0 0 1 .3 0v.7a1.9 1.9 0 0 0-.4 0h-.6a1 1 0 0 0-.4.4l-.1.5v2.7h-.7Zm4.5 1.4-.9-.1-.6-.4-.2-.6h.7c0 .2.1.3.3.4l.7.1c.4 0 .7 0 1-.2l.2-.7v-.9a1.4 1.4 0 0 1-.8.7h-.5c-.4 0-.7 0-1-.2-.3-.2-.5-.4-.6-.7l-.2-1c0-.5 0-.8.2-1.1l.6-.8 1-.2h.5l.5.3.3.4v-.7h.7v4.2c0 .3 0 .6-.2.8l-.7.5c-.3.2-.6.2-1 .2Zm0-2.3.7-.1.4-.5.2-.8-.2-.7c-.1-.3-.2-.4-.4-.5-.2-.2-.4-.2-.7-.2-.3 0-.5 0-.7.2-.1 0-.3.2-.4.5l-.1.7.1.8.4.5.7.1Z"/><path fill="silver" d="M141.4 177.1v-.5h1.6c.3 0 .6 0 .8-.2.2-.2.3-.4.3-.7l-.1-.4c-.1-.2-.3-.3-.4-.3a2 2 0 0 0-.7-.1h-1.5v-.6h1.3c.4 0 .7 0 .9-.2.2 0 .2-.3.2-.5 0-.3 0-.5-.2-.6a1 1 0 0 0-.7-.2h-1.5v-.6h1.6c.3 0 .6 0 .8.2a1.1 1.1 0 0 1 .7 1l-.1.5-.4.4a1 1 0 0 1-.4.2l.6.3c.2 0 .3.2.4.4l.1.6c0 .3 0 .5-.2.7-.1.2-.3.4-.6.5l-.9.1h-1.6Zm-.3 0v-4.9h.6v5h-.6Zm4.5 0V172h.6v5.1h-.6Zm3.2.1c-.4 0-.7 0-1-.2l-.5-.7c-.2-.3-.2-.6-.2-1s0-.7.2-1c.1-.3.3-.5.6-.7l.9-.2c.3 0 .6 0 .9.2l.6.7.2 1c0 .4 0 .7-.2 1a1.5 1.5 0 0 1-1.5 1Zm0-.5c.2 0 .4 0 .6-.2.1 0 .3-.2.3-.4l.2-.8c0-.3 0-.5-.2-.7a1 1 0 0 0-.3-.5 1 1 0 0 0-.6-.2 1 1 0 0 0-.6.2 1 1 0 0 0-.4.5l-.1.7.1.8.4.4.6.2Zm4 .5c-.3 0-.6 0-.9-.2l-.6-.7-.2-1 .2-1a1.6 1.6 0 0 1 1.5-.9c.3 0 .6 0 .8.2a1.4 1.4 0 0 1 .8 1h-.6c0-.2-.2-.4-.3-.5a1 1 0 0 0-.7-.2 1 1 0 0 0-1 .7v1.4l.5.5.5.2c.3 0 .5 0 .6-.2.2 0 .3-.2.4-.4h.6l-.3.6-.5.4-.8.1Zm2.4 0V172h.6v5.1h-.6Zm2.3 0-1.4-1.9.4-.3 1.8 2.1h-.8Zm-1.8-1.4v-.7h.2l1.5-1.6h.8l-1.8 1.7h-.1l-.6.6Zm6.4 1.4c-.4 0-.7-.1-.8-.3-.2-.1-.3-.4-.3-.7V174h-.6v-.5h.6v-1h.6v1h.8v.5h-.8v2c0 .3 0 .4.2.5l.4.1h.2v.5a5 5 0 0 1-.3 0Zm1.2 0V172h.6v2l.4-.4.7-.2c.3 0 .5 0 .7.2.2 0 .3.2.4.4l.2.8v2.3h-.6V175c0-.3 0-.6-.2-.7-.1-.2-.4-.3-.7-.3a1 1 0 0 0-.5.2l-.3.3-.1.6v2.1h-.6Zm4 0v-3.7h.6v3.6h-.6Zm.3-4.4c-.1 0-.2 0-.3-.2l-.1-.3.1-.2.3-.2c.1 0 .2 0 .3.2l.1.2-.1.3-.3.2Zm2.6 4.4a2 2 0 0 1-.7-.1c-.2 0-.4-.2-.5-.4a1 1 0 0 1-.2-.5h.6c0 .2.1.3.3.4l.5.1h.5l.3-.3v-.6l-.6-.2-.5-.1-.6-.2a.9.9 0 0 1-.3-.4 1 1 0 0 1-.1-.4l.1-.6.5-.4.7-.1.7.1.5.4.2.5h-.6c0-.2 0-.3-.2-.4a1 1 0 0 0-.6-.1 1 1 0 0 0-.4 0l-.2.3-.1.2v.3l.2.1.4.2.6.1c.3 0 .6.2.7.4.2.1.3.3.3.6 0 .2 0 .4-.2.6l-.5.4a2 2 0 0 1-.8.1Zm5.7 0c-.3 0-.6 0-.9-.2l-.5-.7c-.2-.3-.3-.6-.3-1s.1-.7.3-1a1.6 1.6 0 0 1 1.4-.9c.3 0 .6 0 .8.2a1.4 1.4 0 0 1 .8 1h-.6c0-.2-.2-.4-.3-.5a1 1 0 0 0-.7-.2 1 1 0 0 0-1 .7v1.4l.5.5.5.2c.3 0 .5 0 .6-.2.2 0 .3-.2.4-.4h.6l-.3.6-.5.4-.8.1Zm3.9 0c-.4 0-.7 0-1-.2l-.5-.7-.2-1c0-.4 0-.7.2-1 .1-.3.3-.5.6-.7l.9-.2c.3 0 .6 0 .9.2l.6.7.2 1c0 .4 0 .7-.2 1a1.5 1.5 0 0 1-1.5 1Zm0-.5c.2 0 .4 0 .6-.2.1 0 .3-.2.3-.4l.2-.8c0-.3 0-.5-.2-.7a1 1 0 0 0-.3-.5 1 1 0 0 0-.6-.2 1 1 0 0 0-.6.2 1 1 0 0 0-.4.5l-.1.7.1.8.4.4.6.2Zm2.5.4v-3.6h.6v.5l.5-.4.7-.2c.4 0 .7.1 1 .4l.2 1v2.3h-.6V175c0-.3 0-.6-.2-.7-.1-.2-.3-.3-.6-.3a1 1 0 0 0-.5.2c-.2 0-.3.2-.4.3v2.7h-.7Zm5.4 0c-.4 0-.7 0-.9-.2l-.2-.7V174h-.6v-.5h.6v-1h.6v1h.8v.5h-.8v2l.1.5.4.1H188v.5a5 5 0 0 1-.3 0Zm2.6.1c-.4 0-.7 0-1-.2l-.5-.7c-.2-.3-.2-.6-.2-1s0-.7.2-1c.1-.3.3-.5.6-.7l.8-.2c.4 0 .7 0 .9.2l.5.7c.2.3.2.6.2 1v.2h-3v-.5h2.7l-.3.4V174.5a1 1 0 0 0-1-.6 1 1 0 0 0-.5.2 1 1 0 0 0-.4.4l-.1.7v.2l.1.7.4.4.6.2h.4l.3-.3.2-.2h.6l-.2.4-.3.3-.4.2a2 2 0 0 1-.6.1Zm2.4 0v-3.7h.6v.5l.4-.4.7-.2c.4 0 .7.1 1 .4.2.2.3.5.3 1v2.3h-.6V175c0-.3 0-.6-.2-.7-.1-.2-.4-.3-.7-.3a1 1 0 0 0-.5.2l-.3.3-.1.6v2.1h-.6Zm5.3 0c-.4 0-.6-.1-.8-.3-.2-.1-.3-.4-.3-.7V174h-.6v-.5h.6v-1h.6v1h.9v.5h-.9v2c0 .3 0 .4.2.5l.4.1H198.4v.5a5 5 0 0 1-.4 0Z"/><path fill="#3D3D3D" d="M376.4 183.4h-232c-2 0-3.7 1.7-3.7 3.7v20c0 2.1 1.7 3.8 3.8 3.8h232c2 0 3.7-1.7 3.7-3.8v-20c0-2-1.7-3.7-3.8-3.7Z"/><path stroke="#5B5B5B" stroke-width=".5" d="M376.4 183.4h-232c-2 0-3.7 1.7-3.7 3.7v20c0 2.1 1.7 3.8 3.8 3.8h232c2 0 3.7-1.7 3.7-3.8v-20c0-2-1.7-3.7-3.8-3.7Z"/><path fill="#E4E4E4" d="m148.8 200.1 2-5.6h.6v1h-.2l-1.7 4.6h-.7Zm.9-1.6.2-.6h2.6l.2.6h-3Zm3.2 1.6-1.7-4.7v-.9h.3l2.1 5.6h-.7Zm1.5 0v-5.8h.7v5.8h-.7Zm1.9 0v-5.8h.6v5.8h-.6Z"/><path stroke="silver" stroke-linecap="round" stroke-linejoin="round" stroke-width=".7" d="m363.5 196 2.9 3.1 3-3"/><path fill="silver" d="m140.7 226.1 1.8-4.9h.5v.8h-.2l-1.4 4.1h-.7Zm.9-1.4.1-.5h2.3l.2.5h-2.6Zm2.7 1.4L143 222v-.8h.3l1.8 5h-.7Zm1.4 1.3v-5h.6v.6a1.2 1.2 0 0 1 .7-.5l.5-.1c.3 0 .6 0 .8.2l.5.7c.2.3.2.6.2 1s0 .7-.2 1c0 .3-.3.5-.5.7l-.8.2h-.5l-.4-.3-.3-.3v1.8h-.6Zm1.6-1.7c.3 0 .5 0 .6-.2l.4-.5.1-.7-.1-.8a1 1 0 0 0-.4-.4 1 1 0 0 0-.6-.2 1 1 0 0 0-.5.2 1 1 0 0 0-.4.5l-.1.7.1.7c0 .2.2.4.4.5l.5.2Zm2.6 1.7v-5h.6v.6a1.2 1.2 0 0 1 .7-.5l.5-.1c.3 0 .6 0 .8.2l.5.7c.2.3.2.6.2 1s0 .7-.2 1c0 .3-.3.5-.5.7l-.8.2h-.5l-.4-.3a1 1 0 0 1-.3-.3v1.8h-.6Zm1.6-1.7c.3 0 .5 0 .6-.2l.4-.5.1-.7-.1-.8a1 1 0 0 0-.4-.4 1 1 0 0 0-.6-.2 1 1 0 0 0-.5.2 1 1 0 0 0-.4.5l-.1.7v.7l.5.5.5.2Zm2.6.4V221h.6v5.1h-.6Zm2 1.3H155.8v-.5a1 1 0 0 0 .3 0l.4-.1.2-.4.1-.3-1.3-3.7h.6l1.1 3.5-.2-.4h.3l-.3.4 1.2-3.5h.6l-1.5 4-.3.6a1 1 0 0 1-.4.3l-.5.1Zm6.6-1.2c-.4 0-.7-.1-.8-.3-.2-.1-.3-.4-.3-.7v-2.3h-.6v-.5h.6v-.9h.6v1h.8v.4h-.8v2.1c0 .2 0 .4.2.5l.4.1a1.7 1.7 0 0 0 .2 0v.5a2.5 2.5 0 0 1-.3 0Zm1.2 0V221h.6v2l.4-.5.7-.1.7.1.5.5.1.7v2.4h-.6V224c0-.3 0-.6-.2-.7-.1-.2-.4-.3-.7-.3a1 1 0 0 0-.5.1l-.3.4-.1.6v2.1h-.6Zm5.5 0c-.3 0-.6 0-.9-.2l-.6-.7-.2-1c0-.4 0-.7.2-1l.6-.7.9-.2c.3 0 .6 0 .8.2.3.2.5.4.6.7l.2 1v.2h-3v-.5h2.7l-.3.4v-.2l-.1-.7a1 1 0 0 0-1-.6 1 1 0 0 0-.5.2 1 1 0 0 0-.3.4l-.2.7v.2c0 .3 0 .5.2.7a1 1 0 0 0 1 .6l.4-.1.3-.2.1-.2h.6l-.1.4-.4.3-.4.2a2 2 0 0 1-.6.1Zm4.3 0v-3.8h.6v.6l.4-.5.7-.1a1.5 1.5 0 0 1 .3 0v.6a2 2 0 0 0-.4 0 1 1 0 0 0-.5 0l-.4.4V226h-.7Zm3.8 0c-.2 0-.5 0-.7-.2a1 1 0 0 1-.4-.4l-.1-.8v-2.4h.6v2.3c0 .3 0 .6.2.7 0 .2.3.3.6.3l.4-.1c.2 0 .3-.1.3-.2l.2-.3v-2.7h.7v3.7h-.6v-.5l-.3.3a1 1 0 0 1-.4.2l-.5.1Zm2.9 0V221h.6v5.1h-.6Zm3.1 0c-.3 0-.6 0-.9-.2l-.6-.7-.2-1 .2-1 .6-.7.9-.2c.3 0 .6 0 .8.2.3.2.5.4.6.7l.2 1v.2h-3v-.5h2.7l-.3.4v-.2l-.1-.7a1 1 0 0 0-.4-.4 1 1 0 0 0-.5-.2 1 1 0 0 0-.6.2 1 1 0 0 0-.3.4l-.2.7v.2c0 .3 0 .5.2.7a1 1 0 0 0 1 .6l.4-.1.3-.2.1-.2h.7l-.2.4a1.4 1.4 0 0 1-.8.5 2 2 0 0 1-.6.1Zm5.6 0c-.3 0-.6-.1-.8-.3l-.2-.7v-2.3h-.6v-.5h.6v-.9h.6v1h.8v.4h-.8v2.1l.1.5.4.1a1.7 1.7 0 0 0 .3 0v.5a2.5 2.5 0 0 1-.4 0Zm2.7 0c-.4 0-.7 0-1-.2l-.5-.7c-.2-.3-.2-.6-.2-1s0-.7.2-1c.1-.3.3-.5.6-.7l.9-.2c.3 0 .6 0 .9.2l.6.7.2 1-.2 1a1.5 1.5 0 0 1-1.5.9Zm0-.5c.2 0 .4 0 .6-.2l.3-.5.2-.7c0-.3 0-.6-.2-.8a1 1 0 0 0-.3-.4 1 1 0 0 0-.6-.2 1 1 0 0 0-.6.2 1 1 0 0 0-.4.4l-.1.8.1.7c0 .2.2.4.4.5l.6.2Zm5.7.5c-.4 0-.6-.1-.8-.3-.2-.1-.3-.4-.3-.7v-2.3h-.5v-.5h.5v-.9h.7v1h.8v.4h-.8v2.6l.5.1a1.7 1.7 0 0 0 .3 0v.5a2.5 2.5 0 0 1-.4 0Zm1.2 0V221h.6v2l.5-.5.6-.1.7.1.5.5.1.7v2.4h-.6V224c0-.3 0-.6-.2-.7-.1-.2-.3-.3-.6-.3a1 1 0 0 0-.5.1l-.4.4-.1.6v2.1h-.6Zm5.5 0c-.3 0-.6 0-.9-.2l-.6-.7-.2-1 .2-1 .6-.7.9-.2c.3 0 .6 0 .8.2.3.2.5.4.6.7l.2 1v.2h-3v-.5h2.7l-.3.4v-.2l-.1-.7a1 1 0 0 0-1-.6 1 1 0 0 0-.5.2 1 1 0 0 0-.3.4l-.2.7v.2c0 .3 0 .5.2.7a1 1 0 0 0 1 .6l.4-.1.3-.2.1-.2h.7l-.2.4a1.4 1.4 0 0 1-.8.5 2 2 0 0 1-.6.1Zm3.7 0a2 2 0 0 1-.7-.1l-.5-.4a1 1 0 0 1-.2-.5h.6l.3.4.5.1h.5l.3-.3v-.6l-.6-.2-.5-.1-.6-.3a.9.9 0 0 1-.3-.3 1 1 0 0 1-.1-.4l.1-.6.5-.4.7-.1.7.1c.2 0 .4.2.5.3l.2.6h-.6c0-.2 0-.3-.2-.4a1 1 0 0 0-.6-.1 1 1 0 0 0-.4 0l-.2.2-.1.3v.3l.2.1.4.1.6.2c.3 0 .6.2.7.3.2.2.3.4.3.7 0 .2 0 .4-.2.6l-.5.4a2 2 0 0 1-.8.1Zm3.8 0c-.3 0-.6 0-.9-.2l-.6-.7-.2-1 .2-1 .6-.7.9-.2c.3 0 .6 0 .9.2l.5.7.2 1v.2h-3v-.5h2.7l-.3.4v-.2l-.1-.7a1 1 0 0 0-.4-.4 1 1 0 0 0-.5-.2 1 1 0 0 0-.5.2 1 1 0 0 0-.4.4l-.1.7V225l.5.4.5.2.5-.1.3-.2.2-.2h.6l-.2.4-.3.3-.5.2a2 2 0 0 1-.6.1Zm5 0-1-3.8h.6l.7 3h.1l.8-3h.6l.8 3 .8-3h.6l-1 3.7h-.6l-.9-2.8-.8 2.8h-.6Zm6 0c-.3 0-.6 0-.8-.2-.3-.2-.5-.4-.6-.7-.2-.3-.2-.6-.2-1s0-.7.2-1l.5-.7 1-.2c.3 0 .5 0 .8.2l.5.7c.2.2.2.6.2 1v.2h-3v-.5h2.7l-.3.4v-.2l-.1-.7a1 1 0 0 0-.9-.6 1 1 0 0 0-.5.2 1 1 0 0 0-.4.4l-.1.7v.2l.1.7a1 1 0 0 0 1 .6l.4-.1.3-.2.2-.2h.6l-.2.4a1.4 1.4 0 0 1-.8.5 2 2 0 0 1-.5.1Zm4.3 0h-.5l-.4-.3-.2-.4v.6h-.7V221h.6v2l.3-.3a1.3 1.3 0 0 1 1-.3c.2 0 .5 0 .7.2l.6.7.2 1-.2 1-.6.7-.8.2Zm-.1-.5c.2 0 .4 0 .5-.2l.4-.5.1-.7v-.8a1 1 0 0 0-.5-.4 1 1 0 0 0-.5-.2 1 1 0 0 0-.6.2 1 1 0 0 0-.4.5l-.1.7.1.7.4.5.6.2Zm3.8.5a2 2 0 0 1-.8-.1l-.5-.4a1 1 0 0 1-.2-.5h.6l.3.4.6.1h.4l.3-.3.1-.3-.1-.3-.5-.2-.6-.1a2 2 0 0 1-.5-.3.9.9 0 0 1-.4-.3 1 1 0 0 1 0-.4l.1-.6.5-.4.7-.1.7.1c.2 0 .3.2.5.3l.2.6h-.6c0-.2-.1-.3-.3-.4a1 1 0 0 0-.5-.1 1 1 0 0 0-.4 0l-.3.2v.6l.2.1.3.1.6.2c.4 0 .6.2.8.3.2.2.2.4.2.7 0 .2 0 .4-.2.6l-.5.4a2 2 0 0 1-.7.1Zm2.3 0v-3.8h.6v3.7h-.6Zm.3-4.5a.4.4 0 0 1-.4-.4l.1-.3h.6l.1.3-.1.3-.3.1Zm2.7 4.5c-.4 0-.7-.1-.9-.3l-.2-.7v-2.3h-.6v-.5h.6v-.9h.6v1h.8v.4h-.8v2.1l.1.5.4.1a1.7 1.7 0 0 0 .3 0v.5a2.5 2.5 0 0 1-.3 0Zm2.6 0c-.4 0-.7 0-1-.2l-.5-.7c-.2-.3-.2-.6-.2-1s0-.7.2-1c.1-.3.3-.5.6-.7l.8-.2c.4 0 .6 0 .9.2l.5.7c.2.2.2.6.2 1v.2h-3v-.5h2.7l-.3.4V223.5a1 1 0 0 0-1-.6 1 1 0 0 0-.5.2 1 1 0 0 0-.4.4l-.1.7v.2l.1.7a1 1 0 0 0 1 .6l.4-.1.3-.2.2-.2h.6l-.2.4a1.4 1.4 0 0 1-.8.5 2 2 0 0 1-.5.1Zm3.6 0a2 2 0 0 1-.7-.1l-.5-.4a1 1 0 0 1-.2-.5h.6l.3.4.6.1h.4l.3-.3.1-.3-.1-.3-.5-.2-.6-.1-.6-.3a.9.9 0 0 1-.3-.3 1 1 0 0 1-.1-.4c0-.2 0-.4.2-.6l.5-.4.7-.1.7.1c.2 0 .3.2.4.3l.3.6h-.6c0-.2-.1-.3-.3-.4a1 1 0 0 0-.5-.1 1 1 0 0 0-.4 0l-.3.2v.6l.2.1.3.1.6.2c.3 0 .6.2.8.3l.2.7c0 .2 0 .4-.2.6l-.5.4a2 2 0 0 1-.8.1Z"/><path fill="#3D3D3D" d="M376.4 232.4h-232c-2 0-3.7 1.7-3.7 3.7v20c0 2 1.7 3.8 3.8 3.8h232c2 0 3.7-1.7 3.7-3.8v-20c0-2-1.7-3.7-3.8-3.7Z"/><path stroke="#5B5B5B" stroke-width=".5" d="M376.4 232.4h-232c-2 0-3.7 1.7-3.7 3.7v20c0 2 1.7 3.8 3.8 3.8h232c2 0 3.7-1.7 3.7-3.8v-20c0-2-1.7-3.7-3.8-3.7Z"/><path fill="#E4E4E4" d="m148.8 249.1 2-5.6h.6v.9h-.2l-1.7 4.7h-.7Zm.9-1.6.2-.6h2.6l.2.6h-3Zm3.2 1.6-1.7-4.7v-1h.3l2.1 5.7h-.7Zm1.5 0v-5.9h.7v6h-.7Zm1.9 0v-5.9h.6v6h-.6Zm5.6.1a2 2 0 0 1-1-.3c-.3-.1-.5-.4-.7-.7l-.2-1.2c0-.4 0-.8.2-1.1.2-.4.4-.6.7-.8a2 2 0 0 1 1-.3c.4 0 .8.1 1 .3.3.2.6.4.7.8.2.3.3.7.3 1.1 0 .5-.1.9-.3 1.2-.1.3-.4.6-.6.7a2 2 0 0 1-1 .3Zm0-.6c.3 0 .5 0 .7-.2l.4-.5.2-.9c0-.3 0-.6-.2-.8 0-.3-.2-.4-.4-.6l-.7-.2-.7.2-.4.6-.1.8.1.9.4.5.7.2Zm4.4.6c-.5 0-.8-.1-1-.3-.2-.2-.3-.5-.3-.9v-2.5h-.6v-.6h.6v-1h.7v1h1v.6h-1v2.4c0 .2 0 .4.2.5l.4.2H166.6v.5a4.4 4.4 0 0 1-.3 0Zm1.2 0v-6h.7v2.3l.6-.5.7-.2.8.2c.2.1.4.3.5.6l.2.8v2.7h-.7v-2.5c0-.4 0-.7-.2-.9-.2-.2-.4-.3-.8-.3-.2 0-.4 0-.6.2a1 1 0 0 0-.3.4l-.2.6v2.5h-.7Zm6.3 0a1.8 1.8 0 0 1-1.7-1c-.2-.3-.2-.7-.2-1.2 0-.4 0-.8.2-1.1l.6-.8c.3-.2.7-.3 1-.3.4 0 .7.1 1 .3l.7.7.2 1.1v.3h-3.4v-.5h3l-.3.5v-.3c0-.3 0-.6-.2-.8a1 1 0 0 0-1-.7l-.6.2-.4.5-.2.8v.3l.2.7.4.5.7.2h.5l.3-.3.2-.2h.7l-.2.4a1.6 1.6 0 0 1-.9.6l-.6.1Zm2.7 0v-4.3h.7v.6l.4-.5.7-.2h.4v.7a2 2 0 0 0-.4 0l-.6.1a1 1 0 0 0-.4.4l-.1.5v2.6h-.7Z"/><path stroke="silver" stroke-linecap="round" stroke-linejoin="round" stroke-width=".7" d="m363.5 245 2.9 3.1 3-3"/><path fill="#67B279" d="M151.5 283.1h-10v-10h10v10Zm-2.3-6.8a.4.4 0 0 0-.5 0l-2.7 3.3-1.7-1.8a.4.4 0 0 0-.6.5l2.3 2.4 3.3-3.8v-.6Z"/><path fill="#E4E4E4" d="M161 281.2c-.4 0-.7 0-1-.2-.3 0-.6-.3-.8-.5l-.3-.8h.7c0 .2.1.3.3.5l.5.3a2.2 2.2 0 0 0 1.4 0l.4-.4c.2-.1.2-.3.2-.5s0-.4-.2-.6l-.9-.3-.6-.2c-.6 0-1-.3-1.2-.5-.3-.3-.4-.6-.4-1s0-.6.2-.9l.7-.5c.3-.2.7-.3 1-.3.4 0 .8.1 1 .3.3 0 .6.3.7.5.2.2.3.5.3.8h-.7c0-.2 0-.4-.2-.5l-.4-.3-.7-.1-.6.1a1 1 0 0 0-.4.3l-.2.5c0 .3 0 .4.2.6.2.1.5.3.9.3l.6.2c.4 0 .7.2 1 .3l.5.5.1.7c0 .4 0 .7-.2 1l-.7.5c-.4.2-.7.2-1.1.2Zm4.8 0a1.8 1.8 0 0 1-1.7-1c-.2-.4-.2-.7-.2-1.2 0-.4 0-.8.2-1.1l.6-.8c.3-.2.7-.3 1-.3.4 0 .8.1 1 .3l.7.7.2 1.1v.3h-3.4v-.5h3l-.3.5v-.3c0-.3 0-.6-.2-.8a1 1 0 0 0-.4-.5l-.6-.2c-.2 0-.4 0-.6.2l-.4.5-.2.8v.3l.2.7a1.1 1.1 0 0 0 1.1.7h.5l.3-.3.2-.2h.7l-.2.4-.3.3-.5.3h-.7Zm4.2 0c-.5 0-.8-.1-1-.3-.2-.2-.3-.5-.3-.9v-2.5h-.6v-.6h.6v-1h.7v1h1v.6h-1v2.4c0 .2 0 .4.2.5l.5.1a3.2 3.2 0 0 0 .3 0v.6a7 7 0 0 1-.4 0Zm4.8 0c-.4 0-.7-.1-1-.3l-.2-.9v-2.5h-.7v-.6h.7v-1h.7v1h1v.6h-1v2.4l.1.5.5.1a3.2 3.2 0 0 0 .3 0v.6a6.5 6.5 0 0 1-.4 0Zm3 0a2 2 0 0 1-1-.3c-.4-.1-.6-.4-.8-.7l-.2-1.2c0-.4 0-.8.2-1.2l.7-.7a2 2 0 0 1 1-.3c.5 0 .8.1 1 .3.4.2.6.4.8.7l.2 1.2c0 .5 0 .8-.2 1.2a1.7 1.7 0 0 1-1.8 1Zm0-.6c.2 0 .4 0 .6-.2.2-.1.4-.3.4-.5l.2-.9c0-.3 0-.6-.2-.8 0-.3-.2-.5-.4-.6l-.7-.2-.6.2c-.2.1-.4.3-.5.6l-.1.8.1.9.5.5.7.2Zm5 .5v-5.9h.6v2.3l.5-.5.8-.2c.3 0 .6 0 .8.2l.5.5.2.9v2.7h-.7v-2.5c0-.4-.1-.7-.3-.9-.1-.2-.4-.3-.7-.3-.2 0-.4 0-.6.2a1 1 0 0 0-.4.4l-.1.6v2.5h-.7Zm4.5 0V277h.6v4.2h-.6Zm.3-5-.3-.1-.2-.4c0-.1 0-.2.2-.3l.3-.1h.3l.2.4c0 .2 0 .3-.2.4h-.3Zm3.2 6.5-.9-.1-.6-.4-.3-.6h.7l.4.3.7.2c.4 0 .7 0 .9-.3.2-.1.3-.4.3-.7v-.8a1.4 1.4 0 0 1-.8.6l-.6.1c-.3 0-.7 0-1-.3-.2-.1-.4-.4-.5-.7-.2-.3-.3-.6-.3-1s.1-.8.3-1c.1-.4.3-.6.6-.8.2-.2.6-.3 1-.3l.5.1.4.3c.1.1.3.2.3.4v-.7h.8v4.2c0 .3-.1.5-.3.8-.1.2-.3.4-.6.5l-1 .2Zm0-2.3c.2 0 .4 0 .6-.2l.5-.5.1-.7-.1-.8-.5-.5-.6-.2c-.3 0-.5 0-.7.2l-.4.5-.2.8c0 .3 0 .5.2.7 0 .2.2.4.4.5l.7.2Zm3 .8v-5.9h.7v2.3l.5-.5.8-.2c.3 0 .6 0 .8.2l.5.5.2.9v2.7h-.7v-2.5c0-.4-.1-.7-.3-.9-.1-.2-.4-.3-.7-.3-.2 0-.4 0-.6.2a1 1 0 0 0-.4.4l-.1.6v2.5h-.7Zm6.6 1.4V277h.7v.7l.4-.4.4-.3h.6c.3 0 .6 0 1 .2.2.2.4.4.5.8.2.3.2.7.2 1.1 0 .5 0 .8-.2 1.2-.1.3-.3.5-.6.7-.3.2-.6.3-1 .3l-.5-.1-.4-.3-.3-.3v2h-.8Zm2-2 .6-.1.4-.5.2-.9-.2-.8c0-.3-.2-.4-.4-.6l-.7-.2-.6.2c-.2.2-.4.3-.5.6l-.1.8.1.9.5.5.6.2Zm2.8.6V277h.6v.6h.1c0-.2.2-.4.4-.5l.7-.2h.4v.7a1.9 1.9 0 0 0-.5 0l-.5.1a1 1 0 0 0-.4.4l-.2.5v2.6h-.6Zm2.9 0V277h.6v4.2h-.6Zm.3-5-.3-.1-.2-.4c0-.1 0-.2.2-.3l.3-.1h.3l.2.4c0 .2 0 .3-.2.4h-.3Zm3.2 5a2 2 0 0 1-1-.2c-.3-.1-.6-.4-.7-.7-.2-.4-.2-.7-.2-1.2 0-.4 0-.8.2-1.2.1-.3.4-.5.7-.7a2 2 0 0 1 1-.3c.4 0 .7.1 1 .3l.7.7c.2.4.2.8.2 1.2 0 .5 0 .8-.2 1.2a1.7 1.7 0 0 1-1.7 1Zm0-.5c.3 0 .5 0 .7-.2l.4-.5.1-.9-.1-.8c-.1-.3-.2-.5-.4-.6l-.7-.2-.7.2c-.2.1-.3.3-.4.6l-.2.8.2.9c0 .2.2.4.4.5l.7.2Zm2.8.5V277h.7v.6l.5-.5.7-.2H216.6v.7a1.9 1.9 0 0 0-.4 0l-.5.1a1 1 0 0 0-.4.4l-.2.5v2.6h-.7Zm3 0V277h.6v4.2h-.7Zm.3-5-.3-.1-.2-.4c0-.1 0-.2.2-.3l.3-.1h.3l.2.4c0 .2 0 .3-.2.4h-.3Zm3 5c-.5 0-.8 0-1-.2-.2-.2-.3-.5-.3-.9v-2.5h-.7v-.6h.7v-1h.7v1h1v.6h-1v2.4c0 .2 0 .4.2.5l.4.1a3.2 3.2 0 0 0 .3 0v.6a6.6 6.6 0 0 1-.4 0Zm1.6 1.5a1.7 1.7 0 0 1-.3 0v-.6h.2l.5-.1.3-.5v-.3l-1.5-4.2h.8l1.3 3.9-.3-.4h.3l-.3.4 1.3-3.9h.7l-1.6 4.5a3 3 0 0 1-.4.7 1 1 0 0 1-.4.4h-.6Z"/><path stroke="silver" stroke-linecap="round" stroke-linejoin="round" stroke-width=".7" d="M151 302.1h-9v9h9v-9Z" clip-rule="evenodd"/><path fill="#E4E4E4" d="m158.8 309.6 2-5.6h.6v.9h-.2l-1.7 4.7h-.7Zm.9-1.6.2-.6h2.6l.2.6h-3Zm3.2 1.6-1.7-4.7v-1h.3l2.1 5.7h-.7Zm2.8 0a1.6 1.6 0 0 1-1.6-1l-.2-1v-.1c0-.4 0-.8.2-1.2l.6-.7c.3-.2.6-.3 1-.3a1.6 1.6 0 0 1 1 .4l.3.4v-2.4h.7v6h-.7v-.8a1.4 1.4 0 0 1-1.3.8Zm.1-.5c.3 0 .5 0 .7-.2.2-.1.3-.3.4-.6l.2-.8c0-.3 0-.6-.2-.8 0-.3-.2-.5-.4-.6l-.7-.2c-.2 0-.4 0-.6.2-.2.1-.4.3-.5.6v1.6c.1.3.3.5.5.6l.6.2Zm4.6.6a1.6 1.6 0 0 1-1.5-1c-.2-.4-.2-.8-.2-1.2 0-.4 0-.8.2-1.2.1-.3.3-.5.6-.7.3-.2.6-.3 1-.3a1.6 1.6 0 0 1 1 .4l.2.4h.1v-2.4h.7v6h-.7v-.8l-.4.4a1.4 1.4 0 0 1-1 .4Zm.2-.6c.2 0 .5 0 .6-.2.2-.1.4-.3.5-.6l.1-.8-.1-.8c-.1-.3-.3-.5-.5-.6l-.6-.2c-.3 0-.5 0-.7.2-.2.1-.3.3-.4.6l-.1.8.1.8c.1.3.2.5.4.6l.7.2Zm6.9.6c-.4 0-.8-.1-1-.3-.4-.2-.6-.4-.7-.8-.2-.3-.3-.7-.3-1.1 0-.5.1-.8.3-1.2a1.8 1.8 0 0 1 1.6-1c.4 0 .7 0 1 .2a1.6 1.6 0 0 1 .8 1.2h-.7a1 1 0 0 0-.3-.6l-.8-.2a1.1 1.1 0 0 0-1 .8 2 2 0 0 0-.2.8c0 .3 0 .6.2.8 0 .3.2.5.4.6l.6.2c.3 0 .6 0 .7-.2.2-.1.4-.3.4-.5h.7l-.3.7-.6.4a2 2 0 0 1-.8.2Zm4.3 0a2 2 0 0 1-1-.3c-.3-.2-.6-.4-.7-.7-.2-.4-.3-.7-.3-1.2s.1-.8.3-1.2a1.8 1.8 0 0 1 1.7-1c.4 0 .7.1 1 .3l.7.7.2 1.2c0 .5 0 .8-.2 1.2a1.7 1.7 0 0 1-1.7 1Zm0-.6c.2 0 .5 0 .7-.2l.4-.5.1-.9-.1-.9-.4-.5-.7-.2c-.3 0-.5 0-.7.2l-.4.5-.2.9c0 .3 0 .6.2.9 0 .2.2.4.4.5l.7.2Zm2.8.5v-4.2h.7v.6a1.1 1.1 0 0 1 1.2-.7l.5.1c.2 0 .3.2.4.3l.3.4.3-.4.5-.3h1.2c.2.2.4.3.5.6l.2.7v3h-.7v-2.8l-.1-.6-.3-.3a1 1 0 0 0-.5 0 1 1 0 0 0-.9.5v3.1h-.8v-3.3l-.4-.3a1 1 0 0 0-.4 0h-.5a1 1 0 0 0-.4.5l-.1.5v2.6h-.7Zm6.8 0v-4.2h.7v.6l.5-.5.7-.2.5.1c.2 0 .3.2.4.3l.3.4.3-.4.5-.3h1.2c.2.2.4.3.5.6l.2.7v3h-.7v-2.8l-.1-.6-.3-.3a1 1 0 0 0-.5 0 1 1 0 0 0-.9.5v3.1h-.8v-3.3l-.4-.3a1 1 0 0 0-.4 0h-.5a1 1 0 0 0-.4.5l-.1.5v2.6h-.7Zm8.5 0a2 2 0 0 1-1-.2l-.7-.7-.2-1.2c0-.4 0-.8.2-1.1.2-.4.4-.6.7-.8.3-.2.6-.3 1-.3s.7.1 1 .3c.3.2.5.4.6.7.2.3.2.7.2 1.1v.3h-3.3v-.5h3l-.3.4v-.2c0-.3 0-.6-.2-.8a1 1 0 0 0-1-.7c-.2 0-.4 0-.6.2l-.4.5-.2.8v.3c0 .2 0 .5.2.7 0 .2.2.4.4.5l.7.2.5-.1.3-.2.2-.2h.7l-.2.4-.4.3-.5.3h-.7Zm2.7 0v-4.2h.7v.6l.5-.5.8-.2c.5 0 .8.2 1.1.4.3.3.4.7.4 1.2v2.7h-.7V307c0-.3 0-.6-.2-.8-.2-.2-.4-.3-.8-.3-.2 0-.4 0-.6.2a1 1 0 0 0-.3.4l-.2.6v2.5h-.7Zm6 0c-.4 0-.7 0-.9-.2-.2-.2-.3-.5-.3-.9V306h-.6v-.6h.6v-1h.7v1h1v.6h-1v2.3c0 .3 0 .5.2.6l.4.1a3.2 3.2 0 0 0 .3 0v.6a4.4 4.4 0 0 1-.3 0Z"/><path fill="silver" d="M141.1 333.1v-5h2c.2 0 .5.1.7.3.3 0 .5.2.6.5l.2.7c0 .4-.1.7-.3 1l-.7.5 1.1 2h-.7l-1-2h-1.3v2h-.6Zm.6-2.5h1.3c.3 0 .5 0 .7-.2.2-.2.2-.4.2-.7 0-.3 0-.6-.2-.7a1 1 0 0 0-.8-.3h-1.2v1.9Zm5 2.6c-.2 0-.4 0-.6-.2a1 1 0 0 1-.4-.5l-.2-.7v-2.4h.6v2.3c0 .3 0 .5.2.7.1.2.3.2.6.2h.5l.3-.2.2-.4v-2.6h.6v3.7h-.6v-.6c0 .2-.2.3-.3.4a1 1 0 0 1-.3.2h-.5Zm2.9-.1V328h.6v5.1h-.6Zm3.2 0c-.4 0-.7 0-1-.2-.2-.1-.4-.3-.5-.6-.2-.3-.2-.6-.2-1s0-.7.2-1l.5-.7c.3-.2.6-.2 1-.2.3 0 .5 0 .8.2l.5.6c.2.3.2.6.2 1v.2h-3v-.4h2.7l-.3.4v-.2l-.1-.8a1 1 0 0 0-.4-.4 1 1 0 0 0-.5-.1 1 1 0 0 0-.5.1 1 1 0 0 0-.4.5l-.1.7v.2l.1.7a1 1 0 0 0 1 .5h.4l.3-.2.2-.2h.6l-.2.3a1.4 1.4 0 0 1-.8.6 2 2 0 0 1-.5 0Zm4.3 1.2v-4.9h.6v.6a1.2 1.2 0 0 1 .7-.6h.5c.3 0 .5 0 .8.2.2.1.4.4.5.7l.2 1c0 .3 0 .7-.2 1-.1.3-.3.5-.5.6-.3.2-.5.3-.8.3l-.5-.1-.4-.2-.3-.4v1.8h-.6Zm1.6-1.7.6-.1.4-.5.1-.7-.1-.8a1 1 0 0 0-.4-.5 1 1 0 0 0-.6-.1 1 1 0 0 0-1 .6v1.5l.5.5.5.1Zm2.6.5v-3.7h.6v.6c0-.2.2-.4.4-.5l.6-.1h.2v.6a2 2 0 0 0-.3 0 1 1 0 0 0-.5 0l-.3.3-.1.5v2.3h-.6Zm4 0c-.4 0-.7 0-1-.2-.2-.1-.4-.3-.5-.6-.2-.3-.2-.6-.2-1s0-.7.2-1l.5-.7c.3-.2.6-.2 1-.2.3 0 .5 0 .8.2l.5.6c.2.3.2.6.2 1v.2h-3v-.4h2.7l-.3.4v-.2l-.1-.8a1 1 0 0 0-.4-.4 1 1 0 0 0-.5-.1 1 1 0 0 0-.5.1 1 1 0 0 0-.4.5l-.1.7v.2l.1.7a1 1 0 0 0 1 .5h.4l.3-.2.2-.2h.6l-.2.3a1.4 1.4 0 0 1-.8.6 2 2 0 0 1-.5 0Zm3.3 0-1.3-3.7h.6l1 3 1-3h.7l-1.4 3.7h-.6Zm2.7 0v-3.7h.6v3.7h-.6Zm.3-4.4-.3-.1v-.6l.3-.1.3.1.1.3v.3l-.4.1Zm2.9 4.5c-.4 0-.7-.1-1-.3-.2-.1-.4-.3-.5-.6l-.2-1c0-.4 0-.7.2-1 .1-.3.3-.5.6-.7.2-.2.5-.2.8-.2.4 0 .7 0 .9.2l.6.6.2 1v.2h-3v-.4h2.6l-.2.4v-.2c0-.3 0-.6-.2-.8a1 1 0 0 0-.3-.4 1 1 0 0 0-.6-.1 1 1 0 0 0-.5.1 1 1 0 0 0-.4.5l-.1.7v.2l.1.7.4.4.6.1h.4c.2 0 .3-.1.3-.2l.2-.2h.6c0 .1 0 .2-.2.3a1.4 1.4 0 0 1-.7.6 2 2 0 0 1-.6 0Zm3.1-.1-1-3.7h.6l.7 3 .9-3h.5l.9 3 .7-3h.6l-1 3.7h-.6l-.8-2.9-.9 2.9h-.6Zm5.1 0-.3-.1-.1-.3.1-.3.3-.2c.2 0 .3 0 .3.2l.2.3c0 .1 0 .2-.2.3l-.3.1Zm0-2.6-.3-.1-.1-.4.1-.3.3-.1.3.1.2.3c0 .2 0 .3-.2.4h-.3Z"/><path fill="#E4E4E4" d="m191.1 333.2-.9-.3-.6-.6-.2-1c0-.4 0-.7.2-1l.6-.7c.3-.2.5-.2.9-.2.3 0 .6 0 .8.2.3.1.5.4.6.6l.2 1v.2h-3v-.4h2.7l-.3.4v-.2l-.1-.8a1 1 0 0 0-.4-.4 1 1 0 0 0-.5-.1 1 1 0 0 0-.6.1 1 1 0 0 0-.3.5l-.2.7v.2c0 .2 0 .5.2.7a1 1 0 0 0 1 .5h.4l.3-.2.1-.2h.6l-.1.3-.3.4-.5.2a2 2 0 0 1-.6 0Zm2-.1 1.3-1.8-1.3-1.9h.7l.9 1.4.9-1.4h.7l-1.3 1.8 1.3 1.9h-.7l-.9-1.4-1 1.4h-.6Zm4.9 0h-.6a1 1 0 0 1-.5-.4 1 1 0 0 1-.1-.6l.1-.6.5-.4.7-.1 1.4-.1v.5h-1.3l-.6.2c-.2.1-.2.3-.2.4 0 .2 0 .4.2.5l.5.1h.6l.3-.4.2-.5v-1.1c0-.3-.1-.4-.2-.5-.2-.2-.4-.2-.7-.2a1 1 0 0 0-.5.1l-.3.3h-.6c0-.2.1-.3.3-.5l.5-.3.7-.1.7.1.5.4.2.7v2.5h-.6v-.5a1.2 1.2 0 0 1-.7.5h-.5Zm2.8 0v-3.7h.6v.6l.4-.5.6-.1h.5l.3.3.2.3.4-.3.3-.3h1.2l.4.5v3.2h-.5v-2.9l-.3-.2-.5-.1h-.4l-.3.4-.1.4v2.4h-.6v-2.5l-.1-.4-.3-.2-.4-.1-.4.1a1 1 0 0 0-.3.3l-.1.5v2.3h-.6Zm6 1.2v-4.9h.6v.6a1.2 1.2 0 0 1 .7-.6h.5c.3 0 .6 0 .8.2.2.1.4.4.5.7.2.2.2.6.2 1 0 .3 0 .7-.2 1 0 .3-.3.5-.5.6-.2.2-.5.3-.8.3l-.5-.1-.4-.2-.3-.4v1.8h-.6Zm1.7-1.7.5-.1.4-.5.1-.7-.1-.8a1 1 0 0 0-1-.6 1 1 0 0 0-.9.6l-.1.8.1.7c0 .2.2.4.4.5l.6.1Zm2.5.5V328h.6v5.1h-.6Zm3.2 0c-.4 0-.7 0-1-.2-.2-.1-.4-.3-.5-.6l-.2-1c0-.4 0-.7.2-1 .1-.3.3-.5.6-.7.2-.2.5-.2.8-.2.4 0 .7 0 1 .2l.5.6.2 1v.2h-3v-.4h2.7l-.3.4v-.2c0-.3 0-.6-.2-.8a1 1 0 0 0-.9-.5 1 1 0 0 0-.5.1 1 1 0 0 0-.4.5V332a1 1 0 0 0 1 .5h.4c.2 0 .3-.1.3-.2l.2-.2h.6c0 .1 0 .2-.2.3a1.4 1.4 0 0 1-.7.6 2 2 0 0 1-.6 0Zm2.9 0-.3-.1-.2-.3c0-.1 0-.2.2-.3l.3-.2c.1 0 .2 0 .3.2l.1.3a.4.4 0 0 1-.4.4Zm2.9 0c-.4 0-.7 0-1-.2-.2-.1-.4-.3-.5-.6l-.2-1c0-.4 0-.8.2-1 .1-.3.3-.6.6-.7.2-.2.5-.2.9-.2.3 0 .6 0 .9.2l.6.6.2 1c0 .5 0 .8-.2 1a1.5 1.5 0 0 1-1.5 1Zm0-.5.6-.1c.1-.1.3-.3.3-.5l.2-.7c0-.3 0-.6-.2-.8a1 1 0 0 0-.3-.5 1 1 0 0 0-.6-.1 1 1 0 0 0-.6.1 1 1 0 0 0-.4.5l-.1.8.1.7.4.5.6.1Zm2.5.5v-3.7h.6v.6l.4-.5.7-.1H224.5v.6a2 2 0 0 0-.4 0 1 1 0 0 0-.5 0l-.4.3v2.8h-.7Zm4 1.3-.7-.1-.6-.4a1 1 0 0 1-.2-.5h.6l.3.3.6.2c.4 0 .6-.1.8-.3.2-.1.3-.3.3-.6v-.7a1.2 1.2 0 0 1-.7.5l-.5.1c-.3 0-.6 0-.8-.2l-.6-.6-.2-1 .2-.9c.2-.3.3-.5.6-.6.2-.2.5-.2.8-.2h.5l.4.3.2.3v-.6h.7v3.6c0 .3 0 .6-.2.8l-.6.4a2 2 0 0 1-.9.2Zm0-2c.2 0 .4 0 .6-.2.2 0 .3-.2.4-.4l.1-.7-.1-.6a1 1 0 0 0-.4-.5 1 1 0 0 0-.6-.1 1 1 0 0 0-.6.1 1 1 0 0 0-.3.5l-.2.6c0 .3 0 .5.2.7 0 .2.2.3.3.4l.6.2Z"/><path fill="#67B279" d="M186.2 334.3v-6.1h.6v6.1h-.6Zm1.8 0v-6.1h.5v6.1h-.5Zm47.2-1.3-.8-.1-.7-.5-.2-.7h.6l.1.4.4.3h1.2c.2 0 .3-.2.4-.3v-.8l-.8-.4h-.5l-.7-.3-.4-.5a1 1 0 0 1-.2-.5c0-.3 0-.5.2-.7.2-.2.3-.4.6-.5l.8-.2.8.2c.3.1.4.3.6.5l.2.7h-.6l-.1-.5-.4-.2-.5-.1h-.5l-.4.4-.1.3v.3l.3.3.5.2h.5l1 .5c.3.2.4.5.4.9 0 .3-.1.5-.3.7-.1.2-.3.4-.6.5l-.8.1Zm-.2.6v-6h.4v6h-.4Zm39.3-.5v-3.7h.6v3.7h-.6Zm.3-4.4-.3-.1v-.6l.3-.1.3.1.1.3a.4.4 0 0 1-.4.4Zm1.4 4.4v-3.7h.6v.6c0-.2.2-.4.4-.5l.6-.1h.4c.2 0 .3.2.4.3l.2.3.3-.3.4-.3h1.1l.4.5.2.7v2.5h-.6v-2.4l-.1-.5s-.1-.2-.3-.2a1 1 0 0 0-.4-.1h-.4l-.3.4-.1.4v2.4h-.6v-2.5l-.1-.4-.3-.2a.9.9 0 0 0-.8 0c-.2 0-.3.2-.3.3l-.1.5v2.3h-.6Zm6 1.2v-4.9h.6v.6a1.2 1.2 0 0 1 .7-.6h.5c.3 0 .6 0 .8.2.2.1.4.4.5.7l.2 1c0 .3 0 .7-.2 1-.1.3-.3.5-.5.6-.3.2-.5.3-.8.3l-.5-.1-.4-.2-.3-.4v1.8h-.6Zm1.6-1.7.6-.1.4-.5.1-.7-.1-.8a1 1 0 0 0-.4-.5 1 1 0 0 0-.6-.1 1 1 0 0 0-.5.1 1 1 0 0 0-.4.5l-.1.8v.7l.5.5.5.1Zm4 .6c-.3 0-.6-.1-.8-.3-.3-.1-.5-.3-.6-.6l-.2-1c0-.4 0-.8.2-1 .1-.3.3-.6.6-.7.2-.2.5-.2.9-.2.3 0 .6 0 .9.2l.6.6.2 1c0 .5 0 .8-.2 1a1.5 1.5 0 0 1-1.5 1Zm0-.6.7-.1c.1-.1.3-.3.3-.5l.2-.7c0-.3 0-.6-.2-.8a1 1 0 0 0-.3-.5 1 1 0 0 0-.6-.1 1 1 0 0 0-.6.1 1 1 0 0 0-.4.5l-.1.8.1.7.4.5.6.1Zm2.6.5v-3.7h.6v.6l.4-.5.7-.1H292.2v.6a2 2 0 0 0-.4 0 1 1 0 0 0-.5 0l-.4.3v2.8h-.7Zm4 0c-.4 0-.7 0-.8-.2-.2-.2-.3-.4-.3-.8V330h-.6v-.5h.6v-1h.6v1h.8v.5h-.8v2c0 .3 0 .5.2.6l.4.1h.2v.5a2.5 2.5 0 0 1-.3 0Zm2.2 0h-.7a1 1 0 0 1-.4-.4 1 1 0 0 1-.2-.6c0-.3 0-.4.2-.6 0-.2.2-.3.4-.4l.8-.1 1.3-.1v.5h-1.3l-.6.2-.2.4c0 .2.1.4.3.5l.5.1h.5l.4-.4.1-.5v-1.1c0-.3 0-.4-.2-.5-.1-.2-.3-.2-.6-.2a1 1 0 0 0-.5.1c-.2 0-.3.2-.3.3h-.6c0-.2 0-.3.2-.5l.5-.3.7-.1.8.1.5.4.1.7v2.5h-.6v-.5a1.2 1.2 0 0 1-.7.5h-.4Zm2.7 0v-3.7h.6v.6l.5-.5.7-.1c.4 0 .7 0 1 .3l.2 1v2.4h-.5v-2.2c0-.4-.1-.6-.3-.8l-.6-.2a1 1 0 0 0-.5.1c-.2 0-.3.2-.4.4v2.7h-.7Zm5.4 0c-.4 0-.7 0-.9-.2l-.2-.8V330h-.6v-.5h.6v-1h.6v1h.8v.5h-.8v2l.1.6.4.1H304.8v.5a2.5 2.5 0 0 1-.3 0Z"/><path fill="#F67247" d="M229.7 330.3h-.6l1.5-2.1h.5l1.5 2.1h-.6l-1.3-1.9h.3l-1.3 2Zm9.5 2.8c-.4 0-.7 0-.8-.2-.2-.2-.3-.4-.3-.8V330h-.6v-.5h.6v-1h.6v1h.8v.5h-.8v2l.1.6.5.1h.2v.5a2.5 2.5 0 0 1-.3 0Zm1.2 0V328h.6v2l.4-.5.7-.1.7.1.4.5.2.7v2.4h-.6v-2.2c0-.4 0-.6-.2-.8l-.7-.2a1 1 0 0 0-.5.1l-.3.4-.1.5v2.2h-.6Zm4 0v-3.7h.6v3.7h-.6Zm.3-4.4-.3-.1-.1-.3.1-.3.3-.1.3.1.1.3-.1.3-.3.1Zm1.3 4.4v-3.7h.6v.6l.4-.5.7-.1H248v.6a2 2 0 0 0-.4 0 1 1 0 0 0-.5 0l-.3.3-.2.5v2.3h-.6Zm3.9 0c-.3 0-.6 0-.8-.2-.3-.1-.4-.3-.6-.6l-.2-1 .2-1c.2-.3.3-.6.6-.7.2-.2.5-.2.8-.2a1.4 1.4 0 0 1 .9.3l.2.3v-2h.7v5.1h-.6v-.6a1.3 1.3 0 0 1-1.2.7Zm.1-.5.6-.1.4-.5.1-.7-.1-.8a1 1 0 0 0-.4-.5 1 1 0 0 0-.6-.1 1 1 0 0 0-.6.1 1 1 0 0 0-.3.5l-.1.8v.7l.4.5.6.1Zm2.7-1.2v-.6h2.3v.6h-2.3Zm3.3 3v-5h.6v.6a1.2 1.2 0 0 1 .7-.6h.5c.3 0 .6 0 .8.2.2.1.4.4.5.7.2.2.2.6.2 1 0 .3 0 .7-.2 1-.1.3-.3.5-.5.6-.2.2-.5.3-.8.3l-.5-.1-.4-.2-.3-.4v1.8h-.6Zm1.6-1.8.6-.1.4-.5.1-.7-.1-.8a1 1 0 0 0-.4-.5 1 1 0 0 0-.6-.1 1 1 0 0 0-.5.1 1 1 0 0 0-.4.5l-.1.8v.7l.5.5.5.1Zm3.6.6c-.2 0-.5 0-.6-.2a1 1 0 0 1-.5-.3 1 1 0 0 1-.1-.6l.1-.6.5-.4.7-.1 1.4-.1v.5h-1.3l-.6.2c-.2.1-.2.3-.2.4 0 .2 0 .4.2.5l.5.1h.5l.4-.4.2-.5v-1.1c0-.3-.1-.4-.3-.5 0-.2-.3-.2-.6-.2l-.5.1c-.2 0-.3.2-.3.3h-.6l.2-.5.5-.3.7-.1.8.1.5.4.1.7v2.5h-.5v-.5h-.1a1.2 1.2 0 0 1-.7.5h-.4Zm2.8-.1v-3.7h.6v.6c0-.2.2-.4.4-.5l.6-.1h.2v.6a2 2 0 0 0-.3 0 1 1 0 0 0-.5 0l-.3.3-.1.5v2.3h-.6Zm4 0c-.4 0-.7 0-.9-.2-.2-.2-.2-.4-.2-.8V330h-.6v-.5h.6v-1h.6v1h.8v.5h-.8v2.6l.5.1H268.3v.5a2.5 2.5 0 0 1-.4 0Zm1.4 1.3a1.6 1.6 0 0 1-.3 0v-.5h.2l.5-.1.3-.5v-.2l-1.3-3.7h.6l1.1 3.4-.2-.4h.3l-.3.4 1.2-3.4h.6l-1.4 4-.4.6a1 1 0 0 1-.3.3h-.6Zm2.7 0 .3-2h.7l-.5 2h-.5Z"/><path fill="#67B279" d="M248.5 349h-104a4 4 0 0 0-4 4v16a4 4 0 0 0 4 4h104a4 4 0 0 0 4-4v-16a4 4 0 0 0-4-4Z"/><path fill="#fff" d="M187.9 363.7c-.5 0-1 0-1.3-.3a2 2 0 0 1-.7-.9c-.2-.4-.3-.8-.3-1.4 0-.5 0-1 .3-1.4a2 2 0 0 1 2-1.2c.3 0 .7.1 1 .3.3.1.5.3.7.6.2.2.3.5.3.9h-.8a1.2 1.2 0 0 0-1.3-1c-.2 0-.5 0-.7.2l-.5.7-.1 1 .1.9.5.6c.2.2.5.3.8.3.2 0 .3 0 .5-.2.2 0 .3-.1.4-.3l.3-.4h.8a1.8 1.8 0 0 1-1 1.4l-1 .2Zm2.9-.1v-3.7h.8v.5l.4-.4.6-.2h.4v.8a1.6 1.6 0 0 0-.5 0 1 1 0 0 0-.4 0l-.4.4v2.6h-1Zm4.3 0c-.4 0-.7 0-1-.2l-.6-.6-.2-1c0-.5 0-.8.2-1.1a1.6 1.6 0 0 1 1.6-1l.9.3.6.7.2 1v.2h-3v-.5h2.6l-.4.5v-.3c0-.3 0-.5-.2-.7l-.3-.3a.9.9 0 0 0-.4-.2c-.2 0-.4 0-.5.2l-.3.4-.1.6V362.5l.4.4.5.1h.4l.3-.2.1-.2h.8l-.1.4-.4.3-.4.3h-.7Zm3.5 0h-.7a1 1 0 0 1-.4-.5l-.2-.6a1 1 0 0 1 .7-1h.8l1.3-.2v.6H199a1 1 0 0 0-.6.2l-.1.4c0 .2 0 .3.2.4l.4.1.5-.1.3-.3.1-.4V361c0-.1 0-.3-.2-.4l-.5-.1a1 1 0 0 0-.5 0l-.2.3h-.8l.2-.5.6-.4.8-.1.8.1.5.5.2.6v2.6h-.9v-.5l-.3.3-.4.2h-.4Zm4.4 0c-.5 0-.8 0-1-.2l-.2-.8v-2h-.6v-.7h.6v-1h.8v1h.8v.6h-.8v1.9l.1.4.4.1H203.4v.7a2.2 2.2 0 0 1-.4 0Zm2.8 0c-.4 0-.7 0-1-.2-.3-.1-.5-.4-.6-.6-.2-.3-.2-.7-.2-1 0-.5 0-.8.2-1.1a1.6 1.6 0 0 1 1.5-1c.4 0 .7.2 1 .3l.5.7c.2.3.2.6.2 1v.2h-3v-.5h2.6l-.4.5v-.3l-.1-.7-.3-.3a.9.9 0 0 0-.5-.2c-.1 0-.3 0-.4.2-.2 0-.3.2-.4.4v1.5l.4.4.5.1h.4l.2-.2.2-.2h.8l-.2.4-.3.3-.5.3h-.6Z"/><path fill="#1F1F1F" d="M376.4 349.3h-104c-2 0-3.7 1.7-3.7 3.8v16c0 2 1.7 3.7 3.8 3.7h104c2 0 3.7-1.6 3.7-3.7v-16c0-2-1.7-3.8-3.8-3.8Z"/><path stroke="#E4E4E4" stroke-width=".5" d="M376.4 349.3h-104c-2 0-3.7 1.7-3.7 3.8v16c0 2 1.7 3.7 3.8 3.7h104c2 0 3.7-1.6 3.7-3.7v-16c0-2-1.7-3.8-3.8-3.8Z"/><path fill="#E4E4E4" d="M315.5 363.7c-.5 0-.9 0-1.2-.3a2 2 0 0 1-.8-.9c-.2-.4-.3-.8-.3-1.4 0-.5.1-1 .3-1.4a2 2 0 0 1 2-1.2c.4 0 .7.1 1 .3.3.1.6.3.8.6.1.2.3.5.3.9h-.9a1.2 1.2 0 0 0-1.2-1c-.3 0-.5 0-.7.2l-.5.7-.2 1 .2.9c.1.3.3.5.5.6.2.2.4.3.7.3.2 0 .4 0 .6-.2a1.1 1.1 0 0 0 .6-.7h.9c0 .3-.2.6-.4.8a2 2 0 0 1-.7.6l-1 .2Zm4 0c-.3 0-.5 0-.7-.2a1 1 0 0 1-.4-.4l-.2-.6a1 1 0 0 1 .7-1h.7l1.4-.2v.6h-1.3a1 1 0 0 0-.5.2l-.2.4.2.4.5.1.5-.1.3-.3v-2l-.6-.1a1 1 0 0 0-.5 0l-.2.3h-.8c0-.2 0-.4.2-.5l.5-.4.8-.1.8.1c.3.1.4.3.6.5l.1.6v2.6h-.8v-.5l-.3.3-.4.2h-.5Zm2.9-.1v-3.7h.8v.5l.5-.4c.2-.2.4-.2.7-.2.4 0 .7.1 1 .3l.2 1v2.5h-.8v-2.2c0-.3 0-.5-.2-.7l-.6-.2-.4.1-.3.3v2.7h-1Zm5.8 0c-.4 0-.7 0-1-.2-.3-.1-.5-.3-.6-.6l-.2-1c0-.5 0-.8.2-1.1.1-.3.3-.5.6-.7l1-.2c.3 0 .6 0 .8.2.2 0 .4.2.6.4l.2.7h-.8c0-.2-.1-.3-.3-.5a.8.8 0 0 0-.5-.1l-.5.1a1 1 0 0 0-.3.4l-.1.7v.7l.4.4.5.2c.2 0 .4 0 .5-.2l.3-.4h.8c0 .2-.1.5-.3.7l-.5.4a2 2 0 0 1-.8.2Zm4 0c-.4 0-.8 0-1-.2-.3-.1-.5-.4-.6-.6-.2-.3-.2-.7-.2-1 0-.5 0-.8.2-1.1.1-.3.3-.5.6-.7l.9-.2c.4 0 .7 0 1 .2l.5.7.2 1v.2h-3v-.5h2.6l-.4.5v-.3l-.1-.7a.8.8 0 0 0-.8-.4h-.5l-.3.5-.1.6v.3l.1.6.3.4.6.1h.3l.3-.2.2-.2h.8l-.2.4-.3.3-.5.3h-.7Zm2.4 0v-5.2h.9v5.2h-.9Z"/><path fill="#5B5B5B" d="M400.4 14.4v-.2H.5v.5h400v-.3Z"/></svg>