<svg xmlns="http://www.w3.org/2000/svg" width="348" height="456" fill="none"><g clip-path="url(#a)"><path fill="#1F1F1F" d="M348 0H0v652.5h348V0Z"/><path fill="#1F1F1F" d="M348 0H0v70.7h348V0Z"/><path fill="#67B279" fill-rule="evenodd" d="M39.7 26.1c-4 0-9 1-13 3 0 4.4-.1 15.5 13 23.1 13.1-7.6 13-18.7 13-23.1-4-2-9-3-13-3Z" clip-rule="evenodd"/><path fill="#5B9F6B" fill-rule="evenodd" d="M39.7 26.1c-4 0-9 1-13 3 0 4.5 0 15.6 13 23.1V26.1Z" clip-rule="evenodd"/><path fill="#fff" fill-rule="evenodd" d="m39.6 42.9 7.6-10c-.6-.5-1-.2-1.4 0l-6.3 6.5-2.4-2.8c-1.1-1.3-2.6-.3-3 0l5.5 6.3Z" clip-rule="evenodd"/><path fill="#F6F6F6" fill-rule="evenodd" d="M88.3 45.1a5.8 5.8 0 0 1-6.1-6 6 6 0 0 1 6-6c1 .1 2 .2 2.6.5.7.2 1.4.6 2 1.2l-1.6 1.9-1.4-.9c-.4-.2-1-.3-1.6-.3a3 3 0 0 0-2.4 1c-.6.8-1 1.7-1 2.7 0 1 .4 1.9 1 2.6.7.7 1.5 1 2.6 1a4 4 0 0 0 2.4-.7v-1.6h-2.6v-2.2h5v5a7.5 7.5 0 0 1-5 1.8ZM61.5 33.3l-5 11.6h2.7l1-2.6h5l1 2.6h2.7l-5-11.6h-2.4Zm1.2 3 1.5 3.8h-3l1.5-3.7Zm7.5 8.6V33.4h4.5c1.8 0 3.3.5 4.5 1.6 1.1 1.1 1.7 2.5 1.7 4.2 0 1.6-.6 3-1.8 4a6.2 6.2 0 0 1-4.4 1.7h-4.5Zm4.5-2.3h-2v-7h2c1 0 1.9.4 2.5 1 .7.7 1 1.5 1 2.6 0 1-.3 1.8-1 2.5-.6.6-1.4 1-2.5 1Zm22.1 1.2a5 5 0 0 0 3.7 1.3c1.6 0 2.9-.5 3.8-1.3.9-1 1.3-2.2 1.3-4v-6.4h-2.5V40c0 .9-.2 1.6-.7 2-.4.5-1 .8-1.8.8s-1.4-.3-1.9-.8c-.4-.5-.6-1.2-.6-2v-6.6h-2.6V40c0 1.6.5 3 1.3 3.8Zm9.5 1.1 5-11.6h2.3l5 11.6H116l-1-2.6h-5l-1 2.6h-2.6Zm6.1-8.5L114 40h-3.1l1.5-3.7Zm7.5-3h5.4c1.4 0 2.6.4 3.3 1.2.7.6 1 1.5 1 2.6 0 1.8-.8 3-2.5 3.6l2.9 4.1h-3l-2.5-3.7h-2V45H120V33.4Zm5.2 5.6h-2.6v-3.3h2.5c.7 0 1.2.1 1.5.4.4.3.5.7.5 1.2s-.1 1-.5 1.2c-.3.3-.8.5-1.4.5Zm6.4-5.6h4.5c1.8 0 3.3.5 4.4 1.6 1.2 1.1 1.8 2.5 1.8 4.2 0 1.6-.6 3-1.8 4A6.2 6.2 0 0 1 136 45h-4.5V33.4Zm4.5 9.2h-2v-7h2c1 0 1.9.4 2.5 1 .7.7 1 1.5 1 2.6 0 1-.3 1.8-1 2.5-.6.6-1.4 1-2.5 1Z" clip-rule="evenodd"/><path stroke="silver" stroke-linejoin="round" stroke-width="1.5" d="M313.1 46.7h.4l1.5.7c.3 0 .5.3.6.6l.7 2h2.5l.7-2c.1-.3.3-.5.6-.6l1.5-.6c.2-.2.5-.2.8 0l2 1L326 46l-1-2a1 1 0 0 1 0-.8l.7-1.5c0-.3.3-.5.6-.6l2-.7v-2.5a22 22 0 0 0-2-.7 1 1 0 0 1-.6-.6l-.6-1.5a1 1 0 0 1 0-.8l1-2-1.8-1.7-2 1a1 1 0 0 1-.8 0l-1.5-.7a1 1 0 0 1-.6-.6l-.7-2h-2.5l-.7 2c0 .3-.3.5-.6.6l-1.5.6a1 1 0 0 1-.8 0 22 22 0 0 0-2-1l-1.7 1.8 1 2v.8l-.7 1.5c0 .3-.3.5-.6.6l-2 .7v2.5l2 .7c.3 0 .5.3.6.6l.6 1.4c.2.3.2.7 0 1l-1 1.9 1.8 1.7 2-1h.4Z" clip-rule="evenodd"/><path stroke="silver" stroke-linejoin="round" stroke-width="1.5" d="M317.6 36.2a3 3 0 1 0 0 6 3 3 0 0 0 0-6Z" clip-rule="evenodd"/><path stroke="silver" stroke-linecap="round" stroke-linejoin="round" stroke-width="1.5" d="m281.7 39.1-13 8.8V30.5l13 8.6Z" clip-rule="evenodd"/><path stroke="silver" stroke-linecap="round" stroke-width="1.5" d="M224 33.7c4-5.6 14.7-3.8 15.3 5.5v1.6M237 44.6c-3.8 5.6-14.6 3.8-15.2-5.5v-1"/><path stroke="silver" stroke-linecap="round" stroke-linejoin="round" stroke-width="1.5" d="m241.4 39.1-2.2 2.2-2.1-2.1M219.7 39.1l2.2-2.1L224 39"/><path fill="#1F1F1F" d="M348 96.8H0v79.4h348V96.8Z"/><path fill="#E4E4E4" d="M125 108.2v-.2c0-1.2.4-2.2 1-3 .6-.7 1.5-1 2.6-1 1 0 1.9.3 2.4.8.6.6.8 1.2.8 1.9h-1.3c0-.4-.2-.8-.4-1.1-.3-.3-.8-.5-1.5-.5s-1.3.3-1.6.8c-.4.6-.6 1.3-.6 2v.3c0 .8.2 1.5.6 2 .3.6.9 1 1.6 1 .7 0 1.2-.3 1.5-.6.2-.3.4-.7.4-1v-.1h1.3c0 .7-.2 1.3-.8 1.9-.5.6-1.3.8-2.4.8-1 0-2-.3-2.6-1-.6-.8-1-1.8-1-3Zm8.4 3.8v-11.4h1.4v4.6a3.2 3.2 0 0 1 2.5-1.1c.7 0 1.3.2 1.8.6.4.5.7 1.2.7 2.3v5h-1.4v-5c0-.7-.2-1.1-.4-1.4-.3-.3-.7-.4-1.2-.4a2 2 0 0 0-1.2.4c-.3.2-.6.5-.8.9v5.5h-1.4Zm8.5 0v-7.8h1.2l.1 1 .8-.9a1.8 1.8 0 0 1 1.8-.2v1.3a3 3 0 0 0-.7-.1c-.4 0-.8.1-1.1.3-.3.3-.6.6-.7 1v5.4h-1.4Zm4.6-3.8v-.2c0-1.2.3-2.2 1-3 .7-.7 1.6-1 2.7-1 1 0 2 .3 2.7 1 .6.8 1 1.8 1 3v.2c0 1.2-.4 2.2-1 3-.7.7-1.6 1-2.7 1s-2-.3-2.7-1c-.7-.8-1-1.8-1-3Zm1.4-.2v.2c0 .8.2 1.5.6 2 .4.6 1 1 1.7 1a2 2 0 0 0 1.7-1c.4-.5.5-1.2.5-2v-.2c0-.8-.1-1.5-.5-2a2 2 0 0 0-1.7-.9 2 2 0 0 0-1.7.8c-.4.6-.6 1.3-.6 2Zm7.7 4v-7.8h1.2l.1 1c.3-.4.7-.6 1-.8.4-.3.9-.4 1.4-.4.5 0 1 .1 1.3.4.4.2.7.5.9 1 .4-.5.7-.8 1.1-1 .4-.3.9-.4 1.4-.4.8 0 1.4.3 1.9.7.5.5.7 1.2.7 2.3v5h-1.4v-5c0-.7-.1-1.1-.4-1.4-.3-.3-.7-.4-1.1-.4-.5 0-.8.1-1.2.4-.3.2-.5.5-.7.9v5.5h-1.4v-5c0-.7-.1-1.1-.4-1.4-.3-.3-.7-.4-1.1-.4-.5 0-.8.1-1.2.4-.3.2-.5.5-.7.9v5.5h-1.4Zm12.6-3.8v-.2c0-1.2.4-2.2 1-3 .7-.7 1.5-1 2.6-1 1 0 1.9.3 2.4 1 .6.7.9 1.7.9 2.8v.6h-6v-1h4.6v-.3c0-.5-.2-1-.5-1.4-.3-.4-.8-.6-1.4-.6-.7 0-1.2.3-1.6.8-.4.6-.5 1.3-.5 2v.3c0 .8.1 1.5.5 2 .4.6 1 1 1.8 1a3 3 0 0 0 2.1-1.1l1 .6a3.7 3.7 0 0 1-3.1 1.5c-1.2 0-2.1-.3-2.8-1-.6-.8-1-1.8-1-3Zm8.8 3c0-.2 0-.4.2-.5.2-.2.4-.3.7-.3.3 0 .5 0 .7.3.2.1.2.3.2.6 0 .2 0 .4-.2.6-.2.2-.4.3-.7.3-.3 0-.5-.1-.7-.3a.9.9 0 0 1-.2-.6Zm0-6.2c0-.3 0-.5.2-.7l.7-.2c.3 0 .5 0 .7.2.2.2.2.4.2.7 0 .2 0 .4-.2.6-.2.2-.4.2-.7.2-.3 0-.5 0-.7-.2a.9.9 0 0 1-.2-.6Zm2.4 8 4.5-11.8h1.3l-4.5 11.7h-1.3Zm2.7 0 4.5-11.8h1.3l-4.5 11.7h-1.3Zm4.7-3.3c0-.8.3-1.4 1-1.8a4 4 0 0 1 2.3-.7h1.8v-.5c0-.5-.1-.9-.3-1.2-.3-.3-.7-.4-1.3-.4-.6 0-1 0-1.3.3-.2.3-.4.6-.4.9h-1.3c0-.6.2-1.2.8-1.6.5-.5 1.3-.7 2.2-.7 1 0 1.7.2 2.2.6.5.5.8 1.2.8 2v3.6a5.4 5.4 0 0 0 .3 1.7v.1h-1.4l-.1-.5-.2-.6c-.1.4-.4.6-.8.9a3 3 0 0 1-1.6.4 3 3 0 0 1-2-.7c-.4-.4-.7-1-.7-1.8Zm1.4 0c0 .4.1.7.4 1 .2.2.6.4 1.2.4.5 0 1-.2 1.5-.6.4-.4.6-.8.6-1.2v-1.1h-1.6c-.7 0-1.2.1-1.6.4-.3.2-.5.6-.5 1Zm7.3 5.4v-11h1.2v1.1h.1c.2-.3.5-.6 1-.8a3 3 0 0 1 1.3-.4c1 0 1.8.4 2.4 1.2.6.7 1 1.6 1 2.8v.2c0 1.2-.4 2.1-1 2.8-.6.8-1.4 1.2-2.4 1.2a3 3 0 0 1-1.3-.3l-1-.8v4h-1.3Zm1.3-5.4.8 1c.3.2.8.3 1.3.3.7 0 1.2-.2 1.6-.8.3-.5.5-1.2.5-2v-.2c0-.8-.2-1.5-.5-2-.4-.6-1-.8-1.6-.8a2 2 0 0 0-1.3.4c-.4.3-.6.6-.8 1v3Zm7.4 5.4v-11h1.2v1.1h.1c.2-.3.5-.6 1-.8a3 3 0 0 1 1.3-.4c1 0 1.8.4 2.4 1.2.6.7 1 1.6 1 2.8v.2c0 1.2-.4 2.1-1 2.8-.6.8-1.4 1.2-2.4 1.2a3 3 0 0 1-1.4-.3l-.9-.8v4h-1.3Zm1.3-5.4.8 1c.3.2.8.3 1.3.3.7 0 1.2-.2 1.6-.8.3-.5.5-1.2.5-2v-.2c0-.8-.2-1.5-.5-2-.4-.6-1-.8-1.6-.8a2 2 0 0 0-1.3.4c-.4.3-.6.6-.8 1v3Zm6.8 0h1.4c0 .5.2.8.5 1 .4.3.8.4 1.3.4.6 0 1-.1 1.3-.3.3-.2.5-.5.5-.9a1 1 0 0 0-.4-.8c-.2-.2-.8-.3-1.6-.5-.9-.2-1.5-.5-2-.9-.5-.3-.8-.8-.8-1.5 0-.6.3-1.2.8-1.6.6-.4 1.3-.6 2.2-.6.9 0 1.6.2 2.1.6.6.4.8 1 .8 1.7h-1.3a1 1 0 0 0-.4-.9c-.3-.2-.7-.3-1.2-.3-.6 0-1 .1-1.2.3a1 1 0 0 0-.4.7c0 .3.1.6.4.7l1.7.6c.9.2 1.5.5 2 .9.4.3.7.9.7 1.6 0 .7-.3 1.2-.8 1.7-.5.4-1.3.6-2.4.6-1 0-1.8-.2-2.3-.6-.6-.5-.9-1.1-.9-1.9Zm6.2 3.2 4.5-11.7h1.3l-4.5 11.7h-1.3ZM99.7 140.5v-.5h4v.4c0 1 .3 1.6.9 2 .5.5 1.3.7 2.3.7 1 0 1.7-.2 2.3-.6.5-.4.8-1 .8-1.7a2 2 0 0 0-.8-1.6c-.5-.4-1.6-.8-3.4-1.3-1.9-.5-3.4-1.2-4.3-2.1-1-.9-1.5-2-1.5-3.6s.6-3 1.8-4c1.3-.9 3-1.4 5-1.4s3.7.5 5 1.5c1.2 1 1.8 2.3 1.8 4v.4h-4v-.3c0-.8-.2-1.4-.6-1.9-.5-.4-1.2-.7-2.2-.7-1 0-1.7.2-2.1.6-.5.4-.7.9-.7 1.5s.3 1 .8 1.4c.5.3 1.6.7 3.3 1.2 2 .5 3.4 1.3 4.4 2.2a5 5 0 0 1 1.5 3.8c0 1.8-.7 3.1-2 4.1-1.2 1-3 1.5-5 1.5-2.2 0-4-.5-5.3-1.4-1.3-1-2-2.4-2-4.2Zm16-1.1v-.4c0-2 .6-3.6 1.8-4.9a6.5 6.5 0 0 1 4.8-1.8c2 0 3.5.6 4.6 1.7a6.6 6.6 0 0 1 1.7 4.8v1.3h-10.4v-2.3h6.5v-.3c0-.6-.2-1.2-.6-1.7-.4-.5-1-.7-1.8-.7-.9 0-1.6.3-2 1-.5.6-.7 1.5-.7 2.6v.9c0 1 .2 2 .7 2.7.5.6 1.3 1 2.2 1a3 3 0 0 0 1.8-.5 4 4 0 0 0 1.2-1.2l2.8 1.6c-.4.8-1 1.5-2 2-1 .6-2.3.9-3.7.9-2.2 0-3.9-.6-5-1.8a6.6 6.6 0 0 1-2-5Zm14.4 0v-.4c0-2 .6-3.7 1.8-5a6.7 6.7 0 0 1 5-1.7c1.9 0 3.4.5 4.4 1.4 1 1 1.6 2.1 1.6 3.5v.2h-3.8v-.1a2 2 0 0 0-.5-1.5c-.4-.4-1-.6-1.8-.6-.9 0-1.6.3-2 1-.5.6-.7 1.5-.7 2.6v.8c0 1.1.2 2 .6 2.7.5.6 1.2 1 2.1 1 .9 0 1.5-.3 1.8-.7.4-.4.5-1 .5-1.5v-.1h3.9v.2c0 1.3-.6 2.5-1.7 3.5-1 1-2.5 1.4-4.5 1.4s-3.6-.6-4.9-1.8a6.6 6.6 0 0 1-1.8-5Zm14.8 1.4v-8.1h4v8c0 .9.1 1.5.5 1.8.3.4.8.5 1.4.5.6 0 1-.1 1.5-.4a3 3 0 0 0 1-1.3v-8.6h3.9v13h-3.8v-1.5h-.1c-.4.5-.9 1-1.6 1.3-.6.3-1.4.5-2.3.5-1.3 0-2.4-.4-3.2-1.2-.8-.8-1.3-2.1-1.3-4Zm15.3 5v-13.1h3.8v1.5h.1c.3-.5.7-1 1.2-1.3a2.7 2.7 0 0 1 2.2-.5l.4.1v3.3l-.5-.1h-.6c-.5 0-1 .1-1.6.5-.4.3-.8.7-1 1.3v8.2h-4Zm8.7-6.4v-.4c0-2 .6-3.6 1.8-4.9a6.5 6.5 0 0 1 4.8-1.8c2 0 3.5.6 4.6 1.7a6.6 6.6 0 0 1 1.7 4.8v1.3h-10.4v-2.3h6.5v-.3c0-.6-.2-1.2-.6-1.7-.4-.5-1-.7-1.8-.7-.9 0-1.6.3-2 1-.5.6-.7 1.5-.7 2.6v.9c0 1 .2 2 .7 2.7.5.6 1.3 1 2.2 1a3 3 0 0 0 1.8-.5 4 4 0 0 0 1.2-1.2l2.9 1.6c-.4.8-1.2 1.5-2.1 2-1 .6-2.3.9-3.7.9-2.2 0-3.9-.6-5-1.8a6.6 6.6 0 0 1-2-5Zm21.4 11.7v-18.4h3.7v1.5h.1c.3-.5.8-1 1.5-1.3a5 5 0 0 1 2.3-.5c1.6 0 3 .6 4 1.8a7 7 0 0 1 1.6 4.8v.4c0 2-.5 3.6-1.6 4.8a5 5 0 0 1-4 1.8c-.8 0-1.5-.2-2.2-.4-.6-.3-1.1-.7-1.5-1.2v6.7h-3.9Zm4-9.8c.1.5.4 1 .9 1.3.4.3 1 .5 1.6.5 1 0 1.6-.3 2-1 .5-.6.7-1.4.7-2.5v-.8c0-1.1-.2-2-.7-2.6-.4-.6-1-.9-2-.9-.6 0-1.2.2-1.6.5-.5.4-.8.8-1 1.2v4.3Zm10.9.6c0-1.4.5-2.5 1.6-3.2a7.5 7.5 0 0 1 4.3-1.2h2.7v-.7c0-.6-.2-1-.5-1.4-.3-.4-.8-.5-1.5-.5-.8 0-1.3.1-1.6.4-.3.3-.5.7-.5 1.1v.2h-3.8v-.2c0-1.2.6-2.2 1.7-3a7.6 7.6 0 0 1 4.4-1 7 7 0 0 1 4.2 1c1 .7 1.5 1.9 1.5 3.4v6l.1 1.5.4 1.2v.2h-3.8l-.3-.7-.2-1c-.2.5-.7 1-1.5 1.4-.7.4-1.6.6-2.7.6a5 5 0 0 1-3.2-1c-.9-.7-1.3-1.7-1.3-3.1Zm3.9-.3c0 .5.2 1 .5 1.3.3.4.8.5 1.5.5.8 0 1.4-.2 1.9-.7.5-.5.8-1 .8-1.7v-1.2h-2c-1 0-1.6.1-2 .4-.5.3-.7.8-.7 1.4Zm11.7 8 1.4-2.5 1.6 1c.8.2 1.5.4 2.4.4.9 0 1.6-.3 2.2-.9.6-.5 1-1.4 1-2.6v-.7c-.4.5-.9 1-1.5 1.2-.6.3-1.4.5-2.3.5a5 5 0 0 1-4-1.8 7.1 7.1 0 0 1-1.5-4.8v-.4c0-2 .5-3.6 1.5-4.8a5 5 0 0 1 4-1.8c.8 0 1.6.2 2.3.5.6.4 1.1.8 1.4 1.3h.1v-1.5h3.8v12c0 2.2-.6 3.8-1.9 5a6.9 6.9 0 0 1-4.8 1.6 10.2 10.2 0 0 1-5.7-1.7Zm3.2-10c0 1 .3 1.9.7 2.5.5.7 1.2 1 2.1 1 .6 0 1.1-.2 1.6-.5a3 3 0 0 0 1-1.3v-4.2c-.3-.5-.6-1-1-1.3-.5-.3-1-.5-1.6-.5-1 0-1.6.3-2 1-.5.7-.8 1.5-.8 2.6v.6Zm11.6-.2v-.4c0-2 .6-3.6 1.8-4.9a6.5 6.5 0 0 1 4.8-1.8c2 0 3.5.6 4.6 1.7a6.6 6.6 0 0 1 1.7 4.8v1.3H238v-2.3h6.5v-.3c0-.6-.2-1.2-.6-1.7-.4-.5-1-.7-1.8-.7-.9 0-1.6.3-2 1-.5.6-.7 1.5-.7 2.6v.9c0 1 .2 2 .7 2.7.5.6 1.3 1 2.2 1a3 3 0 0 0 1.8-.5 4 4 0 0 0 1.2-1.2l2.8 1.6c-.4.8-1 1.5-2 2-1 .6-2.3.9-3.7.9-2.2 0-3.9-.6-5.1-1.8a6.6 6.6 0 0 1-1.8-5Z"/><path fill="#D2D2D2" d="M112.2 162.2V161h8.4v1.2H117v9.6h-1.4v-9.6h-3.5Zm8 5.8v-.2c0-1.2.4-2.1 1-2.9.8-.7 1.6-1.1 2.8-1.1 1 0 2 .4 2.7 1.1.6.8 1 1.7 1 2.9v.2c0 1.2-.4 2.2-1 3-.7.7-1.6 1-2.7 1-1.2 0-2-.3-2.7-1-.7-.8-1-1.8-1-3Zm1.5-.2v.2c0 .8.2 1.5.6 2 .3.6 1 1 1.7 1a2 2 0 0 0 1.7-1c.4-.5.5-1.2.5-2v-.2c0-.8-.1-1.5-.5-2a2 2 0 0 0-1.7-.9 2 2 0 0 0-1.7.9c-.4.5-.6 1.2-.6 2Zm6.6-2.7v-1h4.4v1h-4.4Zm1.4 4.8V162h1.4v7.8c0 .3 0 .6.2.7.1.2.3.3.6.3h.4l.4-.2v1.1l-.5.2h-.6c-.6 0-1-.1-1.4-.5-.3-.3-.5-.9-.5-1.6Zm4-.4c0-.8.4-1.4 1-1.8a4 4 0 0 1 2.4-.7h1.8v-.5c0-.5-.1-.9-.4-1.2-.2-.3-.6-.4-1.2-.4s-1 .1-1.3.4c-.2.2-.4.5-.4.8h-1.3c0-.6.2-1.2.8-1.6.5-.5 1.3-.7 2.2-.7 1 0 1.7.2 2.2.7.5.4.8 1 .8 2v3.5a5.4 5.4 0 0 0 .3 1.7v.1h-1.4a2.5 2.5 0 0 1-.3-1c-.2.3-.4.6-.9.8a3 3 0 0 1-1.5.4 3 3 0 0 1-2-.7c-.4-.4-.7-1-.7-1.8Zm1.5 0c0 .4.1.7.4 1 .2.2.6.4 1.2.4.5 0 1-.2 1.4-.6.5-.4.7-.8.7-1.2V168h-1.6c-.7 0-1.2.1-1.6.4-.3.2-.5.6-.5 1Zm7.3 2.3v-11.4h1.4v11.4h-1.4Zm7.4 0v-11.4h1.3v4.5c.3-.3.6-.6 1-.7a3 3 0 0 1 1.4-.3c1 0 1.7.3 2.3 1 .6.8 1 1.8 1 2.9v.2c0 1.2-.4 2.1-1 2.9-.6.7-1.4 1-2.3 1-.6 0-1 0-1.5-.3-.4-.2-.7-.5-.9-.8v1h-1.3Zm1.3-2.3c.2.4.4.7.8 1 .3.2.8.3 1.3.3.7 0 1.2-.2 1.6-.8.3-.5.5-1.2.5-2v-.2c0-.8-.2-1.5-.5-2-.4-.5-.9-.8-1.6-.8a2 2 0 0 0-1.3.4c-.4.3-.6.6-.8 1v3.1Zm7.4 2.3v-11.4h1.4v11.4h-1.4Zm3.2-3.8v-.2c0-1.2.3-2.1 1-2.9.7-.7 1.6-1.1 2.7-1.1s2 .4 2.7 1.1c.6.8 1 1.7 1 2.9v.2c0 1.2-.4 2.2-1 3-.7.7-1.6 1-2.7 1s-2-.3-2.7-1c-.7-.8-1-1.8-1-3Zm1.4-.2v.2c0 .8.2 1.5.6 2 .4.6 1 1 1.7 1a2 2 0 0 0 1.7-1c.4-.5.6-1.2.6-2v-.2c0-.8-.2-1.5-.6-2a2 2 0 0 0-1.7-.9 2 2 0 0 0-1.7.9c-.4.5-.6 1.2-.6 2Zm7.2.2v-.2c0-1.2.4-2.1 1-2.9.6-.7 1.5-1.1 2.6-1.1 1 0 1.9.3 2.4.8.6.6.8 1.2.8 2H176c0-.5-.2-.9-.5-1.2-.2-.3-.7-.5-1.4-.5s-1.3.3-1.6.9c-.4.5-.6 1.2-.6 2v.2c0 .8.2 1.5.6 2 .3.6.9 1 1.6 1 .7 0 1.2-.2 1.4-.6.3-.3.5-.7.5-1v-.1h1.3c0 .7-.2 1.3-.8 2-.5.5-1.3.7-2.4.7-1 0-2-.3-2.6-1-.6-.8-1-1.8-1-3Zm8.4 3.8v-11.4h1.4v7.2l3.4-3.6h1.5l-4.9 5.2v2.6h-1.4Zm5 0-3-4 .9-1 3.8 5h-1.6Zm2-3.8v-.2c0-1.2.4-2.1 1-2.9.7-.7 1.5-1.1 2.6-1.1 1 0 1.9.3 2.5 1 .5.7.8 1.7.8 2.9v.5h-6v-1h4.6v-.3c0-.5-.1-1-.4-1.4-.4-.4-.8-.6-1.4-.6-.8 0-1.3.3-1.7.9-.3.5-.5 1.2-.5 2v.2c0 .8.2 1.5.5 2 .4.6 1 1 1.8 1 .5 0 1-.2 1.3-.4.4-.2.7-.5.9-.8l.9.7a3.7 3.7 0 0 1-3 1.5c-1.3 0-2.2-.3-2.9-1-.6-.8-1-1.8-1-3Zm8.2 0v-.2c0-1.1.3-2 .8-2.8.6-.8 1.4-1.1 2.4-1.1.6 0 1 0 1.4.3.4.1.7.4 1 .7v-4.5h1.3v11.4h-1.2v-1h-.1c-.2.3-.5.6-1 .8-.4.3-.8.4-1.4.4-1 0-1.8-.4-2.4-1.1-.6-.8-.8-1.7-.8-2.9Zm1.4 0c0 .8.1 1.5.5 2 .3.6.9.8 1.6.8.5 0 1 0 1.3-.4.3-.2.6-.5.7-.9v-3.2l-.7-1a2 2 0 0 0-1.3-.3c-.7 0-1.3.3-1.6.8-.4.5-.5 1.2-.5 2v.2Zm8 3.1c0-.2 0-.4.2-.6.1-.2.4-.3.6-.3.3 0 .6.1.7.3l.3.6c0 .2-.1.5-.3.6-.1.2-.4.3-.7.3-.2 0-.5-.1-.6-.3a.9.9 0 0 1-.3-.6Zm0-6.3c0-.3 0-.5.2-.7l.6-.2c.3 0 .6 0 .7.2.2.2.3.4.3.7l-.3.6c-.1.2-.4.3-.7.3-.2 0-.5-.1-.6-.3a.9.9 0 0 1-.3-.6Zm7.4 4.2h1.4c0 .6.2 1 .6 1.4.4.3.9.5 1.5.5.7 0 1.2-.2 1.6-.5.4-.3.6-.9.6-1.5 0-.7-.2-1.3-.7-1.6-.4-.4-1-.5-1.7-.5h-.9v-1.2h.8c.7 0 1.2-.2 1.6-.5.3-.3.5-.8.5-1.4 0-.6-.1-1-.5-1.3-.3-.3-.7-.4-1.3-.4a2 2 0 0 0-1.3.4c-.4.3-.5.7-.5 1.2v.1H211c0-.8.3-1.5.9-2 .6-.6 1.4-1 2.3-1 1 0 1.8.3 2.4.9.6.5.9 1.2.9 2 0 .5-.2 1-.5 1.5-.2.4-.6.8-1.2 1 .6.2 1.1.5 1.5 1 .4.5.5 1 .5 1.7a3 3 0 0 1-1 2.4c-.7.6-1.5.8-2.6.8-1 0-2-.2-2.6-.8-.6-.6-1-1.3-1-2.2Zm13.4 2.8v-8.5h-.1l-3.3 4.8h6.3v1.2h-8v-1l5.1-7.3h1.3v10.8h-1.3Zm7.2 0v-9.2l-2.7 1.1v-1.4l3.9-1.4h.2v11h-1.4Z"/><path fill="#fff" d="M174 267.9c15 0 27.2-11.6 27.2-26a26.6 26.6 0 0 0-27.2-25.8c-15 0-27.2 11.6-27.2 25.9a26.6 26.6 0 0 0 27.2 25.9Z"/><path stroke="#67B279" stroke-linecap="round" stroke-linejoin="round" stroke-width="3" d="m165.3 243 6 6 11.4-12.4"/><path fill="#3D3D3D" d="M8.7 373a13 13 0 0 1 13-13h304.6a13 13 0 0 1 13 13V396a13 13 0 0 1-13 13H21.6a13 13 0 0 1-13-13V373Z"/><path fill="#1F1F1F" d="M13 378.2c0-4.8 0-7.3 1-9.1.8-1.7 2.2-3 3.8-3.8 1.9-1 4.3-1 9.2-1h128.7c4.9 0 7.3 0 9.2 1 1.6.8 3 2.1 3.8 3.8 1 1.8 1 4.3 1 9.1v12.4c0 4.9 0 7.3-1 9.2-.8 1.6-2.2 3-3.8 3.8-1.9 1-4.3 1-9.2 1H27c-4.9 0-7.3 0-9.2-1-1.6-.8-3-2.2-3.8-3.8-1-1.9-1-4.3-1-9.2v-12.4Z"/><path fill="#E4E4E4" d="m62.7 390.4 4.6-12.4h1.5l4.7 12.4h-1.7l-3.4-9.4a11.7 11.7 0 0 1-.3-1 7.1 7.1 0 0 1-.4 1l-3.4 9.4h-1.6Zm2-3.2.5-1.3H71l.4 1.3h-6.7Zm9.5-1v-.4c0-1.3.3-2.4 1-3.2.8-.9 1.8-1.3 3-1.3s2.1.3 2.8 1a3 3 0 0 1 .9 2v.1h-1.5c0-.5-.2-1-.5-1.3-.4-.4-.9-.6-1.6-.6-.9 0-1.5.4-2 1-.3.6-.5 1.4-.5 2.3v.3c0 1 .2 1.7.6 2.3.4.7 1 1 1.9 1 .7 0 1.2-.2 1.6-.6.3-.3.5-.8.5-1.2h1.5a3 3 0 0 1-1 2.1c-.6.6-1.5 1-2.6 1-1.3 0-2.3-.5-3-1.3-.8-.9-1.1-2-1.1-3.3Zm8.3-3.5v-1.2h5v1.2h-5Zm1.5 5.5v-8.9h1.6v8.9c0 .4 0 .7.2.9l.8.2a2.5 2.5 0 0 0 1-.2v1.3l-.7.2h-.7a2 2 0 0 1-1.6-.5c-.4-.4-.6-1-.6-1.9Zm5.3 2.2v-8.9h1.5v9h-1.5Zm-.2-11.6c0-.3 0-.5.2-.6.2-.2.4-.3.7-.3.3 0 .6 0 .7.3.2.1.3.3.3.6s0 .5-.3.7c-.1.2-.4.2-.7.2-.3 0-.5 0-.7-.2a1 1 0 0 1-.2-.7Zm3.7 7.3v-.3c0-1.3.4-2.4 1.2-3.2.7-.9 1.7-1.3 3-1.3s2.3.4 3 1.3c.8.8 1.2 1.9 1.2 3.2v.3c0 1.3-.4 2.4-1.1 3.3-.8.8-1.8 1.3-3 1.3-1.4 0-2.4-.5-3.1-1.3-.8-.9-1.2-2-1.2-3.3Zm1.6-.3v.3c0 1 .2 1.7.7 2.3.4.7 1 1 2 1 .8 0 1.4-.3 1.9-1a4 4 0 0 0 .6-2.3v-.3a4 4 0 0 0-.6-2.3c-.5-.6-1.1-1-2-1-.8 0-1.5.4-2 1a4 4 0 0 0-.6 2.3Zm8.8 4.6v-8.9h1.4v1.2a3.5 3.5 0 0 1 2.8-1.3 3 3 0 0 1 2.1.7c.6.5.8 1.4.8 2.6v5.7h-1.5v-5.7c0-.8-.2-1.3-.5-1.6-.3-.3-.8-.4-1.4-.4-.5 0-1 .1-1.3.4-.4.2-.7.6-.9 1v6.3h-1.5Zm9-2.6h1.5c0 .6.2 1 .6 1.2.4.3.9.4 1.5.4s1.1-.1 1.5-.4c.3-.2.5-.6.5-1a1 1 0 0 0-.4-.9c-.3-.2-1-.4-1.9-.6-1-.2-1.7-.6-2.3-1a2 2 0 0 1-.8-1.7c0-.7.3-1.3.9-1.8.6-.5 1.4-.7 2.4-.7s1.8.2 2.5.7c.6.5.9 1.1.9 2h-1.6c0-.5-.1-.8-.4-1-.3-.3-.8-.5-1.4-.5-.6 0-1 .2-1.4.4a1 1 0 0 0-.4.8c0 .4.2.6.5.9l2 .6c.9.2 1.6.5 2.1 1 .6.4.8 1 .8 1.8s-.3 1.4-.9 2c-.5.4-1.4.7-2.6.7-1.2 0-2-.3-2.7-.8-.6-.5-1-1.2-1-2v-.1Z"/><path fill="#3D3D3D" d="M326.3 364.3H187a8.7 8.7 0 0 0-8.7 8.7V396c0 4.8 4 8.7 8.8 8.7h139.2c4.8 0 8.6-4 8.6-8.8V373c0-4.8-3.8-8.7-8.6-8.7Z"/><path fill="#D2D2D2" d="M222.2 387h1.6c0 .8.2 1.4.8 1.7.5.4 1.2.6 2 .6 1 0 1.7-.2 2.1-.6.5-.4.8-.9.8-1.5s-.3-1-.7-1.4a9 9 0 0 0-2.7-1 7.2 7.2 0 0 1-2.8-1.4c-.6-.5-.8-1.3-.8-2.3a3 3 0 0 1 1-2.4c.8-.6 1.8-1 3-1 1.4 0 2.4.4 3.2 1.1.7.7 1.1 1.5 1.1 2.6h-1.6a2 2 0 0 0-.7-1.6c-.4-.4-1-.6-2-.6-.8 0-1.4.1-1.8.5-.5.3-.7.8-.7 1.4 0 .5.2 1 .7 1.3.4.3 1.3.6 2.6 1a7 7 0 0 1 2.8 1.4c.6.6 1 1.4 1 2.4s-.5 1.8-1.2 2.5c-.8.6-1.9 1-3.2 1a5 5 0 0 1-3.3-1 3.2 3.2 0 0 1-1.2-2.7Zm9.5-4.3v-1.2h5v1.2h-5Zm1.6 5.5v-8.9h1.6v8.9c0 .4 0 .7.2.9l.8.2a2.5 2.5 0 0 0 .9-.2v1.3l-.6.2h-.8a2 2 0 0 1-1.5-.5c-.4-.4-.6-1-.6-1.9Zm4.7-.4c0-.9.3-1.6 1-2.1s1.6-.8 2.7-.8h2v-.6c0-.5 0-1-.3-1.3-.3-.3-.8-.5-1.5-.5s-1.1.2-1.4.4c-.3.3-.5.6-.5 1h-1.5c0-.7.3-1.3 1-1.8.5-.6 1.4-.8 2.5-.8 1 0 1.8.2 2.4.7.6.5 1 1.3 1 2.3v4a6.1 6.1 0 0 0 .2 2v.1h-1.5l-.2-.5-.1-.7c-.2.3-.5.7-1 1-.5.2-1 .4-1.8.4-.9 0-1.6-.3-2.2-.7-.5-.5-.8-1.2-.8-2.1Zm1.5 0c0 .4.2.8.4 1.1.3.3.8.4 1.4.4.6 0 1.2-.2 1.7-.6.5-.4.8-.9.8-1.4v-1.2h-1.9a3 3 0 0 0-1.8.4c-.4.3-.6.7-.6 1.2Zm7-5v-1.3h5v1.2h-5Zm1.6 5.4v-8.9h1.5v8.9c0 .4.1.7.3.9l.7.2a2.5 2.5 0 0 0 1-.2v1.3l-.6.2h-.8a2 2 0 0 1-1.5-.5c-.4-.4-.6-1-.6-1.9Zm5.2 2.2v-8.9h1.6v9h-1.6Zm-.2-11.6c0-.3.1-.5.3-.6.1-.2.4-.3.7-.3.3 0 .5 0 .7.3.2.1.3.3.3.6s-.1.5-.3.7c-.2.2-.4.2-.7.2-.3 0-.6 0-.7-.2a1 1 0 0 1-.3-.7Zm3.8 9h1.5c0 .6.2 1 .6 1.2.4.3.9.4 1.5.4s1.1-.1 1.5-.4c.3-.2.5-.6.5-1a1 1 0 0 0-.4-.9c-.3-.2-1-.4-2-.6-.9-.2-1.6-.6-2.2-1a2 2 0 0 1-.8-1.7c0-.7.3-1.3.9-1.8.6-.5 1.4-.7 2.4-.7s1.8.2 2.4.7c.7.5 1 1.1 1 2h-1.6c0-.5-.1-.8-.4-1-.3-.3-.8-.5-1.4-.5-.6 0-1 .2-1.4.4a1 1 0 0 0-.4.8c0 .4.2.6.5.9l2 .6c.9.2 1.6.5 2.1 1 .6.4.8 1 .8 1.8s-.3 1.4-.9 2c-.6.4-1.4.7-2.6.7-1.2 0-2-.3-2.7-.8-.6-.5-1-1.2-1-2v-.1Zm7.8-5v-1.3h5v1.2h-5Zm1.6 5.4v-8.9h1.5v8.9c0 .4.1.7.3.9l.7.2a2.4 2.4 0 0 0 1-.2v1.3a3.6 3.6 0 0 1-1.3.3 2 2 0 0 1-1.6-.6c-.4-.4-.6-1-.6-1.9Zm5.2 2.2v-8.9h1.5v9h-1.5Zm-.2-11.6c0-.3 0-.5.2-.6.2-.2.5-.3.8-.3.3 0 .5 0 .7.3l.2.6c0 .3 0 .5-.2.7-.2.2-.4.2-.7.2a1 1 0 0 1-.8-.2 1 1 0 0 1-.2-.7Zm3.8 7.3v-.3c0-1.3.3-2.4 1-3.2.8-.9 1.8-1.3 3-1.3s2.1.3 2.8 1a3 3 0 0 1 .9 2v.1h-1.5c0-.5-.2-1-.5-1.3-.4-.4-.9-.6-1.6-.6-.9 0-1.5.4-2 1-.3.6-.5 1.4-.5 2.3v.3c0 1 .2 1.7.6 2.3.4.7 1 1 1.9 1 .7 0 1.2-.2 1.6-.6.3-.3.5-.8.5-1.2h1.5a3 3 0 0 1-1 2.1c-.6.6-1.5 1-2.6 1-1.3 0-2.3-.5-3-1.3-.8-.9-1.1-2-1.1-3.3Zm9 1.7h1.5c0 .6.2 1 .5 1.2.4.3 1 .4 1.6.4.6 0 1-.1 1.4-.4.4-.2.6-.6.6-1a1 1 0 0 0-.5-.9l-1.8-.6c-1-.2-1.8-.6-2.3-1a2 2 0 0 1-.9-1.7c0-.7.3-1.3 1-1.8.6-.5 1.4-.7 2.4-.7s1.8.2 2.4.7c.6.5 1 1.1 1 2h-1.6c0-.5-.2-.8-.5-1-.3-.3-.7-.5-1.3-.5-.6 0-1.1.2-1.4.4a1 1 0 0 0-.4.8c0 .4.1.6.5.9l1.9.6c1 .2 1.7.5 2.2 1 .5.4.8 1 .8 1.8s-.3 1.4-.9 2c-.6.4-1.5.7-2.6.7-1.2 0-2.1-.3-2.7-.8-.7-.5-1-1.2-1-2v-.1Z"/><path fill="#1F1F1F" d="M348 426.3H0v43.5h348v-43.5Z"/><path stroke="#812000" stroke-linecap="round" stroke-width="1.5" d="M20.7 443.7c0-.6.4-1 1-1h17.5c.6 0 1 .4 1 1v8.7c0 .6-.4 1-1 1H21.8a1 1 0 0 1-1.1-1v-8.7Z" clip-rule="evenodd"/><path stroke="#812000" stroke-linecap="round" stroke-width="1.5" d="M21.8 457.8 39 438.3"/><path fill="#A4A4A4" d="M57.8 453.5v-10.8h3.6c1 0 2 .2 2.6.7.6.4.9 1.1.9 2.1 0 .6-.2 1.1-.5 1.5-.3.4-.6.6-1 .8.5.2 1 .5 1.3.9.3.4.5 1 .5 1.7 0 1-.4 1.7-1 2.3-.7.5-1.5.8-2.6.8h-3.8Zm1.4-1.2h2.4c.7 0 1.3-.2 1.6-.5.4-.4.6-.8.6-1.4 0-.6-.2-1.1-.6-1.4-.3-.4-.9-.6-1.6-.6h-2.4v4Zm0-5h2.2c.7 0 1.3-.2 1.6-.5.3-.3.5-.7.5-1.3 0-.5-.2-1-.5-1.2-.3-.3-.9-.5-1.6-.5h-2.2v3.5Zm7.9 6.2V442h1.4v11.4H67Zm3.2-3.8v-.2c0-1.2.3-2.2 1-3 .6-.7 1.5-1 2.6-1 1.2 0 2 .3 2.7 1 .7.8 1 1.8 1 3v.2c0 1.2-.3 2.1-1 2.9-.6.7-1.5 1.1-2.7 1.1-1 0-2-.4-2.6-1.1-.7-.8-1-1.7-1-2.9Zm1.4-.2v.2c0 .8.2 1.5.5 2 .4.6 1 .9 1.7.9a2 2 0 0 0 1.7-.9c.4-.5.6-1.2.6-2v-.2c0-.9-.2-1.5-.6-2a2 2 0 0 0-1.7-1 2 2 0 0 0-1.7 1c-.3.5-.5 1.1-.5 2Zm7.2.2v-.2c0-1.2.3-2.2 1-3 .6-.7 1.5-1 2.6-1 1 0 1.8.2 2.4.8.5.6.8 1.2.8 1.9h-1.4c0-.4-.1-.8-.4-1.1-.3-.4-.8-.5-1.4-.5-.8 0-1.3.3-1.7.8-.3.6-.5 1.3-.5 2v.3c0 .8.2 1.5.5 2 .4.6 1 .9 1.7.9.6 0 1.1-.2 1.4-.5.3-.3.4-.7.4-1.1h1.4c0 .7-.3 1.3-.8 1.9-.6.5-1.4.8-2.4.8-1.1 0-2-.4-2.7-1.1-.6-.8-1-1.7-1-2.9Zm8.4 3.8V442h1.4v7.2l3.3-3.6h1.6l-5 5.2v2.6h-1.3Zm5 0-3-4 .9-1 3.8 5h-1.7Zm6-2.3c0-.8.2-1.4.9-1.9a4 4 0 0 1 2.4-.6h1.7v-.6c0-.4 0-.8-.3-1.1-.3-.3-.7-.5-1.3-.5-.6 0-1 .2-1.3.4-.2.3-.3.5-.3.9h-1.4c0-.7.3-1.2.8-1.7.6-.4 1.3-.7 2.3-.7.9 0 1.6.3 2.1.7.6.5.8 1.1.8 2v3.6a5.4 5.4 0 0 0 .3 1.7h-1.3l-.2-.4-.1-.6a3 3 0 0 1-2.5 1.2 3 3 0 0 1-1.9-.6c-.5-.4-.8-1-.8-1.8Zm1.3 0c0 .4.1.7.4 1 .3.2.7.3 1.2.3s1-.2 1.5-.5c.4-.4.6-.8.6-1.2v-1.1h-1.6c-.7 0-1.2 0-1.6.3-.3.3-.5.7-.5 1.1Zm6.8-1.5v-.2c0-1.2.3-2.1.9-2.9.6-.7 1.4-1 2.4-1 .5 0 1 0 1.4.2.4.2.7.5.9.8V442h1.4v11.4H112v-1l-1 .8c-.4.2-.9.3-1.4.3-1 0-1.8-.3-2.4-1-.6-.8-.9-1.8-.9-2.9Zm1.4 0c0 .8.2 1.5.5 2 .4.5 1 .8 1.7.8.5 0 .9-.1 1.2-.4.4-.3.6-.6.8-1V448c-.2-.4-.4-.7-.8-1a2 2 0 0 0-1.2-.4c-.8 0-1.3.3-1.7.9-.3.5-.5 1.2-.5 2v.2Zm7.3 1.5h1.4c0 .5.1.8.5 1 .3.3.7.4 1.3.4.5 0 1-.1 1.3-.3.3-.3.4-.5.4-.9a1 1 0 0 0-.3-.8l-1.7-.6c-.8-.2-1.5-.4-2-.8s-.7-.9-.7-1.5c0-.7.2-1.2.8-1.6.5-.4 1.2-.7 2-.7 1 0 1.7.3 2.2.7.6.4.9 1 .9 1.7h-1.4a1 1 0 0 0-.4-1l-1.2-.2c-.6 0-1 0-1.2.3a1 1 0 0 0-.4.7c0 .3.2.5.5.7.2.2.8.4 1.7.6.8.2 1.4.5 1.9.8.5.4.7 1 .7 1.6 0 .7-.3 1.3-.8 1.7-.5.5-1.3.7-2.3.7-1 0-1.9-.2-2.4-.7-.6-.4-.8-1-.8-1.8Zm11.7 2.3v-7.8h1.3v1l1-.9c.5-.2.9-.3 1.4-.3.5 0 1 .1 1.3.3.4.2.7.6.9 1 .4-.4.7-.8 1.1-1a3 3 0 0 1 1.4-.3c.8 0 1.5.2 2 .7.4.4.6 1.2.6 2.2v5h-1.4v-5c0-.6-.1-1-.4-1.3-.3-.3-.6-.4-1.1-.4-.5 0-.8.1-1.2.3l-.7 1v5.5h-1.4v-5c0-.7-.1-1.1-.4-1.4-.3-.3-.6-.4-1.1-.4-.5 0-.8.1-1.2.3l-.7 1v5.5h-1.4Zm12.7-2.3c0-.8.3-1.4 1-1.9a4 4 0 0 1 2.3-.6h1.8v-.6c0-.4-.1-.8-.4-1.1-.2-.3-.6-.5-1.2-.5s-1 .2-1.3.4c-.3.3-.4.5-.4.9H140c0-.7.3-1.2.9-1.7.5-.4 1.3-.7 2.2-.7 1 0 1.7.3 2.2.7.5.5.8 1.1.8 2v3.6a5.3 5.3 0 0 0 .3 1.7h-1.4l-.2-.4v-.6l-1 .9a3 3 0 0 1-1.5.3 3 3 0 0 1-2-.6c-.5-.4-.7-1-.7-1.8Zm1.4 0c0 .4.1.7.4 1 .2.2.6.3 1.2.3.5 0 1-.2 1.4-.5.5-.4.7-.8.7-1.2v-1.1H143c-.7 0-1.2 0-1.6.3-.4.3-.5.7-.5 1.1Zm7.2 2.3v-7.8h1.3v1a3 3 0 0 1 2.5-1.2c.8 0 1.4.2 1.9.7.4.4.7 1.2.7 2.2v5H153v-5c0-.6-.2-1-.4-1.3-.3-.3-.7-.4-1.2-.4a2 2 0 0 0-1.2.3l-.8 1v5.5h-1.4Zm8.4-2.8v-5h1.4v5c0 .7.1 1.1.4 1.4.3.2.7.4 1.2.4a2 2 0 0 0 1.2-.4c.3-.2.6-.5.8-.9v-5.5h1.4v7.8h-1.3v-1l-1.1.8a3 3 0 0 1-1.4.3c-.8 0-1.4-.2-1.9-.6-.4-.5-.7-1.2-.7-2.3Zm8.1.5c0-.8.3-1.4 1-1.9a4 4 0 0 1 2.4-.6h1.7v-.6c0-.4 0-.8-.3-1.1-.3-.3-.7-.5-1.3-.5-.6 0-1 .2-1.3.4-.2.3-.3.5-.3.9H165c0-.7.3-1.2.8-1.7.6-.4 1.3-.7 2.3-.7.9 0 1.6.3 2.1.7.6.5.8 1.1.8 2v3.6a5.3 5.3 0 0 0 .3 1.7h-1.3l-.2-.4-.1-.6a3 3 0 0 1-2.5 1.2 3 3 0 0 1-1.9-.6c-.5-.4-.8-1-.8-1.8Zm1.4 0c0 .4.1.7.4 1 .3.2.7.3 1.2.3s1-.2 1.5-.5c.4-.4.6-.8.6-1.2v-1.1h-1.6c-.7 0-1.2 0-1.6.3-.3.3-.5.7-.5 1.1Zm7.3 2.3V442h1.4v11.4h-1.4Zm3.7 0V442h1.4v11.4H177Zm3 3v-1a3.2 3.2 0 0 0 .8 0c.4 0 .7 0 1-.4l.8-1.6-3-7.8h1.4l1.8 5.1a20.2 20.2 0 0 1 .4 1 24.4 24.4 0 0 1 .4-1l1.7-5.1h1.3l-3.2 8.8a4 4 0 0 1-1 1.6 2 2 0 0 1-1.5.6 3.3 3.3 0 0 1-1-.1Z"/></g><defs><clipPath id="a"><path fill="#fff" d="M0 0h348v652.5H0z"/></clipPath></defs></svg>