<svg xmlns="http://www.w3.org/2000/svg" width="360" height="480" fill="none"><g clip-path="url(#a)"><path fill="#D8D8D8" d="M1.6 80c0-35.7 0-53.5 10-65.3a42 42 0 0 1 4.7-4.6C28 0 45.7 0 81.1 0h193.8c35.4 0 53 0 64.8 10 1.7 1.5 3.2 3 4.7 4.7 10 11.8 10 29.6 10 65.2v624.7c0 35.6 0 53.4-10 65.2a42 42 0 0 1-4.7 4.7c-11.7 10-29.4 10-64.8 10H81.1c-35.4 0-53 0-64.8-10-1.7-1.5-3.2-3-4.6-4.7-10-11.8-10-29.6-10-65.2V80Z"/><g clip-path="url(#b)"><path fill="#D8D8D8" d="M315.8 0H41C18.8 0 .9 18.1.9 40.4V745c0 22.3 17.9 40.4 40 40.4h275c22 0 40-18 40-40.4V40.4C356 18.1 338 0 316 0Z"/><path fill="#F3F3F3" d="M313.1 3.3H43.6C22 3.3 4.3 21.3 4.3 43.5V745a39.8 39.8 0 0 0 39.3 40.3h269.5c21.7 0 39.3-18 39.3-40.3V43.5A39.8 39.8 0 0 0 313 3.3Z"/><path fill="#D8D8D8" d="M355.6 256.3h1.7c1 0 1.6.6 1.6 1.2V332c0 .6-.7 1.2-1.6 1.2h-1.7v-76.8Zm0-50.6h1.7c1 0 1.6-.5 1.6-1.2V184c0-.6-.7-1.1-1.6-1.1h-1.7v22.8Z" opacity=".5"/><path fill="#D8D8D8" d="M255.6 29.4H101.1c-1.5 0-2.8 1.5-2.8 3.3 0 1.7 1.3 3.2 2.8 3.2h154.5c1.5 0 2.8-1.4 2.8-3.2 0-1.9-1.3-3.3-2.8-3.3Z" opacity=".8"/><rect width="324.8" height="641.7" x="16.4" y="63.7" fill="#fff" rx="16"/><path stroke="#67B279" stroke-linecap="round" d="M272.1 170.9h25.1v24.8m0 186.5v24.9h-25M83.7 170.9h-25v24.8m0 186.5v24.9h25"/><path fill="#fff" d="M59 171.4h237.2v235.1H58.9z"/><rect width="324.8" height="645" x="16.4" y="145.2" fill="#fff" rx="16"/><g clip-path="url(#c)"><mask id="d" width="326" height="577" x="16" y="39" maskUnits="userSpaceOnUse" style="mask-type:luminance"><path fill="#fff" d="M341.2 39.2H16.4v576.1h324.8V39.2Z"/></mask><g mask="url(#d)"><path fill="#fff" d="M341.2 39.2H16.4v576.1h324.8V39.2Z"/><path fill="#4D4D4D" d="m35.5 131.3-3.2 8.7H31l3.7-9.6h.8v.9ZM38 140l-3.2-8.7v-.9h.9l3.7 9.6h-1.3Zm-.1-3.5v1h-5.4v-1H38Zm6.9 1.9v-5.5H46v7.1h-1.2v-1.6Zm.2-1.5h.5c0 .4 0 .9-.2 1.3a3 3 0 0 1-.4 1l-.9.7c-.3.2-.8.2-1.3.2a3 3 0 0 1-1-.1 2 2 0 0 1-1.2-1.3 4 4 0 0 1-.1-1.2v-4.6h1.2V138.3l.4.5.4.2a2.2 2.2 0 0 0 1.7-.2c.3-.2.6-.5.7-.8l.2-1.1Zm5.8-4v1h-3.8v-1h3.8Zm-2.5-1.8h1.2v7.1l.1.6.3.2h1v1l-.4.1a3 3 0 0 1-.6 0 2 2 0 0 1-.8-.1 1.3 1.3 0 0 1-.6-.6 2.5 2.5 0 0 1-.2-1.2v-7Zm3.5 5.4v-.1l.3-1.5c.1-.4.3-.8.6-1.1a2.9 2.9 0 0 1 1-.8c.4-.2.9-.3 1.4-.3.5 0 1 .1 1.3.3a3.6 3.6 0 0 1 1.7 2c.2.4.2.9.2 1.4v.1c0 .5 0 1-.2 1.4-.1.5-.4.9-.7 1.2a3 3 0 0 1-2.3 1 3 3 0 0 1-3-2.2 4.4 4.4 0 0 1-.3-1.4Zm1.2-.1v.1c0 .4 0 .7.2 1 0 .3.2.6.4.9.1.2.3.4.6.5.2.2.5.2.9.2.3 0 .6 0 .9-.2l.6-.5.4-.9.1-1v-.1l-.1-1-.4-.9a1.8 1.8 0 0 0-1.5-.8c-.4 0-.7.1-1 .3a1.9 1.9 0 0 0-.5.5l-.4.9-.2 1Zm9.4-1v1h-3.2v-1h3.2Zm5.6 3v-5.5h1.2v7.1h-1.2v-1.6Zm.2-1.5h.5l-.1 1.3a3 3 0 0 1-.5 1c-.2.3-.5.5-.9.7-.3.2-.8.2-1.3.2a3 3 0 0 1-1-.1 2 2 0 0 1-1.2-1.3 4 4 0 0 1-.1-1.2v-4.6h1.2v4.6l.1.8c0 .2.2.4.3.5l.4.2a2.2 2.2 0 0 0 1.8-.2c.3-.2.5-.5.6-.8l.2-1.1Zm4-2.7v8.5h-1.1V133h1l.2 1.3Zm5 2.2v.1L77 138l-.5 1.1c-.2.3-.5.6-.9.8a3 3 0 0 1-2.4 0 2.4 2.4 0 0 1-.8-.6 3.3 3.3 0 0 1-.6-1 6 6 0 0 1-.3-1.4v-.8c0-.5.1-1 .3-1.4.1-.4.3-.8.6-1 .2-.3.5-.6.8-.7l1.2-.3c.5 0 .9.1 1.2.3.4.2.7.4.9.7l.5 1.2c.2.4.2 1 .2 1.5Zm-1.3.1v-.1l-.1-1-.4-.9a1.7 1.7 0 0 0-1.4-.7 1.7 1.7 0 0 0-1.4.6c-.2.1-.3.3-.4.6l-.2.7v1.7c0 .3.2.6.3.8l.7.7c.2.2.6.2 1 .2.3 0 .6 0 .8-.2.3-.1.5-.3.6-.5l.4-.9v-1Zm7.3 2.1V130h1.2V140h-1.1l-.1-1.4Zm-4.8-2v-.2c0-.6 0-1 .2-1.5l.5-1.2a2.5 2.5 0 0 1 2.1-1l1.2.3c.3.1.6.4.8.7.3.3.5.6.6 1l.3 1.4v.6c0 .6-.2 1-.3 1.5-.1.4-.3.7-.6 1l-.8.7a2.9 2.9 0 0 1-2.4 0 2.7 2.7 0 0 1-.9-.8l-.5-1.1c-.2-.5-.2-1-.2-1.5Zm1.2-.2v.1l.1 1c0 .3.2.6.3.8l.6.6.9.2c.4 0 .7 0 1-.3l.6-.6.4-1v-1.5a3.5 3.5 0 0 0-.2-.7l-.4-.6a1.6 1.6 0 0 0-.6-.5 2 2 0 0 0-1.7 0l-.6.6-.3.9-.1 1Zm11 2.4V135c0-.3-.1-.5-.3-.7a1.1 1.1 0 0 0-.5-.5l-.8-.2a2 2 0 0 0-.8.2c-.2 0-.4.2-.5.4a1 1 0 0 0-.2.5h-1.3l.2-.7.6-.7 1-.5a3.9 3.9 0 0 1 2.5.1c.4.2.7.4 1 .8l.2 1.3v3.4l.1.7.2.7v.1h-1.3a4.5 4.5 0 0 1-.2-1.2Zm.1-3.1v.8h-1.2l-1 .1a2 2 0 0 0-.6.3 1.1 1.1 0 0 0-.6 1c0 .2 0 .4.2.6 0 .2.2.3.4.4l.8.2a2 2 0 0 0 1.7-.9l.2-.6.6.6-.3.6a3 3 0 0 1-1.3 1.1c-.3.2-.7.2-1 .2-.6 0-1 0-1.4-.2a2 2 0 0 1-1.1-1.9 2 2 0 0 1 .9-1.7 3 3 0 0 1 1-.5l1.3-.1h1.4Zm6-2.8v1h-3.9v-1h3.9Zm-2.6-1.8h1.2v7.1l.1.6.3.2h1v1l-.4.1h-.6l-.8-.1a1.3 1.3 0 0 1-.6-.6 2.5 2.5 0 0 1-.2-1.2v-7Zm7 9a3 3 0 0 1-3-2 4 4 0 0 1-.3-1.4v-.3c0-.6 0-1 .2-1.5s.4-.9.7-1.2a3 3 0 0 1 2.2-1c.5 0 1 .1 1.3.3l1 .7.5 1.1.2 1.4v.6h-5.4v-1h4.1v-.1a3 3 0 0 0-.2-1c0-.2-.3-.5-.5-.7-.3-.2-.6-.3-1-.3a1.7 1.7 0 0 0-1.4.7l-.4.9-.1 1.1v.3l.1 1 .5.7a2 2 0 0 0 1.5.7c.5 0 .8 0 1.1-.2l.8-.7.8.6a3.1 3.1 0 0 1-2.7 1.3Zm9.2 0H109v-7.8c0-.6.1-1 .4-1.4.2-.4.5-.7.9-.9a3.7 3.7 0 0 1 2.3-.1l1 .2-.3 1c-.2 0-.4 0-.7-.2a3.2 3.2 0 0 0-.9 0c-.5 0-.9 0-1 .3-.3.2-.4.6-.4 1v7.8Zm1.4-7.2v1H108v-1h3.8Zm2.4 0v7.1H113v-7.1h1.2Zm3.4-3V140h-1.3V130h1.3Zm5 3v1h-4v-1h4ZM120 131h1.2v7.1l.1.6.3.2h.4a2 2 0 0 0 .5 0v1l-.3.1a3 3 0 0 1-.6 0l-.8-.1a1.3 1.3 0 0 1-.6-.6 2.5 2.5 0 0 1-.2-1.2v-7Zm7 9a3 3 0 0 1-3.1-2 4 4 0 0 1-.3-1.4v-.3c0-.6.1-1 .3-1.5.2-.5.4-.9.7-1.2a3 3 0 0 1 2.2-1c.5 0 1 .1 1.3.3l1 .7.4 1.1.2 1.4v.6h-5.3v-1h4v-.1a3 3 0 0 0-.1-1l-.5-.7c-.3-.2-.6-.3-1-.3a1.7 1.7 0 0 0-1.4.7l-.4.9-.1 1.1v.3l.1 1 .4.7.7.5c.3.2.6.2.9.2.4 0 .8 0 1-.2.4-.2.7-.4.9-.7l.7.6a3.1 3.1 0 0 1-2.7 1.3Zm5.4-6.1v6H131v-7.1h1.2v1.1Zm2.2-1.2v1.2h-.6a2 2 0 0 0-.8 0l-.5.4-.4.6-.1.7-.4.2c0-.4 0-.8.2-1.2 0-.4.2-.7.4-1 .1-.3.4-.5.6-.7a2 2 0 0 1 1.6-.2Zm5.3 5.3-.1-.5a1 1 0 0 0-.5-.4 3.8 3.8 0 0 0-1-.3 8.4 8.4 0 0 1-1.1-.3 3.3 3.3 0 0 1-.9-.4 1.7 1.7 0 0 1-.5-.6 1.8 1.8 0 0 1 0-1.6 2.2 2.2 0 0 1 1.4-1c.3-.2.7-.3 1.1-.3.6 0 1 .1 1.5.3.4.2.7.5 1 .9a2 2 0 0 1 .2 1h-1.2c0-.1 0-.3-.2-.5a1.3 1.3 0 0 0-.5-.5l-.8-.1a2 2 0 0 0-.8.1 1 1 0 0 0-.5 1.3s0 .2.2.2l.5.3.8.2 1.5.5c.4.1.6.4.8.6a1.9 1.9 0 0 1-.5 2.6l-.8.4a4 4 0 0 1-1.2.1c-.6 0-1.1 0-1.6-.3a2.5 2.5 0 0 1-1-.9 2 2 0 0 1-.3-1h1.2l.3.7.7.4a2.6 2.6 0 0 0 1.6 0c.2 0 .4-.2.5-.3a.8.8 0 0 0 .2-.6Z"/><path fill="#888" d="M36.5 149.7h1.1v5.6c0 .6-.1 1.2-.4 1.6l-1 1-1.6.2a3.7 3.7 0 0 1-1.5-.3 2.5 2.5 0 0 1-1.1-1c-.3-.3-.4-.9-.4-1.5v-5.6h1.1v5.6c0 .5 0 .8.2 1.1.2.3.4.5.7.6.3.2.6.2 1 .2s.7 0 1-.2c.3-.1.5-.3.7-.6.2-.3.2-.6.2-1v-5.7Zm3.8 3.3v7.4h-1v-8.6h.9v1.2Zm4.1 1.9-.1 1.3-.5 1a2 2 0 0 1-.7.7 2.6 2.6 0 0 1-2.1 0 2 2 0 0 1-.8-.5 2.9 2.9 0 0 1-.5-1l-.2-1v-.7l.2-1.3.5-.9c.2-.3.5-.4.8-.6l1-.2c.4 0 .8 0 1 .2.4.2.6.4.8.7l.5 1 .1 1.3Zm-1 0-.1-.9a2.2 2.2 0 0 0-.3-.7 1.4 1.4 0 0 0-1.3-.7l-.7.1-.5.4-.3.5-.2.6v1.5c0 .3.2.6.3.8.1.2.3.4.6.5.2.2.5.2.8.2l.8-.1.5-.5.3-.7v-1Zm6.3 2v-7.7h1v8.8h-.9l-.1-1.2Zm-4.2-1.9v-.1c0-.5 0-1 .2-1.3l.5-1 .8-.7 1-.2c.4 0 .7 0 1 .2l.8.6.4 1c.2.3.2.7.3 1.2v.5c0 .4-.1.9-.3 1.2 0 .4-.2.7-.4 1l-.8.5a2.5 2.5 0 0 1-2 0l-.8-.7a3.2 3.2 0 0 1-.5-1l-.2-1.2Zm1.1-.1v.1l.1.9.3.7.5.5.7.1a1.5 1.5 0 0 0 1.4-.8l.4-.8v-1.3a3 3 0 0 0-.2-.6 2 2 0 0 0-.4-.6l-.5-.3-.7-.2c-.2 0-.5 0-.7.2l-.5.5a2 2 0 0 0-.3.7l-.1.9Zm9.5 2v-3.1c0-.3 0-.5-.2-.7a1 1 0 0 0-.4-.4l-.7-.1a1.5 1.5 0 0 0-1.2.5.8.8 0 0 0-.2.4h-1l.1-.6a2.1 2.1 0 0 1 1.3-1 3 3 0 0 1 1-.2c.5 0 .9.1 1.2.3.4.1.6.3.8.6.2.3.3.7.3 1.2v2.9a3.8 3.8 0 0 0 .3 1.2v.1h-1.1a4 4 0 0 1-.2-1Zm.2-2.6v.7H54.4a2 2 0 0 0-.6.3 1 1 0 0 0-.5.9l.1.5.4.4.7.1a1.8 1.8 0 0 0 1.4-.7l.3-.6.4.5c0 .2 0 .4-.2.6a2.5 2.5 0 0 1-1.2 1 2.3 2.3 0 0 1-.9.1c-.4 0-.8 0-1-.2a1.7 1.7 0 0 1-1-1.6l.1-.9.6-.6c.2-.2.5-.3.9-.4a5 5 0 0 1 1.1-.1h1.3Zm5.1-2.5v.8H58v-.7h3.4Zm-2.2-1.5h1v6.2l.1.5.3.2h.8v.8a2.6 2.6 0 0 1-.8.1l-.7-.1a1 1 0 0 1-.5-.5 2.1 2.1 0 0 1-.2-1v-6.2Zm6 7.8a3 3 0 0 1-1.2-.2 2.7 2.7 0 0 1-1.4-1.5c-.2-.4-.2-.8-.2-1.2v-.3c0-.5 0-1 .2-1.3a3 3 0 0 1 .6-1 2.6 2.6 0 0 1 1.9-.9c.4 0 .8.1 1.1.3.3.1.6.3.8.6l.5 1 .1 1.2v.4H63v-.8h3.6v-.1a2.6 2.6 0 0 0-.2-.8l-.5-.7-.8-.2a1.5 1.5 0 0 0-1.2.6c-.1.2-.3.4-.3.7l-.2 1v.2c0 .3 0 .6.2.9l.3.6a1.6 1.6 0 0 0 1.4.7c.4 0 .7-.1 1-.3l.6-.6.7.5a2.4 2.4 0 0 1-1.3 1c-.3.2-.7.2-1 .2Zm8 0h-1v-6.8c0-.5 0-.9.2-1.2.2-.3.4-.5.8-.7a3.2 3.2 0 0 1 2-.2c.3 0 .5.2.8.3l-.2.9a5.7 5.7 0 0 0-.6-.2l-.7-.1c-.5 0-.8 0-1 .3-.2.2-.3.5-.3.9v6.7Zm1.2-6.3v.8h-3.3v-.7h3.3Zm2.1 0v6.2h-1v-6.2h1Zm3-2.6v8.8h-1.1v-8.7h1Zm4.2 2.6v.8h-3.3v-.7h3.3Zm-2.2-1.5h1v6.2l.2.5.2.2h.8v.8a2.6 2.6 0 0 1-.8.1l-.7-.1-.5-.5a2.1 2.1 0 0 1-.2-1v-6.2Zm6 7.8a3 3 0 0 1-1.1-.2 2.7 2.7 0 0 1-1.5-1.5l-.2-1.2v-.3c0-.5 0-1 .2-1.3a3 3 0 0 1 .6-1 2.6 2.6 0 0 1 1.9-.9c.4 0 .8.1 1.1.3.4.1.6.3.8.6l.5 1 .1 1.2v.4h-4.6v-.8H89v-.1a2.6 2.6 0 0 0-.2-.8c0-.3-.2-.5-.4-.7l-.9-.2a1.5 1.5 0 0 0-1.2.6c-.1.2-.3.4-.3.7l-.2 1v.2c0 .3 0 .6.2.9l.3.6.6.5.8.2c.4 0 .7-.1 1-.3l.6-.6.7.5a2.6 2.6 0 0 1-2.3 1.2Zm4.7-5.3v5.2h-1v-6.2h1v1Zm2-1v1a2.6 2.6 0 0 0-.5 0H93l-.5.4-.3.5-.1.6-.3.2v-1l.4-1 .6-.6a1.7 1.7 0 0 1 1.4 0Zm4.6 4.6-.1-.4a.9.9 0 0 0-.4-.4l-1-.3a7.2 7.2 0 0 1-.9-.2l-.7-.4a1.4 1.4 0 0 1-.6-1.2c0-.2 0-.4.2-.7 0-.2.2-.4.4-.5l.8-.4.9-.2c.5 0 1 .1 1.3.3l.8.7c.2.3.3.6.3 1h-1.1a.9.9 0 0 0-.1-.5l-.5-.4c-.2-.2-.4-.2-.7-.2l-.7.1a1 1 0 0 0-.4.4.8.8 0 0 0 0 .7l.1.3.5.2c.2 0 .4 0 .7.2.5 0 1 .2 1.3.4.3.1.5.3.7.6l.2.8a1.6 1.6 0 0 1-.6 1.3l-.8.4a3.4 3.4 0 0 1-1 .1 3 3 0 0 1-1.4-.3 2 2 0 0 1-.8-.7c-.2-.3-.3-.6-.3-1h1c0 .3.2.5.3.7l.6.4a2.2 2.2 0 0 0 1.4 0l.4-.4.2-.4Zm9 .6v-3.2c0-.3 0-.5-.2-.7a1 1 0 0 0-.4-.4l-.7-.1-.7.1-.5.4a.8.8 0 0 0-.2.4h-1l.1-.6.5-.6a3 3 0 0 1 1.8-.6l1.2.2c.4.2.6.4.8.7.2.3.3.7.3 1.2v3.5l.3.6v.1H108a4 4 0 0 1-.2-1Zm.2-2.7v.7H106l-.6.3a1 1 0 0 0-.5.9l.1.5.4.4.7.1a1.8 1.8 0 0 0 1.4-.7l.3-.6.4.5c0 .2 0 .4-.2.6a2.5 2.5 0 0 1-1.2 1 2.3 2.3 0 0 1-.9.1c-.4 0-.8 0-1-.2a1.7 1.7 0 0 1-1-1.6l.1-.9.6-.6c.2-.2.5-.3.9-.4a5 5 0 0 1 1.1-.1h1.3Zm6.3 2.3v-4.8h1v6.2h-1v-1.4Zm.2-1.3h.4v1.1l-.5 1a2 2 0 0 1-.8.5c-.3.2-.6.2-1 .2h-1a1.7 1.7 0 0 1-1-1.2l-.1-1v-4h1v4l.1.6.3.5.4.2a2 2 0 0 0 1.5-.2l.5-.7.2-1Zm5-3.5v.8h-3.3v-.7h3.4Zm-2.1-1.5h1v6.2l.1.5.3.2h.3a1.7 1.7 0 0 0 .5 0v.8a2.6 2.6 0 0 1-.8.1l-.7-.1a1 1 0 0 1-.5-.5 2.1 2.1 0 0 1-.2-1v-6.2Zm3 4.7v-.1c0-.5 0-.9.2-1.3a2.8 2.8 0 0 1 1.5-1.6c.3-.2.7-.3 1.1-.3.5 0 .9.1 1.2.3.4.1.7.3 1 .6l.5 1 .2 1.3v.1l-.2 1.2c-.1.3-.3.8-.6 1a2.6 2.6 0 0 1-2 1 2.6 2.6 0 0 1-2.7-2l-.2-1.2Zm1-.1v.1l.2.9.3.7c.2.2.3.4.6.5l.7.2c.3 0 .6 0 .8-.2l.6-.5.3-.7.1-.9v-.1l-.1-.9a2.2 2.2 0 0 0-.4-.7 1.5 1.5 0 0 0-1.3-.7 1.6 1.6 0 0 0-1.3.7l-.3.7a3.3 3.3 0 0 0-.1.9Zm7-1.8v5h-1v-6.3h1v1.3Zm-.2 1.6h-.5c0-.4 0-.8.2-1.2l.5-1 .8-.6 1-.2c.3 0 .6 0 .9.2a1.6 1.6 0 0 1 1 1l.2 1v4.1h-1.1v-4c0-.4 0-.7-.2-.8a1 1 0 0 0-.4-.5l-.7-.1c-.3 0-.6 0-.8.2-.2 0-.4.2-.5.4l-.3.7v.8Zm4-.6-.7.2a2.9 2.9 0 0 1 .7-1.8 2.4 2.4 0 0 1 1.8-.8c.3 0 .6 0 .9.2.2 0 .4.2.6.4.2.1.3.4.4.7l.2 1v4h-1v-4c0-.4-.2-.7-.3-.9a.9.9 0 0 0-.4-.4 1.8 1.8 0 0 0-1.3 0l-.5.4a1.5 1.5 0 0 0-.4 1Zm9.1 2.9v-3.2l-.1-.7a1 1 0 0 0-.5-.4l-.7-.1a1.5 1.5 0 0 0-1.2.5.8.8 0 0 0-.1.4h-1l.1-.6.5-.6.8-.4a3 3 0 0 1 1-.2l1.2.3c.3.1.6.3.8.6.2.3.3.7.3 1.2v3.5l.2.6v.1h-1a4 4 0 0 1-.3-1Zm.2-2.7v.7h-1a4 4 0 0 0-.9 0l-.6.3a1 1 0 0 0-.5.9l.2.5c0 .2.2.3.4.4l.6.1a1.8 1.8 0 0 0 1.5-.7l.2-.6.5.5-.2.6a2.6 2.6 0 0 1-1.2 1l-.9.1c-.4 0-.8 0-1.1-.2a1.8 1.8 0 0 1-1-1.6c0-.3 0-.6.2-.9l.5-.6 1-.4 1-.1h1.3Zm5.1-2.5v.8h-3.3v-.7h3.3Zm-2.2-1.5h1.1v6.2l.1.5.2.2H146.7v.8a2.6 2.6 0 0 1-.8.1l-.8-.1-.5-.5a2.1 2.1 0 0 1-.2-1v-6.2Zm4.6 1.5v6.2h-1v-6.2h1Zm-1.1-1.6c0-.2 0-.3.2-.4 0-.2.2-.2.4-.2s.4 0 .5.2l.1.4a.6.6 0 0 1-.1.4l-.5.2c-.2 0-.3 0-.4-.2a.6.6 0 0 1-.2-.4Zm5.3 7a1.5 1.5 0 0 0 1.2-.5l.3-.6h1c0 .3-.2.7-.4 1a2.6 2.6 0 0 1-2 1c-.5 0-1 0-1.3-.2a2.4 2.4 0 0 1-.9-.7 3 3 0 0 1-.5-1 4.2 4.2 0 0 1-.1-1.1v-.3l.1-1.2a3 3 0 0 1 .5-1 2.5 2.5 0 0 1 2.1-.9c.5 0 1 .1 1.3.3a2.3 2.3 0 0 1 1.2 2h-1l-.2-.7a1.4 1.4 0 0 0-1.3-.7c-.3 0-.6 0-.8.2l-.5.5-.3.7V156c0 .2.1.5.3.7l.5.5.8.2Zm7.3-.2v-3.2l-.1-.7a1 1 0 0 0-.4-.4l-.8-.1-.7.1-.4.4a.8.8 0 0 0-.2.4h-1l.1-.6.5-.6a3 3 0 0 1 1.8-.6l1.2.2.8.7c.2.3.3.7.3 1.2v3.5l.2.6v.1h-1a3.9 3.9 0 0 1-.3-1Zm.2-2.7v.7h-1a4 4 0 0 0-.8 0l-.6.3a1 1 0 0 0-.5.9l.1.5c0 .2.2.3.4.4l.7.1a1.8 1.8 0 0 0 1.4-.7l.2-.6.5.5-.2.6a2.5 2.5 0 0 1-1.2 1 2.3 2.3 0 0 1-.9.1c-.4 0-.8 0-1.1-.2a1.9 1.9 0 0 1-.7-.7 1.7 1.7 0 0 1-.3-.9c0-.3 0-.6.2-.9l.6-.6.8-.4 1.2-.1h1.2Zm3.7-5v8.7h-1v-8.8h1Zm2.9 0v8.7h-1v-8.8h1Zm3.4 8 1.7-5.5h1.2L171 159a4 4 0 0 1-.6 1 1.7 1.7 0 0 1-1.6.5 3.6 3.6 0 0 1-.3 0v-1a2.3 2.3 0 0 0 1 0 1 1 0 0 0 .4-.3l.3-.6.4-1.2Zm-1.3-5.5 1.6 4.8.3 1.2-.7.3-2.3-6.3h1.1Z"/><path fill="#67B279" fill-rule="evenodd" d="M325 153.5v-18h-18.1v18h18Zm-4-11.3a.7.7 0 1 0-1-.8l-5 5.7-3.1-3.1a.7.7 0 1 0-1 1l4.1 4.1 6-6.8Z" clip-rule="evenodd"/><path fill="#4D4D4D" d="M37.4 198.8h1.3v6.5c0 .7-.2 1.3-.5 1.8a3 3 0 0 1-1.3 1.1c-.5.2-1 .4-1.7.4-.6 0-1.2-.2-1.8-.4a2.9 2.9 0 0 1-1.2-1 3.3 3.3 0 0 1-.5-1.9v-6.5H33v6.5c0 .5 0 1 .3 1.3l.7.7 1.2.2c.5 0 .8 0 1.2-.2.3-.2.6-.4.7-.7.2-.4.3-.8.3-1.3v-6.5Zm4.3 3.9v8.5h-1.2v-10h1.1l.1 1.5Zm4.9 2.1v.1l-.2 1.5c-.2.4-.3.8-.6 1.1-.2.4-.5.6-.8.8a3 3 0 0 1-2.4 0 2.4 2.4 0 0 1-1-.6 3.3 3.3 0 0 1-.5-1l-.3-1.4v-.7c0-.6.2-1 .3-1.4l.6-1.1c.2-.3.5-.5.9-.7.3-.2.7-.2 1.2-.2.4 0 .8 0 1.2.2.3.2.6.4.8.8l.6 1.1.2 1.5Zm-1.3.1v-1.1l-.4-.8a1.7 1.7 0 0 0-1.5-.8 1.7 1.7 0 0 0-1.4.6l-.4.6a3 3 0 0 0-.2.7v1.7c0 .3.2.6.4.9l.6.6c.3.2.6.3 1 .3l.9-.2.6-.6.3-.9.1-1Zm7.3 2.1v-8.7h1.2v10.1h-1l-.2-1.4Zm-4.8-2v-.2c0-.6 0-1 .2-1.5.1-.4.3-.8.6-1.1a2.5 2.5 0 0 1 2-1c.5 0 .9 0 1.2.2l.9.7.5 1 .3 1.5v.6c0 .5-.1 1-.3 1.4l-.5 1c-.3.4-.5.6-.9.7a2.9 2.9 0 0 1-2.3 0 2.7 2.7 0 0 1-1-.8l-.5-1.1a5 5 0 0 1-.2-1.5Zm1.2-.2v.1l.1 1 .4.9c.1.2.3.4.6.5.2.2.5.2.8.2.4 0 .8 0 1-.2l.7-.7.3-1v-1.5a3.5 3.5 0 0 0-.2-.7 2 2 0 0 0-.4-.6 1.6 1.6 0 0 0-.6-.5 2 2 0 0 0-1.6.1c-.3.1-.5.3-.6.6l-.4.8v1Zm11 2.4v-3.7c0-.2 0-.5-.2-.7a1.1 1.1 0 0 0-.5-.5l-.8-.2-.9.2-.5.4a1 1 0 0 0-.2.6h-1.2c0-.3 0-.5.2-.8l.6-.7.9-.5c.4-.2.7-.1 1.1-.1.6 0 1 0 1.4.2l1 .8c.2.4.3.8.3 1.4v4l.2.7v.1h-1.2a4.5 4.5 0 0 1-.2-1.2Zm.2-3.1v.9H58l-.7.3a1.1 1.1 0 0 0-.5 1l.1.6.5.4a2 2 0 0 0 1.7 0l.7-.6.3-.7.5.6-.2.6a3 3 0 0 1-1.4 1.2l-1 .2c-.5 0-1-.1-1.3-.3a2 2 0 0 1-1.2-1.8c0-.4.1-.8.3-1 .1-.4.3-.6.6-.8a3 3 0 0 1 1-.4l1.4-.2h1.4Zm5.9-2.8v1h-3.9v-1h3.9Zm-2.6-1.7h1.3v7.6l.4.3H66v1h-.3a2.9 2.9 0 0 1-.6 0 2 2 0 0 1-.8-.1 1.3 1.3 0 0 1-.6-.6 2.5 2.5 0 0 1-.3-1.1v-7.1Zm7 9a3 3 0 0 1-3-2.1 4 4 0 0 1-.3-1.4v-.3l.3-1.5c.1-.5.4-.9.7-1.2a3 3 0 0 1 2.1-1c.6 0 1 .2 1.4.3l.9.8.5 1 .2 1.5v.5h-5.4v-1h4.2a3 3 0 0 0-.2-1c-.1-.3-.3-.5-.6-.7-.2-.2-.5-.3-1-.3a1.7 1.7 0 0 0-1.3.7l-.4.8-.2 1.1v.3c0 .4 0 .7.2 1 0 .3.2.5.4.7a2 2 0 0 0 1.6.8c.4 0 .8-.1 1-.3.4-.2.6-.4.8-.7l.8.6-.6.7a3 3 0 0 1-.9.5l-1.2.2Zm7.2-3.7v-.1c0-.5.1-1 .3-1.4.1-.5.3-.9.6-1.2a2.9 2.9 0 0 1 1-.8c.4-.2.9-.2 1.4-.2.5 0 1 0 1.3.2a3.5 3.5 0 0 1 1.7 2c.2.4.3.9.3 1.4v.1l-.3 1.5c-.1.4-.3.8-.6 1.1a3 3 0 0 1-2.4 1 3 3 0 0 1-3-2.1 4.4 4.4 0 0 1-.3-1.5Zm1.3-.1v1.1l.5.9c.2.3.4.4.6.5.3.2.6.2 1 .2a1.7 1.7 0 0 0 1.4-.7l.4-.9.1-1v-.1a3.6 3.6 0 0 0-.5-1.9 1.8 1.8 0 0 0-1.5-.8 2 2 0 0 0-.9.3 1.9 1.9 0 0 0-.6.5l-.4.9-.1 1Zm8-2v5.6h-1.2v-7.1H87v1.5Zm-.3 1.8h-.5c0-.5 0-1 .2-1.4l.6-1a2.7 2.7 0 0 1 2.1-1l1 .1a1.8 1.8 0 0 1 1.1 1.3c.2.3.2.7.2 1.2v4.6h-1.2v-4.7c0-.3 0-.6-.2-.9a1 1 0 0 0-.5-.5l-.7-.1a1.8 1.8 0 0 0-1.5.7 2.6 2.6 0 0 0-.6 1.7Zm7.9-6.3v10.1h-1.2v-10.1h1.2Zm4 9.4 2-6.4h1.3l-2.9 8.2a4.5 4.5 0 0 1-.7 1.2c-.1.2-.3.3-.6.4a1.8 1.8 0 0 1-1.2.2 3.7 3.7 0 0 1-.3-.1v-1a2.6 2.6 0 0 0 1 0l.5-.4.4-.7.5-1.4Zm-1.5-6.4 1.9 5.5.3 1.3-.9.5-2.6-7.3H97Zm9 3.6v-.1l.1-1.4c.2-.5.4-.9.7-1.2a2.9 2.9 0 0 1 1-.8c.4-.2.8-.2 1.3-.2s1 0 1.4.2a3 3 0 0 1 1.7 2l.2 1.4v.1c0 .5 0 1-.2 1.5l-.7 1.1a3 3 0 0 1-2.3 1 3 3 0 0 1-3-2.1 4.4 4.4 0 0 1-.3-1.5Zm1.1-.1v.1l.1 1 .4.9c.1.3.4.4.7.5.2.2.5.2.9.2a1.7 1.7 0 0 0 1.5-.7l.4-.9v-2.1l-.4-.9a1.8 1.8 0 0 0-1.5-.8 2 2 0 0 0-1 .3 1.9 1.9 0 0 0-.6.5l-.3.9-.2 1Zm9 2.5 1.9-6h1.2l-2.6 7.1h-.8l.2-1Zm-1.7-6 2 6 .1 1.1h-.8l-2.6-7.1h1.3Zm8.9 7.3a3 3 0 0 1-3-2.1 4 4 0 0 1-.3-1.4v-.3c0-.5 0-1 .2-1.5s.4-.9.7-1.2a3 3 0 0 1 2.2-1c.5 0 1 .2 1.3.3.4.2.7.4 1 .8l.5 1 .2 1.5v.5h-5.4v-1h4.1a3 3 0 0 0-.2-1c0-.3-.2-.5-.5-.7-.2-.2-.6-.3-1-.3a1.7 1.7 0 0 0-1.3.7l-.4.8-.2 1.1v.3c0 .4 0 .7.2 1 0 .3.2.5.4.7l.6.6 1 .2a2.2 2.2 0 0 0 1.8-1l.8.6a3.4 3.4 0 0 1-.6.7 3 3 0 0 1-1 .5l-1.1.2Zm5.4-6.2v6h-1.2v-7.1h1.2v1.1Zm2.2-1.2v1.2H129.7l-.6.4-.3.6-.2.7-.3.2.1-1.2c0-.4.2-.7.4-1l.7-.7a2 2 0 0 1 1.5-.2Zm7.2 4.3 2-6.7h.9l-.6 2.6-2 7h-1l.7-2.9Zm-2-6.7 1.6 6.6.4 3h-.9l-2.3-9.6h1.3Zm7.4 6.6 1.4-6.6h1.3l-2.3 9.6h-1l.5-3Zm-2.4-6.6 1.9 6.7.6 3h-.9l-2-7-.5-2.7h1Zm7.7 2.5v7.1h-1.3v-7.1h1.3Zm-1.4-1.9.2-.5.6-.2c.2 0 .4 0 .5.2l.2.5c0 .2 0 .4-.2.5l-.5.2c-.3 0-.5 0-.6-.2a.7.7 0 0 1-.2-.5Zm5.9 4.4v1H150v-1h3.3Zm2.6-5v9.6h-1.3v-9.6h1.3Zm4 4.3v1h-4.2v-1h4.3Zm.7-4.3v1h-5v-1h5Zm2.7 2.5v7.1H162v-7.1h1.3Zm-1.3-1.9.1-.5.6-.2c.2 0 .4 0 .5.2l.2.5c0 .2 0 .4-.2.5l-.5.2c-.3 0-.4 0-.6-.2a.7.7 0 0 1-.1-.5Z"/><path fill="#888" d="m34.9 218.8-2.8 7.6H31l3.1-8.3h.8v.8Zm2.3 7.6-2.8-7.5v-.8h.7l3.2 8.3h-1.1Zm-.2-3v.8h-4.7v-.8H37Zm6.2 1.8v-7.5h1v8.7h-1v-1.2Zm-4.2-1.8v-.1c0-.5 0-1 .2-1.3 0-.4.2-.7.5-1a2.3 2.3 0 0 1 1.7-.9l1 .2.8.6.5 1 .2 1.2v.5c0 .5 0 .9-.2 1.2a2.9 2.9 0 0 1-.5 1l-.7.5a2.5 2.5 0 0 1-2 0c-.4-.2-.6-.4-.8-.7a3.2 3.2 0 0 1-.5-1c-.2-.3-.2-.8-.2-1.2Zm1-.1v.1c0 .3 0 .6.2.9 0 .2.1.5.3.7 0 .2.3.4.5.5l.7.2.9-.3c.2-.1.4-.3.5-.6.1-.2.3-.5.3-.8v-1.3c0-.2 0-.4-.2-.6a2 2 0 0 0-.3-.6 1.5 1.5 0 0 0-1.2-.5c-.3 0-.5 0-.7.2l-.5.5a2 2 0 0 0-.3.7l-.1.9Zm12.2-1v3a2.7 2.7 0 0 1-1.4 1 4.7 4.7 0 0 1-3 0 3.2 3.2 0 0 1-1.8-2 5.2 5.2 0 0 1-.2-1.7v-.7c0-.6 0-1.1.2-1.6l.6-1.3c.3-.3.7-.6 1.1-.7.4-.2.9-.3 1.4-.3.7 0 1.2.1 1.6.3.5.2.8.5 1 1 .3.3.4.7.5 1.2h-1.1a2.3 2.3 0 0 0-.3-.8 1.6 1.6 0 0 0-.6-.6 2.1 2.1 0 0 0-1-.2c-.5 0-.8 0-1 .2l-.8.6a3 3 0 0 0-.4 1l-.1 1.2v.7c0 .5 0 .9.2 1.3 0 .3.2.7.4 1a2.1 2.1 0 0 0 1.8.7h1a1.7 1.7 0 0 0 .8-.5v-2h-2v-.8h3.1Zm5.5 2.7v-4.8h1v6.2h-1V225Zm.2-1.3h.4l-.1 1.1-.4 1-.8.5c-.3.2-.7.2-1.1.2H55a1.6 1.6 0 0 1-1.1-1.2l-.1-1v-4h1v4l.1.6c0 .2.2.4.3.5l.3.2a2 2 0 0 0 1.5-.2c.3-.2.5-.4.6-.7l.2-1Zm6.1 1.7v-3.2l-.1-.6a1 1 0 0 0-.5-.5l-.7-.1-.7.1-.5.4a.8.8 0 0 0-.1.5h-1.1c0-.3 0-.5.2-.7 0-.2.2-.4.5-.6l.7-.4a3.2 3.2 0 0 1 2.3 0c.3.2.6.4.8.8.2.3.3.6.3 1.1v3.5l.2.6v.1h-1.1a3.9 3.9 0 0 1-.2-1Zm.2-2.7v.7h-1a4 4 0 0 0-.9.1l-.6.2a1 1 0 0 0-.5.9c0 .2 0 .3.2.5 0 .2.2.3.4.4l.6.1a1.8 1.8 0 0 0 1.5-.7l.2-.6.5.5-.3.6a2.5 2.5 0 0 1-1.1 1l-1 .1c-.4 0-.7 0-1-.2a1.7 1.7 0 0 1-1-1.6c0-.3 0-.6.2-.9 0-.2.3-.4.5-.6l.9-.4a4.7 4.7 0 0 1 1.1-.1h1.3Zm3.6-1.5v5.2h-1v-6.2h1v1Zm2-1v1a2.9 2.9 0 0 0-.6 0h-.7l-.4.4-.3.5-.2.6-.3.2.1-1 .4-1a1.7 1.7 0 0 1 2-.7Zm4.7 5v-7.6h1v8.8h-1v-1.2Zm-4.2-1.8v-.1c0-.5 0-1 .2-1.3l.5-1a2.3 2.3 0 0 1 1.8-.9l1 .2.7.6.5 1 .3 1.2v.5c0 .5-.2.9-.3 1.2a2.9 2.9 0 0 1-.5 1l-.7.5a2.5 2.5 0 0 1-2 0l-.8-.7a3.2 3.2 0 0 1-.5-1l-.2-1.2Zm1-.1v.1l.2.9c0 .2.1.5.3.7l.5.5.7.1c.4 0 .7 0 .9-.2.2-.1.4-.3.5-.6l.4-.8v-1.3a2.8 2.8 0 0 0-.6-1.2 1.5 1.5 0 0 0-1.2-.5c-.3 0-.5 0-.7.2l-.5.5c-.2.2-.3.5-.3.7l-.1.9Zm10.4 2 1.6-5h.7l-.2 1-1.6 5.1h-.7l.2-1Zm-1-5 1.3 5v1.1h-.6l-1.8-6.2h1Zm4.8 5 1.3-5h1l-1.8 6.1h-.7l.2-1Zm-1.4-5 1.6 5 .2 1.1h-.7l-1.7-5.2-.1-1h.7Zm6 0v6.1h-1v-6.2h1Zm-1.2-1.7.2-.4.5-.2c.2 0 .3 0 .4.2l.2.4a.6.6 0 0 1-.2.4l-.4.2c-.2 0-.4 0-.5-.2a.6.6 0 0 1-.2-.4Zm4-1v8.8h-1v-8.8h1Zm2.9 0v8.8h-1v-8.8h1Zm8.6 2.6h1v6.1c0 .5-.1 1-.4 1.4-.2.4-.5.7-.9.9a3 3 0 0 1-2.1.2 3 3 0 0 1-.8-.4c-.3-.1-.6-.3-.7-.6l.5-.6c.3.3.5.5.8.6l.9.2c.3 0 .6 0 .8-.2.3-.1.5-.3.6-.6l.2-.9v-4.7l.1-1.4Zm-4.3 3.2v-.1l.2-1.3.5-1a2.2 2.2 0 0 1 1.8-.9l1 .2.8.6.4 1c.2.3.2.7.3 1.2v.5c0 .5-.1.9-.3 1.2a2.9 2.9 0 0 1-.4 1l-.8.5a2.5 2.5 0 0 1-2 0 2.3 2.3 0 0 1-.8-.7 3.1 3.1 0 0 1-.5-1l-.2-1.2Zm1.1-.1v.1l.1.9.3.7.5.5.7.1c.4 0 .7 0 1-.2l.5-.6.3-.8v-1.3l-.2-.6-.4-.6a1.5 1.5 0 0 0-1.2-.5c-.2 0-.5 0-.7.2l-.5.5-.3.7v.9Zm8.4 3.2a2.7 2.7 0 0 1-2.7-1.8l-.2-1.2v-.2c0-.5 0-1 .2-1.3l.6-1a2.6 2.6 0 0 1 2-.9c.4 0 .7.1 1 .3.4.1.7.3.9.6l.4 1 .2 1.2v.4h-4.7v-.8h3.6v-.1a2.6 2.6 0 0 0-.2-.8c0-.3-.2-.5-.4-.7l-.9-.2a1.4 1.4 0 0 0-1.2.6l-.3.7-.1 1v.3l.1.8.4.7a1.7 1.7 0 0 0 1.3.6c.4 0 .7 0 1-.3.2-.1.5-.3.6-.6l.7.5a2.4 2.4 0 0 1-1.3 1c-.3.2-.6.2-1 .2Zm6.2-6.3v.9h-3.4v-.9h3.4Zm-2.2-1.5h1v6.2l.1.5.3.2h.3a1.8 1.8 0 0 0 .5 0v.8a2.6 2.6 0 0 1-.8.1l-.7-.1a1 1 0 0 1-.5-.5 2.1 2.1 0 0 1-.2-1v-6.2Zm7.8 7.7h-1v-6.7c0-.5 0-.9.2-1.2.2-.3.4-.6.8-.7a3.2 3.2 0 0 1 2-.2l.8.3-.2.9a5.7 5.7 0 0 0-.6-.2 2.8 2.8 0 0 0-.8-.1c-.4 0-.7 0-1 .3l-.2 1v6.6Zm1.2-6.2v.9h-3.3v-.9h3.3Zm2.1 0v6.2h-1v-6.2h1Zm3-2.6v8.8h-1.2v-8.8h1.1Zm4.2 2.6v.8h-3.3v-.8h3.3Zm-2.2-1.5h1v6.2l.1.5.3.2h.3a1.8 1.8 0 0 0 .5 0v.8a2.6 2.6 0 0 1-.8.1l-.7-.1-.5-.5a2.2 2.2 0 0 1-.2-1v-6.2Zm6 7.8c-.4 0-.8 0-1.2-.2a2.7 2.7 0 0 1-1.4-1.5c-.2-.4-.2-.8-.2-1.2v-.3c0-.5 0-1 .2-1.3.1-.4.3-.8.6-1a2.6 2.6 0 0 1 1.9-.9c.4 0 .8.1 1.1.3.4.1.6.3.8.6l.5 1 .1 1.2v.4h-4.6v-.8h3.6v-.1a2.6 2.6 0 0 0-.2-.8c-.1-.3-.2-.5-.5-.7l-.8-.2a1.4 1.4 0 0 0-1.2.6c-.1.2-.3.4-.3.7l-.2 1v.3c0 .2 0 .5.2.8l.3.7a1.7 1.7 0 0 0 1.4.6c.4 0 .7 0 1-.3l.6-.6.7.5a3 3 0 0 1-.6.6l-.7.5-1 .1Zm4.7-5.3v5.2h-1v-6.2h1v1Zm2-1v1a3 3 0 0 0-.6 0h-.6l-.5.4-.3.5-.1.6-.3.2v-1l.4-1 .6-.6a1.7 1.7 0 0 1 1.4 0Zm7.6 4.8v-4.8h1.1v6.2h-1V225Zm.2-1.3h.5l-.1 1.1-.5 1a2 2 0 0 1-.7.5c-.3.2-.7.2-1.1.2h-.9a1.7 1.7 0 0 1-1-1.2l-.2-1v-4h1v4l.2.6.2.5.4.2a2 2 0 0 0 1.5-.2c.3-.2.5-.4.6-.7l.1-1Zm3.6-2.3v7.4h-1v-8.6h.9v1.2Zm4.2 1.9v.1c0 .5 0 .9-.2 1.3a3 3 0 0 1-.5 1 2 2 0 0 1-.7.6 2.6 2.6 0 0 1-2 0c-.4 0-.6-.3-.9-.5a2.9 2.9 0 0 1-.5-1l-.2-1v-.7l.2-1.3.5-.9.8-.6a2.6 2.6 0 0 1 2 0c.4.2.6.4.8.7l.5 1 .2 1.3Zm-1.1.1v-.1l-.1-.9a2.2 2.2 0 0 0-.3-.7 1.4 1.4 0 0 0-1.3-.7c-.2 0-.5 0-.7.2a1.7 1.7 0 0 0-.8.9l-.2.6v1.4c0 .3.2.6.3.8l.6.6.8.2a1.4 1.4 0 0 0 1.3-.7l.3-.7.1-.9Zm6.3 1.8v-7.6h1v8.8h-.9v-1.2Zm-4.2-1.8v-.1l.2-1.3.5-1a2.3 2.3 0 0 1 1.8-.9l1 .2.8.6.4 1c.2.3.2.7.3 1.2v.5c0 .5-.1.9-.3 1.2a2.9 2.9 0 0 1-.4 1 2 2 0 0 1-.8.5 2.5 2.5 0 0 1-2 0l-.8-.7a3.2 3.2 0 0 1-.5-1l-.2-1.2Zm1.1-.1v.1l.1.9.3.7.5.5.8.1c.3 0 .6 0 .8-.2l.6-.6.3-.8v-1.3l-.2-.6a2 2 0 0 0-.3-.6c-.2-.1-.3-.3-.5-.3l-.7-.2c-.3 0-.6 0-.8.2l-.5.5a2 2 0 0 0-.3.7v.9Zm9.5 2v-3.1c0-.3 0-.5-.2-.6a1 1 0 0 0-.4-.5l-.7-.1-.7.1-.5.4a.8.8 0 0 0-.2.5h-1c0-.3 0-.5.2-.7 0-.2.2-.4.4-.6l.8-.4a3.2 3.2 0 0 1 2.2 0c.4.2.7.4.8.8.2.3.3.6.3 1.1v2.9l.1.6.2.6v.1h-1.1a4 4 0 0 1-.2-1Zm.2-2.6v.7h-1l-.9.1-.6.2a1 1 0 0 0-.5.9l.1.5.4.4.7.1a1.8 1.8 0 0 0 1.4-.7l.3-.6.4.5c0 .2 0 .4-.2.6a2.5 2.5 0 0 1-2 1.1c-.5 0-.8 0-1.2-.2a1.9 1.9 0 0 1-.7-.7 1.8 1.8 0 0 1-.3-.9l.2-.9.6-.6c.2-.2.5-.3.9-.4a4.7 4.7 0 0 1 1.1-.1h1.3Zm5.1-2.5v.8h-3.3v-.8h3.3Zm-2.2-1.5h1v6.2l.1.5.3.2h.3a1.8 1.8 0 0 0 .5 0v.8a2.6 2.6 0 0 1-.8.1l-.7-.1-.5-.5a2.1 2.1 0 0 1-.2-1v-6.2Zm6 7.8c-.4 0-.8 0-1.2-.2a2.7 2.7 0 0 1-1.4-1.5c-.2-.4-.2-.8-.2-1.2v-.3c0-.5 0-1 .2-1.3.1-.4.3-.8.6-1a2.6 2.6 0 0 1 1.9-.9c.4 0 .8.1 1.1.3.4.1.6.3.8.6l.5 1 .1 1.2v.4h-4.6v-.8h3.6v-.1a2.6 2.6 0 0 0-.2-.8c0-.3-.2-.5-.5-.7l-.8-.2a1.4 1.4 0 0 0-1.2.6c-.1.2-.3.4-.3.7l-.2 1v.3c0 .2 0 .5.2.8l.3.7a1.7 1.7 0 0 0 1.4.6c.4 0 .7 0 1-.3l.6-.6.7.5a3 3 0 0 1-.6.6l-.7.5-1 .1Zm7.3-1.7-.1-.4a.9.9 0 0 0-.4-.4 4 4 0 0 0-1-.3 7.2 7.2 0 0 1-.9-.2 3 3 0 0 1-.7-.4 1.4 1.4 0 0 1-.6-1.2c0-.2 0-.4.2-.7a2 2 0 0 1 1.2-1 3.2 3.2 0 0 1 2.2.2l.8.7c.2.3.3.6.3 1h-1a1 1 0 0 0-.2-.5 1 1 0 0 0-.5-.4l-.7-.2-.7.1a1 1 0 0 0-.4.4.8.8 0 0 0 0 .7c0 .1 0 .2.2.3l.4.2.7.2c.5 0 1 .2 1.3.4.3.1.5.3.7.6.2.2.2.5.2.8a1.6 1.6 0 0 1-.6 1.3l-.8.4a3.4 3.4 0 0 1-1 .1 3 3 0 0 1-1.3-.3c-.4-.2-.7-.4-.9-.7-.2-.3-.3-.6-.3-1h1c0 .3.2.5.3.7l.6.4a2.2 2.2 0 0 0 1.4 0 1 1 0 0 0 .4-.4l.2-.4Zm5-1.4v-.1c0-.5.1-.9.3-1.3a2.8 2.8 0 0 1 1.4-1.6c.3-.2.7-.3 1.2-.3.4 0 .8.1 1.1.3.4.1.7.3 1 .6l.5 1 .2 1.3v.1c0 .4 0 .9-.2 1.2l-.6 1a2.6 2.6 0 0 1-2 1 2.6 2.6 0 0 1-2.6-2c-.2-.3-.2-.8-.2-1.2Zm1.1-.1v.1l.1.9.4.7.5.5.8.2c.3 0 .5 0 .7-.2.3-.1.4-.3.6-.5l.3-.7.1-.9v-1a2.3 2.3 0 0 0-.4-.7 1.5 1.5 0 0 0-1.3-.7c-.3 0-.6 0-.8.2l-.5.5a2.3 2.3 0 0 0-.4.7v.9Zm7-1.7v4.8h-1v-6.2h1v1.4Zm-.3 1.5h-.4c0-.4 0-.8.2-1.2l.5-1a2.3 2.3 0 0 1 1.8-.8c.3 0 .6 0 .8.2.3 0 .5.2.7.3l.4.7.1 1v4.1h-1v-4l-.2-.8a.9.9 0 0 0-.4-.4 1.5 1.5 0 0 0-.7-.2 1.6 1.6 0 0 0-1.3.6 2.3 2.3 0 0 0-.5 1.5Zm6.9-5.5v8.8h-1.1v-8.8h1Zm3.4 8.2 1.7-5.6h1.2l-2.5 7.2a4 4 0 0 1-.6 1 1.7 1.7 0 0 1-1.3.5 3.3 3.3 0 0 1-.6 0v-1h.2l.1.1.6-.1c.2 0 .3-.2.5-.3l.3-.6.4-1.2Zm-1.3-5.6 1.6 4.8.3 1.2-.7.4-2.3-6.4h1.1Zm7.7 3.2v-.1l.2-1.3a2.8 2.8 0 0 1 1.5-1.6c.3-.2.7-.3 1.2-.3.4 0 .8.1 1.1.3.4.1.7.3 1 .6l.5 1 .2 1.3v.1c0 .4 0 .9-.2 1.2l-.6 1a2.6 2.6 0 0 1-2 1 2.6 2.6 0 0 1-2.7-2l-.2-1.2Zm1.1-.1v.1l.1.9.3.7.6.5.8.2c.3 0 .5 0 .7-.2.3-.1.4-.3.6-.5l.3-.7.1-.9v-1a2.2 2.2 0 0 0-.4-.7 1.6 1.6 0 0 0-1.3-.7c-.3 0-.6 0-.8.2l-.6.5a2 2 0 0 0-.3.7v.9Zm7.7 2.2 1.7-5.3h1l-2.1 6.2h-.8l.2-1Zm-1.4-5.3 1.7 5.3.2 1h-.7l-2.3-6.3h1.1Zm7.7 6.3c-.4 0-.8 0-1.2-.2a2.7 2.7 0 0 1-1.4-1.5c-.2-.4-.2-.8-.2-1.2v-.3c0-.5 0-1 .2-1.3.1-.4.3-.8.6-1a2.6 2.6 0 0 1 1.9-.9c.4 0 .8.1 1.1.3.3.1.6.3.8.6l.5 1 .1 1.2v.4h-4.6v-.8h3.6v-.1a2.7 2.7 0 0 0-.2-.8l-.5-.7-.8-.2a1.4 1.4 0 0 0-1.2.6l-.4.7v2.1l.4.7a1.7 1.7 0 0 0 1.4.6c.3 0 .7 0 1-.3l.6-.6.6.5-.5.6-.7.5-1.1.1Zm4.7-5.3v5.2h-1v-6.2h1v1Zm2-1v1a2.9 2.9 0 0 0-.6 0 1.6 1.6 0 0 0-1.1.4l-.3.5-.2.6-.3.2c0-.4 0-.8.2-1 0-.4.2-.7.3-1a1.7 1.7 0 0 1 2-.7Zm6.2 3.7 1.6-5.8h.8l-.4 2.3-1.8 6h-.8l.6-2.5Zm-1.7-5.8 1.3 5.7.4 2.6h-.8l-2-8.3h1Zm6.3 5.7 1.3-5.7h1l-2 8.3h-.7l.4-2.6Zm-2-5.7 1.6 5.8.6 2.5h-.8l-1.8-6-.4-2.3h.8Zm6.6 2.1v6.2h-1v-6.2h1Zm-1.2-1.6.2-.4.5-.2c.2 0 .3 0 .4.2l.2.4a.6.6 0 0 1-.2.4l-.4.2c-.2 0-.4 0-.5-.2a.6.6 0 0 1-.2-.4Zm5.1 3.9v.8h-2.8v-.8h2.8Zm2.3-4.4v8.3h-1v-8.3h1Zm3.5 3.7v1h-3.7v-1h3.7Zm.6-3.7v1h-4.3v-1h4.3Zm2.3 2.1v6.2h-1v-6.2h1Zm-1.2-1.6c0-.2 0-.3.2-.4l.5-.2c.1 0 .3 0 .4.2l.2.4a.6.6 0 0 1-.2.4l-.4.2c-.3 0-.4 0-.5-.2a.6.6 0 0 1-.2-.4Zm2.9 7.3c0-.2 0-.4.2-.5 0-.1.2-.2.5-.2.2 0 .3 0 .4.2.2.1.2.3.2.5l-.2.4-.4.2c-.3 0-.4 0-.5-.2a.6.6 0 0 1-.2-.4Z"/><path stroke="#67B279" stroke-linecap="round" stroke-linejoin="round" d="M324 204.8h-16.2V221H324v-16.2Z" clip-rule="evenodd"/><path fill="#4D4D4D" d="M37 274.4v-.6a1.1 1.1 0 0 0-.4-.5 2.8 2.8 0 0 0-.7-.4l-1.1-.3-1.3-.5a4.5 4.5 0 0 1-1-.6 2.2 2.2 0 0 1-.9-1.8 2.3 2.3 0 0 1 1-1.8c.2-.3.6-.5 1-.6l1.3-.2c.7 0 1.4.1 1.9.4.5.3.8.7 1.1 1.1.3.4.4 1 .4 1.4H37c0-.3 0-.7-.2-1l-.7-.6c-.3-.2-.7-.2-1.2-.2-.4 0-.8 0-1.1.2-.3 0-.5.3-.7.5l-.2.8.1.6.4.4.7.4 1 .3 1.5.6 1 .6a2.3 2.3 0 0 1 .7 1.8 2.3 2.3 0 0 1-.9 1.9l-1 .5a5 5 0 0 1-4-.6 2.5 2.5 0 0 1-1-2.1h1.2a1.7 1.7 0 0 0 .7 1.4c.2.1.5.3.8.3a3.6 3.6 0 0 0 2 0l.7-.6c.2-.2.3-.5.3-.8Zm4-7.7v10.1h-1.2v-10H41Zm-.3 6.3h-.5c0-.5 0-1 .2-1.4l.6-1a2.7 2.7 0 0 1 2.1-1l1 .1a1.8 1.8 0 0 1 1.1 1.3l.2 1.2v4.6h-1.2v-4.7c0-.3 0-.6-.2-.9a1 1 0 0 0-.5-.4c-.2-.2-.5-.2-.8-.2a1.8 1.8 0 0 0-1.4.7 2.6 2.6 0 0 0-.6 1.7Zm6.2.3v-.1c0-.5 0-1 .2-1.4.2-.5.4-.9.7-1.2a2.9 2.9 0 0 1 1-.8l1.3-.2c.5 0 1 0 1.4.2.4.2.8.5 1 .8.3.3.5.7.7 1.2l.2 1.4v.2c0 .5 0 1-.2 1.4l-.7 1.1a3 3 0 0 1-2.3 1 3 3 0 0 1-3-2.1 4.4 4.4 0 0 1-.3-1.4Zm1.2-.1v.2c0 .3 0 .6.2 1 0 .3.2.6.3.8l.7.6.9.2.8-.2.7-.6.4-.8v-2.2l-.4-.8a1.8 1.8 0 0 0-1.6-.8 2 2 0 0 0-.8.2 1.9 1.9 0 0 0-.7.6c-.1.2-.3.5-.3.8l-.2 1Zm8.7 2.4 1.8-5.9h.8l-.2 1.2-1.8 6h-.8l.2-1.3Zm-1.3-5.9 1.6 6v1.1h-.7l-2.1-7.1h1.2Zm5.7 5.9 1.5-6h1.2l-2.1 7.2H61l.2-1.2Zm-1.6-6 1.8 5.9.2 1.3h-.8l-2-6v-1.1h.8Zm13.3 5.6v-5.5H74v7.1h-1.2v-1.6Zm.2-1.5h.5c0 .4 0 .9-.2 1.3a3 3 0 0 1-.4 1c-.3.3-.5.6-.9.7-.4.2-.8.3-1.3.3a2.9 2.9 0 0 1-1-.2 2 2 0 0 1-1.2-1.3 4 4 0 0 1-.1-1.2v-4.6h1.2V275.1l.4.5.4.3h.5c.5 0 1 0 1.2-.3.3-.2.5-.4.7-.8l.2-1.1Zm7 1.2-.1-.4a1 1 0 0 0-.5-.5 3.9 3.9 0 0 0-1-.3c-.4 0-.8-.2-1.1-.3a3.3 3.3 0 0 1-.8-.4 1.6 1.6 0 0 1-.7-1.3c0-.3 0-.6.2-.8l.5-.7.8-.5a3.4 3.4 0 0 1 1.1-.1c.6 0 1 0 1.5.3.4.2.7.4 1 .8a2 2 0 0 1 .3 1.1H80l-.1-.6a1.3 1.3 0 0 0-.6-.5l-.8-.1-.8.1a1 1 0 0 0-.4.4 1 1 0 0 0-.1.9l.2.3.5.2.9.2 1.4.5c.4.2.7.4.9.7l.2 1a1.9 1.9 0 0 1-.7 1.5 2.8 2.8 0 0 1-.9.4 4 4 0 0 1-2.7-.2 2.5 2.5 0 0 1-1-.8 2 2 0 0 1-.4-1.2H77c0 .4 0 .6.3.8.1.2.4.4.6.4a2.6 2.6 0 0 0 1.6 0c.2 0 .4-.2.5-.3a.8.8 0 0 0 .2-.6Zm5.8 2c-.5 0-1 0-1.3-.2a3 3 0 0 1-1.7-1.8 4 4 0 0 1-.3-1.4v-.3l.3-1.5c.1-.5.4-.8.7-1.2a3 3 0 0 1 2.1-1c.6 0 1 .2 1.4.3.3.2.7.4.9.8l.5 1 .2 1.5v.5h-5.4v-1h4.2a3 3 0 0 0-.2-1c-.1-.3-.3-.6-.6-.7-.2-.2-.5-.3-1-.3a1.7 1.7 0 0 0-1.3.7l-.4.8-.1 1.1v1.3l.5.7a2 2 0 0 0 1.6.8c.4 0 .8-.1 1-.3l.9-.7.7.6-.6.6a2.8 2.8 0 0 1-.9.6l-1.2.2Zm6 0h-1.2v-8c0-.5.1-.9.3-1.2.2-.4.5-.7.8-.9l1.3-.2a3.3 3.3 0 0 1 .8 0v1h-.7c-.3 0-.5 0-.7.2a1 1 0 0 0-.4.4l-.2.8v7.8Zm1.6-7.2v1h-4v-1h4Zm5.7 5.5v-5.5h1.2v7.1h-1.2v-1.6Zm.2-1.5h.5l-.1 1.3a3 3 0 0 1-.5 1c-.2.3-.5.6-.9.7-.3.2-.8.3-1.3.3a2.9 2.9 0 0 1-1-.2 2 2 0 0 1-1.1-1.3 4 4 0 0 1-.2-1.2v-4.6H96v4.6l.1.8c0 .2.2.4.3.5l.4.3h.5c.6 0 1 0 1.3-.3.3-.2.5-.4.6-.8l.2-1.1Zm4.2-7v10.1h-1.2v-10h1.2Zm9.6 9v-3.8l-.2-.7a1.1 1.1 0 0 0-.5-.5l-.9-.2-.8.2-.5.4a1 1 0 0 0-.2.6h-1.2c0-.3 0-.5.2-.8l.5-.7 1-.5c.1-.2.7-.1 1.1-.1.5 0 1 0 1.4.2l1 .8c.2.4.3.8.3 1.3v4.1l.2.7v.1h-1.2a4.5 4.5 0 0 1-.3-1.2Zm.2-3.2v.9h-2.2a2 2 0 0 0-.7.3 1.1 1.1 0 0 0-.6 1l.2.6.5.4.7.2a2 2 0 0 0 1.7-.8l.3-.7.5.6-.3.6a3 3 0 0 1-1.3 1.2l-1 .2c-.6 0-1-.1-1.3-.3a2 2 0 0 1-1.2-1.8l.2-1c.2-.4.4-.6.7-.8a3 3 0 0 1 1-.4l1.3-.2h1.5Zm7.4 3v-8.8h1.2v10.1h-1l-.2-1.4Zm-4.8-2.2c0-.6 0-1.1.2-1.6.1-.4.3-.8.6-1.1a2.5 2.5 0 0 1 2-1c.5 0 .9 0 1.2.2l.9.7.5 1 .3 1.5v.6c0 .5-.1 1-.3 1.4-.1.4-.3.8-.6 1-.2.4-.5.6-.8.7a2.9 2.9 0 0 1-2.3 0 2.7 2.7 0 0 1-1-.8l-.5-1.1-.2-1.4Zm1.2 0 .1 1 .4.9c.1.2.3.4.6.5.2.2.5.2.8.2.4 0 .8 0 1-.2l.6-.7.4-1v-1.5a3.5 3.5 0 0 0-.2-.7 2 2 0 0 0-.4-.6 1.7 1.7 0 0 0-.6-.5 2 2 0 0 0-.8-.1c-.3 0-.6 0-.8.2-.3.1-.5.3-.6.6a3 3 0 0 0-.4.8v1Zm10.9 1.6-.1-.5a1 1 0 0 0-.5-.4 3.9 3.9 0 0 0-1-.3 8.3 8.3 0 0 1-1.1-.3 3.3 3.3 0 0 1-.8-.4 1.6 1.6 0 0 1-.7-1.3c0-.3 0-.6.2-.8 0-.3.3-.5.5-.7l.8-.5a3.4 3.4 0 0 1 1.1-.1c.6 0 1 0 1.5.3.4.2.7.4 1 .8a2 2 0 0 1 .3 1.1H128c0-.2 0-.4-.2-.6a1.3 1.3 0 0 0-.5-.5l-.8-.1-.8.1a1 1 0 0 0-.5.4 1 1 0 0 0 0 .9l.2.3.5.2.9.2 1.4.5c.4.2.7.4.8.7.2.2.3.6.3 1a1.9 1.9 0 0 1-.7 1.5 2.8 2.8 0 0 1-1 .4 4 4 0 0 1-2.6-.2 2.5 2.5 0 0 1-1-.8 2 2 0 0 1-.4-1.2h1.3c0 .4 0 .6.3.8.1.2.4.4.6.4a2.6 2.6 0 0 0 1.6 0c.2 0 .4-.2.5-.3a.8.8 0 0 0 .2-.6Z"/><path fill="#888" d="M36.5 286.5h1.1v5.7c0 .6-.1 1.1-.4 1.5l-1 1c-.6.2-1 .3-1.6.3a3.7 3.7 0 0 1-1.5-.3 2.5 2.5 0 0 1-1.1-1c-.3-.4-.4-1-.4-1.5v-5.7h1.1v5.7c0 .4 0 .7.2 1l.7.7 1 .2 1-.2.7-.7c.2-.3.2-.6.2-1v-5.7Zm3.8 3.5v4.8h-1v-6.1h1v1.3Zm-.3 1.5h-.4c0-.4 0-.8.2-1.2l.5-1a2.3 2.3 0 0 1 1.8-.8c.3 0 .6 0 .8.2.3 0 .5.2.6.4.2.1.3.4.4.7l.2 1v4h-1v-4l-.2-.8a.9.9 0 0 0-.4-.4l-.7-.2a1.6 1.6 0 0 0-1.3.7 2.3 2.3 0 0 0-.5 1.4Zm5.7-5.4h1v8.7h-1v-8.7Zm5.2 5.6v.1l-.1 1.3a3 3 0 0 1-.5 1c-.2.2-.4.5-.7.6-.3.2-.7.3-1 .3l-1.1-.2-.8-.6-.4-1a5.8 5.8 0 0 1-.3-1.2v-.5c0-.5.1-.9.3-1.2 0-.4.3-.7.5-1l.7-.6 1-.2c.4 0 .8.1 1 .3.4.1.6.3.8.6l.5 1 .1 1.3Zm-1 .1v-.1l-.1-.9a2.2 2.2 0 0 0-.3-.7 1.4 1.4 0 0 0-1.2-.7 1.5 1.5 0 0 0-1.2.5l-.4.6-.2.6v1.4l.3.7.6.6c.2.2.5.3.9.3a1.4 1.4 0 0 0 1.2-.7l.3-.7v-.9Zm3.5-5.7v8.7h-1v-8.7h1Zm1.4 5.7v-.1l.2-1.3c.1-.4.4-.7.6-1a2.7 2.7 0 0 1 2-.9 2.8 2.8 0 0 1 2.1 1c.3.2.5.6.6 1l.2 1.2v.1c0 .5 0 .9-.2 1.3a3 3 0 0 1-.6 1 2.6 2.6 0 0 1-2 .9 2.6 2.6 0 0 1-2.6-2c-.2-.3-.2-.7-.2-1.2Zm1.1-.1v.1l.1.9.3.7.6.5.8.2c.3 0 .5 0 .7-.2a1.9 1.9 0 0 0 1-1.2v-1.9a2.2 2.2 0 0 0-.4-.7 1.5 1.5 0 0 0-1.3-.7c-.3 0-.6 0-.8.2l-.6.5a2.3 2.3 0 0 0-.3.7v.9Zm8.4 2.4c.3 0 .5 0 .7-.2.2 0 .4-.2.5-.4l.3-.6h1c0 .4-.2.7-.4 1a2.5 2.5 0 0 1-2.1 1c-.5 0-.9 0-1.2-.2a2.4 2.4 0 0 1-.9-.7 3 3 0 0 1-.5-1 4.1 4.1 0 0 1-.2-1.1v-.3l.2-1.1.5-1 .9-.7c.3-.2.7-.3 1.2-.3s1 .1 1.3.3a2.3 2.3 0 0 1 1.2 2h-1c0-.3-.1-.5-.3-.7a1.4 1.4 0 0 0-1.2-.7c-.3 0-.6 0-.8.2l-.5.5a2.4 2.4 0 0 0-.3.7v1.1a4 4 0 0 0 0 .8c0 .2.1.5.3.7 0 .2.3.4.5.5l.8.2Zm4.7-8v8.7h-1v-8.7h1Zm3.8 2.6-2.7 2.8-1.5 1.6V292l1-1.3 2-2h1.2Zm-1 6.1-2.2-2.9.6-1 2.9 4h-1.2Zm5.7-1.6v-.4a.9.9 0 0 0-.5-.4l-1-.3a7.2 7.2 0 0 1-.8-.2l-.7-.4a1.4 1.4 0 0 1-.6-1.2l.1-.6c.1-.3.3-.4.5-.6l.7-.4 1-.2c.5 0 .9.1 1.2.3.4.2.7.4.8.7.2.3.3.6.3 1h-1a.9.9 0 0 0-.2-.5l-.4-.4-.7-.2c-.3 0-.6 0-.8.2a.9.9 0 0 0-.4.3.8.8 0 0 0 0 .7.7.7 0 0 0 .2.3l.4.2.8.2 1.2.4c.3.1.6.3.7.6.2.2.3.5.3.8a1.6 1.6 0 0 1-.7 1.3l-.7.4a3.4 3.4 0 0 1-1 .2 3 3 0 0 1-1.4-.3c-.4-.2-.7-.5-.9-.8-.2-.3-.3-.6-.3-1h1.1c0 .3.1.6.3.7l.5.4a2.2 2.2 0 0 0 1.4 0 1 1 0 0 0 .5-.3l.1-.5Zm9 .6v-3.2l-.1-.6a1 1 0 0 0-.4-.5l-.8-.1-.7.1-.4.4a.8.8 0 0 0-.2.5h-1l.1-.7.5-.6.8-.4a3.3 3.3 0 0 1 2.2 0l.8.8c.2.3.3.7.3 1.1V294.2l.2.6h-1c-.2 0-.2-.2-.2-.4a3.9 3.9 0 0 1 0-.6Zm.2-2.7v.7h-1a4 4 0 0 0-.8.1l-.6.2a1 1 0 0 0-.5.9v.5l.5.4.7.1a1.8 1.8 0 0 0 1.4-.7l.2-.6.5.6-.2.5a2.5 2.5 0 0 1-1.2 1l-.9.2c-.4 0-.8-.1-1.1-.3a1.7 1.7 0 0 1-1-1.6c0-.3 0-.6.2-.8l.6-.7.8-.4a4.7 4.7 0 0 1 1.2-.1h1.2Zm6.5 2.5v-7.5h1v8.7h-1v-1.2Zm-4.2-1.8v-.1c0-.5 0-.9.2-1.3 0-.4.2-.7.5-1a2.3 2.3 0 0 1 1.7-.8l1 .1c.4.2.6.4.8.7.2.2.4.5.5.9l.2 1.2v.5c0 .5 0 .9-.2 1.3a2.9 2.9 0 0 1-.5.9l-.7.6a2.5 2.5 0 0 1-2 0c-.4-.2-.6-.4-.8-.7a3.2 3.2 0 0 1-.5-1c-.2-.4-.2-.8-.2-1.3Zm1-.1v.1c0 .3 0 .6.2.9l.2.7c.2.2.3.4.6.5l.7.2.9-.3.5-.5c.2-.3.3-.5.3-.8V291c0-.2 0-.4-.2-.6 0-.2-.2-.4-.3-.5l-.5-.4-.7-.2a1.5 1.5 0 0 0-1.3.7l-.3.7v1Zm9.5 1.5-.1-.4a.9.9 0 0 0-.4-.4l-1-.3a7.2 7.2 0 0 1-.9-.2l-.7-.4a1.4 1.4 0 0 1-.6-1.2c0-.2 0-.4.2-.6 0-.3.3-.4.5-.6l.7-.4 1-.2 1.2.3.8.7c.2.3.3.6.3 1h-1a.9.9 0 0 0-.2-.5l-.5-.4-.7-.2c-.3 0-.5 0-.7.2a.9.9 0 0 0-.4.3.8.8 0 0 0 0 .7.7.7 0 0 0 .2.3l.4.2.7.2c.5.1 1 .2 1.3.4.3.1.5.3.7.6.2.2.2.5.2.8a1.6 1.6 0 0 1-.6 1.3l-.8.4a3.4 3.4 0 0 1-1 .2 3 3 0 0 1-1.3-.3c-.4-.2-.7-.5-.9-.8-.2-.3-.3-.6-.3-1h1l.3.7.6.4a2.2 2.2 0 0 0 1.4 0 1 1 0 0 0 .4-.3l.2-.5Zm8-4.5v.8H104v-.8h3.3Zm-2.3-1.5h1v6.1l.2.5.2.2H107.5v.9a2.6 2.6 0 0 1-.8 0h-.8a1 1 0 0 1-.5-.6 2.1 2.1 0 0 1-.2-1v-6.1Zm4.6-1.1v8.7h-1.1v-8.7h1Zm-.3 5.4h-.4a3.4 3.4 0 0 1 .7-2.1 2.3 2.3 0 0 1 1.8-.8h.8l.6.5c.2.1.3.4.4.7l.2 1v4h-1.1v-4l-.1-.8a.9.9 0 0 0-.5-.4 1.5 1.5 0 0 0-.6-.2 1.6 1.6 0 0 0-1.3.7 2.4 2.4 0 0 0-.5 1.4Zm9.3 2.3v-3.2l-.1-.6a1 1 0 0 0-.5-.5l-.7-.1-.7.1-.5.4a.8.8 0 0 0-.2.5h-1c0-.2 0-.5.2-.7 0-.2.2-.4.5-.6l.7-.4a3.2 3.2 0 0 1 2.2 0c.4.2.7.5.9.8.2.3.3.7.3 1.1V294.2l.2.6H119a3.8 3.8 0 0 1-.2-1Zm.2-2.7v.7h-1l-.9.1-.6.2a1 1 0 0 0-.5.9c0 .2 0 .4.2.5 0 .2.2.3.4.4l.6.1a1.8 1.8 0 0 0 1.5-.7l.2-.6.5.6-.3.5a2.5 2.5 0 0 1-1.1 1l-1 .2c-.4 0-.7-.1-1-.3a1.9 1.9 0 0 1-.8-.6 1.8 1.8 0 0 1-.2-1c0-.3 0-.6.2-.9l.5-.6.9-.4a4.7 4.7 0 0 1 1.2-.1h1.2Zm5.1-2.4v.8h-3.3v-.8h3.3Zm-2.2-1.5h1v6.1l.2.5.2.2h.8v.9a2.6 2.6 0 0 1-.8 0h-.7l-.5-.6a2.1 2.1 0 0 1-.2-1v-6.1Zm8.9 6.9c.2 0 .4 0 .7-.2.2 0 .4-.2.5-.4l.2-.6h1c0 .4-.1.7-.3 1a2.5 2.5 0 0 1-2.2 1 3 3 0 0 1-1.2-.2 2.4 2.4 0 0 1-.8-.7c-.3-.2-.4-.6-.5-1a4.1 4.1 0 0 1-.2-1.1v-.3c0-.4 0-.8.2-1.1a3 3 0 0 1 .5-1l.8-.7c.4-.2.8-.3 1.3-.3.4 0 .9.1 1.2.3a2.3 2.3 0 0 1 1.2 2h-1a2 2 0 0 0-.2-.7 1.4 1.4 0 0 0-1.2-.7c-.4 0-.6 0-.9.2l-.5.5-.3.7V292.7l.3.7.5.5.9.2Zm7.3-.3v-3.2c0-.2 0-.5-.2-.6a1 1 0 0 0-.4-.5l-.7-.1-.7.1-.5.4a.8.8 0 0 0-.2.5h-1l.1-.7.5-.6.8-.4a3.2 3.2 0 0 1 2.2 0c.4.2.6.5.8.8.2.3.3.7.3 1.1v2.9a4 4 0 0 0 .2 1.3h-1l-.2-.4v-.6Zm.2-2.7v.7h-1.1l-.8.1-.6.2a1 1 0 0 0-.4.4 1 1 0 0 0 0 1l.4.4.7.1a1.8 1.8 0 0 0 1.4-.7l.3-.6.4.5c0 .2 0 .4-.2.6a2.5 2.5 0 0 1-1.2 1l-.9.2c-.4 0-.8-.1-1-.3a1.7 1.7 0 0 1-1-1.6 1.8 1.8 0 0 1 .7-1.5c.2-.2.5-.3.9-.4a4.7 4.7 0 0 1 1.1-.1h1.2Zm3.6-1.1v4.8h-1.1v-6.1h1v1.3Zm-.3 1.5h-.4c0-.4 0-.8.2-1.2l.5-1a2.3 2.3 0 0 1 1.8-.8c.3 0 .6 0 .8.2.3 0 .5.2.6.4.2.1.3.4.4.7l.2 1v4h-1.1v-4l-.1-.8a.9.9 0 0 0-.5-.4l-.6-.2a1.6 1.6 0 0 0-1.3.7 2.3 2.3 0 0 0-.5 1.4Zm8.6-5.4h1v8.7h-1v-8.7Zm5.2 5.6v.1l-.1 1.3a3 3 0 0 1-.5 1l-.7.6c-.3.2-.7.3-1 .3l-1.1-.2a2 2 0 0 1-.8-.6l-.4-1c-.2-.3-.2-.7-.3-1.2v-.5c0-.5.1-.9.3-1.2 0-.4.2-.7.4-1l.8-.6a2.6 2.6 0 0 1 2 0c.4.2.6.4.8.7l.5 1 .1 1.3Zm-1 .1v-.1l-.1-.9a2.2 2.2 0 0 0-.3-.7 1.4 1.4 0 0 0-1.2-.7 1.5 1.5 0 0 0-1.2.5l-.4.6-.2.6v1.4l.3.7.6.6c.2.2.5.3.9.3a1.4 1.4 0 0 0 1.2-.7l.3-.7v-.9Zm5 3.2a2.6 2.6 0 0 1-2.7-1.8l-.2-1.2v-.3c0-.5 0-1 .2-1.3l.6-1a2.6 2.6 0 0 1 2-.8c.3 0 .7 0 1 .2.4.1.6.4.8.6.3.3.4.6.5 1l.2 1.2v.4H157v-.8h3.6a2.6 2.6 0 0 0-.2-.9c0-.3-.2-.5-.4-.6-.2-.2-.5-.3-.9-.3a1.4 1.4 0 0 0-1.2.6l-.3.8-.1 1v1l.4.7a1.7 1.7 0 0 0 1.4.6c.4 0 .7 0 1-.2l.6-.6.7.5-.5.6-.8.4a3 3 0 0 1-1 .2Zm10.3-1.6v-4.7h1v6.1h-1v-1.4Zm.2-1.3h.4l-.1 1.1c0 .4-.2.7-.4 1a2 2 0 0 1-.8.5c-.3.2-.6.3-1 .3s-.7 0-1-.2a1.6 1.6 0 0 1-.6-.4 1.8 1.8 0 0 1-.4-.7l-.1-1v-4h1v4l.1.7.3.4.4.2h.4c.4 0 .8 0 1-.2.3-.2.5-.4.6-.7l.2-1Zm6 1.1v-.4a.9.9 0 0 0-.4-.4l-1-.3a7.2 7.2 0 0 1-.9-.2 3 3 0 0 1-.7-.4 1.4 1.4 0 0 1-.6-1.2c0-.2 0-.4.2-.6 0-.3.3-.4.5-.6l.7-.4 1-.2 1.2.3.8.7c.2.3.3.6.3 1h-1a.9.9 0 0 0-.2-.5 1 1 0 0 0-.5-.4l-.7-.2c-.3 0-.5 0-.7.2a1 1 0 0 0-.4.3.8.8 0 0 0 0 .7.7.7 0 0 0 .2.3l.4.2.7.2c.5.1 1 .2 1.3.4.3.1.5.3.7.6.2.2.2.5.2.8a1.6 1.6 0 0 1-.6 1.3l-.8.4a3.4 3.4 0 0 1-1 .2 3 3 0 0 1-1.3-.3c-.4-.2-.7-.5-.9-.8-.2-.3-.3-.6-.3-1h1c0 .3.2.6.3.7l.6.4a2.2 2.2 0 0 0 1.4 0 1 1 0 0 0 .4-.3l.2-.5Zm5.1 1.8a2.6 2.6 0 0 1-2.6-1.8l-.3-1.2v-.3c0-.5.1-1 .3-1.3.1-.4.3-.7.6-1a2.6 2.6 0 0 1 1.9-.9c.4 0 .8.1 1.1.3.3.1.6.3.8.6l.5 1 .1 1.2v.4h-4.6v-.8h3.6a2.6 2.6 0 0 0-.2-.9c-.1-.3-.3-.5-.5-.6-.2-.2-.5-.3-.8-.3a1.4 1.4 0 0 0-1.2.6l-.4.7v2.1l.4.7a1.7 1.7 0 0 0 1.4.6c.3 0 .7 0 1-.2l.6-.6.6.5a2.4 2.4 0 0 1-1.3 1 3 3 0 0 1-1 .2Zm5.2-.2h-1V288c0-.4 0-.8.2-1.1.2-.3.4-.6.7-.7a2.8 2.8 0 0 1 1.8-.2v.9a1.2 1.2 0 0 0-1.2 0 .9.9 0 0 0-.3.5l-.2.6v6.8Zm1.4-6.1v.8h-3.4v-.8h3.3Zm5 4.7v-4.7h1v6.1h-1v-1.4Zm.1-1.3h.5c0 .4 0 .8-.2 1.1 0 .4-.2.7-.4 1a2 2 0 0 1-.7.5c-.3.2-.7.3-1.2.3-.3 0-.5 0-.8-.2a1.6 1.6 0 0 1-1-1c-.2-.4-.2-.7-.2-1.2v-4h1v4l.2.8a1 1 0 0 0 .6.6h.4c.5 0 .8 0 1-.2.3-.2.5-.4.6-.7.2-.3.2-.6.2-1Zm3.6-6v8.7h-1v-8.7h1Zm7.2 2.6v.8h-3.3v-.8h3.4Zm-2.2-1.5h1.1v6.1l.1.5.2.2H203.6v.8a2.6 2.6 0 0 1-.8.2c-.3 0-.5 0-.8-.2-.2 0-.3-.3-.5-.5a2.1 2.1 0 0 1-.2-1v-6.1Zm3.1 4.6v-.1a3.6 3.6 0 0 1 .8-2.3 2.7 2.7 0 0 1 2-.9 2.8 2.8 0 0 1 2 1c.3.2.5.6.6 1 .2.3.2.7.2 1.2v.1c0 .5 0 .9-.2 1.3 0 .3-.3.7-.5 1a2.6 2.6 0 0 1-2 .9 2.6 2.6 0 0 1-2.1-1 3 3 0 0 1-.6-1l-.2-1.2Zm1-.1v.1l.2.9c0 .3.2.5.3.7.1.2.3.4.6.5l.7.2c.3 0 .6 0 .8-.2a1.9 1.9 0 0 0 .9-1.2v-1.9a2.2 2.2 0 0 0-.4-.7 1.5 1.5 0 0 0-1.3-.7c-.3 0-.5 0-.7.2-.3.1-.5.3-.6.5a2.7 2.7 0 0 0-.4 1.6Zm12.7 1.7v-4.7h1v6.1h-1v-1.4Zm.2-1.3h.4l-.1 1.1-.4 1a2 2 0 0 1-.8.5c-.3.2-.7.3-1.1.3-.3 0-.6 0-.8-.2a1.6 1.6 0 0 1-.7-.4 1.8 1.8 0 0 1-.4-.7l-.1-1v-4h1v4l.1.7.3.4.3.2a2 2 0 0 0 1.5-.2c.3-.2.5-.4.6-.7l.2-1Zm6 1.1v-.4a.9.9 0 0 0-.4-.4l-1-.3a7.2 7.2 0 0 1-.9-.2l-.7-.4a1.4 1.4 0 0 1-.6-1.2c0-.2 0-.4.2-.6 0-.3.2-.4.4-.6l.8-.4.9-.2c.5 0 1 .1 1.3.3l.8.7c.2.3.3.6.3 1h-1.1a.9.9 0 0 0-.2-.5c0-.2-.2-.3-.4-.4l-.7-.2c-.3 0-.5 0-.7.2a.9.9 0 0 0-.4.3.8.8 0 0 0 0 .7.7.7 0 0 0 .1.3l.5.2.7.2c.5.1 1 .2 1.3.4.3.1.5.3.7.6.2.2.2.5.2.8a1.6 1.6 0 0 1-.6 1.3l-.8.4a3.4 3.4 0 0 1-1 .2 3 3 0 0 1-1.3-.3l-1-.8-.2-1h1c0 .3.2.6.3.7l.6.4a2.2 2.2 0 0 0 1.4 0 1 1 0 0 0 .4-.3l.2-.5Zm5 1.8a2.6 2.6 0 0 1-2.6-1.8l-.2-1.2v-.3c0-.5.1-1 .3-1.3a3 3 0 0 1 .6-1 2.6 2.6 0 0 1 1.8-.9c.5 0 .9.1 1.2.3.3.1.6.3.8.6l.4 1 .2 1.2v.4h-4.6v-.8h3.5a2.6 2.6 0 0 0-.1-.9c-.1-.3-.3-.5-.5-.6-.2-.2-.5-.3-.9-.3a1.4 1.4 0 0 0-1.1.6l-.4.7v2.1l.4.7a1.7 1.7 0 0 0 1.3.6c.4 0 .7 0 1-.2l.7-.6.6.5-.5.5-.8.5a3 3 0 0 1-1 .2Zm4.8-5.4v5.2h-1v-6.1h1v1Zm2-1v1a2.9 2.9 0 0 0-.6 0h-.6a1.4 1.4 0 0 0-.8.9l-.2.6-.3.2.1-1 .4-1c.1-.2.3-.4.6-.5a1.7 1.7 0 0 1 1.3-.2Zm4.5 4.6v-.4a.9.9 0 0 0-.5-.4l-1-.3a7.2 7.2 0 0 1-.8-.2 3 3 0 0 1-.7-.4 1.4 1.4 0 0 1-.6-1.2l.1-.6c.1-.3.3-.4.5-.6l.7-.4 1-.2c.5 0 .9.1 1.2.3.4.2.6.4.8.7.2.3.3.6.3 1h-1a.9.9 0 0 0-.2-.5 1 1 0 0 0-.4-.4l-.7-.2c-.3 0-.6 0-.8.2a1 1 0 0 0-.4.3.8.8 0 0 0 0 .7.7.7 0 0 0 .2.3l.4.2.7.2c.6.1 1 .2 1.3.4.3.1.6.3.7.6.2.2.3.5.3.8a1.6 1.6 0 0 1-.7 1.3l-.7.4-1 .2a3 3 0 0 1-1.4-.3c-.4-.2-.7-.5-.9-.8-.2-.3-.3-.6-.3-1h1.1c0 .3.1.6.3.7l.5.4a2.2 2.2 0 0 0 1.4 0 1 1 0 0 0 .5-.3l.1-.5Zm2.5 1 .1-.4.5-.2c.3 0 .4.1.5.2l.2.5c0 .2 0 .3-.2.4 0 .2-.2.2-.5.2-.2 0-.3 0-.5-.2a.6.6 0 0 1-.1-.4Z"/><path stroke="#67B279" stroke-linecap="round" stroke-linejoin="round" d="M324 273.2h-16.2v16.2H324v-16.2Z" clip-rule="evenodd"/><path fill="#4D4D4D" d="M33.2 335.7v9.6h-1.3v-9.6h1.3Zm4 4.3v1H33v-1h4.3Zm.7-4.3v1h-5v-1h5Zm2.6 2.4v7.2h-1.2V338h1.2Zm-1.3-1.9c0-.2 0-.3.2-.5l.5-.2.6.2a.7.7 0 0 1 0 1c-.2.2-.3.2-.6.2-.2 0-.4 0-.5-.2a.7.7 0 0 1-.2-.5Zm4.6-1v10h-1.2v-10h1.2Zm5 3v.9h-3.9v-1h3.9Zm-2.6-1.8h1.2v7c0 .3 0 .5.2.6 0 .2.1.2.3.3h.3a2 2 0 0 0 .6 0v1h-.4a2.9 2.9 0 0 1-.5 0H47a1.3 1.3 0 0 1-.6-.7 2.5 2.5 0 0 1-.2-1.1v-7.1Zm7 9c-.5 0-1 0-1.4-.3a3 3 0 0 1-1.7-1.8 4 4 0 0 1-.2-1.4v-.2c0-.6 0-1.1.3-1.6.1-.4.4-.8.7-1.1a3 3 0 0 1 3.5-.7c.3.1.6.4.9.7l.5 1.1.2 1.4v.5h-5.4v-1h4.1a3 3 0 0 0-.2-1c0-.3-.2-.5-.5-.7-.2-.2-.6-.3-1-.3a1.7 1.7 0 0 0-1.3.7l-.4.8-.2 1.2v.2c0 .4 0 .7.2 1 0 .3.2.5.4.8a2 2 0 0 0 1.6.7 2.2 2.2 0 0 0 1.8-1l.8.6-.6.7a2.8 2.8 0 0 1-.9.5l-1.2.2Zm5.4-6.1v6h-1.2V338h1.2v1.2ZM61 338v1.1h-.7l-.7.1c-.2 0-.4.2-.5.4l-.4.5a2.7 2.7 0 0 0-.2.7l-.3.2.1-1.2.4-1 .7-.7a2 2 0 0 1 1.6-.1Zm5.2 5.3v-.5a1 1 0 0 0-.5-.4 3.9 3.9 0 0 0-1.1-.4c-.4 0-.8-.2-1-.3a3.3 3.3 0 0 1-.9-.4 1.6 1.6 0 0 1-.7-1.3c0-.3 0-.6.2-.8l.5-.7.9-.4a3.4 3.4 0 0 1 1-.2c.6 0 1.1 0 1.5.3.4.2.8.5 1 .8a2 2 0 0 1 .3 1.1h-1.2c0-.2 0-.4-.2-.6a1.3 1.3 0 0 0-.5-.4l-.8-.2c-.4 0-.6 0-.9.2-.2 0-.3.2-.4.3a1 1 0 0 0 0 .9c0 .1 0 .2.2.3l.5.2.8.3a6.7 6.7 0 0 1 1.4.4c.4.2.7.4.9.7.2.3.3.6.3 1a1.9 1.9 0 0 1-.8 1.5c-.2.2-.5.3-.9.4a4 4 0 0 1-1 .2c-.7 0-1.3-.1-1.7-.3a2.5 2.5 0 0 1-1-1 2 2 0 0 1-.3-1h1.2a1.3 1.3 0 0 0 1 1.2 2.6 2.6 0 0 0 1.5 0l.6-.4a.8.8 0 0 0 .1-.5Z"/><path fill="#888" d="M36.2 361.2v-.5a1 1 0 0 0-.4-.5 2.4 2.4 0 0 0-.6-.3 8.3 8.3 0 0 0-1-.3 9 9 0 0 1-1-.5 3.9 3.9 0 0 1-1-.5 1.9 1.9 0 0 1-.7-1.5 2 2 0 0 1 .8-1.6l.9-.5a3.8 3.8 0 0 1 2.8.2c.4.2.7.5 1 1 .2.3.3.7.3 1.2h-1.1c0-.4 0-.6-.2-.9a1.4 1.4 0 0 0-.6-.5 2.2 2.2 0 0 0-1-.3c-.4 0-.8 0-1 .2a1.2 1.2 0 0 0-.8 1.2l.1.5.4.4.6.3.9.3 1.2.4.9.6.5.7a2.3 2.3 0 0 1 0 1.8 2 2 0 0 1-.7.7c-.2.2-.5.3-.9.4a4.3 4.3 0 0 1-2.3 0c-.4 0-.7-.2-1-.5a2.2 2.2 0 0 1-1-1.8h1l.2.7.5.5.6.3a3.2 3.2 0 0 0 1.8 0 1.2 1.2 0 0 0 .8-1.2Zm5 2.2a2.7 2.7 0 0 1-2.7-1.8l-.2-1.2v-.2c0-.5 0-1 .2-1.4a3 3 0 0 1 .6-1 2.6 2.6 0 0 1 2-.8c.3 0 .7 0 1 .2l.8.6.5 1 .1 1.2v.5H39v-.9h3.6a2.6 2.6 0 0 0-.2-.9c0-.2-.2-.4-.4-.6-.2-.2-.5-.3-.9-.3a1.4 1.4 0 0 0-1.2.6l-.3.8-.1 1v1l.4.7a1.7 1.7 0 0 0 1.4.6c.4 0 .7 0 1-.2l.6-.6.7.5a2.4 2.4 0 0 1-1.3 1l-1 .2Zm4.7-9v8.9h-1v-8.8h1Zm4.3 9a2.7 2.7 0 0 1-2.6-1.8c-.2-.4-.2-.8-.2-1.2v-.2c0-.5 0-1 .2-1.4.1-.4.3-.7.6-1a2.6 2.6 0 0 1 1.9-.8c.4 0 .8 0 1.1.2l.8.6.5 1 .1 1.2v.5H48v-.9h3.6a2.6 2.6 0 0 0-.2-.9l-.5-.6c-.2-.2-.5-.3-.8-.3a1.4 1.4 0 0 0-1.2.6c-.1.2-.3.5-.3.8l-.2 1v.2c0 .3 0 .6.2.8a2 2 0 0 0 .9 1.2l.8.1c.3 0 .7 0 1-.2l.6-.6.6.5a3 3 0 0 1-.5.6l-.7.4-1 .2Zm6.1-.9.7-.1c.3-.1.4-.3.6-.5l.2-.6h1c0 .4-.1.7-.4 1a2.5 2.5 0 0 1-2 1c-.5 0-1 0-1.3-.2a2.4 2.4 0 0 1-.8-.6c-.3-.3-.4-.6-.5-1a4.2 4.2 0 0 1-.2-1.2v-.2c0-.5 0-.9.2-1.2a3 3 0 0 1 .5-1l.8-.7a3 3 0 0 1 1.2-.2c.5 0 1 0 1.3.3a2.3 2.3 0 0 1 1.2 2h-1c0-.4 0-.6-.2-.8l-.5-.5a1.4 1.4 0 0 0-.8-.2 1.5 1.5 0 0 0-1.3.7 2.4 2.4 0 0 0-.3.8v1a4 4 0 0 0 0 .8c0 .3.2.5.3.7l.5.5c.2.2.5.2.8.2Zm6.3-5.4v.8h-3.4v-.8h3.4Zm-2.2-1.5h1v6.1l.1.5.3.2h.3a1.8 1.8 0 0 0 .5 0v.9h-1.5c-.2-.2-.4-.3-.5-.6a2.1 2.1 0 0 1-.2-1v-6.1Zm8 6.6 1.5-5.1h.7l-.1 1-1.7 5.2h-.6l.1-1.1Zm-1.2-5.1 1.4 5.1.1 1H68l-1.8-6.1h1Zm5 5 1.2-5h1l-1.7 6.2H72l.1-1.1Zm-1.4-5 1.5 5 .2 1.2h-.7l-1.6-5.2-.2-1h.8Zm5.8-2.6v8.8h-1v-8.8h1Zm-.2 5.4h-.5a3.4 3.4 0 0 1 .7-2 2.3 2.3 0 0 1 1.9-1l.8.2c.2 0 .4.2.6.4l.4.7.1 1v4h-1v-4c0-.3 0-.6-.2-.8a.9.9 0 0 0-.4-.4l-.7-.1a1.6 1.6 0 0 0-1.2.6 2.3 2.3 0 0 0-.5 1.4Zm9.3 2.3V359c0-.2 0-.4-.2-.6a1 1 0 0 0-.4-.4l-.7-.2c-.3 0-.5 0-.7.2a1 1 0 0 0-.5.3.8.8 0 0 0-.2.5h-1l.1-.7.5-.6.8-.4a3.3 3.3 0 0 1 2.2.1c.4.1.6.4.8.7.2.3.3.7.3 1.1v3a3.8 3.8 0 0 0 .3 1.2h-1.1a3.9 3.9 0 0 1-.2-1Zm.2-2.7v.8h-1a4 4 0 0 0-.9 0l-.6.2a1 1 0 0 0-.5 1l.1.4.4.4.7.1a1.8 1.8 0 0 0 1.5-.6l.2-.6.4.5c0 .1 0 .3-.2.5a2.5 2.5 0 0 1-1.1 1 2.3 2.3 0 0 1-1 .2c-.4 0-.8-.1-1-.3a1.7 1.7 0 0 1-1-1.6l.1-.8.6-.7.9-.4a4.7 4.7 0 0 1 1.1 0H86Zm5.1-2.4v.8h-3.3v-.8H91Zm-2.2-1.5h1v6.1l.1.5.3.2h.3a1.8 1.8 0 0 0 .5 0v.9h-1.5a1 1 0 0 1-.5-.6 2.1 2.1 0 0 1-.2-1v-6.1Zm7.8 7.7h-1v-6.8c0-.4 0-.8.2-1.2.2-.3.4-.5.8-.7a3.2 3.2 0 0 1 2-.1l.8.2-.2 1a5.7 5.7 0 0 0-.6-.3H98c-.5 0-.8 0-1 .2-.2.2-.3.5-.3 1v6.7Zm1.2-6.2v.8h-3.3v-.8h3.3Zm2.1 0v6.2h-1V357h1Zm3-2.6v8.8h-1.2v-8.8h1.1Zm4.2 2.6v.8h-3.3v-.8h3.3Zm-2.2-1.5h1v6.1l.1.5.3.2h.3a1.8 1.8 0 0 0 .5 0v.9h-1.5c-.2-.2-.4-.3-.5-.6a2.1 2.1 0 0 1-.2-1v-6.1Zm6 7.8a2.7 2.7 0 0 1-2.6-1.8c-.2-.4-.2-.8-.2-1.2v-.2c0-.6 0-1 .2-1.4.1-.4.3-.7.6-1a2.6 2.6 0 0 1 1.9-.8c.4 0 .8 0 1.1.2l.8.6.5 1 .1 1.2v.5h-4.6v-.9h3.6a2.6 2.6 0 0 0-.2-.9c0-.2-.2-.4-.5-.6-.2-.2-.5-.3-.8-.3a1.4 1.4 0 0 0-1.2.6c-.1.2-.3.5-.3.8l-.2 1v.2a2.5 2.5 0 0 0 .5 1.5 1.7 1.7 0 0 0 1.4.6c.4 0 .7 0 1-.2l.6-.6.7.5a3 3 0 0 1-.6.6l-.7.4a3 3 0 0 1-1 .2Zm4.7-5.3v5.2h-1V357h1v1Zm2-1v1a3 3 0 0 0-.6-.1l-.6.1a1.3 1.3 0 0 0-.8.8l-.1.6-.3.2v-1l.4-1 .6-.5a1.7 1.7 0 0 1 1.4-.1Zm4.6 4.5-.1-.4a.9.9 0 0 0-.4-.4l-1-.2a7.2 7.2 0 0 1-.9-.3l-.7-.4a1.4 1.4 0 0 1-.6-1.1c0-.3 0-.5.2-.7 0-.2.2-.4.4-.6l.7-.4 1-.1c.5 0 1 0 1.3.2l.8.7c.2.3.2.7.2 1h-1a.9.9 0 0 0-.2-.5c0-.2-.2-.3-.4-.4l-.7-.2c-.3 0-.5 0-.7.2a1 1 0 0 0-.4.3.8.8 0 0 0 0 .7.7.7 0 0 0 .1.3l.5.2.7.2 1.2.4.8.6.2.8a1.6 1.6 0 0 1-.6 1.4l-.8.4h-1a3 3 0 0 1-1.4-.2 2 2 0 0 1-.8-.8c-.2-.3-.3-.6-.3-1h1c0 .3.1.6.3.7l.6.4a2.2 2.2 0 0 0 1.3 0 1 1 0 0 0 .5-.3l.2-.5Zm8-4.5v.8h-3.4v-.8h3.3Zm-2.3-1.5h1v6.1c0 .2 0 .4.2.5l.2.2h.3a1.8 1.8 0 0 0 .5 0v.9h-1.5c-.2-.2-.4-.3-.5-.6a2.2 2.2 0 0 1-.2-1v-6.1Zm3 4.6a3.6 3.6 0 0 1 .8-2.3l.9-.7c.3-.2.7-.2 1.2-.2.4 0 .8 0 1.1.2l1 .7.5 1 .2 1.2v.1c0 .5 0 .9-.2 1.3l-.6 1a2.6 2.6 0 0 1-2 .9 3 3 0 0 1-1.2-.2 2.7 2.7 0 0 1-1.5-1.7l-.1-1.3Zm1.1 0 .1 1 .4.6.5.5c.2.2.5.2.8.2.3 0 .5 0 .7-.2.3 0 .4-.2.6-.5.1-.2.3-.4.3-.7l.1-.9v-1a2.2 2.2 0 0 0-.4-.7 1.5 1.5 0 0 0-1.3-.7 1.6 1.6 0 0 0-1.3.7 2 2 0 0 0-.4.8v.8Zm12.6 1.6v-4.7h1.1v6.2h-1v-1.5Zm.2-1.3h.5c0 .4 0 .8-.2 1.2 0 .3-.2.6-.4.9l-.7.6-1.2.2-.8-.1a1.7 1.7 0 0 1-1-1.2l-.2-1v-4h1v4l.2.7.2.4.4.2h.4c.5 0 .8 0 1-.2.4-.1.5-.4.7-.7l.1-1Zm6.1 1.1v-.4a.9.9 0 0 0-.5-.4l-1-.2a7.3 7.3 0 0 1-.8-.3l-.7-.4a1.4 1.4 0 0 1-.6-1.1l.1-.7.5-.6.7-.4 1-.1c.5 0 .9 0 1.2.2.4.2.7.4.8.7.2.3.3.7.3 1h-1a1 1 0 0 0-.2-.5 1 1 0 0 0-.4-.4l-.7-.2c-.3 0-.6 0-.8.2a1 1 0 0 0-.4.3.8.8 0 0 0 0 .7c0 .2.1.2.2.3l.4.2.8.2 1.2.4.7.6c.2.2.3.5.3.8a1.6 1.6 0 0 1-.7 1.4l-.7.4h-1a3 3 0 0 1-1.4-.2 2 2 0 0 1-.9-.8c-.2-.3-.3-.6-.3-1h1.1c0 .3.1.6.3.7l.5.4a2.2 2.2 0 0 0 1.4 0 1 1 0 0 0 .5-.3l.1-.5Zm5 1.8a2.7 2.7 0 0 1-2.6-1.8l-.2-1.2v-.2c0-.6 0-1 .2-1.4l.6-1a2.6 2.6 0 0 1 2-.8c.3 0 .7 0 1 .2l.8.6.5 1 .1 1.2v.5h-4.6v-.9h3.6a2.6 2.6 0 0 0-.2-.9c0-.2-.2-.4-.4-.6-.2-.2-.5-.3-.9-.3a1.4 1.4 0 0 0-1.2.6l-.3.8-.1 1v1l.4.7a1.7 1.7 0 0 0 1.4.6c.4 0 .7 0 1-.2l.6-.6.7.5a2.5 2.5 0 0 1-1.3 1l-1 .2Z"/><path fill="#CDCDCD" d="M341.2 375v9h-9l9-9Zm0 68.4v9h-9l9-9Z"/><path fill="#4D4D4D" d="M37.7 410.6H39a4 4 0 0 1-.5 1.6 3 3 0 0 1-1.2 1.2 4 4 0 0 1-2 .4 3.4 3.4 0 0 1-2.7-1.2 4 4 0 0 1-.7-1.4 6 6 0 0 1-.3-1.8v-1c0-.7 0-1.3.3-1.8.1-.6.4-1 .7-1.4l1.2-1a4 4 0 0 1 1.6-.2c.8 0 1.4 0 1.9.4.5.2.9.6 1.2 1l.5 1.8h-1.3a3.5 3.5 0 0 0-.3-1.2c-.2-.3-.4-.6-.7-.7-.3-.2-.7-.3-1.2-.3a2.3 2.3 0 0 0-2 1l-.5 1a6 6 0 0 0-.1 1.4v1l.1 1.3.5 1c.2.4.4.6.7.8.3.2.7.3 1.1.3.6 0 1-.1 1.3-.3.4-.1.6-.4.8-.7.1-.3.3-.7.3-1.2Zm4.2-7v10h-1.3v-10H42Zm5 10.2c-.6 0-1 0-1.5-.2a3 3 0 0 1-1.7-1.9 4 4 0 0 1-.2-1.3v-.3c0-.6.1-1.1.3-1.6.1-.4.4-.8.7-1.1a3 3 0 0 1 2.1-1c.5 0 1 .1 1.4.3l.9.7.5 1.1.2 1.4v.6h-5.3v-1h4v-.1a3 3 0 0 0-.1-1c-.1-.3-.3-.5-.6-.7-.2-.2-.5-.3-1-.3a1.7 1.7 0 0 0-1.3.7l-.4.8-.2 1.2v.3l.2 1 .4.7a2 2 0 0 0 1.6.7c.4 0 .8 0 1-.3.4-.1.6-.4.9-.7l.7.6-.6.7a2.8 2.8 0 0 1-.9.5l-1.2.2Zm8.3-1.3v-3.7l-.1-.8a1.1 1.1 0 0 0-.5-.4 2 2 0 0 0-.9-.2 2 2 0 0 0-.8.1l-.5.5a1 1 0 0 0-.2.5H51c0-.2 0-.5.2-.7 0-.3.3-.5.5-.7l1-.5 1.1-.2c.5 0 1 .1 1.4.3.4.1.7.4 1 .8l.2 1.3v3.3l.1.8.2.7h-1.3a4.5 4.5 0 0 1-.2-1.1Zm.2-3.1v.8h-1.2l-1 .1-.6.2-.4.4a1.3 1.3 0 0 0 0 1.2c0 .2.2.4.4.5l.8.1a2 2 0 0 0 1.7-.8l.2-.6.6.5-.3.6a3 3 0 0 1-1.3 1.2l-1 .2c-.6 0-1 0-1.3-.3a2 2 0 0 1-1.2-1.8c0-.4 0-.7.2-1l.7-.7a3 3 0 0 1 1-.5l1.3-.1h1.4Zm4.2-1.7v6h-1.2v-7.2h1.2v1.2Zm2.2-1.2v1.1h-.6l-.7.1-.6.4-.3.5-.2.8-.3.2.1-1.3c0-.3.2-.7.4-1 .2-.3.4-.5.7-.6a2 2 0 0 1 1.5-.2Zm7.5 0v1h-3.9v-1h4Zm-2.5-1.7H68V412.5l.4.2H69.3v1a3 3 0 0 1-.9.1c-.3 0-.6 0-.8-.2a1.3 1.3 0 0 1-.6-.6 2.5 2.5 0 0 1-.2-1.1v-7Zm5.2-1.3v10.2h-1.3v-10.2H72Zm-.3 6.3h-.5c0-.5 0-1 .2-1.3.1-.5.3-.8.6-1.1a2.7 2.7 0 0 1 2-1c.4 0 .7 0 1 .2.3 0 .5.2.7.4l.5.8.2 1.2v4.7H75V409l-.1-1a1 1 0 0 0-.5-.4l-.8-.2a1.8 1.8 0 0 0-1.5.8 2.6 2.6 0 0 0-.5 1.6Zm9.5 4c-.5 0-1 0-1.4-.2a3 3 0 0 1-1.7-1.9 4 4 0 0 1-.2-1.3v-.3c0-.6 0-1.1.2-1.6l.7-1.1a3 3 0 0 1 2.2-1c.5 0 1 .1 1.3.3l1 .7.5 1.1.1 1.4v.6h-5.3v-1h4.1v-.1a3 3 0 0 0-.2-1c0-.3-.3-.5-.5-.7-.2-.2-.6-.3-1-.3a1.7 1.7 0 0 0-1.4.7l-.4.8v2.5l.5.7a2 2 0 0 0 1.5.7c.5 0 .8 0 1.1-.3.3-.1.6-.4.8-.7l.8.6a3 3 0 0 1-.6.7 2.8 2.8 0 0 1-1 .5l-1.1.2Zm9.2-.1H89v-7.8c0-.5.1-1 .4-1.3.2-.4.5-.7.9-.9a3.6 3.6 0 0 1 2.3-.2l1 .3-.3 1a6.4 6.4 0 0 0-.7-.2 3.2 3.2 0 0 0-.9 0c-.5 0-.9 0-1 .3-.3.2-.4.5-.4 1v7.8Zm1.4-7.2v1H88v-1h3.8Zm2.4 0v7.2H93v-7.2h1.2Zm3.4-3v10.2h-1.3v-10.1h1.3Zm5 3v1h-4v-1h4Zm-2.6-1.7h1.2v7.1l.1.6.3.2h.4a2 2 0 0 0 .6 0v1a2.9 2.9 0 0 1-1 .1c-.3 0-.6 0-.8-.2a1.3 1.3 0 0 1-.6-.6 2.5 2.5 0 0 1-.2-1.1v-7Zm7 9c-.6 0-1 0-1.4-.2a3 3 0 0 1-1.7-1.9 4 4 0 0 1-.3-1.3v-.3c0-.6.1-1.1.3-1.6l.7-1.1a3 3 0 0 1 2.2-1c.5 0 1 .1 1.3.3l1 .7.4 1.1.2 1.4v.6h-5.3v-1h4v-.1a3 3 0 0 0-.1-1l-.5-.7c-.3-.2-.6-.3-1-.3a1.7 1.7 0 0 0-1.4.7l-.4.8-.1 1.2v.3l.1 1 .4.7a2 2 0 0 0 1.6.7c.4 0 .8 0 1-.3.4-.1.6-.4.9-.7l.7.6c-.1.3-.3.5-.6.7a2.8 2.8 0 0 1-.9.5l-1.2.2Zm5.4-6.1v6H111v-7.2h1.2v1.2Zm2.2-1.2v1.1h-.3a3 3 0 0 0-.3 0l-.8.1-.5.4-.4.5-.1.8-.4.2c0-.5 0-.9.2-1.3 0-.3.2-.7.4-1 .1-.3.4-.5.6-.6a2 2 0 0 1 1.6-.2Zm7.3 6.3c.3 0 .6 0 .8-.2.3 0 .5-.3.6-.5.2-.2.3-.4.3-.7h1.2c0 .4-.2.8-.4 1.2a3 3 0 0 1-2.5 1.2c-.5 0-1 0-1.4-.3a3 3 0 0 1-1.5-1.9c-.2-.4-.2-.9-.2-1.4v-.2c0-.5 0-1 .2-1.4 0-.4.3-.8.5-1.1.3-.4.6-.6 1-.8.4-.2 1-.3 1.4-.3.6 0 1 .1 1.5.4a2.7 2.7 0 0 1 1.4 2.2h-1.2c0-.3 0-.6-.2-.8a1.6 1.6 0 0 0-1.5-.8 2 2 0 0 0-.9.2l-.6.6-.3.9-.1.9v1.2l.4.8.6.6 1 .2Zm8.5-.3v-3.7c0-.3 0-.5-.2-.7a1.1 1.1 0 0 0-.5-.5 2.1 2.1 0 0 0-1.7 0c-.2 0-.3.2-.5.4a1 1 0 0 0-.2.5h-1.2c0-.2 0-.5.2-.7.1-.3.3-.5.6-.7.2-.2.5-.4.9-.5l1.1-.2c.6 0 1 .1 1.4.3.4.2.7.4 1 .8.2.3.3.8.3 1.3v4.1l.3.7h-1.3a4.4 4.4 0 0 1-.2-1.1Zm.2-3.1v.8h-1.2l-1 .1-.7.2-.4.5-.1.5.1.6.5.5.7.1a2 2 0 0 0 1.7-.8l.3-.6.5.6-.2.6a3 3 0 0 1-1.4 1.1l-1 .2c-.5 0-1 0-1.3-.3a2 2 0 0 1-1.1-1.8c0-.4 0-.7.2-1 .1-.3.3-.5.6-.7a3 3 0 0 1 1-.5l1.4-.1h1.4Zm5.8 3.4c.3 0 .5 0 .8-.2.2 0 .5-.3.6-.5.2-.2.3-.4.3-.7h1.1c0 .4-.1.8-.4 1.2a3 3 0 0 1-2.4 1.2 2.8 2.8 0 0 1-2.4-1l-.6-1.2-.2-1.4v-.2c0-.5 0-1 .2-1.4.1-.4.3-.8.6-1.1.3-.4.6-.6 1-.8a3 3 0 0 1 1.4-.3c.6 0 1 .1 1.5.3a2.7 2.7 0 0 1 1.3 2.3h-1.1c0-.3-.1-.6-.3-.8a1.6 1.6 0 0 0-1.4-.8 2 2 0 0 0-1 .2l-.6.6-.3.9v1.1a4 4 0 0 0 .3 1.8l.6.6 1 .2Zm5.4-9.3v10.2h-1.2v-10.1h1.2Zm-.3 6.3h-.5l.2-1.3.6-1.1a2.7 2.7 0 0 1 2.1-1c.4 0 .7 0 1 .2.3 0 .5.2.7.4l.5.8.1 1.2v4.7H145V409c0-.4 0-.7-.2-1a1 1 0 0 0-.4-.4l-.8-.2a1.8 1.8 0 0 0-1.5.8 2.7 2.7 0 0 0-.6 1.6Zm9.5 4a3 3 0 0 1-3-2 4 4 0 0 1-.3-1.4v-.3c0-.6.1-1.1.3-1.6l.7-1.1a3 3 0 0 1 2.2-1c.5 0 1 .1 1.3.3l1 .7.4 1.1.2 1.4v.6h-5.3v-1h4v-.1a3 3 0 0 0-.1-1l-.5-.7c-.3-.2-.6-.3-1-.3a1.7 1.7 0 0 0-1.4.7l-.4.8-.1 1.2v.3l.1 1 .4.7a2 2 0 0 0 1.6.7c.4 0 .8 0 1.1-.3.3-.1.6-.4.8-.7l.7.6a2.8 2.8 0 0 1-1.5 1.2l-1.2.2Z"/><path fill="#888" d="M36.8 429h1.1c0 .6-.2 1-.5 1.4-.2.5-.6.8-1 1-.4.3-1 .4-1.7.4a3 3 0 0 1-2.3-1l-.7-1.3a5 5 0 0 1-.2-1.6v-.8c0-.6 0-1.1.2-1.6s.4-.9.7-1.2a3 3 0 0 1 1-.8c.4-.2 1-.3 1.4-.3.7 0 1.2.2 1.6.4.5.2.8.6 1 1 .3.4.4.9.5 1.4h-1.1a3 3 0 0 0-.3-1c-.1-.3-.3-.5-.6-.6a2.1 2.1 0 0 0-1-.2 2 2 0 0 0-1.7.8 2.8 2.8 0 0 0-.5.9l-.1 1.2v.8l.1 1.2.4 1 .7.6 1 .2c.4 0 .8 0 1-.2.3-.2.6-.4.7-.7l.3-1Zm3.6-6.1v8.8h-1v-8.8h1Zm4.3 8.9A2.7 2.7 0 0 1 42 430l-.2-1.2v-.2c0-.5.1-1 .3-1.4a3 3 0 0 1 .5-1 2.6 2.6 0 0 1 2-.8c.4 0 .8 0 1 .2.4.2.7.4.9.7.2.2.3.6.4 1l.2 1.1v.5h-4.6v-.9H46a2.6 2.6 0 0 0-.1-.8l-.5-.7c-.2-.2-.5-.2-.9-.2a1.5 1.5 0 0 0-1.1.6l-.4.7-.1 1v.2l.1.8c0 .3.2.5.4.7a1.6 1.6 0 0 0 1.3.6c.4 0 .7 0 1-.2l.7-.6.6.5a2.4 2.4 0 0 1-1.3 1l-1 .2Zm7.3-1.2v-3.2c0-.2 0-.4-.2-.6a1 1 0 0 0-.4-.4l-.7-.2c-.3 0-.5 0-.7.2-.2 0-.4.2-.5.3a.8.8 0 0 0-.2.5h-1l.1-.6.5-.6.8-.4a3 3 0 0 1 1-.2c.5 0 .9 0 1.2.2.4.2.6.4.8.7.2.3.3.7.3 1.1v3.6l.3.6h-1.1a3.9 3.9 0 0 1-.2-1Zm.2-2.7v.8H51a4 4 0 0 0-.8 0l-.6.3a1 1 0 0 0-.5.8l.1.5.4.4.7.2a1.8 1.8 0 0 0 1.4-.7l.3-.6.4.5c0 .1 0 .3-.2.5a2.5 2.5 0 0 1-1.2 1 2.3 2.3 0 0 1-.9.2c-.4 0-.8 0-1-.3a1.7 1.7 0 0 1-1-1.5l.1-1 .6-.5c.2-.2.5-.3.9-.4a4.7 4.7 0 0 1 1.1-.2h1.3Zm3.6-1.4v5.2h-1.1v-6.2h1v1Zm1.9-1v1a2.6 2.6 0 0 0-.5-.1 1.6 1.6 0 0 0-1.2.4c0 .2-.2.3-.3.5l-.1.7-.3.1.1-1c0-.4.2-.6.4-.9.1-.3.3-.5.6-.6a1.7 1.7 0 0 1 1.3-.1Zm4.6 4.5-.1-.4a.9.9 0 0 0-.4-.3c-.2-.2-.5-.2-1-.3a7.2 7.2 0 0 1-.9-.3 3 3 0 0 1-.7-.3 1.4 1.4 0 0 1-.6-1.2c0-.3 0-.5.2-.7 0-.2.2-.4.4-.6l.8-.4 1-.1c.4 0 .8 0 1.2.3.3.1.6.3.8.6.2.3.3.7.3 1h-1a.9.9 0 0 0-.2-.5l-.5-.4-.7-.1h-.7a1 1 0 0 0-.4.4.8.8 0 0 0 0 .8l.2.2.4.2.7.2 1.3.4.7.6c.2.2.2.5.2.9a1.6 1.6 0 0 1-.6 1.3l-.8.4-1 .1a3 3 0 0 1-1.3-.3c-.4-.2-.7-.4-.9-.8-.2-.3-.3-.6-.3-1h1c0 .4.2.6.3.8l.6.3a2.2 2.2 0 0 0 1.4 0c.2 0 .3-.2.4-.3l.2-.5Zm6.8 1.7H68V425c0-.5.1-.9.3-1.2.2-.4.4-.6.8-.8a3.2 3.2 0 0 1 2-.1l.8.2-.2 1a5.7 5.7 0 0 0-.6-.3 3 3 0 0 0-.8 0c-.4 0-.7 0-1 .2l-.2 1v6.7Zm1.2-6.2v.8H67v-.8h3.3Zm2.1 0v6.2h-1v-6.2h1Zm3-2.6v8.8h-1.2v-8.8h1.1Zm4.2 2.6v.8h-3.3v-.8h3.3Zm-2.2-1.5h1v6.2l.1.4.3.2h.3a1.8 1.8 0 0 0 .5 0v.9h-.3l-.5.1c-.2 0-.5 0-.7-.2a1 1 0 0 1-.5-.5 2.1 2.1 0 0 1-.2-1V424Zm6 7.8a2.7 2.7 0 0 1-2.6-1.8c-.2-.4-.2-.8-.2-1.2v-.2c0-.5 0-1 .2-1.4a3 3 0 0 1 .6-1 2.6 2.6 0 0 1 1.9-.8c.4 0 .8 0 1.1.2l.8.7.5 1 .1 1.1v.5h-4.6v-.9h3.6a2.6 2.6 0 0 0-.2-.8l-.5-.7c-.2-.2-.5-.2-.8-.2a1.5 1.5 0 0 0-1.2.6c-.1.2-.3.4-.3.7l-.2 1v.2c0 .3 0 .6.2.8 0 .3.2.5.3.7a1.6 1.6 0 0 0 1.4.6c.3 0 .7 0 1-.2l.6-.6.7.5a2.4 2.4 0 0 1-1.3 1l-1 .2Zm4.7-5.3v5.2h-1v-6.2h1v1Zm2-1v1a2.6 2.6 0 0 0-.6-.1 1.6 1.6 0 0 0-1 .4l-.4.5-.1.7-.3.1v-1l.4-.9.6-.6a1.7 1.7 0 0 1 1.3-.1Zm4.6 4.5a.9.9 0 0 0-.2-.4.9.9 0 0 0-.4-.3 4 4 0 0 0-.9-.3 7.2 7.2 0 0 1-1-.3 3 3 0 0 1-.6-.3 1.4 1.4 0 0 1-.6-1.2l.1-.7.5-.6.7-.4 1-.1c.5 0 .9 0 1.3.3.3.1.6.3.8.6l.2 1h-1a.9.9 0 0 0-.2-.5 1 1 0 0 0-.4-.4l-.7-.1h-.7a1 1 0 0 0-.4.4.8.8 0 0 0 0 .8l.1.2.5.2.7.2 1.2.4.8.6.2.9a1.6 1.6 0 0 1-.7 1.3 2.4 2.4 0 0 1-.7.4l-1 .1a3 3 0 0 1-1.4-.3c-.4-.2-.6-.4-.8-.8-.2-.3-.3-.6-.3-1h1c0 .4.1.6.3.8l.5.3a2.2 2.2 0 0 0 1.4 0c.2 0 .4-.2.5-.3l.1-.5Zm7.8 1 .7-.2.5-.5c.2-.1.2-.3.2-.6h1c0 .4 0 .7-.3 1a2.5 2.5 0 0 1-2.1 1.1 3 3 0 0 1-1.2-.3 2.4 2.4 0 0 1-.9-.6 3 3 0 0 1-.5-1 4.2 4.2 0 0 1-.2-1.2v-.2c0-.4 0-.8.2-1.2l.5-1c.2-.3.5-.5.9-.7a3 3 0 0 1 1.2-.2c.5 0 .9 0 1.3.3a2.2 2.2 0 0 1 1.2 2h-1c0-.3-.1-.6-.3-.8a1.4 1.4 0 0 0-1.2-.7l-.8.2-.6.6-.2.7-.1.8v1l.3.7c.2.2.3.4.6.5.2.2.5.2.8.2Zm7.3-.4v-3.2l-.1-.6a1 1 0 0 0-.5-.4l-.7-.2c-.3 0-.5 0-.7.2-.2 0-.4.2-.5.3a.8.8 0 0 0-.1.5H106c0-.2 0-.4.2-.6 0-.3.2-.5.5-.6l.7-.4a3 3 0 0 1 1-.2c.5 0 .9 0 1.2.2.4.2.7.4.8.7.2.3.3.7.3 1.1v3a4 4 0 0 0 .3 1.2H110a3.8 3.8 0 0 1-.2-1Zm.2-2.7v.8h-1a4 4 0 0 0-.9 0l-.6.3a1 1 0 0 0-.5.8c0 .2 0 .4.2.5 0 .2.2.3.4.4l.6.2a1.8 1.8 0 0 0 1.5-.7l.2-.6.5.5-.3.5a2.5 2.5 0 0 1-1.1 1 2.3 2.3 0 0 1-1 .2c-.4 0-.7 0-1-.3a1.7 1.7 0 0 1-1-1.5c0-.4 0-.7.2-1 0-.2.3-.4.5-.5l.9-.4a4.7 4.7 0 0 1 1.2-.2h1.2Zm5 3 .7-.1.5-.5c.2-.1.2-.3.3-.6h1c0 .4-.2.7-.4 1a2.5 2.5 0 0 1-2.1 1.1 3 3 0 0 1-1.2-.3 2.4 2.4 0 0 1-.9-.6 3 3 0 0 1-.5-1 4.1 4.1 0 0 1-.1-1.2v-.2l.1-1.2.5-1 .9-.7a3 3 0 0 1 1.2-.2c.5 0 1 0 1.3.3a2.3 2.3 0 0 1 1.2 2h-1l-.2-.8a1.4 1.4 0 0 0-1.3-.7l-.8.2c-.2.2-.4.3-.5.6-.2.2-.2.4-.3.7v1.8c0 .3.1.5.3.7 0 .2.3.4.5.5.2.2.5.2.8.2Zm4.7-8v8.8h-1v-8.8h1Zm-.2 5.5h-.5l.2-1.2.5-1a2.3 2.3 0 0 1 1.9-.8l.8.1c.2 0 .4.2.6.4l.4.7.1 1v4h-1v-4c0-.3 0-.6-.2-.8a.9.9 0 0 0-.4-.4l-.7-.1a1.6 1.6 0 0 0-1.2.6 2.3 2.3 0 0 0-.5 1.5Zm8.2 3.4a2.7 2.7 0 0 1-2.7-1.8l-.2-1.2v-.2c0-.5.1-1 .3-1.4a3 3 0 0 1 .6-1 2.6 2.6 0 0 1 1.9-.8c.4 0 .8 0 1.1.2l.8.7.5 1 .1 1.1v.5h-4.6v-.9h3.6a2.6 2.6 0 0 0-.2-.8l-.5-.7c-.2-.2-.5-.2-.8-.2a1.4 1.4 0 0 0-1.2.6l-.4.7a3.7 3.7 0 0 0 0 1v1l.4.7.6.5.8.1c.3 0 .7 0 .9-.2.3-.1.5-.3.7-.6l.6.5a2.6 2.6 0 0 1-2.3 1.2Zm10.2-1.2v-3.2l-.1-.6a1 1 0 0 0-.5-.4l-.7-.2c-.3 0-.5 0-.7.2-.2 0-.4.2-.5.3a.8.8 0 0 0-.1.5h-1.1c0-.2 0-.4.2-.6 0-.3.3-.5.5-.6l.7-.4a3 3 0 0 1 1-.2c.5 0 1 0 1.3.2l.8.7c.2.3.3.7.3 1.1v3a4 4 0 0 0 .2 1.2H138a3.8 3.8 0 0 1-.2-1Zm.2-2.7v.8h-1.9l-.6.3a1 1 0 0 0-.5.8c0 .2 0 .4.2.5 0 .2.2.3.4.4l.6.2a1.8 1.8 0 0 0 1.5-.7l.2-.6.5.5-.3.5a2.5 2.5 0 0 1-1.1 1 2.3 2.3 0 0 1-1 .2c-.3 0-.7 0-1-.3a1.7 1.7 0 0 1-1-1.5c0-.4 0-.7.2-1 0-.2.3-.4.5-.5l1-.4a4.7 4.7 0 0 1 1-.2h1.3Zm3.6-1v4.8h-1v-6.2h1v1.3Zm-.3 1.5h-.4c0-.5 0-.9.2-1.2l.5-1a2.3 2.3 0 0 1 1.8-.8l.8.1c.3 0 .5.2.7.4l.4.7.1 1v4h-1v-4l-.2-.8a.9.9 0 0 0-.4-.4l-.7-.1a1.6 1.6 0 0 0-1.3.6 2.4 2.4 0 0 0-.5 1.5Zm9.6 2V423h1v8.8h-.9v-1.2Zm-4.1-1.7v-.2l.1-1.2.5-1a2.2 2.2 0 0 1 1.8-1c.4 0 .7.1 1 .3.3.1.6.3.8.6l.5 1 .2 1.1v.6l-.2 1.2-.5 1a2 2 0 0 1-.8.5 2.5 2.5 0 0 1-2 0l-.8-.7a3.2 3.2 0 0 1-.5-1l-.1-1.2Zm1-.2v.2l.1.8.3.7.5.5.8.2c.3 0 .6 0 .8-.2l.6-.6.3-.8v-1.4a3 3 0 0 0-.2-.6c0-.2-.2-.4-.3-.5l-.5-.4-.7-.1c-.3 0-.6 0-.8.2-.2 0-.4.2-.5.5a2 2 0 0 0-.3.7v.8Zm12.5 1.8v-4.8h1.1v6.2h-1v-1.4Zm.2-1.4h.5l-.1 1.2-.5.9a2 2 0 0 1-.7.6l-1.1.2-.9-.1a1.7 1.7 0 0 1-1-1.1 3.5 3.5 0 0 1-.2-1.1v-4h1v4l.2.7.2.4.4.2a2 2 0 0 0 1.5-.2c.3-.1.5-.4.6-.7l.1-1Zm3.6-2.2v7.4h-1v-8.6h.9v1.2Zm4.2 1.8v.2l-.2 1.2a3 3 0 0 1-.5 1 2 2 0 0 1-.7.7 2.6 2.6 0 0 1-2.1 0 2 2 0 0 1-.8-.6 2.9 2.9 0 0 1-.5-.9l-.2-1.1v-.7l.2-1.2.5-1 .8-.5 1-.2c.4 0 .8 0 1 .2.4.2.6.4.8.7l.5 1 .2 1.2Zm-1.1.2v-.2l-.1-.8a2.2 2.2 0 0 0-.3-.7 1.4 1.4 0 0 0-1.3-.7l-.7.1-.5.4-.3.5-.2.6v1.5c0 .3.2.5.3.8.2.2.3.4.6.5.2.2.5.2.8.2.3 0 .6 0 .8-.2.2 0 .4-.2.5-.5l.3-.7v-.8Zm6.3 1.8v-7.6h1v8.8h-.9v-1.2Zm-4.2-1.8v-.2l.2-1.2.5-1a2.2 2.2 0 0 1 1.8-1c.4 0 .7.1 1 .3.3.1.6.3.8.6.2.2.3.5.4 1 .2.3.2.7.3 1.1v.6l-.3 1.2c0 .3-.2.6-.4 1a2 2 0 0 1-.8.5 2.5 2.5 0 0 1-2 0l-.8-.7a3.2 3.2 0 0 1-.5-1l-.2-1.2Zm1.1-.2v.2l.1.8.3.7.5.5.8.2c.3 0 .6 0 .8-.2l.6-.6.3-.8v-1.4a3 3 0 0 0-.2-.6l-.3-.5a1.4 1.4 0 0 0-1.2-.5c-.3 0-.6 0-.8.2-.2 0-.4.2-.5.5a2 2 0 0 0-.3.7l-.1.8Zm9.5 2.1v-3.2c0-.2 0-.4-.2-.6a1 1 0 0 0-.4-.4l-.7-.2c-.3 0-.5 0-.7.2-.2 0-.4.2-.5.3a.8.8 0 0 0-.2.5h-1c0-.2 0-.4.2-.6 0-.3.2-.5.4-.6a3 3 0 0 1 1.8-.6c.5 0 .9 0 1.2.2.4.2.7.4.8.7.2.3.3.7.3 1.2v3.5l.3.6h-1.1a3.8 3.8 0 0 1-.2-1Zm.2-2.7v.8H178.3l-.6.3a1 1 0 0 0-.5.8l.1.5.4.4.7.2a1.8 1.8 0 0 0 1.4-.7l.3-.6.4.5c0 .1 0 .3-.2.5a2.5 2.5 0 0 1-1.2 1 2.5 2.5 0 0 1-2 0 1.7 1.7 0 0 1-1-1.6l.2-1c.2-.2.3-.4.6-.5.2-.2.5-.3.9-.4a4.7 4.7 0 0 1 1.1-.2h1.3Zm5.1-2.4v.8h-3.4v-.8h3.4Zm-2.2-1.5h1v6.2l.1.4.3.2h.3a1.8 1.8 0 0 0 .5 0v.9h-.3l-.5.1c-.2 0-.5 0-.7-.2-.2 0-.4-.2-.5-.5a2.2 2.2 0 0 1-.2-1V424Zm6 7.8a2.7 2.7 0 0 1-2.6-1.8c-.2-.4-.2-.8-.2-1.2v-.2c0-.5 0-1 .2-1.4a3 3 0 0 1 .6-1 2.6 2.6 0 0 1 1.9-.8c.4 0 .8 0 1.1.2l.8.7.5 1 .1 1.1v.5H187v-.9h3.6a2.6 2.6 0 0 0-.2-.8l-.5-.7c-.2-.2-.5-.2-.8-.2a1.5 1.5 0 0 0-1.2.6l-.4.7v2l.4.7.6.5.8.1c.4 0 .7 0 1-.2l.6-.6.6.5a2.6 2.6 0 0 1-2.3 1.2Zm7.3-1.8a.9.9 0 0 0-.1-.4.9.9 0 0 0-.4-.3 4 4 0 0 0-1-.3 7.2 7.2 0 0 1-.9-.3 3 3 0 0 1-.7-.3 1.4 1.4 0 0 1-.6-1.2c0-.3 0-.5.2-.7 0-.2.2-.4.4-.6l.8-.4 1-.1c.4 0 .8 0 1.2.3.3.1.6.3.8.6.2.3.3.7.3 1h-1a.9.9 0 0 0-.3-.5 1 1 0 0 0-.4-.4l-.7-.1h-.7a.9.9 0 0 0-.4.4.8.8 0 0 0 0 .8l.2.2.4.2.7.2 1.3.4.7.6c.2.2.2.5.2.9a1.6 1.6 0 0 1-.6 1.3 2.4 2.4 0 0 1-.8.4l-1 .1a3 3 0 0 1-1.3-.3c-.4-.2-.7-.4-1-.8l-.2-1h1c0 .4.2.6.3.8l.6.3a2.2 2.2 0 0 0 1.4 0 1 1 0 0 0 .4-.3l.2-.5Zm8-4.5v.8H201v-.8h3.3ZM202 424h1v6.2l.2.4.2.2h.4a1.8 1.8 0 0 0 .5 0v.9h-.4l-.5.1c-.2 0-.5 0-.7-.2a1 1 0 0 1-.5-.5 2.1 2.1 0 0 1-.2-1V424Zm4.5-1.1v8.8h-1v-8.8h1Zm-.2 5.5h-.5l.2-1.2.5-1a2.3 2.3 0 0 1 1.9-.8l.8.1c.2 0 .4.2.6.4l.4.7.1 1v4h-1v-4c0-.3 0-.6-.2-.8a.9.9 0 0 0-.4-.4l-.7-.1a1.6 1.6 0 0 0-1.2.6 2.3 2.3 0 0 0-.5 1.5Zm8.2 3.4a2.7 2.7 0 0 1-2.6-1.8c-.2-.4-.2-.8-.2-1.2v-.2c0-.5 0-1 .2-1.4a3 3 0 0 1 .6-1 2.6 2.6 0 0 1 1.9-.8c.4 0 .8 0 1.1.2l.8.6.5 1 .1 1.2v.5h-4.6v-.9h3.6a2.6 2.6 0 0 0-.2-.9l-.5-.6c-.2-.2-.5-.3-.8-.3a1.5 1.5 0 0 0-1.2.7l-.4.7a3.7 3.7 0 0 0 0 1v1l.4.7a1.6 1.6 0 0 0 1.4.6c.3 0 .7 0 1-.2l.6-.6.6.5a2.4 2.4 0 0 1-1.2 1l-1.1.2Zm8-.1h-1V425c0-.5 0-.9.2-1.2.2-.4.4-.6.8-.8a3.2 3.2 0 0 1 2-.1l.8.2-.2 1a5.8 5.8 0 0 0-.6-.3h-.7c-.5 0-.8 0-1 .2-.2.2-.3.5-.3 1v6.7Zm1.2-6.2v.8h-3.3v-.8h3.3Zm2.1 0v6.2h-1v-6.2h1Zm3-2.6v8.8h-1.1v-8.8h1Zm4.2 2.6v.8h-3.3v-.8h3.3ZM231 424h1v6.1c0 .3 0 .4.2.5l.2.2h.3a1.8 1.8 0 0 0 .5 0v.9h-.3l-.5.1c-.2 0-.5 0-.7-.2-.2 0-.4-.2-.5-.5a2.1 2.1 0 0 1-.2-1V424Zm6 7.8a2.7 2.7 0 0 1-2.6-1.8l-.2-1.2v-.2c0-.5 0-1 .2-1.4a3 3 0 0 1 .6-1 2.6 2.6 0 0 1 1.9-.8c.4 0 .8 0 1.1.2l.8.6.5 1 .1 1.2v.5h-4.6v-.9h3.6a2.7 2.7 0 0 0-.2-.9c0-.2-.2-.4-.4-.6-.3-.2-.5-.3-1-.3a1.5 1.5 0 0 0-1.1.7l-.3.7a3.7 3.7 0 0 0-.1 1v1l.4.7.6.5.8.1c.4 0 .7 0 1-.2l.6-.6.7.5a2.5 2.5 0 0 1-2.3 1.2Zm4.7-5.3v5.2h-1v-6.2h1v1Zm2-1v1a2.6 2.6 0 0 0-.5-.1l-.7.1c-.2 0-.3.2-.5.3l-.3.5-.1.6-.3.2v-1l.4-.9.6-.6a1.7 1.7 0 0 1 1.4-.1Zm4.6 4.5a.9.9 0 0 0-.1-.4.9.9 0 0 0-.4-.3c-.2-.2-.6-.2-1-.3a7.2 7.2 0 0 1-.9-.3c-.3 0-.5-.2-.7-.3a1.4 1.4 0 0 1-.6-1.2c0-.3 0-.5.2-.7 0-.2.2-.4.4-.6l.8-.4.9-.1c.5 0 1 0 1.3.2l.8.7c.2.3.3.7.3 1H248a.9.9 0 0 0-.2-.5l-.4-.4-.7-.2-.7.2a1 1 0 0 0-.4.3.8.8 0 0 0 0 .8l.1.2.5.2.7.2 1.2.4.8.6.2.9a1.6 1.6 0 0 1-.6 1.3 2.4 2.4 0 0 1-.8.4l-1 .1a3 3 0 0 1-1.4-.3 2 2 0 0 1-.8-.8c-.2-.3-.3-.6-.3-1h1c0 .4.2.6.3.8l.6.3a2.2 2.2 0 0 0 1.4 0c.2 0 .3-.2.4-.3l.2-.5Z"/><path fill="#4CB050" fill-rule="evenodd" d="M341.2 39.2H16.4v72h324.8v-72Z" clip-rule="evenodd"/><path fill="url(#e)" d="M341.2 111.2H16.4v3.6h324.8v-3.6Z" opacity=".1"/><path fill="#fff" d="m75 89.2-.2-.7c0-.2-.2-.4-.4-.6l-.8-.5-1.4-.5a16 16 0 0 1-1.7-.6l-1.3-.8A3 3 0 0 1 68 83a3.1 3.1 0 0 1 1.2-2.5c.4-.3 1-.6 1.5-.7a6.1 6.1 0 0 1 1.8-.3c1 0 1.8.2 2.5.5a3.7 3.7 0 0 1 2.2 3.4h-2.3c0-.4 0-.8-.2-1.1a1.9 1.9 0 0 0-.8-.8 3 3 0 0 0-1.4-.3c-.5 0-1 .1-1.3.3-.4.1-.6.3-.8.6-.2.3-.2.6-.2 1l.1.6.5.5.9.5 1.2.4c.7.2 1.4.4 1.9.7.5.3 1 .5 1.3.9a3.2 3.2 0 0 1 1 2.4c0 .6 0 1-.3 1.5a3 3 0 0 1-.9 1.1l-1.4.7a6.8 6.8 0 0 1-3.7 0 5.4 5.4 0 0 1-1.7-.8 3.6 3.6 0 0 1-1.6-3h2.3c0 .4 0 .8.2 1 .1.4.3.6.6.8.2.2.5.3.9.4a4.5 4.5 0 0 0 2.4-.1c.3-.1.6-.3.8-.6.2-.3.2-.6.2-1Zm8.1 3.4a5.1 5.1 0 0 1-1.9-.3 4.2 4.2 0 0 1-2.4-2.5 5.1 5.1 0 0 1-.3-1.8v-.3c0-.8.1-1.4.4-2 .2-.6.5-1.2.9-1.6a3.9 3.9 0 0 1 1.3-1c.6-.2 1.1-.3 1.8-.3.6 0 1.2 0 1.8.3.5.3.9.6 1.2 1 .4.4.6.9.8 1.5l.2 1.8v1h-7.3v-1.6h5.2v-.1a3 3 0 0 0-.2-1.1c-.1-.3-.3-.6-.6-.8-.3-.2-.7-.3-1.1-.3a1.9 1.9 0 0 0-1.7.8l-.4 1-.1 1.4v.3l.1 1.2.5 1c.3.2.5.4.9.5.3.2.6.3 1 .3a3 3 0 0 0 2.4-1.2l1.2 1a4 4 0 0 1-2 1.6c-.5.2-1 .2-1.7.2ZM93 83v1.5h-5.4v-1.6H93ZM89 80.5h2.2V90.5l.4.3.6.1a3.3 3.3 0 0 0 .7 0v1.5a5.4 5.4 0 0 1-1.4.2c-.5 0-.9 0-1.3-.2a1.9 1.9 0 0 1-.8-.9A3.3 3.3 0 0 1 89 90v-9.4ZM99 83v1.5h-5.4v-1.6H99ZM95 80.5h2.2V90.5c.2.2.3.3.5.3l.5.1a3.3 3.3 0 0 0 .7 0v1.5a5.4 5.4 0 0 1-1.4.2c-.5 0-.9 0-1.3-.2a1.9 1.9 0 0 1-.8-.9A3.3 3.3 0 0 1 95 90v-9.4ZM103 83v9.5h-2.2V83h2.2Zm-2.3-2.5c0-.4.1-.6.3-.8.2-.3.5-.4 1-.4.3 0 .6.1.8.4.2.2.3.4.3.8 0 .3 0 .5-.3.8-.2.2-.5.3-.9.3s-.7-.1-.9-.3a1 1 0 0 1-.3-.8Zm6.7 4.5v7.5h-2.1V83h2l.1 2Zm-.4 2.4h-.7c0-.7.1-1.4.3-2l.8-1.4a3.4 3.4 0 0 1 2.8-1.2c.4 0 .8 0 1.2.2.4 0 .7.3 1 .6l.6 1 .2 1.7v6.2H111v-6.2l-.2-1a1.1 1.1 0 0 0-.6-.6 2.2 2.2 0 0 0-1-.2 2 2 0 0 0-1.7.8 3 3 0 0 0-.4 1l-.2 1Zm14.5-4.4h1.9v9.2c0 .9-.2 1.6-.6 2.2-.3.6-.8 1-1.5 1.3a5.1 5.1 0 0 1-3.5.4 5 5 0 0 1-1.3-.6 3.2 3.2 0 0 1-1-.9l1-1.2a3 3 0 0 0 3.7.9c.3-.2.6-.4.8-.8.2-.3.3-.8.3-1.3v-7l.2-2.3Zm-6.5 4.8v-.2c0-.7 0-1.4.2-2l.8-1.5c.3-.4.7-.7 1.2-1 .5-.2 1-.3 1.6-.3a3 3 0 0 1 2.7 1.3l.7 1.4c.1.6.3 1.2.3 2v.5c0 .7-.2 1.3-.4 1.9a5.1 5.1 0 0 1-.7 1.5 3 3 0 0 1-2.6 1.2 3.4 3.4 0 0 1-2.8-1.3 4.8 4.8 0 0 1-.8-1.6 6.7 6.7 0 0 1-.2-1.9Zm2.1-.2v.2l.1 1.2.4 1 .7.7a2 2 0 0 0 1 .2 2 2 0 0 0 1.2-.3c.4-.2.6-.5.8-.8.1-.4.3-.8.3-1.3V87a4 4 0 0 0-.2-1l-.4-.7a1.8 1.8 0 0 0-.7-.5 2.3 2.3 0 0 0-1-.2 2 2 0 0 0-1.7 1l-.4 1-.1 1.1Zm13.8 2.3-.1-.6-.6-.5-1.3-.3-1.4-.4a4.4 4.4 0 0 1-1.1-.6 2.2 2.2 0 0 1-1-1.9c0-.3.1-.7.3-1l.7-1c.3-.3.7-.4 1.2-.6l1.5-.2c.8 0 1.5.1 2 .4.7.2 1.1.6 1.4 1 .3.5.5 1 .5 1.6h-2.2c0-.3 0-.5-.2-.7 0-.2-.3-.4-.5-.5a2 2 0 0 0-1-.2 2 2 0 0 0-.9.1l-.5.5a1.1 1.1 0 0 0 0 1 1 1 0 0 0 .2.3l.6.3 1 .3c.7.1 1.4.3 1.9.6a3 3 0 0 1 1.2.9c.3.3.4.8.4 1.4a2.5 2.5 0 0 1-1 2 3.9 3.9 0 0 1-1.3.6c-.4.2-1 .2-1.5.2a4.8 4.8 0 0 1-2.2-.4 3.5 3.5 0 0 1-1.4-1.2 2.8 2.8 0 0 1-.5-1.5h2l.4 1 .8.4.9.2c.4 0 .7 0 1-.2.2 0 .4-.2.5-.4a1 1 0 0 0 .2-.6Z"/><path stroke="#fff" stroke-linecap="round" stroke-linejoin="round" d="m41.3 79.7-6 6.3h12.6m-6.6 6.3-6-6.3h12.6"/></g></g></g></g><defs><clipPath id="a"><path fill="#fff" d="M0 0h360v480H0z"/></clipPath><clipPath id="b"><path fill="#fff" d="M0 0h360v785.3H0z"/></clipPath><clipPath id="c"><rect width="324.8" height="576.1" x="16.4" y="63.7" fill="#fff" rx="16"/></clipPath><linearGradient id="e" x1="341.2" x2="341.2" y1="114.8" y2="111.2" gradientUnits="userSpaceOnUse"><stop stop-opacity="0"/><stop offset="1"/></linearGradient></defs></svg>