<svg xmlns="http://www.w3.org/2000/svg" width="640" height="480" fill="none"><g clip-path="url(#a)"><path fill="#6C769C" d="M65 83a22 22 0 0 1 22-22h467a22 22 0 0 1 22 22v324H65V83Z"/><path fill="#1D2025" d="M67 84a21 21 0 0 1 21-21h465a21 21 0 0 1 21 21v323H67V84Z"/><g filter="url(#b)"><rect width="639.1" height=".4" x=".5" y="418.5" fill="#000" fill-opacity=".6" rx=".2"/></g><g clip-path="url(#c)"><path fill="#898C91" d="M566 383H74v17h492v-17Z"/><path fill="#000" fill-opacity=".9" d="M504 392.2c-.1 0-.1-.2 0-.2l1.8-2h.3l1.9 2v.2h-.3l-1.7-1.8-1.8 1.8h-.3ZM517 389.6a2.8 2.8 0 0 0-1.2.3 3 3 0 0 0-1.1.8l-.2.3H514.1v-.2a2.9 2.9 0 0 1 1.2-1.1 3.3 3.3 0 0 1 2.3-.3 3.4 3.4 0 0 1 1.4.7l.5.7v.2h-.2l-.1-.1v-.1l-.2-.1-.1-.2a3 3 0 0 0-2-.9Zm0 1a1.7 1.7 0 0 0-.9.3 2 2 0 0 0-.6.4l-.1.2a1.4 1.4 0 0 1-.2.2h-.2v-.2c0-.2.2-.4.3-.5a2.2 2.2 0 0 1 1-.6 2 2 0 0 1 1.2 0 2.3 2.3 0 0 1 1 .6c.1.1.3.3.3.5v.2H518.5v-.2l-.2-.2a1.7 1.7 0 0 0-.6-.4 1.8 1.8 0 0 0-.8-.2Zm0 1.1a1 1 0 0 0-.4 0 1.2 1.2 0 0 0-.4.3l-.1.2-.1.1v.1h-.2l-.1-.1v-.1l.2-.3.3-.3a1.4 1.4 0 0 1 .7-.2 1.3 1.3 0 0 1 .7.2 1.4 1.4 0 0 1 .6.6v.2H517.8l-.1-.2-.1-.1-.1-.1-.1-.1a1 1 0 0 0-.6-.2Zm-.5 1a.5.5 0 0 1 .2-.3.4.4 0 0 1 .4 0h.1l.1.2v.4a.4.4 0 0 1-.4.2h-.2a.4.4 0 0 1-.2-.2v-.2ZM526.5 393.6v-.1l.1-.1.1-.1a2.3 2.3 0 0 0 .6-.9 2.6 2.6 0 0 0 .2-1v-.5a2.6 2.6 0 0 0-.9-1.5v-.1l-.1-.1v-.1h.2c.2 0 .2 0 .3.2a3 3 0 0 1 .6.8 3 3 0 0 1 .2 2 2.9 2.9 0 0 1-.6 1.1 3.4 3.4 0 0 1-.4.5h-.2l-.1-.1Zm-3-1.2h-.6a.5.5 0 0 1-.4-.1.6.6 0 0 1-.1-.4v-1a.5.5 0 0 1 .1-.4l.2-.1h.8l.9-1H524.7v3.9H524.3l-.9-.9Zm2.3.5a5.5 5.5 0 0 0 .5-.7 1.7 1.7 0 0 0 .2-.8v-.4l-.2-.4c0-.1 0-.2-.2-.3l-.2-.3V389.7h.2a1.4 1.4 0 0 1 .3.3 2.6 2.6 0 0 1 .3.5 2.3 2.3 0 0 1 0 1.8l-.1.2a4 4 0 0 1-.3.4l-.2.2h-.2v-.2Zm-1.4 0v-3l-.7.7H523l-.1.1v1.3H523.6l.1.1.7.8Zm.8-.6v-.1a5.5 5.5 0 0 0 .2-.4 1.1 1.1 0 0 0 0-.6 1 1 0 0 0 0-.4 4 4 0 0 0-.2-.2v-.2h.2l.2.2.1.3a1.6 1.6 0 0 1 0 .7 1.7 1.7 0 0 1 0 .6l-.2.2h-.2a.2.2 0 0 1-.1-.1ZM536 391.6v.2l-.3.1h-.3v.7l-.2.3-.3.2H531a1 1 0 0 1-.2-.2 1 1 0 0 1-.3-.6v-2.1a.9.9 0 0 1 .5-.5h3.8l.3.2a.9.9 0 0 1 .2.6v.4H536V391.7Zm-1-1a.5.5 0 0 0 0-.5.5.5 0 0 0-.4-.1h-3.1a.5.5 0 0 0-.4.1l-.1.2v2.2l.1.1.2.1h3.2a.5.5 0 0 0 .4 0 .5.5 0 0 0 .2-.4v-1.8Zm-.9-.3.2.1v2H531.4l-.1-.2v-1.8h2.8ZM546.9 390.3h-.4v-2.5l-.2.2a2 2 0 0 1-.4.1v-.3a2.3 2.3 0 0 0 .8-.5h.2v3Zm1.6 0h-.3v-2.5l-.3.2-.3.1-.1-.3a2.3 2.3 0 0 0 .9-.5h.1v3Zm1-1.7h-.2v-.4h.4v.4h-.2Zm0 1.8h-.2v-.4l.2-.1h.2v.4h-.2Zm1.6 0a.8.8 0 0 1-.7-.4 2 2 0 0 1-.2-1c0-.6 0-1 .2-1.3.2-.2.4-.4.7-.4.4 0 .6.2.7.4.2.3.3.6.3 1.2 0 .4-.1.8-.3 1-.2.4-.4.5-.7.5Zm0-2.8c-.2 0-.3.2-.4.4l-.2.9c0 .4 0 .7.2.9 0 .2.2.3.4.3s.4-.1.5-.3l.1-1-.1-.8c-.1-.2-.3-.4-.5-.4Zm2.3 2.8a.8.8 0 0 1-.7-.4 2 2 0 0 1-.3-1c0-.6.1-1 .3-1.3.2-.2.4-.4.7-.4.3 0 .6.2.7.4.2.3.2.6.2 1.2 0 .4 0 .8-.2 1-.2.4-.4.5-.7.5Zm0-2.8c-.2 0-.3.2-.4.4l-.2.9c0 .4 0 .7.2.9 0 .2.2.3.4.3s.3-.1.4-.3l.2-1c0-.3 0-.6-.2-.8 0-.2-.2-.4-.4-.4Zm2.3 2.7 1.1-3h.4l1.1 3h-.4l-.3-.7h-1.2l-.3.7h-.4Zm.8-1h1l-.4-1.3v-.2h-.1v.2l-.5 1.2Zm5.2 1h-.3v-2.5.2l-.1.1-1 2.2h-.2l-1-2.2V387.8v2.6h-.3v-3h.5l.8 2v.2l.1.2.1-.2v-.2l1-2h.4v3ZM543 396h-.3v-2.5l-.3.2a2 2 0 0 1-.3.1l-.1-.3a2.4 2.4 0 0 0 .9-.5h.1v3Zm1.7 0a.8.8 0 0 1-.7-.3 2 2 0 0 1-.3-1c0-.6.1-1 .3-1.3.2-.2.4-.4.7-.4.3 0 .6.2.7.4.2.3.2.6.2 1.1 0 .5 0 1-.2 1.2-.2.3-.4.4-.7.4Zm0-2.7c-.2 0-.3.2-.4.4l-.2.9c0 .4 0 .7.2.9 0 .2.2.3.4.3s.3-.1.4-.3l.2-1c0-.3 0-.6-.2-.8 0-.3-.2-.4-.4-.4Zm2.8-.2-1.4 3.4h-.3l1.4-3.4h.3Zm1 3a.8.8 0 0 1-.6-.4 2 2 0 0 1-.2-1c0-.6 0-1 .2-1.3.2-.2.4-.4.7-.4.4 0 .6.2.7.4.2.3.3.6.3 1.1 0 .5-.1 1-.3 1.2-.2.3-.4.4-.7.4Zm.1-2.8c-.2 0-.3.2-.4.4l-.2.9c0 .4 0 .7.2.9 0 .2.2.3.4.3s.4-.1.4-.3l.2-1-.1-.8c-.1-.3-.3-.4-.5-.4Zm1.4 2.5.2-.3.3.2h.3l.5-.1.1-.4c0-.2 0-.4-.2-.5l-.5-.1a5.6 5.6 0 0 0-.5 0l.1-1.5h1.4v.3h-1l-.1.9a2.8 2.8 0 0 1 .2 0c.3 0 .6 0 .7.2.2.1.3.4.3.6 0 .3 0 .5-.3.7a1 1 0 0 1-.7.3h-.4l-.4-.3Zm3.7-2.7-1.4 3.4h-.3l1.4-3.4h.3Zm.3 3V395.3l.1-.2.3-.3a6.8 6.8 0 0 1 .6-.5l.2-.2v-.8l-.4-.2-.4.1a1 1 0 0 0-.3.3l-.2-.3.4-.3h.5c.3 0 .5 0 .6.2.2.1.2.3.2.5a1.1 1.1 0 0 1-.3.9l-.3.2a9 9 0 0 0-.5.4l-.1.2v.2h1.3v.3H554Zm3 0a.8.8 0 0 1-.6-.4 2 2 0 0 1-.3-1c0-.6.1-1 .3-1.3.2-.2.4-.4.7-.4.3 0 .6.2.7.4.2.3.2.6.2 1.1 0 .5 0 1-.2 1.2-.2.3-.4.4-.7.4Zm.1-2.8c-.2 0-.3.2-.4.4l-.2.9c0 .4 0 .7.2.9 0 .2.2.3.4.3s.3-.1.4-.3l.2-1c0-.3 0-.6-.2-.8 0-.3-.2-.4-.4-.4Zm1.4 2.7v-.5l.2-.2.2-.3a6.6 6.6 0 0 1 .6-.5l.2-.2v-.2l.1-.2-.1-.4-.4-.2-.3.1a1 1 0 0 0-.4.3l-.2-.3c.2 0 .3-.2.4-.3h.5c.3 0 .5 0 .7.2l.2.5v.4l-.2.2-.2.3-.3.2a12.1 12.1 0 0 0-.5.4l-.1.2v.2h1.4v.3h-1.8Zm3.1 0h-.3v-2.5l-.3.2-.3.1-.1-.3a2.6 2.6 0 0 0 .9-.5h.1v3Z"/><path fill="url(#d)" fill-rule="evenodd" d="M272.1 387.3c-.2 0-.3.1-.3.3v3.6h3.8v-4h-3.5Zm7.4 0H276v4h3.8v-3.7c0-.2-.1-.3-.3-.3Zm-3.5 4.3h3.8v3.5c0 .2-.1.4-.3.4H276v-4Zm-.4 0h-3.8v3.5c0 .2.1.4.3.4h3.5v-4Z" clip-rule="evenodd"/><path fill="url(#e)" fill-opacity=".3" d="M290.3 393.3a2.5 2.5 0 0 1-2.5-2.5 2.5 2.5 0 1 1 4.9 0c0 1.3-1.1 2.5-2.4 2.5Z"/><path fill="url(#f)" fill-rule="evenodd" d="M286.8 390.8c0 2 1.5 3.5 3.5 3.5.7 0 1.4-.2 2-.7l1.8 1.8c.2.2.5.2.7 0 .2-.2.2-.5 0-.7l-1.7-1.8a3.6 3.6 0 0 0-2.8-5.7c-2 0-3.5 1.6-3.5 3.6Zm1 0c0 1.3 1.1 2.5 2.5 2.5 1.3 0 2.4-1.2 2.4-2.5 0-1.4-1-2.5-2.4-2.5a2.5 2.5 0 0 0-2.5 2.5Z" clip-rule="evenodd"/><path fill="url(#g)" d="M307.6 389.6h-5.4c-.2 0-.4.2-.4.4v4.9c0 .2.2.3.4.3h5.4c.2 0 .4-.1.4-.3v-5c0-.1-.2-.3-.4-.3Z"/><path stroke="url(#h)" stroke-opacity=".4" stroke-width=".5" d="M307.6 389.7h-5.4c-.2 0-.3.1-.3.3v4.9c0 .1.1.2.3.2h5.4c.2 0 .3 0 .3-.2v-5s-.1-.2-.3-.2Z"/><path fill="url(#i)" d="M309.7 387.5h-5.5c-.2 0-.3.2-.3.4v4.9c0 .2.1.3.3.3h5.5c.2 0 .3-.1.3-.3v-5c0-.1-.1-.3-.3-.3Z"/><path stroke="#000" stroke-opacity=".1" stroke-width=".5" d="M309.7 387.6h-5.5c-.1 0-.2.1-.2.3v4.9c0 .1 0 .2.2.2h5.5c.1 0 .3 0 .3-.2v-5l-.3-.2Z"/><path fill="url(#j)" fill-opacity=".4" d="M307.6 389.6h-5.4c-.2 0-.4.2-.4.4v4.9c0 .2.2.3.4.3h5.4c.2 0 .4-.1.4-.3v-5c0-.1-.2-.3-.4-.3Z"/><path fill="url(#k)" d="M321 387.4a4 4 0 0 1 4 4 4 4 0 0 1-4 4c-.7 0-1.3-.2-1.9-.5l-1.6.5c-.2 0-.4 0-.4-.2v-.2l.4-1.7a4 4 0 0 1-.4-2 4 4 0 0 1 3.9-4Z"/><path fill="url(#l)" d="M321 387.4a4 4 0 0 1 4 4 4 4 0 0 1-4 4c-.7 0-1.3-.2-1.9-.5l-1.6.5c-.2 0-.4 0-.4-.2v-.2l.4-1.7a4 4 0 0 1-.4-2 4 4 0 0 1 3.9-4Z" style="mix-blend-mode:lighten"/><path fill="#FAFAFA" fill-rule="evenodd" d="M319 389.6c-.2 0-.4.2-.4.4v2.8c0 .2.2.3.3.3h2.8c.2 0 .3-.1.3-.3V390c0-.2-.1-.4-.3-.4h-2.8Zm4.2.5-.8.6v1.4l.8.5c0 .1.2 0 .2 0v-2.4s-.1-.1-.2 0Z" clip-rule="evenodd"/><mask id="o" fill="#fff"><rect width="9.3" height="7.5" x="331.7" y="388.6" rx=".5"/></mask><rect width="9.3" height="7.5" x="331.7" y="388.6" fill="url(#m)" stroke="url(#n)" stroke-width="2" mask="url(#o)" rx=".5"/><path fill="#E09F00" d="M331.7 387.8v-.1h3.2l.9 1.4-.1.1h-4v-1.4Z"/><path fill="#036ABB" d="m333.2 393.7.1-.1h6.1v2.4h-6.2v-2.3Z"/><path fill="url(#p)" d="m354.1 394.2-.3.2a3 3 0 0 1-1 .2c-1.5 0-2.8-1-2.8-2.3a1 1 0 0 1 .5-.8c-1.3 0-1.6 1.4-1.6 2.2 0 2.2 2 2.5 2.5 2.5l.8-.2c1-.3 1.6-.8 2-1.6h.1v-.1a.1.1 0 0 0-.2 0Z"/><path fill="url(#q)" d="m354.1 394.2-.3.2a3 3 0 0 1-1 .2c-1.5 0-2.8-1-2.8-2.3a1 1 0 0 1 .5-.8c-1.3 0-1.6 1.4-1.6 2.2 0 2.2 2 2.5 2.5 2.5l.8-.2c1-.3 1.6-.8 2-1.6h.1v-.1a.1.1 0 0 0-.2 0Z" opacity=".3"/><path fill="url(#r)" d="m350.3 395.8-.7-.7a2.4 2.4 0 0 1 1-3.6l.4-.1a1 1 0 0 1 .8.4l.2.5s.7-2.4-2.5-2.4a2.6 2.6 0 0 0-2.4 2.4c0 .6.1 1.2.4 1.7a3.9 3.9 0 0 0 4.7 2 2.3 2.3 0 0 1-1.9-.2Z"/><path fill="url(#s)" d="m350.3 395.8-.7-.7a2.4 2.4 0 0 1 1-3.6l.4-.1a1 1 0 0 1 .8.4l.2.5s.7-2.4-2.5-2.4a2.6 2.6 0 0 0-2.4 2.4c0 .6.1 1.2.4 1.7a3.9 3.9 0 0 0 4.7 2 2.3 2.3 0 0 1-1.9-.2Z" opacity=".4"/><path fill="url(#t)" d="M351.7 393v.4c.5.3 1.3.2 1.3.2.4 0 .7 0 1-.2a1.9 1.9 0 0 0 .9-1.6c0-.7-.3-1.2-.4-1.4-.6-1.2-2-2-3.5-2a3.9 3.9 0 0 0-3.9 3.9c0-1.1 1.1-2 2.4-2 .1 0 .8 0 1.3.3.5.2.8.6 1 .9l.2.9-.3.6Z"/><path fill="url(#u)" d="M351.7 393v.4c.5.3 1.3.2 1.3.2.4 0 .7 0 1-.2a1.9 1.9 0 0 0 .9-1.6c0-.7-.3-1.2-.4-1.4-.6-1.2-2-2-3.5-2a3.9 3.9 0 0 0-3.9 3.9c0-1.1 1.1-2 2.4-2 .1 0 .8 0 1.3.3.5.2.8.6 1 .9l.2.9-.3.6Z"/><path fill="#fff" fill-opacity=".5" d="M371.7 384.4h-11c-.7 0-1.3.6-1.3 1.4V397c0 .8.6 1.4 1.3 1.4h11c.7 0 1.4-.6 1.4-1.4v-11.2c0-.8-.7-1.4-1.4-1.4Z"/><path stroke="url(#v)" stroke-opacity=".5" d="M371.7 384.2h-11c-.8 0-1.5.7-1.5 1.6V397c0 .8.7 1.6 1.5 1.6h11c.8 0 1.5-.8 1.5-1.6v-11.2c0-.9-.7-1.6-1.5-1.6Z"/><path fill="#005FB8" d="M368.6 397.3h-4.7c-.3 0-.6.2-.6.5s.3.6.6.6h4.7c.3 0 .5-.3.5-.6s-.2-.5-.5-.5Z"/><path fill="#fff" d="M369.6 387.2h-6.8c-.4 0-.7.3-.7.7v7c0 .4.3.7.7.7h6.8c.4 0 .7-.3.7-.7v-7c0-.4-.3-.7-.7-.7Z"/><path fill="#67B279" fill-rule="evenodd" d="M366.3 388.7c-1 0-2 .3-3 .8a5.4 5.4 0 0 0 3 5.2 5.4 5.4 0 0 0 3-5.2c-.9-.5-1.9-.8-3-.8Z" clip-rule="evenodd"/><path fill="#fff" fill-rule="evenodd" d="m366.3 392.6 1.7-2.3h-.3l-1.4 1.5-.6-.6c-.2-.3-.6-.1-.7 0l1.3 1.4Z" clip-rule="evenodd"/><path fill="url(#w)" d="M84.7 394.5c1.7 0 3-1.4 3-3.1 0-1.8-1.3-3.2-3-3.2s-3.1 1.4-3.1 3.2c0 1.7 1.4 3.1 3 3.1Z"/><path fill="#000" fill-opacity=".9" d="M92.5 390.3v-.5l.2-.2.2-.3a6.9 6.9 0 0 1 .6-.5l.2-.2v-.2l.1-.2-.1-.4-.4-.2-.4.1a1 1 0 0 0-.3.3l-.2-.3.4-.3h.5c.3 0 .5 0 .7.2l.2.5a1.1 1.1 0 0 1-.4.9l-.3.2a12.2 12.2 0 0 0-.5.4l-.1.2v.2h1.4v.3h-1.8Zm3.8-3v2h.3v.4h-.3v.7H96v-.7h-1.4v-.4a10.4 10.4 0 0 0 1.3-2h.4Zm-1.3 2h1V388a12.2 12.2 0 0 1-1 1.4Zm2.5-.8c-.1 0-.3 0-.4-.2a.6.6 0 0 1-.1-.4l.1-.4.4-.1.4.1c.2.1.2.3.2.4 0 .2 0 .3-.2.4l-.4.2Zm0-.9h-.2v.6h.5v-.5l-.3-.1Zm3.3 2.6a1.8 1.8 0 0 1-.9.2c-.4 0-.7-.2-1-.4-.2-.3-.4-.6-.4-1 0-.6.2-1 .5-1.2.2-.3.6-.5 1-.5a1.8 1.8 0 0 1 .8.2l-.2.3a1.4 1.4 0 0 0-.6-.1 1 1 0 0 0-.8.3c-.2.2-.3.5-.3.9 0 .3.1.6.3.8.2.2.4.3.8.3a1.5 1.5 0 0 0 .6-.1l.2.3Z"/><path fill="#000" fill-opacity=".6" d="m92.4 395.7.1-.3.4.2h.8l.2-.4-.1-.4-.5-.2-.6-.3a.7.7 0 0 1-.2-.5c0-.3 0-.5.2-.6.2-.2.4-.3.7-.3a1.6 1.6 0 0 1 .8.2l-.2.3a1.4 1.4 0 0 0-.6-.1H93l-.1.4v.3l.5.2.7.4.2.5c0 .3-.1.5-.3.6a1 1 0 0 1-.7.3h-.5l-.4-.3Zm4.1.2h-.3v-.3l-.3.3h-.4l-.6-.1-.1-.7v-1.3h.3v1.2l.1.5.4.2c.2 0 .3 0 .4-.2l.2-.5v-1.2h.3v2.1Zm2.5 0h-.4v-1.7l-.4-.2-.5.2-.1.5v1.2h-.4v-2.1h.4v.3l.3-.3h.4c.2 0 .4 0 .5.2l.2.6v1.3Zm2.4 0h-.4v-1.7l-.4-.2-.4.2c-.2.1-.2.3-.2.5v1.2h-.4v-2.1h.4v.3l.3-.3h.4c.2 0 .4 0 .5.2l.2.6v1.3Zm2.4-2.1-1 2.5-.3.5-.4.1a.8.8 0 0 1-.3 0v-.3h.5l.1-.3.2-.4-.8-2.1h.4l.5 1.6v.2l.1-.2.6-1.6h.4Z"/></g><path fill="#343744" d="M0 407c0-.6.4-1 1-1h638c.6 0 1 .4 1 1v10c0 .6-.4 1-1 1H1a1 1 0 0 1-1-1v-10Z"/><rect width="640" height="1" y="417" fill="#6C769C" rx=".5"/><rect width="640" height="1" y="406" fill="#6C769C" rx=".5"/><g clip-path="url(#x)"><g clip-path="url(#y)"><path fill="#1F1F1F" d="M567 70H74v313h493V70Z"/><path fill="#67B279" fill-rule="evenodd" d="M90.4 84.7c-2.3 0-5 .5-7.2 1.6 0 2.5 0 8.6 7.2 12.8 7.2-4.2 7.2-10.3 7.2-12.8-2.3-1-5-1.6-7.2-1.6Z" clip-rule="evenodd"/><path fill="#5B9F6B" fill-rule="evenodd" d="M90.4 84.7c-2.3 0-5 .5-7.2 1.6 0 2.5 0 8.6 7.2 12.8V84.7Z" clip-rule="evenodd"/><path fill="#fff" fill-rule="evenodd" d="m90.3 94 4.2-5.6c-.3-.2-.6 0-.7 0L90.3 92 89 90.5c-.6-.7-1.5-.2-1.7 0l3 3.4Z" clip-rule="evenodd"/><path stroke="#67B279" stroke-linecap="round" stroke-linejoin="round" d="M86.6 129.4h-1.3a.4.4 0 0 1-.3-.8l4.8-3.6h.6l4.7 3.6c.4.3.2.8-.2.8h-1.4v5c0 .2-.2.4-.4.4h-6a.4.4 0 0 1-.5-.4v-5Z" clip-rule="evenodd"/><path stroke="#67B279" stroke-linecap="round" stroke-linejoin="round" d="M88.3 163 90 165l2.4-3"/><path stroke="#67B279" stroke-linecap="round" stroke-linejoin="round" d="M90 158.3c-1.6 0-3.6.4-5.3 1.2 0 1.9 0 6.4 5.4 9.6 5.4-3.2 5.4-7.7 5.4-9.6-1.7-.8-3.7-1.2-5.4-1.2Z" clip-rule="evenodd"/><path fill="#3D3D3D" d="M107 180H73v34h34v-34Z"/><path fill="#5B5B5B" d="M107 70v314h.7V70h-.7Z"/><path stroke="#67B279" stroke-linecap="round" stroke-linejoin="round" d="M91.5 191.8a4 4 0 0 1 4 4.2h-4.2v-4.2h.2Z" clip-rule="evenodd"/><path stroke="#67B279" stroke-linecap="round" stroke-linejoin="round" d="M89.3 193h.2v4.2c0 .3.3.5.5.6h4.3a4.8 4.8 0 1 1-5-4.8Z" clip-rule="evenodd"/><path stroke="#67B279" stroke-linecap="round" stroke-linejoin="round" d="M94.9 231.9h-3c-.3 0-.6.2-.6.6v3c0 .3.3.6.6.6h3c.3 0 .6-.3.6-.6v-3c0-.4-.3-.6-.6-.6ZM86.3 232.2c.2-.4.8-.4 1 0l1.7 3c.2.4 0 .9-.5.9H85a.6.6 0 0 1-.5-1l1.7-2.9ZM88.3 225.3h-3c-.3 0-.6.3-.6.6v3c0 .3.3.6.6.6h3c.3 0 .6-.3.6-.6v-3c0-.3-.3-.6-.6-.6Z"/><path stroke="#67B279" d="M93.4 225.3a2 2 0 1 1 0 4.2 2 2 0 0 1 0-4.2Z" clip-rule="evenodd"/><path stroke="#67B279" stroke-linejoin="round" d="M87.7 268.3h.2l.8.4.3.3.4 1.2h1.4l.4-1.2.3-.3c.3 0 .5-.2.8-.3h.5l1 .5 1-1-.5-1v-.5l.3-.8c0-.2.2-.3.3-.3l1.2-.4v-1.4l-1.2-.4a.5.5 0 0 1-.3-.3c0-.3-.2-.6-.3-.8v-.5l.5-1-1-1-1 .5h-.5c-.3-.1-.5-.3-.8-.3a.5.5 0 0 1-.3-.4 12 12 0 0 0-.4-1.1h-1.4l-.4 1.1c0 .2-.2.3-.3.4-.3 0-.6.2-.8.3h-.5l-1-.5-1 1 .5 1v.5c-.1.2-.3.5-.3.8 0 .1-.2.3-.4.3l-1.1.4v1.4l1.1.4c.2 0 .3.1.4.3 0 .3.2.5.3.8v.5l-.5 1 1 1 1-.5h.3Z" clip-rule="evenodd"/><path stroke="#67B279" stroke-linejoin="round" d="M90 262.6a1.6 1.6 0 1 0 0 3.2 1.6 1.6 0 0 0 0-3.2Z" clip-rule="evenodd"/><path stroke="#67B279" stroke-linecap="round" d="M86.5 294.7c2.2-3.1 8-2.1 8.4 3v.9M93.7 300.7c-2.2 3-8.1 2-8.4-3v-.6"/><path stroke="#67B279" stroke-linecap="round" stroke-linejoin="round" d="m96 297.7-1.1 1.2-1.2-1.2M84.1 297.7l1.2-1.2 1.2 1.2"/><path fill="#E4E4E4" d="M494.8 80.1a.3.3 0 0 1-.3-.3.3.3 0 0 1 .2-.2H500.4l.1.1V80a.3.3 0 0 1-.3.1h-5.4ZM523 83.1h-.4a1 1 0 0 1-.3-.2l-.2-.3v-4.9l.2-.3a1 1 0 0 1 .6-.3h4.3l.3.1.3.2a.9.9 0 0 1 .2.6V82.6a1 1 0 0 1-.5.5h-4.6Zm4.1-.6h.2a.3.3 0 0 0 .1-.3V78a.3.3 0 0 0-.1-.2H523a.3.3 0 0 0-.3.2v4.2a.3.3 0 0 0 0 .2.3.3 0 0 0 .3.1h4.1ZM552.6 80.6 550 83l-.2.1h-.2l-.1-.3v-.2l2.5-2.5-2.4-2.4-.1-.3a.3.3 0 0 1 .2-.2h.3l2.5 2.5 2.5-2.5h.2a.3.3 0 0 1 .2.5L553 80l2.5 2.5V83a.3.3 0 0 1-.1.2H555l-2.5-2.5ZM131.5 120.6l2.3-1.5c.4.6.8 1 1.3 1.3.4.2 1 .3 1.5.3.7 0 1.2-.1 1.5-.4.3-.2.5-.6.5-1 0-.5-.2-.9-.5-1.1a4 4 0 0 0-1.7-.7 6.9 6.9 0 0 1-3.2-1.3c-.7-.7-1-1.6-1-2.7 0-1.2.4-2.2 1.3-3 .9-.8 2-1.1 3.5-1.1 1 0 1.8.1 2.6.5.7.4 1.3.9 1.7 1.6l-2.2 1.4c-.3-.4-.6-.7-1-.9l-1.2-.2c-.6 0-1 .1-1.4.4-.3.2-.4.5-.4 1 0 .3.1.6.4.9l1.7.6c1.5.2 2.5.7 3.3 1.4.7.7 1 1.6 1 2.8a4 4 0 0 1-1.3 3.1c-.8.8-2 1.2-3.7 1.2-1 0-2-.2-3-.7a5 5 0 0 1-2-1.9Zm17.6 1.8-1.1.6-1.4.2c-1 0-1.9-.2-2.4-.7-.5-.5-.8-1.3-.8-2.3v-4.6H142v-2.2h1.5V111l3-.6v3h2.2v2.2h-2.2v4.6c0 .3 0 .5.2.6 0 .2.3.3.5.3l.4-.1c.2 0 .3-.1.5-.3l1 1.7Zm9.4.6h-2.8v-1.1a3.5 3.5 0 0 1-2.9 1.3c-.8 0-1.5-.2-2-.7-.7-.5-1-1.2-1-2.1 0-.9.3-1.6.9-2.2.6-.5 1.4-.9 2.5-1l2.6-.3v-.3c0-.4-.2-.8-.5-1-.3-.3-.7-.4-1.1-.4-.5 0-.9.1-1.2.3-.4.2-.7.5-1 .9l-1.8-1.3c.4-.5 1-1 1.7-1.3.7-.4 1.6-.6 2.5-.6 1.4 0 2.4.3 3 1 .8.7 1.1 1.7 1.1 3v5.8Zm-2.8-4v-.3l-1.8.2c-.5 0-.8.2-1 .4a1 1 0 0 0-.3.8c0 .3 0 .5.3.7.2.2.5.3.9.3.6 0 1-.2 1.4-.5.4-.4.6-1 .6-1.5Zm11.4 3.4-1.1.6-1.4.2c-1 0-1.9-.2-2.4-.7-.5-.5-.8-1.3-.8-2.3v-4.6H160v-2.2h1.5V111l3-.6v3h2.2v2.2h-2.2v4.6l.1.6.6.3.4-.1c.2 0 .3-.1.5-.3l1 1.7ZM170 112c-.5 0-1-.1-1.3-.4-.3-.3-.4-.7-.4-1.2s.1-.9.4-1.2c.4-.3.8-.4 1.3-.4s1 .1 1.3.4c.3.3.4.7.4 1.2s-.1.9-.4 1.2c-.4.3-.8.4-1.3.4Zm1.5 10.9h-3v-9.6h3v9.6Zm1.7-1.2 1.3-1.8 1.3.9c.4.2.9.2 1.3.2.5 0 .8 0 1-.2.2-.1.4-.3.4-.6 0-.2-.1-.4-.4-.6l-1-.3a5.2 5.2 0 0 1-2.7-1c-.6-.5-.8-1.2-.8-2a3 3 0 0 1 1-2.3 4 4 0 0 1 2.7-1c.7 0 1.3.2 1.9.3.6.2 1 .5 1.5.9l-1.4 1.7c-.3-.3-.7-.5-1-.6l-1-.2-.9.2-.3.6c0 .3.1.4.4.6l1.2.3c1 .2 2 .5 2.5 1 .6.5.8 1.2.8 2 0 1-.3 1.8-1 2.4-.8.6-1.8 1-3 1-.7 0-1.4-.2-2-.4-.8-.3-1.4-.6-1.8-1Zm15.9.6-1.1.6-1.4.2c-1 0-1.9-.2-2.4-.7-.5-.5-.8-1.3-.8-2.3v-4.6H182v-2.2h1.5V111l3-.6v3h2.2v2.2h-2.2v4.6l.1.6.6.3.4-.1c.2 0 .3-.1.5-.3l1 1.7ZM192 112c-.5 0-1-.1-1.2-.4-.4-.3-.5-.7-.5-1.2s.1-.9.5-1.2c.3-.3.7-.4 1.2-.4s1 .1 1.3.4c.3.3.4.7.4 1.2s-.1.9-.4 1.2c-.4.3-.8.4-1.3.4Zm1.5 10.9h-3v-9.6h3v9.6Zm10.8-2c-.4.7-1 1.3-1.7 1.7a5 5 0 0 1-2.4.5c-1.5 0-2.8-.4-3.6-1.3-.9-.9-1.3-2-1.3-3.5 0-1.6.5-2.9 1.4-3.8 1-1 2.2-1.4 3.7-1.4 1 0 1.7.2 2.4.6.7.4 1.1 1 1.4 1.7l-2.2 1-.7-.8-1-.2c-.5 0-1 .2-1.4.7-.4.4-.6 1-.6 2s.2 1.6.5 2c.4.4 1 .7 1.5.7.4 0 .7-.1 1-.3l.9-.8 2.1 1.2Zm1 .8 1.4-1.8 1.3.9c.4.2.9.2 1.3.2s.8 0 1-.2c.2-.1.3-.3.3-.6 0-.2 0-.4-.3-.6l-1-.3a5.2 5.2 0 0 1-2.7-1c-.6-.5-.9-1.2-.9-2a3 3 0 0 1 1-2.3 4 4 0 0 1 2.8-1l1.9.3 1.5.9-1.4 1.7-1-.6-1-.2-1 .2-.2.6c0 .3.1.4.3.6l1.2.3c1.2.2 2 .5 2.6 1 .5.5.8 1.2.8 2 0 1-.4 1.8-1.1 2.4-.7.6-1.7 1-2.8 1-.8 0-1.5-.2-2.2-.4-.7-.3-1.3-.6-1.8-1Z"/><path stroke="#67B279" stroke-linecap="round" stroke-linejoin="round" d="M410.8 115.8h-7.2M410.8 112.2h-9.6M410.8 119.4H406"/><path fill="#E4E4E4" d="M140 161.3h-2.5l-1.4-2.6a3 3 0 0 0-.6-.9c-.2-.2-.5-.2-.7-.3h-.7v3.8H132v-10h3.6c1.2 0 2.1.2 2.7.7.6.5 1 1.2 1 2 0 .7-.3 1.3-.6 1.8-.4.5-1 .9-1.6 1l.7.6.7 1 1.7 2.9Zm-5.8-8.4v3h1c.4 0 .8-.2 1.1-.5.3-.3.5-.7.5-1.1 0-.5-.2-.8-.4-1-.3-.3-.7-.4-1.2-.4h-1Zm12.9 5.4h-4.7c0 .5.2.9.5 1.1.3.3.7.4 1.2.4.3 0 .5 0 .8-.2.3 0 .6-.3.9-.6l1.3 1.1a4.5 4.5 0 0 1-3.2 1.3c-1.1 0-2-.3-2.7-1-.7-.6-1-1.5-1-2.6 0-1.2.4-2.1 1-2.8.7-.7 1.6-1 2.6-1s1.8.2 2.4.8c.6.7.9 1.6.9 2.8v.7Zm-2-1.4c0-.5-.2-.9-.4-1.1-.2-.3-.5-.4-.9-.4-.3 0-.7.2-1 .4l-.4 1.1h2.6Zm10.5 7.7h-2.2v-4.3c-.3.4-.6.7-1 .9a3 3 0 0 1-1.3.3c-.9 0-1.6-.4-2.2-1-.5-.6-.8-1.5-.8-2.6 0-1.2.3-2.2 1-3a3 3 0 0 1 3.5-.7l.8.7v-.8h2.2v10.5Zm-2.2-6.8v-.5c0-.5 0-.9-.4-1.2-.3-.3-.6-.5-1-.5-.5 0-1 .2-1.2.6-.3.4-.4 1-.4 1.6 0 .6.1 1 .4 1.4.2.4.6.5 1 .5.6 0 1-.1 1.2-.5.3-.3.4-.8.4-1.4Zm10.7 3.5H162v-1a2.6 2.6 0 0 1-2.2 1.1c-.8 0-1.4-.2-1.9-.7-.4-.5-.6-1.3-.6-2.2V154h2.2v4.1c0 .5.1.9.3 1.1.2.3.5.4.9.4s.7-.1 1-.4c.2-.3.3-.6.3-1.1V154h2.2v7.2Zm8.3-3h-4.7c0 .5.2.9.5 1.1.3.3.7.4 1.2.4.2 0 .5 0 .8-.2.3 0 .6-.3.8-.6l1.4 1.1a4.5 4.5 0 0 1-3.2 1.3c-1.2 0-2-.3-2.7-1-.7-.6-1-1.5-1-2.6 0-1.2.3-2.1 1-2.8.7-.7 1.6-1 2.6-1s1.8.2 2.4.8c.6.7.9 1.6.9 2.8v.7Zm-2-1.4c0-.5-.2-.9-.4-1.1-.2-.3-.5-.4-.9-.4s-.7.2-1 .4c-.2.3-.4.7-.4 1.1h2.6Zm2.7 3.6 1-1.4c.3.3.6.5 1 .6l1 .2c.3 0 .5 0 .7-.2.2 0 .3-.2.3-.5l-.3-.4a2 2 0 0 0-.8-.2c-.9-.2-1.5-.4-2-.8-.4-.4-.6-.9-.6-1.5 0-.7.3-1.3.8-1.7.6-.5 1.3-.7 2.1-.7.5 0 1 0 1.4.2.4.1.8.3 1.1.6l-1 1.3-.8-.4-.7-.1-.7.1-.2.5c0 .1 0 .3.2.4l1 .2c.8.2 1.4.4 1.8.8.4.4.6.9.6 1.5 0 .7-.3 1.3-.8 1.8-.6.4-1.3.6-2.2.6-.5 0-1 0-1.5-.2-.5-.1-1-.4-1.4-.7Zm11.8.5-.8.3-1 .1c-.7 0-1.3-.1-1.7-.5-.4-.4-.6-1-.6-1.7v-3.5h-1.2v-1.6h1.2v-1.8l2.2-.5v2.3h1.7v1.6H183v3.4l.1.6.5.1h.3l.3-.2.7 1.4Zm.5-.5 1-1.4c.3.3.6.5 1 .6l1 .2c.3 0 .5 0 .7-.2.2 0 .3-.2.3-.5l-.3-.4a2 2 0 0 0-.8-.2c-.9-.2-1.6-.4-2-.8-.4-.4-.6-.9-.6-1.5 0-.7.3-1.3.8-1.7.6-.5 1.3-.7 2.1-.7.5 0 1 0 1.4.2.4.1.8.3 1.1.6l-1 1.3-.8-.4-.7-.1-.7.1c-.2.1-.2.3-.2.5 0 .1 0 .3.2.4l1 .2c.8.2 1.4.4 1.8.8.4.4.6.9.6 1.5 0 .7-.3 1.3-.8 1.8-.6.4-1.3.6-2.2.6-.5 0-1 0-1.5-.2-.5-.1-1-.4-1.4-.7Z"/><path fill="#F67247" d="M131.6 194.8v-.8c0-.5.1-1 .3-1.4a4.6 4.6 0 0 1 1.5-2 19.1 19.1 0 0 1 1.7-1.2l.5-.6.4-.6.1-.7c0-.3 0-.6-.3-.8-.2-.3-.6-.4-1-.4a2 2 0 0 0-1 .3l-.9.8-1.4-1c.4-.6 1-1 1.5-1.4.6-.3 1.3-.4 2.1-.4 1 0 1.8.2 2.4.7.5.6.8 1.2.8 2a3.6 3.6 0 0 1-.7 2.3l-.9.8a14.5 14.5 0 0 1-1.5 1.2 5 5 0 0 0-.6.5l-.4.4v.4h4.1v1.9h-6.7Zm9.3.2c-.3 0-.7-.2-.9-.4-.2-.2-.4-.5-.4-.9s.2-.7.4-.9c.3-.2.6-.4 1-.4.3 0 .6.2.9.4.2.2.3.5.3.9s0 .7-.3 1c-.3.1-.6.3-1 .3Zm9.6-9c-1 1.6-1.6 3-2.2 4.4-.5 1.3-.9 2.7-1.1 4.4h-2.4c.3-1.6.7-3 1.3-4.4l2-3.9h-4.6v-1.8h7v1.3Zm10 8.8h-2.8l-3-4.3v-.2l-.2-.3v4.8h-2.3v-10h2.3v4.5l.1-.2.2-.3 2.8-4h2.6l-3.5 4.7 3.8 5.3ZM134.4 209.1h-.7v-.6l-.5.6-.7.1c-.4 0-.8 0-1-.3-.2-.2-.4-.5-.4-1 0-.3.2-.6.4-.8.2-.2.6-.4 1-.4l1.2-.2v-.1c0-.4 0-.6-.2-.8a1 1 0 0 0-.7-.2c-.2 0-.4 0-.6.2-.2 0-.4.2-.5.3l-.5-.3a2.2 2.2 0 0 1 1.7-.7c.5 0 .9 0 1.1.3.3.3.4.7.4 1.2v2.7Zm-.7-1.7v-.4l-1 .2c-.3 0-.5 0-.7.2l-.2.5c0 .3 0 .5.2.6l.6.2c.3 0 .6-.1.8-.4.2-.2.3-.5.3-.9Zm4.9 1-.6.6c-.2.2-.5.2-.8.2-.6 0-1-.1-1.3-.5-.3-.4-.5-1-.5-1.6 0-.7.2-1.2.5-1.6.4-.4.8-.6 1.4-.6l.8.1.5.5V203h.7v6.2h-.7v-.7Zm-2.5-1.3c0 .5.1.9.3 1.2.3.2.6.4 1 .4.3 0 .6-.2.9-.4.2-.3.3-.6.3-1v-.7a1.2 1.2 0 0 0-1.2-1.2c-.4 0-.7.2-1 .5a2 2 0 0 0-.3 1.2Zm4.1 1.7.4-.5.5.3h1.2l.3-.6-.2-.4-.7-.3c-.5-.1-.8-.3-1-.5a1 1 0 0 1-.3-.7c0-.4.1-.7.4-.9.2-.2.6-.3 1-.3h.7l.6.4-.3.5-.5-.3h-.5a1 1 0 0 0-.6 0l-.2.5c0 .2 0 .3.2.4l.7.3 1 .5c.2.2.3.4.3.8s-.1.7-.4.9a2.3 2.3 0 0 1-2.5-.1ZM219.3 218.7h-86.1a2.4 2.4 0 1 0 0 4.8h86.1a2.4 2.4 0 0 0 0-4.8Z"/><path fill="#D58500" d="m227.1 193.6 1.3-1.2c.3.3.5.5.8.6.3.2.7.2 1.1.2.5 0 .9 0 1.2-.3.2-.3.4-.6.4-1 0-.5-.2-.8-.6-1-.4-.3-1-.4-1.6-.4h-.8v-1.7h.7c.7 0 1.2-.1 1.5-.4.3-.2.5-.5.5-1 0-.4-.1-.7-.3-.8-.3-.2-.6-.3-1-.3-.2 0-.5 0-.8.2-.3 0-.6.3-1 .6l-1.2-1.1a4.5 4.5 0 0 1 3.4-1.4c1 0 1.7.2 2.3.7.6.4.8 1 .8 1.8 0 .6-.1 1.1-.4 1.5-.3.4-.7.7-1.3 1 .6 0 1.1.4 1.5.8.4.4.5 1 .5 1.5 0 1-.3 1.7-1 2.2a4 4 0 0 1-2.6.9 5 5 0 0 1-2-.4c-.5-.2-1-.5-1.4-1Zm9.6 1.4c-.4 0-.7-.2-1-.4-.2-.2-.3-.5-.3-.9s0-.7.3-.9c.3-.2.6-.4 1-.4s.7.2 1 .4c.1.2.3.5.3.9s-.2.7-.4 1c-.2.1-.6.3-1 .3Zm9.5-9a41 41 0 0 0-2.1 4.4c-.6 1.3-1 2.7-1.2 4.4h-2.3c.2-1.6.7-3 1.2-4.4l2-3.9h-4.6v-1.8h7v1.3Zm10 8.8h-2.8l-2.9-4.3-.1-.2s0-.2-.2-.3v4.8H248v-10h2.3v4.5l.2-.2.1-.3 2.8-4h2.6l-3.4 4.7 3.8 5.3ZM229.2 209a1.6 1.6 0 0 1-.7.2 1 1 0 0 1-.8-.3c-.2-.2-.3-.4-.3-.8v-2.6h-.7v-.5h.7v-1l.7-.3v1.3h1v.5h-1v3l.5.2h.2l.2-.1.2.5Zm3-3.5a.9.9 0 0 0-.4 0 1 1 0 0 0-.8.4 2 2 0 0 0-.3 1.1v2.1h-.7V205h.7v.8l.5-.7.6-.2a1.3 1.3 0 0 1 .4 0v.6Zm3.7 3.6h-.6v-.6l-.6.6-.7.1c-.4 0-.7 0-1-.3-.2-.2-.3-.5-.3-1 0-.3 0-.6.3-.8.3-.2.6-.4 1-.4l1.3-.2v-.1c0-.4-.1-.6-.3-.8a1 1 0 0 0-.6-.2c-.3 0-.5 0-.7.2-.2 0-.3.2-.5.3l-.4-.3a2.2 2.2 0 0 1 1.6-.7c.5 0 .9 0 1.1.3.3.3.4.7.4 1.2v2.7Zm-.6-1.7v-.4l-1 .2c-.4 0-.6 0-.8.2l-.2.5c0 .3 0 .5.2.6l.6.2c.3 0 .6-.1.8-.4.3-.2.4-.5.4-.9Zm5 1.4a2 2 0 0 1-1.3.4 2 2 0 0 1-1.5-.5 2 2 0 0 1-.6-1.6c0-.7.2-1.2.6-1.6a2 2 0 0 1 1.6-.6 2.2 2.2 0 0 1 1.2.3l-.3.5-.5-.2h-.5c-.4 0-.8 0-1 .4-.3.3-.4.7-.4 1.2s.1.9.4 1.2c.3.2.6.4 1 .4a1.5 1.5 0 0 0 .9-.3l.3.4Zm4.3.3h-1l-1.8-2v2h-.7V203h.7v4l1.8-2h.9l-2 2 2.1 2.2Zm4-2h-2.9c0 .6.1 1 .4 1.2.2.2.6.4 1 .4l.6-.1.5-.3.4.4-.8.4-.8.1a2 2 0 0 1-1.4-.5c-.4-.4-.6-1-.6-1.6 0-.7.2-1.2.6-1.6.3-.4.8-.6 1.3-.6.6 0 1 .1 1.3.5.3.3.5.8.5 1.5v.3Zm-.6-.5-.3-.9a1 1 0 0 0-.8-.3 1 1 0 0 0-.8.4l-.4.8h2.3Zm3.8-1a.8.8 0 0 0-.4-.1 1 1 0 0 0-.8.4 2 2 0 0 0-.2 1.1v2.1h-.7V205h.7v.8c0-.3.2-.5.4-.7l.7-.2a1.3 1.3 0 0 1 .4 0l-.1.6Zm.4 3.2.4-.5.5.3h1.2c.2-.2.2-.4.2-.6 0-.1 0-.3-.2-.4l-.6-.3c-.5-.1-.9-.3-1-.5a1 1 0 0 1-.3-.7c0-.4 0-.7.3-.9.3-.2.7-.3 1.1-.3h.7l.6.4-.3.5-.5-.3h-.5a1 1 0 0 0-.6 0l-.2.5c0 .2 0 .3.2.4l.7.3 1 .5c.2.2.3.4.3.8s-.2.7-.4.9a2.3 2.3 0 0 1-2.5-.1ZM315 218.7H229a2.4 2.4 0 1 0 0 4.8H315a2.4 2.4 0 0 0 0-4.8Z"/><path fill="silver" d="M327 194.8h-2.2V187l-.9.5-1 .3-.6-1.8a11.3 11.3 0 0 0 3.4-1.6h1.3v10.3Zm5.6.2c-1.2 0-2.1-.5-2.7-1.3-.5-.8-.8-2.1-.8-3.8 0-1.7.3-3 .9-4a3 3 0 0 1 2.6-1.3c1.3 0 2.2.4 2.7 1.2.5.9.8 2.2.8 3.9 0 1.7-.3 3-.9 3.9a3 3 0 0 1-2.6 1.4Zm0-8.8c-.5 0-.8.3-1 1-.2.6-.3 1.5-.3 2.7 0 1 .1 2 .3 2.5.2.6.5.9 1 .9s.8-.3 1-1l.2-2.5c0-1.2 0-2-.2-2.7-.2-.6-.5-.9-1-.9Zm13.5 8.6h-2.8l-3-4.3v-.2l-.2-.3v4.8h-2.3v-10h2.3v4.5l.1-.2.2-.3 2.8-4h2.6l-3.4 4.7 3.8 5.3ZM325 209a1.7 1.7 0 0 1-.8.2 1 1 0 0 1-.8-.3c-.2-.2-.3-.4-.3-.8v-2.6h-.7v-.5h.7v-1l.7-.3v1.3h1v.5h-1v2.5l.1.5.4.2h.2l.2-.1.2.5Zm2.5.2a2 2 0 0 1-1.5-.5c-.3-.4-.5-1-.5-1.6 0-.7.2-1.3.6-1.6a2 2 0 0 1 1.5-.6c.6 0 1.1.1 1.5.5.3.4.5 1 .5 1.6 0 .7-.2 1.2-.6 1.6a2 2 0 0 1-1.5.6Zm0-.5c.5 0 .8-.2 1-.5.3-.2.4-.6.4-1.1 0-.6-.1-1-.3-1.3-.3-.2-.6-.4-1-.4-.5 0-.8.2-1 .5-.3.3-.4.7-.4 1.2s0 .9.3 1.1c.3.3.6.5 1 .5Zm5.2.4a1.6 1.6 0 0 1-.7.1 1 1 0 0 1-.8-.3c-.2-.2-.3-.4-.3-.8v-2.6h-.7v-.5h.7v-1l.7-.3v1.3h1v.5h-1v3l.5.2h.2l.2-.1.2.5Zm3.8 0h-.7v-.6l-.5.6-.8.1c-.4 0-.7 0-1-.3-.2-.2-.3-.5-.3-1 0-.3.1-.6.4-.8.2-.2.6-.4 1-.4l1.2-.2v-.1c0-.4 0-.6-.2-.8a1 1 0 0 0-.7-.2c-.2 0-.4 0-.6.2-.2 0-.4.2-.5.3l-.5-.3a2.2 2.2 0 0 1 1.7-.7c.5 0 .9 0 1.1.3.3.3.4.7.4 1.2v2.7Zm-.7-1.7v-.4l-1 .2c-.3 0-.5 0-.7.2l-.2.5c0 .3 0 .5.2.6l.5.2c.4 0 .7-.1 1-.4l.2-.9Zm2 1.7V203h.7v6.2h-.7ZM410.8 218.7h-86.2a2.4 2.4 0 0 0 0 4.8h86.2a2.4 2.4 0 1 0 0-4.8Z"/><path fill="#E4E4E4" d="m130.9 257 3.6-10h2.7l3.5 10h-2.4l-.7-2H134l-.6 2h-2.4Zm3.6-3.9h2.6l-1.1-3.5a8.3 8.3 0 0 1-.2-.7 11.7 11.7 0 0 1-.2.7l-1.1 3.5Zm9.5 3.2v4h-2.3v-10.5h2.3v1a2.6 2.6 0 0 1 2.3-1.2c1 0 1.7.4 2.2 1 .5.6.8 1.5.8 2.6 0 1.2-.3 2.2-1 2.9a3 3 0 0 1-2.3 1l-1.2-.1-.8-.7Zm0-3.1v.6c0 .5 0 1 .3 1.2.3.3.7.5 1 .5.6 0 1-.2 1.3-.6.2-.4.4-1 .4-1.7 0-.6-.1-1-.4-1.4-.2-.3-.6-.4-1.1-.4-.5 0-.8.1-1.1.5-.3.3-.5.7-.5 1.3Zm8.9 3v4.1h-2.3v-10.5h2.2v1a2.6 2.6 0 0 1 2.4-1.2c1 0 1.7.4 2.2 1 .5.6.8 1.5.8 2.6 0 1.2-.4 2.2-1 2.9a3 3 0 0 1-2.3 1l-1.2-.1-.8-.7Zm0-3v.6c0 .5 0 1 .3 1.2.3.3.6.5 1 .5.6 0 1-.2 1.3-.6.2-.4.4-1 .4-1.7 0-.6-.1-1-.4-1.4-.3-.3-.6-.4-1.1-.4-.5 0-.8.1-1.1.5-.3.3-.5.7-.5 1.3Zm6 3 1-1.4c.3.3.6.5 1 .6l1 .2.7-.1c.2-.2.3-.3.3-.5s-.1-.3-.3-.4a2 2 0 0 0-.8-.3c-.9-.1-1.6-.4-2-.8-.4-.3-.6-.8-.6-1.5s.3-1.2.8-1.7c.6-.4 1.3-.7 2.1-.7l1.4.2 1 .6-.9 1.4-.8-.5-.7-.1c-.3 0-.5 0-.7.2-.2 0-.2.2-.2.4s0 .3.2.4l1 .3c.8 0 1.4.3 1.8.7.4.4.6.9.6 1.5 0 .8-.3 1.4-.8 1.8-.6.5-1.3.7-2.2.7l-1.5-.3c-.5-.1-1-.4-1.4-.7Z"/><path fill="#3D3D3D" d="M121.2 276.1c0-2.6 2.1-4.7 4.8-4.7h292c2.6 0 4.7 2.1 4.7 4.7v19.2c0 2.6-2.1 4.8-4.7 4.8H126a4.8 4.8 0 0 1-4.8-4.8V276Z"/><path fill="#EF3F36" d="M138 279.7s3.5-.1 5.3 3.4h-5.7s-1 0-2 1.3c-.2.5-.5 1-.2 2.2l-2.4-4.2s1.4-2.5 5-2.7Z"/><path fill="#FCD900" d="M143.1 288.7s-1.6 3.1-5.6 3l2.9-5s.5-.9-.1-2.3c-.4-.5-.7-1-1.8-1.3h4.8s1.5 2.5-.2 5.6Z"/><path fill="#61BC5B" d="M132.7 288.7s-1.9-3 .3-6.3l2.8 4.9s.5 1 2.1 1c.6 0 1.3 0 2-.8l-2.4 4.2s-2.9 0-4.8-3Z"/><path fill="#5AB055" d="m137.5 291.7.8-3.3s.9-.1 1.6-.9l-2.4 4.2Z"/><path fill="#fff" d="M135.3 285.8a2.7 2.7 0 1 1 5.3 0 2.7 2.7 0 0 1-5.3 0Z"/><path fill="url(#z)" d="M135.7 285.8a2.2 2.2 0 1 1 4.4 0 2.2 2.2 0 0 1-4.4 0Z"/><path fill="#EACA05" d="m143.3 283.1-3.3 1s-.5-.8-1.5-1h4.8Z"/><path fill="#DF3A32" d="m135.3 286.5-2.3-4.1 2.4 2.4s-.2.5-.1 1.3v.4Z"/><path fill="#E4E4E4" d="M160.6 289.4a4.3 4.3 0 0 1-2.3.6c-1 0-1.7-.3-2.3-.9-.6-.6-.9-1.4-.9-2.5 0-1 .3-1.9 1-2.5.6-.7 1.4-1 2.4-1 .5 0 .8 0 1.2.2.3 0 .6.2 1 .5l-.5.5a2.9 2.9 0 0 0-1.7-.5c-.7 0-1.3.3-1.8.7-.5.5-.7 1.2-.7 2 0 1 .2 1.7.6 2.1.4.5 1 .7 1.8.7h.8l.7-.3V287h-1.5v-.7h2.2v3Zm3.5.6c-.7 0-1.3-.2-1.7-.6-.4-.5-.6-1-.6-1.8s.2-1.4.6-1.9c.5-.5 1-.7 1.8-.7.7 0 1.3.2 1.7.7.4.4.6 1 .6 1.8s-.2 1.4-.7 1.8c-.4.5-1 .7-1.7.7Zm0-.6c.5 0 1-.2 1.2-.5.3-.3.4-.8.4-1.4 0-.6-.1-1-.4-1.3-.3-.4-.7-.5-1.2-.5-.4 0-.8.1-1.1.5a2 2 0 0 0-.5 1.3c0 .6.2 1 .5 1.4.3.3.7.5 1.1.5Zm5.6.6c-.7 0-1.3-.2-1.7-.6-.4-.5-.6-1-.6-1.8s.2-1.4.6-1.9c.5-.5 1-.7 1.8-.7.7 0 1.3.2 1.7.7.4.4.6 1 .6 1.8s-.2 1.4-.7 1.8c-.4.5-1 .7-1.7.7Zm0-.6c.5 0 1-.2 1.2-.5.3-.3.4-.8.4-1.4 0-.6-.1-1-.4-1.3-.3-.4-.7-.5-1.1-.5-.5 0-1 .1-1.2.5a2 2 0 0 0-.5 1.3c0 .6.2 1 .5 1.4.3.3.7.5 1.2.5Zm7.7.3c0 .8-.2 1.4-.6 1.8-.5.5-1 .7-1.8.7a3.5 3.5 0 0 1-1.8-.6l.3-.5a2.8 2.8 0 0 0 1.5.4c.5 0 1-.1 1.2-.4.3-.3.4-.7.4-1.3v-.7l-.7.7a2 2 0 0 1-1 .2c-.5 0-1-.2-1.4-.6-.3-.4-.5-1-.5-1.7 0-.8.2-1.5.6-2a2 2 0 0 1 1.6-.7c.3 0 .6 0 .8.2.3.1.5.3.6.6v-.7h.8v4.6Zm-.8-2v-.7c0-.3-.1-.7-.4-1-.2-.2-.5-.3-1-.3-.4 0-.8.1-1 .5-.3.3-.4.8-.4 1.4 0 .6 0 1 .3 1.3.3.3.6.5 1 .5.5 0 .9-.2 1.1-.5.3-.3.4-.7.4-1.2Zm2.3 2.2v-7h.8v7h-.8Zm6.2-2.2h-3.4c0 .5.1 1 .4 1.2.3.3.7.5 1.1.5a2 2 0 0 0 1.3-.5l.5.5-.8.5-1 .1c-.7 0-1.3-.2-1.7-.6-.4-.4-.6-1-.6-1.8s.2-1.4.6-1.9a2 2 0 0 1 1.6-.7c.6 0 1.1.2 1.5.6.3.4.5 1 .5 1.7v.4Zm-.8-.6c0-.5-.1-.8-.3-1-.2-.3-.5-.4-1-.4-.3 0-.6 0-.8.3-.3.3-.4.6-.5 1h2.6Zm9.5 2.2c-.3.3-.7.4-1 .5-.3.2-.7.2-1.2.2a3 3 0 0 1-2.3-.9c-.6-.6-.9-1.4-.9-2.4 0-1.1.4-2 1-2.6.6-.7 1.4-1 2.4-1a3.1 3.1 0 0 1 2 .6l-.5.6-.7-.4h-.8c-.8 0-1.4.2-1.8.7a3 3 0 0 0-.7 2c0 .9.2 1.5.6 2 .5.5 1 .7 1.8.7a2.7 2.7 0 0 0 1.7-.5l.4.5Zm5 .6h-.7v-2.8c0-.5-.1-.8-.3-1-.2-.3-.5-.4-.8-.4-.4 0-.7.1-1 .4-.2.3-.4.6-.4 1v2.8h-.7v-7h.7v3l.7-.7 1-.2c.5 0 .9.2 1.1.5.3.3.4.8.4 1.5v3Zm3.9-4.1a1.1 1.1 0 0 0-.4 0 1 1 0 0 0-1 .4c-.1.4-.3.8-.3 1.3v2.4h-.7v-4.8h.7v1c.2-.4.3-.6.6-.8.2-.2.4-.3.7-.3h.3l.2.1-.1.7Zm3 4.2c-.8 0-1.3-.2-1.8-.6-.4-.5-.6-1-.6-1.8s.2-1.4.7-1.9c.4-.5 1-.7 1.8-.7.7 0 1.2.2 1.6.7.4.4.6 1 .6 1.8s-.2 1.4-.6 1.8c-.4.5-1 .7-1.7.7Zm0-.6c.5 0 .9-.2 1.1-.5.3-.3.5-.8.5-1.4 0-.6-.2-1-.5-1.3-.2-.4-.6-.5-1-.5-.6 0-1 .1-1.3.5a2 2 0 0 0-.4 1.3c0 .6.1 1 .4 1.4.3.3.7.5 1.2.5Zm10.3.5h-.7v-2.7c0-.6-.1-1-.3-1.2-.1-.2-.4-.3-.8-.3a1 1 0 0 0-.8.4c-.3.3-.4.7-.4 1v2.8h-.7v-2.8c0-.5-.1-.9-.3-1-.2-.3-.5-.4-.8-.4a1 1 0 0 0-.9.4c-.2.3-.3.6-.3 1v2.8h-.7v-4.8h.7v.8l.7-.7.8-.2a1.4 1.4 0 0 1 1.4 1l.6-.7c.3-.2.6-.3 1-.3.5 0 .9.2 1.2.5.2.3.3.8.3 1.5v3Zm5.3-2.2H218c0 .5.2 1 .5 1.2.2.3.6.5 1 .5a2 2 0 0 0 1.4-.5l.4.5-.8.5-1 .1c-.7 0-1.2-.2-1.6-.6-.4-.4-.6-1-.6-1.8s.2-1.4.6-1.9a2 2 0 0 1 1.6-.7c.6 0 1 .2 1.4.6.4.4.5 1 .5 1.7v.4Zm-.7-.6c0-.5-.2-.8-.4-1-.2-.3-.5-.4-.9-.4-.3 0-.6 0-.9.3l-.5 1h2.7Z"/><path fill="#F67247" d="M321.2 290h-.8v-5.8a4.4 4.4 0 0 1-1.4.7l-.2-.7a5.1 5.1 0 0 0 2-1.1h.4v6.8Zm2.2 0a.5.5 0 0 1-.6-.5c0-.2 0-.3.2-.4l.4-.2.3.2.2.4c0 .1 0 .3-.2.4l-.3.1Zm5.7-3.8c0 1.2-.2 2.2-.6 2.8-.4.7-1.1 1-2 1-.3 0-.6 0-1-.2-.2 0-.5-.3-.7-.5l.5-.5.5.4.7.2c.6 0 1-.3 1.4-.7.3-.5.4-1.2.4-2.1-.1.3-.3.5-.6.6-.2.2-.5.2-.9.2-.6 0-1-.2-1.4-.6-.4-.4-.5-.8-.5-1.5 0-.6.2-1.2.6-1.6a2 2 0 0 1 1.5-.6c.7 0 1.2.3 1.6.8.3.5.5 1.3.5 2.3Zm-.8-.7c0-.5-.1-1-.4-1.3-.2-.3-.6-.5-1-.5-.3 0-.6.2-.9.5-.2.2-.4.6-.4 1 0 .5.2.9.4 1.1.3.3.6.4 1 .4.3 0 .7 0 1-.3.2-.3.3-.6.3-1Zm6.8 4.4H334l-2.6-3-.1-.2h-.1v3.2h-.8v-6.7h.8v3.2a1.8 1.8 0 0 1 .2-.3l2.5-2.9h1l-2.9 3.2 3 3.5Z"/><path fill="#E4E4E4" d="m341.4 283.2-3.1 7.7h-.7l3.2-7.7h.6Zm25.3 0-3.2 7.7h-.6l3.2-7.7h.6Zm5 6.7h-.8v-5.7a4.4 4.4 0 0 1-1.4.7l-.2-.7a5.1 5.1 0 0 0 2-1.1h.4v6.8Zm3.6 0h-.7v-5.7l-.7.3c-.3.2-.5.3-.8.3l-.2-.6a5.1 5.1 0 0 0 2-1.1h.4v6.8Zm2.2.1-.4-.1a.5.5 0 0 1-.2-.4l.2-.4.4-.2.4.2.1.4-.1.4-.4.1Zm5.7-3.8c0 1.2-.2 2.2-.6 2.8-.4.7-1 1-2 1-.3 0-.6 0-.9-.2-.3 0-.5-.3-.7-.5l.5-.5.5.4.7.2c.6 0 1-.3 1.3-.7.3-.5.5-1.2.5-2.1l-.6.6c-.3.2-.6.2-1 .2-.5 0-1-.2-1.4-.6a2 2 0 0 1-.5-1.5c0-.6.2-1.2.6-1.6a2 2 0 0 1 1.5-.6c.7 0 1.2.3 1.6.8.4.5.5 1.3.5 2.3Zm-.8-.7c0-.5-.1-1-.4-1.3-.2-.3-.5-.5-1-.5-.3 0-.6.2-.8.5-.3.2-.4.6-.4 1 0 .5.1.9.4 1.1.2.3.5.4 1 .4.3 0 .6 0 .8-.3.3-.3.4-.6.4-1Zm6.8 4.4h-1l-2.7-3v-.2h-.1v3.2h-.8v-6.7h.7v3.2a1.4 1.4 0 0 1 .2-.3l2.6-2.9h1l-3 3.2 3.1 3.5Z"/><path fill="#D58500" d="M346.5 290h-.8v-5.8l-.7.3c-.2.2-.5.3-.7.3l-.2-.6a5 5 0 0 0 2-1.1h.4v6.8Zm2.1 0-.4-.1a.5.5 0 0 1-.1-.4l.1-.4.4-.2.4.2.2.4-.2.4-.4.1Zm1.6 0v-.4l.1-.8.3-.6.6-.6a16.5 16.5 0 0 1 1.5-1.2l.3-.4.3-.5v-.5c0-.4 0-.7-.3-1-.2-.1-.5-.3-.9-.3a2 2 0 0 0-1.5.8l-.5-.4 1-.8 1-.2c.7 0 1.2.2 1.5.5.3.4.5.8.5 1.3a2.5 2.5 0 0 1-.8 1.9l-.7.5a31 31 0 0 0-1.2 1l-.3.5v.4h3.3v.7h-4.2Zm10.1 0h-1l-2.6-3.2-.2-.1v3.2h-.8v-6.7h.8v3.2a1.2 1.2 0 0 1 .2-.3l2.5-2.9h1l-3 3.2 3.1 3.5Z"/><path stroke="silver" stroke-linecap="round" stroke-linejoin="round" d="m404.2 289.3 3.6-3.6-3.6-3.6"/><path stroke="#67B279" stroke-linecap="round" stroke-linejoin="round" d="M142.7 315.6h-3c-.3 0-.6.3-.6.6v3c0 .4.3.6.6.6h3c.4 0 .6-.2.6-.6v-3c0-.3-.2-.6-.6-.6ZM134.1 316c.3-.4.9-.4 1 0l1.8 3c.2.3-.1.8-.6.8H133a.6.6 0 0 1-.5-.9l1.6-3ZM136.2 309h-3c-.4 0-.6.3-.6.7v3c0 .3.2.5.6.5h3c.3 0 .6-.2.6-.6v-3c0-.3-.3-.5-.6-.5Z"/><path stroke="#67B279" d="M141.2 309a2 2 0 1 1 0 4.2 2 2 0 0 1 0-4.1Z" clip-rule="evenodd"/><path fill="#E4E4E4" d="m155 318 .5-.6.8.5 1 .1c.3 0 .7 0 1-.3.2-.2.3-.4.3-.8a1 1 0 0 0-.3-.8l-1.1-.6c-.6-.2-1.1-.4-1.4-.7-.3-.3-.5-.7-.5-1.1 0-.6.2-1 .6-1.4.4-.3 1-.5 1.6-.5a3 3 0 0 1 1.8.6l-.4.6a2.5 2.5 0 0 0-1.5-.5c-.4 0-.7.1-1 .3a1 1 0 0 0-.3.8c0 .3.1.5.3.7l1.1.5c.7.2 1.2.5 1.5.8.3.3.4.7.4 1.2 0 .6-.2 1-.6 1.4-.4.4-1 .5-1.6.5-.4 0-.8 0-1.2-.2a3 3 0 0 1-1-.5Zm7.6.7c-.7 0-1.3-.2-1.7-.6-.4-.5-.6-1-.6-1.8s.2-1.4.6-1.9c.5-.4 1-.7 1.8-.7.7 0 1.3.2 1.7.7.4.4.6 1 .6 1.8s-.2 1.4-.6 1.8c-.5.5-1 .7-1.8.7Zm0-.6c.6 0 1-.2 1.2-.5.3-.3.4-.8.4-1.4 0-.5-.1-1-.4-1.3-.3-.4-.6-.5-1.1-.5-.5 0-1 .1-1.2.5a2 2 0 0 0-.4 1.4c0 .5.1 1 .4 1.3.3.3.7.5 1.2.5Zm10.4.5h-.8V316c0-.5 0-1-.2-1.2-.2-.2-.4-.3-.8-.3a1 1 0 0 0-.9.4c-.2.3-.3.7-.3 1.1v2.7h-.8v-2.8c0-.5 0-.8-.2-1-.2-.3-.5-.4-.9-.4a1 1 0 0 0-.8.4c-.2.3-.3.6-.3 1.1v2.7h-.8v-4.8h.8v.8l.6-.7.9-.2a1.4 1.4 0 0 1 1.3 1c.2-.3.4-.6.7-.7.3-.2.6-.3 1-.3.5 0 .9.2 1.1.5.3.3.4.8.4 1.5v3Zm5.3-2.2H175c0 .6.2 1 .4 1.3a2 2 0 0 0 2.4 0l.5.4-.8.5-1 .1c-.7 0-1.3-.2-1.7-.6-.4-.4-.6-1-.6-1.8s.2-1.4.6-1.9a2 2 0 0 1 1.6-.7c.7 0 1.1.2 1.5.6.3.4.5 1 .5 1.7v.4Zm-.8-.6c0-.5 0-.8-.3-1-.2-.3-.5-.4-.9-.4s-.7.1-1 .4c-.2.2-.3.6-.4 1h2.6Zm4.6 2.8V312h2c.5 0 1 .2 1.3.4.3.3.5.7.5 1.2a1.6 1.6 0 0 1-1.1 1.5c.4.1.8.3 1 .6.3.3.4.7.4 1.1 0 .6-.2 1-.6 1.4-.4.4-1 .5-1.6.5h-2Zm.8-6v2.2h.8c.4 0 .8-.1 1-.3.3-.2.4-.5.4-.9 0-.3-.1-.6-.3-.7-.3-.2-.6-.3-1-.3h-1Zm0 3v2.3h1c.5 0 .9 0 1.1-.3.3-.2.4-.5.4-1 0-.3-.1-.6-.4-.8a2 2 0 0 0-1.2-.3h-1Zm7-1a1.3 1.3 0 0 0-.4-.2 1 1 0 0 0-1 .5c-.2.4-.3.8-.3 1.3v2.4h-.7v-4.8h.7v1l.5-.8c.3-.2.5-.2.8-.2h.5l-.2.7Zm3 4.1c-.8 0-1.3-.2-1.8-.6-.4-.5-.6-1-.6-1.8s.2-1.4.7-1.9c.4-.4 1-.7 1.7-.7.8 0 1.3.2 1.7.7.4.4.6 1 .6 1.8s-.2 1.4-.6 1.8c-.5.5-1 .7-1.8.7Zm0-.6c.5 0 .9-.2 1.1-.5.3-.3.4-.8.4-1.4 0-.5-.1-1-.4-1.3-.2-.4-.6-.5-1.1-.5-.5 0-.9.1-1.2.5a2 2 0 0 0-.4 1.4c0 .5.1 1 .4 1.3.3.3.7.5 1.2.5Zm9.6-4.3-1.5 4.8h-.8l-1-3.4a2.1 2.1 0 0 1 0-.4v.2l-.1.2-1.1 3.4h-.8l-1.4-4.8h.8l1 3.6v.4a3.8 3.8 0 0 1 .2-.4l1-3.6h.8l1 3.6v.4a2.3 2.3 0 0 1 .1-.4l1-3.6h.8Zm.4 4.3.5-.5.5.4h1.4l.3-.6c0-.2-.1-.4-.3-.5-.1-.2-.3-.3-.7-.4-.6-.1-1-.3-1.2-.5-.2-.3-.3-.5-.3-.9s.1-.7.4-1c.3-.2.7-.4 1.2-.4.3 0 .6 0 .8.2.3 0 .5.2.7.4l-.4.5a2 2 0 0 0-.5-.3l-.6-.1c-.3 0-.5 0-.7.2l-.2.4c0 .3 0 .4.2.5l.8.3c.5.2.9.3 1.1.6.3.2.4.5.4.9s-.2.8-.5 1a2 2 0 0 1-1.2.4l-1-.1-.7-.5Zm8.4-1.7H208c0 .6.2 1 .4 1.3a2 2 0 0 0 2.4 0l.5.4-.8.5-1 .1c-.7 0-1.3-.2-1.7-.6-.4-.4-.6-1-.6-1.8s.2-1.4.6-1.9a2 2 0 0 1 1.6-.7c.7 0 1.1.2 1.5.6.3.4.5 1 .5 1.7v.4Zm-.8-.6c0-.5 0-.8-.3-1-.2-.3-.5-.4-.9-.4s-.7.1-1 .4c-.2.2-.3.6-.4 1h2.6Zm4.3-1.3a1.2 1.2 0 0 0-.3 0 1 1 0 0 0-1 .4c-.2.4-.3.8-.3 1.3v2.4h-.7v-4.8h.7v1l.5-.8c.3-.2.5-.2.8-.2h.5l-.2.7Z"/><path fill="#F67247" d="M321.2 318.6h-.8V313a4.2 4.2 0 0 1-1.4.7l-.2-.7a5.1 5.1 0 0 0 2-1.1h.4v6.8Zm2.2.1a.5.5 0 0 1-.6-.5c0-.1 0-.3.2-.4l.4-.1.3.1.2.4c0 .1 0 .3-.2.4l-.3.1Zm1.4-2 .3-1c.2-.3.5-.6 1-.7a2 2 0 0 1-.8-.6l-.2-.9c0-.5.2-.9.5-1.2a2 2 0 0 1 1.4-.5c.5 0 1 .2 1.3.5.4.3.6.7.6 1.2l-.3.9a2 2 0 0 1-.7.6c.4.1.7.4 1 .7l.2 1c0 .6-.2 1.1-.6 1.5-.4.4-.9.5-1.5.5-.7 0-1.2-.1-1.6-.5-.4-.4-.6-.9-.6-1.4Zm.8 0c0 .4.1.7.4 1 .2.2.6.4 1 .4s.7-.2 1-.4c.2-.3.3-.6.3-1s-.1-.7-.3-1c-.3-.2-.6-.4-1-.4a1.3 1.3 0 0 0-1.4 1.4Zm.3-3.1c0 .3 0 .6.3.8.2.2.5.3.8.3.3 0 .5-.1.8-.3.2-.2.3-.5.3-.8a1 1 0 0 0-.3-.8 1 1 0 0 0-.8-.3 1 1 0 0 0-.8.3c-.2.2-.3.5-.3.8Zm9.2 5H334l-2.6-3-.1-.2h-.1v3.2h-.8V312h.8v3.2a1.8 1.8 0 0 1 .2-.3l2.5-2.9h1l-2.9 3.2 3 3.5Z"/><path fill="#E4E4E4" d="m341.4 312-3.1 7.6h-.7l3.2-7.7h.6Zm25.3 0-3.2 7.6h-.6l3.2-7.7h.6Zm5 6.6h-.8V313a4.2 4.2 0 0 1-1.4.7l-.2-.7a5.1 5.1 0 0 0 2-1.1h.4v6.8Zm3.6 0h-.7V313l-.7.4c-.3 0-.5.2-.8.3l-.2-.7a5.1 5.1 0 0 0 2-1.1h.4v6.8Zm2.2.1-.4-.1a.5.5 0 0 1-.2-.4l.2-.4.4-.1.4.1.1.4-.1.4-.4.1Zm5.7-3.8c0 1.2-.2 2.2-.6 2.9-.4.6-1 1-2 1l-.9-.2-.7-.6.5-.5.5.4.7.2c.6 0 1-.3 1.3-.7.3-.5.5-1.2.5-2.1l-.6.6c-.3.2-.6.2-1 .2-.5 0-1-.2-1.4-.5a2 2 0 0 1-.5-1.5c0-.7.2-1.3.6-1.7a2 2 0 0 1 1.5-.6c.7 0 1.2.3 1.6.8.4.5.5 1.3.5 2.3Zm-.8-.7c0-.5-.1-1-.4-1.3-.2-.3-.5-.4-1-.4-.3 0-.6.1-.8.4-.3.3-.4.6-.4 1 0 .5.1.9.4 1.2.2.2.5.4 1 .4a1.3 1.3 0 0 0 1.2-1.3Zm6.8 4.4h-1l-2.7-3v-.2h-.1v3.2h-.8V312h.7v3.2a1.4 1.4 0 0 1 .2-.3l2.6-2.9h1l-3 3.2 3.1 3.5Z"/><path fill="#D58500" d="M346.5 318.6h-.8V313l-.7.4-.7.3-.2-.7a5 5 0 0 0 2-1.1h.4v6.8Zm2.1.1-.4-.1a.5.5 0 0 1-.1-.4l.1-.4.4-.1.4.1.2.4-.2.4-.4.1Zm1.6 0v-.4l.1-.8.3-.6.6-.6a16.5 16.5 0 0 1 1.5-1.1l.3-.5.3-.5v-.5c0-.4 0-.7-.3-.9-.2-.2-.5-.3-.9-.3a2 2 0 0 0-1.5.7l-.5-.4c.3-.3.6-.6 1-.7.3-.2.7-.3 1-.3.7 0 1.2.2 1.5.6.3.3.5.7.5 1.3a2.5 2.5 0 0 1-.4 1.3l-.4.5-.7.6a30.6 30.6 0 0 0-1.2 1c-.2.1-.2.2-.3.4v.4h3.3v.7h-4.2Zm10.1 0h-1l-2.6-3.1-.2-.2v3.2h-.8V312h.8v3.2a1.2 1.2 0 0 1 .2-.3l2.5-2.9h1l-3 3.2 3.1 3.5Z"/><path stroke="silver" stroke-linecap="round" stroke-linejoin="round" d="m404.2 318 3.6-3.6-3.6-3.5"/><path fill="#8A5BFB" d="M138.3 346.7a3.3 3.3 0 1 0 0-6.5 3.3 3.3 0 0 0 0 6.5Z"/><path fill="#FF8918" d="M143.2 341.2c-.3-.6-.7-1.3-1.1-1.5.3.6.4 1.2.5 1.8-.6-1.6-1.6-2.3-2.5-3.7l-.1-.3a1.1 1.1 0 0 1-.2-.3 4.3 4.3 0 0 0-1.9 3.2h.2c.5 0 1 .1 1.4.4.4.2.8.6 1 1-.4-.2-.9-.3-1.3-.3 2 1 1.4 4.7-1.3 4.5a2.4 2.4 0 0 1-.9-.2h-.2.1c-.7-.4-1.2-1-1.3-2 0 0 .3-1 1.8-1 .2 0 .7-.4.7-.6 0 0-1-.4-1.3-.8a7.1 7.1 0 0 0-.6-.5v-1.4c-.5.2-1 .6-1.3 1-.2-.2-.2-1.2-.2-1.4l-.2.1a4.1 4.1 0 0 0-1 1.2 5 5 0 0 0-.8 1.7 11.5 11.5 0 0 0-.1 1.2 6 6 0 0 0 1.4 4c1 1 2.2 1.7 3.6 1.8 1.4.1 2.8-.3 3.9-1.2 1-.9 1.8-2.1 2-3.6v-.2c.2-1 0-2-.3-3Z"/><path fill="#E4E4E4" d="M162.4 347.3h-.8V343a12 12 0 0 1 0-1.3 7 7 0 0 1-.1.6l-2.3 5.1h-.4l-2.3-5a2.5 2.5 0 0 1-.2-.7 12.5 12.5 0 0 1 0 1.3v4.4h-.7v-6.7h1l2 4.7a9 9 0 0 1 .4.8 63.3 63.3 0 0 1 .3-.8l2.1-4.7h1v6.7Zm3.7.2c-.8 0-1.3-.3-1.7-.7-.5-.5-.7-1-.7-1.8s.2-1.4.7-1.9c.4-.4 1-.6 1.8-.7.7 0 1.2.3 1.6.7.4.5.6 1 .6 1.8s-.2 1.4-.6 1.9c-.4.4-1 .7-1.7.7Zm0-.7c.5 0 .9-.2 1.2-.5.2-.3.4-.8.4-1.3 0-.6-.2-1-.4-1.4-.3-.3-.7-.5-1.2-.5s-.9.2-1.2.5a2 2 0 0 0-.4 1.4c0 .6.2 1 .4 1.3.3.3.7.5 1.2.5Zm6.8-4-2.8 3.9h2.8v.6H169v-.2l2.8-3.9h-2.5v-.6h3.6v.2Zm1.4-1.4-.4-.1a.5.5 0 0 1-.1-.4l.1-.4.4-.2c.2 0 .3 0 .4.2l.2.4c0 .1 0 .3-.2.4l-.4.1Zm.4 6h-.8v-4.8h.8v4.7Zm1.5 0v-7.1h.8v7h-.8Zm2.3 0v-7.1h.8v7h-.8Zm5.7 0h-.8v-.8c-.1.3-.4.5-.6.6-.2.2-.5.3-.8.3-.5 0-.9-.2-1.1-.4-.3-.3-.4-.6-.4-1 0-.5.1-.8.4-1 .3-.3.7-.5 1.2-.6l1.3-.2v-.1c0-.4 0-.7-.2-.8a1 1 0 0 0-.8-.3 1.7 1.7 0 0 0-1.3.6l-.5-.4a2.4 2.4 0 0 1 1.9-.9c.5 0 1 .2 1.3.5.3.3.4.7.4 1.3v3.1Zm-.8-2v-.4l-1.2.1c-.3 0-.6.1-.7.3-.2.1-.3.3-.3.6 0 .2.1.5.3.6.1.2.3.2.6.2.4 0 .7-.1 1-.4.2-.2.3-.6.3-1Zm8.3-4h-2.6v2.3h2.4v.7h-2.4v3h-.8v-6.8h3.4v.8Zm1.5 0-.3-.1a.5.5 0 0 1-.2-.4c0-.2 0-.3.2-.4l.3-.2c.2 0 .3 0 .4.2.2.1.2.2.2.4 0 .1 0 .3-.2.4l-.4.1Zm.4 6h-.7v-4.8h.7v4.7Zm4-4.2a1 1 0 0 0-.4 0 1 1 0 0 0-1 .5c-.2.3-.3.7-.3 1.2v2.4h-.7v-4.7h.7v.9l.5-.8.8-.2h.5l-.2.7Zm4.8 2H199c0 .5.1.9.4 1.2.3.3.7.4 1.1.4a2 2 0 0 0 1.3-.5l.4.5-.8.5-1 .2c-.6 0-1.2-.3-1.6-.7-.4-.4-.6-1-.6-1.8s.2-1.4.6-1.8a2 2 0 0 1 1.6-.8c.6 0 1.1.3 1.5.7.3.4.5 1 .5 1.6v.4Zm-.8-.7c0-.4-.1-.8-.3-1-.2-.3-.5-.4-1-.4-.3 0-.6.1-.9.4-.2.2-.4.6-.4 1h2.6Zm4.2-3.6h-.5l-.5.1c-.2.2-.2.4-.2.6v1h1v.6h-1v4.1h-.8v-4h-.8v-.7h.8v-1c0-.4.1-.8.4-1 .3-.3.7-.4 1.2-.4a1.8 1.8 0 0 1 .6 0l-.2.7Zm2.7 6.6c-.7 0-1.3-.3-1.7-.7-.4-.5-.6-1-.6-1.8s.2-1.4.7-1.9c.4-.4 1-.6 1.7-.7.8 0 1.3.3 1.7.7.4.5.6 1 .6 1.8s-.2 1.4-.6 1.9c-.5.4-1 .7-1.8.7Zm0-.7c.6 0 1-.2 1.2-.5.3-.3.4-.8.4-1.3 0-.6-.1-1-.4-1.4-.2-.3-.6-.5-1.1-.5-.5 0-.9.2-1.2.5a2 2 0 0 0-.4 1.4c0 .6.1 1 .4 1.3.3.3.7.5 1.2.5Zm7.1-4.2L214 345l1.6 2.3h-.9l-1-1.5v-.2l-.1-.2-.1.2-.2.2-1 1.5h-.8l1.6-2.3-1.6-2.4h1l.9 1.6a5.6 5.6 0 0 1 .2.4l.1-.2.1-.2 1-1.6h.8Z"/><path fill="#F67247" d="M321.2 347.3h-.8v-5.7a4.3 4.3 0 0 1-1.4.7l-.2-.7a5 5 0 0 0 2-1.1h.4v6.8Zm2.2.1a.5.5 0 0 1-.6-.5c0-.1 0-.3.2-.4l.4-.1.3.1.2.4c0 .2 0 .3-.2.4l-.3.1Zm5.7-6.3-1.5 3a13 13 0 0 0-1 3.2h-.8c.2-1 .5-2.2 1-3.2l1.4-2.8h-3.4v-.7h4.3v.5Zm6 6.2H334l-2.6-3-.1-.2h-.1v3.2h-.8v-6.7h.8v3.2a1.8 1.8 0 0 1 .2-.2l2.5-3h1L332 344l3 3.4Z"/><path fill="#E4E4E4" d="m341.4 340.6-3.1 7.7h-.7l3.2-7.7h.6Zm25.3 0-3.2 7.7h-.6l3.2-7.7h.6Zm5 6.7h-.8v-5.7a4.3 4.3 0 0 1-1.4.7l-.2-.7a5 5 0 0 0 2-1.1h.4v6.8Zm3.6 0h-.7v-5.7l-.7.4-.8.3-.2-.7a5 5 0 0 0 2-1.1h.4v6.8Zm2.2.1-.4-.1a.5.5 0 0 1-.2-.4l.2-.4.4-.1.4.1.1.4-.1.4-.4.1Zm5.7-3.8c0 1.2-.2 2.2-.6 2.9-.4.6-1 1-2 1l-.9-.2c-.3-.1-.5-.3-.7-.6l.5-.5.5.5h.7c.6 0 1-.1 1.3-.6.3-.5.5-1.2.5-2l-.6.5c-.3.2-.6.3-1 .3-.5 0-1-.2-1.4-.6a2 2 0 0 1-.5-1.5c0-.7.2-1.2.6-1.6a2 2 0 0 1 1.5-.7c.7 0 1.2.3 1.6.8.4.6.5 1.3.5 2.3Zm-.8-.7c0-.5-.1-1-.4-1.2-.2-.4-.5-.5-1-.5-.3 0-.6.1-.8.4-.3.3-.4.6-.4 1 0 .5.1 1 .4 1.2.2.2.5.4 1 .4.3 0 .6-.1.8-.4.3-.2.4-.5.4-.9Zm6.8 4.4h-1l-2.7-3v-.2h-.1v3.2h-.8v-6.7h.7v3.2a1.4 1.4 0 0 1 .2-.2l2.6-3h1l-3 3.3 3.1 3.4Z"/><path fill="#D58500" d="M346.5 347.3h-.8v-5.7l-.7.4-.7.3-.2-.7a5 5 0 0 0 2-1.1h.4v6.8Zm2.1.1-.4-.1a.5.5 0 0 1-.1-.4l.1-.4.4-.1.4.1.2.4-.2.4-.4.1Zm1.6 0v-.4l.1-.7c0-.3.2-.5.3-.7l.6-.6a16.5 16.5 0 0 1 1.5-1.1l.3-.5.3-.5v-.5c0-.4 0-.7-.3-.9-.2-.2-.5-.3-.9-.3a2 2 0 0 0-1.5.8l-.5-.5c.3-.3.6-.6 1-.7.3-.2.7-.3 1-.3.7 0 1.2.2 1.5.6.3.3.5.8.5 1.3a2.5 2.5 0 0 1-.8 1.8l-.7.6a31 31 0 0 0-1.2 1c-.2.1-.2.3-.3.4v.5h3.3v.6h-4.2Zm10.1 0h-1l-2.6-3.1-.2-.2v3.2h-.8v-6.7h.8v3.2a1.2 1.2 0 0 1 .2-.2l2.5-3h1l-3 3.3 3.1 3.4Z"/><path stroke="silver" stroke-linecap="round" stroke-linejoin="round" d="m404.2 346.7 3.6-3.5-3.6-3.6"/><path fill="#E4E4E4" d="m136.6 369.4-2.5 6.7h-.8l-2.4-6.7h.8l1.9 5.3v.2l.1.3a3.3 3.3 0 0 1 .2-.5l1.9-5.3h.8Zm1.3.7-.4-.1a.5.5 0 0 1-.2-.4c0-.1 0-.3.2-.4l.4-.1.4.1.1.4-.1.4-.4.1Zm.3 6h-.7v-4.8h.8v4.8Zm5.4-2.3h-3.4c0 .6.2 1 .5 1.3.2.3.6.4 1 .4a2 2 0 0 0 1.4-.5l.4.5-.8.5-1 .2c-.7 0-1.2-.2-1.6-.7-.4-.4-.6-1-.6-1.8 0-.7.2-1.4.6-1.8a2 2 0 0 1 1.6-.7c.6 0 1 .2 1.4.6.4.4.5 1 .5 1.7v.3Zm-.7-.6c0-.4-.2-.8-.4-1-.2-.3-.5-.4-.9-.4-.3 0-.6.1-.9.4-.2.3-.4.6-.4 1h2.6Zm8-2-1.5 4.9h-.8l-1-3.5a2 2 0 0 1 0-.4l-.1.2v.2l-1.2 3.5h-.7l-1.5-4.8h.8l1 3.6v.4h.1a3.8 3.8 0 0 1 .1-.4l1.1-3.6h.7l1 3.6v.4h.1a2 2 0 0 1 0-.4l1-3.6h.8Zm6.7 4.9h-.7v-.8l-.7.7-.8.2c-.5 0-.8-.2-1.1-.4-.3-.3-.4-.6-.4-1 0-.5.1-.8.4-1 .3-.3.7-.5 1.2-.6l1.4-.1v-.2c0-.4-.1-.7-.3-.8a1 1 0 0 0-.8-.3 1.7 1.7 0 0 0-1.3.6l-.5-.4a2.4 2.4 0 0 1 1.9-.8c.6 0 1 .1 1.3.4.3.3.4.8.4 1.3v3.2Zm-.7-2v-.4l-1.2.1c-.4 0-.6.2-.8.3-.2.1-.3.3-.3.6s.1.5.3.6l.6.3c.4 0 .7-.2 1-.5.2-.2.4-.6.4-1Zm2.2 2V369h.7v7h-.7Zm2.3 0V369h.7v7h-.7Zm8.2 0h-.8v-.8c-.1.3-.3.5-.6.7l-.8.2c-.5 0-.8-.2-1.1-.4-.3-.3-.4-.6-.4-1 0-.5.1-.8.4-1 .3-.3.7-.5 1.2-.6l1.3-.1v-.2c0-.4 0-.7-.2-.8a1 1 0 0 0-.8-.3 1.7 1.7 0 0 0-1.3.6l-.5-.4a2.4 2.4 0 0 1 1.9-.8c.5 0 1 .1 1.3.4.3.3.4.8.4 1.3v3.2Zm-.8-2v-.4l-1.1.1c-.4 0-.6.2-.8.3-.2.1-.3.3-.3.6s.1.5.3.6c.1.2.3.3.6.3.4 0 .7-.2 1-.5.2-.2.3-.6.3-1Zm3 1.3v2.9h-.7v-7h.7v.8l.7-.7a2 2 0 0 1 1-.2c.6 0 1.1.2 1.5.6.3.4.5 1 .5 1.7a3 3 0 0 1-.6 2 2 2 0 0 1-1.6.7c-.3 0-.6 0-.8-.2-.3-.1-.5-.3-.7-.6Zm0-2v.7c0 .4.2.7.4 1 .3.3.6.4 1 .4.5 0 .8-.1 1.1-.5.3-.4.4-.8.4-1.5 0-.5-.1-1-.4-1.2-.2-.3-.6-.5-1-.5s-.8.2-1 .5c-.3.3-.5.7-.5 1.1Zm5.7 2v2.9h-.8v-7h.8v.8l.7-.7a2 2 0 0 1 1-.2c.6 0 1 .2 1.4.6.3.4.5 1 .5 1.7a3 3 0 0 1-.6 2 2 2 0 0 1-1.6.7c-.3 0-.6 0-.8-.2-.2-.1-.5-.3-.6-.6Zm0-2v.7c0 .4 0 .7.3 1 .3.3.6.4 1 .4.5 0 .9-.1 1.1-.5.3-.4.4-.8.4-1.5 0-.5-.1-1-.3-1.2-.3-.3-.6-.5-1-.5-.5 0-.9.2-1.1.5-.3.3-.4.7-.4 1.1Zm4.4 2.2.4-.5.6.3.7.1c.3 0 .5 0 .7-.2.2 0 .2-.3.2-.5s0-.4-.2-.5l-.7-.3-1.2-.6c-.2-.2-.4-.5-.4-.8 0-.5.2-.8.5-1 .3-.3.7-.4 1.2-.4h.8l.7.5-.4.5a2 2 0 0 0-.6-.3H183c-.2.2-.2.4-.2.6 0 .2 0 .4.2.5l.8.3c.5 0 .9.3 1.1.5.3.2.4.6.4 1s-.2.7-.5 1a2 2 0 0 1-1.3.4c-.3 0-.6 0-.9-.2l-.7-.4ZM520 115.8h-.9l-1-1.7a2 2 0 0 0-.5-.6.9.9 0 0 0-.4 0h-.7v2.3h-.7v-5.9h1.7c.5 0 1 .2 1.3.4.4.3.5.7.5 1.2 0 .4 0 .8-.3 1-.2.4-.5.6-.9.7a1.7 1.7 0 0 1 .6.6l1.2 2Zm-3.5-5.2v2.2h1l.8-.3c.2-.3.3-.6.3-1a1 1 0 0 0-.3-.7l-.9-.2h-1Zm7.3 3.3h-3c0 .4.2.8.4 1 .3.3.6.4 1 .4h.6l.6-.4.3.5-.7.4-.8.1a2 2 0 0 1-1.5-.6c-.4-.3-.5-.9-.5-1.5 0-.7.1-1.2.5-1.7.4-.4.8-.6 1.4-.6.5 0 1 .2 1.3.5.3.4.4.9.4 1.5v.4Zm-.7-.6c0-.4 0-.7-.2-.9a1 1 0 0 0-.8-.3c-.3 0-.6.1-.8.3-.2.2-.4.5-.4 1h2.2Zm3.7-3.1a1.2 1.2 0 0 0-.4-.1c-.2 0-.4 0-.5.2l-.1.5v.8h1v.6h-1v3.6h-.7v-3.6h-.7v-.6h.7v-.8c0-.4.1-.7.3-1 .3-.2.6-.3 1-.3h.3l.3.1-.2.6Zm2.7 2a.9.9 0 0 0-.3 0 1 1 0 0 0-.8.4 2 2 0 0 0-.3 1v2.2h-.6v-4.2h.6v.8c.1-.3.3-.5.5-.6.2-.2.4-.3.7-.3a1.3 1.3 0 0 1 .4.1l-.2.6Zm4.3 1.7h-3c0 .4.1.8.4 1 .2.3.5.4 1 .4h.5l.6-.4.3.5-.7.4-.8.1a2 2 0 0 1-1.5-.6c-.3-.3-.5-.9-.5-1.5 0-.7.2-1.2.5-1.7.4-.4.9-.6 1.4-.6.6 0 1 .2 1.3.5.3.4.5.9.5 1.5v.4Zm-.7-.6c0-.4-.1-.7-.3-.9a1 1 0 0 0-.8-.3c-.3 0-.6.1-.8.3-.2.2-.4.5-.4 1h2.3Zm1.3 2.1.3-.5.6.3.5.1.7-.1.2-.5c0-.2 0-.3-.2-.4-.1-.2-.3-.3-.6-.3-.5-.2-1-.3-1.1-.5a1 1 0 0 1-.3-.8c0-.3.1-.6.4-.8.3-.3.6-.4 1-.4l.7.1c.2 0 .4.2.6.4l-.3.4-.5-.2-.4-.1a1 1 0 0 0-.6.1c-.2.1-.3.3-.3.5s.1.3.3.4l.7.3c.4 0 .7.2 1 .4l.2.8c0 .4-.1.7-.4 1-.3.2-.6.3-1 .3a2.3 2.3 0 0 1-1.5-.5Zm7.4.4h-.6v-2.4c0-.5-.1-.8-.3-1-.2-.2-.4-.3-.7-.3a1 1 0 0 0-.8.4c-.3.2-.4.5-.4 1v2.3h-.7v-6.2h.7v2.7l.6-.6.8-.2c.5 0 .8.2 1 .4.3.3.4.8.4 1.3v2.6ZM503.8 129l-1.7 6h-.8l-1.2-4.3a3.5 3.5 0 0 1 0-.6 2.6 2.6 0 0 1-.2.6l-1.2 4.3h-.8l-1.7-6h.7l1.3 4.6a2.8 2.8 0 0 1 0 .5h.1a2.4 2.4 0 0 1 .1-.5l1.3-4.5h.7l1.2 4.5a3.2 3.2 0 0 1 .1.5v-.2l.1-.3 1.2-4.5h.8Zm4.3 6h-.7v-2.5c0-.4-.1-.7-.3-1-.1-.2-.4-.3-.7-.3a1 1 0 0 0-.8.4c-.2.3-.4.6-.4 1v2.3h-.6v-6.2h.6v2.7l.6-.5c.3-.2.5-.2.8-.2.5 0 .9.1 1 .4.3.3.5.7.5 1.3v2.5Zm4.6-4.2-2 5a2 2 0 0 1-.6.8c-.2.2-.5.3-.8.3a1.4 1.4 0 0 1-.5 0l.2-.6a.7.7 0 0 0 .3 0h.4l.3-.5.3-.9-1.6-4.1h.7l1.2 3.2v.3a2.6 2.6 0 0 1 .2-.3l1.2-3.2h.7Zm3.3-1c-.2 0-.3 0-.4-.2l-.1-.3.1-.3.4-.2c.1 0 .2 0 .3.2l.2.3-.2.3-.3.2Zm.3 5.1h-.7v-4.1h.7v4.1Zm3.4 0-.4.1h-.4a1 1 0 0 1-.8-.3l-.2-.8v-2.6h-.8v-.5h.8v-1l.6-.3v1.3h1.1v.5h-1v3l.4.2h.3l.2-.1.2.5Zm1.6-6-.5 2h-.5l.4-2h.6Zm.7 5.7.4-.5.5.3h1.2c.2-.2.2-.3.2-.6 0-.1 0-.3-.2-.4l-.6-.3c-.5-.1-.9-.3-1-.5a1 1 0 0 1-.3-.7c0-.4 0-.7.3-.9.3-.2.7-.3 1.1-.3h.7l.6.4-.3.5-.5-.3h-.5a1 1 0 0 0-.6 0l-.2.5c0 .2 0 .3.2.4l.7.3 1 .5c.2.2.3.5.3.8 0 .4-.2.7-.4 1l-1.1.2a2.3 2.3 0 0 1-1.5-.4Zm5.9 0 .3-.5.5.3H530l.2-.6c0-.1 0-.3-.2-.4l-.6-.3c-.6-.1-1-.3-1.1-.5a1 1 0 0 1-.3-.7c0-.4.1-.7.4-.9.2-.2.6-.3 1-.3h.7l.6.4-.3.5-.5-.3h-.5a1 1 0 0 0-.6 0l-.2.5c0 .2 0 .3.2.4l.7.3c.5.1.8.3 1 .5.2.2.3.5.3.8 0 .4-.1.7-.4 1l-1.1.2a2.3 2.3 0 0 1-1.4-.4Zm6.9.3h-.7v-.6c-.1.3-.3.4-.5.6l-.8.1c-.4 0-.7 0-1-.3-.2-.2-.3-.5-.3-.9s.1-.7.4-.9c.2-.2.6-.4 1-.4l1.2-.2v-.1c0-.4 0-.6-.2-.7a1 1 0 0 0-.7-.3c-.2 0-.4 0-.6.2-.2 0-.4.2-.6.4l-.4-.4.8-.6.9-.1c.5 0 .9 0 1.1.4.3.2.4.6.4 1.1v2.8Zm-.7-1.7v-.4l-1 .2-.7.2-.2.5c0 .3 0 .5.2.6l.5.2c.4 0 .7-.1.9-.4.2-.2.3-.5.3-.9Zm4-3.9a1.1 1.1 0 0 0-.4 0l-.5.1-.2.6v.8h1v.5h-1v3.6h-.7v-3.6h-.7v-.5h.7v-.9c0-.4.1-.7.4-.9.2-.2.6-.3 1-.3h.6l-.2.6Zm4 3.7h-3c0 .5.1.8.4 1.1.2.3.5.4 1 .4l.5-.1.6-.3.3.4-.7.4-.8.1a2 2 0 0 1-1.5-.5c-.3-.4-.5-1-.5-1.6 0-.7.2-1.2.5-1.6.4-.4.9-.6 1.4-.6.6 0 1 .1 1.3.5.3.4.5.8.5 1.5v.3Zm-.7-.5c0-.4-.1-.7-.3-1a1 1 0 0 0-.8-.3c-.3 0-.6.1-.8.4-.2.2-.3.5-.4.9h2.3ZM502 148.9h-2.2v2h2v.6h-2v2.6h-.7v-5.9h3v.7Zm1.4 0-.3-.1-.2-.4s0-.2.2-.3l.3-.1.4.1.1.3-.1.4-.4.1Zm.3 5.2h-.6v-4.2h.6v4.2Zm1.4 0v-6.2h.7v6.2h-.7Zm4 0h-.7a1 1 0 0 1-.8-.2c-.2-.2-.3-.5-.3-.9v-2.5h-.7v-.6h.7v-1l.7-.2v1.2h1v.6h-1v2.5l.1.5.4.1h.4l.2.4Zm4.3-2h-3c0 .5.1.9.4 1.1.2.3.5.4 1 .4h.5l.6-.4.3.5-.7.4h-.8a2 2 0 0 1-1.5-.5c-.3-.3-.5-.9-.5-1.5 0-.7.2-1.3.5-1.7.4-.4.9-.6 1.4-.6.6 0 1 .2 1.3.5.3.4.5.9.5 1.5v.3Zm-.7-.5c0-.4-.1-.7-.3-.9a1 1 0 0 0-.8-.3c-.3 0-.6 0-.8.3-.2.2-.4.5-.4.9h2.3Zm3.7-1.1a.9.9 0 0 0-.3 0 1 1 0 0 0-.8.4 2 2 0 0 0-.3 1v2.2h-.6v-4.2h.6v.8c.1-.3.3-.5.5-.6.2-.2.4-.3.7-.3a1.3 1.3 0 0 1 .4 0l-.2.7Zm1.2-1.6-.3-.1-.2-.4s0-.2.2-.3l.3-.1.4.1.1.3-.1.4-.4.1Zm.4 5.2h-.7v-4.2h.7v4.2Zm4.8 0h-.7v-2.4c0-.4 0-.8-.2-1-.2-.2-.4-.3-.8-.3a1 1 0 0 0-.8.4c-.2.2-.3.5-.3 1v2.3h-.7v-4.2h.7v.7c.2-.3.3-.5.6-.6l.8-.2c.4 0 .8.2 1 .5.3.2.4.7.4 1.2v2.6Zm4.8-.2c0 .7-.2 1.3-.5 1.6a2 2 0 0 1-1.6.6 3.3 3.3 0 0 1-1.6-.5l.3-.5a2.7 2.7 0 0 0 1.3.4c.5 0 .8-.1 1-.4.3-.2.4-.6.4-1.1v-.6c-.1.3-.3.5-.6.6l-.8.2c-.5 0-1-.2-1.3-.6-.3-.3-.5-.8-.5-1.5s.2-1.2.6-1.6c.3-.5.8-.7 1.4-.7.3 0 .5 0 .7.2.2 0 .4.3.5.5v-.6h.7v4Zm-.7-1.7v-.6c0-.3 0-.6-.3-.9-.2-.2-.5-.3-.8-.3-.5 0-.8.1-1 .4-.2.3-.4.7-.4 1.3 0 .5.1.9.4 1.1.2.3.5.4.9.4.3 0 .7-.1.9-.4.2-.2.3-.6.3-1Zm4.3 1.9v-6.2h.7v6.2h-.7Zm3.8 0a2 2 0 0 1-1.5-.5c-.4-.4-.5-.9-.5-1.5 0-.7.1-1.3.5-1.7a2 2 0 0 1 1.6-.6c.6 0 1.1.2 1.4.6.4.4.6 1 .6 1.6 0 .7-.2 1.2-.6 1.6a2 2 0 0 1-1.5.6Zm0-.5c.5 0 .8-.1 1-.4.3-.3.4-.7.4-1.2s-.1-1-.4-1.2c-.2-.3-.5-.4-1-.4-.4 0-.7.1-1 .4-.2.3-.4.7-.4 1.2s.2 1 .4 1.2c.3.3.6.4 1 .4Zm6.7.3c0 .7-.2 1.3-.5 1.6a2 2 0 0 1-1.6.6 3.3 3.3 0 0 1-1.6-.5l.3-.5a2.6 2.6 0 0 0 1.3.4c.5 0 .8-.1 1-.4.3-.2.5-.6.5-1.1v-.6c-.2.3-.4.5-.7.6l-.8.2c-.5 0-1-.2-1.3-.6-.3-.3-.4-.8-.4-1.5s.1-1.2.5-1.6c.3-.5.8-.7 1.4-.7.3 0 .5 0 .7.2.2 0 .4.3.5.5v-.6h.7v4Zm-.6-1.7v-.6c0-.3-.2-.6-.4-.9-.2-.2-.5-.3-.8-.3-.4 0-.8.1-1 .4-.2.3-.4.7-.4 1.3 0 .5.2.9.4 1.1.2.3.5.4.9.4s.7-.1.9-.4c.2-.2.4-.6.4-1ZM483.6 168H482v5.2h-.6V168h-1.7v-.6h4v.6Zm4.3 5.2h-.7v-.6l-.6.6-.7.1c-.5 0-.9-.1-1.1-.4-.3-.3-.4-.7-.4-1.3V169h.7v2.4c0 .4 0 .7.2 1 .2.2.4.3.8.3.3 0 .6-.2.8-.4.2-.2.3-.5.3-1v-2.3h.7v4.1Zm3.4-3.6a.9.9 0 0 0-.3 0 1 1 0 0 0-.8.4 2 2 0 0 0-.3 1.1v2.1h-.7v-4.1h.7v.8c0-.3.2-.5.4-.7l.7-.2a1.4 1.4 0 0 1 .4 0l-.1.6Zm4.3 3.6h-.7v-2.4c0-.4 0-.7-.2-1-.2-.2-.4-.3-.7-.3a1 1 0 0 0-.9.4c-.2.3-.3.6-.3 1v2.3h-.7v-4.1h.7v.6l.6-.5c.2-.2.5-.2.8-.2.5 0 .8.1 1 .4.3.3.4.7.4 1.3v2.5Zm5.3.1a2 2 0 0 1-1.5-.5c-.4-.4-.6-1-.6-1.6 0-.7.2-1.2.6-1.6a2 2 0 0 1 1.6-.6c.6 0 1 .1 1.4.5.4.4.6 1 .6 1.6 0 .7-.2 1.2-.6 1.6a2 2 0 0 1-1.5.6Zm0-.5c.4 0 .8-.2 1-.5.2-.2.4-.6.4-1.1 0-.6-.2-1-.4-1.3-.2-.2-.6-.4-1-.4s-.8.2-1 .5c-.3.3-.4.7-.4 1.2s.1.9.4 1.1c.2.3.6.5 1 .5Zm5.1-5.2a1.2 1.2 0 0 0-.4 0l-.5.1-.2.5v.9h1v.5h-1v3.6h-.6v-3.6h-.7v-.5h.7v-.9c0-.4 0-.7.3-1 .3-.1.6-.3 1-.3h.3l.3.2-.2.5Zm2.6 0a1.2 1.2 0 0 0-.4 0l-.5.1-.1.5v.9h1v.5h-1v3.6h-.7v-3.6h-.7v-.5h.7v-.9c0-.4.1-.7.4-1 .2-.1.5-.3 1-.3h.3l.2.2-.2.5Zm2.5 5.3.4-.5.5.3h1.2c.2-.2.2-.4.2-.6 0-.1 0-.3-.2-.4l-.6-.3c-.5-.1-.9-.3-1-.5a1 1 0 0 1-.3-.7c0-.4 0-.7.4-.9.2-.2.6-.3 1-.3h.7l.6.4-.3.5-.5-.3h-.5a1 1 0 0 0-.6 0l-.2.5c0 .2 0 .3.2.4l.7.3 1 .5c.2.2.3.4.3.8s-.1.7-.4.9a2.3 2.3 0 0 1-2.5-.1Zm6 .3a1.6 1.6 0 0 1-.7.1 1 1 0 0 1-.8-.3c-.2-.2-.3-.4-.3-.8v-2.6h-.7v-.5h.7v-1l.7-.3v1.3h1v.5h-1v2.5l.1.5.4.2h.2l.2-.1.2.5Zm3.8 0h-.6v-.6l-.6.6-.7.1c-.4 0-.7 0-1-.3-.2-.2-.3-.5-.3-.9s0-.7.3-.9c.3-.2.6-.4 1-.4l1.3-.2v-.1c0-.4-.1-.6-.3-.8a1 1 0 0 0-.6-.2c-.3 0-.5 0-.7.2-.2 0-.3.2-.5.3l-.4-.3a2.2 2.2 0 0 1 1.6-.7c.5 0 .9 0 1.1.3.3.3.4.7.4 1.2v2.7Zm-.6-1.7v-.4l-1 .2-.8.2-.2.5c0 .3 0 .5.2.6l.6.2c.3 0 .6-.1.8-.4.3-.2.4-.5.4-.9Zm4 1.7a1.6 1.6 0 0 1-.8.1 1 1 0 0 1-.8-.3c-.2-.2-.3-.4-.3-.8v-2.6h-.7v-.5h.7v-1l.7-.3v1.3h1v.5h-1v2.5l.1.5.4.2h.2l.2-.1.2.5Zm1.1-5.1c-.1 0-.2 0-.3-.2l-.2-.3c0-.1 0-.3.2-.4h.7l.1.4-.1.3-.4.2Zm.3 5.1h-.6v-4.1h.6v4.1Zm1-.3.4-.5.5.3h1.2l.2-.6c0-.1 0-.3-.2-.4l-.6-.3c-.5-.1-.9-.3-1-.5a1 1 0 0 1-.4-.7c0-.4.2-.7.4-.9.3-.2.6-.3 1.1-.3h.7l.6.4-.4.5c-.1-.2-.3-.3-.4-.3h-.5a1 1 0 0 0-.6 0c-.2.2-.2.3-.2.5s0 .3.2.4l.7.3 1 .5c.2.2.3.4.3.8s-.2.7-.5.9c-.2.2-.6.3-1 .3a2.3 2.3 0 0 1-1.5-.4Zm6 .3a1.6 1.6 0 0 1-.7.1 1 1 0 0 1-.8-.3c-.2-.2-.3-.4-.3-.8v-2.6h-.7v-.5h.7v-1l.7-.3v1.3h1v.5h-1v3l.5.2h.2l.2-.1.2.5Zm1.2-5.1c-.2 0-.3 0-.4-.2l-.1-.3.1-.4h.7l.2.4c0 .1 0 .2-.2.3l-.3.2Zm.3 5.1h-.7v-4.1h.7v4.1Zm4.4-.3a2 2 0 0 1-1.3.4 2 2 0 0 1-1.5-.5 2 2 0 0 1-.5-1.6c0-.7.2-1.2.5-1.6a2 2 0 0 1 1.6-.6 2.2 2.2 0 0 1 1.3.3l-.3.5-.5-.2h-.5c-.5 0-.8 0-1 .4-.3.3-.4.7-.4 1.2s0 .9.3 1.2c.3.2.6.4 1 .4a1.5 1.5 0 0 0 1-.3l.3.4Zm.5 0 .4-.5.5.3h1.2l.2-.6c0-.1 0-.3-.2-.4l-.6-.3c-.5-.1-.9-.3-1-.5a1 1 0 0 1-.4-.7c0-.4.2-.7.4-.9.3-.2.6-.3 1.1-.3h.7l.6.4-.4.5c-.1-.2-.3-.3-.4-.3h-.5a1 1 0 0 0-.6 0c-.2.2-.2.3-.2.5s0 .3.2.4l.7.3 1 .5c.2.2.3.4.3.8s-.2.7-.5.9c-.2.2-.6.3-1 .3a2.3 2.3 0 0 1-1.5-.4Z"/><path fill="#F67247" d="M494.7 192c-.3.1-.5.3-.8.3l-1 .2c-.9 0-1.5-.3-2-.8a3 3 0 0 1-.8-2.1c0-1 .3-1.8.8-2.3.6-.6 1.3-.9 2.2-.9a3 3 0 0 1 1.6.5l-.3.5a2.5 2.5 0 0 0-1.3-.4 2 2 0 0 0-1.7.7c-.4.5-.6 1-.6 1.8 0 .7.2 1.3.6 1.7.4.5 1 .7 1.6.7a2.7 2.7 0 0 0 1.4-.5l.3.6Zm1 .4v-6.2h.7v6.2h-.7Zm5.4-2h-3c0 .5.2.9.4 1.1.2.3.6.4 1 .4h.6l.5-.4.4.5-.7.4h-.9a2 2 0 0 1-1.4-.5c-.4-.4-.6-.9-.6-1.6 0-.6.2-1.2.6-1.6.3-.4.8-.6 1.4-.6.5 0 1 .2 1.2.5.3.4.5.9.5 1.5v.3Zm-.7-.5c0-.4 0-.7-.3-1a1 1 0 0 0-.8-.2c-.3 0-.5 0-.8.3-.2.2-.3.5-.4.9h2.3Zm4.7 2.5h-.7v-.7c-.2.3-.3.5-.6.6l-.7.2c-.4 0-.7-.1-1-.4-.2-.2-.3-.5-.3-.9 0-.3.1-.6.4-.8.2-.3.5-.4 1-.5l1.2-.2c0-.4 0-.7-.3-.8a1 1 0 0 0-.6-.2l-.6.1c-.2 0-.4.2-.6.4l-.4-.4.7-.5 1-.2c.4 0 .8.1 1 .4.3.3.5.6.5 1.2v2.7Zm-.7-1.7v-.4l-1 .1c-.3 0-.6.1-.7.3-.2 0-.2.2-.2.5 0 .2 0 .4.2.5.1.2.3.2.5.2.4 0 .7 0 .9-.3.2-.3.3-.6.3-1Zm4-2a.8.8 0 0 0-.3 0 1 1 0 0 0-.8.5 2 2 0 0 0-.3 1v2.2h-.7v-4.2h.7v.8c.1-.3.3-.5.5-.6l.6-.3a1.3 1.3 0 0 1 .4 0v.7Zm2.7 3.3.4-.5c.2.2.3.3.5.3l.6.1.6-.1c.2-.1.2-.3.2-.5s0-.3-.2-.5l-.6-.2c-.5-.2-.9-.3-1-.5a1 1 0 0 1-.3-.8c0-.3 0-.6.4-.9.2-.2.6-.3 1-.3l.7.1.6.3-.3.5-.5-.3h-.5a1 1 0 0 0-.6.1l-.2.4c0 .2 0 .4.2.5l.7.2 1 .5c.2.2.3.5.3.8 0 .4-.1.7-.4 1-.3.2-.7.3-1.1.3a2.3 2.3 0 0 1-1.5-.5Zm6 .3-.3.1h-.4a1 1 0 0 1-.8-.2c-.2-.2-.3-.5-.3-.9v-2.5h-.7v-.6h.7v-1l.7-.2v1.2h1v.6h-1v2.5l.1.5.4.1h.4l.2.4Zm3.8 0h-.6v-.6l-.6.6-.7.2c-.4 0-.7-.1-1-.4-.2-.2-.3-.5-.3-.9 0-.3 0-.6.3-.8.3-.3.6-.4 1-.5l1.3-.2c0-.4-.1-.7-.3-.8a1 1 0 0 0-.6-.2l-.7.1c-.2 0-.3.2-.5.4l-.4-.4.7-.5.9-.2c.5 0 .9.1 1.1.4.3.3.4.6.4 1.2v2.7Zm-.6-1.6v-.4l-1 .1c-.4 0-.6.1-.8.3-.1 0-.2.2-.2.5 0 .2 0 .4.2.5.2.2.4.2.6.2.3 0 .6 0 .8-.3.3-.3.4-.6.4-1Zm4 1.6-.4.1h-.4a1 1 0 0 1-.8-.2c-.2-.2-.3-.5-.3-.9v-2.5h-.7v-.6h.7v-1l.7-.2v1.2h1v.6h-1v2.5l.1.5.4.1h.4l.2.4Zm1.1-5-.3-.2-.2-.4c0-.1 0-.2.2-.3l.3-.1h.4l.1.4-.1.4-.4.1Zm.3 5h-.6v-4.1h.6v4.2Zm1-.3.4-.5c.1.2.3.3.5.3l.6.1.6-.1.2-.5c0-.2 0-.3-.2-.5l-.6-.2c-.5-.2-.9-.3-1-.5a1 1 0 0 1-.4-.8c0-.3.2-.6.4-.9.3-.2.6-.3 1.1-.3l.7.1.6.3-.4.5-.4-.3h-.5a1 1 0 0 0-.6.1c-.2.1-.2.3-.2.4 0 .2 0 .4.2.5l.7.2 1 .5c.2.2.3.5.3.8 0 .4-.2.7-.5 1-.2.2-.6.3-1 .3a2.3 2.3 0 0 1-1.5-.5Zm6 .3-.4.1h-.3a1 1 0 0 1-.8-.2c-.2-.2-.3-.5-.3-.9v-2.5h-.7v-.6h.7v-1l.7-.2v1.2h1v.6h-1v3l.5.1h.4l.2.4Zm1.2-5-.4-.2-.1-.4.1-.3.4-.1h.3l.2.4c0 .2 0 .3-.2.4l-.3.1Zm.3 5h-.7v-4.1h.7v4.2Zm4.4-.2a2 2 0 0 1-1.3.4 2 2 0 0 1-1.5-.6 2 2 0 0 1-.5-1.5c0-.7.2-1.3.5-1.7a2 2 0 0 1 1.6-.6 2.2 2.2 0 0 1 1.3.4l-.3.5a1.7 1.7 0 0 0-1-.3c-.5 0-.8.1-1 .4-.3.3-.4.7-.4 1.2s0 1 .3 1.2c.3.3.6.4 1 .4a1.5 1.5 0 0 0 1-.3l.3.5Zm.5-.1.4-.5c.1.2.3.3.5.3l.6.1.6-.1.2-.5c0-.2 0-.3-.2-.5l-.6-.2c-.5-.2-.9-.3-1-.5a1 1 0 0 1-.4-.8c0-.3.2-.6.4-.9.3-.2.6-.3 1.1-.3l.7.1.6.3-.4.5-.4-.3h-.5a1 1 0 0 0-.6.1c-.2.1-.2.3-.2.4 0 .2 0 .4.2.5l.7.2 1 .5c.2.2.3.5.3.8 0 .4-.2.7-.5 1-.2.2-.6.3-1 .3a2.3 2.3 0 0 1-1.5-.5Z"/><path fill="url(#A)" fill-opacity=".3" d="M74 83a13 13 0 0 1 13-13h466a13 13 0 0 1 13 13v300H74V83Z" style="mix-blend-mode:screen"/></g></g></g><defs><linearGradient id="d" x1="271.8" x2="280" y1="387.3" y2="395.3" gradientUnits="userSpaceOnUse"><stop stop-color="#4CD2FF"/><stop offset="1" stop-color="#0078D4"/></linearGradient><linearGradient id="f" x1="286.8" x2="295.1" y1="387.2" y2="395.6" gradientUnits="userSpaceOnUse"><stop stop-color="#41403F"/><stop offset="1" stop-color="#1F1F1F"/></linearGradient><linearGradient id="g" x1="304.9" x2="304.9" y1="389.6" y2="395.2" gradientUnits="userSpaceOnUse"><stop stop-color="#444341"/><stop offset="1" stop-color="#2D2D2C"/></linearGradient><linearGradient id="h" x1="304.9" x2="304.9" y1="395.2" y2="389.6" gradientUnits="userSpaceOnUse"><stop/><stop offset="1" stop-opacity="0"/></linearGradient><linearGradient id="i" x1="307" x2="307" y1="387.5" y2="393.1" gradientUnits="userSpaceOnUse"><stop stop-color="#F7F7F7"/><stop offset="1" stop-color="#E6E6E6"/></linearGradient><linearGradient id="j" x1="304.9" x2="304.9" y1="389.6" y2="395.2" gradientUnits="userSpaceOnUse"><stop stop-color="#444341"/><stop offset="1" stop-color="#2D2D2D"/></linearGradient><linearGradient id="m" x1="336.3" x2="336.3" y1="388.6" y2="396.1" gradientUnits="userSpaceOnUse"><stop stop-color="#FFCF4D"/><stop offset="1" stop-color="#F4B509"/></linearGradient><linearGradient id="n" x1="336.3" x2="336.3" y1="388.6" y2="396.1" gradientUnits="userSpaceOnUse"><stop stop-color="#FFD04E"/><stop offset="1" stop-color="#F4B509"/></linearGradient><linearGradient id="p" x1="348.9" x2="354.3" y1="393.8" y2="393.8" gradientUnits="userSpaceOnUse"><stop stop-color="#0C59A4"/><stop offset="1" stop-color="#114A8B"/></linearGradient><linearGradient id="r" x1="351.8" x2="348.4" y1="391.5" y2="395.2" gradientUnits="userSpaceOnUse"><stop stop-color="#1B9DE2"/><stop offset=".2" stop-color="#1595DF"/><stop offset=".7" stop-color="#0680D7"/><stop offset="1" stop-color="#0078D4"/></linearGradient><linearGradient id="v" x1="366.2" x2="366.2" y1="384.4" y2="398.4" gradientUnits="userSpaceOnUse"><stop offset=".9" stop-opacity=".1"/><stop offset="1" stop-opacity=".2"/></linearGradient><linearGradient id="w" x1="82.5" x2="87.9" y1="389.1" y2="393.9" gradientUnits="userSpaceOnUse"><stop offset=".2" stop-color="#FFE975"/><stop offset=".5" stop-color="#FFB729"/><stop offset=".7" stop-color="#F90"/></linearGradient><linearGradient id="z" x1="137.9" x2="137.9" y1="283.6" y2="287.8" gradientUnits="userSpaceOnUse"><stop stop-color="#86BBE5"/><stop offset="1" stop-color="#1072BA"/></linearGradient><linearGradient id="A" x1="78.5" x2="68.7" y1="71.8" y2="384.4" gradientUnits="userSpaceOnUse"><stop stop-color="#fff"/><stop offset=".6" stop-color="#fff" stop-opacity="0"/></linearGradient><radialGradient id="e" cx="0" cy="0" r="1" gradientTransform="matrix(0 2.50105 -2.4502 0 290.3 390.8)" gradientUnits="userSpaceOnUse"><stop stop-color="#fff"/><stop offset="1" stop-color="#fff" stop-opacity=".8"/></radialGradient><radialGradient id="k" cx="0" cy="0" r="1" gradientTransform="matrix(-4.45254 5.0734 -4.9663 -4.54861 322.9 389)" gradientUnits="userSpaceOnUse"><stop stop-color="#8194E8"/><stop offset="1" stop-color="#5654B7"/></radialGradient><radialGradient id="l" cx="0" cy="0" r="1" gradientTransform="matrix(4.9663 5.77321 -5.6513 5.07343 319 388.2)" gradientUnits="userSpaceOnUse"><stop offset=".2" stop-color="#886BB4"/><stop offset="1" stop-color="#5D5FC6"/></radialGradient><radialGradient id="q" cx="0" cy="0" r="1" gradientTransform="matrix(2.8975 0 0 2.75267 351.9 393.9)" gradientUnits="userSpaceOnUse"><stop offset=".7" stop-opacity="0"/><stop offset=".9" stop-opacity=".5"/><stop offset="1"/></radialGradient><radialGradient id="s" cx="0" cy="0" r="1" gradientTransform="matrix(.65272 -4.30794 -3.48116 -.52217 349.3 394.5)" gradientUnits="userSpaceOnUse"><stop offset=".8" stop-opacity="0"/><stop offset=".9" stop-opacity=".5"/><stop offset="1"/></radialGradient><radialGradient id="t" cx="0" cy="0" r="1" gradientTransform="matrix(-.24598 6.14957 13.0986 .49196 347.9 389.9)" gradientUnits="userSpaceOnUse"><stop stop-color="#35C1F1"/><stop offset=".1" stop-color="#34C1ED"/><stop offset=".2" stop-color="#2FC2DF"/><stop offset=".3" stop-color="#2BC3D2"/><stop offset=".7" stop-color="#36C752"/></radialGradient><radialGradient id="u" cx="0" cy="0" r="1" gradientTransform="matrix(.82798 2.83878 2.30651 -.68012 354.4 390.8)" gradientUnits="userSpaceOnUse"><stop stop-color="#66EB6E"/><stop offset="1" stop-color="#66EB6E" stop-opacity="0"/></radialGradient><clipPath id="a"><path fill="#fff" d="M0 0h640v480H0z"/></clipPath><clipPath id="c"><path fill="#fff" d="M74 383h492v17H74z"/></clipPath><clipPath id="x"><path fill="#fff" d="M74 83a13 13 0 0 1 13-13h466a13 13 0 0 1 13 13v300H74V83Z"/></clipPath><clipPath id="y"><path fill="#fff" d="M74 70h492v313H74z"/></clipPath><filter id="b" width="645.1" height="6.4" x="-2.5" y="415.5" color-interpolation-filters="sRGB" filterUnits="userSpaceOnUse"><feFlood flood-opacity="0" result="BackgroundImageFix"/><feBlend in="SourceGraphic" in2="BackgroundImageFix" result="shape"/><feGaussianBlur result="effect1_foregroundBlur_9636_82239" stdDeviation="1.5"/></filter></defs></svg>