<svg xmlns="http://www.w3.org/2000/svg" width="640" height="480" fill="none"><g clip-path="url(#a)"><path fill="#6C769C" d="M65 83a22 22 0 0 1 22-22h467a22 22 0 0 1 22 22v324H65V83Z"/><path fill="#1D2025" d="M67 84a21 21 0 0 1 21-21h465a21 21 0 0 1 21 21v323H67V84Z"/><g clip-path="url(#b)"><path fill="#989898" fill-opacity=".9" d="M568 383H74v17h494v-17Z" style="mix-blend-mode:luminosity"/><path fill="#000" fill-opacity=".9" d="M504 392.2c-.1 0-.1-.2 0-.2l1.8-2h.3l1.9 2v.2h-.3l-1.7-1.8-1.8 1.8h-.3Z"/><mask id="c" width="8" height="8" x="513" y="387" maskUnits="userSpaceOnUse" style="mask-type:luminance"><path fill="#fff" d="M520.3 387.9h-6.8v7h6.8v-7Z"/></mask><g mask="url(#c)"><path fill="#000" fill-opacity=".9" d="M517 389.6a2.8 2.8 0 0 0-1.2.3 3 3 0 0 0-1.1.8l-.2.3H514.1v-.2a2.9 2.9 0 0 1 1.2-1.1 3.3 3.3 0 0 1 2.3-.3 3.3 3.3 0 0 1 2 1.4l-.1.2h-.2l-.1-.1v-.1l-.2-.1-.1-.2a3 3 0 0 0-2-.9Zm0 1a1.7 1.7 0 0 0-.9.3 2 2 0 0 0-.7.6 1.4 1.4 0 0 1-.2.2h-.2v-.2c0-.2.2-.4.3-.5a2.2 2.2 0 0 1 1-.6 2 2 0 0 1 1.2 0 2.3 2.3 0 0 1 1 .6c.1.1.3.3.3.5v.2H518.5v-.2l-.2-.2a1.8 1.8 0 0 0-.6-.4 1.8 1.8 0 0 0-.8-.2Zm0 1.1a1 1 0 0 0-.4 0 1.2 1.2 0 0 0-.4.3l-.1.2-.1.1v.1h-.2l-.1-.1v-.1c0-.1 0-.2.2-.3l.3-.3a1.4 1.4 0 0 1 1-.2 1.4 1.4 0 0 1 1 .8.2.2 0 0 1 0 .2H517.8l-.1-.2-.1-.1-.1-.1-.1-.1a1 1 0 0 0-.6-.2Zm-.5 1 .1-.2a.4.4 0 0 1 .3-.2h.2l.1.2.1.1v.4l-.2.2h-.4v-.1l-.2-.1v-.2Z"/></g><mask id="d" width="8" height="8" x="521" y="387" maskUnits="userSpaceOnUse" style="mask-type:luminance"><path fill="#fff" d="M528.6 387.9h-6.9v7h6.9v-7Z"/></mask><g mask="url(#d)"><path fill="#000" fill-opacity=".9" d="M526.5 393.6v-.1l.1-.1.1-.1a2.3 2.3 0 0 0 .6-.9 2.7 2.7 0 0 0 0-2l-.2-.5a2.3 2.3 0 0 0-.5-.6l-.1-.1v-.1h.2c.2 0 .2 0 .3.2a3 3 0 0 1 .6.8 3 3 0 0 1 .2 2 2.9 2.9 0 0 1-.6 1.1l-.2.3a1.5 1.5 0 0 1-.3.2h-.1l-.1-.1Zm-3-1.2h-.6a.5.5 0 0 1-.4-.1.5.5 0 0 1-.1-.4v-1a.5.5 0 0 1 .1-.4.5.5 0 0 1 .4-.2h.6l.9-.8H524.7V393.3a.3.3 0 0 1-.3 0l-.9-.9Zm2.3.5a5.5 5.5 0 0 0 .5-.7 1.8 1.8 0 0 0 .2-.8v-.4a1.7 1.7 0 0 0-.4-.7l-.2-.3V389.7h.2a1.3 1.3 0 0 1 .3.3l.2.3v.2a2.3 2.3 0 0 1 0 1.8v.2a4 4 0 0 1-.3.4l-.2.2h-.2v-.2Zm-1.4 0v-3l-.7.7H523l-.1.1v1.3H523.6l.1.1.7.8Zm.8-.6v-.1a5.5 5.5 0 0 0 .2-.4 1.2 1.2 0 0 0 0-.4v-.2a1.2 1.2 0 0 0 0-.4 4 4 0 0 0-.2-.2v-.2h.2l.2.2.1.3a1.5 1.5 0 0 1 .1.5v.2a1.6 1.6 0 0 1-.3.8.2.2 0 0 1-.3 0v-.1Z"/></g><mask id="e" width="8" height="8" x="529" y="387" maskUnits="userSpaceOnUse" style="mask-type:luminance"><path fill="#fff" d="M536.8 387.9h-6.9v7h6.9v-7Z"/></mask><g mask="url(#e)"><path fill="#000" fill-opacity=".9" d="M536 391.6v.2l-.3.1h-.3v.7l-.2.3-.3.2H531a1 1 0 0 1-.2-.2l-.2-.3v-2.1a.8.8 0 0 1 .2-.6.8.8 0 0 1 .6-.3h3l.4.1.3.2.1.3.1.3v.4H536V391.7Zm-1-1v-.5h-.3l-.1-.1h-3.1a.5.5 0 0 0-.4.1l-.1.2v2.2l.1.1.2.1h3.2a.5.5 0 0 0 .4 0l.1-.2v-2Zm-.9-.3.2.1v2H531.4l-.1-.2v-1.8h2.8Z"/></g><path fill="#000" fill-opacity=".9" d="M546.9 390.3h-.4v-2.5l-.2.2a2 2 0 0 1-.4.1v-.3a2.3 2.3 0 0 0 .8-.5h.2v3Zm1.6 0h-.3v-2.5l-.3.2-.3.1-.1-.3a2.3 2.3 0 0 0 .9-.5h.1v3Zm1-1.7h-.2v-.4h.4v.4h-.2Zm0 1.8h-.2v-.4l.2-.1h.2v.4h-.2Zm1.6 0a.8.8 0 0 1-.7-.4 2 2 0 0 1-.2-1c0-.6 0-1 .2-1.3.2-.2.4-.4.7-.4.4 0 .6.2.7.4.2.3.3.6.3 1.2 0 .4-.1.8-.3 1-.2.4-.4.5-.7.5Zm0-2.8c-.2 0-.3.2-.4.4l-.2.9c0 .4 0 .7.2.9 0 .2.2.3.4.3s.4-.1.5-.3l.1-1-.1-.8c-.1-.2-.3-.4-.5-.4Zm2.3 2.8a.8.8 0 0 1-.7-.4 2 2 0 0 1-.3-1c0-.6.1-1 .3-1.3.2-.2.4-.4.7-.4.3 0 .6.2.7.4.2.3.2.6.2 1.2 0 .4 0 .8-.2 1-.2.4-.4.5-.7.5Zm0-2.8c-.2 0-.3.2-.4.4l-.2.9c0 .4 0 .7.2.9 0 .2.2.3.4.3s.3-.1.4-.3l.2-1c0-.3 0-.6-.2-.8 0-.2-.2-.4-.4-.4Zm2.3 2.7 1.1-3h.4l1.1 3h-.4l-.3-.7h-1.2l-.3.7h-.4Zm.8-1h1l-.4-1.3v-.1l-.1-.1v.2l-.5 1.2Zm5.2 1h-.3v-2.5.2l-.1.1-1 2.2h-.2l-1-2.2V387.8a4.4 4.4 0 0 1 0 .6v2h-.3v-3h.5l.8 2v.2l.1.2.1-.2v-.2l1-2h.4v3ZM543 396h-.3v-2.5l-.3.2a2 2 0 0 1-.3.1l-.1-.3a2.4 2.4 0 0 0 .9-.5h.1v3Zm1.7 0a.8.8 0 0 1-.7-.3 2 2 0 0 1-.3-1c0-.6.1-1 .3-1.3.2-.2.4-.4.7-.4.3 0 .6.2.7.4.2.3.2.6.2 1.1 0 .5 0 1-.2 1.2-.2.3-.4.4-.7.4Zm0-2.7c-.2 0-.3.2-.4.4l-.2.9c0 .4 0 .7.2.9 0 .2.2.3.4.3s.3-.1.4-.3l.2-1c0-.3 0-.6-.2-.8 0-.3-.2-.4-.4-.4Zm2.8-.2-1.4 3.4h-.3l1.4-3.4h.3Zm1 3a.8.8 0 0 1-.6-.4 2 2 0 0 1-.2-1c0-.6 0-1 .2-1.3.2-.2.4-.4.7-.4.4 0 .6.2.7.4.2.3.3.6.3 1.1 0 .5-.1 1-.3 1.2-.2.3-.4.4-.7.4Zm.1-2.8c-.2 0-.3.2-.4.4l-.2.9c0 .4 0 .7.2.9 0 .2.2.3.4.3s.4-.1.4-.3l.2-1-.1-.8c-.1-.3-.3-.4-.5-.4Zm1.4 2.5.2-.3.3.2h.3l.5-.1.1-.4c0-.2 0-.4-.2-.5l-.5-.1a5.5 5.5 0 0 0-.5 0l.1-1.5h1.4v.3h-1l-.1.9a2.8 2.8 0 0 1 .2 0c.3 0 .6 0 .7.2.2.1.3.4.3.6 0 .3 0 .5-.3.7a1 1 0 0 1-.7.3h-.4l-.4-.3Zm3.7-2.7-1.4 3.4h-.3l1.4-3.4h.3Zm.3 3V395.3l.1-.2.3-.3a6.4 6.4 0 0 1 .6-.5l.2-.2v-.8l-.4-.2-.4.1a1 1 0 0 0-.3.3l-.2-.3.4-.3h.5c.3 0 .5 0 .6.2.2.1.2.3.2.5a1.1 1.1 0 0 1-.3.9l-.3.2a8.2 8.2 0 0 0-.5.4l-.1.2v.2h1.3v.3H554Zm3 0a.8.8 0 0 1-.6-.4 2 2 0 0 1-.3-1c0-.6.1-1 .3-1.3.2-.2.4-.4.7-.4.3 0 .6.2.7.4.2.3.2.6.2 1.1 0 .5 0 1-.2 1.2-.2.3-.4.4-.7.4Zm.1-2.8c-.2 0-.3.2-.4.4l-.2.9c0 .4 0 .7.2.9 0 .2.2.3.4.3s.3-.1.4-.3l.2-1c0-.3 0-.6-.2-.8 0-.3-.2-.4-.4-.4Zm1.4 2.7v-.5l.2-.2.2-.3a7.1 7.1 0 0 1 .6-.5l.2-.2v-.2l.1-.2-.1-.4-.4-.2a.9.9 0 0 0-.7.4l-.2-.3c.2 0 .3-.2.4-.3h.5c.3 0 .5 0 .7.2l.2.5v.4l-.2.2-.2.3-.3.2a11.9 11.9 0 0 0-.5.4l-.1.2v.2h1.4v.3h-1.8Zm3.1 0h-.3v-2.5l-.3.2-.3.1-.1-.3a2.6 2.6 0 0 0 .9-.5h.1v3Z"/><path fill="url(#f)" fill-rule="evenodd" d="M272.1 387.3c-.2 0-.3.1-.3.3v3.6h3.8v-4h-3.5Zm7.4 0H276v4h3.8v-3.7c0-.2-.1-.3-.3-.3Zm-3.5 4.3h3.8v3.5c0 .2-.1.4-.3.4H276v-4Zm-.4 0h-3.8v3.5c0 .2.1.4.3.4h3.5v-4Z" clip-rule="evenodd"/><path fill="url(#g)" fill-opacity=".3" d="M290.3 393.3a2.5 2.5 0 0 1-2.5-2.5 2.5 2.5 0 1 1 4.9 0c0 1.3-1.1 2.5-2.4 2.5Z"/><path fill="url(#h)" fill-rule="evenodd" d="M286.8 390.8c0 2 1.5 3.5 3.5 3.5.7 0 1.4-.2 2-.7l1.8 1.8c.2.2.5.2.7 0 .2-.2.2-.5 0-.7l-1.7-1.8a3.6 3.6 0 0 0-2.8-5.7c-2 0-3.5 1.6-3.5 3.6Zm1 0c0 1.3 1.1 2.5 2.5 2.5 1.3 0 2.4-1.2 2.4-2.5 0-1.4-1.1-2.5-2.4-2.5a2.5 2.5 0 0 0-2.5 2.5Z" clip-rule="evenodd"/><path fill="url(#i)" d="M307.6 389.6h-5.4c-.2 0-.4.2-.4.4v4.9c0 .2.2.3.4.3h5.4c.2 0 .4-.1.4-.3v-5c0-.1-.2-.3-.4-.3Z"/><path stroke="url(#j)" stroke-opacity=".4" stroke-width=".5" d="M307.6 389.7h-5.4c-.2 0-.3.1-.3.3v4.9c0 .1.1.2.3.2h5.4c.2 0 .3 0 .3-.2v-5s-.1-.2-.3-.2Z"/><path fill="url(#k)" d="M309.7 387.5h-5.5c-.2 0-.3.2-.3.4v4.9c0 .2.1.3.3.3h5.5c.2 0 .3-.1.3-.3v-5c0-.1-.1-.3-.3-.3Z"/><path stroke="#000" stroke-opacity=".1" stroke-width=".5" d="M309.7 387.6h-5.5c-.1 0-.2.1-.2.3v4.9c0 .1 0 .2.2.2h5.5c.1 0 .3 0 .3-.2v-5l-.3-.2Z"/><mask id="l" width="8" height="7" x="303" y="387" maskUnits="userSpaceOnUse" style="mask-type:alpha"><path fill="#000" d="M309.7 387.5h-5.5c-.2 0-.3.2-.3.4v4.9c0 .2.1.3.3.3h5.5c.2 0 .3-.1.3-.3v-5c0-.1-.1-.3-.3-.3Z"/></mask><g mask="url(#l)"><path fill="url(#m)" fill-opacity=".4" d="M307.6 389.6h-5.4c-.2 0-.4.2-.4.4v4.9c0 .2.2.3.4.3h5.4c.2 0 .4-.1.4-.3v-5c0-.1-.2-.3-.4-.3Z"/></g><mask id="n" width="10" height="9" x="316" y="387" maskUnits="userSpaceOnUse" style="mask-type:luminance"><path fill="#fff" d="M325.1 387.2H317v8.4h8.2v-8.4Z"/></mask><g mask="url(#n)"><path fill="url(#o)" d="M321 387.4a4 4 0 0 1 4 4 4 4 0 0 1-4 4c-.7 0-1.3-.2-1.9-.5l-1.6.5c-.2 0-.4 0-.4-.2v-.2l.4-1.7a4 4 0 0 1-.4-2 4 4 0 0 1 3.9-4Z"/><path fill="url(#p)" d="M321 387.4a4 4 0 0 1 4 4 4 4 0 0 1-4 4c-.7 0-1.3-.2-1.9-.5l-1.6.5c-.2 0-.4 0-.4-.2v-.2l.4-1.7a4 4 0 0 1-.4-2 4 4 0 0 1 3.9-4Z" style="mix-blend-mode:lighten"/><g filter="url(#q)"><path fill="#FAFAFA" fill-rule="evenodd" d="M319 389.6c-.2 0-.4.2-.4.4v2.8c0 .2.2.3.3.3h2.8c.2 0 .3-.1.3-.3V390c0-.2-.1-.4-.3-.4h-2.8Zm4.2.5-.8.6v1.4l.8.5c0 .1.2 0 .2 0v-2.4s-.1-.1-.2 0Z" clip-rule="evenodd"/></g></g><mask id="t" fill="#fff"><rect width="9.3" height="7.5" x="331.7" y="388.6" rx=".5"/></mask><rect width="9.3" height="7.5" x="331.7" y="388.6" fill="url(#r)" stroke="url(#s)" stroke-width="2" mask="url(#t)" rx=".5"/><path fill="#E09F00" d="M331.7 387.8v-.1h3.2l.9 1.4-.1.1h-4v-1.4Z"/><path fill="#036ABB" d="m333.2 393.7.1-.1h6.1v2.4h-6.2v-2.3Z"/><path fill="url(#u)" d="M354.1 394.2a3 3 0 0 1-1.4.4c-1.4 0-2.7-1-2.7-2.3a1 1 0 0 1 .5-.8c-1.3 0-1.6 1.4-1.6 2.2 0 2.2 2 2.5 2.5 2.5l.8-.2c1-.3 1.6-.8 2-1.6h.1v-.1h-.2Z"/><path fill="url(#v)" d="M354.1 394.2a3 3 0 0 1-1.4.4c-1.4 0-2.7-1-2.7-2.3a1 1 0 0 1 .5-.8c-1.3 0-1.6 1.4-1.6 2.2 0 2.2 2 2.5 2.5 2.5l.8-.2c1-.3 1.6-.8 2-1.6h.1v-.1h-.2Z" opacity=".3"/><path fill="url(#w)" d="m350.3 395.8-.7-.7a2.4 2.4 0 0 1 1-3.6l.4-.1a1 1 0 0 1 1 1s.7-2.5-2.5-2.5a2.6 2.6 0 0 0-2.4 2.4c0 .6.1 1.2.4 1.7a3.9 3.9 0 0 0 4.7 2 2.3 2.3 0 0 1-1.9-.2Z"/><path fill="url(#x)" d="m350.3 395.8-.7-.7a2.4 2.4 0 0 1 1-3.6l.4-.1a1 1 0 0 1 1 1s.7-2.5-2.5-2.5a2.6 2.6 0 0 0-2.4 2.4c0 .6.1 1.2.4 1.7a3.9 3.9 0 0 0 4.7 2 2.3 2.3 0 0 1-1.9-.2Z" opacity=".4"/><path fill="url(#y)" d="M351.7 393v.4c.5.3 1.3.2 1.3.2.4 0 .7 0 1-.2a1.9 1.9 0 0 0 .9-1.6c0-.7-.3-1.2-.4-1.4-.6-1.2-2-2-3.5-2a3.9 3.9 0 0 0-3.9 3.9c0-1.1 1.1-2 2.4-2 .1 0 .8 0 1.3.3.5.2.8.6 1 .9l.2.9-.3.6Z"/><path fill="url(#z)" d="M351.7 393v.4c.5.3 1.3.2 1.3.2.4 0 .7 0 1-.2a1.9 1.9 0 0 0 .9-1.6c0-.7-.3-1.2-.4-1.4-.6-1.2-2-2-3.5-2a3.9 3.9 0 0 0-3.9 3.9c0-1.1 1.1-2 2.4-2 .1 0 .8 0 1.3.3.5.2.8.6 1 .9l.2.9-.3.6Z"/><path fill="#fff" fill-opacity=".5" d="M371.7 384.4h-11c-.7 0-1.3.6-1.3 1.4V397c0 .8.6 1.4 1.3 1.4h11c.7 0 1.4-.6 1.4-1.4v-11.2c0-.8-.7-1.4-1.4-1.4Z"/><path stroke="url(#A)" stroke-opacity=".5" d="M371.7 384.2h-11c-.8 0-1.5.7-1.5 1.6V397c0 .8.7 1.6 1.5 1.6h11c.8 0 1.5-.8 1.5-1.6v-11.2c0-.9-.7-1.6-1.5-1.6Z"/><path fill="#005FB8" d="M368.6 397.3h-4.7c-.3 0-.6.2-.6.5s.3.6.6.6h4.7c.3 0 .5-.3.5-.6s-.2-.5-.5-.5Z"/><path fill="#fff" d="M369.6 387.2h-6.8c-.4 0-.7.3-.7.7v7c0 .4.3.7.7.7h6.8c.4 0 .7-.3.7-.7v-7c0-.4-.3-.7-.7-.7Z"/><path fill="#67B279" fill-rule="evenodd" d="M366.3 388.7c-1 0-2 .3-3 .8a5.4 5.4 0 0 0 3 5.2 5.4 5.4 0 0 0 3-5.2c-.9-.5-1.9-.8-3-.8Z" clip-rule="evenodd"/><path fill="#fff" fill-rule="evenodd" d="m366.3 392.6 1.7-2.3h-.3l-1.4 1.5-.6-.6c-.2-.3-.6-.1-.7 0l1.3 1.4Z" clip-rule="evenodd"/><mask id="B" width="8" height="8" x="81" y="387" maskUnits="userSpaceOnUse" style="mask-type:luminance"><path fill="#fff" d="M88.1 387.9h-6.9v7h6.9v-7Z"/></mask><g filter="url(#C)" mask="url(#B)"><path fill="url(#D)" d="M84.7 394.5c1.7 0 3-1.4 3-3.1 0-1.8-1.3-3.2-3-3.2s-3.1 1.4-3.1 3.2c0 1.7 1.4 3.1 3 3.1Z"/></g><path fill="#000" fill-opacity=".9" d="M92.5 390.3v-.5l.2-.2.2-.3a6.8 6.8 0 0 1 .6-.5l.2-.2v-.2l.1-.2-.1-.4-.4-.2-.4.1a1 1 0 0 0-.3.3l-.2-.3.4-.3h.5c.3 0 .5 0 .7.2l.2.5a1.1 1.1 0 0 1-.4.9l-.3.2a12 12 0 0 0-.5.4l-.1.2v.2h1.4v.3h-1.8Zm3.8-3v2h.3v.4h-.3v.7H96v-.7h-1.4v-.4a10.5 10.5 0 0 0 1.3-2h.4Zm-1.3 2h1V388a12.2 12.2 0 0 1-1 1.4Zm2.5-.8c-.1 0-.3 0-.4-.2a.6.6 0 0 1-.1-.4l.1-.4.4-.1.4.1c.2.1.2.3.2.4 0 .2 0 .3-.2.4l-.4.2Zm0-.9h-.2v.6h.5v-.5l-.3-.1Zm3.3 2.6a1.8 1.8 0 0 1-.9.2c-.4 0-.7-.2-1-.4-.2-.3-.4-.6-.4-1 0-.6.2-1 .5-1.2.2-.3.6-.5 1-.5a1.8 1.8 0 0 1 .8.2l-.2.3a1.4 1.4 0 0 0-.6-.1 1 1 0 0 0-.8.3c-.2.2-.3.5-.3.9 0 .3.1.6.3.8.2.2.4.3.8.3a1.4 1.4 0 0 0 .6-.1l.2.3Z"/><path fill="#000" fill-opacity=".6" d="m92.4 395.7.1-.3.4.2h.8l.2-.4-.1-.4-.5-.2-.6-.3a.7.7 0 0 1-.2-.5c0-.3 0-.5.2-.6.2-.2.4-.3.7-.3a1.6 1.6 0 0 1 .8.2l-.2.3a1.4 1.4 0 0 0-.6-.1H93l-.1.4v.3l.5.2.7.4.2.5c0 .3-.1.5-.3.6a1 1 0 0 1-.7.3h-.5l-.4-.3Zm4.1.2h-.3v-.3l-.3.3h-.4l-.6-.1-.1-.7v-1.3h.3v1.2l.1.5.4.2c.2 0 .3 0 .4-.2l.2-.5v-1.2h.3v2.1Zm2.5 0h-.4v-1.7l-.4-.2-.5.2-.1.5v1.2h-.4v-2.1h.4v.3l.3-.3h.4c.2 0 .4 0 .5.2l.2.6v1.3Zm2.4 0h-.4v-1.7l-.4-.2-.4.2c-.2.1-.2.3-.2.5v1.2h-.4v-2.1h.4v.3l.3-.3h.4c.2 0 .4 0 .5.2l.2.6v1.3Zm2.4-2.1-1 2.5-.3.5-.4.1a.8.8 0 0 1-.3 0v-.3h.5l.1-.3.2-.4-.8-2.1h.4l.5 1.6v.2l.1-.2.6-1.6h.4Z"/></g><g filter="url(#E)"><rect width="639.1" height=".4" x=".5" y="418.5" fill="#000" fill-opacity=".6" rx=".2"/></g><path fill="#343744" d="M0 406.7h640v11.4H0z"/><rect width="640" height="1" y="418" fill="#6C769C" rx=".5"/><rect width="640" height="1" y="406" fill="#6C769C" rx=".5"/><g clip-path="url(#F)"><path fill="#1F1F1F" d="M568 70H74v313h494V70Z"/><path fill="#67B279" fill-rule="evenodd" d="M90.4 84.7c-2.3 0-5 .5-7.2 1.6 0 2.5 0 8.6 7.2 12.8 7.2-4.2 7.2-10.3 7.2-12.8-2.3-1-5-1.6-7.2-1.6Z" clip-rule="evenodd"/><path fill="#5B5B5B" d="M107 70v314h.7V70h-.7Z"/><path fill="#5B9F6B" fill-rule="evenodd" d="M90.4 84.7c-2.3 0-5 .5-7.2 1.6 0 2.5 0 8.6 7.2 12.8V84.7Z" clip-rule="evenodd"/><path fill="#fff" fill-rule="evenodd" d="m90.3 94 4.2-5.6c-.3-.2-.6 0-.7 0L90.3 92 89 90.5c-.6-.7-1.5-.2-1.7 0l3 3.4Z" clip-rule="evenodd"/><path stroke="#67B279" stroke-linecap="round" stroke-linejoin="round" d="M86.6 129.4h-1.3a.4.4 0 0 1-.3-.8l4.8-3.6h.6l4.7 3.6c.4.3.2.8-.2.8h-1.4v5c0 .2-.2.4-.4.4h-6a.4.4 0 0 1-.5-.4v-5Z" clip-rule="evenodd"/><path fill="#3D3D3D" d="M107 147H73v33h34v-33Z"/><path stroke="#67B279" stroke-linecap="round" stroke-linejoin="round" d="M88.3 163 90 165l2.4-3"/><path stroke="#67B279" stroke-linecap="round" stroke-linejoin="round" d="M90 158.3c-1.6 0-3.6.4-5.3 1.2 0 1.9 0 6.4 5.4 9.6 5.4-3.2 5.4-7.7 5.4-9.6-1.7-.8-3.7-1.2-5.4-1.2ZM91.5 191.8a4 4 0 0 1 4 4.2h-4.2v-4.2h.2Z" clip-rule="evenodd"/><path stroke="#67B279" stroke-linecap="round" stroke-linejoin="round" d="M89.3 193h.2v4.2c0 .3.3.5.5.6h4.3a4.8 4.8 0 1 1-5-4.8Z" clip-rule="evenodd"/><path stroke="#67B279" stroke-linecap="round" stroke-linejoin="round" d="M94.9 231.9h-3c-.3 0-.6.2-.6.6v3c0 .3.3.6.6.6h3c.3 0 .6-.3.6-.6v-3c0-.4-.3-.6-.6-.6ZM86.3 232.2c.2-.4.8-.4 1 0l1.7 3c.2.4 0 .9-.5.9H85a.6.6 0 0 1-.5-1l1.7-2.9ZM88.3 225.3h-3c-.3 0-.6.3-.6.6v3c0 .3.3.6.6.6h3c.3 0 .6-.3.6-.6v-3c0-.3-.3-.6-.6-.6Z"/><path stroke="#67B279" d="M93.4 225.3a2 2 0 1 1 0 4.2 2 2 0 0 1 0-4.2Z" clip-rule="evenodd"/><path stroke="#67B279" stroke-linejoin="round" d="M87.7 268.3h.2l.8.4.3.3.4 1.2h1.4l.4-1.2.3-.3c.3 0 .5-.2.8-.3h.5l1 .5 1-1-.5-1v-.5l.3-.8c0-.2.2-.3.3-.3l1.2-.4v-1.4l-1.2-.4a.5.5 0 0 1-.3-.3c0-.3-.2-.6-.3-.8v-.5l.5-1-1-1-1 .5h-.5c-.3-.1-.5-.3-.8-.3a.5.5 0 0 1-.3-.4 12 12 0 0 0-.4-1.1h-1.4l-.4 1.1c0 .2-.2.3-.3.4-.3 0-.6.2-.8.3h-.5l-1-.5-1 1 .5 1v.5c-.1.2-.3.5-.3.8 0 .1-.2.3-.4.3l-1.1.4v1.4l1.1.4c.2 0 .3.1.4.3 0 .3.2.5.3.8v.5l-.5 1 1 1 1-.5h.3Z" clip-rule="evenodd"/><path stroke="#67B279" stroke-linejoin="round" d="M90 262.6a1.6 1.6 0 1 0 0 3.2 1.6 1.6 0 0 0 0-3.2Z" clip-rule="evenodd"/><path stroke="#67B279" stroke-linecap="round" d="M86.5 294.7c2.2-3.1 8-2.1 8.4 3v.9M93.7 300.7c-2.2 3-8.1 2-8.4-3v-.6"/><path stroke="#67B279" stroke-linecap="round" stroke-linejoin="round" d="m96 297.7-1.1 1.2-1.2-1.2M84.1 297.7l1.2-1.2 1.2 1.2"/><path fill="#E4E4E4" d="M494.8 80.1a.3.3 0 0 1-.3-.3l.1-.2a.3.3 0 0 1 .2 0h5.6l.1.1v.1a.3.3 0 0 1 0 .3.3.3 0 0 1-.3 0h-5.4ZM523 83.1h-.4a1 1 0 0 1-.3-.2l-.2-.3V78a.8.8 0 0 1 .2-.6 1 1 0 0 1 .6-.3h4.3l.3.1.3.2a.9.9 0 0 1 .2.6V82.6a1 1 0 0 1-.5.5h-4.6Zm4.1-.6h.2a.3.3 0 0 0 .1-.3V78a.3.3 0 0 0-.1-.2H523a.3.3 0 0 0-.3.2v4.2a.3.3 0 0 0 0 .2.3.3 0 0 0 .3.1h4.1ZM552.6 80.6 550 83l-.2.1h-.2l-.1-.3v-.2l2.5-2.5-2.4-2.4-.1-.3a.3.3 0 0 1 0-.2h.5l2.5 2.5 2.5-2.5h.4a.3.3 0 0 1 0 .2v.3L553 80l2.5 2.5V83a.3.3 0 0 1-.1.2H555l-2.5-2.5ZM135.2 118.6v4.4h-3v-13.4h4.7c1.7 0 3 .3 3.8 1 .9.8 1.3 1.9 1.3 3.3 0 1.5-.5 2.6-1.5 3.5-1 .8-2.2 1.2-3.9 1.2h-1.4Zm0-6.7v4.4h1.3c.8 0 1.3-.2 1.7-.6.4-.4.6-1 .6-1.7s-.2-1.2-.6-1.6c-.3-.3-1-.5-1.7-.5h-1.3Zm14.5 4a4 4 0 0 0-1.2-.1c-.6 0-1 .2-1.4.7a3 3 0 0 0-.6 2v4.5h-3v-9.6h3v1.7c.3-.6.6-1 1-1.4.4-.3 1-.5 1.5-.5a3.9 3.9 0 0 1 1.3.2l-.6 2.6Zm6.2 7.3c-1.6 0-2.8-.4-3.8-1.3-.9-1-1.4-2.1-1.4-3.7 0-1.5.5-2.7 1.5-3.6 1-1 2.2-1.4 3.8-1.4a5 5 0 0 1 3.8 1.4c.9.9 1.4 2 1.4 3.5a5 5 0 0 1-1.5 3.7c-1 1-2.2 1.4-3.8 1.4Zm0-2.3c.8 0 1.4-.2 1.7-.7.4-.6.5-1.2.5-2 0-1-.1-1.6-.5-2-.4-.5-.9-.7-1.6-.7a2 2 0 0 0-1.7.7c-.4.5-.6 1.2-.6 2s.2 1.5.6 2c.4.5 1 .7 1.7.7Zm13.4 1.5-1.1.6-1.4.2c-1 0-1.9-.2-2.4-.7-.5-.5-.8-1.3-.8-2.3v-4.6h-1.5v-2.2h1.5V111l3-.6v3h2.2v2.2h-2.2v4.6l.1.6.6.3.4-.1c.2 0 .3-.1.5-.3l1 1.7Zm10-3.4H173c0 .7.2 1.2.6 1.5.4.4 1 .6 1.5.6.4 0 .8-.1 1.1-.3l1-.8 2 1.3c-.6.6-1.2 1.1-1.9 1.5-.7.3-1.4.4-2.3.4a5 5 0 0 1-3.6-1.3c-1-.8-1.4-2-1.4-3.6 0-1.5.5-2.8 1.4-3.7 1-1 2-1.4 3.4-1.4s2.5.4 3.2 1.2c.8.8 1.2 2 1.2 3.7v1Zm-2.8-1.8c0-.7-.2-1.2-.5-1.5-.2-.3-.6-.5-1-.5-.6 0-1 .2-1.4.6-.4.3-.6.8-.7 1.4h3.6Zm13 3.8a4.5 4.5 0 0 1-4.1 2.2c-1.6 0-2.8-.4-3.7-1.3-.8-.9-1.3-2-1.3-3.5 0-1.6.5-2.9 1.5-3.8 1-1 2.2-1.4 3.7-1.4.9 0 1.7.2 2.3.6.7.4 1.2 1 1.5 1.7l-2.2 1-.7-.8-1-.2c-.6 0-1 .2-1.5.7-.4.4-.6 1-.6 2s.2 1.6.6 2c.4.4.9.7 1.5.7.3 0 .7-.1 1-.3.3-.2.6-.4.8-.8l2.2 1.2Zm8 1.4-1 .6-1.4.2c-1.1 0-2-.2-2.4-.7-.6-.5-.8-1.3-.8-2.3v-4.6h-1.6v-2.2h1.6V111l3-.6v3h2.2v2.2h-2.3v4.6c0 .3 0 .5.2.6.1.2.3.3.6.3l.4-.1.4-.3 1.1 1.7Zm3-10.3c-.6 0-1-.1-1.3-.4-.3-.3-.5-.7-.5-1.2s.2-.9.5-1.2c.3-.3.7-.4 1.3-.4.5 0 .9.1 1.2.4.3.3.5.7.5 1.2s-.2.9-.5 1.2c-.3.3-.7.4-1.2.4Zm1.4 10.9h-3v-9.6h3v9.6Zm7 .2c-1.6 0-2.8-.4-3.8-1.3-1-1-1.4-2.1-1.4-3.7 0-1.5.5-2.7 1.5-3.6.9-1 2.2-1.4 3.8-1.4a5 5 0 0 1 3.8 1.4c.9.9 1.3 2 1.3 3.5a5 5 0 0 1-1.4 3.7c-1 1-2.3 1.4-3.8 1.4Zm0-2.3c.8 0 1.3-.2 1.7-.7.4-.6.5-1.2.5-2 0-1-.2-1.6-.5-2-.4-.5-1-.7-1.6-.7a2 2 0 0 0-1.7.7c-.4.5-.6 1.2-.6 2s.2 1.5.6 2c.4.5 1 .7 1.7.7Zm16.3 2h-3v-5.4c0-.6-.1-1.1-.4-1.5-.2-.3-.6-.5-1.2-.5-.5 0-1 .2-1.2.5-.4.4-.5 1-.5 1.5v5.5h-3v-9.6h3v1.3c.3-.5.7-.9 1.3-1.1.5-.3 1.1-.4 1.7-.4 1 0 1.9.3 2.4 1 .6.7.9 1.6.9 2.8v6Z"/><path stroke="#67B279" stroke-linecap="round" d="M132.6 156.5c0-.3.2-.6.6-.6h9.5c.4 0 .6.3.6.6v4.8c0 .3-.2.6-.6.6h-9.5a.6.6 0 0 1-.6-.6v-4.8Z" clip-rule="evenodd"/><path stroke="#67B279" stroke-linecap="round" d="m133.2 164.3 9.5-10.8"/><path fill="#E4E4E4" d="m154.8 163 2.5-6.6h1.2l2.5 6.7h-1.2l-.6-1.6h-2.7l-.5 1.6h-1.2Zm2-2.5h2.1l-.9-2.6a6.4 6.4 0 0 1 0-.5h-.1v.3l-.1.2-1 2.6Zm8.3 1.8-.7.7a2 2 0 0 1-.9.2c-.6 0-1-.2-1.4-.7-.4-.4-.6-1-.6-1.7 0-.8.2-1.4.6-2a2 2 0 0 1 1.6-.6c.3 0 .6 0 .8.2.3 0 .4.2.6.5v-3h1v7.2h-1v-.8Zm-2.5-1.6c0 .5.1 1 .4 1.2.2.3.5.4.9.4.3 0 .6-.1.9-.4.2-.3.3-.6.3-1v-.6c0-.4 0-.7-.3-.9-.2-.2-.5-.4-.9-.4s-.7.2-1 .5a2 2 0 0 0-.3 1.2Zm8.6 1.8v.6h-1V156h1v3l.7-.6a2 2 0 0 1 1-.2c.6 0 1 .2 1.4.6.3.4.5 1 .5 1.7a3 3 0 0 1-.6 2 2 2 0 0 1-1.5.7c-.4 0-.6 0-.9-.2l-.6-.5Zm0-2v.6l.3.9c.3.2.6.3 1 .3.3 0 .6-.1.9-.5.2-.3.3-.7.3-1.3 0-.4-.1-.8-.3-1a1 1 0 0 0-.9-.5c-.4 0-.7.2-1 .4-.2.3-.3.7-.3 1Zm4.7 2.6V156h1.1v7h-1Zm4.6 0c-.7 0-1.3-.1-1.8-.6-.4-.4-.6-1-.6-1.8s.2-1.4.7-1.8c.4-.5 1-.7 1.8-.7s1.4.2 1.8.6c.4.5.6 1 .6 1.8s-.2 1.4-.7 1.9c-.4.4-1 .7-1.8.7Zm0-.8c.5 0 .8-.1 1-.4.3-.3.4-.7.4-1.2 0-.6-.1-1-.3-1.2-.3-.3-.6-.5-1-.5-.5 0-.8.2-1 .5-.3.3-.4.7-.4 1.2s.1 1 .4 1.2c.2.3.5.4 1 .4Zm7.3.3a2.4 2.4 0 0 1-1.6.6c-.7 0-1.3-.2-1.7-.7-.5-.4-.7-1-.7-1.7 0-.8.2-1.5.7-2 .4-.4 1-.6 1.8-.6l.8.1c.3 0 .5.2.7.4l-.5.7a1.6 1.6 0 0 0-1-.4c-.4 0-.8.2-1 .5-.3.3-.4.7-.4 1.2s.1 1 .4 1.2c.3.3.6.4 1 .4a1.6 1.6 0 0 0 1-.3l.5.6Zm5.3.5h-1.4l-1.9-2.4v2.4h-1V156h1v4.5l1.8-2.2h1.3l-2 2.3 2.2 2.5Zm1.2-5.7-.5-.2a.6.6 0 0 1-.2-.5c0-.2 0-.3.2-.5l.5-.2.5.2.2.5c0 .2 0 .4-.2.5l-.5.2Zm.5 5.7h-1v-4.8h1v4.8Zm5.7 0h-1v-2.8c0-.4-.2-.7-.3-1-.2-.1-.4-.3-.7-.3a1 1 0 0 0-.9.4c-.2.3-.3.6-.3 1v2.7h-1v-4.8h1v.7a1.8 1.8 0 0 1 1.6-.8c.5 0 1 .1 1.2.5.3.3.4.8.4 1.4v3Zm5.7-.4c0 .8-.2 1.5-.7 2-.4.4-1 .6-2 .6a3.6 3.6 0 0 1-1.8-.5l.4-.7a3 3 0 0 0 1.5.4c.5 0 .8-.2 1.1-.4.3-.3.4-.7.4-1.2v-.6a1.7 1.7 0 0 1-1.6.9c-.6 0-1-.2-1.5-.7-.3-.4-.5-1-.5-1.7 0-.8.2-1.4.6-1.9a2 2 0 0 1 1.6-.7l.8.1.6.6v-.6h1v4.4Zm-1-1.9v-.5c0-.4-.2-.7-.4-.9-.2-.2-.5-.4-.9-.4s-.7.2-1 .5a2 2 0 0 0-.3 1.3c0 .5.1.8.3 1.1.3.3.6.4 1 .4.3 0 .6-.1.9-.4.2-.3.3-.6.3-1Z"/><path fill="#D2D2D2" d="M155.5 175.6v-5.8h1.6c.6 0 1 0 1.3.3.2.3.4.6.4 1s-.1.6-.3.9l-.7.5c.4 0 .7.2 1 .5.2.2.3.6.3 1 0 .5-.2.9-.6 1.2a2 2 0 0 1-1.3.4h-1.7Zm.7-5.2v1.9h.7c.3 0 .6-.1.8-.3.3-.2.4-.4.4-.8l-.3-.6-.8-.2h-.8Zm0 2.5v2.1h.9c.4 0 .7 0 1-.3.1-.2.3-.4.3-.8 0-.3-.2-.6-.4-.7-.2-.2-.6-.3-1-.3h-.8Zm4 2.7v-6.2h.6v6.2h-.6Zm3.7.1a2 2 0 0 1-1.4-.6c-.4-.3-.6-.9-.6-1.5 0-.7.2-1.3.6-1.7a2 2 0 0 1 1.5-.6c.7 0 1.2.2 1.5.6.4.4.5 1 .5 1.6 0 .7-.2 1.2-.5 1.6a2 2 0 0 1-1.6.6Zm0-.5c.5 0 .9-.2 1-.5.3-.2.4-.6.4-1.2 0-.5 0-.9-.3-1.2-.2-.2-.6-.4-1-.4s-.8.2-1 .5c-.3.3-.4.7-.4 1.2s.1.9.4 1.1c.2.3.6.5 1 .5Zm6.2.1a2 2 0 0 1-1.3.4 2 2 0 0 1-1.4-.5 2 2 0 0 1-.6-1.6c0-.7.2-1.2.6-1.6a2 2 0 0 1 1.5-.7 2.2 2.2 0 0 1 1.3.4l-.3.5a1.7 1.7 0 0 0-1-.3c-.4 0-.8.2-1 .5-.3.3-.4.7-.4 1.2s.1.9.4 1.1c.2.3.6.5 1 .5a1.5 1.5 0 0 0 .9-.3l.3.4Zm4.4.3h-1l-1.8-2v2h-.7v-6.2h.7v4l1.8-2h.9l-2 2 2.1 2.2Zm.3-.3.4-.5.5.3h.6l.6-.1c.2-.1.2-.3.2-.5 0-.1 0-.3-.2-.4l-.6-.3c-.5-.1-.9-.3-1-.5a1 1 0 0 1-.4-.7c0-.4.2-.7.4-1 .3-.1.7-.3 1.1-.3l.7.1.6.4-.4.5c-.1-.2-.3-.3-.4-.3h-.5a1 1 0 0 0-.6 0c-.2.2-.2.3-.2.5s0 .3.2.4l.7.3 1 .5c.2.2.3.4.3.8s-.2.7-.4.9c-.3.2-.7.3-1.2.3a2.3 2.3 0 0 1-1.4-.4Zm9.6.3h-.7v-.6l-.5.5c-.2.2-.5.2-.8.2-.5 0-.8-.1-1-.4-.3-.3-.5-.8-.5-1.3v-2.6h.7v2.5c0 .4 0 .7.3 1 .1.2.4.3.7.3.3 0 .6-.2.8-.4.2-.2.3-.6.3-1v-2.4h.7v4.2Zm4.8 0h-.6v-2.4c0-.4-.1-.7-.3-1-.1-.2-.4-.3-.7-.3a1 1 0 0 0-.8.4c-.3.2-.4.6-.4 1v2.3h-.6v-4.2h.6v.7l.6-.6.8-.2c.5 0 .8.2 1 .5.3.3.4.7.4 1.3v2.5Zm6.6-4.2-1.3 4.2h-.7l-.9-3V172.3v.1l-.1.2-1 3h-.6l-1.3-4.2h.7l.9 3.2v.4a2.1 2.1 0 0 1 .1-.4l1-3.2h.6l.9 3.2v.4a2.1 2.1 0 0 1 .1-.4l.9-3.2h.7Zm3.7 4.2h-.7v-.6l-.5.5c-.2.2-.5.2-.8.2-.4 0-.7 0-1-.3-.2-.2-.3-.5-.3-1 0-.3.1-.6.4-.8.2-.2.6-.4 1-.4l1.2-.2v-.1c0-.4 0-.6-.2-.8a1 1 0 0 0-.7-.2l-.6.1-.5.4-.5-.3a2.2 2.2 0 0 1 1.7-.8c.5 0 .9.2 1.1.4.3.3.4.7.4 1.2v2.7Zm-.7-1.7v-.4l-1 .2c-.3 0-.5 0-.7.2l-.2.5c0 .3 0 .5.2.6l.5.2c.4 0 .7-.1.9-.4.2-.2.3-.5.3-.9Zm5.5 1.7h-.7v-2.4c0-.4-.1-.7-.3-1-.1-.2-.4-.3-.7-.3a1 1 0 0 0-.8.4c-.2.2-.4.6-.4 1v2.3h-.6v-4.2h.6v.7l.6-.6.8-.2c.5 0 .8.2 1 .5.3.3.5.7.5 1.3v2.5Zm3.2 0a1.6 1.6 0 0 1-.7.1 1 1 0 0 1-.8-.3c-.2-.2-.3-.4-.3-.8V172h-.7v-.6h.7v-1l.7-.2v1.2h1v.6h-1v2.5l.1.5.4.2h.2l.2-.1.2.5Zm4.2-2h-3c0 .6.2 1 .4 1.2.3.2.6.4 1 .4l.6-.1.6-.3.3.4-.7.4-.8.1a2 2 0 0 1-1.5-.5c-.3-.4-.5-1-.5-1.6 0-.7.2-1.2.5-1.6.4-.4.8-.7 1.4-.7.6 0 1 .2 1.3.6.3.3.4.8.4 1.5v.3Zm-.6-.5-.3-.9a1 1 0 0 0-.8-.3c-.3 0-.6.1-.8.4-.2.2-.4.5-.4.8h2.3Zm4.5 1.8c-.1.3-.3.5-.6.6-.2.2-.5.2-.8.2-.5 0-1-.2-1.3-.5-.3-.4-.4-1-.4-1.6 0-.7.1-1.2.5-1.6.3-.4.8-.7 1.4-.7l.7.2.5.5v-2.6h.7v6.2h-.6v-.7Zm-2.5-1.3c0 .5.2.9.4 1.1.2.3.5.5.9.5s.7-.2.9-.4c.2-.3.4-.6.4-1v-.7a1.2 1.2 0 0 0-1.2-1.2c-.4 0-.8.2-1 .5a2 2 0 0 0-.4 1.2Zm9.8 2h-.7v-.6l-.5.5c-.2.2-.5.2-.8.2-.4 0-.7 0-1-.3-.2-.2-.3-.5-.3-1 0-.3.1-.6.4-.8.2-.2.6-.4 1-.4l1.2-.2v-.1c0-.4 0-.6-.2-.8a1 1 0 0 0-.7-.2l-.6.1-.6.4-.4-.3a2.2 2.2 0 0 1 1.7-.8c.5 0 .8.2 1.1.4.3.3.4.7.4 1.2v2.7Zm-.7-1.7v-.4l-1 .2c-.3 0-.5 0-.7.2l-.2.5c0 .3 0 .5.2.6l.5.2c.4 0 .7-.1.9-.4.2-.2.3-.5.3-.9Zm4.9 1-.6.6c-.3.2-.5.2-.9.2-.5 0-1-.2-1.2-.5-.4-.4-.5-1-.5-1.6 0-.7.2-1.2.5-1.6.4-.4.8-.7 1.4-.7l.8.2.5.5v-2.6h.7v6.2h-.7v-.7Zm-2.5-1.3c0 .5 0 .9.3 1.1.2.3.5.5 1 .5.3 0 .6-.2.8-.4.3-.3.4-.6.4-1v-.7a1.2 1.2 0 0 0-1.2-1.2c-.4 0-.7.2-1 .5a2 2 0 0 0-.3 1.2Zm4.1 1.7.4-.5.5.3h.6l.6-.1c.2-.1.2-.3.2-.5 0-.1 0-.3-.2-.4l-.6-.3c-.5-.1-.9-.3-1-.5a1 1 0 0 1-.3-.7c0-.4 0-.7.3-1 .3-.1.7-.3 1.1-.3l.7.1.6.4-.3.5-.5-.3h-.5a1 1 0 0 0-.6 0c-.2.2-.2.3-.2.5s0 .3.2.4l.7.3 1 .5c.2.2.3.4.3.8s-.2.7-.4.9c-.3.2-.7.3-1.2.3a2.3 2.3 0 0 1-1.4-.4Zm6.2.3v-6.2h.7v6.2h-.7Zm2.4-5.1c-.1 0-.3 0-.3-.2l-.2-.3c0-.2 0-.3.2-.4l.3-.1.3.1.2.4c0 .1 0 .2-.2.3l-.3.2Zm.3 5.1h-.6v-4.2h.6v4.2Zm4.8 0h-.9l-1.8-2v2h-.7v-6.2h.6v4l1.8-2h.9l-2 2 2.1 2.2Zm4.1-2h-3c0 .6.2 1 .4 1.2.3.2.6.4 1 .4l.6-.1.5-.3.4.4-.7.4-.8.1a2 2 0 0 1-1.5-.5c-.4-.4-.5-1-.5-1.6 0-.7.1-1.2.5-1.6.3-.4.8-.7 1.4-.7.5 0 1 .2 1.3.6.3.3.4.8.4 1.5v.3Zm-.7-.5c0-.3 0-.6-.3-.9a1 1 0 0 0-.7-.3 1 1 0 0 0-.8.4c-.3.2-.4.5-.4.8h2.2Zm4.7 2v2.5h-.7v-6.2h.6v.8c.2-.3.4-.5.7-.6.2-.2.5-.3.8-.3.5 0 1 .2 1.3.6.3.4.4.9.4 1.5 0 .7-.1 1.3-.5 1.7-.3.4-.8.6-1.4.6l-.7-.1c-.2-.2-.4-.3-.5-.6Zm0-1.8v.6c0 .4 0 .7.3.9.2.2.5.4.8.4.4 0 .8-.2 1-.5.2-.3.3-.7.3-1.3 0-.5 0-.8-.3-1a1 1 0 0 0-.9-.5c-.4 0-.7.2-1 .4-.1.3-.3.6-.3 1Zm6 2.4a2 2 0 0 1-1.5-.6c-.4-.3-.6-.9-.6-1.5 0-.7.2-1.3.6-1.7a2 2 0 0 1 1.5-.6c.7 0 1.2.2 1.5.6.4.4.5 1 .5 1.6 0 .7-.2 1.2-.5 1.6a2 2 0 0 1-1.6.6Zm0-.5c.4 0 .8-.2 1-.5.2-.2.3-.6.3-1.2 0-.5 0-.9-.3-1.2-.2-.2-.6-.4-1-.4s-.8.2-1 .5c-.3.3-.4.7-.4 1.2s.1.9.4 1.1c.2.3.6.5 1 .5Zm3.8-.2v2.6h-.7v-6.2h.7v.8l.6-.6c.2-.2.5-.3.8-.3.6 0 1 .2 1.3.6.3.4.5.9.5 1.5 0 .7-.2 1.3-.6 1.7-.3.4-.8.6-1.4.6l-.7-.1c-.2-.2-.4-.3-.5-.6Zm0-1.7v.6c0 .4 0 .7.3.9.2.2.5.4.9.4s.7-.2 1-.5c.2-.3.3-.7.3-1.3 0-.5-.1-.8-.4-1a1 1 0 0 0-.8-.5c-.4 0-.7.2-1 .4-.2.3-.3.6-.3 1Zm7.6 2.3h-.7v-.6l-.5.5c-.2.2-.5.2-.8.2-.5 0-.8-.1-1.1-.4-.2-.3-.4-.8-.4-1.3v-2.6h.7v2.5c0 .4 0 .7.2 1 .2.2.5.3.8.3.3 0 .6-.2.8-.4.2-.2.3-.6.3-1v-2.4h.7v4.2Zm2-.6v2.6h-.6v-6.2h.6v.8l.6-.6.9-.3c.5 0 1 .2 1.3.6.3.4.4.9.4 1.5 0 .7-.2 1.3-.5 1.7-.3.4-.8.6-1.4.6l-.7-.1-.6-.6Zm0-1.7v.6c0 .4.1.7.4.9.2.2.5.4.8.4.4 0 .7-.2 1-.5.2-.3.3-.7.3-1.3 0-.5 0-.8-.3-1a1 1 0 0 0-.9-.5c-.4 0-.7.2-1 .4-.2.3-.3.6-.3 1Zm3.9 2 .4-.5.5.3h.5l.7-.1.2-.5c0-.1 0-.3-.2-.4l-.6-.3c-.5-.1-.9-.3-1-.5a1 1 0 0 1-.4-.7c0-.4.2-.7.4-1 .3-.1.6-.3 1-.3l.7.1.7.4-.4.5c-.2-.2-.3-.3-.5-.3h-.4a1 1 0 0 0-.6 0c-.2.2-.3.3-.3.5s.1.3.3.4l.7.3 1 .5.2.8c0 .4 0 .7-.4.9-.2.2-.6.3-1 .3a2.3 2.3 0 0 1-1.5-.4Zm4.6-.6-.7 2h-.5l.5-2h.7Zm4.1.4v.5h-.7v-6.2h.7v2.8l.6-.6c.2-.2.5-.3.8-.3.6 0 1 .2 1.3.6.3.4.5.9.5 1.5 0 .7-.2 1.3-.5 1.7-.4.4-.8.6-1.4.6l-.8-.1-.5-.5Zm0-1.8v.6c0 .4.1.7.3.9.2.2.5.4.9.4s.7-.2 1-.5c.2-.3.3-.7.3-1.3 0-.5-.1-.8-.3-1a1 1 0 0 0-1-.5c-.3 0-.6.2-.9.4-.2.3-.3.6-.3 1Zm7.2 2.3h-.7v-.6l-.5.5c-.2.2-.5.2-.8.2-.4 0-.7 0-1-.3-.2-.2-.3-.5-.3-1 0-.3.2-.6.4-.8.2-.2.6-.4 1-.4l1.2-.2v-.1c0-.4 0-.6-.2-.8a1 1 0 0 0-.7-.2l-.6.1-.5.4-.5-.3a2.2 2.2 0 0 1 1.7-.8c.5 0 .9.2 1.1.4.3.3.4.7.4 1.2v2.7Zm-.7-1.7v-.4l-1 .2c-.3 0-.5 0-.7.2l-.2.5c0 .3 0 .5.2.6l.6.2c.3 0 .6-.1.8-.4.2-.2.3-.5.3-.9Zm5.5 1.7h-.7v-2.4c0-.4 0-.7-.3-1-.1-.2-.4-.3-.7-.3a1 1 0 0 0-.8.4c-.2.2-.3.6-.3 1v2.3h-.7v-4.2h.7v.7l.6-.6.7-.2c.5 0 .9.2 1.1.5.2.3.4.7.4 1.3v2.5Zm4.7 0h-.7v-2.4c0-.4 0-.7-.2-1-.2-.2-.4-.3-.8-.3a1 1 0 0 0-.8.4c-.2.2-.3.6-.3 1v2.3h-.7v-4.2h.7v.7l.6-.6.8-.2c.4 0 .8.2 1 .5.3.3.4.7.4 1.3v2.5Zm4.6-2h-3c0 .6.2 1 .4 1.2.3.2.6.4 1 .4l.6-.1.5-.3.4.4-.7.4-.8.1a2 2 0 0 1-1.5-.5c-.4-.4-.5-1-.5-1.6 0-.7.1-1.2.5-1.6.3-.4.8-.7 1.4-.7.5 0 1 .2 1.3.6.3.3.4.8.4 1.5v.3Zm-.7-.5c0-.3 0-.6-.3-.9a1 1 0 0 0-.7-.3c-.4 0-.6.1-.8.4-.3.2-.4.5-.4.8h2.2Zm3.8-1a.8.8 0 0 0-.3-.1 1 1 0 0 0-.8.4 2 2 0 0 0-.3 1.1v2.1h-.7v-4.2h.7v.9l.4-.7c.2-.2.5-.2.7-.2a1.3 1.3 0 0 1 .4 0l-.1.6Zm.5 3.2.3-.5.5.3h.6l.6-.1c.2-.1.3-.3.3-.5 0-.1 0-.3-.2-.4l-.6-.3c-.6-.1-1-.3-1.1-.5a1 1 0 0 1-.3-.7c0-.4.1-.7.4-1 .2-.1.6-.3 1-.3l.7.1.6.4-.3.5c-.2-.2-.3-.3-.5-.3h-.5a1 1 0 0 0-.6 0l-.2.5c0 .2 0 .3.2.4l.7.3c.5.1.8.3 1 .5.2.2.3.4.3.8s-.1.7-.4.9c-.3.2-.6.3-1.1.3a2.3 2.3 0 0 1-1.4-.4Zm4.5-.6-.6 2h-.5l.5-2h.6Zm6.8-3.3-1.7 4.2h-.6l-1.6-4.2h.7l1 3a2.7 2.7 0 0 1 .2.6 5.4 5.4 0 0 1 .2-.5l1-3h.8Zm1-1h-.3l-.1-.4.1-.4.3-.1.4.1.1.4-.1.3-.4.2Zm.4 5.2h-.7v-4.2h.7v4.2Zm4.2-.7c-.1.3-.3.5-.6.6-.2.2-.5.2-.8.2-.6 0-1-.2-1.3-.5-.3-.4-.5-1-.5-1.6 0-.7.2-1.2.6-1.6.3-.4.8-.7 1.4-.7l.7.2.5.5v-2.6h.7v6.2h-.7v-.7Zm-2.5-1.3c0 .5.1.9.4 1.1.2.3.5.5.9.5.3 0 .6-.2.9-.4.2-.3.3-.6.3-1v-.7a1.2 1.2 0 0 0-1.2-1.2c-.4 0-.7.2-1 .5a2 2 0 0 0-.3 1.2Zm8 0h-3c0 .6 0 1 .3 1.2.3.2.6.4 1 .4l.6-.1.6-.3.3.4-.7.4-.8.1a2 2 0 0 1-1.5-.5c-.4-.4-.5-1-.5-1.6 0-.7.1-1.2.5-1.6.4-.4.8-.7 1.4-.7.5 0 1 .2 1.3.6.3.3.4.8.4 1.5v.3Zm-.8-.5c0-.3 0-.6-.2-.9a1 1 0 0 0-.8-.3c-.3 0-.6.1-.8.4-.3.2-.4.5-.4.8h2.2Zm3.5 2.6a2 2 0 0 1-1.5-.6c-.4-.3-.6-.9-.6-1.5 0-.7.2-1.3.6-1.7a2 2 0 0 1 1.6-.6c.6 0 1 .2 1.4.6.4.4.6 1 .6 1.6 0 .7-.2 1.2-.6 1.6a2 2 0 0 1-1.5.6Zm0-.5c.5 0 .8-.2 1-.5.3-.2.4-.6.4-1.2 0-.5-.1-.9-.4-1.2-.2-.2-.5-.4-1-.4-.4 0-.7.2-1 .5-.2.3-.4.7-.4 1.2s.2.9.4 1.1c.3.3.6.5 1 .5Zm8.4.4h-.7v-.6l-.6.5c-.2.2-.4.2-.7.2-.4 0-.7 0-1-.3-.2-.2-.3-.5-.3-1 0-.3.1-.6.3-.8.3-.2.6-.4 1-.4l1.3-.2v-.1c0-.4-.1-.6-.3-.8a1 1 0 0 0-.6-.2l-.6.1-.6.4-.4-.3a2.2 2.2 0 0 1 1.6-.8c.5 0 1 .2 1.2.4.2.3.4.7.4 1.2v2.7Zm-.7-1.7v-.4l-1 .2c-.4 0-.6 0-.7.2-.2.1-.3.3-.3.5 0 .3.1.5.3.6l.5.2c.4 0 .6-.1.9-.4.2-.2.3-.5.3-.9Zm4.8 1c-.1.3-.3.5-.6.6-.2.2-.5.2-.8.2-.5 0-1-.2-1.3-.5-.3-.4-.5-1-.5-1.6 0-.7.2-1.2.6-1.6.3-.4.8-.7 1.4-.7l.7.2.5.5v-2.6h.7v6.2h-.7v-.7Zm-2.5-1.3c0 .5.1.9.4 1.1.2.3.5.5.9.5s.7-.2.9-.4c.2-.3.3-.6.3-1v-.7a1.2 1.2 0 0 0-1.1-1.2c-.5 0-.8.2-1 .5a2 2 0 0 0-.4 1.2Zm4.2 1.7.3-.5.6.3h.5l.7-.1.2-.5c0-.1 0-.3-.2-.4l-.6-.3c-.6-.1-1-.3-1.1-.5a1 1 0 0 1-.3-.7c0-.4.1-.7.4-1 .3-.1.6-.3 1-.3l.7.1.6.4-.3.5c-.2-.2-.3-.3-.5-.3h-.4a1 1 0 0 0-.7 0l-.2.5c0 .2.1.3.3.4l.7.3 1 .5.2.8c0 .4-.1.7-.4.9-.3.2-.6.3-1 .3a2.3 2.3 0 0 1-1.5-.4Zm4.6-.6-.7 2h-.5l.5-2h.7Zm6.4 1h-.7v-.7c-.2.2-.3.4-.6.5-.2.2-.4.2-.7.2-.4 0-.7 0-1-.3-.2-.2-.3-.5-.3-1 0-.3.1-.6.4-.8.2-.2.6-.4 1-.4l1.2-.2v-.1c0-.4 0-.6-.2-.8a1 1 0 0 0-.7-.2l-.6.1-.6.4-.4-.3a2.2 2.2 0 0 1 1.6-.8c.5 0 1 .2 1.2.4.2.3.4.7.4 1.2v2.7Zm-.7-1.8v-.4l-1 .2c-.3 0-.6 0-.7.2-.2.1-.2.3-.2.5 0 .3 0 .5.2.6l.5.2c.4 0 .7-.1.9-.4.2-.2.3-.5.3-.9Zm5.4 1.7h-.6v-2.4c0-.4-.1-.7-.3-1-.1-.2-.4-.3-.7-.3a1 1 0 0 0-.9.4c-.2.2-.3.6-.3 1v2.3h-.6v-4.2h.6v.7l.6-.6.8-.2c.5 0 .8.2 1 .5.3.3.4.7.4 1.3v2.5Zm4.2-.7-.6.6c-.3.2-.5.2-.9.2-.5 0-1-.2-1.2-.5-.4-.4-.5-1-.5-1.6 0-.7.2-1.2.5-1.6.4-.4.8-.7 1.4-.7l.8.2.5.5v-2.6h.7v6.2h-.7v-.7Zm-2.5-1.3c0 .5 0 .9.3 1.1.2.3.5.5 1 .5.3 0 .6-.2.8-.4.3-.3.4-.6.4-1v-.7a1.2 1.2 0 0 0-1.2-1.2c-.4 0-.7.2-1 .5a2 2 0 0 0-.3 1.2Zm-201.7 8.7-1.7 5.9h-.8l-1.2-4.3a3 3 0 0 1 0-.6 2.5 2.5 0 0 1-.2.6l-1.2 4.3h-.8l-1.7-5.9h.7l1.3 4.5a2.8 2.8 0 0 1 0 .6h.1a3.2 3.2 0 0 1 .1-.6l1.3-4.5h.7l1.2 4.5a2.8 2.8 0 0 1 .1.6v-.3l.2-.3 1.2-4.5h.7Zm1.1.7-.3-.1-.2-.4s0-.2.2-.3l.3-.1.4.1.1.3-.1.4-.4.1Zm.4 5.2h-.7V184h.7v4.2Zm4.8 0h-.7v-2.4c0-.4 0-.8-.2-1-.2-.2-.4-.3-.8-.3a1 1 0 0 0-.8.4c-.2.2-.3.5-.3 1v2.3h-.7V184h.7v.7c.1-.3.3-.5.6-.6l.8-.2c.4 0 .8.2 1 .5.3.3.4.7.4 1.2v2.6Zm4.1-.7a1.6 1.6 0 0 1-1.4.8c-.5 0-1-.2-1.3-.6-.3-.3-.5-.9-.5-1.5 0-.7.2-1.2.6-1.7.3-.4.8-.6 1.4-.6.3 0 .5 0 .7.2.2 0 .4.3.5.5V182h.7v6.2h-.7v-.7Zm-2.5-1.3c0 .5.1.8.4 1.1.2.3.5.4.9.4s.7-.1.9-.4c.2-.2.3-.6.3-1v-.6a1.2 1.2 0 0 0-1.2-1.2c-.4 0-.7.1-1 .4a2 2 0 0 0-.3 1.3Zm6.3 2.1a2 2 0 0 1-1.5-.6c-.3-.4-.5-.9-.5-1.5 0-.7.2-1.3.6-1.7a2 2 0 0 1 1.5-.6c.6 0 1.1.2 1.5.6.3.4.5 1 .5 1.6 0 .7-.2 1.2-.6 1.6a2 2 0 0 1-1.5.6Zm0-.6c.5 0 .8-.1 1-.4.3-.3.4-.7.4-1.2s-.1-1-.3-1.2c-.3-.3-.6-.4-1-.4-.5 0-.8.1-1 .4-.3.3-.4.7-.4 1.2s0 1 .3 1.2c.3.3.6.4 1 .4Zm8.4-3.7-1.2 4.2h-.7l-.9-3v-.4.2l-.1.2-1 3h-.6l-1.3-4.2h.7l.9 3.2V187.5a1.9 1.9 0 0 1 .1-.4l1-3h.6l.9 3v.4a1.8 1.8 0 0 1 .1-.3l.9-3.2h.6Zm.4 3.8.4-.5c.2.2.3.3.5.3l.6.1.6-.1c.2-.1.2-.3.2-.5s0-.3-.2-.4c0-.2-.3-.3-.6-.3-.5-.2-.9-.3-1-.5a1 1 0 0 1-.3-.8c0-.3 0-.6.3-.8.3-.3.7-.4 1.1-.4l.7.1.6.3-.3.5-.5-.2-.5-.1a1 1 0 0 0-.6.1l-.2.5c0 .1 0 .3.2.4l.7.2 1 .5c.2.2.3.5.3.8 0 .4-.2.7-.4 1-.3.2-.7.3-1.1.3a2.3 2.3 0 0 1-1.5-.5Zm9.2.4h-.7v-.6l-.5.5-.7.2c-.4 0-.8-.1-1-.3-.2-.3-.4-.6-.4-1 0-.3.2-.6.4-.8.3-.3.6-.4 1-.5l1.2-.1v-.2c0-.3 0-.5-.2-.7a1 1 0 0 0-.7-.2l-.6.1-.5.4-.5-.4a2.2 2.2 0 0 1 1.7-.7c.5 0 .9.1 1.1.4.3.3.4.6.4 1.2v2.7Zm-.7-1.7v-.4l-1 .1c-.3 0-.5.2-.7.3l-.2.5c0 .2 0 .4.2.6l.6.2c.3 0 .6-.2.8-.4.2-.2.3-.5.3-.9Zm4.9 1a1.6 1.6 0 0 1-1.4.8c-.6 0-1-.2-1.3-.6-.3-.3-.5-.9-.5-1.5 0-.7.2-1.2.5-1.7.4-.4.8-.6 1.4-.6.3 0 .6 0 .8.2.2 0 .4.3.5.5V182h.7v6.2h-.7v-.7Zm-2.5-1.3c0 .5.1.8.3 1.1.3.3.6.4 1 .4.3 0 .6-.1.9-.4.2-.2.3-.6.3-1v-.6c0-.4-.1-.6-.3-.9-.3-.2-.5-.3-.9-.3s-.7.1-1 .4a2 2 0 0 0-.3 1.3Zm4.1 1.6.4-.5c.2.2.3.3.5.3l.6.1.6-.1c.2-.1.3-.3.3-.5l-.2-.4c-.2-.2-.4-.3-.7-.3l-1-.5a1 1 0 0 1-.3-.8c0-.3.1-.6.4-.8.2-.3.6-.4 1-.4l.7.1.6.3-.3.5-.5-.2-.5-.1a1 1 0 0 0-.6.1l-.2.5c0 .1 0 .3.2.4l.7.2 1 .5c.2.2.3.5.3.8 0 .4-.1.7-.4 1-.3.2-.7.3-1.1.3a2.3 2.3 0 0 1-1.5-.5Z"/><path fill="#5B5B5B" d="M378.5 151.7v39.5h1.2v-39.5h-1.2Z"/><path fill="#67B279" d="M407.2 152.9h-12a6 6 0 1 0 0 12h12a6 6 0 0 0 0-12Z"/><path fill="#fff" d="M412 158.9a4.8 4.8 0 1 0-9.6 0 4.8 4.8 0 0 0 9.6 0Z"/><path stroke="#67B279" stroke-linecap="round" stroke-linejoin="round" d="m141.2 215.8 1.5 1.6c-1.6 2-3.2 3-4.8 3l-.7-.1m-1.5-.6c-.6-.4-1.5-1.2-2.5-2.3 1.6-2 3.2-2.9 4.8-2.9.6 0 1.2.2 1.9.5m-6.7 7.9 9.5-10.8m-5.6 6.3a1.2 1.2 0 0 1 .8-2c.3 0 .6 0 .8.2l-1.6 1.8Z"/><path fill="#E4E4E4" d="M159.8 216h-2v5.7h-1v-5.8h-2v-.9h5v1Zm2.8 1.8a1.4 1.4 0 0 0-.4 0 1 1 0 0 0-1 .4l-.2 1.1v2.4h-1.1v-4.8h1v1l.6-.8c.2-.2.5-.3.8-.3a1.5 1.5 0 0 1 .4.1l-.1 1Zm4.5 3.9h-1v-.7c-.2.3-.4.5-.7.6l-.8.2c-.4 0-.8-.1-1-.4-.4-.2-.5-.6-.5-1s.1-.8.4-1c.3-.3.7-.5 1.3-.6l1.3-.1v-.2c0-.3-.1-.5-.3-.7a1 1 0 0 0-.7-.2l-.7.1a2 2 0 0 0-.6.5l-.5-.6c.2-.3.5-.5.8-.6l1.1-.2c.7 0 1.1.2 1.4.5.4.3.5.8.5 1.4v3Zm-1-2v-.3l-1 .1c-.4 0-.6.1-.8.3 0 0-.2.2-.2.5 0 .2.1.4.3.5l.5.2c.4 0 .6-.1.8-.3.3-.3.4-.6.4-1Zm6 1.6a2.4 2.4 0 0 1-1.5.5c-.8 0-1.4-.2-1.8-.6-.5-.5-.7-1-.7-1.8s.3-1.4.7-1.9c.5-.5 1-.7 1.8-.7l.9.1.7.4-.6.7a1.6 1.6 0 0 0-1-.3c-.4 0-.7.1-1 .4-.2.3-.4.7-.4 1.2s.2 1 .4 1.2c.3.3.6.4 1 .4a1.5 1.5 0 0 0 1-.3l.5.7Zm5.3.4H176l-1.8-2.3v2.3H173v-7h1.1v4.4l1.8-2.2h1.3l-2 2.3 2.2 2.5Zm1.2-5.7c-.2 0-.3 0-.5-.2a.6.6 0 0 1-.2-.5l.2-.4c.2-.2.3-.2.5-.2s.4 0 .5.2c.2 0 .2.2.2.4s0 .4-.2.5l-.5.2Zm.6 5.7H178v-4.8h1v4.8Zm5.6 0h-1V219c0-.4-.1-.8-.3-1-.2-.2-.4-.3-.7-.3a1 1 0 0 0-.8.3c-.2.3-.3.6-.3 1v2.7h-1.1v-4.8h1v.8a1.8 1.8 0 0 1 1.6-.9c.5 0 1 .2 1.2.5.3.3.4.8.4 1.5v2.9Zm5.7-.4c0 .9-.2 1.5-.7 2-.4.4-1 .7-1.9.7a3.6 3.6 0 0 1-1.9-.6l.4-.7.7.3.8.1c.5 0 .9-.1 1.1-.4.3-.3.4-.7.4-1.2v-.5a1.7 1.7 0 0 1-1.6.8c-.6 0-1-.2-1.4-.6-.4-.4-.6-1-.6-1.7 0-.8.2-1.5.6-2a2 2 0 0 1 1.6-.7c.3 0 .6 0 .8.2.3.1.5.3.6.5v-.6h1.1v4.4Zm-1-1.8v-.6c0-.3-.2-.6-.4-.9a1 1 0 0 0-.9-.3c-.4 0-.7.1-1 .4a2 2 0 0 0-.3 1.3c0 .5.1.9.4 1.1.2.3.5.4.9.4.3 0 .6 0 .9-.4.2-.2.3-.6.3-1Zm6 1.6v2.8h-1v-7h1v.8l.7-.7 1-.2c.6 0 1 .2 1.4.6.4.5.5 1 .5 1.8a3 3 0 0 1-.6 1.9 2 2 0 0 1-1.5.7c-.3 0-.6 0-.8-.2-.3 0-.5-.3-.6-.5Zm0-2v.6c0 .3.1.6.4.9.2.2.5.3.8.3.4 0 .8-.1 1-.4.2-.3.3-.8.3-1.3s0-.9-.3-1.1a1 1 0 0 0-.9-.4c-.4 0-.7.1-1 .4-.2.3-.3.6-.3 1Zm7.4-1.3a1.4 1.4 0 0 0-.4 0 1 1 0 0 0-.9.4c-.2.3-.3.7-.3 1.1v2.4h-1v-4.8h1v1c.1-.4.3-.6.5-.8.3-.2.5-.3.8-.3a1.5 1.5 0 0 1 .5.1l-.2 1Zm3 4c-.8 0-1.4-.2-1.8-.7-.5-.4-.7-1-.7-1.8 0-.7.2-1.4.7-1.8.4-.5 1-.7 1.8-.7s1.4.2 1.8.7c.4.4.6 1 .6 1.8 0 .7-.2 1.4-.6 1.8-.5.5-1 .7-1.9.7Zm0-.9c.4 0 .8-.1 1-.4.2-.3.3-.7.3-1.2s0-1-.3-1.2c-.2-.3-.6-.4-1-.4s-.8.1-1 .4c-.3.3-.4.7-.4 1.2s.1 1 .4 1.2c.2.3.6.4 1 .4Zm6.2.7-.5.2h-.5c-.4 0-.8-.1-1-.3-.3-.3-.4-.6-.4-1v-2.7h-.8v-.9h.8v-1.1l1.1-.3v1.4h1.2v.9h-1.2v2.5l.1.5.4.2h.3l.2-.2.3.8Zm4.8-2h-3.3c0 .4.2.8.4 1 .3.3.6.4 1 .4l.7-.1.6-.4.6.6a3 3 0 0 1-1 .5 3 3 0 0 1-1 .2c-.7 0-1.3-.2-1.7-.6-.4-.5-.6-1-.6-1.8s.2-1.4.6-1.9c.4-.5 1-.7 1.6-.7a2 2 0 0 1 1.6.6c.3.4.5 1 .5 1.7v.5Zm-1-.8c0-.4-.1-.7-.3-.9a1 1 0 0 0-.8-.3 1 1 0 0 0-.8.3l-.4 1h2.3Zm5.7 2.5a2.4 2.4 0 0 1-1.5.5c-.8 0-1.4-.2-1.8-.6-.4-.5-.7-1-.7-1.8s.3-1.4.7-1.9c.5-.5 1-.7 1.9-.7l.8.1.7.4-.5.7-.5-.2-.5-.1c-.5 0-.8.1-1 .4-.3.3-.5.7-.5 1.2s.2 1 .4 1.2c.3.3.6.4 1 .4a1.5 1.5 0 0 0 1-.3l.5.7Zm3.6.3-.4.2h-.6c-.4 0-.7-.1-1-.3-.2-.3-.3-.6-.3-1v-2.7h-.8v-.9h.8v-1.1l1-.3v1.4h1.2v.9H224v3l.5.2h.2l.2-.2.3.8Zm1.4-5.6c-.2 0-.3 0-.5-.2a.6.6 0 0 1-.2-.5c0-.2 0-.3.2-.4.2-.2.3-.2.5-.2s.4 0 .5.2c.2 0 .2.2.2.4s0 .4-.2.5l-.5.2Zm.6 5.7H226v-4.8h1v4.8Zm3.5.1c-.8 0-1.3-.2-1.8-.7-.4-.4-.6-1-.6-1.8 0-.7.2-1.4.6-1.8.5-.5 1.1-.7 1.9-.7.7 0 1.3.2 1.7.7.5.4.7 1 .7 1.8 0 .7-.2 1.4-.7 1.8-.4.5-1 .7-1.8.7Zm0-.9c.5 0 .8-.1 1-.4.3-.3.4-.7.4-1.2s-.1-1-.4-1.2c-.2-.3-.5-.4-1-.4-.4 0-.7.1-1 .4-.2.3-.3.7-.3 1.2s0 1 .3 1.2c.3.3.6.4 1 .4Zm7.8.8h-1V219c0-.4-.1-.8-.3-1-.1-.2-.4-.3-.7-.3a1 1 0 0 0-.8.3c-.2.3-.3.6-.3 1v2.7h-1.1v-4.8h1v.8a1.7 1.7 0 0 1 1.6-.9c.6 0 1 .2 1.2.5.3.3.4.8.4 1.5v2.9Z"/><path fill="#D2D2D2" d="M156.2 232.1v2.2h-.7v-5.9h1.6a2 2 0 0 1 1.4.5c.4.3.6.7.6 1.3 0 .6-.2 1-.6 1.4-.4.3-1 .5-1.6.5h-.7Zm0-3v2.4h.7c.4 0 .8-.1 1-.3.3-.3.4-.6.4-1s0-.7-.3-.9c-.2-.2-.6-.3-1-.3h-.8Zm6 1.6h-.4a1 1 0 0 0-.8.3 2 2 0 0 0-.3 1.1v2.2h-.6V230h.6v.8l.5-.7.7-.2a1.3 1.3 0 0 1 .4 0l-.2.7Zm2.5 3.7a2 2 0 0 1-1.4-.6c-.4-.4-.6-1-.6-1.6 0-.7.2-1.2.6-1.6a2 2 0 0 1 1.5-.6c.7 0 1.1.2 1.5.6.4.3.5.9.5 1.6 0 .6-.2 1.2-.5 1.6a2 2 0 0 1-1.6.6Zm0-.6c.5 0 .9-.1 1-.4.3-.3.4-.7.4-1.2s0-1-.3-1.2c-.3-.3-.6-.4-1-.4s-.8.1-1 .4c-.3.3-.4.7-.4 1.2s.1.9.4 1.2c.2.3.6.4 1 .4Zm5.2.4-.3.1h-.4a1 1 0 0 1-.8-.2c-.2-.2-.3-.5-.3-.9v-2.5h-.7v-.6h.7v-1l.7-.2v1.2h1v.6h-1v2.4l.1.5.4.2h.2l.2-.1.2.5Zm4.2-1.9h-3c0 .5.2.9.4 1.1.3.3.6.4 1 .4l.6-.1.6-.3.3.4-.7.4-.8.2a2 2 0 0 1-1.5-.6c-.4-.4-.5-.9-.5-1.6 0-.6.1-1.2.5-1.6.4-.4.8-.6 1.4-.6.5 0 1 .2 1.3.5.3.4.4.9.4 1.5v.3Zm-.7-.5c0-.4 0-.7-.2-1a1 1 0 0 0-.8-.3c-.3 0-.6.2-.8.4-.3.2-.4.5-.4.9h2.2Zm4.7 2.2a2 2 0 0 1-1.2.4 2 2 0 0 1-1.5-.6 2 2 0 0 1-.6-1.5c0-.7.2-1.3.6-1.7a2 2 0 0 1 1.6-.6 2.2 2.2 0 0 1 1.2.4l-.3.4-.4-.2h-.5c-.5 0-.9.1-1.1.4-.2.3-.4.7-.4 1.2s.2.9.4 1.2c.3.3.6.4 1 .4a1.5 1.5 0 0 0 1-.3l.2.5Zm3 .2-.4.1h-.4a1 1 0 0 1-.7-.2c-.2-.2-.3-.5-.3-.9v-2.5h-.7v-.6h.7v-1l.7-.2v1.2h1v.6h-1v2.9l.5.2h.2l.2-.1.2.5Zm.5-.3.3-.5.5.3.6.1c.3 0 .5 0 .6-.2.2 0 .3-.2.3-.4l-.2-.5-.7-.3c-.5 0-.8-.3-1-.5a1 1 0 0 1-.3-.7c0-.4.1-.6.4-.9.2-.2.6-.3 1-.3h.7l.6.4-.3.5-.5-.3h-.5a1 1 0 0 0-.6.1l-.2.4c0 .2 0 .4.2.5l.7.2 1 .5c.2.2.3.5.3.8 0 .4-.1.7-.4 1-.3.2-.7.3-1.1.3a2.3 2.3 0 0 1-1.4-.5Zm9.5-3.8-2 5a2 2 0 0 1-.5.9l-.9.2a1.5 1.5 0 0 1-.4 0l.1-.6a.6.6 0 0 0 .3 0h.4c.2-.2.3-.3.3-.5l.4-.8-1.6-4.2h.7l1.1 3.2a4.1 4.1 0 0 1 .1.3 2.6 2.6 0 0 1 .1-.3l1.2-3.2h.7Zm2.5 4.3a2 2 0 0 1-1.5-.6c-.4-.4-.6-1-.6-1.6 0-.7.2-1.2.6-1.6a2 2 0 0 1 1.6-.6c.6 0 1.1.2 1.4.6.4.3.6.9.6 1.6 0 .6-.2 1.2-.6 1.6a2 2 0 0 1-1.5.6Zm0-.6c.5 0 .8-.1 1-.4.3-.3.4-.7.4-1.2s-.1-1-.4-1.2c-.2-.3-.5-.4-1-.4-.4 0-.7.1-1 .4-.2.3-.4.7-.4 1.2s.2.9.4 1.2c.3.3.6.4 1 .4Zm6.5.5h-.6v-.7l-.6.6-.8.2c-.4 0-.8-.2-1-.5-.3-.3-.4-.7-.4-1.3V230h.6v2.4c0 .4.1.8.3 1 .1.2.4.3.7.3.4 0 .6-.1.8-.4.3-.2.4-.5.4-1v-2.3h.6v4.2Zm3.4-3.6H203.2a1 1 0 0 0-.8.3 2 2 0 0 0-.3 1.1v2.2h-.6V230h.6v.8l.5-.7.7-.2a1.3 1.3 0 0 1 .4 0l-.2.7Zm4.9 3.7a2 2 0 0 1-1.5-.6c-.4-.4-.5-1-.5-1.6 0-.7.2-1.2.5-1.6a2 2 0 0 1 1.6-.6c.6 0 1.1.2 1.5.6.3.3.5.9.5 1.6 0 .6-.2 1.2-.6 1.6a2 2 0 0 1-1.5.6Zm0-.6c.5 0 .8-.1 1-.4.3-.3.4-.7.4-1.2s-.1-1-.3-1.2c-.3-.3-.6-.4-1-.4-.5 0-.8.1-1 .4-.3.3-.4.7-.4 1.2s0 .9.3 1.2c.3.3.6.4 1 .4Zm6.6.5h-.6v-2.4c0-.5-.1-.8-.3-1-.1-.2-.4-.3-.7-.3a1 1 0 0 0-.8.3c-.3.3-.4.6-.4 1v2.4h-.6V230h.6v.7l.6-.6c.3-.2.5-.2.8-.2.5 0 .8.1 1 .4.3.3.4.7.4 1.3v2.6Zm1.3 0V228h.7v6.2h-.7Zm2.3-5.2s-.2 0-.3-.2l-.1-.3.1-.3.3-.2c.2 0 .3 0 .4.2l.1.3-.1.3-.4.2Zm.4 5.2h-.7V230h.7v4.2Zm4.8 0h-.7v-2.4c0-.5 0-.8-.2-1-.2-.2-.4-.3-.7-.3a1 1 0 0 0-.9.3c-.2.3-.3.6-.3 1v2.4h-.7V230h.7v.7l.6-.6c.2-.2.5-.2.8-.2.4 0 .8.1 1 .4.3.3.4.7.4 1.3v2.6Zm4.6-2h-3c0 .5.2.9.4 1.1.3.3.6.4 1 .4l.6-.1.6-.3.3.4-.7.4-.8.2a2 2 0 0 1-1.5-.6c-.4-.4-.5-.9-.5-1.6 0-.6.1-1.2.5-1.6.4-.4.8-.6 1.4-.6.5 0 1 .2 1.3.5.3.4.4.9.4 1.5v.3Zm-.7-.5c0-.4 0-.7-.2-1a1 1 0 0 0-.8-.3c-.3 0-.6.2-.8.4-.3.2-.4.5-.4.9h2.2Zm7 2.5h-.7v-.7l-.6.6-.7.2c-.4 0-.7-.1-1-.4-.2-.2-.3-.5-.3-.9 0-.3 0-.6.3-.9l1-.4 1.3-.2c0-.4-.1-.7-.3-.8a1 1 0 0 0-.6-.3c-.2 0-.5 0-.7.2-.2 0-.3.2-.5.4l-.4-.4a2.2 2.2 0 0 1 1.6-.7c.5 0 .9.1 1.2.4.2.2.3.6.3 1.1v2.8Zm-.7-1.7v-.4l-1 .1c-.4 0-.6.1-.7.2-.2.1-.3.3-.3.6 0 .2.1.4.3.5.1.2.3.2.5.2.4 0 .6-.1.9-.3.2-.3.3-.6.3-1Zm5 1.4a2 2 0 0 1-1.3.4 2 2 0 0 1-1.5-.6 2 2 0 0 1-.6-1.5c0-.7.2-1.3.6-1.7a2 2 0 0 1 1.6-.6 2.2 2.2 0 0 1 1.2.4l-.3.4-.5-.2h-.5c-.4 0-.8.1-1 .4-.3.3-.4.7-.4 1.2s.2.9.4 1.2c.3.3.6.4 1 .4a1.5 1.5 0 0 0 .9-.3l.3.5Zm2.9.2-.4.1h-.4a1 1 0 0 1-.7-.2c-.2-.2-.3-.5-.3-.9v-2.5h-.7v-.6h.7v-1l.6-.2v1.2h1.1v.6h-1v2.9l.5.2h.2l.2-.1.2.5Zm1.2-5.1c-.2 0-.3 0-.4-.2l-.1-.3.1-.3.4-.2c.1 0 .2 0 .3.2l.1.3v.3l-.4.2Zm.3 5.2h-.7V230h.7v4.2Zm4.6-4.2-1.6 4.2h-.7l-1.6-4.2h.8l1 3a3.2 3.2 0 0 1 .2.6 4.8 4.8 0 0 1 .1-.6l1.1-3h.7Zm1.1-1c-.1 0-.2 0-.3-.2l-.2-.3c0-.1 0-.2.2-.3l.3-.2c.1 0 .3 0 .3.2l.2.3c0 .1 0 .3-.2.3l-.3.2Zm.3 5.2h-.6V230h.6v4.2Zm3.4-.1-.3.1h-.4a1 1 0 0 1-.8-.2c-.2-.2-.3-.5-.3-.9v-2.5h-.7v-.6h.7v-1l.7-.2v1.2h1v.6h-1v2.9l.5.2h.2l.2-.1.2.5Zm4.2-4.1-2 5a2 2 0 0 1-.6.9l-.8.2a1.5 1.5 0 0 1-.4 0l.1-.6a.7.7 0 0 0 .3 0h.4l.3-.5.4-.8-1.7-4.2h.8l1.1 3.2v.1l.1.2a2.6 2.6 0 0 1 .1-.3l1.2-3.2h.7Zm6 4.2h-.7v-.7l-.6.6-.7.2c-.4 0-.7-.1-1-.4-.2-.2-.3-.5-.3-.9 0-.3 0-.6.3-.9l1-.4 1.3-.2c0-.4-.1-.7-.3-.8a1 1 0 0 0-.6-.3c-.3 0-.5 0-.7.2-.2 0-.3.2-.5.4l-.4-.4a2.2 2.2 0 0 1 1.6-.7c.5 0 .9.1 1.1.4.3.2.4.6.4 1.1v2.8Zm-.7-1.7v-.4l-1 .1-.8.2-.2.6c0 .2 0 .4.2.5.2.2.4.2.6.2.3 0 .6-.1.8-.3.3-.3.4-.6.4-1Zm5.4 1.7h-.7v-2.4c0-.5 0-.8-.2-1-.2-.2-.4-.3-.8-.3a1 1 0 0 0-.8.3c-.2.3-.3.6-.3 1v2.4h-.7V230h.7v.7l.6-.6c.2-.2.5-.2.8-.2.4 0 .8.1 1 .4.3.3.4.7.4 1.3v2.6Zm4.1-.7-.6.6-.8.2c-.5 0-1-.2-1.3-.6-.3-.4-.4-.9-.4-1.5 0-.7.1-1.3.5-1.7.3-.4.8-.6 1.4-.6l.7.1.5.5v-2.5h.7v6.2h-.6v-.7Zm-2.5-1.4c0 .5.2.9.4 1.2.2.3.5.4.9.4s.7-.1.9-.4c.2-.3.4-.6.4-1v-.6c0-.4-.2-.7-.4-.9-.2-.2-.5-.3-.8-.3-.5 0-.8.1-1 .4a2 2 0 0 0-.4 1.2Zm7.5 1.5v2.5h-.7V230h.7v.7l.6-.6.9-.2c.5 0 1 .2 1.2.5.3.4.5 1 .5 1.6 0 .7-.2 1.2-.5 1.6-.4.5-.8.7-1.4.7-.3 0-.5 0-.8-.2l-.5-.5Zm0-1.7v.6c0 .3.1.6.3.8.3.3.5.4.9.4s.7-.2 1-.5c.2-.3.3-.7.3-1.2s-.1-.9-.3-1.2a1 1 0 0 0-.9-.3c-.4 0-.7 0-1 .4-.2.2-.3.6-.3 1Zm7.6.3h-3c0 .5.2.9.4 1.1.3.3.6.4 1 .4l.6-.1c.2 0 .4-.2.5-.3l.4.4-.7.4-.8.2a2 2 0 0 1-1.5-.6c-.4-.4-.5-.9-.5-1.6 0-.6.1-1.2.5-1.6.4-.4.8-.6 1.4-.6.5 0 1 .2 1.3.5.3.4.4.9.4 1.5v.3Zm-.7-.5c0-.4 0-.7-.3-1a1 1 0 0 0-.7-.3c-.3 0-.6.2-.8.4-.3.2-.4.5-.4.9h2.2Zm3.8-1.1H287.2a1 1 0 0 0-.8.3 2 2 0 0 0-.3 1.1v2.2h-.7V230h.7v.8l.4-.7.7-.2a1.3 1.3 0 0 1 .4 0l-.1.7Zm.5 3.2.3-.5.5.3.6.1c.3 0 .5 0 .7-.2l.2-.4c0-.2 0-.4-.2-.5l-.6-.3c-.6 0-1-.3-1.1-.5a1 1 0 0 1-.3-.7c0-.4.1-.6.4-.9.2-.2.6-.3 1-.3h.7l.6.4-.3.5-.5-.3h-.5a1 1 0 0 0-.6.1l-.2.4c0 .2 0 .4.2.5l.7.2c.5.1.8.3 1 .5.2.2.3.5.3.8 0 .4-.1.7-.4 1-.3.2-.6.3-1.1.3a2.3 2.3 0 0 1-1.4-.5Zm5.7.5a2 2 0 0 1-1.5-.6c-.4-.4-.6-1-.6-1.6 0-.7.2-1.2.6-1.6a2 2 0 0 1 1.6-.6c.6 0 1 .2 1.4.6.4.3.6.9.6 1.6 0 .6-.2 1.2-.6 1.6a2 2 0 0 1-1.5.6Zm0-.6c.5 0 .8-.1 1-.4.3-.3.4-.7.4-1.2s-.1-1-.4-1.2c-.2-.3-.5-.4-1-.4-.4 0-.7.1-1 .4-.2.3-.4.7-.4 1.2s.2.9.4 1.2c.3.3.6.4 1 .4Zm6.6.5h-.7v-2.4c0-.5 0-.8-.2-1-.2-.2-.4-.3-.7-.3a1 1 0 0 0-.9.3c-.2.3-.3.6-.3 1v2.4h-.7V230h.7v.7l.6-.6c.2-.2.5-.2.8-.2.5 0 .8.1 1 .4.3.3.4.7.4 1.3v2.6Zm4.2 0h-.6v-.7l-.6.6-.7.2c-.4 0-.7-.1-1-.4-.2-.2-.3-.5-.3-.9 0-.3 0-.6.3-.9l1-.4 1.3-.2c0-.4-.1-.7-.3-.8a1 1 0 0 0-.6-.3c-.3 0-.5 0-.7.2-.2 0-.3.2-.5.4l-.4-.4c.2-.3.4-.4.7-.5.3-.2.6-.2.9-.2.5 0 .9.1 1.1.4.3.2.4.6.4 1.1v2.8Zm-.6-1.7v-.4l-1 .1-.8.2-.2.6.2.5c.2.2.4.2.6.2.3 0 .6-.1.8-.3.3-.3.4-.6.4-1Zm2 1.7V228h.6v6.2h-.7Zm7-.7c0 .2-.3.4-.5.6l-.9.2c-.5 0-1-.2-1.2-.6-.3-.4-.5-.9-.5-1.5 0-.7.2-1.3.5-1.7.4-.4.8-.6 1.4-.6l.8.1.5.5v-2.5h.7v6.2h-.7v-.7Zm-2.4-1.4c0 .5.1.9.3 1.2.2.3.5.4 1 .4.3 0 .6-.1.8-.4.3-.3.4-.6.4-1v-.6a1.2 1.2 0 0 0-1.2-1.3c-.4 0-.7.2-1 .5a2 2 0 0 0-.3 1.2Zm7.5 2h-.7v-.6l-.5.6-.8.2c-.4 0-.7-.1-1-.4-.2-.2-.3-.5-.3-.9 0-.3.1-.6.4-.9.2-.2.6-.3 1-.4l1.2-.2c0-.4 0-.7-.2-.8a1 1 0 0 0-.7-.3c-.2 0-.4 0-.6.2-.2 0-.4.2-.6.4l-.4-.4c.2-.3.5-.4.8-.5.2-.2.5-.2.9-.2.5 0 .8.1 1 .4.4.2.5.6.5 1.1v2.8Zm-.7-1.6v-.4l-1 .1-.7.2c-.2.1-.2.3-.2.6 0 .2 0 .4.2.5.1.2.3.2.5.2.4 0 .7-.1.9-.3.2-.3.3-.6.3-1Zm4 1.6-.4.1h-.4a1 1 0 0 1-.7-.2c-.2-.2-.3-.5-.3-.9v-2.5h-.7v-.6h.7v-1l.6-.2v1.2h1.1v.6h-1v2.9l.5.2h.2l.2-.1.2.5Zm3.8 0h-.7v-.6c-.1.3-.3.5-.5.6l-.8.2c-.4 0-.7-.1-1-.4-.2-.2-.3-.5-.3-.9 0-.3.1-.6.4-.9.2-.2.6-.3 1-.4l1.2-.2c0-.4 0-.7-.2-.8a1 1 0 0 0-.7-.3c-.2 0-.4 0-.6.2-.2 0-.4.2-.6.4l-.4-.4a2.2 2.2 0 0 1 1.7-.7c.5 0 .8.1 1.1.4.3.2.4.6.4 1.1v2.8Zm-.7-1.6v-.4l-1 .1-.7.2-.2.6c0 .2 0 .4.2.5.1.2.3.2.5.2.4 0 .7-.1.9-.3.2-.3.3-.6.3-1Zm6.2-4a1.2 1.2 0 0 0-.4 0l-.5.1-.2.6v.8h1v.6h-1v3.6h-.6v-3.6h-.7v-.6h.7v-.9c0-.4 0-.7.3-.9.3-.2.6-.3 1-.3h.6l-.2.6Zm2.7 2H333a1 1 0 0 0-.8.4 2 2 0 0 0-.3 1.1v2.2h-.7V230h.7v.8l.5-.7.6-.2a1.3 1.3 0 0 1 .4 0v.7Zm2.6 3.8a2 2 0 0 1-1.5-.6c-.3-.4-.5-1-.5-1.6 0-.7.2-1.2.6-1.6a2 2 0 0 1 1.5-.6c.6 0 1.1.2 1.5.6.3.3.5.9.5 1.6 0 .6-.2 1.2-.6 1.6a2 2 0 0 1-1.5.6Zm0-.6c.5 0 .8-.1 1-.4.3-.3.4-.7.4-1.2s0-1-.3-1.2c-.3-.3-.6-.4-1-.4-.5 0-.8.1-1 .4-.3.3-.4.7-.4 1.2s.1.9.4 1.2c.2.3.6.4 1 .4Zm9.1.5h-.6v-2.4c0-.5-.1-.8-.3-1-.1-.2-.3-.3-.7-.3-.3 0-.5 0-.7.3-.2.3-.3.6-.3 1v2.4h-.7v-2.5c0-.4 0-.7-.2-1-.2-.1-.4-.3-.7-.3-.3 0-.6.2-.8.4-.2.3-.2.6-.2 1v2.4h-.7V230h.7v.6l.5-.5c.2-.2.5-.2.8-.2a1.2 1.2 0 0 1 1.2.8l.5-.6.8-.2c.5 0 .9.1 1 .4.3.3.4.7.4 1.3v2.6Zm8.8-4.2-1.2 4.2h-.7l-.9-3v-.4l-.1.2v.2l-1 3h-.7L348 230h.7l.8 3.1v.4h.1a2.3 2.3 0 0 1 0-.4l1-3.1h.7l.8 3.1v.2l.1.2a2.1 2.1 0 0 1 .1-.4l.9-3.1h.6Zm4.2 2.2h-3c0 .5.1.9.4 1.1.2.3.5.4 1 .4l.5-.1.6-.3.3.4-.7.4-.8.2a2 2 0 0 1-1.5-.6c-.3-.4-.5-.9-.5-1.6 0-.6.2-1.2.5-1.6.4-.4.9-.6 1.4-.6.6 0 1 .2 1.3.5.3.4.5.9.5 1.5v.3Zm-.7-.5c0-.4-.1-.7-.3-1a1 1 0 0 0-.8-.3c-.3 0-.6.2-.8.4-.2.2-.4.5-.4.9h2.3Zm2.3 2v.5h-.6V228h.6v2.7c.2-.3.4-.5.7-.6l.8-.2c.5 0 1 .2 1.3.5.3.4.4 1 .4 1.6 0 .7-.2 1.2-.5 1.6-.3.5-.8.7-1.4.7-.3 0-.5 0-.7-.2l-.6-.5Zm0-1.8v.6c0 .3.1.6.4.8.2.3.5.4.8.4.4 0 .8-.2 1-.5.2-.3.3-.7.3-1.2s0-.9-.3-1.2a1 1 0 0 0-.9-.3c-.4 0-.7 0-1 .4-.2.2-.3.6-.3 1Zm-202.2 14.8a1.7 1.7 0 0 1-.7.1 1 1 0 0 1-.8-.3c-.2-.2-.3-.4-.3-.8v-2.6h-.7v-.6h.7v-1l.7-.2v1.2h1v.6h-1v3l.5.2h.2l.2-.1.2.5Zm3-3.6h-.4a1 1 0 0 0-.8.4 2 2 0 0 0-.3 1.1v2.1h-.7v-4.2h.7v.9l.5-.7c.2-.2.4-.2.6-.2a1.4 1.4 0 0 1 .4 0v.6Zm3.7 3.6h-.6v-.6l-.6.5c-.2.2-.4.2-.7.2-.4 0-.7 0-1-.3-.2-.2-.3-.5-.3-1 0-.3 0-.6.3-.8l1-.5 1.3-.1v-.1c0-.4-.1-.6-.3-.8a1 1 0 0 0-.6-.2l-.7.1-.5.4-.4-.4a2.2 2.2 0 0 1 1.6-.7c.5 0 .9.2 1.1.4.3.3.4.7.4 1.2v2.7Zm-.6-1.7v-.4l-1 .2c-.4 0-.6 0-.8.2l-.2.5.2.6.6.2c.3 0 .6-.1.8-.4.3-.2.4-.5.4-.9Zm5 1.4a2 2 0 0 1-1.3.4 2 2 0 0 1-1.5-.5 2 2 0 0 1-.6-1.6c0-.7.2-1.2.6-1.6a2 2 0 0 1 1.6-.7 2.2 2.2 0 0 1 1.2.4l-.3.5a1.7 1.7 0 0 0-1-.3c-.4 0-.8.2-1 .5-.3.3-.4.7-.4 1.2s.1.9.4 1.1c.3.3.6.5 1 .5a1.5 1.5 0 0 0 .9-.3l.3.4Zm4.3.3h-1l-1.8-2v2h-.7v-6.2h.7v4l1.8-2h.9l-2 2 2.1 2.2Zm4-2H174c0 .6.1 1 .4 1.2.2.2.6.4 1 .4l.6-.1.5-.3.4.4-.8.4-.8.1a2 2 0 0 1-1.4-.5c-.4-.4-.6-1-.6-1.6 0-.7.2-1.2.6-1.6.3-.4.8-.7 1.4-.7.5 0 1 .2 1.2.6.3.3.5.8.5 1.5v.3Zm-.6-.5-.3-.9a1 1 0 0 0-.8-.3c-.3 0-.6.1-.8.3l-.4 1h2.3Zm3.8-1-.2-.1h-.2a1 1 0 0 0-.8.4 2 2 0 0 0-.2 1.1v2.1h-.7v-4.2h.7v.9c0-.3.2-.5.4-.7.2-.2.4-.2.7-.2a1.4 1.4 0 0 1 .4 0l-.1.6Zm.4 3.1.4-.4.5.3h.6l.6-.1c.2-.1.2-.3.2-.5 0-.1 0-.3-.2-.4l-.6-.3c-.5-.1-.9-.3-1-.5a1 1 0 0 1-.3-.7c0-.4 0-.7.4-1 .2-.1.6-.3 1-.3l.7.1.6.4-.3.5-.5-.3h-.5a1 1 0 0 0-.6 0l-.2.5c0 .2 0 .3.2.4l.7.3c.4 0 .8.3 1 .5.2.2.3.4.3.8s-.2.7-.4.9a2.3 2.3 0 0 1-2.5-.1Z"/><path fill="#5B5B5B" d="M378.5 210.3v39.5h1.2v-39.5h-1.2Z"/><path fill="#67B279" d="M407.2 211.5h-12a6 6 0 1 0 0 12h12a6 6 0 1 0 0-12Z"/><path fill="#fff" d="M412 217.5a4.8 4.8 0 1 0-9.6 0 4.8 4.8 0 0 0 9.6 0Z"/><path stroke="#67B279" stroke-linecap="round" stroke-linejoin="round" d="M143.3 272.7c0-.7-.5-1.2-1.2-1.2h-8.3c-.7 0-1.2.5-1.2 1.2v5.4c0 .6.5 1.2 1.2 1.2h5.4l2.4 2.6v-2.6h.5c.7 0 1.2-.6 1.2-1.2v-5.4Z" clip-rule="evenodd"/><path stroke="#67B279" stroke-linecap="round" stroke-linejoin="round" d="M138 273.5v2M138 277.1v-.1"/><path fill="#E4E4E4" d="m154.8 280.3 2.5-6.7h1.2l2.5 6.7h-1.2l-.6-1.6h-2.7l-.5 1.6h-1.2Zm2-2.5h2.1l-.9-2.7a7.3 7.3 0 0 1 0-.4h-.1v.2l-.1.2-1 2.7Zm9.3 2.5h-1v-2.7c0-.4-.2-.7-.3-1-.2-.2-.4-.3-.8-.3a1 1 0 0 0-.8.4c-.2.2-.3.5-.3 1v2.6h-1v-4.7h1v.7a1.8 1.8 0 0 1 1.6-.9c.5 0 .9.2 1.2.5.3.4.4.9.4 1.5v3Zm5.6 0h-1.1v-2.7c0-.4-.1-.7-.3-1-.1-.2-.4-.3-.7-.3a1 1 0 0 0-.8.4c-.2.2-.3.5-.3 1v2.6h-1.1v-4.7h1v.7h.1a1.8 1.8 0 0 1 1.6-.9c.5 0 .9.2 1.1.5.3.4.5.9.5 1.5v3Zm3.4.1c-.8 0-1.3-.2-1.8-.6-.4-.5-.6-1-.6-1.8s.2-1.4.6-1.9c.5-.4 1.1-.7 1.9-.7.7 0 1.3.3 1.8.7.4.5.6 1 .6 1.8s-.2 1.4-.7 1.9c-.4.4-1 .6-1.8.6Zm0-.8c.5 0 .8-.2 1-.4.3-.3.4-.7.4-1.3 0-.5-.1-.9-.4-1.2-.2-.3-.5-.4-1-.4-.4 0-.7.2-1 .5-.2.2-.3.6-.3 1.2 0 .5 0 .9.3 1.2.3.2.6.4 1 .4Zm7.8-4-2.2 5.6c-.2.5-.4.8-.7 1-.3.3-.7.4-1 .4a2 2 0 0 1-.8-.1l.3-.9.1.1h.2l.5-.1.3-.4.3-.9-1.9-4.7h1.2l1.2 3.3a4.3 4.3 0 0 1 0 .5l.1-.3.1-.2 1.2-3.3h1Zm4.3 4.7h-1v-.7l-.6.6c-.3.2-.5.2-.9.2s-.7 0-1-.3c-.3-.3-.5-.6-.5-1 0-.5.2-.9.5-1.1.3-.3.7-.5 1.2-.5l1.3-.2v-.1c0-.4 0-.6-.3-.7a1 1 0 0 0-.6-.3c-.3 0-.5 0-.7.2a2 2 0 0 0-.6.4l-.6-.6.9-.6 1-.2c.7 0 1.2.2 1.5.5.3.3.4.8.4 1.4v3Zm-1-2v-.3l-1 .1c-.3 0-.6.2-.7.3-.2.1-.2.3-.2.5s0 .4.2.5c.1.2.3.2.5.2.4 0 .7 0 .9-.3.2-.3.3-.5.3-1Zm6.6 2h-1v-2.7c0-.4-.1-.7-.3-1-.2-.2-.4-.3-.7-.3a1 1 0 0 0-.8.4c-.2.2-.3.5-.3 1v2.6h-1.1v-4.7h1v.7a1.8 1.8 0 0 1 1.6-.9c.6 0 1 .2 1.2.5.3.4.4.9.4 1.5v3Zm5-.4a2.4 2.4 0 0 1-1.5.5c-.8 0-1.4-.2-1.8-.6-.4-.4-.7-1-.7-1.8s.3-1.4.7-1.9c.5-.4 1-.7 1.8-.7.4 0 .6 0 .9.2l.7.4-.5.6a1.6 1.6 0 0 0-1-.3c-.5 0-.8.2-1 .5-.3.3-.5.7-.5 1.2s.2.9.4 1.2c.3.2.6.4 1 .4a1.6 1.6 0 0 0 1-.4l.5.7Zm5-1.7h-3.3c0 .5.2.8.4 1 .3.3.6.4 1 .4l.6-.1.7-.4.5.6a3 3 0 0 1-.8.6 3 3 0 0 1-1 .1c-.8 0-1.4-.2-1.8-.6-.4-.4-.6-1-.7-1.8 0-.8.3-1.4.7-1.9.4-.4 1-.7 1.6-.7a2 2 0 0 1 1.6.6c.3.4.5 1 .5 1.8v.4Zm-1-.7c0-.4-.1-.7-.3-1a1 1 0 0 0-.8-.3 1 1 0 0 0-.8.4c-.2.2-.3.5-.4.9h2.3Zm5.7 2.3v.5h-1.1v-7h1v3h.1c.2-.3.4-.5.7-.6a2 2 0 0 1 1-.3c.5 0 1 .3 1.4.7.3.4.5 1 .5 1.7a3 3 0 0 1-.6 2 2 2 0 0 1-1.6.6l-.8-.1-.6-.5Zm0-2v.5c0 .4 0 .7.3 1 .2.2.5.3.9.3s.7-.2 1-.5c.1-.3.3-.7.3-1.3 0-.5-.2-.8-.4-1.1a1 1 0 0 0-.8-.4c-.4 0-.7.1-1 .4-.2.3-.3.6-.3 1Zm4.7 2.5v-7h1v7h-1Zm4.6.1c-.8 0-1.4-.2-1.8-.6-.4-.5-.7-1-.7-1.8s.3-1.4.7-1.9c.5-.4 1.1-.7 1.9-.7.7 0 1.3.3 1.7.7.5.5.7 1 .7 1.8s-.2 1.4-.7 1.9c-.4.4-1 .6-1.8.6Zm0-.8c.5 0 .8-.2 1-.4.3-.3.4-.7.4-1.3 0-.5-.1-.9-.4-1.2-.2-.3-.5-.4-1-.4-.4 0-.7.2-1 .5-.2.2-.4.6-.4 1.2 0 .5.2.9.4 1.2.3.2.6.4 1 .4Zm7.2.3a2.4 2.4 0 0 1-1.5.5c-.8 0-1.3-.2-1.8-.6-.4-.4-.6-1-.6-1.8s.2-1.4.6-1.9c.5-.4 1.1-.7 1.9-.7.3 0 .5 0 .8.2l.7.4-.5.6a1.6 1.6 0 0 0-1-.3c-.5 0-.8.2-1 .5-.3.3-.4.7-.4 1.2s0 .9.4 1.2c.2.2.6.4 1 .4a1.6 1.6 0 0 0 1-.4l.4.7Zm5.3.4H228l-1.8-2.3v2.3H225v-7h1v4.4l1.8-2.1h1.4l-2 2.2 2.1 2.5Zm1.3-5.7c-.2 0-.4 0-.5-.2a.6.6 0 0 1-.2-.4c0-.2 0-.4.2-.5l.5-.2c.2 0 .3 0 .5.2l.2.5-.2.4c-.2.2-.3.2-.5.2Zm.5 5.7h-1v-4.7h1v4.7Zm5.7 0h-1.1v-2.7c0-.4-.1-.7-.3-1-.1-.2-.4-.3-.7-.3a1 1 0 0 0-.8.4c-.2.2-.3.5-.3 1v2.6h-1.1v-4.7h1v.7h.1a1.8 1.8 0 0 1 1.6-.9c.5 0 .9.2 1.2.5.2.4.4.9.4 1.5v3Zm5.6-.3c0 .8-.2 1.4-.6 1.9-.5.5-1.1.7-2 .7a3.6 3.6 0 0 1-1.9-.5l.5-.8c.2.2.4.3.7.3l.7.1c.5 0 .9-.1 1.2-.4.2-.3.4-.6.4-1.2v-.5l-.7.6c-.3.2-.6.2-1 .2-.5 0-1-.2-1.4-.6-.4-.4-.5-1-.5-1.7 0-.8.2-1.5.6-2a2 2 0 0 1 1.6-.7l.8.2.5.5v-.5h1.1v4.4Zm-1-1.9v-.5c0-.4-.2-.7-.4-1-.2-.2-.5-.3-.8-.3-.4 0-.8.2-1 .4a2 2 0 0 0-.3 1.3c0 .5 0 .9.3 1.2.2.2.5.4.9.4s.7-.2 1-.4l.3-1Z"/><path fill="#D2D2D2" d="M155.5 292.9V287h1.6c.6 0 1 .2 1.3.4.2.2.4.6.4 1 0 .3-.1.6-.3.8-.2.3-.4.5-.7.6.4 0 .7.2 1 .4.2.3.3.6.3 1 0 .5-.2 1-.6 1.2a2 2 0 0 1-1.3.5h-1.7Zm.7-5.2v1.9h.7c.3 0 .6-.1.8-.3.3-.2.4-.5.4-.8 0-.3-.1-.5-.3-.6-.2-.2-.5-.2-.8-.2h-.8Zm0 2.5v2h.9c.4 0 .7 0 1-.2.1-.2.3-.5.3-.8 0-.3-.2-.6-.4-.8l-1-.2h-.8Zm4 2.7v-6.2h.6v6.2h-.6Zm3.7.1a2 2 0 0 1-1.4-.6c-.4-.4-.6-.9-.6-1.5 0-.7.2-1.3.6-1.7a2 2 0 0 1 1.5-.6c.7 0 1.2.2 1.5.6.4.4.5 1 .5 1.6 0 .7-.2 1.2-.5 1.6a2 2 0 0 1-1.6.6Zm0-.6c.5 0 .9-.1 1-.4.3-.3.4-.7.4-1.2s0-1-.3-1.2c-.2-.3-.6-.4-1-.4s-.8.1-1 .4c-.3.3-.4.7-.4 1.2s.1 1 .4 1.2c.2.3.6.4 1 .4Zm6.2.2a2 2 0 0 1-1.3.4 2 2 0 0 1-1.4-.6 2 2 0 0 1-.6-1.5c0-.7.2-1.2.6-1.7a2 2 0 0 1 1.5-.6 2.2 2.2 0 0 1 1.3.4l-.3.5a1.7 1.7 0 0 0-1-.3c-.4 0-.8.1-1 .4-.3.4-.4.7-.4 1.2s.1 1 .4 1.2c.2.3.6.4 1 .4a1.5 1.5 0 0 0 .9-.3l.3.5Zm4.4.3h-1l-1.8-2v2h-.7v-6.2h.7v4l1.8-2h.9l-2 2 2.1 2.2Zm.3-.4.4-.5c.1.2.3.3.5.3l.6.1.6-.1c.2-.1.2-.3.2-.5s0-.3-.2-.4c-.1-.2-.3-.3-.6-.3-.5-.2-.9-.3-1-.5a1 1 0 0 1-.4-.8c0-.3.2-.6.4-.8.3-.3.7-.4 1.1-.4l.7.1c.2 0 .4.2.6.4l-.4.4-.4-.2-.5-.1a1 1 0 0 0-.6.1c-.2.1-.2.3-.2.5 0 .1 0 .3.2.4l.7.3c.4 0 .7.2 1 .4.2.2.3.5.3.8 0 .4-.2.7-.4 1-.3.2-.7.3-1.2.3a2.3 2.3 0 0 1-1.4-.5Zm9.6-1.5h-3c0 .4.2.8.4 1 .2.3.6.4 1 .4h.6l.5-.4.4.5-.7.4-.9.1a2 2 0 0 1-1.4-.6c-.4-.3-.6-.9-.6-1.5 0-.7.2-1.3.6-1.7.3-.4.8-.6 1.4-.6.5 0 1 .2 1.3.5.3.4.4.9.4 1.5v.4Zm-.7-.6c0-.4 0-.7-.3-.9a1 1 0 0 0-.7-.3c-.4 0-.6.1-.9.3-.2.2-.3.5-.4.9h2.3Zm1.7 2.5v-6.2h.7v6.2h-.7Zm5.4-2h-3c0 .5.2.9.4 1.2.2.2.6.3 1 .3h.6l.5-.4.4.5-.7.4-.9.1a2 2 0 0 1-1.4-.6c-.4-.3-.6-.9-.6-1.5 0-.7.2-1.3.6-1.7.3-.4.8-.6 1.4-.6.5 0 1 .2 1.2.5.3.4.5.9.5 1.5v.4Zm-.7-.5c0-.4 0-.7-.3-.9a1 1 0 0 0-.7-.3c-.4 0-.6.1-.9.3-.2.2-.3.5-.4.9h2.3Zm7.6 2.5h-.6v-2.4c0-.5 0-.8-.2-1-.2-.2-.4-.3-.8-.3-.2 0-.5.1-.7.4-.2.2-.3.5-.3 1v2.3h-.7v-2.5c0-.4 0-.7-.2-1l-.7-.2c-.3 0-.6.1-.7.4-.2.2-.3.5-.3 1v2.3h-.7v-4.2h.7v.7c.1-.3.3-.5.5-.6l.8-.2a1.2 1.2 0 0 1 1.2.9c.1-.3.3-.5.6-.7l.8-.2c.4 0 .8.2 1 .4.2.3.3.8.3 1.3v2.6Zm4.7-2h-3c0 .5.1.9.4 1.2.2.2.6.3 1 .3h.6l.5-.4.4.5-.8.4-.8.1a2 2 0 0 1-1.4-.6c-.4-.3-.6-.9-.6-1.5 0-.7.2-1.3.6-1.7.3-.4.8-.6 1.3-.6.6 0 1 .2 1.3.5.3.4.5.9.5 1.5v.4Zm-.7-.5c0-.4-.1-.7-.3-.9a1 1 0 0 0-.8-.3c-.3 0-.6.1-.8.3-.2.2-.3.5-.4.9h2.3Zm5.2 2.5h-.7v-2.4c0-.4 0-.8-.3-1-.1-.2-.4-.3-.7-.3a1 1 0 0 0-.8.4c-.2.2-.3.5-.3 1v2.3h-.7v-4.2h.7v.7c.1-.3.3-.5.6-.6l.7-.2c.5 0 .9.2 1.1.5.2.3.4.7.4 1.2v2.6Zm3.2 0a1.6 1.6 0 0 1-.7 0 1 1 0 0 1-.8-.2c-.2-.2-.3-.5-.3-.9v-2.5h-.7v-.6h.7v-1l.7-.2v1.2h1v.6h-1v2.5l.1.5.4.1h.4l.2.4Zm.5-.4.4-.5c.1.2.3.3.5.3l.5.1.7-.1.2-.5c0-.2 0-.3-.2-.4-.1-.2-.3-.3-.6-.3-.5-.2-.9-.3-1-.5a1 1 0 0 1-.4-.8c0-.3.2-.6.4-.8.3-.3.6-.4 1-.4l.7.1c.3 0 .5.2.7.4l-.4.4-.5-.2-.4-.1a1 1 0 0 0-.6.1c-.2.1-.3.3-.3.5l.3.4.7.3c.4 0 .7.2 1 .4l.2.8c0 .4 0 .7-.4 1-.2.2-.6.3-1 .3a2.3 2.3 0 0 1-1.5-.5Zm5.8 0 .4-.5c.2.2.3.3.5.3l.6.1.6-.1c.2-.1.2-.3.2-.5s0-.3-.2-.4c0-.2-.3-.3-.6-.3-.5-.2-.9-.3-1-.5a1 1 0 0 1-.3-.8c0-.3 0-.6.3-.8.3-.3.7-.4 1.1-.4l.7.1c.2 0 .4.2.6.4l-.3.4-.5-.2-.5-.1a1 1 0 0 0-.6.1l-.2.5c0 .1 0 .3.2.4l.7.3c.4 0 .7.2 1 .4.2.2.3.5.3.8 0 .4-.2.7-.4 1a2.3 2.3 0 0 1-2.5-.1Zm7.4.4h-.7v-.7c-.1.3-.3.5-.5.6l-.8.2c-.5 0-.9-.1-1.1-.4-.3-.3-.4-.8-.4-1.4v-2.5h.7v2.4c0 .5 0 .8.2 1 .2.2.4.3.8.3.3 0 .6 0 .8-.3.2-.3.3-.6.3-1v-2.4h.7v4.2Zm4.3-.3a2 2 0 0 1-1.2.4 2 2 0 0 1-1.5-.6 2 2 0 0 1-.6-1.5c0-.7.2-1.2.6-1.7a2 2 0 0 1 1.6-.6 2.2 2.2 0 0 1 1.2.4l-.3.5-.5-.2-.5-.1c-.4 0-.8.1-1 .4-.3.4-.4.7-.4 1.2s.1 1 .4 1.2c.3.3.6.4 1 .4a1.5 1.5 0 0 0 .9-.3l.3.5Zm4.4.3h-.6v-2.4c0-.5-.1-.8-.3-1-.1-.2-.4-.3-.7-.3a1 1 0 0 0-.8.4c-.3.2-.4.5-.4 1v2.3h-.6v-6.2h.6v2.7l.6-.6.8-.2c.5 0 .8.2 1 .4.3.3.4.8.4 1.3v2.6Zm6.5 0h-.7v-.6l-.5.5-.8.2c-.4 0-.7-.1-1-.3-.2-.3-.3-.6-.3-1 0-.3.1-.6.4-.8.2-.3.6-.4 1-.5l1.2-.1v-.2c0-.3 0-.5-.2-.7a1 1 0 0 0-.7-.2l-.6.1-.5.4-.5-.4a2.2 2.2 0 0 1 1.7-.7c.5 0 .9.1 1.1.4.3.3.4.7.4 1.2v2.7Zm-.7-1.7v-.4l-1 .1c-.3 0-.5.2-.7.3l-.2.5c0 .2 0 .4.2.6l.5.2c.4 0 .7-.2.9-.4.2-.2.3-.5.3-.9Zm1.6 1.3.4-.5c.1.2.3.3.5.3l.5.1.7-.1.2-.5c0-.2 0-.3-.2-.4-.1-.2-.3-.3-.6-.3-.5-.2-.9-.3-1-.5a1 1 0 0 1-.4-.8c0-.3.2-.6.4-.8.3-.3.6-.4 1-.4l.7.1c.3 0 .5.2.7.4l-.4.4-.5-.2-.4-.1a1 1 0 0 0-.6.1c-.2.1-.3.3-.3.5l.3.4.7.3c.4 0 .7.2 1 .4l.2.8c0 .4 0 .7-.4 1-.2.2-.6.3-1 .3a2.3 2.3 0 0 1-1.5-.5Zm9.2.1a2 2 0 0 1-1.2.4 2 2 0 0 1-1.5-.6 2 2 0 0 1-.6-1.5c0-.7.2-1.2.6-1.7a2 2 0 0 1 1.6-.6 2.2 2.2 0 0 1 1.2.4l-.3.5-.5-.2-.5-.1c-.4 0-.8.1-1 .4-.3.4-.4.7-.4 1.2s.1 1 .4 1.2c.3.3.6.4 1 .4a1.5 1.5 0 0 0 .9-.3l.3.5Zm2.7.4a2 2 0 0 1-1.5-.6c-.4-.4-.5-.9-.5-1.5 0-.7.1-1.3.5-1.7a2 2 0 0 1 1.6-.6c.6 0 1.1.2 1.5.6.3.4.5 1 .5 1.6 0 .7-.2 1.2-.6 1.6a2 2 0 0 1-1.5.6Zm0-.6c.5 0 .8-.1 1-.4.3-.3.4-.7.4-1.2s-.1-1-.4-1.2c-.2-.3-.5-.4-1-.4-.4 0-.7.1-1 .4-.2.3-.4.7-.4 1.2s.2 1 .4 1.2c.3.3.6.4 1 .4Zm5 .6a2 2 0 0 1-1.6-.6c-.4-.4-.5-.9-.5-1.5 0-.7.2-1.3.5-1.7a2 2 0 0 1 1.6-.6c.6 0 1.1.2 1.5.6.3.4.5 1 .5 1.6 0 .7-.2 1.2-.6 1.6a2 2 0 0 1-1.5.6Zm0-.6c.4 0 .7-.1 1-.4.2-.3.3-.7.3-1.2s-.1-1-.3-1.2c-.3-.3-.6-.4-1-.4-.5 0-.8.1-1 .4-.3.3-.4.7-.4 1.2s0 1 .3 1.2c.3.3.6.4 1 .4Zm6.5.5h-1l-1.8-2v2h-.6v-6.2h.6v4l1.8-2h.9l-2 2 2.1 2.2Zm1-5.2-.3-.1-.1-.4.1-.3.4-.1.3.1.1.3v.4l-.4.1Zm.4 5.2h-.7v-4.2h.7v4.2Zm4.7-2h-3c0 .5.2.9.4 1.2.3.2.6.3 1 .3h.6l.5-.4.4.5-.7.4-.8.1a2 2 0 0 1-1.5-.6c-.4-.3-.5-.9-.5-1.5 0-.7.1-1.3.5-1.7.3-.4.8-.6 1.4-.6.5 0 1 .2 1.3.5.3.4.4.9.4 1.5v.4Zm-.7-.5c0-.4 0-.7-.3-.9a1 1 0 0 0-.7-.3c-.3 0-.6.1-.8.3-.3.2-.4.5-.4.9h2.2Zm7.4 2.5h-.6v-2.4c0-.4-.1-.8-.3-1-.1-.2-.4-.3-.7-.3a1 1 0 0 0-.8.4c-.3.2-.4.5-.4 1v2.3h-.6v-4.2h.6v.7l.6-.6.8-.2c.5 0 .8.2 1 .5.3.3.4.7.4 1.2v2.6Zm3 .1a2 2 0 0 1-1.4-.6c-.4-.4-.6-.9-.6-1.5 0-.7.2-1.3.6-1.7a2 2 0 0 1 1.5-.6c.7 0 1.2.2 1.5.6.4.4.5 1 .5 1.6 0 .7-.1 1.2-.5 1.6a2 2 0 0 1-1.5.6Zm.1-.6c.4 0 .8-.1 1-.4.2-.3.4-.7.4-1.2s-.2-1-.4-1.2c-.2-.3-.6-.4-1-.4s-.8.1-1 .4c-.3.3-.4.7-.4 1.2s.1 1 .4 1.2c.2.3.6.4 1 .4Zm5.1.4a1.6 1.6 0 0 1-.7.2 1 1 0 0 1-.8-.3c-.2-.2-.3-.5-.3-.9v-2.5h-.7v-.6h.7v-1l.7-.2v1.2h1v.6h-1v2.5l.1.5.4.1h.4l.2.4Zm1.2-5-.3-.2-.2-.4s0-.2.2-.3l.3-.1.4.1v.7l-.4.1Zm.3 5.1h-.6v-4.2h.6v4.2Zm4.4-.3a2 2 0 0 1-1.3.4 2 2 0 0 1-1.4-.6 2 2 0 0 1-.6-1.5c0-.7.2-1.2.6-1.7a2 2 0 0 1 1.5-.6 2.2 2.2 0 0 1 1.3.4l-.3.5-.5-.2-.5-.1c-.4 0-.8.1-1 .4-.3.4-.4.7-.4 1.2s.1 1 .4 1.2c.2.3.6.4 1 .4a1.5 1.5 0 0 0 .9-.3l.3.5Zm4.3-1.6h-3c0 .4.2.8.4 1 .2.3.6.4 1 .4h.6l.5-.4.4.5-.7.4-.9.1a2 2 0 0 1-1.4-.6c-.4-.3-.6-.9-.6-1.5 0-.7.2-1.3.6-1.7.3-.4.8-.6 1.4-.6.5 0 1 .2 1.2.5.3.4.5.9.5 1.5v.4Zm-.7-.6c0-.4 0-.7-.3-.9a1 1 0 0 0-.8-.3c-.3 0-.5.1-.8.3-.2.2-.3.5-.4.9h2.3Zm1.3 2.1.4-.5c.1.2.3.3.5.3l.6.1.6-.1c.2-.1.2-.3.2-.5s0-.3-.2-.4c-.1-.2-.3-.3-.6-.3-.5-.2-.9-.3-1-.5a1 1 0 0 1-.4-.8c0-.3.2-.6.4-.8.3-.3.7-.4 1.1-.4l.7.1c.2 0 .4.2.6.4l-.4.4-.4-.2-.5-.1a1 1 0 0 0-.6.1c-.2.1-.2.3-.2.5 0 .1 0 .3.2.4l.7.3c.4 0 .7.2 1 .4.2.2.3.5.3.8 0 .4-.2.7-.4 1-.3.2-.7.3-1.2.3a2.3 2.3 0 0 1-1.4-.5Zm8 .5a2 2 0 0 1-1.5-.6c-.4-.4-.6-.9-.6-1.5 0-.7.2-1.3.6-1.7a2 2 0 0 1 1.6-.6c.6 0 1 .2 1.4.6.4.4.6 1 .6 1.6 0 .7-.2 1.2-.6 1.6a2 2 0 0 1-1.5.6Zm0-.6c.5 0 .8-.1 1-.4.3-.3.4-.7.4-1.2s-.1-1-.4-1.2c-.2-.3-.5-.4-1-.4-.4 0-.7.1-1 .4-.2.3-.4.7-.4 1.2s.2 1 .4 1.2c.3.3.6.4 1 .4Zm5.2-3.1a.9.9 0 0 0-.3 0 1 1 0 0 0-.8.4 2 2 0 0 0-.3 1v2.2h-.7v-4.2h.7v.8c.1-.3.3-.5.5-.6l.6-.3a1.3 1.3 0 0 1 .4.1v.6Zm3.5-1.6-.4-.1-.1-.4.1-.3.4-.1.3.1.1.3-.1.4-.3.1Zm.3 5.2h-.7v-4.2h.7v4.2Zm4.8 0h-.7v-2.4c0-.4 0-.8-.2-1-.2-.2-.4-.3-.7-.3a1 1 0 0 0-.9.4c-.2.2-.3.5-.3 1v2.3h-.7v-4.2h.7v.7l.6-.6.8-.2c.5 0 .8.2 1 .5.3.3.4.7.4 1.2v2.6Zm1.2-2v-.6h2.2v.5h-2.2Zm4 1.4v2.5h-.6v-6h.7v.6l.6-.6.8-.2c.6 0 1 .2 1.3.6.3.4.5.9.5 1.5 0 .7-.2 1.2-.5 1.7-.4.4-.9.6-1.4.6-.3 0-.6 0-.8-.2-.2 0-.4-.3-.5-.5Zm0-1.7v.6c0 .3.2.6.4.9.2.2.5.3.9.3s.7-.1 1-.4c.2-.3.3-.8.3-1.3s-.1-.9-.3-1.1a1 1 0 0 0-1-.4c-.3 0-.6.1-.9.4-.2.3-.3.6-.3 1Zm7.3 2.3h-.7v-.6l-.5.5-.8.2c-.4 0-.7-.1-1-.3-.2-.3-.3-.6-.3-1 0-.3.1-.6.4-.8.2-.3.6-.4 1-.5l1.2-.1v-.2c0-.3 0-.5-.2-.7a1 1 0 0 0-.7-.2l-.6.1-.6.4-.4-.4a2.2 2.2 0 0 1 1.7-.7c.5 0 .8.1 1.1.4.3.3.4.7.4 1.2v2.7Zm-.7-1.7v-.4l-1 .1c-.3 0-.5.2-.7.3l-.2.5c0 .2 0 .4.2.6l.5.2c.4 0 .7-.2.9-.4.2-.2.3-.5.3-.9Zm5.6 1.5c0 .7-.2 1.3-.6 1.6a2 2 0 0 1-1.5.6 3.3 3.3 0 0 1-1.6-.4l.2-.5a2.7 2.7 0 0 0 1.4.3c.4 0 .8-.1 1-.4.3-.2.4-.6.4-1.1v-.6l-.6.6-.9.2c-.5 0-1-.2-1.2-.6-.4-.3-.5-.8-.5-1.5s.2-1.2.5-1.6c.4-.5.8-.7 1.4-.7.3 0 .5 0 .7.2.3 0 .4.3.6.5v-.6h.7v4Zm-.7-1.7v-.6c0-.3-.1-.6-.4-.9-.2-.2-.5-.3-.8-.3-.4 0-.7.1-1 .4-.2.3-.3.7-.3 1.3 0 .5 0 .9.3 1.1.2.3.5.4 1 .4.3 0 .6-.1.8-.4.3-.2.4-.6.4-1Zm5.4 0h-3c0 .4.1.8.4 1 .2.3.6.4 1 .4h.5l.6-.4.3.5-.7.4-.8.1a2 2 0 0 1-1.4-.6c-.4-.3-.6-.9-.6-1.5 0-.7.2-1.3.6-1.7.3-.4.8-.6 1.3-.6.6 0 1 .2 1.3.5.3.4.5.9.5 1.5v.4Zm-.7-.6c0-.4-.1-.7-.3-.9a1 1 0 0 0-.8-.3c-.3 0-.6.1-.8.3-.2.2-.3.5-.4.9h2.3ZM156 304.9v2.5h-.7v-6.1h.6v.7c.2-.3.4-.5.7-.6.2-.2.5-.2.8-.2.6 0 1 .2 1.3.5.3.4.4 1 .4 1.6 0 .7-.1 1.2-.5 1.6-.3.5-.8.7-1.4.7-.2 0-.5 0-.7-.2l-.5-.5Zm0-1.7v.6c0 .3 0 .6.3.8.2.3.5.4.9.4s.7-.2.9-.5c.2-.3.4-.7.4-1.3 0-.4-.2-.8-.4-1a1 1 0 0 0-.8-.5c-.4 0-.8.2-1 .5-.2.2-.4.6-.4 1Zm6 2.4a2 2 0 0 1-1.5-.6c-.4-.4-.6-1-.6-1.6 0-.7.2-1.2.6-1.6a2 2 0 0 1 1.6-.6c.6 0 1 .2 1.4.6.4.3.5.9.5 1.6 0 .6-.1 1.2-.5 1.6a2 2 0 0 1-1.5.6Zm0-.6c.4 0 .8-.1 1-.4.2-.3.4-.7.4-1.2s-.2-1-.4-1.2c-.2-.3-.6-.5-1-.5s-.8.2-1 .5c-.3.3-.4.7-.4 1.2s.1.9.4 1.2c.2.3.6.4 1 .4Zm3.8-.1v2.5h-.7v-6.1h.7v.7l.6-.6c.2-.2.5-.2.8-.2.6 0 1 .2 1.3.5.3.4.5 1 .5 1.6 0 .7-.2 1.2-.5 1.6-.4.5-.8.7-1.4.7-.3 0-.6 0-.8-.2l-.5-.5Zm0-1.7v.6c0 .3 0 .6.3.8.2.3.5.4.9.4s.7-.2 1-.5c.2-.3.3-.7.3-1.3 0-.4-.1-.8-.3-1a1 1 0 0 0-1-.5c-.3 0-.6.2-.9.5-.2.2-.3.6-.3 1Zm7.6 2.3h-.7v-.7c-.1.3-.3.4-.5.6l-.8.2c-.5 0-.8-.2-1-.5-.3-.3-.5-.7-.5-1.3v-2.5h.7v2.4c0 .4 0 .8.3 1 .1.2.4.3.7.3.3 0 .6-.1.8-.4.2-.2.3-.5.3-1v-2.3h.7v4.2Zm2-.6v2.5h-.6v-6.1h.6v.7c.2-.3.4-.5.7-.6.2-.2.5-.2.8-.2.5 0 1 .2 1.3.5.3.4.4 1 .4 1.6 0 .7-.1 1.2-.5 1.6-.3.5-.8.7-1.4.7-.3 0-.5 0-.7-.2l-.6-.5Zm0-1.7v.6c0 .3.1.6.4.8.2.3.5.4.8.4.4 0 .8-.2 1-.5.2-.3.3-.7.3-1.3 0-.4 0-.8-.3-1a1 1 0 0 0-.9-.5c-.4 0-.7.2-1 .5-.1.2-.3.6-.3 1Zm4 1.9.3-.5.5.3.5.1c.3 0 .5 0 .7-.2l.2-.4c0-.2 0-.4-.2-.5l-.6-.3c-.5 0-.9-.3-1-.5a1 1 0 0 1-.4-.7c0-.4.2-.7.4-.9.3-.2.6-.3 1-.3h.8l.6.4-.4.5-.5-.3h-.4a1 1 0 0 0-.6.1c-.2.1-.2.2-.2.4s0 .4.2.4l.7.3 1 .5c.1.2.3.5.3.8 0 .4-.2.7-.5 1-.2.2-.6.3-1 .3a2.3 2.3 0 0 1-1.5-.5Z"/><path fill="#5B5B5B" d="M378.5 269v39.5h1.2V269h-1.2Z"/><path fill="#67B279" d="M407.2 270.2h-12a6 6 0 1 0 0 12h12a6 6 0 0 0 0-12Z"/><path fill="#fff" d="M412 276.1a4.8 4.8 0 1 0-9.6 0 4.8 4.8 0 0 0 9.6 0Z"/><path stroke="#67B279" stroke-linecap="round" stroke-linejoin="round" d="M142.1 335.4h-8.3c-.4 0-.6.2-.6.6v2.4c0 .3.2.6.6.6h8.3c.4 0 .6-.3.6-.6V336c0-.4-.2-.6-.6-.6ZM141 337.2h-.7M139.1 337.2h-.6M142.1 330.6h-8.3c-.4 0-.6.3-.6.6v2.4c0 .3.2.6.6.6h8.3c.4 0 .6-.3.6-.6v-2.4c0-.3-.2-.6-.6-.6Z"/><path fill="#E4E4E4" d="M155.5 339v-6.7h2.1c1.2 0 2 .2 2.7.8.6.5.9 1.3.9 2.4 0 1-.4 2-1 2.5-.7.7-1.5 1-2.6 1h-2Zm1.1-5.8v4.8h1c.7 0 1.3-.2 1.7-.6.5-.5.7-1 .7-1.8s-.2-1.4-.6-1.8c-.4-.4-1-.6-1.9-.6h-.9Zm11.5 5.8h-1.3l-3-4.9a9.4 9.4 0 0 1-.4-.4 5.5 5.5 0 0 1 0 1v4.3h-1v-6.7h1.3l3 4.7a9.5 9.5 0 0 1 .3.5v-5.2h1v6.7Zm1-.7.7-.8.8.5.8.1c.4 0 .7 0 1-.2.2-.2.3-.4.3-.7 0-.3-.1-.5-.3-.7-.2-.2-.5-.3-1-.4-.6-.2-1.1-.5-1.5-.8-.3-.3-.4-.7-.4-1.2 0-.6.2-1 .6-1.4.4-.4 1-.5 1.7-.5a3.3 3.3 0 0 1 1.8.6l-.5.7-.7-.3-.7-.1c-.4 0-.6 0-.8.2-.2.2-.3.4-.3.7 0 .2 0 .4.2.6l1 .4c.7.2 1.2.5 1.5.8.3.3.5.7.5 1.3 0 .6-.2 1-.6 1.4-.4.4-1 .6-1.8.6-.4 0-.8 0-1.2-.2-.4-.1-.7-.3-1-.6Zm9.4 0v2.9h-1v-7h1v.7c.2-.2.4-.5.7-.6.3-.2.6-.2 1-.2.5 0 1 .2 1.4.6.3.4.5 1 .5 1.7a3 3 0 0 1-.6 2 2 2 0 0 1-1.6.7c-.3 0-.6 0-.8-.2l-.6-.5Zm0-2v.6c0 .4.1.7.3 1 .3.2.5.3.9.3s.7-.1 1-.4c.2-.4.3-.8.3-1.3s-.1-1-.3-1.2a1 1 0 0 0-1-.4c-.3 0-.6.2-.9.4-.2.3-.3.7-.3 1Zm7.4-1.2a1.4 1.4 0 0 0-.4 0 1 1 0 0 0-1 .4l-.2 1.1v2.4h-1.1v-4.8h1v.9l.6-.7c.2-.2.5-.3.8-.3a1.5 1.5 0 0 1 .4 0l-.1 1Zm3 4c-.8 0-1.4-.2-1.9-.7-.4-.4-.6-1-.6-1.8s.2-1.4.6-1.8c.5-.5 1.1-.7 1.9-.7.7 0 1.3.2 1.8.6.4.5.6 1 .6 1.8s-.2 1.4-.7 1.9c-.4.5-1 .7-1.8.7Zm0-.9c.4 0 .7-.1 1-.4.2-.3.3-.7.3-1.2 0-.6-.1-1-.4-1.2-.2-.3-.5-.5-1-.5-.4 0-.7.2-1 .5-.2.3-.3.7-.3 1.2s0 1 .3 1.2c.3.3.6.4 1 .4Zm6.1.6-.4.2h-.5c-.5 0-.8 0-1-.3-.3-.2-.4-.6-.4-1V335h-.8v-.8h.8V333l1-.3v1.5h1.2v.8h-1.1v3.1l.5.1h.4l.3.6Zm4.9-2h-3.3c0 .5.2.9.4 1 .2.3.6.4 1 .4h.6l.6-.5.6.7a3 3 0 0 1-.9.5 3 3 0 0 1-1 .2c-.8 0-1.3-.2-1.8-.7-.4-.4-.6-1-.6-1.8 0-.7.2-1.3.7-1.8.4-.5 1-.7 1.6-.7a2 2 0 0 1 1.5.6c.4.4.6 1 .6 1.7v.5Zm-1-.7c0-.4-.2-.7-.3-1a1 1 0 0 0-.8-.2 1 1 0 0 0-.8.3c-.2.2-.3.5-.4.9h2.2Zm5.7 2.4a2.4 2.4 0 0 1-1.6.6c-.7 0-1.3-.2-1.7-.7-.5-.4-.7-1-.7-1.7 0-.8.2-1.5.7-2 .4-.4 1-.6 1.8-.6l.8.1c.3 0 .5.2.7.4l-.5.7a1.7 1.7 0 0 0-1-.4c-.4 0-.8.2-1 .5-.3.3-.4.7-.4 1.2s.1 1 .4 1.2c.3.3.6.4 1 .4a1.5 1.5 0 0 0 1-.3l.5.6Zm3.6.3-.5.2h-.5c-.4 0-.8 0-1-.3-.3-.2-.4-.6-.4-1V335h-.8v-.8h.8V333l1.1-.3v1.5h1.2v.8h-1.2v2.6l.1.5.4.1h.5l.3.6Zm1.4-5.5-.5-.2a.6.6 0 0 1-.2-.5c0-.2 0-.3.2-.5l.5-.2.5.2.2.5c0 .2 0 .4-.2.5l-.5.2Zm.5 5.7h-1v-4.8h1v4.8Zm3.6 0c-.8 0-1.4-.1-1.8-.6-.5-.4-.7-1-.7-1.8s.2-1.4.7-1.8c.5-.5 1-.7 1.8-.7s1.4.2 1.8.6c.4.5.6 1 .6 1.8s-.2 1.4-.6 1.9c-.5.5-1 .7-1.8.7Zm0-.8c.4 0 .8-.1 1-.4.2-.3.3-.7.3-1.2 0-.6 0-1-.3-1.2-.2-.3-.6-.5-1-.5s-.8.2-1 .5c-.3.3-.4.7-.4 1.2s.1 1 .4 1.2c.2.3.6.4 1 .4Zm7.8.8h-1v-2.8c0-.4-.2-.7-.3-1-.2-.1-.4-.3-.8-.3a1 1 0 0 0-.8.4c-.2.3-.3.6-.3 1v2.7h-1v-4.8h1v.7a1.8 1.8 0 0 1 1.6-.8c.5 0 1 .1 1.2.5.3.3.4.8.4 1.4v3Z"/><path fill="#D2D2D2" d="M156.2 349.4v2.1h-.7v-5.8h1.6a2 2 0 0 1 1.4.4c.4.3.6.8.6 1.4 0 .5-.2 1-.6 1.3-.4.4-1 .6-1.6.6h-.7Zm0-3.1v2.5h.7c.4 0 .8-.1 1-.4.3-.2.4-.5.4-1 0-.3 0-.6-.3-.8-.2-.2-.6-.3-1-.3h-.8Zm6 1.6a.9.9 0 0 0-.4 0 1 1 0 0 0-.8.4 2 2 0 0 0-.3 1.1v2.1h-.6v-4.2h.6v.9l.5-.7.7-.2a1.3 1.3 0 0 1 .4 0l-.2.6Zm2.5 3.7a2 2 0 0 1-1.4-.6c-.4-.3-.6-.9-.6-1.5 0-.7.2-1.3.6-1.6a2 2 0 0 1 1.5-.7c.7 0 1.1.2 1.5.6.4.4.5 1 .5 1.6 0 .7-.2 1.2-.5 1.6a2 2 0 0 1-1.6.6Zm0-.5c.5 0 .9-.2 1-.5.3-.2.4-.6.4-1.2 0-.5 0-.9-.3-1.2-.3-.2-.6-.4-1-.4s-.8.2-1 .5c-.3.3-.4.7-.4 1.2s.1.9.4 1.1c.2.3.6.5 1 .5Zm5.2.4h-.3l-.4.1a1 1 0 0 1-.8-.3c-.2-.2-.3-.4-.3-.8v-2.6h-.7v-.6h.7v-1l.7-.2v1.2h1v.6h-1v2.5l.1.5.4.2h.2l.2-.1.2.5Zm4.2-2h-3c0 .6.2 1 .4 1.2.3.2.6.4 1 .4l.6-.1.6-.3.3.4-.7.4-.8.1a2 2 0 0 1-1.5-.5c-.4-.4-.5-1-.5-1.6 0-.7.1-1.2.5-1.6.4-.4.8-.7 1.4-.7.5 0 1 .2 1.3.6.3.3.4.8.4 1.5v.3Zm-.7-.5c0-.3 0-.6-.2-.9a1 1 0 0 0-.8-.3c-.3 0-.6.1-.8.4-.3.2-.4.5-.4.8h2.2Zm4.7 2.2a2 2 0 0 1-1.2.4 2 2 0 0 1-1.5-.5 2 2 0 0 1-.6-1.6c0-.7.2-1.2.6-1.6a2 2 0 0 1 1.6-.7 2.2 2.2 0 0 1 1.2.4l-.3.5-.4-.2h-.5c-.5 0-.9 0-1.1.4-.2.3-.4.7-.4 1.2s.2.9.4 1.1c.3.3.6.5 1 .5a1.5 1.5 0 0 0 1-.3l.2.4Zm3 .3h-.4l-.4.1a1 1 0 0 1-.7-.3c-.2-.2-.3-.4-.3-.8v-2.6h-.7v-.6h.7v-1l.7-.2v1.2h1v.6h-1v3l.5.2h.2l.2-.1.2.5Zm.5-.4.3-.4.5.3h.6l.6-.1c.2-.1.3-.3.3-.5l-.2-.4-.7-.3c-.5-.1-.8-.3-1-.5a1 1 0 0 1-.3-.7c0-.4.1-.7.4-1 .2-.1.6-.3 1-.3.3 0 .5 0 .7.2l.6.3-.3.5-.5-.3h-.5a1 1 0 0 0-.6 0l-.2.5c0 .2 0 .3.2.4l.7.3 1 .5c.2.2.3.4.3.8s-.1.7-.4.9c-.3.2-.7.3-1.1.3a2.3 2.3 0 0 1-1.4-.5Zm9.5-3.8-2 5a2 2 0 0 1-.5 1l-.9.2a1.5 1.5 0 0 1-.4 0l.1-.6a.6.6 0 0 0 .3 0l.4-.1c.2-.1.3-.2.3-.4l.4-.9-1.6-4.2h.7l1.1 3.2a3.6 3.6 0 0 1 .1.4v-.2l.1-.2 1.2-3.2h.7Zm2.5 4.3a2 2 0 0 1-1.5-.6c-.4-.3-.6-.9-.6-1.5 0-.7.2-1.3.6-1.6a2 2 0 0 1 1.6-.7c.6 0 1.1.2 1.4.6.4.4.6 1 .6 1.6 0 .7-.2 1.2-.6 1.6a2 2 0 0 1-1.5.6Zm0-.5c.5 0 .8-.2 1-.5.3-.2.4-.6.4-1.2 0-.5-.1-.9-.4-1.2-.2-.2-.5-.4-1-.4-.4 0-.7.2-1 .5-.2.3-.4.7-.4 1.2s.2.9.4 1.1c.3.3.6.5 1 .5Zm6.5.4h-.6v-.6l-.6.5c-.2.2-.5.2-.8.2-.4 0-.8-.1-1-.4-.3-.3-.4-.8-.4-1.3v-2.6h.6v2.5c0 .4.1.7.3 1 .1.2.4.3.7.3.4 0 .6-.2.8-.4.3-.2.4-.6.4-1v-2.4h.6v4.2Zm5.6-5.6a1.2 1.2 0 0 0-.4 0l-.5.1-.2.5v.8h1v.6h-1v3.6h-.6V348h-.7v-.6h.7v-.8c0-.4 0-.7.3-1 .3-.1.6-.3 1-.3h.3l.3.1-.2.6Zm2.7 2a.9.9 0 0 0-.3 0 1 1 0 0 0-.8.4 2 2 0 0 0-.3 1.1v2.1h-.7v-4.2h.7v.9l.5-.7.6-.2a1.3 1.3 0 0 1 .5 0l-.2.6Zm2.6 3.7a2 2 0 0 1-1.5-.6c-.3-.3-.5-.9-.5-1.5 0-.7.2-1.3.6-1.6a2 2 0 0 1 1.5-.7c.6 0 1.1.2 1.5.6.3.4.5 1 .5 1.6 0 .7-.2 1.2-.5 1.6a2 2 0 0 1-1.6.6Zm0-.5c.5 0 .8-.2 1-.5.3-.2.4-.6.4-1.2 0-.5 0-.9-.3-1.2-.3-.2-.6-.4-1-.4-.5 0-.8.2-1 .5-.3.3-.4.7-.4 1.2s.1.9.4 1.1c.2.3.6.5 1 .5Zm9.1.4h-.6v-2.4c0-.4-.1-.8-.3-1-.1-.2-.3-.3-.7-.3-.3 0-.5.1-.7.4-.2.3-.3.6-.3 1v2.3h-.7V349c0-.4 0-.7-.2-.9-.2-.2-.4-.3-.7-.3-.3 0-.6.1-.8.4-.2.2-.2.6-.2 1v2.3h-.7v-4.2h.7v.7c.1-.3.3-.4.5-.6l.8-.2a1.2 1.2 0 0 1 1.2 1c.1-.4.3-.6.5-.7.3-.2.5-.3.8-.3.5 0 .9.2 1 .5.3.3.4.7.4 1.3v2.5Zm6.5 0h-.7v-.6l-.5.5c-.2.2-.5.2-.8.2-.3 0-.7 0-1-.3-.2-.2-.3-.5-.3-1 0-.3.1-.6.4-.8.2-.2.6-.4 1-.4l1.2-.2v-.1c0-.4 0-.6-.2-.8a1 1 0 0 0-.7-.2l-.6.1-.5.4-.5-.3c.3-.3.5-.5.8-.6l.9-.2c.5 0 .9.2 1.1.4.3.3.4.7.4 1.2v2.7Zm-.7-1.7v-.4l-1 .2c-.3 0-.5 0-.7.2l-.2.5c0 .3 0 .5.2.6l.6.2c.3 0 .6-.1.8-.4.2-.2.3-.5.3-.9Zm4.9 1a1.6 1.6 0 0 1-1.5.8c-.5 0-1-.2-1.2-.5-.3-.4-.5-1-.5-1.6 0-.7.2-1.2.5-1.6.4-.4.8-.7 1.4-.7l.8.2.5.5v-2.6h.7v6.2h-.7v-.7Zm-2.5-1.3c0 .5.1.9.3 1.1.2.3.5.5 1 .5.3 0 .6-.2.8-.4.3-.3.4-.6.4-1v-.7a1.2 1.2 0 0 0-1.2-1.2c-.4 0-.7.2-1 .5a2 2 0 0 0-.3 1.2Zm4.1 1.6.4-.4.5.3h.6l.6-.1c.2-.1.2-.3.2-.5 0-.1 0-.3-.2-.4l-.6-.3c-.5-.1-.9-.3-1-.5a1 1 0 0 1-.3-.7c0-.4 0-.7.4-1 .2-.1.6-.3 1-.3.3 0 .5 0 .7.2l.6.3-.3.5-.5-.3h-.5a1 1 0 0 0-.6 0l-.2.5c0 .2 0 .3.2.4l.7.3 1 .5c.2.2.3.4.3.8s-.2.7-.4.9c-.3.2-.7.3-1.1.3a2.3 2.3 0 0 1-1.5-.5Zm4.6-.5-.6 2h-.5l.5-2h.6Zm5.5.9h-.4l-.4.1a1 1 0 0 1-.7-.3c-.2-.2-.3-.4-.3-.8v-2.6h-.7v-.6h.7v-1l.6-.2v1.2h1.1v.6h-1v3l.5.2h.2l.2-.1.2.5Zm2.9-3.6a.9.9 0 0 0-.3 0 1 1 0 0 0-.8.4 2 2 0 0 0-.3 1.1v2.1h-.7v-4.2h.7v.9l.4-.7.7-.2a1.3 1.3 0 0 1 .4 0l-.1.6Zm3.8 3.6h-.7v-.6l-.5.5c-.2.2-.5.2-.7.2-.4 0-.8 0-1-.3-.2-.2-.4-.5-.4-1 0-.3.2-.6.4-.8.3-.2.6-.4 1-.4l1.2-.2v-.1c0-.4 0-.6-.2-.8a1 1 0 0 0-.7-.2l-.6.1-.5.4-.5-.3c.3-.3.5-.5.8-.6l.9-.2c.5 0 .9.2 1.1.4.3.3.4.7.4 1.2v2.7Zm-.7-1.7v-.4l-1 .2c-.3 0-.5 0-.7.2l-.2.5c0 .3 0 .5.2.6l.6.2c.3 0 .6-.1.8-.4.2-.2.3-.5.3-.9Zm5 1.4a2 2 0 0 1-1.3.4 2 2 0 0 1-1.4-.5 2 2 0 0 1-.6-1.6c0-.7.2-1.2.6-1.6a2 2 0 0 1 1.5-.7 2.2 2.2 0 0 1 1.3.4l-.3.5-.5-.2h-.5c-.4 0-.8 0-1 .4-.3.3-.4.7-.4 1.2s.1.9.4 1.1c.2.3.6.5 1 .5a1.5 1.5 0 0 0 .9-.3l.3.4Zm4.4.3h-1l-1.8-2v2h-.7v-6.2h.7v4l1.8-2h.8l-1.9 2 2.1 2.2Zm4-2H259c0 .6.1 1 .4 1.2.2.2.5.4 1 .4l.5-.1.6-.3.3.4-.7.4-.8.1a2 2 0 0 1-1.5-.5c-.3-.4-.5-1-.5-1.6 0-.7.2-1.2.5-1.6.4-.4.9-.7 1.4-.7.6 0 1 .2 1.3.6.3.3.5.8.5 1.5v.3Zm-.6-.5-.3-.9a1 1 0 0 0-.8-.3c-.3 0-.6.1-.8.4l-.4.8h2.3Zm3.7-1a.9.9 0 0 0-.3-.1 1 1 0 0 0-.8.4 2 2 0 0 0-.3 1.1v2.1h-.6v-4.2h.6v.9l.5-.7.7-.2a1.3 1.3 0 0 1 .4 0l-.2.6Zm.5 3.1.4-.4.5.3h.6l.6-.1c.2-.1.2-.3.2-.5 0-.1 0-.3-.2-.4l-.6-.3c-.5-.1-.9-.3-1-.5a1 1 0 0 1-.4-.7c0-.4.2-.7.4-1 .3-.1.6-.3 1.1-.3.2 0 .5 0 .7.2l.6.3-.4.5c-.1-.2-.3-.3-.4-.3h-.5a1 1 0 0 0-.6 0c-.2.2-.2.3-.2.5s0 .3.2.4l.7.3 1 .5c.2.2.3.4.3.8s-.2.7-.4.9c-.3.2-.7.3-1.2.3a2.3 2.3 0 0 1-1.4-.5Zm4.6-.5-.7 2h-.4l.4-2h.7Zm6.4 1h-.7v-.7l-.5.5c-.2.2-.5.2-.8.2-.4 0-.7 0-1-.3-.2-.2-.3-.5-.3-1 0-.3.1-.6.4-.8.2-.2.6-.4 1-.4l1.2-.2v-.1c0-.4 0-.6-.2-.8a1 1 0 0 0-.7-.2l-.6.1-.5.4-.5-.3c.3-.3.5-.5.8-.6l.9-.2c.5 0 .9.2 1.1.4.3.3.4.7.4 1.2v2.7Zm-.7-1.8v-.4l-1 .2c-.3 0-.5 0-.7.2l-.2.5c0 .3 0 .5.2.6l.5.2c.4 0 .7-.1 1-.4l.2-.9Zm5.5 1.7h-.7v-2.4c0-.4 0-.7-.3-1-.1-.2-.4-.3-.7-.3a1 1 0 0 0-.8.4c-.2.2-.3.6-.3 1v2.3h-.7v-4.2h.7v.7l.5-.6.8-.2c.5 0 .9.2 1 .5.3.3.5.7.5 1.3v2.5Zm4.1-.7a1.6 1.6 0 0 1-1.4.8c-.6 0-1-.2-1.3-.5-.3-.4-.5-1-.5-1.6 0-.7.2-1.2.5-1.6.4-.4.9-.7 1.4-.7l.8.2.5.5v-2.6h.7v6.2h-.7v-.7Zm-2.5-1.3c0 .5.1.9.3 1.1.3.3.6.5 1 .5.3 0 .6-.2.9-.4.2-.3.3-.6.3-1v-.7a1.2 1.2 0 0 0-1.2-1.2c-.4 0-.7.2-1 .5a2 2 0 0 0-.3 1.2Zm8.8 2h-.3l-.4.1a1 1 0 0 1-.8-.3c-.2-.2-.3-.4-.3-.8v-2.6h-.7v-.6h.7v-1l.7-.2v1.2h1v.6h-1v2.5l.1.5.4.2h.2l.2-.1.2.5Zm4.3 0h-.6v-2.4c0-.4-.1-.7-.3-1-.1-.2-.4-.3-.7-.3a1 1 0 0 0-.8.4c-.3.2-.4.6-.4 1v2.3h-.6v-6.2h.6v2.7l.6-.6.8-.2c.5 0 .8.2 1 .5.3.3.4.7.4 1.3v2.5Zm3.4-3.6a.9.9 0 0 0-.4 0 1 1 0 0 0-.8.4 2 2 0 0 0-.2 1.1v2.1h-.7v-4.2h.7v.9c0-.3.2-.5.4-.7l.7-.2a1.3 1.3 0 0 1 .4 0l-.1.6Zm4.2 1.7h-3c0 .5.1.8.4 1 .2.3.6.5 1 .5l.6-.1.5-.3.4.4-.8.4-.8.1a2 2 0 0 1-1.4-.5c-.4-.4-.6-1-.6-1.6 0-.7.2-1.2.6-1.6.3-.4.8-.7 1.4-.7.5 0 1 .2 1.2.6.3.3.5.8.5 1.5v.3Zm-.7-.6-.3-.9a1 1 0 0 0-.8-.3c-.3 0-.6.1-.8.4l-.4.8h2.3Zm4.7 2.5h-.7v-.6l-.6.5c-.2.2-.4.2-.7.2-.4 0-.7 0-1-.3-.2-.2-.3-.5-.3-1 0-.3.1-.6.3-.8.3-.2.6-.4 1-.4l1.3-.2v-.1c0-.4-.1-.6-.3-.8a1 1 0 0 0-.6-.2l-.6.1-.6.4-.4-.3.7-.6 1-.2c.4 0 .8.2 1 .4.3.3.5.7.5 1.2v2.7Zm-.7-1.7v-.4l-1 .2c-.4 0-.6 0-.7.2-.2.1-.3.3-.3.5 0 .3.1.5.3.6l.5.2c.4 0 .6-.1.9-.4.2-.2.3-.5.3-.9Zm4 1.7h-.4l-.4.1a1 1 0 0 1-.8-.3c-.2-.2-.3-.4-.3-.8v-2.6h-.7v-.6h.7v-1l.7-.2v1.2h1v.6h-1v2.5l.1.5.4.2h.3l.2-.1.2.5Zm.4-.4.4-.4.5.3h.6l.6-.1c.2-.1.2-.3.2-.5 0-.1 0-.3-.2-.4l-.6-.3c-.5-.1-.9-.3-1-.5a1 1 0 0 1-.4-.7c0-.4.2-.7.4-1 .3-.1.6-.3 1.1-.3.2 0 .5 0 .7.2l.6.3-.4.5c-.1-.2-.3-.3-.4-.3h-.5a1 1 0 0 0-.6 0c-.2.2-.2.3-.2.5s0 .3.2.4l.7.3 1 .5c.2.2.3.4.3.8s-.2.7-.4.9c-.3.2-.7.3-1.2.3a2.3 2.3 0 0 1-1.4-.5Zm9.2.4h-.7v-.6l-.5.5c-.2.2-.5.2-.8.2-.4 0-.7 0-1-.3-.2-.2-.3-.5-.3-1 0-.3.1-.6.4-.8.2-.2.6-.4 1-.4l1.2-.2v-.1c0-.4 0-.6-.2-.8a1 1 0 0 0-.7-.2l-.6.1-.6.4-.4-.3c.3-.3.5-.5.8-.6l.9-.2c.5 0 .8.2 1.1.4.3.3.4.7.4 1.2v2.7Zm-.7-1.7v-.4l-1 .2c-.3 0-.5 0-.7.2l-.2.5c0 .3 0 .5.2.6l.5.2c.4 0 .7-.1.9-.4.2-.2.3-.5.3-.9Zm4 1.7h-.4l-.3.1a1 1 0 0 1-.8-.3c-.2-.2-.3-.4-.3-.8v-2.6h-.7v-.6h.7v-1l.7-.2v1.2h1v.6h-1v3l.5.2h.2l.2-.1.2.5Zm5.1 0h-.3l-.4.1a1 1 0 0 1-.8-.3c-.2-.2-.3-.4-.3-.8v-2.6h-.7v-.6h.7v-1l.7-.2v1.2h1v.6h-1v2.5l.1.5.4.2h.2l.2-.1.2.5Zm4.3 0h-.6v-2.4c0-.4-.1-.7-.3-1-.2-.2-.4-.3-.7-.3a1 1 0 0 0-.9.4c-.2.2-.3.6-.3 1v2.3h-.7v-6.2h.7v2.7l.6-.6.8-.2c.5 0 .8.2 1 .5.3.3.4.7.4 1.3v2.5Zm4.7-2h-3c0 .6.1 1 .4 1.2.2.2.5.4 1 .4l.5-.1.6-.3.3.4-.7.4-.8.1a2 2 0 0 1-1.5-.5c-.3-.4-.5-1-.5-1.6 0-.7.2-1.2.5-1.6.4-.4.8-.7 1.4-.7.6 0 1 .2 1.3.6.3.3.5.8.5 1.5v.3Zm-.7-.5-.3-.9a1 1 0 0 0-.8-.3c-.3 0-.6.1-.8.4-.2.2-.4.5-.4.8h2.3Zm4 2.5v-5.8h1.6c1 0 1.8.2 2.3.7.6.5.8 1.2.8 2.1 0 1-.3 1.7-.9 2.2-.5.6-1.3.8-2.3.8h-1.5Zm.7-5.2v4.6h.9c.7 0 1.3-.2 1.8-.6.4-.4.6-1 .6-1.8 0-.7-.2-1.3-.6-1.6-.4-.4-1-.6-1.8-.6h-1Zm9.9 5.2h-.9l-3-4.6v-.2l-.2-.2v5h-.6v-5.8h.8l3 4.6a8.7 8.7 0 0 1 .2.4v-5h.7v5.8Zm1-.5.4-.5.7.4.8.1c.4 0 .7 0 1-.2.1-.2.3-.5.3-.8 0-.3-.1-.5-.3-.7a3 3 0 0 0-1-.5l-1.2-.6c-.3-.3-.4-.6-.4-1 0-.5.2-.9.5-1.2a2 2 0 0 1 1.4-.4 3 3 0 0 1 1.5.4l-.3.5a2.4 2.4 0 0 0-1.3-.3c-.3 0-.6 0-.8.2-.2.2-.3.4-.3.7 0 .3 0 .5.3.6.1.2.4.3.9.5.6.2 1 .4 1.3.7.2.3.3.6.3 1 0 .5-.1 1-.5 1.3a2 2 0 0 1-1.4.4 2.9 2.9 0 0 1-1.9-.6Zm-197.4 13.1v-6.2h.6v6.2h-.6Zm5.4-2h-3c0 .5.1.9.4 1.1.2.3.5.4 1 .4h.5l.6-.4.3.5-.7.4-.8.1a2 2 0 0 1-1.5-.6c-.3-.3-.5-.9-.5-1.5 0-.7.2-1.3.5-1.7.4-.4.9-.6 1.4-.6.6 0 1 .2 1.3.5.3.4.5.9.5 1.5v.4Zm-.7-.5c0-.4-.1-.7-.3-.9a1 1 0 0 0-.8-.3c-.3 0-.6 0-.8.3-.2.2-.3.5-.4.9h2.3Zm5-1.7-1.7 4.2h-.7l-1.5-4.2h.7l1 3a2.9 2.9 0 0 1 .2.6 4.7 4.7 0 0 1 .2-.5l1-3h.8Zm4 2.3h-3c.1.4.2.8.5 1 .2.3.5.4 1 .4h.5l.6-.4.3.5-.7.4-.8.1a2 2 0 0 1-1.5-.6c-.3-.3-.5-.9-.5-1.5 0-.7.2-1.3.5-1.7.4-.4.9-.6 1.4-.6.6 0 1 .2 1.3.5.3.4.5.9.5 1.5v.4Zm-.6-.6c0-.4-.1-.7-.3-.9a1 1 0 0 0-.8-.3 1 1 0 0 0-.8.3c-.2.2-.3.5-.4.9h2.3Zm1.7 2.5v-6.2h.6v6.2h-.6Z"/><path fill="#5B5B5B" d="M378.5 327.6v39.5h1.2v-39.5h-1.2Z"/><path fill="#67B279" d="M407.2 328.8h-12a6 6 0 1 0 0 12h12a6 6 0 1 0 0-12Z"/><path fill="#fff" d="M412 334.8a4.8 4.8 0 1 0-9.6 0 4.8 4.8 0 0 0 9.6 0Z"/><path fill="#E4E4E4" d="M453.4 113.4c0 .8-.2 1.5-.5 1.9-.4.4-1 .6-1.7.6s-1.2-.2-1.6-.6c-.4-.4-.5-1-.5-1.8V110h.7v3.6c0 .6 0 1 .3 1.3.3.3.7.5 1.2.5s.8-.2 1-.5c.3-.2.4-.7.4-1.3V110h.7v3.5Zm1 2 .4-.5c.1.2.3.3.5.3l.6.1.6-.1.2-.5c0-.2 0-.3-.2-.4-.1-.2-.3-.3-.6-.3-.5-.2-.9-.3-1-.5a1 1 0 0 1-.4-.8c0-.3.2-.6.4-.8.3-.3.6-.4 1.1-.4l.7.1c.2 0 .4.2.6.4l-.4.4-.4-.2-.5-.1a1 1 0 0 0-.6.1c-.2.1-.2.3-.2.5s0 .3.2.4l.7.3c.4 0 .7.2 1 .4.2.2.3.5.3.8 0 .4-.2.7-.5 1-.2.2-.6.3-1 .3a2.3 2.3 0 0 1-1.5-.5Zm7.3-1.5h-3c0 .4.2.8.4 1 .3.3.6.4 1 .4h.6l.6-.4.3.5-.7.4-.8.1a2 2 0 0 1-1.5-.6c-.3-.3-.5-.9-.5-1.5 0-.7.2-1.2.5-1.7.4-.4.8-.6 1.4-.6.6 0 1 .2 1.3.5.3.4.4.9.4 1.5v.4Zm-.6-.6c0-.4-.1-.7-.3-.9a1 1 0 0 0-.8-.3c-.3 0-.6.1-.8.3-.2.2-.4.5-.4 1h2.3Zm3.3 2.5 2.3-5.9h.7l2.2 5.9h-.7l-.6-1.6h-2.6l-.5 1.6h-.8Zm1.6-2.2h2l-.9-2.6V110.7h-.1a2.5 2.5 0 0 1-.1.3l-1 2.6Zm7.3 1.5-.6.6-.8.2c-.6 0-1-.2-1.3-.6-.3-.3-.5-.8-.5-1.5s.2-1.2.5-1.7c.4-.4.9-.6 1.4-.6.3 0 .6 0 .8.2l.5.5v-2.6h.7v6.2h-.7v-.7Zm-2.5-1.3c0 .5.1.8.3 1.1.3.3.6.4 1 .4.3 0 .6-.1.9-.4.2-.2.3-.6.3-1v-.6a1.2 1.2 0 0 0-1.2-1.2c-.4 0-.7.1-1 .4a2 2 0 0 0-.3 1.3Zm9 1.6a3.9 3.9 0 0 1-2 .5c-.8 0-1.5-.3-2-.8a3 3 0 0 1-.8-2.2c0-.9.3-1.7.9-2.2a3 3 0 0 1 2.1-.9 3.3 3.3 0 0 1 1.8.6l-.3.5a2.6 2.6 0 0 0-1.5-.4c-.6 0-1.2.2-1.6.6-.4.4-.6 1-.6 1.8s.1 1.4.5 1.8c.4.4 1 .6 1.6.6h.7l.5-.3v-1.6h-1.3v-.7h2v2.7Zm4.7.4h-.7v-.6l-.5.5-.8.2c-.5 0-.9-.1-1.1-.4-.3-.3-.4-.8-.4-1.4v-2.5h.7v2.4c0 .5 0 .8.2 1 .2.2.5.3.8.3.3 0 .6 0 .8-.3.2-.3.3-.6.3-1v-2.4h.7v4.2Zm4.3 0h-.7v-.6l-.5.5-.8.2c-.4 0-.7-.1-1-.3-.2-.3-.3-.6-.3-1 0-.3.1-.6.4-.8.2-.3.6-.4 1-.5l1.2-.1v-.2c0-.3 0-.5-.2-.7a1 1 0 0 0-.7-.2l-.6.1-.5.4-.5-.4a2.2 2.2 0 0 1 1.7-.7c.5 0 .9.1 1.1.4.3.3.4.7.4 1.2v2.7Zm-.7-1.7v-.4l-1 .1c-.3 0-.5.2-.7.3l-.2.5c0 .2 0 .4.2.6l.5.2c.4 0 .7-.2 1-.4l.2-.9Zm4-1.9a.9.9 0 0 0-.3 0 1 1 0 0 0-.8.4 2 2 0 0 0-.3 1v2.2h-.6v-4.2h.6v.8l.5-.6c.2-.2.4-.3.7-.3a1.3 1.3 0 0 1 .4.1l-.1.6Zm3.8 3c-.2.2-.3.4-.6.5l-.8.2c-.6 0-1-.2-1.3-.6-.3-.3-.5-.8-.5-1.5s.2-1.2.5-1.7c.4-.4.9-.6 1.4-.6.3 0 .6 0 .8.2l.5.5v-2.6h.7v6.2h-.7v-.7Zm-2.5-1.4c0 .5.1.8.3 1.1.3.3.6.4 1 .4.3 0 .6-.1.9-.4.2-.2.3-.6.3-1v-.6a1.2 1.2 0 0 0-1.2-1.2c-.4 0-.7.1-1 .4a2 2 0 0 0-.3 1.3Zm6.2 2 2.3-5.9h.7l2.2 5.9h-.7l-.6-1.6h-2.6l-.5 1.6h-.8Zm1.6-2.2h2l-1-2.6V110.7a3 3 0 0 1-.1.3l-1 2.6Zm4 1.8.4-.5c.1.2.3.3.5.3l.6.1.6-.1.2-.5c0-.2 0-.3-.2-.4-.1-.2-.3-.3-.6-.3-.5-.2-.9-.3-1-.5a1 1 0 0 1-.4-.8c0-.3.2-.6.4-.8.3-.3.6-.4 1-.4l.8.1c.2 0 .4.2.6.4l-.4.4-.5-.2-.4-.1a1 1 0 0 0-.6.1c-.2.1-.2.3-.2.5s0 .3.2.4l.7.3c.4 0 .7.2 1 .4.2.2.3.5.3.8 0 .4-.2.7-.5 1-.2.2-.6.3-1 .3a2.3 2.3 0 0 1-1.5-.5Zm3.6 0 .4-.5c.1.2.3.3.5.3l.5.1.7-.1.2-.5c0-.2 0-.3-.2-.4-.1-.2-.3-.3-.6-.3l-1.1-.5a1 1 0 0 1-.3-.8c0-.3.1-.6.4-.8.3-.3.6-.4 1-.4l.7.1c.3 0 .5.2.7.4l-.4.4-.5-.2-.4-.1a1 1 0 0 0-.6.1c-.2.1-.3.3-.3.5s.1.3.3.4l.7.3c.4 0 .7.2 1 .4l.2.8c0 .4-.1.7-.4 1-.2.2-.6.3-1 .3a2.3 2.3 0 0 1-1.5-.5Zm4.3-4.8-.3-.1-.2-.4s0-.2.2-.3l.3-.1a.5.5 0 0 1 .5.4c0 .2 0 .3-.2.4l-.3.1Zm.3 5.2h-.6v-4.2h.6v4.2Zm1-.4.4-.5c.1.2.3.3.5.3l.5.1.7-.1.2-.5c0-.2 0-.3-.2-.4-.1-.2-.3-.3-.6-.3-.5-.2-.9-.3-1-.5a1 1 0 0 1-.4-.8c0-.3.1-.6.4-.8.3-.3.6-.4 1-.4l.7.1c.3 0 .5.2.7.4l-.4.4-.5-.2-.4-.1a1 1 0 0 0-.6.1c-.2.1-.3.3-.3.5s.1.3.3.4l.7.3c.4 0 .7.2 1 .4l.2.8c0 .4 0 .7-.4 1-.2.2-.6.3-1 .3a2.3 2.3 0 0 1-1.5-.5Zm6 .3a1.6 1.6 0 0 1-.8.2 1 1 0 0 1-.7-.3c-.2-.2-.3-.5-.3-.9v-2.5h-.7v-.6h.7v-1l.6-.2v1.2h1.1v.6h-1v3l.5.1h.4l.2.4Zm3.8.1h-.7v-.6l-.5.5-.8.2c-.4 0-.7-.1-1-.3-.2-.3-.3-.6-.3-1 0-.3.1-.6.4-.8.2-.3.6-.4 1-.5l1.2-.1v-.2c0-.3 0-.5-.2-.7a1 1 0 0 0-.7-.2l-.6.1-.6.4-.4-.4a2.2 2.2 0 0 1 1.7-.7c.5 0 .8.1 1.1.4.3.3.4.7.4 1.2v2.7Zm-.7-1.7v-.4l-1 .1c-.3 0-.5.2-.7.3l-.2.5c0 .2 0 .4.2.6l.5.2c.4 0 .7-.2.9-.4.2-.2.3-.5.3-.9Zm5.4 1.7h-.6v-2.4c0-.4-.1-.8-.3-1-.1-.2-.4-.3-.7-.3a1 1 0 0 0-.8.4c-.3.2-.4.5-.4 1v2.3h-.6v-4.2h.6v.7l.6-.6.8-.2c.5 0 .8.2 1 .5.3.3.4.7.4 1.2v2.6Zm3.3 0a1.6 1.6 0 0 1-.7 0 1 1 0 0 1-.8-.2c-.2-.2-.3-.5-.3-.9v-2.5h-.7v-.6h.7v-1l.7-.2v1.2h1v.6h-1v2.5l.1.5.4.1h.4l.2.4Zm5.1 0a1.6 1.6 0 0 1-.7 0 1 1 0 0 1-.8-.2c-.2-.2-.3-.5-.3-.9v-2.5h-.7v-.6h.7v-1l.7-.2v1.2h1v.6h-1v2.5l.1.5.4.1h.4l.2.4Zm2.6.1a2 2 0 0 1-1.5-.6c-.3-.4-.5-.9-.5-1.5 0-.7.2-1.3.6-1.7a2 2 0 0 1 1.5-.6c.6 0 1.1.2 1.5.6.3.4.5 1 .5 1.6 0 .7-.2 1.2-.6 1.6a2 2 0 0 1-1.5.6Zm0-.6c.5 0 .8-.1 1-.4.3-.3.4-.7.4-1.2s0-1-.3-1.2c-.3-.3-.6-.4-1-.4-.5 0-.8.1-1 .4-.3.3-.4.7-.4 1.2s.1 1 .3 1.2c.3.3.6.4 1 .4ZM461 126.4h-3c0 .5.2.9.4 1.1.3.3.6.4 1 .4l.6-.1.6-.3.3.4-.7.4-.8.2a2 2 0 0 1-1.5-.6c-.3-.4-.5-.9-.5-1.6 0-.6.2-1.2.5-1.6.4-.4.8-.6 1.4-.6.6 0 1 .2 1.3.5.3.4.4.9.4 1.5v.3Zm-.7-.5c0-.4 0-.7-.2-1a1 1 0 0 0-.8-.2c-.3 0-.6 0-.8.3-.2.2-.4.5-.4.9h2.2Zm4.7 2.5h-.7v-.7c-.1.3-.3.5-.5.6l-.8.2c-.4 0-.7-.1-1-.4-.2-.2-.3-.5-.3-.9 0-.3.2-.6.4-.9.2-.2.6-.3 1-.4l1.2-.2c0-.4 0-.7-.2-.8a1 1 0 0 0-.7-.2h-.6l-.5.5-.5-.4a2.2 2.2 0 0 1 1.7-.7c.5 0 .9.1 1.1.4.3.2.4.6.4 1.1v2.8Zm-.7-1.7v-.4l-1 .1-.7.2-.2.6c0 .2 0 .4.2.5.2.2.3.2.6.2s.6-.1.8-.3c.2-.3.3-.6.3-1Zm1.6 1.3.4-.5.5.3.5.1c.3 0 .5 0 .7-.2l.2-.4c0-.2 0-.4-.2-.5l-.6-.3c-.5 0-.9-.3-1-.5a1 1 0 0 1-.4-.7c0-.4.2-.6.4-.9.3-.2.6-.3 1-.3h.8l.6.4-.4.5-.5-.3h-.4a1 1 0 0 0-.6.1c-.2.1-.2.2-.2.4s0 .4.2.5l.7.2 1 .5c.1.2.3.5.3.8 0 .4-.2.7-.5 1-.2.2-.6.3-1 .3a2.3 2.3 0 0 1-1.5-.5Zm4.3-4.8c-.1 0-.2 0-.3-.2l-.2-.3c0-.1 0-.2.2-.3l.3-.2c.1 0 .3 0 .4.2v.6l-.4.2Zm.3 5.2h-.6v-4.2h.6v4.2Zm1.4 0v-6.2h.7v6.2h-.7Zm5.4-4.2-2 5a2 2 0 0 1-.6.9l-.8.2a1.5 1.5 0 0 1-.5 0l.2-.6a.7.7 0 0 0 .3 0h.4l.3-.5.3-.8-1.6-4.2h.8l1 3.2.1.1v.2a2.6 2.6 0 0 1 .2-.3l1.2-3.2h.7Zm3.6 3.6v.6h-.7v-6.2h.7v2.7l.6-.6.9-.2c.5 0 1 .2 1.2.5.3.4.5 1 .5 1.6 0 .7-.2 1.2-.5 1.6-.4.5-.8.7-1.4.7-.3 0-.5 0-.8-.2l-.5-.5Zm0-1.7v.6c0 .3.1.6.3.8.3.3.6.4.9.4.4 0 .7-.2 1-.5.2-.3.3-.7.3-1.2s-.1-.9-.3-1.2a1 1 0 0 0-.9-.3c-.4 0-.7 0-1 .4-.2.2-.3.6-.3 1Zm4.3 2.3v-6.2h.6v6.2h-.6Zm3.7 0a2 2 0 0 1-1.5-.5c-.3-.4-.5-1-.5-1.6 0-.7.2-1.2.6-1.6a2 2 0 0 1 1.5-.6c.6 0 1.1.2 1.5.6.3.3.5.9.5 1.6 0 .6-.2 1.2-.5 1.6a2 2 0 0 1-1.6.6Zm0-.5c.5 0 .8-.1 1-.4.3-.3.4-.7.4-1.2s0-1-.3-1.2c-.3-.3-.6-.4-1-.4-.5 0-.8.1-1 .4-.3.3-.4.7-.4 1.2s.1.9.4 1.2c.2.3.6.4 1 .4Zm6.2.2a2 2 0 0 1-1.3.4 2 2 0 0 1-1.4-.6 2 2 0 0 1-.6-1.5c0-.7.2-1.3.6-1.7a2 2 0 0 1 1.5-.6 2.2 2.2 0 0 1 1.3.4l-.3.4-.5-.2h-.5c-.4 0-.8.1-1 .4-.3.3-.4.7-.4 1.2s.1.9.4 1.2c.2.3.6.4 1 .4h.4l.5-.3.3.5Zm4.4.3h-1l-1.8-2v2h-.7v-6.2h.7v3.9l1.8-2h.8l-1.9 2.1 2 2.2Zm5.9 0h-.7v-.7c-.1.3-.3.5-.5.6l-.8.2c-.4 0-.7-.1-1-.4-.2-.2-.3-.5-.3-.9 0-.3.1-.6.4-.9.2-.2.6-.3 1-.4l1.2-.2c0-.4 0-.7-.2-.8a1 1 0 0 0-.7-.2h-.6l-.5.5-.5-.4.8-.5c.2-.2.5-.2.9-.2.5 0 .9.1 1.1.4.3.2.4.6.4 1.1v2.8Zm-.7-1.7v-.4l-1 .1-.7.2-.2.6c0 .2 0 .4.2.5.2.2.3.2.5.2.4 0 .7-.1.9-.3.2-.3.3-.6.3-1Zm4.9 1-.6.6-.9.2c-.5 0-1-.2-1.2-.6-.4-.4-.5-.9-.5-1.5 0-.7.2-1.3.5-1.7.4-.4.8-.6 1.4-.6.3 0 .6 0 .8.2.2 0 .3.2.5.4v-2.5h.7v6.2h-.7v-.7Zm-2.5-1.4c0 .5 0 .9.3 1.2.2.3.5.4 1 .4.3 0 .6-.1.8-.4.3-.3.4-.6.4-1v-.6a1.2 1.2 0 0 0-1.2-1.2c-.4 0-.7.1-1 .4a2 2 0 0 0-.3 1.2Zm4.1 1.7.4-.5.5.3.6.1c.3 0 .5 0 .6-.2.2 0 .2-.2.2-.4s0-.4-.2-.5l-.6-.3c-.5 0-.9-.3-1-.5a1 1 0 0 1-.3-.7c0-.4 0-.6.3-.9.3-.2.7-.3 1.1-.3h.7l.6.4-.3.5-.5-.3h-.5a1 1 0 0 0-.6.1l-.2.4c0 .2 0 .4.2.5l.7.2 1 .5c.2.2.3.5.3.8 0 .4-.2.7-.4 1-.3.2-.7.3-1.1.3a2.3 2.3 0 0 1-1.5-.5Zm6.6-4.8c-.2 0-.3 0-.4-.2l-.1-.3.1-.3.4-.2c.1 0 .2 0 .3.2l.2.3c0 .1 0 .3-.2.3l-.3.2Zm.3 5.2h-.7v-4.2h.7v4.2Zm4.8 0h-.6V126c0-.5-.1-.8-.3-1-.1-.2-.4-.3-.7-.3a1 1 0 0 0-.8.3c-.3.3-.4.6-.4 1v2.4h-.6v-4.2h.6v.7l.6-.6c.3-.2.5-.2.8-.2.5 0 .8.1 1 .4.3.3.4.7.4 1.3v2.6Zm6.9-4.2-2 5a2 2 0 0 1-.6.9l-.8.2a1.5 1.5 0 0 1-.5 0l.2-.6a.7.7 0 0 0 .3 0h.4l.3-.5.4-.8-1.7-4.2h.8l1.1 3.2v.1l.1.2a2.6 2.6 0 0 1 .1-.3l1.2-3.2h.7Zm2.5 4.3a2 2 0 0 1-1.5-.6c-.4-.4-.6-1-.6-1.6 0-.7.2-1.2.6-1.6a2 2 0 0 1 1.6-.6c.6 0 1 .2 1.4.6.4.3.6.9.6 1.6 0 .6-.2 1.2-.6 1.6a2 2 0 0 1-1.5.6Zm0-.6c.4 0 .8-.1 1-.4.3-.3.4-.7.4-1.2s-.1-1-.4-1.2c-.2-.3-.6-.4-1-.4s-.8.1-1 .4c-.3.3-.4.7-.4 1.2s.1.9.4 1.2c.3.3.6.4 1 .4Zm6.5.5h-.7v-.7c-.1.3-.3.5-.5.6l-.8.2c-.5 0-.8-.2-1.1-.5-.2-.3-.4-.7-.4-1.3v-2.5h.7v2.4c0 .4 0 .8.2 1 .2.2.5.3.8.3.3 0 .6-.1.8-.4.2-.2.3-.5.3-1v-2.3h.7v4.2Zm3.4-3.6a.8.8 0 0 0-.3 0 1 1 0 0 0-.8.3 2 2 0 0 0-.3 1.1v2.2h-.7v-4.2h.7v.8l.5-.7.6-.2a1.3 1.3 0 0 1 .5 0l-.2.7Zm-28.1 15.6v.5h-.7v-6.2h.7v2.8c.1-.3.3-.5.6-.6.2-.2.5-.3.8-.3.6 0 1 .2 1.3.6.3.4.4.9.4 1.5 0 .7-.1 1.3-.5 1.7-.3.4-.8.6-1.4.6l-.7-.1-.5-.5Zm0-1.8v.6c0 .4 0 .7.3.9.2.2.5.4.9.4s.7-.2 1-.5c.1-.3.3-.7.3-1.3 0-.5-.1-.8-.4-1a1 1 0 0 0-.8-.5c-.4 0-.8.2-1 .4-.2.3-.3.6-.3 1Zm6.3-1.3a.8.8 0 0 0-.3 0 1 1 0 0 0-.8.4 2 2 0 0 0-.3 1.1v2.1h-.7v-4.2h.7v.9c0-.3.2-.5.4-.7.2-.2.5-.2.7-.2a1.3 1.3 0 0 1 .4 0l-.1.6Zm2.6 3.7a2 2 0 0 1-1.5-.6c-.4-.3-.5-.9-.5-1.5 0-.7.1-1.3.5-1.7a2 2 0 0 1 1.6-.6c.6 0 1.1.2 1.4.6.4.4.6 1 .6 1.6 0 .7-.2 1.2-.6 1.6a2 2 0 0 1-1.5.6Zm0-.5c.5 0 .8-.2 1-.5.3-.2.4-.6.4-1.2 0-.5-.1-.9-.4-1.2-.2-.2-.5-.4-1-.4-.4 0-.7.2-1 .5-.2.3-.4.7-.4 1.2s.2.9.4 1.1c.3.3.6.5 1 .5Zm8.4-3.8-1.2 4.2h-.7l-.9-3V137.6l-.1.1v.2l-1 3h-.7l-1.2-4.2h.7l.8 3.2v.4h.1a2.2 2.2 0 0 1 .1-.4l1-3.2h.6l.8 3.2v.2l.1.2a2.1 2.1 0 0 1 .1-.4l.9-3.2h.6Zm.4 3.8.4-.4.5.3h.6l.6-.1.2-.5c0-.1 0-.3-.2-.4l-.6-.3c-.5-.1-.9-.3-1-.5a1 1 0 0 1-.4-.7c0-.4.2-.7.4-1 .3-.1.6-.3 1.1-.3l.7.1.6.4-.4.5c-.1-.2-.3-.3-.4-.3h-.5a1 1 0 0 0-.6 0c-.2.2-.2.3-.2.5s0 .3.2.4l.7.3c.4 0 .7.3 1 .5.2.2.3.4.3.8s-.2.7-.5.9c-.2.2-.6.3-1 .3a2.3 2.3 0 0 1-1.5-.5Zm7.3-1.5h-3c0 .5.2.8.4 1 .3.3.6.5 1 .5l.6-.1.6-.3.3.4-.7.4-.8.1a2 2 0 0 1-1.5-.5c-.3-.4-.5-1-.5-1.6 0-.7.2-1.2.5-1.6.4-.4.8-.7 1.4-.7.6 0 1 .2 1.3.6.3.3.4.8.4 1.5v.3Zm-.6-.6-.3-.9a1 1 0 0 0-.8-.3c-.3 0-.6.1-.8.4-.2.2-.4.5-.4.8h2.3Zm3.7-1a.9.9 0 0 0-.3-.1 1 1 0 0 0-.8.4 2 2 0 0 0-.3 1.1v2.1h-.7v-4.2h.7v.9l.5-.7c.2-.2.4-.2.6-.2a1.3 1.3 0 0 1 .5 0l-.2.6ZM464.3 116.8h68v.5h-68v-.5Z"/></g><path fill="url(#G)" fill-opacity=".3" d="M74 83a13 13 0 0 1 13-13h468a13 13 0 0 1 13 13v300H74V83Z" style="mix-blend-mode:screen"/></g><defs><linearGradient id="f" x1="271.8" x2="280" y1="387.3" y2="395.3" gradientUnits="userSpaceOnUse"><stop stop-color="#4CD2FF"/><stop offset="1" stop-color="#0078D4"/></linearGradient><linearGradient id="h" x1="286.8" x2="295.1" y1="387.2" y2="395.6" gradientUnits="userSpaceOnUse"><stop stop-color="#41403F"/><stop offset="1" stop-color="#1F1F1F"/></linearGradient><linearGradient id="i" x1="304.9" x2="304.9" y1="389.6" y2="395.2" gradientUnits="userSpaceOnUse"><stop stop-color="#444341"/><stop offset="1" stop-color="#2D2D2C"/></linearGradient><linearGradient id="j" x1="304.9" x2="304.9" y1="395.2" y2="389.6" gradientUnits="userSpaceOnUse"><stop/><stop offset="1" stop-opacity="0"/></linearGradient><linearGradient id="k" x1="307" x2="307" y1="387.5" y2="393.1" gradientUnits="userSpaceOnUse"><stop stop-color="#F7F7F7"/><stop offset="1" stop-color="#E6E6E6"/></linearGradient><linearGradient id="m" x1="304.9" x2="304.9" y1="389.6" y2="395.2" gradientUnits="userSpaceOnUse"><stop stop-color="#444341"/><stop offset="1" stop-color="#2D2D2D"/></linearGradient><linearGradient id="r" x1="336.3" x2="336.3" y1="388.6" y2="396.1" gradientUnits="userSpaceOnUse"><stop stop-color="#FFCF4D"/><stop offset="1" stop-color="#F4B509"/></linearGradient><linearGradient id="s" x1="336.3" x2="336.3" y1="388.6" y2="396.1" gradientUnits="userSpaceOnUse"><stop stop-color="#FFD04E"/><stop offset="1" stop-color="#F4B509"/></linearGradient><linearGradient id="u" x1="348.9" x2="354.3" y1="393.8" y2="393.8" gradientUnits="userSpaceOnUse"><stop stop-color="#0C59A4"/><stop offset="1" stop-color="#114A8B"/></linearGradient><linearGradient id="w" x1="351.8" x2="348.4" y1="391.5" y2="395.2" gradientUnits="userSpaceOnUse"><stop stop-color="#1B9DE2"/><stop offset=".2" stop-color="#1595DF"/><stop offset=".7" stop-color="#0680D7"/><stop offset="1" stop-color="#0078D4"/></linearGradient><linearGradient id="A" x1="366.2" x2="366.2" y1="384.4" y2="398.4" gradientUnits="userSpaceOnUse"><stop offset=".9" stop-opacity=".1"/><stop offset="1" stop-opacity=".2"/></linearGradient><linearGradient id="D" x1="82.5" x2="87.9" y1="389.1" y2="393.9" gradientUnits="userSpaceOnUse"><stop offset=".2" stop-color="#FFE975"/><stop offset=".5" stop-color="#FFB729"/><stop offset=".7" stop-color="#F90"/></linearGradient><linearGradient id="G" x1="78.5" x2="68.8" y1="71.8" y2="384.4" gradientUnits="userSpaceOnUse"><stop stop-color="#fff"/><stop offset=".6" stop-color="#fff" stop-opacity="0"/></linearGradient><radialGradient id="g" cx="0" cy="0" r="1" gradientTransform="matrix(0 2.50105 -2.4502 0 290.3 390.8)" gradientUnits="userSpaceOnUse"><stop stop-color="#fff"/><stop offset="1" stop-color="#fff" stop-opacity=".8"/></radialGradient><radialGradient id="o" cx="0" cy="0" r="1" gradientTransform="matrix(-4.45254 5.0734 -4.9663 -4.54861 322.9 389)" gradientUnits="userSpaceOnUse"><stop stop-color="#8194E8"/><stop offset="1" stop-color="#5654B7"/></radialGradient><radialGradient id="p" cx="0" cy="0" r="1" gradientTransform="matrix(4.9663 5.77321 -5.6513 5.07343 319 388.2)" gradientUnits="userSpaceOnUse"><stop offset=".2" stop-color="#886BB4"/><stop offset="1" stop-color="#5D5FC6"/></radialGradient><radialGradient id="v" cx="0" cy="0" r="1" gradientTransform="matrix(2.8975 0 0 2.75267 351.9 393.9)" gradientUnits="userSpaceOnUse"><stop offset=".7" stop-opacity="0"/><stop offset=".9" stop-opacity=".5"/><stop offset="1"/></radialGradient><radialGradient id="x" cx="0" cy="0" r="1" gradientTransform="matrix(.65272 -4.30794 -3.48116 -.52217 349.3 394.5)" gradientUnits="userSpaceOnUse"><stop offset=".8" stop-opacity="0"/><stop offset=".9" stop-opacity=".5"/><stop offset="1"/></radialGradient><radialGradient id="y" cx="0" cy="0" r="1" gradientTransform="matrix(-.24598 6.14957 13.0986 .49196 347.9 389.9)" gradientUnits="userSpaceOnUse"><stop stop-color="#35C1F1"/><stop offset=".1" stop-color="#34C1ED"/><stop offset=".2" stop-color="#2FC2DF"/><stop offset=".3" stop-color="#2BC3D2"/><stop offset=".7" stop-color="#36C752"/></radialGradient><radialGradient id="z" cx="0" cy="0" r="1" gradientTransform="matrix(.82798 2.83878 2.30651 -.68012 354.4 390.8)" gradientUnits="userSpaceOnUse"><stop stop-color="#66EB6E"/><stop offset="1" stop-color="#66EB6E" stop-opacity="0"/></radialGradient><clipPath id="a"><path fill="#fff" d="M0 0h640v480H0z"/></clipPath><clipPath id="b"><path fill="#fff" d="M74 383h494v17H74z"/></clipPath><clipPath id="F"><path fill="#fff" d="M74 70h494v313H74z"/></clipPath><filter id="q" width="5.8" height="4.8" x="318.1" y="389.3" color-interpolation-filters="sRGB" filterUnits="userSpaceOnUse"><feFlood flood-opacity="0" result="BackgroundImageFix"/><feColorMatrix in="SourceAlpha" result="hardAlpha" values="0 0 0 0 0 0 0 0 0 0 0 0 0 0 0 0 0 0 127 0"/><feOffset dy=".5"/><feGaussianBlur stdDeviation=".3"/><feComposite in2="hardAlpha" operator="out"/><feColorMatrix values="0 0 0 0 0 0 0 0 0 0 0 0 0 0 0 0 0 0 0.14 0"/><feBlend in2="BackgroundImageFix" result="effect1_dropShadow_9636_84024"/><feBlend in="SourceGraphic" in2="effect1_dropShadow_9636_84024" result="shape"/><feColorMatrix in="SourceAlpha" result="hardAlpha" values="0 0 0 0 0 0 0 0 0 0 0 0 0 0 0 0 0 0 127 0"/><feOffset dy="-.3"/><feGaussianBlur stdDeviation=".5"/><feComposite in2="hardAlpha" k2="-1" k3="1" operator="arithmetic"/><feColorMatrix values="0 0 0 0 0 0 0 0 0 0 0 0 0 0 0 0 0 0 0.2 0"/><feBlend in2="shape" result="effect2_innerShadow_9636_84024"/></filter><filter id="C" width="11.2" height="11.3" x="79.1" y="386.7" color-interpolation-filters="sRGB" filterUnits="userSpaceOnUse"><feFlood flood-opacity="0" result="BackgroundImageFix"/><feColorMatrix in="SourceAlpha" result="hardAlpha" values="0 0 0 0 0 0 0 0 0 0 0 0 0 0 0 0 0 0 127 0"/><feOffset dy="1"/><feGaussianBlur stdDeviation="1.3"/><feComposite in2="hardAlpha" operator="out"/><feColorMatrix values="0 0 0 0 0 0 0 0 0 0 0 0 0 0 0 0 0 0 0.1 0"/><feBlend in2="BackgroundImageFix" result="effect1_dropShadow_9636_84024"/><feBlend in="SourceGraphic" in2="effect1_dropShadow_9636_84024" result="shape"/></filter><filter id="E" width="645.1" height="6.4" x="-2.5" y="415.5" color-interpolation-filters="sRGB" filterUnits="userSpaceOnUse"><feFlood flood-opacity="0" result="BackgroundImageFix"/><feBlend in="SourceGraphic" in2="BackgroundImageFix" result="shape"/><feGaussianBlur result="effect1_foregroundBlur_9636_84024" stdDeviation="1.5"/></filter></defs></svg>