<svg xmlns="http://www.w3.org/2000/svg" width="640" height="480" fill="none"><g clip-path="url(#a)"><path fill="#1D2025" d="M64.3 83a22 22 0 0 1 22-22h467.4a22 22 0 0 1 22 22v323.7H64.3V83Z"/><path fill="#6C769C" fill-rule="evenodd" d="M64.3 406.7h1.4V83c0-11.4 9.2-20.6 20.6-20.6h467.4c11.4 0 20.6 9.2 20.6 20.6v323.7h1.4V83a22 22 0 0 0-22-22H86.3a22 22 0 0 0-22 22v323.7Z" clip-rule="evenodd"/><g filter="url(#b)"><rect width="639.1" height=".4" x=".5" y="418.5" fill="#000" fill-opacity=".6" rx=".2"/></g><path fill="#343744" d="M0 406.7h640v11.4H0z"/><rect width="640" height="1" y="418" fill="#6C769C" rx=".5"/><rect width="640" height="1" y="406" fill="#6C769C" rx=".5"/><g clip-path="url(#c)"><g clip-path="url(#d)"><path fill="#DCDFE4" d="M566 383H73v17h493v-17Z"/><path fill="#000" fill-opacity=".9" d="M502.4 392.5v-.3l1.8-1.9h.3l1.9 2v.2h-.3l-1.7-1.8-1.8 1.8h-.2ZM515.3 390a2.8 2.8 0 0 0-1.6.4 2.9 2.9 0 0 0-.8.9H512.5v-.2a2.9 2.9 0 0 1 1.2-1.1 3.3 3.3 0 0 1 2.3-.3 3.4 3.4 0 0 1 1.4.7l.5.7v.2h-.2l-.1-.1v-.1l-.2-.1-.1-.2a2.9 2.9 0 0 0-1.5-.8h-.6Zm0 1a1.8 1.8 0 0 0-.7.1 2 2 0 0 0-.7.5v.2a1.4 1.4 0 0 1-.3.2h-.2v-.2c0-.2.2-.4.3-.5a2.2 2.2 0 0 1 1-.6 2 2 0 0 1 1.7.2 2.2 2.2 0 0 1 .9.9v.2H517l-.1-.2-.2-.2-.3-.2-.3-.3a1.8 1.8 0 0 0-.8-.1Zm0 1a1 1 0 0 0-.3 0 1.2 1.2 0 0 0-.3.3h-.1l-.1.2-.1.1-.2.1-.1-.2.2-.4.3-.2a1.4 1.4 0 0 1 2 .6v.2H516.2l-.1-.2-.1-.1-.1-.1a1 1 0 0 0-.7-.3Zm-.4 1v-.1l.1-.1.2-.1h.4l.1.2v.5a.4.4 0 0 1-.4.1h-.1l-.2-.1v-.2l-.1-.1ZM525 393.8v-.1l.1-.1a2.3 2.3 0 0 0 .6-.9 2.6 2.6 0 0 0 .2-1 2.5 2.5 0 0 0-.2-1 2.7 2.7 0 0 0-.6-1h-.1V389.3h.1c.2 0 .3 0 .3.2a2.9 2.9 0 0 1 .6.8 2.9 2.9 0 0 1 .2 2 2.9 2.9 0 0 1-.5 1.1 3.2 3.2 0 0 1-.5.5h-.2v-.2Zm-3-1h-.7a.5.5 0 0 1-.3-.2.5.5 0 0 1-.2-.4v-1a.5.5 0 0 1 .2-.4l.1-.1h.8l.9-1H523.1l.1.3v3.6a.2.2 0 0 1-.3 0h-.1l-.9-.9Zm2.2.4.1-.1a6.3 6.3 0 0 0 .5-.7 1.7 1.7 0 0 0 .1-.7 2 2 0 0 0-.1-.8 6 6 0 0 0-.5-.6V390h.2l.2.2.1.2a2.6 2.6 0 0 1 .3.4 2.2 2.2 0 0 1-.1 2 3.6 3.6 0 0 1-.3.4l-.2.1h-.2Zm-1.3 0v-3l-.8.7h-.8l-.1.1v1.3H522l.1.1.8.8Zm.7-.6v-.1a5.5 5.5 0 0 0 .2-.4 1.1 1.1 0 0 0 0-1 3.5 3.5 0 0 0-.2-.2v-.2h.2l.2.2.1.2a1.4 1.4 0 0 1 .1.6v.2a1.6 1.6 0 0 1-.3.8.2.2 0 0 1-.3 0v-.1ZM534.5 391.8l-.1.3H533.8v.8l-.2.3-.3.1-.3.1h-3.5a.9.9 0 0 1-.4-.5v-2.1a.8.8 0 0 1 .2-.6.8.8 0 0 1 .6-.3h3l.4.1.3.2a.9.9 0 0 1 .2.6v.4H534.4v.2l.1.1v.3Zm-1-1a.5.5 0 0 0-.2-.4.5.5 0 0 0-.3-.1h-3.1a.5.5 0 0 0-.4.1v.2l-.1.2v1.9l.1.2.2.1h3.2a.5.5 0 0 0 .4 0l.1-.3v-1.9Zm-1-.2.2.1V392.6l-.2.1h-2.7v-2h2.7ZM545.3 390.6h-.4v-2.4l-.2.1-.4.1v-.3a2.3 2.3 0 0 0 .9-.4h.1v3Zm1.6 0h-.3v-2.4l-.3.1-.3.1-.1-.3a2.4 2.4 0 0 0 .9-.4h.1v3Zm1-1.7h-.2v-.4h.4v.4h-.2Zm0 1.8h-.2v-.4l.2-.1h.2v.4h-.2Zm1.6 0a.8.8 0 0 1-.7-.4 2 2 0 0 1-.2-1c0-.6 0-1 .2-1.2.2-.3.4-.4.8-.4.3 0 .5 0 .6.3.2.3.3.7.3 1.2s-.1.8-.3 1c-.2.4-.4.5-.7.5Zm0-2.7c-.2 0-.3 0-.4.3l-.2 1 .2.8c0 .2.2.3.4.3s.4-.1.5-.3l.1-1-.1-.8c-.1-.2-.3-.3-.5-.3Zm2.3 2.7a.8.8 0 0 1-.7-.4 2 2 0 0 1-.3-1c0-.6.1-1 .3-1.2.2-.3.4-.4.7-.4.3 0 .6 0 .7.3.2.3.2.7.2 1.2s0 .8-.2 1c-.2.4-.4.5-.7.5Zm0-2.7c-.2 0-.3 0-.4.3l-.2 1c0 .3 0 .6.2.8 0 .2.2.3.4.3s.3-.1.4-.3l.2-1c0-.3 0-.6-.2-.8 0-.2-.2-.3-.4-.3Zm2.3 2.6 1.1-2.9h.4l1.1 3h-.4l-.3-.8h-1.2l-.3.7h-.4Zm.8-1h1l-.4-1.3v-.2h-.1v.1l-.5 1.3Zm5.2 1h-.3V388.1v.2l-.1.1-1 2.2h-.2l-1-2.2v-.3 2.6h-.3v-3h.5l.8 2 .1.2v.2l.1-.2v-.2l1-2h.4v3Zm-18.7 5.6h-.3v-2.5l-.3.2a2 2 0 0 1-.3.1l-.1-.3a2.3 2.3 0 0 0 .9-.5h.1v3Zm1.7 0a.8.8 0 0 1-.7-.3 2 2 0 0 1-.3-1.1c0-.5.1-1 .3-1.2.2-.2.4-.4.7-.4.3 0 .6.1.7.4.2.2.2.6.2 1.1 0 .5 0 .9-.2 1.1-.2.3-.4.4-.7.4Zm0-2.7c-.2 0-.3.1-.4.3l-.2 1c0 .4 0 .6.2.8 0 .2.2.3.4.3s.3 0 .4-.3l.2-.9c0-.4 0-.7-.2-.9 0-.2-.2-.3-.4-.3Zm2.8-.2-1.4 3.3h-.3l1.4-3.3h.3Zm1.1 3a.8.8 0 0 1-.7-.4 2 2 0 0 1-.2-1.1c0-.5 0-1 .2-1.2.2-.2.4-.4.8-.4.3 0 .5.1.6.4.2.2.3.6.3 1.1 0 .5-.1.9-.3 1.1-.2.3-.4.4-.7.4Zm0-2.8c-.2 0-.3.1-.4.3l-.2 1c0 .4 0 .6.2.8 0 .2.2.3.4.3s.4 0 .5-.3l.1-.9-.1-.9c-.1-.2-.3-.3-.5-.3Zm1.4 2.4.2-.2.3.2h.3l.5-.1.1-.5-.1-.4-.6-.2a5.5 5.5 0 0 0-.5 0l.1-1.4h1.4v.3h-1l-.1.8h.2c.3 0 .6 0 .7.2.2.2.3.4.3.7 0 .3 0 .5-.3.7a1 1 0 0 1-.7.2h-.4c-.2 0-.3-.2-.4-.3Zm3.7-2.6-1.4 3.3h-.3l1.4-3.3h.3Zm.3 2.9v-.5l.1-.3.3-.2a6.5 6.5 0 0 1 .6-.5l.2-.2v-.8l-.4-.2-.4.1a1 1 0 0 0-.3.2l-.2-.2.4-.3h.5c.3 0 .5 0 .6.2.2.1.2.3.2.5a1 1 0 0 1-.3.8l-.3.3a9.7 9.7 0 0 0-.5.4l-.1.2v.2h1.3v.3h-1.7Zm3 0a.8.8 0 0 1-.6-.3 2 2 0 0 1-.3-1.1c0-.5.1-1 .3-1.2.2-.2.4-.4.7-.4.3 0 .6.1.7.4.2.2.2.6.2 1.1 0 .5 0 .9-.2 1.1-.2.3-.4.4-.7.4Zm.1-2.7c-.2 0-.3.1-.4.3l-.2 1c0 .4 0 .6.2.8 0 .2.2.3.4.3s.3 0 .4-.3l.2-.9c0-.4 0-.7-.2-.9 0-.2-.2-.3-.4-.3Zm1.4 2.7v-.5l.2-.3.2-.2a6.7 6.7 0 0 1 .6-.5l.2-.2a.7.7 0 0 0 .1-.5l-.1-.3-.4-.2-.3.1a1 1 0 0 0-.3.2l-.3-.2.4-.3h.5c.3 0 .5 0 .7.2l.2.5v.3l-.2.3-.2.2-.3.3a18.6 18.6 0 0 0-.6.6v.2h1.4v.3h-1.8Zm3.1 0h-.3v-2.5l-.3.2-.3.1-.1-.3a2.5 2.5 0 0 0 .9-.5h.1v3Z"/><path fill="url(#e)" fill-rule="evenodd" d="M270.6 387.6c-.2 0-.3.2-.3.3v3.6h3.8v-3.9h-3.5Zm7.4 0h-3.5v3.9h3.8v-3.6c0-.1-.1-.3-.3-.3Zm-3.5 4.2h3.8v3.6c0 .2-.1.4-.3.4h-3.5v-4Zm-.4 0h-3.8v3.6c0 .2.1.4.3.4h3.5v-4Z" clip-rule="evenodd"/><path fill="url(#f)" fill-opacity=".3" d="M288.8 393.5a2.5 2.5 0 0 1-2.5-2.4c0-1.4 1.1-2.5 2.5-2.5 1.3 0 2.4 1 2.4 2.5 0 1.3-1 2.4-2.4 2.4Z"/><path fill="url(#g)" fill-rule="evenodd" d="M285.3 391c0 2 1.5 3.6 3.5 3.6.7 0 1.5-.3 2-.7l1.8 1.8c.2.2.5.2.7 0 .2-.2.2-.6 0-.8l-1.7-1.7a3.6 3.6 0 0 0-2.8-5.7c-2 0-3.5 1.6-3.5 3.6Zm1 0c0 1.4 1.1 2.5 2.5 2.5 1.3 0 2.4-1 2.4-2.4s-1-2.5-2.4-2.5a2.5 2.5 0 0 0-2.5 2.5Z" clip-rule="evenodd"/><path fill="url(#h)" d="M306.1 390h-5.4c-.2 0-.4 0-.4.3v4.8c0 .2.2.4.4.4h5.4c.2 0 .4-.2.4-.4v-4.8c0-.2-.2-.4-.4-.4Z"/><path stroke="url(#i)" stroke-opacity=".4" stroke-width=".5" d="M306.1 390h-5.4c-.2 0-.3.1-.3.3v4.8c0 .2.1.3.3.3h5.4c.2 0 .3-.1.3-.3v-4.8c0-.2-.1-.3-.3-.3Z"/><path fill="url(#j)" d="M308.2 387.9h-5.5c-.2 0-.3.1-.3.3v4.9c0 .2.1.3.3.3h5.5c.2 0 .3-.1.3-.3v-4.9c0-.2-.1-.3-.3-.3Z"/><path stroke="#000" stroke-opacity=".1" stroke-width=".5" d="M308.2 388h-5.5c-.1 0-.2 0-.2.2v4.9c0 .1 0 .2.2.2h5.5l.3-.2v-4.9l-.3-.3Z"/><path fill="url(#k)" fill-opacity=".4" d="M306.1 390h-5.4c-.2 0-.4 0-.4.3v4.8c0 .2.2.4.4.4h5.4c.2 0 .4-.2.4-.4v-4.8c0-.2-.2-.4-.4-.4Z"/><path fill="url(#l)" d="M319.5 387.7a4 4 0 0 1 4 4 4 4 0 0 1-4 4c-.7 0-1.3-.2-1.9-.5l-1.6.4c-.2.1-.4 0-.4-.2v-.2l.4-1.6a4 4 0 0 1-.4-2 4 4 0 0 1 3.9-4Z"/><path fill="url(#m)" d="M319.5 387.7a4 4 0 0 1 4 4 4 4 0 0 1-4 4c-.7 0-1.3-.2-1.9-.5l-1.6.4c-.2.1-.4 0-.4-.2v-.2l.4-1.6a4 4 0 0 1-.4-2 4 4 0 0 1 3.9-4Z" style="mix-blend-mode:lighten"/><path fill="#FAFAFA" fill-rule="evenodd" d="M317.4 390c-.1 0-.3 0-.3.3v2.8c0 .2.2.3.3.3h2.8c.2 0 .3-.1.3-.3v-2.8c0-.2-.1-.4-.3-.4h-2.8Zm4.3.4-.8.6v1.4l.8.5.2-.1v-2.3s-.1-.1-.2 0Z" clip-rule="evenodd"/><mask id="p" fill="#fff"><rect width="9.3" height="7.4" x="330.2" y="388.9" rx=".5"/></mask><rect width="9.3" height="7.4" x="330.2" y="388.9" fill="url(#n)" stroke="url(#o)" stroke-width="2" mask="url(#p)" rx=".5"/><path fill="#E09F00" d="M330.2 388h3.2l.9 1.4-.1.1h-4V388Z"/><path fill="#036ABB" d="m331.7 394 .1-.1h6.1v2.4h-6.2V394Z"/><path fill="url(#q)" d="m352.6 394.5-.3.1c-.4.2-.7.2-1 .2-1.5 0-2.8-1-2.8-2.2a1 1 0 0 1 .5-.8c-1.3 0-1.6 1.4-1.6 2.2 0 2.2 2 2.4 2.5 2.4l.8-.1c.9-.3 1.6-.9 2-1.6a.1.1 0 0 0 0-.2Z"/><path fill="url(#r)" d="m352.6 394.5-.3.1c-.4.2-.7.2-1 .2-1.5 0-2.8-1-2.8-2.2a1 1 0 0 1 .5-.8c-1.3 0-1.6 1.4-1.6 2.2 0 2.2 2 2.4 2.5 2.4l.8-.1c.9-.3 1.6-.9 2-1.6a.1.1 0 0 0 0-.2Z" opacity=".3"/><path fill="url(#s)" d="M348.8 396c-.3-.1-.5-.4-.7-.6a2.4 2.4 0 0 1-.4-2 2.4 2.4 0 0 1 1.3-1.6l.5-.1a1 1 0 0 1 1 1c0-.1.7-2.5-2.5-2.5a2.5 2.5 0 0 0-2.4 2.4 3.9 3.9 0 0 0 2.4 3.6 4 4 0 0 0 2.7 0 2.3 2.3 0 0 1-1.9-.2Z"/><path fill="url(#t)" d="M348.8 396c-.3-.1-.5-.4-.7-.6a2.4 2.4 0 0 1-.4-2 2.4 2.4 0 0 1 1.3-1.6l.5-.1a1 1 0 0 1 1 1c0-.1.7-2.5-2.5-2.5a2.5 2.5 0 0 0-2.4 2.4 3.9 3.9 0 0 0 2.4 3.6 4 4 0 0 0 2.7 0 2.3 2.3 0 0 1-1.9-.2Z" opacity=".4"/><path fill="url(#u)" d="M350.2 393.2v.4c.5.3 1.3.3 1.3.3.4 0 .7 0 1-.3a1.9 1.9 0 0 0 .9-1.5c0-.7-.3-1.2-.4-1.4-.6-1.2-2-2-3.5-2a3.9 3.9 0 0 0-3.9 3.9c0-1.1 1.1-2 2.4-2 .1 0 .7 0 1.3.3.5.2.8.5 1 .9l.2.8-.3.6Z"/><path fill="url(#v)" d="M350.2 393.2v.4c.5.3 1.3.3 1.3.3.4 0 .7 0 1-.3a1.9 1.9 0 0 0 .9-1.5c0-.7-.3-1.2-.4-1.4-.6-1.2-2-2-3.5-2a3.9 3.9 0 0 0-3.9 3.9c0-1.1 1.1-2 2.4-2 .1 0 .7 0 1.3.3.5.2.8.5 1 .9l.2.8-.3.6Z"/><path fill="#fff" fill-opacity=".5" d="M370.2 384.7h-11c-.7 0-1.4.7-1.4 1.4v11.1c0 .8.7 1.4 1.4 1.4h11c.7 0 1.3-.6 1.3-1.4v-11c0-.8-.6-1.5-1.3-1.5Z"/><path stroke="url(#w)" stroke-opacity=".5" d="M370.2 384.6h-11c-.8 0-1.5.7-1.5 1.5v11.1c0 .9.7 1.6 1.5 1.6h11c.8 0 1.5-.7 1.5-1.6v-11c0-1-.7-1.6-1.5-1.6Z"/><path fill="#005FB8" d="M367 397.5h-4.7c-.2 0-.5.3-.5.6s.3.5.5.5h4.7c.3 0 .6-.2.6-.5s-.3-.6-.6-.6Z"/><path fill="#fff" d="M368.1 387.5h-6.8c-.4 0-.7.3-.7.7v7c0 .3.3.6.7.6h6.8c.4 0 .7-.3.7-.7v-6.9c0-.4-.3-.7-.7-.7Z"/><path fill="#67B279" fill-rule="evenodd" d="M364.8 389c-1 0-2.1.3-3 .9a5.3 5.3 0 0 0 3 5 5.4 5.4 0 0 0 3-5c-.9-.6-1.9-1-3-1Z" clip-rule="evenodd"/><path fill="#fff" fill-rule="evenodd" d="m364.8 392.9 1.7-2.3h-.3l-1.5 1.5-.5-.6c-.3-.3-.6-.1-.7 0l1.3 1.4Z" clip-rule="evenodd"/><path fill="url(#x)" d="M83.3 394.8c1.7 0 3-1.4 3-3.1 0-1.8-1.3-3.1-3-3.1s-3.1 1.3-3.1 3c0 1.8 1.4 3.2 3 3.2Z"/><path fill="#000" fill-opacity=".9" d="M91 390.6v-.1l.1-.4.2-.2.2-.3a7 7 0 0 1 .6-.5l.2-.2v-.2l.1-.2-.1-.4-.4-.1h-.4a1 1 0 0 0-.3.3l-.2-.2c.1-.2.3-.3.4-.3l.5-.1c.3 0 .5 0 .6.2l.3.6a1.1 1.1 0 0 1-.4.8l-.3.2a10.6 10.6 0 0 0-.5.4l-.1.2v.2h1.4v.3H91Zm3.9-3v2h.3v.4H95v.7h-.3v-.7h-1.4v-.3a11 11 0 0 0 1.3-2h.4Zm-1.3 2h1v-1.4a11.9 11.9 0 0 1-1 1.4Zm2.5-.8c-.1 0-.3 0-.4-.2a.6.6 0 0 1-.1-.4l.1-.3c.1-.2.3-.2.4-.2.2 0 .3 0 .4.2l.2.3c0 .2 0 .3-.2.4 0 .2-.2.2-.4.2Zm0-.9-.2.1v.5h.2a.3.3 0 0 0 .3-.3v-.2H96Zm3.3 2.6a2 2 0 0 1-.9.2c-.4 0-.8-.2-1-.4-.2-.3-.4-.6-.4-1 0-.5.2-1 .4-1.2.3-.3.7-.4 1.1-.4a2 2 0 0 1 .8.1l-.2.3a1.4 1.4 0 0 0-.6-.1 1 1 0 0 0-.8.3c-.2.2-.3.5-.3 1 0 .3.1.5.3.7.2.2.4.4.7.4a1.4 1.4 0 0 0 .7-.2l.2.3Z"/><path fill="#000" fill-opacity=".6" d="m91 396 .1-.3a1.3 1.3 0 0 0 .8.2l.4-.1.2-.4c0-.1 0-.2-.2-.3l-.4-.2c-.3-.1-.5-.2-.6-.4a.7.7 0 0 1-.2-.5c0-.2 0-.4.2-.6l.7-.2a1.6 1.6 0 0 1 .8.2l-.2.3a1.4 1.4 0 0 0-.6-.2c-.2 0-.3 0-.4.2l-.2.3c0 .1 0 .2.2.3l.4.2.7.4.1.5c0 .2 0 .4-.2.6a1 1 0 0 1-.7.2h-.5l-.4-.2Zm4.1.2h-.3v-.4l-.3.3-.4.1c-.2 0-.4 0-.6-.2l-.1-.7v-1.2h.3v1.2l.1.5.4.1.4-.1.2-.5V394h.3v2Zm2.5 0h-.4V395l-.1-.5-.4-.2c-.1 0-.3 0-.4.2l-.1.5v1.2h-.4V394h.4v.3l.3-.3.4-.1c.2 0 .4 0 .5.2l.2.7v1.3Zm2.4 0h-.4v-1.7l-.4-.2c-.2 0-.3 0-.5.2l-.1.5v1.2h-.4V394h.4v.3l.3-.3.4-.1c.2 0 .4 0 .5.2l.2.7v1.3Zm2.4-2.1-1 2.5-.3.4-.5.2a.8.8 0 0 1-.2 0v-.4a.4.4 0 0 0 .2 0h.3l.1-.2.2-.4-.9-2.1h.4l.6 1.6v.1l.1-.1.6-1.6h.4Z"/></g><g clip-path="url(#y)"><path fill="#fff" d="M566 70H73v313h493V70Z"/><path fill="#67B279" fill-rule="evenodd" d="M90 84.4c-2.2 0-4.9.5-7.1 1.6 0 2.5 0 8.6 7.2 12.7 7.2-4.1 7.1-10.2 7.1-12.7-2.2-1.1-4.9-1.6-7.1-1.6Z" clip-rule="evenodd"/><path fill="#D2D2D2" d="M106.7 69.7v314h.7v-314h-.7Z"/><path fill="#5B9F6B" fill-rule="evenodd" d="M90 84.4c-2.2 0-4.9.5-7.1 1.6 0 2.5 0 8.6 7.2 12.7V84.4Z" clip-rule="evenodd"/><path fill="#fff" fill-rule="evenodd" d="m90 93.6 4.2-5.5c-.4-.3-.6-.1-.8 0L90 91.7 88.6 90c-.6-.7-1.4-.1-1.6 0l3 3.5Z" clip-rule="evenodd"/><path stroke="#67B279" stroke-linecap="round" stroke-linejoin="round" d="M86.3 129H85a.4.4 0 0 1-.3-.7l4.8-3.6h.5l4.8 3.6c.4.2.2.8-.3.8h-1.3v5c0 .2-.2.4-.5.4h-6a.4.4 0 0 1-.4-.5v-5Z" clip-rule="evenodd"/><path stroke="#67B279" stroke-linecap="round" stroke-linejoin="round" d="m88 162.7 1.8 1.8 2.3-3"/><path stroke="#67B279" stroke-linecap="round" stroke-linejoin="round" d="M89.8 158c-1.7 0-3.8.3-5.4 1.2 0 1.8 0 6.4 5.4 9.5 5.4-3.1 5.3-7.7 5.3-9.5-1.6-.9-3.7-1.3-5.3-1.3Z" clip-rule="evenodd"/><path fill="#F6F6F6" d="M106.7 179.7h-34v34h34v-34Z"/><path stroke="#67B279" stroke-linecap="round" stroke-linejoin="round" d="M91.2 191.5a4 4 0 0 1 4 4.1h-4.3v-4.1H91.2Z" clip-rule="evenodd"/><path stroke="#67B279" stroke-linecap="round" stroke-linejoin="round" d="M89 192.7h.2v4.1c0 .3.2.6.5.6H94a4.8 4.8 0 1 1-4.9-4.7Z" clip-rule="evenodd"/><path stroke="#67B279" stroke-linecap="round" stroke-linejoin="round" d="M94.5 231.5h-3c-.3 0-.6.3-.6.6v3c0 .4.3.6.6.6h3c.4 0 .6-.2.6-.6v-3c0-.3-.2-.6-.6-.6ZM86 231.9c.2-.4.8-.4 1 0l1.7 3c.2.3-.1.8-.6.8h-3.3a.6.6 0 0 1-.5-.9l1.6-3ZM88 225h-3c-.4 0-.6.2-.6.6v3c0 .3.2.5.6.5h3c.3 0 .6-.2.6-.5v-3c0-.4-.3-.6-.6-.6Z"/><path stroke="#67B279" d="M93 225a2 2 0 1 1 0 4.1 2 2 0 0 1 0-4.1Z" clip-rule="evenodd"/><path stroke="#67B279" stroke-linejoin="round" d="M87.3 268h.2l.8.4c.2 0 .3.1.4.3l.4 1.1h1.3l.4-1c0-.3.2-.4.4-.4l.8-.4h.4l1.1.6 1-1-.6-1v-.5l.4-.8c0-.2.2-.3.3-.4l1.1-.4v-1.3l-1-.4a.5.5 0 0 1-.4-.4l-.4-.8v-.4l.6-1.1-1-1-1 .6H92l-.8-.4a.5.5 0 0 1-.4-.3l-.4-1.1h-1.3l-.4 1c0 .2-.2.4-.4.4l-.8.4h-.4a12 12 0 0 0-1-.6l-1 1 .5 1v.5l-.4.8c0 .2-.1.3-.3.4l-1.1.4v1.3l1 .4c.3 0 .4.2.4.4l.4.7v.5l-.6 1.1 1 1 1-.6h.3Z" clip-rule="evenodd"/><path stroke="#67B279" stroke-linejoin="round" d="M89.8 262.2a1.6 1.6 0 1 0 0 3.3 1.6 1.6 0 0 0 0-3.3Z" clip-rule="evenodd"/><path stroke="#67B279" stroke-linecap="round" d="M86.2 294.4c2.1-3.1 8-2.1 8.3 3v.9M93.3 300.3c-2.1 3.2-8 2.1-8.3-3v-.5"/><path stroke="#67B279" stroke-linecap="round" stroke-linejoin="round" d="m95.7 297.4-1.2 1.2-1.2-1.2M83.8 297.4l1.2-1.2 1.2 1.2"/><path fill="#3D3D3D" d="M494.5 79.8a.3.3 0 0 1-.3-.3v-.1a.3.3 0 0 1 .2-.2h5.6l.1.1v.4a.3.3 0 0 1-.2.1h-5.4ZM522.6 82.8h-.3a1 1 0 0 1-.3-.3l-.2-.2v-4.9l.2-.3a1 1 0 0 1 .6-.3H527.2l.2.3a.9.9 0 0 1 .3.6V82.3a1 1 0 0 1-.5.4l-.4.1h-4.2Zm4.2-.6h.2a.3.3 0 0 0 .1-.3v-4.3a.3.3 0 0 0-.2-.2h-4.3a.3.3 0 0 0-.2.1v4.4a.3.3 0 0 0 0 .2.3.3 0 0 0 .2.1h4.2ZM552.2 80.2l-2.4 2.5-.3.1h-.2v-.5l2.5-2.5-2.5-2.5v-.2a.3.3 0 0 1 .1-.3h.1l.3.1 2.4 2.5 2.5-2.5H555a.3.3 0 0 1 .1.4l-2.4 2.5 2.4 2.5.1.2v.1a.3.3 0 0 1-.2.2h-.3l-2.5-2.6ZM131.2 120.3l2.3-1.5c.3.6.8 1 1.2 1.2.5.3 1 .4 1.6.4.6 0 1.1-.1 1.5-.4.3-.3.5-.6.5-1 0-.5-.2-1-.5-1.2a4 4 0 0 0-1.7-.6 7 7 0 0 1-3.3-1.4c-.7-.6-1-1.5-1-2.6 0-1.3.4-2.3 1.3-3 1-.8 2.1-1.2 3.6-1.2 1 0 1.8.2 2.5.6.8.3 1.4.9 1.8 1.5l-2.3 1.5c-.3-.4-.6-.7-1-.9-.3-.2-.7-.3-1.1-.3-.6 0-1 .2-1.4.4-.3.3-.5.6-.5 1s.2.7.5 1c.3.2.9.4 1.7.5 1.4.3 2.5.8 3.2 1.5.7.6 1.1 1.6 1.1 2.7a4 4 0 0 1-1.3 3.2c-.9.8-2 1.2-3.7 1.2-1 0-2-.2-3-.7a5 5 0 0 1-2-2Zm17.5 1.8-1 .6-1.4.2c-1 0-1.9-.3-2.4-.8-.6-.5-.8-1.2-.8-2.2v-4.6h-1.6V113h1.6v-2.4l3-.6v3h2.2v2.2H146v4.5c0 .3 0 .6.2.7.1.2.3.2.6.2h.4l.4-.3 1.1 1.7Zm9.5.6h-2.8v-1.2a3.7 3.7 0 0 1-2.9 1.4c-.8 0-1.5-.3-2-.8-.7-.5-1-1.2-1-2 0-1 .3-1.6.9-2.2.5-.6 1.4-1 2.5-1l2.5-.3v-.3c0-.5-.1-.8-.4-1-.3-.3-.7-.4-1.2-.4-.4 0-.8 0-1.2.3l-1 .8-1.8-1.2c.4-.5 1-1 1.7-1.4.8-.4 1.6-.6 2.6-.6 1.3 0 2.4.4 3 1 .7.7 1 1.8 1 3.1v5.8Zm-2.8-4v-.4l-1.9.2-1 .4a1 1 0 0 0-.3.8c0 .3.2.6.4.8.2.2.5.3.8.3.6 0 1.1-.2 1.5-.6.3-.4.5-.9.5-1.4Zm11.3 3.4-1 .6-1.4.2c-1.1 0-1.9-.3-2.4-.8-.6-.5-.8-1.2-.8-2.2v-4.6h-1.6V113h1.6v-2.4l3-.6v3h2.2v2.2H164v4.5c0 .3 0 .6.2.7.1.2.3.2.6.2h.4l.4-.3 1.1 1.7Zm3-10.3c-.5 0-1-.1-1.3-.5-.3-.3-.5-.7-.5-1.1 0-.5.2-1 .5-1.2.3-.3.8-.5 1.3-.5s.9.2 1.2.5c.3.3.5.7.5 1.2s-.2.9-.5 1.2c-.3.3-.7.4-1.2.4Zm1.4 10.9h-3V113h3v9.6Zm1.7-1.2 1.4-1.8c.4.4.9.7 1.3.9l1.3.2c.4 0 .7 0 1-.2.2-.1.3-.4.3-.7 0-.2 0-.4-.3-.5-.2-.1-.6-.3-1-.3a5.2 5.2 0 0 1-2.8-1c-.5-.6-.8-1.2-.8-2a3 3 0 0 1 1-2.3 4 4 0 0 1 2.8-1c.6 0 1.3.1 1.8.3l1.6.8-1.4 1.8-1-.6-1-.2c-.5 0-.7 0-1 .2l-.2.6.3.6 1.2.3c1.2.1 2 .4 2.6 1 .5.4.8 1.1.8 2 0 1-.4 1.8-1.1 2.4-.8.6-1.7.9-2.9.9-.7 0-1.4-.1-2.1-.4-.7-.2-1.3-.5-1.8-1Zm16 .6-1.2.6-1.3.2c-1 0-1.9-.3-2.4-.8-.6-.5-.8-1.2-.8-2.2v-4.6h-1.6V113h1.6v-2.4l3-.6v3h2.2v2.2H186v4.5c0 .3 0 .6.2.7.1.2.3.2.6.2h.4l.4-.3 1.1 1.7Zm2.9-10.3c-.5 0-1-.1-1.3-.5-.3-.3-.5-.7-.5-1.1 0-.5.2-1 .5-1.2.3-.3.8-.5 1.3-.5s.9.2 1.2.5c.3.3.5.7.5 1.2s-.2.9-.5 1.2c-.3.3-.7.4-1.2.4Zm1.4 10.9h-3V113h3v9.6Zm10.9-2a4.5 4.5 0 0 1-4.1 2.2c-1.6 0-2.8-.5-3.7-1.3-.8-1-1.3-2-1.3-3.5 0-1.6.5-3 1.5-3.8 1-1 2.2-1.4 3.7-1.4.9 0 1.7.1 2.3.5.7.4 1.2 1 1.5 1.7l-2.2 1.1c-.2-.4-.4-.6-.7-.8-.3-.2-.6-.3-1-.3-.6 0-1 .3-1.5.7-.4.5-.6 1.2-.6 2.1 0 .9.2 1.6.6 2 .4.4.9.6 1.5.6.4 0 .7 0 1-.2l.8-.8 2.2 1.2Zm1 .8 1.4-1.8c.4.4.9.7 1.3.9l1.3.2c.4 0 .7 0 1-.2.2-.1.3-.4.3-.7 0-.2-.1-.4-.3-.5-.2-.1-.6-.3-1-.3a5.2 5.2 0 0 1-2.8-1c-.5-.6-.8-1.2-.8-2a3 3 0 0 1 1-2.3 4 4 0 0 1 2.8-1l1.8.3c.6.2 1.1.5 1.5.8l-1.3 1.8-1-.6-1-.2c-.5 0-.8 0-1 .2l-.2.6c0 .2 0 .4.3.6l1.2.3c1.1.1 2 .4 2.5 1 .6.4.9 1.1.9 2 0 1-.4 1.8-1.1 2.4-.8.6-1.7.9-2.9.9-.7 0-1.5-.1-2.1-.4-.7-.2-1.3-.5-1.8-1Z"/><path stroke="#67B279" stroke-linecap="round" stroke-linejoin="round" d="M410.4 115.5h-7.1M410.4 111.9H401M410.4 119h-4.7"/><path fill="#3D3D3D" d="M139.7 161h-2.5l-1.5-2.7a3 3 0 0 0-.6-.8c-.2-.2-.4-.3-.7-.3h-.6v3.7h-2.2v-10h3.5c1.3 0 2.2.2 2.8.7.6.5.9 1.2.9 2.1 0 .7-.2 1.3-.6 1.8-.4.5-.9.8-1.6 1 .3.2.6.3.8.6l.7 1 1.6 2.8Zm-5.9-8.4v2.9h1c.5 0 .9-.2 1.2-.4.3-.3.4-.7.4-1.1 0-.5-.1-.8-.4-1-.2-.3-.6-.4-1.2-.4h-1Zm13 5.4H142c0 .5.2.8.5 1.1.3.3.7.4 1.2.4.2 0 .5 0 .8-.2.3-.1.6-.3.8-.6l1.4 1c-.5.5-1 .9-1.5 1.1-.5.2-1 .3-1.7.3-1.2 0-2-.3-2.7-1-.7-.6-1-1.5-1-2.6 0-1.2.3-2.1 1-2.8.7-.8 1.5-1.1 2.6-1.1 1 0 1.8.3 2.4 1 .6.5.9 1.4.9 2.6v.8Zm-2-1.4c0-.5-.2-.9-.4-1.1-.2-.3-.5-.4-.9-.4s-.7.1-1 .4c-.2.3-.4.7-.4 1.1h2.6Zm10.5 7.6H153V160c-.3.4-.6.7-1 .8a3 3 0 0 1-1.3.3c-.9 0-1.6-.3-2.2-1-.5-.6-.8-1.4-.8-2.6 0-1.2.3-2.1.9-2.8a3 3 0 0 1 3.6-.8c.3.1.6.4.7.7v-.8h2.3v10.4Zm-2.2-6.7v-.6c0-.4-.1-.8-.4-1.1-.3-.3-.6-.5-1-.5-.6 0-1 .2-1.3.6-.2.4-.4.9-.4 1.6 0 .6.2 1 .4 1.4.3.3.7.5 1.1.5.5 0 .9-.2 1.2-.5.3-.4.4-.8.4-1.4Zm10.7 3.4h-2.2v-1a2.6 2.6 0 0 1-2.2 1.2c-.9 0-1.5-.2-1.9-.7-.4-.6-.6-1.3-.6-2.2v-4.4h2.2v4c0 .6 0 1 .3 1.2.2.3.5.4.9.4s.7-.1 1-.4c.2-.3.3-.7.3-1.1v-4.1h2.2v7.1Zm8.2-3h-4.6c0 .6.2 1 .5 1.2.3.3.7.4 1.2.4.2 0 .5 0 .8-.2l.8-.6 1.3 1c-.4.5-.9.9-1.4 1.1-.5.2-1 .3-1.7.3-1.2 0-2.1-.3-2.8-1-.6-.6-1-1.5-1-2.6 0-1.2.4-2.1 1-2.8.8-.8 1.6-1.1 2.7-1.1 1 0 1.8.3 2.4 1 .6.5.8 1.4.8 2.6v.8Zm-2-1.3c0-.5-.1-.9-.3-1.1-.2-.3-.5-.4-1-.4-.3 0-.6.1-.9.4l-.5 1.1h2.7Zm2.8 3.6 1-1.4 1 .6 1 .2.7-.2.2-.5c0-.1 0-.3-.2-.4a2 2 0 0 0-.8-.2c-1-.2-1.6-.5-2-.8a2 2 0 0 1-.6-1.5c0-.7.3-1.3.8-1.7.6-.5 1.2-.7 2-.7.6 0 1 0 1.4.2.5.1.8.3 1.2.6l-1 1.3-.8-.4-.8-.2c-.3 0-.5 0-.6.2-.2.1-.3.2-.3.4s.1.4.3.5l1 .2c.8.1 1.4.4 1.8.7.4.4.6 1 .6 1.6 0 .7-.3 1.3-.9 1.8-.5.4-1.2.6-2.1.6-.6 0-1 0-1.6-.2a4 4 0 0 1-1.3-.7Zm11.8.4-.8.4-1 .1c-.8 0-1.4-.2-1.8-.6-.4-.3-.6-.9-.6-1.6v-3.5h-1.1v-1.6h1.1V152l2.3-.5v2.3h1.6v1.6h-1.6v3.4l.1.5.5.2a1.1 1.1 0 0 0 .6-.2l.7 1.3Zm.5-.4 1-1.4 1 .6 1 .2.7-.2.2-.5c0-.1 0-.3-.2-.4a2 2 0 0 0-.8-.2c-1-.2-1.6-.5-2-.8a2 2 0 0 1-.6-1.5c0-.7.3-1.3.8-1.7.6-.5 1.2-.7 2-.7.6 0 1 0 1.4.2.5.1.8.3 1.2.6l-1 1.3-.8-.4-.8-.2c-.3 0-.5 0-.6.2-.2.1-.3.2-.3.4s.1.4.3.5l1 .2c.8.1 1.4.4 1.8.7.4.4.6 1 .6 1.6 0 .7-.3 1.3-.9 1.8-.5.4-1.2.6-2.1.6-.6 0-1 0-1.6-.2a4 4 0 0 1-1.3-.7Z"/><path fill="#F67247" d="M131.3 194.4v-.7c0-.5 0-1 .3-1.4a4.7 4.7 0 0 1 1.5-2 19.8 19.8 0 0 1 1.6-1.2l.6-.6.4-.6v-.7c0-.4 0-.6-.3-.9-.2-.2-.5-.3-.9-.3a2 2 0 0 0-1 .3l-1 .8-1.4-1c.5-.6 1-1 1.6-1.4.6-.3 1.3-.5 2.1-.5 1 0 1.8.3 2.3.8.6.5.9 1.2.9 2a3.6 3.6 0 0 1-.8 2.3l-.8.8a14.9 14.9 0 0 1-1.6 1.2l-.5.4-.4.5-.1.4h4.2v1.8h-6.7Zm9.3.2c-.4 0-.7-.1-1-.3-.2-.3-.3-.6-.3-1 0-.3.1-.6.4-.8.2-.3.5-.4 1-.4.3 0 .6.1.8.4.3.2.4.5.4.9 0 .3-.1.6-.4.9-.2.2-.5.3-.9.3Zm9.5-9c-.9 1.7-1.6 3.1-2.1 4.4-.5 1.3-1 2.8-1.2 4.4h-2.3c.3-1.5.7-3 1.3-4.3.6-1.4 1.2-2.7 2-3.9h-4.7v-1.8h7v1.3Zm10.1 8.8h-2.8l-3-4.2v-.2l-.2-.3v4.7h-2.3v-10h2.2v4.6l.2-.2.2-.3 2.8-4.1h2.6l-3.5 4.7 3.8 5.3ZM134 208.8h-.6v-.6l-.5.5-.8.2c-.4 0-.7-.1-1-.3-.2-.3-.3-.6-.3-1 0-.3.1-.6.4-.8.2-.3.6-.4 1-.5l1.2-.1v-.1c0-.4 0-.6-.2-.8a1 1 0 0 0-.7-.2l-.6.1-.6.4-.4-.4a2.2 2.2 0 0 1 1.6-.7c.6 0 1 .2 1.2.4.2.3.4.7.4 1.2v2.7Zm-.6-1.7v-.4l-1 .1c-.3 0-.6.2-.7.3-.2 0-.2.3-.2.5s0 .4.2.6l.5.2c.4 0 .7-.2.9-.4.2-.2.3-.5.3-.9Zm4.9 1-.6.6-.9.2c-.5 0-1-.2-1.3-.6-.3-.3-.4-.8-.4-1.5s.1-1.2.5-1.7c.3-.4.8-.6 1.4-.6.3 0 .5 0 .7.2.3.1.4.3.6.5v-2.6h.6v6.2h-.6v-.7Zm-2.5-1.3c0 .5 0 .8.3 1.1.2.3.5.4.9.4s.7-.1 1-.4c.2-.2.3-.6.3-1v-.6c0-.3-.1-.6-.4-.9-.2-.2-.5-.3-.8-.3-.4 0-.8.1-1 .4a2 2 0 0 0-.3 1.3Zm4.1 1.6.4-.5c.1.2.3.3.5.3l.6.1.6-.1.2-.5c0-.2 0-.3-.2-.4-.1-.2-.3-.3-.6-.3-.5-.2-.9-.3-1-.5a1 1 0 0 1-.4-.8c0-.3.2-.6.4-.8.3-.3.6-.4 1.1-.4l.7.1c.2 0 .4.2.6.4l-.4.4-.5-.2-.4-.1a1 1 0 0 0-.6.1c-.2.1-.2.3-.2.5s0 .3.2.4l.7.3c.4 0 .7.2 1 .4.2.2.3.5.3.8 0 .4-.2.7-.5 1-.2.2-.6.3-1 .3a2.3 2.3 0 0 1-1.5-.5ZM219 218.4h-86.2a2.4 2.4 0 1 0 0 4.8H219a2.4 2.4 0 0 0 0-4.8Z"/><path fill="#D58500" d="m226.8 193.3 1.3-1.3.8.7 1 .2c.6 0 1-.1 1.2-.4.3-.2.5-.5.5-1 0-.4-.2-.7-.6-1a3 3 0 0 0-1.6-.3h-.9v-1.8h.8c.6 0 1.1 0 1.5-.3.3-.2.4-.6.4-1s0-.7-.3-.9c-.2-.2-.5-.3-.9-.3l-.9.2-.8.7-1.3-1.1a4.5 4.5 0 0 1 3.3-1.5c1 0 1.8.3 2.4.7.5.5.8 1.1.8 1.9 0 .6-.1 1-.4 1.5-.3.4-.8.7-1.3.9.6.1 1 .4 1.5.9.3.4.5.9.5 1.5 0 .9-.3 1.6-1 2.2a4 4 0 0 1-2.7.8 5 5 0 0 1-1.9-.3c-.5-.2-1-.6-1.4-1Zm9.5 1.3c-.4 0-.7-.1-.9-.3-.2-.3-.4-.6-.4-1 0-.3.2-.6.4-.8.3-.3.6-.4 1-.4.3 0 .6.1.9.4.2.2.3.5.3.9 0 .3 0 .6-.3.9-.3.2-.6.3-1 .3Zm9.6-9c-1 1.7-1.6 3.1-2.2 4.4-.5 1.3-.9 2.8-1.1 4.4h-2.4c.3-1.5.7-3 1.3-4.3.6-1.4 1.3-2.7 2-3.9H239v-1.8h7v1.3Zm10 8.8h-2.8l-3-4.2v-.2l-.2-.3v4.7h-2.3v-10h2.3v4.6l.1-.2.2-.3 2.8-4.1h2.6l-3.5 4.7 3.8 5.3ZM228.9 208.7a1.7 1.7 0 0 1-.8.2 1 1 0 0 1-.8-.3c-.2-.2-.2-.5-.2-.8v-2.6h-.8v-.6h.8v-1l.6-.2v1.2h1v.6h-1v2.5c0 .2 0 .4.2.5l.3.1h.5l.2.4Zm2.9-3.5H231.5a1 1 0 0 0-.8.4 2 2 0 0 0-.3 1v2.2h-.7v-4.2h.7v.8c0-.3.2-.5.4-.6.2-.2.4-.3.7-.3a1.4 1.4 0 0 1 .4.1l-.1.6Zm3.8 3.6h-.7v-.6l-.5.5-.8.2c-.4 0-.7-.1-1-.3-.2-.3-.3-.6-.3-1 0-.3.1-.6.4-.8.2-.3.6-.4 1-.5l1.2-.1v-.1c0-.4 0-.6-.2-.8a1 1 0 0 0-.7-.2l-.6.1-.5.4-.5-.4a2.2 2.2 0 0 1 1.7-.7c.5 0 .9.2 1.1.4.3.3.4.7.4 1.2v2.7Zm-.7-1.7v-.4l-1 .1c-.3 0-.5.2-.7.3l-.2.5c0 .2 0 .4.2.6l.5.2c.4 0 .7-.2.9-.4.2-.2.3-.5.3-.9Zm5 1.4a2 2 0 0 1-1.3.4 2 2 0 0 1-1.4-.5 2 2 0 0 1-.6-1.6c0-.7.2-1.2.6-1.7a2 2 0 0 1 1.5-.6 2.2 2.2 0 0 1 1.3.4l-.3.5a1.7 1.7 0 0 0-1-.3c-.5 0-.8.1-1 .5-.3.3-.4.6-.4 1.1 0 .5.1 1 .4 1.2.2.3.6.4 1 .4a1.5 1.5 0 0 0 .9-.3l.3.5Zm4.4.3h-1l-1.8-2v2h-.7v-6.2h.7v4l1.8-2h.8l-2 2 2.2 2.2Zm4-2h-3c0 .5.2.9.5 1.2.2.2.5.3 1 .3h.5l.6-.4.3.5-.7.4-.8.1a2 2 0 0 1-1.5-.6c-.3-.3-.5-.9-.5-1.5 0-.7.2-1.2.5-1.7.4-.4.8-.6 1.4-.6.6 0 1 .2 1.3.6.3.3.4.8.4 1.4v.4Zm-.6-.5c0-.4-.1-.7-.3-.9a1 1 0 0 0-.8-.3 1 1 0 0 0-.8.3c-.2.2-.4.5-.4 1h2.3Zm3.7-1.1H251.1a1 1 0 0 0-.8.4 2 2 0 0 0-.3 1v2.2h-.6v-4.2h.6v.8c.1-.3.3-.5.5-.6.2-.2.4-.3.7-.3a1.4 1.4 0 0 1 .4.1l-.2.6Zm.5 3.2.4-.5c.1.2.3.3.5.3l.5.1.7-.1.2-.5c0-.2 0-.3-.2-.4-.1-.2-.3-.3-.6-.3-.5-.2-.9-.3-1-.5a1 1 0 0 1-.4-.8c0-.3.2-.6.4-.8.3-.3.6-.4 1-.4l.7.1c.3 0 .5.2.7.4l-.4.4-.5-.2-.4-.1a1 1 0 0 0-.6.1c-.2.1-.2.3-.2.5s0 .3.2.4l.7.3c.4 0 .7.2 1 .4l.2.8c0 .4 0 .7-.4 1-.2.2-.6.3-1 .3a2.3 2.3 0 0 1-1.5-.5ZM314.7 218.4h-86.1a2.4 2.4 0 0 0 0 4.8h86.1a2.4 2.4 0 0 0 0-4.8Z"/><path fill="silver" d="M326.7 194.4h-2.2v-7.6l-.9.4-1 .4-.6-1.8a11.2 11.2 0 0 0 3.3-1.6h1.4v10.2Zm5.5.2c-1.2 0-2-.4-2.6-1.2-.6-.9-.9-2.1-.9-3.8 0-1.8.3-3 1-4a3 3 0 0 1 2.5-1.4c1.3 0 2.2.5 2.8 1.3.5.9.8 2.1.8 3.8 0 1.8-.3 3-1 4a3 3 0 0 1-2.6 1.3Zm0-8.7c-.4 0-.7.3-1 1l-.2 2.6c0 1.2 0 2 .3 2.6.2.5.5.8 1 .8.4 0 .8-.3 1-.9l.2-2.6c0-1.1 0-2-.3-2.6-.2-.6-.5-.9-1-.9Zm13.6 8.5H343l-3-4.2v-.2l-.2-.3v4.7h-2.3v-10h2.3v4.6l.1-.2.2-.3 2.8-4.1h2.6L342 189l3.8 5.3ZM324.6 208.7a1.7 1.7 0 0 1-.8.2 1 1 0 0 1-.7-.3c-.2-.2-.3-.5-.3-.8v-2.6h-.7v-.6h.7v-1l.7-.2v1.2h1v.6h-1v3l.5.1h.4l.2.4Zm2.6.2a2 2 0 0 1-1.5-.6c-.4-.4-.6-.9-.6-1.5 0-.7.2-1.3.6-1.7a2 2 0 0 1 1.6-.6c.6 0 1 .2 1.4.6.4.4.6 1 .6 1.6 0 .7-.2 1.2-.6 1.6a2 2 0 0 1-1.5.6Zm0-.6c.5 0 .8-.1 1-.4.3-.3.4-.7.4-1.2s-.1-.9-.4-1.2c-.2-.3-.5-.4-1-.4-.4 0-.7.1-1 .4-.2.3-.4.7-.4 1.2s.2 1 .4 1.2c.3.3.6.4 1 .4Zm5.2.4a1.7 1.7 0 0 1-.8.2 1 1 0 0 1-.8-.3c-.2-.2-.2-.5-.2-.8v-2.6h-.8v-.6h.8v-1l.6-.2v1.2h1v.6h-1v2.5c0 .2 0 .4.2.5l.3.1h.5l.2.4Zm3.8.1h-.7v-.6c-.2.2-.3.4-.6.5l-.7.2c-.4 0-.7-.1-1-.3-.2-.3-.3-.6-.3-1 0-.3.1-.6.4-.8.2-.3.6-.4 1-.5l1.2-.1v-.1c0-.4 0-.6-.2-.8a1 1 0 0 0-.7-.2l-.6.1-.6.4-.4-.4a2.2 2.2 0 0 1 1.6-.7c.5 0 1 .2 1.2.4.2.3.4.7.4 1.2v2.7Zm-.7-1.7v-.4l-1 .1c-.3 0-.6.2-.7.3-.2 0-.2.3-.2.5s0 .4.2.6l.5.2c.4 0 .7-.2.9-.4.2-.2.3-.5.3-.9Zm2 1.7v-6.2h.6v6.2h-.7ZM410.4 218.4h-86.1a2.4 2.4 0 1 0 0 4.8h86.1a2.4 2.4 0 1 0 0-4.8Z"/><path fill="#3D3D3D" d="m130.5 256.7 3.7-10h2.6l3.6 10H138l-.7-2h-3.7l-.7 2h-2.4Zm3.6-3.9h2.6l-1-3.5a10 10 0 0 1-.2-.7 9.7 9.7 0 0 1-.3.7l-1 3.5Zm9.5 3.2v4h-2.2v-10.5h2.2v1a2.6 2.6 0 0 1 2.4-1.2c1 0 1.6.3 2.1 1 .6.6.8 1.5.8 2.6 0 1.2-.3 2.1-.9 2.9a3 3 0 0 1-2.3 1c-.5 0-.9 0-1.2-.2l-.9-.6Zm0-3.2v.7c0 .5.1.9.4 1.2.3.3.6.4 1 .4.5 0 1-.2 1.2-.5.3-.4.5-1 .5-1.7 0-.6-.2-1-.4-1.4-.3-.3-.6-.5-1.1-.5-.5 0-.9.2-1.2.5a2 2 0 0 0-.4 1.3Zm9 3.2v4h-2.3v-10.5h2.2v1a2.6 2.6 0 0 1 2.4-1.2c.9 0 1.6.3 2.1 1 .6.6.8 1.5.8 2.6 0 1.2-.3 2.1-.9 2.9a3 3 0 0 1-2.4 1c-.4 0-.8 0-1.1-.2-.4-.1-.6-.4-.9-.6Zm-.1-3.2v.7c0 .5.1.9.4 1.2.3.3.6.4 1 .4.5 0 1-.2 1.2-.5.3-.4.4-1 .4-1.7 0-.6 0-1-.3-1.4-.3-.3-.7-.5-1.1-.5-.5 0-.9.2-1.2.5a2 2 0 0 0-.4 1.3Zm6 3 1-1.3 1 .6 1 .2c.3 0 .6 0 .8-.2.1 0 .2-.2.2-.5 0-.1 0-.3-.2-.4a2 2 0 0 0-.8-.2c-1-.2-1.6-.4-2-.8a2 2 0 0 1-.6-1.5c0-.7.3-1.3.8-1.7.5-.5 1.2-.7 2-.7.6 0 1 0 1.4.2.5.1.8.3 1.2.6l-1 1.3-.8-.4-.8-.1-.6.1c-.2.1-.3.3-.3.5l.3.4 1 .2c.8.2 1.4.4 1.8.8.4.3.6.9.6 1.5 0 .7-.3 1.3-.9 1.8-.5.4-1.2.6-2.1.6-.6 0-1 0-1.6-.2-.5-.1-1-.4-1.3-.7Z"/><path fill="#F6F6F6" d="M120.9 275.8c0-2.6 2.1-4.8 4.8-4.8h292c2.6 0 4.7 2.2 4.7 4.8V295c0 2.6-2.1 4.7-4.8 4.7h-292a4.8 4.8 0 0 1-4.7-4.7v-19.2Z"/><path fill="#EF3F36" d="M137.6 279.4s3.5-.2 5.4 3.4h-5.7s-1 0-2 1.2c-.3.6-.5 1.2-.2 2.3l-2.5-4.2s1.4-2.6 5-2.7Z"/><path fill="#FCD900" d="M142.8 288.4s-1.6 3.1-5.6 3l2.8-5s.6-.9 0-2.3c-.4-.5-.8-1-1.9-1.3h4.9s1.5 2.4-.2 5.6Z"/><path fill="#61BC5B" d="M132.4 288.4s-1.9-3 .2-6.3l2.9 4.9s.5 1 2 1c.7 0 1.3 0 2.1-.9l-2.4 4.2s-2.9.1-4.8-2.9Z"/><path fill="#5AB055" d="m137.2 291.4.8-3.4s.9 0 1.6-.8l-2.4 4.2Z"/><path fill="#fff" d="M135 285.4a2.7 2.7 0 1 1 5.2 0 2.7 2.7 0 0 1-5.3 0Z"/><path fill="url(#z)" d="M135.4 285.4a2.2 2.2 0 1 1 4.4 0 2.2 2.2 0 0 1-4.4 0Z"/><path fill="#EACA05" d="m143 282.8-3.3 1s-.5-.8-1.6-1h4.9Z"/><path fill="#DF3A32" d="m135 286.1-2.4-4 2.5 2.4s-.3.5-.2 1.2l.1.4Z"/><path fill="#3D3D3D" d="M160.3 289a4.3 4.3 0 0 1-2.3.7c-1 0-1.8-.3-2.3-.9-.6-.6-.9-1.4-.9-2.5 0-1 .3-2 1-2.6.6-.6 1.4-1 2.4-1a3.6 3.6 0 0 1 2.1.7l-.4.6a2.9 2.9 0 0 0-1.7-.5c-.8 0-1.4.2-1.9.7-.4.5-.7 1.2-.7 2 0 1 .2 1.6.7 2 .4.5 1 .8 1.8.8l.8-.1.6-.3v-1.8H158v-.7h2.3v3Zm3.5.7c-.8 0-1.3-.2-1.8-.7-.4-.4-.6-1-.6-1.8s.2-1.4.7-1.8c.4-.5 1-.7 1.8-.7.7 0 1.2.2 1.6.6.4.5.6 1 .6 1.9 0 .7-.2 1.3-.6 1.8-.4.5-1 .7-1.7.7Zm0-.7c.5 0 .9-.1 1.2-.4.2-.4.4-.8.4-1.4 0-.6-.2-1-.4-1.4-.3-.3-.7-.5-1.2-.5s-.9.2-1.2.5a2 2 0 0 0-.4 1.4c0 .6.2 1 .4 1.4.3.3.7.4 1.2.4Zm5.6.7c-.8 0-1.3-.2-1.7-.7-.5-.4-.7-1-.7-1.8s.2-1.4.7-1.8c.4-.5 1-.7 1.8-.7.7 0 1.2.2 1.6.6.5.5.7 1 .7 1.9 0 .7-.3 1.3-.7 1.8-.4.5-1 .7-1.7.7Zm0-.7c.5 0 .9-.1 1.2-.4.2-.4.4-.8.4-1.4 0-.6-.2-1-.4-1.4-.3-.3-.7-.5-1.2-.5s-.9.2-1.2.5a2 2 0 0 0-.4 1.4c0 .6.2 1 .5 1.4.2.3.6.4 1.1.4Zm7.7.3c0 .9-.2 1.5-.7 1.9-.4.4-1 .6-1.7.6a3.5 3.5 0 0 1-1.9-.5l.4-.6a2.8 2.8 0 0 0 1.5.5c.5 0 .9-.2 1.2-.5.3-.2.4-.7.4-1.3v-.6l-.7.7a2 2 0 0 1-1 .2c-.6 0-1-.2-1.4-.6-.4-.5-.6-1-.6-1.8s.2-1.4.6-1.9a2 2 0 0 1 1.6-.7c.4 0 .6 0 .9.2.2 0 .4.3.6.5v-.6h.8v4.5Zm-.8-1.9v-.7c0-.4-.1-.7-.4-1-.3-.2-.6-.4-1-.4s-.8.2-1 .5c-.3.3-.5.8-.5 1.5 0 .5.1 1 .4 1.3.2.3.6.4 1 .4.5 0 .8-.1 1-.4.4-.3.5-.7.5-1.2Zm2.3 2.2v-7.1h.8v7h-.8Zm6.2-2.3h-3.4c0 .6.1 1 .4 1.3.3.3.6.4 1.1.4a2 2 0 0 0 1.3-.5l.4.5c-.2.3-.5.4-.8.5l-1 .2c-.7 0-1.2-.2-1.6-.7-.4-.4-.6-1-.6-1.8 0-.7.2-1.3.6-1.8a2 2 0 0 1 1.6-.7c.6 0 1 .2 1.4.6.4.4.6 1 .6 1.7v.3Zm-.8-.6c0-.4-.1-.8-.4-1-.2-.2-.5-.4-.8-.4-.4 0-.7.2-1 .4-.2.3-.4.6-.4 1h2.6Zm9.4 2.3-1 .5-1 .2a3 3 0 0 1-2.4-1c-.6-.5-.9-1.4-.9-2.3 0-1.1.3-2 1-2.7.6-.6 1.4-1 2.4-1a3.1 3.1 0 0 1 1.9.7l-.4.6-.7-.4-.8-.1c-.8 0-1.4.2-1.9.7a3 3 0 0 0-.7 2.1c0 .8.3 1.5.7 2 .4.4 1 .7 1.8.7a2.7 2.7 0 0 0 1.6-.6l.4.6Zm5.1.6h-.8v-2.8c0-.5 0-.9-.2-1.1-.2-.2-.5-.4-.9-.4-.3 0-.7.2-1 .5-.2.2-.3.6-.3 1v2.8h-.8v-7.1h.8v3c.2-.2.4-.5.7-.6l.9-.2c.5 0 1 .1 1.2.5.3.3.4.8.4 1.4v3Zm3.8-4.1a1.1 1.1 0 0 0-.4-.1 1 1 0 0 0-.9.5c-.2.3-.3.7-.3 1.2v2.5h-.8v-4.8h.8v1c.1-.4.3-.7.5-.8.3-.2.5-.3.8-.3h.5l-.2.8Zm3 4.2c-.7 0-1.3-.2-1.7-.7-.4-.4-.6-1-.6-1.8s.2-1.4.6-1.8c.5-.5 1-.7 1.8-.7.7 0 1.3.2 1.7.6.4.5.6 1 .6 1.9 0 .7-.2 1.3-.6 1.8-.5.5-1 .7-1.8.7Zm0-.7c.6 0 1-.1 1.2-.4.3-.4.4-.8.4-1.4 0-.6-.1-1-.4-1.4-.3-.3-.6-.5-1.1-.5-.5 0-1 .2-1.2.5a2 2 0 0 0-.4 1.4c0 .6.1 1 .4 1.4.3.3.7.4 1.2.4Zm10.4.6h-.8v-2.8c0-.5 0-.9-.2-1.1-.2-.3-.4-.4-.8-.4a1 1 0 0 0-.9.5c-.2.3-.3.6-.3 1v2.8h-.8v-2.9c0-.4 0-.8-.2-1-.2-.3-.5-.4-.9-.4a1 1 0 0 0-.8.4c-.2.3-.3.7-.3 1.1v2.8h-.8v-4.8h.8v.7l.6-.6c.3-.2.6-.2.9-.2a1.4 1.4 0 0 1 1.3 1c.2-.4.4-.6.7-.8l1-.2c.5 0 .9.1 1.1.5.3.3.4.8.4 1.4v3Zm5.3-2.3h-3.4c0 .6.2 1 .4 1.3.3.3.7.4 1.1.4a2 2 0 0 0 1.3-.5l.5.5-.8.5-1 .2c-.7 0-1.3-.2-1.7-.7-.4-.4-.6-1-.6-1.8 0-.7.2-1.3.6-1.8a2 2 0 0 1 1.6-.7c.6 0 1.1.2 1.5.6.3.4.5 1 .5 1.7v.3Zm-.8-.6c0-.4 0-.8-.3-1a1.3 1.3 0 0 0-1.8 0c-.3.3-.4.6-.5 1h2.6Z"/><path fill="#F67247" d="M320.9 289.6h-.8v-5.8a4.3 4.3 0 0 1-1.4.7l-.2-.7a5.1 5.1 0 0 0 2-1h.4v6.8Zm2.1 0a.5.5 0 0 1-.5-.5l.1-.3.4-.2c.2 0 .3 0 .4.2l.2.3c0 .2 0 .3-.2.4l-.4.2Zm5.8-3.8c0 1.3-.2 2.2-.7 2.9-.4.7-1 1-2 1-.3 0-.6 0-.9-.2l-.7-.6.5-.4.5.4.7.1c.6 0 1-.2 1.3-.7.3-.4.5-1.1.5-2a1.5 1.5 0 0 1-1.5.8c-.6 0-1-.2-1.4-.6-.4-.4-.6-.9-.6-1.5 0-.7.2-1.2.6-1.6a2 2 0 0 1 1.6-.6c.7 0 1.2.2 1.5.8.4.5.6 1.2.6 2.2Zm-.8-.7c0-.5-.2-.9-.4-1.2-.3-.3-.6-.5-1-.5s-.7.2-1 .4c-.2.3-.3.7-.3 1.1 0 .5.1.8.4 1.1.2.3.6.4 1 .4.3 0 .6-.1.9-.4.2-.2.4-.5.4-.9Zm6.7 4.5h-1l-2.6-3-.2-.2v-.1 3.3h-.8v-6.7h.8v3.1a1.8 1.8 0 0 1 .2-.2l2.5-3h1l-3 3.3 3.1 3.5Z"/><path fill="#3D3D3D" d="m341.1 282.9-3.2 7.7h-.6l3.2-7.7h.6Zm25.3 0-3.2 7.7h-.6l3.1-7.7h.7Zm5 6.7h-.8v-5.8a4.3 4.3 0 0 1-1.4.7l-.2-.7a5.1 5.1 0 0 0 2-1h.4v6.8Zm3.6 0h-.8v-5.8l-.6.4-.8.3-.2-.7a5.1 5.1 0 0 0 2-1h.4v6.8Zm2.2 0h-.4a.5.5 0 0 1-.2-.5c0-.1 0-.2.2-.3l.4-.2c.1 0 .2 0 .3.2l.2.3c0 .2 0 .3-.2.4l-.3.2Zm5.7-3.8c0 1.3-.2 2.2-.6 2.9-.4.7-1.1 1-2 1-.3 0-.6 0-1-.2l-.7-.6.5-.4.5.4.7.1c.6 0 1-.2 1.4-.7.3-.4.4-1.1.4-2l-.6.6-.9.2c-.6 0-1-.2-1.4-.6a2 2 0 0 1-.5-1.5c0-.7.2-1.2.6-1.6a2 2 0 0 1 1.5-.6c.7 0 1.2.2 1.6.8.3.5.5 1.2.5 2.2Zm-.8-.7c0-.5-.1-.9-.4-1.2-.2-.3-.6-.5-1-.5-.3 0-.6.2-.9.4-.2.3-.4.7-.4 1.1 0 .5.2.8.4 1.1.3.3.6.4 1 .4a1.3 1.3 0 0 0 1.3-1.3Zm6.8 4.5h-1.1l-2.6-3-.1-.2v-.1h-.1v3.3h-.8v-6.7h.8v3.1a1.4 1.4 0 0 1 .2-.2l2.5-3h1l-2.9 3.3 3 3.5Z"/><path fill="#D58500" d="M346.1 289.6h-.7v-5.8l-.7.4-.8.3-.2-.7a5 5 0 0 0 2-1h.4v6.8Zm2.2 0h-.4a.5.5 0 0 1-.2-.5c0-.1 0-.2.2-.3l.4-.2c.1 0 .3 0 .4.2l.1.3-.1.4-.4.2Zm1.6 0v-1.1l.4-.6.6-.6a16 16 0 0 1 1.4-1.2l.4-.5.2-.4v-.5c0-.4 0-.7-.2-1-.2-.2-.5-.3-.9-.3a2 2 0 0 0-1.5.8l-.5-.4c.2-.4.5-.6.9-.8.3-.2.7-.2 1.2-.2.6 0 1 .1 1.4.5.3.4.5.8.5 1.3a2.5 2.5 0 0 1-.9 1.9l-.6.5a33.3 33.3 0 0 0-1.3 1l-.2.4-.1.5h3.3v.7H350Zm10.1 0h-1l-2.7-3v-.2l-.2-.1v3.3h-.8v-6.7h.8v3.1a1.4 1.4 0 0 1 .2-.2l2.5-3h1l-2.9 3.3 3.1 3.5Z"/><path stroke="silver" stroke-linecap="round" stroke-linejoin="round" d="m403.9 289 3.6-3.6-3.6-3.6"/><path stroke="#67B279" stroke-linecap="round" stroke-linejoin="round" d="M142.4 315.3h-3c-.3 0-.6.3-.6.6v3c0 .3.3.6.6.6h3c.3 0 .6-.3.6-.6v-3c0-.3-.3-.6-.6-.6ZM133.8 315.6c.2-.4.8-.4 1 0l1.7 3c.2.4 0 .9-.5.9h-3.3a.6.6 0 0 1-.6-.9l1.7-3ZM135.8 308.7h-3c-.3 0-.6.3-.6.6v3c0 .3.3.6.6.6h3c.4 0 .6-.3.6-.6v-3c0-.3-.2-.6-.6-.6Z"/><path stroke="#67B279" d="M141 308.7a2 2 0 1 1 0 4.2 2 2 0 0 1 0-4.2Z" clip-rule="evenodd"/><path fill="#3D3D3D" d="m154.7 317.6.5-.5.7.5 1 .1c.4 0 .7-.1 1-.3.3-.2.4-.5.4-.8a1 1 0 0 0-.4-.8l-1-.6c-.7-.2-1.1-.5-1.4-.7-.3-.3-.5-.7-.5-1.2s.2-1 .6-1.3c.4-.4 1-.5 1.5-.5a3 3 0 0 1 1.9.6l-.4.5a2.5 2.5 0 0 0-1.5-.4c-.4 0-.7 0-1 .3a1 1 0 0 0-.3.7c0 .3 0 .6.3.8l1 .5c.8.2 1.2.5 1.5.8a1.8 1.8 0 0 1-.1 2.6c-.4.3-1 .5-1.6.5-.5 0-.9 0-1.2-.2a3 3 0 0 1-1-.6Zm7.6.8c-.7 0-1.3-.2-1.7-.7-.4-.4-.7-1-.7-1.7 0-.8.3-1.5.7-2 .5-.4 1-.6 1.8-.6.7 0 1.3.2 1.7.7.4.4.6 1 .6 1.8 0 .7-.2 1.4-.7 1.8-.4.5-1 .7-1.7.7Zm0-.6c.5 0 1-.2 1.2-.5.3-.3.4-.8.4-1.4 0-.6-.1-1-.4-1.4-.3-.3-.7-.5-1.2-.5-.4 0-.8.2-1.1.6a2 2 0 0 0-.5 1.3c0 .6.2 1 .5 1.4.3.3.7.5 1.1.5Zm10.4.5h-.8v-2.8c0-.5 0-.9-.2-1.1-.2-.2-.5-.4-.9-.4a1 1 0 0 0-.8.5c-.2.3-.3.6-.3 1v2.8h-.8v-2.8c0-.5 0-.9-.3-1.1-.2-.2-.4-.4-.8-.4a1 1 0 0 0-.8.5c-.2.2-.3.6-.3 1v2.8h-.8v-4.8h.8v.8c.1-.3.4-.5.6-.7l.9-.2a1.4 1.4 0 0 1 1.3 1c.2-.4.4-.6.7-.8l.9-.2c.5 0 1 .2 1.2.5.3.3.4.8.4 1.4v3Zm5.3-2.2h-3.4c0 .5.1 1 .4 1.2.3.3.6.5 1.1.5a2 2 0 0 0 1.3-.5l.4.5-.8.4c-.3.2-.6.2-1 .2-.6 0-1.2-.2-1.6-.6-.4-.5-.6-1-.6-1.8s.2-1.4.6-1.9a2 2 0 0 1 1.6-.7c.6 0 1.1.2 1.4.6.4.4.6 1 .6 1.7v.4Zm-.8-.7c0-.4-.1-.7-.3-1-.3-.2-.5-.4-1-.4-.3 0-.6.2-.9.4-.2.3-.4.6-.4 1h2.6Zm4.6 2.9v-6.7h1.9c.6 0 1 .1 1.4.4.3.3.5.7.5 1.1a1.6 1.6 0 0 1-1.2 1.6c.5.1.8.3 1 .6.4.3.5.6.5 1 0 .6-.2 1.1-.6 1.5-.4.3-1 .5-1.6.5h-2Zm.7-6v2.2h.9c.4 0 .7-.1 1-.3.2-.2.3-.5.3-1 0-.2 0-.5-.3-.6-.2-.2-.5-.3-1-.3h-.9Zm0 2.9v2.4h1.1c.5 0 .8-.1 1-.3.3-.3.5-.6.5-1 0-.3-.2-.6-.4-.8-.3-.2-.7-.3-1.3-.3h-.9Zm7-1a1.1 1.1 0 0 0-.4 0 1 1 0 0 0-.9.4c-.2.3-.3.8-.3 1.3v2.4h-.8v-4.8h.8v1c.1-.4.3-.6.5-.8.2-.2.5-.3.8-.3h.2l.3.1-.2.7Zm3 4.2c-.7 0-1.3-.2-1.7-.7-.4-.4-.6-1-.6-1.7 0-.8.2-1.5.6-2 .5-.4 1-.6 1.8-.6.7 0 1.3.2 1.7.7.4.4.6 1 .6 1.8 0 .7-.2 1.4-.7 1.8-.4.5-1 .7-1.7.7Zm0-.6c.6 0 1-.2 1.2-.5.3-.3.4-.8.4-1.4 0-.6-.1-1-.4-1.4-.3-.3-.7-.5-1.1-.5-.5 0-1 .2-1.2.6a2 2 0 0 0-.5 1.3c0 .6.2 1 .5 1.4.3.3.7.5 1.2.5Zm9.6-4.3-1.4 4.8h-.8l-1-3.4a2.1 2.1 0 0 1 0-.5l-.1.2v.3l-1.1 3.4h-.8l-1.5-4.8h.8l1 3.6v.2l.1.2a6 6 0 0 1 .1-.4l1.1-3.6h.7l1 3.6v.4h.1a2 2 0 0 1 .1-.4l1-3.6h.7Zm.5 4.3.4-.5.6.3.7.2.7-.2.2-.6c0-.2 0-.3-.2-.5l-.7-.3c-.6-.1-1-.3-1.2-.6-.3-.2-.4-.5-.4-.8 0-.4.2-.8.5-1 .3-.3.7-.4 1.2-.4l.8.1.7.4-.4.5a2 2 0 0 0-.6-.3h-.5l-.7.1c-.2.1-.2.3-.2.5s0 .4.2.5l.8.3c.5.1.9.3 1.1.5.2.3.4.6.4 1s-.2.8-.5 1a2 2 0 0 1-1.3.4l-.9-.1-.7-.5Zm8.4-1.7h-3.4c0 .5.1 1 .4 1.2.3.3.7.5 1.1.5a2 2 0 0 0 1.3-.5l.4.5-.8.4c-.2.2-.6.2-1 .2-.6 0-1.2-.2-1.6-.6-.4-.5-.6-1-.6-1.8s.2-1.4.6-1.9a2 2 0 0 1 1.6-.7c.6 0 1.1.2 1.5.6.3.4.5 1 .5 1.7v.4Zm-.8-.7c0-.4-.1-.7-.3-1-.2-.2-.5-.4-1-.4-.3 0-.6.2-.8.4-.3.3-.5.6-.5 1h2.6Zm4.3-1.2a1 1 0 0 0-.4 0 1 1 0 0 0-.9.4c-.2.3-.3.8-.3 1.3v2.4h-.8v-4.8h.8v1c.1-.4.3-.6.5-.8.2-.2.5-.3.8-.3h.2l.3.1-.2.7Z"/><path fill="#F67247" d="M320.9 318.3h-.8v-5.8a4.2 4.2 0 0 1-1.4.7l-.2-.6a5 5 0 0 0 2-1.2h.4v6.9Zm2.1.1a.5.5 0 1 1 0-1h.4l.2.5c0 .1 0 .2-.2.3l-.4.2Zm1.5-2c0-.3 0-.7.3-1 .2-.3.5-.6.9-.7a2 2 0 0 1-.7-.7c-.2-.2-.3-.5-.3-.8 0-.5.2-1 .6-1.2a2 2 0 0 1 1.3-.5c.6 0 1 .1 1.4.5.3.3.5.7.5 1.2 0 .3 0 .6-.2.8a2 2 0 0 1-.7.7c.4.1.7.4.9.7.2.3.3.7.3 1 0 .6-.2 1-.6 1.5-.4.3-1 .5-1.6.5-.6 0-1.1-.2-1.5-.5-.4-.4-.6-.9-.6-1.5Zm.8 0c0 .4.1.7.4 1 .2.2.5.3 1 .3.3 0 .7-.1 1-.3.2-.3.3-.6.3-1s-.1-.7-.4-1c-.2-.3-.6-.4-1-.4a1.3 1.3 0 0 0-1.3 1.4Zm.2-3.1c0 .3.1.5.4.8.2.2.4.3.7.3.3 0 .6-.1.8-.3.2-.3.4-.5.4-.8a1 1 0 0 0-.4-.9 1 1 0 0 0-.8-.3 1 1 0 0 0-.8.4c-.2.2-.3.4-.3.8Zm9.2 5h-1l-2.6-3-.2-.2v-.1 3.3h-.8v-6.7h.8v3.1a1.8 1.8 0 0 1 .2-.2l2.5-3h1l-3 3.3 3.1 3.5Z"/><path fill="#3D3D3D" d="m341.1 311.6-3.2 7.7h-.6l3.2-7.7h.6Zm25.3 0-3.2 7.7h-.6l3.1-7.7h.7Zm5 6.7h-.8v-5.8a4.2 4.2 0 0 1-1.4.7l-.2-.6a5 5 0 0 0 2-1.2h.4v6.9Zm3.6 0h-.8v-5.8c-.1.2-.3.3-.6.4l-.8.3-.2-.6a5 5 0 0 0 2-1.2h.4v6.9Zm2.2.1c-.2 0-.3 0-.4-.2a.5.5 0 0 1-.2-.3c0-.2 0-.3.2-.4l.4-.2c.1 0 .2 0 .3.2l.2.4c0 .1 0 .2-.2.3l-.3.2Zm5.7-3.9c0 1.3-.2 2.3-.6 3-.4.6-1.1 1-2 1l-1-.3c-.2 0-.5-.3-.7-.5l.5-.5.5.4.7.1c.6 0 1-.2 1.4-.6.3-.5.4-1.2.4-2.1-.1.2-.3.5-.6.6l-.9.2c-.6 0-1-.2-1.4-.6a2 2 0 0 1-.5-1.5c0-.6.2-1.2.6-1.6a2 2 0 0 1 1.5-.6c.7 0 1.2.2 1.6.8.3.5.5 1.3.5 2.2Zm-.8-.6c0-.6-.1-1-.4-1.3-.2-.3-.6-.5-1-.5-.3 0-.6.2-.9.5-.2.2-.4.6-.4 1 0 .5.2.9.4 1.1.3.3.6.4 1 .4a1.3 1.3 0 0 0 1.3-1.2Zm6.8 4.4h-1.1l-2.6-3-.1-.2v-.1h-.1v3.3h-.8v-6.7h.8v3.1a1.4 1.4 0 0 1 .2-.2l2.5-3h1l-2.9 3.3 3 3.5Z"/><path fill="#D58500" d="M346.1 318.3h-.7v-5.8l-.7.4c-.3.2-.5.3-.8.3l-.2-.6a5 5 0 0 0 2-1.2h.4v6.9Zm2.2.1a.5.5 0 1 1 0-1h.4l.1.5-.1.3-.4.2Zm1.6-.1v-1.1l.4-.6.6-.6a16 16 0 0 1 1.4-1.2l.4-.4.2-.5v-.5c0-.4 0-.7-.2-1-.2-.2-.5-.3-.9-.3a1.9 1.9 0 0 0-1.5.8l-.5-.4c.2-.4.5-.6.9-.8l1.2-.2c.6 0 1 .2 1.4.5.3.4.5.8.5 1.3a2.5 2.5 0 0 1-.9 1.9l-.6.5a33.7 33.7 0 0 0-1.3 1l-.2.4-.1.5h3.3v.7H350Zm10.1 0h-1l-2.7-3v-.2l-.2-.1v3.3h-.8v-6.7h.8v3.1a1.4 1.4 0 0 1 .2-.2l2.5-3h1l-2.9 3.3 3.1 3.5Z"/><path stroke="silver" stroke-linecap="round" stroke-linejoin="round" d="m403.9 317.7 3.6-3.6-3.6-3.6"/><path fill="#8A5BFB" d="M138 346.4a3.3 3.3 0 1 0 0-6.6 3.3 3.3 0 0 0 0 6.6Z"/><path fill="#FF8918" d="M142.9 340.9c-.3-.6-.8-1.3-1.1-1.5l.5 1.8c-.6-1.7-1.7-2.3-2.5-3.8l-.2-.2v-.1a1 1 0 0 1-.1-.3 4.3 4.3 0 0 0-2 3.3h.3c.4 0 1 0 1.4.4.4.2.7.6 1 1-.4-.2-.9-.4-1.4-.3 2 1 1.5 4.6-1.3 4.5a2.4 2.4 0 0 1-.8-.2h-.1l-.1-.1c-.6-.3-1.2-1-1.2-1.9 0 0 .2-1 1.8-1 .2 0 .7-.5.7-.6 0 0-1-.4-1.4-.8a7 7 0 0 0-.5-.5V339a4 4 0 0 0-1.3 1.1c-.3-.3-.2-1.2-.2-1.4h-.2a4 4 0 0 0-1 1.2 5 5 0 0 0-.8 1.8 11.5 11.5 0 0 0-.2 1.2 6 6 0 0 0 1.5 4c1 1 2.2 1.7 3.6 1.8 1.4.1 2.7-.3 3.8-1.2 1.1-.9 1.9-2.2 2-3.6l.1-.2c.1-1 0-2-.3-3Z"/><path fill="#3D3D3D" d="M162 347h-.7v-4.5a11.9 11.9 0 0 1 0-1.2 7 7 0 0 1-.2.6l-2.3 5.1h-.3l-2.3-5.1-.1-.3-.1-.3a12.6 12.6 0 0 1 0 1.2v4.5h-.8v-6.7h1l2.1 4.7a8.6 8.6 0 0 1 .3.8 63.3 63.3 0 0 1 .4-.8l2-4.7h1v6.7Zm3.7.1c-.7 0-1.3-.2-1.7-.6-.4-.5-.6-1-.6-1.8s.2-1.4.7-1.9c.4-.5 1-.7 1.7-.7s1.3.2 1.7.7c.4.4.6 1 .6 1.8s-.2 1.4-.6 1.8c-.5.5-1 .7-1.8.7Zm0-.6c.6 0 1-.2 1.2-.5.3-.3.4-.8.4-1.4 0-.6-.1-1-.4-1.3-.2-.4-.6-.5-1.1-.5-.5 0-.9.1-1.2.5a2 2 0 0 0-.4 1.3c0 .6.1 1 .4 1.4.3.3.7.5 1.2.5Zm6.9-4-2.8 3.9h2.8v.6h-3.9v-.3l2.8-3.8H169v-.7h3.6v.3Zm1.4-1.4c-.2 0-.3 0-.4-.2a.5.5 0 0 1-.2-.4c0-.1 0-.2.2-.3l.4-.2c.1 0 .3 0 .4.2l.1.3-.1.4-.4.2Zm.3 6h-.7v-4.9h.7v4.8Zm1.6 0v-7.2h.7v7.1h-.7Zm2.3 0v-7.2h.7v7.1h-.7Zm5.7 0h-.8v-.8l-.6.6c-.3.2-.6.2-.9.2-.4 0-.8-.1-1-.4-.3-.2-.5-.6-.5-1s.2-.7.4-1c.3-.3.7-.4 1.2-.5l1.4-.2v-.1c0-.4 0-.7-.3-.9a1 1 0 0 0-.7-.2 1.7 1.7 0 0 0-1.3.6l-.5-.4a2.4 2.4 0 0 1 1.8-.9c.6 0 1 .2 1.3.5.3.3.5.7.5 1.3v3.1Zm-.8-2v-.5l-1.2.2-.8.2-.2.6c0 .3 0 .5.2.7l.7.2c.4 0 .7-.1 1-.4.2-.3.3-.6.3-1Zm8.3-4h-2.6v2.2h2.4v.7h-2.4v3h-.8v-6.7h3.4v.7Zm1.5 0c-.1 0-.3 0-.4-.2a.5.5 0 0 1-.1-.4l.1-.3.4-.2c.2 0 .3 0 .4.2l.2.3c0 .2 0 .3-.2.4l-.4.2Zm.4 6h-.8v-4.9h.8v4.8Zm3.9-4.2a1.1 1.1 0 0 0-.4 0 1 1 0 0 0-.9.4c-.2.4-.3.8-.3 1.3v2.4h-.8v-4.8h.8v1c.1-.4.3-.6.5-.8.2-.2.5-.3.8-.3h.2l.3.1-.2.7Zm4.8 1.9h-3.4c0 .5.2 1 .5 1.2.2.3.6.5 1 .5a2 2 0 0 0 1.4-.5l.4.5-.8.5-1 .1c-.7 0-1.2-.2-1.6-.6-.4-.4-.6-1-.6-1.8s.2-1.4.6-1.9a2 2 0 0 1 1.6-.7c.6 0 1 .2 1.4.6.4.4.5 1 .5 1.7v.4Zm-.7-.6c0-.5-.1-.8-.4-1-.2-.3-.5-.4-.9-.4-.3 0-.6 0-.9.3-.2.3-.4.6-.4 1h2.6Zm4.2-3.6-.3-.1h-.2c-.3 0-.4 0-.6.2l-.2.6v1h1.2v.6h-1.2v4.1h-.7V343h-.8v-.7h.8v-1c0-.4.1-.7.4-1 .3-.2.6-.4 1.1-.4a1.8 1.8 0 0 1 .7.1l-.2.7Zm2.7 6.5c-.7 0-1.3-.2-1.7-.6-.4-.5-.6-1-.6-1.8s.2-1.4.6-1.9c.5-.5 1-.7 1.8-.7.7 0 1.3.2 1.7.7.4.4.6 1 .6 1.8s-.2 1.4-.7 1.8c-.4.5-1 .7-1.7.7Zm0-.6c.5 0 1-.2 1.2-.5.3-.3.4-.8.4-1.4 0-.6-.1-1-.4-1.3-.3-.4-.7-.5-1.1-.5-.5 0-1 .1-1.2.5a2 2 0 0 0-.5 1.3c0 .6.2 1 .5 1.4.3.3.7.5 1.2.5Zm7-4.3-1.5 2.4 1.6 2.4h-1l-.9-1.5v-.2l-.2-.2v.1l-.2.3-1 1.5h-.9l1.7-2.3-1.6-2.5h.9l1 1.6a5.6 5.6 0 0 1 .1.4l.2-.2v-.2l1-1.6h.9Z"/><path fill="#F67247" d="M320.9 347h-.8v-5.7a4.3 4.3 0 0 1-1.4.7l-.2-.7a5.1 5.1 0 0 0 2-1.1h.4v6.8Zm2.1.1a.5.5 0 0 1-.5-.5l.1-.4.4-.2.4.2.2.4c0 .1 0 .3-.2.4l-.4.1Zm5.8-6.3c-.6.9-1 1.9-1.5 2.9a13 13 0 0 0-1 3.3h-.8c.2-1.1.5-2.2 1-3.2.4-1.1 1-2 1.4-2.8h-3.4v-.7h4.3v.5Zm6 6.2h-1.1l-2.6-3-.2-.2v3.2h-.8v-6.7h.8v3.2a1.8 1.8 0 0 1 .2-.3l2.5-2.9h1l-3 3.2 3.1 3.5Z"/><path fill="#3D3D3D" d="m341.1 340.3-3.2 7.7h-.6l3.2-7.7h.6Zm25.3 0-3.2 7.7h-.6l3.1-7.7h.7Zm5 6.7h-.8v-5.7a4.3 4.3 0 0 1-1.4.7l-.2-.7a5.1 5.1 0 0 0 2-1.1h.4v6.8Zm3.6 0h-.8v-5.7l-.6.3-.8.3-.2-.6a5.1 5.1 0 0 0 2-1.1h.4v6.8Zm2.2.1-.4-.1a.5.5 0 0 1-.2-.4c0-.2 0-.3.2-.4l.4-.2.3.2.2.4c0 .1 0 .3-.2.4l-.3.1Zm5.7-3.8c0 1.2-.2 2.2-.6 2.8-.4.7-1.1 1-2 1-.3 0-.6 0-1-.2-.2 0-.5-.3-.7-.5l.5-.5.5.4.7.2c.6 0 1-.3 1.4-.7.3-.5.4-1.2.4-2.1-.1.3-.3.5-.6.6-.2.2-.5.2-.9.2-.6 0-1-.2-1.4-.6a2 2 0 0 1-.5-1.4c0-.7.2-1.3.6-1.7a2 2 0 0 1 1.5-.6c.7 0 1.2.3 1.6.8.3.5.5 1.3.5 2.3Zm-.8-.7c0-.5-.1-1-.4-1.3-.2-.3-.6-.4-1-.4-.3 0-.6 0-.9.4-.2.3-.4.6-.4 1 0 .5.2.9.4 1.1.3.3.6.4 1 .4a1.3 1.3 0 0 0 1.3-1.2Zm6.8 4.4h-1.1l-2.6-3-.1-.2h-.1v3.2h-.8v-6.7h.8v3.2a1.4 1.4 0 0 1 .2-.3l2.5-2.9h1l-2.9 3.2 3 3.5Z"/><path fill="#D58500" d="M346.1 347h-.7v-5.7l-.7.3c-.3.2-.5.3-.8.3l-.2-.6a5 5 0 0 0 2-1.1h.4v6.8Zm2.2.1-.4-.1a.5.5 0 0 1-.2-.4c0-.2 0-.3.2-.4l.4-.2.4.2.1.4-.1.4-.4.1Zm1.6 0V345.8l.4-.6.6-.6a16 16 0 0 1 1.4-1.1l.4-.5.2-.5v-.5c0-.4 0-.7-.2-1l-.9-.2a2 2 0 0 0-1.5.7l-.5-.4c.2-.3.5-.6.9-.7.3-.2.7-.3 1.2-.3.6 0 1 .2 1.4.5.3.4.5.8.5 1.3a2.5 2.5 0 0 1-.9 1.9l-.6.5a33.3 33.3 0 0 0-1.3 1l-.2.5-.1.4h3.3v.7H350Zm10.1 0h-1l-2.7-3.2v-.1h-.2v3.2h-.8v-6.7h.8v3.2a1.4 1.4 0 0 1 .2-.3l2.5-2.9h1l-2.9 3.2 3.1 3.5Z"/><path stroke="silver" stroke-linecap="round" stroke-linejoin="round" d="m403.9 346.4 3.6-3.6-3.6-3.6"/><path fill="#3D3D3D" d="m136.3 369-2.5 6.7h-.8l-2.5-6.7h.9l1.9 5.3v.6h.1a3.3 3.3 0 0 1 .2-.6l1.9-5.3h.8Zm1.2.8-.4-.1a.5.5 0 0 1-.1-.4l.1-.4.4-.2c.2 0 .3 0 .4.2l.2.4c0 .1 0 .3-.2.4l-.4.1Zm.4 6h-.8v-4.9h.8v4.8Zm5.4-2.3H140c0 .6.2 1 .4 1.3a2 2 0 0 0 2.4 0l.5.4-.8.5-1 .1c-.7 0-1.3-.2-1.7-.6-.4-.4-.6-1-.6-1.8s.2-1.4.6-1.9a2 2 0 0 1 1.6-.7c.7 0 1.1.2 1.5.6.3.4.5 1 .5 1.7v.4Zm-.8-.6c0-.5 0-.8-.3-1-.2-.3-.5-.4-.9-.4s-.7.1-1 .4c-.2.2-.3.6-.4 1h2.6Zm8-2-1.5 4.8h-.7l-1-3.4a2 2 0 0 1-.1-.4v.2l-.1.2-1 3.4h-.9l-1.4-4.8h.8l1 3.6v.4a3.8 3.8 0 0 1 .2-.4l1-3.6h.8l1 3.6v.4a2 2 0 0 1 .2-.4l1-3.6h.7Zm6.8 4.8h-.8v-.7l-.6.6c-.3.2-.5.2-.8.2-.5 0-.9 0-1.1-.3-.3-.3-.5-.6-.5-1 0-.5.2-.8.5-1 .2-.4.6-.5 1.2-.6l1.3-.2v-.1c0-.4 0-.7-.3-.9a1 1 0 0 0-.7-.2 1.7 1.7 0 0 0-1.3.6l-.5-.4a2.4 2.4 0 0 1 1.8-.9c.6 0 1 .2 1.3.5.3.3.5.7.5 1.3v3.1Zm-.8-2v-.4l-1.2.2c-.3 0-.6.1-.7.3-.2 0-.3.3-.3.6 0 .2 0 .4.3.6l.6.2c.4 0 .7-.1 1-.4.2-.3.3-.6.3-1Zm2.2 2v-7h.8v7h-.8Zm2.3 0v-7h.8v7h-.8Zm8.3 0h-.8v-.7l-.6.6c-.3.2-.5.2-.9.2s-.8 0-1-.3c-.3-.3-.5-.6-.5-1 0-.5.2-.8.5-1 .2-.4.6-.5 1.1-.6l1.4-.2v-.1c0-.4 0-.7-.3-.9a1 1 0 0 0-.7-.2 1.7 1.7 0 0 0-1.3.6l-.5-.4a2.4 2.4 0 0 1 1.8-.9c.6 0 1 .2 1.3.5.3.3.5.7.5 1.3v3.1Zm-.8-2v-.4l-1.2.2c-.3 0-.6.1-.8.3l-.2.6c0 .2 0 .4.2.6l.7.2c.4 0 .7-.1 1-.4.2-.3.3-.6.3-1Zm3 1.4v2.8h-.8v-7h.8v.9c.2-.3.4-.6.7-.7a2 2 0 0 1 1-.3c.6 0 1 .2 1.4.7.4.4.5 1 .5 1.7a3 3 0 0 1-.5 2 2 2 0 0 1-1.6.6c-.3 0-.6 0-.9-.2-.2 0-.4-.3-.6-.5Zm0-2v.7c0 .4.1.7.4 1 .2.3.6.4 1 .4s.8-.2 1-.5c.3-.4.5-.9.5-1.5 0-.5-.2-1-.4-1.3-.3-.3-.6-.4-1-.4-.5 0-.8.1-1 .4-.4.4-.5.7-.5 1.2Zm5.6 2v2.8h-.7v-7h.7v.9l.7-.7a2 2 0 0 1 1-.3c.6 0 1.1.2 1.4.7.4.4.6 1 .6 1.7a3 3 0 0 1-.6 2 2 2 0 0 1-1.6.6c-.3 0-.6 0-.8-.2-.3 0-.5-.3-.7-.5Zm0-2v.7c0 .4.2.7.4 1 .3.3.6.4 1 .4.5 0 .8-.2 1-.5.4-.4.5-.9.5-1.5 0-.5-.1-1-.4-1.3-.2-.3-.6-.4-1-.4s-.8.1-1 .4c-.3.4-.5.7-.5 1.2Zm4.5 2.1.4-.5.6.4h1.4l.2-.6c0-.2 0-.4-.2-.5l-.7-.4c-.6-.1-1-.3-1.3-.5-.2-.3-.3-.5-.3-.9s.2-.7.5-1c.3-.2.7-.4 1.2-.4.3 0 .5 0 .8.2.2 0 .4.2.6.4l-.4.5a2 2 0 0 0-.5-.3l-.5-.1c-.3 0-.6 0-.7.2-.2 0-.3.2-.3.4 0 .3.1.4.3.5l.8.3c.5.2.8.3 1 .6.3.2.4.5.4.9s-.1.8-.4 1a2 2 0 0 1-1.3.4l-.9-.1-.7-.5ZM519.6 115.5h-.8l-1-1.7-.5-.6a.9.9 0 0 0-.5-.1h-.7v2.4h-.6v-5.9h1.7c.5 0 1 .1 1.3.4.3.3.5.7.5 1.2 0 .4-.1.8-.3 1-.3.3-.5.5-1 .7a1.7 1.7 0 0 1 .7.6l1.2 2Zm-3.5-5.3v2.3h1c.3 0 .6-.2.8-.4.3-.2.4-.5.4-.8a1 1 0 0 0-.3-.8c-.2-.2-.5-.3-1-.3h-.9Zm7.4 3.3h-3c0 .5.2.9.4 1.1.2.3.6.4 1 .4l.6-.1c.2 0 .3-.2.5-.3l.4.5-.7.3-.9.2a2 2 0 0 1-1.4-.6c-.4-.4-.6-.9-.6-1.6 0-.6.2-1.2.6-1.6.3-.4.8-.6 1.4-.6.5 0 1 .2 1.2.5.3.4.5.9.5 1.5v.3Zm-.7-.5c0-.4 0-.7-.3-1a1 1 0 0 0-.7-.2c-.4 0-.6 0-.9.3-.2.2-.3.5-.4.9h2.3Zm3.7-3.2a1.1 1.1 0 0 0-.4 0l-.5.1-.2.6v.8h1v.6h-1v3.6h-.6v-3.6h-.8v-.6h.8v-.9c0-.3 0-.7.3-.9.3-.2.6-.3 1-.3h.6l-.2.6Zm2.7 2a.9.9 0 0 0-.3 0 1 1 0 0 0-.8.4 2 2 0 0 0-.3 1.1v2.2h-.7v-4.2h.7v.8l.5-.7.6-.2a1.4 1.4 0 0 1 .4 0l-.1.7Zm4.2 1.7h-3c0 .5.2.9.4 1.1.3.3.6.4 1 .4l.6-.1.6-.3.3.5-.7.3-.8.2a2 2 0 0 1-1.5-.6c-.4-.4-.5-.9-.5-1.6 0-.6.1-1.2.5-1.6.4-.4.8-.6 1.4-.6.5 0 1 .2 1.3.5.3.4.4.9.4 1.5v.3Zm-.7-.5c0-.4 0-.7-.2-1a1 1 0 0 0-.8-.2c-.3 0-.6 0-.8.3-.3.2-.4.5-.4.9h2.2Zm1.4 2 .3-.4.5.3.6.1c.3 0 .5 0 .6-.2.2 0 .3-.2.3-.4l-.2-.5-.7-.3c-.5 0-.8-.3-1-.5a1 1 0 0 1-.3-.7c0-.4.1-.6.4-.9.2-.2.6-.3 1-.3h.7l.6.4-.3.5-.5-.3h-.5a1 1 0 0 0-.6.1l-.2.4c0 .2 0 .4.2.5l.7.2 1 .5c.2.2.3.5.3.8 0 .4-.1.7-.4 1a2.3 2.3 0 0 1-2.5-.1Zm7.4.5h-.7V113c0-.4 0-.7-.2-1l-.7-.2a1 1 0 0 0-.9.3c-.2.3-.3.6-.3 1v2.4h-.7v-6.2h.7v2.7l.6-.6c.2-.2.5-.2.8-.2.4 0 .8.1 1 .4.3.3.4.7.4 1.3v2.6ZM503.4 128.8l-1.6 5.8h-.8l-1.2-4.3a3.7 3.7 0 0 1-.1-.5 2.5 2.5 0 0 1-.1.5l-1.2 4.3h-.8l-1.8-5.8h.8l1.3 4.4a2.8 2.8 0 0 1 0 .6 2.4 2.4 0 0 1 .2-.6l1.3-4.4h.6l1.3 4.5a3.3 3.3 0 0 1 0 .5h.1v-.2l.1-.3 1.2-4.5h.7Zm4.3 5.8h-.7v-2.4c0-.4 0-.8-.2-1-.2-.2-.4-.3-.7-.3a1 1 0 0 0-.9.4c-.2.2-.3.5-.3 1v2.3h-.7v-6.2h.7v2.7l.6-.6.8-.2c.5 0 .8.2 1 .5.3.2.4.7.4 1.2v2.6Zm4.6-4.2-2 5a2 2 0 0 1-.5.9c-.3.2-.5.3-.9.3a1.5 1.5 0 0 1-.4 0l.1-.7a.7.7 0 0 0 .3.1l.5-.1.2-.4.4-.9-1.6-4.2h.7l1.1 3.2v.1l.1.3a2.6 2.6 0 0 1 .1-.4l1.2-3.2h.7Zm3.3-1-.3-.1-.1-.3v-.4l.4-.1.4.1.1.4-.1.3-.4.1Zm.4 5.2h-.7v-4.2h.7v4.2Zm3.3 0h-.3l-.4.1a1 1 0 0 1-.8-.3c-.2-.2-.3-.5-.3-.8V131h-.7v-.6h.7v-1l.7-.2v1.2h1v.6h-1v2.5l.1.5.4.2h.2l.2-.2.2.5Zm1.7-6-.6 1.9h-.5l.5-1.8h.6Zm.7 5.6.4-.4.5.2.5.1.7-.1.2-.5c0-.2 0-.3-.2-.4l-.6-.3c-.5-.1-.9-.3-1-.5a1 1 0 0 1-.4-.8c0-.3.2-.6.4-.8.3-.3.6-.4 1-.4l.8.1.6.4-.4.4-.5-.2-.4-.1a1 1 0 0 0-.6.2c-.2 0-.2.2-.2.4s0 .3.2.4l.7.3c.4 0 .7.2 1 .4l.2.9c0 .3 0 .7-.4.9-.2.2-.6.3-1 .3a2.3 2.3 0 0 1-1.5-.5Zm5.8 0 .4-.4.5.2.6.1.6-.1c.2-.1.2-.3.2-.5s0-.3-.2-.4l-.6-.3c-.5-.1-.9-.3-1-.5a1 1 0 0 1-.3-.8c0-.3 0-.6.3-.8.3-.3.7-.4 1.1-.4l.7.1.6.4-.3.4-.5-.2-.5-.1a1 1 0 0 0-.6.2l-.2.4c0 .2 0 .3.2.4l.7.3c.4 0 .8.2 1 .4.2.3.3.5.3.9 0 .3-.2.7-.4.9-.3.2-.7.3-1.1.3a2.3 2.3 0 0 1-1.5-.5Zm7 .4h-.7v-.6c-.2.2-.3.4-.6.5-.2.2-.4.2-.7.2-.4 0-.7-.1-1-.3-.2-.3-.3-.6-.3-1 0-.3.1-.6.4-.8.2-.3.5-.4 1-.5l1.2-.1v-.1c0-.4 0-.6-.3-.8a1 1 0 0 0-.6-.2l-.6.1-.6.4-.4-.4a2.2 2.2 0 0 1 1.6-.7c.5 0 1 .2 1.2.4.2.3.4.7.4 1.2v2.7Zm-.7-1.7v-.4l-1 .2c-.3 0-.6 0-.7.2-.2.1-.2.3-.2.5 0 .3 0 .4.2.6l.5.2c.4 0 .7-.1.9-.4.2-.2.3-.5.3-.9Zm4-4a1.2 1.2 0 0 0-.5 0c-.2 0-.4 0-.5.2l-.1.5v.8h1v.6h-1v3.6h-.7V131h-.7v-.6h.7v-.8c0-.4.1-.7.4-1 .2-.2.5-.3 1-.3h.2l.3.1-.2.6Zm4 3.8h-3c0 .4.1.8.3 1 .3.3.6.4 1 .4h.6l.6-.4.3.5-.7.4-.8.1a2 2 0 0 1-1.5-.5c-.3-.4-.5-1-.5-1.6 0-.7.2-1.2.5-1.6.4-.5.8-.7 1.4-.7.6 0 1 .2 1.3.6.3.3.4.8.4 1.4v.4Zm-.7-.6c0-.4-.1-.7-.3-.9a1 1 0 0 0-.8-.3c-.3 0-.6.1-.8.3-.2.3-.4.5-.4 1h2.3ZM501.7 148.5h-2.3v2h2.2v.7h-2.2v2.6h-.6v-5.9h3v.6Zm1.4 0h-.4l-.1-.4.1-.3.4-.2c.1 0 .2 0 .3.2l.2.3c0 .1 0 .2-.2.3l-.3.2Zm.3 5.3h-.7v-4.2h.7v4.2Zm1.4 0v-6.2h.6v6.2h-.6Zm4-.1a1.6 1.6 0 0 1-.7.2 1 1 0 0 1-.8-.3c-.2-.2-.3-.5-.3-.9v-2.6h-.7v-.5h.7v-1l.7-.2v1.2h1v.5h-1v2.5l.1.5.4.2h.2l.2-.1.2.5Zm4.2-1.9h-3c0 .5.2.9.4 1.1.3.3.6.4 1 .4l.6-.1c.2 0 .4-.2.5-.3l.4.4-.7.4-.8.2a2 2 0 0 1-1.5-.6c-.4-.4-.5-.9-.5-1.6 0-.7.1-1.2.5-1.6.4-.4.8-.6 1.4-.6.5 0 1 .2 1.3.5.3.4.4.9.4 1.5v.3Zm-.7-.5c0-.4 0-.7-.3-1a1 1 0 0 0-.7-.3c-.3 0-.6.2-.8.4-.3.2-.4.5-.4.9h2.2Zm3.8-1.1a.9.9 0 0 0-.3-.1 1 1 0 0 0-.8.4 2 2 0 0 0-.3 1.1v2.2h-.7v-4.2h.7v.8l.4-.7.7-.2a1.3 1.3 0 0 1 .4 0l-.1.7Zm1.2-1.6c-.1 0-.3 0-.3-.2l-.2-.3c0-.1 0-.2.2-.3l.3-.2c.1 0 .2 0 .3.2l.2.3c0 .1 0 .2-.2.3l-.3.2Zm.3 5.2h-.6v-4.2h.6v4.2Zm4.8 0h-.6v-2.4c0-.5-.1-.8-.3-1-.1-.2-.4-.4-.7-.4a1 1 0 0 0-.8.4c-.2.3-.4.6-.4 1v2.4h-.6v-4.2h.6v.7l.6-.6c.3-.2.5-.2.8-.2.5 0 .8.1 1 .4.3.3.4.7.4 1.3v2.6Zm4.9-.3c0 .8-.2 1.3-.6 1.7a2 2 0 0 1-1.5.5 3.3 3.3 0 0 1-1.6-.4l.3-.5a2.7 2.7 0 0 0 1.3.4c.4 0 .8-.2 1-.4.3-.3.4-.6.4-1.2v-.5l-.6.6-.8.2c-.6 0-1-.2-1.3-.6-.3-.4-.5-.9-.5-1.5 0-.7.2-1.2.5-1.7.4-.4.9-.6 1.4-.6l.8.1.5.5v-.5h.7v4Zm-.7-1.6v-.6c0-.4-.1-.7-.3-.9-.3-.2-.5-.4-.9-.4s-.7.2-1 .5c-.2.3-.3.7-.3 1.3 0 .4.1.8.3 1 .2.4.5.5 1 .5.3 0 .6-.1.9-.4.2-.3.3-.6.3-1Zm4.3 1.9v-6.2h.7v6.2h-.7Zm3.8 0a2 2 0 0 1-1.5-.5c-.4-.4-.6-1-.6-1.6 0-.7.2-1.2.6-1.6a2 2 0 0 1 1.6-.6c.6 0 1 .2 1.4.6.4.3.5.9.5 1.6 0 .6-.1 1.2-.5 1.6a2 2 0 0 1-1.5.6Zm0-.5c.4 0 .8-.1 1-.4.2-.3.4-.7.4-1.2s-.2-1-.4-1.2c-.2-.3-.6-.5-1-.5s-.8.2-1 .5c-.3.3-.4.7-.4 1.2s.1.9.4 1.2c.2.3.6.4 1 .4Zm6.7.2c0 .8-.2 1.3-.6 1.7a2 2 0 0 1-1.5.5 3.3 3.3 0 0 1-1.6-.4l.3-.5a2.7 2.7 0 0 0 1.3.4c.4 0 .8-.2 1-.4.3-.3.4-.6.4-1.2v-.5l-.6.6-.8.2c-.6 0-1-.2-1.3-.6-.3-.4-.5-.9-.5-1.5 0-.7.2-1.2.6-1.7.3-.4.8-.6 1.3-.6l.8.1.5.5v-.5h.7v4Zm-.7-1.6v-.6c0-.4 0-.7-.3-.9-.2-.2-.5-.4-.9-.4s-.7.2-1 .5c-.2.3-.3.7-.3 1.3 0 .4.1.8.3 1 .3.4.6.5 1 .5.3 0 .6-.1.9-.4.2-.3.3-.6.3-1ZM483.3 167.7h-1.7v5.2h-.7v-5.2h-1.7v-.7h4.1v.7Zm4.2 5.2h-.6v-.6l-.6.5-.8.2c-.4 0-.8-.1-1-.4-.3-.3-.4-.8-.4-1.4v-2.5h.6v2.4c0 .5.1.8.3 1 .1.2.4.3.7.3.4 0 .6 0 .8-.3.3-.3.4-.6.4-1v-2.4h.6v4.2Zm3.4-3.6a.9.9 0 0 0-.3 0 1 1 0 0 0-.8.4 2 2 0 0 0-.3 1v2.2h-.6v-4.2h.6v.8l.5-.6c.2-.2.4-.3.7-.3a1.3 1.3 0 0 1 .4.1l-.2.6Zm4.4 3.6h-.7v-2.4c0-.4 0-.8-.2-1-.2-.2-.4-.3-.8-.3a1 1 0 0 0-.8.4c-.2.2-.3.5-.3 1v2.3h-.7v-4.2h.7v.7c.1-.3.3-.5.6-.6l.8-.2c.4 0 .8.2 1 .5.3.3.4.7.4 1.2v2.6Zm5.2.1a2 2 0 0 1-1.5-.6c-.3-.4-.5-.9-.5-1.5 0-.7.2-1.3.6-1.7a2 2 0 0 1 1.5-.6c.6 0 1.1.2 1.5.6.3.4.5 1 .5 1.6 0 .7-.2 1.2-.5 1.6a2 2 0 0 1-1.6.6Zm0-.6c.5 0 .8-.1 1-.4.3-.3.4-.7.4-1.2s0-.9-.3-1.2c-.3-.3-.6-.4-1-.4-.5 0-.8.1-1 .4-.3.3-.4.7-.4 1.2s.1 1 .4 1.2c.2.3.6.4 1 .4Zm5.2-5.1a1.1 1.1 0 0 0-.4-.1c-.2 0-.4 0-.5.2l-.2.5v.8h1v.6h-1v3.6h-.7v-3.6h-.7v-.6h.7v-.8c0-.4.2-.7.4-1 .2-.2.6-.3 1-.3h.3l.3.1-.2.6Zm2.6 0h-.2l-.2-.1c-.2 0-.4 0-.5.2l-.2.5v.8h1v.6h-1v3.6h-.6v-3.6h-.8v-.6h.8v-.8c0-.4 0-.7.3-1 .3-.2.6-.3 1-.3h.3l.3.1-.2.6Zm2.5 5.2.4-.5c.1.2.3.3.5.3l.5.1.7-.1.2-.5c0-.2 0-.3-.2-.4-.1-.2-.3-.2-.6-.3-.5-.2-.9-.3-1-.5a1 1 0 0 1-.4-.8c0-.3.2-.6.4-.8.3-.3.6-.4 1-.4l.8.1c.2 0 .4.2.6.4l-.4.4-.5-.2-.4-.1a1 1 0 0 0-.6.1c-.2.1-.2.3-.2.5s0 .3.2.4l.7.3c.4 0 .7.2 1 .4.1.2.3.5.3.8 0 .4-.2.7-.5 1-.2.2-.6.3-1 .3a2.3 2.3 0 0 1-1.5-.5Zm6 .3-.4.2h-.4a1 1 0 0 1-.7-.3c-.2-.2-.3-.5-.3-.8v-2.6h-.7v-.6h.7v-1l.7-.2v1.2h1v.6h-1v3l.5.1h.4l.2.4Zm3.8.1h-.7v-.6l-.5.5-.8.2c-.4 0-.7-.1-1-.3-.2-.3-.3-.6-.3-1 0-.3.1-.6.4-.8.2-.3.6-.4 1-.5l1.2-.1v-.1c0-.4 0-.6-.2-.8a1 1 0 0 0-.7-.2l-.6.1-.5.4-.5-.4.8-.5.9-.2c.5 0 .9.2 1.1.4.3.3.4.7.4 1.2v2.7Zm-.7-1.7v-.4l-1 .1c-.3 0-.5.2-.7.3l-.2.5c0 .2 0 .4.2.6l.5.2c.4 0 .7-.2.9-.4.2-.2.3-.5.3-.9Zm4 1.6-.4.2h-.3a1 1 0 0 1-.8-.3c-.2-.2-.3-.5-.3-.8v-2.6h-.7v-.6h.7v-1l.7-.2v1.2h1v.6h-1v3l.5.1h.4l.2.4Zm1.2-5-.4-.2-.1-.3.1-.4.4-.1.3.1.2.4s0 .2-.2.3l-.3.1Zm.3 5.1h-.7v-4.2h.7v4.2Zm1-.4.3-.5.5.3.6.1.7-.1.2-.5c0-.2 0-.3-.2-.4-.1-.2-.3-.2-.6-.3-.6-.2-1-.3-1.1-.5a1 1 0 0 1-.3-.8c0-.3.1-.6.4-.8.3-.3.6-.4 1-.4l.7.1c.2 0 .4.2.6.4l-.3.4-.5-.2-.5-.1a1 1 0 0 0-.6.1l-.2.5.2.4.7.3c.5 0 .8.2 1 .4.2.2.3.5.3.8 0 .4-.1.7-.4 1-.3.2-.6.3-1.1.3a2.3 2.3 0 0 1-1.4-.5Zm6 .3-.4.2h-.4a1 1 0 0 1-.8-.3l-.2-.8v-2.6h-.8v-.6h.8v-1l.6-.2v1.2h1v.6h-1v2.5c0 .2 0 .4.2.5l.3.1h.5l.2.4Zm1.1-5-.3-.2-.1-.3.1-.4.3-.1.4.1.1.4-.1.3-.4.1Zm.4 5.1h-.7v-4.2h.7v4.2Zm4.3-.3a2 2 0 0 1-1.2.4 2 2 0 0 1-1.5-.5 2 2 0 0 1-.6-1.6c0-.7.2-1.2.6-1.7a2 2 0 0 1 1.6-.6 2.2 2.2 0 0 1 1.2.4l-.3.5a1.7 1.7 0 0 0-1-.3c-.4 0-.8.1-1 .5-.3.3-.4.6-.4 1.1 0 .5.2 1 .4 1.2.3.3.6.4 1 .4a1.5 1.5 0 0 0 .9-.3l.3.5Zm.6 0 .3-.6.6.3.5.1.7-.1.2-.5c0-.2 0-.3-.2-.4-.1-.2-.3-.2-.6-.3-.6-.2-1-.3-1.1-.5a1 1 0 0 1-.3-.8c0-.3.1-.6.4-.8.3-.3.6-.4 1-.4l.7.1c.2 0 .4.2.6.4l-.3.4-.5-.2-.4-.1a1 1 0 0 0-.7.1l-.2.5.2.4.7.3c.5 0 .8.2 1 .4.2.2.3.5.3.8 0 .4-.1.7-.4 1-.3.2-.6.3-1.1.3a2.3 2.3 0 0 1-1.4-.5Z"/><path fill="#F67247" d="m494.4 191.6-.9.4-1 .2c-.8 0-1.5-.3-2-.9a3 3 0 0 1-.7-2c0-1 .3-1.8.8-2.4.5-.5 1.3-.8 2.1-.8a3 3 0 0 1 1.7.5l-.3.5a2.5 2.5 0 0 0-1.4-.4 2 2 0 0 0-1.6.7c-.4.4-.6 1-.6 1.8 0 .7.2 1.3.6 1.7.4.4.9.6 1.5.6a2.7 2.7 0 0 0 1.5-.4l.3.5Zm1 .5v-6.2h.6v6.2h-.6Zm5.4-2h-3c0 .5.1.8.4 1.1.2.3.5.4 1 .4l.5-.1.6-.3.3.4-.7.4-.8.2a2 2 0 0 1-1.5-.6c-.3-.4-.5-1-.5-1.6 0-.7.2-1.2.5-1.6.4-.4.9-.6 1.4-.6.6 0 1 .1 1.3.5.3.4.5.8.5 1.5v.3Zm-.7-.5c0-.4-.1-.7-.3-1a1 1 0 0 0-.8-.3c-.3 0-.6.1-.8.4-.2.2-.4.5-.4.9h2.3Zm4.6 2.5h-.6v-.7l-.6.6-.7.2c-.4 0-.7-.2-1-.4-.2-.2-.3-.5-.3-.9s0-.7.3-.9c.3-.2.6-.4 1-.4l1.3-.2v-.1c0-.3-.1-.6-.3-.7a1 1 0 0 0-.6-.3c-.3 0-.5 0-.7.2-.2 0-.4.2-.5.4l-.4-.4a2.2 2.2 0 0 1 1.6-.7c.5 0 .9.1 1.1.4.3.2.4.6.4 1.1v2.8Zm-.6-1.7v-.4h-1l-.8.3-.2.5c0 .3 0 .5.2.6l.6.2c.3 0 .6-.1.8-.3.2-.3.4-.6.4-1Zm4-2a.8.8 0 0 0-.3 0 1 1 0 0 0-.8.4 2 2 0 0 0-.3 1.1v2.2h-.7v-4.2h.7v.8c0-.3.2-.5.4-.7l.7-.2a1.3 1.3 0 0 1 .4 0l-.1.6Zm2.7 3.3.4-.5.5.3h1.2l.2-.6c0-.1 0-.3-.2-.4l-.6-.3c-.5-.1-.9-.3-1-.5a1 1 0 0 1-.4-.7c0-.4.2-.7.4-.9.3-.2.6-.3 1-.3h.8l.6.4-.4.5-.5-.3h-.4a1 1 0 0 0-.6 0c-.2.2-.2.3-.2.5s0 .3.2.4l.7.3 1 .5c.1.2.3.5.3.8 0 .4-.2.7-.5 1-.2.1-.6.3-1 .3a2.3 2.3 0 0 1-1.5-.5Zm6 .3-.4.1h-.4a1 1 0 0 1-.7-.2c-.2-.2-.3-.5-.3-.9v-2.6h-.7v-.5h.7v-1l.7-.3v1.3h1v.5h-1v3l.5.2h.2l.2-.1.2.5Zm3.8 0h-.7v-.6c-.1.3-.3.4-.5.6l-.8.2c-.4 0-.7-.2-1-.4-.2-.2-.3-.5-.3-.9s.1-.7.4-.9c.2-.2.6-.4 1-.4l1.2-.2v-.1c0-.3 0-.6-.2-.7a1 1 0 0 0-.7-.3c-.2 0-.4 0-.6.2-.2 0-.4.2-.5.4l-.5-.4a2.2 2.2 0 0 1 1.7-.7c.5 0 .9.1 1.1.4.3.2.4.6.4 1.1v2.8Zm-.7-1.6v-.4h-1l-.7.3-.2.5c0 .3 0 .5.2.6l.5.2c.4 0 .7-.1.9-.3.2-.3.3-.6.3-1Zm4 1.6-.4.1h-.3a1 1 0 0 1-.8-.2c-.2-.2-.3-.5-.3-.9v-2.6h-.7v-.5h.7v-1l.7-.3v1.3h1v.5h-1v3l.5.2h.2l.2-.1.2.5Zm1.2-5.1c-.2 0-.3 0-.4-.2l-.1-.3.1-.3.4-.2c.1 0 .2 0 .3.2l.2.3c0 .1 0 .2-.2.3l-.3.2Zm.3 5.2h-.7v-4.2h.7v4.2Zm1-.4.3-.5.5.3H528.5l.2-.6c0-.1 0-.3-.2-.4l-.6-.3c-.6-.1-1-.3-1.1-.5a1 1 0 0 1-.3-.7c0-.4.1-.7.4-.9.3-.2.6-.3 1-.3a2 2 0 0 1 1.3.4l-.3.5-.5-.3h-.5a1 1 0 0 0-.6 0l-.2.5.2.4.7.3c.5.1.8.3 1 .5.2.2.3.5.3.8 0 .4-.1.7-.4 1-.3.1-.6.3-1.1.3a2.3 2.3 0 0 1-1.4-.5Zm6 .3-.4.1h-.4a1 1 0 0 1-.8-.2l-.2-.9v-2.6h-.8v-.5h.8v-1l.6-.3v1.3h1v.5h-1v2.5c0 .3 0 .4.2.5l.3.2h.3l.2-.1.2.5Zm1.1-5.1s-.2 0-.3-.2l-.1-.3.1-.3.3-.2c.2 0 .3 0 .4.2l.1.3-.1.3-.4.2Zm.4 5.2h-.7v-4.2h.7v4.2Zm4.3-.3a2 2 0 0 1-1.2.4 2 2 0 0 1-1.5-.6 2 2 0 0 1-.6-1.6c0-.6.2-1.2.6-1.6a2 2 0 0 1 1.6-.6 2.2 2.2 0 0 1 1.2.4l-.3.4-.5-.2h-.5c-.4 0-.8 0-1 .4-.3.3-.4.7-.4 1.2s.2.9.4 1.2c.3.2.6.4 1 .4a1.5 1.5 0 0 0 .9-.3l.3.5Zm.6-.1.3-.5.6.3h1.2l.2-.6c0-.1 0-.3-.2-.4l-.6-.3c-.6-.1-1-.3-1.1-.5a1 1 0 0 1-.3-.7c0-.4.1-.7.4-.9.3-.2.6-.3 1-.3a2 2 0 0 1 1.3.4l-.3.5-.5-.3h-.4a1 1 0 0 0-.7 0l-.2.5.2.4.7.3c.5.1.8.3 1 .5.2.2.3.5.3.8 0 .4-.1.7-.4 1-.3.1-.6.3-1.1.3a2.3 2.3 0 0 1-1.4-.5Z"/></g></g></g><defs><linearGradient id="e" x1="270.3" x2="278.4" y1="387.6" y2="395.6" gradientUnits="userSpaceOnUse"><stop stop-color="#4CD2FF"/><stop offset="1" stop-color="#0078D4"/></linearGradient><linearGradient id="g" x1="285.3" x2="293.6" y1="387.5" y2="395.9" gradientUnits="userSpaceOnUse"><stop stop-color="#41403F"/><stop offset="1" stop-color="#1F1F1F"/></linearGradient><linearGradient id="h" x1="303.4" x2="303.4" y1="389.9" y2="395.5" gradientUnits="userSpaceOnUse"><stop stop-color="#444341"/><stop offset="1" stop-color="#2D2D2C"/></linearGradient><linearGradient id="i" x1="303.4" x2="303.4" y1="395.5" y2="389.9" gradientUnits="userSpaceOnUse"><stop/><stop offset="1" stop-opacity="0"/></linearGradient><linearGradient id="j" x1="305.5" x2="305.5" y1="387.9" y2="393.4" gradientUnits="userSpaceOnUse"><stop stop-color="#F7F7F7"/><stop offset="1" stop-color="#E6E6E6"/></linearGradient><linearGradient id="k" x1="303.4" x2="303.4" y1="389.9" y2="395.5" gradientUnits="userSpaceOnUse"><stop stop-color="#444341"/><stop offset="1" stop-color="#2D2D2D"/></linearGradient><linearGradient id="n" x1="334.8" x2="334.8" y1="388.9" y2="396.3" gradientUnits="userSpaceOnUse"><stop stop-color="#FFCF4D"/><stop offset="1" stop-color="#F4B509"/></linearGradient><linearGradient id="o" x1="334.8" x2="334.8" y1="388.9" y2="396.3" gradientUnits="userSpaceOnUse"><stop stop-color="#FFD04E"/><stop offset="1" stop-color="#F4B509"/></linearGradient><linearGradient id="q" x1="347.4" x2="352.8" y1="394.1" y2="394.1" gradientUnits="userSpaceOnUse"><stop stop-color="#0C59A4"/><stop offset="1" stop-color="#114A8B"/></linearGradient><linearGradient id="s" x1="350.2" x2="346.9" y1="391.8" y2="395.4" gradientUnits="userSpaceOnUse"><stop stop-color="#1B9DE2"/><stop offset=".2" stop-color="#1595DF"/><stop offset=".7" stop-color="#0680D7"/><stop offset="1" stop-color="#0078D4"/></linearGradient><linearGradient id="w" x1="364.7" x2="364.7" y1="384.7" y2="398.6" gradientUnits="userSpaceOnUse"><stop offset=".9" stop-opacity=".1"/><stop offset="1" stop-opacity=".2"/></linearGradient><linearGradient id="x" x1="81.1" x2="86.4" y1="389.4" y2="394.2" gradientUnits="userSpaceOnUse"><stop offset=".2" stop-color="#FFE975"/><stop offset=".5" stop-color="#FFB729"/><stop offset=".7" stop-color="#F90"/></linearGradient><linearGradient id="z" x1="137.6" x2="137.6" y1="283.2" y2="287.5" gradientUnits="userSpaceOnUse"><stop stop-color="#86BBE5"/><stop offset="1" stop-color="#1072BA"/></linearGradient><radialGradient id="f" cx="0" cy="0" r="1" gradientTransform="matrix(0 2.47995 -2.44918 0 288.8 391)" gradientUnits="userSpaceOnUse"><stop stop-color="#fff"/><stop offset="1" stop-color="#fff" stop-opacity=".8"/></radialGradient><radialGradient id="l" cx="0" cy="0" r="1" gradientTransform="matrix(-4.45069 5.03059 -4.96424 -4.51023 321.4 389.2)" gradientUnits="userSpaceOnUse"><stop stop-color="#8194E8"/><stop offset="1" stop-color="#5654B7"/></radialGradient><radialGradient id="m" cx="0" cy="0" r="1" gradientTransform="matrix(4.96423 5.7245 -5.64896 5.03061 317.4 388.6)" gradientUnits="userSpaceOnUse"><stop offset=".2" stop-color="#886BB4"/><stop offset="1" stop-color="#5D5FC6"/></radialGradient><radialGradient id="r" cx="0" cy="0" r="1" gradientTransform="matrix(2.8963 0 0 2.72944 350.4 394.1)" gradientUnits="userSpaceOnUse"><stop offset=".7" stop-opacity="0"/><stop offset=".9" stop-opacity=".5"/><stop offset="1"/></radialGradient><radialGradient id="t" cx="0" cy="0" r="1" gradientTransform="matrix(.65245 -4.27158 -3.47971 -.51777 347.7 394.8)" gradientUnits="userSpaceOnUse"><stop offset=".8" stop-opacity="0"/><stop offset=".9" stop-opacity=".5"/><stop offset="1"/></radialGradient><radialGradient id="u" cx="0" cy="0" r="1" gradientTransform="matrix(-.24588 6.09767 13.0931 .48781 346.4 390.2)" gradientUnits="userSpaceOnUse"><stop stop-color="#35C1F1"/><stop offset=".1" stop-color="#34C1ED"/><stop offset=".2" stop-color="#2FC2DF"/><stop offset=".3" stop-color="#2BC3D2"/><stop offset=".7" stop-color="#36C752"/></radialGradient><radialGradient id="v" cx="0" cy="0" r="1" gradientTransform="matrix(.82764 2.81483 2.30555 -.67439 352.9 391)" gradientUnits="userSpaceOnUse"><stop stop-color="#66EB6E"/><stop offset="1" stop-color="#66EB6E" stop-opacity="0"/></radialGradient><clipPath id="a"><path fill="#fff" d="M0 0h640v480H0z"/></clipPath><clipPath id="c"><path fill="#fff" d="M73.5 83.2a13 13 0 0 1 13-13h467a13 13 0 0 1 13 13v316.5h-493V83.2Z"/></clipPath><clipPath id="d"><path fill="#fff" d="M73 383h493v17H73z"/></clipPath><clipPath id="y"><path fill="#fff" d="M73 70h493v313H73z"/></clipPath><filter id="b" width="645.1" height="6.4" x="-2.5" y="415.5" color-interpolation-filters="sRGB" filterUnits="userSpaceOnUse"><feFlood flood-opacity="0" result="BackgroundImageFix"/><feBlend in="SourceGraphic" in2="BackgroundImageFix" result="shape"/><feGaussianBlur result="effect1_foregroundBlur_7301_30742" stdDeviation="1.5"/></filter></defs></svg>