<svg xmlns="http://www.w3.org/2000/svg" width="640" height="480" fill="none"><g clip-path="url(#a)"><path fill="#1D2025" d="M64.3 83a22 22 0 0 1 22-22h467.4a22 22 0 0 1 22 22v323.7H64.3V83Z"/><path fill="#6C769C" fill-rule="evenodd" d="M64.3 406.7h1.4V83c0-11.4 9.2-20.6 20.6-20.6h467.4c11.4 0 20.6 9.2 20.6 20.6v323.7h1.4V83a22 22 0 0 0-22-22H86.3a22 22 0 0 0-22 22v323.7Z" clip-rule="evenodd"/><g filter="url(#b)"><rect width="639.1" height=".4" x=".5" y="418.5" fill="#000" fill-opacity=".6" rx=".2"/></g><path fill="#343744" d="M0 406.7h640v11.4H0v-11.4Z"/><rect width="640" height="1" y="418" fill="#6C769C" rx=".5"/><rect width="640" height="1" y="406" fill="#6C769C" rx=".5"/><g clip-path="url(#c)"><path fill="#F3F3F3" fill-opacity=".9" d="M567 383H73v17h494v-17Z" style="mix-blend-mode:luminosity"/><path fill="#000" fill-opacity=".9" d="M503.2 392.5v-.3l2-1.9h.2l1.9 2v.2h-.3l-1.8-1.8-1.7 1.8h-.3ZM516.2 390a2.8 2.8 0 0 0-1.6.4 2.8 2.8 0 0 0-.8.9H513.4v-.2a2.8 2.8 0 0 1 1.2-1.1 3.3 3.3 0 0 1 2.3-.3 3.4 3.4 0 0 1 1.4.7l.5.7v.2h-.1a.4.4 0 0 1-.2-.1v-.1l-.2-.1-.1-.2a2.9 2.9 0 0 0-1-.6 2.8 2.8 0 0 0-1-.3Zm0 1a1.8 1.8 0 0 0-1 .4 1.9 1.9 0 0 0-.6.5v.1h-.2l-.1-.2c0-.2.2-.4.3-.5a2.2 2.2 0 0 1 1-.6 2.1 2.1 0 0 1 1.7.2l.5.4.4.5v.2H517.8l-.1-.2-.2-.2-.3-.2-.3-.3a1.8 1.8 0 0 0-.8-.1Zm0 1a1.2 1.2 0 0 0-.7.3l-.1.2-.1.1-.2.1-.1-.2.2-.4.3-.2a1.4 1.4 0 0 1 2 .6.2.2 0 0 1 0 .2H517.1l-.1-.2-.1-.1-.1-.1-.1-.1a1 1 0 0 0-.6-.2Zm-.4 1v-.1a.5.5 0 0 1 .3-.2h.4l.1.2v.5a.4.4 0 0 1-.4.1h-.1a.4.4 0 0 1-.3-.4ZM525.8 393.8l.1-.1.2-.1c0-.2.2-.3.3-.4a2.4 2.4 0 0 0 .4-1 2.4 2.4 0 0 0 0-1 2.6 2.6 0 0 0-.8-1.5h-.1V389.3h.2s.2 0 .3.2a2.9 2.9 0 0 1 .5.8 2.9 2.9 0 0 1 .2 2 2.9 2.9 0 0 1-.5 1.1l-.3.3-.2.2h-.2v-.2Zm-3-1h-.6a.5.5 0 0 1-.3-.2.5.5 0 0 1-.2-.4v-1a.5.5 0 0 1 .2-.4l.1-.1h.8l.9-1H524l.1.3v3.6a.2.2 0 0 1-.2 0h-.2l-.9-.9Zm2.4.4v-.1a5.9 5.9 0 0 0 .5-.7 1.7 1.7 0 0 0 .1-.7v-.4a1.7 1.7 0 0 0-.3-.7l-.3-.3V390h.2a1.4 1.4 0 0 1 .4.4 2.6 2.6 0 0 1 .2.4 2.2 2.2 0 0 1-.1 2 3.6 3.6 0 0 1-.3.4l-.2.1h-.2Zm-1.4 0v-3l-.8.7h-.8v.1l-.1.2v1.1H523l.1.1.8.8Zm.7-.6v-.1a5.5 5.5 0 0 0 .2-.4v-.2a1.5 1.5 0 0 0 0-.4 1.1 1.1 0 0 0 0-.4 3.5 3.5 0 0 0-.2-.2v-.2H524.8l.1.2.2.2a1.4 1.4 0 0 1 0 .6v.2a1.6 1.6 0 0 1-.3.8h-.1a.2.2 0 0 1-.2-.1ZM535.4 391.8v.3h-.6v.5l-.1.3-.2.3-.3.1-.3.1h-3.4a.9.9 0 0 1-.5-.5v-2.4l.2-.3a.8.8 0 0 1 .6-.3h3.1l.3.1.3.2a.9.9 0 0 1 .3.6v.4h.5l.1.2v.4Zm-1-1a.5.5 0 0 0-.1-.4.5.5 0 0 0-.4-.1h-3a.5.5 0 0 0-.5.1v.2l-.1.2v1.9l.1.2.2.1H534a.5.5 0 0 0 .4 0v-.3l.1-.2v-1.7Zm-1-.2.2.1.1.2V392.6l-.2.1H530.7v-2H533.5ZM546.3 390.6h-.4v-2.4l-.3.1a2 2 0 0 1-.3.1l-.1-.3a2.3 2.3 0 0 0 1-.4v3Zm1.6 0h-.4v-2.4l-.2.1-.4.1v-.3a2.4 2.4 0 0 0 .8-.4h.2v3Zm1-1.7h-.2v-.4H549l.1.2v.2h-.2Zm0 1.8h-.2v-.4l.2-.1h.1l.1.2v.2h-.2Zm1.6 0a.8.8 0 0 1-.7-.4 2 2 0 0 1-.3-1c0-.6.1-1 .3-1.2.2-.3.4-.4.7-.4.3 0 .6 0 .7.3.2.3.2.7.2 1.2s0 .8-.2 1c-.2.4-.4.5-.7.5Zm0-2.7c-.2 0-.3 0-.4.3l-.2 1c0 .3 0 .6.2.8 0 .2.2.3.4.3s.3-.1.4-.3l.2-1c0-.3 0-.6-.2-.8 0-.2-.2-.3-.4-.3Zm2.2 2.7a.8.8 0 0 1-.6-.4 2 2 0 0 1-.3-1c0-.6.1-1 .3-1.2.1-.3.4-.4.7-.4.3 0 .5 0 .7.3l.2 1.2c0 .5 0 .8-.2 1-.2.4-.5.5-.8.5Zm0-2.7c-.1 0-.3 0-.4.3l-.1 1 .1.8c.1.2.3.3.5.3s.3-.1.4-.3l.1-1-.1-.8c0-.2-.2-.3-.4-.3Zm2.4 2.6 1.1-2.9h.4l1 3h-.3l-.3-.8h-1.2l-.3.7h-.4Zm.8-1h1l-.5-1.3v-.2.1l-.5 1.3Zm5.2 1h-.3V388.1v.2l-.1.1-1 2.2h-.2l-1-2.2v-.3 2.6h-.4v-3h.5l.9 2v.2l.1.2.1-.2v-.2l1-2h.4v3Zm-18.7 5.6h-.4v-2.5l-.2.2-.4.1v-.3a2.4 2.4 0 0 0 .8-.5h.2v3Zm1.6 0a.8.8 0 0 1-.7-.3 2 2 0 0 1-.2-1.1c0-.5 0-1 .3-1.2.1-.2.4-.4.7-.4.3 0 .5.1.7.4l.2 1.1c0 .5-.1.9-.3 1.1-.1.3-.4.4-.7.4Zm0-2.7-.4.3-.1 1 .1.8c.1.2.3.3.4.3.2 0 .4 0 .5-.3l.1-.9-.1-.9c-.1-.2-.2-.3-.4-.3Zm2.8-.2-1.3 3.3h-.3l1.3-3.3h.3Zm1.2 3a.8.8 0 0 1-.7-.4 2 2 0 0 1-.3-1.1c0-.5.1-1 .3-1.2.2-.2.4-.4.7-.4.3 0 .5.1.7.4l.2 1.1c0 .5 0 .9-.2 1.1-.2.3-.4.4-.7.4Zm0-2.8c-.2 0-.3.1-.4.3l-.2 1 .1.8c.1.2.3.3.5.3s.3 0 .4-.3l.2-.9c0-.4 0-.7-.2-.9 0-.2-.2-.3-.4-.3Zm1.3 2.4.2-.2.3.2h.4l.4-.1.2-.5c0-.2 0-.3-.2-.4l-.5-.2a5.6 5.6 0 0 0-.5 0v-1.4h1.4v.3h-1v.8h.2c.3 0 .5 0 .7.2.2.2.3.4.3.7 0 .3-.1.5-.3.7a1 1 0 0 1-.7.2h-.5l-.4-.3Zm3.8-2.6-1.4 3.3h-.3l1.4-3.3h.3Zm.2 2.9v-.5l.2-.3.3-.2a6.6 6.6 0 0 1 .6-.5l.1-.2.1-.2v-.6l-.4-.2-.4.1a1 1 0 0 0-.3.2l-.2-.2.4-.3h.5c.3 0 .5 0 .6.2l.2.5a1 1 0 0 1-.4.8l-.2.3a9.7 9.7 0 0 0-.6.4v.2l-.1.2h1.4v.3h-1.8Zm3.1 0a.8.8 0 0 1-.6-.3 2 2 0 0 1-.3-1.1c0-.5.1-1 .3-1.2.1-.2.4-.4.7-.4.3 0 .5.1.7.4l.2 1.1c0 .5 0 .9-.2 1.1-.2.3-.5.4-.8.4Zm0-2.7-.4.3-.1 1 .1.8c.1.2.3.3.5.3s.3 0 .4-.3l.1-.9v-.9c-.2-.2-.3-.3-.5-.3Zm1.5 2.7v-.5l.2-.3.2-.2a7.2 7.2 0 0 1 .6-.5l.2-.2a.7.7 0 0 0 .1-.5l-.1-.3-.4-.2-.4.1a1 1 0 0 0-.3.2l-.2-.2.4-.3h.5c.3 0 .5 0 .7.2l.2.5v.3l-.2.3-.2.2-.3.3a15.7 15.7 0 0 0-.5.4l-.1.2v.2h1.4v.3h-1.8Zm3.1 0h-.4v-2.5l-.2.2-.4.1v-.3a2.5 2.5 0 0 0 .8-.5h.2v3Z"/><path fill="url(#d)" fill-rule="evenodd" d="M271 387.6c-.2 0-.3.2-.3.3v3.6h3.8v-3.9H271Zm7.4 0h-3.5v3.9h3.8v-3.6c0-.1-.1-.3-.3-.3Zm-3.5 4.2h3.8v3.6c0 .2-.1.4-.3.4h-3.5v-4Zm-.4 0h-3.8v3.6c0 .2.1.4.3.4h3.5v-4Z" clip-rule="evenodd"/><path fill="url(#e)" fill-opacity=".3" d="M289.2 393.5a2.5 2.5 0 0 1-2.5-2.4c0-1.4 1.1-2.5 2.5-2.5s2.5 1 2.5 2.5c0 1.3-1.1 2.4-2.5 2.4Z"/><path fill="url(#f)" fill-rule="evenodd" d="M285.7 391c0 2 1.6 3.6 3.5 3.6.8 0 1.5-.3 2-.7l1.8 1.8c.2.2.6.2.8 0 .2-.2.2-.6 0-.8l-1.8-1.7a3.6 3.6 0 0 0-2.8-5.7c-2 0-3.5 1.6-3.5 3.6Zm1 0c0 1.4 1.1 2.5 2.5 2.5s2.5-1 2.5-2.4-1.1-2.5-2.5-2.5a2.5 2.5 0 0 0-2.5 2.5Z" clip-rule="evenodd"/><path fill="url(#g)" d="M306.6 390h-5.5c-.2 0-.3 0-.3.3v4.8c0 .2.1.4.3.4h5.5c.2 0 .4-.2.4-.4v-4.8c0-.2-.2-.4-.4-.4Z"/><path stroke="url(#h)" stroke-opacity=".4" stroke-width=".5" d="M306.6 390h-5.5c-.1 0-.2.1-.2.3v4.8c0 .2 0 .3.2.3h5.5c.2 0 .3-.1.3-.3v-4.8c0-.2-.1-.3-.3-.3Z"/><path fill="url(#i)" d="M308.7 387.9h-5.5c-.2 0-.4.1-.4.3v4.9c0 .2.2.3.4.3h5.5c.2 0 .3-.1.3-.3v-4.9c0-.2-.1-.3-.3-.3Z"/><path stroke="#000" stroke-opacity=".1" stroke-width=".5" d="M308.7 388h-5.5c-.2 0-.3 0-.3.2v4.9c0 .1.1.2.3.2h5.5l.2-.2v-4.9c0-.1 0-.3-.2-.3Z"/><path fill="url(#j)" fill-opacity=".4" d="M306.6 390h-5.5c-.2 0-.3 0-.3.3v4.8c0 .2.1.4.3.4h5.5c.2 0 .4-.2.4-.4v-4.8c0-.2-.2-.4-.4-.4Z"/><path fill="url(#k)" d="M320 387.7a4 4 0 0 1 4 4 4 4 0 0 1-5.9 3.5l-1.6.4c-.2.1-.4 0-.4-.2v-.2l.4-1.6a4 4 0 0 1 3.5-6Z"/><path fill="url(#l)" d="M320 387.7a4 4 0 0 1 4 4 4 4 0 0 1-5.9 3.5l-1.6.4c-.2.1-.4 0-.4-.2v-.2l.4-1.6a4 4 0 0 1 3.5-6Z" style="mix-blend-mode:lighten"/><path fill="#FAFAFA" fill-rule="evenodd" d="M318 390c-.2 0-.4 0-.4.3v2.8c0 .2.2.3.3.3h2.8c.2 0 .3-.1.3-.3v-2.8c0-.2-.1-.4-.3-.4h-2.8Zm4.2.4-.8.6v1.4l.8.5.2-.1v-2.3s-.1-.1-.2 0Z" clip-rule="evenodd"/><mask id="o" fill="#fff"><rect width="9.3" height="7.4" x="330.7" y="388.9" rx=".5"/></mask><rect width="9.3" height="7.4" x="330.7" y="388.9" fill="url(#m)" stroke="url(#n)" stroke-width="2" mask="url(#o)" rx=".5"/><path fill="#E09F00" d="M330.7 388h3.2l.9 1.4v.1h-4.1V388Z"/><path fill="#036ABB" d="m332.2 394 .1-.1h6.2v2.3l-.1.1h-6.2V394Z"/><path fill="url(#p)" d="m353.2 394.5-.3.1c-.4.2-.8.2-1.1.2-1.5 0-2.7-1-2.7-2.2a1 1 0 0 1 .5-.8c-1.3 0-1.7 1.4-1.7 2.2 0 2.2 2.1 2.4 2.6 2.4l.8-.1c.9-.3 1.6-.9 2-1.6v-.1a.1.1 0 0 0-.1-.1Z"/><path fill="url(#q)" d="m353.2 394.5-.3.1c-.4.2-.8.2-1.1.2-1.5 0-2.7-1-2.7-2.2a1 1 0 0 1 .5-.8c-1.3 0-1.7 1.4-1.7 2.2 0 2.2 2.1 2.4 2.6 2.4l.8-.1c.9-.3 1.6-.9 2-1.6v-.1a.1.1 0 0 0-.1-.1Z" opacity=".3"/><path fill="url(#r)" d="M349.4 396c-.3-.1-.5-.4-.7-.6a2.4 2.4 0 0 1 .9-3.6l.4-.1a1 1 0 0 1 .8.3c.2.2.2.4.2.6 0 0 .8-2.4-2.4-2.4a2.5 2.5 0 0 0-2.4 2.4c0 .5 0 1.1.3 1.7a3.9 3.9 0 0 0 4.8 2 2.3 2.3 0 0 1-2-.3Z"/><path fill="url(#s)" d="M349.4 396c-.3-.1-.5-.4-.7-.6a2.4 2.4 0 0 1 .9-3.6l.4-.1a1 1 0 0 1 .8.3c.2.2.2.4.2.6 0 0 .8-2.4-2.4-2.4a2.5 2.5 0 0 0-2.4 2.4c0 .5 0 1.1.3 1.7a3.9 3.9 0 0 0 4.8 2 2.3 2.3 0 0 1-2-.3Z" opacity=".4"/><path fill="url(#t)" d="m350.8 393.2-.1.2.1.2c.5.3 1.3.3 1.3.3.3 0 .6 0 1-.3a1.9 1.9 0 0 0 .8-1.5c0-.7-.2-1.2-.3-1.4a4 4 0 0 0-3.6-2c-1 0-2 .5-2.7 1.2-.7.7-1.1 1.7-1.1 2.7 0-1.1 1-2 2.4-2 0 0 .7 0 1.3.3.5.2.7.5.9.9.2.3.2.7.2.8 0 .2 0 .4-.2.6Z"/><path fill="url(#u)" d="m350.8 393.2-.1.2.1.2c.5.3 1.3.3 1.3.3.3 0 .6 0 1-.3a1.9 1.9 0 0 0 .8-1.5c0-.7-.2-1.2-.3-1.4a4 4 0 0 0-3.6-2c-1 0-2 .5-2.7 1.2-.7.7-1.1 1.7-1.1 2.7 0-1.1 1-2 2.4-2 0 0 .7 0 1.3.3.5.2.7.5.9.9.2.3.2.7.2.8 0 .2 0 .4-.2.6Z"/><path fill="#fff" fill-opacity=".5" d="M370.8 384.7h-11c-.8 0-1.4.7-1.4 1.4v11.1c0 .8.6 1.4 1.4 1.4h11c.7 0 1.3-.6 1.3-1.4v-11c0-.8-.6-1.5-1.3-1.5Z"/><path stroke="url(#v)" stroke-opacity=".5" d="M370.8 384.6h-11c-.9 0-1.6.7-1.6 1.5v11.1c0 .9.7 1.6 1.6 1.6h11c.8 0 1.5-.7 1.5-1.6v-11c0-1-.7-1.6-1.5-1.6Z"/><path fill="#005FB8" d="M367.6 397.5H363c-.3 0-.5.3-.5.6s.2.5.5.5h4.7c.3 0 .6-.2.6-.5s-.3-.6-.6-.6Z"/><path fill="#fff" d="M368.7 387.5H362c-.4 0-.7.3-.7.7v7c0 .3.3.6.7.6h6.8c.4 0 .7-.3.7-.7v-6.9c0-.4-.3-.7-.7-.7Z"/><path fill="#67B279" fill-rule="evenodd" d="M365.4 389c-1 0-2.1.3-3 .9 0 1 .2 2 .8 3 .5.9 1.3 1.6 2.2 2a5.4 5.4 0 0 0 3-5c-.9-.6-1.9-1-3-1Z" clip-rule="evenodd"/><path fill="#fff" fill-rule="evenodd" d="m365.3 392.9 1.8-2.3h-.3l-1.5 1.5-.5-.6c-.3-.3-.6-.1-.7 0l1.2 1.4Z" clip-rule="evenodd"/><path fill="url(#w)" d="M83.3 394.8c1.7 0 3-1.4 3-3.1 0-1.8-1.3-3.1-3-3.1s-3.1 1.3-3.1 3c0 1.8 1.4 3.2 3 3.2Z"/><path fill="#000" fill-opacity=".9" d="M91.1 390.6v-.5l.2-.2.2-.3a7 7 0 0 1 .6-.5l.2-.2.1-.2v-.2l-.1-.4-.4-.1h-.3a1 1 0 0 0-.3.3l-.3-.2c.2-.2.3-.3.5-.3l.5-.1c.2 0 .4 0 .6.2l.2.6a1 1 0 0 1-.4.8l-.2.2a10.5 10.5 0 0 0-.6.4v.2l-.1.2h1.4v.3h-1.8Zm3.8-3v2h.4v.4h-.4v.7h-.3v-.7h-1.4v-.3a11 11 0 0 0 1.4-2h.3Zm-1.3 2h1v-1.4a11.8 11.8 0 0 1-1 1.4Zm2.6-.8c-.2 0-.3 0-.4-.2a.6.6 0 0 1-.2-.4c0-.1 0-.2.2-.3 0-.2.2-.2.4-.2.1 0 .3 0 .4.2l.1.3-.1.4c-.1.2-.2.2-.4.2Zm0-.9-.2.1-.1.2v.3h.3a.3.3 0 0 0 .3-.3l-.1-.2h-.2Zm3.2 2.6a2 2 0 0 1-.8.2c-.5 0-.8-.2-1-.4-.3-.3-.4-.6-.4-1 0-.5.1-1 .4-1.2.3-.3.6-.4 1-.4a2 2 0 0 1 .8.1l-.1.3a1.4 1.4 0 0 0-.6-.1 1 1 0 0 0-.8.3c-.2.2-.3.5-.3 1 0 .3 0 .5.3.7.1.2.4.4.7.4a1.5 1.5 0 0 0 .7-.2l.1.3Z"/><path fill="#000" fill-opacity=".6" d="m91 396 .2-.3.3.2h.4l.5-.1.1-.4-.1-.3-.5-.2c-.2-.1-.5-.2-.6-.4a.7.7 0 0 1-.2-.5l.3-.6.7-.2a1.6 1.6 0 0 1 .7.2l-.1.3a1.4 1.4 0 0 0-.7-.2c-.1 0-.3 0-.4.2l-.1.3.1.3.5.2c.3.1.5.2.6.4l.2.5-.3.6a1 1 0 0 1-.7.2h-.5l-.4-.2Zm4.2.2h-.4v-.4c0 .2-.2.3-.3.3l-.4.1c-.2 0-.4 0-.5-.2l-.2-.7v-1.2h.4v1.7l.5.1.4-.1.1-.5V394h.4v2Zm2.4 0h-.3V395l-.1-.5-.4-.2c-.2 0-.3 0-.4.2l-.2.5v1.2H96V394h.3v.3l.3-.3.4-.1c.2 0 .4 0 .5.2.2.2.2.4.2.7v1.3Zm2.5 0h-.4V395l-.1-.5-.4-.2c-.2 0-.3 0-.4.2l-.2.5v1.2h-.3V394h.3v.3l.3-.3.4-.1c.3 0 .4 0 .6.2l.2.7v1.3Zm2.3-2.1-1 2.5c0 .2-.1.3-.3.4l-.4.2a.8.8 0 0 1-.2 0v-.4a.4.4 0 0 0 .2 0h.2l.2-.2.1-.4-.8-2.1h.4l.6 1.6v.1-.1l.6-1.6h.4Z"/></g><g clip-path="url(#x)"><path fill="#fff" d="M567 70H73v313h494V70Z"/><path fill="#67B279" fill-rule="evenodd" d="M90.4 84.7c-2.2 0-5 .5-7.2 1.6 0 2.5 0 8.6 7.2 12.8 7.2-4.2 7.2-10.3 7.2-12.8-2.2-1-5-1.6-7.2-1.6Z" clip-rule="evenodd"/><path fill="#5B9F6B" fill-rule="evenodd" d="M90.4 84.7c-2.2 0-5 .5-7.2 1.6 0 2.5 0 8.6 7.2 12.8V84.7Z" clip-rule="evenodd"/><path fill="#fff" fill-rule="evenodd" d="m90.4 94 4.1-5.6c-.3-.2-.5 0-.7 0L90.3 92 89 90.5c-.6-.7-1.5-.2-1.7 0l3 3.4Z" clip-rule="evenodd"/><path fill="#F6F6F6" d="M107 113H73v34h34v-34Z"/><path stroke="#67B279" stroke-linecap="round" stroke-linejoin="round" d="M86.7 129.4h-1.4a.4.4 0 0 1-.2-.8l4.8-3.6h.5l4.8 3.6c.3.3.1.8-.3.8h-1.3v5c0 .2-.2.4-.5.4h-6a.4.4 0 0 1-.4-.4v-5Z" clip-rule="evenodd"/><path stroke="#67B279" stroke-linecap="round" stroke-linejoin="round" d="m88.3 163 1.8 1.9 2.4-3"/><path stroke="#67B279" stroke-linecap="round" stroke-linejoin="round" d="M90.1 158.3c-1.7 0-3.7.4-5.4 1.2 0 1.9 0 6.4 5.4 9.6 5.4-3.2 5.4-7.7 5.4-9.6-1.7-.8-3.7-1.2-5.4-1.2ZM91.6 191.8a4 4 0 0 1 4 4.2h-4.3v-4.2h.2Z" clip-rule="evenodd"/><path stroke="#67B279" stroke-linecap="round" stroke-linejoin="round" d="M89.4 193h.2v4.2c0 .3.2.5.5.6h4.2a4.8 4.8 0 1 1-5-4.8Z" clip-rule="evenodd"/><path fill="#D2D2D2" d="M107 70v314h.8V70h-.7Z"/><path stroke="#67B279" stroke-linecap="round" stroke-linejoin="round" d="M95 231.9h-3c-.4 0-.7.2-.7.6v3c0 .3.3.6.6.6h3c.3 0 .6-.3.6-.6v-3c0-.4-.3-.6-.6-.6ZM86.3 232.2c.2-.4.8-.4 1 0l1.7 3c.2.4 0 .9-.5.9h-3.3a.6.6 0 0 1-.6-1l1.7-2.9ZM88.3 225.3h-3c-.3 0-.6.3-.6.6v3c0 .3.3.6.6.6h3c.4 0 .6-.3.6-.6v-3c0-.3-.2-.6-.6-.6Z"/><path stroke="#67B279" d="M93.4 225.3a2.1 2.1 0 1 1 0 4.2 2.1 2.1 0 0 1 0-4.2Z" clip-rule="evenodd"/><path stroke="#67B279" stroke-linejoin="round" d="M87.7 268.3h.2l.8.4c.2 0 .3.2.3.3l.4 1.2h1.4l.4-1.2.3-.3c.3 0 .6-.2.8-.3h.5l1 .5 1-1-.5-1v-.5l.4-.8c0-.2.1-.3.3-.3l1.1-.4v-1.4l-1.1-.4a.5.5 0 0 1-.3-.3l-.4-.8v-.5l.5-1-1-1-1 .5h-.5c-.2-.1-.5-.3-.8-.3a.5.5 0 0 1-.3-.4 12 12 0 0 0-.4-1.1h-1.4l-.4 1.1c0 .2-.1.3-.3.4-.3 0-.5.2-.8.3h-.5l-1-.5-1 1 .5 1v.5l-.3.8-.3.3-1.2.4v1.4c.3 0 .6.2 1.1.4.2 0 .3.1.4.3 0 .3.2.5.3.8v.5l-.5 1 1 1 1-.5h.3Z" clip-rule="evenodd"/><path stroke="#67B279" stroke-linejoin="round" d="M90.1 262.6a1.6 1.6 0 1 0 0 3.2 1.6 1.6 0 0 0 0-3.2Z" clip-rule="evenodd"/><path stroke="#67B279" stroke-linecap="round" d="M86.5 294.7c2.2-3.1 8.1-2.1 8.4 3v.9M93.7 300.7c-2.1 3-8 2-8.4-3v-.6"/><path stroke="#67B279" stroke-linecap="round" stroke-linejoin="round" d="m96.1 297.7-1.2 1.2-1.2-1.2M84.1 297.7l1.2-1.2 1.2 1.2"/><path fill="#3D3D3D" d="M495.7 80.1a.3.3 0 0 1-.2-.5.3.3 0 0 1 .2 0h5.6a.3.3 0 0 1 0 .2v.2a.3.3 0 0 1-.2.1h-5.4ZM523.9 83.1h-.4a1 1 0 0 1-.3-.2l-.2-.3v-4.9a1 1 0 0 1 .5-.5h4.9l.3.2a.9.9 0 0 1 .3.6v4.2l-.1.4a1 1 0 0 1-.5.5H524Zm4.2-.6a.3.3 0 0 0 .3-.3V78a.3.3 0 0 0-.2-.2H523.7a.3.3 0 0 0-.1.2v4.4a.3.3 0 0 0 .2.1h4.3ZM553.5 80.6l-2.4 2.4-.3.1h-.2v-.5l2.5-2.5-2.5-2.4v-.3a.3.3 0 0 1 0-.2.3.3 0 0 1 .3 0h.2l2.4 2.5 2.5-2.5h.4a.3.3 0 0 1 .1.2v.3L554 80l2.5 2.5V83a.3.3 0 0 1-.1.2h-.4l-2.5-2.5Z"/><path stroke="#7F7F7F" stroke-linecap="round" d="M253.2 197.4c0-.4.3-.6.6-.6H267c.3 0 .6.2.6.6v6.8c0 .3-.3.6-.6.6h-13.2a.6.6 0 0 1-.6-.6v-6.8Z" clip-rule="evenodd"/><path stroke="#7F7F7F" stroke-linecap="round" d="m254 208 12.8-14.4"/><path stroke="#67B279" stroke-linecap="round" stroke-linejoin="round" d="M303 198.5a15 15 0 0 1 2.1 2c-2 2.7-4.2 4-6.3 4h-1.1m-2-.9c-.8-.5-2-1.5-3.3-3 2-2.6 4.2-3.8 6.4-3.8.8 0 1.7.2 2.5.6m-9 10.5 12.8-14.3m-7.5 8.3a1.6 1.6 0 0 1 1.2-2.7c.3 0 .7.1 1 .3l-2.2 2.4Z"/><path stroke="#67B279" stroke-linecap="round" stroke-linejoin="round" d="M344.3 195.8c0-.7-.5-1.2-1.2-1.2h-12c-.6 0-1.2.5-1.2 1.2v8c0 .6.6 1.1 1.2 1.1h7.6l3.4 3.5v-3.5h1c.7 0 1.2-.5 1.2-1.2v-8Z" clip-rule="evenodd"/><path stroke="#67B279" stroke-linecap="round" stroke-linejoin="round" d="M337.1 197.2v2.8M337.1 202v-.1"/><path stroke="#67B279" stroke-linecap="round" d="M378.7 196.4h1.2M378.7 202.8h1.2M374.7 196.4h1.2M374.7 202.8h1.2"/><path stroke="#67B279" stroke-linecap="round" stroke-linejoin="round" d="M380.7 194.4c.6 0 1.2.5 1.2 1.2v1.6c0 .6-.6 1.2-1.2 1.2h-10.4c-.7 0-1.2-.6-1.2-1.2v-1.6c0-.7.5-1.2 1.2-1.2h10.4ZM380.7 200.8c.6 0 1.2.3 1.2 1.4v3.6c0 1-.6 1.3-1.2 1.3h-10.4c-.7 0-1.2-.3-1.2-1.3v-3.6c0-1 .5-1.4 1.2-1.4h10.4Z" clip-rule="evenodd"/><path stroke="#7F7F7F" stroke-linecap="round" stroke-linejoin="round" d="M413.9 208.7a8 8 0 1 0 0-16 8 8 0 0 0 0 16Z"/><path stroke="#7F7F7F" stroke-linecap="round" stroke-linejoin="round" d="M413.8 197.6c1.7 0 3.4.3 5 1.3a3 3 0 0 1 1.5 2.5c0 1.8-1.3 2.7-2.9 2.5-.7 0-1.3-.2-2-.4a7 7 0 0 0-3.5 0c-.5.2-1 .4-1.6.4-1.1.1-2.2-.2-2.6-1.3a3 3 0 0 1 1.2-3.7c1.4-1 3.1-1.2 4.9-1.3Z" clip-rule="evenodd"/><path stroke="#7F7F7F" stroke-linecap="round" stroke-linejoin="round" d="M417 201.6v-.8M410.7 201.6v-.8"/><path fill="#3D3D3D" d="M246.3 239.5v4.3h-3v-13.4h4.6c1.7 0 3 .4 3.9 1.1.8.8 1.3 1.8 1.3 3.3 0 1.4-.5 2.6-1.5 3.4-1 .9-2.3 1.3-4 1.3h-1.3Zm0-6.7v4.4h1.2c.8 0 1.4-.2 1.8-.6.4-.4.6-1 .6-1.7s-.2-1.2-.6-1.6c-.4-.4-1-.5-1.7-.5h-1.3Zm14.4 4a4 4 0 0 0-1.1-.2c-.6 0-1.1.3-1.5.7a3 3 0 0 0-.5 2v4.5h-3v-9.5h3v1.7c.2-.6.6-1.1 1-1.4.4-.3 1-.5 1.5-.5a4 4 0 0 1 1.2.2l-.6 2.5Zm6.3 7.3c-1.6 0-2.8-.5-3.8-1.4-1-.9-1.4-2-1.4-3.6 0-1.5.5-2.8 1.4-3.7 1-1 2.3-1.4 4-1.4a5 5 0 0 1 3.7 1.4c.9 1 1.3 2.1 1.3 3.5a5 5 0 0 1-1.4 3.8c-1 .9-2.3 1.4-3.8 1.4Zm0-2.3c.8 0 1.3-.3 1.7-.8.3-.5.5-1.2.5-2s-.2-1.5-.5-2c-.4-.4-1-.7-1.6-.7a2 2 0 0 0-1.7.8c-.4.5-.6 1.1-.6 2 0 .8.2 1.4.6 2 .4.4 1 .7 1.7.7Zm13.4 1.4c-.3.3-.7.5-1.1.6-.4.2-.9.3-1.4.3-1 0-1.9-.3-2.4-.8s-.8-1.2-.8-2.2v-4.7h-1.5v-2.1h1.5v-2.5l3-.5v3h2.2v2.1h-2.2v4.6l.1.7.6.2h.4c.2 0 .3-.2.5-.3l1 1.6Zm10-3.3H284c0 .6.2 1.1.6 1.5.4.3 1 .5 1.6.5.3 0 .7 0 1-.3.4-.1.7-.4 1-.8l2 1.3c-.6.7-1.2 1.2-1.9 1.5-.7.3-1.4.5-2.2.5a5 5 0 0 1-3.7-1.3c-1-.9-1.4-2-1.4-3.6s.5-2.8 1.4-3.8c1-.9 2-1.4 3.4-1.4s2.5.4 3.3 1.3c.7.8 1.1 2 1.1 3.7v.9Zm-2.8-1.9c0-.6-.2-1.1-.4-1.5-.3-.3-.7-.4-1.2-.4s-1 .1-1.3.5c-.4.4-.6.9-.6 1.4h3.5Zm13 3.9a4.5 4.5 0 0 1-4.1 2.2c-1.6 0-2.8-.5-3.6-1.3-1-1-1.3-2-1.3-3.5 0-1.6.4-3 1.4-3.9 1-.9 2.2-1.4 3.7-1.4 1 0 1.7.2 2.4.6.7.4 1.1 1 1.4 1.7l-2.2 1-.7-.7c-.2-.2-.6-.3-1-.3-.5 0-1 .3-1.4.7-.4.5-.6 1.2-.6 2 0 1 .2 1.6.5 2a2 2 0 0 0 2.5.4c.3-.1.6-.4.9-.7l2.1 1.2Zm8 1.3c-.2.3-.6.5-1 .6-.4.2-.9.3-1.4.3-1 0-1.9-.3-2.4-.8s-.8-1.2-.8-2.2v-4.7h-1.5v-2.1h1.5v-2.5l3-.5v3h2.2v2.1H306v4.6c0 .3 0 .5.2.7l.5.2h.4c.2 0 .3-.2.5-.3l1 1.6Zm3-10.2c-.5 0-1-.2-1.2-.5-.4-.3-.5-.7-.5-1.1 0-.5.1-1 .5-1.2.3-.3.7-.5 1.2-.5s1 .2 1.3.5c.3.3.5.7.5 1.2 0 .4-.2.8-.5 1.1-.3.4-.8.5-1.3.5Zm1.5 10.8h-3v-9.5h3v9.5Zm7 .3c-1.6 0-2.8-.5-3.8-1.4-1-.9-1.4-2-1.4-3.6 0-1.5.5-2.8 1.4-3.7 1-1 2.3-1.4 3.9-1.4a5 5 0 0 1 3.8 1.4c.9 1 1.3 2.1 1.3 3.5a5 5 0 0 1-1.4 3.8c-1 .9-2.3 1.4-3.8 1.4Zm0-2.3c.8 0 1.3-.3 1.7-.8.3-.5.5-1.2.5-2s-.2-1.5-.5-2c-.4-.4-1-.7-1.7-.7a2 2 0 0 0-1.6.8c-.4.5-.6 1.1-.6 2 0 .8.2 1.4.6 2 .3.4 1 .7 1.7.7Zm16.3 2h-3v-5.4c0-.7-.1-1.2-.4-1.5-.2-.4-.6-.6-1.2-.6-.5 0-.9.2-1.2.6-.4.4-.5.9-.5 1.5v5.4h-3v-9.5h3v1.2c.3-.4.8-.8 1.3-1 .5-.3 1.1-.5 1.7-.5 1 0 1.9.4 2.4 1 .6.7.9 1.7.9 2.9v6Zm8.2-10.8c-.5 0-.9-.2-1.2-.5-.3-.3-.5-.7-.5-1.1 0-.5.2-1 .5-1.2.3-.3.7-.5 1.2-.5.6 0 1 .2 1.3.5.3.3.5.7.5 1.2 0 .4-.2.8-.5 1.1-.3.4-.7.5-1.3.5Zm1.5 10.8h-3v-9.5h3v9.5Zm1.7-1.1 1.4-1.8c.4.4.9.7 1.3.8.4.2.8.3 1.3.3.4 0 .7 0 1-.2.2-.2.3-.4.3-.7 0-.2-.1-.4-.3-.5-.2-.2-.6-.3-1-.3a5.2 5.2 0 0 1-2.8-1c-.5-.6-.8-1.2-.8-2a3 3 0 0 1 1-2.4 4 4 0 0 1 2.8-.9l1.8.3 1.6.8-1.4 1.8-1-.6-1-.2c-.5 0-.8 0-1 .2l-.2.6c0 .2 0 .4.3.5.2.2.6.3 1.2.4 1.1.1 2 .4 2.5 1 .6.4.9 1.1.9 2 0 1-.4 1.8-1.1 2.4-.8.6-1.7.9-2.9.9-.7 0-1.5-.1-2.1-.4-.7-.2-1.3-.6-1.8-1Zm22.8-2.8h-6.2c0 .6.2 1.1.6 1.5.4.3 1 .5 1.6.5.3 0 .7 0 1-.3.4-.1.7-.4 1-.8l2 1.3c-.6.7-1.2 1.2-1.9 1.5-.7.3-1.4.5-2.3.5a5 5 0 0 1-3.6-1.3c-1-.9-1.4-2-1.4-3.6s.5-2.8 1.4-3.8c1-.9 2-1.4 3.4-1.4s2.5.4 3.3 1.3c.7.8 1.1 2 1.1 3.7v.9ZM368 238c0-.6-.2-1.1-.4-1.5-.3-.3-.7-.4-1.2-.4s-1 .1-1.3.5c-.4.4-.6.9-.6 1.4h3.5Zm13.8 5.8h-3v-5.4c0-.7 0-1.2-.4-1.5-.2-.4-.6-.6-1.1-.6-.6 0-1 .2-1.3.6-.3.4-.5.9-.5 1.5v5.4h-3v-9.5h3v1.2c.3-.4.8-.8 1.3-1 .6-.3 1.1-.5 1.7-.5 1 0 2 .4 2.5 1 .5.7.8 1.7.8 2.9v6Zm10.2 0H389v-1a3.5 3.5 0 0 1-3 1.3c-.8 0-1.5-.3-2-.8-.6-.5-1-1.2-1-2 0-1 .3-1.6 1-2.2.5-.6 1.3-1 2.5-1l2.5-.3v-.3c0-.5-.2-.8-.5-1-.3-.3-.6-.4-1.1-.4-.4 0-.8 0-1.2.3l-1 .8-1.8-1.2c.4-.5 1-1 1.7-1.4.7-.4 1.6-.6 2.6-.6 1.3 0 2.3.4 3 1 .7.7 1 1.8 1 3.1v5.7ZM389 240v-.5l-2 .2c-.4 0-.7.2-.9.4a1 1 0 0 0-.3.8c0 .3.1.6.3.8.3.2.5.3.9.3.6 0 1-.2 1.4-.6.4-.4.6-.9.6-1.4Zm8 3v.8h-3v-14.1h3v5.8c.3-.5.8-.9 1.3-1.1.5-.2 1.1-.4 1.8-.4 1.3 0 2.2.5 3 1.3.6.9 1 2 1 3.5 0 1.6-.5 2.9-1.2 3.8-.8 1-1.9 1.5-3.2 1.5a4 4 0 0 1-1.6-.3c-.5-.2-.8-.5-1.2-.9Zm-.1-4.3v1c0 .6.1 1 .5 1.5.4.4.9.6 1.5.6s1.2-.3 1.5-.8c.4-.5.6-1.2.6-2.2a3 3 0 0 0-.5-1.8c-.3-.5-.8-.7-1.5-.7a2 2 0 0 0-1.5.7c-.4.4-.6 1-.6 1.7Zm9 5.1v-14.1h2.9v14.1h-3Zm13.8-4h-6.2c0 .7.2 1.2.6 1.6.4.3 1 .5 1.6.5.3 0 .7 0 1-.3.4-.1.7-.4 1-.8l2 1.3c-.6.7-1.2 1.2-1.9 1.5-.6.3-1.4.5-2.2.5a5 5 0 0 1-3.7-1.3c-.9-.9-1.3-2-1.3-3.6s.4-2.8 1.3-3.8c1-.9 2.1-1.4 3.5-1.4 1.3 0 2.4.4 3.2 1.3.8.8 1.1 2 1.1 3.7v.9Zm-2.7-1.8c0-.6-.1-1.1-.4-1.5-.3-.3-.7-.4-1.2-.4s-1 .1-1.3.5c-.3.4-.6.9-.6 1.4h3.5Zm11 4.6c-.3.5-.7.9-1.2 1.1a4 4 0 0 1-1.8.4c-1.2 0-2.2-.4-3-1.3-.7-.8-1-2-1-3.5 0-1.6.4-2.9 1.2-3.8.8-1 2-1.5 3.3-1.5.6 0 1.1.2 1.6.4.4.2.8.5 1 .8v-5.5h3v14.1h-3v-1.2Zm-4-3.4c0 .8.2 1.5.5 2 .4.4.9.6 1.5.6.7 0 1.2-.3 1.6-.7a3 3 0 0 0 .5-2v-.6c0-.6-.1-1.2-.5-1.6-.4-.4-.9-.6-1.5-.6-.7 0-1.2.3-1.6.8-.3.5-.5 1.2-.5 2Z"/><path fill="#7F7F7F" d="m274.8 260.7.3-.5.7.3.9.2c.3 0 .6-.1.8-.3.3-.2.4-.4.4-.7 0-.3-.1-.5-.3-.7a3 3 0 0 0-1-.5c-.5-.2-1-.4-1.2-.7-.3-.2-.4-.5-.4-1 0-.4.2-.8.5-1.1a2 2 0 0 1 1.4-.5 3 3 0 0 1 1.6.5l-.3.5a2.4 2.4 0 0 0-1.4-.4c-.3 0-.6.1-.8.3-.2.2-.3.4-.3.7 0 .2 0 .4.3.6l1 .5c.5.2 1 .4 1.2.7.2.2.4.6.4 1 0 .5-.2.9-.5 1.2a2 2 0 0 1-1.5.5c-.3 0-.7 0-1-.2a3 3 0 0 1-.8-.4Zm8.2.5h-.6v-.7l-.6.6-.8.2c-.5 0-.8-.2-1-.5-.3-.3-.4-.7-.4-1.3V257h.6v2.4c0 .5.1.8.3 1 .1.2.4.3.7.3.4 0 .6-.1.8-.3.3-.3.4-.6.4-1V257h.6v4.2Zm3.5-3.6a.8.8 0 0 0-.4 0 1 1 0 0 0-.8.4 2 2 0 0 0-.3 1v2.2h-.6V257h.6v.8l.5-.6c.2-.2.4-.3.7-.3a1.3 1.3 0 0 1 .4 0l-.1.7Zm2.8-2a1.2 1.2 0 0 0-.4-.1c-.2 0-.4 0-.5.2l-.2.5v.8h1v.6h-1v3.6h-.6v-3.6h-.8v-.6h.8v-.8c0-.4 0-.7.3-1 .3-.2.6-.3 1-.3h.3l.3.1-.2.5Zm2.5 5.2.4-.5c.1.2.3.3.5.3l.6.1.6-.1c.2-.1.2-.3.2-.5s0-.3-.2-.5l-.6-.2c-.5-.2-.9-.3-1-.5a1 1 0 0 1-.4-.8c0-.3.2-.6.4-.9.3-.2.7-.3 1.1-.3l.7.1.6.3-.4.5-.4-.2-.5-.1a1 1 0 0 0-.6.1c-.2.1-.2.3-.2.5 0 .1 0 .3.2.4l.7.2 1 .5c.2.2.3.5.3.8 0 .4-.2.7-.4 1-.3.2-.7.3-1.2.3a2.3 2.3 0 0 1-1.4-.5Zm7 .4h-.7v-.7l-.6.6-.7.2c-.4 0-.7-.1-1-.4-.2-.2-.3-.5-.3-.9 0-.3.1-.6.3-.8.3-.3.6-.4 1-.5l1.3-.1v-.2c0-.3-.1-.6-.3-.7a1 1 0 0 0-.6-.2l-.6.1c-.2 0-.4.2-.6.4l-.4-.4a2.2 2.2 0 0 1 1.6-.7c.5 0 1 .1 1.2.4.2.3.4.6.4 1.2v2.7Zm-.7-1.7v-.4l-1 .1c-.4 0-.6.1-.7.3-.2 0-.3.2-.3.5 0 .2.1.4.3.5.1.2.3.2.5.2.4 0 .6 0 .9-.3.2-.2.3-.5.3-1Zm4-4a1.2 1.2 0 0 0-.5 0c-.2 0-.4 0-.5.2l-.1.5v.8h1v.6h-1v3.6h-.7v-3.6h-.7v-.6h.7v-.8c0-.4.1-.7.4-1 .2-.2.5-.3 1-.3h.3l.2.1-.2.5Zm4 3.7h-3c0 .5.1.9.3 1.1.3.3.6.4 1 .4h.6l.6-.4.3.5-.7.4h-.8a2 2 0 0 1-1.5-.5c-.3-.3-.5-.9-.5-1.6 0-.6.2-1.2.5-1.6.4-.4.8-.6 1.4-.6.6 0 1 .2 1.3.5.3.4.5.9.5 1.5v.3Zm-.7-.5c0-.4-.1-.7-.3-.9a1 1 0 0 0-.8-.3c-.3 0-.6 0-.8.3-.2.2-.4.5-.4.9h2.3Zm1.7 2.5V255h.6v6.2h-.6Zm5.3-4.2-2 5a2 2 0 0 1-.5.9c-.3.2-.5.3-.8.3a1.4 1.4 0 0 1-.5-.1l.1-.6a.8.8 0 0 0 .3 0h.5l.3-.4.3-1-1.6-4.1h.7l1.2 3.2a4.4 4.4 0 0 1 0 .3 2.6 2.6 0 0 1 .2-.3l1.1-3.2h.7Zm10.7 2.1h-8.4v-.5h8.4v.5Zm8.3-2.1-1.3 4.2h-.7l-.9-3a1.7 1.7 0 0 1 0-.4v.2l-.1.2-1 3h-.6l-1.3-4.2h.7l.9 3.1v.4a1.6 1.6 0 0 1 .1-.4l1-3.1h.6l.9 3.2V260.5a1.7 1.7 0 0 1 .2-.3l.8-3.2h.7Zm4.1 2.2h-3c0 .5.2.9.4 1.1.3.3.6.4 1 .4h.6l.5-.4.4.5-.7.4h-.8a2 2 0 0 1-1.5-.5c-.4-.3-.5-.9-.5-1.6 0-.6.1-1.2.5-1.6.3-.4.8-.6 1.4-.6.5 0 1 .2 1.3.5.3.4.4.9.4 1.5v.3Zm-.7-.5c0-.4 0-.7-.3-.9a1 1 0 0 0-.7-.3c-.4 0-.6 0-.8.3-.3.2-.4.5-.4.9h2.2Zm2.6-3.5-.6 1.9h-.5l.4-1.9h.7Zm4.3 1.8-1.6 4.2h-.7l-1.6-4.2h.8l1 3a2.7 2.7 0 0 1 .2.6 4.7 4.7 0 0 1 .1-.5l1.1-3.1h.7Zm4.1 2.2h-3c0 .5.2.9.4 1.1.3.3.6.4 1 .4h.6l.6-.4.3.5-.7.4h-.8a2 2 0 0 1-1.5-.5c-.4-.3-.5-.9-.5-1.6 0-.6.1-1.2.5-1.6.4-.4.8-.6 1.4-.6.6 0 1 .2 1.3.5.3.4.4.9.4 1.5v.3Zm-.7-.5c0-.4 0-.7-.2-.9a1 1 0 0 0-.8-.3c-.3 0-.6 0-.8.3-.2.2-.4.5-.4.9h2.3Zm7.6 2.3c0 .7-.2 1.3-.6 1.6a2 2 0 0 1-1.5.6 3.3 3.3 0 0 1-1.6-.5l.3-.5a2.7 2.7 0 0 0 1.3.4c.4 0 .8-.1 1-.4.3-.2.4-.6.4-1.1v-.6l-.6.6-.8.2c-.6 0-1-.2-1.3-.6-.3-.3-.5-.8-.5-1.5s.2-1.2.5-1.6c.4-.5.9-.7 1.4-.7.3 0 .6 0 .8.2.2 0 .4.3.5.5v-.6h.7v4Zm-.7-1.7v-.6c0-.4-.1-.6-.3-.9-.3-.2-.5-.3-.9-.3s-.7.1-1 .4c-.2.3-.3.7-.3 1.3 0 .5.1.9.3 1.1.2.3.5.4 1 .4.3 0 .6-.1.9-.4.2-.2.3-.6.3-1Zm3.8 2a2 2 0 0 1-1.5-.6c-.4-.4-.5-1-.5-1.6 0-.7.1-1.2.5-1.6a2 2 0 0 1 1.6-.6c.6 0 1.1.2 1.5.6.3.4.5.9.5 1.6 0 .6-.2 1.2-.6 1.6a2 2 0 0 1-1.5.6Zm0-.6c.5 0 .8-.1 1-.4.3-.3.4-.7.4-1.2s-.1-1-.4-1.2c-.2-.3-.5-.4-1-.4-.4 0-.7.1-1 .4-.2.3-.4.7-.4 1.2s.2 1 .4 1.2c.3.3.6.4 1 .4Zm5.2.4a1.6 1.6 0 0 1-.8.2 1 1 0 0 1-.7-.3c-.2-.2-.3-.5-.3-.9v-2.5h-.7v-.6h.7v-1l.6-.2v1.2h1.1v.6h-1v3l.5.1h.4l.2.4Zm6.4-4.1-2 5a2 2 0 0 1-.5.9c-.3.2-.5.3-.8.3h-.3l-.2-.1.1-.6h.8l.3-.4.3-1-1.6-4.1h.7l1.2 3.2V260.5l.1-.1v-.2l1.2-3.2h.7Zm2.5 4.3a2 2 0 0 1-1.5-.6c-.3-.4-.5-1-.5-1.6 0-.7.2-1.2.6-1.6a2 2 0 0 1 1.5-.6c.6 0 1.1.2 1.5.6.3.4.5.9.5 1.6 0 .6-.2 1.2-.6 1.6a2 2 0 0 1-1.5.6Zm0-.6c.5 0 .8-.1 1-.4.3-.3.4-.7.4-1.2s0-1-.3-1.2c-.3-.3-.6-.4-1-.4-.5 0-.8.1-1 .4-.3.3-.4.7-.4 1.2s0 1 .3 1.2c.3.3.6.4 1 .4Zm6.6.5h-.7v-.7c-.2.3-.3.5-.6.6l-.7.2c-.5 0-.9-.2-1.1-.5-.3-.3-.4-.7-.4-1.3V257h.7v2.4c0 .5 0 .8.2 1 .2.2.4.3.8.3.3 0 .6-.1.8-.3.2-.3.3-.6.3-1V257h.7v4.2Zm3.4-3.6a.9.9 0 0 0-.3 0 1 1 0 0 0-.8.4 2 2 0 0 0-.3 1v2.2h-.7V257h.7v.8c.1-.3.2-.5.4-.6.2-.2.5-.3.7-.3a1.3 1.3 0 0 1 .4 0l-.1.7Zm3.8 3v.6h-.7V255h.7v2.7l.6-.6.8-.2c.6 0 1 .2 1.3.6.3.3.5.8.5 1.5s-.2 1.2-.5 1.7c-.4.4-.8.6-1.4.6-.3 0-.6 0-.8-.2-.2 0-.4-.2-.5-.4Zm0-1.7v.6c0 .3 0 .6.3.9.2.2.5.3.9.3s.7-.1 1-.4c.2-.4.3-.8.3-1.3s-.1-.9-.3-1.1a1 1 0 0 0-1-.4c-.3 0-.6.1-.9.4-.2.2-.3.6-.3 1Zm7.2 2.3h-.7v-.7c-.1.3-.3.5-.5.6l-.8.2c-.3 0-.7-.1-1-.4-.2-.2-.3-.5-.3-.9 0-.3.2-.6.4-.8.2-.3.6-.4 1-.5l1.2-.1v-.2c0-.3 0-.6-.2-.7a1 1 0 0 0-.7-.2l-.6.1c-.2 0-.4.2-.5.4l-.5-.4a2.2 2.2 0 0 1 1.7-.7c.5 0 .9.1 1.1.4.3.3.4.6.4 1.2v2.7Zm-.7-1.7v-.4l-1 .1c-.3 0-.5.1-.7.3-.1 0-.2.2-.2.5 0 .2 0 .4.2.5.2.2.3.2.6.2s.6 0 .8-.3c.2-.2.3-.5.3-1Zm5 1.4a2 2 0 0 1-1.3.4 2 2 0 0 1-1.4-.6 2 2 0 0 1-.6-1.5c0-.7.2-1.3.6-1.7a2 2 0 0 1 1.5-.6 2.2 2.2 0 0 1 1.3.4l-.3.5-.5-.3h-.5c-.4 0-.8.1-1 .4-.3.3-.4.7-.4 1.2s.1 1 .4 1.2c.2.3.6.4 1 .4a1.5 1.5 0 0 0 .9-.3l.3.5Zm4.4.3h-1l-1.8-2v2h-.7V255h.7v4l1.8-2h.9l-2 2 2.1 2.2Z"/><path fill="#67B279" fill-rule="evenodd" d="M312.5 295.3c0-5 4-9 9-9h30a9 9 0 0 1 9 8.8v.2c0 5-4 9-9 9h-30a9 9 0 0 1-9-8.8v-.2Z" clip-rule="evenodd"/><g filter="url(#y)"><path fill="#E9E9E9" d="M349.6 310a15 15 0 1 0 0-30 15 15 0 0 0 0 30Z"/></g><path fill="#fff" d="M348 310.3a15 15 0 1 0 0-30 15 15 0 0 0 0 30Z"/><path stroke="#67B279" stroke-linecap="round" stroke-linejoin="round" stroke-width="2" d="m343.5 295.9 3.4 3.5 6.2-7.2"/></g></g><defs><linearGradient id="d" x1="270.7" x2="278.8" y1="387.6" y2="395.7" gradientUnits="userSpaceOnUse"><stop stop-color="#4CD2FF"/><stop offset="1" stop-color="#0078D4"/></linearGradient><linearGradient id="f" x1="285.7" x2="294" y1="387.5" y2="395.9" gradientUnits="userSpaceOnUse"><stop stop-color="#41403F"/><stop offset="1" stop-color="#1F1F1F"/></linearGradient><linearGradient id="g" x1="303.9" x2="303.9" y1="389.9" y2="395.5" gradientUnits="userSpaceOnUse"><stop stop-color="#444341"/><stop offset="1" stop-color="#2D2D2C"/></linearGradient><linearGradient id="h" x1="303.9" x2="303.9" y1="395.5" y2="389.9" gradientUnits="userSpaceOnUse"><stop/><stop offset="1" stop-opacity="0"/></linearGradient><linearGradient id="i" x1="305.9" x2="305.9" y1="387.9" y2="393.4" gradientUnits="userSpaceOnUse"><stop stop-color="#F7F7F7"/><stop offset="1" stop-color="#E6E6E6"/></linearGradient><linearGradient id="j" x1="303.9" x2="303.9" y1="389.9" y2="395.5" gradientUnits="userSpaceOnUse"><stop stop-color="#444341"/><stop offset="1" stop-color="#2D2D2D"/></linearGradient><linearGradient id="m" x1="335.4" x2="335.4" y1="388.9" y2="396.3" gradientUnits="userSpaceOnUse"><stop stop-color="#FFCF4D"/><stop offset="1" stop-color="#F4B509"/></linearGradient><linearGradient id="n" x1="335.4" x2="335.4" y1="388.9" y2="396.3" gradientUnits="userSpaceOnUse"><stop stop-color="#FFD04E"/><stop offset="1" stop-color="#F4B509"/></linearGradient><linearGradient id="p" x1="347.9" x2="353.4" y1="394.1" y2="394.1" gradientUnits="userSpaceOnUse"><stop stop-color="#0C59A4"/><stop offset="1" stop-color="#114A8B"/></linearGradient><linearGradient id="r" x1="350.8" x2="347.4" y1="391.8" y2="395.5" gradientUnits="userSpaceOnUse"><stop stop-color="#1B9DE2"/><stop offset=".2" stop-color="#1595DF"/><stop offset=".7" stop-color="#0680D7"/><stop offset="1" stop-color="#0078D4"/></linearGradient><linearGradient id="v" x1="365.3" x2="365.3" y1="384.7" y2="398.6" gradientUnits="userSpaceOnUse"><stop offset=".9" stop-opacity=".1"/><stop offset="1" stop-opacity=".2"/></linearGradient><linearGradient id="w" x1="81.1" x2="86.4" y1="389.4" y2="394.2" gradientUnits="userSpaceOnUse"><stop offset=".2" stop-color="#FFE975"/><stop offset=".5" stop-color="#FFB729"/><stop offset=".7" stop-color="#F90"/></linearGradient><radialGradient id="e" cx="0" cy="0" r="1" gradientTransform="matrix(0 2.47995 -2.45415 0 289.2 391)" gradientUnits="userSpaceOnUse"><stop stop-color="#fff"/><stop offset="1" stop-color="#fff" stop-opacity=".8"/></radialGradient><radialGradient id="k" cx="0" cy="0" r="1" gradientTransform="matrix(-4.45972 5.03059 -4.97431 -4.51023 321.9 389.2)" gradientUnits="userSpaceOnUse"><stop stop-color="#8194E8"/><stop offset="1" stop-color="#5654B7"/></radialGradient><radialGradient id="l" cx="0" cy="0" r="1" gradientTransform="matrix(4.9743 5.7245 -5.66042 5.03061 318 388.6)" gradientUnits="userSpaceOnUse"><stop offset=".2" stop-color="#886BB4"/><stop offset="1" stop-color="#5D5FC6"/></radialGradient><radialGradient id="q" cx="0" cy="0" r="1" gradientTransform="matrix(2.90217 0 0 2.72944 351 394.1)" gradientUnits="userSpaceOnUse"><stop offset=".7" stop-opacity="0"/><stop offset=".9" stop-opacity=".5"/><stop offset="1"/></radialGradient><radialGradient id="s" cx="0" cy="0" r="1" gradientTransform="matrix(.65377 -4.27158 -3.48677 -.51777 348.3 394.8)" gradientUnits="userSpaceOnUse"><stop offset=".8" stop-opacity="0"/><stop offset=".9" stop-opacity=".5"/><stop offset="1"/></radialGradient><radialGradient id="t" cx="0" cy="0" r="1" gradientTransform="matrix(-.24638 6.09767 13.1197 .48781 347 390.2)" gradientUnits="userSpaceOnUse"><stop stop-color="#35C1F1"/><stop offset=".1" stop-color="#34C1ED"/><stop offset=".2" stop-color="#2FC2DF"/><stop offset=".3" stop-color="#2BC3D2"/><stop offset=".7" stop-color="#36C752"/></radialGradient><radialGradient id="u" cx="0" cy="0" r="1" gradientTransform="matrix(.82931 2.81483 2.31023 -.67439 353.5 391)" gradientUnits="userSpaceOnUse"><stop stop-color="#66EB6E"/><stop offset="1" stop-color="#66EB6E" stop-opacity="0"/></radialGradient><clipPath id="a"><path fill="#fff" d="M0 0h640v480H0z"/></clipPath><clipPath id="c"><path fill="#fff" d="M73 383h494v17H73z"/></clipPath><clipPath id="x"><path fill="#fff" d="M73 83a13 13 0 0 1 13-13h468a13 13 0 0 1 13 13v300H73V83Z"/></clipPath><filter id="b" width="645.1" height="6.4" x="-2.5" y="415.5" color-interpolation-filters="sRGB" filterUnits="userSpaceOnUse"><feFlood flood-opacity="0" result="BackgroundImageFix"/><feBlend in="SourceGraphic" in2="BackgroundImageFix" result="shape"/><feGaussianBlur result="effect1_foregroundBlur_538_164205" stdDeviation="1.5"/></filter><filter id="y" width="38.1" height="38" x="330.5" y="276" color-interpolation-filters="sRGB" filterUnits="userSpaceOnUse"><feFlood flood-opacity="0" result="BackgroundImageFix"/><feBlend in="SourceGraphic" in2="BackgroundImageFix" result="shape"/><feGaussianBlur result="effect1_foregroundBlur_538_164205" stdDeviation="2"/></filter></defs></svg>