<svg xmlns="http://www.w3.org/2000/svg" width="640" height="480" fill="none"><g clip-path="url(#a)"><path fill="#6C769C" d="M65 83a22 22 0 0 1 22-22h467a22 22 0 0 1 22 22v324H65V83Z"/><path fill="#1D2025" d="M67 84a21 21 0 0 1 21-21h465a21 21 0 0 1 21 21v323H67V84Z"/><g filter="url(#b)"><rect width="639.1" height=".4" x=".5" y="418.5" fill="#000" fill-opacity=".6" rx=".2"/></g><path fill="#343744" d="M0 406.7h640v11.4H0z"/><rect width="640" height="1" y="418" fill="#6C769C" rx=".5"/><rect width="640" height="1" y="406" fill="#6C769C" rx=".5"/><g clip-path="url(#c)"><g clip-path="url(#d)"><path fill="#898C91" d="M566 383H73v17h493v-17Z"/><path fill="#000" fill-opacity=".9" d="M503 392.2c-.1 0-.1-.2 0-.2l1.8-2h.3l1.9 2v.2h-.3l-1.7-1.8-1.8 1.8h-.3ZM516 389.6a2.8 2.8 0 0 0-1.2.3 3 3 0 0 0-1.1.8l-.2.3H513.1v-.2a2.9 2.9 0 0 1 1.2-1.1 3.3 3.3 0 0 1 2.3-.3 3.4 3.4 0 0 1 1.4.7l.5.7v.2h-.2l-.1-.1v-.1l-.2-.1-.1-.2a3 3 0 0 0-2-.9Zm0 1a1.7 1.7 0 0 0-.9.3 2 2 0 0 0-.6.4l-.1.2a1.4 1.4 0 0 1-.2.2h-.2v-.2c0-.2.2-.4.3-.5a2.2 2.2 0 0 1 1-.6 2 2 0 0 1 1.2 0 2.3 2.3 0 0 1 1 .6c.1.1.3.3.3.5v.2H517.5v-.2l-.2-.2a1.7 1.7 0 0 0-.6-.4 1.8 1.8 0 0 0-.8-.2Zm0 1.1a1 1 0 0 0-.4 0 1.2 1.2 0 0 0-.4.3l-.1.2-.1.1v.1h-.2l-.1-.1v-.1l.2-.3.3-.3a1.4 1.4 0 0 1 .7-.2 1.3 1.3 0 0 1 .7.2 1.4 1.4 0 0 1 .6.6v.2H516.8l-.1-.2-.1-.1-.1-.1-.1-.1a1 1 0 0 0-.6-.2Zm-.5 1a.5.5 0 0 1 .2-.3.4.4 0 0 1 .4 0h.1l.1.2v.4a.4.4 0 0 1-.4.2h-.2a.4.4 0 0 1-.2-.2v-.2ZM525.5 393.6v-.1l.1-.1.1-.1a2.3 2.3 0 0 0 .6-.9 2.6 2.6 0 0 0 .2-1v-.5a2.6 2.6 0 0 0-.9-1.5v-.1l-.1-.1v-.1h.2c.2 0 .2 0 .3.2a3 3 0 0 1 .6.8 3 3 0 0 1 .2 2 2.9 2.9 0 0 1-.6 1.1 3.4 3.4 0 0 1-.4.5h-.2l-.1-.1Zm-3-1.2h-.6a.5.5 0 0 1-.4-.1.6.6 0 0 1-.1-.4v-1a.5.5 0 0 1 .1-.4l.2-.1h.8l.9-1H523.7v3.9H523.3l-.9-.9Zm2.3.5a5.5 5.5 0 0 0 .5-.7 1.7 1.7 0 0 0 .2-.8v-.4l-.2-.4c0-.1 0-.2-.2-.3l-.2-.3V389.7h.2a1.4 1.4 0 0 1 .3.3 2.6 2.6 0 0 1 .3.5 2.3 2.3 0 0 1 0 1.8l-.1.2a4 4 0 0 1-.3.4l-.2.2h-.2v-.2Zm-1.4 0v-3l-.7.7H522l-.1.1v1.3H522.6l.1.1.7.8Zm.8-.6v-.1a5.5 5.5 0 0 0 .2-.4 1.1 1.1 0 0 0 0-.6 1 1 0 0 0 0-.4 4 4 0 0 0-.2-.2v-.2h.2l.2.2.1.3a1.6 1.6 0 0 1 0 .7 1.7 1.7 0 0 1 0 .6l-.2.2h-.2a.2.2 0 0 1-.1-.1ZM535 391.6v.2l-.3.1h-.3v.7l-.2.3-.3.2H530a1 1 0 0 1-.2-.2 1 1 0 0 1-.3-.6v-2.1a.9.9 0 0 1 .5-.5h3.8l.3.2a.9.9 0 0 1 .2.6v.4H535V391.7Zm-1-1a.5.5 0 0 0 0-.5.5.5 0 0 0-.4-.1h-3.1a.5.5 0 0 0-.4.1l-.1.2v2.2l.1.1.2.1h3.2a.5.5 0 0 0 .4 0 .5.5 0 0 0 .2-.4v-1.8Zm-.9-.3.2.1v2H530.4l-.1-.2v-1.8h2.8ZM545.9 390.3h-.4v-2.5l-.2.2a2 2 0 0 1-.4.1v-.3a2.3 2.3 0 0 0 .8-.5h.2v3Zm1.6 0h-.3v-2.5l-.3.2-.3.1-.1-.3a2.3 2.3 0 0 0 .9-.5h.1v3Zm1-1.7h-.2v-.4h.4v.4h-.2Zm0 1.8h-.2v-.4l.2-.1h.2v.4h-.2Zm1.6 0a.8.8 0 0 1-.7-.4 2 2 0 0 1-.2-1c0-.6 0-1 .2-1.3.2-.2.4-.4.7-.4.4 0 .6.2.7.4.2.3.3.6.3 1.2 0 .4-.1.8-.3 1-.2.4-.4.5-.7.5Zm0-2.8c-.2 0-.3.2-.4.4l-.2.9c0 .4 0 .7.2.9 0 .2.2.3.4.3s.4-.1.5-.3l.1-1-.1-.8c-.1-.2-.3-.4-.5-.4Zm2.3 2.8a.8.8 0 0 1-.7-.4 2 2 0 0 1-.3-1c0-.6.1-1 .3-1.3.2-.2.4-.4.7-.4.3 0 .6.2.7.4.2.3.2.6.2 1.2 0 .4 0 .8-.2 1-.2.4-.4.5-.7.5Zm0-2.8c-.2 0-.3.2-.4.4l-.2.9c0 .4 0 .7.2.9 0 .2.2.3.4.3s.3-.1.4-.3l.2-1c0-.3 0-.6-.2-.8 0-.2-.2-.4-.4-.4Zm2.3 2.7 1.1-3h.4l1.1 3h-.4l-.3-.7h-1.2l-.3.7h-.4Zm.8-1h1l-.4-1.3v-.2h-.1v.2l-.5 1.2Zm5.2 1h-.3v-2.5.2l-.1.1-1 2.2h-.2l-1-2.2V387.8v2.6h-.3v-3h.5l.8 2v.2l.1.2.1-.2v-.2l1-2h.4v3ZM542 396h-.3v-2.5l-.3.2a2 2 0 0 1-.3.1l-.1-.3a2.4 2.4 0 0 0 .9-.5h.1v3Zm1.7 0a.8.8 0 0 1-.7-.3 2 2 0 0 1-.3-1c0-.6.1-1 .3-1.3.2-.2.4-.4.7-.4.3 0 .6.2.7.4.2.3.2.6.2 1.1 0 .5 0 1-.2 1.2-.2.3-.4.4-.7.4Zm0-2.7c-.2 0-.3.2-.4.4l-.2.9c0 .4 0 .7.2.9 0 .2.2.3.4.3s.3-.1.4-.3l.2-1c0-.3 0-.6-.2-.8 0-.3-.2-.4-.4-.4Zm2.8-.2-1.4 3.4h-.3l1.4-3.4h.3Zm1 3a.8.8 0 0 1-.6-.4 2 2 0 0 1-.2-1c0-.6 0-1 .2-1.3.2-.2.4-.4.7-.4.4 0 .6.2.7.4.2.3.3.6.3 1.1 0 .5-.1 1-.3 1.2-.2.3-.4.4-.7.4Zm.1-2.8c-.2 0-.3.2-.4.4l-.2.9c0 .4 0 .7.2.9 0 .2.2.3.4.3s.4-.1.4-.3l.2-1-.1-.8c-.1-.3-.3-.4-.5-.4Zm1.4 2.5.2-.3.3.2h.3l.5-.1.1-.4c0-.2 0-.4-.2-.5l-.5-.1a5.6 5.6 0 0 0-.5 0l.1-1.5h1.4v.3h-1l-.1.9a2.8 2.8 0 0 1 .2 0c.3 0 .6 0 .7.2.2.1.3.4.3.6 0 .3 0 .5-.3.7a1 1 0 0 1-.7.3h-.4l-.4-.3Zm3.7-2.7-1.4 3.4h-.3l1.4-3.4h.3Zm.3 3V395.3l.1-.2.3-.3a6.8 6.8 0 0 1 .6-.5l.2-.2v-.8l-.4-.2-.4.1a1 1 0 0 0-.3.3l-.2-.3.4-.3h.5c.3 0 .5 0 .6.2.2.1.2.3.2.5a1.1 1.1 0 0 1-.3.9l-.3.2a9 9 0 0 0-.5.4l-.1.2v.2h1.3v.3H553Zm3 0a.8.8 0 0 1-.6-.4 2 2 0 0 1-.3-1c0-.6.1-1 .3-1.3.2-.2.4-.4.7-.4.3 0 .6.2.7.4.2.3.2.6.2 1.1 0 .5 0 1-.2 1.2-.2.3-.4.4-.7.4Zm.1-2.8c-.2 0-.3.2-.4.4l-.2.9c0 .4 0 .7.2.9 0 .2.2.3.4.3s.3-.1.4-.3l.2-1c0-.3 0-.6-.2-.8 0-.3-.2-.4-.4-.4Zm1.4 2.7v-.5l.2-.2.2-.3a6.6 6.6 0 0 1 .6-.5l.2-.2v-.2l.1-.2-.1-.4-.4-.2-.3.1a1 1 0 0 0-.4.3l-.2-.3c.2 0 .3-.2.4-.3h.5c.3 0 .5 0 .7.2l.2.5v.4l-.2.2-.2.3-.3.2a12.1 12.1 0 0 0-.5.4l-.1.2v.2h1.4v.3h-1.8Zm3.1 0h-.3v-2.5l-.3.2-.3.1-.1-.3a2.6 2.6 0 0 0 .9-.5h.1v3Z"/><path fill="url(#e)" fill-rule="evenodd" d="M271.1 387.3c-.2 0-.3.1-.3.3v3.6h3.8v-4h-3.5Zm7.4 0H275v4h3.8v-3.7c0-.2-.1-.3-.3-.3Zm-3.5 4.3h3.8v3.5c0 .2-.1.4-.3.4H275v-4Zm-.4 0h-3.8v3.5c0 .2.1.4.3.4h3.5v-4Z" clip-rule="evenodd"/><path fill="url(#f)" fill-opacity=".3" d="M289.3 393.3a2.5 2.5 0 0 1-2.5-2.5 2.5 2.5 0 1 1 4.9 0c0 1.3-1.1 2.5-2.4 2.5Z"/><path fill="url(#g)" fill-rule="evenodd" d="M285.8 390.8c0 2 1.5 3.5 3.5 3.5.7 0 1.4-.2 2-.7l1.8 1.8c.2.2.5.2.7 0 .2-.2.2-.5 0-.7l-1.7-1.8a3.6 3.6 0 0 0-2.8-5.7c-2 0-3.5 1.6-3.5 3.6Zm1 0c0 1.3 1.1 2.5 2.5 2.5 1.3 0 2.4-1.2 2.4-2.5 0-1.4-1-2.5-2.4-2.5a2.5 2.5 0 0 0-2.5 2.5Z" clip-rule="evenodd"/><path fill="url(#h)" d="M306.6 389.6h-5.4c-.2 0-.4.2-.4.4v4.9c0 .2.2.3.4.3h5.4c.2 0 .4-.1.4-.3v-5c0-.1-.2-.3-.4-.3Z"/><path stroke="url(#i)" stroke-opacity=".4" stroke-width=".5" d="M306.6 389.7h-5.4c-.2 0-.3.1-.3.3v4.9c0 .1.1.2.3.2h5.4c.2 0 .3 0 .3-.2v-5s-.1-.2-.3-.2Z"/><path fill="url(#j)" d="M308.7 387.5h-5.5c-.2 0-.3.2-.3.4v4.9c0 .2.1.3.3.3h5.5c.2 0 .3-.1.3-.3v-5c0-.1-.1-.3-.3-.3Z"/><path stroke="#000" stroke-opacity=".1" stroke-width=".5" d="M308.7 387.6h-5.5c-.1 0-.2.1-.2.3v4.9c0 .1 0 .2.2.2h5.5c.1 0 .3 0 .3-.2v-5l-.3-.2Z"/><path fill="url(#k)" fill-opacity=".4" d="M306.6 389.6h-5.4c-.2 0-.4.2-.4.4v4.9c0 .2.2.3.4.3h5.4c.2 0 .4-.1.4-.3v-5c0-.1-.2-.3-.4-.3Z"/><path fill="url(#l)" d="M320 387.4a4 4 0 0 1 4 4 4 4 0 0 1-4 4c-.7 0-1.3-.2-1.9-.5l-1.6.5c-.2 0-.4 0-.4-.2v-.2l.4-1.7a4 4 0 0 1-.4-2 4 4 0 0 1 3.9-4Z"/><path fill="url(#m)" d="M320 387.4a4 4 0 0 1 4 4 4 4 0 0 1-4 4c-.7 0-1.3-.2-1.9-.5l-1.6.5c-.2 0-.4 0-.4-.2v-.2l.4-1.7a4 4 0 0 1-.4-2 4 4 0 0 1 3.9-4Z" style="mix-blend-mode:lighten"/><path fill="#FAFAFA" fill-rule="evenodd" d="M318 389.6c-.2 0-.4.2-.4.4v2.8c0 .2.2.3.3.3h2.8c.2 0 .3-.1.3-.3V390c0-.2-.1-.4-.3-.4h-2.8Zm4.2.5-.8.6v1.4l.8.5c0 .1.2 0 .2 0v-2.4s-.1-.1-.2 0Z" clip-rule="evenodd"/><mask id="p" fill="#fff"><rect width="9.3" height="7.5" x="330.7" y="388.6" rx=".5"/></mask><rect width="9.3" height="7.5" x="330.7" y="388.6" fill="url(#n)" stroke="url(#o)" stroke-width="2" mask="url(#p)" rx=".5"/><path fill="#E09F00" d="M330.7 387.8v-.1h3.2l.9 1.4-.1.1h-4v-1.4Z"/><path fill="#036ABB" d="m332.2 393.7.1-.1h6.1v2.4h-6.2v-2.3Z"/><path fill="url(#q)" d="m353.1 394.2-.3.2a3 3 0 0 1-1 .2c-1.5 0-2.8-1-2.8-2.3a1 1 0 0 1 .5-.8c-1.3 0-1.6 1.4-1.6 2.2 0 2.2 2 2.5 2.5 2.5l.8-.2c1-.3 1.6-.8 2-1.6h.1v-.1a.1.1 0 0 0-.2 0Z"/><path fill="url(#r)" d="m353.1 394.2-.3.2a3 3 0 0 1-1 .2c-1.5 0-2.8-1-2.8-2.3a1 1 0 0 1 .5-.8c-1.3 0-1.6 1.4-1.6 2.2 0 2.2 2 2.5 2.5 2.5l.8-.2c1-.3 1.6-.8 2-1.6h.1v-.1a.1.1 0 0 0-.2 0Z" opacity=".3"/><path fill="url(#s)" d="m349.3 395.8-.7-.7a2.4 2.4 0 0 1 1-3.6l.4-.1a1 1 0 0 1 .8.4l.2.5s.7-2.4-2.5-2.4a2.6 2.6 0 0 0-2.4 2.4c0 .6.1 1.2.4 1.7a3.9 3.9 0 0 0 4.7 2 2.3 2.3 0 0 1-1.9-.2Z"/><path fill="url(#t)" d="m349.3 395.8-.7-.7a2.4 2.4 0 0 1 1-3.6l.4-.1a1 1 0 0 1 .8.4l.2.5s.7-2.4-2.5-2.4a2.6 2.6 0 0 0-2.4 2.4c0 .6.1 1.2.4 1.7a3.9 3.9 0 0 0 4.7 2 2.3 2.3 0 0 1-1.9-.2Z" opacity=".4"/><path fill="url(#u)" d="M350.7 393v.4c.5.3 1.3.2 1.3.2.4 0 .7 0 1-.2a1.9 1.9 0 0 0 .9-1.6c0-.7-.3-1.2-.4-1.4-.6-1.2-2-2-3.5-2a3.9 3.9 0 0 0-3.9 3.9c0-1.1 1.1-2 2.4-2 .1 0 .8 0 1.3.3.5.2.8.6 1 .9l.2.9-.3.6Z"/><path fill="url(#v)" d="M350.7 393v.4c.5.3 1.3.2 1.3.2.4 0 .7 0 1-.2a1.9 1.9 0 0 0 .9-1.6c0-.7-.3-1.2-.4-1.4-.6-1.2-2-2-3.5-2a3.9 3.9 0 0 0-3.9 3.9c0-1.1 1.1-2 2.4-2 .1 0 .8 0 1.3.3.5.2.8.6 1 .9l.2.9-.3.6Z"/><path fill="#fff" fill-opacity=".5" d="M370.7 384.4h-11c-.7 0-1.3.6-1.3 1.4V397c0 .8.6 1.4 1.3 1.4h11c.7 0 1.4-.6 1.4-1.4v-11.2c0-.8-.7-1.4-1.4-1.4Z"/><path stroke="url(#w)" stroke-opacity=".5" d="M370.7 384.2h-11c-.8 0-1.5.7-1.5 1.6V397c0 .8.7 1.6 1.5 1.6h11c.8 0 1.5-.8 1.5-1.6v-11.2c0-.9-.7-1.6-1.5-1.6Z"/><path fill="#005FB8" d="M367.6 397.3h-4.7c-.3 0-.6.2-.6.5s.3.6.6.6h4.7c.3 0 .5-.3.5-.6s-.2-.5-.5-.5Z"/><path fill="#fff" d="M368.6 387.2h-6.8c-.4 0-.7.3-.7.7v7c0 .4.3.7.7.7h6.8c.4 0 .7-.3.7-.7v-7c0-.4-.3-.7-.7-.7Z"/><path fill="#67B279" fill-rule="evenodd" d="M365.3 388.7c-1 0-2 .3-3 .8a5.4 5.4 0 0 0 3 5.2 5.4 5.4 0 0 0 3-5.2c-.9-.5-1.9-.8-3-.8Z" clip-rule="evenodd"/><path fill="#fff" fill-rule="evenodd" d="m365.3 392.6 1.7-2.3h-.3l-1.4 1.5-.6-.6c-.2-.3-.6-.1-.7 0l1.3 1.4Z" clip-rule="evenodd"/><path fill="url(#x)" d="M83.7 394.5c1.7 0 3-1.4 3-3.1 0-1.8-1.3-3.2-3-3.2s-3.1 1.4-3.1 3.2c0 1.7 1.4 3.1 3 3.1Z"/><path fill="#000" fill-opacity=".9" d="M91.5 390.3v-.5l.2-.2.2-.3a6.9 6.9 0 0 1 .6-.5l.2-.2v-.2l.1-.2-.1-.4-.4-.2-.4.1a1 1 0 0 0-.3.3l-.2-.3.4-.3h.5c.3 0 .5 0 .7.2l.2.5a1.1 1.1 0 0 1-.4.9l-.3.2a12.2 12.2 0 0 0-.5.4l-.1.2v.2h1.4v.3h-1.8Zm3.8-3v2h.3v.4h-.3v.7H95v-.7h-1.4v-.4a10.4 10.4 0 0 0 1.3-2h.4Zm-1.3 2h1V388a12.2 12.2 0 0 1-1 1.4Zm2.5-.8c-.1 0-.3 0-.4-.2a.6.6 0 0 1-.1-.4l.1-.4.4-.1.4.1c.2.1.2.3.2.4 0 .2 0 .3-.2.4l-.4.2Zm0-.9h-.2v.6h.5v-.5l-.3-.1Zm3.3 2.6a1.8 1.8 0 0 1-.9.2c-.4 0-.7-.2-1-.4-.2-.3-.4-.6-.4-1 0-.6.2-1 .5-1.2.2-.3.6-.5 1-.5a1.8 1.8 0 0 1 .8.2l-.2.3a1.4 1.4 0 0 0-.6-.1 1 1 0 0 0-.8.3c-.2.2-.3.5-.3.9 0 .3.1.6.3.8.2.2.4.3.8.3a1.4 1.4 0 0 0 .6-.1l.2.3Z"/><path fill="#000" fill-opacity=".6" d="m91.4 395.7.1-.3.4.2h.8l.2-.4-.1-.4-.5-.2-.6-.3a.7.7 0 0 1-.2-.5c0-.3 0-.5.2-.6.2-.2.4-.3.7-.3a1.6 1.6 0 0 1 .8.2l-.2.3a1.4 1.4 0 0 0-.6-.1H92l-.1.4v.3l.5.2.7.4.2.5c0 .3-.1.5-.3.6a1 1 0 0 1-.7.3h-.5l-.4-.3Zm4.1.2h-.3v-.3l-.3.3h-.4l-.6-.1-.1-.7v-1.3h.3v1.2l.1.5.4.2c.2 0 .3 0 .4-.2l.2-.5v-1.2h.3v2.1Zm2.5 0h-.4v-1.7l-.4-.2-.5.2-.1.5v1.2h-.4v-2.1h.4v.3l.3-.3h.4c.2 0 .4 0 .5.2l.2.6v1.3Zm2.4 0h-.4v-1.7l-.4-.2-.4.2-.2.5v1.2h-.4v-2.1h.4v.3l.3-.3h.4c.2 0 .4 0 .5.2l.2.6v1.3Zm2.4-2.1-1 2.5-.3.5-.4.1a.8.8 0 0 1-.3 0v-.3h.5l.1-.3.2-.4-.8-2.1h.4l.5 1.6v.2l.1-.2.6-1.6h.4Z"/></g><g clip-path="url(#y)"><path fill="#1F1F1F" d="M566 70H73v313h493V70Z"/><path fill="#67B279" fill-rule="evenodd" d="M90 84.4c-2.2 0-4.9.5-7.1 1.6 0 2.5 0 8.6 7.2 12.7 7.2-4.1 7.1-10.2 7.1-12.7-2.2-1.1-4.9-1.6-7.1-1.6Z" clip-rule="evenodd"/><path fill="#5B9F6B" fill-rule="evenodd" d="M90 84.4c-2.2 0-4.9.5-7.1 1.6 0 2.5 0 8.6 7.2 12.7V84.4Z" clip-rule="evenodd"/><path fill="#fff" fill-rule="evenodd" d="m90 93.6 4.2-5.5c-.4-.3-.6-.1-.8 0L90 91.7 88.6 90c-.6-.7-1.4-.1-1.6 0l3 3.5Z" clip-rule="evenodd"/><path fill="#3D3D3D" d="M106.7 112.7h-34v34h34v-34Z"/><path fill="#5B5B5B" d="M106.7 69.7v314h.7v-314h-.7Z"/><path stroke="#67B279" stroke-linecap="round" stroke-linejoin="round" d="M86.3 129H85a.4.4 0 0 1-.3-.7l4.8-3.6h.5l4.8 3.6c.4.2.2.8-.3.8h-1.3v5c0 .2-.2.4-.5.4h-6a.4.4 0 0 1-.4-.5v-5Z" clip-rule="evenodd"/><path stroke="#67B279" stroke-linecap="round" stroke-linejoin="round" d="m88 162.7 1.8 1.8 2.3-3"/><path stroke="#67B279" stroke-linecap="round" stroke-linejoin="round" d="M89.8 158c-1.7 0-3.8.3-5.4 1.2 0 1.8 0 6.4 5.4 9.5 5.4-3.1 5.3-7.7 5.3-9.5-1.6-.9-3.7-1.3-5.3-1.3ZM91.2 191.5a4 4 0 0 1 4 4.1h-4.3v-4.1H91.2Z" clip-rule="evenodd"/><path stroke="#67B279" stroke-linecap="round" stroke-linejoin="round" d="M89 192.7h.2v4.1c0 .3.2.6.5.6H94a4.8 4.8 0 1 1-4.9-4.7Z" clip-rule="evenodd"/><path stroke="#67B279" stroke-linecap="round" stroke-linejoin="round" d="M94.5 231.5h-3c-.3 0-.6.3-.6.6v3c0 .4.3.6.6.6h3c.4 0 .6-.2.6-.6v-3c0-.3-.2-.6-.6-.6ZM86 231.9c.2-.4.8-.4 1 0l1.7 3c.2.3-.1.8-.6.8h-3.3a.6.6 0 0 1-.5-.9l1.6-3ZM88 225h-3c-.4 0-.6.2-.6.6v3c0 .3.2.5.6.5h3c.3 0 .6-.2.6-.5v-3c0-.4-.3-.6-.6-.6Z"/><path stroke="#67B279" d="M93 225a2 2 0 1 1 0 4.1 2 2 0 0 1 0-4.1Z" clip-rule="evenodd"/><path stroke="#67B279" stroke-linejoin="round" d="M87.3 268h.2l.8.4c.2 0 .3.1.4.3l.4 1.1h1.3l.4-1c0-.3.2-.4.4-.4l.8-.4h.4l1.1.6 1-1-.6-1v-.5l.4-.8c0-.2.2-.3.3-.4l1.1-.4v-1.3l-1-.4a.5.5 0 0 1-.4-.4l-.4-.8v-.4l.6-1.1-1-1-1 .6H92l-.8-.4a.5.5 0 0 1-.4-.3l-.4-1.1h-1.3l-.4 1c0 .2-.2.4-.4.4l-.8.4h-.4a12 12 0 0 0-1-.6l-1 1 .5 1v.5l-.4.8c0 .2-.1.3-.3.4l-1.1.4v1.3l1 .4c.3 0 .4.2.4.4l.4.7v.5l-.6 1.1 1 1 1-.6h.3Z" clip-rule="evenodd"/><path stroke="#67B279" stroke-linejoin="round" d="M89.8 262.2a1.6 1.6 0 1 0 0 3.3 1.6 1.6 0 0 0 0-3.3Z" clip-rule="evenodd"/><path stroke="#67B279" stroke-linecap="round" d="M86.2 294.4c2.1-3.1 8-2.1 8.3 3v.9M93.3 300.3c-2.1 3.2-8 2.1-8.3-3v-.5"/><path stroke="#67B279" stroke-linecap="round" stroke-linejoin="round" d="m95.7 297.4-1.2 1.2-1.2-1.2M83.8 297.4l1.2-1.2 1.2 1.2"/><path fill="#E4E4E4" d="M494.5 79.8a.3.3 0 0 1-.3-.3v-.1a.3.3 0 0 1 .2-.2h5.6l.1.1v.4a.3.3 0 0 1-.2.1h-5.4ZM522.6 82.8h-.3a1 1 0 0 1-.3-.3l-.2-.2v-4.9l.2-.3a1 1 0 0 1 .6-.3H527.2l.2.3a.9.9 0 0 1 .3.6V82.3a1 1 0 0 1-.5.4l-.4.1h-4.2Zm4.2-.6h.2a.3.3 0 0 0 .1-.3v-4.3a.3.3 0 0 0-.2-.2h-4.3a.3.3 0 0 0-.2.1v4.4a.3.3 0 0 0 0 .2.3.3 0 0 0 .2.1h4.2ZM552.2 80.2l-2.4 2.5-.3.1h-.2v-.5l2.5-2.5-2.5-2.5v-.2a.3.3 0 0 1 .1-.3h.1l.3.1 2.4 2.5 2.5-2.5H555a.3.3 0 0 1 .1.4l-2.4 2.5 2.4 2.5.1.2v.1a.3.3 0 0 1-.2.2h-.3l-2.5-2.6Z"/><path stroke="silver" stroke-linecap="round" d="M252.5 197c0-.3.3-.6.6-.6h13.2c.3 0 .5.3.5.6v6.8c0 .3-.2.6-.5.6H253a.6.6 0 0 1-.6-.6V197Z" clip-rule="evenodd"/><path stroke="silver" stroke-linecap="round" d="m253.3 207.6 12.8-14.3"/><path stroke="#67B279" stroke-linecap="round" stroke-linejoin="round" d="M302.3 198.2a15 15 0 0 1 2 2c-2 2.7-4.2 4-6.3 4h-1m-2-.9c-.9-.5-2-1.5-3.4-3 2.1-2.6 4.2-3.9 6.4-3.9.8 0 1.7.2 2.5.7m-9 10.5 12.8-14.3m-7.5 8.3c-.3-.3-.4-.7-.4-1.2a1.6 1.6 0 0 1 2.6-1.2l-2.2 2.4Z"/><path stroke="#67B279" stroke-linecap="round" stroke-linejoin="round" d="M343.4 195.4c0-.6-.5-1.2-1.2-1.2h-12c-.6 0-1.1.6-1.1 1.2v8c0 .7.5 1.2 1.2 1.2h7.6l3.3 3.5v-3.5h1c.7 0 1.2-.5 1.2-1.2v-8Z" clip-rule="evenodd"/><path stroke="#67B279" stroke-linecap="round" stroke-linejoin="round" d="M336.3 196.8v2.8M336.3 201.7v-.1"/><path stroke="#67B279" stroke-linecap="round" d="M377.7 196h1.2M377.7 202.4h1.2M373.7 196h1.2M373.7 202.4h1.2"/><path stroke="#67B279" stroke-linecap="round" stroke-linejoin="round" d="M379.7 194c.7 0 1.2.6 1.2 1.2v1.6c0 .7-.5 1.2-1.2 1.2h-10.3c-.7 0-1.2-.5-1.2-1.2v-1.6c0-.6.5-1.2 1.2-1.2h10.3ZM379.7 200.4c.7 0 1.2.4 1.2 1.5v3.5c0 1.1-.5 1.4-1.2 1.4h-10.3c-.7 0-1.2-.3-1.2-1.4V202c0-1.1.5-1.5 1.2-1.5h10.3Z" clip-rule="evenodd"/><path stroke="silver" stroke-linecap="round" stroke-linejoin="round" d="M412.8 208.4a8 8 0 1 0 0-16 8 8 0 0 0 0 16Z"/><path stroke="silver" stroke-linecap="round" stroke-linejoin="round" d="M412.7 197.2c1.8.1 3.5.4 5 1.3a3 3 0 0 1 1.5 2.6c0 1.8-1.2 2.7-2.8 2.5l-2-.5a7 7 0 0 0-3.5.1l-1.7.4c-1 .1-2.2-.3-2.5-1.4-.6-1.3 0-2.9 1.1-3.6 1.5-1 3.2-1.3 5-1.4Z" clip-rule="evenodd"/><path stroke="silver" stroke-linecap="round" stroke-linejoin="round" d="M416 201.2v-.8M409.6 201.2v-.8"/><path fill="#E4E4E4" d="M243.5 239.1v4.4h-3v-13.4h4.7c1.6 0 2.9.4 3.8 1 .8.8 1.3 2 1.3 3.3 0 1.5-.5 2.7-1.5 3.5-1 .8-2.3 1.2-4 1.2h-1.3Zm0-6.7v4.4h1.2c.8 0 1.4-.2 1.8-.6.4-.3.6-1 .6-1.6 0-.7-.2-1.3-.6-1.6-.4-.4-1-.6-1.7-.6h-1.3Zm14.4 4.1a4 4 0 0 0-1.1-.2c-.6 0-1.1.2-1.5.7a3 3 0 0 0-.5 2v4.5h-3V234h3v1.7c.2-.6.6-1 1-1.4.4-.3 1-.4 1.5-.4a4 4 0 0 1 1.2.2l-.6 2.5Zm6.3 7.2c-1.6 0-2.9-.4-3.8-1.3-1-.9-1.4-2.1-1.4-3.6 0-1.6.5-2.8 1.4-3.7 1-1 2.3-1.4 3.9-1.4a5 5 0 0 1 3.7 1.4c1 .9 1.4 2 1.4 3.5a5 5 0 0 1-1.5 3.7c-1 1-2.2 1.4-3.7 1.4Zm0-2.3c.8 0 1.3-.2 1.7-.7.3-.5.5-1.2.5-2 0-.9-.2-1.5-.5-2-.4-.5-1-.7-1.7-.7a2 2 0 0 0-1.6.7c-.4.6-.6 1.2-.6 2s.2 1.5.6 2c.3.5.9.8 1.6.8Zm13.3 1.5c-.3.3-.6.5-1 .6-.5.2-1 .2-1.4.2-1.1 0-2-.2-2.4-.7-.6-.5-.8-1.3-.8-2.3v-4.6h-1.6V234h1.6v-2.4l3-.6v3h2.2v2.2h-2.3v4.6c0 .3 0 .5.2.7l.6.2h.4l.4-.3 1.1 1.6Zm10-3.3h-6.3c0 .6.3 1 .7 1.4.4.4.9.6 1.5.6.4 0 .7-.1 1-.3.4-.2.7-.4 1-.8l2 1.3c-.5.7-1.2 1.2-1.8 1.5-.7.3-1.5.4-2.3.4a5 5 0 0 1-3.7-1.2c-.9-.9-1.3-2.1-1.3-3.6 0-1.6.4-2.9 1.4-3.8.9-1 2-1.4 3.4-1.4s2.4.4 3.2 1.2c.8.9 1.2 2.1 1.2 3.7v1Zm-2.8-1.9c0-.7-.1-1.2-.4-1.5-.3-.3-.7-.5-1.1-.5-.6 0-1 .2-1.4.6-.3.4-.5.8-.6 1.4h3.5Zm13 3.8a4.5 4.5 0 0 1-4 2.2c-1.6 0-2.8-.4-3.7-1.3-.9-.9-1.3-2-1.3-3.4 0-1.7.5-3 1.4-3.9 1-1 2.2-1.4 3.8-1.4.8 0 1.6.2 2.3.6.7.4 1.2 1 1.4 1.7l-2.2 1c-.2-.3-.4-.6-.7-.7-.2-.2-.5-.3-1-.3s-1 .2-1.4.7c-.4.4-.6 1.1-.6 2 0 1 .2 1.6.6 2 .3.5.8.7 1.4.7.4 0 .7-.1 1-.3.3-.1.6-.4.9-.8l2.1 1.2Zm8 1.4c-.2.3-.6.5-1 .6-.4.2-.9.2-1.4.2-1 0-1.9-.2-2.4-.7-.5-.5-.8-1.3-.8-2.3v-4.6h-1.5V234h1.5v-2.4l3-.6v3h2.2v2.2h-2.2v4.6c0 .3 0 .5.2.7l.5.2h.4l.5-.3 1 1.6Zm3-10.2c-.5 0-1-.2-1.2-.5-.4-.3-.5-.7-.5-1.2s.1-.9.5-1.2c.3-.3.7-.4 1.2-.4s1 .1 1.3.4c.3.3.5.7.5 1.2s-.2 1-.5 1.2c-.4.3-.8.5-1.3.5Zm1.5 10.8h-3V234h3v9.6Zm7 .2c-1.6 0-2.9-.4-3.8-1.3-1-.9-1.4-2.1-1.4-3.6 0-1.6.5-2.8 1.4-3.7 1-1 2.2-1.4 3.9-1.4a5 5 0 0 1 3.7 1.4c1 .9 1.4 2 1.4 3.5a5 5 0 0 1-1.5 3.7c-1 1-2.2 1.4-3.8 1.4Zm0-2.3c.8 0 1.3-.2 1.7-.7.3-.5.5-1.2.5-2 0-.9-.2-1.5-.6-2-.3-.5-.9-.7-1.6-.7a2 2 0 0 0-1.6.7c-.4.6-.6 1.2-.6 2s.2 1.5.5 2c.4.5 1 .8 1.7.8Zm16.2 2.1h-3V238c0-.6 0-1-.3-1.5-.3-.3-.7-.5-1.2-.5s-1 .2-1.3.6c-.3.4-.5.8-.5 1.4v5.5h-3V234h3v1.3c.4-.5.8-.8 1.3-1.1.6-.3 1.2-.4 1.7-.4 1.1 0 2 .3 2.5 1s.8 1.6.8 2.9v6Zm8.3-10.8c-.6 0-1-.2-1.3-.5-.3-.3-.5-.7-.5-1.2s.2-.9.5-1.2c.3-.3.7-.4 1.3-.4.5 0 .9.1 1.2.4.3.3.5.7.5 1.2s-.2 1-.5 1.2c-.3.3-.7.5-1.2.5Zm1.4 10.8h-3V234h3v9.6Zm1.7-1.2 1.4-1.8 1.3 1 1.3.2c.4 0 .7-.1 1-.3.2 0 .3-.3.3-.6 0-.2 0-.4-.3-.5-.2-.2-.6-.3-1-.4a5.2 5.2 0 0 1-2.8-1c-.5-.5-.8-1.2-.8-2a3 3 0 0 1 1-2.3 4 4 0 0 1 2.8-.9c.6 0 1.3 0 1.8.3.6.2 1.1.4 1.6.8l-1.4 1.7-1-.6-1-.1c-.5 0-.8 0-1 .2l-.2.6c0 .2 0 .4.3.5.2.2.6.3 1.2.3 1.1.2 2 .5 2.5 1 .6.5.9 1.2.9 2.1 0 1-.4 1.8-1.1 2.4-.8.5-1.7.8-2.9.8-.7 0-1.4 0-2.1-.3-.7-.2-1.3-.6-1.8-1Zm20.7 0a3.9 3.9 0 0 1-3 1.5c-1.2 0-2.2-.5-3-1.3-.7-.9-1-2-1-3.6 0-1.5.3-2.8 1.2-3.8.8-1 1.9-1.4 3.3-1.4.5 0 1 .1 1.5.4.5.2.8.5 1 .8v-5.6h3v14.2h-3v-1.2Zm-4-3.4c0 .8.1 1.4.5 1.9.3.4.8.6 1.5.6.6 0 1.1-.2 1.5-.7a3 3 0 0 0 .6-1.8v-.8c0-.6-.2-1-.6-1.5-.3-.4-.8-.6-1.4-.6-.7 0-1.2.2-1.6.8-.4.5-.6 1.2-.6 2Zm10.8-6.2c-.5 0-1-.2-1.3-.5-.3-.3-.5-.7-.5-1.2s.2-.9.5-1.2c.4-.3.8-.4 1.3-.4s1 .1 1.2.4c.4.3.5.7.5 1.2s-.1 1-.5 1.2c-.3.3-.7.5-1.2.5Zm1.4 10.8h-2.9V234h3v9.6Zm1.7-1.2 1.4-1.8 1.3 1 1.3.2c.4 0 .8-.1 1-.3.2 0 .3-.3.3-.6 0-.2 0-.4-.3-.5-.2-.2-.5-.3-1-.4a5.2 5.2 0 0 1-2.7-1c-.6-.5-.8-1.2-.8-2a3 3 0 0 1 1-2.3 4 4 0 0 1 2.7-.9c.7 0 1.3 0 1.9.3.6.2 1 .4 1.5.8l-1.4 1.7-1-.6-1-.1c-.4 0-.7 0-1 .2l-.2.6c0 .2.1.4.3.5.3.2.7.3 1.2.3 1.2.2 2 .5 2.6 1 .5.5.8 1.2.8 2.1 0 1-.3 1.8-1 2.4-.8.5-1.8.8-3 .8-.7 0-1.4 0-2.1-.3-.7-.2-1.3-.6-1.8-1Zm17.6 1.2h-2.8v-1.1a3.4 3.4 0 0 1-3 1.3c-.7 0-1.4-.2-2-.7-.6-.5-1-1.2-1-2 0-1 .4-1.7 1-2.2.5-.6 1.4-1 2.5-1.1l2.5-.3v-.2c0-.5-.2-.9-.5-1.1-.2-.2-.6-.4-1-.4-.5 0-1 .1-1.3.3-.3.2-.7.5-1 1l-1.8-1.4c.4-.5 1-1 1.7-1.3.7-.4 1.6-.6 2.6-.6 1.3 0 2.3.3 3 1 .7.7 1 1.7 1 3v5.8Zm-2.8-3.9v-.4l-1.9.2c-.4 0-.8.2-1 .4a1 1 0 0 0-.3.8c0 .3.1.5.4.7.2.2.5.3.8.3.6 0 1-.1 1.4-.5.4-.4.6-.9.6-1.5Zm8 3v1h-3v-14.3h3v5.8c.3-.5.8-.8 1.3-1 .5-.3 1.1-.4 1.8-.4 1.3 0 2.2.4 3 1.3.6.8 1 2 1 3.4 0 1.6-.5 3-1.3 3.9-.7 1-1.8 1.4-3.1 1.4a4 4 0 0 1-1.6-.2c-.5-.2-.8-.5-1.2-1Zm-.1-4.2v1c0 .5.1 1 .5 1.4.4.4.9.6 1.5.6s1.2-.2 1.5-.7c.4-.5.6-1.3.6-2.2a3 3 0 0 0-.5-1.8c-.4-.5-.8-.7-1.5-.7a2 2 0 0 0-1.5.7c-.4.4-.6 1-.6 1.7Zm9 5.1v-14.2h2.9v14.2h-3Zm13.8-4h-6.2c0 .7.2 1.2.6 1.5.4.4.9.6 1.5.6.4 0 .8-.1 1.1-.3.3-.2.7-.4 1-.8l2 1.3c-.6.7-1.2 1.2-1.9 1.5-.7.3-1.4.4-2.3.4a5 5 0 0 1-3.6-1.2c-1-.9-1.4-2.1-1.4-3.6 0-1.6.5-2.9 1.4-3.8 1-1 2-1.4 3.4-1.4s2.5.4 3.2 1.2c.8.9 1.2 2.1 1.2 3.7v1Zm-2.7-1.8c0-.7-.2-1.2-.5-1.5-.2-.3-.6-.5-1.1-.5-.5 0-1 .2-1.3.6-.4.4-.6.8-.7 1.4h3.6Zm11 4.6a3.9 3.9 0 0 1-3 1.5c-1.2 0-2.2-.5-3-1.3-.7-.9-1-2-1-3.6 0-1.5.3-2.8 1.2-3.8.8-1 1.9-1.4 3.3-1.4.5 0 1 .1 1.5.4.5.2.8.5 1 .8v-5.6h3v14.2h-3v-1.2Zm-4-3.4c0 .8.1 1.4.5 1.9.3.4.8.6 1.5.6.6 0 1.1-.2 1.5-.7a3 3 0 0 0 .6-1.8v-.8c0-.6-.2-1-.6-1.5-.3-.4-.8-.6-1.4-.6-.7 0-1.2.2-1.6.8-.4.5-.6 1.2-.6 2Z"/><path fill="silver" d="m274 260.3.4-.5.7.4.8.1c.4 0 .7 0 .9-.2.2-.2.3-.4.3-.8 0-.2 0-.5-.3-.6a3 3 0 0 0-1-.5l-1.1-.7c-.3-.3-.4-.6-.4-1 0-.5.1-.9.5-1.2a2 2 0 0 1 1.3-.4 3 3 0 0 1 1.6.5l-.3.5a2.4 2.4 0 0 0-1.3-.4c-.4 0-.6 0-.8.3-.2.1-.3.4-.3.6 0 .3 0 .5.2.7l1 .4c.6.2 1 .5 1.2.7.3.3.4.6.4 1 0 .6-.1 1-.5 1.3a2 2 0 0 1-1.4.5 2.9 2.9 0 0 1-1.9-.6Zm8.3.6h-.7v-.7l-.5.6-.8.2c-.5 0-.9-.2-1.1-.5-.3-.3-.4-.7-.4-1.3v-2.5h.7v2.4c0 .4 0 .7.2 1 .2.2.4.3.8.3.3 0 .6-.1.8-.4.2-.2.3-.5.3-1v-2.3h.7v4.2Zm3.4-3.6h-.2l-.1-.1a1 1 0 0 0-.8.4 2 2 0 0 0-.3 1.1v2.2h-.7v-4.2h.7v.8l.4-.7.7-.2a1.4 1.4 0 0 1 .4 0l-.1.7Zm2.8-2a1.1 1.1 0 0 0-.4-.2l-.5.2-.1.6v.8h1v.5h-1v3.7h-.7v-3.7h-.7v-.5h.7v-.9c0-.4.1-.7.4-.9.2-.2.5-.3 1-.3h.5l-.2.6Zm2.5 5.2.4-.5.5.3h1.2c.2-.2.2-.3.2-.6 0-.1 0-.3-.2-.4l-.6-.3c-.5-.1-.9-.3-1-.5a1 1 0 0 1-.3-.7c0-.4.1-.7.4-.9.2-.2.6-.3 1-.3h.7l.6.4-.3.5-.5-.3h-.5a1 1 0 0 0-.6 0l-.2.5c0 .2 0 .3.2.4l.7.3 1 .5c.2.2.3.5.3.8 0 .4-.1.7-.4 1-.3.1-.7.3-1.1.3a2.3 2.3 0 0 1-1.5-.5Zm7 .4h-.7v-.7l-.6.6-.7.2c-.4 0-.7-.2-1-.4-.2-.2-.3-.5-.3-.9 0-.3.1-.6.4-.9.2-.2.6-.4 1-.4l1.2-.2v-.1c0-.3 0-.6-.2-.7a1 1 0 0 0-.7-.3c-.2 0-.4 0-.6.2-.2 0-.4.2-.6.4l-.4-.4.7-.6 1-.1c.4 0 .8.1 1 .4.3.2.5.6.5 1.1v2.8Zm-.7-1.7v-.4h-1l-.7.3c-.2.1-.2.3-.2.5 0 .3 0 .5.2.6l.5.2c.4 0 .7-.1.9-.3.2-.3.3-.6.3-1Zm4-4a1.1 1.1 0 0 0-.5 0l-.5.1-.1.6v.8h1v.5h-1v3.7h-.7v-3.7h-.7v-.5h.7v-.9c0-.4.1-.7.4-.9.2-.2.5-.3 1-.3h.5l-.2.6Zm4 3.7h-3c0 .5.1.9.3 1.1.3.3.6.4 1 .4l.6-.1.6-.3.3.4-.7.4-.8.2a2 2 0 0 1-1.5-.6c-.3-.4-.5-1-.5-1.6 0-.7.2-1.2.5-1.6.4-.4.8-.6 1.4-.6.6 0 1 .1 1.3.5.3.4.4.8.4 1.5v.3Zm-.7-.5c0-.4-.1-.7-.3-1a1 1 0 0 0-.8-.3c-.3 0-.6.2-.8.4-.2.2-.4.5-.4.9h2.3Zm1.6 2.5v-6.2h.7v6.2h-.7Zm5.4-4.2-2 5a2 2 0 0 1-.5.8c-.3.2-.5.3-.9.3a1.4 1.4 0 0 1-.4 0l.1-.6a.7.7 0 0 0 .3 0h.5l.2-.5.4-.8-1.6-4.2h.7l1.1 3.2.1.3v-.1l.1-.2 1.2-3.2h.7Zm10.7 2h-8.4v-.4h8.4v.5Zm8.2-2-1.2 4.2h-.7l-.9-3a1.7 1.7 0 0 1 0-.4l-.1.2v.2l-1 3h-.7l-1.2-4.2h.7l.8 3.1v.4h.1a1.8 1.8 0 0 1 0-.4l1-3.1h.7l.8 3.1v.2l.1.2a1.7 1.7 0 0 1 .1-.4l.8-3.1h.7Zm4.2 2.2h-3c0 .5.1.9.4 1.1.2.3.5.4 1 .4l.5-.1.6-.3.3.4-.7.4-.8.2a2 2 0 0 1-1.5-.6c-.3-.4-.5-1-.5-1.6 0-.7.2-1.2.5-1.6.4-.4.9-.6 1.4-.6.6 0 1 .1 1.3.5.3.4.5.8.5 1.5v.3Zm-.7-.5c0-.4-.1-.7-.3-1a1 1 0 0 0-.8-.3 1 1 0 0 0-.8.4c-.2.2-.4.5-.4.9h2.3Zm2.5-3.5-.6 1.8h-.5l.5-1.8h.6Zm4.4 1.8-1.7 4.2h-.7l-1.6-4.2h.8l1 3a3.2 3.2 0 0 1 .2.6 4.7 4.7 0 0 1 .1-.6l1.2-3h.7Zm4 2.2h-3c0 .5.2.9.5 1.1.2.3.5.4 1 .4l.5-.1.6-.3.3.4-.7.4-.8.2a2 2 0 0 1-1.5-.6c-.3-.4-.5-1-.5-1.6 0-.7.2-1.2.5-1.6.4-.4.8-.6 1.4-.6.6 0 1 .1 1.3.5.3.4.5.8.5 1.5v.3Zm-.6-.5c0-.4-.1-.7-.3-1a1 1 0 0 0-.8-.3c-.3 0-.6.2-.8.4-.2.2-.4.5-.4.9h2.3Zm7.5 2.2c0 .8-.2 1.3-.6 1.7a2 2 0 0 1-1.5.5 3.3 3.3 0 0 1-1.6-.4l.3-.5a2.6 2.6 0 0 0 1.3.4c.4 0 .8-.2 1-.4.3-.3.4-.7.4-1.2v-.5l-.6.6-.8.2c-.6 0-1-.2-1.3-.6-.3-.4-.5-.9-.5-1.5 0-.7.2-1.3.5-1.7.4-.4.9-.6 1.4-.6l.8.1.5.5v-.5h.7v4Zm-.7-1.6v-.7a1.1 1.1 0 0 0-1.2-1.2c-.4 0-.7.2-1 .5-.2.2-.3.7-.3 1.3 0 .4.1.8.3 1 .3.4.6.5 1 .5.3 0 .6-.1.9-.4.2-.3.3-.6.3-1Zm3.8 2a2 2 0 0 1-1.5-.6c-.4-.4-.5-1-.5-1.6 0-.7.1-1.2.5-1.6a2 2 0 0 1 1.6-.6c.6 0 1.1.2 1.4.6.4.3.6.9.6 1.5 0 .7-.2 1.2-.6 1.7a2 2 0 0 1-1.5.6Zm0-.6c.5 0 .8-.2 1-.4.3-.3.4-.7.4-1.2s-.1-1-.4-1.2c-.2-.3-.5-.5-1-.5-.4 0-.7.2-1 .5-.2.3-.4.7-.4 1.2s.2.9.4 1.2c.3.2.6.4 1 .4Zm5.2.4a1.7 1.7 0 0 1-.8.1 1 1 0 0 1-.8-.2l-.2-.9v-2.6h-.8v-.5h.8v-1l.6-.3v1.3h1.1v.5h-1v3l.4.2h.3l.2-.1.2.5Zm6.4-4.1-2 5a2 2 0 0 1-.6.8c-.2.2-.5.3-.8.3a1.4 1.4 0 0 1-.4 0l.1-.6a.7.7 0 0 0 .3 0h.4c.2-.2.3-.3.3-.5l.4-.8-1.6-4.2h.7l1.1 3.2.1.3v-.1l.1-.2 1.2-3.2h.7Zm2.5 4.3a2 2 0 0 1-1.5-.6c-.4-.4-.6-1-.6-1.6 0-.7.2-1.2.6-1.6a2 2 0 0 1 1.6-.6c.6 0 1 .2 1.4.6.4.3.6.9.6 1.5 0 .7-.2 1.2-.6 1.7a2 2 0 0 1-1.5.6Zm0-.6c.5 0 .8-.2 1-.4.3-.3.4-.7.4-1.2s-.1-1-.4-1.2c-.2-.3-.5-.5-1-.5-.4 0-.7.2-1 .5-.2.3-.4.7-.4 1.2s.2.9.4 1.2c.3.2.6.4 1 .4Zm6.5.5h-.6v-.7l-.6.6-.8.2c-.5 0-.8-.2-1-.5-.3-.3-.5-.7-.5-1.3v-2.5h.7v2.4c0 .4.1.7.3 1 .1.2.4.3.7.3.4 0 .6-.1.8-.4.2-.2.4-.5.4-1v-2.3h.6v4.2Zm3.4-3.6h-.1l-.2-.1a1 1 0 0 0-.8.4 2 2 0 0 0-.3 1.1v2.2h-.6v-4.2h.6v.8l.5-.7.7-.2a1.4 1.4 0 0 1 .4 0l-.2.7Zm3.8 3v.6h-.7v-6.2h.7v2.7l.6-.6c.3-.2.6-.2.9-.2.5 0 1 .2 1.2.5.4.4.5 1 .5 1.5 0 .7-.2 1.3-.5 1.7-.3.4-.8.7-1.4.7l-.7-.2c-.3-.1-.4-.3-.6-.5Zm0-1.7v.5c0 .4.1.7.4 1 .2.2.5.3.8.3.4 0 .7-.2 1-.5.2-.3.3-.7.3-1.3 0-.4 0-.8-.3-1a1 1 0 0 0-.9-.5c-.4 0-.7.2-1 .4-.2.3-.3.7-.3 1Zm7.2 2.3h-.6v-.7l-.6.6-.7.2c-.4 0-.7-.2-1-.4-.2-.2-.3-.5-.3-.9 0-.3 0-.6.3-.9.3-.2.6-.4 1-.4l1.3-.2v-.1c0-.3-.1-.6-.3-.7a1 1 0 0 0-.6-.3c-.3 0-.5 0-.7.2-.2 0-.3.2-.5.4l-.4-.4a2.2 2.2 0 0 1 1.6-.7c.5 0 .9.1 1.1.4.3.2.4.6.4 1.1v2.8Zm-.6-1.7v-.4h-1l-.8.3-.2.5.2.6.6.2c.3 0 .6-.1.8-.3.3-.3.4-.6.4-1Zm5 1.4a2 2 0 0 1-1.3.4 2 2 0 0 1-1.5-.6 2 2 0 0 1-.6-1.5c0-.7.2-1.3.6-1.7a2 2 0 0 1 1.6-.6 2.2 2.2 0 0 1 1.2.4l-.3.4a1.7 1.7 0 0 0-1-.3c-.4 0-.8.2-1 .5-.3.3-.4.7-.4 1.2s.1.9.4 1.2c.3.2.6.4 1 .4a1.5 1.5 0 0 0 .9-.3l.3.5Zm4.3.3h-1l-1.8-2v2h-.7v-6.2h.7v3.9l1.8-2h.9l-2 2 2.1 2.3Z"/><path fill="#F67247" fill-rule="evenodd" d="M311.7 295c0-5 4-9 9-9h30a9 9 0 0 1 8.9 8.8v.2c0 5-4 9-9 9h-29.9a9 9 0 0 1-9-8.9v-.1Z" clip-rule="evenodd"/><path fill="#fff" d="M325.5 310a15 15 0 1 0 0-30 15 15 0 0 0 0 30Z"/><path stroke="#F67247" stroke-width="2" d="M330.3 295a4.8 4.8 0 1 0-9.6 0 4.8 4.8 0 0 0 9.6 0Z"/><path fill="url(#z)" fill-opacity=".3" d="M73 83a13 13 0 0 1 13-13h467a13 13 0 0 1 13 13v300H73V83Z" style="mix-blend-mode:screen"/></g></g></g><defs><linearGradient id="e" x1="270.8" x2="279" y1="387.3" y2="395.3" gradientUnits="userSpaceOnUse"><stop stop-color="#4CD2FF"/><stop offset="1" stop-color="#0078D4"/></linearGradient><linearGradient id="g" x1="285.8" x2="294.1" y1="387.2" y2="395.6" gradientUnits="userSpaceOnUse"><stop stop-color="#41403F"/><stop offset="1" stop-color="#1F1F1F"/></linearGradient><linearGradient id="h" x1="303.9" x2="303.9" y1="389.6" y2="395.2" gradientUnits="userSpaceOnUse"><stop stop-color="#444341"/><stop offset="1" stop-color="#2D2D2C"/></linearGradient><linearGradient id="i" x1="303.9" x2="303.9" y1="395.2" y2="389.6" gradientUnits="userSpaceOnUse"><stop/><stop offset="1" stop-opacity="0"/></linearGradient><linearGradient id="j" x1="306" x2="306" y1="387.5" y2="393.1" gradientUnits="userSpaceOnUse"><stop stop-color="#F7F7F7"/><stop offset="1" stop-color="#E6E6E6"/></linearGradient><linearGradient id="k" x1="303.9" x2="303.9" y1="389.6" y2="395.2" gradientUnits="userSpaceOnUse"><stop stop-color="#444341"/><stop offset="1" stop-color="#2D2D2D"/></linearGradient><linearGradient id="n" x1="335.3" x2="335.3" y1="388.6" y2="396.1" gradientUnits="userSpaceOnUse"><stop stop-color="#FFCF4D"/><stop offset="1" stop-color="#F4B509"/></linearGradient><linearGradient id="o" x1="335.3" x2="335.3" y1="388.6" y2="396.1" gradientUnits="userSpaceOnUse"><stop stop-color="#FFD04E"/><stop offset="1" stop-color="#F4B509"/></linearGradient><linearGradient id="q" x1="347.9" x2="353.3" y1="393.8" y2="393.8" gradientUnits="userSpaceOnUse"><stop stop-color="#0C59A4"/><stop offset="1" stop-color="#114A8B"/></linearGradient><linearGradient id="s" x1="350.8" x2="347.4" y1="391.5" y2="395.2" gradientUnits="userSpaceOnUse"><stop stop-color="#1B9DE2"/><stop offset=".2" stop-color="#1595DF"/><stop offset=".7" stop-color="#0680D7"/><stop offset="1" stop-color="#0078D4"/></linearGradient><linearGradient id="w" x1="365.2" x2="365.2" y1="384.4" y2="398.4" gradientUnits="userSpaceOnUse"><stop offset=".9" stop-opacity=".1"/><stop offset="1" stop-opacity=".2"/></linearGradient><linearGradient id="x" x1="81.5" x2="86.9" y1="389.1" y2="393.9" gradientUnits="userSpaceOnUse"><stop offset=".2" stop-color="#FFE975"/><stop offset=".5" stop-color="#FFB729"/><stop offset=".7" stop-color="#F90"/></linearGradient><linearGradient id="z" x1="77.5" x2="67.7" y1="71.8" y2="384.4" gradientUnits="userSpaceOnUse"><stop stop-color="#fff"/><stop offset=".6" stop-color="#fff" stop-opacity="0"/></linearGradient><radialGradient id="f" cx="0" cy="0" r="1" gradientTransform="matrix(0 2.50105 -2.4502 0 289.3 390.8)" gradientUnits="userSpaceOnUse"><stop stop-color="#fff"/><stop offset="1" stop-color="#fff" stop-opacity=".8"/></radialGradient><radialGradient id="l" cx="0" cy="0" r="1" gradientTransform="matrix(-4.45254 5.0734 -4.9663 -4.54861 321.9 389)" gradientUnits="userSpaceOnUse"><stop stop-color="#8194E8"/><stop offset="1" stop-color="#5654B7"/></radialGradient><radialGradient id="m" cx="0" cy="0" r="1" gradientTransform="matrix(4.9663 5.77321 -5.6513 5.07343 318 388.2)" gradientUnits="userSpaceOnUse"><stop offset=".2" stop-color="#886BB4"/><stop offset="1" stop-color="#5D5FC6"/></radialGradient><radialGradient id="r" cx="0" cy="0" r="1" gradientTransform="matrix(2.8975 0 0 2.75267 350.9 393.9)" gradientUnits="userSpaceOnUse"><stop offset=".7" stop-opacity="0"/><stop offset=".9" stop-opacity=".5"/><stop offset="1"/></radialGradient><radialGradient id="t" cx="0" cy="0" r="1" gradientTransform="matrix(.65272 -4.30794 -3.48116 -.52217 348.3 394.5)" gradientUnits="userSpaceOnUse"><stop offset=".8" stop-opacity="0"/><stop offset=".9" stop-opacity=".5"/><stop offset="1"/></radialGradient><radialGradient id="u" cx="0" cy="0" r="1" gradientTransform="matrix(-.24598 6.14957 13.0986 .49196 346.9 389.9)" gradientUnits="userSpaceOnUse"><stop stop-color="#35C1F1"/><stop offset=".1" stop-color="#34C1ED"/><stop offset=".2" stop-color="#2FC2DF"/><stop offset=".3" stop-color="#2BC3D2"/><stop offset=".7" stop-color="#36C752"/></radialGradient><radialGradient id="v" cx="0" cy="0" r="1" gradientTransform="matrix(.82798 2.83878 2.30651 -.68012 353.4 390.8)" gradientUnits="userSpaceOnUse"><stop stop-color="#66EB6E"/><stop offset="1" stop-color="#66EB6E" stop-opacity="0"/></radialGradient><clipPath id="a"><path fill="#fff" d="M0 0h640v480H0z"/></clipPath><clipPath id="c"><path fill="#fff" d="M73.5 83.2a13 13 0 0 1 13-13h467a13 13 0 0 1 13 13v316.5h-493V83.2Z"/></clipPath><clipPath id="d"><path fill="#fff" d="M73 383h493v17H73z"/></clipPath><clipPath id="y"><path fill="#fff" d="M73 70h493v313H73z"/></clipPath><filter id="b" width="645.1" height="6.4" x="-2.5" y="415.5" color-interpolation-filters="sRGB" filterUnits="userSpaceOnUse"><feFlood flood-opacity="0" result="BackgroundImageFix"/><feBlend in="SourceGraphic" in2="BackgroundImageFix" result="shape"/><feGaussianBlur result="effect1_foregroundBlur_9636_80667" stdDeviation="1.5"/></filter></defs></svg>